<?xml version="1.0" encoding="UTF-8" standalone="no"?>
<!DOCTYPE svg PUBLIC "-//W3C//DTD SVG 1.1//EN"
 "http://www.w3.org/Graphics/SVG/1.1/DTD/svg11.dtd">
<!-- Generated by graphviz version 2.43.0 (0)
 -->
<!-- Title: flow::util::Basic_blob::assign Pages: 1 -->
<svg width="260pt" height="117pt"
 viewBox="0.00 0.00 260.00 117.00" xmlns="http://www.w3.org/2000/svg" xmlns:xlink="http://www.w3.org/1999/xlink">
<g id="graph0" class="graph" transform="scale(1 1) rotate(0) translate(4 113)">
<title>flow::util::Basic_blob::assign</title>
<polygon fill="white" stroke="transparent" points="-4,4 -4,-113 256,-113 256,4 -4,4"/>
<!-- Node1 -->
<g id="node1" class="node">
<title>Node1</title>
<g id="a_node1"><a xlink:title="Copy assignment: assuming (this != &amp;src) &amp;&amp; (!blobs_sharing(*this, src)), makes *this logically equal...">
<polygon fill="#bfbfbf" stroke="black" points="0,-41.5 0,-67.5 101,-67.5 101,-41.5 0,-41.5"/>
<text text-anchor="start" x="8" y="-57.1" font-family="Helvetica,sans-Serif" font-size="8.00">flow::util::Basic_blob</text>
<text text-anchor="middle" x="50.5" y="-48.1" font-family="Helvetica,sans-Serif" font-size="8.00">::assign</text>
</a>
</g>
</g>
<!-- Node2 -->
<g id="node2" class="node">
<title>Node2</title>
<g id="a_node2"><a xlink:href="classflow_1_1util_1_1Basic__blob.html#af6bdf2ee9e562400a0476282c8c66ff0" target="_top" xlink:title="For convenience/expressiveness, the allocator object for *this.">
<polygon fill="white" stroke="black" points="144,-82.5 144,-108.5 245,-108.5 245,-82.5 144,-82.5"/>
<text text-anchor="start" x="152" y="-98.1" font-family="Helvetica,sans-Serif" font-size="8.00">flow::util::Basic_blob</text>
<text text-anchor="middle" x="194.5" y="-89.1" font-family="Helvetica,sans-Serif" font-size="8.00">::alloc_raw</text>
</a>
</g>
</g>
<!-- Node1&#45;&gt;Node2 -->
<g id="edge1" class="edge">
<title>Node1&#45;&gt;Node2</title>
<path fill="none" stroke="midnightblue" d="M96.82,-67.59C110.01,-71.39 124.57,-75.6 138.3,-79.56"/>
<polygon fill="midnightblue" stroke="midnightblue" points="137.54,-82.99 148.12,-82.4 139.49,-76.26 137.54,-82.99"/>
</g>
<!-- Node3 -->
<g id="node3" class="node">
<title>Node3</title>
<g id="a_node3"><a xlink:href="namespaceflow_1_1util.html#a25c63cd23dd19d7899c773f257d0f397" target="_top" xlink:title="Returns true if and only if both given objects are not zero() == true, and they either co&#45;own a commo...">
<polygon fill="white" stroke="black" points="137,-46 137,-63 252,-63 252,-46 137,-46"/>
<text text-anchor="middle" x="194.5" y="-52.6" font-family="Helvetica,sans-Serif" font-size="8.00">flow::util::blobs_sharing</text>
</a>
</g>
</g>
<!-- Node1&#45;&gt;Node3 -->
<g id="edge2" class="edge">
<title>Node1&#45;&gt;Node3</title>
<path fill="none" stroke="midnightblue" d="M101.16,-54.5C109.44,-54.5 118.15,-54.5 126.77,-54.5"/>
<polygon fill="midnightblue" stroke="midnightblue" points="126.82,-58 136.82,-54.5 126.82,-51 126.82,-58"/>
</g>
<!-- Node4 -->
<g id="node4" class="node">
<title>Node4</title>
<g id="a_node4"><a xlink:href="classflow_1_1util_1_1Basic__blob.html#a7c7e0aef110c4ab5f335d633e9a96abb" target="_top" xlink:title="Convenience accessor returning an immutable boost.asio buffer &quot;view&quot; into the entirety of the blob.">
<polygon fill="white" stroke="black" points="144,-0.5 144,-26.5 245,-26.5 245,-0.5 144,-0.5"/>
<text text-anchor="start" x="152" y="-16.1" font-family="Helvetica,sans-Serif" font-size="8.00">flow::util::Basic_blob</text>
<text text-anchor="middle" x="194.5" y="-7.1" font-family="Helvetica,sans-Serif" font-size="8.00">::const_buffer</text>
</a>
</g>
</g>
<!-- Node1&#45;&gt;Node4 -->
<g id="edge3" class="edge">
<title>Node1&#45;&gt;Node4</title>
<path fill="none" stroke="midnightblue" d="M96.82,-41.41C110.01,-37.61 124.57,-33.4 138.3,-29.44"/>
<polygon fill="midnightblue" stroke="midnightblue" points="139.49,-32.74 148.12,-26.6 137.54,-26.01 139.49,-32.74"/>
</g>
</g>
</svg>
