<?xml version="1.0" encoding="UTF-8" standalone="no"?>
<!DOCTYPE svg PUBLIC "-//W3C//DTD SVG 1.1//EN"
 "http://www.w3.org/Graphics/SVG/1.1/DTD/svg11.dtd">
<!-- Generated by graphviz version 2.43.0 (0)
 -->
<!-- Title: flow::net_flow::asio::Peer_socket::cast Pages: 1 -->
<svg width="433pt" height="248pt"
 viewBox="0.00 0.00 433.00 248.00" xmlns="http://www.w3.org/2000/svg" xmlns:xlink="http://www.w3.org/1999/xlink">
<g id="graph0" class="graph" transform="scale(1 1) rotate(0) translate(4 244)">
<title>flow::net_flow::asio::Peer_socket::cast</title>
<polygon fill="white" stroke="transparent" points="-4,4 -4,-244 429,-244 429,4 -4,4"/>
<!-- Node1 -->
<g id="node1" class="node">
<title>Node1</title>
<g id="a_node1"><a xlink:title="Convenience method that polymorphically casts from net_flow::Peer_socket::Ptr to subclass pointer net...">
<polygon fill="#bfbfbf" stroke="black" points="329,-84 329,-110 425,-110 425,-84 329,-84"/>
<text text-anchor="start" x="337" y="-99.6" font-family="Helvetica,sans-Serif" font-size="8.00">flow::net_flow::asio</text>
<text text-anchor="middle" x="377" y="-90.6" font-family="Helvetica,sans-Serif" font-size="8.00">::Peer_socket::cast</text>
</a>
</g>
</g>
<!-- Node2 -->
<g id="node2" class="node">
<title>Node2</title>
<g id="a_node2"><a xlink:href="classflow_1_1net__flow_1_1asio_1_1Server__socket.html#a01233841b5cde6b22a2ae2481c14c51b" target="_top" xlink:title="De&#45;templated implementation of all async_accept() methods.">
<polygon fill="white" stroke="black" points="172,-179.5 172,-214.5 282,-214.5 282,-179.5 172,-179.5"/>
<text text-anchor="start" x="180" y="-204.1" font-family="Helvetica,sans-Serif" font-size="8.00">flow::net_flow::asio</text>
<text text-anchor="start" x="180" y="-195.1" font-family="Helvetica,sans-Serif" font-size="8.00">::Server_socket::async</text>
<text text-anchor="middle" x="227" y="-186.1" font-family="Helvetica,sans-Serif" font-size="8.00">_accept_impl</text>
</a>
</g>
</g>
<!-- Node1&#45;&gt;Node2 -->
<g id="edge1" class="edge">
<title>Node1&#45;&gt;Node2</title>
<path fill="none" stroke="midnightblue" d="M348.05,-115.88C321.04,-134.13 280.45,-161.56 254.08,-179.38"/>
<polygon fill="midnightblue" stroke="midnightblue" points="350.33,-118.57 356.65,-110.07 346.41,-112.77 350.33,-118.57"/>
</g>
<!-- Node4 -->
<g id="node4" class="node">
<title>Node4</title>
<g id="a_node4"><a xlink:href="classflow_1_1net__flow_1_1asio_1_1Node.html#aecac8b38cd35267b1af57e2443a55ea0" target="_top" xlink:title="Implementation core of async_connect*() that gets rid of templated or missing arguments thereof.">
<polygon fill="white" stroke="black" points="161,-109 161,-135 293,-135 293,-109 161,-109"/>
<text text-anchor="start" x="169" y="-124.6" font-family="Helvetica,sans-Serif" font-size="8.00">flow::net_flow::asio</text>
<text text-anchor="middle" x="227" y="-115.6" font-family="Helvetica,sans-Serif" font-size="8.00">::Node::async_connect_impl</text>
</a>
</g>
</g>
<!-- Node1&#45;&gt;Node4 -->
<g id="edge3" class="edge">
<title>Node1&#45;&gt;Node4</title>
<path fill="none" stroke="midnightblue" d="M318.72,-106.68C310.34,-108.09 301.66,-109.56 293.14,-111"/>
<polygon fill="midnightblue" stroke="midnightblue" points="319.49,-110.1 328.76,-104.98 318.32,-103.19 319.49,-110.1"/>
</g>
<!-- Node7 -->
<g id="node7" class="node">
<title>Node7</title>
<g id="a_node7"><a xlink:href="classflow_1_1net__flow_1_1asio_1_1Peer__socket.html#a85e456ae997bae047e022d234bec9531" target="_top" xlink:title="De&#45;templated implementation of all async_receive() methods.">
<polygon fill="white" stroke="black" points="176.5,-54.5 176.5,-89.5 277.5,-89.5 277.5,-54.5 176.5,-54.5"/>
<text text-anchor="start" x="184.5" y="-79.1" font-family="Helvetica,sans-Serif" font-size="8.00">flow::net_flow::asio</text>
<text text-anchor="start" x="184.5" y="-70.1" font-family="Helvetica,sans-Serif" font-size="8.00">::Peer_socket::async</text>
<text text-anchor="middle" x="227" y="-61.1" font-family="Helvetica,sans-Serif" font-size="8.00">_receive_impl</text>
</a>
</g>
</g>
<!-- Node1&#45;&gt;Node7 -->
<g id="edge6" class="edge">
<title>Node1&#45;&gt;Node7</title>
<path fill="none" stroke="midnightblue" d="M318.6,-87.3C305.06,-85.02 290.75,-82.6 277.59,-80.38"/>
<polygon fill="midnightblue" stroke="midnightblue" points="318.32,-90.81 328.76,-89.02 319.49,-83.9 318.32,-90.81"/>
</g>
<!-- Node9 -->
<g id="node9" class="node">
<title>Node9</title>
<g id="a_node9"><a xlink:href="classflow_1_1net__flow_1_1asio_1_1Peer__socket.html#ab6c48bcfc9cab0b42216443f39fa8a4b" target="_top" xlink:title="De&#45;templated implementation of all async_send() methods.">
<polygon fill="white" stroke="black" points="176.5,-0.5 176.5,-35.5 277.5,-35.5 277.5,-0.5 176.5,-0.5"/>
<text text-anchor="start" x="184.5" y="-25.1" font-family="Helvetica,sans-Serif" font-size="8.00">flow::net_flow::asio</text>
<text text-anchor="start" x="184.5" y="-16.1" font-family="Helvetica,sans-Serif" font-size="8.00">::Peer_socket::async</text>
<text text-anchor="middle" x="227" y="-7.1" font-family="Helvetica,sans-Serif" font-size="8.00">_send_impl</text>
</a>
</g>
</g>
<!-- Node1&#45;&gt;Node9 -->
<g id="edge8" class="edge">
<title>Node1&#45;&gt;Node9</title>
<path fill="none" stroke="midnightblue" d="M348.34,-78.05C332.51,-67.63 312.07,-54.85 293,-45 286.7,-41.75 279.92,-38.58 273.2,-35.63"/>
<polygon fill="midnightblue" stroke="midnightblue" points="346.82,-81.24 357.08,-83.88 350.7,-75.42 346.82,-81.24"/>
</g>
<!-- Node3 -->
<g id="node3" class="node">
<title>Node3</title>
<g id="a_node3"><a xlink:href="classflow_1_1net__flow_1_1asio_1_1Server__socket.html#a8f374618b5d754321ac288cd6f1f50ea" target="_top" xlink:title="boost.asio&#45;style asynchronous version that essentially performs net_flow::Server_socket::sync_accept(...">
<polygon fill="white" stroke="black" points="7.5,-204.5 7.5,-239.5 117.5,-239.5 117.5,-204.5 7.5,-204.5"/>
<text text-anchor="start" x="15.5" y="-229.1" font-family="Helvetica,sans-Serif" font-size="8.00">flow::net_flow::asio</text>
<text text-anchor="start" x="15.5" y="-220.1" font-family="Helvetica,sans-Serif" font-size="8.00">::Server_socket::async</text>
<text text-anchor="middle" x="62.5" y="-211.1" font-family="Helvetica,sans-Serif" font-size="8.00">_accept</text>
</a>
</g>
</g>
<!-- Node2&#45;&gt;Node3 -->
<g id="edge2" class="edge">
<title>Node2&#45;&gt;Node3</title>
<path fill="none" stroke="midnightblue" d="M161.9,-206.86C147.26,-209.11 131.83,-211.49 117.65,-213.67"/>
<polygon fill="midnightblue" stroke="midnightblue" points="162.54,-210.3 171.89,-205.32 161.47,-203.39 162.54,-210.3"/>
</g>
<!-- Node5 -->
<g id="node5" class="node">
<title>Node5</title>
<g id="a_node5"><a xlink:href="classflow_1_1net__flow_1_1asio_1_1Node.html#a97d21b9a18651cd234589f3b0b6d2971" target="_top" xlink:title="The boost.asio asynchronous version of sync_connect(), performing any necessary wait and connection i...">
<polygon fill="white" stroke="black" points="7,-159 7,-185 118,-185 118,-159 7,-159"/>
<text text-anchor="start" x="15" y="-174.6" font-family="Helvetica,sans-Serif" font-size="8.00">flow::net_flow::asio</text>
<text text-anchor="middle" x="62.5" y="-165.6" font-family="Helvetica,sans-Serif" font-size="8.00">::Node::async_connect</text>
</a>
</g>
</g>
<!-- Node4&#45;&gt;Node5 -->
<g id="edge4" class="edge">
<title>Node4&#45;&gt;Node5</title>
<path fill="none" stroke="midnightblue" d="M173.89,-138.03C151.91,-144.8 126.65,-152.57 105.84,-158.97"/>
<polygon fill="midnightblue" stroke="midnightblue" points="175.2,-141.29 183.73,-135.01 173.14,-134.6 175.2,-141.29"/>
</g>
<!-- Node6 -->
<g id="node6" class="node">
<title>Node6</title>
<g id="a_node6"><a xlink:href="classflow_1_1net__flow_1_1asio_1_1Node.html#af8ae97d499f6de21140b89218e52fc4c" target="_top" xlink:title="A combination of async_connect() and connect_with_metadata() (asynchronously blocking connect,...">
<polygon fill="white" stroke="black" points="7,-104.5 7,-139.5 118,-139.5 118,-104.5 7,-104.5"/>
<text text-anchor="start" x="15" y="-129.1" font-family="Helvetica,sans-Serif" font-size="8.00">flow::net_flow::asio</text>
<text text-anchor="start" x="15" y="-120.1" font-family="Helvetica,sans-Serif" font-size="8.00">::Node::async_connect</text>
<text text-anchor="middle" x="62.5" y="-111.1" font-family="Helvetica,sans-Serif" font-size="8.00">_with_metadata</text>
</a>
</g>
</g>
<!-- Node4&#45;&gt;Node6 -->
<g id="edge5" class="edge">
<title>Node4&#45;&gt;Node6</title>
<path fill="none" stroke="midnightblue" d="M150.82,-122C139.84,-122 128.7,-122 118.23,-122"/>
<polygon fill="midnightblue" stroke="midnightblue" points="150.84,-125.5 160.84,-122 150.84,-118.5 150.84,-125.5"/>
</g>
<!-- Node8 -->
<g id="node8" class="node">
<title>Node8</title>
<g id="a_node8"><a xlink:href="classflow_1_1net__flow_1_1asio_1_1Peer__socket.html#a98186f8257f1f7b49dbbbc13c0dda7fe" target="_top" xlink:title="boost.asio&#45;style asynchronous version that essentially performs non&#45;null_buffers net_flow::Peer_socke...">
<polygon fill="white" stroke="black" points="12,-50.5 12,-85.5 113,-85.5 113,-50.5 12,-50.5"/>
<text text-anchor="start" x="20" y="-75.1" font-family="Helvetica,sans-Serif" font-size="8.00">flow::net_flow::asio</text>
<text text-anchor="start" x="20" y="-66.1" font-family="Helvetica,sans-Serif" font-size="8.00">::Peer_socket::async</text>
<text text-anchor="middle" x="62.5" y="-57.1" font-family="Helvetica,sans-Serif" font-size="8.00">_receive</text>
</a>
</g>
</g>
<!-- Node7&#45;&gt;Node8 -->
<g id="edge7" class="edge">
<title>Node7&#45;&gt;Node8</title>
<path fill="none" stroke="midnightblue" d="M166.27,-70.53C148.79,-70.1 129.89,-69.63 113.11,-69.22"/>
<polygon fill="midnightblue" stroke="midnightblue" points="166.28,-74.03 176.36,-70.78 166.45,-67.03 166.28,-74.03"/>
</g>
<!-- Node10 -->
<g id="node10" class="node">
<title>Node10</title>
<g id="a_node10"><a xlink:href="classflow_1_1net__flow_1_1asio_1_1Peer__socket.html#a33adc635f29071b10ea59802405d9b6c" target="_top" xlink:title="boost.asio&#45;style asynchronous version that essentially performs non&#45;null_buffers net_flow::Peer_socke...">
<polygon fill="white" stroke="black" points="0,-5 0,-31 125,-31 125,-5 0,-5"/>
<text text-anchor="start" x="8" y="-20.6" font-family="Helvetica,sans-Serif" font-size="8.00">flow::net_flow::asio</text>
<text text-anchor="middle" x="62.5" y="-11.6" font-family="Helvetica,sans-Serif" font-size="8.00">::Peer_socket::async_send</text>
</a>
</g>
</g>
<!-- Node9&#45;&gt;Node10 -->
<g id="edge9" class="edge">
<title>Node9&#45;&gt;Node10</title>
<path fill="none" stroke="midnightblue" d="M166.3,-18C152.9,-18 138.66,-18 125.18,-18"/>
<polygon fill="midnightblue" stroke="midnightblue" points="166.36,-21.5 176.36,-18 166.36,-14.5 166.36,-21.5"/>
</g>
</g>
</svg>
