<?xml version="1.0" encoding="UTF-8" standalone="no"?>
<!DOCTYPE svg PUBLIC "-//W3C//DTD SVG 1.1//EN"
 "http://www.w3.org/Graphics/SVG/1.1/DTD/svg11.dtd">
<!-- Generated by graphviz version 2.43.0 (0)
 -->
<!-- Title: flow::log::Config::component_to_union_idx Pages: 1 -->
<svg width="572pt" height="80pt"
 viewBox="0.00 0.00 572.00 80.00" xmlns="http://www.w3.org/2000/svg" xmlns:xlink="http://www.w3.org/1999/xlink">
<g id="graph0" class="graph" transform="scale(1 1) rotate(0) translate(4 76)">
<title>flow::log::Config::component_to_union_idx</title>
<polygon fill="white" stroke="transparent" points="-4,4 -4,-76 568,-76 568,4 -4,4"/>
<!-- Node1 -->
<g id="node1" class="node">
<title>Node1</title>
<g id="a_node1"><a xlink:title="Given a component in the form user provides it at log call sites, returns its index in the flat compo...">
<polygon fill="#bfbfbf" stroke="black" points="0,-22.5 0,-48.5 118,-48.5 118,-22.5 0,-22.5"/>
<text text-anchor="start" x="8" y="-38.1" font-family="Helvetica,sans-Serif" font-size="8.00">flow::log::Config::</text>
<text text-anchor="middle" x="59" y="-29.1" font-family="Helvetica,sans-Serif" font-size="8.00">component_to_union_idx</text>
</a>
</g>
</g>
<!-- Node2 -->
<g id="node2" class="node">
<title>Node2</title>
<g id="a_node2"><a xlink:href="classflow_1_1log_1_1Component.html#a899a7d2b0c5daa8e4d666d431b9bf48e" target="_top" xlink:title="Returns the numeric value of the enum payload stored by this Component, originating in the one&#45;arg co...">
<polygon fill="white" stroke="black" points="295,-45.5 295,-71.5 423,-71.5 423,-45.5 295,-45.5"/>
<text text-anchor="start" x="303" y="-61.1" font-family="Helvetica,sans-Serif" font-size="8.00">flow::log::Component</text>
<text text-anchor="middle" x="359" y="-52.1" font-family="Helvetica,sans-Serif" font-size="8.00">::payload_enum_raw_value</text>
</a>
</g>
</g>
<!-- Node1&#45;&gt;Node2 -->
<g id="edge1" class="edge">
<title>Node1&#45;&gt;Node2</title>
<path fill="none" stroke="midnightblue" d="M118.16,-39.99C165.8,-43.67 233.47,-48.89 284.8,-52.85"/>
<polygon fill="midnightblue" stroke="midnightblue" points="284.59,-56.34 294.83,-53.62 285.13,-49.37 284.59,-56.34"/>
</g>
<!-- Node4 -->
<g id="node4" class="node">
<title>Node4</title>
<g id="a_node4"><a xlink:href="classflow_1_1log_1_1Component.html#ab071f597ddeee9ad0fdb9e40bff8d988" target="_top" xlink:title="Convenience accessor that returns std::type_index(payload_type()), which can be used most excellently...">
<polygon fill="white" stroke="black" points="154,-1.5 154,-27.5 259,-27.5 259,-1.5 154,-1.5"/>
<text text-anchor="start" x="162" y="-17.1" font-family="Helvetica,sans-Serif" font-size="8.00">flow::log::Component</text>
<text text-anchor="middle" x="206.5" y="-8.1" font-family="Helvetica,sans-Serif" font-size="8.00">::payload_type_index</text>
</a>
</g>
</g>
<!-- Node1&#45;&gt;Node4 -->
<g id="edge3" class="edge">
<title>Node1&#45;&gt;Node4</title>
<path fill="none" stroke="midnightblue" d="M118.34,-27.08C126.66,-25.88 135.24,-24.64 143.62,-23.43"/>
<polygon fill="midnightblue" stroke="midnightblue" points="144.32,-26.87 153.72,-21.97 143.32,-19.94 144.32,-26.87"/>
</g>
<!-- Node3 -->
<g id="node3" class="node">
<title>Node3</title>
<g id="a_node3"><a xlink:href="classflow_1_1log_1_1Component.html#a5af2f66731c407bd519a873706bd04c4" target="_top" xlink:title="Returns true if *this is as if default&#45;constructed (a null Component); false if as if constructed via...">
<polygon fill="white" stroke="black" points="459,-22.5 459,-48.5 564,-48.5 564,-22.5 459,-22.5"/>
<text text-anchor="start" x="467" y="-38.1" font-family="Helvetica,sans-Serif" font-size="8.00">flow::log::Component</text>
<text text-anchor="middle" x="511.5" y="-29.1" font-family="Helvetica,sans-Serif" font-size="8.00">::empty</text>
</a>
</g>
</g>
<!-- Node2&#45;&gt;Node3 -->
<g id="edge2" class="edge">
<title>Node2&#45;&gt;Node3</title>
<path fill="none" stroke="midnightblue" d="M423.39,-48.81C431.73,-47.54 440.27,-46.23 448.58,-44.96"/>
<polygon fill="midnightblue" stroke="midnightblue" points="449.22,-48.41 458.58,-43.43 448.17,-41.49 449.22,-48.41"/>
</g>
<!-- Node5 -->
<g id="node5" class="node">
<title>Node5</title>
<g id="a_node5"><a xlink:href="classflow_1_1log_1_1Component.html#a3ff8ff4d75add447b3e10ded5430833d" target="_top" xlink:title="Returns typeid(Payload), where Payload was the template param used when calling the originating one&#45;a...">
<polygon fill="white" stroke="black" points="306.5,-0.5 306.5,-26.5 411.5,-26.5 411.5,-0.5 306.5,-0.5"/>
<text text-anchor="start" x="314.5" y="-16.1" font-family="Helvetica,sans-Serif" font-size="8.00">flow::log::Component</text>
<text text-anchor="middle" x="359" y="-7.1" font-family="Helvetica,sans-Serif" font-size="8.00">::payload_type</text>
</a>
</g>
</g>
<!-- Node4&#45;&gt;Node5 -->
<g id="edge4" class="edge">
<title>Node4&#45;&gt;Node5</title>
<path fill="none" stroke="midnightblue" d="M259.29,-14.16C271.18,-14.08 283.94,-13.99 296.21,-13.91"/>
<polygon fill="midnightblue" stroke="midnightblue" points="296.39,-17.41 306.37,-13.84 296.34,-10.41 296.39,-17.41"/>
</g>
<!-- Node5&#45;&gt;Node3 -->
<g id="edge5" class="edge">
<title>Node5&#45;&gt;Node3</title>
<path fill="none" stroke="midnightblue" d="M411.79,-21.07C423.68,-22.81 436.44,-24.67 448.71,-26.47"/>
<polygon fill="midnightblue" stroke="midnightblue" points="448.46,-29.97 458.87,-27.95 449.48,-23.04 448.46,-29.97"/>
</g>
</g>
</svg>
