<?xml version="1.0" encoding="UTF-8" standalone="no"?>
<!DOCTYPE svg PUBLIC "-//W3C//DTD SVG 1.1//EN"
 "http://www.w3.org/Graphics/SVG/1.1/DTD/svg11.dtd">
<!-- Generated by graphviz version 2.43.0 (0)
 -->
<!-- Title: flow::log::Component::empty Pages: 1 -->
<svg width="1043pt" height="219pt"
 viewBox="0.00 0.00 1043.00 218.50" xmlns="http://www.w3.org/2000/svg" xmlns:xlink="http://www.w3.org/1999/xlink">
<g id="graph0" class="graph" transform="scale(1 1) rotate(0) translate(4 214.5)">
<title>flow::log::Component::empty</title>
<polygon fill="white" stroke="transparent" points="-4,4 -4,-214.5 1039,-214.5 1039,4 -4,4"/>
<!-- Node1 -->
<g id="node1" class="node">
<title>Node1</title>
<g id="a_node1"><a xlink:title="Returns true if *this is as if default&#45;constructed (a null Component); false if as if constructed via...">
<polygon fill="#bfbfbf" stroke="black" points="930,-67.5 930,-93.5 1035,-93.5 1035,-67.5 930,-67.5"/>
<text text-anchor="start" x="938" y="-83.1" font-family="Helvetica,sans-Serif" font-size="8.00">flow::log::Component</text>
<text text-anchor="middle" x="982.5" y="-74.1" font-family="Helvetica,sans-Serif" font-size="8.00">::empty</text>
</a>
</g>
</g>
<!-- Node2 -->
<g id="node2" class="node">
<title>Node2</title>
<g id="a_node2"><a xlink:href="classflow_1_1log_1_1Config.html#a6376bf2af57f655c1cdf00791e6a2f7f" target="_top" xlink:title="An output of Config, this writes a string representation of the given component value to the given os...">
<polygon fill="white" stroke="black" points="317.5,-145 317.5,-180 423.5,-180 423.5,-145 317.5,-145"/>
<text text-anchor="start" x="325.5" y="-169.6" font-family="Helvetica,sans-Serif" font-size="8.00">flow::log::Config::</text>
<text text-anchor="start" x="325.5" y="-160.6" font-family="Helvetica,sans-Serif" font-size="8.00">output_component_to</text>
<text text-anchor="middle" x="370.5" y="-151.6" font-family="Helvetica,sans-Serif" font-size="8.00">_ostream</text>
</a>
</g>
</g>
<!-- Node1&#45;&gt;Node2 -->
<g id="edge1" class="edge">
<title>Node1&#45;&gt;Node2</title>
<path fill="none" stroke="midnightblue" d="M928.04,-96.26C916.85,-99.24 905.09,-102.16 894,-104.5 724.1,-140.32 518.15,-154.93 423.57,-160.08"/>
<polygon fill="midnightblue" stroke="midnightblue" points="928.96,-99.63 937.69,-93.62 927.12,-92.88 928.96,-99.63"/>
</g>
<!-- Node6 -->
<g id="node6" class="node">
<title>Node6</title>
<g id="a_node6"><a xlink:href="classflow_1_1log_1_1Config.html#ae429a329e31a41ba75f94578b0e7f26c" target="_top" xlink:title="A key output of Config, this computes the verbosity&#45;filtering answer to Logger::should_log() based on...">
<polygon fill="white" stroke="black" points="306,-0.5 306,-26.5 435,-26.5 435,-0.5 306,-0.5"/>
<text text-anchor="start" x="314" y="-16.1" font-family="Helvetica,sans-Serif" font-size="8.00">flow::log::Config::</text>
<text text-anchor="middle" x="370.5" y="-7.1" font-family="Helvetica,sans-Serif" font-size="8.00">output_whether_should_log</text>
</a>
</g>
</g>
<!-- Node1&#45;&gt;Node6 -->
<g id="edge5" class="edge">
<title>Node1&#45;&gt;Node6</title>
<path fill="none" stroke="midnightblue" d="M953.37,-62.06C936.81,-52.24 915.04,-41.06 894,-35.5 733.15,7.04 534.85,-0.05 435.14,-7.51"/>
<polygon fill="midnightblue" stroke="midnightblue" points="951.64,-65.1 962,-67.33 955.29,-59.13 951.64,-65.1"/>
</g>
<!-- Node7 -->
<g id="node7" class="node">
<title>Node7</title>
<g id="a_node7"><a xlink:href="classflow_1_1log_1_1Component.html#a899a7d2b0c5daa8e4d666d431b9bf48e" target="_top" xlink:title="Returns the numeric value of the enum payload stored by this Component, originating in the one&#45;arg co...">
<polygon fill="white" stroke="black" points="625,-89.5 625,-115.5 753,-115.5 753,-89.5 625,-89.5"/>
<text text-anchor="start" x="633" y="-105.1" font-family="Helvetica,sans-Serif" font-size="8.00">flow::log::Component</text>
<text text-anchor="middle" x="689" y="-96.1" font-family="Helvetica,sans-Serif" font-size="8.00">::payload_enum_raw_value</text>
</a>
</g>
</g>
<!-- Node1&#45;&gt;Node7 -->
<g id="edge6" class="edge">
<title>Node1&#45;&gt;Node7</title>
<path fill="none" stroke="midnightblue" d="M919.58,-85.17C870.61,-88.87 802.53,-94.01 753.23,-97.73"/>
<polygon fill="midnightblue" stroke="midnightblue" points="920.01,-88.65 929.72,-84.41 919.49,-81.67 920.01,-88.65"/>
</g>
<!-- Node11 -->
<g id="node11" class="node">
<title>Node11</title>
<g id="a_node11"><a xlink:href="classflow_1_1log_1_1Component.html#a3ff8ff4d75add447b3e10ded5430833d" target="_top" xlink:title="Returns typeid(Payload), where Payload was the template param used when calling the originating one&#45;a...">
<polygon fill="white" stroke="black" points="789,-45.5 789,-71.5 894,-71.5 894,-45.5 789,-45.5"/>
<text text-anchor="start" x="797" y="-61.1" font-family="Helvetica,sans-Serif" font-size="8.00">flow::log::Component</text>
<text text-anchor="middle" x="841.5" y="-52.1" font-family="Helvetica,sans-Serif" font-size="8.00">::payload_type</text>
</a>
</g>
</g>
<!-- Node1&#45;&gt;Node11 -->
<g id="edge12" class="edge">
<title>Node1&#45;&gt;Node11</title>
<path fill="none" stroke="midnightblue" d="M919.84,-70.74C911.31,-69.39 902.62,-68.02 894.3,-66.7"/>
<polygon fill="midnightblue" stroke="midnightblue" points="919.32,-74.2 929.74,-72.31 920.41,-67.29 919.32,-74.2"/>
</g>
<!-- Node3 -->
<g id="node3" class="node">
<title>Node3</title>
<g id="a_node3"><a xlink:href="classflow_1_1log_1_1Ostream__log__msg__writer.html#a7ac568ffa478c6fc64775c23b00d3fb3" target="_top" xlink:title="Remainder of log() functionality after either do_log_with_epoch_time_stamp() or do_log_with_human_fri...">
<polygon fill="white" stroke="black" points="170,-145 170,-180 270,-180 270,-145 170,-145"/>
<text text-anchor="start" x="178" y="-169.6" font-family="Helvetica,sans-Serif" font-size="8.00">flow::log::Ostream</text>
<text text-anchor="start" x="178" y="-160.6" font-family="Helvetica,sans-Serif" font-size="8.00">_log_msg_writer::log</text>
<text text-anchor="middle" x="220" y="-151.6" font-family="Helvetica,sans-Serif" font-size="8.00">_past_time_stamp</text>
</a>
</g>
</g>
<!-- Node2&#45;&gt;Node3 -->
<g id="edge2" class="edge">
<title>Node2&#45;&gt;Node3</title>
<path fill="none" stroke="midnightblue" d="M307.01,-162.5C294.78,-162.5 282.12,-162.5 270.4,-162.5"/>
<polygon fill="midnightblue" stroke="midnightblue" points="307.14,-166 317.14,-162.5 307.14,-159 307.14,-166"/>
</g>
<!-- Node4 -->
<g id="node4" class="node">
<title>Node4</title>
<g id="a_node4"><a xlink:href="classflow_1_1log_1_1Ostream__log__msg__writer.html#ab0f5d7c5f289defcded5fa3560059411" target="_top" xlink:title="log() implementation with time stamp = seconds.microseconds since Epoch.">
<polygon fill="white" stroke="black" points="0,-175 0,-210 134,-210 134,-175 0,-175"/>
<text text-anchor="start" x="8" y="-199.6" font-family="Helvetica,sans-Serif" font-size="8.00">flow::log::Ostream</text>
<text text-anchor="start" x="8" y="-190.6" font-family="Helvetica,sans-Serif" font-size="8.00">_log_msg_writer::do</text>
<text text-anchor="middle" x="67" y="-181.6" font-family="Helvetica,sans-Serif" font-size="8.00">_log_with_epoch_time_stamp</text>
</a>
</g>
</g>
<!-- Node3&#45;&gt;Node4 -->
<g id="edge3" class="edge">
<title>Node3&#45;&gt;Node4</title>
<path fill="none" stroke="midnightblue" d="M160.12,-174.2C151.58,-175.89 142.75,-177.65 134.08,-179.37"/>
<polygon fill="midnightblue" stroke="midnightblue" points="160.85,-177.62 169.97,-172.24 159.48,-170.76 160.85,-177.62"/>
</g>
<!-- Node5 -->
<g id="node5" class="node">
<title>Node5</title>
<g id="a_node5"><a xlink:href="classflow_1_1log_1_1Ostream__log__msg__writer.html#a53d47232844dc7060ee95b4d831bbe29" target="_top" xlink:title="log() implementation with time stamp = date/time with microsecond+ resolution/time zone,...">
<polygon fill="white" stroke="black" points="6.5,-111.5 6.5,-155.5 127.5,-155.5 127.5,-111.5 6.5,-111.5"/>
<text text-anchor="start" x="14.5" y="-145.1" font-family="Helvetica,sans-Serif" font-size="8.00">flow::log::Ostream</text>
<text text-anchor="start" x="14.5" y="-136.1" font-family="Helvetica,sans-Serif" font-size="8.00">_log_msg_writer::do</text>
<text text-anchor="start" x="14.5" y="-127.1" font-family="Helvetica,sans-Serif" font-size="8.00">_log_with_human_friendly</text>
<text text-anchor="middle" x="67" y="-118.1" font-family="Helvetica,sans-Serif" font-size="8.00">_time_stamp</text>
</a>
</g>
</g>
<!-- Node3&#45;&gt;Node5 -->
<g id="edge4" class="edge">
<title>Node3&#45;&gt;Node5</title>
<path fill="none" stroke="midnightblue" d="M159.95,-151.16C149.32,-149.12 138.24,-146.99 127.59,-144.94"/>
<polygon fill="midnightblue" stroke="midnightblue" points="159.49,-154.64 169.97,-153.08 160.81,-147.76 159.49,-154.64"/>
</g>
<!-- Node8 -->
<g id="node8" class="node">
<title>Node8</title>
<g id="a_node8"><a xlink:href="classflow_1_1log_1_1Config.html#af2d963a6e1e9e0fc5809764d5718e938" target="_top" xlink:title="Given a component in the form user provides it at log call sites, returns its index in the flat compo...">
<polygon fill="white" stroke="black" points="471,-67.5 471,-93.5 589,-93.5 589,-67.5 471,-67.5"/>
<text text-anchor="start" x="479" y="-83.1" font-family="Helvetica,sans-Serif" font-size="8.00">flow::log::Config::</text>
<text text-anchor="middle" x="530" y="-74.1" font-family="Helvetica,sans-Serif" font-size="8.00">component_to_union_idx</text>
</a>
</g>
</g>
<!-- Node7&#45;&gt;Node8 -->
<g id="edge7" class="edge">
<title>Node7&#45;&gt;Node8</title>
<path fill="none" stroke="midnightblue" d="M614.6,-92.21C606.03,-91.01 597.38,-89.8 589.06,-88.64"/>
<polygon fill="midnightblue" stroke="midnightblue" points="614.21,-95.69 624.59,-93.62 615.18,-88.76 614.21,-95.69"/>
</g>
<!-- Node8&#45;&gt;Node2 -->
<g id="edge10" class="edge">
<title>Node8&#45;&gt;Node2</title>
<path fill="none" stroke="midnightblue" d="M499.79,-98.89C481.5,-110.08 457.26,-124.31 435,-135.5 428.58,-138.73 421.68,-141.93 414.88,-144.93"/>
<polygon fill="midnightblue" stroke="midnightblue" points="501.84,-101.74 508.51,-93.51 498.17,-95.78 501.84,-101.74"/>
</g>
<!-- Node8&#45;&gt;Node6 -->
<g id="edge11" class="edge">
<title>Node8&#45;&gt;Node6</title>
<path fill="none" stroke="midnightblue" d="M494.52,-62.84C476.92,-54.13 455.05,-43.74 435,-35.5 427.45,-32.39 419.28,-29.34 411.39,-26.55"/>
<polygon fill="midnightblue" stroke="midnightblue" points="493.31,-66.15 503.82,-67.49 496.44,-59.89 493.31,-66.15"/>
</g>
<!-- Node9 -->
<g id="node9" class="node">
<title>Node9</title>
<g id="a_node9"><a xlink:href="classflow_1_1log_1_1Config.html#adfde40890c0dc1fa8956451f44251dc8" target="_top" xlink:title="Sets the per&#45;component verbosity for the given component to the given value, to be used by subsequent...">
<polygon fill="white" stroke="black" points="317.5,-91 317.5,-126 423.5,-126 423.5,-91 317.5,-91"/>
<text text-anchor="start" x="325.5" y="-115.6" font-family="Helvetica,sans-Serif" font-size="8.00">flow::log::Config::</text>
<text text-anchor="start" x="325.5" y="-106.6" font-family="Helvetica,sans-Serif" font-size="8.00">configure_component</text>
<text text-anchor="middle" x="370.5" y="-97.6" font-family="Helvetica,sans-Serif" font-size="8.00">_verbosity</text>
</a>
</g>
</g>
<!-- Node8&#45;&gt;Node9 -->
<g id="edge8" class="edge">
<title>Node8&#45;&gt;Node9</title>
<path fill="none" stroke="midnightblue" d="M460.91,-92.6C448.46,-94.82 435.64,-97.1 423.74,-99.21"/>
<polygon fill="midnightblue" stroke="midnightblue" points="461.57,-96.04 470.8,-90.85 460.34,-89.15 461.57,-96.04"/>
</g>
<!-- Node10 -->
<g id="node10" class="node">
<title>Node10</title>
<g id="a_node10"><a xlink:href="classflow_1_1log_1_1Config.html#a146a60d96256dbaed4f5f0e7dcd8f529" target="_top" xlink:title="Registers the string names of each member of the enum class Component_payload earlier registered via ...">
<polygon fill="white" stroke="black" points="315,-45.5 315,-71.5 426,-71.5 426,-45.5 315,-45.5"/>
<text text-anchor="start" x="323" y="-61.1" font-family="Helvetica,sans-Serif" font-size="8.00">flow::log::Config::</text>
<text text-anchor="middle" x="370.5" y="-52.1" font-family="Helvetica,sans-Serif" font-size="8.00">init_component_names</text>
</a>
</g>
</g>
<!-- Node8&#45;&gt;Node10 -->
<g id="edge9" class="edge">
<title>Node8&#45;&gt;Node10</title>
<path fill="none" stroke="midnightblue" d="M460.72,-70.96C449.14,-69.34 437.24,-67.68 426.07,-66.12"/>
<polygon fill="midnightblue" stroke="midnightblue" points="460.41,-74.45 470.8,-72.37 461.38,-67.52 460.41,-74.45"/>
</g>
<!-- Node12 -->
<g id="node12" class="node">
<title>Node12</title>
<g id="a_node12"><a xlink:href="classflow_1_1log_1_1Component.html#ab071f597ddeee9ad0fdb9e40bff8d988" target="_top" xlink:title="Convenience accessor that returns std::type_index(payload_type()), which can be used most excellently...">
<polygon fill="white" stroke="black" points="636.5,-44.5 636.5,-70.5 741.5,-70.5 741.5,-44.5 636.5,-44.5"/>
<text text-anchor="start" x="644.5" y="-60.1" font-family="Helvetica,sans-Serif" font-size="8.00">flow::log::Component</text>
<text text-anchor="middle" x="689" y="-51.1" font-family="Helvetica,sans-Serif" font-size="8.00">::payload_type_index</text>
</a>
</g>
</g>
<!-- Node11&#45;&gt;Node12 -->
<g id="edge13" class="edge">
<title>Node11&#45;&gt;Node12</title>
<path fill="none" stroke="midnightblue" d="M778.54,-58.09C766.27,-58.01 753.52,-57.92 741.63,-57.84"/>
<polygon fill="midnightblue" stroke="midnightblue" points="778.68,-61.59 788.71,-58.16 778.73,-54.59 778.68,-61.59"/>
</g>
<!-- Node12&#45;&gt;Node8 -->
<g id="edge14" class="edge">
<title>Node12&#45;&gt;Node8</title>
<path fill="none" stroke="midnightblue" d="M626.06,-66.57C613.86,-68.36 601.1,-70.23 589.03,-72"/>
<polygon fill="midnightblue" stroke="midnightblue" points="626.77,-70.01 636.16,-65.09 625.76,-63.08 626.77,-70.01"/>
</g>
</g>
</svg>
