<?xml version="1.0" encoding="UTF-8" standalone="no"?>
<!DOCTYPE svg PUBLIC "-//W3C//DTD SVG 1.1//EN"
 "http://www.w3.org/Graphics/SVG/1.1/DTD/svg11.dtd">
<!-- Generated by graphviz version 2.43.0 (0)
 -->
<!-- Title: flow::util::String_ostream::str_clear Pages: 1 -->
<svg width="253pt" height="44pt"
 viewBox="0.00 0.00 253.00 44.00" xmlns="http://www.w3.org/2000/svg" xmlns:xlink="http://www.w3.org/1999/xlink">
<g id="graph0" class="graph" transform="scale(1 1) rotate(0) translate(4 40)">
<title>flow::util::String_ostream::str_clear</title>
<polygon fill="white" stroke="transparent" points="-4,4 -4,-40 249,-40 249,4 -4,4"/>
<!-- Node1 -->
<g id="node1" class="node">
<title>Node1</title>
<g id="a_node1"><a xlink:title="Performs std::string::clear() on the object returned by str().">
<polygon fill="#bfbfbf" stroke="black" points="150,-5 150,-31 245,-31 245,-5 150,-5"/>
<text text-anchor="start" x="158" y="-20.6" font-family="Helvetica,sans-Serif" font-size="8.00">flow::util::String</text>
<text text-anchor="middle" x="197.5" y="-11.6" font-family="Helvetica,sans-Serif" font-size="8.00">_ostream::str_clear</text>
</a>
</g>
</g>
<!-- Node2 -->
<g id="node2" class="node">
<title>Node2</title>
<g id="a_node2"><a xlink:href="classflow_1_1log_1_1Thread__local__string__appender.html#af8808ca3accc5384a627bb806de4e4b1" target="_top" xlink:title="Clears the internally stored string (accessible for reading via target_contents()),...">
<polygon fill="white" stroke="black" points="0,-0.5 0,-35.5 114,-35.5 114,-0.5 0,-0.5"/>
<text text-anchor="start" x="8" y="-25.1" font-family="Helvetica,sans-Serif" font-size="8.00">flow::log::Thread_local</text>
<text text-anchor="start" x="8" y="-16.1" font-family="Helvetica,sans-Serif" font-size="8.00">_string_appender::fresh</text>
<text text-anchor="middle" x="57" y="-7.1" font-family="Helvetica,sans-Serif" font-size="8.00">_appender_ostream</text>
</a>
</g>
</g>
<!-- Node1&#45;&gt;Node2 -->
<g id="edge1" class="edge">
<title>Node1&#45;&gt;Node2</title>
<path fill="none" stroke="midnightblue" d="M139.85,-18C131.39,-18 122.68,-18 114.23,-18"/>
<polygon fill="midnightblue" stroke="midnightblue" points="140,-21.5 150,-18 140,-14.5 140,-21.5"/>
</g>
</g>
</svg>
