<?xml version="1.0" encoding="UTF-8" standalone="no"?>
<!DOCTYPE svg PUBLIC "-//W3C//DTD SVG 1.1//EN"
 "http://www.w3.org/Graphics/SVG/1.1/DTD/svg11.dtd">
<!-- Generated by graphviz version 2.43.0 (0)
 -->
<!-- Title: flow::net_flow::Node::snd_flying_pkts_push_one Pages: 1 -->
<svg width="279pt" height="80pt"
 viewBox="0.00 0.00 279.00 80.00" xmlns="http://www.w3.org/2000/svg" xmlns:xlink="http://www.w3.org/1999/xlink">
<g id="graph0" class="graph" transform="scale(1 1) rotate(0) translate(4 76)">
<title>flow::net_flow::Node::snd_flying_pkts_push_one</title>
<polygon fill="white" stroke="transparent" points="-4,4 -4,-76 275,-76 275,4 -4,4"/>
<!-- Node1 -->
<g id="node1" class="node">
<title>Node1</title>
<g id="a_node1"><a xlink:title="Adds a new packet struct (presumably representing packet to be sent shortly) to the &quot;scoreboard&quot; (Pee...">
<polygon fill="#bfbfbf" stroke="black" points="0,-22.5 0,-48.5 128,-48.5 128,-22.5 0,-22.5"/>
<text text-anchor="start" x="8" y="-38.1" font-family="Helvetica,sans-Serif" font-size="8.00">flow::net_flow::Node</text>
<text text-anchor="middle" x="64" y="-29.1" font-family="Helvetica,sans-Serif" font-size="8.00">::snd_flying_pkts_push_one</text>
</a>
</g>
</g>
<!-- Node2 -->
<g id="node2" class="node">
<title>Node2</title>
<g id="a_node2"><a xlink:href="classflow_1_1log_1_1Log__context.html#a8a5fef42dc2cedf3c0d1a6e83beb2948" target="_top" xlink:title="Returns reference to the stored Component object, particularly as many FLOW_LOG_*() macros expect.">
<polygon fill="white" stroke="black" points="164,-45.5 164,-71.5 271,-71.5 271,-45.5 164,-45.5"/>
<text text-anchor="start" x="172" y="-61.1" font-family="Helvetica,sans-Serif" font-size="8.00">flow::log::Log_context</text>
<text text-anchor="middle" x="217.5" y="-52.1" font-family="Helvetica,sans-Serif" font-size="8.00">::get_log_component</text>
</a>
</g>
</g>
<!-- Node1&#45;&gt;Node2 -->
<g id="edge1" class="edge">
<title>Node1&#45;&gt;Node2</title>
<path fill="none" stroke="midnightblue" d="M128.37,-45.12C136.79,-46.4 145.41,-47.71 153.82,-48.98"/>
<polygon fill="midnightblue" stroke="midnightblue" points="153.52,-52.48 163.93,-50.52 154.57,-45.56 153.52,-52.48"/>
</g>
<!-- Node3 -->
<g id="node3" class="node">
<title>Node3</title>
<g id="a_node3"><a xlink:href="classflow_1_1log_1_1Log__context.html#af4db395042b065b00398cd59845dcb4d" target="_top" xlink:title="Returns the stored Logger pointer, particularly as many FLOW_LOG_*() macros expect.">
<polygon fill="white" stroke="black" points="164,-0.5 164,-26.5 271,-26.5 271,-0.5 164,-0.5"/>
<text text-anchor="start" x="172" y="-16.1" font-family="Helvetica,sans-Serif" font-size="8.00">flow::log::Log_context</text>
<text text-anchor="middle" x="217.5" y="-7.1" font-family="Helvetica,sans-Serif" font-size="8.00">::get_logger</text>
</a>
</g>
</g>
<!-- Node1&#45;&gt;Node3 -->
<g id="edge2" class="edge">
<title>Node1&#45;&gt;Node3</title>
<path fill="none" stroke="midnightblue" d="M128.37,-26.3C136.79,-25.08 145.41,-23.82 153.82,-22.6"/>
<polygon fill="midnightblue" stroke="midnightblue" points="154.54,-26.03 163.93,-21.13 153.53,-19.11 154.54,-26.03"/>
</g>
</g>
</svg>
