<?xml version="1.0" encoding="UTF-8" standalone="no"?>
<!DOCTYPE svg PUBLIC "-//W3C//DTD SVG 1.1//EN"
 "http://www.w3.org/Graphics/SVG/1.1/DTD/svg11.dtd">
<!-- Generated by graphviz version 2.43.0 (0)
 -->
<!-- Title: flow::net_flow::Peer_socket::sync_receive Pages: 1 -->
<svg width="722pt" height="288pt"
 viewBox="0.00 0.00 722.00 288.00" xmlns="http://www.w3.org/2000/svg" xmlns:xlink="http://www.w3.org/1999/xlink">
<g id="graph0" class="graph" transform="scale(1 1) rotate(0) translate(4 284)">
<title>flow::net_flow::Peer_socket::sync_receive</title>
<polygon fill="white" stroke="transparent" points="-4,4 -4,-284 718,-284 718,4 -4,4"/>
<!-- Node1 -->
<g id="node1" class="node">
<title>Node1</title>
<g id="a_node1"><a xlink:title="sync_receive() operating in null_buffers mode, wherein – if Readable state is reached – the actual da...">
<polygon fill="#bfbfbf" stroke="black" points="0,-211.5 0,-237.5 106,-237.5 106,-211.5 0,-211.5"/>
<text text-anchor="start" x="8" y="-227.1" font-family="Helvetica,sans-Serif" font-size="8.00">flow::net_flow::Peer</text>
<text text-anchor="middle" x="53" y="-218.1" font-family="Helvetica,sans-Serif" font-size="8.00">_socket::sync_receive</text>
</a>
</g>
</g>
<!-- Node2 -->
<g id="node2" class="node">
<title>Node2</title>
<g id="a_node2"><a xlink:href="namespaceflow_1_1util.html#a5488415feb5570a6551892a7bdfeeec4" target="_top" xlink:title="Helper that takes a non&#45;negative duration of arbitrary precision/period and converts it to Fine_durat...">
<polygon fill="white" stroke="black" points="142,-243 142,-278 252,-278 252,-243 142,-243"/>
<text text-anchor="start" x="150" y="-267.6" font-family="Helvetica,sans-Serif" font-size="8.00">flow::util::chrono</text>
<text text-anchor="start" x="150" y="-258.6" font-family="Helvetica,sans-Serif" font-size="8.00">_duration_from_now_to</text>
<text text-anchor="middle" x="197" y="-249.6" font-family="Helvetica,sans-Serif" font-size="8.00">_fine_time_pt</text>
</a>
</g>
</g>
<!-- Node1&#45;&gt;Node2 -->
<g id="edge1" class="edge">
<title>Node1&#45;&gt;Node2</title>
<path fill="none" stroke="midnightblue" d="M105.67,-237.6C114.19,-239.76 123.12,-242.02 131.91,-244.25"/>
<polygon fill="midnightblue" stroke="midnightblue" points="131.19,-247.68 141.74,-246.74 132.91,-240.89 131.19,-247.68"/>
</g>
<!-- Node3 -->
<g id="node3" class="node">
<title>Node3</title>
<g id="a_node3"><a xlink:href="classflow_1_1net__flow_1_1Peer__socket.html#a1a2eccfa314a397c12259f414ef6798c" target="_top" xlink:title="Helper similar to sync_receive_impl() but for the null_buffers versions of sync_receive().">
<polygon fill="white" stroke="black" points="144,-171 144,-206 250,-206 250,-171 144,-171"/>
<text text-anchor="start" x="152" y="-195.6" font-family="Helvetica,sans-Serif" font-size="8.00">flow::net_flow::Peer</text>
<text text-anchor="start" x="152" y="-186.6" font-family="Helvetica,sans-Serif" font-size="8.00">_socket::sync_receive</text>
<text text-anchor="middle" x="197" y="-177.6" font-family="Helvetica,sans-Serif" font-size="8.00">_reactor_pattern_impl</text>
</a>
</g>
</g>
<!-- Node1&#45;&gt;Node3 -->
<g id="edge2" class="edge">
<title>Node1&#45;&gt;Node3</title>
<path fill="none" stroke="midnightblue" d="M105.67,-211.4C114.85,-209.07 124.5,-206.63 133.93,-204.24"/>
<polygon fill="midnightblue" stroke="midnightblue" points="134.82,-207.62 143.66,-201.77 133.1,-200.83 134.82,-207.62"/>
</g>
<!-- Node3&#45;&gt;Node3 -->
<g id="edge16" class="edge">
<title>Node3&#45;&gt;Node3</title>
<path fill="none" stroke="midnightblue" d="M171.11,-206.28C166.72,-215.81 175.34,-224.5 197,-224.5 210.2,-224.5 218.56,-221.27 222.08,-216.6"/>
<polygon fill="midnightblue" stroke="midnightblue" points="225.59,-216.52 222.89,-206.28 218.62,-215.98 225.59,-216.52"/>
</g>
<!-- Node4 -->
<g id="node4" class="node">
<title>Node4</title>
<g id="a_node4"><a xlink:href="classflow_1_1net__flow_1_1Peer__socket.html#a8abde92d5189bf2a058fe8741789f814" target="_top" xlink:title="This is to sync_receive() as node_receive() is to receive().">
<polygon fill="white" stroke="black" points="288,-175.5 288,-201.5 419,-201.5 419,-175.5 288,-175.5"/>
<text text-anchor="start" x="296" y="-191.1" font-family="Helvetica,sans-Serif" font-size="8.00">flow::net_flow::Peer</text>
<text text-anchor="middle" x="353.5" y="-182.1" font-family="Helvetica,sans-Serif" font-size="8.00">_socket::node_sync_receive</text>
</a>
</g>
</g>
<!-- Node3&#45;&gt;Node4 -->
<g id="edge3" class="edge">
<title>Node3&#45;&gt;Node4</title>
<path fill="none" stroke="midnightblue" d="M250.31,-188.5C259.18,-188.5 268.54,-188.5 277.86,-188.5"/>
<polygon fill="midnightblue" stroke="midnightblue" points="277.92,-192 287.92,-188.5 277.92,-185 277.92,-192"/>
</g>
<!-- Node5 -->
<g id="node5" class="node">
<title>Node5</title>
<g id="a_node5"><a xlink:href="classflow_1_1net__flow_1_1Node.html#a109a118ca312e94686595ea08dac7ad0" target="_top" xlink:title="Helper method that checks whether the given Peer_socket or Server_socket is CLOSED; if so,...">
<polygon fill="white" stroke="black" points="455.5,-243.5 455.5,-269.5 556.5,-269.5 556.5,-243.5 455.5,-243.5"/>
<text text-anchor="start" x="463.5" y="-259.1" font-family="Helvetica,sans-Serif" font-size="8.00">flow::net_flow::Node</text>
<text text-anchor="middle" x="506" y="-250.1" font-family="Helvetica,sans-Serif" font-size="8.00">::ensure_sock_open</text>
</a>
</g>
</g>
<!-- Node4&#45;&gt;Node5 -->
<g id="edge4" class="edge">
<title>Node4&#45;&gt;Node5</title>
<path fill="none" stroke="midnightblue" d="M383.04,-201.7C403.13,-210.96 430.67,-223.58 455,-234.5 458.45,-236.05 462.03,-237.65 465.63,-239.24"/>
<polygon fill="midnightblue" stroke="midnightblue" points="464.53,-242.58 475.09,-243.43 467.36,-236.18 464.53,-242.58"/>
</g>
<!-- Node6 -->
<g id="node6" class="node">
<title>Node6</title>
<g id="a_node6"><a xlink:href="classflow_1_1net__flow_1_1Peer__socket.html#a5003c554807f5b5b58989ad58be48d42" target="_top" xlink:title="Constructs object; initializes most values to well&#45;defined (0, empty, etc.) but not necessarily meani...">
<polygon fill="white" stroke="black" points="455,-198.5 455,-224.5 557,-224.5 557,-198.5 455,-198.5"/>
<text text-anchor="start" x="463" y="-214.1" font-family="Helvetica,sans-Serif" font-size="8.00">flow::net_flow::Peer</text>
<text text-anchor="middle" x="506" y="-205.1" font-family="Helvetica,sans-Serif" font-size="8.00">_socket::Peer_socket</text>
</a>
</g>
</g>
<!-- Node4&#45;&gt;Node6 -->
<g id="edge5" class="edge">
<title>Node4&#45;&gt;Node6</title>
<path fill="none" stroke="midnightblue" d="M419.2,-198.39C427.69,-199.69 436.37,-201.01 444.79,-202.3"/>
<polygon fill="midnightblue" stroke="midnightblue" points="444.48,-205.79 454.9,-203.84 445.54,-198.87 444.48,-205.79"/>
</g>
<!-- Node9 -->
<g id="node8" class="node">
<title>Node9</title>
<g id="a_node8"><a xlink:href="classflow_1_1net__flow_1_1Node.html#addbb96858fd7b3c9ddd7c6fe8078809c" target="_top" xlink:title="Implementation of non&#45;blocking sock&#45;&gt;receive() for socket sock in all cases except when sock&#45;&gt;state()...">
<polygon fill="white" stroke="black" points="455.5,-153.5 455.5,-179.5 556.5,-179.5 556.5,-153.5 455.5,-153.5"/>
<text text-anchor="start" x="463.5" y="-169.1" font-family="Helvetica,sans-Serif" font-size="8.00">flow::net_flow::Node</text>
<text text-anchor="middle" x="506" y="-160.1" font-family="Helvetica,sans-Serif" font-size="8.00">::receive</text>
</a>
</g>
</g>
<!-- Node4&#45;&gt;Node9 -->
<g id="edge7" class="edge">
<title>Node4&#45;&gt;Node9</title>
<path fill="none" stroke="midnightblue" d="M419.2,-179.04C427.9,-177.77 436.8,-176.47 445.41,-175.21"/>
<polygon fill="midnightblue" stroke="midnightblue" points="445.97,-178.67 455.36,-173.76 444.95,-171.74 445.97,-178.67"/>
</g>
<!-- Node66 -->
<g id="node12" class="node">
<title>Node66</title>
<g id="a_node12"><a xlink:href="classflow_1_1net__flow_1_1Node.html#a2a4dc3d8e294bbc8423e111f52e414ae" target="_top" xlink:title="Implementation of core blocking transfer methods, namely Peer_socket::sync_send(),...">
<polygon fill="white" stroke="black" points="455.5,-77.5 455.5,-103.5 556.5,-103.5 556.5,-77.5 455.5,-77.5"/>
<text text-anchor="start" x="463.5" y="-93.1" font-family="Helvetica,sans-Serif" font-size="8.00">flow::net_flow::Node</text>
<text text-anchor="middle" x="506" y="-84.1" font-family="Helvetica,sans-Serif" font-size="8.00">::sync_op</text>
</a>
</g>
</g>
<!-- Node4&#45;&gt;Node66 -->
<g id="edge11" class="edge">
<title>Node4&#45;&gt;Node66</title>
<path fill="none" stroke="midnightblue" d="M374.49,-175.49C400.57,-158.5 446.41,-128.65 476.23,-109.23"/>
<polygon fill="midnightblue" stroke="midnightblue" points="478.46,-111.96 484.93,-103.57 474.64,-106.09 478.46,-111.96"/>
</g>
<!-- Node7 -->
<g id="node7" class="node">
<title>Node7</title>
<g id="a_node7"><a xlink:href="classflow_1_1net__flow_1_1Peer__socket.html#ad94e37c8cca01f801f13e9e0e0bc857d" target="_top" xlink:title="Copies this socket&#39;s option set and returns that copy.">
<polygon fill="white" stroke="red" points="605,-253.5 605,-279.5 702,-279.5 702,-253.5 605,-253.5"/>
<text text-anchor="start" x="613" y="-269.1" font-family="Helvetica,sans-Serif" font-size="8.00">flow::net_flow::Peer</text>
<text text-anchor="middle" x="653.5" y="-260.1" font-family="Helvetica,sans-Serif" font-size="8.00">_socket::options</text>
</a>
</g>
</g>
<!-- Node6&#45;&gt;Node7 -->
<g id="edge6" class="edge">
<title>Node6&#45;&gt;Node7</title>
<path fill="none" stroke="midnightblue" d="M541.48,-224.53C561.52,-232.11 586.98,-241.73 608.46,-249.85"/>
<polygon fill="midnightblue" stroke="midnightblue" points="607.42,-253.2 618.01,-253.46 609.9,-246.65 607.42,-253.2"/>
</g>
<!-- Node10 -->
<g id="node9" class="node">
<title>Node10</title>
<g id="a_node9"><a xlink:href="classflow_1_1net__flow_1_1Node.html#ad608f9bbe76426f4fbf4bf5af908e4e0" target="_top" xlink:title="Placed by receive() onto W during a graceful close, after the Receive buffer had been emptied by the ...">
<polygon fill="white" stroke="red" points="593,-199 593,-234 714,-234 714,-199 593,-199"/>
<text text-anchor="start" x="601" y="-223.6" font-family="Helvetica,sans-Serif" font-size="8.00">flow::net_flow::Node</text>
<text text-anchor="start" x="601" y="-214.6" font-family="Helvetica,sans-Serif" font-size="8.00">::receive_emptied_rcv</text>
<text text-anchor="middle" x="653.5" y="-205.6" font-family="Helvetica,sans-Serif" font-size="8.00">_buf_while_disconnecting</text>
</a>
</g>
</g>
<!-- Node9&#45;&gt;Node10 -->
<g id="edge8" class="edge">
<title>Node9&#45;&gt;Node10</title>
<path fill="none" stroke="midnightblue" d="M544.85,-179.51C559.14,-184.42 575.79,-190.14 591.67,-195.59"/>
<polygon fill="midnightblue" stroke="midnightblue" points="590.83,-199.01 601.42,-198.95 593.1,-192.39 590.83,-199.01"/>
</g>
<!-- Node47 -->
<g id="node10" class="node">
<title>Node47</title>
<g id="a_node10"><a xlink:href="classflow_1_1net__flow_1_1Node.html#a08cf95363b26c0c676979437e34db357" target="_top" xlink:title="Placed by receive() onto W if it has dequeued data from Receive buffer and given it to the user,...">
<polygon fill="white" stroke="red" points="597.5,-153.5 597.5,-179.5 709.5,-179.5 709.5,-153.5 597.5,-153.5"/>
<text text-anchor="start" x="605.5" y="-169.1" font-family="Helvetica,sans-Serif" font-size="8.00">flow::net_flow::Node</text>
<text text-anchor="middle" x="653.5" y="-160.1" font-family="Helvetica,sans-Serif" font-size="8.00">::receive_wnd_updated</text>
</a>
</g>
</g>
<!-- Node9&#45;&gt;Node47 -->
<g id="edge9" class="edge">
<title>Node9&#45;&gt;Node47</title>
<path fill="none" stroke="midnightblue" d="M556.67,-166.5C566.48,-166.5 576.93,-166.5 587.17,-166.5"/>
<polygon fill="midnightblue" stroke="midnightblue" points="587.32,-170 597.32,-166.5 587.32,-163 587.32,-170"/>
</g>
<!-- Node65 -->
<g id="node11" class="node">
<title>Node65</title>
<g id="a_node11"><a xlink:href="classflow_1_1net__flow_1_1Node.html#aae148cec361b59237996a4b30c6624b5" target="_top" xlink:title="Returns true if and only if the Node is operating.">
<polygon fill="white" stroke="black" points="603,-108.5 603,-134.5 704,-134.5 704,-108.5 603,-108.5"/>
<text text-anchor="start" x="611" y="-124.1" font-family="Helvetica,sans-Serif" font-size="8.00">flow::net_flow::Node</text>
<text text-anchor="middle" x="653.5" y="-115.1" font-family="Helvetica,sans-Serif" font-size="8.00">::running</text>
</a>
</g>
</g>
<!-- Node9&#45;&gt;Node65 -->
<g id="edge10" class="edge">
<title>Node9&#45;&gt;Node65</title>
<path fill="none" stroke="midnightblue" d="M549.08,-153.48C565.15,-148.52 583.66,-142.79 600.54,-137.57"/>
<polygon fill="midnightblue" stroke="midnightblue" points="601.74,-140.86 610.26,-134.56 599.67,-134.18 601.74,-140.86"/>
</g>
<!-- Node66&#45;&gt;Node65 -->
<g id="edge14" class="edge">
<title>Node66&#45;&gt;Node65</title>
<path fill="none" stroke="midnightblue" d="M556.67,-101.08C568.24,-103.55 580.69,-106.2 592.66,-108.75"/>
<polygon fill="midnightblue" stroke="midnightblue" points="592.05,-112.2 602.56,-110.86 593.51,-105.35 592.05,-112.2"/>
</g>
<!-- Node67 -->
<g id="node13" class="node">
<title>Node67</title>
<g id="a_node13"><a xlink:href="classflow_1_1net__flow_1_1Node.html#ad100464cf0126dbbad39bde1c90a774f" target="_top" xlink:title="Creates a new Event_set in Event_set::State::S_INACTIVE state with no sockets/events stored; returns ...">
<polygon fill="white" stroke="red" points="603,-45.5 603,-71.5 704,-71.5 704,-45.5 603,-45.5"/>
<text text-anchor="start" x="611" y="-61.1" font-family="Helvetica,sans-Serif" font-size="8.00">flow::net_flow::Node</text>
<text text-anchor="middle" x="653.5" y="-52.1" font-family="Helvetica,sans-Serif" font-size="8.00">::event_set_create</text>
</a>
</g>
</g>
<!-- Node66&#45;&gt;Node67 -->
<g id="edge12" class="edge">
<title>Node66&#45;&gt;Node67</title>
<path fill="none" stroke="midnightblue" d="M556.67,-79.58C568.24,-77.03 580.69,-74.29 592.66,-71.66"/>
<polygon fill="midnightblue" stroke="midnightblue" points="593.55,-75.05 602.56,-69.48 592.05,-68.21 593.55,-75.05"/>
</g>
<!-- Node72 -->
<g id="node14" class="node">
<title>Node72</title>
<g id="a_node14"><a xlink:href="namespaceflow_1_1util.html#a09a032f8e1e77a3afc0b7df115a773e1" target="_top" xlink:title="Provides a way to execute arbitrary (cleanup) code at the exit of the current block.">
<polygon fill="white" stroke="black" points="601.5,-0.5 601.5,-26.5 705.5,-26.5 705.5,-0.5 601.5,-0.5"/>
<text text-anchor="start" x="609.5" y="-16.1" font-family="Helvetica,sans-Serif" font-size="8.00">flow::util::setup_auto</text>
<text text-anchor="middle" x="653.5" y="-7.1" font-family="Helvetica,sans-Serif" font-size="8.00">_cleanup</text>
</a>
</g>
</g>
<!-- Node66&#45;&gt;Node72 -->
<g id="edge15" class="edge">
<title>Node66&#45;&gt;Node72</title>
<path fill="none" stroke="midnightblue" d="M525.11,-77.28C542.07,-65.32 568.4,-47.73 593,-35.5 596.56,-33.73 600.3,-32.02 604.09,-30.39"/>
<polygon fill="midnightblue" stroke="midnightblue" points="605.65,-33.54 613.58,-26.52 603,-27.06 605.65,-33.54"/>
</g>
<!-- Node67&#45;&gt;Node67 -->
<g id="edge13" class="edge">
<title>Node67&#45;&gt;Node67</title>
<path fill="none" stroke="midnightblue" d="M628.8,-71.77C621.31,-80.96 629.55,-90 653.5,-90 668.1,-90 676.86,-86.64 679.78,-81.94"/>
<polygon fill="midnightblue" stroke="midnightblue" points="683.19,-81.12 678.2,-71.77 676.27,-82.19 683.19,-81.12"/>
</g>
</g>
</svg>
