<?xml version="1.0" encoding="UTF-8" standalone="no"?>
<!DOCTYPE svg PUBLIC "-//W3C//DTD SVG 1.1//EN"
 "http://www.w3.org/Graphics/SVG/1.1/DTD/svg11.dtd">
<!-- Generated by graphviz version 2.43.0 (0)
 -->
<!-- Title: flow::util::Linked_hash_set::erase Pages: 1 -->
<svg width="265pt" height="35pt"
 viewBox="0.00 0.00 265.00 35.00" xmlns="http://www.w3.org/2000/svg" xmlns:xlink="http://www.w3.org/1999/xlink">
<g id="graph0" class="graph" transform="scale(1 1) rotate(0) translate(4 31)">
<title>flow::util::Linked_hash_set::erase</title>
<polygon fill="white" stroke="transparent" points="-4,4 -4,-31 261,-31 261,4 -4,4"/>
<!-- Node1 -->
<g id="node1" class="node">
<title>Node1</title>
<g id="a_node1"><a xlink:title="Erases the element pointed to by the given valid iterator.">
<polygon fill="#bfbfbf" stroke="black" points="171,-0.5 171,-26.5 257,-26.5 257,-0.5 171,-0.5"/>
<text text-anchor="start" x="179" y="-16.1" font-family="Helvetica,sans-Serif" font-size="8.00">flow::util::Linked</text>
<text text-anchor="middle" x="214" y="-7.1" font-family="Helvetica,sans-Serif" font-size="8.00">_hash_set::erase</text>
</a>
</g>
</g>
<!-- Node2 -->
<g id="node2" class="node">
<title>Node2</title>
<g id="a_node2"><a xlink:href="classflow_1_1net__flow_1_1Event__set.html#a9df8ee7f0b6fc8add47e2381a1fc69eb" target="_top" xlink:title="Opposite of add_wanted_socket().">
<polygon fill="white" stroke="black" points="0,-0.5 0,-26.5 135,-26.5 135,-0.5 0,-0.5"/>
<text text-anchor="start" x="8" y="-16.1" font-family="Helvetica,sans-Serif" font-size="8.00">flow::net_flow::Event</text>
<text text-anchor="middle" x="67.5" y="-7.1" font-family="Helvetica,sans-Serif" font-size="8.00">_set::remove_wanted_socket</text>
</a>
</g>
</g>
<!-- Node1&#45;&gt;Node2 -->
<g id="edge1" class="edge">
<title>Node1&#45;&gt;Node2</title>
<path fill="none" stroke="midnightblue" d="M160.6,-13.5C152.35,-13.5 143.73,-13.5 135.21,-13.5"/>
<polygon fill="midnightblue" stroke="midnightblue" points="160.82,-17 170.82,-13.5 160.82,-10 160.82,-17"/>
</g>
</g>
</svg>
