<?xml version="1.0" encoding="UTF-8" standalone="no"?>
<!DOCTYPE svg PUBLIC "-//W3C//DTD SVG 1.1//EN"
 "http://www.w3.org/Graphics/SVG/1.1/DTD/svg11.dtd">
<!-- Generated by graphviz version 2.43.0 (0)
 -->
<!-- Title: flow::net_flow::Node::snd_deqable Pages: 1 -->
<svg width="1001pt" height="153pt"
 viewBox="0.00 0.00 1001.00 152.50" xmlns="http://www.w3.org/2000/svg" xmlns:xlink="http://www.w3.org/1999/xlink">
<g id="graph0" class="graph" transform="scale(1 1) rotate(0) translate(4 148.5)">
<title>flow::net_flow::Node::snd_deqable</title>
<polygon fill="white" stroke="transparent" points="-4,4 -4,-148.5 997,-148.5 997,4 -4,4"/>
<!-- Node1 -->
<g id="node1" class="node">
<title>Node1</title>
<g id="a_node1"><a xlink:title="Return true if and only if there are enough data either in Peer_socket::m_snd_rexmit_q of sock (if re...">
<polygon fill="#bfbfbf" stroke="black" points="892,-95 892,-121 993,-121 993,-95 892,-95"/>
<text text-anchor="start" x="900" y="-110.6" font-family="Helvetica,sans-Serif" font-size="8.00">flow::net_flow::Node</text>
<text text-anchor="middle" x="942.5" y="-101.6" font-family="Helvetica,sans-Serif" font-size="8.00">::snd_deqable</text>
</a>
</g>
</g>
<!-- Node2 -->
<g id="node2" class="node">
<title>Node2</title>
<g id="a_node2"><a xlink:href="classflow_1_1net__flow_1_1Node.html#aa19d1f49638ef8ce8883e7477a06d3fc" target="_top" xlink:title="Implementation of non&#45;blocking sock&#45;&gt;send() for socket sock in all cases except when sock&#45;&gt;state() ==...">
<polygon fill="white" stroke="black" points="455,-95 455,-121 556,-121 556,-95 455,-95"/>
<text text-anchor="start" x="463" y="-110.6" font-family="Helvetica,sans-Serif" font-size="8.00">flow::net_flow::Node</text>
<text text-anchor="middle" x="505.5" y="-101.6" font-family="Helvetica,sans-Serif" font-size="8.00">::send</text>
</a>
</g>
</g>
<!-- Node1&#45;&gt;Node2 -->
<g id="edge1" class="edge">
<title>Node1&#45;&gt;Node2</title>
<path fill="none" stroke="midnightblue" d="M881.73,-108.79C873.1,-108.88 864.32,-108.95 856,-109 738.67,-109.69 709.33,-109.69 592,-109 580.42,-108.93 567.96,-108.81 556.23,-108.68"/>
<polygon fill="midnightblue" stroke="midnightblue" points="881.81,-112.29 891.77,-108.68 881.73,-105.29 881.81,-112.29"/>
</g>
<!-- Node10 -->
<g id="node10" class="node">
<title>Node10</title>
<g id="a_node10"><a xlink:href="classflow_1_1net__flow_1_1Node.html#a10a92f11a2c9f218cdd9a55f282e79b1" target="_top" xlink:title="Thread W implemention of send(): synchronously or asynchronously send the contents of sock&#45;&gt;m_snd_buf...">
<polygon fill="white" stroke="black" points="755,-74 755,-100 856,-100 856,-74 755,-74"/>
<text text-anchor="start" x="763" y="-89.6" font-family="Helvetica,sans-Serif" font-size="8.00">flow::net_flow::Node</text>
<text text-anchor="middle" x="805.5" y="-80.6" font-family="Helvetica,sans-Serif" font-size="8.00">::send_worker</text>
</a>
</g>
</g>
<!-- Node1&#45;&gt;Node10 -->
<g id="edge10" class="edge">
<title>Node1&#45;&gt;Node10</title>
<path fill="none" stroke="midnightblue" d="M882.07,-98.76C873.52,-97.43 864.79,-96.07 856.45,-94.77"/>
<polygon fill="midnightblue" stroke="midnightblue" points="881.58,-102.22 892,-100.3 882.65,-95.3 881.58,-102.22"/>
</g>
<!-- Node3 -->
<g id="node3" class="node">
<title>Node3</title>
<g id="a_node3"><a xlink:href="classflow_1_1net__flow_1_1Peer__socket.html#a83ba2b4c39555afad67932ea6ed39bbe" target="_top" xlink:title="Non&#45;template helper for template send() that forwards the send() logic to Node::send().">
<polygon fill="white" stroke="black" points="309.5,-118 309.5,-144 407.5,-144 407.5,-118 309.5,-118"/>
<text text-anchor="start" x="317.5" y="-133.6" font-family="Helvetica,sans-Serif" font-size="8.00">flow::net_flow::Peer</text>
<text text-anchor="middle" x="358.5" y="-124.6" font-family="Helvetica,sans-Serif" font-size="8.00">_socket::node_send</text>
</a>
</g>
</g>
<!-- Node2&#45;&gt;Node3 -->
<g id="edge2" class="edge">
<title>Node2&#45;&gt;Node3</title>
<path fill="none" stroke="midnightblue" d="M444.42,-117.53C432.13,-119.48 419.34,-121.51 407.53,-123.38"/>
<polygon fill="midnightblue" stroke="midnightblue" points="445.27,-120.94 454.6,-115.92 444.17,-114.03 445.27,-120.94"/>
</g>
<!-- Node5 -->
<g id="node5" class="node">
<title>Node5</title>
<g id="a_node5"><a xlink:href="classflow_1_1net__flow_1_1Peer__socket.html#a34e2c7dfb5596269a6f86a716015f1a6" target="_top" xlink:title="This is to sync_send() as node_send() is to send().">
<polygon fill="white" stroke="black" points="298,-73 298,-99 419,-99 419,-73 298,-73"/>
<text text-anchor="start" x="306" y="-88.6" font-family="Helvetica,sans-Serif" font-size="8.00">flow::net_flow::Peer</text>
<text text-anchor="middle" x="358.5" y="-79.6" font-family="Helvetica,sans-Serif" font-size="8.00">_socket::node_sync_send</text>
</a>
</g>
</g>
<!-- Node2&#45;&gt;Node5 -->
<g id="edge4" class="edge">
<title>Node2&#45;&gt;Node5</title>
<path fill="none" stroke="midnightblue" d="M444.55,-98.9C436.19,-97.64 427.6,-96.33 419.25,-95.07"/>
<polygon fill="midnightblue" stroke="midnightblue" points="444.19,-102.39 454.6,-100.43 445.24,-95.47 444.19,-102.39"/>
</g>
<!-- Node4 -->
<g id="node4" class="node">
<title>Node4</title>
<g id="a_node4"><a xlink:href="classflow_1_1net__flow_1_1Peer__socket.html#af90b656d7e0b7e746b8beb4e24717cec" target="_top" xlink:title="Sends (adds to the Send buffer) the given bytes of data up to a maximum internal buffer size; and asy...">
<polygon fill="white" stroke="black" points="149,-118 149,-144 246,-144 246,-118 149,-118"/>
<text text-anchor="start" x="157" y="-133.6" font-family="Helvetica,sans-Serif" font-size="8.00">flow::net_flow::Peer</text>
<text text-anchor="middle" x="197.5" y="-124.6" font-family="Helvetica,sans-Serif" font-size="8.00">_socket::send</text>
</a>
</g>
</g>
<!-- Node3&#45;&gt;Node4 -->
<g id="edge3" class="edge">
<title>Node3&#45;&gt;Node4</title>
<path fill="none" stroke="midnightblue" d="M299.28,-131C281.83,-131 262.89,-131 246.2,-131"/>
<polygon fill="midnightblue" stroke="midnightblue" points="299.36,-134.5 309.36,-131 299.36,-127.5 299.36,-134.5"/>
</g>
<!-- Node6 -->
<g id="node6" class="node">
<title>Node6</title>
<g id="a_node6"><a xlink:href="classflow_1_1net__flow_1_1Peer__socket.html#a3f1a802024549a59978a53343b09a86d" target="_top" xlink:title="Same as sync_send() but uses a Fine_clock&#45;based Fine_duration non&#45;template type for implementation co...">
<polygon fill="white" stroke="black" points="139,-73 139,-99 256,-99 256,-73 139,-73"/>
<text text-anchor="start" x="147" y="-88.6" font-family="Helvetica,sans-Serif" font-size="8.00">flow::net_flow::Peer</text>
<text text-anchor="middle" x="197.5" y="-79.6" font-family="Helvetica,sans-Serif" font-size="8.00">_socket::sync_send_impl</text>
</a>
</g>
</g>
<!-- Node5&#45;&gt;Node6 -->
<g id="edge5" class="edge">
<title>Node5&#45;&gt;Node6</title>
<path fill="none" stroke="midnightblue" d="M287.8,-86C277.22,-86 266.4,-86 256.12,-86"/>
<polygon fill="midnightblue" stroke="midnightblue" points="287.84,-89.5 297.84,-86 287.84,-82.5 287.84,-89.5"/>
</g>
<!-- Node8 -->
<g id="node8" class="node">
<title>Node8</title>
<g id="a_node8"><a xlink:href="classflow_1_1net__flow_1_1Peer__socket.html#a15ba1d4af6d4e3fcab9534a307c00595" target="_top" xlink:title="Helper similar to sync_send_impl() but for the null_buffers versions of sync_send().">
<polygon fill="white" stroke="black" points="133,-0.5 133,-35.5 262,-35.5 262,-0.5 133,-0.5"/>
<text text-anchor="start" x="141" y="-25.1" font-family="Helvetica,sans-Serif" font-size="8.00">flow::net_flow::Peer</text>
<text text-anchor="start" x="141" y="-16.1" font-family="Helvetica,sans-Serif" font-size="8.00">_socket::sync_send_reactor</text>
<text text-anchor="middle" x="197.5" y="-7.1" font-family="Helvetica,sans-Serif" font-size="8.00">_pattern_impl</text>
</a>
</g>
</g>
<!-- Node5&#45;&gt;Node8 -->
<g id="edge7" class="edge">
<title>Node5&#45;&gt;Node8</title>
<path fill="none" stroke="midnightblue" d="M317.4,-68.85C293.62,-58.68 263.54,-45.82 239.59,-35.57"/>
<polygon fill="midnightblue" stroke="midnightblue" points="316.27,-72.17 326.84,-72.89 319.03,-65.74 316.27,-72.17"/>
</g>
<!-- Node7 -->
<g id="node7" class="node">
<title>Node7</title>
<g id="a_node7"><a xlink:href="classflow_1_1net__flow_1_1Peer__socket.html#a6b9fa02a7c41b52fde9e05e862a9d20f" target="_top" xlink:title="Equivalent to sync_send(data, duration::max(), err_code); i.e., sync_send() with no timeout.">
<polygon fill="white" stroke="black" points="0,-73 0,-99 97,-99 97,-73 0,-73"/>
<text text-anchor="start" x="8" y="-88.6" font-family="Helvetica,sans-Serif" font-size="8.00">flow::net_flow::Peer</text>
<text text-anchor="middle" x="48.5" y="-79.6" font-family="Helvetica,sans-Serif" font-size="8.00">_socket::sync_send</text>
</a>
</g>
</g>
<!-- Node6&#45;&gt;Node7 -->
<g id="edge6" class="edge">
<title>Node6&#45;&gt;Node7</title>
<path fill="none" stroke="midnightblue" d="M128.66,-86C117.98,-86 107.14,-86 97.05,-86"/>
<polygon fill="midnightblue" stroke="midnightblue" points="128.82,-89.5 138.82,-86 128.82,-82.5 128.82,-89.5"/>
</g>
<!-- Node8&#45;&gt;Node8 -->
<g id="edge9" class="edge">
<title>Node8&#45;&gt;Node8</title>
<path fill="none" stroke="midnightblue" d="M223.27,-46.1C219.65,-50.77 211.06,-54 197.5,-54 175.24,-54 166.37,-45.31 170.89,-35.78"/>
<polygon fill="midnightblue" stroke="midnightblue" points="226.79,-46.03 224.11,-35.78 219.81,-45.47 226.79,-46.03"/>
</g>
<!-- Node9 -->
<g id="node9" class="node">
<title>Node9</title>
<g id="a_node9"><a xlink:href="classflow_1_1net__flow_1_1Peer__socket.html#a28cb6fc51585c9fa2bf2f152675615a1" target="_top" xlink:title="sync_send() operating in null_buffers mode, wherein – if Writable state is reached – the actual data ...">
<polygon fill="white" stroke="black" points="0,-5 0,-31 97,-31 97,-5 0,-5"/>
<text text-anchor="start" x="8" y="-20.6" font-family="Helvetica,sans-Serif" font-size="8.00">flow::net_flow::Peer</text>
<text text-anchor="middle" x="48.5" y="-11.6" font-family="Helvetica,sans-Serif" font-size="8.00">_socket::sync_send</text>
</a>
</g>
</g>
<!-- Node8&#45;&gt;Node9 -->
<g id="edge8" class="edge">
<title>Node8&#45;&gt;Node9</title>
<path fill="none" stroke="midnightblue" d="M122.74,-18C114.08,-18 105.43,-18 97.26,-18"/>
<polygon fill="midnightblue" stroke="midnightblue" points="122.88,-21.5 132.88,-18 122.88,-14.5 122.88,-21.5"/>
</g>
<!-- Node11 -->
<g id="node11" class="node">
<title>Node11</title>
<g id="a_node11"><a xlink:href="classflow_1_1net__flow_1_1Node.html#a2565b7c0bd82cad86eb168b62f8ffd9d" target="_top" xlink:title="Helper placed by send() onto W to invoke send_worker() but ensures that the socket has not entered so...">
<polygon fill="white" stroke="black" points="592,-74 592,-100 719,-100 719,-74 592,-74"/>
<text text-anchor="start" x="600" y="-89.6" font-family="Helvetica,sans-Serif" font-size="8.00">flow::net_flow::Node</text>
<text text-anchor="middle" x="655.5" y="-80.6" font-family="Helvetica,sans-Serif" font-size="8.00">::send_worker_check_state</text>
</a>
</g>
</g>
<!-- Node10&#45;&gt;Node11 -->
<g id="edge11" class="edge">
<title>Node10&#45;&gt;Node11</title>
<path fill="none" stroke="midnightblue" d="M744.72,-87C736.31,-87 727.66,-87 719.2,-87"/>
<polygon fill="midnightblue" stroke="midnightblue" points="744.81,-90.5 754.81,-87 744.81,-83.5 744.81,-90.5"/>
</g>
<!-- Node11&#45;&gt;Node2 -->
<g id="edge12" class="edge">
<title>Node11&#45;&gt;Node2</title>
<path fill="none" stroke="midnightblue" d="M581.7,-97.33C573.12,-98.55 564.51,-99.77 556.35,-100.93"/>
<polygon fill="midnightblue" stroke="midnightblue" points="582.33,-100.78 591.73,-95.91 581.34,-93.85 582.33,-100.78"/>
</g>
</g>
</svg>
