<?xml version="1.0" encoding="UTF-8" standalone="no"?>
<!DOCTYPE svg PUBLIC "-//W3C//DTD SVG 1.1//EN"
 "http://www.w3.org/Graphics/SVG/1.1/DTD/svg11.dtd">
<!-- Generated by graphviz version 2.43.0 (0)
 -->
<!-- Title: flow::net_flow::Node::sock_disconnect_completed Pages: 1 -->
<svg width="282pt" height="80pt"
 viewBox="0.00 0.00 282.00 80.00" xmlns="http://www.w3.org/2000/svg" xmlns:xlink="http://www.w3.org/1999/xlink">
<g id="graph0" class="graph" transform="scale(1 1) rotate(0) translate(4 76)">
<title>flow::net_flow::Node::sock_disconnect_completed</title>
<polygon fill="white" stroke="transparent" points="-4,4 -4,-76 278,-76 278,4 -4,4"/>
<!-- Node1 -->
<g id="node1" class="node">
<title>Node1</title>
<g id="a_node1"><a xlink:title="While in S_OPEN+S_DISCONNECTING state (i.e., after beginning a graceful close with sock_disconnect_de...">
<polygon fill="#bfbfbf" stroke="black" points="0,-22.5 0,-48.5 137,-48.5 137,-22.5 0,-22.5"/>
<text text-anchor="start" x="8" y="-38.1" font-family="Helvetica,sans-Serif" font-size="8.00">flow::net_flow::Node</text>
<text text-anchor="middle" x="68.5" y="-29.1" font-family="Helvetica,sans-Serif" font-size="8.00">::sock_disconnect_completed</text>
</a>
</g>
</g>
<!-- Node2 -->
<g id="node2" class="node">
<title>Node2</title>
<g id="a_node2"><a xlink:href="classflow_1_1net__flow_1_1Node.html#a1d5f13062bec6730db533cc1e89bf515" target="_top" xlink:title="Helper that clears all non&#45;O(1)&#45;space data structures stored inside sock.">
<polygon fill="white" stroke="black" points="173,-45.5 173,-71.5 274,-71.5 274,-45.5 173,-45.5"/>
<text text-anchor="start" x="181" y="-61.1" font-family="Helvetica,sans-Serif" font-size="8.00">flow::net_flow::Node</text>
<text text-anchor="middle" x="223.5" y="-52.1" font-family="Helvetica,sans-Serif" font-size="8.00">::sock_free_memory</text>
</a>
</g>
</g>
<!-- Node1&#45;&gt;Node2 -->
<g id="edge1" class="edge">
<title>Node1&#45;&gt;Node2</title>
<path fill="none" stroke="midnightblue" d="M137.05,-45.66C145.59,-46.94 154.28,-48.24 162.68,-49.51"/>
<polygon fill="midnightblue" stroke="midnightblue" points="162.36,-53 172.77,-51.02 163.4,-46.08 162.36,-53"/>
</g>
<!-- Node3 -->
<g id="node3" class="node">
<title>Node3</title>
<g id="a_node3"><a xlink:href="classflow_1_1net__flow_1_1Node.html#ad502e0a992a79b71af42a9cdc20a4280" target="_top" xlink:title="Sets Peer_socket::m_state and Peer_socket::m_open_sub_state.">
<polygon fill="white" stroke="black" points="173,-0.5 173,-26.5 274,-26.5 274,-0.5 173,-0.5"/>
<text text-anchor="start" x="181" y="-16.1" font-family="Helvetica,sans-Serif" font-size="8.00">flow::net_flow::Node</text>
<text text-anchor="middle" x="223.5" y="-7.1" font-family="Helvetica,sans-Serif" font-size="8.00">::sock_set_state</text>
</a>
</g>
</g>
<!-- Node1&#45;&gt;Node3 -->
<g id="edge2" class="edge">
<title>Node1&#45;&gt;Node3</title>
<path fill="none" stroke="midnightblue" d="M137.05,-25.79C145.59,-24.56 154.28,-23.31 162.68,-22.1"/>
<polygon fill="midnightblue" stroke="midnightblue" points="163.37,-25.54 172.77,-20.65 162.37,-18.61 163.37,-25.54"/>
</g>
</g>
</svg>
