<?xml version="1.0" encoding="UTF-8" standalone="no"?>
<!DOCTYPE svg PUBLIC "-//W3C//DTD SVG 1.1//EN"
 "http://www.w3.org/Graphics/SVG/1.1/DTD/svg11.dtd">
<!-- Generated by graphviz version 2.43.0 (0)
 -->
<!-- Title: flow::perf::Checkpointing_timer::now Pages: 1 -->
<svg width="783pt" height="351pt"
 viewBox="0.00 0.00 783.00 351.00" xmlns="http://www.w3.org/2000/svg" xmlns:xlink="http://www.w3.org/1999/xlink">
<g id="graph0" class="graph" transform="scale(1 1) rotate(0) translate(4 347)">
<title>flow::perf::Checkpointing_timer::now</title>
<polygon fill="white" stroke="transparent" points="-4,4 -4,-347 779,-347 779,4 -4,4"/>
<!-- Node1 -->
<g id="node1" class="node">
<title>Node1</title>
<g id="a_node1"><a xlink:title="Sample all currently enabled Clock_types&#39; clocks and return those values, each of which is a time sta...">
<polygon fill="#bfbfbf" stroke="black" points="656,-173 656,-199 775,-199 775,-173 656,-173"/>
<text text-anchor="start" x="664" y="-188.6" font-family="Helvetica,sans-Serif" font-size="8.00">flow::perf::Checkpointing</text>
<text text-anchor="middle" x="715.5" y="-179.6" font-family="Helvetica,sans-Serif" font-size="8.00">_timer::now</text>
</a>
</g>
</g>
<!-- Node2 -->
<g id="node2" class="node">
<title>Node2</title>
<g id="a_node2"><a xlink:href="classflow_1_1perf_1_1Checkpointing__timer.html#a9e6078df059d5626ab5774f0a33fbad7" target="_top" xlink:title="Records a checkpoint, which takes a sample of all enabled Clock_types&#39; clocks and records the corresp...">
<polygon fill="white" stroke="black" points="491.5,-229 491.5,-255 610.5,-255 610.5,-229 491.5,-229"/>
<text text-anchor="start" x="499.5" y="-244.6" font-family="Helvetica,sans-Serif" font-size="8.00">flow::perf::Checkpointing</text>
<text text-anchor="middle" x="551" y="-235.6" font-family="Helvetica,sans-Serif" font-size="8.00">_timer::checkpoint</text>
</a>
</g>
</g>
<!-- Node1&#45;&gt;Node2 -->
<g id="edge1" class="edge">
<title>Node1&#45;&gt;Node2</title>
<path fill="none" stroke="midnightblue" d="M666.92,-202.4C642.37,-210.86 612.84,-221.03 589.86,-228.95"/>
<polygon fill="midnightblue" stroke="midnightblue" points="668.09,-205.7 676.4,-199.13 665.81,-199.08 668.09,-205.7"/>
</g>
<!-- Node7 -->
<g id="node7" class="node">
<title>Node7</title>
<g id="a_node7"><a xlink:href="classflow_1_1perf_1_1Checkpointing__timer.html#aa9940d8e87883f9985ba18939f833db9" target="_top" xlink:title="Constructs a new timer and immediately begins measuring time, in that the next checkpoint() call will...">
<polygon fill="white" stroke="black" points="485.5,-299 485.5,-325 616.5,-325 616.5,-299 485.5,-299"/>
<text text-anchor="start" x="493.5" y="-314.6" font-family="Helvetica,sans-Serif" font-size="8.00">flow::perf::Checkpointing</text>
<text text-anchor="middle" x="551" y="-305.6" font-family="Helvetica,sans-Serif" font-size="8.00">_timer::Checkpointing_timer</text>
</a>
</g>
</g>
<!-- Node1&#45;&gt;Node7 -->
<g id="edge6" class="edge">
<title>Node1&#45;&gt;Node7</title>
<path fill="none" stroke="midnightblue" d="M692.05,-205.77C673.19,-222.12 645.35,-245.71 620,-265 604.24,-276.99 585.71,-289.71 571.98,-298.89"/>
<polygon fill="midnightblue" stroke="midnightblue" points="694.55,-208.23 699.79,-199.02 689.95,-202.95 694.55,-208.23"/>
</g>
<!-- Node8 -->
<g id="node8" class="node">
<title>Node8</title>
<g id="a_node8"><a xlink:href="classflow_1_1perf_1_1Checkpointing__timer.html#a019df7b02e8aed1e86002c8a7b40dcf7" target="_top" xlink:title="Based on the passed in which_clocks argument, the current time is returned for the clock types enable...">
<polygon fill="white" stroke="black" points="491.5,-173 491.5,-199 610.5,-199 610.5,-173 491.5,-173"/>
<text text-anchor="start" x="499.5" y="-188.6" font-family="Helvetica,sans-Serif" font-size="8.00">flow::perf::Checkpointing</text>
<text text-anchor="middle" x="551" y="-179.6" font-family="Helvetica,sans-Serif" font-size="8.00">_timer::now</text>
</a>
</g>
</g>
<!-- Node1&#45;&gt;Node8 -->
<g id="edge8" class="edge">
<title>Node1&#45;&gt;Node8</title>
<path fill="none" stroke="midnightblue" d="M645.68,-186C634,-186 621.97,-186 610.58,-186"/>
<polygon fill="midnightblue" stroke="midnightblue" points="645.83,-189.5 655.83,-186 645.83,-182.5 645.83,-189.5"/>
</g>
<!-- Node9 -->
<g id="node9" class="node">
<title>Node9</title>
<g id="a_node9"><a xlink:href="namespaceflow_1_1perf.html#a0dee22ec7bf250bbbf556a7e15c1f784" target="_top" xlink:title="Constructs a closure that times and executes void&#45;returning function(), adding the elapsed time with ...">
<polygon fill="white" stroke="black" points="490,-127.5 490,-144.5 612,-144.5 612,-127.5 490,-127.5"/>
<text text-anchor="middle" x="551" y="-134.1" font-family="Helvetica,sans-Serif" font-size="8.00">flow::perf::timed_function</text>
</a>
</g>
</g>
<!-- Node1&#45;&gt;Node9 -->
<g id="edge9" class="edge">
<title>Node1&#45;&gt;Node9</title>
<path fill="none" stroke="midnightblue" d="M662.38,-169.96C634.93,-161.52 602.37,-151.5 579.76,-144.54"/>
<polygon fill="midnightblue" stroke="midnightblue" points="661.64,-173.4 672.23,-172.99 663.7,-166.71 661.64,-173.4"/>
</g>
<!-- Node19 -->
<g id="node19" class="node">
<title>Node19</title>
<g id="a_node19"><a xlink:href="namespaceflow_1_1perf.html#a58d2f7a7fca0c3cfd0a87ae560ce4926" target="_top" xlink:title="Constructs a closure that times and executes non&#45;void&#45;returning function(), adding the elapsed time w...">
<polygon fill="white" stroke="black" points="482,-91.5 482,-108.5 620,-108.5 620,-91.5 482,-91.5"/>
<text text-anchor="middle" x="551" y="-98.1" font-family="Helvetica,sans-Serif" font-size="8.00">flow::perf::timed_function_nvr</text>
</a>
</g>
</g>
<!-- Node1&#45;&gt;Node19 -->
<g id="edge19" class="edge">
<title>Node1&#45;&gt;Node19</title>
<path fill="none" stroke="midnightblue" d="M692.14,-166.28C673.87,-151.1 646.78,-130.65 620,-118 611.83,-114.14 602.7,-111.01 593.85,-108.51"/>
<polygon fill="midnightblue" stroke="midnightblue" points="689.98,-169.04 699.88,-172.83 694.51,-163.7 689.98,-169.04"/>
</g>
<!-- Node3 -->
<g id="node3" class="node">
<title>Node3</title>
<g id="a_node3"><a xlink:href="classflow_1_1perf_1_1Checkpointing__timer_1_1Aggregator.html#acbacf3b4842b77f542082e7a186f1434" target="_top" xlink:title="Provides programmatic access to the aggregation result that would be logged by log_aggregated_results...">
<polygon fill="white" stroke="black" points="321,-307.5 321,-342.5 446,-342.5 446,-307.5 321,-307.5"/>
<text text-anchor="start" x="329" y="-332.1" font-family="Helvetica,sans-Serif" font-size="8.00">flow::perf::Checkpointing</text>
<text text-anchor="start" x="329" y="-323.1" font-family="Helvetica,sans-Serif" font-size="8.00">_timer::Aggregator::create</text>
<text text-anchor="middle" x="383.5" y="-314.1" font-family="Helvetica,sans-Serif" font-size="8.00">_aggregated_result</text>
</a>
</g>
</g>
<!-- Node2&#45;&gt;Node3 -->
<g id="edge2" class="edge">
<title>Node2&#45;&gt;Node3</title>
<path fill="none" stroke="midnightblue" d="M517.87,-260.16C497.5,-271.47 470.45,-286.07 446,-298 439.5,-301.17 432.54,-304.39 425.73,-307.44"/>
<polygon fill="midnightblue" stroke="midnightblue" points="519.71,-263.15 526.74,-255.22 516.3,-257.03 519.71,-263.15"/>
</g>
<!-- Node4 -->
<g id="node4" class="node">
<title>Node4</title>
<g id="a_node4"><a xlink:href="classflow_1_1perf_1_1Checkpointing__timer.html#a07204b9119b94bc10d53a8ba15c44797" target="_top" xlink:title="Equivalent to (*os) &lt;&lt; (*this).">
<polygon fill="white" stroke="black" points="324,-262 324,-288 443,-288 443,-262 324,-262"/>
<text text-anchor="start" x="332" y="-277.6" font-family="Helvetica,sans-Serif" font-size="8.00">flow::perf::Checkpointing</text>
<text text-anchor="middle" x="383.5" y="-268.6" font-family="Helvetica,sans-Serif" font-size="8.00">_timer::output</text>
</a>
</g>
</g>
<!-- Node2&#45;&gt;Node4 -->
<g id="edge3" class="edge">
<title>Node2&#45;&gt;Node4</title>
<path fill="none" stroke="midnightblue" d="M481.16,-255.73C468.52,-258.25 455.43,-260.86 443.13,-263.31"/>
<polygon fill="midnightblue" stroke="midnightblue" points="482.06,-259.12 491.18,-253.73 480.69,-252.25 482.06,-259.12"/>
</g>
<!-- Node6 -->
<g id="node6" class="node">
<title>Node6</title>
<g id="a_node6"><a xlink:href="classflow_1_1perf_1_1Checkpointing__timer.html#a378be385d0c3dda261c8944551280010" target="_top" xlink:title="Called anytime after the last checkpoint(), this modifies the data collected so far to be as if every...">
<polygon fill="white" stroke="black" points="324,-217 324,-243 443,-243 443,-217 324,-217"/>
<text text-anchor="start" x="332" y="-232.6" font-family="Helvetica,sans-Serif" font-size="8.00">flow::perf::Checkpointing</text>
<text text-anchor="middle" x="383.5" y="-223.6" font-family="Helvetica,sans-Serif" font-size="8.00">_timer::scale</text>
</a>
</g>
</g>
<!-- Node2&#45;&gt;Node6 -->
<g id="edge5" class="edge">
<title>Node2&#45;&gt;Node6</title>
<path fill="none" stroke="midnightblue" d="M481.16,-237.01C468.52,-236.09 455.43,-235.14 443.13,-234.25"/>
<polygon fill="midnightblue" stroke="midnightblue" points="480.96,-240.5 491.18,-237.74 481.46,-233.52 480.96,-240.5"/>
</g>
<!-- Node5 -->
<g id="node5" class="node">
<title>Node5</title>
<g id="a_node5"><a xlink:href="classflow_1_1perf_1_1Checkpointing__timer.html#a6d5b7cbbe0ec5133299f97148ef3eaa0" target="_top" xlink:title="Prints string representation of the given Checkpointing_timer (whether with original data or an aggre...">
<polygon fill="white" stroke="black" points="163,-262 163,-288 282,-288 282,-262 163,-262"/>
<text text-anchor="start" x="171" y="-277.6" font-family="Helvetica,sans-Serif" font-size="8.00">flow::perf::Checkpointing</text>
<text text-anchor="middle" x="222.5" y="-268.6" font-family="Helvetica,sans-Serif" font-size="8.00">_timer::operator&lt;&lt;</text>
</a>
</g>
</g>
<!-- Node4&#45;&gt;Node5 -->
<g id="edge4" class="edge">
<title>Node4&#45;&gt;Node5</title>
<path fill="none" stroke="midnightblue" d="M313.72,-275C303.15,-275 292.33,-275 282.01,-275"/>
<polygon fill="midnightblue" stroke="midnightblue" points="313.75,-278.5 323.75,-275 313.75,-271.5 313.75,-278.5"/>
</g>
<!-- Node7&#45;&gt;Node3 -->
<g id="edge7" class="edge">
<title>Node7&#45;&gt;Node3</title>
<path fill="none" stroke="midnightblue" d="M475.02,-317.89C465.31,-318.65 455.46,-319.43 446,-320.17"/>
<polygon fill="midnightblue" stroke="midnightblue" points="475.37,-321.37 485.07,-317.1 474.82,-314.39 475.37,-321.37"/>
</g>
<!-- Node10 -->
<g id="node10" class="node">
<title>Node10</title>
<g id="a_node10"><a xlink:href="classflow_1_1async_1_1Timed__concurrent__task__loop__impl.html#adb9a4a09e821aad135cfa1f493624630" target="_top" xlink:title="Implements superclass API.">
<polygon fill="white" stroke="black" points="330,-162.5 330,-197.5 437,-197.5 437,-162.5 330,-162.5"/>
<text text-anchor="start" x="338" y="-187.1" font-family="Helvetica,sans-Serif" font-size="8.00">flow::async::Timed</text>
<text text-anchor="start" x="338" y="-178.1" font-family="Helvetica,sans-Serif" font-size="8.00">_concurrent_task_loop</text>
<text text-anchor="middle" x="383.5" y="-169.1" font-family="Helvetica,sans-Serif" font-size="8.00">_impl::post</text>
</a>
</g>
</g>
<!-- Node9&#45;&gt;Node10 -->
<g id="edge10" class="edge">
<title>Node9&#45;&gt;Node10</title>
<path fill="none" stroke="midnightblue" d="M507.89,-147.2C486.41,-152.91 460.06,-159.91 437.24,-165.98"/>
<polygon fill="midnightblue" stroke="midnightblue" points="508.93,-150.54 517.7,-144.59 507.13,-143.78 508.93,-150.54"/>
</g>
<!-- Node12 -->
<g id="node12" class="node">
<title>Node12</title>
<g id="a_node12"><a xlink:href="classflow_1_1async_1_1Timed__concurrent__task__loop__impl.html#a2c3566acb42c14ce7fe31026a711a30b" target="_top" xlink:title="Implements superclass API.">
<polygon fill="white" stroke="black" points="330,-108.5 330,-143.5 437,-143.5 437,-108.5 330,-108.5"/>
<text text-anchor="start" x="338" y="-133.1" font-family="Helvetica,sans-Serif" font-size="8.00">flow::async::Timed</text>
<text text-anchor="start" x="338" y="-124.1" font-family="Helvetica,sans-Serif" font-size="8.00">_concurrent_task_loop</text>
<text text-anchor="middle" x="383.5" y="-115.1" font-family="Helvetica,sans-Serif" font-size="8.00">_impl::schedule_at</text>
</a>
</g>
</g>
<!-- Node9&#45;&gt;Node12 -->
<g id="edge12" class="edge">
<title>Node9&#45;&gt;Node12</title>
<path fill="none" stroke="midnightblue" d="M479.52,-131.74C465.27,-130.88 450.52,-129.99 437.02,-129.17"/>
<polygon fill="midnightblue" stroke="midnightblue" points="479.59,-135.25 489.78,-132.36 480.01,-128.26 479.59,-135.25"/>
</g>
<!-- Node14 -->
<g id="node14" class="node">
<title>Node14</title>
<g id="a_node14"><a xlink:href="classflow_1_1async_1_1Timed__concurrent__task__loop__impl.html#a79b1d2f2b5bf4fdf16e7701fe3bb44d1" target="_top" xlink:title="Implements superclass API.">
<polygon fill="white" stroke="black" points="321,-54.5 321,-89.5 446,-89.5 446,-54.5 321,-54.5"/>
<text text-anchor="start" x="329" y="-79.1" font-family="Helvetica,sans-Serif" font-size="8.00">flow::async::Timed</text>
<text text-anchor="start" x="329" y="-70.1" font-family="Helvetica,sans-Serif" font-size="8.00">_concurrent_task_loop</text>
<text text-anchor="middle" x="383.5" y="-61.1" font-family="Helvetica,sans-Serif" font-size="8.00">_impl::schedule_from_now</text>
</a>
</g>
</g>
<!-- Node9&#45;&gt;Node14 -->
<g id="edge14" class="edge">
<title>Node9&#45;&gt;Node14</title>
<path fill="none" stroke="midnightblue" d="M501.92,-124.74C495.15,-122.73 488.34,-120.48 482,-118 465.15,-111.42 462.29,-106.86 446,-99 439.49,-95.86 432.52,-92.65 425.71,-89.6"/>
<polygon fill="midnightblue" stroke="midnightblue" points="501.17,-128.16 511.75,-127.5 503.07,-121.42 501.17,-128.16"/>
</g>
<!-- Node16 -->
<g id="node16" class="node">
<title>Node16</title>
<g id="a_node16"><a xlink:href="namespaceflow_1_1perf.html#a7a3694bcd6e4bd506715d5931bc0c009" target="_top" xlink:title="Identical to timed_function() but suitable for boost.asio&#45;targeted handler functions.">
<polygon fill="white" stroke="black" points="324,-14.5 324,-31.5 443,-31.5 443,-14.5 324,-14.5"/>
<text text-anchor="middle" x="383.5" y="-21.1" font-family="Helvetica,sans-Serif" font-size="8.00">flow::perf::timed_handler</text>
</a>
</g>
</g>
<!-- Node9&#45;&gt;Node16 -->
<g id="edge16" class="edge">
<title>Node9&#45;&gt;Node16</title>
<path fill="none" stroke="midnightblue" d="M489.24,-123C486.69,-121.51 484.26,-119.85 482,-118 454,-95.09 473,-69.07 446,-45 439.4,-39.11 431.11,-34.77 422.78,-31.58"/>
<polygon fill="midnightblue" stroke="midnightblue" points="487.78,-126.18 498.29,-127.45 490.86,-119.9 487.78,-126.18"/>
</g>
<!-- Node11 -->
<g id="node11" class="node">
<title>Node11</title>
<g id="a_node11"><a xlink:href="classflow_1_1async_1_1Timed__single__thread__task__loop.html#aafc6c8e2d94c5387bfd4e49795244feb" target="_top" xlink:title="Implements superclass method but with the addition of timing of task, accessible through accumulated_...">
<polygon fill="white" stroke="black" points="174,-162.5 174,-197.5 271,-197.5 271,-162.5 174,-162.5"/>
<text text-anchor="start" x="182" y="-187.1" font-family="Helvetica,sans-Serif" font-size="8.00">flow::async::Timed</text>
<text text-anchor="start" x="182" y="-178.1" font-family="Helvetica,sans-Serif" font-size="8.00">_single_thread_task</text>
<text text-anchor="middle" x="222.5" y="-169.1" font-family="Helvetica,sans-Serif" font-size="8.00">_loop::post</text>
</a>
</g>
</g>
<!-- Node10&#45;&gt;Node11 -->
<g id="edge11" class="edge">
<title>Node10&#45;&gt;Node11</title>
<path fill="none" stroke="midnightblue" d="M319.56,-180C303.43,-180 286.34,-180 271.12,-180"/>
<polygon fill="midnightblue" stroke="midnightblue" points="320,-183.5 330,-180 320,-176.5 320,-183.5"/>
</g>
<!-- Node13 -->
<g id="node13" class="node">
<title>Node13</title>
<g id="a_node13"><a xlink:href="classflow_1_1async_1_1Timed__single__thread__task__loop.html#a939142533e48fc54040825aad2010121" target="_top" xlink:title="Implements superclass method but with the addition of timing of task, accessible through accumulated_...">
<polygon fill="white" stroke="black" points="174,-108.5 174,-143.5 271,-143.5 271,-108.5 174,-108.5"/>
<text text-anchor="start" x="182" y="-133.1" font-family="Helvetica,sans-Serif" font-size="8.00">flow::async::Timed</text>
<text text-anchor="start" x="182" y="-124.1" font-family="Helvetica,sans-Serif" font-size="8.00">_single_thread_task</text>
<text text-anchor="middle" x="222.5" y="-115.1" font-family="Helvetica,sans-Serif" font-size="8.00">_loop::schedule_at</text>
</a>
</g>
</g>
<!-- Node12&#45;&gt;Node13 -->
<g id="edge13" class="edge">
<title>Node12&#45;&gt;Node13</title>
<path fill="none" stroke="midnightblue" d="M319.56,-126C303.43,-126 286.34,-126 271.12,-126"/>
<polygon fill="midnightblue" stroke="midnightblue" points="320,-129.5 330,-126 320,-122.5 320,-129.5"/>
</g>
<!-- Node15 -->
<g id="node15" class="node">
<title>Node15</title>
<g id="a_node15"><a xlink:href="classflow_1_1async_1_1Timed__single__thread__task__loop.html#afed368e611529a648a7dd2999a89ab0d" target="_top" xlink:title="Implements superclass method but with the addition of timing of task, accessible through accumulated_...">
<polygon fill="white" stroke="black" points="160,-54.5 160,-89.5 285,-89.5 285,-54.5 160,-54.5"/>
<text text-anchor="start" x="168" y="-79.1" font-family="Helvetica,sans-Serif" font-size="8.00">flow::async::Timed</text>
<text text-anchor="start" x="168" y="-70.1" font-family="Helvetica,sans-Serif" font-size="8.00">_single_thread_task</text>
<text text-anchor="middle" x="222.5" y="-61.1" font-family="Helvetica,sans-Serif" font-size="8.00">_loop::schedule_from_now</text>
</a>
</g>
</g>
<!-- Node14&#45;&gt;Node15 -->
<g id="edge15" class="edge">
<title>Node14&#45;&gt;Node15</title>
<path fill="none" stroke="midnightblue" d="M310.41,-72C302.01,-72 293.5,-72 285.26,-72"/>
<polygon fill="midnightblue" stroke="midnightblue" points="310.57,-75.5 320.57,-72 310.57,-68.5 310.57,-75.5"/>
</g>
<!-- Node17 -->
<g id="node17" class="node">
<title>Node17</title>
<g id="a_node17"><a xlink:href="classflow_1_1async_1_1Timed__concurrent__task__loop__impl.html#a9e915ee364537114a9e2f50574d960b7" target="_top" xlink:title="Given a boost.asio completion handler handler for a boost.asio async_*() action on some boost....">
<polygon fill="white" stroke="black" points="161,-0.5 161,-35.5 284,-35.5 284,-0.5 161,-0.5"/>
<text text-anchor="start" x="169" y="-25.1" font-family="Helvetica,sans-Serif" font-size="8.00">flow::async::Timed</text>
<text text-anchor="start" x="169" y="-16.1" font-family="Helvetica,sans-Serif" font-size="8.00">_concurrent_task_loop</text>
<text text-anchor="middle" x="222.5" y="-7.1" font-family="Helvetica,sans-Serif" font-size="8.00">_impl::asio_handler_timed</text>
</a>
</g>
</g>
<!-- Node16&#45;&gt;Node17 -->
<g id="edge17" class="edge">
<title>Node16&#45;&gt;Node17</title>
<path fill="none" stroke="midnightblue" d="M313.63,-20.83C303.81,-20.53 293.78,-20.21 284.14,-19.91"/>
<polygon fill="midnightblue" stroke="midnightblue" points="313.64,-24.34 323.75,-21.15 313.86,-17.34 313.64,-24.34"/>
</g>
<!-- Node18 -->
<g id="node18" class="node">
<title>Node18</title>
<g id="a_node18"><a xlink:href="classflow_1_1async_1_1Timed__single__thread__task__loop.html#a37f2f0d5c163cc1d0b56213ebb080af0" target="_top" xlink:title="See Timed_concurrent_task_loop_impl::asio_handler_timed().">
<polygon fill="white" stroke="black" points="0,-0.5 0,-35.5 124,-35.5 124,-0.5 0,-0.5"/>
<text text-anchor="start" x="8" y="-25.1" font-family="Helvetica,sans-Serif" font-size="8.00">flow::async::Timed</text>
<text text-anchor="start" x="8" y="-16.1" font-family="Helvetica,sans-Serif" font-size="8.00">_single_thread_task</text>
<text text-anchor="middle" x="62" y="-7.1" font-family="Helvetica,sans-Serif" font-size="8.00">_loop::asio_handler_timed</text>
</a>
</g>
</g>
<!-- Node17&#45;&gt;Node18 -->
<g id="edge18" class="edge">
<title>Node17&#45;&gt;Node18</title>
<path fill="none" stroke="midnightblue" d="M150.47,-18C141.7,-18 132.79,-18 124.19,-18"/>
<polygon fill="midnightblue" stroke="midnightblue" points="150.67,-21.5 160.67,-18 150.67,-14.5 150.67,-21.5"/>
</g>
</g>
</svg>
