<?xml version="1.0" encoding="UTF-8" standalone="no"?>
<!DOCTYPE svg PUBLIC "-//W3C//DTD SVG 1.1//EN"
 "http://www.w3.org/Graphics/SVG/1.1/DTD/svg11.dtd">
<!-- Generated by graphviz version 2.43.0 (0)
 -->
<!-- Title: flow::net_flow::Peer_socket::options Pages: 1 -->
<svg width="717pt" height="226pt"
 viewBox="0.00 0.00 717.00 225.50" xmlns="http://www.w3.org/2000/svg" xmlns:xlink="http://www.w3.org/1999/xlink">
<g id="graph0" class="graph" transform="scale(1 1) rotate(0) translate(4 221.5)">
<title>flow::net_flow::Peer_socket::options</title>
<polygon fill="white" stroke="transparent" points="-4,4 -4,-221.5 713,-221.5 713,4 -4,4"/>
<!-- Node1 -->
<g id="node1" class="node">
<title>Node1</title>
<g id="a_node1"><a xlink:title="Copies this socket&#39;s option set and returns that copy.">
<polygon fill="#bfbfbf" stroke="black" points="612,-98 612,-124 709,-124 709,-98 612,-98"/>
<text text-anchor="start" x="620" y="-113.6" font-family="Helvetica,sans-Serif" font-size="8.00">flow::net_flow::Peer</text>
<text text-anchor="middle" x="660.5" y="-104.6" font-family="Helvetica,sans-Serif" font-size="8.00">_socket::options</text>
</a>
</g>
</g>
<!-- Node2 -->
<g id="node2" class="node">
<title>Node2</title>
<g id="a_node2"><a xlink:href="classflow_1_1net__flow_1_1Peer__socket.html#a5003c554807f5b5b58989ad58be48d42" target="_top" xlink:title="Constructs object; initializes most values to well&#45;defined (0, empty, etc.) but not necessarily meani...">
<polygon fill="white" stroke="black" points="474,-98 474,-124 576,-124 576,-98 474,-98"/>
<text text-anchor="start" x="482" y="-113.6" font-family="Helvetica,sans-Serif" font-size="8.00">flow::net_flow::Peer</text>
<text text-anchor="middle" x="525" y="-104.6" font-family="Helvetica,sans-Serif" font-size="8.00">_socket::Peer_socket</text>
</a>
</g>
</g>
<!-- Node1&#45;&gt;Node2 -->
<g id="edge1" class="edge">
<title>Node1&#45;&gt;Node2</title>
<path fill="none" stroke="midnightblue" d="M601.52,-111C593.08,-111 584.46,-111 576.19,-111"/>
<polygon fill="midnightblue" stroke="midnightblue" points="601.68,-114.5 611.68,-111 601.68,-107.5 601.68,-114.5"/>
</g>
<!-- Node3 -->
<g id="node3" class="node">
<title>Node3</title>
<g id="a_node3"><a xlink:href="classflow_1_1net__flow_1_1Peer__socket.html#a8abde92d5189bf2a058fe8741789f814" target="_top" xlink:title="This is to sync_receive() as node_receive() is to receive().">
<polygon fill="white" stroke="black" points="307,-123 307,-149 438,-149 438,-123 307,-123"/>
<text text-anchor="start" x="315" y="-138.6" font-family="Helvetica,sans-Serif" font-size="8.00">flow::net_flow::Peer</text>
<text text-anchor="middle" x="372.5" y="-129.6" font-family="Helvetica,sans-Serif" font-size="8.00">_socket::node_sync_receive</text>
</a>
</g>
</g>
<!-- Node2&#45;&gt;Node3 -->
<g id="edge2" class="edge">
<title>Node2&#45;&gt;Node3</title>
<path fill="none" stroke="midnightblue" d="M463.76,-121.01C455.33,-122.41 446.63,-123.85 438.12,-125.27"/>
<polygon fill="midnightblue" stroke="midnightblue" points="464.59,-124.42 473.89,-119.32 463.45,-117.51 464.59,-124.42"/>
</g>
<!-- Node8 -->
<g id="node8" class="node">
<title>Node8</title>
<g id="a_node8"><a xlink:href="classflow_1_1net__flow_1_1Peer__socket.html#a34e2c7dfb5596269a6f86a716015f1a6" target="_top" xlink:title="This is to sync_send() as node_send() is to send().">
<polygon fill="white" stroke="black" points="312,-73 312,-99 433,-99 433,-73 312,-73"/>
<text text-anchor="start" x="320" y="-88.6" font-family="Helvetica,sans-Serif" font-size="8.00">flow::net_flow::Peer</text>
<text text-anchor="middle" x="372.5" y="-79.6" font-family="Helvetica,sans-Serif" font-size="8.00">_socket::node_sync_send</text>
</a>
</g>
</g>
<!-- Node2&#45;&gt;Node8 -->
<g id="edge8" class="edge">
<title>Node2&#45;&gt;Node8</title>
<path fill="none" stroke="midnightblue" d="M463.89,-101.01C453.73,-99.33 443.19,-97.58 433.05,-95.89"/>
<polygon fill="midnightblue" stroke="midnightblue" points="463.45,-104.49 473.89,-102.68 464.59,-97.58 463.45,-104.49"/>
</g>
<!-- Node4 -->
<g id="node4" class="node">
<title>Node4</title>
<g id="a_node4"><a xlink:href="classflow_1_1net__flow_1_1Peer__socket.html#ad29f61b9885b10ddc3846cdae0560518" target="_top" xlink:title="Same as sync_receive() but uses a Fine_clock&#45;based Fine_duration non&#45;template type for implementation...">
<polygon fill="white" stroke="black" points="143,-191 143,-217 270,-217 270,-191 143,-191"/>
<text text-anchor="start" x="151" y="-206.6" font-family="Helvetica,sans-Serif" font-size="8.00">flow::net_flow::Peer</text>
<text text-anchor="middle" x="206.5" y="-197.6" font-family="Helvetica,sans-Serif" font-size="8.00">_socket::sync_receive_impl</text>
</a>
</g>
</g>
<!-- Node3&#45;&gt;Node4 -->
<g id="edge3" class="edge">
<title>Node3&#45;&gt;Node4</title>
<path fill="none" stroke="midnightblue" d="M334.44,-153.38C315.59,-162.02 292.23,-172.42 271,-181 262.63,-184.38 253.55,-187.81 244.94,-190.95"/>
<polygon fill="midnightblue" stroke="midnightblue" points="335.96,-156.53 343.58,-149.17 333.03,-150.17 335.96,-156.53"/>
</g>
<!-- Node6 -->
<g id="node6" class="node">
<title>Node6</title>
<g id="a_node6"><a xlink:href="classflow_1_1net__flow_1_1Peer__socket.html#a1a2eccfa314a397c12259f414ef6798c" target="_top" xlink:title="Helper similar to sync_receive_impl() but for the nullptr_t versions of sync_receive().">
<polygon fill="white" stroke="black" points="153.5,-118.5 153.5,-153.5 259.5,-153.5 259.5,-118.5 153.5,-118.5"/>
<text text-anchor="start" x="161.5" y="-143.1" font-family="Helvetica,sans-Serif" font-size="8.00">flow::net_flow::Peer</text>
<text text-anchor="start" x="161.5" y="-134.1" font-family="Helvetica,sans-Serif" font-size="8.00">_socket::sync_receive</text>
<text text-anchor="middle" x="206.5" y="-125.1" font-family="Helvetica,sans-Serif" font-size="8.00">_reactor_pattern_impl</text>
</a>
</g>
</g>
<!-- Node3&#45;&gt;Node6 -->
<g id="edge5" class="edge">
<title>Node3&#45;&gt;Node6</title>
<path fill="none" stroke="midnightblue" d="M296.36,-136C283.98,-136 271.39,-136 259.74,-136"/>
<polygon fill="midnightblue" stroke="midnightblue" points="296.68,-139.5 306.68,-136 296.68,-132.5 296.68,-139.5"/>
</g>
<!-- Node5 -->
<g id="node5" class="node">
<title>Node5</title>
<g id="a_node5"><a xlink:href="classflow_1_1net__flow_1_1Peer__socket.html#a21c5f1777ae2d672532d99a9547fd367" target="_top" xlink:title="Equivalent to sync_receive(target, duration::max(), err_code); i.e., sync_receive() with no timeout.">
<polygon fill="white" stroke="black" points="0,-191 0,-217 106,-217 106,-191 0,-191"/>
<text text-anchor="start" x="8" y="-206.6" font-family="Helvetica,sans-Serif" font-size="8.00">flow::net_flow::Peer</text>
<text text-anchor="middle" x="53" y="-197.6" font-family="Helvetica,sans-Serif" font-size="8.00">_socket::sync_receive</text>
</a>
</g>
</g>
<!-- Node4&#45;&gt;Node5 -->
<g id="edge4" class="edge">
<title>Node4&#45;&gt;Node5</title>
<path fill="none" stroke="midnightblue" d="M132.34,-204C123.58,-204 114.78,-204 106.4,-204"/>
<polygon fill="midnightblue" stroke="midnightblue" points="132.57,-207.5 142.57,-204 132.57,-200.5 132.57,-207.5"/>
</g>
<!-- Node6&#45;&gt;Node6 -->
<g id="edge7" class="edge">
<title>Node6&#45;&gt;Node6</title>
<path fill="none" stroke="midnightblue" d="M232.97,-164.1C229.25,-168.77 220.43,-172 206.5,-172 183.64,-172 174.53,-163.31 179.18,-153.78"/>
<polygon fill="midnightblue" stroke="midnightblue" points="236.49,-164.04 233.82,-153.78 229.51,-163.46 236.49,-164.04"/>
</g>
<!-- Node7 -->
<g id="node7" class="node">
<title>Node7</title>
<g id="a_node7"><a xlink:href="classflow_1_1net__flow_1_1Peer__socket.html#ac9f0416a6263eb3a87e4b196e090f2dc" target="_top" xlink:title="sync_receive() operating in nullptr_t mode, wherein – if Readable state is reached – the actual data ...">
<polygon fill="white" stroke="black" points="0,-123 0,-149 106,-149 106,-123 0,-123"/>
<text text-anchor="start" x="8" y="-138.6" font-family="Helvetica,sans-Serif" font-size="8.00">flow::net_flow::Peer</text>
<text text-anchor="middle" x="53" y="-129.6" font-family="Helvetica,sans-Serif" font-size="8.00">_socket::sync_receive</text>
</a>
</g>
</g>
<!-- Node6&#45;&gt;Node7 -->
<g id="edge6" class="edge">
<title>Node6&#45;&gt;Node7</title>
<path fill="none" stroke="midnightblue" d="M143.19,-136C130.91,-136 118.14,-136 106.23,-136"/>
<polygon fill="midnightblue" stroke="midnightblue" points="143.36,-139.5 153.36,-136 143.36,-132.5 143.36,-139.5"/>
</g>
<!-- Node9 -->
<g id="node9" class="node">
<title>Node9</title>
<g id="a_node9"><a xlink:href="classflow_1_1net__flow_1_1Peer__socket.html#a3f1a802024549a59978a53343b09a86d" target="_top" xlink:title="Same as sync_send() but uses a Fine_clock&#45;based Fine_duration non&#45;template type for implementation co...">
<polygon fill="white" stroke="black" points="148,-73 148,-99 265,-99 265,-73 148,-73"/>
<text text-anchor="start" x="156" y="-88.6" font-family="Helvetica,sans-Serif" font-size="8.00">flow::net_flow::Peer</text>
<text text-anchor="middle" x="206.5" y="-79.6" font-family="Helvetica,sans-Serif" font-size="8.00">_socket::sync_send_impl</text>
</a>
</g>
</g>
<!-- Node8&#45;&gt;Node9 -->
<g id="edge9" class="edge">
<title>Node8&#45;&gt;Node9</title>
<path fill="none" stroke="midnightblue" d="M301.72,-86C289.55,-86 277.01,-86 265.21,-86"/>
<polygon fill="midnightblue" stroke="midnightblue" points="301.83,-89.5 311.83,-86 301.83,-82.5 301.83,-89.5"/>
</g>
<!-- Node11 -->
<g id="node11" class="node">
<title>Node11</title>
<g id="a_node11"><a xlink:href="classflow_1_1net__flow_1_1Peer__socket.html#a15ba1d4af6d4e3fcab9534a307c00595" target="_top" xlink:title="Helper similar to sync_send_impl() but for the nullptr_t versions of sync_send().">
<polygon fill="white" stroke="black" points="142,-0.5 142,-35.5 271,-35.5 271,-0.5 142,-0.5"/>
<text text-anchor="start" x="150" y="-25.1" font-family="Helvetica,sans-Serif" font-size="8.00">flow::net_flow::Peer</text>
<text text-anchor="start" x="150" y="-16.1" font-family="Helvetica,sans-Serif" font-size="8.00">_socket::sync_send_reactor</text>
<text text-anchor="middle" x="206.5" y="-7.1" font-family="Helvetica,sans-Serif" font-size="8.00">_pattern_impl</text>
</a>
</g>
</g>
<!-- Node8&#45;&gt;Node11 -->
<g id="edge11" class="edge">
<title>Node8&#45;&gt;Node11</title>
<path fill="none" stroke="midnightblue" d="M330.47,-68.99C305.89,-58.8 274.7,-45.86 249.88,-35.57"/>
<polygon fill="midnightblue" stroke="midnightblue" points="329.3,-72.29 339.88,-72.89 331.98,-65.83 329.3,-72.29"/>
</g>
<!-- Node10 -->
<g id="node10" class="node">
<title>Node10</title>
<g id="a_node10"><a xlink:href="classflow_1_1net__flow_1_1Peer__socket.html#ae3524894fd1ba60305494dda956289d9" target="_top" xlink:title="Equivalent to sync_send(data, duration::max(), err_code); i.e., sync_send() with no timeout.">
<polygon fill="white" stroke="black" points="4.5,-73 4.5,-99 101.5,-99 101.5,-73 4.5,-73"/>
<text text-anchor="start" x="12.5" y="-88.6" font-family="Helvetica,sans-Serif" font-size="8.00">flow::net_flow::Peer</text>
<text text-anchor="middle" x="53" y="-79.6" font-family="Helvetica,sans-Serif" font-size="8.00">_socket::sync_send</text>
</a>
</g>
</g>
<!-- Node9&#45;&gt;Node10 -->
<g id="edge10" class="edge">
<title>Node9&#45;&gt;Node10</title>
<path fill="none" stroke="midnightblue" d="M137.68,-86C125.54,-86 113.12,-86 101.7,-86"/>
<polygon fill="midnightblue" stroke="midnightblue" points="137.79,-89.5 147.79,-86 137.79,-82.5 137.79,-89.5"/>
</g>
<!-- Node11&#45;&gt;Node11 -->
<g id="edge13" class="edge">
<title>Node11&#45;&gt;Node11</title>
<path fill="none" stroke="midnightblue" d="M232.97,-46.1C229.25,-50.77 220.43,-54 206.5,-54 183.64,-54 174.53,-45.31 179.18,-35.78"/>
<polygon fill="midnightblue" stroke="midnightblue" points="236.49,-46.04 233.82,-35.78 229.51,-45.46 236.49,-46.04"/>
</g>
<!-- Node12 -->
<g id="node12" class="node">
<title>Node12</title>
<g id="a_node12"><a xlink:href="classflow_1_1net__flow_1_1Peer__socket.html#a619b8d960e978c241f4efac0a5bcf4dc" target="_top" xlink:title="sync_send() operating in nullptr_t mode, wherein – if Writable state is reached – the actual data are...">
<polygon fill="white" stroke="black" points="4.5,-5 4.5,-31 101.5,-31 101.5,-5 4.5,-5"/>
<text text-anchor="start" x="12.5" y="-20.6" font-family="Helvetica,sans-Serif" font-size="8.00">flow::net_flow::Peer</text>
<text text-anchor="middle" x="53" y="-11.6" font-family="Helvetica,sans-Serif" font-size="8.00">_socket::sync_send</text>
</a>
</g>
</g>
<!-- Node11&#45;&gt;Node12 -->
<g id="edge12" class="edge">
<title>Node11&#45;&gt;Node12</title>
<path fill="none" stroke="midnightblue" d="M131.55,-18C121.37,-18 111.15,-18 101.62,-18"/>
<polygon fill="midnightblue" stroke="midnightblue" points="131.69,-21.5 141.69,-18 131.69,-14.5 131.69,-21.5"/>
</g>
</g>
</svg>
