<?xml version="1.0" encoding="UTF-8" standalone="no"?>
<!DOCTYPE svg PUBLIC "-//W3C//DTD SVG 1.1//EN"
 "http://www.w3.org/Graphics/SVG/1.1/DTD/svg11.dtd">
<!-- Generated by graphviz version 2.43.0 (0)
 -->
<!-- Title: flow::net_flow::Sequence_number::set_raw_num Pages: 1 -->
<svg width="283pt" height="242pt"
 viewBox="0.00 0.00 283.00 242.00" xmlns="http://www.w3.org/2000/svg" xmlns:xlink="http://www.w3.org/1999/xlink">
<g id="graph0" class="graph" transform="scale(1 1) rotate(0) translate(4 238)">
<title>flow::net_flow::Sequence_number::set_raw_num</title>
<polygon fill="white" stroke="transparent" points="-4,4 -4,-238 279,-238 279,4 -4,4"/>
<!-- Node1 -->
<g id="node1" class="node">
<title>Node1</title>
<g id="a_node1"><a xlink:title="Sets the raw sequence number.">
<polygon fill="#bfbfbf" stroke="black" points="155,-103.5 155,-129.5 275,-129.5 275,-103.5 155,-103.5"/>
<text text-anchor="start" x="163" y="-119.1" font-family="Helvetica,sans-Serif" font-size="8.00">flow::net_flow::Sequence</text>
<text text-anchor="middle" x="215" y="-110.1" font-family="Helvetica,sans-Serif" font-size="8.00">_number::set_raw_num</text>
</a>
</g>
</g>
<!-- Node2 -->
<g id="node2" class="node">
<title>Node2</title>
<g id="a_node2"><a xlink:href="structflow_1_1net__flow_1_1Syn__packet.html#aee4a61d5e344959abc89ee83ae105c8a" target="_top" xlink:title="Implements Low_lvl_packet API.">
<polygon fill="white" stroke="black" points="0,-189.5 0,-233.5 119,-233.5 119,-189.5 0,-189.5"/>
<text text-anchor="start" x="8" y="-223.1" font-family="Helvetica,sans-Serif" font-size="8.00">flow::net_flow::Syn</text>
<text text-anchor="start" x="8" y="-214.1" font-family="Helvetica,sans-Serif" font-size="8.00">_packet::deserialize</text>
<text text-anchor="start" x="8" y="-205.1" font-family="Helvetica,sans-Serif" font-size="8.00">_type_specific_data_from</text>
<text text-anchor="middle" x="59.5" y="-196.1" font-family="Helvetica,sans-Serif" font-size="8.00">_raw_data_packet</text>
</a>
</g>
</g>
<!-- Node1&#45;&gt;Node2 -->
<g id="edge1" class="edge">
<title>Node1&#45;&gt;Node2</title>
<path fill="none" stroke="midnightblue" d="M187.46,-135.48C168.67,-148.64 142.71,-166.29 119,-180.5 113.97,-183.51 108.63,-186.56 103.29,-189.5"/>
<polygon fill="midnightblue" stroke="midnightblue" points="189.65,-138.22 195.81,-129.6 185.62,-132.5 189.65,-138.22"/>
</g>
<!-- Node3 -->
<g id="node3" class="node">
<title>Node3</title>
<g id="a_node3"><a xlink:href="structflow_1_1net__flow_1_1Syn__ack__packet.html#a1ce651745da7f488ec0bcf3d4f3467a9" target="_top" xlink:title="Implements Low_lvl_packet API.">
<polygon fill="white" stroke="black" points="0,-126.5 0,-170.5 119,-170.5 119,-126.5 0,-126.5"/>
<text text-anchor="start" x="8" y="-160.1" font-family="Helvetica,sans-Serif" font-size="8.00">flow::net_flow::Syn</text>
<text text-anchor="start" x="8" y="-151.1" font-family="Helvetica,sans-Serif" font-size="8.00">_ack_packet::deserialize</text>
<text text-anchor="start" x="8" y="-142.1" font-family="Helvetica,sans-Serif" font-size="8.00">_type_specific_data_from</text>
<text text-anchor="middle" x="59.5" y="-133.1" font-family="Helvetica,sans-Serif" font-size="8.00">_raw_data_packet</text>
</a>
</g>
</g>
<!-- Node1&#45;&gt;Node3 -->
<g id="edge2" class="edge">
<title>Node1&#45;&gt;Node3</title>
<path fill="none" stroke="midnightblue" d="M144.72,-130.94C136.19,-132.72 127.54,-134.53 119.18,-136.27"/>
<polygon fill="midnightblue" stroke="midnightblue" points="145.58,-134.34 154.65,-128.87 144.15,-127.49 145.58,-134.34"/>
</g>
<!-- Node4 -->
<g id="node4" class="node">
<title>Node4</title>
<g id="a_node4"><a xlink:href="structflow_1_1net__flow_1_1Data__packet.html#ac2a390c4cb7abfeec7c658c866dbfc06" target="_top" xlink:title="Implements Low_lvl_packet API.">
<polygon fill="white" stroke="black" points="0,-63.5 0,-107.5 119,-107.5 119,-63.5 0,-63.5"/>
<text text-anchor="start" x="8" y="-97.1" font-family="Helvetica,sans-Serif" font-size="8.00">flow::net_flow::Data</text>
<text text-anchor="start" x="8" y="-88.1" font-family="Helvetica,sans-Serif" font-size="8.00">_packet::deserialize</text>
<text text-anchor="start" x="8" y="-79.1" font-family="Helvetica,sans-Serif" font-size="8.00">_type_specific_data_from</text>
<text text-anchor="middle" x="59.5" y="-70.1" font-family="Helvetica,sans-Serif" font-size="8.00">_raw_data_packet</text>
</a>
</g>
</g>
<!-- Node1&#45;&gt;Node4 -->
<g id="edge3" class="edge">
<title>Node1&#45;&gt;Node4</title>
<path fill="none" stroke="midnightblue" d="M144.72,-102.51C136.19,-100.79 127.54,-99.04 119.18,-97.35"/>
<polygon fill="midnightblue" stroke="midnightblue" points="144.16,-105.97 154.65,-104.51 145.54,-99.1 144.16,-105.97"/>
</g>
<!-- Node5 -->
<g id="node5" class="node">
<title>Node5</title>
<g id="a_node5"><a xlink:href="structflow_1_1net__flow_1_1Ack__packet.html#a5af95ad4de8253b613d55a99d41cb430" target="_top" xlink:title="Implements Low_lvl_packet API.">
<polygon fill="white" stroke="black" points="0,-0.5 0,-44.5 119,-44.5 119,-0.5 0,-0.5"/>
<text text-anchor="start" x="8" y="-34.1" font-family="Helvetica,sans-Serif" font-size="8.00">flow::net_flow::Ack</text>
<text text-anchor="start" x="8" y="-25.1" font-family="Helvetica,sans-Serif" font-size="8.00">_packet::deserialize</text>
<text text-anchor="start" x="8" y="-16.1" font-family="Helvetica,sans-Serif" font-size="8.00">_type_specific_data_from</text>
<text text-anchor="middle" x="59.5" y="-7.1" font-family="Helvetica,sans-Serif" font-size="8.00">_raw_data_packet</text>
</a>
</g>
</g>
<!-- Node1&#45;&gt;Node5 -->
<g id="edge4" class="edge">
<title>Node1&#45;&gt;Node5</title>
<path fill="none" stroke="midnightblue" d="M186.62,-97.82C167.83,-85.2 142.2,-68.38 119,-54.5 113.54,-51.23 107.72,-47.89 101.96,-44.66"/>
<polygon fill="midnightblue" stroke="midnightblue" points="184.74,-100.78 194.99,-103.47 188.66,-94.98 184.74,-100.78"/>
</g>
</g>
</svg>
