<?xml version="1.0" encoding="UTF-8" standalone="no"?>
<!DOCTYPE svg PUBLIC "-//W3C//DTD SVG 1.1//EN"
 "http://www.w3.org/Graphics/SVG/1.1/DTD/svg11.dtd">
<!-- Generated by graphviz version 2.43.0 (0)
 -->
<!-- Title: flow::async::Concurrent_task_loop::post Pages: 1 -->
<svg width="280pt" height="35pt"
 viewBox="0.00 0.00 280.00 35.00" xmlns="http://www.w3.org/2000/svg" xmlns:xlink="http://www.w3.org/1999/xlink">
<g id="graph0" class="graph" transform="scale(1 1) rotate(0) translate(4 31)">
<title>flow::async::Concurrent_task_loop::post</title>
<polygon fill="white" stroke="transparent" points="-4,4 -4,-31 276,-31 276,4 -4,4"/>
<!-- Node1 -->
<g id="node1" class="node">
<title>Node1</title>
<g id="a_node1"><a xlink:title="Cause the given Task (function) to execute within the thread pool as soon as possible,...">
<polygon fill="#bfbfbf" stroke="black" points="158,-0.5 158,-26.5 272,-26.5 272,-0.5 158,-0.5"/>
<text text-anchor="start" x="166" y="-16.1" font-family="Helvetica,sans-Serif" font-size="8.00">flow::async::Concurrent</text>
<text text-anchor="middle" x="215" y="-7.1" font-family="Helvetica,sans-Serif" font-size="8.00">_task_loop::post</text>
</a>
</g>
</g>
<!-- Node2 -->
<g id="node2" class="node">
<title>Node2</title>
<g id="a_node2"><a xlink:href="namespaceflow_1_1async.html#af90c1e763d49c3f3033a74871e897394" target="_top" xlink:title="Given a boost.asio completion handler handler for a boost.asio async_*() action on some boost....">
<polygon fill="white" stroke="black" points="0,-0.5 0,-26.5 122,-26.5 122,-0.5 0,-0.5"/>
<text text-anchor="start" x="8" y="-16.1" font-family="Helvetica,sans-Serif" font-size="8.00">flow::async::asio_handler</text>
<text text-anchor="middle" x="61" y="-7.1" font-family="Helvetica,sans-Serif" font-size="8.00">_via_op</text>
</a>
</g>
</g>
<!-- Node1&#45;&gt;Node2 -->
<g id="edge1" class="edge">
<title>Node1&#45;&gt;Node2</title>
<path fill="none" stroke="midnightblue" d="M147.57,-13.5C139.07,-13.5 130.41,-13.5 122.02,-13.5"/>
<polygon fill="midnightblue" stroke="midnightblue" points="147.83,-17 157.83,-13.5 147.83,-10 147.83,-17"/>
</g>
</g>
</svg>
