<?xml version="1.0" encoding="UTF-8" standalone="no"?>
<!DOCTYPE svg PUBLIC "-//W3C//DTD SVG 1.1//EN"
 "http://www.w3.org/Graphics/SVG/1.1/DTD/svg11.dtd">
<!-- Generated by graphviz version 2.43.0 (0)
 -->
<!-- Title: flow::async::Cross_thread_task_loop::start Pages: 1 -->
<svg width="679pt" height="218pt"
 viewBox="0.00 0.00 679.00 217.51" xmlns="http://www.w3.org/2000/svg" xmlns:xlink="http://www.w3.org/1999/xlink">
<g id="graph0" class="graph" transform="scale(1 1) rotate(0) translate(4 213.51)">
<title>flow::async::Cross_thread_task_loop::start</title>
<polygon fill="white" stroke="transparent" points="-4,4 -4,-213.51 675,-213.51 675,4 -4,4"/>
<!-- Node1 -->
<g id="node1" class="node">
<title>Node1</title>
<g id="a_node1"><a xlink:title="Implements superclass API.">
<polygon fill="#bfbfbf" stroke="black" points="0,-109.5 0,-135.5 115,-135.5 115,-109.5 0,-109.5"/>
<text text-anchor="start" x="8" y="-125.1" font-family="Helvetica,sans-Serif" font-size="8.00">flow::async::Cross</text>
<text text-anchor="middle" x="57.5" y="-116.1" font-family="Helvetica,sans-Serif" font-size="8.00">_thread_task_loop::start</text>
</a>
</g>
</g>
<!-- Node2 -->
<g id="node2" class="node">
<title>Node2</title>
<g id="a_node2"><a xlink:href="classflow_1_1log_1_1Log__context.html#af4db395042b065b00398cd59845dcb4d" target="_top" xlink:title="Returns the stored Logger pointer, particularly as many FLOW_LOG_*() macros expect.">
<polygon fill="white" stroke="black" points="302,-163.5 302,-189.5 409,-189.5 409,-163.5 302,-163.5"/>
<text text-anchor="start" x="310" y="-179.1" font-family="Helvetica,sans-Serif" font-size="8.00">flow::log::Log_context</text>
<text text-anchor="middle" x="355.5" y="-170.1" font-family="Helvetica,sans-Serif" font-size="8.00">::get_logger</text>
</a>
</g>
</g>
<!-- Node1&#45;&gt;Node2 -->
<g id="edge1" class="edge">
<title>Node1&#45;&gt;Node2</title>
<path fill="none" stroke="midnightblue" d="M69.03,-135.75C84.62,-154.2 115.83,-186.78 151,-199.5 203.62,-218.54 268.45,-205.47 310.6,-192.58"/>
<polygon fill="midnightblue" stroke="midnightblue" points="311.81,-195.87 320.28,-189.5 309.69,-189.2 311.81,-195.87"/>
</g>
<!-- Node3 -->
<g id="node3" class="node">
<title>Node3</title>
<g id="a_node3"><a xlink:href="classflow_1_1async_1_1Cross__thread__task__loop.html#a5c9a3da291fa961bb4d8c4be13c39bb8" target="_top" xlink:title="Implements superclass API.">
<polygon fill="white" stroke="black" points="158,-155 158,-190 259,-190 259,-155 158,-155"/>
<text text-anchor="start" x="166" y="-179.6" font-family="Helvetica,sans-Serif" font-size="8.00">flow::async::Cross</text>
<text text-anchor="start" x="166" y="-170.6" font-family="Helvetica,sans-Serif" font-size="8.00">_thread_task_loop::n</text>
<text text-anchor="middle" x="208.5" y="-161.6" font-family="Helvetica,sans-Serif" font-size="8.00">_threads</text>
</a>
</g>
</g>
<!-- Node1&#45;&gt;Node3 -->
<g id="edge2" class="edge">
<title>Node1&#45;&gt;Node3</title>
<path fill="none" stroke="midnightblue" d="M97.26,-135.51C112.76,-140.71 130.96,-146.81 148.05,-152.55"/>
<polygon fill="midnightblue" stroke="midnightblue" points="147.37,-156.01 157.97,-155.88 149.6,-149.38 147.37,-156.01"/>
</g>
<!-- Node4 -->
<g id="node4" class="node">
<title>Node4</title>
<g id="a_node4"><a xlink:href="namespaceflow_1_1async.html#a02afaeea759dfc180890e376db79530e" target="_top" xlink:title="Assuming the same situation as documented for optimal_worker_thread_count_per_pool(),...">
<polygon fill="white" stroke="black" points="151,-64.5 151,-90.5 266,-90.5 266,-64.5 151,-64.5"/>
<text text-anchor="start" x="159" y="-80.1" font-family="Helvetica,sans-Serif" font-size="8.00">flow::async::optimize</text>
<text text-anchor="middle" x="208.5" y="-71.1" font-family="Helvetica,sans-Serif" font-size="8.00">_pinning_in_thread_pool</text>
</a>
</g>
</g>
<!-- Node1&#45;&gt;Node4 -->
<g id="edge3" class="edge">
<title>Node1&#45;&gt;Node4</title>
<path fill="none" stroke="midnightblue" d="M101.6,-109.48C118.05,-104.52 137,-98.79 154.29,-93.57"/>
<polygon fill="midnightblue" stroke="midnightblue" points="155.68,-96.81 164.24,-90.56 153.66,-90.11 155.68,-96.81"/>
</g>
<!-- Node6 -->
<g id="node6" class="node">
<title>Node6</title>
<g id="a_node6"><a xlink:href="namespaceflow_1_1util.html#a685b86585da2fa5186f51854e7ae1561" target="_top" xlink:title="Equivalent to ostream_op_to_string() but returns a new string by value instead of writing to the call...">
<polygon fill="white" stroke="black" points="309.5,-22.5 309.5,-48.5 401.5,-48.5 401.5,-22.5 309.5,-22.5"/>
<text text-anchor="start" x="317.5" y="-38.1" font-family="Helvetica,sans-Serif" font-size="8.00">flow::util::ostream</text>
<text text-anchor="middle" x="355.5" y="-29.1" font-family="Helvetica,sans-Serif" font-size="8.00">_op_string</text>
</a>
</g>
</g>
<!-- Node1&#45;&gt;Node6 -->
<g id="edge10" class="edge">
<title>Node1&#45;&gt;Node6</title>
<path fill="none" stroke="midnightblue" d="M71.49,-109.28C88.22,-93.2 118.96,-66.69 151,-54.5 198.8,-36.32 257.27,-32.59 299.25,-32.8"/>
<polygon fill="midnightblue" stroke="midnightblue" points="299.24,-36.3 309.29,-32.92 299.33,-29.3 299.24,-36.3"/>
</g>
<!-- Node10 -->
<g id="node10" class="node">
<title>Node10</title>
<g id="a_node10"><a xlink:href="classflow_1_1async_1_1Cross__thread__task__loop.html#ab785edcaa745fb859aaef4743478ea07" target="_top" xlink:title="Implements superclass API.">
<polygon fill="white" stroke="black" points="151.5,-109.5 151.5,-135.5 265.5,-135.5 265.5,-109.5 151.5,-109.5"/>
<text text-anchor="start" x="159.5" y="-125.1" font-family="Helvetica,sans-Serif" font-size="8.00">flow::async::Cross</text>
<text text-anchor="middle" x="208.5" y="-116.1" font-family="Helvetica,sans-Serif" font-size="8.00">_thread_task_loop::post</text>
</a>
</g>
</g>
<!-- Node1&#45;&gt;Node10 -->
<g id="edge11" class="edge">
<title>Node1&#45;&gt;Node10</title>
<path fill="none" stroke="midnightblue" d="M115.26,-122.5C123.77,-122.5 132.61,-122.5 141.3,-122.5"/>
<polygon fill="midnightblue" stroke="midnightblue" points="141.4,-126 151.4,-122.5 141.4,-119 141.4,-126"/>
</g>
<!-- Node5 -->
<g id="node5" class="node">
<title>Node5</title>
<g id="a_node5"><a xlink:href="namespaceflow_1_1async.html#ac2f32e9fc685e2e9013900b100321fff" target="_top" xlink:title="Assuming a planned thread pool will be receiving ~symmetrical load, and its UX&#45;affecting (in particul...">
<polygon fill="white" stroke="black" points="302.5,-68 302.5,-103 408.5,-103 408.5,-68 302.5,-68"/>
<text text-anchor="start" x="310.5" y="-92.6" font-family="Helvetica,sans-Serif" font-size="8.00">flow::async::optimal</text>
<text text-anchor="start" x="310.5" y="-83.6" font-family="Helvetica,sans-Serif" font-size="8.00">_worker_thread_count</text>
<text text-anchor="middle" x="355.5" y="-74.6" font-family="Helvetica,sans-Serif" font-size="8.00">_per_pool</text>
</a>
</g>
</g>
<!-- Node4&#45;&gt;Node5 -->
<g id="edge4" class="edge">
<title>Node4&#45;&gt;Node5</title>
<path fill="none" stroke="midnightblue" d="M266.39,-80.64C274.95,-81.11 283.8,-81.6 292.46,-82.08"/>
<polygon fill="midnightblue" stroke="midnightblue" points="292.32,-85.57 302.5,-82.63 292.7,-78.59 292.32,-85.57"/>
</g>
<!-- Node4&#45;&gt;Node6 -->
<g id="edge5" class="edge">
<title>Node4&#45;&gt;Node6</title>
<path fill="none" stroke="midnightblue" d="M254.58,-64.44C268.91,-60.29 284.9,-55.66 299.82,-51.34"/>
<polygon fill="midnightblue" stroke="midnightblue" points="300.81,-54.69 309.44,-48.55 298.86,-47.97 300.81,-54.69"/>
</g>
<!-- Node7 -->
<g id="node7" class="node">
<title>Node7</title>
<g id="a_node7"><a xlink:href="namespaceflow_1_1util.html#a8afd30c50bcd670d45442df49d1da484" target="_top" xlink:title="Writes to the specified string, as if the given arguments were each passed, via &lt;&lt; in sequence,...">
<polygon fill="white" stroke="black" points="445,-22.5 445,-48.5 537,-48.5 537,-22.5 445,-22.5"/>
<text text-anchor="start" x="453" y="-38.1" font-family="Helvetica,sans-Serif" font-size="8.00">flow::util::ostream</text>
<text text-anchor="middle" x="491" y="-29.1" font-family="Helvetica,sans-Serif" font-size="8.00">_op_to_string</text>
</a>
</g>
</g>
<!-- Node6&#45;&gt;Node7 -->
<g id="edge6" class="edge">
<title>Node6&#45;&gt;Node7</title>
<path fill="none" stroke="midnightblue" d="M401.7,-35.5C412.24,-35.5 423.6,-35.5 434.53,-35.5"/>
<polygon fill="midnightblue" stroke="midnightblue" points="434.85,-39 444.85,-35.5 434.85,-32 434.85,-39"/>
</g>
<!-- Node8 -->
<g id="node8" class="node">
<title>Node8</title>
<g id="a_node8"><a xlink:href="namespaceflow_1_1util.html#af92e6183c2071f4166d4b5a91f50d70c" target="_top" xlink:title="&quot;Induction step&quot; version of variadic function template that simply outputs arguments 2+ via &lt;&lt; to the...">
<polygon fill="white" stroke="black" points="573,-45.5 573,-71.5 671,-71.5 671,-45.5 573,-45.5"/>
<text text-anchor="start" x="581" y="-61.1" font-family="Helvetica,sans-Serif" font-size="8.00">flow::util::feed_args</text>
<text text-anchor="middle" x="622" y="-52.1" font-family="Helvetica,sans-Serif" font-size="8.00">_to_ostream</text>
</a>
</g>
</g>
<!-- Node7&#45;&gt;Node8 -->
<g id="edge7" class="edge">
<title>Node7&#45;&gt;Node8</title>
<path fill="none" stroke="midnightblue" d="M537.12,-43.54C545.37,-45.02 554.09,-46.57 562.66,-48.1"/>
<polygon fill="midnightblue" stroke="midnightblue" points="562.16,-51.56 572.62,-49.87 563.38,-44.67 562.16,-51.56"/>
</g>
<!-- Node9 -->
<g id="node9" class="node">
<title>Node9</title>
<g id="a_node9"><a xlink:href="classflow_1_1util_1_1String__ostream.html#a7e64b069ae0e221952068c13fdc0f080" target="_top" xlink:title="Access to stream that will write to owned string.">
<polygon fill="white" stroke="black" points="581,-0.5 581,-26.5 663,-26.5 663,-0.5 581,-0.5"/>
<text text-anchor="start" x="589" y="-16.1" font-family="Helvetica,sans-Serif" font-size="8.00">flow::util::String</text>
<text text-anchor="middle" x="622" y="-7.1" font-family="Helvetica,sans-Serif" font-size="8.00">_ostream::os</text>
</a>
</g>
</g>
<!-- Node7&#45;&gt;Node9 -->
<g id="edge9" class="edge">
<title>Node7&#45;&gt;Node9</title>
<path fill="none" stroke="midnightblue" d="M537.12,-27.81C548.02,-25.95 559.74,-23.95 570.86,-22.05"/>
<polygon fill="midnightblue" stroke="midnightblue" points="571.59,-25.48 580.86,-20.35 570.41,-18.58 571.59,-25.48"/>
</g>
<!-- Node8&#45;&gt;Node8 -->
<g id="edge8" class="edge">
<title>Node8&#45;&gt;Node8</title>
<path fill="none" stroke="midnightblue" d="M600.01,-71.77C593.34,-80.96 600.67,-90 622,-90 635,-90 642.8,-86.64 645.4,-81.94"/>
<polygon fill="midnightblue" stroke="midnightblue" points="648.83,-81.2 643.99,-71.77 641.89,-82.16 648.83,-81.2"/>
</g>
<!-- Node10&#45;&gt;Node2 -->
<g id="edge12" class="edge">
<title>Node10&#45;&gt;Node2</title>
<path fill="none" stroke="midnightblue" d="M244.6,-135.57C264.21,-142.87 288.84,-152.05 309.82,-159.86"/>
<polygon fill="midnightblue" stroke="midnightblue" points="308.88,-163.24 319.47,-163.46 311.32,-156.69 308.88,-163.24"/>
</g>
</g>
</svg>
