<?xml version="1.0" encoding="UTF-8" standalone="no"?>
<!DOCTYPE svg PUBLIC "-//W3C//DTD SVG 1.1//EN"
 "http://www.w3.org/Graphics/SVG/1.1/DTD/svg11.dtd">
<!-- Generated by graphviz version 2.43.0 (0)
 -->
<!-- Title: flow::log::Serial_file_logger::Serial_file_logger Pages: 1 -->
<svg width="275pt" height="44pt"
 viewBox="0.00 0.00 275.00 44.00" xmlns="http://www.w3.org/2000/svg" xmlns:xlink="http://www.w3.org/1999/xlink">
<g id="graph0" class="graph" transform="scale(1 1) rotate(0) translate(4 40)">
<title>flow::log::Serial_file_logger::Serial_file_logger</title>
<polygon fill="white" stroke="transparent" points="-4,4 -4,-40 271,-40 271,4 -4,4"/>
<!-- Node1 -->
<g id="node1" class="node">
<title>Node1</title>
<g id="a_node1"><a xlink:title="Constructs logger to subsequently log to the given file&#45;system path.">
<polygon fill="#bfbfbf" stroke="black" points="0,-5 0,-31 122,-31 122,-5 0,-5"/>
<text text-anchor="start" x="8" y="-20.6" font-family="Helvetica,sans-Serif" font-size="8.00">flow::log::Serial_file</text>
<text text-anchor="middle" x="61" y="-11.6" font-family="Helvetica,sans-Serif" font-size="8.00">_logger::Serial_file_logger</text>
</a>
</g>
</g>
<!-- Node2 -->
<g id="node2" class="node">
<title>Node2</title>
<g id="a_node2"><a xlink:href="classflow_1_1log_1_1Serial__file__logger.html#a7d38efd094d69b5ef38fc44ba153c9ed" target="_top" xlink:title="Causes the log at the file&#45;system path to be flushed/closed (if needed) and re&#45;opened; this will occu...">
<polygon fill="white" stroke="black" points="158,-0.5 158,-35.5 267,-35.5 267,-0.5 158,-0.5"/>
<text text-anchor="start" x="166" y="-25.1" font-family="Helvetica,sans-Serif" font-size="8.00">flow::log::Serial_file</text>
<text text-anchor="start" x="166" y="-16.1" font-family="Helvetica,sans-Serif" font-size="8.00">_logger::log_flush_and</text>
<text text-anchor="middle" x="212.5" y="-7.1" font-family="Helvetica,sans-Serif" font-size="8.00">_reopen</text>
</a>
</g>
</g>
<!-- Node1&#45;&gt;Node2 -->
<g id="edge1" class="edge">
<title>Node1&#45;&gt;Node2</title>
<path fill="none" stroke="midnightblue" d="M122.38,-18C130.67,-18 139.21,-18 147.57,-18"/>
<polygon fill="midnightblue" stroke="midnightblue" points="147.65,-21.5 157.65,-18 147.65,-14.5 147.65,-21.5"/>
</g>
</g>
</svg>
