<?xml version="1.0" encoding="UTF-8" standalone="no"?>
<!DOCTYPE svg PUBLIC "-//W3C//DTD SVG 1.1//EN"
 "http://www.w3.org/Graphics/SVG/1.1/DTD/svg11.dtd">
<!-- Generated by graphviz version 2.43.0 (0)
 -->
<!-- Title: flow::net_flow::asio::Peer_socket::async_receive Pages: 1 -->
<svg width="601pt" height="161pt"
 viewBox="0.00 0.00 601.00 160.50" xmlns="http://www.w3.org/2000/svg" xmlns:xlink="http://www.w3.org/1999/xlink">
<g id="graph0" class="graph" transform="scale(1 1) rotate(0) translate(4 156.5)">
<title>flow::net_flow::asio::Peer_socket::async_receive</title>
<polygon fill="white" stroke="transparent" points="-4,4 -4,-156.5 597,-156.5 597,4 -4,4"/>
<!-- Node1 -->
<g id="node1" class="node">
<title>Node1</title>
<g id="a_node1"><a xlink:title="Equivalent to async_receive(nullptr, duration::max(), on_result); i.e., async_receive(nullptr) with n...">
<polygon fill="#bfbfbf" stroke="black" points="0,-25.5 0,-60.5 101,-60.5 101,-25.5 0,-25.5"/>
<text text-anchor="start" x="8" y="-50.1" font-family="Helvetica,sans-Serif" font-size="8.00">flow::net_flow::asio</text>
<text text-anchor="start" x="8" y="-41.1" font-family="Helvetica,sans-Serif" font-size="8.00">::Peer_socket::async</text>
<text text-anchor="middle" x="50.5" y="-32.1" font-family="Helvetica,sans-Serif" font-size="8.00">_receive</text>
</a>
</g>
</g>
<!-- Node2 -->
<g id="node2" class="node">
<title>Node2</title>
<g id="a_node2"><a xlink:href="classflow_1_1net__flow_1_1asio_1_1Peer__socket.html#a85e456ae997bae047e022d234bec9531" target="_top" xlink:title="De&#45;templated implementation of all async_receive() methods.">
<polygon fill="white" stroke="black" points="152,-60.5 152,-95.5 253,-95.5 253,-60.5 152,-60.5"/>
<text text-anchor="start" x="160" y="-85.1" font-family="Helvetica,sans-Serif" font-size="8.00">flow::net_flow::asio</text>
<text text-anchor="start" x="160" y="-76.1" font-family="Helvetica,sans-Serif" font-size="8.00">::Peer_socket::async</text>
<text text-anchor="middle" x="202.5" y="-67.1" font-family="Helvetica,sans-Serif" font-size="8.00">_receive_impl</text>
</a>
</g>
</g>
<!-- Node1&#45;&gt;Node2 -->
<g id="edge1" class="edge">
<title>Node1&#45;&gt;Node2</title>
<path fill="none" stroke="midnightblue" d="M101.03,-54.56C114.15,-57.62 128.44,-60.95 142.03,-64.12"/>
<polygon fill="midnightblue" stroke="midnightblue" points="141.23,-67.53 151.76,-66.4 142.82,-60.71 141.23,-67.53"/>
</g>
<!-- Node9 -->
<g id="node9" class="node">
<title>Node9</title>
<g id="a_node9"><a xlink:href="classflow_1_1net__flow_1_1asio_1_1Peer__socket.html#aa727c33c3eeeb217d50fcd451096ded8" target="_top" xlink:title="Returns a functor that essentially performs post() on_result onto *async_task_engine() in a way suita...">
<polygon fill="white" stroke="black" points="137,-5 137,-31 268,-31 268,-5 137,-5"/>
<text text-anchor="start" x="145" y="-20.6" font-family="Helvetica,sans-Serif" font-size="8.00">flow::net_flow::asio</text>
<text text-anchor="middle" x="202.5" y="-11.6" font-family="Helvetica,sans-Serif" font-size="8.00">::Peer_socket::handler_func</text>
</a>
</g>
</g>
<!-- Node1&#45;&gt;Node9 -->
<g id="edge8" class="edge">
<title>Node1&#45;&gt;Node9</title>
<path fill="none" stroke="midnightblue" d="M101.03,-34.74C109.34,-33.36 118.12,-31.9 126.89,-30.43"/>
<polygon fill="midnightblue" stroke="midnightblue" points="127.48,-33.88 136.77,-28.79 126.33,-26.98 127.48,-33.88"/>
</g>
<!-- Node3 -->
<g id="node3" class="node">
<title>Node3</title>
<g id="a_node3"><a xlink:href="classflow_1_1net__flow_1_1asio_1_1Peer__socket.html#a0744682e2dc9118b4da3f00bc5267bec" target="_top" xlink:title="Convenience method that polymorphically casts from net_flow::Peer_socket::Ptr to subclass pointer net...">
<polygon fill="white" stroke="black" points="319,-126 319,-152 415,-152 415,-126 319,-126"/>
<text text-anchor="start" x="327" y="-141.6" font-family="Helvetica,sans-Serif" font-size="8.00">flow::net_flow::asio</text>
<text text-anchor="middle" x="367" y="-132.6" font-family="Helvetica,sans-Serif" font-size="8.00">::Peer_socket::cast</text>
</a>
</g>
</g>
<!-- Node2&#45;&gt;Node3 -->
<g id="edge2" class="edge">
<title>Node2&#45;&gt;Node3</title>
<path fill="none" stroke="midnightblue" d="M249.76,-95.56C266.8,-102.01 286.27,-109.36 304,-116 309.51,-118.06 315.3,-120.22 321.03,-122.36"/>
<polygon fill="midnightblue" stroke="midnightblue" points="319.98,-125.7 330.58,-125.9 322.42,-119.14 319.98,-125.7"/>
</g>
<!-- Node4 -->
<g id="node4" class="node">
<title>Node4</title>
<g id="a_node4"><a xlink:href="classflow_1_1net__flow_1_1asio_1_1Peer__socket.html#aa9e96966c7a8f5d35a34c0f5b3f65eb6" target="_top" xlink:title="Helper that returns the net_flow::asio::Node that generated *this; unless *this is closed; in which c...">
<polygon fill="white" stroke="black" points="312,-71.5 312,-106.5 422,-106.5 422,-71.5 312,-71.5"/>
<text text-anchor="start" x="320" y="-96.1" font-family="Helvetica,sans-Serif" font-size="8.00">flow::net_flow::asio</text>
<text text-anchor="start" x="320" y="-87.1" font-family="Helvetica,sans-Serif" font-size="8.00">::Peer_socket::node_or</text>
<text text-anchor="middle" x="367" y="-78.1" font-family="Helvetica,sans-Serif" font-size="8.00">_post_error</text>
</a>
</g>
</g>
<!-- Node2&#45;&gt;Node4 -->
<g id="edge3" class="edge">
<title>Node2&#45;&gt;Node4</title>
<path fill="none" stroke="midnightblue" d="M253.14,-81.36C268.37,-82.39 285.37,-83.54 301.45,-84.63"/>
<polygon fill="midnightblue" stroke="midnightblue" points="301.64,-88.15 311.86,-85.34 302.12,-81.17 301.64,-88.15"/>
</g>
<!-- Node8 -->
<g id="node8" class="node">
<title>Node8</title>
<g id="a_node8"><a xlink:href="classflow_1_1net__flow_1_1asio_1_1Peer__socket.html#abac02ab0468161ea5ce431a2f53c4703" target="_top" xlink:title="Constructs object.">
<polygon fill="white" stroke="black" points="304,-26 304,-52 430,-52 430,-26 304,-26"/>
<text text-anchor="start" x="312" y="-41.6" font-family="Helvetica,sans-Serif" font-size="8.00">flow::net_flow::asio</text>
<text text-anchor="middle" x="367" y="-32.6" font-family="Helvetica,sans-Serif" font-size="8.00">::Peer_socket::Peer_socket</text>
</a>
</g>
</g>
<!-- Node2&#45;&gt;Node8 -->
<g id="edge7" class="edge">
<title>Node2&#45;&gt;Node8</title>
<path fill="none" stroke="midnightblue" d="M253.14,-66.09C268.44,-62.41 285.52,-58.32 301.66,-54.44"/>
<polygon fill="midnightblue" stroke="midnightblue" points="302.67,-57.8 311.57,-52.06 301.03,-50.99 302.67,-57.8"/>
</g>
<!-- Node5 -->
<g id="node5" class="node">
<title>Node5</title>
<g id="a_node5"><a xlink:href="classflow_1_1net__flow_1_1asio_1_1Peer__socket.html#a1c63aaece6a9b056688a35405f064c70" target="_top" xlink:title="Pointer (possibly null) for the flow::util::Task_engine used by any coming async_*() I/O calls.">
<polygon fill="white" stroke="black" points="479,-0.5 479,-35.5 580,-35.5 580,-0.5 479,-0.5"/>
<text text-anchor="start" x="487" y="-25.1" font-family="Helvetica,sans-Serif" font-size="8.00">flow::net_flow::asio</text>
<text text-anchor="start" x="487" y="-16.1" font-family="Helvetica,sans-Serif" font-size="8.00">::Peer_socket::async</text>
<text text-anchor="middle" x="529.5" y="-7.1" font-family="Helvetica,sans-Serif" font-size="8.00">_task_engine</text>
</a>
</g>
</g>
<!-- Node4&#45;&gt;Node5 -->
<g id="edge4" class="edge">
<title>Node4&#45;&gt;Node5</title>
<path fill="none" stroke="midnightblue" d="M408.38,-71.48C415.58,-68.34 423.02,-65.08 430,-62 446.33,-54.8 464.15,-46.86 480.09,-39.73"/>
<polygon fill="midnightblue" stroke="midnightblue" points="481.54,-42.92 489.23,-35.64 478.68,-36.53 481.54,-42.92"/>
</g>
<!-- Node6 -->
<g id="node6" class="node">
<title>Node6</title>
<g id="a_node6"><a xlink:href="classflow_1_1net__flow_1_1Peer__socket.html#a74f6fd527766fdeb05a96c5c03729a00" target="_top" xlink:title="The error code that perviously caused state() to become State::S_CLOSED, or success code if state is ...">
<polygon fill="white" stroke="black" points="466,-110 466,-136 593,-136 593,-110 466,-110"/>
<text text-anchor="start" x="474" y="-125.6" font-family="Helvetica,sans-Serif" font-size="8.00">flow::net_flow::Peer</text>
<text text-anchor="middle" x="529.5" y="-116.6" font-family="Helvetica,sans-Serif" font-size="8.00">_socket::disconnect_cause</text>
</a>
</g>
</g>
<!-- Node4&#45;&gt;Node6 -->
<g id="edge5" class="edge">
<title>Node4&#45;&gt;Node6</title>
<path fill="none" stroke="midnightblue" d="M422.34,-100.51C433.45,-102.87 445.31,-105.38 456.92,-107.84"/>
<polygon fill="midnightblue" stroke="midnightblue" points="456.53,-111.33 467.03,-109.98 457.98,-104.48 456.53,-111.33"/>
</g>
<!-- Node7 -->
<g id="node7" class="node">
<title>Node7</title>
<g id="a_node7"><a xlink:href="classflow_1_1net__flow_1_1Peer__socket.html#aa9e7e1be830c901bc7348742e79ba2e7" target="_top" xlink:title="Node that produced this Peer_socket.">
<polygon fill="white" stroke="black" points="481,-65 481,-91 578,-91 578,-65 481,-65"/>
<text text-anchor="start" x="489" y="-80.6" font-family="Helvetica,sans-Serif" font-size="8.00">flow::net_flow::Peer</text>
<text text-anchor="middle" x="529.5" y="-71.6" font-family="Helvetica,sans-Serif" font-size="8.00">_socket::node</text>
</a>
</g>
</g>
<!-- Node4&#45;&gt;Node7 -->
<g id="edge6" class="edge">
<title>Node4&#45;&gt;Node7</title>
<path fill="none" stroke="midnightblue" d="M422.34,-85.28C437.93,-84.21 454.98,-83.04 470.77,-81.96"/>
<polygon fill="midnightblue" stroke="midnightblue" points="471.2,-85.44 480.94,-81.26 470.72,-78.45 471.2,-85.44"/>
</g>
<!-- Node9&#45;&gt;Node5 -->
<g id="edge9" class="edge">
<title>Node9&#45;&gt;Node5</title>
<path fill="none" stroke="midnightblue" d="M268.1,-16.52C280.04,-16.31 292.4,-16.12 304,-16 360,-15.44 374,-15.43 430,-16 442.55,-16.13 456,-16.35 468.8,-16.59"/>
<polygon fill="midnightblue" stroke="midnightblue" points="468.83,-20.09 478.9,-16.8 468.97,-13.1 468.83,-20.09"/>
</g>
</g>
</svg>
