<?xml version="1.0" encoding="UTF-8" standalone="no"?>
<!DOCTYPE svg PUBLIC "-//W3C//DTD SVG 1.1//EN"
 "http://www.w3.org/Graphics/SVG/1.1/DTD/svg11.dtd">
<!-- Generated by graphviz version 2.43.0 (0)
 -->
<!-- Title: flow::net_flow::asio::Server_socket::async_accept_impl Pages: 1 -->
<svg width="281pt" height="225pt"
 viewBox="0.00 0.00 281.00 224.50" xmlns="http://www.w3.org/2000/svg" xmlns:xlink="http://www.w3.org/1999/xlink">
<g id="graph0" class="graph" transform="scale(1 1) rotate(0) translate(4 220.5)">
<title>flow::net_flow::asio::Server_socket::async_accept_impl</title>
<polygon fill="white" stroke="transparent" points="-4,4 -4,-220.5 277,-220.5 277,4 -4,4"/>
<!-- Node1 -->
<g id="node1" class="node">
<title>Node1</title>
<g id="a_node1"><a xlink:title="De&#45;templated implementation of all async_accept() methods.">
<polygon fill="#bfbfbf" stroke="black" points="0,-95.5 0,-130.5 110,-130.5 110,-95.5 0,-95.5"/>
<text text-anchor="start" x="8" y="-120.1" font-family="Helvetica,sans-Serif" font-size="8.00">flow::net_flow::asio</text>
<text text-anchor="start" x="8" y="-111.1" font-family="Helvetica,sans-Serif" font-size="8.00">::Server_socket::async</text>
<text text-anchor="middle" x="55" y="-102.1" font-family="Helvetica,sans-Serif" font-size="8.00">_accept_impl</text>
</a>
</g>
</g>
<!-- Node2 -->
<g id="node2" class="node">
<title>Node2</title>
<g id="a_node2"><a xlink:href="classflow_1_1net__flow_1_1asio_1_1Peer__socket.html#a0744682e2dc9118b4da3f00bc5267bec" target="_top" xlink:title="Convenience method that polymorphically casts from net_flow::Peer_socket::Ptr to subclass pointer net...">
<polygon fill="white" stroke="black" points="161.5,-190 161.5,-216 257.5,-216 257.5,-190 161.5,-190"/>
<text text-anchor="start" x="169.5" y="-205.6" font-family="Helvetica,sans-Serif" font-size="8.00">flow::net_flow::asio</text>
<text text-anchor="middle" x="209.5" y="-196.6" font-family="Helvetica,sans-Serif" font-size="8.00">::Peer_socket::cast</text>
</a>
</g>
</g>
<!-- Node1&#45;&gt;Node2 -->
<g id="edge1" class="edge">
<title>Node1&#45;&gt;Node2</title>
<path fill="none" stroke="midnightblue" d="M75.51,-130.58C92.96,-145.59 119.77,-166.92 146,-181 149.28,-182.76 152.74,-184.43 156.27,-186"/>
<polygon fill="midnightblue" stroke="midnightblue" points="155.14,-189.32 165.72,-189.93 157.82,-182.86 155.14,-189.32"/>
</g>
<!-- Node3 -->
<g id="node3" class="node">
<title>Node3</title>
<g id="a_node3"><a xlink:href="classflow_1_1net__flow_1_1asio_1_1Server__socket.html#a5f28c0b6770b68994aa95ae5df50afc2" target="_top" xlink:title="Convenience method that polymorphically casts from net_flow::Server_socket::Ptr to subclass pointer n...">
<polygon fill="white" stroke="black" points="158,-145 158,-171 261,-171 261,-145 158,-145"/>
<text text-anchor="start" x="166" y="-160.6" font-family="Helvetica,sans-Serif" font-size="8.00">flow::net_flow::asio</text>
<text text-anchor="middle" x="209.5" y="-151.6" font-family="Helvetica,sans-Serif" font-size="8.00">::Server_socket::cast</text>
</a>
</g>
</g>
<!-- Node1&#45;&gt;Node3 -->
<g id="edge2" class="edge">
<title>Node1&#45;&gt;Node3</title>
<path fill="none" stroke="midnightblue" d="M110.2,-128.99C124.52,-133.22 139.99,-137.78 154.32,-142.01"/>
<polygon fill="midnightblue" stroke="midnightblue" points="153.45,-145.4 164.03,-144.88 155.43,-138.69 153.45,-145.4"/>
</g>
<!-- Node4 -->
<g id="node4" class="node">
<title>Node4</title>
<g id="a_node4"><a xlink:href="classflow_1_1net__flow_1_1Server__socket.html#a6ba400221e347613c0d101b19602a3a2" target="_top" xlink:title="The error code that perviously caused state() to become State::S_CLOSED, or success code if state is ...">
<polygon fill="white" stroke="black" points="146,-100 146,-126 273,-126 273,-100 146,-100"/>
<text text-anchor="start" x="154" y="-115.6" font-family="Helvetica,sans-Serif" font-size="8.00">flow::net_flow::Server</text>
<text text-anchor="middle" x="209.5" y="-106.6" font-family="Helvetica,sans-Serif" font-size="8.00">_socket::disconnect_cause</text>
</a>
</g>
</g>
<!-- Node1&#45;&gt;Node4 -->
<g id="edge3" class="edge">
<title>Node1&#45;&gt;Node4</title>
<path fill="none" stroke="midnightblue" d="M110.2,-113C118.5,-113 127.19,-113 135.82,-113"/>
<polygon fill="midnightblue" stroke="midnightblue" points="135.89,-116.5 145.89,-113 135.89,-109.5 135.89,-116.5"/>
</g>
<!-- Node5 -->
<g id="node5" class="node">
<title>Node5</title>
<g id="a_node5"><a xlink:href="classflow_1_1net__flow_1_1Server__socket.html#ae22e94978d59dfe23559a254349670bd" target="_top" xlink:title="Node that produced this Server_socket.">
<polygon fill="white" stroke="black" points="157,-55 157,-81 262,-81 262,-55 157,-55"/>
<text text-anchor="start" x="165" y="-70.6" font-family="Helvetica,sans-Serif" font-size="8.00">flow::net_flow::Server</text>
<text text-anchor="middle" x="209.5" y="-61.6" font-family="Helvetica,sans-Serif" font-size="8.00">_socket::node</text>
</a>
</g>
</g>
<!-- Node1&#45;&gt;Node5 -->
<g id="edge4" class="edge">
<title>Node1&#45;&gt;Node5</title>
<path fill="none" stroke="midnightblue" d="M110.2,-97.01C124.52,-92.78 139.99,-88.22 154.32,-83.99"/>
<polygon fill="midnightblue" stroke="midnightblue" points="155.43,-87.31 164.03,-81.12 153.45,-80.6 155.43,-87.31"/>
</g>
<!-- Node6 -->
<g id="node6" class="node">
<title>Node6</title>
<g id="a_node6"><a xlink:href="classflow_1_1net__flow_1_1asio_1_1Server__socket.html#a201bb6012ddffe83f9a1a3daf5e78645" target="_top" xlink:title="Constructs object.">
<polygon fill="white" stroke="black" points="153.5,-0.5 153.5,-35.5 265.5,-35.5 265.5,-0.5 153.5,-0.5"/>
<text text-anchor="start" x="161.5" y="-25.1" font-family="Helvetica,sans-Serif" font-size="8.00">flow::net_flow::asio</text>
<text text-anchor="start" x="161.5" y="-16.1" font-family="Helvetica,sans-Serif" font-size="8.00">::Server_socket::Server</text>
<text text-anchor="middle" x="209.5" y="-7.1" font-family="Helvetica,sans-Serif" font-size="8.00">_socket</text>
</a>
</g>
</g>
<!-- Node1&#45;&gt;Node6 -->
<g id="edge5" class="edge">
<title>Node1&#45;&gt;Node6</title>
<path fill="none" stroke="midnightblue" d="M76.9,-95.37C94.58,-80.97 120.97,-60.69 146,-46 149.42,-43.99 153.01,-42.03 156.67,-40.14"/>
<polygon fill="midnightblue" stroke="midnightblue" points="158.44,-43.17 165.84,-35.6 155.33,-36.9 158.44,-43.17"/>
</g>
</g>
</svg>
