<?xml version="1.0" encoding="UTF-8" standalone="no"?>
<!DOCTYPE svg PUBLIC "-//W3C//DTD SVG 1.1//EN"
 "http://www.w3.org/Graphics/SVG/1.1/DTD/svg11.dtd">
<!-- Generated by graphviz version 2.43.0 (0)
 -->
<!-- Title: flow::async::Segregated_thread_task_loop::schedule_from_now Pages: 1 -->
<svg width="795pt" height="234pt"
 viewBox="0.00 0.00 795.00 234.00" xmlns="http://www.w3.org/2000/svg" xmlns:xlink="http://www.w3.org/1999/xlink">
<g id="graph0" class="graph" transform="scale(1 1) rotate(0) translate(4 230)">
<title>flow::async::Segregated_thread_task_loop::schedule_from_now</title>
<polygon fill="white" stroke="transparent" points="-4,4 -4,-230 791,-230 791,4 -4,4"/>
<!-- Node1 -->
<g id="node1" class="node">
<title>Node1</title>
<g id="a_node1"><a xlink:title="Implements superclass API.">
<polygon fill="#bfbfbf" stroke="black" points="0,-140.5 0,-175.5 134,-175.5 134,-140.5 0,-140.5"/>
<text text-anchor="start" x="8" y="-165.1" font-family="Helvetica,sans-Serif" font-size="8.00">flow::async::Segregated</text>
<text text-anchor="start" x="8" y="-156.1" font-family="Helvetica,sans-Serif" font-size="8.00">_thread_task_loop::schedule</text>
<text text-anchor="middle" x="67" y="-147.1" font-family="Helvetica,sans-Serif" font-size="8.00">_from_now</text>
</a>
</g>
</g>
<!-- Node2 -->
<g id="node2" class="node">
<title>Node2</title>
<g id="a_node2"><a xlink:href="classflow_1_1async_1_1Segregated__thread__task__loop.html#a4c42c76a9d3f2926bb5545065d69783e" target="_top" xlink:title="Implements superclass API.">
<polygon fill="white" stroke="black" points="178.5,-190.5 178.5,-225.5 295.5,-225.5 295.5,-190.5 178.5,-190.5"/>
<text text-anchor="start" x="186.5" y="-215.1" font-family="Helvetica,sans-Serif" font-size="8.00">flow::async::Segregated</text>
<text text-anchor="start" x="186.5" y="-206.1" font-family="Helvetica,sans-Serif" font-size="8.00">_thread_task_loop::per</text>
<text text-anchor="middle" x="237" y="-197.1" font-family="Helvetica,sans-Serif" font-size="8.00">_thread_ops</text>
</a>
</g>
</g>
<!-- Node1&#45;&gt;Node2 -->
<g id="edge1" class="edge">
<title>Node1&#45;&gt;Node2</title>
<path fill="none" stroke="midnightblue" d="M127.23,-175.63C140.61,-179.61 154.91,-183.87 168.6,-187.94"/>
<polygon fill="midnightblue" stroke="midnightblue" points="167.85,-191.37 178.43,-190.87 169.85,-184.66 167.85,-191.37"/>
</g>
<!-- Node3 -->
<g id="node3" class="node">
<title>Node3</title>
<g id="a_node3"><a xlink:href="classflow_1_1async_1_1Op__list.html#ad0929efa574298c96c13845a6e020d7d" target="_top" xlink:title="Returns a randomly selected index from range [O, size()).">
<polygon fill="white" stroke="black" points="189,-145 189,-171 285,-171 285,-145 189,-145"/>
<text text-anchor="start" x="197" y="-160.6" font-family="Helvetica,sans-Serif" font-size="8.00">flow::async::Op_list</text>
<text text-anchor="middle" x="237" y="-151.6" font-family="Helvetica,sans-Serif" font-size="8.00">::random_idx</text>
</a>
</g>
</g>
<!-- Node1&#45;&gt;Node3 -->
<g id="edge2" class="edge">
<title>Node1&#45;&gt;Node3</title>
<path fill="none" stroke="midnightblue" d="M134.4,-158C149.08,-158 164.52,-158 178.81,-158"/>
<polygon fill="midnightblue" stroke="midnightblue" points="178.98,-161.5 188.98,-158 178.98,-154.5 178.98,-161.5"/>
</g>
<!-- Node4 -->
<g id="node4" class="node">
<title>Node4</title>
<g id="a_node4"><a xlink:href="classflow_1_1async_1_1Segregated__thread__task__loop.html#a8fbd7b964d140c770eac1f71e52bcf1c" target="_top" xlink:title="Helper performing the core util::schedule_task_from_now() call on behalf of the various schedule_from...">
<polygon fill="white" stroke="black" points="170,-90.5 170,-125.5 304,-125.5 304,-90.5 170,-90.5"/>
<text text-anchor="start" x="178" y="-115.1" font-family="Helvetica,sans-Serif" font-size="8.00">flow::async::Segregated</text>
<text text-anchor="start" x="178" y="-106.1" font-family="Helvetica,sans-Serif" font-size="8.00">_thread_task_loop::schedule</text>
<text text-anchor="middle" x="237" y="-97.1" font-family="Helvetica,sans-Serif" font-size="8.00">_from_now_impl</text>
</a>
</g>
</g>
<!-- Node1&#45;&gt;Node4 -->
<g id="edge3" class="edge">
<title>Node1&#45;&gt;Node4</title>
<path fill="none" stroke="midnightblue" d="M127.23,-140.37C140.23,-136.5 154.1,-132.38 167.43,-128.41"/>
<polygon fill="midnightblue" stroke="midnightblue" points="168.44,-131.76 177.02,-125.55 166.44,-125.05 168.44,-131.76"/>
</g>
<!-- Node5 -->
<g id="node5" class="node">
<title>Node5</title>
<g id="a_node5"><a xlink:href="namespaceflow_1_1async.html#a4cce43f39672e80cba5512103c53ae60" target="_top" xlink:title="Returns the 0&#45;based processor logical (not hardware) core index of the core executing the calling thr...">
<polygon fill="white" stroke="black" points="358.5,-185.5 358.5,-202.5 458.5,-202.5 458.5,-185.5 358.5,-185.5"/>
<text text-anchor="middle" x="408.5" y="-192.1" font-family="Helvetica,sans-Serif" font-size="8.00">flow::async::cpu_idx</text>
</a>
</g>
</g>
<!-- Node4&#45;&gt;Node5 -->
<g id="edge4" class="edge">
<title>Node4&#45;&gt;Node5</title>
<path fill="none" stroke="midnightblue" d="M286.55,-125.67C292.65,-128.72 298.63,-132.17 304,-136 323.47,-149.89 319.6,-163.51 340,-176 343.61,-178.21 347.48,-180.15 351.49,-181.85"/>
<polygon fill="midnightblue" stroke="midnightblue" points="350.42,-185.19 361.01,-185.42 352.87,-178.63 350.42,-185.19"/>
</g>
<!-- Node6 -->
<g id="node6" class="node">
<title>Node6</title>
<g id="a_node6"><a xlink:href="classflow_1_1log_1_1Log__context.html#a8a5fef42dc2cedf3c0d1a6e83beb2948" target="_top" xlink:title="Returns reference to the stored Component object, particularly as many FLOW_LOG_*() macros expect.">
<polygon fill="white" stroke="black" points="355,-140 355,-166 462,-166 462,-140 355,-140"/>
<text text-anchor="start" x="363" y="-155.6" font-family="Helvetica,sans-Serif" font-size="8.00">flow::log::Log_context</text>
<text text-anchor="middle" x="408.5" y="-146.6" font-family="Helvetica,sans-Serif" font-size="8.00">::get_log_component</text>
</a>
</g>
</g>
<!-- Node4&#45;&gt;Node6 -->
<g id="edge5" class="edge">
<title>Node4&#45;&gt;Node6</title>
<path fill="none" stroke="midnightblue" d="M304.02,-125.53C318.75,-129.44 334.27,-133.56 348.68,-137.38"/>
<polygon fill="midnightblue" stroke="midnightblue" points="347.9,-140.8 358.46,-139.98 349.69,-134.03 347.9,-140.8"/>
</g>
<!-- Node7 -->
<g id="node7" class="node">
<title>Node7</title>
<g id="a_node7"><a xlink:href="classflow_1_1log_1_1Log__context.html#af4db395042b065b00398cd59845dcb4d" target="_top" xlink:title="Returns the stored Logger pointer, particularly as many FLOW_LOG_*() macros expect.">
<polygon fill="white" stroke="black" points="355,-95 355,-121 462,-121 462,-95 355,-95"/>
<text text-anchor="start" x="363" y="-110.6" font-family="Helvetica,sans-Serif" font-size="8.00">flow::log::Log_context</text>
<text text-anchor="middle" x="408.5" y="-101.6" font-family="Helvetica,sans-Serif" font-size="8.00">::get_logger</text>
</a>
</g>
</g>
<!-- Node4&#45;&gt;Node7 -->
<g id="edge6" class="edge">
<title>Node4&#45;&gt;Node7</title>
<path fill="none" stroke="midnightblue" d="M304.02,-108C317.29,-108 331.22,-108 344.39,-108"/>
<polygon fill="midnightblue" stroke="midnightblue" points="344.77,-111.5 354.77,-108 344.77,-104.5 344.77,-111.5"/>
</g>
<!-- Node8 -->
<g id="node8" class="node">
<title>Node8</title>
<g id="a_node8"><a xlink:href="classflow_1_1async_1_1Segregated__thread__task__loop.html#a28d7c70f0d3147ba48a10afa84ef98c1" target="_top" xlink:title="Implements superclass API.">
<polygon fill="white" stroke="black" points="340,-50 340,-76 477,-76 477,-50 340,-50"/>
<text text-anchor="start" x="348" y="-65.6" font-family="Helvetica,sans-Serif" font-size="8.00">flow::async::Segregated</text>
<text text-anchor="middle" x="408.5" y="-56.6" font-family="Helvetica,sans-Serif" font-size="8.00">_thread_task_loop::n_threads</text>
</a>
</g>
</g>
<!-- Node4&#45;&gt;Node8 -->
<g id="edge7" class="edge">
<title>Node4&#45;&gt;Node8</title>
<path fill="none" stroke="midnightblue" d="M304.02,-90.47C318.75,-86.56 334.27,-82.44 348.68,-78.62"/>
<polygon fill="midnightblue" stroke="midnightblue" points="349.69,-81.97 358.46,-76.02 347.9,-75.2 349.69,-81.97"/>
</g>
<!-- Node9 -->
<g id="node9" class="node">
<title>Node9</title>
<g id="a_node9"><a xlink:href="namespaceflow_1_1util.html#a74d4a66fb00055be4e1bd6ee98e04667" target="_top" xlink:title="Schedule the given function to execute in a certain amount of time: A handy wrapper around Timer (asi...">
<polygon fill="white" stroke="black" points="361,-5 361,-31 456,-31 456,-5 361,-5"/>
<text text-anchor="start" x="369" y="-20.6" font-family="Helvetica,sans-Serif" font-size="8.00">flow::util::schedule</text>
<text text-anchor="middle" x="408.5" y="-11.6" font-family="Helvetica,sans-Serif" font-size="8.00">_task_from_now</text>
</a>
</g>
</g>
<!-- Node4&#45;&gt;Node9 -->
<g id="edge8" class="edge">
<title>Node4&#45;&gt;Node9</title>
<path fill="none" stroke="midnightblue" d="M261.3,-90.23C281.34,-75.56 311.45,-54.96 340,-41 344.61,-38.75 349.49,-36.62 354.45,-34.64"/>
<polygon fill="midnightblue" stroke="midnightblue" points="355.89,-37.83 363.99,-31.01 353.4,-31.29 355.89,-37.83"/>
</g>
<!-- Node10 -->
<g id="node10" class="node">
<title>Node10</title>
<g id="a_node10"><a xlink:href="classflow_1_1util_1_1Unique__id__holder.html#a50489177a7731618ca130468c3872748" target="_top" xlink:title="Short&#45;hand for Unique_id_holder().unique_id(); useful when all you want is the unique integer itself.">
<polygon fill="white" stroke="black" points="513,-5 513,-31 647,-31 647,-5 513,-5"/>
<text text-anchor="start" x="521" y="-20.6" font-family="Helvetica,sans-Serif" font-size="8.00">flow::util::Unique</text>
<text text-anchor="middle" x="580" y="-11.6" font-family="Helvetica,sans-Serif" font-size="8.00">_id_holder::create_unique_id</text>
</a>
</g>
</g>
<!-- Node9&#45;&gt;Node10 -->
<g id="edge9" class="edge">
<title>Node9&#45;&gt;Node10</title>
<path fill="none" stroke="midnightblue" d="M456.27,-18C470.57,-18 486.7,-18 502.45,-18"/>
<polygon fill="midnightblue" stroke="midnightblue" points="502.72,-21.5 512.72,-18 502.72,-14.5 502.72,-21.5"/>
</g>
<!-- Node11 -->
<g id="node11" class="node">
<title>Node11</title>
<g id="a_node11"><a xlink:href="classflow_1_1util_1_1Unique__id__holder.html#a90705293787069f52372638d5450ef52" target="_top" xlink:title="Thread&#45;safely construct an ID whose value is different from any other object of this class,...">
<polygon fill="white" stroke="black" points="683,-0.5 683,-35.5 787,-35.5 787,-0.5 683,-0.5"/>
<text text-anchor="start" x="691" y="-25.1" font-family="Helvetica,sans-Serif" font-size="8.00">flow::util::Unique</text>
<text text-anchor="start" x="691" y="-16.1" font-family="Helvetica,sans-Serif" font-size="8.00">_id_holder::Unique_id</text>
<text text-anchor="middle" x="735" y="-7.1" font-family="Helvetica,sans-Serif" font-size="8.00">_holder</text>
</a>
</g>
</g>
<!-- Node10&#45;&gt;Node11 -->
<g id="edge10" class="edge">
<title>Node10&#45;&gt;Node11</title>
<path fill="none" stroke="midnightblue" d="M647.22,-18C655.72,-18 664.39,-18 672.8,-18"/>
<polygon fill="midnightblue" stroke="midnightblue" points="672.9,-21.5 682.9,-18 672.9,-14.5 672.9,-21.5"/>
</g>
</g>
</svg>
