<?xml version="1.0" encoding="UTF-8" standalone="no"?>
<!DOCTYPE svg PUBLIC "-//W3C//DTD SVG 1.1//EN"
 "http://www.w3.org/Graphics/SVG/1.1/DTD/svg11.dtd">
<!-- Generated by graphviz version 2.43.0 (0)
 -->
<!-- Title: flow::log::Logger::should_log Pages: 1 -->
<svg width="794pt" height="742pt"
 viewBox="0.00 0.00 794.00 742.00" xmlns="http://www.w3.org/2000/svg" xmlns:xlink="http://www.w3.org/1999/xlink">
<g id="graph0" class="graph" transform="scale(1 1) rotate(0) translate(4 738)">
<title>flow::log::Logger::should_log</title>
<polygon fill="white" stroke="transparent" points="-4,4 -4,-738 790,-738 790,4 -4,4"/>
<!-- Node1 -->
<g id="node1" class="node">
<title>Node1</title>
<g id="a_node1"><a xlink:title="Given attributes of a hypothetical message that would be logged, return true if that message should b...">
<polygon fill="#bfbfbf" stroke="black" points="694,-247.5 694,-273.5 786,-273.5 786,-247.5 694,-247.5"/>
<text text-anchor="start" x="702" y="-263.1" font-family="Helvetica,sans-Serif" font-size="8.00">flow::log::Logger::</text>
<text text-anchor="middle" x="740" y="-254.1" font-family="Helvetica,sans-Serif" font-size="8.00">should_log</text>
</a>
</g>
</g>
<!-- Node2 -->
<g id="node2" class="node">
<title>Node2</title>
<g id="a_node2"><a xlink:href="namespaceflow_1_1async.html#a24567271e97a67d3cae6bd8bf8dc63c4" target="_top" xlink:title="An extension of boost.asio&#39;s post() and dispatch() free function templates, this free function templa...">
<polygon fill="white" stroke="black" points="531,-536.5 531,-562.5 640,-562.5 640,-536.5 531,-536.5"/>
<text text-anchor="start" x="539" y="-552.1" font-family="Helvetica,sans-Serif" font-size="8.00">flow::async::asio_exec</text>
<text text-anchor="middle" x="585.5" y="-543.1" font-family="Helvetica,sans-Serif" font-size="8.00">_ctx_post</text>
</a>
</g>
</g>
<!-- Node1&#45;&gt;Node2 -->
<g id="edge1" class="edge">
<title>Node1&#45;&gt;Node2</title>
<path fill="none" stroke="midnightblue" d="M735.74,-283.67C728.47,-328.54 707.53,-428.82 658,-496.5 645.68,-513.33 626.47,-527.15 611.06,-536.45"/>
<polygon fill="midnightblue" stroke="midnightblue" points="739.24,-283.93 737.3,-273.51 732.32,-282.86 739.24,-283.93"/>
</g>
<!-- Node29 -->
<g id="node20" class="node">
<title>Node29</title>
<g id="a_node20"><a xlink:href="classflow_1_1perf_1_1Checkpointing__timer.html#aa9940d8e87883f9985ba18939f833db9" target="_top" xlink:title="Constructs a new timer and immediately begins measuring time, in that the next checkpoint() call will...">
<polygon fill="white" stroke="black" points="520,-460.5 520,-486.5 651,-486.5 651,-460.5 520,-460.5"/>
<text text-anchor="start" x="528" y="-476.1" font-family="Helvetica,sans-Serif" font-size="8.00">flow::perf::Checkpointing</text>
<text text-anchor="middle" x="585.5" y="-467.1" font-family="Helvetica,sans-Serif" font-size="8.00">_timer::Checkpointing_timer</text>
</a>
</g>
</g>
<!-- Node1&#45;&gt;Node29 -->
<g id="edge24" class="edge">
<title>Node1&#45;&gt;Node29</title>
<path fill="none" stroke="midnightblue" d="M735.47,-283.79C728.21,-323.64 707.88,-405 658,-450.5 653.66,-454.45 648.64,-457.73 643.31,-460.44"/>
<polygon fill="midnightblue" stroke="midnightblue" points="738.95,-284.16 737.18,-273.72 732.05,-282.99 738.95,-284.16"/>
</g>
<!-- Node30 -->
<g id="node21" class="node">
<title>Node30</title>
<g id="a_node21"><a xlink:href="structflow_1_1net__flow_1_1Low__lvl__packet.html#a186d7dae0c4b4402aed22a25d595ed30" target="_top" xlink:title="Constructs packet on the heap with values determined by the given raw binary data as presumably recei...">
<polygon fill="white" stroke="black" points="529.5,-406 529.5,-441 641.5,-441 641.5,-406 529.5,-406"/>
<text text-anchor="start" x="537.5" y="-430.6" font-family="Helvetica,sans-Serif" font-size="8.00">flow::net_flow::Low</text>
<text text-anchor="start" x="537.5" y="-421.6" font-family="Helvetica,sans-Serif" font-size="8.00">_lvl_packet::create</text>
<text text-anchor="middle" x="585.5" y="-412.6" font-family="Helvetica,sans-Serif" font-size="8.00">_from_raw_data_packet</text>
</a>
</g>
</g>
<!-- Node1&#45;&gt;Node30 -->
<g id="edge25" class="edge">
<title>Node1&#45;&gt;Node30</title>
<path fill="none" stroke="midnightblue" d="M730.94,-283.29C719.27,-313.21 694.93,-365.56 658,-396.5 653.12,-400.59 647.55,-404.1 641.73,-407.09"/>
<polygon fill="midnightblue" stroke="midnightblue" points="734.3,-284.3 734.54,-273.71 727.75,-281.84 734.3,-284.3"/>
</g>
<!-- Node37 -->
<g id="node25" class="node">
<title>Node37</title>
<g id="a_node25"><a xlink:href="classflow_1_1util_1_1Basic__blob.html#a37f377987183d36b0ff5ebb9605d8aae" target="_top" xlink:title="Copies src buffer directly onto equally sized area within *this at location dest; *this must have suf...">
<polygon fill="white" stroke="black" points="535,-360.5 535,-386.5 636,-386.5 636,-360.5 535,-360.5"/>
<text text-anchor="start" x="543" y="-376.1" font-family="Helvetica,sans-Serif" font-size="8.00">flow::util::Basic_blob</text>
<text text-anchor="middle" x="585.5" y="-367.1" font-family="Helvetica,sans-Serif" font-size="8.00">::emplace_copy</text>
</a>
</g>
</g>
<!-- Node1&#45;&gt;Node37 -->
<g id="edge31" class="edge">
<title>Node1&#45;&gt;Node37</title>
<path fill="none" stroke="midnightblue" d="M724.99,-282.15C710.55,-302.8 686.21,-333.38 658,-351.5 651.33,-355.78 643.79,-359.27 636.15,-362.11"/>
<polygon fill="midnightblue" stroke="midnightblue" points="728,-283.94 730.73,-273.7 722.21,-280 728,-283.94"/>
</g>
<!-- Node38 -->
<g id="node26" class="node">
<title>Node38</title>
<g id="a_node26"><a xlink:href="classflow_1_1util_1_1Basic__blob.html#a69df8d881b78c282f4d9d20898009b5e" target="_top" xlink:title="Guarantees post&#45;condition zero() == true by dropping *this ownership of the allocated internal buffer...">
<polygon fill="white" stroke="black" points="535,-315.5 535,-341.5 636,-341.5 636,-315.5 535,-315.5"/>
<text text-anchor="start" x="543" y="-331.1" font-family="Helvetica,sans-Serif" font-size="8.00">flow::util::Basic_blob</text>
<text text-anchor="middle" x="585.5" y="-322.1" font-family="Helvetica,sans-Serif" font-size="8.00">::make_zero</text>
</a>
</g>
</g>
<!-- Node1&#45;&gt;Node38 -->
<g id="edge32" class="edge">
<title>Node1&#45;&gt;Node38</title>
<path fill="none" stroke="midnightblue" d="M709.82,-279.12C694.75,-288.21 675.83,-298.8 658,-306.5 650.37,-309.79 642.08,-312.82 633.95,-315.5"/>
<polygon fill="midnightblue" stroke="midnightblue" points="711.97,-281.91 718.66,-273.7 708.31,-275.95 711.97,-281.91"/>
</g>
<!-- Node39 -->
<g id="node27" class="node">
<title>Node39</title>
<g id="a_node27"><a xlink:href="classflow_1_1util_1_1Basic__blob.html#a5f45c6f17074d8261147f89925516d55" target="_top" xlink:title="Implements reserve() overloads.">
<polygon fill="white" stroke="black" points="535,-270.5 535,-296.5 636,-296.5 636,-270.5 535,-270.5"/>
<text text-anchor="start" x="543" y="-286.1" font-family="Helvetica,sans-Serif" font-size="8.00">flow::util::Basic_blob</text>
<text text-anchor="middle" x="585.5" y="-277.1" font-family="Helvetica,sans-Serif" font-size="8.00">::reserve_impl</text>
</a>
</g>
</g>
<!-- Node1&#45;&gt;Node39 -->
<g id="edge33" class="edge">
<title>Node1&#45;&gt;Node39</title>
<path fill="none" stroke="midnightblue" d="M683.67,-268.85C668.14,-271.19 651.37,-273.72 636.2,-276"/>
<polygon fill="midnightblue" stroke="midnightblue" points="684.29,-272.29 693.66,-267.34 683.25,-265.37 684.29,-272.29"/>
</g>
<!-- Node40 -->
<g id="node28" class="node">
<title>Node40</title>
<g id="a_node28"><a xlink:href="classflow_1_1util_1_1Basic__blob.html#a5e4e4668320845ae522165b2095f5097" target="_top" xlink:title="Applicable to !zero() blobs, this returns an identical Basic_blob that shares (co&#45;owns) *this allocat...">
<polygon fill="white" stroke="black" points="535,-225.5 535,-251.5 636,-251.5 636,-225.5 535,-225.5"/>
<text text-anchor="start" x="543" y="-241.1" font-family="Helvetica,sans-Serif" font-size="8.00">flow::util::Basic_blob</text>
<text text-anchor="middle" x="585.5" y="-232.1" font-family="Helvetica,sans-Serif" font-size="8.00">::share</text>
</a>
</g>
</g>
<!-- Node1&#45;&gt;Node40 -->
<g id="edge34" class="edge">
<title>Node1&#45;&gt;Node40</title>
<path fill="none" stroke="midnightblue" d="M683.67,-252.52C668.14,-250.28 651.37,-247.86 636.2,-245.67"/>
<polygon fill="midnightblue" stroke="midnightblue" points="683.26,-256 693.66,-253.96 684.26,-249.07 683.26,-256"/>
</g>
<!-- Node41 -->
<g id="node29" class="node">
<title>Node41</title>
<g id="a_node29"><a xlink:href="classflow_1_1util_1_1Basic__blob.html#a53826c1f5638db3a138192b87adde7fa" target="_top" xlink:title="Impl of share_after_split_equally() but capable of emitting not just *this type (Basic_blob&lt;....">
<polygon fill="white" stroke="black" points="513,-180.5 513,-206.5 658,-206.5 658,-180.5 513,-180.5"/>
<text text-anchor="start" x="521" y="-196.1" font-family="Helvetica,sans-Serif" font-size="8.00">flow::util::Basic_blob</text>
<text text-anchor="middle" x="585.5" y="-187.1" font-family="Helvetica,sans-Serif" font-size="8.00">::share_after_split_equally_impl</text>
</a>
</g>
</g>
<!-- Node1&#45;&gt;Node41 -->
<g id="edge35" class="edge">
<title>Node1&#45;&gt;Node41</title>
<path fill="none" stroke="midnightblue" d="M708.74,-242.32C693.8,-233.79 675.3,-223.9 658,-216.5 649.61,-212.91 640.46,-209.56 631.6,-206.59"/>
<polygon fill="midnightblue" stroke="midnightblue" points="707.14,-245.43 717.55,-247.41 710.65,-239.37 707.14,-245.43"/>
</g>
<!-- Node42 -->
<g id="node30" class="node">
<title>Node42</title>
<g id="a_node30"><a xlink:href="classflow_1_1util_1_1Basic__blob.html#a2c7da4387ef57fe4384fcf928de45dd2" target="_top" xlink:title="Applicable to !zero() blobs, this shifts this&#45;&gt;begin() by size to the right without changing end(); a...">
<polygon fill="white" stroke="black" points="532,-135.5 532,-161.5 639,-161.5 639,-135.5 532,-135.5"/>
<text text-anchor="start" x="540" y="-151.1" font-family="Helvetica,sans-Serif" font-size="8.00">flow::util::Basic_blob</text>
<text text-anchor="middle" x="585.5" y="-142.1" font-family="Helvetica,sans-Serif" font-size="8.00">::share_after_split_left</text>
</a>
</g>
</g>
<!-- Node1&#45;&gt;Node42 -->
<g id="edge36" class="edge">
<title>Node1&#45;&gt;Node42</title>
<path fill="none" stroke="midnightblue" d="M724.59,-239.08C710.01,-218.95 685.7,-189.33 658,-171.5 651.97,-167.62 645.23,-164.34 638.36,-161.59"/>
<polygon fill="midnightblue" stroke="midnightblue" points="721.78,-241.17 730.4,-247.33 727.5,-237.14 721.78,-241.17"/>
</g>
<!-- Node43 -->
<g id="node31" class="node">
<title>Node43</title>
<g id="a_node31"><a xlink:href="classflow_1_1util_1_1Basic__blob.html#a35a0b1bc225e328e95a590c92fe75c24" target="_top" xlink:title="Identical to share_after_split_left(), except this&#45;&gt;end() shifts by size to the left (instead of this...">
<polygon fill="white" stroke="black" points="529,-90.5 529,-116.5 642,-116.5 642,-90.5 529,-90.5"/>
<text text-anchor="start" x="537" y="-106.1" font-family="Helvetica,sans-Serif" font-size="8.00">flow::util::Basic_blob</text>
<text text-anchor="middle" x="585.5" y="-97.1" font-family="Helvetica,sans-Serif" font-size="8.00">::share_after_split_right</text>
</a>
</g>
</g>
<!-- Node1&#45;&gt;Node43 -->
<g id="edge37" class="edge">
<title>Node1&#45;&gt;Node43</title>
<path fill="none" stroke="midnightblue" d="M731.08,-237.77C719.55,-207.99 695.38,-156.07 658,-126.5 652.99,-122.54 647.28,-119.25 641.31,-116.52"/>
<polygon fill="midnightblue" stroke="midnightblue" points="727.86,-239.16 734.62,-247.31 734.42,-236.72 727.86,-239.16"/>
</g>
<!-- Node44 -->
<g id="node32" class="node">
<title>Node44</title>
<g id="a_node32"><a xlink:href="classflow_1_1net__flow_1_1Drop__timer.html#a4a5f0bbb91232e17e258722e4dfa237b" target="_top" xlink:title="Starts a new wait on the timer, so that is it asynchronously triggered according to the current DTO v...">
<polygon fill="white" stroke="black" points="536.5,-45.5 536.5,-71.5 634.5,-71.5 634.5,-45.5 536.5,-45.5"/>
<text text-anchor="start" x="544.5" y="-61.1" font-family="Helvetica,sans-Serif" font-size="8.00">flow::net_flow::Drop</text>
<text text-anchor="middle" x="585.5" y="-52.1" font-family="Helvetica,sans-Serif" font-size="8.00">_timer::start_timer</text>
</a>
</g>
</g>
<!-- Node1&#45;&gt;Node44 -->
<g id="edge38" class="edge">
<title>Node1&#45;&gt;Node44</title>
<path fill="none" stroke="midnightblue" d="M734.72,-236.94C726.57,-198.83 705.26,-123.67 658,-81.5 651.38,-75.6 643.24,-71.21 634.84,-67.94"/>
<polygon fill="midnightblue" stroke="midnightblue" points="731.35,-237.97 736.76,-247.08 738.22,-236.58 731.35,-237.97"/>
</g>
<!-- Node46 -->
<g id="node34" class="node">
<title>Node46</title>
<g id="a_node34"><a xlink:href="classflow_1_1util_1_1Basic__blob.html#afc24100c45d41d25ca658afe5e1421d7" target="_top" xlink:title="The opposite of emplace_copy() in every way, copying a sub&#45;blob onto a target memory area.">
<polygon fill="white" stroke="black" points="535,-0.5 535,-26.5 636,-26.5 636,-0.5 535,-0.5"/>
<text text-anchor="start" x="543" y="-16.1" font-family="Helvetica,sans-Serif" font-size="8.00">flow::util::Basic_blob</text>
<text text-anchor="middle" x="585.5" y="-7.1" font-family="Helvetica,sans-Serif" font-size="8.00">::sub_copy</text>
</a>
</g>
</g>
<!-- Node1&#45;&gt;Node46 -->
<g id="edge40" class="edge">
<title>Node1&#45;&gt;Node46</title>
<path fill="none" stroke="midnightblue" d="M737.34,-237.41C732.82,-192.13 716.42,-91.23 658,-35.5 651.89,-29.67 644.28,-25.39 636.31,-22.23"/>
<polygon fill="midnightblue" stroke="midnightblue" points="733.85,-237.77 738.23,-247.42 740.83,-237.15 733.85,-237.77"/>
</g>
<!-- Node3 -->
<g id="node3" class="node">
<title>Node3</title>
<g id="a_node3"><a xlink:href="classflow_1_1net__flow_1_1Node.html#a6461124e5bc3e59083e172e26029e632" target="_top" xlink:title="Implementation of non&#45;blocking sock&#45;&gt;close_abruptly() for socket sock in all cases except when sock&#45;&gt;...">
<polygon fill="white" stroke="black" points="355.5,-684.5 355.5,-710.5 456.5,-710.5 456.5,-684.5 355.5,-684.5"/>
<text text-anchor="start" x="363.5" y="-700.1" font-family="Helvetica,sans-Serif" font-size="8.00">flow::net_flow::Node</text>
<text text-anchor="middle" x="406" y="-691.1" font-family="Helvetica,sans-Serif" font-size="8.00">::close_abruptly</text>
</a>
</g>
</g>
<!-- Node2&#45;&gt;Node3 -->
<g id="edge2" class="edge">
<title>Node2&#45;&gt;Node3</title>
<path fill="none" stroke="midnightblue" d="M570.46,-571.17C551.99,-598.12 517.13,-643.92 477,-671.5 469.52,-676.64 460.9,-680.91 452.32,-684.41"/>
<polygon fill="midnightblue" stroke="midnightblue" points="573.41,-573.06 576.08,-562.81 567.6,-569.15 573.41,-573.06"/>
</g>
<!-- Node5 -->
<g id="node5" class="node">
<title>Node5</title>
<g id="a_node5"><a xlink:href="classflow_1_1net__flow_1_1Node.html#a5dbd8c3b12fa035c56396a4f7263a8e6" target="_top" xlink:title="Same as connect() but sends, as part of the connection handshake, the user&#45;supplied metadata,...">
<polygon fill="white" stroke="black" points="346,-635.5 346,-661.5 466,-661.5 466,-635.5 346,-635.5"/>
<text text-anchor="start" x="354" y="-651.1" font-family="Helvetica,sans-Serif" font-size="8.00">flow::net_flow::Node</text>
<text text-anchor="middle" x="406" y="-642.1" font-family="Helvetica,sans-Serif" font-size="8.00">::connect_with_metadata</text>
</a>
</g>
</g>
<!-- Node2&#45;&gt;Node5 -->
<g id="edge5" class="edge">
<title>Node2&#45;&gt;Node5</title>
<path fill="none" stroke="midnightblue" d="M557.05,-568.45C535.72,-582.78 505.12,-602.48 477,-617.5 464.92,-623.95 451.23,-630.23 439.18,-635.43"/>
<polygon fill="midnightblue" stroke="midnightblue" points="559.27,-571.17 565.59,-562.66 555.35,-565.37 559.27,-571.17"/>
</g>
<!-- Node9 -->
<g id="node9" class="node">
<title>Node9</title>
<g id="a_node9"><a xlink:href="classflow_1_1net__flow_1_1Node.html#a44ee0d42d38f3b98d032dee1549f8c4c" target="_top" xlink:title="Implementation of Event_set::close() when Event_set::state() != Event_set::State::S_CLOSED for event_...">
<polygon fill="white" stroke="black" points="355.5,-581.5 355.5,-607.5 456.5,-607.5 456.5,-581.5 355.5,-581.5"/>
<text text-anchor="start" x="363.5" y="-597.1" font-family="Helvetica,sans-Serif" font-size="8.00">flow::net_flow::Node</text>
<text text-anchor="middle" x="406" y="-588.1" font-family="Helvetica,sans-Serif" font-size="8.00">::event_set_close</text>
</a>
</g>
</g>
<!-- Node2&#45;&gt;Node9 -->
<g id="edge9" class="edge">
<title>Node2&#45;&gt;Node9</title>
<path fill="none" stroke="midnightblue" d="M523.36,-565C501.6,-570.52 477.38,-576.66 456.7,-581.9"/>
<polygon fill="midnightblue" stroke="midnightblue" points="524.33,-568.37 533.16,-562.52 522.61,-561.58 524.33,-568.37"/>
</g>
<!-- Node11 -->
<g id="node11" class="node">
<title>Node11</title>
<g id="a_node11"><a xlink:href="classflow_1_1net__flow_1_1Node.html#a237c603bbd4845a5fc4b0370b4979b31" target="_top" xlink:title="Creates a new Event_set in Event_set::State::S_INACTIVE state with no sockets/events stored; returns ...">
<polygon fill="white" stroke="black" points="355.5,-536.5 355.5,-562.5 456.5,-562.5 456.5,-536.5 355.5,-536.5"/>
<text text-anchor="start" x="363.5" y="-552.1" font-family="Helvetica,sans-Serif" font-size="8.00">flow::net_flow::Node</text>
<text text-anchor="middle" x="406" y="-543.1" font-family="Helvetica,sans-Serif" font-size="8.00">::event_set_create</text>
</a>
</g>
</g>
<!-- Node2&#45;&gt;Node11 -->
<g id="edge12" class="edge">
<title>Node2&#45;&gt;Node11</title>
<path fill="none" stroke="midnightblue" d="M520.61,-549.5C499.55,-549.5 476.45,-549.5 456.62,-549.5"/>
<polygon fill="midnightblue" stroke="midnightblue" points="520.76,-553 530.76,-549.5 520.76,-546 520.76,-553"/>
</g>
<!-- Node26 -->
<g id="node17" class="node">
<title>Node26</title>
<g id="a_node17"><a xlink:href="classflow_1_1net__flow_1_1Node.html#a9fabe79fbd1888fc7aa9eb25281e7b16" target="_top" xlink:title="Sets up a server on the given local Flow port and returns Server_socket which can be used to accept s...">
<polygon fill="white" stroke="black" points="355.5,-473.5 355.5,-499.5 456.5,-499.5 456.5,-473.5 355.5,-473.5"/>
<text text-anchor="start" x="363.5" y="-489.1" font-family="Helvetica,sans-Serif" font-size="8.00">flow::net_flow::Node</text>
<text text-anchor="middle" x="406" y="-480.1" font-family="Helvetica,sans-Serif" font-size="8.00">::listen</text>
</a>
</g>
</g>
<!-- Node2&#45;&gt;Node26 -->
<g id="edge20" class="edge">
<title>Node2&#45;&gt;Node26</title>
<path fill="none" stroke="midnightblue" d="M538.08,-533.02C508.64,-522.57 471.09,-509.25 443.73,-499.54"/>
<polygon fill="midnightblue" stroke="midnightblue" points="537.13,-536.4 547.72,-536.45 539.47,-529.8 537.13,-536.4"/>
</g>
<!-- Node27 -->
<g id="node18" class="node">
<title>Node27</title>
<g id="a_node18"><a xlink:href="classflow_1_1net__flow_1_1Node.html#a07ad769737db60dd637365010b80f4f3" target="_top" xlink:title="Implementation of sock&#45;&gt;info() for socket sock in all cases except when sock&#45;&gt;state() == Peer_socket:...">
<polygon fill="white" stroke="black" points="355.5,-428.5 355.5,-454.5 456.5,-454.5 456.5,-428.5 355.5,-428.5"/>
<text text-anchor="start" x="363.5" y="-444.1" font-family="Helvetica,sans-Serif" font-size="8.00">flow::net_flow::Node</text>
<text text-anchor="middle" x="406" y="-435.1" font-family="Helvetica,sans-Serif" font-size="8.00">::sock_info</text>
</a>
</g>
</g>
<!-- Node2&#45;&gt;Node27 -->
<g id="edge22" class="edge">
<title>Node2&#45;&gt;Node27</title>
<path fill="none" stroke="midnightblue" d="M557.51,-530.36C543.94,-520.52 527.36,-508.17 513,-496.5 496.38,-483 495.56,-475.17 477,-464.5 470.35,-460.67 462.97,-457.38 455.57,-454.57"/>
<polygon fill="midnightblue" stroke="midnightblue" points="555.78,-533.43 565.94,-536.43 559.87,-527.75 555.78,-533.43"/>
</g>
<!-- Node4 -->
<g id="node4" class="node">
<title>Node4</title>
<g id="a_node4"><a xlink:href="classflow_1_1net__flow_1_1Peer__socket.html#a1812e852957c43ccca8712d63c6e3de7" target="_top" xlink:title="Acts as if fatal error error::Code::S_USER_CLOSED_ABRUPTLY has been discovered on the connection.">
<polygon fill="white" stroke="black" points="176.5,-689.5 176.5,-715.5 289.5,-715.5 289.5,-689.5 176.5,-689.5"/>
<text text-anchor="start" x="184.5" y="-705.1" font-family="Helvetica,sans-Serif" font-size="8.00">flow::net_flow::Peer</text>
<text text-anchor="middle" x="233" y="-696.1" font-family="Helvetica,sans-Serif" font-size="8.00">_socket::close_abruptly</text>
</a>
</g>
</g>
<!-- Node3&#45;&gt;Node4 -->
<g id="edge3" class="edge">
<title>Node3&#45;&gt;Node4</title>
<path fill="none" stroke="midnightblue" d="M345,-699.25C327.01,-699.78 307.37,-700.35 289.68,-700.87"/>
<polygon fill="midnightblue" stroke="midnightblue" points="345.19,-702.75 355.08,-698.96 344.98,-695.75 345.19,-702.75"/>
</g>
<!-- Node4&#45;&gt;Node4 -->
<g id="edge4" class="edge">
<title>Node4&#45;&gt;Node4</title>
<path fill="none" stroke="midnightblue" d="M263.12,-725.58C260.06,-730.47 250.02,-734 233,-734 205.77,-734 196.4,-724.96 204.91,-715.77"/>
<polygon fill="midnightblue" stroke="midnightblue" points="266.54,-724.85 261.09,-715.77 259.69,-726.27 266.54,-724.85"/>
</g>
<!-- Node6 -->
<g id="node6" class="node">
<title>Node6</title>
<g id="a_node6"><a xlink:href="classflow_1_1net__flow_1_1asio_1_1Node.html#aecac8b38cd35267b1af57e2443a55ea0" target="_top" xlink:title="Implementation core of async_connect*() that gets rid of templated or missing arguments thereof.">
<polygon fill="white" stroke="black" points="167,-644.5 167,-670.5 299,-670.5 299,-644.5 167,-644.5"/>
<text text-anchor="start" x="175" y="-660.1" font-family="Helvetica,sans-Serif" font-size="8.00">flow::net_flow::asio</text>
<text text-anchor="middle" x="233" y="-651.1" font-family="Helvetica,sans-Serif" font-size="8.00">::Node::async_connect_impl</text>
</a>
</g>
</g>
<!-- Node5&#45;&gt;Node6 -->
<g id="edge6" class="edge">
<title>Node5&#45;&gt;Node6</title>
<path fill="none" stroke="midnightblue" d="M335.65,-652.15C323.56,-652.79 311.03,-653.45 299.06,-654.08"/>
<polygon fill="midnightblue" stroke="midnightblue" points="335.87,-655.64 345.67,-651.62 335.5,-648.65 335.87,-655.64"/>
</g>
<!-- Node7 -->
<g id="node7" class="node">
<title>Node7</title>
<g id="a_node7"><a xlink:href="classflow_1_1net__flow_1_1asio_1_1Node.html#a9d722f4c2d7708a78c3e48615acd245d" target="_top" xlink:title="The boost.asio asynchronous version of sync_connect(), performing any necessary wait and connection i...">
<polygon fill="white" stroke="black" points="10,-669.5 10,-695.5 121,-695.5 121,-669.5 10,-669.5"/>
<text text-anchor="start" x="18" y="-685.1" font-family="Helvetica,sans-Serif" font-size="8.00">flow::net_flow::asio</text>
<text text-anchor="middle" x="65.5" y="-676.1" font-family="Helvetica,sans-Serif" font-size="8.00">::Node::async_connect</text>
</a>
</g>
</g>
<!-- Node6&#45;&gt;Node7 -->
<g id="edge7" class="edge">
<title>Node6&#45;&gt;Node7</title>
<path fill="none" stroke="midnightblue" d="M156.59,-668.89C144.61,-670.7 132.42,-672.54 121.04,-674.26"/>
<polygon fill="midnightblue" stroke="midnightblue" points="157.22,-672.34 166.59,-667.38 156.18,-665.41 157.22,-672.34"/>
</g>
<!-- Node8 -->
<g id="node8" class="node">
<title>Node8</title>
<g id="a_node8"><a xlink:href="classflow_1_1net__flow_1_1asio_1_1Node.html#a413bf3647485000a013b416a5b729ffb" target="_top" xlink:title="A combination of async_connect() and connect_with_metadata() (asynchronously blocking connect,...">
<polygon fill="white" stroke="black" points="10,-615 10,-650 121,-650 121,-615 10,-615"/>
<text text-anchor="start" x="18" y="-639.6" font-family="Helvetica,sans-Serif" font-size="8.00">flow::net_flow::asio</text>
<text text-anchor="start" x="18" y="-630.6" font-family="Helvetica,sans-Serif" font-size="8.00">::Node::async_connect</text>
<text text-anchor="middle" x="65.5" y="-621.6" font-family="Helvetica,sans-Serif" font-size="8.00">_with_metadata</text>
</a>
</g>
</g>
<!-- Node6&#45;&gt;Node8 -->
<g id="edge8" class="edge">
<title>Node6&#45;&gt;Node8</title>
<path fill="none" stroke="midnightblue" d="M156.59,-646.11C144.61,-644.3 132.42,-642.46 121.04,-640.74"/>
<polygon fill="midnightblue" stroke="midnightblue" points="156.18,-649.59 166.59,-647.62 157.22,-642.66 156.18,-649.59"/>
</g>
<!-- Node10 -->
<g id="node10" class="node">
<title>Node10</title>
<g id="a_node10"><a xlink:href="classflow_1_1net__flow_1_1Event__set.html#ac00ce0bdf34af4a6d3ed2d54dd641912" target="_top" xlink:title="Clears all stored resources (any desired events, result events, and any handler saved by async_wait()...">
<polygon fill="white" stroke="black" points="182,-581.5 182,-607.5 284,-607.5 284,-581.5 182,-581.5"/>
<text text-anchor="start" x="190" y="-597.1" font-family="Helvetica,sans-Serif" font-size="8.00">flow::net_flow::Event</text>
<text text-anchor="middle" x="233" y="-588.1" font-family="Helvetica,sans-Serif" font-size="8.00">_set::close</text>
</a>
</g>
</g>
<!-- Node9&#45;&gt;Node10 -->
<g id="edge10" class="edge">
<title>Node9&#45;&gt;Node10</title>
<path fill="none" stroke="midnightblue" d="M344.93,-594.5C325.11,-594.5 303.29,-594.5 284.28,-594.5"/>
<polygon fill="midnightblue" stroke="midnightblue" points="345.08,-598 355.08,-594.5 345.08,-591 345.08,-598"/>
</g>
<!-- Node10&#45;&gt;Node10 -->
<g id="edge11" class="edge">
<title>Node10&#45;&gt;Node10</title>
<path fill="none" stroke="midnightblue" d="M263.12,-617.58C260.06,-622.47 250.02,-626 233,-626 205.77,-626 196.4,-616.96 204.91,-607.77"/>
<polygon fill="midnightblue" stroke="midnightblue" points="266.54,-616.85 261.09,-607.77 259.69,-618.27 266.54,-616.85"/>
</g>
<!-- Node12 -->
<g id="node12" class="node">
<title>Node12</title>
<g id="a_node12"><a xlink:href="classflow_1_1net__flow_1_1asio_1_1Node.html#a0cf22e56b3c091645154719eeb49ff4a" target="_top" xlink:title="Implementation of core asynchronous transfer methods, namely asio::Peer_socket::async_send(),...">
<polygon fill="white" stroke="black" points="185,-518.5 185,-544.5 281,-544.5 281,-518.5 185,-518.5"/>
<text text-anchor="start" x="193" y="-534.1" font-family="Helvetica,sans-Serif" font-size="8.00">flow::net_flow::asio</text>
<text text-anchor="middle" x="233" y="-525.1" font-family="Helvetica,sans-Serif" font-size="8.00">::Node::async_op</text>
</a>
</g>
</g>
<!-- Node11&#45;&gt;Node12 -->
<g id="edge13" class="edge">
<title>Node11&#45;&gt;Node12</title>
<path fill="none" stroke="midnightblue" d="M344.99,-543.18C324.02,-540.98 300.81,-538.53 281.05,-536.45"/>
<polygon fill="midnightblue" stroke="midnightblue" points="344.77,-546.68 355.08,-544.25 345.5,-539.72 344.77,-546.68"/>
</g>
<!-- Node13 -->
<g id="node13" class="node">
<title>Node13</title>
<g id="a_node13"><a xlink:href="classflow_1_1net__flow_1_1Node.html#a2a4dc3d8e294bbc8423e111f52e414ae" target="_top" xlink:title="Implementation of core blocking transfer methods, namely Peer_socket::sync_send(),...">
<polygon fill="white" stroke="black" points="182.5,-473.5 182.5,-499.5 283.5,-499.5 283.5,-473.5 182.5,-473.5"/>
<text text-anchor="start" x="190.5" y="-489.1" font-family="Helvetica,sans-Serif" font-size="8.00">flow::net_flow::Node</text>
<text text-anchor="middle" x="233" y="-480.1" font-family="Helvetica,sans-Serif" font-size="8.00">::sync_op</text>
</a>
</g>
</g>
<!-- Node11&#45;&gt;Node13 -->
<g id="edge15" class="edge">
<title>Node11&#45;&gt;Node13</title>
<path fill="none" stroke="midnightblue" d="M349.99,-533.13C344.89,-531.34 339.82,-529.45 335,-527.5 318.41,-520.8 315.46,-516.5 299,-509.5 290.85,-506.04 281.98,-502.65 273.48,-499.59"/>
<polygon fill="midnightblue" stroke="midnightblue" points="349.22,-536.56 359.81,-536.46 351.47,-529.93 349.22,-536.56"/>
</g>
<!-- Node12&#45;&gt;Node12 -->
<g id="edge14" class="edge">
<title>Node12&#45;&gt;Node12</title>
<path fill="none" stroke="midnightblue" d="M263.12,-554.58C260.06,-559.47 250.02,-563 233,-563 205.77,-563 196.4,-553.96 204.91,-544.77"/>
<polygon fill="midnightblue" stroke="midnightblue" points="266.54,-553.85 261.09,-544.77 259.69,-555.27 266.54,-553.85"/>
</g>
<!-- Node14 -->
<g id="node14" class="node">
<title>Node14</title>
<g id="a_node14"><a xlink:href="classflow_1_1net__flow_1_1Peer__socket.html#a8abde92d5189bf2a058fe8741789f814" target="_top" xlink:title="This is to sync_receive() as node_receive() is to receive().">
<polygon fill="white" stroke="red" points="0,-518.5 0,-544.5 131,-544.5 131,-518.5 0,-518.5"/>
<text text-anchor="start" x="8" y="-534.1" font-family="Helvetica,sans-Serif" font-size="8.00">flow::net_flow::Peer</text>
<text text-anchor="middle" x="65.5" y="-525.1" font-family="Helvetica,sans-Serif" font-size="8.00">_socket::node_sync_receive</text>
</a>
</g>
</g>
<!-- Node13&#45;&gt;Node14 -->
<g id="edge16" class="edge">
<title>Node13&#45;&gt;Node14</title>
<path fill="none" stroke="midnightblue" d="M174.43,-502.15C154.88,-507.47 133.27,-513.35 114.55,-518.44"/>
<polygon fill="midnightblue" stroke="midnightblue" points="175.4,-505.52 184.13,-499.52 173.56,-498.76 175.4,-505.52"/>
</g>
<!-- Node19 -->
<g id="node15" class="node">
<title>Node19</title>
<g id="a_node15"><a xlink:href="classflow_1_1net__flow_1_1Peer__socket.html#a34e2c7dfb5596269a6f86a716015f1a6" target="_top" xlink:title="This is to sync_send() as node_send() is to send().">
<polygon fill="white" stroke="red" points="5,-473.5 5,-499.5 126,-499.5 126,-473.5 5,-473.5"/>
<text text-anchor="start" x="13" y="-489.1" font-family="Helvetica,sans-Serif" font-size="8.00">flow::net_flow::Peer</text>
<text text-anchor="middle" x="65.5" y="-480.1" font-family="Helvetica,sans-Serif" font-size="8.00">_socket::node_sync_send</text>
</a>
</g>
</g>
<!-- Node13&#45;&gt;Node19 -->
<g id="edge17" class="edge">
<title>Node13&#45;&gt;Node19</title>
<path fill="none" stroke="midnightblue" d="M172.15,-486.5C157.14,-486.5 141.04,-486.5 126.05,-486.5"/>
<polygon fill="midnightblue" stroke="midnightblue" points="172.34,-490 182.34,-486.5 172.34,-483 172.34,-490"/>
</g>
<!-- Node24 -->
<g id="node16" class="node">
<title>Node24</title>
<g id="a_node16"><a xlink:href="classflow_1_1net__flow_1_1Server__socket.html#a7f374375e95e008cfe0326ecfb27cf3b" target="_top" xlink:title="Same as sync_accept() but uses a Fine_clock&#45;based Fine_duration non&#45;template type for implementation ...">
<polygon fill="white" stroke="red" points="3,-410.5 3,-436.5 128,-436.5 128,-410.5 3,-410.5"/>
<text text-anchor="start" x="11" y="-426.1" font-family="Helvetica,sans-Serif" font-size="8.00">flow::net_flow::Server</text>
<text text-anchor="middle" x="65.5" y="-417.1" font-family="Helvetica,sans-Serif" font-size="8.00">_socket::sync_accept_impl</text>
</a>
</g>
</g>
<!-- Node13&#45;&gt;Node24 -->
<g id="edge18" class="edge">
<title>Node13&#45;&gt;Node24</title>
<path fill="none" stroke="midnightblue" d="M182.16,-469.98C177.03,-468.17 171.9,-466.33 167,-464.5 143.34,-455.68 116.91,-444.86 97.1,-436.55"/>
<polygon fill="midnightblue" stroke="midnightblue" points="181.39,-473.42 191.99,-473.39 183.69,-466.8 181.39,-473.42"/>
</g>
<!-- Node24&#45;&gt;Node24 -->
<g id="edge19" class="edge">
<title>Node24&#45;&gt;Node24</title>
<path fill="none" stroke="midnightblue" d="M95.62,-446.58C92.56,-451.47 82.52,-455 65.5,-455 38.27,-455 28.9,-445.96 37.41,-436.77"/>
<polygon fill="midnightblue" stroke="midnightblue" points="99.04,-445.85 93.59,-436.77 92.19,-447.27 99.04,-445.85"/>
</g>
<!-- Node26&#45;&gt;Node26 -->
<g id="edge21" class="edge">
<title>Node26&#45;&gt;Node26</title>
<path fill="none" stroke="midnightblue" d="M437.21,-509.58C434.04,-514.47 423.64,-518 406,-518 377.78,-518 368.08,-508.96 376.9,-499.77"/>
<polygon fill="midnightblue" stroke="midnightblue" points="440.62,-508.81 435.1,-499.77 433.78,-510.28 440.62,-508.81"/>
</g>
<!-- Node28 -->
<g id="node19" class="node">
<title>Node28</title>
<g id="a_node19"><a xlink:href="classflow_1_1net__flow_1_1Peer__socket.html#aad81cc16fc6f0d353fdc1379e1dd4712" target="_top" xlink:title="Returns a structure containing the most up&#45;to&#45;date stats about this connection.">
<polygon fill="white" stroke="black" points="184.5,-428.5 184.5,-454.5 281.5,-454.5 281.5,-428.5 184.5,-428.5"/>
<text text-anchor="start" x="192.5" y="-444.1" font-family="Helvetica,sans-Serif" font-size="8.00">flow::net_flow::Peer</text>
<text text-anchor="middle" x="233" y="-435.1" font-family="Helvetica,sans-Serif" font-size="8.00">_socket::info</text>
</a>
</g>
</g>
<!-- Node27&#45;&gt;Node28 -->
<g id="edge23" class="edge">
<title>Node27&#45;&gt;Node28</title>
<path fill="none" stroke="midnightblue" d="M345.08,-441.5C324.29,-441.5 301.29,-441.5 281.63,-441.5"/>
<polygon fill="midnightblue" stroke="midnightblue" points="345.08,-445 355.08,-441.5 345.08,-438 345.08,-445"/>
</g>
<!-- Node31 -->
<g id="node22" class="node">
<title>Node31</title>
<g id="a_node22"><a xlink:href="classflow_1_1net__flow_1_1Node.html#a1699dfdaf3e5ebe1b1d715a9c306d116" target="_top" xlink:title="Handles a just&#45;received, not&#45;yet&#45;deserialized low&#45;level packet.">
<polygon fill="white" stroke="black" points="355.5,-378.5 355.5,-404.5 456.5,-404.5 456.5,-378.5 355.5,-378.5"/>
<text text-anchor="start" x="363.5" y="-394.1" font-family="Helvetica,sans-Serif" font-size="8.00">flow::net_flow::Node</text>
<text text-anchor="middle" x="406" y="-385.1" font-family="Helvetica,sans-Serif" font-size="8.00">::handle_incoming</text>
</a>
</g>
</g>
<!-- Node30&#45;&gt;Node31 -->
<g id="edge26" class="edge">
<title>Node30&#45;&gt;Node31</title>
<path fill="none" stroke="midnightblue" d="M519.33,-411.75C498.66,-408.02 476.14,-403.96 456.73,-400.47"/>
<polygon fill="midnightblue" stroke="midnightblue" points="518.85,-415.22 529.31,-413.55 520.09,-408.33 518.85,-415.22"/>
</g>
<!-- Node32 -->
<g id="node23" class="node">
<title>Node32</title>
<g id="a_node23"><a xlink:href="classflow_1_1net__flow_1_1Node.html#a4368247d07e930bdd07ab8d2425c6de8" target="_top" xlink:title="Sets up handle_incoming(packet_data, low_lvl_remote_endpoint) to be called asynchronously after a spe...">
<polygon fill="white" stroke="black" points="176.5,-374 176.5,-409 289.5,-409 289.5,-374 176.5,-374"/>
<text text-anchor="start" x="184.5" y="-398.6" font-family="Helvetica,sans-Serif" font-size="8.00">flow::net_flow::Node</text>
<text text-anchor="start" x="184.5" y="-389.6" font-family="Helvetica,sans-Serif" font-size="8.00">::async_wait_latency</text>
<text text-anchor="middle" x="233" y="-380.6" font-family="Helvetica,sans-Serif" font-size="8.00">_then_handle_incoming</text>
</a>
</g>
</g>
<!-- Node31&#45;&gt;Node32 -->
<g id="edge27" class="edge">
<title>Node31&#45;&gt;Node32</title>
<path fill="none" stroke="midnightblue" d="M345,-391.5C327.01,-391.5 307.37,-391.5 289.68,-391.5"/>
<polygon fill="midnightblue" stroke="midnightblue" points="345.08,-395 355.08,-391.5 345.08,-388 345.08,-395"/>
</g>
<!-- Node33 -->
<g id="node24" class="node">
<title>Node33</title>
<g id="a_node24"><a xlink:href="classflow_1_1net__flow_1_1Node.html#a90ecbad1ff3a8d2fe4b3ad1c474f7513" target="_top" xlink:title="Helper for low_lvl_recv_and_handle() that calls handle_incoming() on the not&#45;yet&#45;deserialized low&#45;lev...">
<polygon fill="white" stroke="red" points="9,-333 9,-368 122,-368 122,-333 9,-333"/>
<text text-anchor="start" x="17" y="-357.6" font-family="Helvetica,sans-Serif" font-size="8.00">flow::net_flow::Node</text>
<text text-anchor="start" x="17" y="-348.6" font-family="Helvetica,sans-Serif" font-size="8.00">::handle_incoming_with</text>
<text text-anchor="middle" x="65.5" y="-339.6" font-family="Helvetica,sans-Serif" font-size="8.00">_simulation</text>
</a>
</g>
</g>
<!-- Node31&#45;&gt;Node33 -->
<g id="edge30" class="edge">
<title>Node31&#45;&gt;Node33</title>
<path fill="none" stroke="midnightblue" d="M351.44,-375.76C334.78,-371.43 316.25,-367.19 299,-364.5 239.07,-355.15 169.55,-351.95 122.25,-350.9"/>
<polygon fill="midnightblue" stroke="midnightblue" points="350.98,-379.26 361.55,-378.45 352.79,-372.5 350.98,-379.26"/>
</g>
<!-- Node32&#45;&gt;Node33 -->
<g id="edge28" class="edge">
<title>Node32&#45;&gt;Node33</title>
<path fill="none" stroke="midnightblue" d="M166.44,-375.26C151.8,-371.63 136.4,-367.82 122.2,-364.3"/>
<polygon fill="midnightblue" stroke="midnightblue" points="165.88,-378.73 176.43,-377.73 167.57,-371.93 165.88,-378.73"/>
</g>
<!-- Node33&#45;&gt;Node33 -->
<g id="edge29" class="edge">
<title>Node33&#45;&gt;Node33</title>
<path fill="none" stroke="midnightblue" d="M94.41,-378.6C90.35,-383.27 80.71,-386.5 65.5,-386.5 40.54,-386.5 30.59,-377.81 35.66,-368.28"/>
<polygon fill="midnightblue" stroke="midnightblue" points="97.93,-378.56 95.34,-368.28 90.96,-377.93 97.93,-378.56"/>
</g>
<!-- Node45 -->
<g id="node33" class="node">
<title>Node45</title>
<g id="a_node33"><a xlink:href="classflow_1_1net__flow_1_1Drop__timer.html#a45d4cf2dfecc2cd5c35f452cd7c8d05d" target="_top" xlink:title="Finishes the group started by start start_contemporaneous_events().">
<polygon fill="white" stroke="black" points="335,-41 335,-76 477,-76 477,-41 335,-41"/>
<text text-anchor="start" x="343" y="-65.6" font-family="Helvetica,sans-Serif" font-size="8.00">flow::net_flow::Drop</text>
<text text-anchor="start" x="343" y="-56.6" font-family="Helvetica,sans-Serif" font-size="8.00">_timer::end_contemporaneous</text>
<text text-anchor="middle" x="406" y="-47.6" font-family="Helvetica,sans-Serif" font-size="8.00">_events</text>
</a>
</g>
</g>
<!-- Node44&#45;&gt;Node45 -->
<g id="edge39" class="edge">
<title>Node44&#45;&gt;Node45</title>
<path fill="none" stroke="midnightblue" d="M526.35,-58.5C510.61,-58.5 493.4,-58.5 477.07,-58.5"/>
<polygon fill="midnightblue" stroke="midnightblue" points="526.47,-62 536.47,-58.5 526.47,-55 526.47,-62"/>
</g>
</g>
</svg>
