<?xml version="1.0" encoding="UTF-8" standalone="no"?>
<!DOCTYPE svg PUBLIC "-//W3C//DTD SVG 1.1//EN"
 "http://www.w3.org/Graphics/SVG/1.1/DTD/svg11.dtd">
<!-- Generated by graphviz version 2.43.0 (0)
 -->
<!-- Title: flow::net_flow::Peer_socket::node_sync_send Pages: 1 -->
<svg width="427pt" height="108pt"
 viewBox="0.00 0.00 427.00 107.50" xmlns="http://www.w3.org/2000/svg" xmlns:xlink="http://www.w3.org/1999/xlink">
<g id="graph0" class="graph" transform="scale(1 1) rotate(0) translate(4 103.5)">
<title>flow::net_flow::Peer_socket::node_sync_send</title>
<polygon fill="white" stroke="transparent" points="-4,4 -4,-103.5 423,-103.5 423,4 -4,4"/>
<!-- Node1 -->
<g id="node1" class="node">
<title>Node1</title>
<g id="a_node1"><a xlink:title="This is to sync_send() as node_send() is to send().">
<polygon fill="#bfbfbf" stroke="black" points="298,-39 298,-65 419,-65 419,-39 298,-39"/>
<text text-anchor="start" x="306" y="-54.6" font-family="Helvetica,sans-Serif" font-size="8.00">flow::net_flow::Peer</text>
<text text-anchor="middle" x="358.5" y="-45.6" font-family="Helvetica,sans-Serif" font-size="8.00">_socket::node_sync_send</text>
</a>
</g>
</g>
<!-- Node2 -->
<g id="node2" class="node">
<title>Node2</title>
<g id="a_node2"><a xlink:href="classflow_1_1net__flow_1_1Peer__socket.html#a3f1a802024549a59978a53343b09a86d" target="_top" xlink:title="Same as sync_send() but uses a Fine_clock&#45;based Fine_duration non&#45;template type for implementation co...">
<polygon fill="white" stroke="black" points="139,-73 139,-99 256,-99 256,-73 139,-73"/>
<text text-anchor="start" x="147" y="-88.6" font-family="Helvetica,sans-Serif" font-size="8.00">flow::net_flow::Peer</text>
<text text-anchor="middle" x="197.5" y="-79.6" font-family="Helvetica,sans-Serif" font-size="8.00">_socket::sync_send_impl</text>
</a>
</g>
</g>
<!-- Node1&#45;&gt;Node2 -->
<g id="edge1" class="edge">
<title>Node1&#45;&gt;Node2</title>
<path fill="none" stroke="midnightblue" d="M287.8,-66.91C277.22,-69.17 266.4,-71.48 256.12,-73.68"/>
<polygon fill="midnightblue" stroke="midnightblue" points="288.79,-70.27 297.84,-64.76 287.33,-63.43 288.79,-70.27"/>
</g>
<!-- Node4 -->
<g id="node4" class="node">
<title>Node4</title>
<g id="a_node4"><a xlink:href="classflow_1_1net__flow_1_1Peer__socket.html#a15ba1d4af6d4e3fcab9534a307c00595" target="_top" xlink:title="Helper similar to sync_send_impl() but for the nullptr_t versions of sync_send().">
<polygon fill="white" stroke="black" points="133,-0.5 133,-35.5 262,-35.5 262,-0.5 133,-0.5"/>
<text text-anchor="start" x="141" y="-25.1" font-family="Helvetica,sans-Serif" font-size="8.00">flow::net_flow::Peer</text>
<text text-anchor="start" x="141" y="-16.1" font-family="Helvetica,sans-Serif" font-size="8.00">_socket::sync_send_reactor</text>
<text text-anchor="middle" x="197.5" y="-7.1" font-family="Helvetica,sans-Serif" font-size="8.00">_pattern_impl</text>
</a>
</g>
</g>
<!-- Node1&#45;&gt;Node4 -->
<g id="edge3" class="edge">
<title>Node1&#45;&gt;Node4</title>
<path fill="none" stroke="midnightblue" d="M287.91,-37.12C279.36,-35.29 270.67,-33.43 262.22,-31.62"/>
<polygon fill="midnightblue" stroke="midnightblue" points="287.33,-40.57 297.84,-39.24 288.79,-33.73 287.33,-40.57"/>
</g>
<!-- Node3 -->
<g id="node3" class="node">
<title>Node3</title>
<g id="a_node3"><a xlink:href="classflow_1_1net__flow_1_1Peer__socket.html#ae3524894fd1ba60305494dda956289d9" target="_top" xlink:title="Equivalent to sync_send(data, duration::max(), err_code); i.e., sync_send() with no timeout.">
<polygon fill="white" stroke="black" points="0,-73 0,-99 97,-99 97,-73 0,-73"/>
<text text-anchor="start" x="8" y="-88.6" font-family="Helvetica,sans-Serif" font-size="8.00">flow::net_flow::Peer</text>
<text text-anchor="middle" x="48.5" y="-79.6" font-family="Helvetica,sans-Serif" font-size="8.00">_socket::sync_send</text>
</a>
</g>
</g>
<!-- Node2&#45;&gt;Node3 -->
<g id="edge2" class="edge">
<title>Node2&#45;&gt;Node3</title>
<path fill="none" stroke="midnightblue" d="M128.66,-86C117.98,-86 107.14,-86 97.05,-86"/>
<polygon fill="midnightblue" stroke="midnightblue" points="128.82,-89.5 138.82,-86 128.82,-82.5 128.82,-89.5"/>
</g>
<!-- Node4&#45;&gt;Node4 -->
<g id="edge5" class="edge">
<title>Node4&#45;&gt;Node4</title>
<path fill="none" stroke="midnightblue" d="M223.27,-46.1C219.65,-50.77 211.06,-54 197.5,-54 175.24,-54 166.37,-45.31 170.89,-35.78"/>
<polygon fill="midnightblue" stroke="midnightblue" points="226.79,-46.03 224.11,-35.78 219.81,-45.47 226.79,-46.03"/>
</g>
<!-- Node5 -->
<g id="node5" class="node">
<title>Node5</title>
<g id="a_node5"><a xlink:href="classflow_1_1net__flow_1_1Peer__socket.html#a619b8d960e978c241f4efac0a5bcf4dc" target="_top" xlink:title="sync_send() operating in nullptr_t mode, wherein – if Writable state is reached – the actual data are...">
<polygon fill="white" stroke="black" points="0,-5 0,-31 97,-31 97,-5 0,-5"/>
<text text-anchor="start" x="8" y="-20.6" font-family="Helvetica,sans-Serif" font-size="8.00">flow::net_flow::Peer</text>
<text text-anchor="middle" x="48.5" y="-11.6" font-family="Helvetica,sans-Serif" font-size="8.00">_socket::sync_send</text>
</a>
</g>
</g>
<!-- Node4&#45;&gt;Node5 -->
<g id="edge4" class="edge">
<title>Node4&#45;&gt;Node5</title>
<path fill="none" stroke="midnightblue" d="M122.74,-18C114.08,-18 105.43,-18 97.26,-18"/>
<polygon fill="midnightblue" stroke="midnightblue" points="122.88,-21.5 132.88,-18 122.88,-14.5 122.88,-21.5"/>
</g>
</g>
</svg>
