<?xml version="1.0" encoding="UTF-8" standalone="no"?>
<!DOCTYPE svg PUBLIC "-//W3C//DTD SVG 1.1//EN"
 "http://www.w3.org/Graphics/SVG/1.1/DTD/svg11.dtd">
<!-- Generated by graphviz version 2.43.0 (0)
 -->
<!-- Title: flow::net_flow::Node::handle_data_to_established Pages: 1 -->
<svg width="441pt" height="480pt"
 viewBox="0.00 0.00 441.00 480.00" xmlns="http://www.w3.org/2000/svg" xmlns:xlink="http://www.w3.org/1999/xlink">
<g id="graph0" class="graph" transform="scale(1 1) rotate(0) translate(4 476)">
<title>flow::net_flow::Node::handle_data_to_established</title>
<polygon fill="white" stroke="transparent" points="-4,4 -4,-476 437,-476 437,4 -4,4"/>
<!-- Node1 -->
<g id="node1" class="node">
<title>Node1</title>
<g id="a_node1"><a xlink:title="Handles a just&#45;deserialized, just&#45;demultiplexed, low&#45;level DATA packet delivered to the given peer so...">
<polygon fill="#bfbfbf" stroke="black" points="0,-211.5 0,-237.5 137,-237.5 137,-211.5 0,-211.5"/>
<text text-anchor="start" x="8" y="-227.1" font-family="Helvetica,sans-Serif" font-size="8.00">flow::net_flow::Node</text>
<text text-anchor="middle" x="68.5" y="-218.1" font-family="Helvetica,sans-Serif" font-size="8.00">::handle_data_to_established</text>
</a>
</g>
</g>
<!-- Node2 -->
<g id="node2" class="node">
<title>Node2</title>
<g id="a_node2"><a xlink:href="namespaceflow_1_1util.html#a16357344c21456b86b7de3085e2661a2" target="_top" xlink:title="Identical to buffers_to_ostream() but returns an std::string instead of writing to a given ostream.">
<polygon fill="white" stroke="black" points="193.5,-423.5 193.5,-449.5 279.5,-449.5 279.5,-423.5 193.5,-423.5"/>
<text text-anchor="start" x="201.5" y="-439.1" font-family="Helvetica,sans-Serif" font-size="8.00">flow::util::buffers</text>
<text text-anchor="middle" x="236.5" y="-430.1" font-family="Helvetica,sans-Serif" font-size="8.00">_dump_string</text>
</a>
</g>
</g>
<!-- Node1&#45;&gt;Node2 -->
<g id="edge1" class="edge">
<title>Node1&#45;&gt;Node2</title>
<path fill="none" stroke="midnightblue" d="M73.06,-237.67C82.97,-271.88 114.08,-364.34 173,-414.5 176.3,-417.31 179.98,-419.77 183.87,-421.92"/>
<polygon fill="midnightblue" stroke="midnightblue" points="182.67,-425.23 193.2,-426.4 185.7,-418.92 182.67,-425.23"/>
</g>
<!-- Node5 -->
<g id="node5" class="node">
<title>Node5</title>
<g id="a_node5"><a xlink:href="classflow_1_1net__flow_1_1Peer__socket__receive__stats__accumulator.html#ab45ad2bb462371067b09ae4f97935a78" target="_top" xlink:title="Indicates total_data_packet(), but there is some error about the sequence numbers so that they are no...">
<polygon fill="white" stroke="black" points="177,-360.5 177,-404.5 296,-404.5 296,-360.5 177,-360.5"/>
<text text-anchor="start" x="185" y="-394.1" font-family="Helvetica,sans-Serif" font-size="8.00">flow::net_flow::Peer</text>
<text text-anchor="start" x="185" y="-385.1" font-family="Helvetica,sans-Serif" font-size="8.00">_socket_receive_stats</text>
<text text-anchor="start" x="185" y="-376.1" font-family="Helvetica,sans-Serif" font-size="8.00">_accumulator::error_data</text>
<text text-anchor="middle" x="236.5" y="-367.1" font-family="Helvetica,sans-Serif" font-size="8.00">_packet</text>
</a>
</g>
</g>
<!-- Node1&#45;&gt;Node5 -->
<g id="edge4" class="edge">
<title>Node1&#45;&gt;Node5</title>
<path fill="none" stroke="midnightblue" d="M77.42,-237.57C93.06,-262.46 130.1,-317.25 173,-351.5 174.37,-352.59 175.78,-353.66 177.22,-354.7"/>
<polygon fill="midnightblue" stroke="midnightblue" points="175.56,-357.79 185.83,-360.38 179.41,-351.95 175.56,-357.79"/>
</g>
<!-- Node6 -->
<g id="node6" class="node">
<title>Node6</title>
<g id="a_node6"><a xlink:href="classflow_1_1net__flow_1_1Peer__socket__receive__stats__accumulator.html#aa44f429fb274ae4fad21efbc88aa9b95" target="_top" xlink:title="Indicates total_data_packet(), and these data are new and acceptable into Receive buffer assuming the...">
<polygon fill="white" stroke="black" points="176,-297.5 176,-341.5 297,-341.5 297,-297.5 176,-297.5"/>
<text text-anchor="start" x="184" y="-331.1" font-family="Helvetica,sans-Serif" font-size="8.00">flow::net_flow::Peer</text>
<text text-anchor="start" x="184" y="-322.1" font-family="Helvetica,sans-Serif" font-size="8.00">_socket_receive_stats</text>
<text text-anchor="start" x="184" y="-313.1" font-family="Helvetica,sans-Serif" font-size="8.00">_accumulator::good_data</text>
<text text-anchor="middle" x="236.5" y="-304.1" font-family="Helvetica,sans-Serif" font-size="8.00">_packet</text>
</a>
</g>
</g>
<!-- Node1&#45;&gt;Node6 -->
<g id="edge5" class="edge">
<title>Node1&#45;&gt;Node6</title>
<path fill="none" stroke="midnightblue" d="M89.4,-237.57C110,-250.93 143.27,-271.98 173,-288.5 175.53,-289.91 178.13,-291.32 180.77,-292.73"/>
<polygon fill="midnightblue" stroke="midnightblue" points="179.36,-295.94 189.84,-297.47 182.6,-289.73 179.36,-295.94"/>
</g>
<!-- Node7 -->
<g id="node7" class="node">
<title>Node7</title>
<g id="a_node7"><a xlink:href="classflow_1_1net__flow_1_1Peer__socket__receive__stats__accumulator.html#a7f68edbb903370ec36fa2deac09288ee" target="_top" xlink:title="Indicates that good_data_delivered_packet() and therefore an individual acknowledgment for this packe...">
<polygon fill="white" stroke="black" points="181.5,-234.5 181.5,-278.5 291.5,-278.5 291.5,-234.5 181.5,-234.5"/>
<text text-anchor="start" x="189.5" y="-268.1" font-family="Helvetica,sans-Serif" font-size="8.00">flow::net_flow::Peer</text>
<text text-anchor="start" x="189.5" y="-259.1" font-family="Helvetica,sans-Serif" font-size="8.00">_socket_receive_stats</text>
<text text-anchor="start" x="189.5" y="-250.1" font-family="Helvetica,sans-Serif" font-size="8.00">_accumulator::good_to</text>
<text text-anchor="middle" x="236.5" y="-241.1" font-family="Helvetica,sans-Serif" font-size="8.00">_send_ack_packet</text>
</a>
</g>
</g>
<!-- Node1&#45;&gt;Node7 -->
<g id="edge6" class="edge">
<title>Node1&#45;&gt;Node7</title>
<path fill="none" stroke="midnightblue" d="M137.02,-237.52C148.29,-239.69 159.95,-241.94 171.14,-244.09"/>
<polygon fill="midnightblue" stroke="midnightblue" points="170.78,-247.59 181.26,-246.04 172.1,-240.71 170.78,-247.59"/>
</g>
<!-- Node8 -->
<g id="node8" class="node">
<title>Node8</title>
<g id="a_node8"><a xlink:href="classflow_1_1net__flow_1_1Peer__socket__receive__stats__accumulator.html#af841e2009909b4166ee1f821e7054eff" target="_top" xlink:title="Indicates total_data_packet(), but the arrived data have either already been received before or (more...">
<polygon fill="white" stroke="black" points="184,-171.5 184,-215.5 289,-215.5 289,-171.5 184,-171.5"/>
<text text-anchor="start" x="192" y="-205.1" font-family="Helvetica,sans-Serif" font-size="8.00">flow::net_flow::Peer</text>
<text text-anchor="start" x="192" y="-196.1" font-family="Helvetica,sans-Serif" font-size="8.00">_socket_receive_stats</text>
<text text-anchor="start" x="192" y="-187.1" font-family="Helvetica,sans-Serif" font-size="8.00">_accumulator::late_or</text>
<text text-anchor="middle" x="236.5" y="-178.1" font-family="Helvetica,sans-Serif" font-size="8.00">_dupe_data_packet</text>
</a>
</g>
</g>
<!-- Node1&#45;&gt;Node8 -->
<g id="edge7" class="edge">
<title>Node1&#45;&gt;Node8</title>
<path fill="none" stroke="midnightblue" d="M137.02,-211.89C149.22,-209.61 161.89,-207.25 173.91,-205"/>
<polygon fill="midnightblue" stroke="midnightblue" points="174.64,-208.43 183.83,-203.15 173.36,-201.54 174.64,-208.43"/>
</g>
<!-- Node9 -->
<g id="node9" class="node">
<title>Node9</title>
<g id="a_node9"><a xlink:href="classflow_1_1net__flow_1_1Peer__socket__receive__stats__accumulator.html#a67e90d9c299777769ad090b24ba060cf" target="_top" xlink:title="Indicates that late_or_dupe_data_packet() and therefore an individual acknowledgment for this packet ...">
<polygon fill="white" stroke="black" points="173,-108.5 173,-152.5 300,-152.5 300,-108.5 173,-108.5"/>
<text text-anchor="start" x="181" y="-142.1" font-family="Helvetica,sans-Serif" font-size="8.00">flow::net_flow::Peer</text>
<text text-anchor="start" x="181" y="-133.1" font-family="Helvetica,sans-Serif" font-size="8.00">_socket_receive_stats</text>
<text text-anchor="start" x="181" y="-124.1" font-family="Helvetica,sans-Serif" font-size="8.00">_accumulator::late_or</text>
<text text-anchor="middle" x="236.5" y="-115.1" font-family="Helvetica,sans-Serif" font-size="8.00">_dupe_to_send_ack_packet</text>
</a>
</g>
</g>
<!-- Node1&#45;&gt;Node9 -->
<g id="edge8" class="edge">
<title>Node1&#45;&gt;Node9</title>
<path fill="none" stroke="midnightblue" d="M90.27,-211.5C111,-198.66 143.88,-178.66 173,-162.5 176.08,-160.79 179.26,-159.06 182.47,-157.34"/>
<polygon fill="midnightblue" stroke="midnightblue" points="184.39,-160.28 191.59,-152.51 181.12,-154.1 184.39,-160.28"/>
</g>
<!-- Node10 -->
<g id="node10" class="node">
<title>Node10</title>
<g id="a_node10"><a xlink:href="classflow_1_1net__flow_1_1Peer__socket.html#a89d852e3722532d75006b024714a5cef" target="_top" xlink:title="Whether retransmission is enabled on this connection.">
<polygon fill="white" stroke="black" points="188,-63.5 188,-89.5 285,-89.5 285,-63.5 188,-63.5"/>
<text text-anchor="start" x="196" y="-79.1" font-family="Helvetica,sans-Serif" font-size="8.00">flow::net_flow::Peer</text>
<text text-anchor="middle" x="236.5" y="-70.1" font-family="Helvetica,sans-Serif" font-size="8.00">_socket::rexmit_on</text>
</a>
</g>
</g>
<!-- Node1&#45;&gt;Node10 -->
<g id="edge9" class="edge">
<title>Node1&#45;&gt;Node10</title>
<path fill="none" stroke="midnightblue" d="M77.16,-211.22C92.33,-186.01 128.61,-130.91 173,-99.5 175.82,-97.5 178.84,-95.66 181.96,-93.96"/>
<polygon fill="midnightblue" stroke="midnightblue" points="183.55,-97.08 190.99,-89.54 180.47,-90.79 183.55,-97.08"/>
</g>
<!-- Node12 -->
<g id="node12" class="node">
<title>Node12</title>
<g id="a_node12"><a xlink:href="classflow_1_1net__flow_1_1Peer__socket__receive__stats__accumulator.html#a6e40a6152711f5ee78275180612f71dd" target="_top" xlink:title="Indicates one DATA packet has been received on socket.">
<polygon fill="white" stroke="black" points="177,-0.5 177,-44.5 296,-44.5 296,-0.5 177,-0.5"/>
<text text-anchor="start" x="185" y="-34.1" font-family="Helvetica,sans-Serif" font-size="8.00">flow::net_flow::Peer</text>
<text text-anchor="start" x="185" y="-25.1" font-family="Helvetica,sans-Serif" font-size="8.00">_socket_receive_stats</text>
<text text-anchor="start" x="185" y="-16.1" font-family="Helvetica,sans-Serif" font-size="8.00">_accumulator::total_data</text>
<text text-anchor="middle" x="236.5" y="-7.1" font-family="Helvetica,sans-Serif" font-size="8.00">_packet</text>
</a>
</g>
</g>
<!-- Node1&#45;&gt;Node12 -->
<g id="edge11" class="edge">
<title>Node1&#45;&gt;Node12</title>
<path fill="none" stroke="midnightblue" d="M74.55,-211.34C86.98,-180.39 121.86,-102 173,-54.5 174.44,-53.16 175.95,-51.87 177.51,-50.61"/>
<polygon fill="midnightblue" stroke="midnightblue" points="179.63,-53.39 185.67,-44.69 175.52,-47.73 179.63,-53.39"/>
</g>
<!-- Node3 -->
<g id="node3" class="node">
<title>Node3</title>
<g id="a_node3"><a xlink:href="namespaceflow_1_1util.html#aa132928b364caefca5c3821e019924bf" target="_top" xlink:title="Writes a multi&#45; or single&#45;line string representation of the provided binary data to an output stream,...">
<polygon fill="white" stroke="black" points="341.5,-445.5 341.5,-471.5 427.5,-471.5 427.5,-445.5 341.5,-445.5"/>
<text text-anchor="start" x="349.5" y="-461.1" font-family="Helvetica,sans-Serif" font-size="8.00">flow::util::buffers</text>
<text text-anchor="middle" x="384.5" y="-452.1" font-family="Helvetica,sans-Serif" font-size="8.00">_to_ostream</text>
</a>
</g>
</g>
<!-- Node2&#45;&gt;Node3 -->
<g id="edge2" class="edge">
<title>Node2&#45;&gt;Node3</title>
<path fill="none" stroke="midnightblue" d="M279.73,-442.86C295.77,-445.28 314.24,-448.06 331.11,-450.6"/>
<polygon fill="midnightblue" stroke="midnightblue" points="330.96,-454.12 341.37,-452.15 332,-447.2 330.96,-454.12"/>
</g>
<!-- Node4 -->
<g id="node4" class="node">
<title>Node4</title>
<g id="a_node4"><a xlink:href="classflow_1_1util_1_1String__ostream.html#a7e64b069ae0e221952068c13fdc0f080" target="_top" xlink:title="Access to stream that will write to owned string.">
<polygon fill="white" stroke="black" points="343.5,-400.5 343.5,-426.5 425.5,-426.5 425.5,-400.5 343.5,-400.5"/>
<text text-anchor="start" x="351.5" y="-416.1" font-family="Helvetica,sans-Serif" font-size="8.00">flow::util::String</text>
<text text-anchor="middle" x="384.5" y="-407.1" font-family="Helvetica,sans-Serif" font-size="8.00">_ostream::os</text>
</a>
</g>
</g>
<!-- Node2&#45;&gt;Node4 -->
<g id="edge3" class="edge">
<title>Node2&#45;&gt;Node4</title>
<path fill="none" stroke="midnightblue" d="M279.73,-429.85C296.48,-427.21 315.89,-424.15 333.35,-421.4"/>
<polygon fill="midnightblue" stroke="midnightblue" points="334.04,-424.84 343.37,-419.82 332.95,-417.92 334.04,-424.84"/>
</g>
<!-- Node11 -->
<g id="node11" class="node">
<title>Node11</title>
<g id="a_node11"><a xlink:href="classflow_1_1net__flow_1_1Peer__socket.html#accf6d724ed1f145716ae3d4567f582f3" target="_top" xlink:title="Analogous to Node::opt() but for per&#45;socket options.">
<polygon fill="white" stroke="black" points="336,-63.5 336,-89.5 433,-89.5 433,-63.5 336,-63.5"/>
<text text-anchor="start" x="344" y="-79.1" font-family="Helvetica,sans-Serif" font-size="8.00">flow::net_flow::Peer</text>
<text text-anchor="middle" x="384.5" y="-70.1" font-family="Helvetica,sans-Serif" font-size="8.00">_socket::opt</text>
</a>
</g>
</g>
<!-- Node10&#45;&gt;Node11 -->
<g id="edge10" class="edge">
<title>Node10&#45;&gt;Node11</title>
<path fill="none" stroke="midnightblue" d="M285.31,-76.5C298.16,-76.5 312.21,-76.5 325.55,-76.5"/>
<polygon fill="midnightblue" stroke="midnightblue" points="325.59,-80 335.59,-76.5 325.59,-73 325.59,-80"/>
</g>
</g>
</svg>
