<?xml version="1.0" encoding="UTF-8" standalone="no"?>
<!DOCTYPE svg PUBLIC "-//W3C//DTD SVG 1.1//EN"
 "http://www.w3.org/Graphics/SVG/1.1/DTD/svg11.dtd">
<!-- Generated by graphviz version 2.43.0 (0)
 -->
<!-- Title: flow::net_flow::Node::sock_load_info_struct Pages: 1 -->
<svg width="274pt" height="72pt"
 viewBox="0.00 0.00 274.00 71.50" xmlns="http://www.w3.org/2000/svg" xmlns:xlink="http://www.w3.org/1999/xlink">
<g id="graph0" class="graph" transform="scale(1 1) rotate(0) translate(4 67.5)">
<title>flow::net_flow::Node::sock_load_info_struct</title>
<polygon fill="white" stroke="transparent" points="-4,4 -4,-67.5 270,-67.5 270,4 -4,4"/>
<!-- Node1 -->
<g id="node1" class="node">
<title>Node1</title>
<g id="a_node1"><a xlink:title="Given a Peer_socket, copies all stats info (as available via Peer_socket::info()) from various struct...">
<polygon fill="#bfbfbf" stroke="black" points="0,-20.5 0,-46.5 110,-46.5 110,-20.5 0,-20.5"/>
<text text-anchor="start" x="8" y="-36.1" font-family="Helvetica,sans-Serif" font-size="8.00">flow::net_flow::Node</text>
<text text-anchor="middle" x="55" y="-27.1" font-family="Helvetica,sans-Serif" font-size="8.00">::sock_load_info_struct</text>
</a>
</g>
</g>
<!-- Node2 -->
<g id="node2" class="node">
<title>Node2</title>
<g id="a_node2"><a xlink:href="classflow_1_1net__flow_1_1Node.html#a43c42121d48a55a43a48e3a84bd10595" target="_top" xlink:title="Obtain a copy of the value of a given option in a thread&#45;safe manner.">
<polygon fill="white" stroke="black" points="146,-46 146,-63 266,-63 266,-46 146,-46"/>
<text text-anchor="middle" x="206" y="-52.6" font-family="Helvetica,sans-Serif" font-size="8.00">flow::net_flow::Node::opt</text>
</a>
</g>
</g>
<!-- Node1&#45;&gt;Node2 -->
<g id="edge1" class="edge">
<title>Node1&#45;&gt;Node2</title>
<path fill="none" stroke="midnightblue" d="M110.21,-41.14C118.53,-42.31 127.2,-43.54 135.79,-44.75"/>
<polygon fill="midnightblue" stroke="midnightblue" points="135.4,-48.23 145.79,-46.16 136.38,-41.29 135.4,-48.23"/>
</g>
<!-- Node3 -->
<g id="node3" class="node">
<title>Node3</title>
<g id="a_node3"><a xlink:href="classflow_1_1net__flow_1_1Node.html#ac397d3fd163f1456b7bb370a3cff951c" target="_top" xlink:title="Computes and returns the currently correct rcv_wnd value; that is the amount of space free in Receive...">
<polygon fill="white" stroke="black" points="155.5,-0.5 155.5,-26.5 256.5,-26.5 256.5,-0.5 155.5,-0.5"/>
<text text-anchor="start" x="163.5" y="-16.1" font-family="Helvetica,sans-Serif" font-size="8.00">flow::net_flow::Node</text>
<text text-anchor="middle" x="206" y="-7.1" font-family="Helvetica,sans-Serif" font-size="8.00">::sock_rcv_wnd</text>
</a>
</g>
</g>
<!-- Node1&#45;&gt;Node3 -->
<g id="edge2" class="edge">
<title>Node1&#45;&gt;Node3</title>
<path fill="none" stroke="midnightblue" d="M110.21,-26.22C121.54,-24.7 133.54,-23.09 145.07,-21.54"/>
<polygon fill="midnightblue" stroke="midnightblue" points="145.59,-25.01 155.04,-20.21 144.66,-18.07 145.59,-25.01"/>
</g>
</g>
</svg>
