<?xml version="1.0" encoding="UTF-8" standalone="no"?>
<!DOCTYPE svg PUBLIC "-//W3C//DTD SVG 1.1//EN"
 "http://www.w3.org/Graphics/SVG/1.1/DTD/svg11.dtd">
<!-- Generated by graphviz version 2.43.0 (0)
 -->
<!-- Title: flow::net_flow::Server_socket::sync_accept_impl Pages: 1 -->
<svg width="700pt" height="215pt"
 viewBox="0.00 0.00 700.00 215.00" xmlns="http://www.w3.org/2000/svg" xmlns:xlink="http://www.w3.org/1999/xlink">
<g id="graph0" class="graph" transform="scale(1 1) rotate(0) translate(4 211)">
<title>flow::net_flow::Server_socket::sync_accept_impl</title>
<polygon fill="white" stroke="transparent" points="-4,4 -4,-211 696,-211 696,4 -4,4"/>
<!-- Node1 -->
<g id="node1" class="node">
<title>Node1</title>
<g id="a_node1"><a xlink:title="Same as sync_accept() but uses a Fine_clock&#45;based Fine_duration non&#45;template type for implementation ...">
<polygon fill="#bfbfbf" stroke="black" points="0,-112.5 0,-138.5 125,-138.5 125,-112.5 0,-112.5"/>
<text text-anchor="start" x="8" y="-128.1" font-family="Helvetica,sans-Serif" font-size="8.00">flow::net_flow::Server</text>
<text text-anchor="middle" x="62.5" y="-119.1" font-family="Helvetica,sans-Serif" font-size="8.00">_socket::sync_accept_impl</text>
</a>
</g>
</g>
<!-- Node1&#45;&gt;Node1 -->
<g id="edge4" class="edge">
<title>Node1&#45;&gt;Node1</title>
<path fill="none" stroke="midnightblue" d="M36.78,-138.77C28.99,-147.96 37.56,-157 62.5,-157 77.7,-157 86.82,-153.64 89.86,-148.94"/>
<polygon fill="midnightblue" stroke="midnightblue" points="93.27,-148.09 88.22,-138.77 86.35,-149.2 93.27,-148.09"/>
</g>
<!-- Node2 -->
<g id="node2" class="node">
<title>Node2</title>
<g id="a_node2"><a xlink:href="classflow_1_1net__flow_1_1Node.html#ac3c67514c259404de3f27a8cae8b0567" target="_top" xlink:title="Implementation of non&#45;blocking serv&#45;&gt;accept() for server socket serv in all cases except when serv&#45;&gt;s...">
<polygon fill="white" stroke="black" points="165.5,-180.5 165.5,-206.5 266.5,-206.5 266.5,-180.5 165.5,-180.5"/>
<text text-anchor="start" x="173.5" y="-196.1" font-family="Helvetica,sans-Serif" font-size="8.00">flow::net_flow::Node</text>
<text text-anchor="middle" x="216" y="-187.1" font-family="Helvetica,sans-Serif" font-size="8.00">::accept</text>
</a>
</g>
</g>
<!-- Node1&#45;&gt;Node2 -->
<g id="edge1" class="edge">
<title>Node1&#45;&gt;Node2</title>
<path fill="none" stroke="midnightblue" d="M90.22,-138.58C109.71,-148.01 136.84,-160.89 161,-171.5 164.81,-173.17 168.78,-174.87 172.77,-176.55"/>
<polygon fill="midnightblue" stroke="midnightblue" points="171.46,-179.8 182.04,-180.4 174.15,-173.33 171.46,-179.8"/>
</g>
<!-- Node3 -->
<g id="node3" class="node">
<title>Node3</title>
<g id="a_node3"><a xlink:href="classflow_1_1net__flow_1_1Node.html#a109a118ca312e94686595ea08dac7ad0" target="_top" xlink:title="Helper method that checks whether the given Peer_socket or Server_socket is CLOSED; if so,...">
<polygon fill="white" stroke="black" points="165.5,-135.5 165.5,-161.5 266.5,-161.5 266.5,-135.5 165.5,-135.5"/>
<text text-anchor="start" x="173.5" y="-151.1" font-family="Helvetica,sans-Serif" font-size="8.00">flow::net_flow::Node</text>
<text text-anchor="middle" x="216" y="-142.1" font-family="Helvetica,sans-Serif" font-size="8.00">::ensure_sock_open</text>
</a>
</g>
</g>
<!-- Node1&#45;&gt;Node3 -->
<g id="edge2" class="edge">
<title>Node1&#45;&gt;Node3</title>
<path fill="none" stroke="midnightblue" d="M125.12,-134.85C135.09,-136.37 145.4,-137.93 155.33,-139.44"/>
<polygon fill="midnightblue" stroke="midnightblue" points="155.09,-142.94 165.5,-140.98 156.14,-136.02 155.09,-142.94"/>
</g>
<!-- Node4 -->
<g id="node4" class="node">
<title>Node4</title>
<g id="a_node4"><a xlink:href="classflow_1_1net__flow_1_1Server__socket.html#a1f48a72439665d8754549f11a4f4c7bb" target="_top" xlink:title="Constructs object; initializes most values to well&#45;defined (0, empty, etc.) but not necessarily meani...">
<polygon fill="white" stroke="black" points="161,-90.5 161,-116.5 271,-116.5 271,-90.5 161,-90.5"/>
<text text-anchor="start" x="169" y="-106.1" font-family="Helvetica,sans-Serif" font-size="8.00">flow::net_flow::Server</text>
<text text-anchor="middle" x="216" y="-97.1" font-family="Helvetica,sans-Serif" font-size="8.00">_socket::Server_socket</text>
</a>
</g>
</g>
<!-- Node1&#45;&gt;Node4 -->
<g id="edge3" class="edge">
<title>Node1&#45;&gt;Node4</title>
<path fill="none" stroke="midnightblue" d="M125.12,-116.55C133.51,-115.33 142.13,-114.08 150.57,-112.86"/>
<polygon fill="midnightblue" stroke="midnightblue" points="151.34,-116.28 160.73,-111.38 150.33,-109.35 151.34,-116.28"/>
</g>
<!-- Node5 -->
<g id="node5" class="node">
<title>Node5</title>
<g id="a_node5"><a xlink:href="classflow_1_1net__flow_1_1Node.html#a2a4dc3d8e294bbc8423e111f52e414ae" target="_top" xlink:title="Implementation of core blocking transfer methods, namely Peer_socket::sync_send(),...">
<polygon fill="white" stroke="black" points="165.5,-45.5 165.5,-71.5 266.5,-71.5 266.5,-45.5 165.5,-45.5"/>
<text text-anchor="start" x="173.5" y="-61.1" font-family="Helvetica,sans-Serif" font-size="8.00">flow::net_flow::Node</text>
<text text-anchor="middle" x="216" y="-52.1" font-family="Helvetica,sans-Serif" font-size="8.00">::sync_op</text>
</a>
</g>
</g>
<!-- Node1&#45;&gt;Node5 -->
<g id="edge5" class="edge">
<title>Node1&#45;&gt;Node5</title>
<path fill="none" stroke="midnightblue" d="M91.09,-112.36C110.53,-103.2 137.23,-90.82 161,-80.5 164.87,-78.82 168.9,-77.11 172.95,-75.41"/>
<polygon fill="midnightblue" stroke="midnightblue" points="174.45,-78.58 182.35,-71.52 171.77,-72.11 174.45,-78.58"/>
</g>
<!-- Node6 -->
<g id="node6" class="node">
<title>Node6</title>
<g id="a_node6"><a xlink:href="classflow_1_1net__flow_1_1Node.html#a237c603bbd4845a5fc4b0370b4979b31" target="_top" xlink:title="Creates a new Event_set in Event_set::State::S_INACTIVE state with no sockets/events stored; returns ...">
<polygon fill="white" stroke="black" points="308.5,-90.5 308.5,-116.5 409.5,-116.5 409.5,-90.5 308.5,-90.5"/>
<text text-anchor="start" x="316.5" y="-106.1" font-family="Helvetica,sans-Serif" font-size="8.00">flow::net_flow::Node</text>
<text text-anchor="middle" x="359" y="-97.1" font-family="Helvetica,sans-Serif" font-size="8.00">::event_set_create</text>
</a>
</g>
</g>
<!-- Node5&#45;&gt;Node6 -->
<g id="edge6" class="edge">
<title>Node5&#45;&gt;Node6</title>
<path fill="none" stroke="midnightblue" d="M257.78,-71.52C273.14,-76.42 290.8,-82.05 306.97,-87.22"/>
<polygon fill="midnightblue" stroke="midnightblue" points="306.23,-90.65 316.82,-90.36 308.36,-83.98 306.23,-90.65"/>
</g>
<!-- Node11 -->
<g id="node11" class="node">
<title>Node11</title>
<g id="a_node11"><a xlink:href="classflow_1_1net__flow_1_1Node.html#aae148cec361b59237996a4b30c6624b5" target="_top" xlink:title="Returns true if and only if the Node is operating.">
<polygon fill="white" stroke="black" points="308.5,-45.5 308.5,-71.5 409.5,-71.5 409.5,-45.5 308.5,-45.5"/>
<text text-anchor="start" x="316.5" y="-61.1" font-family="Helvetica,sans-Serif" font-size="8.00">flow::net_flow::Node</text>
<text text-anchor="middle" x="359" y="-52.1" font-family="Helvetica,sans-Serif" font-size="8.00">::running</text>
</a>
</g>
</g>
<!-- Node5&#45;&gt;Node11 -->
<g id="edge11" class="edge">
<title>Node5&#45;&gt;Node11</title>
<path fill="none" stroke="midnightblue" d="M266.71,-58.5C276.82,-58.5 287.56,-58.5 297.98,-58.5"/>
<polygon fill="midnightblue" stroke="midnightblue" points="298.26,-62 308.26,-58.5 298.26,-55 298.26,-62"/>
</g>
<!-- Node12 -->
<g id="node12" class="node">
<title>Node12</title>
<g id="a_node12"><a xlink:href="namespaceflow_1_1util.html#a09a032f8e1e77a3afc0b7df115a773e1" target="_top" xlink:title="Provides a way to execute arbitrary (cleanup) code at the exit of the current block.">
<polygon fill="white" stroke="black" points="307,-0.5 307,-26.5 411,-26.5 411,-0.5 307,-0.5"/>
<text text-anchor="start" x="315" y="-16.1" font-family="Helvetica,sans-Serif" font-size="8.00">flow::util::setup_auto</text>
<text text-anchor="middle" x="359" y="-7.1" font-family="Helvetica,sans-Serif" font-size="8.00">_cleanup</text>
</a>
</g>
</g>
<!-- Node5&#45;&gt;Node12 -->
<g id="edge12" class="edge">
<title>Node5&#45;&gt;Node12</title>
<path fill="none" stroke="midnightblue" d="M257.78,-45.48C273.14,-40.58 290.8,-34.95 306.97,-29.78"/>
<polygon fill="midnightblue" stroke="midnightblue" points="308.36,-33.02 316.82,-26.64 306.23,-26.35 308.36,-33.02"/>
</g>
<!-- Node7 -->
<g id="node7" class="node">
<title>Node7</title>
<g id="a_node7"><a xlink:href="namespaceflow_1_1async.html#a24567271e97a67d3cae6bd8bf8dc63c4" target="_top" xlink:title="An extension of boost.asio&#39;s post() and dispatch() free function templates, this free function templa...">
<polygon fill="white" stroke="black" points="447,-113.5 447,-139.5 556,-139.5 556,-113.5 447,-113.5"/>
<text text-anchor="start" x="455" y="-129.1" font-family="Helvetica,sans-Serif" font-size="8.00">flow::async::asio_exec</text>
<text text-anchor="middle" x="501.5" y="-120.1" font-family="Helvetica,sans-Serif" font-size="8.00">_ctx_post</text>
</a>
</g>
</g>
<!-- Node6&#45;&gt;Node7 -->
<g id="edge7" class="edge">
<title>Node6&#45;&gt;Node7</title>
<path fill="none" stroke="midnightblue" d="M409.54,-111.61C418.26,-113.04 427.45,-114.54 436.51,-116.02"/>
<polygon fill="midnightblue" stroke="midnightblue" points="436.2,-119.52 446.64,-117.68 437.33,-112.61 436.2,-119.52"/>
</g>
<!-- Node10 -->
<g id="node10" class="node">
<title>Node10</title>
<g id="a_node10"><a xlink:href="classflow_1_1log_1_1Log__context.html#af4db395042b065b00398cd59845dcb4d" target="_top" xlink:title="Returns the stored Logger pointer, particularly as many FLOW_LOG_*() macros expect.">
<polygon fill="white" stroke="black" points="448,-68.5 448,-94.5 555,-94.5 555,-68.5 448,-68.5"/>
<text text-anchor="start" x="456" y="-84.1" font-family="Helvetica,sans-Serif" font-size="8.00">flow::log::Log_context</text>
<text text-anchor="middle" x="501.5" y="-75.1" font-family="Helvetica,sans-Serif" font-size="8.00">::get_logger</text>
</a>
</g>
</g>
<!-- Node6&#45;&gt;Node10 -->
<g id="edge10" class="edge">
<title>Node6&#45;&gt;Node10</title>
<path fill="none" stroke="midnightblue" d="M409.54,-95.74C418.59,-94.33 428.14,-92.83 437.52,-91.36"/>
<polygon fill="midnightblue" stroke="midnightblue" points="438.26,-94.79 447.6,-89.78 437.18,-87.87 438.26,-94.79"/>
</g>
<!-- Node8 -->
<g id="node8" class="node">
<title>Node8</title>
<g id="a_node8"><a xlink:href="namespaceflow_1_1async.html#a4cce43f39672e80cba5512103c53ae60" target="_top" xlink:title="Returns the 0&#45;based processor logical (not hardware) core index of the core executing the calling thr...">
<polygon fill="white" stroke="black" points="592,-138 592,-155 692,-155 692,-138 592,-138"/>
<text text-anchor="middle" x="642" y="-144.6" font-family="Helvetica,sans-Serif" font-size="8.00">flow::async::cpu_idx</text>
</a>
</g>
</g>
<!-- Node7&#45;&gt;Node8 -->
<g id="edge8" class="edge">
<title>Node7&#45;&gt;Node8</title>
<path fill="none" stroke="midnightblue" d="M556.05,-134.23C564.47,-135.45 573.23,-136.71 581.77,-137.95"/>
<polygon fill="midnightblue" stroke="midnightblue" points="581.28,-141.41 591.67,-139.38 582.28,-134.48 581.28,-141.41"/>
</g>
<!-- Node9 -->
<g id="node9" class="node">
<title>Node9</title>
<g id="a_node9"><a xlink:href="classflow_1_1log_1_1Logger.html#ac8a2e7a33fe3fbc0c29ead62ed98c022" target="_top" xlink:title="Given attributes of a hypothetical message that would be logged, return true if that message should b...">
<polygon fill="white" stroke="black" points="596,-92.5 596,-118.5 688,-118.5 688,-92.5 596,-92.5"/>
<text text-anchor="start" x="604" y="-108.1" font-family="Helvetica,sans-Serif" font-size="8.00">flow::log::Logger::</text>
<text text-anchor="middle" x="642" y="-99.1" font-family="Helvetica,sans-Serif" font-size="8.00">should_log</text>
</a>
</g>
</g>
<!-- Node7&#45;&gt;Node9 -->
<g id="edge9" class="edge">
<title>Node7&#45;&gt;Node9</title>
<path fill="none" stroke="midnightblue" d="M556.05,-118.38C565.77,-116.91 575.92,-115.37 585.68,-113.89"/>
<polygon fill="midnightblue" stroke="midnightblue" points="586.33,-117.33 595.69,-112.37 585.28,-110.41 586.33,-117.33"/>
</g>
</g>
</svg>
