<?xml version="1.0" encoding="UTF-8" standalone="no"?>
<!DOCTYPE svg PUBLIC "-//W3C//DTD SVG 1.1//EN"
 "http://www.w3.org/Graphics/SVG/1.1/DTD/svg11.dtd">
<!-- Generated by graphviz version 2.43.0 (0)
 -->
<!-- Title: flow::perf::Checkpointing_timer::now Pages: 1 -->
<svg width="293pt" height="80pt"
 viewBox="0.00 0.00 293.00 80.00" xmlns="http://www.w3.org/2000/svg" xmlns:xlink="http://www.w3.org/1999/xlink">
<g id="graph0" class="graph" transform="scale(1 1) rotate(0) translate(4 76)">
<title>flow::perf::Checkpointing_timer::now</title>
<polygon fill="white" stroke="transparent" points="-4,4 -4,-76 289,-76 289,4 -4,4"/>
<!-- Node1 -->
<g id="node1" class="node">
<title>Node1</title>
<g id="a_node1"><a xlink:title="Based on the passed in clock_type argument, the current time is returned for that one particular cloc...">
<polygon fill="#bfbfbf" stroke="black" points="0,-22.5 0,-48.5 119,-48.5 119,-22.5 0,-22.5"/>
<text text-anchor="start" x="8" y="-38.1" font-family="Helvetica,sans-Serif" font-size="8.00">flow::perf::Checkpointing</text>
<text text-anchor="middle" x="59.5" y="-29.1" font-family="Helvetica,sans-Serif" font-size="8.00">_timer::now</text>
</a>
</g>
</g>
<!-- Node2 -->
<g id="node2" class="node">
<title>Node2</title>
<g id="a_node2"><a xlink:href="classflow_1_1perf_1_1Checkpointing__timer.html#a82e717d5b1f6df56dc70b26c7da100f3" target="_top" xlink:title="Returns individual Time_pt value returnable by now() various overloads: either the user time or syste...">
<polygon fill="white" stroke="black" points="160.5,-45.5 160.5,-71.5 279.5,-71.5 279.5,-45.5 160.5,-45.5"/>
<text text-anchor="start" x="168.5" y="-61.1" font-family="Helvetica,sans-Serif" font-size="8.00">flow::perf::Checkpointing</text>
<text text-anchor="middle" x="220" y="-52.1" font-family="Helvetica,sans-Serif" font-size="8.00">_timer::now_cpu_lo_res</text>
</a>
</g>
</g>
<!-- Node1&#45;&gt;Node2 -->
<g id="edge1" class="edge">
<title>Node1&#45;&gt;Node2</title>
<path fill="none" stroke="midnightblue" d="M119.07,-44C129.29,-45.48 140.01,-47.04 150.48,-48.56"/>
<polygon fill="midnightblue" stroke="midnightblue" points="150.01,-52.03 160.41,-50 151.01,-45.1 150.01,-52.03"/>
</g>
<!-- Node3 -->
<g id="node3" class="node">
<title>Node3</title>
<g id="a_node3"><a xlink:href="classflow_1_1perf_1_1Checkpointing__timer.html#a7c799f400ceddd5ad5529fa66f026fd0" target="_top" xlink:title="Returns the current Cpu_split_clock time, essentially as a combo struct containing raw (integer) coun...">
<polygon fill="white" stroke="black" points="155,-0.5 155,-26.5 285,-26.5 285,-0.5 155,-0.5"/>
<text text-anchor="start" x="163" y="-16.1" font-family="Helvetica,sans-Serif" font-size="8.00">flow::perf::Checkpointing</text>
<text text-anchor="middle" x="220" y="-7.1" font-family="Helvetica,sans-Serif" font-size="8.00">_timer::now_cpu_lo_res_raw</text>
</a>
</g>
</g>
<!-- Node1&#45;&gt;Node3 -->
<g id="edge2" class="edge">
<title>Node1&#45;&gt;Node3</title>
<path fill="none" stroke="midnightblue" d="M119.07,-27.37C127.44,-26.21 136.13,-25 144.75,-23.81"/>
<polygon fill="midnightblue" stroke="midnightblue" points="145.38,-27.25 154.81,-22.41 144.42,-20.32 145.38,-27.25"/>
</g>
</g>
</svg>
