<?xml version="1.0" encoding="UTF-8" standalone="no"?>
<!DOCTYPE svg PUBLIC "-//W3C//DTD SVG 1.1//EN"
 "http://www.w3.org/Graphics/SVG/1.1/DTD/svg11.dtd">
<!-- Generated by graphviz version 2.43.0 (0)
 -->
<!-- Title: flow::net_flow::Node::listen_worker Pages: 1 -->
<svg width="588pt" height="274pt"
 viewBox="0.00 0.00 588.00 273.50" xmlns="http://www.w3.org/2000/svg" xmlns:xlink="http://www.w3.org/1999/xlink">
<g id="graph0" class="graph" transform="scale(1 1) rotate(0) translate(4 269.5)">
<title>flow::net_flow::Node::listen_worker</title>
<polygon fill="white" stroke="transparent" points="-4,4 -4,-269.5 584,-269.5 584,4 -4,4"/>
<!-- Node1 -->
<g id="node1" class="node">
<title>Node1</title>
<g id="a_node1"><a xlink:title="Thread W implementation of listen().">
<polygon fill="#bfbfbf" stroke="black" points="0,-134.5 0,-160.5 101,-160.5 101,-134.5 0,-134.5"/>
<text text-anchor="start" x="8" y="-150.1" font-family="Helvetica,sans-Serif" font-size="8.00">flow::net_flow::Node</text>
<text text-anchor="middle" x="50.5" y="-141.1" font-family="Helvetica,sans-Serif" font-size="8.00">::listen_worker</text>
</a>
</g>
</g>
<!-- Node2 -->
<g id="node2" class="node">
<title>Node2</title>
<g id="a_node2"><a xlink:href="namespaceflow_1_1util.html#a03984e29450abf9cf287c501d6c8f866" target="_top" xlink:title="Returns true if and only if the given key is present at least once in the given associative container...">
<polygon fill="white" stroke="black" points="144,-248 144,-265 243,-265 243,-248 144,-248"/>
<text text-anchor="middle" x="193.5" y="-254.6" font-family="Helvetica,sans-Serif" font-size="8.00">flow::util::key_exists</text>
</a>
</g>
</g>
<!-- Node1&#45;&gt;Node2 -->
<g id="edge1" class="edge">
<title>Node1&#45;&gt;Node2</title>
<path fill="none" stroke="midnightblue" d="M60.45,-160.62C74.52,-180.29 103.68,-217.37 137,-238.5 140.32,-240.61 143.91,-242.49 147.61,-244.16"/>
<polygon fill="midnightblue" stroke="midnightblue" points="146.37,-247.44 156.96,-247.92 148.98,-240.94 146.37,-247.44"/>
</g>
<!-- Node3 -->
<g id="node3" class="node">
<title>Node3</title>
<g id="a_node3"><a xlink:href="classflow_1_1net__flow_1_1Port__space.html#a1168841ecd09d3187f9803eac2b8b703" target="_top" xlink:title="Reserve the specified service port, or reserve_ephemeral_port() if the specified port is S_PORT_ANY.">
<polygon fill="white" stroke="black" points="142.5,-202.5 142.5,-228.5 244.5,-228.5 244.5,-202.5 142.5,-202.5"/>
<text text-anchor="start" x="150.5" y="-218.1" font-family="Helvetica,sans-Serif" font-size="8.00">flow::net_flow::Port</text>
<text text-anchor="middle" x="193.5" y="-209.1" font-family="Helvetica,sans-Serif" font-size="8.00">_space::reserve_port</text>
</a>
</g>
</g>
<!-- Node1&#45;&gt;Node3 -->
<g id="edge2" class="edge">
<title>Node1&#45;&gt;Node3</title>
<path fill="none" stroke="midnightblue" d="M74,-160.53C91.03,-170.17 115.15,-183.33 137,-193.5 140.6,-195.17 144.36,-196.84 148.16,-198.46"/>
<polygon fill="midnightblue" stroke="midnightblue" points="147.02,-201.78 157.6,-202.38 149.71,-195.31 147.02,-201.78"/>
</g>
<!-- Node8 -->
<g id="node8" class="node">
<title>Node8</title>
<g id="a_node8"><a xlink:href="classflow_1_1net__flow_1_1Port__space.html#a9fe1be917ff7584ff587b5da5967127a" target="_top" xlink:title="Return a previously reserved port (of any type).">
<polygon fill="white" stroke="black" points="145.5,-157.5 145.5,-183.5 241.5,-183.5 241.5,-157.5 145.5,-157.5"/>
<text text-anchor="start" x="153.5" y="-173.1" font-family="Helvetica,sans-Serif" font-size="8.00">flow::net_flow::Port</text>
<text text-anchor="middle" x="193.5" y="-164.1" font-family="Helvetica,sans-Serif" font-size="8.00">_space::return_port</text>
</a>
</g>
</g>
<!-- Node1&#45;&gt;Node8 -->
<g id="edge7" class="edge">
<title>Node1&#45;&gt;Node8</title>
<path fill="none" stroke="midnightblue" d="M101.21,-155.61C112.14,-157.39 123.8,-159.29 135,-161.12"/>
<polygon fill="midnightblue" stroke="midnightblue" points="134.7,-164.62 145.13,-162.77 135.82,-157.71 134.7,-164.62"/>
</g>
<!-- Node9 -->
<g id="node9" class="node">
<title>Node9</title>
<g id="a_node9"><a xlink:href="classflow_1_1net__flow_1_1Node.html#a0a91542fce634cf6a749c71f225b105a" target="_top" xlink:title="Internal factory used for ALL Server_socket objects created by this Node (including subclasses).">
<polygon fill="white" stroke="black" points="143,-112.5 143,-138.5 244,-138.5 244,-112.5 143,-112.5"/>
<text text-anchor="start" x="151" y="-128.1" font-family="Helvetica,sans-Serif" font-size="8.00">flow::net_flow::Node</text>
<text text-anchor="middle" x="193.5" y="-119.1" font-family="Helvetica,sans-Serif" font-size="8.00">::serv_create</text>
</a>
</g>
</g>
<!-- Node1&#45;&gt;Node9 -->
<g id="edge10" class="edge">
<title>Node1&#45;&gt;Node9</title>
<path fill="none" stroke="midnightblue" d="M101.21,-139.74C111.43,-138.15 122.28,-136.46 132.8,-134.81"/>
<polygon fill="midnightblue" stroke="midnightblue" points="133.42,-138.26 142.76,-133.26 132.34,-131.34 133.42,-138.26"/>
</g>
<!-- Node10 -->
<g id="node10" class="node">
<title>Node10</title>
<g id="a_node10"><a xlink:href="classflow_1_1net__flow_1_1Node.html#a0bac29a091e1026e5b4f0b5d84a710c7" target="_top" xlink:title="Sets Server_socket::m_state.">
<polygon fill="white" stroke="black" points="143,-67.5 143,-93.5 244,-93.5 244,-67.5 143,-67.5"/>
<text text-anchor="start" x="151" y="-83.1" font-family="Helvetica,sans-Serif" font-size="8.00">flow::net_flow::Node</text>
<text text-anchor="middle" x="193.5" y="-74.1" font-family="Helvetica,sans-Serif" font-size="8.00">::serv_set_state</text>
</a>
</g>
</g>
<!-- Node1&#45;&gt;Node10 -->
<g id="edge11" class="edge">
<title>Node1&#45;&gt;Node10</title>
<path fill="none" stroke="midnightblue" d="M74.75,-134.4C91.76,-125.03 115.51,-112.38 137,-102.5 140.76,-100.77 144.7,-99.05 148.67,-97.37"/>
<polygon fill="midnightblue" stroke="midnightblue" points="150.01,-100.6 157.91,-93.55 147.34,-94.13 150.01,-100.6"/>
</g>
<!-- Node11 -->
<g id="node11" class="node">
<title>Node11</title>
<g id="a_node11"><a xlink:href="classflow_1_1net__flow_1_1Node.html#a446ee7115c70cbcd48e3897d32fc0276" target="_top" xlink:title="Analogous to validate_options() but checks per&#45;socket options instead of per&#45;Node options.">
<polygon fill="white" stroke="black" points="137,-22.5 137,-48.5 250,-48.5 250,-22.5 137,-22.5"/>
<text text-anchor="start" x="145" y="-38.1" font-family="Helvetica,sans-Serif" font-size="8.00">flow::net_flow::Node</text>
<text text-anchor="middle" x="193.5" y="-29.1" font-family="Helvetica,sans-Serif" font-size="8.00">::sock_validate_options</text>
</a>
</g>
</g>
<!-- Node1&#45;&gt;Node11 -->
<g id="edge12" class="edge">
<title>Node1&#45;&gt;Node11</title>
<path fill="none" stroke="midnightblue" d="M60.89,-134.48C75.32,-115.29 104.68,-79.34 137,-57.5 139.26,-55.97 141.64,-54.53 144.09,-53.17"/>
<polygon fill="midnightblue" stroke="midnightblue" points="145.84,-56.21 153.19,-48.58 142.69,-49.95 145.84,-56.21"/>
</g>
<!-- Node4 -->
<g id="node4" class="node">
<title>Node4</title>
<g id="a_node4"><a xlink:href="classflow_1_1net__flow_1_1Port__space.html#ac43e4303aac2bde697b99bf03901ec85" target="_top" xlink:title="Returns true if and only if the given port is a service port (as opposed to ephemeral or S_PORT_ANY).">
<polygon fill="white" stroke="black" points="305.5,-178.5 305.5,-204.5 416.5,-204.5 416.5,-178.5 305.5,-178.5"/>
<text text-anchor="start" x="313.5" y="-194.1" font-family="Helvetica,sans-Serif" font-size="8.00">flow::net_flow::Port</text>
<text text-anchor="middle" x="361" y="-185.1" font-family="Helvetica,sans-Serif" font-size="8.00">_space::is_service_port</text>
</a>
</g>
</g>
<!-- Node3&#45;&gt;Node4 -->
<g id="edge3" class="edge">
<title>Node3&#45;&gt;Node4</title>
<path fill="none" stroke="midnightblue" d="M244.6,-208.23C260.52,-205.93 278.35,-203.34 295.15,-200.9"/>
<polygon fill="midnightblue" stroke="midnightblue" points="296.06,-204.31 305.45,-199.41 295.05,-197.38 296.06,-204.31"/>
</g>
<!-- Node6 -->
<g id="node6" class="node">
<title>Node6</title>
<g id="a_node6"><a xlink:href="classflow_1_1net__flow_1_1Port__space.html#a65dbe99c7c4433e6c090f26c92ab3f78" target="_top" xlink:title="Reserve a randomly chosen available ephemeral port.">
<polygon fill="white" stroke="black" points="286,-223.5 286,-249.5 436,-249.5 436,-223.5 286,-223.5"/>
<text text-anchor="start" x="294" y="-239.1" font-family="Helvetica,sans-Serif" font-size="8.00">flow::net_flow::Port</text>
<text text-anchor="middle" x="361" y="-230.1" font-family="Helvetica,sans-Serif" font-size="8.00">_space::reserve_ephemeral_port</text>
</a>
</g>
</g>
<!-- Node3&#45;&gt;Node6 -->
<g id="edge5" class="edge">
<title>Node3&#45;&gt;Node6</title>
<path fill="none" stroke="midnightblue" d="M244.6,-221.86C254.48,-223.11 265.1,-224.46 275.75,-225.81"/>
<polygon fill="midnightblue" stroke="midnightblue" points="275.58,-229.32 285.95,-227.1 276.47,-222.37 275.58,-229.32"/>
</g>
<!-- Node5 -->
<g id="node5" class="node">
<title>Node5</title>
<g id="a_node5"><a xlink:href="namespaceflow_1_1util.html#a024ddda9acb2b66f2a1b35cdb0c016aa" target="_top" xlink:title="Returns true if and only if the given value is within the given range, given as a [low,...">
<polygon fill="white" stroke="black" points="478,-155.5 478,-181.5 574,-181.5 574,-155.5 478,-155.5"/>
<text text-anchor="start" x="486" y="-171.1" font-family="Helvetica,sans-Serif" font-size="8.00">flow::util::in_closed</text>
<text text-anchor="middle" x="526" y="-162.1" font-family="Helvetica,sans-Serif" font-size="8.00">_open_range</text>
</a>
</g>
</g>
<!-- Node4&#45;&gt;Node5 -->
<g id="edge4" class="edge">
<title>Node4&#45;&gt;Node5</title>
<path fill="none" stroke="midnightblue" d="M416.73,-183.78C433.12,-181.46 451.14,-178.92 467.69,-176.59"/>
<polygon fill="midnightblue" stroke="midnightblue" points="468.36,-180.03 477.78,-175.16 467.39,-173.1 468.36,-180.03"/>
</g>
<!-- Node7 -->
<g id="node7" class="node">
<title>Node7</title>
<g id="a_node7"><a xlink:href="classflow_1_1net__flow_1_1Port__space.html#ad5a6a34a24c95364bb8348e5030d955b" target="_top" xlink:title="Helper method that, given a reference to a bit set representing available ports (1 available,...">
<polygon fill="white" stroke="black" points="472,-219 472,-254 580,-254 580,-219 472,-219"/>
<text text-anchor="start" x="480" y="-243.6" font-family="Helvetica,sans-Serif" font-size="8.00">flow::net_flow::Port</text>
<text text-anchor="start" x="480" y="-234.6" font-family="Helvetica,sans-Serif" font-size="8.00">_space::find_available</text>
<text text-anchor="middle" x="526" y="-225.6" font-family="Helvetica,sans-Serif" font-size="8.00">_port_bit_idx</text>
</a>
</g>
</g>
<!-- Node6&#45;&gt;Node7 -->
<g id="edge6" class="edge">
<title>Node6&#45;&gt;Node7</title>
<path fill="none" stroke="midnightblue" d="M436.35,-236.5C444.73,-236.5 453.21,-236.5 461.44,-236.5"/>
<polygon fill="midnightblue" stroke="midnightblue" points="461.7,-240 471.7,-236.5 461.7,-233 461.7,-240"/>
</g>
<!-- Node8&#45;&gt;Node4 -->
<g id="edge9" class="edge">
<title>Node8&#45;&gt;Node4</title>
<path fill="none" stroke="midnightblue" d="M241.93,-176.52C258.45,-178.61 277.3,-181.01 295,-183.25"/>
<polygon fill="midnightblue" stroke="midnightblue" points="294.91,-186.77 305.27,-184.56 295.79,-179.82 294.91,-186.77"/>
</g>
<!-- Node8&#45;&gt;Node5 -->
<g id="edge8" class="edge">
<title>Node8&#45;&gt;Node5</title>
<path fill="none" stroke="midnightblue" d="M241.52,-169.28C255.8,-168.96 271.54,-168.66 286,-168.5 348.04,-167.82 419.14,-167.94 467.56,-168.15"/>
<polygon fill="midnightblue" stroke="midnightblue" points="467.82,-171.65 477.84,-168.2 467.85,-164.65 467.82,-171.65"/>
</g>
<!-- Node12 -->
<g id="node12" class="node">
<title>Node12</title>
<g id="a_node12"><a xlink:href="namespaceflow_1_1util.html#ab10bc9e8bef148f875aa743fe0852743" target="_top" xlink:title="Returns true if and only if the given value is within the given range, inclusive.">
<polygon fill="white" stroke="black" points="313,-0.5 313,-26.5 409,-26.5 409,-0.5 313,-0.5"/>
<text text-anchor="start" x="321" y="-16.1" font-family="Helvetica,sans-Serif" font-size="8.00">flow::util::in_closed</text>
<text text-anchor="middle" x="361" y="-7.1" font-family="Helvetica,sans-Serif" font-size="8.00">_range</text>
</a>
</g>
</g>
<!-- Node11&#45;&gt;Node12 -->
<g id="edge13" class="edge">
<title>Node11&#45;&gt;Node12</title>
<path fill="none" stroke="midnightblue" d="M250.07,-28.11C266.94,-25.87 285.52,-23.4 302.51,-21.14"/>
<polygon fill="midnightblue" stroke="midnightblue" points="303.41,-24.55 312.87,-19.77 302.49,-17.61 303.41,-24.55"/>
</g>
<!-- Node13 -->
<g id="node13" class="node">
<title>Node13</title>
<g id="a_node13"><a xlink:href="namespaceflow_1_1util.html#a8ae762ea4f743a98a73953d7f9ec2164" target="_top" xlink:title="Returns true if and only if the given value is within the given range, given as a (low,...">
<polygon fill="white" stroke="black" points="316,-45.5 316,-71.5 406,-71.5 406,-45.5 316,-45.5"/>
<text text-anchor="start" x="324" y="-61.1" font-family="Helvetica,sans-Serif" font-size="8.00">flow::util::in_open</text>
<text text-anchor="middle" x="361" y="-52.1" font-family="Helvetica,sans-Serif" font-size="8.00">_closed_range</text>
</a>
</g>
</g>
<!-- Node11&#45;&gt;Node13 -->
<g id="edge14" class="edge">
<title>Node11&#45;&gt;Node13</title>
<path fill="none" stroke="midnightblue" d="M250.07,-43.22C267.97,-45.71 287.77,-48.46 305.59,-50.94"/>
<polygon fill="midnightblue" stroke="midnightblue" points="305.43,-54.45 315.82,-52.36 306.39,-47.52 305.43,-54.45"/>
</g>
</g>
</svg>
