<?xml version="1.0" encoding="UTF-8" standalone="no"?>
<!DOCTYPE svg PUBLIC "-//W3C//DTD SVG 1.1//EN"
 "http://www.w3.org/Graphics/SVG/1.1/DTD/svg11.dtd">
<!-- Generated by graphviz version 2.43.0 (0)
 -->
<!-- Title: flow::net_flow::Node::sock_track_new_data_after_gap_rexmit_off Pages: 1 -->
<svg width="272pt" height="98pt"
 viewBox="0.00 0.00 272.00 98.00" xmlns="http://www.w3.org/2000/svg" xmlns:xlink="http://www.w3.org/1999/xlink">
<g id="graph0" class="graph" transform="scale(1 1) rotate(0) translate(4 94)">
<title>flow::net_flow::Node::sock_track_new_data_after_gap_rexmit_off</title>
<polygon fill="white" stroke="transparent" points="-4,4 -4,-94 268,-94 268,4 -4,4"/>
<!-- Node1 -->
<g id="node1" class="node">
<title>Node1</title>
<g id="a_node1"><a xlink:title="Helper for handle_data_to_established() that aims to register the given DATA packet as an out&#45;of&#45;orde...">
<polygon fill="#bfbfbf" stroke="black" points="0,-32 0,-67 109,-67 109,-32 0,-32"/>
<text text-anchor="start" x="8" y="-56.6" font-family="Helvetica,sans-Serif" font-size="8.00">flow::net_flow::Node</text>
<text text-anchor="start" x="8" y="-47.6" font-family="Helvetica,sans-Serif" font-size="8.00">::sock_track_new_data</text>
<text text-anchor="middle" x="54.5" y="-38.6" font-family="Helvetica,sans-Serif" font-size="8.00">_after_gap_rexmit_off</text>
</a>
</g>
</g>
<!-- Node2 -->
<g id="node2" class="node">
<title>Node2</title>
<g id="a_node2"><a xlink:href="classflow_1_1log_1_1Log__context.html#af4db395042b065b00398cd59845dcb4d" target="_top" xlink:title="Returns the stored Logger pointer, particularly as many FLOW_LOG_*() macros expect.">
<polygon fill="white" stroke="black" points="151,-63.5 151,-89.5 258,-89.5 258,-63.5 151,-63.5"/>
<text text-anchor="start" x="159" y="-79.1" font-family="Helvetica,sans-Serif" font-size="8.00">flow::log::Log_context</text>
<text text-anchor="middle" x="204.5" y="-70.1" font-family="Helvetica,sans-Serif" font-size="8.00">::get_logger</text>
</a>
</g>
</g>
<!-- Node1&#45;&gt;Node2 -->
<g id="edge1" class="edge">
<title>Node1&#45;&gt;Node2</title>
<path fill="none" stroke="midnightblue" d="M109.35,-59.32C119.62,-61.2 130.45,-63.17 140.97,-65.09"/>
<polygon fill="midnightblue" stroke="midnightblue" points="140.46,-68.56 150.93,-66.91 141.72,-61.67 140.46,-68.56"/>
</g>
<!-- Node3 -->
<g id="node3" class="node">
<title>Node3</title>
<g id="a_node3"><a xlink:href="classflow_1_1net__flow_1_1Peer__socket__receive__stats__accumulator.html#a31080df078b6408b60fab6f3d8396369" target="_top" xlink:title="Indicates that one or more unreceived data packets have been considered Dropped due to the number of ...">
<polygon fill="white" stroke="black" points="145,-0.5 145,-44.5 264,-44.5 264,-0.5 145,-0.5"/>
<text text-anchor="start" x="153" y="-34.1" font-family="Helvetica,sans-Serif" font-size="8.00">flow::net_flow::Peer</text>
<text text-anchor="start" x="153" y="-25.1" font-family="Helvetica,sans-Serif" font-size="8.00">_socket_receive_stats</text>
<text text-anchor="start" x="153" y="-16.1" font-family="Helvetica,sans-Serif" font-size="8.00">_accumulator::presumed</text>
<text text-anchor="middle" x="204.5" y="-7.1" font-family="Helvetica,sans-Serif" font-size="8.00">_dropped_data</text>
</a>
</g>
</g>
<!-- Node1&#45;&gt;Node3 -->
<g id="edge2" class="edge">
<title>Node1&#45;&gt;Node3</title>
<path fill="none" stroke="midnightblue" d="M109.35,-39.68C117.67,-38.16 126.35,-36.57 134.94,-35.01"/>
<polygon fill="midnightblue" stroke="midnightblue" points="135.73,-38.42 144.94,-33.18 134.48,-31.53 135.73,-38.42"/>
</g>
</g>
</svg>
