<?xml version="1.0" encoding="UTF-8" standalone="no"?>
<!DOCTYPE svg PUBLIC "-//W3C//DTD SVG 1.1//EN"
 "http://www.w3.org/Graphics/SVG/1.1/DTD/svg11.dtd">
<!-- Generated by graphviz version 2.43.0 (0)
 -->
<!-- Title: flow::net_flow::Congestion_control_classic_with_bandwidth_est::on_individual_ack Pages: 1 -->
<svg width="318pt" height="44pt"
 viewBox="0.00 0.00 318.00 44.00" xmlns="http://www.w3.org/2000/svg" xmlns:xlink="http://www.w3.org/1999/xlink">
<g id="graph0" class="graph" transform="scale(1 1) rotate(0) translate(4 40)">
<title>flow::net_flow::Congestion_control_classic_with_bandwidth_est::on_individual_ack</title>
<polygon fill="white" stroke="transparent" points="-4,4 -4,-40 314,-40 314,4 -4,4"/>
<!-- Node1 -->
<g id="node1" class="node">
<title>Node1</title>
<g id="a_node1"><a xlink:title="Implements Congestion_control_strategy::on_individual_ack() API.">
<polygon fill="#bfbfbf" stroke="black" points="0,-0.5 0,-35.5 149,-35.5 149,-0.5 0,-0.5"/>
<text text-anchor="start" x="8" y="-25.1" font-family="Helvetica,sans-Serif" font-size="8.00">flow::net_flow::Congestion</text>
<text text-anchor="start" x="8" y="-16.1" font-family="Helvetica,sans-Serif" font-size="8.00">_control_classic_with_bandwidth</text>
<text text-anchor="middle" x="74.5" y="-7.1" font-family="Helvetica,sans-Serif" font-size="8.00">_est::on_individual_ack</text>
</a>
</g>
</g>
<!-- Node2 -->
<g id="node2" class="node">
<title>Node2</title>
<g id="a_node2"><a xlink:href="classflow_1_1net__flow_1_1Congestion__control__strategy.html#a3e9786f9e5f170ca23135a2a815bc3f4" target="_top" xlink:title="Utility for subclasses that returns a handle to the containing Peer_socket.">
<polygon fill="white" stroke="black" points="185,-5 185,-31 310,-31 310,-5 185,-5"/>
<text text-anchor="start" x="193" y="-20.6" font-family="Helvetica,sans-Serif" font-size="8.00">flow::net_flow::Congestion</text>
<text text-anchor="middle" x="247.5" y="-11.6" font-family="Helvetica,sans-Serif" font-size="8.00">_control_strategy::socket</text>
</a>
</g>
</g>
<!-- Node1&#45;&gt;Node2 -->
<g id="edge1" class="edge">
<title>Node1&#45;&gt;Node2</title>
<path fill="none" stroke="midnightblue" d="M149.01,-18C157.51,-18 166.16,-18 174.64,-18"/>
<polygon fill="midnightblue" stroke="midnightblue" points="174.86,-21.5 184.86,-18 174.86,-14.5 174.86,-21.5"/>
</g>
</g>
</svg>
