<?xml version="1.0" encoding="UTF-8" standalone="no"?>
<!DOCTYPE svg PUBLIC "-//W3C//DTD SVG 1.1//EN"
 "http://www.w3.org/Graphics/SVG/1.1/DTD/svg11.dtd">
<!-- Generated by graphviz version 2.43.0 (0)
 -->
<!-- Title: flow::async::Cross_thread_task_loop::schedule_from_now Pages: 1 -->
<svg width="595pt" height="221pt"
 viewBox="0.00 0.00 595.00 221.00" xmlns="http://www.w3.org/2000/svg" xmlns:xlink="http://www.w3.org/1999/xlink">
<g id="graph0" class="graph" transform="scale(1 1) rotate(0) translate(4 217)">
<title>flow::async::Cross_thread_task_loop::schedule_from_now</title>
<polygon fill="white" stroke="transparent" points="-4,4 -4,-217 591,-217 591,4 -4,4"/>
<!-- Node1 -->
<g id="node1" class="node">
<title>Node1</title>
<g id="a_node1"><a xlink:title="Implements superclass API.">
<polygon fill="#bfbfbf" stroke="black" points="0,-100.5 0,-135.5 134,-135.5 134,-100.5 0,-100.5"/>
<text text-anchor="start" x="8" y="-125.1" font-family="Helvetica,sans-Serif" font-size="8.00">flow::async::Cross</text>
<text text-anchor="start" x="8" y="-116.1" font-family="Helvetica,sans-Serif" font-size="8.00">_thread_task_loop::schedule</text>
<text text-anchor="middle" x="67" y="-107.1" font-family="Helvetica,sans-Serif" font-size="8.00">_from_now</text>
</a>
</g>
</g>
<!-- Node2 -->
<g id="node2" class="node">
<title>Node2</title>
<g id="a_node2"><a xlink:href="namespaceflow_1_1async.html#a4cce43f39672e80cba5512103c53ae60" target="_top" xlink:title="Returns the 0&#45;based processor logical (not hardware) core index of the core executing the calling thr...">
<polygon fill="white" stroke="black" points="173.5,-195.5 173.5,-212.5 273.5,-212.5 273.5,-195.5 173.5,-195.5"/>
<text text-anchor="middle" x="223.5" y="-202.1" font-family="Helvetica,sans-Serif" font-size="8.00">flow::async::cpu_idx</text>
</a>
</g>
</g>
<!-- Node1&#45;&gt;Node2 -->
<g id="edge1" class="edge">
<title>Node1&#45;&gt;Node2</title>
<path fill="none" stroke="midnightblue" d="M90.86,-135.75C110.88,-150.66 141.19,-171.76 170,-186 174.36,-188.16 179.04,-190.16 183.75,-191.99"/>
<polygon fill="midnightblue" stroke="midnightblue" points="182.75,-195.35 193.35,-195.49 185.15,-188.78 182.75,-195.35"/>
</g>
<!-- Node3 -->
<g id="node3" class="node">
<title>Node3</title>
<g id="a_node3"><a xlink:href="classflow_1_1log_1_1Log__context.html#a8a5fef42dc2cedf3c0d1a6e83beb2948" target="_top" xlink:title="Returns reference to the stored Component object, particularly as many FLOW_LOG_*() macros expect.">
<polygon fill="white" stroke="black" points="170,-150 170,-176 277,-176 277,-150 170,-150"/>
<text text-anchor="start" x="178" y="-165.6" font-family="Helvetica,sans-Serif" font-size="8.00">flow::log::Log_context</text>
<text text-anchor="middle" x="223.5" y="-156.6" font-family="Helvetica,sans-Serif" font-size="8.00">::get_log_component</text>
</a>
</g>
</g>
<!-- Node1&#45;&gt;Node3 -->
<g id="edge2" class="edge">
<title>Node1&#45;&gt;Node3</title>
<path fill="none" stroke="midnightblue" d="M128.18,-135.53C141.27,-139.34 155.06,-143.36 167.93,-147.11"/>
<polygon fill="midnightblue" stroke="midnightblue" points="166.98,-150.48 177.56,-149.91 168.94,-143.75 166.98,-150.48"/>
</g>
<!-- Node4 -->
<g id="node4" class="node">
<title>Node4</title>
<g id="a_node4"><a xlink:href="classflow_1_1log_1_1Log__context.html#af4db395042b065b00398cd59845dcb4d" target="_top" xlink:title="Returns the stored Logger pointer, particularly as many FLOW_LOG_*() macros expect.">
<polygon fill="white" stroke="black" points="170,-105 170,-131 277,-131 277,-105 170,-105"/>
<text text-anchor="start" x="178" y="-120.6" font-family="Helvetica,sans-Serif" font-size="8.00">flow::log::Log_context</text>
<text text-anchor="middle" x="223.5" y="-111.6" font-family="Helvetica,sans-Serif" font-size="8.00">::get_logger</text>
</a>
</g>
</g>
<!-- Node1&#45;&gt;Node4 -->
<g id="edge3" class="edge">
<title>Node1&#45;&gt;Node4</title>
<path fill="none" stroke="midnightblue" d="M134.42,-118C142.79,-118 151.34,-118 159.65,-118"/>
<polygon fill="midnightblue" stroke="midnightblue" points="159.65,-121.5 169.65,-118 159.65,-114.5 159.65,-121.5"/>
</g>
<!-- Node5 -->
<g id="node5" class="node">
<title>Node5</title>
<g id="a_node5"><a xlink:href="classflow_1_1async_1_1Cross__thread__task__loop.html#a5c9a3da291fa961bb4d8c4be13c39bb8" target="_top" xlink:title="Implements superclass API.">
<polygon fill="white" stroke="black" points="173,-50.5 173,-85.5 274,-85.5 274,-50.5 173,-50.5"/>
<text text-anchor="start" x="181" y="-75.1" font-family="Helvetica,sans-Serif" font-size="8.00">flow::async::Cross</text>
<text text-anchor="start" x="181" y="-66.1" font-family="Helvetica,sans-Serif" font-size="8.00">_thread_task_loop::n</text>
<text text-anchor="middle" x="223.5" y="-57.1" font-family="Helvetica,sans-Serif" font-size="8.00">_threads</text>
</a>
</g>
</g>
<!-- Node1&#45;&gt;Node5 -->
<g id="edge4" class="edge">
<title>Node1&#45;&gt;Node5</title>
<path fill="none" stroke="midnightblue" d="M122.47,-100.37C135.68,-96.1 149.87,-91.5 163.29,-87.16"/>
<polygon fill="midnightblue" stroke="midnightblue" points="164.47,-90.46 172.9,-84.05 162.31,-83.8 164.47,-90.46"/>
</g>
<!-- Node6 -->
<g id="node6" class="node">
<title>Node6</title>
<g id="a_node6"><a xlink:href="namespaceflow_1_1util.html#a74d4a66fb00055be4e1bd6ee98e04667" target="_top" xlink:title="Schedule the given function to execute in a certain amount of time: A handy wrapper around Timer (asi...">
<polygon fill="white" stroke="black" points="176,-5 176,-31 271,-31 271,-5 176,-5"/>
<text text-anchor="start" x="184" y="-20.6" font-family="Helvetica,sans-Serif" font-size="8.00">flow::util::schedule</text>
<text text-anchor="middle" x="223.5" y="-11.6" font-family="Helvetica,sans-Serif" font-size="8.00">_task_from_now</text>
</a>
</g>
</g>
<!-- Node1&#45;&gt;Node6 -->
<g id="edge5" class="edge">
<title>Node1&#45;&gt;Node6</title>
<path fill="none" stroke="midnightblue" d="M88.48,-100.26C108.39,-83.58 139.94,-58.6 170,-41 173.24,-39.1 176.66,-37.27 180.15,-35.51"/>
<polygon fill="midnightblue" stroke="midnightblue" points="181.91,-38.55 189.43,-31.08 178.89,-32.23 181.91,-38.55"/>
</g>
<!-- Node7 -->
<g id="node7" class="node">
<title>Node7</title>
<g id="a_node7"><a xlink:href="classflow_1_1util_1_1Unique__id__holder.html#a50489177a7731618ca130468c3872748" target="_top" xlink:title="Short&#45;hand for Unique_id_holder().unique_id(); useful when all you want is the unique integer itself.">
<polygon fill="white" stroke="black" points="313,-5 313,-31 447,-31 447,-5 313,-5"/>
<text text-anchor="start" x="321" y="-20.6" font-family="Helvetica,sans-Serif" font-size="8.00">flow::util::Unique</text>
<text text-anchor="middle" x="380" y="-11.6" font-family="Helvetica,sans-Serif" font-size="8.00">_id_holder::create_unique_id</text>
</a>
</g>
</g>
<!-- Node6&#45;&gt;Node7 -->
<g id="edge6" class="edge">
<title>Node6&#45;&gt;Node7</title>
<path fill="none" stroke="midnightblue" d="M271.27,-18C281.17,-18 291.86,-18 302.52,-18"/>
<polygon fill="midnightblue" stroke="midnightblue" points="302.72,-21.5 312.72,-18 302.72,-14.5 302.72,-21.5"/>
</g>
<!-- Node8 -->
<g id="node8" class="node">
<title>Node8</title>
<g id="a_node8"><a xlink:href="classflow_1_1util_1_1Unique__id__holder.html#a90705293787069f52372638d5450ef52" target="_top" xlink:title="Thread&#45;safely construct an ID whose value is different from any other object of this class,...">
<polygon fill="white" stroke="black" points="483,-0.5 483,-35.5 587,-35.5 587,-0.5 483,-0.5"/>
<text text-anchor="start" x="491" y="-25.1" font-family="Helvetica,sans-Serif" font-size="8.00">flow::util::Unique</text>
<text text-anchor="start" x="491" y="-16.1" font-family="Helvetica,sans-Serif" font-size="8.00">_id_holder::Unique_id</text>
<text text-anchor="middle" x="535" y="-7.1" font-family="Helvetica,sans-Serif" font-size="8.00">_holder</text>
</a>
</g>
</g>
<!-- Node7&#45;&gt;Node8 -->
<g id="edge7" class="edge">
<title>Node7&#45;&gt;Node8</title>
<path fill="none" stroke="midnightblue" d="M447.22,-18C455.72,-18 464.39,-18 472.8,-18"/>
<polygon fill="midnightblue" stroke="midnightblue" points="472.9,-21.5 482.9,-18 472.9,-14.5 472.9,-21.5"/>
</g>
</g>
</svg>
