<?xml version="1.0" encoding="UTF-8" standalone="no"?>
<!DOCTYPE svg PUBLIC "-//W3C//DTD SVG 1.1//EN"
 "http://www.w3.org/Graphics/SVG/1.1/DTD/svg11.dtd">
<!-- Generated by graphviz version 2.43.0 (0)
 -->
<!-- Title: flow::net_flow::Node::receive_wnd_recovery_data_received Pages: 1 -->
<svg width="264pt" height="80pt"
 viewBox="0.00 0.00 264.00 80.00" xmlns="http://www.w3.org/2000/svg" xmlns:xlink="http://www.w3.org/1999/xlink">
<g id="graph0" class="graph" transform="scale(1 1) rotate(0) translate(4 76)">
<title>flow::net_flow::Node::receive_wnd_recovery_data_received</title>
<polygon fill="white" stroke="transparent" points="-4,4 -4,-76 260,-76 260,4 -4,4"/>
<!-- Node1 -->
<g id="node1" class="node">
<title>Node1</title>
<g id="a_node1"><a xlink:title="Pertaining to the async_rcv_wnd_recovery() mechanism, this handles the event that we have received an...">
<polygon fill="#bfbfbf" stroke="black" points="0,-18 0,-53 113,-53 113,-18 0,-18"/>
<text text-anchor="start" x="8" y="-42.6" font-family="Helvetica,sans-Serif" font-size="8.00">flow::net_flow::Node</text>
<text text-anchor="start" x="8" y="-33.6" font-family="Helvetica,sans-Serif" font-size="8.00">::receive_wnd_recovery</text>
<text text-anchor="middle" x="56.5" y="-24.6" font-family="Helvetica,sans-Serif" font-size="8.00">_data_received</text>
</a>
</g>
</g>
<!-- Node2 -->
<g id="node2" class="node">
<title>Node2</title>
<g id="a_node2"><a xlink:href="classflow_1_1log_1_1Log__context.html#af4db395042b065b00398cd59845dcb4d" target="_top" xlink:title="Returns the stored Logger pointer, particularly as many FLOW_LOG_*() macros expect.">
<polygon fill="white" stroke="black" points="149,-45.5 149,-71.5 256,-71.5 256,-45.5 149,-45.5"/>
<text text-anchor="start" x="157" y="-61.1" font-family="Helvetica,sans-Serif" font-size="8.00">flow::log::Log_context</text>
<text text-anchor="middle" x="202.5" y="-52.1" font-family="Helvetica,sans-Serif" font-size="8.00">::get_logger</text>
</a>
</g>
</g>
<!-- Node1&#45;&gt;Node2 -->
<g id="edge1" class="edge">
<title>Node1&#45;&gt;Node2</title>
<path fill="none" stroke="midnightblue" d="M113.17,-44.39C121.59,-45.74 130.33,-47.13 138.88,-48.5"/>
<polygon fill="midnightblue" stroke="midnightblue" points="138.38,-51.96 148.81,-50.08 139.49,-45.05 138.38,-51.96"/>
</g>
<!-- Node3 -->
<g id="node3" class="node">
<title>Node3</title>
<g id="a_node3"><a xlink:href="namespaceflow_1_1util.html#ad92e68a1b22556f2625292098c0036a2" target="_top" xlink:title="Attempts to prevent the execution of a previously scheduled (by schedule_task_from_now() or similar) ...">
<polygon fill="white" stroke="black" points="152,-0.5 152,-26.5 253,-26.5 253,-0.5 152,-0.5"/>
<text text-anchor="start" x="160" y="-16.1" font-family="Helvetica,sans-Serif" font-size="8.00">flow::util::scheduled</text>
<text text-anchor="middle" x="202.5" y="-7.1" font-family="Helvetica,sans-Serif" font-size="8.00">_task_cancel</text>
</a>
</g>
</g>
<!-- Node1&#45;&gt;Node3 -->
<g id="edge2" class="edge">
<title>Node1&#45;&gt;Node3</title>
<path fill="none" stroke="midnightblue" d="M113.17,-26.99C122.47,-25.57 132.16,-24.09 141.56,-22.66"/>
<polygon fill="midnightblue" stroke="midnightblue" points="142.26,-26.09 151.62,-21.12 141.2,-19.17 142.26,-26.09"/>
</g>
</g>
</svg>
