<?xml version="1.0" encoding="UTF-8" standalone="no"?>
<!DOCTYPE svg PUBLIC "-//W3C//DTD SVG 1.1//EN"
 "http://www.w3.org/Graphics/SVG/1.1/DTD/svg11.dtd">
<!-- Generated by graphviz version 2.43.0 (0)
 -->
<!-- Title: flow::net_flow::Port_space::is_service_port Pages: 1 -->
<svg width="1367pt" height="511pt"
 viewBox="0.00 0.00 1367.00 511.00" xmlns="http://www.w3.org/2000/svg" xmlns:xlink="http://www.w3.org/1999/xlink">
<g id="graph0" class="graph" transform="scale(1 1) rotate(0) translate(4 507)">
<title>flow::net_flow::Port_space::is_service_port</title>
<polygon fill="white" stroke="transparent" points="-4,4 -4,-507 1363,-507 1363,4 -4,4"/>
<!-- Node1 -->
<g id="node1" class="node">
<title>Node1</title>
<g id="a_node1"><a xlink:title="Returns true if and only if the given port is a service port (as opposed to ephemeral or S_PORT_ANY).">
<polygon fill="#bfbfbf" stroke="black" points="1248,-192.5 1248,-218.5 1359,-218.5 1359,-192.5 1248,-192.5"/>
<text text-anchor="start" x="1256" y="-208.1" font-family="Helvetica,sans-Serif" font-size="8.00">flow::net_flow::Port</text>
<text text-anchor="middle" x="1303.5" y="-199.1" font-family="Helvetica,sans-Serif" font-size="8.00">_space::is_service_port</text>
</a>
</g>
</g>
<!-- Node2 -->
<g id="node2" class="node">
<title>Node2</title>
<g id="a_node2"><a xlink:href="classflow_1_1net__flow_1_1Port__space.html#a1168841ecd09d3187f9803eac2b8b703" target="_top" xlink:title="Reserve the specified service port, or reserve_ephemeral_port() if the specified port is S_PORT_ANY.">
<polygon fill="white" stroke="black" points="1110,-215.5 1110,-241.5 1212,-241.5 1212,-215.5 1110,-215.5"/>
<text text-anchor="start" x="1118" y="-231.1" font-family="Helvetica,sans-Serif" font-size="8.00">flow::net_flow::Port</text>
<text text-anchor="middle" x="1161" y="-222.1" font-family="Helvetica,sans-Serif" font-size="8.00">_space::reserve_port</text>
</a>
</g>
</g>
<!-- Node1&#45;&gt;Node2 -->
<g id="edge1" class="edge">
<title>Node1&#45;&gt;Node2</title>
<path fill="none" stroke="midnightblue" d="M1237.78,-216.09C1229.2,-217.5 1220.5,-218.92 1212.22,-220.28"/>
<polygon fill="midnightblue" stroke="midnightblue" points="1238.47,-219.53 1247.78,-214.46 1237.34,-212.62 1238.47,-219.53"/>
</g>
<!-- Node5 -->
<g id="node5" class="node">
<title>Node5</title>
<g id="a_node5"><a xlink:href="classflow_1_1net__flow_1_1Port__space.html#a9fe1be917ff7584ff587b5da5967127a" target="_top" xlink:title="Return a previously reserved port (of any type).">
<polygon fill="white" stroke="black" points="1113,-170.5 1113,-196.5 1209,-196.5 1209,-170.5 1113,-170.5"/>
<text text-anchor="start" x="1121" y="-186.1" font-family="Helvetica,sans-Serif" font-size="8.00">flow::net_flow::Port</text>
<text text-anchor="middle" x="1161" y="-177.1" font-family="Helvetica,sans-Serif" font-size="8.00">_space::return_port</text>
</a>
</g>
</g>
<!-- Node1&#45;&gt;Node5 -->
<g id="edge5" class="edge">
<title>Node1&#45;&gt;Node5</title>
<path fill="none" stroke="midnightblue" d="M1237.77,-195.36C1228.09,-193.85 1218.27,-192.31 1209.05,-190.87"/>
<polygon fill="midnightblue" stroke="midnightblue" points="1237.36,-198.84 1247.78,-196.93 1238.44,-191.93 1237.36,-198.84"/>
</g>
<!-- Node3 -->
<g id="node3" class="node">
<title>Node3</title>
<g id="a_node3"><a xlink:href="classflow_1_1net__flow_1_1Node.html#aba411df8746d5fd4db2d28df3a016f5e" target="_top" xlink:title="Thread W implementation of listen().">
<polygon fill="white" stroke="black" points="949.5,-215.5 949.5,-241.5 1050.5,-241.5 1050.5,-215.5 949.5,-215.5"/>
<text text-anchor="start" x="957.5" y="-231.1" font-family="Helvetica,sans-Serif" font-size="8.00">flow::net_flow::Node</text>
<text text-anchor="middle" x="1000" y="-222.1" font-family="Helvetica,sans-Serif" font-size="8.00">::listen_worker</text>
</a>
</g>
</g>
<!-- Node2&#45;&gt;Node3 -->
<g id="edge2" class="edge">
<title>Node2&#45;&gt;Node3</title>
<path fill="none" stroke="midnightblue" d="M1099.32,-228.5C1083.26,-228.5 1066.11,-228.5 1050.71,-228.5"/>
<polygon fill="midnightblue" stroke="midnightblue" points="1099.69,-232 1109.69,-228.5 1099.69,-225 1099.69,-232"/>
</g>
<!-- Node4 -->
<g id="node4" class="node">
<title>Node4</title>
<g id="a_node4"><a xlink:href="classflow_1_1net__flow_1_1Node.html#a3c2cd6a6c328a2d5381308258d35d95d" target="_top" xlink:title="Sets up a server on the given local Flow port and returns Server_socket which can be used to accept s...">
<polygon fill="white" stroke="black" points="775.5,-362.5 775.5,-388.5 876.5,-388.5 876.5,-362.5 775.5,-362.5"/>
<text text-anchor="start" x="783.5" y="-378.1" font-family="Helvetica,sans-Serif" font-size="8.00">flow::net_flow::Node</text>
<text text-anchor="middle" x="826" y="-369.1" font-family="Helvetica,sans-Serif" font-size="8.00">::listen</text>
</a>
</g>
</g>
<!-- Node3&#45;&gt;Node4 -->
<g id="edge3" class="edge">
<title>Node3&#45;&gt;Node4</title>
<path fill="none" stroke="midnightblue" d="M985.19,-250.41C966.69,-278.1 931.35,-325.52 890,-353.5 884.91,-356.94 879.23,-359.9 873.42,-362.43"/>
<polygon fill="midnightblue" stroke="midnightblue" points="988.26,-252.11 990.81,-241.83 982.4,-248.28 988.26,-252.11"/>
</g>
<!-- Node4&#45;&gt;Node4 -->
<g id="edge4" class="edge">
<title>Node4&#45;&gt;Node4</title>
<path fill="none" stroke="midnightblue" d="M857.57,-398.58C854.37,-403.47 843.84,-407 826,-407 797.45,-407 787.64,-397.96 796.56,-388.77"/>
<polygon fill="midnightblue" stroke="midnightblue" points="860.98,-397.8 855.44,-388.77 854.14,-399.29 860.98,-397.8"/>
</g>
<!-- Node5&#45;&gt;Node3 -->
<g id="edge31" class="edge">
<title>Node5&#45;&gt;Node3</title>
<path fill="none" stroke="midnightblue" d="M1104.17,-199.3C1085.53,-204.58 1064.98,-210.39 1047.16,-215.44"/>
<polygon fill="midnightblue" stroke="midnightblue" points="1105.34,-202.61 1114.01,-196.52 1103.44,-195.87 1105.34,-202.61"/>
</g>
<!-- Node6 -->
<g id="node6" class="node">
<title>Node6</title>
<g id="a_node6"><a xlink:href="classflow_1_1net__flow_1_1Node.html#ade49e7bc7202a0adf33fec2d93d1b177" target="_top" xlink:title="A thread W method that handles the transition of the given socket from OPEN (any sub&#45;state) to CLOSED...">
<polygon fill="white" stroke="black" points="926,-170.5 926,-196.5 1074,-196.5 1074,-170.5 926,-170.5"/>
<text text-anchor="start" x="934" y="-186.1" font-family="Helvetica,sans-Serif" font-size="8.00">flow::net_flow::Node</text>
<text text-anchor="middle" x="1000" y="-177.1" font-family="Helvetica,sans-Serif" font-size="8.00">::close_connection_immediately</text>
</a>
</g>
</g>
<!-- Node5&#45;&gt;Node6 -->
<g id="edge6" class="edge">
<title>Node5&#45;&gt;Node6</title>
<path fill="none" stroke="midnightblue" d="M1102.5,-183.5C1093.25,-183.5 1083.57,-183.5 1074.01,-183.5"/>
<polygon fill="midnightblue" stroke="midnightblue" points="1102.73,-187 1112.73,-183.5 1102.73,-180 1102.73,-187"/>
</g>
<!-- Node49 -->
<g id="node24" class="node">
<title>Node49</title>
<g id="a_node24"><a xlink:href="classflow_1_1net__flow_1_1Node.html#adf6d71af81def2d030f0fef159c1b06d" target="_top" xlink:title="Handles the transition of the given server socket from S_LISTENING/S_CLOSING to S_CLOSED (including e...">
<polygon fill="white" stroke="black" points="948.5,-89 948.5,-124 1051.5,-124 1051.5,-89 948.5,-89"/>
<text text-anchor="start" x="956.5" y="-113.6" font-family="Helvetica,sans-Serif" font-size="8.00">flow::net_flow::Node</text>
<text text-anchor="start" x="956.5" y="-104.6" font-family="Helvetica,sans-Serif" font-size="8.00">::close_empty_server</text>
<text text-anchor="middle" x="1000" y="-95.6" font-family="Helvetica,sans-Serif" font-size="8.00">_immediately</text>
</a>
</g>
</g>
<!-- Node5&#45;&gt;Node49 -->
<g id="edge29" class="edge">
<title>Node5&#45;&gt;Node49</title>
<path fill="none" stroke="midnightblue" d="M1123.93,-166.03C1098.05,-153.5 1063.32,-136.68 1037.37,-124.11"/>
<polygon fill="midnightblue" stroke="midnightblue" points="1122.5,-169.23 1133.03,-170.44 1125.55,-162.93 1122.5,-169.23"/>
</g>
<!-- Node7 -->
<g id="node7" class="node">
<title>Node7</title>
<g id="a_node7"><a xlink:href="classflow_1_1net__flow_1_1Node.html#aa5f7c019665d9dd91af0ad6431f8f97d" target="_top" xlink:title="Similar to async_sock_low_lvl_packet_send_paced() except it also calls close_connection_immediately(s...">
<polygon fill="white" stroke="black" points="771,-299.5 771,-343.5 881,-343.5 881,-299.5 771,-299.5"/>
<text text-anchor="start" x="779" y="-333.1" font-family="Helvetica,sans-Serif" font-size="8.00">flow::net_flow::Node</text>
<text text-anchor="start" x="779" y="-324.1" font-family="Helvetica,sans-Serif" font-size="8.00">::async_sock_low_lvl</text>
<text text-anchor="start" x="779" y="-315.1" font-family="Helvetica,sans-Serif" font-size="8.00">_packet_send_or_close</text>
<text text-anchor="middle" x="826" y="-306.1" font-family="Helvetica,sans-Serif" font-size="8.00">_immediately</text>
</a>
</g>
</g>
<!-- Node6&#45;&gt;Node7 -->
<g id="edge7" class="edge">
<title>Node6&#45;&gt;Node7</title>
<path fill="none" stroke="midnightblue" d="M935.88,-200.83C932.44,-202.56 929.12,-204.44 926,-206.5 916.05,-213.06 870.68,-267.83 844.95,-299.36"/>
<polygon fill="midnightblue" stroke="midnightblue" points="937.51,-203.94 945.18,-196.64 934.63,-197.56 937.51,-203.94"/>
</g>
<!-- Node31 -->
<g id="node13" class="node">
<title>Node31</title>
<g id="a_node13"><a xlink:href="classflow_1_1net__flow_1_1Node.html#a1699dfdaf3e5ebe1b1d715a9c306d116" target="_top" xlink:title="Handles a just&#45;received, not&#45;yet&#45;deserialized low&#45;level packet.">
<polygon fill="white" stroke="black" points="298,-151.5 298,-177.5 399,-177.5 399,-151.5 298,-151.5"/>
<text text-anchor="start" x="306" y="-167.1" font-family="Helvetica,sans-Serif" font-size="8.00">flow::net_flow::Node</text>
<text text-anchor="middle" x="348.5" y="-158.1" font-family="Helvetica,sans-Serif" font-size="8.00">::handle_incoming</text>
</a>
</g>
</g>
<!-- Node6&#45;&gt;Node31 -->
<g id="edge14" class="edge">
<title>Node6&#45;&gt;Node31</title>
<path fill="none" stroke="midnightblue" d="M947.06,-199.09C929.16,-203.74 908.86,-208.2 890,-210.5 751.47,-227.4 714.86,-224.46 576,-210.5 514.32,-204.3 444.59,-188.83 398.99,-177.54"/>
<polygon fill="midnightblue" stroke="midnightblue" points="947.98,-202.47 956.74,-196.51 946.18,-195.71 947.98,-202.47"/>
</g>
<!-- Node37 -->
<g id="node16" class="node">
<title>Node37</title>
<g id="a_node16"><a xlink:href="classflow_1_1net__flow_1_1Node.html#ad608f9bbe76426f4fbf4bf5af908e4e0" target="_top" xlink:title="Placed by receive() onto W during a graceful close, after the Receive buffer had been emptied by the ...">
<polygon fill="white" stroke="black" points="765.5,-166 765.5,-201 886.5,-201 886.5,-166 765.5,-166"/>
<text text-anchor="start" x="773.5" y="-190.6" font-family="Helvetica,sans-Serif" font-size="8.00">flow::net_flow::Node</text>
<text text-anchor="start" x="773.5" y="-181.6" font-family="Helvetica,sans-Serif" font-size="8.00">::receive_emptied_rcv</text>
<text text-anchor="middle" x="826" y="-172.6" font-family="Helvetica,sans-Serif" font-size="8.00">_buf_while_disconnecting</text>
</a>
</g>
</g>
<!-- Node6&#45;&gt;Node37 -->
<g id="edge19" class="edge">
<title>Node6&#45;&gt;Node37</title>
<path fill="none" stroke="midnightblue" d="M915.47,-183.5C905.76,-183.5 896.01,-183.5 886.71,-183.5"/>
<polygon fill="midnightblue" stroke="midnightblue" points="915.56,-187 925.56,-183.5 915.56,-180 915.56,-187"/>
</g>
<!-- Node38 -->
<g id="node18" class="node">
<title>Node38</title>
<g id="a_node18"><a xlink:href="classflow_1_1net__flow_1_1Node.html#afe70a0c32695e417e7a09e0ba773f151" target="_top" xlink:title="Asynchronously send RST to the other side of the given socket and close_connection_immediately().">
<polygon fill="white" stroke="black" points="762,-112 762,-147 890,-147 890,-112 762,-112"/>
<text text-anchor="start" x="770" y="-136.6" font-family="Helvetica,sans-Serif" font-size="8.00">flow::net_flow::Node</text>
<text text-anchor="start" x="770" y="-127.6" font-family="Helvetica,sans-Serif" font-size="8.00">::rst_and_close_connection</text>
<text text-anchor="middle" x="826" y="-118.6" font-family="Helvetica,sans-Serif" font-size="8.00">_immediately</text>
</a>
</g>
</g>
<!-- Node6&#45;&gt;Node38 -->
<g id="edge21" class="edge">
<title>Node6&#45;&gt;Node38</title>
<path fill="none" stroke="midnightblue" d="M947.62,-167.37C927.22,-160.97 903.7,-153.58 882.88,-147.04"/>
<polygon fill="midnightblue" stroke="midnightblue" points="946.77,-170.77 957.36,-170.43 948.87,-164.09 946.77,-170.77"/>
</g>
<!-- Node36 -->
<g id="node23" class="node">
<title>Node36</title>
<g id="a_node23"><a xlink:href="classflow_1_1net__flow_1_1Node.html#a5b056ed753b832458f44f537acfe86d7" target="_top" xlink:title="Worker thread W (main event loop) body.">
<polygon fill="white" stroke="black" points="775.5,-66.5 775.5,-92.5 876.5,-92.5 876.5,-66.5 775.5,-66.5"/>
<text text-anchor="start" x="783.5" y="-82.1" font-family="Helvetica,sans-Serif" font-size="8.00">flow::net_flow::Node</text>
<text text-anchor="middle" x="826" y="-73.1" font-family="Helvetica,sans-Serif" font-size="8.00">::worker_run</text>
</a>
</g>
</g>
<!-- Node6&#45;&gt;Node36 -->
<g id="edge28" class="edge">
<title>Node6&#45;&gt;Node36</title>
<path fill="none" stroke="midnightblue" d="M970.22,-164.86C956.57,-155.74 940.18,-144.41 926,-133.5 909.26,-120.63 908.21,-113.18 890,-102.5 883.57,-98.73 876.42,-95.41 869.31,-92.54"/>
<polygon fill="midnightblue" stroke="midnightblue" points="968.48,-167.9 978.75,-170.5 972.34,-162.06 968.48,-167.9"/>
</g>
<!-- Node8 -->
<g id="node8" class="node">
<title>Node8</title>
<g id="a_node8"><a xlink:href="classflow_1_1net__flow_1_1Node.html#a81e50276d0b162f6577adc690e0ef9e0" target="_top" xlink:title="Sends a low&#45;level ACK packet, with all accumulated in Peer_socket::m_rcv_pending_acks of sock individ...">
<polygon fill="white" stroke="black" points="591.5,-476.5 591.5,-502.5 710.5,-502.5 710.5,-476.5 591.5,-476.5"/>
<text text-anchor="start" x="599.5" y="-492.1" font-family="Helvetica,sans-Serif" font-size="8.00">flow::net_flow::Node</text>
<text text-anchor="middle" x="651" y="-483.1" font-family="Helvetica,sans-Serif" font-size="8.00">::async_low_lvl_ack_send</text>
</a>
</g>
</g>
<!-- Node7&#45;&gt;Node8 -->
<g id="edge8" class="edge">
<title>Node7&#45;&gt;Node8</title>
<path fill="none" stroke="midnightblue" d="M765.05,-350.19C763.99,-351.26 762.97,-352.36 762,-353.5 727.86,-393.66 763.4,-429.36 726,-466.5 721.61,-470.86 716.41,-474.4 710.83,-477.26"/>
<polygon fill="midnightblue" stroke="midnightblue" points="767.35,-352.83 772.62,-343.64 762.77,-347.54 767.35,-352.83"/>
</g>
<!-- Node9 -->
<g id="node9" class="node">
<title>Node9</title>
<g id="a_node9"><a xlink:href="classflow_1_1net__flow_1_1Node.html#acaf55766783893827061fd85cab2634f" target="_top" xlink:title="Helper to create, fully fill out, and asynchronously send via async_sock_low_lvl_packet_send_or_close...">
<polygon fill="white" stroke="black" points="576,-422 576,-457 726,-457 726,-422 576,-422"/>
<text text-anchor="start" x="584" y="-446.6" font-family="Helvetica,sans-Serif" font-size="8.00">flow::net_flow::Node</text>
<text text-anchor="start" x="584" y="-437.6" font-family="Helvetica,sans-Serif" font-size="8.00">::async_low_lvl_syn_ack</text>
<text text-anchor="middle" x="651" y="-428.6" font-family="Helvetica,sans-Serif" font-size="8.00">_ack_send_or_close_immediately</text>
</a>
</g>
</g>
<!-- Node7&#45;&gt;Node9 -->
<g id="edge9" class="edge">
<title>Node7&#45;&gt;Node9</title>
<path fill="none" stroke="midnightblue" d="M766.54,-349.6C764.97,-350.86 763.45,-352.16 762,-353.5 739.45,-374.36 749.76,-393.03 726,-412.5 721.66,-416.05 716.82,-419.16 711.74,-421.87"/>
<polygon fill="midnightblue" stroke="midnightblue" points="768.72,-352.35 774.78,-343.66 764.62,-346.67 768.72,-352.35"/>
</g>
<!-- Node10 -->
<g id="node10" class="node">
<title>Node10</title>
<g id="a_node10"><a xlink:href="classflow_1_1net__flow_1_1Node.html#a192d4b95b9f8a5c3d08b1e5486eb6f78" target="_top" xlink:title="receive_wnd_updated() helper that continues rcv_wnd recovery: that is, sends unsolicited ACK with a r...">
<polygon fill="white" stroke="red" points="590,-358.5 590,-384.5 712,-384.5 712,-358.5 590,-358.5"/>
<text text-anchor="start" x="598" y="-374.1" font-family="Helvetica,sans-Serif" font-size="8.00">flow::net_flow::Node</text>
<text text-anchor="middle" x="651" y="-365.1" font-family="Helvetica,sans-Serif" font-size="8.00">::async_rcv_wnd_recovery</text>
</a>
</g>
</g>
<!-- Node7&#45;&gt;Node10 -->
<g id="edge10" class="edge">
<title>Node7&#45;&gt;Node10</title>
<path fill="none" stroke="midnightblue" d="M761.12,-339.96C739.85,-346.11 716.62,-352.83 697.07,-358.47"/>
<polygon fill="midnightblue" stroke="midnightblue" points="762.1,-343.32 770.74,-337.18 760.16,-336.6 762.1,-343.32"/>
</g>
<!-- Node20 -->
<g id="node11" class="node">
<title>Node20</title>
<g id="a_node11"><a xlink:href="classflow_1_1net__flow_1_1Node.html#addd654cb6b1ccff34ddccbe5226be8f0" target="_top" xlink:title="Handles the triggering of the retransmit timer wait set up by setup_connection_timers(); it will re&#45;s...">
<polygon fill="white" stroke="black" points="586.5,-304 586.5,-339 715.5,-339 715.5,-304 586.5,-304"/>
<text text-anchor="start" x="594.5" y="-328.6" font-family="Helvetica,sans-Serif" font-size="8.00">flow::net_flow::Node</text>
<text text-anchor="start" x="594.5" y="-319.6" font-family="Helvetica,sans-Serif" font-size="8.00">::handle_connection_rexmit</text>
<text text-anchor="middle" x="651" y="-310.6" font-family="Helvetica,sans-Serif" font-size="8.00">_timer_event</text>
</a>
</g>
</g>
<!-- Node7&#45;&gt;Node20 -->
<g id="edge12" class="edge">
<title>Node7&#45;&gt;Node20</title>
<path fill="none" stroke="midnightblue" d="M760.73,-321.5C746.04,-321.5 730.43,-321.5 715.76,-321.5"/>
<polygon fill="midnightblue" stroke="midnightblue" points="760.74,-325 770.74,-321.5 760.74,-318 760.74,-325"/>
</g>
<!-- Node21 -->
<g id="node12" class="node">
<title>Node21</title>
<g id="a_node12"><a xlink:href="classflow_1_1net__flow_1_1Node.html#a10a92f11a2c9f218cdd9a55f282e79b1" target="_top" xlink:title="Thread W implemention of send(): synchronously or asynchronously send the contents of sock&#45;&gt;m_snd_buf...">
<polygon fill="white" stroke="red" points="600.5,-258.5 600.5,-284.5 701.5,-284.5 701.5,-258.5 600.5,-258.5"/>
<text text-anchor="start" x="608.5" y="-274.1" font-family="Helvetica,sans-Serif" font-size="8.00">flow::net_flow::Node</text>
<text text-anchor="middle" x="651" y="-265.1" font-family="Helvetica,sans-Serif" font-size="8.00">::send_worker</text>
</a>
</g>
</g>
<!-- Node7&#45;&gt;Node21 -->
<g id="edge13" class="edge">
<title>Node7&#45;&gt;Node21</title>
<path fill="none" stroke="midnightblue" d="M761.12,-303.04C739.85,-296.89 716.62,-290.17 697.07,-284.53"/>
<polygon fill="midnightblue" stroke="midnightblue" points="760.16,-306.4 770.74,-305.82 762.1,-299.68 760.16,-306.4"/>
</g>
<!-- Node10&#45;&gt;Node10 -->
<g id="edge11" class="edge">
<title>Node10&#45;&gt;Node10</title>
<path fill="none" stroke="midnightblue" d="M680.39,-394.58C677.41,-399.47 667.61,-403 651,-403 624.42,-403 615.29,-393.96 623.59,-384.77"/>
<polygon fill="midnightblue" stroke="midnightblue" points="683.82,-393.88 678.41,-384.77 676.96,-395.27 683.82,-393.88"/>
</g>
<!-- Node32 -->
<g id="node14" class="node">
<title>Node32</title>
<g id="a_node14"><a xlink:href="classflow_1_1net__flow_1_1Node.html#a4368247d07e930bdd07ab8d2425c6de8" target="_top" xlink:title="Sets up handle_incoming(packet_data, low_lvl_remote_endpoint) to be called asynchronously after a spe...">
<polygon fill="white" stroke="black" points="149,-170 149,-205 262,-205 262,-170 149,-170"/>
<text text-anchor="start" x="157" y="-194.6" font-family="Helvetica,sans-Serif" font-size="8.00">flow::net_flow::Node</text>
<text text-anchor="start" x="157" y="-185.6" font-family="Helvetica,sans-Serif" font-size="8.00">::async_wait_latency</text>
<text text-anchor="middle" x="205.5" y="-176.6" font-family="Helvetica,sans-Serif" font-size="8.00">_then_handle_incoming</text>
</a>
</g>
</g>
<!-- Node31&#45;&gt;Node32 -->
<g id="edge15" class="edge">
<title>Node31&#45;&gt;Node32</title>
<path fill="none" stroke="midnightblue" d="M287.86,-174.23C279.29,-175.63 270.49,-177.06 262.01,-178.45"/>
<polygon fill="midnightblue" stroke="midnightblue" points="288.48,-177.67 297.79,-172.61 287.36,-170.76 288.48,-177.67"/>
</g>
<!-- Node33 -->
<g id="node15" class="node">
<title>Node33</title>
<g id="a_node15"><a xlink:href="classflow_1_1net__flow_1_1Node.html#a90ecbad1ff3a8d2fe4b3ad1c474f7513" target="_top" xlink:title="Helper for low_lvl_recv_and_handle() that calls handle_incoming() on the not&#45;yet&#45;deserialized low&#45;lev...">
<polygon fill="white" stroke="red" points="0,-147 0,-182 113,-182 113,-147 0,-147"/>
<text text-anchor="start" x="8" y="-171.6" font-family="Helvetica,sans-Serif" font-size="8.00">flow::net_flow::Node</text>
<text text-anchor="start" x="8" y="-162.6" font-family="Helvetica,sans-Serif" font-size="8.00">::handle_incoming_with</text>
<text text-anchor="middle" x="56.5" y="-153.6" font-family="Helvetica,sans-Serif" font-size="8.00">_simulation</text>
</a>
</g>
</g>
<!-- Node31&#45;&gt;Node33 -->
<g id="edge18" class="edge">
<title>Node31&#45;&gt;Node33</title>
<path fill="none" stroke="midnightblue" d="M287.75,-161.35C279.11,-161 270.33,-160.69 262,-160.5 211.79,-159.33 199.21,-159.4 149,-160.5 137.4,-160.75 124.97,-161.19 113.13,-161.68"/>
<polygon fill="midnightblue" stroke="midnightblue" points="287.64,-164.85 297.78,-161.78 287.94,-157.85 287.64,-164.85"/>
</g>
<!-- Node32&#45;&gt;Node33 -->
<g id="edge16" class="edge">
<title>Node32&#45;&gt;Node33</title>
<path fill="none" stroke="midnightblue" d="M138.92,-177.24C130.32,-175.89 121.57,-174.52 113.15,-173.21"/>
<polygon fill="midnightblue" stroke="midnightblue" points="138.5,-180.72 148.93,-178.8 139.59,-173.8 138.5,-180.72"/>
</g>
<!-- Node33&#45;&gt;Node33 -->
<g id="edge17" class="edge">
<title>Node33&#45;&gt;Node33</title>
<path fill="none" stroke="midnightblue" d="M82.27,-192.6C78.65,-197.27 70.06,-200.5 56.5,-200.5 34.24,-200.5 25.37,-191.81 29.89,-182.28"/>
<polygon fill="midnightblue" stroke="midnightblue" points="85.79,-192.53 83.11,-182.28 78.81,-191.97 85.79,-192.53"/>
</g>
<!-- Node12 -->
<g id="node17" class="node">
<title>Node12</title>
<g id="a_node17"><a xlink:href="classflow_1_1net__flow_1_1Node.html#addbb96858fd7b3c9ddd7c6fe8078809c" target="_top" xlink:title="Implementation of non&#45;blocking sock&#45;&gt;receive() for socket sock in all cases except when sock&#45;&gt;state()...">
<polygon fill="white" stroke="red" points="600.5,-174.5 600.5,-200.5 701.5,-200.5 701.5,-174.5 600.5,-174.5"/>
<text text-anchor="start" x="608.5" y="-190.1" font-family="Helvetica,sans-Serif" font-size="8.00">flow::net_flow::Node</text>
<text text-anchor="middle" x="651" y="-181.1" font-family="Helvetica,sans-Serif" font-size="8.00">::receive</text>
</a>
</g>
</g>
<!-- Node37&#45;&gt;Node12 -->
<g id="edge20" class="edge">
<title>Node37&#45;&gt;Node12</title>
<path fill="none" stroke="midnightblue" d="M755.31,-185.11C737.32,-185.53 718.32,-185.97 701.59,-186.35"/>
<polygon fill="midnightblue" stroke="midnightblue" points="755.55,-188.61 765.46,-184.88 755.38,-181.61 755.55,-188.61"/>
</g>
<!-- Node39 -->
<g id="node19" class="node">
<title>Node39</title>
<g id="a_node19"><a xlink:href="classflow_1_1net__flow_1_1Node.html#a6461124e5bc3e59083e172e26029e632" target="_top" xlink:title="Implementation of non&#45;blocking sock&#45;&gt;close_abruptly() for socket sock in all cases except when sock&#45;&gt;...">
<polygon fill="white" stroke="red" points="600.5,-129.5 600.5,-155.5 701.5,-155.5 701.5,-129.5 600.5,-129.5"/>
<text text-anchor="start" x="608.5" y="-145.1" font-family="Helvetica,sans-Serif" font-size="8.00">flow::net_flow::Node</text>
<text text-anchor="middle" x="651" y="-136.1" font-family="Helvetica,sans-Serif" font-size="8.00">::close_abruptly</text>
</a>
</g>
</g>
<!-- Node38&#45;&gt;Node39 -->
<g id="edge22" class="edge">
<title>Node38&#45;&gt;Node39</title>
<path fill="none" stroke="midnightblue" d="M751.24,-135.04C734.49,-136.3 717.08,-137.61 701.61,-138.77"/>
<polygon fill="midnightblue" stroke="midnightblue" points="751.85,-138.51 761.56,-134.27 751.33,-131.53 751.85,-138.51"/>
</g>
<!-- Node41 -->
<g id="node20" class="node">
<title>Node41</title>
<g id="a_node20"><a xlink:href="classflow_1_1net__flow_1_1Node.html#a29d02f9e302c7b06288ff1c644fa8d65" target="_top" xlink:title="Handles a just&#45;deserialized, just&#45;demultiplexed low&#45;level SYN_ACK_ACK packet delivered to the given p...">
<polygon fill="white" stroke="black" points="435,-83 435,-118 540,-118 540,-83 435,-83"/>
<text text-anchor="start" x="443" y="-107.6" font-family="Helvetica,sans-Serif" font-size="8.00">flow::net_flow::Node</text>
<text text-anchor="start" x="443" y="-98.6" font-family="Helvetica,sans-Serif" font-size="8.00">::handle_syn_ack_ack</text>
<text text-anchor="middle" x="487.5" y="-89.6" font-family="Helvetica,sans-Serif" font-size="8.00">_to_syn_rcvd</text>
</a>
</g>
</g>
<!-- Node38&#45;&gt;Node41 -->
<g id="edge23" class="edge">
<title>Node38&#45;&gt;Node41</title>
<path fill="none" stroke="midnightblue" d="M751.77,-121.93C743.09,-121.08 734.35,-120.26 726,-119.5 662.15,-113.72 588.55,-107.98 540.42,-104.34"/>
<polygon fill="midnightblue" stroke="midnightblue" points="751.61,-125.43 761.91,-122.93 752.3,-118.47 751.61,-125.43"/>
</g>
<!-- Node42 -->
<g id="node21" class="node">
<title>Node42</title>
<g id="a_node21"><a xlink:href="classflow_1_1net__flow_1_1Node.html#ab427ebc124a6233ae48a7562662a6e81" target="_top" xlink:title="Creates a new Drop Timer and saves it to sock&#45;&gt;m_snd_drop_timer.">
<polygon fill="white" stroke="black" points="600.5,-45.5 600.5,-71.5 701.5,-71.5 701.5,-45.5 600.5,-45.5"/>
<text text-anchor="start" x="608.5" y="-61.1" font-family="Helvetica,sans-Serif" font-size="8.00">flow::net_flow::Node</text>
<text text-anchor="middle" x="651" y="-52.1" font-family="Helvetica,sans-Serif" font-size="8.00">::setup_drop_timer</text>
</a>
</g>
</g>
<!-- Node38&#45;&gt;Node42 -->
<g id="edge25" class="edge">
<title>Node38&#45;&gt;Node42</title>
<path fill="none" stroke="midnightblue" d="M776.5,-107.88C760.49,-100.89 742.55,-93.22 726,-86.5 713.53,-81.44 699.76,-76.14 687.52,-71.54"/>
<polygon fill="midnightblue" stroke="midnightblue" points="775.12,-111.1 785.68,-111.91 777.93,-104.69 775.12,-111.1"/>
</g>
<!-- Node43 -->
<g id="node22" class="node">
<title>Node43</title>
<g id="a_node22"><a xlink:href="classflow_1_1net__flow_1_1Node.html#a3fd57a0d025a78cbeccfd8a15a983575" target="_top" xlink:title="async_sock_low_lvl_packet_send_paced() pacing helper: If sock_pacing_process_q() ran out of the last ...">
<polygon fill="white" stroke="red" points="582.5,-0.5 582.5,-26.5 719.5,-26.5 719.5,-0.5 582.5,-0.5"/>
<text text-anchor="start" x="590.5" y="-16.1" font-family="Helvetica,sans-Serif" font-size="8.00">flow::net_flow::Node</text>
<text text-anchor="middle" x="651" y="-7.1" font-family="Helvetica,sans-Serif" font-size="8.00">::sock_pacing_time_slice_end</text>
</a>
</g>
</g>
<!-- Node38&#45;&gt;Node43 -->
<g id="edge27" class="edge">
<title>Node38&#45;&gt;Node43</title>
<path fill="none" stroke="midnightblue" d="M768,-106.44C765.9,-104.88 763.89,-103.24 762,-101.5 737.43,-78.85 751.98,-56.52 726,-35.5 721.73,-32.04 716.93,-29.13 711.87,-26.67"/>
<polygon fill="midnightblue" stroke="midnightblue" points="766.21,-109.45 776.5,-111.98 770.04,-103.59 766.21,-109.45"/>
</g>
<!-- Node41&#45;&gt;Node31 -->
<g id="edge24" class="edge">
<title>Node41&#45;&gt;Node31</title>
<path fill="none" stroke="midnightblue" d="M439.48,-122.47C418.89,-132.09 395.42,-143.05 377.61,-151.37"/>
<polygon fill="midnightblue" stroke="midnightblue" points="441.12,-125.56 448.7,-118.16 438.16,-119.22 441.12,-125.56"/>
</g>
<!-- Node42&#45;&gt;Node41 -->
<g id="edge26" class="edge">
<title>Node42&#45;&gt;Node41</title>
<path fill="none" stroke="midnightblue" d="M590.17,-74.06C573.71,-78.34 556.01,-82.94 540.06,-87.09"/>
<polygon fill="midnightblue" stroke="midnightblue" points="591.43,-77.35 600.23,-71.44 589.67,-70.57 591.43,-77.35"/>
</g>
<!-- Node49&#45;&gt;Node36 -->
<g id="edge30" class="edge">
<title>Node49&#45;&gt;Node36</title>
<path fill="none" stroke="midnightblue" d="M938.31,-96.97C918.15,-93.81 895.95,-90.32 876.72,-87.3"/>
<polygon fill="midnightblue" stroke="midnightblue" points="937.9,-100.45 948.32,-98.55 938.99,-93.54 937.9,-100.45"/>
</g>
</g>
</svg>
