<?xml version="1.0" encoding="UTF-8" standalone="no"?>
<!DOCTYPE svg PUBLIC "-//W3C//DTD SVG 1.1//EN"
 "http://www.w3.org/Graphics/SVG/1.1/DTD/svg11.dtd">
<!-- Generated by graphviz version 2.43.0 (0)
 -->
<!-- Title: flow::net_flow::Peer_socket::node_receive Pages: 1 -->
<svg width="1076pt" height="619pt"
 viewBox="0.00 0.00 1076.00 618.78" xmlns="http://www.w3.org/2000/svg" xmlns:xlink="http://www.w3.org/1999/xlink">
<g id="graph0" class="graph" transform="scale(1 1) rotate(0) translate(4 614.78)">
<title>flow::net_flow::Peer_socket::node_receive</title>
<polygon fill="white" stroke="transparent" points="-4,4 -4,-614.78 1072,-614.78 1072,4 -4,4"/>
<!-- Node1 -->
<g id="node1" class="node">
<title>Node1</title>
<g id="a_node1"><a xlink:title="Non&#45;template helper for template receive() that forwards the receive() logic to Node::receive().">
<polygon fill="#bfbfbf" stroke="black" points="0,-456.55 0,-482.55 108,-482.55 108,-456.55 0,-456.55"/>
<text text-anchor="start" x="8" y="-472.15" font-family="Helvetica,sans-Serif" font-size="8.00">flow::net_flow::Peer</text>
<text text-anchor="middle" x="54" y="-463.15" font-family="Helvetica,sans-Serif" font-size="8.00">_socket::node_receive</text>
</a>
</g>
</g>
<!-- Node2 -->
<g id="node2" class="node">
<title>Node2</title>
<g id="a_node2"><a xlink:href="classflow_1_1net__flow_1_1Node.html#a109a118ca312e94686595ea08dac7ad0" target="_top" xlink:title="Helper method that checks whether the given Peer_socket or Server_socket is CLOSED; if so,...">
<polygon fill="white" stroke="black" points="144,-479.55 144,-505.55 245,-505.55 245,-479.55 144,-479.55"/>
<text text-anchor="start" x="152" y="-495.15" font-family="Helvetica,sans-Serif" font-size="8.00">flow::net_flow::Node</text>
<text text-anchor="middle" x="194.5" y="-486.15" font-family="Helvetica,sans-Serif" font-size="8.00">::ensure_sock_open</text>
</a>
</g>
</g>
<!-- Node1&#45;&gt;Node2 -->
<g id="edge1" class="edge">
<title>Node1&#45;&gt;Node2</title>
<path fill="none" stroke="midnightblue" d="M108.15,-478.38C116.6,-479.78 125.38,-481.24 133.96,-482.66"/>
<polygon fill="midnightblue" stroke="midnightblue" points="133.46,-486.13 143.9,-484.31 134.61,-479.22 133.46,-486.13"/>
</g>
<!-- Node3 -->
<g id="node3" class="node">
<title>Node3</title>
<g id="a_node3"><a xlink:href="classflow_1_1net__flow_1_1Node.html#addbb96858fd7b3c9ddd7c6fe8078809c" target="_top" xlink:title="Implementation of non&#45;blocking sock&#45;&gt;receive() for socket sock in all cases except when sock&#45;&gt;state()...">
<polygon fill="white" stroke="black" points="144,-434.55 144,-460.55 245,-460.55 245,-434.55 144,-434.55"/>
<text text-anchor="start" x="152" y="-450.15" font-family="Helvetica,sans-Serif" font-size="8.00">flow::net_flow::Node</text>
<text text-anchor="middle" x="194.5" y="-441.15" font-family="Helvetica,sans-Serif" font-size="8.00">::receive</text>
</a>
</g>
</g>
<!-- Node1&#45;&gt;Node3 -->
<g id="edge2" class="edge">
<title>Node1&#45;&gt;Node3</title>
<path fill="none" stroke="midnightblue" d="M108.15,-461.11C116.6,-459.77 125.38,-458.37 133.96,-457.01"/>
<polygon fill="midnightblue" stroke="midnightblue" points="134.57,-460.45 143.9,-455.43 133.48,-453.54 134.57,-460.45"/>
</g>
<!-- Node4 -->
<g id="node4" class="node">
<title>Node4</title>
<g id="a_node4"><a xlink:href="classflow_1_1net__flow_1_1Node.html#ad608f9bbe76426f4fbf4bf5af908e4e0" target="_top" xlink:title="Placed by receive() onto W during a graceful close, after the Receive buffer had been emptied by the ...">
<polygon fill="white" stroke="black" points="281,-430.05 281,-465.05 402,-465.05 402,-430.05 281,-430.05"/>
<text text-anchor="start" x="289" y="-454.65" font-family="Helvetica,sans-Serif" font-size="8.00">flow::net_flow::Node</text>
<text text-anchor="start" x="289" y="-445.65" font-family="Helvetica,sans-Serif" font-size="8.00">::receive_emptied_rcv</text>
<text text-anchor="middle" x="341.5" y="-436.65" font-family="Helvetica,sans-Serif" font-size="8.00">_buf_while_disconnecting</text>
</a>
</g>
</g>
<!-- Node3&#45;&gt;Node4 -->
<g id="edge3" class="edge">
<title>Node3&#45;&gt;Node4</title>
<path fill="none" stroke="midnightblue" d="M245.4,-447.55C253.5,-447.55 262.01,-447.55 270.48,-447.55"/>
<polygon fill="midnightblue" stroke="midnightblue" points="270.75,-451.05 280.75,-447.55 270.75,-444.05 270.75,-451.05"/>
</g>
<!-- Node42 -->
<g id="node19" class="node">
<title>Node42</title>
<g id="a_node19"><a xlink:href="classflow_1_1net__flow_1_1Node.html#a08cf95363b26c0c676979437e34db357" target="_top" xlink:title="Placed by receive() onto W if it has dequeued data from Receive buffer and given it to the user,...">
<polygon fill="white" stroke="black" points="456,-480.55 456,-506.55 568,-506.55 568,-480.55 456,-480.55"/>
<text text-anchor="start" x="464" y="-496.15" font-family="Helvetica,sans-Serif" font-size="8.00">flow::net_flow::Node</text>
<text text-anchor="middle" x="512" y="-487.15" font-family="Helvetica,sans-Serif" font-size="8.00">::receive_wnd_updated</text>
</a>
</g>
</g>
<!-- Node3&#45;&gt;Node42 -->
<g id="edge20" class="edge">
<title>Node3&#45;&gt;Node42</title>
<path fill="none" stroke="midnightblue" d="M230.81,-460.66C246.05,-465.8 264.2,-471.25 281,-474.55 335.82,-485.33 399.17,-490 445.48,-492.02"/>
<polygon fill="midnightblue" stroke="midnightblue" points="445.55,-495.53 455.69,-492.44 445.84,-488.54 445.55,-495.53"/>
</g>
<!-- Node57 -->
<g id="node24" class="node">
<title>Node57</title>
<g id="a_node24"><a xlink:href="classflow_1_1net__flow_1_1Node.html#aae148cec361b59237996a4b30c6624b5" target="_top" xlink:title="Returns true if and only if the Node is operating.">
<polygon fill="white" stroke="black" points="291,-384.55 291,-410.55 392,-410.55 392,-384.55 291,-384.55"/>
<text text-anchor="start" x="299" y="-400.15" font-family="Helvetica,sans-Serif" font-size="8.00">flow::net_flow::Node</text>
<text text-anchor="middle" x="341.5" y="-391.15" font-family="Helvetica,sans-Serif" font-size="8.00">::running</text>
</a>
</g>
</g>
<!-- Node3&#45;&gt;Node57 -->
<g id="edge29" class="edge">
<title>Node3&#45;&gt;Node57</title>
<path fill="none" stroke="midnightblue" d="M233.22,-434.54C251.52,-428.23 273.71,-420.58 293.14,-413.88"/>
<polygon fill="midnightblue" stroke="midnightblue" points="294.41,-417.15 302.72,-410.58 292.12,-410.53 294.41,-417.15"/>
</g>
<!-- Node5 -->
<g id="node5" class="node">
<title>Node5</title>
<g id="a_node5"><a xlink:href="classflow_1_1net__flow_1_1Node.html#ade49e7bc7202a0adf33fec2d93d1b177" target="_top" xlink:title="A thread W method that handles the transition of the given socket from OPEN (any sub&#45;state) to CLOSED...">
<polygon fill="white" stroke="black" points="438,-233.55 438,-259.55 586,-259.55 586,-233.55 438,-233.55"/>
<text text-anchor="start" x="446" y="-249.15" font-family="Helvetica,sans-Serif" font-size="8.00">flow::net_flow::Node</text>
<text text-anchor="middle" x="512" y="-240.15" font-family="Helvetica,sans-Serif" font-size="8.00">::close_connection_immediately</text>
</a>
</g>
</g>
<!-- Node4&#45;&gt;Node5 -->
<g id="edge4" class="edge">
<title>Node4&#45;&gt;Node5</title>
<path fill="none" stroke="midnightblue" d="M387.16,-430.04C392.46,-426.97 397.55,-423.48 402,-419.55 451.13,-376.09 486.12,-305.25 501.79,-269.19"/>
<polygon fill="midnightblue" stroke="midnightblue" points="505.18,-270.16 505.86,-259.59 498.73,-267.43 505.18,-270.16"/>
</g>
<!-- Node41 -->
<g id="node18" class="node">
<title>Node41</title>
<g id="a_node18"><a xlink:href="classflow_1_1net__flow_1_1Node.html#a99836ffb51eaefa4d2cc21770461cd97" target="_top" xlink:title="Constructs the socket pair (connection ID) for the given socket.">
<polygon fill="white" stroke="black" points="640,-435.55 640,-461.55 741,-461.55 741,-435.55 640,-435.55"/>
<text text-anchor="start" x="648" y="-451.15" font-family="Helvetica,sans-Serif" font-size="8.00">flow::net_flow::Node</text>
<text text-anchor="middle" x="690.5" y="-442.15" font-family="Helvetica,sans-Serif" font-size="8.00">::socket_id</text>
</a>
</g>
</g>
<!-- Node4&#45;&gt;Node41 -->
<g id="edge19" class="edge">
<title>Node4&#45;&gt;Node41</title>
<path fill="none" stroke="midnightblue" d="M402.15,-447.72C465.75,-447.91 565.9,-448.19 629.6,-448.38"/>
<polygon fill="midnightblue" stroke="midnightblue" points="629.87,-451.88 639.88,-448.41 629.9,-444.88 629.87,-451.88"/>
</g>
<!-- Node6 -->
<g id="node6" class="node">
<title>Node6</title>
<g id="a_node6"><a xlink:href="classflow_1_1net__flow_1_1Node.html#a3f9cf4d7160b3e27b3b0131fc4507ce7" target="_top" xlink:title="Cancel any timers and scheduled tasks active in the given socket.">
<polygon fill="white" stroke="red" points="640,-345.55 640,-371.55 741,-371.55 741,-345.55 640,-345.55"/>
<text text-anchor="start" x="648" y="-361.15" font-family="Helvetica,sans-Serif" font-size="8.00">flow::net_flow::Node</text>
<text text-anchor="middle" x="690.5" y="-352.15" font-family="Helvetica,sans-Serif" font-size="8.00">::cancel_timers</text>
</a>
</g>
</g>
<!-- Node5&#45;&gt;Node6 -->
<g id="edge5" class="edge">
<title>Node5&#45;&gt;Node6</title>
<path fill="none" stroke="midnightblue" d="M525.95,-259.78C545.28,-278.88 583.55,-314.21 622,-335.55 625.94,-337.74 630.13,-339.77 634.41,-341.64"/>
<polygon fill="midnightblue" stroke="midnightblue" points="633.3,-344.97 643.88,-345.5 635.94,-338.48 633.3,-344.97"/>
</g>
<!-- Node9 -->
<g id="node8" class="node">
<title>Node9</title>
<g id="a_node8"><a xlink:href="classflow_1_1net__flow_1_1Node.html#a8a4ddf81ddbeab1f740940c4cc0d3625" target="_top" xlink:title="For each WAITING Event_set within the Node: checks for any events that hold, and if any do hold,...">
<polygon fill="white" stroke="red" points="626.5,-300.55 626.5,-326.55 754.5,-326.55 754.5,-300.55 626.5,-300.55"/>
<text text-anchor="start" x="634.5" y="-316.15" font-family="Helvetica,sans-Serif" font-size="8.00">flow::net_flow::Node</text>
<text text-anchor="middle" x="690.5" y="-307.15" font-family="Helvetica,sans-Serif" font-size="8.00">::event_set_all_check_delta</text>
</a>
</g>
</g>
<!-- Node5&#45;&gt;Node9 -->
<g id="edge7" class="edge">
<title>Node5&#45;&gt;Node9</title>
<path fill="none" stroke="midnightblue" d="M544.3,-259.72C565.99,-268.71 595.6,-280.73 622,-290.55 627.94,-292.76 634.2,-295 640.42,-297.18"/>
<polygon fill="midnightblue" stroke="midnightblue" points="639.51,-300.57 650.11,-300.54 641.8,-293.96 639.51,-300.57"/>
</g>
<!-- Node22 -->
<g id="node9" class="node">
<title>Node22</title>
<g id="a_node9"><a xlink:href="classflow_1_1util_1_1Linked__hash__map.html#aae7a4a3047c90f0ab26ae1a4ec7b9963" target="_top" xlink:title="Attempts to insert the given key/mapped&#45;value pair into the map.">
<polygon fill="white" stroke="black" points="644.5,-255.55 644.5,-281.55 736.5,-281.55 736.5,-255.55 644.5,-255.55"/>
<text text-anchor="start" x="652.5" y="-271.15" font-family="Helvetica,sans-Serif" font-size="8.00">flow::util::Linked</text>
<text text-anchor="middle" x="690.5" y="-262.15" font-family="Helvetica,sans-Serif" font-size="8.00">_hash_map::insert</text>
</a>
</g>
</g>
<!-- Node5&#45;&gt;Node22 -->
<g id="edge8" class="edge">
<title>Node5&#45;&gt;Node22</title>
<path fill="none" stroke="midnightblue" d="M586.06,-255.66C602.09,-257.65 618.81,-259.74 634.01,-261.63"/>
<polygon fill="midnightblue" stroke="midnightblue" points="633.91,-265.15 644.27,-262.91 634.78,-258.2 633.91,-265.15"/>
</g>
<!-- Node23 -->
<g id="node10" class="node">
<title>Node23</title>
<g id="a_node10"><a xlink:href="classflow_1_1net__flow_1_1Port__space.html#a9fe1be917ff7584ff587b5da5967127a" target="_top" xlink:title="Return a previously reserved port (of any type).">
<polygon fill="white" stroke="red" points="642.5,-210.55 642.5,-236.55 738.5,-236.55 738.5,-210.55 642.5,-210.55"/>
<text text-anchor="start" x="650.5" y="-226.15" font-family="Helvetica,sans-Serif" font-size="8.00">flow::net_flow::Port</text>
<text text-anchor="middle" x="690.5" y="-217.15" font-family="Helvetica,sans-Serif" font-size="8.00">_space::return_port</text>
</a>
</g>
</g>
<!-- Node5&#45;&gt;Node23 -->
<g id="edge9" class="edge">
<title>Node5&#45;&gt;Node23</title>
<path fill="none" stroke="midnightblue" d="M586.06,-237.03C601.55,-235.01 617.68,-232.91 632.47,-230.98"/>
<polygon fill="midnightblue" stroke="midnightblue" points="633.01,-234.44 642.47,-229.68 632.1,-227.5 633.01,-234.44"/>
</g>
<!-- Node26 -->
<g id="node11" class="node">
<title>Node26</title>
<g id="a_node11"><a xlink:href="classflow_1_1net__flow_1_1Node.html#a8a6c02bf520a16df4028bd3c88732a8d" target="_top" xlink:title="Records that a Server_socket&#45;contained (i.e., currently un&#45;established, or established but not yet ac...">
<polygon fill="white" stroke="black" points="628.5,-165.55 628.5,-191.55 752.5,-191.55 752.5,-165.55 628.5,-165.55"/>
<text text-anchor="start" x="636.5" y="-181.15" font-family="Helvetica,sans-Serif" font-size="8.00">flow::net_flow::Node</text>
<text text-anchor="middle" x="690.5" y="-172.15" font-family="Helvetica,sans-Serif" font-size="8.00">::serv_peer_socket_closed</text>
</a>
</g>
</g>
<!-- Node5&#45;&gt;Node26 -->
<g id="edge10" class="edge">
<title>Node5&#45;&gt;Node26</title>
<path fill="none" stroke="midnightblue" d="M542.34,-233.38C564.13,-223.79 594.67,-210.75 622,-200.55 627.12,-198.64 632.5,-196.73 637.89,-194.88"/>
<polygon fill="midnightblue" stroke="midnightblue" points="639.18,-198.13 647.54,-191.62 636.95,-191.5 639.18,-198.13"/>
</g>
<!-- Node27 -->
<g id="node12" class="node">
<title>Node27</title>
<g id="a_node12"><a xlink:href="classflow_1_1net__flow_1_1Node.html#ade529b5452c9fe363ae468346e662ceb" target="_top" xlink:title="While in S_OPEN+S_DISCONNECTING state (i.e., after beginning a graceful close with sock_disconnect_de...">
<polygon fill="white" stroke="red" points="622,-120.55 622,-146.55 759,-146.55 759,-120.55 622,-120.55"/>
<text text-anchor="start" x="630" y="-136.15" font-family="Helvetica,sans-Serif" font-size="8.00">flow::net_flow::Node</text>
<text text-anchor="middle" x="690.5" y="-127.15" font-family="Helvetica,sans-Serif" font-size="8.00">::sock_disconnect_completed</text>
</a>
</g>
</g>
<!-- Node5&#45;&gt;Node27 -->
<g id="edge11" class="edge">
<title>Node5&#45;&gt;Node27</title>
<path fill="none" stroke="midnightblue" d="M525.53,-233.26C544.64,-213.7 582.96,-177.15 622,-155.55 625.27,-153.74 628.7,-152.06 632.23,-150.49"/>
<polygon fill="midnightblue" stroke="midnightblue" points="633.77,-153.63 641.69,-146.6 631.11,-147.16 633.77,-153.63"/>
</g>
<!-- Node30 -->
<g id="node13" class="node">
<title>Node30</title>
<g id="a_node13"><a xlink:href="classflow_1_1net__flow_1_1Node.html#ada9357f6ce9d5fc249b1cc176afdc471" target="_top" xlink:title="Records that thread W shows underlying connection is broken (graceful termination,...">
<polygon fill="white" stroke="red" points="625,-75.55 625,-101.55 756,-101.55 756,-75.55 625,-75.55"/>
<text text-anchor="start" x="633" y="-91.15" font-family="Helvetica,sans-Serif" font-size="8.00">flow::net_flow::Node</text>
<text text-anchor="middle" x="690.5" y="-82.15" font-family="Helvetica,sans-Serif" font-size="8.00">::sock_disconnect_detected</text>
</a>
</g>
</g>
<!-- Node5&#45;&gt;Node30 -->
<g id="edge12" class="edge">
<title>Node5&#45;&gt;Node30</title>
<path fill="none" stroke="midnightblue" d="M520.12,-233.2C535.24,-206.08 573.22,-144.29 622,-110.55 624.38,-108.91 626.88,-107.38 629.48,-105.96"/>
<polygon fill="midnightblue" stroke="midnightblue" points="631.1,-109.07 638.56,-101.55 628.04,-102.77 631.1,-109.07"/>
</g>
<!-- Node31 -->
<g id="node14" class="node">
<title>Node31</title>
<g id="a_node14"><a xlink:href="classflow_1_1net__flow_1_1Node.html#a2336fae98b318ab73e7268e9a242bf09" target="_top" xlink:title="Given a Peer_socket, copies all stats info (as available via Peer_socket::info()) from various struct...">
<polygon fill="white" stroke="red" points="808,-30.55 808,-56.55 918,-56.55 918,-30.55 808,-30.55"/>
<text text-anchor="start" x="816" y="-46.15" font-family="Helvetica,sans-Serif" font-size="8.00">flow::net_flow::Node</text>
<text text-anchor="middle" x="863" y="-37.15" font-family="Helvetica,sans-Serif" font-size="8.00">::sock_load_info_struct</text>
</a>
</g>
</g>
<!-- Node5&#45;&gt;Node31 -->
<g id="edge13" class="edge">
<title>Node5&#45;&gt;Node31</title>
<path fill="none" stroke="midnightblue" d="M514.58,-233.46C520.25,-193 543.61,-69.78 622,-20.55 684.31,18.58 774.21,-6.87 824.43,-26.66"/>
<polygon fill="midnightblue" stroke="midnightblue" points="823.34,-30 833.92,-30.53 825.98,-23.52 823.34,-30"/>
</g>
<!-- Node34 -->
<g id="node16" class="node">
<title>Node34</title>
<g id="a_node16"><a xlink:href="classflow_1_1net__flow_1_1Node.html#a755c329b9e0f2b8edb2e5b900bd2a337" target="_top" xlink:title="Logs a verbose state report for the given socket.">
<polygon fill="white" stroke="red" points="640,-30.55 640,-56.55 741,-56.55 741,-30.55 640,-30.55"/>
<text text-anchor="start" x="648" y="-46.15" font-family="Helvetica,sans-Serif" font-size="8.00">flow::net_flow::Node</text>
<text text-anchor="middle" x="690.5" y="-37.15" font-family="Helvetica,sans-Serif" font-size="8.00">::sock_log_detail</text>
</a>
</g>
</g>
<!-- Node5&#45;&gt;Node34 -->
<g id="edge15" class="edge">
<title>Node5&#45;&gt;Node34</title>
<path fill="none" stroke="midnightblue" d="M517.25,-233.43C528.65,-200.27 563.15,-112.36 622,-65.55 624.74,-63.37 627.69,-61.41 630.79,-59.64"/>
<polygon fill="midnightblue" stroke="midnightblue" points="632.43,-62.73 639.82,-55.14 629.31,-56.47 632.43,-62.73"/>
</g>
<!-- Node40 -->
<g id="node17" class="node">
<title>Node40</title>
<g id="a_node17"><a xlink:href="classflow_1_1net__flow_1_1Node.html#aa1d9656e9e1480021c87530ec6dbebbe" target="_top" xlink:title="Sets internal state of given socket to the given state and logs a TRACE message about it.">
<polygon fill="white" stroke="black" points="640,-390.55 640,-416.55 741,-416.55 741,-390.55 640,-390.55"/>
<text text-anchor="start" x="648" y="-406.15" font-family="Helvetica,sans-Serif" font-size="8.00">flow::net_flow::Node</text>
<text text-anchor="middle" x="690.5" y="-397.15" font-family="Helvetica,sans-Serif" font-size="8.00">::sock_set_int_state</text>
</a>
</g>
</g>
<!-- Node5&#45;&gt;Node40 -->
<g id="edge17" class="edge">
<title>Node5&#45;&gt;Node40</title>
<path fill="none" stroke="midnightblue" d="M520.21,-259.65C535.49,-286.26 573.76,-346.97 622,-380.55 624.88,-382.56 627.95,-384.4 631.14,-386.09"/>
<polygon fill="midnightblue" stroke="midnightblue" points="629.81,-389.34 640.34,-390.47 632.82,-383.02 629.81,-389.34"/>
</g>
<!-- Node5&#45;&gt;Node41 -->
<g id="edge18" class="edge">
<title>Node5&#45;&gt;Node41</title>
<path fill="none" stroke="midnightblue" d="M517.5,-259.96C529.26,-293.01 564.1,-379.1 622,-425.55 624.74,-427.75 627.7,-429.74 630.8,-431.55"/>
<polygon fill="midnightblue" stroke="midnightblue" points="629.33,-434.73 639.83,-436.16 632.52,-428.49 629.33,-434.73"/>
</g>
<!-- Node7 -->
<g id="node7" class="node">
<title>Node7</title>
<g id="a_node7"><a xlink:href="classflow_1_1log_1_1Log__context.html#af4db395042b065b00398cd59845dcb4d" target="_top" xlink:title="Returns the stored Logger pointer, particularly as many FLOW_LOG_*() macros expect.">
<polygon fill="white" stroke="black" points="809.5,-343.55 809.5,-369.55 916.5,-369.55 916.5,-343.55 809.5,-343.55"/>
<text text-anchor="start" x="817.5" y="-359.15" font-family="Helvetica,sans-Serif" font-size="8.00">flow::log::Log_context</text>
<text text-anchor="middle" x="863" y="-350.15" font-family="Helvetica,sans-Serif" font-size="8.00">::get_logger</text>
</a>
</g>
</g>
<!-- Node6&#45;&gt;Node7 -->
<g id="edge6" class="edge">
<title>Node6&#45;&gt;Node7</title>
<path fill="none" stroke="midnightblue" d="M741.27,-357.97C759.44,-357.75 780.22,-357.51 799.36,-357.28"/>
<polygon fill="midnightblue" stroke="midnightblue" points="799.53,-360.78 809.49,-357.17 799.45,-353.78 799.53,-360.78"/>
</g>
<!-- Node33 -->
<g id="node15" class="node">
<title>Node33</title>
<g id="a_node15"><a xlink:href="classflow_1_1net__flow_1_1Node.html#ac397d3fd163f1456b7bb370a3cff951c" target="_top" xlink:title="Computes and returns the currently correct rcv_wnd value; that is the amount of space free in Receive...">
<polygon fill="white" stroke="black" points="967,-385.55 967,-411.55 1068,-411.55 1068,-385.55 967,-385.55"/>
<text text-anchor="start" x="975" y="-401.15" font-family="Helvetica,sans-Serif" font-size="8.00">flow::net_flow::Node</text>
<text text-anchor="middle" x="1017.5" y="-392.15" font-family="Helvetica,sans-Serif" font-size="8.00">::sock_rcv_wnd</text>
</a>
</g>
</g>
<!-- Node31&#45;&gt;Node33 -->
<g id="edge14" class="edge">
<title>Node31&#45;&gt;Node33</title>
<path fill="none" stroke="midnightblue" d="M869.61,-56.61C892.35,-109.55 977.88,-308.65 1006.84,-376.07"/>
<polygon fill="midnightblue" stroke="midnightblue" points="1003.68,-377.57 1010.84,-385.38 1010.11,-374.81 1003.68,-377.57"/>
</g>
<!-- Node34&#45;&gt;Node31 -->
<g id="edge16" class="edge">
<title>Node34&#45;&gt;Node31</title>
<path fill="none" stroke="midnightblue" d="M741.27,-43.55C758.94,-43.55 779.08,-43.55 797.78,-43.55"/>
<polygon fill="midnightblue" stroke="midnightblue" points="797.99,-47.05 807.99,-43.55 797.99,-40.05 797.99,-47.05"/>
</g>
<!-- Node42&#45;&gt;Node33 -->
<g id="edge28" class="edge">
<title>Node42&#45;&gt;Node33</title>
<path fill="none" stroke="midnightblue" d="M532.25,-506.67C594.97,-547.66 797.09,-665.59 931,-580.55 986.88,-545.06 1006.89,-462.3 1013.51,-421.76"/>
<polygon fill="midnightblue" stroke="midnightblue" points="1016.99,-422.15 1015.01,-411.74 1010.06,-421.11 1016.99,-422.15"/>
</g>
<!-- Node43 -->
<g id="node20" class="node">
<title>Node43</title>
<g id="a_node20"><a xlink:href="classflow_1_1net__flow_1_1Node.html#a192d4b95b9f8a5c3d08b1e5486eb6f78" target="_top" xlink:title="receive_wnd_updated() helper that continues rcv_wnd recovery: that is, sends unsolicited ACK with a r...">
<polygon fill="white" stroke="black" points="629.5,-480.55 629.5,-506.55 751.5,-506.55 751.5,-480.55 629.5,-480.55"/>
<text text-anchor="start" x="637.5" y="-496.15" font-family="Helvetica,sans-Serif" font-size="8.00">flow::net_flow::Node</text>
<text text-anchor="middle" x="690.5" y="-487.15" font-family="Helvetica,sans-Serif" font-size="8.00">::async_rcv_wnd_recovery</text>
</a>
</g>
</g>
<!-- Node42&#45;&gt;Node43 -->
<g id="edge21" class="edge">
<title>Node42&#45;&gt;Node43</title>
<path fill="none" stroke="midnightblue" d="M568.36,-493.55C584.44,-493.55 602.21,-493.55 619.08,-493.55"/>
<polygon fill="midnightblue" stroke="midnightblue" points="619.44,-497.05 629.44,-493.55 619.44,-490.05 619.44,-497.05"/>
</g>
<!-- Node43&#45;&gt;Node7 -->
<g id="edge24" class="edge">
<title>Node43&#45;&gt;Node7</title>
<path fill="none" stroke="midnightblue" d="M746.18,-480.5C750.83,-478.02 755.2,-475.07 759,-471.55 789.71,-443.13 765.46,-414.19 795,-384.55 798.74,-380.8 803.06,-377.52 807.67,-374.66"/>
<polygon fill="midnightblue" stroke="midnightblue" points="809.7,-377.54 816.81,-369.68 806.35,-371.4 809.7,-377.54"/>
</g>
<!-- Node43&#45;&gt;Node33 -->
<g id="edge27" class="edge">
<title>Node43&#45;&gt;Node33</title>
<path fill="none" stroke="midnightblue" d="M743.78,-480.5C749.19,-478.01 754.38,-475.05 759,-471.55 781.98,-454.12 770.17,-432.24 795,-417.55 843.74,-388.72 909.38,-386.69 956.53,-390.22"/>
<polygon fill="midnightblue" stroke="midnightblue" points="956.33,-393.72 966.6,-391.08 956.93,-386.74 956.33,-393.72"/>
</g>
<!-- Node43&#45;&gt;Node43 -->
<g id="edge22" class="edge">
<title>Node43&#45;&gt;Node43</title>
<path fill="none" stroke="midnightblue" d="M661.4,-506.82C652.58,-516.01 662.28,-525.05 690.5,-525.05 708.14,-525.05 718.54,-521.52 721.71,-516.63"/>
<polygon fill="midnightblue" stroke="midnightblue" points="725.12,-515.86 719.6,-506.82 718.28,-517.33 725.12,-515.86"/>
</g>
<!-- Node44 -->
<g id="node21" class="node">
<title>Node44</title>
<g id="a_node21"><a xlink:href="classflow_1_1net__flow_1_1Node.html#af1c4623729d0a061200a386f7a651926" target="_top" xlink:title="Begins the process of asynchronously sending the given low&#45;level packet to the remote Node specified ...">
<polygon fill="white" stroke="red" points="812.5,-536.05 812.5,-571.05 913.5,-571.05 913.5,-536.05 812.5,-536.05"/>
<text text-anchor="start" x="820.5" y="-560.65" font-family="Helvetica,sans-Serif" font-size="8.00">flow::net_flow::Node</text>
<text text-anchor="start" x="820.5" y="-551.65" font-family="Helvetica,sans-Serif" font-size="8.00">::async_sock_low_lvl</text>
<text text-anchor="middle" x="863" y="-542.65" font-family="Helvetica,sans-Serif" font-size="8.00">_packet_send_paced</text>
</a>
</g>
</g>
<!-- Node43&#45;&gt;Node44 -->
<g id="edge23" class="edge">
<title>Node43&#45;&gt;Node44</title>
<path fill="none" stroke="midnightblue" d="M728.5,-506.57C750.2,-514.21 778.12,-524.03 802.82,-532.72"/>
<polygon fill="midnightblue" stroke="midnightblue" points="801.86,-536.1 812.46,-536.12 804.19,-529.49 801.86,-536.1"/>
</g>
<!-- Node53 -->
<g id="node22" class="node">
<title>Node53</title>
<g id="a_node22"><a xlink:href="classflow_1_1util_1_1Shared__ptr__alias__holder.html#a55a247bb8fb2ec94b7cbfdd56be65a81" target="_top" xlink:title="Provides syntactic&#45;sugary way to perform a static_pointer_cast&lt;&gt; from a compatible smart pointer type...">
<polygon fill="white" stroke="black" points="795,-472.55 795,-516.55 931,-516.55 931,-472.55 795,-472.55"/>
<text text-anchor="start" x="803" y="-506.15" font-family="Helvetica,sans-Serif" font-size="8.00">flow::util::Shared</text>
<text text-anchor="start" x="803" y="-497.15" font-family="Helvetica,sans-Serif" font-size="8.00">_ptr_alias_holder&lt; boost</text>
<text text-anchor="start" x="803" y="-488.15" font-family="Helvetica,sans-Serif" font-size="8.00">::shared_ptr&lt; Low_lvl_packet</text>
<text text-anchor="middle" x="863" y="-479.15" font-family="Helvetica,sans-Serif" font-size="8.00"> &gt; &gt;::ptr_cast</text>
</a>
</g>
</g>
<!-- Node43&#45;&gt;Node53 -->
<g id="edge25" class="edge">
<title>Node43&#45;&gt;Node53</title>
<path fill="none" stroke="midnightblue" d="M751.61,-493.9C762.33,-493.97 773.63,-494.03 784.74,-494.1"/>
<polygon fill="midnightblue" stroke="midnightblue" points="784.86,-497.6 794.88,-494.16 784.9,-490.6 784.86,-497.6"/>
</g>
<!-- Node54 -->
<g id="node23" class="node">
<title>Node54</title>
<g id="a_node23"><a xlink:href="namespaceflow_1_1util.html#a74d4a66fb00055be4e1bd6ee98e04667" target="_top" xlink:title="Schedule the given function to execute in a certain amount of time: A handy wrapper around Timer (asi...">
<polygon fill="white" stroke="red" points="815.5,-427.55 815.5,-453.55 910.5,-453.55 910.5,-427.55 815.5,-427.55"/>
<text text-anchor="start" x="823.5" y="-443.15" font-family="Helvetica,sans-Serif" font-size="8.00">flow::util::schedule</text>
<text text-anchor="middle" x="863" y="-434.15" font-family="Helvetica,sans-Serif" font-size="8.00">_task_from_now</text>
</a>
</g>
</g>
<!-- Node43&#45;&gt;Node54 -->
<g id="edge26" class="edge">
<title>Node43&#45;&gt;Node54</title>
<path fill="none" stroke="midnightblue" d="M733.65,-480.45C756.79,-473.26 785.68,-464.27 810.19,-456.66"/>
<polygon fill="midnightblue" stroke="midnightblue" points="811.53,-459.9 820.04,-453.59 809.46,-453.22 811.53,-459.9"/>
</g>
</g>
</svg>
