<?xml version="1.0" encoding="UTF-8" standalone="no"?>
<!DOCTYPE svg PUBLIC "-//W3C//DTD SVG 1.1//EN"
 "http://www.w3.org/Graphics/SVG/1.1/DTD/svg11.dtd">
<!-- Generated by graphviz version 2.43.0 (0)
 -->
<!-- Title: flow::net_flow::Node::async_rcv_wnd_recovery Pages: 1 -->
<svg width="745pt" height="153pt"
 viewBox="0.00 0.00 745.00 152.50" xmlns="http://www.w3.org/2000/svg" xmlns:xlink="http://www.w3.org/1999/xlink">
<g id="graph0" class="graph" transform="scale(1 1) rotate(0) translate(4 148.5)">
<title>flow::net_flow::Node::async_rcv_wnd_recovery</title>
<polygon fill="white" stroke="transparent" points="-4,4 -4,-148.5 741,-148.5 741,4 -4,4"/>
<!-- Node1 -->
<g id="node1" class="node">
<title>Node1</title>
<g id="a_node1"><a xlink:title="receive_wnd_updated() helper that continues rcv_wnd recovery: that is, sends unsolicited ACK with a r...">
<polygon fill="#bfbfbf" stroke="black" points="615,-95 615,-121 737,-121 737,-95 615,-95"/>
<text text-anchor="start" x="623" y="-110.6" font-family="Helvetica,sans-Serif" font-size="8.00">flow::net_flow::Node</text>
<text text-anchor="middle" x="676" y="-101.6" font-family="Helvetica,sans-Serif" font-size="8.00">::async_rcv_wnd_recovery</text>
</a>
</g>
</g>
<!-- Node1&#45;&gt;Node1 -->
<g id="edge1" class="edge">
<title>Node1&#45;&gt;Node1</title>
<path fill="none" stroke="midnightblue" d="M703.36,-131.44C700.32,-136.14 691.2,-139.5 676,-139.5 651.06,-139.5 642.49,-130.46 650.28,-121.27"/>
<polygon fill="midnightblue" stroke="midnightblue" points="706.77,-130.59 701.72,-121.27 699.85,-131.7 706.77,-130.59"/>
</g>
<!-- Node2 -->
<g id="node2" class="node">
<title>Node2</title>
<g id="a_node2"><a xlink:href="classflow_1_1net__flow_1_1Node.html#a08cf95363b26c0c676979437e34db357" target="_top" xlink:title="Placed by receive() onto W if it has dequeued data from Receive buffer and given it to the user,...">
<polygon fill="white" stroke="black" points="467,-95 467,-121 579,-121 579,-95 467,-95"/>
<text text-anchor="start" x="475" y="-110.6" font-family="Helvetica,sans-Serif" font-size="8.00">flow::net_flow::Node</text>
<text text-anchor="middle" x="523" y="-101.6" font-family="Helvetica,sans-Serif" font-size="8.00">::receive_wnd_updated</text>
</a>
</g>
</g>
<!-- Node1&#45;&gt;Node2 -->
<g id="edge2" class="edge">
<title>Node1&#45;&gt;Node2</title>
<path fill="none" stroke="midnightblue" d="M604.8,-108C596.14,-108 587.39,-108 579.01,-108"/>
<polygon fill="midnightblue" stroke="midnightblue" points="604.89,-111.5 614.89,-108 604.89,-104.5 604.89,-111.5"/>
</g>
<!-- Node3 -->
<g id="node3" class="node">
<title>Node3</title>
<g id="a_node3"><a xlink:href="classflow_1_1net__flow_1_1Node.html#addbb96858fd7b3c9ddd7c6fe8078809c" target="_top" xlink:title="Implementation of non&#45;blocking sock&#45;&gt;receive() for socket sock in all cases except when sock&#45;&gt;state()...">
<polygon fill="white" stroke="black" points="330,-95 330,-121 431,-121 431,-95 330,-95"/>
<text text-anchor="start" x="338" y="-110.6" font-family="Helvetica,sans-Serif" font-size="8.00">flow::net_flow::Node</text>
<text text-anchor="middle" x="380.5" y="-101.6" font-family="Helvetica,sans-Serif" font-size="8.00">::receive</text>
</a>
</g>
</g>
<!-- Node2&#45;&gt;Node3 -->
<g id="edge3" class="edge">
<title>Node2&#45;&gt;Node3</title>
<path fill="none" stroke="midnightblue" d="M456.63,-108C448.16,-108 439.6,-108 431.44,-108"/>
<polygon fill="midnightblue" stroke="midnightblue" points="456.87,-111.5 466.87,-108 456.87,-104.5 456.87,-111.5"/>
</g>
<!-- Node4 -->
<g id="node4" class="node">
<title>Node4</title>
<g id="a_node4"><a xlink:href="classflow_1_1net__flow_1_1Peer__socket.html#af3ac1b0b3c9b1c3a5ec246148595c657" target="_top" xlink:title="Non&#45;template helper for template receive() that forwards the receive() logic to Node::receive().">
<polygon fill="white" stroke="black" points="174.5,-118 174.5,-144 282.5,-144 282.5,-118 174.5,-118"/>
<text text-anchor="start" x="182.5" y="-133.6" font-family="Helvetica,sans-Serif" font-size="8.00">flow::net_flow::Peer</text>
<text text-anchor="middle" x="228.5" y="-124.6" font-family="Helvetica,sans-Serif" font-size="8.00">_socket::node_receive</text>
</a>
</g>
</g>
<!-- Node3&#45;&gt;Node4 -->
<g id="edge4" class="edge">
<title>Node3&#45;&gt;Node4</title>
<path fill="none" stroke="midnightblue" d="M319.8,-117.15C307.51,-119.04 294.64,-121.01 282.59,-122.86"/>
<polygon fill="midnightblue" stroke="midnightblue" points="320.61,-120.57 329.97,-115.59 319.55,-113.65 320.61,-120.57"/>
</g>
<!-- Node6 -->
<g id="node6" class="node">
<title>Node6</title>
<g id="a_node6"><a xlink:href="classflow_1_1net__flow_1_1Peer__socket.html#a8abde92d5189bf2a058fe8741789f814" target="_top" xlink:title="This is to sync_receive() as node_receive() is to receive().">
<polygon fill="white" stroke="black" points="163,-73 163,-99 294,-99 294,-73 163,-73"/>
<text text-anchor="start" x="171" y="-88.6" font-family="Helvetica,sans-Serif" font-size="8.00">flow::net_flow::Peer</text>
<text text-anchor="middle" x="228.5" y="-79.6" font-family="Helvetica,sans-Serif" font-size="8.00">_socket::node_sync_receive</text>
</a>
</g>
</g>
<!-- Node3&#45;&gt;Node6 -->
<g id="edge6" class="edge">
<title>Node3&#45;&gt;Node6</title>
<path fill="none" stroke="midnightblue" d="M319.86,-99.25C311.43,-98.02 302.74,-96.74 294.23,-95.49"/>
<polygon fill="midnightblue" stroke="midnightblue" points="319.57,-102.75 329.97,-100.74 320.58,-95.82 319.57,-102.75"/>
</g>
<!-- Node5 -->
<g id="node5" class="node">
<title>Node5</title>
<g id="a_node5"><a xlink:href="classflow_1_1net__flow_1_1Peer__socket.html#aeb88e9253cc3f52269cb762c8e57e6d0" target="_top" xlink:title="Receives (consumes from the Receive buffer) bytes of data, up to a given maximum cumulative number of...">
<polygon fill="white" stroke="black" points="15,-118 15,-144 112,-144 112,-118 15,-118"/>
<text text-anchor="start" x="23" y="-133.6" font-family="Helvetica,sans-Serif" font-size="8.00">flow::net_flow::Peer</text>
<text text-anchor="middle" x="63.5" y="-124.6" font-family="Helvetica,sans-Serif" font-size="8.00">_socket::receive</text>
</a>
</g>
</g>
<!-- Node4&#45;&gt;Node5 -->
<g id="edge5" class="edge">
<title>Node4&#45;&gt;Node5</title>
<path fill="none" stroke="midnightblue" d="M164.12,-131C146.86,-131 128.45,-131 112.22,-131"/>
<polygon fill="midnightblue" stroke="midnightblue" points="164.13,-134.5 174.13,-131 164.13,-127.5 164.13,-134.5"/>
</g>
<!-- Node7 -->
<g id="node7" class="node">
<title>Node7</title>
<g id="a_node7"><a xlink:href="classflow_1_1net__flow_1_1Peer__socket.html#ad29f61b9885b10ddc3846cdae0560518" target="_top" xlink:title="Same as sync_receive() but uses a Fine_clock&#45;based Fine_duration non&#45;template type for implementation...">
<polygon fill="white" stroke="red" points="0,-73 0,-99 127,-99 127,-73 0,-73"/>
<text text-anchor="start" x="8" y="-88.6" font-family="Helvetica,sans-Serif" font-size="8.00">flow::net_flow::Peer</text>
<text text-anchor="middle" x="63.5" y="-79.6" font-family="Helvetica,sans-Serif" font-size="8.00">_socket::sync_receive_impl</text>
</a>
</g>
</g>
<!-- Node6&#45;&gt;Node7 -->
<g id="edge7" class="edge">
<title>Node6&#45;&gt;Node7</title>
<path fill="none" stroke="midnightblue" d="M152.35,-86C143.88,-86 135.33,-86 127.04,-86"/>
<polygon fill="midnightblue" stroke="midnightblue" points="152.61,-89.5 162.61,-86 152.61,-82.5 152.61,-89.5"/>
</g>
<!-- Node9 -->
<g id="node8" class="node">
<title>Node9</title>
<g id="a_node8"><a xlink:href="classflow_1_1net__flow_1_1Peer__socket.html#a1a2eccfa314a397c12259f414ef6798c" target="_top" xlink:title="Helper similar to sync_receive_impl() but for the null_buffers versions of sync_receive().">
<polygon fill="white" stroke="red" points="10.5,-0.5 10.5,-35.5 116.5,-35.5 116.5,-0.5 10.5,-0.5"/>
<text text-anchor="start" x="18.5" y="-25.1" font-family="Helvetica,sans-Serif" font-size="8.00">flow::net_flow::Peer</text>
<text text-anchor="start" x="18.5" y="-16.1" font-family="Helvetica,sans-Serif" font-size="8.00">_socket::sync_receive</text>
<text text-anchor="middle" x="63.5" y="-7.1" font-family="Helvetica,sans-Serif" font-size="8.00">_reactor_pattern_impl</text>
</a>
</g>
</g>
<!-- Node6&#45;&gt;Node9 -->
<g id="edge8" class="edge">
<title>Node6&#45;&gt;Node9</title>
<path fill="none" stroke="midnightblue" d="M186.72,-68.99C162.29,-58.8 131.29,-45.86 106.62,-35.57"/>
<polygon fill="midnightblue" stroke="midnightblue" points="185.5,-72.27 196.07,-72.89 188.19,-65.81 185.5,-72.27"/>
</g>
<!-- Node9&#45;&gt;Node9 -->
<g id="edge9" class="edge">
<title>Node9&#45;&gt;Node9</title>
<path fill="none" stroke="midnightblue" d="M92.06,-46.1C88.05,-50.77 78.53,-54 63.5,-54 38.84,-54 29.01,-45.31 34.02,-35.78"/>
<polygon fill="midnightblue" stroke="midnightblue" points="95.58,-46.05 92.98,-35.78 88.61,-45.43 95.58,-46.05"/>
</g>
</g>
</svg>
