<?xml version="1.0" encoding="UTF-8" standalone="no"?>
<!DOCTYPE svg PUBLIC "-//W3C//DTD SVG 1.1//EN"
 "http://www.w3.org/Graphics/SVG/1.1/DTD/svg11.dtd">
<!-- Generated by graphviz version 2.43.0 (0)
 -->
<!-- Title: flow::net_flow::Peer_socket::ensure_open Pages: 1 -->
<svg width="255pt" height="62pt"
 viewBox="0.00 0.00 255.00 62.00" xmlns="http://www.w3.org/2000/svg" xmlns:xlink="http://www.w3.org/1999/xlink">
<g id="graph0" class="graph" transform="scale(1 1) rotate(0) translate(4 58)">
<title>flow::net_flow::Peer_socket::ensure_open</title>
<polygon fill="white" stroke="transparent" points="-4,4 -4,-58 251,-58 251,4 -4,4"/>
<!-- Node1 -->
<g id="node1" class="node">
<title>Node1</title>
<g id="a_node1"><a xlink:title="Helper that is equivalent to Node::ensure_sock_open(this, err_code).">
<polygon fill="#bfbfbf" stroke="black" points="140,-5 140,-31 247,-31 247,-5 140,-5"/>
<text text-anchor="start" x="148" y="-20.6" font-family="Helvetica,sans-Serif" font-size="8.00">flow::net_flow::Peer</text>
<text text-anchor="middle" x="193.5" y="-11.6" font-family="Helvetica,sans-Serif" font-size="8.00">_socket::ensure_open</text>
</a>
</g>
</g>
<!-- Node2 -->
<g id="node2" class="node">
<title>Node2</title>
<g id="a_node2"><a xlink:href="classflow_1_1net__flow_1_1Peer__socket.html#ace9175d5481b2bcc77e3d39a3982775b" target="_top" xlink:title="Obtains the serialized connect metadata, as supplied by the user during the connection handshake.">
<polygon fill="white" stroke="black" points="0,-0.5 0,-35.5 104,-35.5 104,-0.5 0,-0.5"/>
<text text-anchor="start" x="8" y="-25.1" font-family="Helvetica,sans-Serif" font-size="8.00">flow::net_flow::Peer</text>
<text text-anchor="start" x="8" y="-16.1" font-family="Helvetica,sans-Serif" font-size="8.00">_socket::get_connect</text>
<text text-anchor="middle" x="52" y="-7.1" font-family="Helvetica,sans-Serif" font-size="8.00">_metadata</text>
</a>
</g>
</g>
<!-- Node1&#45;&gt;Node2 -->
<g id="edge1" class="edge">
<title>Node1&#45;&gt;Node2</title>
<path fill="none" stroke="midnightblue" d="M129.59,-18C121.17,-18 112.62,-18 104.43,-18"/>
<polygon fill="midnightblue" stroke="midnightblue" points="129.76,-21.5 139.76,-18 129.76,-14.5 129.76,-21.5"/>
</g>
<!-- Node2&#45;&gt;Node2 -->
<g id="edge2" class="edge">
<title>Node2&#45;&gt;Node2</title>
<path fill="none" stroke="midnightblue" d="M76.38,-46.1C72.96,-50.77 64.83,-54 52,-54 30.95,-54 22.56,-45.31 26.83,-35.78"/>
<polygon fill="midnightblue" stroke="midnightblue" points="79.9,-46.02 77.17,-35.78 72.92,-45.49 79.9,-46.02"/>
</g>
</g>
</svg>
