<?xml version="1.0" encoding="UTF-8" standalone="no"?>
<!DOCTYPE svg PUBLIC "-//W3C//DTD SVG 1.1//EN"
 "http://www.w3.org/Graphics/SVG/1.1/DTD/svg11.dtd">
<!-- Generated by graphviz version 2.43.0 (0)
 -->
<!-- Title: flow::perf::Checkpointing_timer::operator&lt;&lt; Pages: 1 -->
<svg width="592pt" height="98pt"
 viewBox="0.00 0.00 592.00 98.00" xmlns="http://www.w3.org/2000/svg" xmlns:xlink="http://www.w3.org/1999/xlink">
<g id="graph0" class="graph" transform="scale(1 1) rotate(0) translate(4 94)">
<title>flow::perf::Checkpointing_timer::operator&lt;&lt;</title>
<polygon fill="white" stroke="transparent" points="-4,4 -4,-94 588,-94 588,4 -4,4"/>
<!-- Node1 -->
<g id="node1" class="node">
<title>Node1</title>
<g id="a_node1"><a xlink:title="Prints string representation of the given Checkpointing_timer (whether with original data or an aggre...">
<polygon fill="#bfbfbf" stroke="black" points="0,-21.5 0,-47.5 119,-47.5 119,-21.5 0,-21.5"/>
<text text-anchor="start" x="8" y="-37.1" font-family="Helvetica,sans-Serif" font-size="8.00">flow::perf::Checkpointing</text>
<text text-anchor="middle" x="59.5" y="-28.1" font-family="Helvetica,sans-Serif" font-size="8.00">_timer::operator&lt;&lt;</text>
</a>
</g>
</g>
<!-- Node2 -->
<g id="node2" class="node">
<title>Node2</title>
<g id="a_node2"><a xlink:href="classflow_1_1perf_1_1Checkpointing__timer.html#a07204b9119b94bc10d53a8ba15c44797" target="_top" xlink:title="Equivalent to (*os) &lt;&lt; (*this).">
<polygon fill="white" stroke="black" points="155,-21.5 155,-47.5 274,-47.5 274,-21.5 155,-21.5"/>
<text text-anchor="start" x="163" y="-37.1" font-family="Helvetica,sans-Serif" font-size="8.00">flow::perf::Checkpointing</text>
<text text-anchor="middle" x="214.5" y="-28.1" font-family="Helvetica,sans-Serif" font-size="8.00">_timer::output</text>
</a>
</g>
</g>
<!-- Node1&#45;&gt;Node2 -->
<g id="edge1" class="edge">
<title>Node1&#45;&gt;Node2</title>
<path fill="none" stroke="midnightblue" d="M119.22,-34.5C127.54,-34.5 136.17,-34.5 144.67,-34.5"/>
<polygon fill="midnightblue" stroke="midnightblue" points="144.94,-38 154.94,-34.5 144.94,-31 144.94,-38"/>
</g>
<!-- Node3 -->
<g id="node3" class="node">
<title>Node3</title>
<g id="a_node3"><a xlink:href="classflow_1_1perf_1_1Checkpointing__timer.html#a9e6078df059d5626ab5774f0a33fbad7" target="_top" xlink:title="Records a checkpoint, which takes a sample of all enabled Clock_types&#39; clocks and records the corresp...">
<polygon fill="white" stroke="black" points="310,-42.5 310,-68.5 429,-68.5 429,-42.5 310,-42.5"/>
<text text-anchor="start" x="318" y="-58.1" font-family="Helvetica,sans-Serif" font-size="8.00">flow::perf::Checkpointing</text>
<text text-anchor="middle" x="369.5" y="-49.1" font-family="Helvetica,sans-Serif" font-size="8.00">_timer::checkpoint</text>
</a>
</g>
</g>
<!-- Node2&#45;&gt;Node3 -->
<g id="edge2" class="edge">
<title>Node2&#45;&gt;Node3</title>
<path fill="none" stroke="midnightblue" d="M274.22,-42.56C282.64,-43.71 291.36,-44.91 299.95,-46.09"/>
<polygon fill="midnightblue" stroke="midnightblue" points="299.56,-49.57 309.94,-47.46 300.51,-42.64 299.56,-49.57"/>
</g>
<!-- Node5 -->
<g id="node5" class="node">
<title>Node5</title>
<g id="a_node5"><a xlink:href="classflow_1_1perf_1_1Checkpointing__timer.html#afeb1faa0e4962dacf9b6a134191a4933" target="_top" xlink:title="Returns the duration(s) (for all enabled Clock_types) between construction and the last checkpoint() ...">
<polygon fill="white" stroke="black" points="465,-0.5 465,-26.5 584,-26.5 584,-0.5 465,-0.5"/>
<text text-anchor="start" x="473" y="-16.1" font-family="Helvetica,sans-Serif" font-size="8.00">flow::perf::Checkpointing</text>
<text text-anchor="middle" x="524.5" y="-7.1" font-family="Helvetica,sans-Serif" font-size="8.00">_timer::since_start</text>
</a>
</g>
</g>
<!-- Node2&#45;&gt;Node5 -->
<g id="edge6" class="edge">
<title>Node2&#45;&gt;Node5</title>
<path fill="none" stroke="midnightblue" d="M274.16,-30.5C325.56,-27 400.33,-21.9 454.58,-18.2"/>
<polygon fill="midnightblue" stroke="midnightblue" points="455.06,-21.67 464.8,-17.5 454.58,-14.69 455.06,-21.67"/>
</g>
<!-- Node4 -->
<g id="node4" class="node">
<title>Node4</title>
<g id="a_node4"><a xlink:href="classflow_1_1perf_1_1Checkpointing__timer.html#a3b73f2812c2bf6a27ef2becc13859d73" target="_top" xlink:title="Sample all currently enabled Clock_types&#39; clocks and return those values, each of which is a time sta...">
<polygon fill="white" stroke="black" points="465,-45.5 465,-71.5 584,-71.5 584,-45.5 465,-45.5"/>
<text text-anchor="start" x="473" y="-61.1" font-family="Helvetica,sans-Serif" font-size="8.00">flow::perf::Checkpointing</text>
<text text-anchor="middle" x="524.5" y="-52.1" font-family="Helvetica,sans-Serif" font-size="8.00">_timer::now</text>
</a>
</g>
</g>
<!-- Node3&#45;&gt;Node4 -->
<g id="edge3" class="edge">
<title>Node3&#45;&gt;Node4</title>
<path fill="none" stroke="midnightblue" d="M429.22,-56.65C437.54,-56.81 446.17,-56.98 454.67,-57.15"/>
<polygon fill="midnightblue" stroke="midnightblue" points="454.87,-60.65 464.94,-57.35 455.01,-53.66 454.87,-60.65"/>
</g>
<!-- Node3&#45;&gt;Node5 -->
<g id="edge5" class="edge">
<title>Node3&#45;&gt;Node5</title>
<path fill="none" stroke="midnightblue" d="M418.07,-42.44C433.33,-38.25 450.38,-33.57 466.25,-29.21"/>
<polygon fill="midnightblue" stroke="midnightblue" points="467.24,-32.57 475.96,-26.55 465.39,-25.82 467.24,-32.57"/>
</g>
<!-- Node4&#45;&gt;Node4 -->
<g id="edge4" class="edge">
<title>Node4&#45;&gt;Node4</title>
<path fill="none" stroke="midnightblue" d="M498.44,-71.77C490.55,-80.96 499.23,-90 524.5,-90 539.9,-90 549.14,-86.64 552.22,-81.94"/>
<polygon fill="midnightblue" stroke="midnightblue" points="555.62,-81.07 550.56,-71.77 548.71,-82.2 555.62,-81.07"/>
</g>
</g>
</svg>
