<?xml version="1.0" encoding="UTF-8" standalone="no"?>
<!DOCTYPE svg PUBLIC "-//W3C//DTD SVG 1.1//EN"
 "http://www.w3.org/Graphics/SVG/1.1/DTD/svg11.dtd">
<!-- Generated by graphviz version 2.43.0 (0)
 -->
<!-- Title: flow::log::Log_context Pages: 1 -->
<svg width="489pt" height="1146pt"
 viewBox="0.00 0.00 489.00 1145.50" xmlns="http://www.w3.org/2000/svg" xmlns:xlink="http://www.w3.org/1999/xlink">
<g id="graph0" class="graph" transform="scale(1 1) rotate(0) translate(4 1141.5)">
<title>flow::log::Log_context</title>
<polygon fill="white" stroke="transparent" points="-4,4 -4,-1141.5 485,-1141.5 485,4 -4,4"/>
<!-- Node1 -->
<g id="node1" class="node">
<title>Node1</title>
<g id="a_node1"><a xlink:title="Convenience class that simply stores a Logger and/or Component passed into a constructor; and returns...">
<polygon fill="#bfbfbf" stroke="black" points="0,-562.5 0,-579.5 107,-579.5 107,-562.5 0,-562.5"/>
<text text-anchor="middle" x="53.5" y="-569.1" font-family="Helvetica,sans-Serif" font-size="8.00">flow::log::Log_context</text>
</a>
</g>
</g>
<!-- Node2 -->
<g id="node2" class="node">
<title>Node2</title>
<g id="a_node2"><a xlink:href="classflow_1_1cfg_1_1Config__manager.html" target="_top" xlink:title=" ">
<polygon fill="white" stroke="black" points="143,-1111 143,-1137 280,-1137 280,-1111 143,-1111"/>
<text text-anchor="start" x="151" y="-1126.6" font-family="Helvetica,sans-Serif" font-size="8.00">flow::cfg::Config_manager</text>
<text text-anchor="middle" x="211.5" y="-1117.6" font-family="Helvetica,sans-Serif" font-size="8.00">&lt; Value_set, Null_value_set &gt;</text>
</a>
</g>
</g>
<!-- Node1&#45;&gt;Node2 -->
<g id="edge1" class="edge">
<title>Node1&#45;&gt;Node2</title>
<path fill="none" stroke="midnightblue" d="M55.09,-589.87C58.15,-675.01 74.68,-1022.58 143,-1102 145.97,-1105.46 149.5,-1108.37 153.35,-1110.84"/>
<polygon fill="midnightblue" stroke="midnightblue" points="58.59,-589.73 54.76,-579.85 51.6,-589.96 58.59,-589.73"/>
</g>
<!-- Node4 -->
<g id="node4" class="node">
<title>Node4</title>
<g id="a_node4"><a xlink:href="classflow_1_1async_1_1Cross__thread__task__loop.html" target="_top" xlink:title="Concrete Concurrent_task_loop that is able to efficiently schedule Tasks within a given Op to execute...">
<polygon fill="white" stroke="black" points="165.5,-1066 165.5,-1092 257.5,-1092 257.5,-1066 165.5,-1066"/>
<text text-anchor="start" x="173.5" y="-1081.6" font-family="Helvetica,sans-Serif" font-size="8.00">flow::async::Cross</text>
<text text-anchor="middle" x="211.5" y="-1072.6" font-family="Helvetica,sans-Serif" font-size="8.00">_thread_task_loop</text>
</a>
</g>
</g>
<!-- Node1&#45;&gt;Node4 -->
<g id="edge3" class="edge">
<title>Node1&#45;&gt;Node4</title>
<path fill="none" stroke="midnightblue" d="M55.45,-589.98C59.86,-670.6 80.81,-983.86 143,-1056 148.9,-1062.85 156.93,-1067.66 165.38,-1071.04"/>
<polygon fill="midnightblue" stroke="midnightblue" points="58.94,-589.63 54.92,-579.83 51.95,-590 58.94,-589.63"/>
</g>
<!-- Node5 -->
<g id="node5" class="node">
<title>Node5</title>
<g id="a_node5"><a xlink:href="classflow_1_1async_1_1Op__list.html" target="_top" xlink:title="Simple, immutable vector&#45;like sequence of N opaque async::Op objects, usually corresponding to N work...">
<polygon fill="white" stroke="black" points="163.5,-1029.5 163.5,-1046.5 259.5,-1046.5 259.5,-1029.5 163.5,-1029.5"/>
<text text-anchor="middle" x="211.5" y="-1036.1" font-family="Helvetica,sans-Serif" font-size="8.00">flow::async::Op_list</text>
</a>
</g>
</g>
<!-- Node1&#45;&gt;Node5 -->
<g id="edge4" class="edge">
<title>Node1&#45;&gt;Node5</title>
<path fill="none" stroke="midnightblue" d="M55.6,-589.64C60.51,-666.23 82.83,-955.73 143,-1020 148.47,-1025.84 155.61,-1029.87 163.19,-1032.63"/>
<polygon fill="midnightblue" stroke="midnightblue" points="59.09,-589.35 54.98,-579.59 52.11,-589.78 59.09,-589.35"/>
</g>
<!-- Node6 -->
<g id="node6" class="node">
<title>Node6</title>
<g id="a_node6"><a xlink:href="classflow_1_1async_1_1Segregated__thread__task__loop.html" target="_top" xlink:title="Concrete Concurrent_task_loop that uses the legacy pin&#45;Tasks&#45;within&#45;1&#45;Op&#45;to&#45;1&#45;thread method of achiev...">
<polygon fill="white" stroke="black" points="153,-984 153,-1010 270,-1010 270,-984 153,-984"/>
<text text-anchor="start" x="161" y="-999.6" font-family="Helvetica,sans-Serif" font-size="8.00">flow::async::Segregated</text>
<text text-anchor="middle" x="211.5" y="-990.6" font-family="Helvetica,sans-Serif" font-size="8.00">_thread_task_loop</text>
</a>
</g>
</g>
<!-- Node1&#45;&gt;Node6 -->
<g id="edge5" class="edge">
<title>Node1&#45;&gt;Node6</title>
<path fill="none" stroke="midnightblue" d="M56.18,-589.94C62.91,-661.81 90.17,-916.63 143,-975 146.14,-978.47 149.84,-981.4 153.86,-983.86"/>
<polygon fill="midnightblue" stroke="midnightblue" points="59.64,-589.34 55.24,-579.7 52.67,-589.98 59.64,-589.34"/>
</g>
<!-- Node7 -->
<g id="node7" class="node">
<title>Node7</title>
<g id="a_node7"><a xlink:href="classflow_1_1async_1_1Single__thread__task__loop.html" target="_top" xlink:title="A Concurrent_task_loop&#45;related adapter&#45;style class that represents a single&#45;thread task loop; essenti...">
<polygon fill="white" stroke="black" points="164,-939 164,-965 259,-965 259,-939 164,-939"/>
<text text-anchor="start" x="172" y="-954.6" font-family="Helvetica,sans-Serif" font-size="8.00">flow::async::Single</text>
<text text-anchor="middle" x="211.5" y="-945.6" font-family="Helvetica,sans-Serif" font-size="8.00">_thread_task_loop</text>
</a>
</g>
</g>
<!-- Node1&#45;&gt;Node7 -->
<g id="edge6" class="edge">
<title>Node1&#45;&gt;Node7</title>
<path fill="none" stroke="midnightblue" d="M56.74,-589.93C64.97,-656.56 95.6,-878.98 143,-930 148.71,-936.14 156.14,-940.57 163.99,-943.77"/>
<polygon fill="midnightblue" stroke="midnightblue" points="60.17,-589.19 55.5,-579.68 53.23,-590.03 60.17,-589.19"/>
</g>
<!-- Node9 -->
<g id="node9" class="node">
<title>Node9</title>
<g id="a_node9"><a xlink:href="classflow_1_1async_1_1Task__qing__thread.html" target="_top" xlink:title="Internally used building block of various concrete Concurrent_task_loop subclasses that encapsulates ...">
<polygon fill="white" stroke="black" points="157,-894 157,-920 266,-920 266,-894 157,-894"/>
<text text-anchor="start" x="165" y="-909.6" font-family="Helvetica,sans-Serif" font-size="8.00">flow::async::Task_qing</text>
<text text-anchor="middle" x="211.5" y="-900.6" font-family="Helvetica,sans-Serif" font-size="8.00">_thread</text>
</a>
</g>
</g>
<!-- Node1&#45;&gt;Node9 -->
<g id="edge8" class="edge">
<title>Node1&#45;&gt;Node9</title>
<path fill="none" stroke="midnightblue" d="M54.06,-589.75C53.86,-643.44 60.76,-799.37 143,-885 146.93,-889.09 151.62,-892.42 156.68,-895.13"/>
<polygon fill="midnightblue" stroke="midnightblue" points="57.56,-589.7 54.2,-579.65 50.57,-589.61 57.56,-589.7"/>
</g>
<!-- Node10 -->
<g id="node10" class="node">
<title>Node10</title>
<g id="a_node10"><a xlink:href="classflow_1_1cfg_1_1Config__manager.html" target="_top" xlink:title="Manages a config setup, intended for a single daemon process, by maintaining 1 or more set(s) of stat...">
<polygon fill="white" stroke="black" points="149,-849 149,-875 274,-875 274,-849 149,-849"/>
<text text-anchor="start" x="157" y="-864.6" font-family="Helvetica,sans-Serif" font-size="8.00">flow::cfg::Config_manager</text>
<text text-anchor="middle" x="211.5" y="-855.6" font-family="Helvetica,sans-Serif" font-size="8.00">&lt; S_d_value_set &gt;</text>
</a>
</g>
</g>
<!-- Node1&#45;&gt;Node10 -->
<g id="edge9" class="edge">
<title>Node1&#45;&gt;Node10</title>
<path fill="none" stroke="midnightblue" d="M55.12,-589.93C57.74,-638.49 71.45,-768.65 143,-840 146.49,-843.48 150.54,-846.41 154.88,-848.88"/>
<polygon fill="midnightblue" stroke="midnightblue" points="58.62,-589.73 54.68,-579.9 51.62,-590.04 58.62,-589.73"/>
</g>
<!-- Node11 -->
<g id="node11" class="node">
<title>Node11</title>
<g id="a_node11"><a xlink:href="classflow_1_1cfg_1_1Option__set.html" target="_top" xlink:title="The core config&#45;parsing facility, which builds parsing/comparison/output capabilities on top of a giv...">
<polygon fill="white" stroke="black" points="161,-804 161,-830 262,-830 262,-804 161,-804"/>
<text text-anchor="start" x="169" y="-819.6" font-family="Helvetica,sans-Serif" font-size="8.00">flow::cfg::Option_set</text>
<text text-anchor="middle" x="211.5" y="-810.6" font-family="Helvetica,sans-Serif" font-size="8.00">&lt; Value_set &gt;</text>
</a>
</g>
</g>
<!-- Node1&#45;&gt;Node11 -->
<g id="edge10" class="edge">
<title>Node1&#45;&gt;Node11</title>
<path fill="none" stroke="midnightblue" d="M56.56,-589.85C62.21,-632.58 81.9,-737.53 143,-795 148.12,-799.81 154.3,-803.57 160.83,-806.51"/>
<polygon fill="midnightblue" stroke="midnightblue" points="60.01,-589.26 55.33,-579.75 53.06,-590.1 60.01,-589.26"/>
</g>
<!-- Node12 -->
<g id="node12" class="node">
<title>Node12</title>
<g id="a_node12"><a xlink:href="classflow_1_1log_1_1Async__file__logger.html" target="_top" xlink:title="An implementation of Logger that logs messages to a given file&#45;system path but never blocks any loggi...">
<polygon fill="white" stroke="black" points="162.5,-759 162.5,-785 260.5,-785 260.5,-759 162.5,-759"/>
<text text-anchor="start" x="170.5" y="-774.6" font-family="Helvetica,sans-Serif" font-size="8.00">flow::log::Async_file</text>
<text text-anchor="middle" x="211.5" y="-765.6" font-family="Helvetica,sans-Serif" font-size="8.00">_logger</text>
</a>
</g>
</g>
<!-- Node1&#45;&gt;Node12 -->
<g id="edge11" class="edge">
<title>Node1&#45;&gt;Node12</title>
<path fill="none" stroke="darkgreen" d="M58.61,-589.67C67.54,-625.88 92.14,-705.99 143,-750 148.59,-754.84 155.27,-758.62 162.22,-761.57"/>
<polygon fill="darkgreen" stroke="darkgreen" points="61.93,-588.49 56.25,-579.55 55.11,-590.08 61.93,-588.49"/>
</g>
<!-- Node13 -->
<g id="node13" class="node">
<title>Node13</title>
<g id="a_node13"><a xlink:href="classflow_1_1log_1_1Serial__file__logger.html" target="_top" xlink:title="An internal&#45;use implementation of Logger that logs messages to a given file&#45;system path,...">
<polygon fill="white" stroke="black" points="162.5,-714 162.5,-740 260.5,-740 260.5,-714 162.5,-714"/>
<text text-anchor="start" x="170.5" y="-729.6" font-family="Helvetica,sans-Serif" font-size="8.00">flow::log::Serial_file</text>
<text text-anchor="middle" x="211.5" y="-720.6" font-family="Helvetica,sans-Serif" font-size="8.00">_logger</text>
</a>
</g>
</g>
<!-- Node1&#45;&gt;Node13 -->
<g id="edge12" class="edge">
<title>Node1&#45;&gt;Node13</title>
<path fill="none" stroke="darkgreen" d="M61.79,-589.25C74.2,-618.02 102.1,-673.84 143,-705 148.78,-709.41 155.49,-712.95 162.38,-715.8"/>
<polygon fill="darkgreen" stroke="darkgreen" points="64.87,-587.55 57.8,-579.66 58.41,-590.24 64.87,-587.55"/>
</g>
<!-- Node14 -->
<g id="node14" class="node">
<title>Node14</title>
<g id="a_node14"><a xlink:href="classflow_1_1net__flow_1_1Congestion__control__classic__data.html" target="_top" xlink:title="Utility class for use by Congestion_control_strategy implementations that implements congestion windo...">
<polygon fill="white" stroke="black" points="149,-669 149,-695 274,-695 274,-669 149,-669"/>
<text text-anchor="start" x="157" y="-684.6" font-family="Helvetica,sans-Serif" font-size="8.00">flow::net_flow::Congestion</text>
<text text-anchor="middle" x="211.5" y="-675.6" font-family="Helvetica,sans-Serif" font-size="8.00">_control_classic_data</text>
</a>
</g>
</g>
<!-- Node1&#45;&gt;Node14 -->
<g id="edge13" class="edge">
<title>Node1&#45;&gt;Node14</title>
<path fill="none" stroke="midnightblue" d="M67.08,-587.82C82.79,-607.72 111.46,-640.59 143,-660 148.56,-663.42 154.72,-666.37 160.98,-668.9"/>
<polygon fill="midnightblue" stroke="midnightblue" points="69.69,-585.47 60.81,-579.69 64.14,-589.74 69.69,-585.47"/>
</g>
<!-- Node15 -->
<g id="node15" class="node">
<title>Node15</title>
<g id="a_node15"><a xlink:href="classflow_1_1net__flow_1_1Congestion__control__strategy.html" target="_top" xlink:title="The abstract interface for a per&#45;socket module that determines the socket&#39;s congestion control behavi...">
<polygon fill="white" stroke="black" points="149,-624 149,-650 274,-650 274,-624 149,-624"/>
<text text-anchor="start" x="157" y="-639.6" font-family="Helvetica,sans-Serif" font-size="8.00">flow::net_flow::Congestion</text>
<text text-anchor="middle" x="211.5" y="-630.6" font-family="Helvetica,sans-Serif" font-size="8.00">_control_strategy</text>
</a>
</g>
</g>
<!-- Node1&#45;&gt;Node15 -->
<g id="edge14" class="edge">
<title>Node1&#45;&gt;Node15</title>
<path fill="none" stroke="midnightblue" d="M79.14,-584.47C96.65,-593.74 120.89,-605.96 143,-615 150.76,-618.17 159.16,-621.21 167.31,-623.97"/>
<polygon fill="midnightblue" stroke="midnightblue" points="80.63,-581.3 70.16,-579.66 77.33,-587.47 80.63,-581.3"/>
</g>
<!-- Node18 -->
<g id="node18" class="node">
<title>Node18</title>
<g id="a_node18"><a xlink:href="classflow_1_1net__flow_1_1Drop__timer.html" target="_top" xlink:title="Internal net_flow class that maintains the Drop Timer for DATA packet(s) to have been sent out over a...">
<polygon fill="white" stroke="black" points="162.5,-579 162.5,-605 260.5,-605 260.5,-579 162.5,-579"/>
<text text-anchor="start" x="170.5" y="-594.6" font-family="Helvetica,sans-Serif" font-size="8.00">flow::net_flow::Drop</text>
<text text-anchor="middle" x="211.5" y="-585.6" font-family="Helvetica,sans-Serif" font-size="8.00">_timer</text>
</a>
</g>
</g>
<!-- Node1&#45;&gt;Node18 -->
<g id="edge17" class="edge">
<title>Node1&#45;&gt;Node18</title>
<path fill="none" stroke="midnightblue" d="M117.54,-579.49C132.52,-581.5 148.27,-583.62 162.46,-585.53"/>
<polygon fill="midnightblue" stroke="midnightblue" points="117.69,-575.98 107.31,-578.11 116.76,-582.91 117.69,-575.98"/>
</g>
<!-- Node19 -->
<g id="node19" class="node">
<title>Node19</title>
<g id="a_node19"><a xlink:href="classflow_1_1net__flow_1_1Event__set.html" target="_top" xlink:title="A user&#45;set collection of sockets and desired conditions on those sockets (such as: &quot;socket has data t...">
<polygon fill="white" stroke="black" points="152,-542.5 152,-559.5 271,-559.5 271,-542.5 152,-542.5"/>
<text text-anchor="middle" x="211.5" y="-549.1" font-family="Helvetica,sans-Serif" font-size="8.00">flow::net_flow::Event_set</text>
</a>
</g>
</g>
<!-- Node1&#45;&gt;Node19 -->
<g id="edge18" class="edge">
<title>Node1&#45;&gt;Node19</title>
<path fill="none" stroke="midnightblue" d="M117.56,-562.91C128.89,-561.46 140.65,-559.96 151.84,-558.52"/>
<polygon fill="midnightblue" stroke="midnightblue" points="116.79,-559.49 107.31,-564.23 117.68,-566.43 116.79,-559.49"/>
</g>
<!-- Node20 -->
<g id="node20" class="node">
<title>Node20</title>
<g id="a_node20"><a xlink:href="structflow_1_1net__flow_1_1Low__lvl__packet.html" target="_top" xlink:title="Internal net_flow struct that encapsulates the Flow&#45;protocol low&#45;level packet structure and serves as...">
<polygon fill="white" stroke="black" points="164,-497 164,-523 259,-523 259,-497 164,-497"/>
<text text-anchor="start" x="172" y="-512.6" font-family="Helvetica,sans-Serif" font-size="8.00">flow::net_flow::Low</text>
<text text-anchor="middle" x="211.5" y="-503.6" font-family="Helvetica,sans-Serif" font-size="8.00">_lvl_packet</text>
</a>
</g>
</g>
<!-- Node1&#45;&gt;Node20 -->
<g id="edge19" class="edge">
<title>Node1&#45;&gt;Node20</title>
<path fill="none" stroke="midnightblue" d="M82.81,-558.19C100.06,-550.54 122.65,-540.82 143,-533 151.78,-529.62 161.3,-526.23 170.34,-523.12"/>
<polygon fill="midnightblue" stroke="midnightblue" points="81.02,-555.15 73.32,-562.42 83.87,-561.54 81.02,-555.15"/>
</g>
<!-- Node27 -->
<g id="node27" class="node">
<title>Node27</title>
<g id="a_node27"><a xlink:href="classflow_1_1net__flow_1_1Net__env__simulator.html" target="_top" xlink:title="Objects of this class can be fed to Node to make it internally simulate network conditions like loss,...">
<polygon fill="white" stroke="black" points="165,-452 165,-478 258,-478 258,-452 165,-452"/>
<text text-anchor="start" x="173" y="-467.6" font-family="Helvetica,sans-Serif" font-size="8.00">flow::net_flow::Net</text>
<text text-anchor="middle" x="211.5" y="-458.6" font-family="Helvetica,sans-Serif" font-size="8.00">_env_simulator</text>
</a>
</g>
</g>
<!-- Node1&#45;&gt;Node27 -->
<g id="edge26" class="edge">
<title>Node1&#45;&gt;Node27</title>
<path fill="none" stroke="midnightblue" d="M68.08,-554.61C84.21,-536.08 112.76,-506.16 143,-488 149.69,-483.98 157.17,-480.55 164.65,-477.66"/>
<polygon fill="midnightblue" stroke="midnightblue" points="65.21,-552.57 61.39,-562.46 70.54,-557.11 65.21,-552.57"/>
</g>
<!-- Node28 -->
<g id="node28" class="node">
<title>Node28</title>
<g id="a_node28"><a xlink:href="classflow_1_1net__flow_1_1Node.html" target="_top" xlink:title="An object of this class is a single Flow&#45;protocol networking node, in the sense that: (1) it has a di...">
<polygon fill="white" stroke="black" points="161,-415.5 161,-432.5 262,-432.5 262,-415.5 161,-415.5"/>
<text text-anchor="middle" x="211.5" y="-422.1" font-family="Helvetica,sans-Serif" font-size="8.00">flow::net_flow::Node</text>
</a>
</g>
</g>
<!-- Node1&#45;&gt;Node28 -->
<g id="edge27" class="edge">
<title>Node1&#45;&gt;Node28</title>
<path fill="none" stroke="midnightblue" d="M62.06,-552.97C74.66,-525.11 102.64,-471.82 143,-443 149.24,-438.54 156.5,-435.13 163.89,-432.51"/>
<polygon fill="midnightblue" stroke="midnightblue" points="58.78,-551.73 57.98,-562.3 65.19,-554.53 58.78,-551.73"/>
</g>
<!-- Node30 -->
<g id="node30" class="node">
<title>Node30</title>
<g id="a_node30"><a xlink:href="classflow_1_1net__flow_1_1Peer__socket.html" target="_top" xlink:title="A peer (non&#45;server) socket operating over the Flow network protocol, with optional stream&#45;of&#45;bytes an...">
<polygon fill="white" stroke="black" points="163,-370 163,-396 260,-396 260,-370 163,-370"/>
<text text-anchor="start" x="171" y="-385.6" font-family="Helvetica,sans-Serif" font-size="8.00">flow::net_flow::Peer</text>
<text text-anchor="middle" x="211.5" y="-376.6" font-family="Helvetica,sans-Serif" font-size="8.00">_socket</text>
</a>
</g>
</g>
<!-- Node1&#45;&gt;Node30 -->
<g id="edge29" class="edge">
<title>Node1&#45;&gt;Node30</title>
<path fill="none" stroke="midnightblue" d="M59.5,-552.45C69.59,-518.52 95.56,-446.24 143,-406 148.76,-401.11 155.61,-397.25 162.7,-394.2"/>
<polygon fill="midnightblue" stroke="midnightblue" points="56.05,-551.81 56.68,-562.39 62.78,-553.72 56.05,-551.81"/>
</g>
<!-- Node32 -->
<g id="node32" class="node">
<title>Node32</title>
<g id="a_node32"><a xlink:href="classflow_1_1net__flow_1_1Port__space.html" target="_top" xlink:title="Internal net_flow class that maintains the available Flow&#45;protocol port space, somewhat similarly to ...">
<polygon fill="white" stroke="black" points="164,-325 164,-351 259,-351 259,-325 164,-325"/>
<text text-anchor="start" x="172" y="-340.6" font-family="Helvetica,sans-Serif" font-size="8.00">flow::net_flow::Port</text>
<text text-anchor="middle" x="211.5" y="-331.6" font-family="Helvetica,sans-Serif" font-size="8.00">_space</text>
</a>
</g>
</g>
<!-- Node1&#45;&gt;Node32 -->
<g id="edge31" class="edge">
<title>Node1&#45;&gt;Node32</title>
<path fill="none" stroke="midnightblue" d="M57.16,-552.29C63.91,-511.64 85.45,-414.63 143,-361 148.89,-355.51 156.14,-351.33 163.68,-348.14"/>
<polygon fill="midnightblue" stroke="midnightblue" points="53.67,-551.96 55.6,-562.38 60.59,-553.03 53.67,-551.96"/>
</g>
<!-- Node33 -->
<g id="node33" class="node">
<title>Node33</title>
<g id="a_node33"><a xlink:href="classflow_1_1net__flow_1_1Send__bandwidth__estimator.html" target="_top" xlink:title="A per&#45;Peer_socket module that tries to estimate the bandwidth available to the outgoing flow.">
<polygon fill="white" stroke="black" points="158,-280 158,-306 265,-306 265,-280 158,-280"/>
<text text-anchor="start" x="166" y="-295.6" font-family="Helvetica,sans-Serif" font-size="8.00">flow::net_flow::Send</text>
<text text-anchor="middle" x="211.5" y="-286.6" font-family="Helvetica,sans-Serif" font-size="8.00">_bandwidth_estimator</text>
</a>
</g>
</g>
<!-- Node1&#45;&gt;Node33 -->
<g id="edge32" class="edge">
<title>Node1&#45;&gt;Node33</title>
<path fill="none" stroke="midnightblue" d="M55.59,-551.87C59.3,-504.99 75.3,-383.32 143,-316 147.3,-311.72 152.43,-308.24 157.91,-305.4"/>
<polygon fill="midnightblue" stroke="midnightblue" points="52.09,-551.88 54.89,-562.1 59.07,-552.36 52.09,-551.88"/>
</g>
<!-- Node34 -->
<g id="node34" class="node">
<title>Node34</title>
<g id="a_node34"><a xlink:href="classflow_1_1net__flow_1_1Sequence__number_1_1Generator.html" target="_top" xlink:title="An object of this type generates a series of initial sequence numbers (ISN) that are meant to be suff...">
<polygon fill="white" stroke="black" points="151.5,-235 151.5,-261 271.5,-261 271.5,-235 151.5,-235"/>
<text text-anchor="start" x="159.5" y="-250.6" font-family="Helvetica,sans-Serif" font-size="8.00">flow::net_flow::Sequence</text>
<text text-anchor="middle" x="211.5" y="-241.6" font-family="Helvetica,sans-Serif" font-size="8.00">_number::Generator</text>
</a>
</g>
</g>
<!-- Node1&#45;&gt;Node34 -->
<g id="edge33" class="edge">
<title>Node1&#45;&gt;Node34</title>
<path fill="none" stroke="midnightblue" d="M54.41,-552.45C55.19,-500.62 64.54,-352.79 143,-271 146.77,-267.07 151.24,-263.81 156.06,-261.11"/>
<polygon fill="midnightblue" stroke="midnightblue" points="50.91,-552.47 54.36,-562.49 57.91,-552.51 50.91,-552.47"/>
</g>
<!-- Node35 -->
<g id="node35" class="node">
<title>Node35</title>
<g id="a_node35"><a xlink:href="classflow_1_1net__flow_1_1Server__socket.html" target="_top" xlink:title="A server socket able to listen on a single Flow port for incoming connections and return peer sockets...">
<polygon fill="white" stroke="black" points="159,-190 159,-216 264,-216 264,-190 159,-190"/>
<text text-anchor="start" x="167" y="-205.6" font-family="Helvetica,sans-Serif" font-size="8.00">flow::net_flow::Server</text>
<text text-anchor="middle" x="211.5" y="-196.6" font-family="Helvetica,sans-Serif" font-size="8.00">_socket</text>
</a>
</g>
</g>
<!-- Node1&#45;&gt;Node35 -->
<g id="edge34" class="edge">
<title>Node1&#45;&gt;Node35</title>
<path fill="none" stroke="midnightblue" d="M56.89,-552.33C65.54,-487.58 97.1,-273.97 143,-225 147.47,-220.23 152.98,-216.5 158.91,-213.57"/>
<polygon fill="midnightblue" stroke="midnightblue" points="53.41,-551.94 55.58,-562.31 60.35,-552.85 53.41,-551.94"/>
</g>
<!-- Node37 -->
<g id="node37" class="node">
<title>Node37</title>
<g id="a_node37"><a xlink:href="classflow_1_1net__flow_1_1Socket__buffer.html" target="_top" xlink:title="Internal net_flow class that implements a socket buffer, as used by Peer_socket for Send and Receive ...">
<polygon fill="white" stroke="black" points="158,-145 158,-171 265,-171 265,-145 158,-145"/>
<text text-anchor="start" x="166" y="-160.6" font-family="Helvetica,sans-Serif" font-size="8.00">flow::net_flow::Socket</text>
<text text-anchor="middle" x="211.5" y="-151.6" font-family="Helvetica,sans-Serif" font-size="8.00">_buffer</text>
</a>
</g>
</g>
<!-- Node1&#45;&gt;Node37 -->
<g id="edge36" class="edge">
<title>Node1&#45;&gt;Node37</title>
<path fill="none" stroke="midnightblue" d="M56.31,-552.21C63.44,-482.02 91.7,-236.28 143,-180 147.15,-175.45 152.26,-171.83 157.78,-168.96"/>
<polygon fill="midnightblue" stroke="midnightblue" points="52.82,-551.94 55.32,-562.24 59.79,-552.64 52.82,-551.94"/>
</g>
<!-- Node38 -->
<g id="node38" class="node">
<title>Node38</title>
<g id="a_node38"><a xlink:href="classflow_1_1perf_1_1Checkpointing__timer.html" target="_top" xlink:title="The central class in the perf Flow module, this efficiently times the user&#39;s operation,...">
<polygon fill="white" stroke="black" points="152,-100 152,-126 271,-126 271,-100 152,-100"/>
<text text-anchor="start" x="160" y="-115.6" font-family="Helvetica,sans-Serif" font-size="8.00">flow::perf::Checkpointing</text>
<text text-anchor="middle" x="211.5" y="-106.6" font-family="Helvetica,sans-Serif" font-size="8.00">_timer</text>
</a>
</g>
</g>
<!-- Node1&#45;&gt;Node38 -->
<g id="edge37" class="edge">
<title>Node1&#45;&gt;Node38</title>
<path fill="none" stroke="midnightblue" d="M55.85,-552.04C61.59,-476.58 86.29,-198.62 143,-135 146.12,-131.5 149.79,-128.56 153.8,-126.08"/>
<polygon fill="midnightblue" stroke="midnightblue" points="52.33,-552.12 55.09,-562.35 59.32,-552.63 52.33,-552.12"/>
</g>
<!-- Node39 -->
<g id="node39" class="node">
<title>Node39</title>
<g id="a_node39"><a xlink:href="classflow_1_1perf_1_1Checkpointing__timer_1_1Aggregator.html" target="_top" xlink:title="This companion/inner class of Checkpointing_timer provides aggregation of results from many Checkpoin...">
<polygon fill="white" stroke="black" points="152,-55 152,-81 271,-81 271,-55 152,-55"/>
<text text-anchor="start" x="160" y="-70.6" font-family="Helvetica,sans-Serif" font-size="8.00">flow::perf::Checkpointing</text>
<text text-anchor="middle" x="211.5" y="-61.6" font-family="Helvetica,sans-Serif" font-size="8.00">_timer::Aggregator</text>
</a>
</g>
</g>
<!-- Node1&#45;&gt;Node39 -->
<g id="edge38" class="edge">
<title>Node1&#45;&gt;Node39</title>
<path fill="none" stroke="midnightblue" d="M55.45,-552.16C59.86,-472.11 80.78,-161.11 143,-90 146.08,-86.48 149.74,-83.51 153.73,-81.02"/>
<polygon fill="midnightblue" stroke="midnightblue" points="51.95,-552.06 54.92,-562.24 58.94,-552.43 51.95,-552.06"/>
</g>
<!-- Node40 -->
<g id="node40" class="node">
<title>Node40</title>
<g id="a_node40"><a xlink:href="classflow_1_1util_1_1Blob__with__log__context.html" target="_top" xlink:title="Basic_blob that works in regular heap (and is itself placed in heap or stack) and memorizes a log::Lo...">
<polygon fill="white" stroke="black" points="151,-0.5 151,-35.5 272,-35.5 272,-0.5 151,-0.5"/>
<text text-anchor="start" x="159" y="-25.1" font-family="Helvetica,sans-Serif" font-size="8.00">flow::util::Blob_with</text>
<text text-anchor="start" x="159" y="-16.1" font-family="Helvetica,sans-Serif" font-size="8.00">_log_context&lt; S_SHARING</text>
<text text-anchor="middle" x="211.5" y="-7.1" font-family="Helvetica,sans-Serif" font-size="8.00">_ALLOWED &gt;</text>
</a>
</g>
</g>
<!-- Node1&#45;&gt;Node40 -->
<g id="edge39" class="edge">
<title>Node1&#45;&gt;Node40</title>
<path fill="none" stroke="midnightblue" d="M55.25,-552.14C58.97,-467.8 77.92,-125.73 143,-45 145.85,-41.46 149.24,-38.39 152.95,-35.71"/>
<polygon fill="midnightblue" stroke="midnightblue" points="51.75,-552.14 54.83,-562.28 58.74,-552.44 51.75,-552.14"/>
</g>
<!-- Node3 -->
<g id="node3" class="node">
<title>Node3</title>
<g id="a_node3"><a xlink:href="classflow_1_1cfg_1_1Static__config__manager.html" target="_top" xlink:title="A Config_manager&#45;related adapter&#45;style class that manages a simple config setup involving a single (t...">
<polygon fill="white" stroke="black" points="341.5,-1111 341.5,-1137 455.5,-1137 455.5,-1111 341.5,-1111"/>
<text text-anchor="start" x="349.5" y="-1126.6" font-family="Helvetica,sans-Serif" font-size="8.00">flow::cfg::Static_config</text>
<text text-anchor="middle" x="398.5" y="-1117.6" font-family="Helvetica,sans-Serif" font-size="8.00">_manager&lt; Value_set &gt;</text>
</a>
</g>
</g>
<!-- Node2&#45;&gt;Node3 -->
<g id="edge2" class="edge">
<title>Node2&#45;&gt;Node3</title>
<path fill="none" stroke="#8b1a1a" d="M290.1,-1124C307.3,-1124 325.2,-1124 341.35,-1124"/>
<polygon fill="#8b1a1a" stroke="#8b1a1a" points="290.07,-1120.5 280.07,-1124 290.07,-1127.5 290.07,-1120.5"/>
</g>
<!-- Node8 -->
<g id="node8" class="node">
<title>Node8</title>
<g id="a_node8"><a xlink:href="classflow_1_1async_1_1Timed__single__thread__task__loop.html" target="_top" xlink:title="Identical to Single_thread_task_loop, but all tasks posted through it are automatically timed,...">
<polygon fill="white" stroke="black" points="339,-939 339,-965 458,-965 458,-939 339,-939"/>
<text text-anchor="start" x="347" y="-954.6" font-family="Helvetica,sans-Serif" font-size="8.00">flow::async::Timed</text>
<text text-anchor="middle" x="398.5" y="-945.6" font-family="Helvetica,sans-Serif" font-size="8.00">_single_thread_task_loop</text>
</a>
</g>
</g>
<!-- Node7&#45;&gt;Node8 -->
<g id="edge7" class="edge">
<title>Node7&#45;&gt;Node8</title>
<path fill="none" stroke="midnightblue" d="M269.39,-952C291.44,-952 316.68,-952 338.89,-952"/>
<polygon fill="midnightblue" stroke="midnightblue" points="269.18,-948.5 259.18,-952 269.18,-955.5 269.18,-948.5"/>
</g>
<!-- Node16 -->
<g id="node16" class="node">
<title>Node16</title>
<g id="a_node16"><a xlink:href="classflow_1_1net__flow_1_1Congestion__control__classic.html" target="_top" xlink:title="Classic congestion control, based on Reno (TCP RFC 5681), with congestion avoidance,...">
<polygon fill="white" stroke="black" points="336,-699 336,-725 461,-725 461,-699 336,-699"/>
<text text-anchor="start" x="344" y="-714.6" font-family="Helvetica,sans-Serif" font-size="8.00">flow::net_flow::Congestion</text>
<text text-anchor="middle" x="398.5" y="-705.6" font-family="Helvetica,sans-Serif" font-size="8.00">_control_classic</text>
</a>
</g>
</g>
<!-- Node15&#45;&gt;Node16 -->
<g id="edge15" class="edge">
<title>Node15&#45;&gt;Node16</title>
<path fill="none" stroke="midnightblue" d="M267.82,-653.95C272.02,-655.81 276.13,-657.83 280,-660 298.16,-670.2 297.52,-680.4 316,-690 322.63,-693.45 329.86,-696.39 337.17,-698.9"/>
<polygon fill="midnightblue" stroke="midnightblue" points="269.09,-650.69 258.51,-650.13 266.43,-657.17 269.09,-650.69"/>
</g>
<!-- Node17 -->
<g id="node17" class="node">
<title>Node17</title>
<g id="a_node17"><a xlink:href="classflow_1_1net__flow_1_1Congestion__control__classic__with__bandwidth__est.html" target="_top" xlink:title="Classic congestion control but with backoff to bandwidth estimate&#45;based pipe size.">
<polygon fill="white" stroke="black" points="316,-654 316,-680 481,-680 481,-654 316,-654"/>
<text text-anchor="start" x="324" y="-669.6" font-family="Helvetica,sans-Serif" font-size="8.00">flow::net_flow::Congestion</text>
<text text-anchor="middle" x="398.5" y="-660.6" font-family="Helvetica,sans-Serif" font-size="8.00">_control_classic_with_bandwidth_est</text>
</a>
</g>
</g>
<!-- Node15&#45;&gt;Node17 -->
<g id="edge16" class="edge">
<title>Node15&#45;&gt;Node17</title>
<path fill="none" stroke="midnightblue" d="M284.27,-648.64C295.02,-650.38 306.16,-652.19 317.08,-653.96"/>
<polygon fill="midnightblue" stroke="midnightblue" points="284.53,-645.14 274.1,-646.99 283.41,-652.05 284.53,-645.14"/>
</g>
<!-- Node21 -->
<g id="node21" class="node">
<title>Node21</title>
<g id="a_node21"><a xlink:href="structflow_1_1net__flow_1_1Ack__packet.html" target="_top" xlink:title="Internal net_flow struct that encapsulates the Flow&#45;protocol low&#45;level ACK packet.">
<polygon fill="white" stroke="black" points="352,-609 352,-635 445,-635 445,-609 352,-609"/>
<text text-anchor="start" x="360" y="-624.6" font-family="Helvetica,sans-Serif" font-size="8.00">flow::net_flow::Ack</text>
<text text-anchor="middle" x="398.5" y="-615.6" font-family="Helvetica,sans-Serif" font-size="8.00">_packet</text>
</a>
</g>
</g>
<!-- Node20&#45;&gt;Node21 -->
<g id="edge20" class="edge">
<title>Node20&#45;&gt;Node21</title>
<path fill="none" stroke="midnightblue" d="M268.51,-525.2C272.61,-527.45 276.51,-530.04 280,-533 305.79,-554.86 289.52,-578.99 316,-600 326.22,-608.11 339.18,-613.24 351.75,-616.48"/>
<polygon fill="midnightblue" stroke="midnightblue" points="269.78,-521.93 259.25,-520.76 266.76,-528.24 269.78,-521.93"/>
</g>
<!-- Node22 -->
<g id="node22" class="node">
<title>Node22</title>
<g id="a_node22"><a xlink:href="structflow_1_1net__flow_1_1Data__packet.html" target="_top" xlink:title="Internal net_flow struct that encapsulates the Flow&#45;protocol low&#45;level DATA packet.">
<polygon fill="white" stroke="black" points="349.5,-564 349.5,-590 447.5,-590 447.5,-564 349.5,-564"/>
<text text-anchor="start" x="357.5" y="-579.6" font-family="Helvetica,sans-Serif" font-size="8.00">flow::net_flow::Data</text>
<text text-anchor="middle" x="398.5" y="-570.6" font-family="Helvetica,sans-Serif" font-size="8.00">_packet</text>
</a>
</g>
</g>
<!-- Node20&#45;&gt;Node22 -->
<g id="edge21" class="edge">
<title>Node20&#45;&gt;Node22</title>
<path fill="none" stroke="midnightblue" d="M265.26,-526.71C270.3,-528.69 275.29,-530.79 280,-533 296.98,-540.96 298.77,-547.59 316,-555 326.5,-559.52 338.17,-563.32 349.32,-566.43"/>
<polygon fill="midnightblue" stroke="midnightblue" points="266.14,-523.31 255.55,-523.08 263.69,-529.86 266.14,-523.31"/>
</g>
<!-- Node23 -->
<g id="node23" class="node">
<title>Node23</title>
<g id="a_node23"><a xlink:href="structflow_1_1net__flow_1_1Rst__packet.html" target="_top" xlink:title="Internal net_flow struct that encapsulates the Flow&#45;protocol low&#45;level RST packet.">
<polygon fill="white" stroke="black" points="352.5,-519 352.5,-545 444.5,-545 444.5,-519 352.5,-519"/>
<text text-anchor="start" x="360.5" y="-534.6" font-family="Helvetica,sans-Serif" font-size="8.00">flow::net_flow::Rst</text>
<text text-anchor="middle" x="398.5" y="-525.6" font-family="Helvetica,sans-Serif" font-size="8.00">_packet</text>
</a>
</g>
</g>
<!-- Node20&#45;&gt;Node23 -->
<g id="edge22" class="edge">
<title>Node20&#45;&gt;Node23</title>
<path fill="none" stroke="midnightblue" d="M269.17,-516.74C295.9,-519.92 327.35,-523.66 352.43,-526.64"/>
<polygon fill="midnightblue" stroke="midnightblue" points="269.53,-513.26 259.18,-515.55 268.7,-520.21 269.53,-513.26"/>
</g>
<!-- Node24 -->
<g id="node24" class="node">
<title>Node24</title>
<g id="a_node24"><a xlink:href="structflow_1_1net__flow_1_1Syn__ack__ack__packet.html" target="_top" xlink:title="Internal net_flow struct that encapsulates the Flow&#45;protocol low&#45;level SYN_ACK_ACK packet.">
<polygon fill="white" stroke="black" points="351.5,-474 351.5,-500 445.5,-500 445.5,-474 351.5,-474"/>
<text text-anchor="start" x="359.5" y="-489.6" font-family="Helvetica,sans-Serif" font-size="8.00">flow::net_flow::Syn</text>
<text text-anchor="middle" x="398.5" y="-480.6" font-family="Helvetica,sans-Serif" font-size="8.00">_ack_ack_packet</text>
</a>
</g>
</g>
<!-- Node20&#45;&gt;Node24 -->
<g id="edge23" class="edge">
<title>Node20&#45;&gt;Node24</title>
<path fill="none" stroke="midnightblue" d="M269.41,-502.92C295.75,-499.65 326.63,-495.81 351.47,-492.72"/>
<polygon fill="midnightblue" stroke="midnightblue" points="268.68,-499.49 259.18,-504.2 269.54,-506.44 268.68,-499.49"/>
</g>
<!-- Node25 -->
<g id="node25" class="node">
<title>Node25</title>
<g id="a_node25"><a xlink:href="structflow_1_1net__flow_1_1Syn__ack__packet.html" target="_top" xlink:title="Internal net_flow struct that encapsulates the Flow&#45;protocol low&#45;level SYN_ACK packet.">
<polygon fill="white" stroke="black" points="351.5,-429 351.5,-455 445.5,-455 445.5,-429 351.5,-429"/>
<text text-anchor="start" x="359.5" y="-444.6" font-family="Helvetica,sans-Serif" font-size="8.00">flow::net_flow::Syn</text>
<text text-anchor="middle" x="398.5" y="-435.6" font-family="Helvetica,sans-Serif" font-size="8.00">_ack_packet</text>
</a>
</g>
</g>
<!-- Node20&#45;&gt;Node25 -->
<g id="edge24" class="edge">
<title>Node20&#45;&gt;Node25</title>
<path fill="none" stroke="midnightblue" d="M267.54,-493.36C271.81,-491.68 276.01,-489.89 280,-488 297.16,-479.88 298.68,-472.77 316,-465 327.13,-460 339.61,-455.83 351.4,-452.47"/>
<polygon fill="midnightblue" stroke="midnightblue" points="266.28,-490.1 258.14,-496.88 268.73,-496.66 266.28,-490.1"/>
</g>
<!-- Node26 -->
<g id="node26" class="node">
<title>Node26</title>
<g id="a_node26"><a xlink:href="structflow_1_1net__flow_1_1Syn__packet.html" target="_top" xlink:title="Internal net_flow struct that encapsulates the Flow&#45;protocol low&#45;level SYN packet.">
<polygon fill="white" stroke="black" points="351.5,-384 351.5,-410 445.5,-410 445.5,-384 351.5,-384"/>
<text text-anchor="start" x="359.5" y="-399.6" font-family="Helvetica,sans-Serif" font-size="8.00">flow::net_flow::Syn</text>
<text text-anchor="middle" x="398.5" y="-390.6" font-family="Helvetica,sans-Serif" font-size="8.00">_packet</text>
</a>
</g>
</g>
<!-- Node20&#45;&gt;Node26 -->
<g id="edge25" class="edge">
<title>Node20&#45;&gt;Node26</title>
<path fill="none" stroke="midnightblue" d="M268.52,-495.69C272.62,-493.48 276.51,-490.94 280,-488 306.17,-465.98 289.4,-441.49 316,-420 326.06,-411.87 338.84,-406.61 351.27,-403.21"/>
<polygon fill="midnightblue" stroke="midnightblue" points="266.85,-492.61 259.27,-500.01 269.81,-498.95 266.85,-492.61"/>
</g>
<!-- Node29 -->
<g id="node29" class="node">
<title>Node29</title>
<g id="a_node29"><a xlink:href="classflow_1_1net__flow_1_1asio_1_1Node.html" target="_top" xlink:title="A subclass of net_flow::Node that adds the ability to easily and directly use net_flow sockets in gen...">
<polygon fill="white" stroke="black" points="350.5,-339 350.5,-365 446.5,-365 446.5,-339 350.5,-339"/>
<text text-anchor="start" x="358.5" y="-354.6" font-family="Helvetica,sans-Serif" font-size="8.00">flow::net_flow::asio</text>
<text text-anchor="middle" x="398.5" y="-345.6" font-family="Helvetica,sans-Serif" font-size="8.00">::Node</text>
</a>
</g>
</g>
<!-- Node28&#45;&gt;Node29 -->
<g id="edge28" class="edge">
<title>Node28&#45;&gt;Node29</title>
<path fill="none" stroke="midnightblue" d="M265.69,-412.29C270.64,-410.47 275.49,-408.38 280,-406 298.67,-396.14 297.4,-384.99 316,-375 326.62,-369.29 338.8,-364.88 350.45,-361.53"/>
<polygon fill="midnightblue" stroke="midnightblue" points="264.47,-409 256.09,-415.47 266.68,-415.64 264.47,-409"/>
</g>
<!-- Node31 -->
<g id="node31" class="node">
<title>Node31</title>
<g id="a_node31"><a xlink:href="classflow_1_1net__flow_1_1asio_1_1Peer__socket.html" target="_top" xlink:title="A net_flow::Peer_socket that adds integration with boost.asio.">
<polygon fill="white" stroke="black" points="350.5,-294 350.5,-320 446.5,-320 446.5,-294 350.5,-294"/>
<text text-anchor="start" x="358.5" y="-309.6" font-family="Helvetica,sans-Serif" font-size="8.00">flow::net_flow::asio</text>
<text text-anchor="middle" x="398.5" y="-300.6" font-family="Helvetica,sans-Serif" font-size="8.00">::Peer_socket</text>
</a>
</g>
</g>
<!-- Node30&#45;&gt;Node31 -->
<g id="edge30" class="edge">
<title>Node30&#45;&gt;Node31</title>
<path fill="none" stroke="midnightblue" d="M269.81,-366.12C273.32,-364.54 276.75,-362.83 280,-361 298.4,-350.64 297.4,-339.99 316,-330 326.62,-324.29 338.8,-319.88 350.45,-316.53"/>
<polygon fill="midnightblue" stroke="midnightblue" points="268.25,-362.98 260.35,-370.04 270.93,-369.44 268.25,-362.98"/>
</g>
<!-- Node36 -->
<g id="node36" class="node">
<title>Node36</title>
<g id="a_node36"><a xlink:href="classflow_1_1net__flow_1_1asio_1_1Server__socket.html" target="_top" xlink:title="A net_flow::Server_socket that adds integration with boost.asio.">
<polygon fill="white" stroke="black" points="350.5,-190 350.5,-216 446.5,-216 446.5,-190 350.5,-190"/>
<text text-anchor="start" x="358.5" y="-205.6" font-family="Helvetica,sans-Serif" font-size="8.00">flow::net_flow::asio</text>
<text text-anchor="middle" x="398.5" y="-196.6" font-family="Helvetica,sans-Serif" font-size="8.00">::Server_socket</text>
</a>
</g>
</g>
<!-- Node35&#45;&gt;Node36 -->
<g id="edge35" class="edge">
<title>Node35&#45;&gt;Node36</title>
<path fill="none" stroke="midnightblue" d="M274.09,-203C298.96,-203 327.18,-203 350.36,-203"/>
<polygon fill="midnightblue" stroke="midnightblue" points="274.03,-199.5 264.03,-203 274.03,-206.5 274.03,-199.5"/>
</g>
</g>
</svg>
