<?xml version="1.0" encoding="UTF-8" standalone="no"?>
<!DOCTYPE svg PUBLIC "-//W3C//DTD SVG 1.1//EN"
 "http://www.w3.org/Graphics/SVG/1.1/DTD/svg11.dtd">
<!-- Generated by graphviz version 2.43.0 (0)
 -->
<!-- Title: flow::log::Config::output_whether_should_log Pages: 1 -->
<svg width="596pt" height="218pt"
 viewBox="0.00 0.00 596.00 217.50" xmlns="http://www.w3.org/2000/svg" xmlns:xlink="http://www.w3.org/1999/xlink">
<g id="graph0" class="graph" transform="scale(1 1) rotate(0) translate(4 213.5)">
<title>flow::log::Config::output_whether_should_log</title>
<polygon fill="white" stroke="transparent" points="-4,4 -4,-213.5 592,-213.5 592,4 -4,4"/>
<!-- Node1 -->
<g id="node1" class="node">
<title>Node1</title>
<g id="a_node1"><a xlink:title="A key output of Config, this computes the verbosity&#45;filtering answer to Logger::should_log() based on...">
<polygon fill="#bfbfbf" stroke="black" points="0,-51 0,-77 129,-77 129,-51 0,-51"/>
<text text-anchor="start" x="8" y="-66.6" font-family="Helvetica,sans-Serif" font-size="8.00">flow::log::Config::</text>
<text text-anchor="middle" x="64.5" y="-57.6" font-family="Helvetica,sans-Serif" font-size="8.00">output_whether_should_log</text>
</a>
</g>
</g>
<!-- Node2 -->
<g id="node2" class="node">
<title>Node2</title>
<g id="a_node2"><a xlink:href="classflow_1_1log_1_1Config.html#af2d963a6e1e9e0fc5809764d5718e938" target="_top" xlink:title="Given a component in the form user provides it at log call sites, returns its index in the flat compo...">
<polygon fill="white" stroke="black" points="165,-115 165,-141 283,-141 283,-115 165,-115"/>
<text text-anchor="start" x="173" y="-130.6" font-family="Helvetica,sans-Serif" font-size="8.00">flow::log::Config::</text>
<text text-anchor="middle" x="224" y="-121.6" font-family="Helvetica,sans-Serif" font-size="8.00">component_to_union_idx</text>
</a>
</g>
</g>
<!-- Node1&#45;&gt;Node2 -->
<g id="edge1" class="edge">
<title>Node1&#45;&gt;Node2</title>
<path fill="none" stroke="midnightblue" d="M97.75,-77.11C121.96,-86.94 155.3,-100.49 181.49,-111.13"/>
<polygon fill="midnightblue" stroke="midnightblue" points="180.21,-114.39 190.79,-114.91 182.84,-107.9 180.21,-114.39"/>
</g>
<!-- Node5 -->
<g id="node5" class="node">
<title>Node5</title>
<g id="a_node5"><a xlink:href="classflow_1_1log_1_1Component.html#a5af2f66731c407bd519a873706bd04c4" target="_top" xlink:title="Returns true if *this is as if default&#45;constructed (a null Component); false if as if constructed via...">
<polygon fill="white" stroke="black" points="483,-93 483,-119 588,-119 588,-93 483,-93"/>
<text text-anchor="start" x="491" y="-108.6" font-family="Helvetica,sans-Serif" font-size="8.00">flow::log::Component</text>
<text text-anchor="middle" x="535.5" y="-99.6" font-family="Helvetica,sans-Serif" font-size="8.00">::empty</text>
</a>
</g>
</g>
<!-- Node1&#45;&gt;Node5 -->
<g id="edge7" class="edge">
<title>Node1&#45;&gt;Node5</title>
<path fill="none" stroke="midnightblue" d="M129.02,-63.16C205.07,-63.07 336.08,-65.85 447,-83 458.53,-84.78 470.73,-87.47 482.24,-90.38"/>
<polygon fill="midnightblue" stroke="midnightblue" points="481.59,-93.82 492.15,-92.98 483.36,-87.05 481.59,-93.82"/>
</g>
<!-- Node7 -->
<g id="node7" class="node">
<title>Node7</title>
<g id="a_node7"><a xlink:href="classflow_1_1log_1_1Config.html#a81da2c80d99cdd43c66a0df2eed64c70" target="_top" xlink:title="Returns pointer to this thread&#39;s mutable verbosity override, for querying or assignment alike.">
<polygon fill="white" stroke="black" points="172,-0.5 172,-35.5 276,-35.5 276,-0.5 172,-0.5"/>
<text text-anchor="start" x="180" y="-25.1" font-family="Helvetica,sans-Serif" font-size="8.00">flow::log::Config::</text>
<text text-anchor="start" x="180" y="-16.1" font-family="Helvetica,sans-Serif" font-size="8.00">this_thread_verbosity</text>
<text text-anchor="middle" x="224" y="-7.1" font-family="Helvetica,sans-Serif" font-size="8.00">_override</text>
</a>
</g>
</g>
<!-- Node1&#45;&gt;Node7 -->
<g id="edge8" class="edge">
<title>Node1&#45;&gt;Node7</title>
<path fill="none" stroke="midnightblue" d="M110.21,-50.94C126.25,-46.26 144.63,-40.89 161.82,-35.87"/>
<polygon fill="midnightblue" stroke="midnightblue" points="163.17,-39.12 171.79,-32.96 161.21,-32.4 163.17,-39.12"/>
</g>
<!-- Node3 -->
<g id="node3" class="node">
<title>Node3</title>
<g id="a_node3"><a xlink:href="classflow_1_1log_1_1Component__payload__type__dict.html#afcb470076f57f851f8fff1d0322e5f66" target="_top" xlink:title="Looks up a value previously added via insert(), or indicates no such value has yet been added.">
<polygon fill="white" stroke="black" points="319,-183 319,-209 447,-209 447,-183 319,-183"/>
<text text-anchor="start" x="327" y="-198.6" font-family="Helvetica,sans-Serif" font-size="8.00">flow::log::Component</text>
<text text-anchor="middle" x="383" y="-189.6" font-family="Helvetica,sans-Serif" font-size="8.00">_payload_type_dict::lookup</text>
</a>
</g>
</g>
<!-- Node2&#45;&gt;Node3 -->
<g id="edge2" class="edge">
<title>Node2&#45;&gt;Node3</title>
<path fill="none" stroke="midnightblue" d="M249.76,-141.12C268.5,-150.81 295.02,-163.99 319,-174 323.44,-175.86 328.1,-177.69 332.8,-179.46"/>
<polygon fill="midnightblue" stroke="midnightblue" points="331.81,-182.82 342.41,-182.98 334.22,-176.25 331.81,-182.82"/>
</g>
<!-- Node4 -->
<g id="node4" class="node">
<title>Node4</title>
<g id="a_node4"><a xlink:href="classflow_1_1log_1_1Component.html#a899a7d2b0c5daa8e4d666d431b9bf48e" target="_top" xlink:title="Returns the numeric value of the enum payload stored by this Component, originating in the one&#45;arg co...">
<polygon fill="white" stroke="black" points="319,-138 319,-164 447,-164 447,-138 319,-138"/>
<text text-anchor="start" x="327" y="-153.6" font-family="Helvetica,sans-Serif" font-size="8.00">flow::log::Component</text>
<text text-anchor="middle" x="383" y="-144.6" font-family="Helvetica,sans-Serif" font-size="8.00">::payload_enum_raw_value</text>
</a>
</g>
</g>
<!-- Node2&#45;&gt;Node4 -->
<g id="edge3" class="edge">
<title>Node2&#45;&gt;Node4</title>
<path fill="none" stroke="midnightblue" d="M283.01,-136.5C291.43,-137.73 300.18,-139.01 308.84,-140.28"/>
<polygon fill="midnightblue" stroke="midnightblue" points="308.54,-143.78 318.95,-141.76 309.56,-136.85 308.54,-143.78"/>
</g>
<!-- Node6 -->
<g id="node6" class="node">
<title>Node6</title>
<g id="a_node6"><a xlink:href="classflow_1_1log_1_1Component.html#a3ff8ff4d75add447b3e10ded5430833d" target="_top" xlink:title="Returns typeid(Payload), where Payload was the template param used when calling the originating one&#45;a...">
<polygon fill="white" stroke="black" points="330.5,-93 330.5,-119 435.5,-119 435.5,-93 330.5,-93"/>
<text text-anchor="start" x="338.5" y="-108.6" font-family="Helvetica,sans-Serif" font-size="8.00">flow::log::Component</text>
<text text-anchor="middle" x="383" y="-99.6" font-family="Helvetica,sans-Serif" font-size="8.00">::payload_type</text>
</a>
</g>
</g>
<!-- Node2&#45;&gt;Node6 -->
<g id="edge5" class="edge">
<title>Node2&#45;&gt;Node6</title>
<path fill="none" stroke="midnightblue" d="M283.01,-119.87C295.16,-118.17 308.01,-116.37 320.29,-114.65"/>
<polygon fill="midnightblue" stroke="midnightblue" points="321.02,-118.08 330.44,-113.23 320.05,-111.15 321.02,-118.08"/>
</g>
<!-- Node4&#45;&gt;Node5 -->
<g id="edge4" class="edge">
<title>Node4&#45;&gt;Node5</title>
<path fill="none" stroke="midnightblue" d="M427.53,-137.98C444.15,-133.02 463.29,-127.29 480.75,-122.07"/>
<polygon fill="midnightblue" stroke="midnightblue" points="482.23,-125.28 490.81,-119.06 480.22,-118.58 482.23,-125.28"/>
</g>
<!-- Node6&#45;&gt;Node5 -->
<g id="edge6" class="edge">
<title>Node6&#45;&gt;Node5</title>
<path fill="none" stroke="midnightblue" d="M435.79,-106C447.68,-106 460.44,-106 472.71,-106"/>
<polygon fill="midnightblue" stroke="midnightblue" points="472.87,-109.5 482.87,-106 472.87,-102.5 472.87,-109.5"/>
</g>
</g>
</svg>
