<?xml version="1.0" encoding="UTF-8" standalone="no"?>
<!DOCTYPE svg PUBLIC "-//W3C//DTD SVG 1.1//EN"
 "http://www.w3.org/Graphics/SVG/1.1/DTD/svg11.dtd">
<!-- Generated by graphviz version 2.43.0 (0)
 -->
<!-- Title: flow::log::Config::configure_default_verbosity Pages: 1 -->
<svg width="311pt" height="35pt"
 viewBox="0.00 0.00 311.00 35.00" xmlns="http://www.w3.org/2000/svg" xmlns:xlink="http://www.w3.org/1999/xlink">
<g id="graph0" class="graph" transform="scale(1 1) rotate(0) translate(4 31)">
<title>flow::log::Config::configure_default_verbosity</title>
<polygon fill="white" stroke="transparent" points="-4,4 -4,-31 307,-31 307,4 -4,4"/>
<!-- Node1 -->
<g id="node1" class="node">
<title>Node1</title>
<g id="a_node1"><a xlink:title="Sets the default verbosity to the given value, to be used by subsequent output_whether_should_log() c...">
<polygon fill="#bfbfbf" stroke="black" points="0,-0.5 0,-26.5 130,-26.5 130,-0.5 0,-0.5"/>
<text text-anchor="start" x="8" y="-16.1" font-family="Helvetica,sans-Serif" font-size="8.00">flow::log::Config::</text>
<text text-anchor="middle" x="65" y="-7.1" font-family="Helvetica,sans-Serif" font-size="8.00">configure_default_verbosity</text>
</a>
</g>
</g>
<!-- Node2 -->
<g id="node2" class="node">
<title>Node2</title>
<g id="a_node2"><a xlink:href="classflow_1_1log_1_1Config.html#aee6877cec4b070e18a40090f080e76ca" target="_top" xlink:title="Helper that for the given flat&#45;union&#45;component&#45;index saves the given per&#45;component verbosity,...">
<polygon fill="white" stroke="black" points="166,-0.5 166,-26.5 303,-26.5 303,-0.5 166,-0.5"/>
<text text-anchor="start" x="174" y="-16.1" font-family="Helvetica,sans-Serif" font-size="8.00">flow::log::Config::</text>
<text text-anchor="middle" x="234.5" y="-7.1" font-family="Helvetica,sans-Serif" font-size="8.00">store_severity_by_component</text>
</a>
</g>
</g>
<!-- Node1&#45;&gt;Node2 -->
<g id="edge1" class="edge">
<title>Node1&#45;&gt;Node2</title>
<path fill="none" stroke="midnightblue" d="M130.28,-13.5C138.55,-13.5 147.08,-13.5 155.53,-13.5"/>
<polygon fill="midnightblue" stroke="midnightblue" points="155.78,-17 165.78,-13.5 155.78,-10 155.78,-17"/>
</g>
</g>
</svg>
