<?xml version="1.0" encoding="UTF-8" standalone="no"?>
<!DOCTYPE svg PUBLIC "-//W3C//DTD SVG 1.1//EN"
 "http://www.w3.org/Graphics/SVG/1.1/DTD/svg11.dtd">
<!-- Generated by graphviz version 2.43.0 (0)
 -->
<!-- Title: flow::net_flow::Peer_socket::send Pages: 1 -->
<svg width="835pt" height="185pt"
 viewBox="0.00 0.00 835.00 185.00" xmlns="http://www.w3.org/2000/svg" xmlns:xlink="http://www.w3.org/1999/xlink">
<g id="graph0" class="graph" transform="scale(1 1) rotate(0) translate(4 181)">
<title>flow::net_flow::Peer_socket::send</title>
<polygon fill="white" stroke="transparent" points="-4,4 -4,-181 831,-181 831,4 -4,4"/>
<!-- Node1 -->
<g id="node1" class="node">
<title>Node1</title>
<g id="a_node1"><a xlink:title="Sends (adds to the Send buffer) the given bytes of data up to a maximum internal buffer size; and asy...">
<polygon fill="#bfbfbf" stroke="black" points="0,-86.5 0,-112.5 97,-112.5 97,-86.5 0,-86.5"/>
<text text-anchor="start" x="8" y="-102.1" font-family="Helvetica,sans-Serif" font-size="8.00">flow::net_flow::Peer</text>
<text text-anchor="middle" x="48.5" y="-93.1" font-family="Helvetica,sans-Serif" font-size="8.00">_socket::send</text>
</a>
</g>
</g>
<!-- Node2 -->
<g id="node2" class="node">
<title>Node2</title>
<g id="a_node2"><a xlink:href="classflow_1_1net__flow_1_1Socket__buffer.html#a69a0c514df820c36e7109fb1fcf78522" target="_top" xlink:title="Feeds (adds to the back of the byte buffer) the contents of the byte stream composed of the bytes in ...">
<polygon fill="white" stroke="black" points="133,-109.5 133,-135.5 247,-135.5 247,-109.5 133,-109.5"/>
<text text-anchor="start" x="141" y="-125.1" font-family="Helvetica,sans-Serif" font-size="8.00">flow::net_flow::Socket</text>
<text text-anchor="middle" x="190" y="-116.1" font-family="Helvetica,sans-Serif" font-size="8.00">_buffer::feed_bufs_copy</text>
</a>
</g>
</g>
<!-- Node1&#45;&gt;Node2 -->
<g id="edge1" class="edge">
<title>Node1&#45;&gt;Node2</title>
<path fill="none" stroke="midnightblue" d="M97.12,-107.35C105.4,-108.72 114.15,-110.16 122.82,-111.59"/>
<polygon fill="midnightblue" stroke="midnightblue" points="122.5,-115.08 132.94,-113.26 123.64,-108.18 122.5,-115.08"/>
</g>
<!-- Node6 -->
<g id="node6" class="node">
<title>Node6</title>
<g id="a_node6"><a xlink:href="classflow_1_1net__flow_1_1Peer__socket.html#a83ba2b4c39555afad67932ea6ed39bbe" target="_top" xlink:title="Non&#45;template helper for template send() that forwards the send() logic to Node::send().">
<polygon fill="white" stroke="black" points="141,-64.5 141,-90.5 239,-90.5 239,-64.5 141,-64.5"/>
<text text-anchor="start" x="149" y="-80.1" font-family="Helvetica,sans-Serif" font-size="8.00">flow::net_flow::Peer</text>
<text text-anchor="middle" x="190" y="-71.1" font-family="Helvetica,sans-Serif" font-size="8.00">_socket::node_send</text>
</a>
</g>
</g>
<!-- Node1&#45;&gt;Node6 -->
<g id="edge5" class="edge">
<title>Node1&#45;&gt;Node6</title>
<path fill="none" stroke="midnightblue" d="M97.12,-91.99C107.87,-90.29 119.41,-88.47 130.56,-86.72"/>
<polygon fill="midnightblue" stroke="midnightblue" points="131.32,-90.14 140.65,-85.13 130.23,-83.23 131.32,-90.14"/>
</g>
<!-- Node3 -->
<g id="node3" class="node">
<title>Node3</title>
<g id="a_node3"><a xlink:href="namespaceflow_1_1util.html#a16357344c21456b86b7de3085e2661a2" target="_top" xlink:title="Identical to buffers_to_ostream() but returns an std::string instead of writing to a given ostream.">
<polygon fill="white" stroke="black" points="290.5,-150.5 290.5,-176.5 376.5,-176.5 376.5,-150.5 290.5,-150.5"/>
<text text-anchor="start" x="298.5" y="-166.1" font-family="Helvetica,sans-Serif" font-size="8.00">flow::util::buffers</text>
<text text-anchor="middle" x="333.5" y="-157.1" font-family="Helvetica,sans-Serif" font-size="8.00">_dump_string</text>
</a>
</g>
</g>
<!-- Node2&#45;&gt;Node3 -->
<g id="edge2" class="edge">
<title>Node2&#45;&gt;Node3</title>
<path fill="none" stroke="midnightblue" d="M236.16,-135.59C250.22,-139.66 265.85,-144.19 280.35,-148.39"/>
<polygon fill="midnightblue" stroke="midnightblue" points="279.59,-151.81 290.17,-151.24 281.54,-145.09 279.59,-151.81"/>
</g>
<!-- Node5 -->
<g id="node5" class="node">
<title>Node5</title>
<g id="a_node5"><a xlink:href="classflow_1_1log_1_1Log__context.html#af4db395042b065b00398cd59845dcb4d" target="_top" xlink:title="Returns the stored Logger pointer, particularly as many FLOW_LOG_*() macros expect.">
<polygon fill="white" stroke="black" points="720,-76.5 720,-102.5 827,-102.5 827,-76.5 720,-76.5"/>
<text text-anchor="start" x="728" y="-92.1" font-family="Helvetica,sans-Serif" font-size="8.00">flow::log::Log_context</text>
<text text-anchor="middle" x="773.5" y="-83.1" font-family="Helvetica,sans-Serif" font-size="8.00">::get_logger</text>
</a>
</g>
</g>
<!-- Node2&#45;&gt;Node5 -->
<g id="edge4" class="edge">
<title>Node2&#45;&gt;Node5</title>
<path fill="none" stroke="midnightblue" d="M247.11,-119.37C317.26,-115.46 441.01,-108.53 547,-102.5 601.85,-99.38 664.19,-95.78 709.41,-93.16"/>
<polygon fill="midnightblue" stroke="midnightblue" points="709.87,-96.64 719.65,-92.57 709.46,-89.65 709.87,-96.64"/>
</g>
<!-- Node4 -->
<g id="node4" class="node">
<title>Node4</title>
<g id="a_node4"><a xlink:href="namespaceflow_1_1util.html#aa132928b364caefca5c3821e019924bf" target="_top" xlink:title="Writes a multi&#45; or single&#45;line string representation of the provided binary data to an output stream,...">
<polygon fill="white" stroke="black" points="440.5,-150.5 440.5,-176.5 526.5,-176.5 526.5,-150.5 440.5,-150.5"/>
<text text-anchor="start" x="448.5" y="-166.1" font-family="Helvetica,sans-Serif" font-size="8.00">flow::util::buffers</text>
<text text-anchor="middle" x="483.5" y="-157.1" font-family="Helvetica,sans-Serif" font-size="8.00">_to_ostream</text>
</a>
</g>
</g>
<!-- Node3&#45;&gt;Node4 -->
<g id="edge3" class="edge">
<title>Node3&#45;&gt;Node4</title>
<path fill="none" stroke="midnightblue" d="M376.51,-163.5C393.23,-163.5 412.64,-163.5 430.25,-163.5"/>
<polygon fill="midnightblue" stroke="midnightblue" points="430.38,-167 440.38,-163.5 430.38,-160 430.38,-167"/>
</g>
<!-- Node7 -->
<g id="node7" class="node">
<title>Node7</title>
<g id="a_node7"><a xlink:href="classflow_1_1net__flow_1_1Node.html#a109a118ca312e94686595ea08dac7ad0" target="_top" xlink:title="Helper method that checks whether the given Peer_socket or Server_socket is CLOSED; if so,...">
<polygon fill="white" stroke="black" points="283,-66.5 283,-92.5 384,-92.5 384,-66.5 283,-66.5"/>
<text text-anchor="start" x="291" y="-82.1" font-family="Helvetica,sans-Serif" font-size="8.00">flow::net_flow::Node</text>
<text text-anchor="middle" x="333.5" y="-73.1" font-family="Helvetica,sans-Serif" font-size="8.00">::ensure_sock_open</text>
</a>
</g>
</g>
<!-- Node6&#45;&gt;Node7 -->
<g id="edge6" class="edge">
<title>Node6&#45;&gt;Node7</title>
<path fill="none" stroke="midnightblue" d="M239.3,-78.18C250.09,-78.34 261.65,-78.5 272.84,-78.66"/>
<polygon fill="midnightblue" stroke="midnightblue" points="272.92,-82.16 282.97,-78.8 273.02,-75.16 272.92,-82.16"/>
</g>
<!-- Node8 -->
<g id="node8" class="node">
<title>Node8</title>
<g id="a_node8"><a xlink:href="classflow_1_1net__flow_1_1Node.html#aa19d1f49638ef8ce8883e7477a06d3fc" target="_top" xlink:title="Implementation of non&#45;blocking sock&#45;&gt;send() for socket sock in all cases except when sock&#45;&gt;state() ==...">
<polygon fill="white" stroke="black" points="283,-21.5 283,-47.5 384,-47.5 384,-21.5 283,-21.5"/>
<text text-anchor="start" x="291" y="-37.1" font-family="Helvetica,sans-Serif" font-size="8.00">flow::net_flow::Node</text>
<text text-anchor="middle" x="333.5" y="-28.1" font-family="Helvetica,sans-Serif" font-size="8.00">::send</text>
</a>
</g>
</g>
<!-- Node6&#45;&gt;Node8 -->
<g id="edge7" class="edge">
<title>Node6&#45;&gt;Node8</title>
<path fill="none" stroke="midnightblue" d="M233.84,-64.48C248.25,-60.1 264.5,-55.16 279.6,-50.58"/>
<polygon fill="midnightblue" stroke="midnightblue" points="280.77,-53.88 289.32,-47.62 278.73,-47.18 280.77,-53.88"/>
</g>
<!-- Node9 -->
<g id="node9" class="node">
<title>Node9</title>
<g id="a_node9"><a xlink:href="classflow_1_1net__flow_1_1Node.html#aae148cec361b59237996a4b30c6624b5" target="_top" xlink:title="Returns true if and only if the Node is operating.">
<polygon fill="white" stroke="black" points="433,-66.5 433,-92.5 534,-92.5 534,-66.5 433,-66.5"/>
<text text-anchor="start" x="441" y="-82.1" font-family="Helvetica,sans-Serif" font-size="8.00">flow::net_flow::Node</text>
<text text-anchor="middle" x="483.5" y="-73.1" font-family="Helvetica,sans-Serif" font-size="8.00">::running</text>
</a>
</g>
</g>
<!-- Node8&#45;&gt;Node9 -->
<g id="edge8" class="edge">
<title>Node8&#45;&gt;Node9</title>
<path fill="none" stroke="midnightblue" d="M377.31,-47.52C393.65,-52.48 412.48,-58.21 429.65,-63.43"/>
<polygon fill="midnightblue" stroke="midnightblue" points="428.95,-66.88 439.53,-66.44 430.98,-60.18 428.95,-66.88"/>
</g>
<!-- Node10 -->
<g id="node10" class="node">
<title>Node10</title>
<g id="a_node10"><a xlink:href="classflow_1_1net__flow_1_1Node.html#a2565b7c0bd82cad86eb168b62f8ffd9d" target="_top" xlink:title="Helper placed by send() onto W to invoke send_worker() but ensures that the socket has not entered so...">
<polygon fill="white" stroke="black" points="420,-21.5 420,-47.5 547,-47.5 547,-21.5 420,-21.5"/>
<text text-anchor="start" x="428" y="-37.1" font-family="Helvetica,sans-Serif" font-size="8.00">flow::net_flow::Node</text>
<text text-anchor="middle" x="483.5" y="-28.1" font-family="Helvetica,sans-Serif" font-size="8.00">::send_worker_check_state</text>
</a>
</g>
</g>
<!-- Node8&#45;&gt;Node10 -->
<g id="edge9" class="edge">
<title>Node8&#45;&gt;Node10</title>
<path fill="none" stroke="midnightblue" d="M384.19,-34.5C392.4,-34.5 401.06,-34.5 409.7,-34.5"/>
<polygon fill="midnightblue" stroke="midnightblue" points="409.8,-38 419.8,-34.5 409.79,-31 409.8,-38"/>
</g>
<!-- Node42 -->
<g id="node12" class="node">
<title>Node42</title>
<g id="a_node12"><a xlink:href="classflow_1_1net__flow_1_1Node.html#a382b607fa2e482886f2fd75edc36b8b7" target="_top" xlink:title="Return true if and only if there are enough data either in Peer_socket::m_snd_rexmit_q of sock (if re...">
<polygon fill="white" stroke="black" points="723,-0.5 723,-26.5 824,-26.5 824,-0.5 723,-0.5"/>
<text text-anchor="start" x="731" y="-16.1" font-family="Helvetica,sans-Serif" font-size="8.00">flow::net_flow::Node</text>
<text text-anchor="middle" x="773.5" y="-7.1" font-family="Helvetica,sans-Serif" font-size="8.00">::snd_deqable</text>
</a>
</g>
</g>
<!-- Node8&#45;&gt;Node42 -->
<g id="edge13" class="edge">
<title>Node8&#45;&gt;Node42</title>
<path fill="none" stroke="midnightblue" d="M374.51,-21.41C388.71,-17.39 404.91,-13.49 420,-11.5 522.21,2.01 642.55,-3.13 712.89,-8.22"/>
<polygon fill="midnightblue" stroke="midnightblue" points="712.67,-11.71 722.9,-8.97 713.19,-4.73 712.67,-11.71"/>
</g>
<!-- Node11 -->
<g id="node11" class="node">
<title>Node11</title>
<g id="a_node11"><a xlink:href="classflow_1_1net__flow_1_1Node.html#a10a92f11a2c9f218cdd9a55f282e79b1" target="_top" xlink:title="Thread W implemention of send(): synchronously or asynchronously send the contents of sock&#45;&gt;m_snd_buf...">
<polygon fill="white" stroke="red" points="583,-21.5 583,-47.5 684,-47.5 684,-21.5 583,-21.5"/>
<text text-anchor="start" x="591" y="-37.1" font-family="Helvetica,sans-Serif" font-size="8.00">flow::net_flow::Node</text>
<text text-anchor="middle" x="633.5" y="-28.1" font-family="Helvetica,sans-Serif" font-size="8.00">::send_worker</text>
</a>
</g>
</g>
<!-- Node10&#45;&gt;Node11 -->
<g id="edge10" class="edge">
<title>Node10&#45;&gt;Node11</title>
<path fill="none" stroke="midnightblue" d="M547.27,-34.5C555.67,-34.5 564.27,-34.5 572.62,-34.5"/>
<polygon fill="midnightblue" stroke="midnightblue" points="572.65,-38 582.65,-34.5 572.65,-31 572.65,-38"/>
</g>
<!-- Node11&#45;&gt;Node5 -->
<g id="edge11" class="edge">
<title>Node11&#45;&gt;Node5</title>
<path fill="none" stroke="midnightblue" d="M667.2,-47.53C686.06,-55.05 709.96,-64.58 730.23,-72.65"/>
<polygon fill="midnightblue" stroke="midnightblue" points="728.97,-75.92 739.55,-76.37 731.56,-69.42 728.97,-75.92"/>
</g>
<!-- Node11&#45;&gt;Node42 -->
<g id="edge12" class="edge">
<title>Node11&#45;&gt;Node42</title>
<path fill="none" stroke="midnightblue" d="M684.32,-26.92C693.51,-25.52 703.18,-24.05 712.63,-22.61"/>
<polygon fill="midnightblue" stroke="midnightblue" points="713.39,-26.04 722.75,-21.07 712.34,-19.11 713.39,-26.04"/>
</g>
</g>
</svg>
