<?xml version="1.0" encoding="UTF-8" standalone="no"?>
<!DOCTYPE svg PUBLIC "-//W3C//DTD SVG 1.1//EN"
 "http://www.w3.org/Graphics/SVG/1.1/DTD/svg11.dtd">
<!-- Generated by graphviz version 2.43.0 (0)
 -->
<!-- Title: flow::net_flow::Node::serv_set_state Pages: 1 -->
<svg width="527pt" height="108pt"
 viewBox="0.00 0.00 527.00 107.50" xmlns="http://www.w3.org/2000/svg" xmlns:xlink="http://www.w3.org/1999/xlink">
<g id="graph0" class="graph" transform="scale(1 1) rotate(0) translate(4 103.5)">
<title>flow::net_flow::Node::serv_set_state</title>
<polygon fill="white" stroke="transparent" points="-4,4 -4,-103.5 523,-103.5 523,4 -4,4"/>
<!-- Node1 -->
<g id="node1" class="node">
<title>Node1</title>
<g id="a_node1"><a xlink:title="Sets Server_socket::m_state.">
<polygon fill="#bfbfbf" stroke="black" points="418,-29 418,-55 519,-55 519,-29 418,-29"/>
<text text-anchor="start" x="426" y="-44.6" font-family="Helvetica,sans-Serif" font-size="8.00">flow::net_flow::Node</text>
<text text-anchor="middle" x="468.5" y="-35.6" font-family="Helvetica,sans-Serif" font-size="8.00">::serv_set_state</text>
</a>
</g>
</g>
<!-- Node2 -->
<g id="node2" class="node">
<title>Node2</title>
<g id="a_node2"><a xlink:href="classflow_1_1net__flow_1_1Node.html#aba411df8746d5fd4db2d28df3a016f5e" target="_top" xlink:title="Thread W implementation of listen().">
<polygon fill="white" stroke="black" points="278.5,-53 278.5,-79 379.5,-79 379.5,-53 278.5,-53"/>
<text text-anchor="start" x="286.5" y="-68.6" font-family="Helvetica,sans-Serif" font-size="8.00">flow::net_flow::Node</text>
<text text-anchor="middle" x="329" y="-59.6" font-family="Helvetica,sans-Serif" font-size="8.00">::listen_worker</text>
</a>
</g>
</g>
<!-- Node1&#45;&gt;Node2 -->
<g id="edge1" class="edge">
<title>Node1&#45;&gt;Node2</title>
<path fill="none" stroke="midnightblue" d="M407.77,-52.43C398.36,-54.07 388.72,-55.75 379.57,-57.35"/>
<polygon fill="midnightblue" stroke="midnightblue" points="408.61,-55.83 417.86,-50.66 407.41,-48.94 408.61,-55.83"/>
</g>
<!-- Node4 -->
<g id="node4" class="node">
<title>Node4</title>
<g id="a_node4"><a xlink:href="classflow_1_1net__flow_1_1Node.html#a2af9ec4f1483cd9a2183286f7dfa9c87" target="_top" xlink:title="Records that thread W shows this socket is not to listen to incoming connections and is to abort any ...">
<polygon fill="white" stroke="black" points="276,-7 276,-33 382,-33 382,-7 276,-7"/>
<text text-anchor="start" x="284" y="-22.6" font-family="Helvetica,sans-Serif" font-size="8.00">flow::net_flow::Node</text>
<text text-anchor="middle" x="329" y="-13.6" font-family="Helvetica,sans-Serif" font-size="8.00">::serv_close_detected</text>
</a>
</g>
</g>
<!-- Node1&#45;&gt;Node4 -->
<g id="edge4" class="edge">
<title>Node1&#45;&gt;Node4</title>
<path fill="none" stroke="midnightblue" d="M407.97,-32.48C399.44,-31.11 390.73,-29.72 382.35,-28.38"/>
<polygon fill="midnightblue" stroke="midnightblue" points="407.43,-35.93 417.86,-34.06 408.54,-29.02 407.43,-35.93"/>
</g>
<!-- Node3 -->
<g id="node3" class="node">
<title>Node3</title>
<g id="a_node3"><a xlink:href="classflow_1_1net__flow_1_1Node.html#a3c2cd6a6c328a2d5381308258d35d95d" target="_top" xlink:title="Sets up a server on the given local Flow port and returns Server_socket which can be used to accept s...">
<polygon fill="white" stroke="black" points="138,-55 138,-81 239,-81 239,-55 138,-55"/>
<text text-anchor="start" x="146" y="-70.6" font-family="Helvetica,sans-Serif" font-size="8.00">flow::net_flow::Node</text>
<text text-anchor="middle" x="188.5" y="-61.6" font-family="Helvetica,sans-Serif" font-size="8.00">::listen</text>
</a>
</g>
</g>
<!-- Node2&#45;&gt;Node3 -->
<g id="edge2" class="edge">
<title>Node2&#45;&gt;Node3</title>
<path fill="none" stroke="midnightblue" d="M268.38,-66.86C258.66,-67 248.68,-67.15 239.23,-67.28"/>
<polygon fill="midnightblue" stroke="midnightblue" points="268.44,-70.36 278.39,-66.72 268.34,-63.36 268.44,-70.36"/>
</g>
<!-- Node3&#45;&gt;Node3 -->
<g id="edge3" class="edge">
<title>Node3&#45;&gt;Node3</title>
<path fill="none" stroke="midnightblue" d="M213.34,-91.44C210.58,-96.14 202.3,-99.5 188.5,-99.5 165.86,-99.5 158.08,-90.46 165.15,-81.27"/>
<polygon fill="midnightblue" stroke="midnightblue" points="216.76,-90.66 211.85,-81.27 209.83,-91.67 216.76,-90.66"/>
</g>
<!-- Node5 -->
<g id="node5" class="node">
<title>Node5</title>
<g id="a_node5"><a xlink:href="classflow_1_1net__flow_1_1Node.html#adf6d71af81def2d030f0fef159c1b06d" target="_top" xlink:title="Handles the transition of the given server socket from S_LISTENING/S_CLOSING to S_CLOSED (including e...">
<polygon fill="white" stroke="black" points="137,-0.5 137,-35.5 240,-35.5 240,-0.5 137,-0.5"/>
<text text-anchor="start" x="145" y="-25.1" font-family="Helvetica,sans-Serif" font-size="8.00">flow::net_flow::Node</text>
<text text-anchor="start" x="145" y="-16.1" font-family="Helvetica,sans-Serif" font-size="8.00">::close_empty_server</text>
<text text-anchor="middle" x="188.5" y="-7.1" font-family="Helvetica,sans-Serif" font-size="8.00">_immediately</text>
</a>
</g>
</g>
<!-- Node4&#45;&gt;Node5 -->
<g id="edge5" class="edge">
<title>Node4&#45;&gt;Node5</title>
<path fill="none" stroke="midnightblue" d="M265.41,-19.1C256.93,-18.97 248.33,-18.85 240.1,-18.73"/>
<polygon fill="midnightblue" stroke="midnightblue" points="265.59,-22.6 275.64,-19.24 265.69,-15.6 265.59,-22.6"/>
</g>
<!-- Node6 -->
<g id="node6" class="node">
<title>Node6</title>
<g id="a_node6"><a xlink:href="classflow_1_1net__flow_1_1Node.html#a5b056ed753b832458f44f537acfe86d7" target="_top" xlink:title="Worker thread W (main event loop) body.">
<polygon fill="white" stroke="black" points="0,-5 0,-31 101,-31 101,-5 0,-5"/>
<text text-anchor="start" x="8" y="-20.6" font-family="Helvetica,sans-Serif" font-size="8.00">flow::net_flow::Node</text>
<text text-anchor="middle" x="50.5" y="-11.6" font-family="Helvetica,sans-Serif" font-size="8.00">::worker_run</text>
</a>
</g>
</g>
<!-- Node5&#45;&gt;Node6 -->
<g id="edge6" class="edge">
<title>Node5&#45;&gt;Node6</title>
<path fill="none" stroke="midnightblue" d="M126.63,-18C118.15,-18 109.52,-18 101.28,-18"/>
<polygon fill="midnightblue" stroke="midnightblue" points="126.86,-21.5 136.86,-18 126.86,-14.5 126.86,-21.5"/>
</g>
</g>
</svg>
