<?xml version="1.0" encoding="UTF-8" standalone="no"?>
<!DOCTYPE svg PUBLIC "-//W3C//DTD SVG 1.1//EN"
 "http://www.w3.org/Graphics/SVG/1.1/DTD/svg11.dtd">
<!-- Generated by graphviz version 2.43.0 (0)
 -->
<!-- Title: flow::util::Linked_hash_map::insert_impl_mv Pages: 1 -->
<svg width="264pt" height="35pt"
 viewBox="0.00 0.00 264.00 35.00" xmlns="http://www.w3.org/2000/svg" xmlns:xlink="http://www.w3.org/1999/xlink">
<g id="graph0" class="graph" transform="scale(1 1) rotate(0) translate(4 31)">
<title>flow::util::Linked_hash_map::insert_impl_mv</title>
<polygon fill="white" stroke="transparent" points="-4,4 -4,-31 260,-31 260,4 -4,4"/>
<!-- Node1 -->
<g id="node1" class="node">
<title>Node1</title>
<g id="a_node1"><a xlink:title="Similar to insert_impl(), except key_and_mapped components are move()d into *this instead of being co...">
<polygon fill="#bfbfbf" stroke="black" points="0,-0.5 0,-26.5 128,-26.5 128,-0.5 0,-0.5"/>
<text text-anchor="start" x="8" y="-16.1" font-family="Helvetica,sans-Serif" font-size="8.00">flow::util::Linked</text>
<text text-anchor="middle" x="64" y="-7.1" font-family="Helvetica,sans-Serif" font-size="8.00">_hash_map::insert_impl_mv</text>
</a>
</g>
</g>
<!-- Node2 -->
<g id="node2" class="node">
<title>Node2</title>
<g id="a_node2"><a xlink:href="classflow_1_1util_1_1Linked__hash__map.html#a585b7d184077a8644d764d104feed76a" target="_top" xlink:title="Synonym of newest().">
<polygon fill="white" stroke="black" points="164,-0.5 164,-26.5 256,-26.5 256,-0.5 164,-0.5"/>
<text text-anchor="start" x="172" y="-16.1" font-family="Helvetica,sans-Serif" font-size="8.00">flow::util::Linked</text>
<text text-anchor="middle" x="210" y="-7.1" font-family="Helvetica,sans-Serif" font-size="8.00">_hash_map::begin</text>
</a>
</g>
</g>
<!-- Node1&#45;&gt;Node2 -->
<g id="edge1" class="edge">
<title>Node1&#45;&gt;Node2</title>
<path fill="none" stroke="midnightblue" d="M128.16,-13.5C136.56,-13.5 145.11,-13.5 153.37,-13.5"/>
<polygon fill="midnightblue" stroke="midnightblue" points="153.63,-17 163.63,-13.5 153.63,-10 153.63,-17"/>
</g>
</g>
</svg>
