<?xml version="1.0" encoding="UTF-8" standalone="no"?>
<!DOCTYPE svg PUBLIC "-//W3C//DTD SVG 1.1//EN"
 "http://www.w3.org/Graphics/SVG/1.1/DTD/svg11.dtd">
<!-- Generated by graphviz version 2.43.0 (0)
 -->
<!-- Title: flow::net_flow::Node::event_set_all_check_delta Pages: 1 -->
<svg width="550pt" height="371pt"
 viewBox="0.00 0.00 550.00 370.50" xmlns="http://www.w3.org/2000/svg" xmlns:xlink="http://www.w3.org/1999/xlink">
<g id="graph0" class="graph" transform="scale(1 1) rotate(0) translate(4 366.5)">
<title>flow::net_flow::Node::event_set_all_check_delta</title>
<polygon fill="white" stroke="transparent" points="-4,4 -4,-366.5 546,-366.5 546,4 -4,4"/>
<!-- Node1 -->
<g id="node1" class="node">
<title>Node1</title>
<g id="a_node1"><a xlink:title="For each WAITING Event_set within the Node: checks for any events that hold, and if any do hold,...">
<polygon fill="#bfbfbf" stroke="black" points="0,-152.5 0,-178.5 128,-178.5 128,-152.5 0,-152.5"/>
<text text-anchor="start" x="8" y="-168.1" font-family="Helvetica,sans-Serif" font-size="8.00">flow::net_flow::Node</text>
<text text-anchor="middle" x="64" y="-159.1" font-family="Helvetica,sans-Serif" font-size="8.00">::event_set_all_check_delta</text>
</a>
</g>
</g>
<!-- Node2 -->
<g id="node2" class="node">
<title>Node2</title>
<g id="a_node2"><a xlink:href="classflow_1_1net__flow_1_1Event__set.html#a0edced1cb69b2cad299ee32e652ccea7" target="_top" xlink:title="Helper that clears each Sockets set inside an Ev_type_to_socks_map.">
<polygon fill="white" stroke="black" points="168.5,-327 168.5,-362 275.5,-362 275.5,-327 168.5,-327"/>
<text text-anchor="start" x="176.5" y="-351.6" font-family="Helvetica,sans-Serif" font-size="8.00">flow::net_flow::Event</text>
<text text-anchor="start" x="176.5" y="-342.6" font-family="Helvetica,sans-Serif" font-size="8.00">_set::clear_ev_type_to</text>
<text text-anchor="middle" x="222" y="-333.6" font-family="Helvetica,sans-Serif" font-size="8.00">_socks_map</text>
</a>
</g>
</g>
<!-- Node1&#45;&gt;Node2 -->
<g id="edge1" class="edge">
<title>Node1&#45;&gt;Node2</title>
<path fill="none" stroke="midnightblue" d="M70.52,-178.62C83.16,-207.29 116.8,-276.27 164,-317.5 165.48,-318.8 167.04,-320.04 168.65,-321.24"/>
<polygon fill="midnightblue" stroke="midnightblue" points="166.83,-324.23 177.1,-326.84 170.7,-318.4 166.83,-324.23"/>
</g>
<!-- Node3 -->
<g id="node3" class="node">
<title>Node3</title>
<g id="a_node3"><a xlink:href="classflow_1_1util_1_1Linked__hash__set.html#a048a8d78c4ae3bc45c8bcede6b0e2dc6" target="_top" xlink:title="Returns true if and only if container is empty.">
<polygon fill="white" stroke="black" points="177.5,-281.5 177.5,-307.5 266.5,-307.5 266.5,-281.5 177.5,-281.5"/>
<text text-anchor="start" x="185.5" y="-297.1" font-family="Helvetica,sans-Serif" font-size="8.00">flow::util::Linked</text>
<text text-anchor="middle" x="222" y="-288.1" font-family="Helvetica,sans-Serif" font-size="8.00">_hash_set::empty</text>
</a>
</g>
</g>
<!-- Node1&#45;&gt;Node3 -->
<g id="edge2" class="edge">
<title>Node1&#45;&gt;Node3</title>
<path fill="none" stroke="midnightblue" d="M74.24,-178.64C90.25,-200.58 125.18,-244.85 164,-271.5 166.86,-273.46 169.91,-275.3 173.06,-277"/>
<polygon fill="midnightblue" stroke="midnightblue" points="171.59,-280.18 182.11,-281.48 174.7,-273.91 171.59,-280.18"/>
</g>
<!-- Node4 -->
<g id="node4" class="node">
<title>Node4</title>
<g id="a_node4"><a xlink:href="classflow_1_1net__flow_1_1Event__set.html#aed9505b886c78169fe35b527f4e01855" target="_top" xlink:title="Functional helper that checks whether a given pair in an Ev_type_to_socks_map contains an empty set o...">
<polygon fill="white" stroke="black" points="167,-227 167,-262 277,-262 277,-227 167,-227"/>
<text text-anchor="start" x="175" y="-251.6" font-family="Helvetica,sans-Serif" font-size="8.00">flow::net_flow::Event</text>
<text text-anchor="start" x="175" y="-242.6" font-family="Helvetica,sans-Serif" font-size="8.00">_set::ev_type_to_socks</text>
<text text-anchor="middle" x="222" y="-233.6" font-family="Helvetica,sans-Serif" font-size="8.00">_map_entry_is_empty</text>
</a>
</g>
</g>
<!-- Node1&#45;&gt;Node4 -->
<g id="edge3" class="edge">
<title>Node1&#45;&gt;Node4</title>
<path fill="none" stroke="midnightblue" d="M89.27,-178.6C109.22,-189.29 138.29,-204.67 164,-217.5 167.28,-219.14 170.67,-220.81 174.1,-222.47"/>
<polygon fill="midnightblue" stroke="midnightblue" points="172.65,-225.66 183.18,-226.85 175.7,-219.36 172.65,-225.66"/>
</g>
<!-- Node5 -->
<g id="node5" class="node">
<title>Node5</title>
<g id="a_node5"><a xlink:href="classflow_1_1net__flow_1_1Event__set.html#a19e241ae4dfe1ea54de6027052bc2135" target="_top" xlink:title="Helper that returns a loggable string summarizing the sizes of the socket sets, by type,...">
<polygon fill="white" stroke="black" points="167,-173 167,-208 277,-208 277,-173 167,-173"/>
<text text-anchor="start" x="175" y="-197.6" font-family="Helvetica,sans-Serif" font-size="8.00">flow::net_flow::Event</text>
<text text-anchor="start" x="175" y="-188.6" font-family="Helvetica,sans-Serif" font-size="8.00">_set::ev_type_to_socks</text>
<text text-anchor="middle" x="222" y="-179.6" font-family="Helvetica,sans-Serif" font-size="8.00">_map_sizes_to_str</text>
</a>
</g>
</g>
<!-- Node1&#45;&gt;Node5 -->
<g id="edge4" class="edge">
<title>Node1&#45;&gt;Node5</title>
<path fill="none" stroke="midnightblue" d="M128,-175.6C137.44,-177.11 147.18,-178.67 156.65,-180.19"/>
<polygon fill="midnightblue" stroke="midnightblue" points="156.36,-183.69 166.79,-181.81 157.47,-176.77 156.36,-183.69"/>
</g>
<!-- Node10 -->
<g id="node10" class="node">
<title>Node10</title>
<g id="a_node10"><a xlink:href="classflow_1_1util_1_1Linked__hash__set.html#a517b9b0ac9d6ab2c56e27ba380f87180" target="_top" xlink:title="Attempts to insert the given key into the set.">
<polygon fill="white" stroke="black" points="179,-127.5 179,-153.5 265,-153.5 265,-127.5 179,-127.5"/>
<text text-anchor="start" x="187" y="-143.1" font-family="Helvetica,sans-Serif" font-size="8.00">flow::util::Linked</text>
<text text-anchor="middle" x="222" y="-134.1" font-family="Helvetica,sans-Serif" font-size="8.00">_hash_set::insert</text>
</a>
</g>
</g>
<!-- Node1&#45;&gt;Node10 -->
<g id="edge10" class="edge">
<title>Node1&#45;&gt;Node10</title>
<path fill="none" stroke="midnightblue" d="M128,-155.4C141.48,-153.24 155.58,-150.98 168.61,-148.9"/>
<polygon fill="midnightblue" stroke="midnightblue" points="169.47,-152.3 178.79,-147.26 168.36,-145.39 169.47,-152.3"/>
</g>
<!-- Node11 -->
<g id="node11" class="node">
<title>Node11</title>
<g id="a_node11"><a xlink:href="namespaceflow_1_1util.html#a03984e29450abf9cf287c501d6c8f866" target="_top" xlink:title="Returns true if and only if the given key is present at least once in the given associative container...">
<polygon fill="white" stroke="black" points="172.5,-91 172.5,-108 271.5,-108 271.5,-91 172.5,-91"/>
<text text-anchor="middle" x="222" y="-97.6" font-family="Helvetica,sans-Serif" font-size="8.00">flow::util::key_exists</text>
</a>
</g>
</g>
<!-- Node1&#45;&gt;Node11 -->
<g id="edge11" class="edge">
<title>Node1&#45;&gt;Node11</title>
<path fill="none" stroke="midnightblue" d="M90.26,-152.46C110.04,-142.51 138.41,-128.8 164,-118.5 170.31,-115.96 177.1,-113.49 183.71,-111.2"/>
<polygon fill="midnightblue" stroke="midnightblue" points="184.85,-114.52 193.21,-108.01 182.62,-107.88 184.85,-114.52"/>
</g>
<!-- Node12 -->
<g id="node12" class="node">
<title>Node12</title>
<g id="a_node12"><a xlink:href="classflow_1_1util_1_1Linked__hash__set.html#ad2ce3ff8f57696dcb230f419775ab865" target="_top" xlink:title="Returns number of elements stored.">
<polygon fill="white" stroke="black" points="179.5,-45.5 179.5,-71.5 264.5,-71.5 264.5,-45.5 179.5,-45.5"/>
<text text-anchor="start" x="187.5" y="-61.1" font-family="Helvetica,sans-Serif" font-size="8.00">flow::util::Linked</text>
<text text-anchor="middle" x="222" y="-52.1" font-family="Helvetica,sans-Serif" font-size="8.00">_hash_set::size</text>
</a>
</g>
</g>
<!-- Node1&#45;&gt;Node12 -->
<g id="edge12" class="edge">
<title>Node1&#45;&gt;Node12</title>
<path fill="none" stroke="midnightblue" d="M77.71,-152.33C95.6,-134.39 129.85,-102.13 164,-81.5 167.35,-79.48 170.9,-77.56 174.54,-75.77"/>
<polygon fill="midnightblue" stroke="midnightblue" points="176.06,-78.92 183.68,-71.55 173.13,-72.56 176.06,-78.92"/>
</g>
<!-- Node13 -->
<g id="node13" class="node">
<title>Node13</title>
<g id="a_node13"><a xlink:href="classflow_1_1net__flow_1_1Event__set.html#ae04c117b15179ba37a94f6836c63497b" target="_top" xlink:title="Helper that returns a loggable string representing the socket stored in the given boost::any that sto...">
<polygon fill="white" stroke="black" points="164,-0.5 164,-26.5 280,-26.5 280,-0.5 164,-0.5"/>
<text text-anchor="start" x="172" y="-16.1" font-family="Helvetica,sans-Serif" font-size="8.00">flow::net_flow::Event</text>
<text text-anchor="middle" x="222" y="-7.1" font-family="Helvetica,sans-Serif" font-size="8.00">_set::sock_as_any_to_str</text>
</a>
</g>
</g>
<!-- Node1&#45;&gt;Node13 -->
<g id="edge13" class="edge">
<title>Node1&#45;&gt;Node13</title>
<path fill="none" stroke="midnightblue" d="M71.86,-152.13C85.83,-126.16 119.99,-68.55 164,-35.5 165.86,-34.1 167.82,-32.78 169.85,-31.54"/>
<polygon fill="midnightblue" stroke="midnightblue" points="171.95,-34.38 179.09,-26.55 168.63,-28.22 171.95,-34.38"/>
</g>
<!-- Node6 -->
<g id="node6" class="node">
<title>Node6</title>
<g id="a_node6"><a xlink:href="namespaceflow_1_1util.html#a8afd30c50bcd670d45442df49d1da484" target="_top" xlink:title="Writes to the specified string, as if the given arguments were each passed, via &lt;&lt; in sequence,...">
<polygon fill="white" stroke="black" points="316,-66.5 316,-92.5 408,-92.5 408,-66.5 316,-66.5"/>
<text text-anchor="start" x="324" y="-82.1" font-family="Helvetica,sans-Serif" font-size="8.00">flow::util::ostream</text>
<text text-anchor="middle" x="362" y="-73.1" font-family="Helvetica,sans-Serif" font-size="8.00">_op_to_string</text>
</a>
</g>
</g>
<!-- Node5&#45;&gt;Node6 -->
<g id="edge5" class="edge">
<title>Node5&#45;&gt;Node6</title>
<path fill="none" stroke="midnightblue" d="M264.79,-172.88C270.08,-170.03 275.29,-166.89 280,-163.5 305.25,-145.36 329.34,-118.77 344.59,-100.39"/>
<polygon fill="midnightblue" stroke="midnightblue" points="347.34,-102.55 350.94,-92.58 341.91,-98.13 347.34,-102.55"/>
</g>
<!-- Node9 -->
<g id="node9" class="node">
<title>Node9</title>
<g id="a_node9"><a xlink:href="classflow_1_1util_1_1Linked__hash__map.html#aba0949de5032e8dd6d75a48bcac9b060" target="_top" xlink:title="Returns number of elements stored.">
<polygon fill="white" stroke="black" points="319.5,-177.5 319.5,-203.5 404.5,-203.5 404.5,-177.5 319.5,-177.5"/>
<text text-anchor="start" x="327.5" y="-193.1" font-family="Helvetica,sans-Serif" font-size="8.00">flow::util::Linked</text>
<text text-anchor="middle" x="362" y="-184.1" font-family="Helvetica,sans-Serif" font-size="8.00">_hash_map::size</text>
</a>
</g>
</g>
<!-- Node5&#45;&gt;Node9 -->
<g id="edge9" class="edge">
<title>Node5&#45;&gt;Node9</title>
<path fill="none" stroke="midnightblue" d="M277.15,-190.5C287.68,-190.5 298.7,-190.5 309.15,-190.5"/>
<polygon fill="midnightblue" stroke="midnightblue" points="309.39,-194 319.39,-190.5 309.39,-187 309.39,-194"/>
</g>
<!-- Node7 -->
<g id="node7" class="node">
<title>Node7</title>
<g id="a_node7"><a xlink:href="namespaceflow_1_1util.html#af92e6183c2071f4166d4b5a91f50d70c" target="_top" xlink:title="&quot;Induction step&quot; version of variadic function template that simply outputs arguments 2+ via &lt;&lt; to the...">
<polygon fill="white" stroke="black" points="444,-89.5 444,-115.5 542,-115.5 542,-89.5 444,-89.5"/>
<text text-anchor="start" x="452" y="-105.1" font-family="Helvetica,sans-Serif" font-size="8.00">flow::util::feed_args</text>
<text text-anchor="middle" x="493" y="-96.1" font-family="Helvetica,sans-Serif" font-size="8.00">_to_ostream</text>
</a>
</g>
</g>
<!-- Node6&#45;&gt;Node7 -->
<g id="edge6" class="edge">
<title>Node6&#45;&gt;Node7</title>
<path fill="none" stroke="midnightblue" d="M408.12,-87.54C416.37,-89.02 425.09,-90.57 433.66,-92.1"/>
<polygon fill="midnightblue" stroke="midnightblue" points="433.16,-95.56 443.62,-93.87 434.38,-88.67 433.16,-95.56"/>
</g>
<!-- Node8 -->
<g id="node8" class="node">
<title>Node8</title>
<g id="a_node8"><a xlink:href="classflow_1_1util_1_1String__ostream.html#a7e64b069ae0e221952068c13fdc0f080" target="_top" xlink:title="Access to stream that will write to owned string.">
<polygon fill="white" stroke="black" points="452,-44.5 452,-70.5 534,-70.5 534,-44.5 452,-44.5"/>
<text text-anchor="start" x="460" y="-60.1" font-family="Helvetica,sans-Serif" font-size="8.00">flow::util::String</text>
<text text-anchor="middle" x="493" y="-51.1" font-family="Helvetica,sans-Serif" font-size="8.00">_ostream::os</text>
</a>
</g>
</g>
<!-- Node6&#45;&gt;Node8 -->
<g id="edge8" class="edge">
<title>Node6&#45;&gt;Node8</title>
<path fill="none" stroke="midnightblue" d="M408.12,-71.81C419.02,-69.95 430.74,-67.95 441.86,-66.05"/>
<polygon fill="midnightblue" stroke="midnightblue" points="442.59,-69.48 451.86,-64.35 441.41,-62.58 442.59,-69.48"/>
</g>
<!-- Node7&#45;&gt;Node7 -->
<g id="edge7" class="edge">
<title>Node7&#45;&gt;Node7</title>
<path fill="none" stroke="midnightblue" d="M471.01,-115.77C464.34,-124.96 471.67,-134 493,-134 506,-134 513.8,-130.64 516.4,-125.94"/>
<polygon fill="midnightblue" stroke="midnightblue" points="519.83,-125.2 514.99,-115.77 512.89,-126.16 519.83,-125.2"/>
</g>
<!-- Node13&#45;&gt;Node6 -->
<g id="edge14" class="edge">
<title>Node13&#45;&gt;Node6</title>
<path fill="none" stroke="midnightblue" d="M258.87,-26.53C265.94,-29.33 273.26,-32.38 280,-35.5 296.84,-43.28 315.04,-53.04 329.92,-61.39"/>
<polygon fill="midnightblue" stroke="midnightblue" points="328.28,-64.49 338.71,-66.38 331.73,-58.4 328.28,-64.49"/>
</g>
</g>
</svg>
