<?xml version="1.0" encoding="UTF-8" standalone="no"?>
<!DOCTYPE svg PUBLIC "-//W3C//DTD SVG 1.1//EN"
 "http://www.w3.org/Graphics/SVG/1.1/DTD/svg11.dtd">
<!-- Generated by graphviz version 2.43.0 (0)
 -->
<!-- Title: flow::async::Timed_concurrent_task_loop_impl::asio_handler_timed Pages: 1 -->
<svg width="291pt" height="44pt"
 viewBox="0.00 0.00 291.00 44.00" xmlns="http://www.w3.org/2000/svg" xmlns:xlink="http://www.w3.org/1999/xlink">
<g id="graph0" class="graph" transform="scale(1 1) rotate(0) translate(4 40)">
<title>flow::async::Timed_concurrent_task_loop_impl::asio_handler_timed</title>
<polygon fill="white" stroke="transparent" points="-4,4 -4,-40 287,-40 287,4 -4,4"/>
<!-- Node1 -->
<g id="node1" class="node">
<title>Node1</title>
<g id="a_node1"><a xlink:title="Given a boost.asio completion handler handler for a boost.asio async_*() action on some boost....">
<polygon fill="#bfbfbf" stroke="black" points="160,-0.5 160,-35.5 283,-35.5 283,-0.5 160,-0.5"/>
<text text-anchor="start" x="168" y="-25.1" font-family="Helvetica,sans-Serif" font-size="8.00">flow::async::Timed</text>
<text text-anchor="start" x="168" y="-16.1" font-family="Helvetica,sans-Serif" font-size="8.00">_concurrent_task_loop</text>
<text text-anchor="middle" x="221.5" y="-7.1" font-family="Helvetica,sans-Serif" font-size="8.00">_impl::asio_handler_timed</text>
</a>
</g>
</g>
<!-- Node2 -->
<g id="node2" class="node">
<title>Node2</title>
<g id="a_node2"><a xlink:href="classflow_1_1async_1_1Timed__single__thread__task__loop.html#a37f2f0d5c163cc1d0b56213ebb080af0" target="_top" xlink:title="See Timed_concurrent_task_loop_impl::asio_handler_timed().">
<polygon fill="white" stroke="black" points="0,-0.5 0,-35.5 124,-35.5 124,-0.5 0,-0.5"/>
<text text-anchor="start" x="8" y="-25.1" font-family="Helvetica,sans-Serif" font-size="8.00">flow::async::Timed</text>
<text text-anchor="start" x="8" y="-16.1" font-family="Helvetica,sans-Serif" font-size="8.00">_single_thread_task</text>
<text text-anchor="middle" x="62" y="-7.1" font-family="Helvetica,sans-Serif" font-size="8.00">_loop::asio_handler_timed</text>
</a>
</g>
</g>
<!-- Node1&#45;&gt;Node2 -->
<g id="edge1" class="edge">
<title>Node1&#45;&gt;Node2</title>
<path fill="none" stroke="midnightblue" d="M149.44,-18C141.03,-18 132.51,-18 124.25,-18"/>
<polygon fill="midnightblue" stroke="midnightblue" points="149.61,-21.5 159.61,-18 149.61,-14.5 149.61,-21.5"/>
</g>
</g>
</svg>
