<?xml version="1.0" encoding="UTF-8" standalone="no"?>
<!DOCTYPE svg PUBLIC "-//W3C//DTD SVG 1.1//EN"
 "http://www.w3.org/Graphics/SVG/1.1/DTD/svg11.dtd">
<!-- Generated by graphviz version 2.43.0 (0)
 -->
<!-- Title: flow::net_flow::Node::setup_connection_timers Pages: 1 -->
<svg width="586pt" height="180pt"
 viewBox="0.00 0.00 586.00 179.50" xmlns="http://www.w3.org/2000/svg" xmlns:xlink="http://www.w3.org/1999/xlink">
<g id="graph0" class="graph" transform="scale(1 1) rotate(0) translate(4 175.5)">
<title>flow::net_flow::Node::setup_connection_timers</title>
<polygon fill="white" stroke="transparent" points="-4,4 -4,-175.5 582,-175.5 582,4 -4,4"/>
<!-- Node1 -->
<g id="node1" class="node">
<title>Node1</title>
<g id="a_node1"><a xlink:title="Assuming we&#39;ve just sent SYN or SYN_ACK, sets up an asynchronous scheduled task to fire within some a...">
<polygon fill="#bfbfbf" stroke="black" points="0,-77 0,-103 125,-103 125,-77 0,-77"/>
<text text-anchor="start" x="8" y="-92.6" font-family="Helvetica,sans-Serif" font-size="8.00">flow::net_flow::Node</text>
<text text-anchor="middle" x="62.5" y="-83.6" font-family="Helvetica,sans-Serif" font-size="8.00">::setup_connection_timers</text>
</a>
</g>
</g>
<!-- Node2 -->
<g id="node2" class="node">
<title>Node2</title>
<g id="a_node2"><a xlink:href="classflow_1_1log_1_1Log__context.html#af4db395042b065b00398cd59845dcb4d" target="_top" xlink:title="Returns the stored Logger pointer, particularly as many FLOW_LOG_*() macros expect.">
<polygon fill="white" stroke="black" points="161,-145 161,-171 268,-171 268,-145 161,-145"/>
<text text-anchor="start" x="169" y="-160.6" font-family="Helvetica,sans-Serif" font-size="8.00">flow::log::Log_context</text>
<text text-anchor="middle" x="214.5" y="-151.6" font-family="Helvetica,sans-Serif" font-size="8.00">::get_logger</text>
</a>
</g>
</g>
<!-- Node1&#45;&gt;Node2 -->
<g id="edge1" class="edge">
<title>Node1&#45;&gt;Node2</title>
<path fill="none" stroke="midnightblue" d="M90.25,-103.01C109.76,-112.4 136.89,-125.27 161,-136 164.65,-137.63 168.46,-139.29 172.29,-140.93"/>
<polygon fill="midnightblue" stroke="midnightblue" points="171.18,-144.27 181.75,-144.96 173.92,-137.83 171.18,-144.27"/>
</g>
<!-- Node3 -->
<g id="node3" class="node">
<title>Node3</title>
<g id="a_node3"><a xlink:href="namespaceflow_1_1util.html#a74d4a66fb00055be4e1bd6ee98e04667" target="_top" xlink:title="Schedule the given function to execute in a certain amount of time: A handy wrapper around Timer (asi...">
<polygon fill="white" stroke="black" points="167,-100 167,-126 262,-126 262,-100 167,-100"/>
<text text-anchor="start" x="175" y="-115.6" font-family="Helvetica,sans-Serif" font-size="8.00">flow::util::schedule</text>
<text text-anchor="middle" x="214.5" y="-106.6" font-family="Helvetica,sans-Serif" font-size="8.00">_task_from_now</text>
</a>
</g>
</g>
<!-- Node1&#45;&gt;Node3 -->
<g id="edge2" class="edge">
<title>Node1&#45;&gt;Node3</title>
<path fill="none" stroke="midnightblue" d="M125.38,-99.49C135.79,-101.08 146.55,-102.73 156.82,-104.31"/>
<polygon fill="midnightblue" stroke="midnightblue" points="156.48,-107.8 166.89,-105.85 157.54,-100.88 156.48,-107.8"/>
</g>
<!-- Node6 -->
<g id="node6" class="node">
<title>Node6</title>
<g id="a_node6"><a xlink:href="namespaceflow_1_1util.html#a79a0f182b38898771d669475d3e963a4" target="_top" xlink:title="Returns whether a previously scheduled (by schedule_task_from_now() or similar) task has already fire...">
<polygon fill="white" stroke="black" points="164,-55 164,-81 265,-81 265,-55 164,-55"/>
<text text-anchor="start" x="172" y="-70.6" font-family="Helvetica,sans-Serif" font-size="8.00">flow::util::scheduled</text>
<text text-anchor="middle" x="214.5" y="-61.6" font-family="Helvetica,sans-Serif" font-size="8.00">_task_fired</text>
</a>
</g>
</g>
<!-- Node1&#45;&gt;Node6 -->
<g id="edge5" class="edge">
<title>Node1&#45;&gt;Node6</title>
<path fill="none" stroke="midnightblue" d="M125.38,-80.92C134.74,-79.55 144.39,-78.14 153.7,-76.77"/>
<polygon fill="midnightblue" stroke="midnightblue" points="154.27,-80.22 163.66,-75.31 153.26,-73.3 154.27,-80.22"/>
</g>
<!-- Node7 -->
<g id="node7" class="node">
<title>Node7</title>
<g id="a_node7"><a xlink:href="namespaceflow_1_1util.html#a9a0812b36dc401a3b2ac5e60e2a070d0" target="_top" xlink:title="Returns how long remains until a previously scheduled (by schedule_task_from_now() or similar) task f...">
<polygon fill="white" stroke="black" points="163,-0.5 163,-35.5 266,-35.5 266,-0.5 163,-0.5"/>
<text text-anchor="start" x="171" y="-25.1" font-family="Helvetica,sans-Serif" font-size="8.00">flow::util::scheduled</text>
<text text-anchor="start" x="171" y="-16.1" font-family="Helvetica,sans-Serif" font-size="8.00">_task_fires_from_now</text>
<text text-anchor="middle" x="214.5" y="-7.1" font-family="Helvetica,sans-Serif" font-size="8.00">_or_canceled</text>
</a>
</g>
</g>
<!-- Node1&#45;&gt;Node7 -->
<g id="edge6" class="edge">
<title>Node1&#45;&gt;Node7</title>
<path fill="none" stroke="midnightblue" d="M90.66,-76.96C112.17,-66.64 142.68,-51.99 167.91,-39.88"/>
<polygon fill="midnightblue" stroke="midnightblue" points="169.44,-43.03 176.94,-35.55 166.41,-36.72 169.44,-43.03"/>
</g>
<!-- Node4 -->
<g id="node4" class="node">
<title>Node4</title>
<g id="a_node4"><a xlink:href="classflow_1_1util_1_1Unique__id__holder.html#a50489177a7731618ca130468c3872748" target="_top" xlink:title="Short&#45;hand for Unique_id_holder().unique_id(); useful when all you want is the unique integer itself.">
<polygon fill="white" stroke="black" points="304,-100 304,-126 438,-126 438,-100 304,-100"/>
<text text-anchor="start" x="312" y="-115.6" font-family="Helvetica,sans-Serif" font-size="8.00">flow::util::Unique</text>
<text text-anchor="middle" x="371" y="-106.6" font-family="Helvetica,sans-Serif" font-size="8.00">_id_holder::create_unique_id</text>
</a>
</g>
</g>
<!-- Node3&#45;&gt;Node4 -->
<g id="edge3" class="edge">
<title>Node3&#45;&gt;Node4</title>
<path fill="none" stroke="midnightblue" d="M262.27,-113C272.17,-113 282.86,-113 293.52,-113"/>
<polygon fill="midnightblue" stroke="midnightblue" points="293.72,-116.5 303.72,-113 293.72,-109.5 293.72,-116.5"/>
</g>
<!-- Node5 -->
<g id="node5" class="node">
<title>Node5</title>
<g id="a_node5"><a xlink:href="classflow_1_1util_1_1Unique__id__holder.html#a90705293787069f52372638d5450ef52" target="_top" xlink:title="Thread&#45;safely construct an ID whose value is different from any other object of this class,...">
<polygon fill="white" stroke="black" points="474,-95.5 474,-130.5 578,-130.5 578,-95.5 474,-95.5"/>
<text text-anchor="start" x="482" y="-120.1" font-family="Helvetica,sans-Serif" font-size="8.00">flow::util::Unique</text>
<text text-anchor="start" x="482" y="-111.1" font-family="Helvetica,sans-Serif" font-size="8.00">_id_holder::Unique_id</text>
<text text-anchor="middle" x="526" y="-102.1" font-family="Helvetica,sans-Serif" font-size="8.00">_holder</text>
</a>
</g>
</g>
<!-- Node4&#45;&gt;Node5 -->
<g id="edge4" class="edge">
<title>Node4&#45;&gt;Node5</title>
<path fill="none" stroke="midnightblue" d="M438.22,-113C446.72,-113 455.39,-113 463.8,-113"/>
<polygon fill="midnightblue" stroke="midnightblue" points="463.9,-116.5 473.9,-113 463.9,-109.5 463.9,-116.5"/>
</g>
</g>
</svg>
