<?xml version="1.0" encoding="UTF-8" standalone="no"?>
<!DOCTYPE svg PUBLIC "-//W3C//DTD SVG 1.1//EN"
 "http://www.w3.org/Graphics/SVG/1.1/DTD/svg11.dtd">
<!-- Generated by graphviz version 2.43.0 (0)
 -->
<!-- Title: flow::log::Ostream_log_msg_writer Pages: 1 -->
<svg width="1144pt" height="562pt"
 viewBox="0.00 0.00 1144.00 562.00" xmlns="http://www.w3.org/2000/svg" xmlns:xlink="http://www.w3.org/1999/xlink">
<g id="graph0" class="graph" transform="scale(1 1) rotate(0) translate(4 558)">
<title>flow::log::Ostream_log_msg_writer</title>
<polygon fill="white" stroke="transparent" points="-4,4 -4,-558 1140,-558 1140,4 -4,4"/>
<!-- Node1 -->
<g id="node1" class="node">
<title>Node1</title>
<g id="a_node1"><a xlink:title="Utility class, each object of which wraps a given ostream and outputs discrete messages to it adorned...">
<polygon fill="#bfbfbf" stroke="black" points="1044,-248 1044,-274 1136,-274 1136,-248 1044,-248"/>
<text text-anchor="start" x="1052" y="-263.6" font-family="Helvetica,sans-Serif" font-size="8.00">flow::log::Ostream</text>
<text text-anchor="middle" x="1090" y="-254.6" font-family="Helvetica,sans-Serif" font-size="8.00">_log_msg_writer</text>
</a>
</g>
</g>
<!-- Node2 -->
<g id="node2" class="node">
<title>Node2</title>
<g id="a_node2"><a xlink:title=" ">
<polygon fill="white" stroke="#bfbfbf" points="766.5,-536.5 766.5,-553.5 865.5,-553.5 865.5,-536.5 766.5,-536.5"/>
<text text-anchor="middle" x="816" y="-543.1" font-family="Helvetica,sans-Serif" font-size="8.00">boost::noncopyable</text>
</a>
</g>
</g>
<!-- Node2&#45;&gt;Node1 -->
<g id="edge1" class="edge">
<title>Node2&#45;&gt;Node1</title>
<path fill="none" stroke="#8b1a1a" d="M875.79,-546.7C922.48,-544.8 986.31,-534.45 1026,-496 1058.76,-464.26 1081.09,-318.78 1087.27,-274.09"/>
<polygon fill="#8b1a1a" stroke="#8b1a1a" points="875.4,-543.21 865.5,-546.99 875.6,-550.21 875.4,-543.21"/>
</g>
<!-- Node3 -->
<g id="node3" class="node">
<title>Node3</title>
<g id="a_node3"><a xlink:title=" ">
<polygon fill="white" stroke="black" points="758,-409 758,-435 874,-435 874,-409 758,-409"/>
<text text-anchor="start" x="766" y="-424.6" font-family="Helvetica,sans-Serif" font-size="8.00">std::vector&lt; flow::</text>
<text text-anchor="middle" x="816" y="-415.6" font-family="Helvetica,sans-Serif" font-size="8.00">util::Basic_string_view &gt;</text>
</a>
</g>
</g>
<!-- Node3&#45;&gt;Node1 -->
<g id="edge2" class="edge">
<title>Node3&#45;&gt;Node1</title>
<path fill="none" stroke="#9a32cd" stroke-dasharray="5,2" d="M884.27,-409.99C927.94,-399.65 984.27,-381.29 1026,-350 1053.42,-329.45 1073.56,-293.47 1083.01,-274.15"/>
<polygon fill="#9a32cd" stroke="#9a32cd" points="883.28,-406.62 874.31,-412.26 884.84,-413.45 883.28,-406.62"/>
<text text-anchor="middle" x="974" y="-401.6" font-family="Helvetica,sans-Serif" font-size="8.00"> S_SEV_STRS</text>
</g>
<!-- Node4 -->
<g id="node4" class="node">
<title>Node4</title>
<g id="a_node4"><a xlink:href="classflow_1_1util_1_1Basic__string__view.html" target="_top" xlink:title="Essentially alias for a C++17&#45;conforming string&#45;view class template, which is a very lightweight std:...">
<polygon fill="white" stroke="black" points="444,-469 444,-495 551,-495 551,-469 444,-469"/>
<text text-anchor="start" x="452" y="-484.6" font-family="Helvetica,sans-Serif" font-size="8.00">flow::util::Basic_string</text>
<text text-anchor="middle" x="497.5" y="-475.6" font-family="Helvetica,sans-Serif" font-size="8.00">_view&lt; Ch, Traits &gt;</text>
</a>
</g>
</g>
<!-- Node4&#45;&gt;Node1 -->
<g id="edge6" class="edge">
<title>Node4&#45;&gt;Node1</title>
<path fill="none" stroke="#9a32cd" stroke-dasharray="5,2" d="M561.57,-482.09C686.26,-480.96 958.1,-471.54 1026,-412 1068.72,-374.55 1083.14,-303.45 1087.41,-274.14"/>
<polygon fill="#9a32cd" stroke="#9a32cd" points="561.39,-478.6 551.42,-482.17 561.44,-485.6 561.39,-478.6"/>
<text text-anchor="start" x="758.5" y="-505.6" font-family="Helvetica,sans-Serif" font-size="8.00"> S_HUMAN_FRIENDLY_TIME</text>
<text text-anchor="middle" x="816" y="-496.6" font-family="Helvetica,sans-Serif" font-size="8.00">_STAMP_MIN_SZ_TEMPLATE</text>
<text text-anchor="start" x="758.5" y="-487.6" font-family="Helvetica,sans-Serif" font-size="8.00">S_HUMAN_FRIENDLY_TIME</text>
<text text-anchor="middle" x="816" y="-478.6" font-family="Helvetica,sans-Serif" font-size="8.00">_STAMP_REST_SZ_TEMPLATE</text>
</g>
<!-- Node4&#45;&gt;Node3 -->
<g id="edge3" class="edge">
<title>Node4&#45;&gt;Node3</title>
<path fill="none" stroke="#9a32cd" stroke-dasharray="5,2" d="M555.48,-466.36C565.92,-463.73 576.76,-461.16 587,-459 644.68,-446.85 711.3,-436.46 757.57,-429.8"/>
<polygon fill="#9a32cd" stroke="#9a32cd" points="554.43,-463.01 545.61,-468.88 556.17,-469.79 554.43,-463.01"/>
<text text-anchor="middle" x="648.5" y="-461.6" font-family="Helvetica,sans-Serif" font-size="8.00"> elements</text>
</g>
<!-- Node5 -->
<g id="node5" class="node">
<title>Node5</title>
<g id="a_node5"><a xlink:title=" ">
<polygon fill="white" stroke="black" points="204,-469 204,-495 311,-495 311,-469 204,-469"/>
<text text-anchor="start" x="212" y="-484.6" font-family="Helvetica,sans-Serif" font-size="8.00">std::basic_string_view</text>
<text text-anchor="middle" x="257.5" y="-475.6" font-family="Helvetica,sans-Serif" font-size="8.00">&lt; Char &gt;</text>
</a>
</g>
</g>
<!-- Node5&#45;&gt;Node4 -->
<g id="edge4" class="edge">
<title>Node5&#45;&gt;Node4</title>
<path fill="none" stroke="midnightblue" d="M321.49,-482C359.58,-482 407.6,-482 443.7,-482"/>
<polygon fill="midnightblue" stroke="midnightblue" points="321.02,-478.5 311.02,-482 321.02,-485.5 321.02,-478.5"/>
</g>
<!-- Node6 -->
<g id="node6" class="node">
<title>Node6</title>
<g id="a_node6"><a xlink:title=" ">
<polygon fill="white" stroke="#bfbfbf" points="786.5,-342.5 786.5,-359.5 845.5,-359.5 845.5,-342.5 786.5,-342.5"/>
<text text-anchor="middle" x="816" y="-349.1" font-family="Helvetica,sans-Serif" font-size="8.00">time_point</text>
</a>
</g>
</g>
<!-- Node6&#45;&gt;Node1 -->
<g id="edge5" class="edge">
<title>Node6&#45;&gt;Node1</title>
<path fill="none" stroke="#9a32cd" stroke-dasharray="5,2" d="M855.63,-347.81C898.76,-343.14 969.86,-332.09 1026,-307 1044.3,-298.82 1062.5,-284.72 1074.59,-274.29"/>
<polygon fill="#9a32cd" stroke="#9a32cd" points="855.15,-344.34 845.56,-348.84 855.86,-351.3 855.15,-344.34"/>
<text text-anchor="middle" x="974" y="-339.6" font-family="Helvetica,sans-Serif" font-size="8.00"> S_POSIX_EPOCH</text>
</g>
<!-- Node7 -->
<g id="node7" class="node">
<title>Node7</title>
<g id="a_node7"><a xlink:href="classflow_1_1log_1_1Config.html" target="_top" xlink:title="Class used to configure the filtering and logging behavior of Loggers; its use in your custom Loggers...">
<polygon fill="white" stroke="black" points="774,-306.5 774,-323.5 858,-323.5 858,-306.5 774,-306.5"/>
<text text-anchor="middle" x="816" y="-313.1" font-family="Helvetica,sans-Serif" font-size="8.00">flow::log::Config</text>
</a>
</g>
</g>
<!-- Node7&#45;&gt;Node1 -->
<g id="edge7" class="edge">
<title>Node7&#45;&gt;Node1</title>
<path fill="none" stroke="#9a32cd" stroke-dasharray="5,2" d="M868.33,-305.08C910.65,-296.86 972.25,-284.82 1026,-274 1031.8,-272.83 1037.9,-271.59 1043.93,-270.36"/>
<polygon fill="#9a32cd" stroke="#9a32cd" points="867.42,-301.69 858.27,-307.03 868.75,-308.56 867.42,-301.69"/>
<text text-anchor="middle" x="974" y="-296.6" font-family="Helvetica,sans-Serif" font-size="8.00"> m_config</text>
</g>
<!-- Node8 -->
<g id="node8" class="node">
<title>Node8</title>
<g id="a_node8"><a xlink:title=" ">
<polygon fill="white" stroke="#bfbfbf" points="457,-432.5 457,-449.5 538,-449.5 538,-432.5 457,-432.5"/>
<text text-anchor="middle" x="497.5" y="-439.1" font-family="Helvetica,sans-Serif" font-size="8.00">static const Sev</text>
</a>
</g>
</g>
<!-- Node8&#45;&gt;Node7 -->
<g id="edge8" class="edge">
<title>Node8&#45;&gt;Node7</title>
<path fill="none" stroke="#9a32cd" stroke-dasharray="5,2" d="M546.68,-429.85C554.22,-427.78 561.86,-425.48 569,-423 577.27,-420.13 578.61,-417.5 587,-415 640.08,-399.18 668.53,-431.72 710,-395 731.48,-375.98 706.93,-352.48 728,-333 740.23,-321.69 757.63,-316.72 773.65,-314.75"/>
<polygon fill="#9a32cd" stroke="#9a32cd" points="545.67,-426.5 536.9,-432.44 547.46,-433.27 545.67,-426.5"/>
<text text-anchor="start" x="600.5" y="-426.6" font-family="Helvetica,sans-Serif" font-size="8.00"> S_MOST_VERBOSE_SEV</text>
<text text-anchor="middle" x="648.5" y="-417.6" font-family="Helvetica,sans-Serif" font-size="8.00">_DEFAULT</text>
</g>
<!-- Node9 -->
<g id="node9" class="node">
<title>Node9</title>
<g id="a_node9"><a xlink:href="classbool.html" target="_top" xlink:title=" ">
<polygon fill="white" stroke="#bfbfbf" points="480,-396.5 480,-413.5 515,-413.5 515,-396.5 480,-396.5"/>
<text text-anchor="middle" x="497.5" y="-403.1" font-family="Helvetica,sans-Serif" font-size="8.00">bool</text>
</a>
</g>
</g>
<!-- Node9&#45;&gt;Node7 -->
<g id="edge9" class="edge">
<title>Node9&#45;&gt;Node7</title>
<path fill="none" stroke="#9a32cd" stroke-dasharray="5,2" d="M525.15,-399.9C538.56,-396.9 554.92,-392.6 569,-387 577.5,-383.62 578.39,-380.1 587,-377 639.32,-358.14 661.83,-381.8 710,-354 720.65,-347.85 717.41,-339.25 728,-333 741.68,-324.93 758.44,-320.44 773.58,-317.95"/>
<polygon fill="#9a32cd" stroke="#9a32cd" points="524.18,-396.52 515.12,-402.01 525.63,-403.37 524.18,-396.52"/>
<text text-anchor="start" x="600.5" y="-388.6" font-family="Helvetica,sans-Serif" font-size="8.00"> m_use_human_friendly</text>
<text text-anchor="middle" x="648.5" y="-379.6" font-family="Helvetica,sans-Serif" font-size="8.00">_time_stamps</text>
</g>
<!-- Node10 -->
<g id="node10" class="node">
<title>Node10</title>
<g id="a_node10"><a xlink:href="classflow_1_1log_1_1Component__payload__type__dict.html" target="_top" xlink:title=" ">
<polygon fill="white" stroke="black" points="426,-324.5 426,-377.5 569,-377.5 569,-324.5 426,-324.5"/>
<text text-anchor="start" x="434" y="-367.1" font-family="Helvetica,sans-Serif" font-size="8.00">flow::log::Component</text>
<text text-anchor="start" x="434" y="-358.1" font-family="Helvetica,sans-Serif" font-size="8.00">_payload_type_dict&lt; value</text>
<text text-anchor="start" x="434" y="-349.1" font-family="Helvetica,sans-Serif" font-size="8.00">_for_exposition&lt; Component</text>
<text text-anchor="start" x="434" y="-340.1" font-family="Helvetica,sans-Serif" font-size="8.00">_config &gt;, value_for_exposition</text>
<text text-anchor="middle" x="497.5" y="-331.1" font-family="Helvetica,sans-Serif" font-size="8.00">&lt; Component_config &gt; &gt;</text>
</a>
</g>
</g>
<!-- Node10&#45;&gt;Node7 -->
<g id="edge10" class="edge">
<title>Node10&#45;&gt;Node7</title>
<path fill="none" stroke="#9a32cd" stroke-dasharray="5,2" d="M579.4,-337.03C581.96,-336.67 584.5,-336.33 587,-336 652.04,-327.51 727.95,-321.24 773.71,-317.85"/>
<polygon fill="#9a32cd" stroke="#9a32cd" points="578.82,-333.58 569.44,-338.49 579.84,-340.51 578.82,-333.58"/>
<text text-anchor="start" x="601" y="-347.6" font-family="Helvetica,sans-Serif" font-size="8.00"> m_component_cfgs_by</text>
<text text-anchor="middle" x="648.5" y="-338.6" font-family="Helvetica,sans-Serif" font-size="8.00">_payload_type</text>
</g>
<!-- Node11 -->
<g id="node11" class="node">
<title>Node11</title>
<g id="a_node11"><a xlink:href="classvalue__for__exposition_3_01Component__config_01_4.html" target="_top" xlink:title=" ">
<polygon fill="white" stroke="#bfbfbf" points="202,-338 202,-364 313,-364 313,-338 202,-338"/>
<text text-anchor="start" x="210" y="-353.6" font-family="Helvetica,sans-Serif" font-size="8.00">value_for_exposition</text>
<text text-anchor="middle" x="257.5" y="-344.6" font-family="Helvetica,sans-Serif" font-size="8.00">&lt; Component_config &gt;</text>
</a>
</g>
</g>
<!-- Node11&#45;&gt;Node10 -->
<g id="edge11" class="edge">
<title>Node11&#45;&gt;Node10</title>
<path fill="none" stroke="#9a32cd" stroke-dasharray="5,2" d="M323.18,-351C354.96,-351 393.33,-351 425.88,-351"/>
<polygon fill="#9a32cd" stroke="#9a32cd" points="323.1,-347.5 313.1,-351 323.1,-354.5 323.1,-347.5"/>
<text text-anchor="middle" x="369.5" y="-362.6" font-family="Helvetica,sans-Serif" font-size="8.00"> m_dict_by_type</text>
<text text-anchor="middle" x="369.5" y="-353.6" font-family="Helvetica,sans-Serif" font-size="8.00">m_dict_by_type_ptr</text>
</g>
<!-- Node12 -->
<g id="node12" class="node">
<title>Node12</title>
<g id="a_node12"><a xlink:href="classflow_1_1log_1_1Config_1_1Atomic__raw__sev.html" target="_top" xlink:title="Trivial wrapper of atomic&lt;raw_sev_t&gt; which adds a couple of things to make it possible to construct,...">
<polygon fill="white" stroke="black" points="212.5,-271 212.5,-297 302.5,-297 302.5,-271 212.5,-271"/>
<text text-anchor="start" x="220.5" y="-286.6" font-family="Helvetica,sans-Serif" font-size="8.00">flow::log::Config::</text>
<text text-anchor="middle" x="257.5" y="-277.6" font-family="Helvetica,sans-Serif" font-size="8.00">Atomic_raw_sev</text>
</a>
</g>
</g>
<!-- Node12&#45;&gt;Node7 -->
<g id="edge12" class="edge">
<title>Node12&#45;&gt;Node7</title>
<path fill="none" stroke="#9a32cd" stroke-dasharray="5,2" d="M312.95,-287.03C424.13,-293.23 675.08,-307.21 773.9,-312.71"/>
<polygon fill="#9a32cd" stroke="#9a32cd" points="312.81,-283.52 302.63,-286.46 312.42,-290.51 312.81,-283.52"/>
<text text-anchor="middle" x="497.5" y="-303.6" font-family="Helvetica,sans-Serif" font-size="8.00"> m_verbosity_default</text>
</g>
<!-- Node15 -->
<g id="node15" class="node">
<title>Node15</title>
<g id="a_node15"><a xlink:title=" ">
<polygon fill="white" stroke="black" points="448.5,-234 448.5,-260 546.5,-260 546.5,-234 448.5,-234"/>
<text text-anchor="start" x="456.5" y="-249.6" font-family="Helvetica,sans-Serif" font-size="8.00">std::vector&lt; Atomic</text>
<text text-anchor="middle" x="497.5" y="-240.6" font-family="Helvetica,sans-Serif" font-size="8.00">_raw_sev &gt;</text>
</a>
</g>
</g>
<!-- Node12&#45;&gt;Node15 -->
<g id="edge16" class="edge">
<title>Node12&#45;&gt;Node15</title>
<path fill="none" stroke="#9a32cd" stroke-dasharray="5,2" d="M312.77,-275.56C353.64,-269.21 409.16,-260.58 448.44,-254.47"/>
<polygon fill="#9a32cd" stroke="#9a32cd" points="312.05,-272.13 302.71,-277.13 313.13,-279.05 312.05,-272.13"/>
<text text-anchor="middle" x="369.5" y="-274.6" font-family="Helvetica,sans-Serif" font-size="8.00"> elements</text>
</g>
<!-- Node13 -->
<g id="node13" class="node">
<title>Node13</title>
<g id="a_node13"><a xlink:title=" ">
<polygon fill="white" stroke="black" points="79,-275.5 79,-292.5 165,-292.5 165,-275.5 79,-275.5"/>
<text text-anchor="middle" x="122" y="-282.1" font-family="Helvetica,sans-Serif" font-size="8.00">std::atomic&lt; T &gt;</text>
</a>
</g>
</g>
<!-- Node13&#45;&gt;Node12 -->
<g id="edge13" class="edge">
<title>Node13&#45;&gt;Node12</title>
<path fill="none" stroke="midnightblue" d="M175.3,-284C187.52,-284 200.41,-284 212.23,-284"/>
<polygon fill="midnightblue" stroke="midnightblue" points="175.24,-280.5 165.24,-284 175.24,-287.5 175.24,-280.5"/>
</g>
<!-- Node14 -->
<g id="node14" class="node">
<title>Node14</title>
<g id="a_node14"><a xlink:title=" ">
<polygon fill="white" stroke="#bfbfbf" points="0,-275.5 0,-292.5 29,-292.5 29,-275.5 0,-275.5"/>
<text text-anchor="middle" x="14.5" y="-282.1" font-family="Helvetica,sans-Serif" font-size="8.00">T</text>
</a>
</g>
</g>
<!-- Node14&#45;&gt;Node13 -->
<g id="edge14" class="edge">
<title>Node14&#45;&gt;Node13</title>
<path fill="none" stroke="#9a32cd" stroke-dasharray="5,2" d="M39.53,-284C51.19,-284 65.54,-284 78.94,-284"/>
<polygon fill="#9a32cd" stroke="#9a32cd" points="39.29,-280.5 29.29,-284 39.29,-287.5 39.29,-280.5"/>
<text text-anchor="middle" x="54" y="-286.6" font-family="Helvetica,sans-Serif" font-size="8.00"> ptr</text>
</g>
<!-- Node15&#45;&gt;Node7 -->
<g id="edge15" class="edge">
<title>Node15&#45;&gt;Node7</title>
<path fill="none" stroke="#9a32cd" stroke-dasharray="5,2" d="M556.81,-242.87C601.52,-242.32 663.28,-247.44 710,-274 721.28,-280.41 716.97,-290.16 728,-297 741.63,-305.46 758.54,-310.01 773.82,-312.44"/>
<polygon fill="#9a32cd" stroke="#9a32cd" points="556.61,-239.37 546.69,-243.09 556.76,-246.37 556.61,-239.37"/>
<text text-anchor="middle" x="648.5" y="-276.6" font-family="Helvetica,sans-Serif" font-size="8.00"> m_verbosities_by_component</text>
</g>
<!-- Node16 -->
<g id="node16" class="node">
<title>Node16</title>
<g id="a_node16"><a xlink:title=" ">
<polygon fill="white" stroke="#bfbfbf" points="429,-189 429,-215 566,-215 566,-189 429,-189"/>
<text text-anchor="start" x="437" y="-204.6" font-family="Helvetica,sans-Serif" font-size="8.00">unordered_map&lt; component</text>
<text text-anchor="middle" x="497.5" y="-195.6" font-family="Helvetica,sans-Serif" font-size="8.00">_union_idx_t, std::string &gt;</text>
</a>
</g>
</g>
<!-- Node16&#45;&gt;Node7 -->
<g id="edge17" class="edge">
<title>Node16&#45;&gt;Node7</title>
<path fill="none" stroke="#9a32cd" stroke-dasharray="5,2" d="M576.52,-188.39C620.67,-185.28 674.07,-189.87 710,-221 736.24,-243.73 703.11,-272.81 728,-297 740.06,-308.72 757.62,-313.72 773.81,-315.6"/>
<polygon fill="#9a32cd" stroke="#9a32cd" points="576.05,-184.92 566.38,-189.25 576.64,-191.9 576.05,-184.92"/>
<text text-anchor="start" x="595.5" y="-232.6" font-family="Helvetica,sans-Serif" font-size="8.00"> m_component_names_by</text>
<text text-anchor="middle" x="648.5" y="-223.6" font-family="Helvetica,sans-Serif" font-size="8.00">_union_idx</text>
</g>
<!-- Node17 -->
<g id="node17" class="node">
<title>Node17</title>
<g id="a_node17"><a xlink:title=" ">
<polygon fill="white" stroke="#bfbfbf" points="446,-134.5 446,-169.5 549,-169.5 549,-134.5 446,-134.5"/>
<text text-anchor="start" x="454" y="-159.1" font-family="Helvetica,sans-Serif" font-size="8.00">unordered_map&lt; std</text>
<text text-anchor="start" x="454" y="-150.1" font-family="Helvetica,sans-Serif" font-size="8.00">::string, component</text>
<text text-anchor="middle" x="497.5" y="-141.1" font-family="Helvetica,sans-Serif" font-size="8.00">_union_idx_t &gt;</text>
</a>
</g>
</g>
<!-- Node17&#45;&gt;Node7 -->
<g id="edge18" class="edge">
<title>Node17&#45;&gt;Node7</title>
<path fill="none" stroke="#9a32cd" stroke-dasharray="5,2" d="M559.13,-137.08C606.34,-129.38 670.32,-128.15 710,-165 753.39,-205.29 687.59,-253.72 728,-297 739.58,-309.4 757.27,-314.47 773.68,-316.21"/>
<polygon fill="#9a32cd" stroke="#9a32cd" points="558.26,-133.68 549.03,-138.87 559.48,-140.57 558.26,-133.68"/>
<text text-anchor="start" x="594.5" y="-176.6" font-family="Helvetica,sans-Serif" font-size="8.00"> m_component_union_idxs</text>
<text text-anchor="middle" x="648.5" y="-167.6" font-family="Helvetica,sans-Serif" font-size="8.00">_by_name</text>
</g>
<!-- Node18 -->
<g id="node18" class="node">
<title>Node18</title>
<g id="a_node18"><a xlink:href="classflow_1_1Function.html" target="_top" xlink:title=" ">
<polygon fill="white" stroke="#bfbfbf" points="750.5,-234.5 750.5,-287.5 881.5,-287.5 881.5,-234.5 750.5,-234.5"/>
<text text-anchor="start" x="758.5" y="-277.1" font-family="Helvetica,sans-Serif" font-size="8.00">flow::Function&lt; void</text>
<text text-anchor="start" x="758.5" y="-268.1" font-family="Helvetica,sans-Serif" font-size="8.00">(flow::log::Ostream_log</text>
<text text-anchor="start" x="758.5" y="-259.1" font-family="Helvetica,sans-Serif" font-size="8.00">_msg_writer *, const flow</text>
<text text-anchor="start" x="758.5" y="-250.1" font-family="Helvetica,sans-Serif" font-size="8.00">::log::Msg_metadata &amp;, flow</text>
<text text-anchor="middle" x="816" y="-241.1" font-family="Helvetica,sans-Serif" font-size="8.00">::util::Basic_string_view)&gt;</text>
</a>
</g>
</g>
<!-- Node18&#45;&gt;Node1 -->
<g id="edge19" class="edge">
<title>Node18&#45;&gt;Node1</title>
<path fill="none" stroke="#9a32cd" stroke-dasharray="5,2" d="M891.98,-261C940.68,-261 1002.54,-261 1043.82,-261"/>
<polygon fill="#9a32cd" stroke="#9a32cd" points="891.81,-257.5 881.81,-261 891.81,-264.5 891.81,-257.5"/>
<text text-anchor="middle" x="974" y="-263.6" font-family="Helvetica,sans-Serif" font-size="8.00"> m_do_log_func</text>
</g>
<!-- Node19 -->
<g id="node19" class="node">
<title>Node19</title>
<g id="a_node19"><a xlink:title=" ">
<polygon fill="white" stroke="black" points="781.5,-198.5 781.5,-215.5 850.5,-215.5 850.5,-198.5 781.5,-198.5"/>
<text text-anchor="middle" x="816" y="-205.1" font-family="Helvetica,sans-Serif" font-size="8.00">std::ostream</text>
</a>
</g>
</g>
<!-- Node19&#45;&gt;Node1 -->
<g id="edge20" class="edge">
<title>Node19&#45;&gt;Node1</title>
<path fill="none" stroke="#9a32cd" stroke-dasharray="5,2" d="M860.65,-215.43C902.95,-223.64 968.9,-236.51 1026,-248 1031.8,-249.17 1037.9,-250.41 1043.93,-251.64"/>
<polygon fill="#9a32cd" stroke="#9a32cd" points="861.17,-211.97 850.68,-213.5 859.84,-218.84 861.17,-211.97"/>
<text text-anchor="middle" x="974" y="-250.6" font-family="Helvetica,sans-Serif" font-size="8.00"> m_os</text>
</g>
<!-- Node20 -->
<g id="node20" class="node">
<title>Node20</title>
<g id="a_node20"><a xlink:title=" ">
<polygon fill="white" stroke="black" points="450,-89 450,-115 545,-115 545,-89 450,-89"/>
<text text-anchor="start" x="458" y="-104.6" font-family="Helvetica,sans-Serif" font-size="8.00">std::basic_ostream</text>
<text text-anchor="middle" x="497.5" y="-95.6" font-family="Helvetica,sans-Serif" font-size="8.00">&lt; Char &gt;</text>
</a>
</g>
</g>
<!-- Node20&#45;&gt;Node19 -->
<g id="edge21" class="edge">
<title>Node20&#45;&gt;Node19</title>
<path fill="none" stroke="midnightblue" d="M555.7,-102.77C610.26,-104.68 687.37,-110.82 710,-130 730.91,-147.73 707.74,-170.53 728,-189 742.25,-201.99 763.32,-206.59 781.16,-207.89"/>
<polygon fill="midnightblue" stroke="midnightblue" points="555.56,-99.26 545.46,-102.45 555.34,-106.26 555.56,-99.26"/>
</g>
<!-- Node21 -->
<g id="node21" class="node">
<title>Node21</title>
<g id="a_node21"><a xlink:title=" ">
<polygon fill="white" stroke="black" points="202.5,-93.5 202.5,-110.5 312.5,-110.5 312.5,-93.5 202.5,-93.5"/>
<text text-anchor="middle" x="257.5" y="-100.1" font-family="Helvetica,sans-Serif" font-size="8.00">std::basic_ios&lt; Char &gt;</text>
</a>
</g>
</g>
<!-- Node21&#45;&gt;Node20 -->
<g id="edge22" class="edge">
<title>Node21&#45;&gt;Node20</title>
<path fill="none" stroke="midnightblue" d="M322.73,-102C362.88,-102 413.65,-102 449.94,-102"/>
<polygon fill="midnightblue" stroke="midnightblue" points="322.51,-98.5 312.51,-102 322.51,-105.5 322.51,-98.5"/>
</g>
<!-- Node22 -->
<g id="node22" class="node">
<title>Node22</title>
<g id="a_node22"><a xlink:title=" ">
<polygon fill="white" stroke="black" points="86.5,-93.5 86.5,-110.5 157.5,-110.5 157.5,-93.5 86.5,-93.5"/>
<text text-anchor="middle" x="122" y="-100.1" font-family="Helvetica,sans-Serif" font-size="8.00">std::ios_base</text>
</a>
</g>
</g>
<!-- Node22&#45;&gt;Node21 -->
<g id="edge23" class="edge">
<title>Node22&#45;&gt;Node21</title>
<path fill="none" stroke="midnightblue" d="M167.97,-102C178.98,-102 190.89,-102 202.28,-102"/>
<polygon fill="midnightblue" stroke="midnightblue" points="167.73,-98.5 157.73,-102 167.73,-105.5 167.73,-98.5"/>
</g>
<!-- Node23 -->
<g id="node23" class="node">
<title>Node23</title>
<g id="a_node23"><a xlink:title=" ">
<polygon fill="white" stroke="#bfbfbf" points="782,-162.5 782,-179.5 850,-179.5 850,-162.5 782,-162.5"/>
<text text-anchor="middle" x="816" y="-169.1" font-family="Helvetica,sans-Serif" font-size="8.00">ios_all_saver</text>
</a>
</g>
</g>
<!-- Node23&#45;&gt;Node1 -->
<g id="edge24" class="edge">
<title>Node23&#45;&gt;Node1</title>
<path fill="none" stroke="#9a32cd" stroke-dasharray="5,2" d="M860.19,-174.35C903.67,-178.98 971.87,-189.7 1026,-214 1044.67,-222.38 1063.09,-237.08 1075.15,-247.81"/>
<polygon fill="#9a32cd" stroke="#9a32cd" points="860.52,-170.87 850.23,-173.35 859.83,-177.83 860.52,-170.87"/>
<text text-anchor="middle" x="974" y="-216.6" font-family="Helvetica,sans-Serif" font-size="8.00"> m_clean_os_state</text>
</g>
<!-- Node24 -->
<g id="node24" class="node">
<title>Node24</title>
<g id="a_node24"><a xlink:title=" ">
<polygon fill="white" stroke="black" points="728,-90.5 728,-143.5 904,-143.5 904,-90.5 728,-90.5"/>
<text text-anchor="start" x="736" y="-133.1" font-family="Helvetica,sans-Serif" font-size="8.00">std::array&lt; char, S</text>
<text text-anchor="start" x="736" y="-124.1" font-family="Helvetica,sans-Serif" font-size="8.00">_HUMAN_FRIENDLY_TIME</text>
<text text-anchor="start" x="736" y="-115.1" font-family="Helvetica,sans-Serif" font-size="8.00">_STAMP_MIN_SZ_TEMPLATE.size</text>
<text text-anchor="start" x="736" y="-106.1" font-family="Helvetica,sans-Serif" font-size="8.00">()+S_HUMAN_FRIENDLY_TIME</text>
<text text-anchor="middle" x="816" y="-97.1" font-family="Helvetica,sans-Serif" font-size="8.00">_STAMP_REST_SZ_TEMPLATE.size()+1 &gt;</text>
</a>
</g>
</g>
<!-- Node24&#45;&gt;Node1 -->
<g id="edge25" class="edge">
<title>Node24&#45;&gt;Node1</title>
<path fill="none" stroke="#9a32cd" stroke-dasharray="5,2" d="M914.16,-121.98C951.77,-127.79 993.49,-139.37 1026,-162 1057.1,-183.65 1076.27,-226.1 1084.42,-247.7"/>
<polygon fill="#9a32cd" stroke="#9a32cd" points="914.58,-118.5 904.19,-120.55 913.59,-125.43 914.58,-118.5"/>
<text text-anchor="start" x="926" y="-173.6" font-family="Helvetica,sans-Serif" font-size="8.00"> m_last_human_friendly</text>
<text text-anchor="middle" x="974" y="-164.6" font-family="Helvetica,sans-Serif" font-size="8.00">_time_stamp_str</text>
</g>
<!-- Node25 -->
<g id="node25" class="node">
<title>Node25</title>
<g id="a_node25"><a xlink:title=" ">
<polygon fill="white" stroke="#bfbfbf" points="480,-52.5 480,-69.5 515,-69.5 515,-52.5 480,-52.5"/>
<text text-anchor="middle" x="497.5" y="-59.1" font-family="Helvetica,sans-Serif" font-size="8.00">char</text>
</a>
</g>
</g>
<!-- Node25&#45;&gt;Node24 -->
<g id="edge26" class="edge">
<title>Node25&#45;&gt;Node24</title>
<path fill="none" stroke="#9a32cd" stroke-dasharray="5,2" d="M525.18,-62.94C565.5,-66.17 644.24,-73.65 710,-87 715.85,-88.19 721.85,-89.54 727.88,-90.99"/>
<polygon fill="#9a32cd" stroke="#9a32cd" points="525.34,-59.44 515.1,-62.15 524.79,-66.42 525.34,-59.44"/>
<text text-anchor="middle" x="648.5" y="-89.6" font-family="Helvetica,sans-Serif" font-size="8.00"> elements</text>
</g>
<!-- Node26 -->
<g id="node26" class="node">
<title>Node26</title>
<g id="a_node26"><a xlink:title=" ">
<polygon fill="white" stroke="#bfbfbf" points="796,-54.5 796,-71.5 836,-71.5 836,-54.5 796,-54.5"/>
<text text-anchor="middle" x="816" y="-61.1" font-family="Helvetica,sans-Serif" font-size="8.00">size_t</text>
</a>
</g>
</g>
<!-- Node26&#45;&gt;Node1 -->
<g id="edge27" class="edge">
<title>Node26&#45;&gt;Node1</title>
<path fill="none" stroke="#9a32cd" stroke-dasharray="5,2" d="M846.3,-60.01C890.39,-57.16 974.14,-58.39 1026,-101 1072.59,-139.28 1084.88,-216.77 1087.99,-247.76"/>
<polygon fill="#9a32cd" stroke="#9a32cd" points="845.95,-56.53 836.24,-60.78 846.48,-63.5 845.95,-56.53"/>
<text text-anchor="start" x="926" y="-112.6" font-family="Helvetica,sans-Serif" font-size="8.00"> m_last_human_friendly</text>
<text text-anchor="middle" x="974" y="-103.6" font-family="Helvetica,sans-Serif" font-size="8.00">_time_stamp_str_sz</text>
</g>
<!-- Node27 -->
<g id="node27" class="node">
<title>Node27</title>
<g id="a_node27"><a xlink:title=" ">
<polygon fill="white" stroke="#bfbfbf" points="752,-0.5 752,-35.5 880,-35.5 880,-0.5 752,-0.5"/>
<text text-anchor="start" x="760" y="-25.1" font-family="Helvetica,sans-Serif" font-size="8.00">time_point&lt; std::chrono</text>
<text text-anchor="start" x="760" y="-16.1" font-family="Helvetica,sans-Serif" font-size="8.00">::system_clock, std::chrono</text>
<text text-anchor="middle" x="816" y="-7.1" font-family="Helvetica,sans-Serif" font-size="8.00">::seconds &gt;</text>
</a>
</g>
</g>
<!-- Node27&#45;&gt;Node1 -->
<g id="edge28" class="edge">
<title>Node27&#45;&gt;Node1</title>
<path fill="none" stroke="#9a32cd" stroke-dasharray="5,2" d="M890.45,-6.68C934.55,-4.12 989.08,-8.96 1026,-40 1058.83,-67.6 1080.95,-204.72 1087.2,-247.93"/>
<polygon fill="#9a32cd" stroke="#9a32cd" points="890.07,-3.2 880.35,-7.41 890.57,-10.18 890.07,-3.2"/>
<text text-anchor="start" x="922" y="-51.6" font-family="Helvetica,sans-Serif" font-size="8.00"> m_cached_rounded_time</text>
<text text-anchor="middle" x="974" y="-42.6" font-family="Helvetica,sans-Serif" font-size="8.00">_stamp</text>
</g>
</g>
</svg>
