<?xml version="1.0" encoding="UTF-8" standalone="no"?>
<!DOCTYPE svg PUBLIC "-//W3C//DTD SVG 1.1//EN"
 "http://www.w3.org/Graphics/SVG/1.1/DTD/svg11.dtd">
<!-- Generated by graphviz version 2.43.0 (0)
 -->
<!-- Title: flow::async::Single_thread_task_loop Pages: 1 -->
<svg width="1570pt" height="452pt"
 viewBox="0.00 0.00 1570.00 451.60" xmlns="http://www.w3.org/2000/svg" xmlns:xlink="http://www.w3.org/1999/xlink">
<g id="graph0" class="graph" transform="scale(1 1) rotate(0) translate(4 447.6)">
<title>flow::async::Single_thread_task_loop</title>
<polygon fill="white" stroke="transparent" points="-4,4 -4,-447.6 1566,-447.6 1566,4 -4,4"/>
<!-- Node1 -->
<g id="node1" class="node">
<title>Node1</title>
<g id="a_node1"><a xlink:title="A Concurrent_task_loop&#45;related adapter&#45;style class that represents a single&#45;thread task loop; essenti...">
<polygon fill="#bfbfbf" stroke="black" points="1467,-320.6 1467,-346.6 1562,-346.6 1562,-320.6 1467,-320.6"/>
<text text-anchor="start" x="1475" y="-336.2" font-family="Helvetica,sans-Serif" font-size="8.00">flow::async::Single</text>
<text text-anchor="middle" x="1514.5" y="-327.2" font-family="Helvetica,sans-Serif" font-size="8.00">_thread_task_loop</text>
</a>
</g>
</g>
<!-- Node2 -->
<g id="node2" class="node">
<title>Node2</title>
<g id="a_node2"><a xlink:href="classflow_1_1log_1_1Log__context.html" target="_top" xlink:title="Convenience class that simply stores a Logger and/or Component passed into a constructor; and returns...">
<polygon fill="white" stroke="black" points="792.5,-247.1 792.5,-264.1 899.5,-264.1 899.5,-247.1 792.5,-247.1"/>
<text text-anchor="middle" x="846" y="-253.7" font-family="Helvetica,sans-Serif" font-size="8.00">flow::log::Log_context</text>
</a>
</g>
</g>
<!-- Node2&#45;&gt;Node1 -->
<g id="edge1" class="edge">
<title>Node2&#45;&gt;Node1</title>
<path fill="none" stroke="midnightblue" d="M896.28,-268.44C899.01,-269.97 901.61,-271.68 904,-273.6 916.44,-283.56 910.73,-293.34 922,-304.6 949.62,-332.18 960.43,-338.03 998,-348.6 1165.21,-395.62 1375.03,-362.76 1466.86,-344.09"/>
<polygon fill="midnightblue" stroke="midnightblue" points="897.77,-265.27 887.23,-264.13 894.76,-271.59 897.77,-265.27"/>
</g>
<!-- Node13 -->
<g id="node13" class="node">
<title>Node13</title>
<g id="a_node13"><a xlink:href="classflow_1_1async_1_1Cross__thread__task__loop.html" target="_top" xlink:title="Concrete Concurrent_task_loop that is able to efficiently schedule Tasks within a given Op to execute...">
<polygon fill="white" stroke="black" points="1254,-221.6 1254,-247.6 1346,-247.6 1346,-221.6 1254,-221.6"/>
<text text-anchor="start" x="1262" y="-237.2" font-family="Helvetica,sans-Serif" font-size="8.00">flow::async::Cross</text>
<text text-anchor="middle" x="1300" y="-228.2" font-family="Helvetica,sans-Serif" font-size="8.00">_thread_task_loop</text>
</a>
</g>
</g>
<!-- Node2&#45;&gt;Node13 -->
<g id="edge17" class="edge">
<title>Node2&#45;&gt;Node13</title>
<path fill="none" stroke="midnightblue" d="M884.78,-244.32C915.07,-235.89 958.85,-225.08 998,-220.6 1088.44,-210.26 1194.99,-220.44 1253.97,-228.03"/>
<polygon fill="midnightblue" stroke="midnightblue" points="883.72,-240.98 875.05,-247.07 885.63,-247.71 883.72,-240.98"/>
</g>
<!-- Node22 -->
<g id="node22" class="node">
<title>Node22</title>
<g id="a_node22"><a xlink:href="classflow_1_1async_1_1Op__list.html" target="_top" xlink:title="Simple, immutable vector&#45;like sequence of N opaque async::Op objects, usually corresponding to N work...">
<polygon fill="white" stroke="black" points="1005,-156.1 1005,-173.1 1101,-173.1 1101,-156.1 1005,-156.1"/>
<text text-anchor="middle" x="1053" y="-162.7" font-family="Helvetica,sans-Serif" font-size="8.00">flow::async::Op_list</text>
</a>
</g>
</g>
<!-- Node2&#45;&gt;Node22 -->
<g id="edge27" class="edge">
<title>Node2&#45;&gt;Node22</title>
<path fill="none" stroke="midnightblue" d="M865.11,-240.2C879.66,-228.48 901.07,-212.7 922,-202.6 950.06,-189.05 983.9,-179.35 1010.02,-173.14"/>
<polygon fill="midnightblue" stroke="midnightblue" points="862.49,-237.82 856.99,-246.88 866.94,-243.22 862.49,-237.82"/>
</g>
<!-- Node3 -->
<g id="node3" class="node">
<title>Node3</title>
<g id="a_node3"><a xlink:href="classflow_1_1log_1_1Logger.html" target="_top" xlink:title="Interface that the user should implement, passing the implementing Logger into logging classes (Flow&#39;...">
<polygon fill="white" stroke="black" points="542.5,-252.1 542.5,-269.1 628.5,-269.1 628.5,-252.1 542.5,-252.1"/>
<text text-anchor="middle" x="585.5" y="-258.7" font-family="Helvetica,sans-Serif" font-size="8.00">flow::log::Logger</text>
</a>
</g>
</g>
<!-- Node3&#45;&gt;Node2 -->
<g id="edge2" class="edge">
<title>Node3&#45;&gt;Node2</title>
<path fill="none" stroke="#9a32cd" stroke-dasharray="5,2" d="M638.67,-259.59C683.33,-258.73 747.33,-257.49 792.17,-256.62"/>
<polygon fill="#9a32cd" stroke="#9a32cd" points="638.54,-256.09 628.61,-259.78 638.67,-263.09 638.54,-256.09"/>
<text text-anchor="middle" x="713" y="-262.2" font-family="Helvetica,sans-Serif" font-size="8.00"> m_logger</text>
</g>
<!-- Node4 -->
<g id="node4" class="node">
<title>Node4</title>
<g id="a_node4"><a xlink:href="classflow_1_1util_1_1Null__interface.html" target="_top" xlink:title="An empty interface, consisting of nothing but a default virtual destructor, intended as a boiler&#45;plat...">
<polygon fill="white" stroke="black" points="268,-397.1 268,-414.1 382,-414.1 382,-397.1 268,-397.1"/>
<text text-anchor="middle" x="325" y="-403.7" font-family="Helvetica,sans-Serif" font-size="8.00">flow::util::Null_interface</text>
</a>
</g>
</g>
<!-- Node4&#45;&gt;Node1 -->
<g id="edge13" class="edge">
<title>Node4&#45;&gt;Node1</title>
<path fill="none" stroke="midnightblue" d="M371.09,-416.3C422.44,-427.54 509.02,-443.6 584.5,-443.6 584.5,-443.6 584.5,-443.6 1301,-443.6 1384.5,-443.6 1467.88,-375.79 1499.85,-346.65"/>
<polygon fill="midnightblue" stroke="midnightblue" points="371.82,-412.88 361.3,-414.13 370.3,-419.72 371.82,-412.88"/>
</g>
<!-- Node4&#45;&gt;Node3 -->
<g id="edge3" class="edge">
<title>Node4&#45;&gt;Node3</title>
<path fill="none" stroke="midnightblue" d="M380.17,-395.03C432.5,-384.37 505.23,-368.15 515,-358.6 536.74,-337.34 514.83,-316.98 533,-292.6 540.74,-282.22 552.93,-274.43 563.51,-269.13"/>
<polygon fill="midnightblue" stroke="midnightblue" points="379.44,-391.61 370.33,-397.02 380.83,-398.47 379.44,-391.61"/>
</g>
<!-- Node14 -->
<g id="node14" class="node">
<title>Node14</title>
<g id="a_node14"><a xlink:href="classflow_1_1async_1_1Concurrent__task__loop.html" target="_top" xlink:title="The core flow::async interface, providing an optionally multi&#45;threaded thread pool onto which runnabl...">
<polygon fill="white" stroke="black" points="656,-392.6 656,-418.6 770,-418.6 770,-392.6 656,-392.6"/>
<text text-anchor="start" x="664" y="-408.2" font-family="Helvetica,sans-Serif" font-size="8.00">flow::async::Concurrent</text>
<text text-anchor="middle" x="713" y="-399.2" font-family="Helvetica,sans-Serif" font-size="8.00">_task_loop</text>
</a>
</g>
</g>
<!-- Node4&#45;&gt;Node14 -->
<g id="edge16" class="edge">
<title>Node4&#45;&gt;Node14</title>
<path fill="none" stroke="midnightblue" d="M392.31,-405.6C466.64,-405.6 585.88,-405.6 655.8,-405.6"/>
<polygon fill="midnightblue" stroke="midnightblue" points="392.13,-402.1 382.13,-405.6 392.13,-409.1 392.13,-402.1"/>
</g>
<!-- Node5 -->
<g id="node5" class="node">
<title>Node5</title>
<g id="a_node5"><a xlink:href="classflow_1_1util_1_1Unique__id__holder.html" target="_top" xlink:title="Each object of this class stores (at construction) and returns (on demand) a numeric ID unique from a...">
<polygon fill="white" stroke="black" points="281.5,-256.6 281.5,-282.6 368.5,-282.6 368.5,-256.6 281.5,-256.6"/>
<text text-anchor="start" x="289.5" y="-272.2" font-family="Helvetica,sans-Serif" font-size="8.00">flow::util::Unique</text>
<text text-anchor="middle" x="325" y="-263.2" font-family="Helvetica,sans-Serif" font-size="8.00">_id_holder</text>
</a>
</g>
</g>
<!-- Node5&#45;&gt;Node3 -->
<g id="edge4" class="edge">
<title>Node5&#45;&gt;Node3</title>
<path fill="none" stroke="midnightblue" d="M378.93,-267.76C427.19,-266.08 497.57,-263.63 542.18,-262.07"/>
<polygon fill="midnightblue" stroke="midnightblue" points="378.56,-264.27 368.69,-268.11 378.8,-271.26 378.56,-264.27"/>
</g>
<!-- Node6 -->
<g id="node6" class="node">
<title>Node6</title>
<g id="a_node6"><a xlink:title=" ">
<polygon fill="white" stroke="#bfbfbf" points="0,-256.1 0,-273.1 50,-273.1 50,-256.1 0,-256.1"/>
<text text-anchor="middle" x="25" y="-262.7" font-family="Helvetica,sans-Serif" font-size="8.00">uint64_t</text>
</a>
</g>
</g>
<!-- Node6&#45;&gt;Node5 -->
<g id="edge5" class="edge">
<title>Node6&#45;&gt;Node5</title>
<path fill="none" stroke="#9a32cd" stroke-dasharray="5,2" d="M60.6,-269.03C63.1,-269.25 65.59,-269.45 68,-269.6 148.73,-274.67 169.11,-271.15 250,-270.6 260.15,-270.53 271.08,-270.41 281.35,-270.27"/>
<polygon fill="#9a32cd" stroke="#9a32cd" points="60.7,-265.52 50.39,-267.97 59.97,-272.48 60.7,-265.52"/>
<text text-anchor="middle" x="147.5" y="-275.2" font-family="Helvetica,sans-Serif" font-size="8.00"> m_id</text>
</g>
<!-- Node7 -->
<g id="node7" class="node">
<title>Node7</title>
<g id="a_node7"><a xlink:title=" ">
<polygon fill="white" stroke="black" points="100,-233.1 100,-250.1 195,-250.1 195,-233.1 100,-233.1"/>
<text text-anchor="middle" x="147.5" y="-239.7" font-family="Helvetica,sans-Serif" font-size="8.00">std::atomic&lt; id_t &gt;</text>
</a>
</g>
</g>
<!-- Node6&#45;&gt;Node7 -->
<g id="edge7" class="edge">
<title>Node6&#45;&gt;Node7</title>
<path fill="none" stroke="#9a32cd" stroke-dasharray="5,2" d="M60.04,-258.1C73.06,-255.62 88.11,-252.74 101.97,-250.1"/>
<polygon fill="#9a32cd" stroke="#9a32cd" points="59.26,-254.69 50.1,-260 60.57,-261.56 59.26,-254.69"/>
<text text-anchor="middle" x="75" y="-259.2" font-family="Helvetica,sans-Serif" font-size="8.00"> ptr</text>
</g>
<!-- Node7&#45;&gt;Node5 -->
<g id="edge6" class="edge">
<title>Node7&#45;&gt;Node5</title>
<path fill="none" stroke="#9a32cd" stroke-dasharray="5,2" d="M205.08,-250.63C229.87,-254.58 258.48,-259.15 281.43,-262.81"/>
<polygon fill="#9a32cd" stroke="#9a32cd" points="205.5,-247.15 195.07,-249.03 204.39,-254.06 205.5,-247.15"/>
<text text-anchor="middle" x="231.5" y="-260.2" font-family="Helvetica,sans-Serif" font-size="8.00"> s_last_id</text>
</g>
<!-- Node8 -->
<g id="node8" class="node">
<title>Node8</title>
<g id="a_node8"><a xlink:title=" ">
<polygon fill="white" stroke="#bfbfbf" points="275.5,-164.1 275.5,-181.1 374.5,-181.1 374.5,-164.1 275.5,-164.1"/>
<text text-anchor="middle" x="325" y="-170.7" font-family="Helvetica,sans-Serif" font-size="8.00">boost::noncopyable</text>
</a>
</g>
</g>
<!-- Node8&#45;&gt;Node3 -->
<g id="edge8" class="edge">
<title>Node8&#45;&gt;Node3</title>
<path fill="none" stroke="#8b1a1a" d="M372.51,-183.69C411.5,-193.8 468.15,-210.37 515,-231.6 523.54,-235.47 524.53,-238.59 533,-242.6 540.45,-246.13 548.78,-249.34 556.54,-252.03"/>
<polygon fill="#8b1a1a" stroke="#8b1a1a" points="373.06,-180.22 362.5,-181.14 371.33,-187 373.06,-180.22"/>
</g>
<!-- Node8&#45;&gt;Node13 -->
<g id="edge18" class="edge">
<title>Node8&#45;&gt;Node13</title>
<path fill="none" stroke="#8b1a1a" d="M352.29,-159.6C398.22,-138.13 496.56,-97.6 584.5,-97.6 584.5,-97.6 584.5,-97.6 1054,-97.6 1138.25,-97.6 1176.32,-91.13 1236,-150.6 1256.02,-170.55 1235.95,-189.85 1254,-211.6 1257.14,-215.38 1261.06,-218.61 1265.26,-221.34"/>
<polygon fill="#8b1a1a" stroke="#8b1a1a" points="350.58,-156.54 343.05,-164 353.59,-162.86 350.58,-156.54"/>
</g>
<!-- Node26 -->
<g id="node26" class="node">
<title>Node26</title>
<g id="a_node26"><a xlink:href="classflow_1_1util_1_1Rnd__gen__uniform__range.html" target="_top" xlink:title=" ">
<polygon fill="white" stroke="orangered" points="535,-162.1 535,-197.1 636,-197.1 636,-162.1 535,-162.1"/>
<text text-anchor="start" x="543" y="-186.7" font-family="Helvetica,sans-Serif" font-size="8.00">flow::util::Rnd_gen</text>
<text text-anchor="start" x="543" y="-177.7" font-family="Helvetica,sans-Serif" font-size="8.00">_uniform_range&lt; std</text>
<text text-anchor="middle" x="585.5" y="-168.7" font-family="Helvetica,sans-Serif" font-size="8.00">::size_t &gt;</text>
</a>
</g>
</g>
<!-- Node8&#45;&gt;Node26 -->
<g id="edge32" class="edge">
<title>Node8&#45;&gt;Node26</title>
<path fill="none" stroke="#8b1a1a" d="M384.88,-174.19C430.15,-175.42 491.98,-177.09 534.78,-178.25"/>
<polygon fill="#8b1a1a" stroke="#8b1a1a" points="384.71,-170.69 374.62,-173.92 384.52,-177.69 384.71,-170.69"/>
</g>
<!-- Node9 -->
<g id="node9" class="node">
<title>Node9</title>
<g id="a_node9"><a xlink:title=" ">
<polygon fill="white" stroke="#bfbfbf" points="278,-211.6 278,-237.6 372,-237.6 372,-211.6 278,-211.6"/>
<text text-anchor="start" x="286" y="-227.2" font-family="Helvetica,sans-Serif" font-size="8.00">thread_specific_ptr</text>
<text text-anchor="middle" x="325" y="-218.2" font-family="Helvetica,sans-Serif" font-size="8.00">&lt; std::string &gt;</text>
</a>
</g>
</g>
<!-- Node9&#45;&gt;Node3 -->
<g id="edge9" class="edge">
<title>Node9&#45;&gt;Node3</title>
<path fill="none" stroke="#9a32cd" stroke-dasharray="5,2" d="M382.47,-232.27C420.04,-237.4 470.48,-244.33 515,-250.6 523.81,-251.84 533.25,-253.19 542.24,-254.48"/>
<polygon fill="#9a32cd" stroke="#9a32cd" points="382.61,-228.76 372.23,-230.88 381.66,-235.7 382.61,-228.76"/>
<text text-anchor="middle" x="457.5" y="-253.2" font-family="Helvetica,sans-Serif" font-size="8.00"> s_this_thread_nickname_ptr</text>
</g>
<!-- Node10 -->
<g id="node10" class="node">
<title>Node10</title>
<g id="a_node10"><a xlink:href="classflow_1_1log_1_1Component.html" target="_top" xlink:title="A light&#45;weight class, each object storing a component payload encoding an enum value from enum type o...">
<polygon fill="white" stroke="black" points="533,-302.1 533,-319.1 638,-319.1 638,-302.1 533,-302.1"/>
<text text-anchor="middle" x="585.5" y="-308.7" font-family="Helvetica,sans-Serif" font-size="8.00">flow::log::Component</text>
</a>
</g>
</g>
<!-- Node10&#45;&gt;Node2 -->
<g id="edge10" class="edge">
<title>Node10&#45;&gt;Node2</title>
<path fill="none" stroke="#9a32cd" stroke-dasharray="5,2" d="M638.81,-300.04C675.55,-292.55 725.83,-282.18 770,-272.6 782.4,-269.91 795.92,-266.88 808.03,-264.12"/>
<polygon fill="#9a32cd" stroke="#9a32cd" points="637.92,-296.65 628.82,-302.07 639.32,-303.51 637.92,-296.65"/>
<text text-anchor="middle" x="713" y="-299.2" font-family="Helvetica,sans-Serif" font-size="8.00"> m_component</text>
</g>
<!-- Node11 -->
<g id="node11" class="node">
<title>Node11</title>
<g id="a_node11"><a xlink:title=" ">
<polygon fill="white" stroke="#bfbfbf" points="282.5,-343.1 282.5,-360.1 367.5,-360.1 367.5,-343.1 282.5,-343.1"/>
<text text-anchor="middle" x="325" y="-349.7" font-family="Helvetica,sans-Serif" font-size="8.00">type_info const *</text>
</a>
</g>
</g>
<!-- Node11&#45;&gt;Node10 -->
<g id="edge11" class="edge">
<title>Node11&#45;&gt;Node10</title>
<path fill="none" stroke="#9a32cd" stroke-dasharray="5,2" d="M377.92,-347.68C416.07,-344.29 469.05,-338.5 515,-329.6 529,-326.89 544.31,-322.82 556.99,-319.15"/>
<polygon fill="#9a32cd" stroke="#9a32cd" points="377.23,-344.23 367.57,-348.58 377.83,-351.2 377.23,-344.23"/>
<text text-anchor="middle" x="457.5" y="-348.2" font-family="Helvetica,sans-Serif" font-size="8.00"> m_payload_type_or_null</text>
</g>
<!-- Node12 -->
<g id="node12" class="node">
<title>Node12</title>
<g id="a_node12"><a xlink:title=" ">
<polygon fill="white" stroke="#bfbfbf" points="291,-302.1 291,-319.1 359,-319.1 359,-302.1 291,-302.1"/>
<text text-anchor="middle" x="325" y="-308.7" font-family="Helvetica,sans-Serif" font-size="8.00">unsigned int</text>
</a>
</g>
</g>
<!-- Node12&#45;&gt;Node10 -->
<g id="edge12" class="edge">
<title>Node12&#45;&gt;Node10</title>
<path fill="none" stroke="#9a32cd" stroke-dasharray="5,2" d="M369.05,-310.6C414.14,-310.6 484.95,-310.6 532.98,-310.6"/>
<polygon fill="#9a32cd" stroke="#9a32cd" points="369,-307.1 359,-310.6 369,-314.1 369,-307.1"/>
<text text-anchor="start" x="411" y="-322.2" font-family="Helvetica,sans-Serif" font-size="8.00"> m_payload_enum_raw</text>
<text text-anchor="middle" x="457.5" y="-313.2" font-family="Helvetica,sans-Serif" font-size="8.00">_value</text>
</g>
<!-- Node13&#45;&gt;Node1 -->
<g id="edge14" class="edge">
<title>Node13&#45;&gt;Node1</title>
<path fill="none" stroke="#9a32cd" stroke-dasharray="5,2" d="M1338.3,-251.98C1380.34,-271.56 1447.73,-302.96 1485.5,-320.56"/>
<polygon fill="#9a32cd" stroke="#9a32cd" points="1339.76,-248.8 1329.22,-247.75 1336.8,-255.14 1339.76,-248.8"/>
<text text-anchor="middle" x="1406.5" y="-304.2" font-family="Helvetica,sans-Serif" font-size="8.00"> m_underlying_loop</text>
</g>
<!-- Node14&#45;&gt;Node13 -->
<g id="edge15" class="edge">
<title>Node14&#45;&gt;Node13</title>
<path fill="none" stroke="midnightblue" d="M779.96,-417.29C885.99,-432.33 1096.56,-446.33 1236,-351.6 1272.83,-326.58 1289.93,-272.78 1296.12,-247.82"/>
<polygon fill="midnightblue" stroke="midnightblue" points="780.43,-413.82 770.03,-415.84 779.42,-420.75 780.43,-413.82"/>
</g>
<!-- Node15 -->
<g id="node15" class="node">
<title>Node15</title>
<g id="a_node15"><a xlink:title=" ">
<polygon fill="white" stroke="black" points="1023.5,-6.1 1023.5,-23.1 1082.5,-23.1 1082.5,-6.1 1023.5,-6.1"/>
<text text-anchor="middle" x="1053" y="-12.7" font-family="Helvetica,sans-Serif" font-size="8.00">std::string</text>
</a>
</g>
</g>
<!-- Node15&#45;&gt;Node13 -->
<g id="edge19" class="edge">
<title>Node15&#45;&gt;Node13</title>
<path fill="none" stroke="#9a32cd" stroke-dasharray="5,2" d="M1092.52,-5.28C1133.92,2.21 1198.78,6.2 1236,-30.6 1264.74,-59.02 1231.22,-178.21 1254,-211.6 1256.67,-215.51 1260.22,-218.8 1264.15,-221.55"/>
<polygon fill="#9a32cd" stroke="#9a32cd" points="1091.67,-1.88 1082.53,-7.24 1093.02,-8.75 1091.67,-1.88"/>
<text text-anchor="middle" x="1181" y="-33.2" font-family="Helvetica,sans-Serif" font-size="8.00"> m_nickname</text>
</g>
<!-- Node16 -->
<g id="node16" class="node">
<title>Node16</title>
<g id="a_node16"><a xlink:title=" ">
<polygon fill="white" stroke="black" points="800.5,-1.6 800.5,-27.6 891.5,-27.6 891.5,-1.6 800.5,-1.6"/>
<text text-anchor="start" x="808.5" y="-17.2" font-family="Helvetica,sans-Serif" font-size="8.00">std::basic_string&lt;</text>
<text text-anchor="middle" x="846" y="-8.2" font-family="Helvetica,sans-Serif" font-size="8.00"> Char &gt;</text>
</a>
</g>
</g>
<!-- Node16&#45;&gt;Node15 -->
<g id="edge20" class="edge">
<title>Node16&#45;&gt;Node15</title>
<path fill="none" stroke="midnightblue" d="M901.92,-14.6C941.07,-14.6 992.12,-14.6 1023.45,-14.6"/>
<polygon fill="midnightblue" stroke="midnightblue" points="901.73,-11.1 891.73,-14.6 901.73,-18.1 901.73,-11.1"/>
</g>
<!-- Node17 -->
<g id="node17" class="node">
<title>Node17</title>
<g id="a_node17"><a xlink:title=" ">
<polygon fill="white" stroke="#bfbfbf" points="1020.5,-322.1 1020.5,-339.1 1085.5,-339.1 1085.5,-322.1 1020.5,-322.1"/>
<text text-anchor="middle" x="1053" y="-328.7" font-family="Helvetica,sans-Serif" font-size="8.00">const size_t</text>
</a>
</g>
</g>
<!-- Node17&#45;&gt;Node13 -->
<g id="edge21" class="edge">
<title>Node17&#45;&gt;Node13</title>
<path fill="none" stroke="#9a32cd" stroke-dasharray="5,2" d="M1096.16,-336.33C1134.89,-339.55 1192.67,-339.04 1236,-315.6 1264.2,-300.34 1283.89,-266.49 1293.1,-247.74"/>
<polygon fill="#9a32cd" stroke="#9a32cd" points="1096.06,-332.81 1085.77,-335.34 1095.39,-339.78 1096.06,-332.81"/>
<text text-anchor="middle" x="1181" y="-341.2" font-family="Helvetica,sans-Serif" font-size="8.00"> m_n_threads_or_zero</text>
</g>
<!-- Node18 -->
<g id="node18" class="node">
<title>Node18</title>
<g id="a_node18"><a xlink:href="classbool.html" target="_top" xlink:title=" ">
<polygon fill="white" stroke="#bfbfbf" points="1035.5,-230.1 1035.5,-247.1 1070.5,-247.1 1070.5,-230.1 1035.5,-230.1"/>
<text text-anchor="middle" x="1053" y="-236.7" font-family="Helvetica,sans-Serif" font-size="8.00">bool</text>
</a>
</g>
</g>
<!-- Node18&#45;&gt;Node13 -->
<g id="edge22" class="edge">
<title>Node18&#45;&gt;Node13</title>
<path fill="none" stroke="#9a32cd" stroke-dasharray="5,2" d="M1080.68,-237.26C1094.25,-236.64 1111,-235.95 1126,-235.6 1169.39,-234.57 1218.91,-234.38 1253.83,-234.42"/>
<polygon fill="#9a32cd" stroke="#9a32cd" points="1080.4,-233.77 1070.58,-237.74 1080.74,-240.76 1080.4,-233.77"/>
<text text-anchor="start" x="1126" y="-283.2" font-family="Helvetica,sans-Serif" font-size="8.00"> m_est_hw_core_pinning</text>
<text text-anchor="middle" x="1181" y="-274.2" font-family="Helvetica,sans-Serif" font-size="8.00">_helps_algo</text>
<text text-anchor="start" x="1126" y="-265.2" font-family="Helvetica,sans-Serif" font-size="8.00">m_est_hw_core_sharing</text>
<text text-anchor="middle" x="1181" y="-256.2" font-family="Helvetica,sans-Serif" font-size="8.00">_helps_algo</text>
<text text-anchor="start" x="1126" y="-247.2" font-family="Helvetica,sans-Serif" font-size="8.00">m_hw_threads_is_grouping</text>
<text text-anchor="middle" x="1181" y="-238.2" font-family="Helvetica,sans-Serif" font-size="8.00">_collated</text>
</g>
<!-- Node19 -->
<g id="node19" class="node">
<title>Node19</title>
<g id="a_node19"><a xlink:title=" ">
<polygon fill="white" stroke="black" points="998,-276.6 998,-302.6 1108,-302.6 1108,-276.6 998,-276.6"/>
<text text-anchor="start" x="1006" y="-292.2" font-family="Helvetica,sans-Serif" font-size="8.00">std::vector&lt; Task_qing</text>
<text text-anchor="middle" x="1053" y="-283.2" font-family="Helvetica,sans-Serif" font-size="8.00">_thread_ptr &gt;</text>
</a>
</g>
</g>
<!-- Node19&#45;&gt;Node13 -->
<g id="edge23" class="edge">
<title>Node19&#45;&gt;Node13</title>
<path fill="none" stroke="#9a32cd" stroke-dasharray="5,2" d="M1118.63,-300.45C1154.33,-303.8 1198.84,-303.54 1236,-289.6 1258.02,-281.34 1277.4,-261.51 1288.66,-248.06"/>
<polygon fill="#9a32cd" stroke="#9a32cd" points="1118.65,-296.93 1108.34,-299.36 1117.91,-303.89 1118.65,-296.93"/>
<text text-anchor="middle" x="1181" y="-305.2" font-family="Helvetica,sans-Serif" font-size="8.00"> m_qing_threads</text>
</g>
<!-- Node20 -->
<g id="node20" class="node">
<title>Node20</title>
<g id="a_node20"><a xlink:title=" ">
<polygon fill="white" stroke="#bfbfbf" points="795,-283.1 795,-300.1 897,-300.1 897,-283.1 795,-283.1"/>
<text text-anchor="middle" x="846" y="-289.7" font-family="Helvetica,sans-Serif" font-size="8.00">Task_qing_thread_ptr</text>
</a>
</g>
</g>
<!-- Node20&#45;&gt;Node19 -->
<g id="edge24" class="edge">
<title>Node20&#45;&gt;Node19</title>
<path fill="none" stroke="#9a32cd" stroke-dasharray="5,2" d="M907.43,-291.01C936.03,-290.73 969.92,-290.4 997.7,-290.13"/>
<polygon fill="#9a32cd" stroke="#9a32cd" points="907.11,-287.51 897.15,-291.11 907.18,-294.51 907.11,-287.51"/>
<text text-anchor="middle" x="951" y="-294.2" font-family="Helvetica,sans-Serif" font-size="8.00"> elements</text>
</g>
<!-- Node21 -->
<g id="node21" class="node">
<title>Node21</title>
<g id="a_node21"><a xlink:title=" ">
<polygon fill="white" stroke="#bfbfbf" points="1000,-42.6 1000,-68.6 1106,-68.6 1106,-42.6 1000,-42.6"/>
<text text-anchor="start" x="1008" y="-58.2" font-family="Helvetica,sans-Serif" font-size="8.00">shared_ptr&lt; util::Task</text>
<text text-anchor="middle" x="1053" y="-49.2" font-family="Helvetica,sans-Serif" font-size="8.00">_engine &gt;</text>
</a>
</g>
</g>
<!-- Node21&#45;&gt;Node13 -->
<g id="edge25" class="edge">
<title>Node21&#45;&gt;Node13</title>
<path fill="none" stroke="#9a32cd" stroke-dasharray="5,2" d="M1116.35,-44.32C1155.84,-40.99 1205.12,-44.53 1236,-74.6 1280,-117.44 1218.59,-161.42 1254,-211.6 1256.73,-215.47 1260.31,-218.73 1264.26,-221.47"/>
<polygon fill="#9a32cd" stroke="#9a32cd" points="1115.87,-40.85 1106.27,-45.33 1116.57,-47.81 1115.87,-40.85"/>
<text text-anchor="middle" x="1181" y="-77.2" font-family="Helvetica,sans-Serif" font-size="8.00"> m_shared_task_engine</text>
</g>
<!-- Node22&#45;&gt;Node13 -->
<g id="edge26" class="edge">
<title>Node22&#45;&gt;Node13</title>
<path fill="none" stroke="#9a32cd" stroke-dasharray="5,2" d="M1111.21,-155.62C1149.48,-152.65 1199.36,-154.9 1236,-178.6 1250.03,-187.67 1242.03,-199.95 1254,-211.6 1257.9,-215.39 1262.55,-218.7 1267.36,-221.53"/>
<polygon fill="#9a32cd" stroke="#9a32cd" points="1110.88,-152.14 1101.24,-156.53 1111.52,-159.11 1110.88,-152.14"/>
<text text-anchor="middle" x="1181" y="-181.2" font-family="Helvetica,sans-Serif" font-size="8.00"> m_per_thread_strands</text>
</g>
<!-- Node23 -->
<g id="node23" class="node">
<title>Node23</title>
<g id="a_node23"><a xlink:title=" ">
<polygon fill="white" stroke="black" points="801,-126.1 801,-143.1 891,-143.1 891,-126.1 801,-126.1"/>
<text text-anchor="middle" x="846" y="-132.7" font-family="Helvetica,sans-Serif" font-size="8.00">std::vector&lt; Op &gt;</text>
</a>
</g>
</g>
<!-- Node23&#45;&gt;Node22 -->
<g id="edge28" class="edge">
<title>Node23&#45;&gt;Node22</title>
<path fill="none" stroke="#9a32cd" stroke-dasharray="5,2" d="M901.2,-140.22C925.37,-142.96 954.17,-146.54 980,-150.6 990.06,-152.18 1000.87,-154.14 1010.97,-156.09"/>
<polygon fill="#9a32cd" stroke="#9a32cd" points="901.47,-136.73 891.14,-139.1 900.69,-143.69 901.47,-136.73"/>
<text text-anchor="middle" x="951" y="-153.2" font-family="Helvetica,sans-Serif" font-size="8.00"> m_ops</text>
</g>
<!-- Node24 -->
<g id="node24" class="node">
<title>Node24</title>
<g id="a_node24"><a xlink:title=" ">
<polygon fill="white" stroke="#bfbfbf" points="571,-126.1 571,-143.1 600,-143.1 600,-126.1 571,-126.1"/>
<text text-anchor="middle" x="585.5" y="-132.7" font-family="Helvetica,sans-Serif" font-size="8.00">Op</text>
</a>
</g>
</g>
<!-- Node24&#45;&gt;Node23 -->
<g id="edge29" class="edge">
<title>Node24&#45;&gt;Node23</title>
<path fill="none" stroke="#9a32cd" stroke-dasharray="5,2" d="M610.15,-134.6C653.39,-134.6 745.8,-134.6 800.93,-134.6"/>
<polygon fill="#9a32cd" stroke="#9a32cd" points="610.03,-131.1 600.03,-134.6 610.03,-138.1 610.03,-131.1"/>
<text text-anchor="middle" x="713" y="-137.2" font-family="Helvetica,sans-Serif" font-size="8.00"> elements</text>
</g>
<!-- Node25 -->
<g id="node25" class="node">
<title>Node25</title>
<g id="a_node25"><a xlink:href="classflow_1_1util_1_1Rnd__gen__uniform__range__mt.html" target="_top" xlink:title=" ">
<polygon fill="white" stroke="black" points="788,-162.1 788,-197.1 904,-197.1 904,-162.1 788,-162.1"/>
<text text-anchor="start" x="796" y="-186.7" font-family="Helvetica,sans-Serif" font-size="8.00">flow::util::Rnd_gen</text>
<text text-anchor="start" x="796" y="-177.7" font-family="Helvetica,sans-Serif" font-size="8.00">_uniform_range_mt&lt; std</text>
<text text-anchor="middle" x="846" y="-168.7" font-family="Helvetica,sans-Serif" font-size="8.00">::size_t &gt;</text>
</a>
</g>
</g>
<!-- Node25&#45;&gt;Node22 -->
<g id="edge30" class="edge">
<title>Node25&#45;&gt;Node22</title>
<path fill="none" stroke="#9a32cd" stroke-dasharray="5,2" d="M914.28,-166.45C916.88,-166.13 919.46,-165.84 922,-165.6 949.41,-162.96 980.22,-162.61 1004.96,-162.96"/>
<polygon fill="#9a32cd" stroke="#9a32cd" points="913.61,-163.01 904.18,-167.85 914.56,-169.95 913.61,-163.01"/>
<text text-anchor="middle" x="951" y="-168.2" font-family="Helvetica,sans-Serif" font-size="8.00"> m_rnd_op_idx</text>
</g>
<!-- Node26&#45;&gt;Node25 -->
<g id="edge31" class="edge">
<title>Node26&#45;&gt;Node25</title>
<path fill="none" stroke="#8b1a1a" d="M646.28,-179.6C688.93,-179.6 745.96,-179.6 787.98,-179.6"/>
<polygon fill="#8b1a1a" stroke="#8b1a1a" points="646.04,-176.1 636.04,-179.6 646.04,-183.1 646.04,-176.1"/>
</g>
<!-- Node30 -->
<g id="node27" class="node">
<title>Node30</title>
<g id="a_node27"><a xlink:title=" ">
<polygon fill="white" stroke="#bfbfbf" points="565,-216.1 565,-233.1 606,-233.1 606,-216.1 565,-216.1"/>
<text text-anchor="middle" x="585.5" y="-222.7" font-family="Helvetica,sans-Serif" font-size="8.00">mutex</text>
</a>
</g>
</g>
<!-- Node30&#45;&gt;Node25 -->
<g id="edge33" class="edge">
<title>Node30&#45;&gt;Node25</title>
<path fill="none" stroke="#9a32cd" stroke-dasharray="5,2" d="M615.99,-219.78C652.26,-213.81 715.71,-203.25 770,-193.6 775.74,-192.58 781.72,-191.5 787.69,-190.4"/>
<polygon fill="#9a32cd" stroke="#9a32cd" points="615.37,-216.33 606.07,-221.41 616.51,-223.24 615.37,-216.33"/>
<text text-anchor="middle" x="713" y="-216.2" font-family="Helvetica,sans-Serif" font-size="8.00"> m_mutex</text>
</g>
<!-- Node31 -->
<g id="node28" class="node">
<title>Node31</title>
<g id="a_node28"><a xlink:title=" ">
<polygon fill="white" stroke="#bfbfbf" points="1285.5,-185.1 1285.5,-202.1 1314.5,-202.1 1314.5,-185.1 1285.5,-185.1"/>
<text text-anchor="middle" x="1300" y="-191.7" font-family="Helvetica,sans-Serif" font-size="8.00">id</text>
</a>
</g>
</g>
<!-- Node31&#45;&gt;Node1 -->
<g id="edge34" class="edge">
<title>Node31&#45;&gt;Node1</title>
<path fill="none" stroke="#9a32cd" stroke-dasharray="5,2" d="M1324.4,-197.36C1355.41,-203.28 1410.65,-217.16 1449,-245.6 1476.39,-265.91 1497.15,-301.16 1507.06,-320.31"/>
<polygon fill="#9a32cd" stroke="#9a32cd" points="1324.97,-193.91 1314.51,-195.59 1323.74,-200.8 1324.97,-193.91"/>
<text text-anchor="start" x="1364" y="-257.2" font-family="Helvetica,sans-Serif" font-size="8.00"> m_started_thread_id</text>
<text text-anchor="middle" x="1406.5" y="-248.2" font-family="Helvetica,sans-Serif" font-size="8.00">_or_none</text>
</g>
</g>
</svg>
