<?xml version="1.0" encoding="UTF-8" standalone="no"?>
<!DOCTYPE svg PUBLIC "-//W3C//DTD SVG 1.1//EN"
 "http://www.w3.org/Graphics/SVG/1.1/DTD/svg11.dtd">
<!-- Generated by graphviz version 2.43.0 (0)
 -->
<!-- Title: flow::async::Single_thread_task_loop::schedule_from_now Pages: 1 -->
<svg width="765pt" height="221pt"
 viewBox="0.00 0.00 765.00 221.00" xmlns="http://www.w3.org/2000/svg" xmlns:xlink="http://www.w3.org/1999/xlink">
<g id="graph0" class="graph" transform="scale(1 1) rotate(0) translate(4 217)">
<title>flow::async::Single_thread_task_loop::schedule_from_now</title>
<polygon fill="white" stroke="transparent" points="-4,4 -4,-217 761,-217 761,4 -4,4"/>
<!-- Node1 -->
<g id="node1" class="node">
<title>Node1</title>
<g id="a_node1"><a xlink:title="Equivalent to post() but execution is scheduled for later, after the given time period passes.">
<polygon fill="#bfbfbf" stroke="black" points="0,-100.5 0,-135.5 134,-135.5 134,-100.5 0,-100.5"/>
<text text-anchor="start" x="8" y="-125.1" font-family="Helvetica,sans-Serif" font-size="8.00">flow::async::Single</text>
<text text-anchor="start" x="8" y="-116.1" font-family="Helvetica,sans-Serif" font-size="8.00">_thread_task_loop::schedule</text>
<text text-anchor="middle" x="67" y="-107.1" font-family="Helvetica,sans-Serif" font-size="8.00">_from_now</text>
</a>
</g>
</g>
<!-- Node2 -->
<g id="node2" class="node">
<title>Node2</title>
<g id="a_node2"><a xlink:href="classflow_1_1async_1_1Cross__thread__task__loop.html#a1008ae4c48d32ebf835d7a7ba203e5a9" target="_top" xlink:title="Implements superclass API.">
<polygon fill="white" stroke="black" points="170,-100.5 170,-135.5 304,-135.5 304,-100.5 170,-100.5"/>
<text text-anchor="start" x="178" y="-125.1" font-family="Helvetica,sans-Serif" font-size="8.00">flow::async::Cross</text>
<text text-anchor="start" x="178" y="-116.1" font-family="Helvetica,sans-Serif" font-size="8.00">_thread_task_loop::schedule</text>
<text text-anchor="middle" x="237" y="-107.1" font-family="Helvetica,sans-Serif" font-size="8.00">_from_now</text>
</a>
</g>
</g>
<!-- Node1&#45;&gt;Node2 -->
<g id="edge1" class="edge">
<title>Node1&#45;&gt;Node2</title>
<path fill="none" stroke="midnightblue" d="M134.4,-118C142.68,-118 151.2,-118 159.62,-118"/>
<polygon fill="midnightblue" stroke="midnightblue" points="159.81,-121.5 169.81,-118 159.81,-114.5 159.81,-121.5"/>
</g>
<!-- Node3 -->
<g id="node3" class="node">
<title>Node3</title>
<g id="a_node3"><a xlink:href="namespaceflow_1_1async.html#a4cce43f39672e80cba5512103c53ae60" target="_top" xlink:title="Returns the 0&#45;based processor logical (not hardware) core index of the core executing the calling thr...">
<polygon fill="white" stroke="black" points="343.5,-195.5 343.5,-212.5 443.5,-212.5 443.5,-195.5 343.5,-195.5"/>
<text text-anchor="middle" x="393.5" y="-202.1" font-family="Helvetica,sans-Serif" font-size="8.00">flow::async::cpu_idx</text>
</a>
</g>
</g>
<!-- Node2&#45;&gt;Node3 -->
<g id="edge2" class="edge">
<title>Node2&#45;&gt;Node3</title>
<path fill="none" stroke="midnightblue" d="M260.86,-135.75C280.88,-150.66 311.19,-171.76 340,-186 344.36,-188.16 349.04,-190.16 353.75,-191.99"/>
<polygon fill="midnightblue" stroke="midnightblue" points="352.75,-195.35 363.35,-195.49 355.15,-188.78 352.75,-195.35"/>
</g>
<!-- Node4 -->
<g id="node4" class="node">
<title>Node4</title>
<g id="a_node4"><a xlink:href="classflow_1_1log_1_1Log__context.html#a8a5fef42dc2cedf3c0d1a6e83beb2948" target="_top" xlink:title="Returns reference to the stored Component object, particularly as many FLOW_LOG_*() macros expect.">
<polygon fill="white" stroke="black" points="340,-150 340,-176 447,-176 447,-150 340,-150"/>
<text text-anchor="start" x="348" y="-165.6" font-family="Helvetica,sans-Serif" font-size="8.00">flow::log::Log_context</text>
<text text-anchor="middle" x="393.5" y="-156.6" font-family="Helvetica,sans-Serif" font-size="8.00">::get_log_component</text>
</a>
</g>
</g>
<!-- Node2&#45;&gt;Node4 -->
<g id="edge3" class="edge">
<title>Node2&#45;&gt;Node4</title>
<path fill="none" stroke="midnightblue" d="M298.18,-135.53C311.27,-139.34 325.06,-143.36 337.93,-147.11"/>
<polygon fill="midnightblue" stroke="midnightblue" points="336.98,-150.48 347.56,-149.91 338.94,-143.75 336.98,-150.48"/>
</g>
<!-- Node5 -->
<g id="node5" class="node">
<title>Node5</title>
<g id="a_node5"><a xlink:href="classflow_1_1log_1_1Log__context.html#af4db395042b065b00398cd59845dcb4d" target="_top" xlink:title="Returns the stored Logger pointer, particularly as many FLOW_LOG_*() macros expect.">
<polygon fill="white" stroke="black" points="340,-105 340,-131 447,-131 447,-105 340,-105"/>
<text text-anchor="start" x="348" y="-120.6" font-family="Helvetica,sans-Serif" font-size="8.00">flow::log::Log_context</text>
<text text-anchor="middle" x="393.5" y="-111.6" font-family="Helvetica,sans-Serif" font-size="8.00">::get_logger</text>
</a>
</g>
</g>
<!-- Node2&#45;&gt;Node5 -->
<g id="edge4" class="edge">
<title>Node2&#45;&gt;Node5</title>
<path fill="none" stroke="midnightblue" d="M304.42,-118C312.79,-118 321.34,-118 329.65,-118"/>
<polygon fill="midnightblue" stroke="midnightblue" points="329.65,-121.5 339.65,-118 329.65,-114.5 329.65,-121.5"/>
</g>
<!-- Node6 -->
<g id="node6" class="node">
<title>Node6</title>
<g id="a_node6"><a xlink:href="classflow_1_1async_1_1Cross__thread__task__loop.html#a5c9a3da291fa961bb4d8c4be13c39bb8" target="_top" xlink:title="Implements superclass API.">
<polygon fill="white" stroke="black" points="343,-50.5 343,-85.5 444,-85.5 444,-50.5 343,-50.5"/>
<text text-anchor="start" x="351" y="-75.1" font-family="Helvetica,sans-Serif" font-size="8.00">flow::async::Cross</text>
<text text-anchor="start" x="351" y="-66.1" font-family="Helvetica,sans-Serif" font-size="8.00">_thread_task_loop::n</text>
<text text-anchor="middle" x="393.5" y="-57.1" font-family="Helvetica,sans-Serif" font-size="8.00">_threads</text>
</a>
</g>
</g>
<!-- Node2&#45;&gt;Node6 -->
<g id="edge5" class="edge">
<title>Node2&#45;&gt;Node6</title>
<path fill="none" stroke="midnightblue" d="M292.47,-100.37C305.68,-96.1 319.87,-91.5 333.29,-87.16"/>
<polygon fill="midnightblue" stroke="midnightblue" points="334.47,-90.46 342.9,-84.05 332.31,-83.8 334.47,-90.46"/>
</g>
<!-- Node7 -->
<g id="node7" class="node">
<title>Node7</title>
<g id="a_node7"><a xlink:href="namespaceflow_1_1util.html#a74d4a66fb00055be4e1bd6ee98e04667" target="_top" xlink:title="Schedule the given function to execute in a certain amount of time: A handy wrapper around Timer (asi...">
<polygon fill="white" stroke="black" points="346,-5 346,-31 441,-31 441,-5 346,-5"/>
<text text-anchor="start" x="354" y="-20.6" font-family="Helvetica,sans-Serif" font-size="8.00">flow::util::schedule</text>
<text text-anchor="middle" x="393.5" y="-11.6" font-family="Helvetica,sans-Serif" font-size="8.00">_task_from_now</text>
</a>
</g>
</g>
<!-- Node2&#45;&gt;Node7 -->
<g id="edge6" class="edge">
<title>Node2&#45;&gt;Node7</title>
<path fill="none" stroke="midnightblue" d="M258.48,-100.26C278.39,-83.58 309.94,-58.6 340,-41 343.24,-39.1 346.66,-37.27 350.15,-35.51"/>
<polygon fill="midnightblue" stroke="midnightblue" points="351.91,-38.55 359.43,-31.08 348.89,-32.23 351.91,-38.55"/>
</g>
<!-- Node8 -->
<g id="node8" class="node">
<title>Node8</title>
<g id="a_node8"><a xlink:href="classflow_1_1util_1_1Unique__id__holder.html#a50489177a7731618ca130468c3872748" target="_top" xlink:title="Short&#45;hand for Unique_id_holder().unique_id(); useful when all you want is the unique integer itself.">
<polygon fill="white" stroke="black" points="483,-5 483,-31 617,-31 617,-5 483,-5"/>
<text text-anchor="start" x="491" y="-20.6" font-family="Helvetica,sans-Serif" font-size="8.00">flow::util::Unique</text>
<text text-anchor="middle" x="550" y="-11.6" font-family="Helvetica,sans-Serif" font-size="8.00">_id_holder::create_unique_id</text>
</a>
</g>
</g>
<!-- Node7&#45;&gt;Node8 -->
<g id="edge7" class="edge">
<title>Node7&#45;&gt;Node8</title>
<path fill="none" stroke="midnightblue" d="M441.27,-18C451.17,-18 461.86,-18 472.52,-18"/>
<polygon fill="midnightblue" stroke="midnightblue" points="472.72,-21.5 482.72,-18 472.72,-14.5 472.72,-21.5"/>
</g>
<!-- Node9 -->
<g id="node9" class="node">
<title>Node9</title>
<g id="a_node9"><a xlink:href="classflow_1_1util_1_1Unique__id__holder.html#a90705293787069f52372638d5450ef52" target="_top" xlink:title="Thread&#45;safely construct an ID whose value is different from any other object of this class,...">
<polygon fill="white" stroke="black" points="653,-0.5 653,-35.5 757,-35.5 757,-0.5 653,-0.5"/>
<text text-anchor="start" x="661" y="-25.1" font-family="Helvetica,sans-Serif" font-size="8.00">flow::util::Unique</text>
<text text-anchor="start" x="661" y="-16.1" font-family="Helvetica,sans-Serif" font-size="8.00">_id_holder::Unique_id</text>
<text text-anchor="middle" x="705" y="-7.1" font-family="Helvetica,sans-Serif" font-size="8.00">_holder</text>
</a>
</g>
</g>
<!-- Node8&#45;&gt;Node9 -->
<g id="edge8" class="edge">
<title>Node8&#45;&gt;Node9</title>
<path fill="none" stroke="midnightblue" d="M617.22,-18C625.72,-18 634.39,-18 642.8,-18"/>
<polygon fill="midnightblue" stroke="midnightblue" points="642.9,-21.5 652.9,-18 642.9,-14.5 642.9,-21.5"/>
</g>
</g>
</svg>
