<?xml version="1.0" encoding="UTF-8" standalone="no"?>
<!DOCTYPE svg PUBLIC "-//W3C//DTD SVG 1.1//EN"
 "http://www.w3.org/Graphics/SVG/1.1/DTD/svg11.dtd">
<!-- Generated by graphviz version 2.43.0 (0)
 -->
<!-- Title: flow::perf::Checkpointing_timer::now Pages: 1 -->
<svg width="783pt" height="351pt"
 viewBox="0.00 0.00 783.00 351.00" xmlns="http://www.w3.org/2000/svg" xmlns:xlink="http://www.w3.org/1999/xlink">
<g id="graph0" class="graph" transform="scale(1 1) rotate(0) translate(4 347)">
<title>flow::perf::Checkpointing_timer::now</title>
<polygon fill="white" stroke="transparent" points="-4,4 -4,-347 779,-347 779,4 -4,4"/>
<!-- Node1 -->
<g id="node1" class="node">
<title>Node1</title>
<g id="a_node1"><a xlink:title="Sample all currently enabled Clock_types&#39; clocks and return those values, each of which is a time sta...">
<polygon fill="#bfbfbf" stroke="black" points="656,-154 656,-180 775,-180 775,-154 656,-154"/>
<text text-anchor="start" x="664" y="-169.6" font-family="Helvetica,sans-Serif" font-size="8.00">flow::perf::Checkpointing</text>
<text text-anchor="middle" x="715.5" y="-160.6" font-family="Helvetica,sans-Serif" font-size="8.00">_timer::now</text>
</a>
</g>
</g>
<!-- Node2 -->
<g id="node2" class="node">
<title>Node2</title>
<g id="a_node2"><a xlink:href="classflow_1_1perf_1_1Checkpointing__timer.html#a9e6078df059d5626ab5774f0a33fbad7" target="_top" xlink:title="Records a checkpoint, which takes a sample of all enabled Clock_types&#39; clocks and records the corresp...">
<polygon fill="white" stroke="black" points="491.5,-253 491.5,-279 610.5,-279 610.5,-253 491.5,-253"/>
<text text-anchor="start" x="499.5" y="-268.6" font-family="Helvetica,sans-Serif" font-size="8.00">flow::perf::Checkpointing</text>
<text text-anchor="middle" x="551" y="-259.6" font-family="Helvetica,sans-Serif" font-size="8.00">_timer::checkpoint</text>
</a>
</g>
</g>
<!-- Node1&#45;&gt;Node2 -->
<g id="edge1" class="edge">
<title>Node1&#45;&gt;Node2</title>
<path fill="none" stroke="midnightblue" d="M690.5,-186.28C671.91,-200.72 645.17,-220.4 620,-235 608.67,-241.58 595.69,-247.79 584.13,-252.9"/>
<polygon fill="midnightblue" stroke="midnightblue" points="692.73,-188.99 698.43,-180.06 688.41,-183.48 692.73,-188.99"/>
</g>
<!-- Node7 -->
<g id="node7" class="node">
<title>Node7</title>
<g id="a_node7"><a xlink:href="classflow_1_1perf_1_1Checkpointing__timer.html#aa9940d8e87883f9985ba18939f833db9" target="_top" xlink:title="Constructs a new timer and immediately begins measuring time, in that the next checkpoint() call will...">
<polygon fill="white" stroke="black" points="485.5,-199 485.5,-225 616.5,-225 616.5,-199 485.5,-199"/>
<text text-anchor="start" x="493.5" y="-214.6" font-family="Helvetica,sans-Serif" font-size="8.00">flow::perf::Checkpointing</text>
<text text-anchor="middle" x="551" y="-205.6" font-family="Helvetica,sans-Serif" font-size="8.00">_timer::Checkpointing_timer</text>
</a>
</g>
</g>
<!-- Node1&#45;&gt;Node7 -->
<g id="edge6" class="edge">
<title>Node1&#45;&gt;Node7</title>
<path fill="none" stroke="midnightblue" d="M657.71,-182.73C638.59,-188.02 617.47,-193.87 599.18,-198.94"/>
<polygon fill="midnightblue" stroke="midnightblue" points="658.8,-186.06 667.5,-180.02 656.93,-179.31 658.8,-186.06"/>
</g>
<!-- Node8 -->
<g id="node8" class="node">
<title>Node8</title>
<g id="a_node8"><a xlink:href="classflow_1_1perf_1_1Checkpointing__timer.html#a019df7b02e8aed1e86002c8a7b40dcf7" target="_top" xlink:title="Based on the passed in which_clocks argument, the current time is returned for the clock types enable...">
<polygon fill="white" stroke="black" points="491.5,-154 491.5,-180 610.5,-180 610.5,-154 491.5,-154"/>
<text text-anchor="start" x="499.5" y="-169.6" font-family="Helvetica,sans-Serif" font-size="8.00">flow::perf::Checkpointing</text>
<text text-anchor="middle" x="551" y="-160.6" font-family="Helvetica,sans-Serif" font-size="8.00">_timer::now</text>
</a>
</g>
</g>
<!-- Node1&#45;&gt;Node8 -->
<g id="edge7" class="edge">
<title>Node1&#45;&gt;Node8</title>
<path fill="none" stroke="midnightblue" d="M645.68,-167C634,-167 621.97,-167 610.58,-167"/>
<polygon fill="midnightblue" stroke="midnightblue" points="645.83,-170.5 655.83,-167 645.83,-163.5 645.83,-170.5"/>
</g>
<!-- Node9 -->
<g id="node9" class="node">
<title>Node9</title>
<g id="a_node9"><a xlink:href="namespaceflow_1_1perf.html#a0dee22ec7bf250bbbf556a7e15c1f784" target="_top" xlink:title="Constructs a closure that times and executes void&#45;returning function(), adding the elapsed time with ...">
<polygon fill="white" stroke="black" points="490,-117.5 490,-134.5 612,-134.5 612,-117.5 490,-117.5"/>
<text text-anchor="middle" x="551" y="-124.1" font-family="Helvetica,sans-Serif" font-size="8.00">flow::perf::timed_function</text>
</a>
</g>
</g>
<!-- Node1&#45;&gt;Node9 -->
<g id="edge8" class="edge">
<title>Node1&#45;&gt;Node9</title>
<path fill="none" stroke="midnightblue" d="M652.75,-151.42C630.1,-145.71 605.3,-139.45 585.98,-134.57"/>
<polygon fill="midnightblue" stroke="midnightblue" points="652.08,-154.86 662.64,-153.91 653.8,-148.07 652.08,-154.86"/>
</g>
<!-- Node19 -->
<g id="node19" class="node">
<title>Node19</title>
<g id="a_node19"><a xlink:href="namespaceflow_1_1perf.html#a58d2f7a7fca0c3cfd0a87ae560ce4926" target="_top" xlink:title="Constructs a closure that times and executes non&#45;void&#45;returning function(), adding the elapsed time w...">
<polygon fill="white" stroke="black" points="482,-81.5 482,-98.5 620,-98.5 620,-81.5 482,-81.5"/>
<text text-anchor="middle" x="551" y="-88.1" font-family="Helvetica,sans-Serif" font-size="8.00">flow::perf::timed_function_nvr</text>
</a>
</g>
</g>
<!-- Node1&#45;&gt;Node19 -->
<g id="edge18" class="edge">
<title>Node1&#45;&gt;Node19</title>
<path fill="none" stroke="midnightblue" d="M688.53,-147.81C670.18,-135 644.56,-118.63 620,-108 611.26,-104.22 601.53,-101.07 592.23,-98.52"/>
<polygon fill="midnightblue" stroke="midnightblue" points="686.74,-150.83 696.92,-153.77 690.8,-145.12 686.74,-150.83"/>
</g>
<!-- Node3 -->
<g id="node3" class="node">
<title>Node3</title>
<g id="a_node3"><a xlink:href="classflow_1_1perf_1_1Checkpointing__timer_1_1Aggregator.html#acbacf3b4842b77f542082e7a186f1434" target="_top" xlink:title="Provides programmatic access to the aggregation result that would be logged by log_aggregated_results...">
<polygon fill="white" stroke="black" points="321,-307.5 321,-342.5 446,-342.5 446,-307.5 321,-307.5"/>
<text text-anchor="start" x="329" y="-332.1" font-family="Helvetica,sans-Serif" font-size="8.00">flow::perf::Checkpointing</text>
<text text-anchor="start" x="329" y="-323.1" font-family="Helvetica,sans-Serif" font-size="8.00">_timer::Aggregator::create</text>
<text text-anchor="middle" x="383.5" y="-314.1" font-family="Helvetica,sans-Serif" font-size="8.00">_aggregated_result</text>
</a>
</g>
</g>
<!-- Node2&#45;&gt;Node3 -->
<g id="edge2" class="edge">
<title>Node2&#45;&gt;Node3</title>
<path fill="none" stroke="midnightblue" d="M503.58,-282.55C481.79,-290.31 455.81,-299.58 433.69,-307.47"/>
<polygon fill="midnightblue" stroke="midnightblue" points="505.03,-285.75 513.27,-279.09 502.68,-279.16 505.03,-285.75"/>
</g>
<!-- Node4 -->
<g id="node4" class="node">
<title>Node4</title>
<g id="a_node4"><a xlink:href="classflow_1_1perf_1_1Checkpointing__timer.html#a07204b9119b94bc10d53a8ba15c44797" target="_top" xlink:title="Equivalent to (*os) &lt;&lt; (*this).">
<polygon fill="white" stroke="black" points="324,-262 324,-288 443,-288 443,-262 324,-262"/>
<text text-anchor="start" x="332" y="-277.6" font-family="Helvetica,sans-Serif" font-size="8.00">flow::perf::Checkpointing</text>
<text text-anchor="middle" x="383.5" y="-268.6" font-family="Helvetica,sans-Serif" font-size="8.00">_timer::output</text>
</a>
</g>
</g>
<!-- Node2&#45;&gt;Node4 -->
<g id="edge3" class="edge">
<title>Node2&#45;&gt;Node4</title>
<path fill="none" stroke="midnightblue" d="M481.16,-269.74C468.52,-270.43 455.43,-271.14 443.13,-271.81"/>
<polygon fill="midnightblue" stroke="midnightblue" points="481.39,-273.24 491.18,-269.2 481.01,-266.25 481.39,-273.24"/>
</g>
<!-- Node6 -->
<g id="node6" class="node">
<title>Node6</title>
<g id="a_node6"><a xlink:href="classflow_1_1perf_1_1Checkpointing__timer.html#a378be385d0c3dda261c8944551280010" target="_top" xlink:title="Called anytime after the last checkpoint(), this modifies the data collected so far to be as if every...">
<polygon fill="white" stroke="black" points="324,-217 324,-243 443,-243 443,-217 324,-217"/>
<text text-anchor="start" x="332" y="-232.6" font-family="Helvetica,sans-Serif" font-size="8.00">flow::perf::Checkpointing</text>
<text text-anchor="middle" x="383.5" y="-223.6" font-family="Helvetica,sans-Serif" font-size="8.00">_timer::scale</text>
</a>
</g>
</g>
<!-- Node2&#45;&gt;Node6 -->
<g id="edge5" class="edge">
<title>Node2&#45;&gt;Node6</title>
<path fill="none" stroke="midnightblue" d="M481.16,-251.03C468.52,-248.28 455.43,-245.43 443.13,-242.75"/>
<polygon fill="midnightblue" stroke="midnightblue" points="480.67,-254.5 491.18,-253.21 482.16,-247.66 480.67,-254.5"/>
</g>
<!-- Node5 -->
<g id="node5" class="node">
<title>Node5</title>
<g id="a_node5"><a xlink:href="classflow_1_1perf_1_1Checkpointing__timer.html#a6d5b7cbbe0ec5133299f97148ef3eaa0" target="_top" xlink:title="Prints string representation of the given Checkpointing_timer (whether with original data or an aggre...">
<polygon fill="white" stroke="black" points="163,-262 163,-288 282,-288 282,-262 163,-262"/>
<text text-anchor="start" x="171" y="-277.6" font-family="Helvetica,sans-Serif" font-size="8.00">flow::perf::Checkpointing</text>
<text text-anchor="middle" x="222.5" y="-268.6" font-family="Helvetica,sans-Serif" font-size="8.00">_timer::operator&lt;&lt;</text>
</a>
</g>
</g>
<!-- Node4&#45;&gt;Node5 -->
<g id="edge4" class="edge">
<title>Node4&#45;&gt;Node5</title>
<path fill="none" stroke="midnightblue" d="M313.72,-275C303.15,-275 292.33,-275 282.01,-275"/>
<polygon fill="midnightblue" stroke="midnightblue" points="313.75,-278.5 323.75,-275 313.75,-271.5 313.75,-278.5"/>
</g>
<!-- Node10 -->
<g id="node10" class="node">
<title>Node10</title>
<g id="a_node10"><a xlink:href="classflow_1_1async_1_1Timed__concurrent__task__loop__impl.html#adb9a4a09e821aad135cfa1f493624630" target="_top" xlink:title="Implements superclass API.">
<polygon fill="white" stroke="black" points="330,-162.5 330,-197.5 437,-197.5 437,-162.5 330,-162.5"/>
<text text-anchor="start" x="338" y="-187.1" font-family="Helvetica,sans-Serif" font-size="8.00">flow::async::Timed</text>
<text text-anchor="start" x="338" y="-178.1" font-family="Helvetica,sans-Serif" font-size="8.00">_concurrent_task_loop</text>
<text text-anchor="middle" x="383.5" y="-169.1" font-family="Helvetica,sans-Serif" font-size="8.00">_impl::post</text>
</a>
</g>
</g>
<!-- Node9&#45;&gt;Node10 -->
<g id="edge9" class="edge">
<title>Node9&#45;&gt;Node10</title>
<path fill="none" stroke="midnightblue" d="M507.84,-137.27C499.25,-139.71 490.31,-142.35 482,-145 465.38,-150.3 447.36,-156.61 431.38,-162.4"/>
<polygon fill="midnightblue" stroke="midnightblue" points="509,-140.58 517.69,-134.52 507.12,-133.84 509,-140.58"/>
</g>
<!-- Node12 -->
<g id="node12" class="node">
<title>Node12</title>
<g id="a_node12"><a xlink:href="classflow_1_1async_1_1Timed__concurrent__task__loop__impl.html#a2c3566acb42c14ce7fe31026a711a30b" target="_top" xlink:title="Implements superclass API.">
<polygon fill="white" stroke="black" points="330,-108.5 330,-143.5 437,-143.5 437,-108.5 330,-108.5"/>
<text text-anchor="start" x="338" y="-133.1" font-family="Helvetica,sans-Serif" font-size="8.00">flow::async::Timed</text>
<text text-anchor="start" x="338" y="-124.1" font-family="Helvetica,sans-Serif" font-size="8.00">_concurrent_task_loop</text>
<text text-anchor="middle" x="383.5" y="-115.1" font-family="Helvetica,sans-Serif" font-size="8.00">_impl::schedule_at</text>
</a>
</g>
</g>
<!-- Node9&#45;&gt;Node12 -->
<g id="edge11" class="edge">
<title>Node9&#45;&gt;Node12</title>
<path fill="none" stroke="midnightblue" d="M479.52,-126C465.27,-126 450.52,-126 437.02,-126"/>
<polygon fill="midnightblue" stroke="midnightblue" points="479.78,-129.5 489.78,-126 479.78,-122.5 479.78,-129.5"/>
</g>
<!-- Node14 -->
<g id="node14" class="node">
<title>Node14</title>
<g id="a_node14"><a xlink:href="classflow_1_1async_1_1Timed__concurrent__task__loop__impl.html#a79b1d2f2b5bf4fdf16e7701fe3bb44d1" target="_top" xlink:title="Implements superclass API.">
<polygon fill="white" stroke="black" points="321,-54.5 321,-89.5 446,-89.5 446,-54.5 321,-54.5"/>
<text text-anchor="start" x="329" y="-79.1" font-family="Helvetica,sans-Serif" font-size="8.00">flow::async::Timed</text>
<text text-anchor="start" x="329" y="-70.1" font-family="Helvetica,sans-Serif" font-size="8.00">_concurrent_task_loop</text>
<text text-anchor="middle" x="383.5" y="-61.1" font-family="Helvetica,sans-Serif" font-size="8.00">_impl::schedule_from_now</text>
</a>
</g>
</g>
<!-- Node9&#45;&gt;Node14 -->
<g id="edge13" class="edge">
<title>Node9&#45;&gt;Node14</title>
<path fill="none" stroke="midnightblue" d="M505.45,-114.86C497.6,-112.71 489.53,-110.38 482,-108 464.62,-102.51 445.78,-95.74 429.34,-89.57"/>
<polygon fill="midnightblue" stroke="midnightblue" points="504.66,-118.27 515.22,-117.47 506.47,-111.51 504.66,-118.27"/>
</g>
<!-- Node16 -->
<g id="node16" class="node">
<title>Node16</title>
<g id="a_node16"><a xlink:href="namespaceflow_1_1perf.html#a7a3694bcd6e4bd506715d5931bc0c009" target="_top" xlink:title="Identical to timed_function() but suitable for boost.asio&#45;targeted handler functions.">
<polygon fill="white" stroke="black" points="324,-14.5 324,-31.5 443,-31.5 443,-14.5 324,-14.5"/>
<text text-anchor="middle" x="383.5" y="-21.1" font-family="Helvetica,sans-Serif" font-size="8.00">flow::perf::timed_handler</text>
</a>
</g>
</g>
<!-- Node9&#45;&gt;Node16 -->
<g id="edge15" class="edge">
<title>Node9&#45;&gt;Node16</title>
<path fill="none" stroke="midnightblue" d="M489.95,-113.15C487.16,-111.62 484.49,-109.91 482,-108 456.43,-88.35 470.72,-65.72 446,-45 438.96,-39.1 430.22,-34.73 421.56,-31.51"/>
<polygon fill="midnightblue" stroke="midnightblue" points="488.67,-116.41 499.22,-117.43 491.61,-110.06 488.67,-116.41"/>
</g>
<!-- Node11 -->
<g id="node11" class="node">
<title>Node11</title>
<g id="a_node11"><a xlink:href="classflow_1_1async_1_1Timed__single__thread__task__loop.html#aafc6c8e2d94c5387bfd4e49795244feb" target="_top" xlink:title="Implements superclass method but with the addition of timing of task, accessible through accumulated_...">
<polygon fill="white" stroke="black" points="174,-162.5 174,-197.5 271,-197.5 271,-162.5 174,-162.5"/>
<text text-anchor="start" x="182" y="-187.1" font-family="Helvetica,sans-Serif" font-size="8.00">flow::async::Timed</text>
<text text-anchor="start" x="182" y="-178.1" font-family="Helvetica,sans-Serif" font-size="8.00">_single_thread_task</text>
<text text-anchor="middle" x="222.5" y="-169.1" font-family="Helvetica,sans-Serif" font-size="8.00">_loop::post</text>
</a>
</g>
</g>
<!-- Node10&#45;&gt;Node11 -->
<g id="edge10" class="edge">
<title>Node10&#45;&gt;Node11</title>
<path fill="none" stroke="midnightblue" d="M319.56,-180C303.43,-180 286.34,-180 271.12,-180"/>
<polygon fill="midnightblue" stroke="midnightblue" points="320,-183.5 330,-180 320,-176.5 320,-183.5"/>
</g>
<!-- Node13 -->
<g id="node13" class="node">
<title>Node13</title>
<g id="a_node13"><a xlink:href="classflow_1_1async_1_1Timed__single__thread__task__loop.html#a939142533e48fc54040825aad2010121" target="_top" xlink:title="Implements superclass method but with the addition of timing of task, accessible through accumulated_...">
<polygon fill="white" stroke="black" points="174,-108.5 174,-143.5 271,-143.5 271,-108.5 174,-108.5"/>
<text text-anchor="start" x="182" y="-133.1" font-family="Helvetica,sans-Serif" font-size="8.00">flow::async::Timed</text>
<text text-anchor="start" x="182" y="-124.1" font-family="Helvetica,sans-Serif" font-size="8.00">_single_thread_task</text>
<text text-anchor="middle" x="222.5" y="-115.1" font-family="Helvetica,sans-Serif" font-size="8.00">_loop::schedule_at</text>
</a>
</g>
</g>
<!-- Node12&#45;&gt;Node13 -->
<g id="edge12" class="edge">
<title>Node12&#45;&gt;Node13</title>
<path fill="none" stroke="midnightblue" d="M319.56,-126C303.43,-126 286.34,-126 271.12,-126"/>
<polygon fill="midnightblue" stroke="midnightblue" points="320,-129.5 330,-126 320,-122.5 320,-129.5"/>
</g>
<!-- Node15 -->
<g id="node15" class="node">
<title>Node15</title>
<g id="a_node15"><a xlink:href="classflow_1_1async_1_1Timed__single__thread__task__loop.html#afed368e611529a648a7dd2999a89ab0d" target="_top" xlink:title="Implements superclass method but with the addition of timing of task, accessible through accumulated_...">
<polygon fill="white" stroke="black" points="160,-54.5 160,-89.5 285,-89.5 285,-54.5 160,-54.5"/>
<text text-anchor="start" x="168" y="-79.1" font-family="Helvetica,sans-Serif" font-size="8.00">flow::async::Timed</text>
<text text-anchor="start" x="168" y="-70.1" font-family="Helvetica,sans-Serif" font-size="8.00">_single_thread_task</text>
<text text-anchor="middle" x="222.5" y="-61.1" font-family="Helvetica,sans-Serif" font-size="8.00">_loop::schedule_from_now</text>
</a>
</g>
</g>
<!-- Node14&#45;&gt;Node15 -->
<g id="edge14" class="edge">
<title>Node14&#45;&gt;Node15</title>
<path fill="none" stroke="midnightblue" d="M310.41,-72C302.01,-72 293.5,-72 285.26,-72"/>
<polygon fill="midnightblue" stroke="midnightblue" points="310.57,-75.5 320.57,-72 310.57,-68.5 310.57,-75.5"/>
</g>
<!-- Node17 -->
<g id="node17" class="node">
<title>Node17</title>
<g id="a_node17"><a xlink:href="classflow_1_1async_1_1Timed__concurrent__task__loop__impl.html#a9e915ee364537114a9e2f50574d960b7" target="_top" xlink:title="Given a boost.asio completion handler handler for a boost.asio async_*() action on some boost....">
<polygon fill="white" stroke="black" points="161,-0.5 161,-35.5 284,-35.5 284,-0.5 161,-0.5"/>
<text text-anchor="start" x="169" y="-25.1" font-family="Helvetica,sans-Serif" font-size="8.00">flow::async::Timed</text>
<text text-anchor="start" x="169" y="-16.1" font-family="Helvetica,sans-Serif" font-size="8.00">_concurrent_task_loop</text>
<text text-anchor="middle" x="222.5" y="-7.1" font-family="Helvetica,sans-Serif" font-size="8.00">_impl::asio_handler_timed</text>
</a>
</g>
</g>
<!-- Node16&#45;&gt;Node17 -->
<g id="edge16" class="edge">
<title>Node16&#45;&gt;Node17</title>
<path fill="none" stroke="midnightblue" d="M313.63,-20.83C303.81,-20.53 293.78,-20.21 284.14,-19.91"/>
<polygon fill="midnightblue" stroke="midnightblue" points="313.64,-24.34 323.75,-21.15 313.86,-17.34 313.64,-24.34"/>
</g>
<!-- Node18 -->
<g id="node18" class="node">
<title>Node18</title>
<g id="a_node18"><a xlink:href="classflow_1_1async_1_1Timed__single__thread__task__loop.html#a37f2f0d5c163cc1d0b56213ebb080af0" target="_top" xlink:title="See Timed_concurrent_task_loop_impl::asio_handler_timed().">
<polygon fill="white" stroke="black" points="0,-0.5 0,-35.5 124,-35.5 124,-0.5 0,-0.5"/>
<text text-anchor="start" x="8" y="-25.1" font-family="Helvetica,sans-Serif" font-size="8.00">flow::async::Timed</text>
<text text-anchor="start" x="8" y="-16.1" font-family="Helvetica,sans-Serif" font-size="8.00">_single_thread_task</text>
<text text-anchor="middle" x="62" y="-7.1" font-family="Helvetica,sans-Serif" font-size="8.00">_loop::asio_handler_timed</text>
</a>
</g>
</g>
<!-- Node17&#45;&gt;Node18 -->
<g id="edge17" class="edge">
<title>Node17&#45;&gt;Node18</title>
<path fill="none" stroke="midnightblue" d="M150.47,-18C141.7,-18 132.79,-18 124.19,-18"/>
<polygon fill="midnightblue" stroke="midnightblue" points="150.67,-21.5 160.67,-18 150.67,-14.5 150.67,-21.5"/>
</g>
</g>
</svg>
