<?xml version="1.0" encoding="UTF-8" standalone="no"?>
<!DOCTYPE svg PUBLIC "-//W3C//DTD SVG 1.1//EN"
 "http://www.w3.org/Graphics/SVG/1.1/DTD/svg11.dtd">
<!-- Generated by graphviz version 2.43.0 (0)
 -->
<!-- Title: flow::net_flow::Peer_socket_receive_stats_accumulator Pages: 1 -->
<svg width="230pt" height="107pt"
 viewBox="0.00 0.00 230.00 107.00" xmlns="http://www.w3.org/2000/svg" xmlns:xlink="http://www.w3.org/1999/xlink">
<g id="graph0" class="graph" transform="scale(1 1) rotate(0) translate(4 103)">
<title>flow::net_flow::Peer_socket_receive_stats_accumulator</title>
<polygon fill="white" stroke="transparent" points="-4,4 -4,-103 226,-103 226,4 -4,4"/>
<!-- Node1 -->
<g id="node1" class="node">
<title>Node1</title>
<g id="a_node1"><a xlink:title="A class that keeps a Peer_socket_receive_stats data store, includes methods to conveniently accumulat...">
<polygon fill="#bfbfbf" stroke="black" points="60,-0.5 60,-35.5 165,-35.5 165,-0.5 60,-0.5"/>
<text text-anchor="start" x="68" y="-25.1" font-family="Helvetica,sans-Serif" font-size="8.00">flow::net_flow::Peer</text>
<text text-anchor="start" x="68" y="-16.1" font-family="Helvetica,sans-Serif" font-size="8.00">_socket_receive_stats</text>
<text text-anchor="middle" x="112.5" y="-7.1" font-family="Helvetica,sans-Serif" font-size="8.00">_accumulator</text>
</a>
</g>
</g>
<!-- Node2 -->
<g id="node2" class="node">
<title>Node2</title>
<g id="a_node2"><a xlink:href="structflow_1_1net__flow_1_1Peer__socket__receive__stats.html" target="_top" xlink:title="A data store that keeps stats about the incoming direction of a Peer_socket connection to another Flo...">
<polygon fill="white" stroke="black" points="0,-72.5 0,-98.5 105,-98.5 105,-72.5 0,-72.5"/>
<text text-anchor="start" x="8" y="-88.1" font-family="Helvetica,sans-Serif" font-size="8.00">flow::net_flow::Peer</text>
<text text-anchor="middle" x="52.5" y="-79.1" font-family="Helvetica,sans-Serif" font-size="8.00">_socket_receive_stats</text>
</a>
</g>
</g>
<!-- Node2&#45;&gt;Node1 -->
<g id="edge1" class="edge">
<title>Node2&#45;&gt;Node1</title>
<path fill="none" stroke="#8b1a1a" d="M70.52,-64.83C79.05,-55.52 89.13,-44.51 97.27,-35.62"/>
<polygon fill="#8b1a1a" stroke="#8b1a1a" points="67.68,-62.75 63.5,-72.49 72.84,-67.48 67.68,-62.75"/>
</g>
<!-- Node3 -->
<g id="node3" class="node">
<title>Node3</title>
<g id="a_node3"><a xlink:title=" ">
<polygon fill="white" stroke="#bfbfbf" points="123,-77 123,-94 222,-94 222,-77 123,-77"/>
<text text-anchor="middle" x="172.5" y="-83.6" font-family="Helvetica,sans-Serif" font-size="8.00">boost::noncopyable</text>
</a>
</g>
</g>
<!-- Node3&#45;&gt;Node1 -->
<g id="edge2" class="edge">
<title>Node3&#45;&gt;Node1</title>
<path fill="none" stroke="#8b1a1a" d="M158.67,-69.4C149.44,-59.32 137.29,-46.06 127.77,-35.67"/>
<polygon fill="#8b1a1a" stroke="#8b1a1a" points="156.28,-71.98 165.62,-76.99 161.44,-67.25 156.28,-71.98"/>
</g>
</g>
</svg>
