<?xml version="1.0" encoding="UTF-8" standalone="no"?>
<!DOCTYPE svg PUBLIC "-//W3C//DTD SVG 1.1//EN"
 "http://www.w3.org/Graphics/SVG/1.1/DTD/svg11.dtd">
<!-- Generated by graphviz version 2.43.0 (0)
 -->
<!-- Title: flow::async::Timed_concurrent_task_loop_impl::schedule_at Pages: 1 -->
<svg width="428pt" height="58pt"
 viewBox="0.00 0.00 428.00 57.50" xmlns="http://www.w3.org/2000/svg" xmlns:xlink="http://www.w3.org/1999/xlink">
<g id="graph0" class="graph" transform="scale(1 1) rotate(0) translate(4 53.5)">
<title>flow::async::Timed_concurrent_task_loop_impl::schedule_at</title>
<polygon fill="white" stroke="transparent" points="-4,4 -4,-53.5 424,-53.5 424,4 -4,4"/>
<!-- Node1 -->
<g id="node1" class="node">
<title>Node1</title>
<g id="a_node1"><a xlink:title="Implements superclass API.">
<polygon fill="#bfbfbf" stroke="black" points="0,-0.5 0,-35.5 107,-35.5 107,-0.5 0,-0.5"/>
<text text-anchor="start" x="8" y="-25.1" font-family="Helvetica,sans-Serif" font-size="8.00">flow::async::Timed</text>
<text text-anchor="start" x="8" y="-16.1" font-family="Helvetica,sans-Serif" font-size="8.00">_concurrent_task_loop</text>
<text text-anchor="middle" x="53.5" y="-7.1" font-family="Helvetica,sans-Serif" font-size="8.00">_impl::schedule_at</text>
</a>
</g>
</g>
<!-- Node2 -->
<g id="node2" class="node">
<title>Node2</title>
<g id="a_node2"><a xlink:href="namespaceflow_1_1perf.html#a0dee22ec7bf250bbbf556a7e15c1f784" target="_top" xlink:title="Constructs a closure that times and executes void&#45;returning function(), adding the elapsed time with ...">
<polygon fill="white" stroke="black" points="143,-9.5 143,-26.5 265,-26.5 265,-9.5 143,-9.5"/>
<text text-anchor="middle" x="204" y="-16.1" font-family="Helvetica,sans-Serif" font-size="8.00">flow::perf::timed_function</text>
</a>
</g>
</g>
<!-- Node1&#45;&gt;Node2 -->
<g id="edge1" class="edge">
<title>Node1&#45;&gt;Node2</title>
<path fill="none" stroke="midnightblue" d="M107.27,-18C115.54,-18 124.2,-18 132.79,-18"/>
<polygon fill="midnightblue" stroke="midnightblue" points="132.8,-21.5 142.8,-18 132.8,-14.5 132.8,-21.5"/>
</g>
<!-- Node3 -->
<g id="node3" class="node">
<title>Node3</title>
<g id="a_node3"><a xlink:href="classflow_1_1perf_1_1Checkpointing__timer.html#a3b73f2812c2bf6a27ef2becc13859d73" target="_top" xlink:title="Sample all currently enabled Clock_types&#39; clocks and return those values, each of which is a time sta...">
<polygon fill="white" stroke="black" points="301,-5 301,-31 420,-31 420,-5 301,-5"/>
<text text-anchor="start" x="309" y="-20.6" font-family="Helvetica,sans-Serif" font-size="8.00">flow::perf::Checkpointing</text>
<text text-anchor="middle" x="360.5" y="-11.6" font-family="Helvetica,sans-Serif" font-size="8.00">_timer::now</text>
</a>
</g>
</g>
<!-- Node2&#45;&gt;Node3 -->
<g id="edge2" class="edge">
<title>Node2&#45;&gt;Node3</title>
<path fill="none" stroke="midnightblue" d="M265.18,-18C273.49,-18 282.08,-18 290.54,-18"/>
<polygon fill="midnightblue" stroke="midnightblue" points="290.76,-21.5 300.76,-18 290.76,-14.5 290.76,-21.5"/>
</g>
<!-- Node3&#45;&gt;Node3 -->
<g id="edge3" class="edge">
<title>Node3&#45;&gt;Node3</title>
<path fill="none" stroke="midnightblue" d="M334.11,-31.27C326.11,-40.46 334.91,-49.5 360.5,-49.5 376.1,-49.5 385.46,-46.14 388.58,-41.44"/>
<polygon fill="midnightblue" stroke="midnightblue" points="391.98,-40.56 386.89,-31.27 385.07,-41.71 391.98,-40.56"/>
</g>
</g>
</svg>
