<?xml version="1.0" encoding="UTF-8" standalone="no"?>
<!DOCTYPE svg PUBLIC "-//W3C//DTD SVG 1.1//EN"
 "http://www.w3.org/Graphics/SVG/1.1/DTD/svg11.dtd">
<!-- Generated by graphviz version 2.43.0 (0)
 -->
<!-- Title: flow::net_flow::asio::Node::async_connect_with_metadata Pages: 1 -->
<svg width="739pt" height="188pt"
 viewBox="0.00 0.00 739.00 188.00" xmlns="http://www.w3.org/2000/svg" xmlns:xlink="http://www.w3.org/1999/xlink">
<g id="graph0" class="graph" transform="scale(1 1) rotate(0) translate(4 184)">
<title>flow::net_flow::asio::Node::async_connect_with_metadata</title>
<polygon fill="white" stroke="transparent" points="-4,4 -4,-184 735,-184 735,4 -4,4"/>
<!-- Node1 -->
<g id="node1" class="node">
<title>Node1</title>
<g id="a_node1"><a xlink:title="Equivalent to async_connect_with_metadata(to, on_result, duration::max(), serialized_metadata,...">
<polygon fill="#bfbfbf" stroke="black" points="0,-126 0,-161 111,-161 111,-126 0,-126"/>
<text text-anchor="start" x="8" y="-150.6" font-family="Helvetica,sans-Serif" font-size="8.00">flow::net_flow::asio</text>
<text text-anchor="start" x="8" y="-141.6" font-family="Helvetica,sans-Serif" font-size="8.00">::Node::async_connect</text>
<text text-anchor="middle" x="55.5" y="-132.6" font-family="Helvetica,sans-Serif" font-size="8.00">_with_metadata</text>
</a>
</g>
</g>
<!-- Node2 -->
<g id="node2" class="node">
<title>Node2</title>
<g id="a_node2"><a xlink:href="classflow_1_1net__flow_1_1asio_1_1Node.html#aecac8b38cd35267b1af57e2443a55ea0" target="_top" xlink:title="Implementation core of async_connect*() that gets rid of templated or missing arguments thereof.">
<polygon fill="white" stroke="black" points="147,-108.5 147,-134.5 279,-134.5 279,-108.5 147,-108.5"/>
<text text-anchor="start" x="155" y="-124.1" font-family="Helvetica,sans-Serif" font-size="8.00">flow::net_flow::asio</text>
<text text-anchor="middle" x="213" y="-115.1" font-family="Helvetica,sans-Serif" font-size="8.00">::Node::async_connect_impl</text>
</a>
</g>
</g>
<!-- Node1&#45;&gt;Node2 -->
<g id="edge1" class="edge">
<title>Node1&#45;&gt;Node2</title>
<path fill="none" stroke="midnightblue" d="M111.32,-135.74C119.56,-134.58 128.17,-133.36 136.74,-132.15"/>
<polygon fill="midnightblue" stroke="midnightblue" points="137.34,-135.6 146.75,-130.73 136.36,-128.67 137.34,-135.6"/>
</g>
<!-- Node12 -->
<g id="node12" class="node">
<title>Node12</title>
<g id="a_node12"><a xlink:href="classflow_1_1net__flow_1_1asio_1_1Node.html#ad0b99ea857df0cbbf2b26f6c84e8863a" target="_top" xlink:title="Returns a functor that essentially performs post() on_result onto *async_task_engine() in a way suita...">
<polygon fill="white" stroke="black" points="161,-153.5 161,-179.5 265,-179.5 265,-153.5 161,-153.5"/>
<text text-anchor="start" x="169" y="-169.1" font-family="Helvetica,sans-Serif" font-size="8.00">flow::net_flow::asio</text>
<text text-anchor="middle" x="213" y="-160.1" font-family="Helvetica,sans-Serif" font-size="8.00">::Node::handler_func</text>
</a>
</g>
</g>
<!-- Node1&#45;&gt;Node12 -->
<g id="edge12" class="edge">
<title>Node1&#45;&gt;Node12</title>
<path fill="none" stroke="midnightblue" d="M111.32,-151.61C124.02,-153.49 137.61,-155.5 150.57,-157.41"/>
<polygon fill="midnightblue" stroke="midnightblue" points="150.39,-160.93 160.79,-158.93 151.41,-154 150.39,-160.93"/>
</g>
<!-- Node3 -->
<g id="node3" class="node">
<title>Node3</title>
<g id="a_node3"><a xlink:href="classflow_1_1net__flow_1_1asio_1_1Node.html#a778ffa52a73f455142da9497ca10734d" target="_top" xlink:title="Pointer (possibly null) for the flow::util::Task_engine used by any coming async I/O calls and inheri...">
<polygon fill="white" stroke="black" points="315,-153.5 315,-179.5 443,-179.5 443,-153.5 315,-153.5"/>
<text text-anchor="start" x="323" y="-169.1" font-family="Helvetica,sans-Serif" font-size="8.00">flow::net_flow::asio</text>
<text text-anchor="middle" x="379" y="-160.1" font-family="Helvetica,sans-Serif" font-size="8.00">::Node::async_task_engine</text>
</a>
</g>
</g>
<!-- Node2&#45;&gt;Node3 -->
<g id="edge2" class="edge">
<title>Node2&#45;&gt;Node3</title>
<path fill="none" stroke="midnightblue" d="M261.44,-134.52C279.88,-139.58 301.19,-145.42 320.5,-150.72"/>
<polygon fill="midnightblue" stroke="midnightblue" points="319.82,-154.16 330.39,-153.44 321.67,-147.41 319.82,-154.16"/>
</g>
<!-- Node4 -->
<g id="node4" class="node">
<title>Node4</title>
<g id="a_node4"><a xlink:href="classflow_1_1net__flow_1_1asio_1_1Peer__socket.html#a0744682e2dc9118b4da3f00bc5267bec" target="_top" xlink:title="Convenience method that polymorphically casts from net_flow::Peer_socket::Ptr to subclass pointer net...">
<polygon fill="white" stroke="black" points="331,-108.5 331,-134.5 427,-134.5 427,-108.5 331,-108.5"/>
<text text-anchor="start" x="339" y="-124.1" font-family="Helvetica,sans-Serif" font-size="8.00">flow::net_flow::asio</text>
<text text-anchor="middle" x="379" y="-115.1" font-family="Helvetica,sans-Serif" font-size="8.00">::Peer_socket::cast</text>
</a>
</g>
</g>
<!-- Node2&#45;&gt;Node4 -->
<g id="edge3" class="edge">
<title>Node2&#45;&gt;Node4</title>
<path fill="none" stroke="midnightblue" d="M279.29,-121.5C292.82,-121.5 306.99,-121.5 320.23,-121.5"/>
<polygon fill="midnightblue" stroke="midnightblue" points="320.62,-125 330.62,-121.5 320.62,-118 320.62,-125"/>
</g>
<!-- Node5 -->
<g id="node5" class="node">
<title>Node5</title>
<g id="a_node5"><a xlink:href="classflow_1_1net__flow_1_1Node.html#ae9a0e5492b9ea005cc12c20c8e7cec9a" target="_top" xlink:title="Same as connect() but sends, as part of the connection handshake, the user&#45;supplied metadata,...">
<polygon fill="white" stroke="black" points="319,-45.5 319,-71.5 439,-71.5 439,-45.5 319,-45.5"/>
<text text-anchor="start" x="327" y="-61.1" font-family="Helvetica,sans-Serif" font-size="8.00">flow::net_flow::Node</text>
<text text-anchor="middle" x="379" y="-52.1" font-family="Helvetica,sans-Serif" font-size="8.00">::connect_with_metadata</text>
</a>
</g>
</g>
<!-- Node2&#45;&gt;Node5 -->
<g id="edge4" class="edge">
<title>Node2&#45;&gt;Node5</title>
<path fill="none" stroke="midnightblue" d="M247.98,-108.45C273.05,-98.82 307.36,-85.64 334.44,-75.23"/>
<polygon fill="midnightblue" stroke="midnightblue" points="335.98,-78.39 344.06,-71.54 333.47,-71.86 335.98,-78.39"/>
</g>
<!-- Node5&#45;&gt;Node5 -->
<g id="edge8" class="edge">
<title>Node5&#45;&gt;Node5</title>
<path fill="none" stroke="midnightblue" d="M352.27,-71.77C344.17,-80.96 353.08,-90 379,-90 394.8,-90 404.28,-86.64 407.44,-81.94"/>
<polygon fill="midnightblue" stroke="midnightblue" points="410.84,-81.05 405.73,-71.77 403.93,-82.21 410.84,-81.05"/>
</g>
<!-- Node6 -->
<g id="node6" class="node">
<title>Node6</title>
<g id="a_node6"><a xlink:href="namespaceflow_1_1async.html#a24567271e97a67d3cae6bd8bf8dc63c4" target="_top" xlink:title="An extension of boost.asio&#39;s post() and dispatch() free function templates, this free function templa...">
<polygon fill="white" stroke="black" points="482.5,-90.5 482.5,-116.5 591.5,-116.5 591.5,-90.5 482.5,-90.5"/>
<text text-anchor="start" x="490.5" y="-106.1" font-family="Helvetica,sans-Serif" font-size="8.00">flow::async::asio_exec</text>
<text text-anchor="middle" x="537" y="-97.1" font-family="Helvetica,sans-Serif" font-size="8.00">_ctx_post</text>
</a>
</g>
</g>
<!-- Node5&#45;&gt;Node6 -->
<g id="edge5" class="edge">
<title>Node5&#45;&gt;Node6</title>
<path fill="none" stroke="midnightblue" d="M425.12,-71.52C442.59,-76.55 462.75,-82.37 481.05,-87.65"/>
<polygon fill="midnightblue" stroke="midnightblue" points="480.13,-91.03 490.71,-90.44 482.07,-84.3 480.13,-91.03"/>
</g>
<!-- Node9 -->
<g id="node9" class="node">
<title>Node9</title>
<g id="a_node9"><a xlink:href="classflow_1_1log_1_1Log__context.html#af4db395042b065b00398cd59845dcb4d" target="_top" xlink:title="Returns the stored Logger pointer, particularly as many FLOW_LOG_*() macros expect.">
<polygon fill="white" stroke="black" points="483.5,-45.5 483.5,-71.5 590.5,-71.5 590.5,-45.5 483.5,-45.5"/>
<text text-anchor="start" x="491.5" y="-61.1" font-family="Helvetica,sans-Serif" font-size="8.00">flow::log::Log_context</text>
<text text-anchor="middle" x="537" y="-52.1" font-family="Helvetica,sans-Serif" font-size="8.00">::get_logger</text>
</a>
</g>
</g>
<!-- Node5&#45;&gt;Node9 -->
<g id="edge9" class="edge">
<title>Node5&#45;&gt;Node9</title>
<path fill="none" stroke="midnightblue" d="M439.42,-58.5C450.5,-58.5 462.1,-58.5 473.27,-58.5"/>
<polygon fill="midnightblue" stroke="midnightblue" points="473.38,-62 483.38,-58.5 473.38,-55 473.38,-62"/>
</g>
<!-- Node10 -->
<g id="node10" class="node">
<title>Node10</title>
<g id="a_node10"><a xlink:href="classflow_1_1net__flow_1_1Peer__socket.html#aa1f821dde38a7aa572651730744edbd8" target="_top" xlink:title="The maximum number of bytes of user data per received or sent packet on this connection.">
<polygon fill="white" stroke="black" points="479,-0.5 479,-26.5 595,-26.5 595,-0.5 479,-0.5"/>
<text text-anchor="start" x="487" y="-16.1" font-family="Helvetica,sans-Serif" font-size="8.00">flow::net_flow::Peer</text>
<text text-anchor="middle" x="537" y="-7.1" font-family="Helvetica,sans-Serif" font-size="8.00">_socket::max_block_size</text>
</a>
</g>
</g>
<!-- Node5&#45;&gt;Node10 -->
<g id="edge10" class="edge">
<title>Node5&#45;&gt;Node10</title>
<path fill="none" stroke="midnightblue" d="M425.12,-45.48C442.59,-40.45 462.75,-34.63 481.05,-29.35"/>
<polygon fill="midnightblue" stroke="midnightblue" points="482.07,-32.7 490.71,-26.56 480.13,-25.97 482.07,-32.7"/>
</g>
<!-- Node7 -->
<g id="node7" class="node">
<title>Node7</title>
<g id="a_node7"><a xlink:href="namespaceflow_1_1async.html#a4cce43f39672e80cba5512103c53ae60" target="_top" xlink:title="Returns the 0&#45;based processor logical (not hardware) core index of the core executing the calling thr...">
<polygon fill="white" stroke="black" points="631,-115 631,-132 731,-132 731,-115 631,-115"/>
<text text-anchor="middle" x="681" y="-121.6" font-family="Helvetica,sans-Serif" font-size="8.00">flow::async::cpu_idx</text>
</a>
</g>
</g>
<!-- Node6&#45;&gt;Node7 -->
<g id="edge6" class="edge">
<title>Node6&#45;&gt;Node7</title>
<path fill="none" stroke="midnightblue" d="M591.68,-111.06C601.24,-112.41 611.25,-113.82 620.95,-115.18"/>
<polygon fill="midnightblue" stroke="midnightblue" points="620.52,-118.66 630.91,-116.59 621.5,-111.73 620.52,-118.66"/>
</g>
<!-- Node8 -->
<g id="node8" class="node">
<title>Node8</title>
<g id="a_node8"><a xlink:href="classflow_1_1log_1_1Logger.html#ac8a2e7a33fe3fbc0c29ead62ed98c022" target="_top" xlink:title="Given attributes of a hypothetical message that would be logged, return true if that message should b...">
<polygon fill="white" stroke="black" points="635,-69.5 635,-95.5 727,-95.5 727,-69.5 635,-69.5"/>
<text text-anchor="start" x="643" y="-85.1" font-family="Helvetica,sans-Serif" font-size="8.00">flow::log::Logger::</text>
<text text-anchor="middle" x="681" y="-76.1" font-family="Helvetica,sans-Serif" font-size="8.00">should_log</text>
</a>
</g>
</g>
<!-- Node6&#45;&gt;Node8 -->
<g id="edge7" class="edge">
<title>Node6&#45;&gt;Node8</title>
<path fill="none" stroke="midnightblue" d="M591.68,-95.56C602.4,-93.98 613.67,-92.31 624.45,-90.72"/>
<polygon fill="midnightblue" stroke="midnightblue" points="625.21,-94.14 634.59,-89.22 624.18,-87.22 625.21,-94.14"/>
</g>
<!-- Node11 -->
<g id="node11" class="node">
<title>Node11</title>
<g id="a_node11"><a xlink:href="classflow_1_1net__flow_1_1Peer__socket.html#accf6d724ed1f145716ae3d4567f582f3" target="_top" xlink:title="Analogous to Node::opt() but for per&#45;socket options.">
<polygon fill="white" stroke="black" points="632.5,-0.5 632.5,-26.5 729.5,-26.5 729.5,-0.5 632.5,-0.5"/>
<text text-anchor="start" x="640.5" y="-16.1" font-family="Helvetica,sans-Serif" font-size="8.00">flow::net_flow::Peer</text>
<text text-anchor="middle" x="681" y="-7.1" font-family="Helvetica,sans-Serif" font-size="8.00">_socket::opt</text>
</a>
</g>
</g>
<!-- Node10&#45;&gt;Node11 -->
<g id="edge11" class="edge">
<title>Node10&#45;&gt;Node11</title>
<path fill="none" stroke="midnightblue" d="M595.35,-13.5C604.2,-13.5 613.35,-13.5 622.21,-13.5"/>
<polygon fill="midnightblue" stroke="midnightblue" points="622.44,-17 632.44,-13.5 622.44,-10 622.44,-17"/>
</g>
<!-- Node12&#45;&gt;Node3 -->
<g id="edge13" class="edge">
<title>Node12&#45;&gt;Node3</title>
<path fill="none" stroke="midnightblue" d="M265.44,-166.5C277.94,-166.5 291.55,-166.5 304.84,-166.5"/>
<polygon fill="midnightblue" stroke="midnightblue" points="304.92,-170 314.92,-166.5 304.92,-163 304.92,-170"/>
</g>
</g>
</svg>
