<?xml version="1.0" encoding="UTF-8" standalone="no"?>
<!DOCTYPE svg PUBLIC "-//W3C//DTD SVG 1.1//EN"
 "http://www.w3.org/Graphics/SVG/1.1/DTD/svg11.dtd">
<!-- Generated by graphviz version 2.43.0 (0)
 -->
<!-- Title: flow::net_flow::Node::log_snd_window Pages: 1 -->
<svg width="386pt" height="170pt"
 viewBox="0.00 0.00 386.00 170.00" xmlns="http://www.w3.org/2000/svg" xmlns:xlink="http://www.w3.org/1999/xlink">
<g id="graph0" class="graph" transform="scale(1 1) rotate(0) translate(4 166)">
<title>flow::net_flow::Node::log_snd_window</title>
<polygon fill="white" stroke="transparent" points="-4,4 -4,-166 382,-166 382,4 -4,4"/>
<!-- Node1 -->
<g id="node1" class="node">
<title>Node1</title>
<g id="a_node1"><a xlink:title="Logs TRACE or DATA messages thats show the detailed state of the sending sequence number space.">
<polygon fill="#bfbfbf" stroke="black" points="0,-67.5 0,-93.5 101,-93.5 101,-67.5 0,-67.5"/>
<text text-anchor="start" x="8" y="-83.1" font-family="Helvetica,sans-Serif" font-size="8.00">flow::net_flow::Node</text>
<text text-anchor="middle" x="50.5" y="-74.1" font-family="Helvetica,sans-Serif" font-size="8.00">::log_snd_window</text>
</a>
</g>
</g>
<!-- Node2 -->
<g id="node2" class="node">
<title>Node2</title>
<g id="a_node2"><a xlink:href="classflow_1_1log_1_1Log__context.html#a8a5fef42dc2cedf3c0d1a6e83beb2948" target="_top" xlink:title="Returns reference to the stored Component object, particularly as many FLOW_LOG_*() macros expect.">
<polygon fill="white" stroke="black" points="137,-135.5 137,-161.5 244,-161.5 244,-135.5 137,-135.5"/>
<text text-anchor="start" x="145" y="-151.1" font-family="Helvetica,sans-Serif" font-size="8.00">flow::log::Log_context</text>
<text text-anchor="middle" x="190.5" y="-142.1" font-family="Helvetica,sans-Serif" font-size="8.00">::get_log_component</text>
</a>
</g>
</g>
<!-- Node1&#45;&gt;Node2 -->
<g id="edge1" class="edge">
<title>Node1&#45;&gt;Node2</title>
<path fill="none" stroke="midnightblue" d="M74.41,-93.61C91.45,-103.17 115.4,-116.19 137,-126.5 140.51,-128.18 144.19,-129.86 147.89,-131.5"/>
<polygon fill="midnightblue" stroke="midnightblue" points="146.51,-134.72 157.08,-135.49 149.3,-128.3 146.51,-134.72"/>
</g>
<!-- Node3 -->
<g id="node3" class="node">
<title>Node3</title>
<g id="a_node3"><a xlink:href="classflow_1_1log_1_1Log__context.html#af4db395042b065b00398cd59845dcb4d" target="_top" xlink:title="Returns the stored Logger pointer, particularly as many FLOW_LOG_*() macros expect.">
<polygon fill="white" stroke="black" points="137,-90.5 137,-116.5 244,-116.5 244,-90.5 137,-90.5"/>
<text text-anchor="start" x="145" y="-106.1" font-family="Helvetica,sans-Serif" font-size="8.00">flow::log::Log_context</text>
<text text-anchor="middle" x="190.5" y="-97.1" font-family="Helvetica,sans-Serif" font-size="8.00">::get_logger</text>
</a>
</g>
</g>
<!-- Node1&#45;&gt;Node3 -->
<g id="edge2" class="edge">
<title>Node1&#45;&gt;Node3</title>
<path fill="none" stroke="midnightblue" d="M101.32,-88.8C109.64,-90.19 118.37,-91.65 126.97,-93.08"/>
<polygon fill="midnightblue" stroke="midnightblue" points="126.52,-96.55 136.96,-94.74 127.67,-89.65 126.52,-96.55"/>
</g>
<!-- Node4 -->
<g id="node4" class="node">
<title>Node4</title>
<g id="a_node4"><a xlink:href="namespaceflow_1_1util.html#a8afd30c50bcd670d45442df49d1da484" target="_top" xlink:title="Writes to the specified string, as if the given arguments were each passed, via &lt;&lt; in sequence,...">
<polygon fill="white" stroke="black" points="144.5,-45.5 144.5,-71.5 236.5,-71.5 236.5,-45.5 144.5,-45.5"/>
<text text-anchor="start" x="152.5" y="-61.1" font-family="Helvetica,sans-Serif" font-size="8.00">flow::util::ostream</text>
<text text-anchor="middle" x="190.5" y="-52.1" font-family="Helvetica,sans-Serif" font-size="8.00">_op_to_string</text>
</a>
</g>
</g>
<!-- Node1&#45;&gt;Node4 -->
<g id="edge3" class="edge">
<title>Node1&#45;&gt;Node4</title>
<path fill="none" stroke="midnightblue" d="M101.32,-72.56C112.08,-70.84 123.51,-69.02 134.46,-67.27"/>
<polygon fill="midnightblue" stroke="midnightblue" points="135.01,-70.73 144.34,-65.7 133.91,-63.82 135.01,-70.73"/>
</g>
<!-- Node7 -->
<g id="node7" class="node">
<title>Node7</title>
<g id="a_node7"><a xlink:href="classflow_1_1net__flow_1_1Peer__socket.html#a89d852e3722532d75006b024714a5cef" target="_top" xlink:title="Whether retransmission is enabled on this connection.">
<polygon fill="white" stroke="black" points="142,-0.5 142,-26.5 239,-26.5 239,-0.5 142,-0.5"/>
<text text-anchor="start" x="150" y="-16.1" font-family="Helvetica,sans-Serif" font-size="8.00">flow::net_flow::Peer</text>
<text text-anchor="middle" x="190.5" y="-7.1" font-family="Helvetica,sans-Serif" font-size="8.00">_socket::rexmit_on</text>
</a>
</g>
</g>
<!-- Node1&#45;&gt;Node7 -->
<g id="edge7" class="edge">
<title>Node1&#45;&gt;Node7</title>
<path fill="none" stroke="midnightblue" d="M75.99,-67.38C92.98,-58.41 116.2,-46.4 137,-36.5 141.05,-34.57 145.31,-32.61 149.56,-30.68"/>
<polygon fill="midnightblue" stroke="midnightblue" points="151.11,-33.83 158.82,-26.56 148.26,-27.43 151.11,-33.83"/>
</g>
<!-- Node5 -->
<g id="node5" class="node">
<title>Node5</title>
<g id="a_node5"><a xlink:href="namespaceflow_1_1util.html#af92e6183c2071f4166d4b5a91f50d70c" target="_top" xlink:title="&quot;Induction step&quot; version of variadic function template that simply outputs arguments 2+ via &lt;&lt; to the...">
<polygon fill="white" stroke="black" points="280,-90.5 280,-116.5 378,-116.5 378,-90.5 280,-90.5"/>
<text text-anchor="start" x="288" y="-106.1" font-family="Helvetica,sans-Serif" font-size="8.00">flow::util::feed_args</text>
<text text-anchor="middle" x="329" y="-97.1" font-family="Helvetica,sans-Serif" font-size="8.00">_to_ostream</text>
</a>
</g>
</g>
<!-- Node4&#45;&gt;Node5 -->
<g id="edge4" class="edge">
<title>Node4&#45;&gt;Node5</title>
<path fill="none" stroke="midnightblue" d="M230.98,-71.52C245.85,-76.42 262.94,-82.05 278.6,-87.22"/>
<polygon fill="midnightblue" stroke="midnightblue" points="277.54,-90.55 288.13,-90.36 279.73,-83.9 277.54,-90.55"/>
</g>
<!-- Node6 -->
<g id="node6" class="node">
<title>Node6</title>
<g id="a_node6"><a xlink:href="classflow_1_1util_1_1String__ostream.html#a7e64b069ae0e221952068c13fdc0f080" target="_top" xlink:title="Access to stream that will write to owned string.">
<polygon fill="white" stroke="black" points="288,-45.5 288,-71.5 370,-71.5 370,-45.5 288,-45.5"/>
<text text-anchor="start" x="296" y="-61.1" font-family="Helvetica,sans-Serif" font-size="8.00">flow::util::String</text>
<text text-anchor="middle" x="329" y="-52.1" font-family="Helvetica,sans-Serif" font-size="8.00">_ostream::os</text>
</a>
</g>
</g>
<!-- Node4&#45;&gt;Node6 -->
<g id="edge6" class="edge">
<title>Node4&#45;&gt;Node6</title>
<path fill="none" stroke="midnightblue" d="M236.57,-58.5C249.69,-58.5 264.11,-58.5 277.54,-58.5"/>
<polygon fill="midnightblue" stroke="midnightblue" points="277.57,-62 287.57,-58.5 277.57,-55 277.57,-62"/>
</g>
<!-- Node5&#45;&gt;Node5 -->
<g id="edge5" class="edge">
<title>Node5&#45;&gt;Node5</title>
<path fill="none" stroke="midnightblue" d="M305.65,-116.77C298.58,-125.96 306.36,-135 329,-135 342.8,-135 351.08,-131.64 353.84,-126.94"/>
<polygon fill="midnightblue" stroke="midnightblue" points="357.26,-126.16 352.35,-116.77 350.33,-127.17 357.26,-126.16"/>
</g>
<!-- Node8 -->
<g id="node8" class="node">
<title>Node8</title>
<g id="a_node8"><a xlink:href="classflow_1_1net__flow_1_1Peer__socket.html#accf6d724ed1f145716ae3d4567f582f3" target="_top" xlink:title="Analogous to Node::opt() but for per&#45;socket options.">
<polygon fill="white" stroke="black" points="280.5,-0.5 280.5,-26.5 377.5,-26.5 377.5,-0.5 280.5,-0.5"/>
<text text-anchor="start" x="288.5" y="-16.1" font-family="Helvetica,sans-Serif" font-size="8.00">flow::net_flow::Peer</text>
<text text-anchor="middle" x="329" y="-7.1" font-family="Helvetica,sans-Serif" font-size="8.00">_socket::opt</text>
</a>
</g>
</g>
<!-- Node7&#45;&gt;Node8 -->
<g id="edge8" class="edge">
<title>Node7&#45;&gt;Node8</title>
<path fill="none" stroke="midnightblue" d="M239.24,-13.5C249.16,-13.5 259.71,-13.5 269.95,-13.5"/>
<polygon fill="midnightblue" stroke="midnightblue" points="270.06,-17 280.06,-13.5 270.06,-10 270.06,-17"/>
</g>
</g>
</svg>
