<?xml version="1.0" encoding="UTF-8" standalone="no"?>
<!DOCTYPE svg PUBLIC "-//W3C//DTD SVG 1.1//EN"
 "http://www.w3.org/Graphics/SVG/1.1/DTD/svg11.dtd">
<!-- Generated by graphviz version 2.43.0 (0)
 -->
<!-- Title: flow::net_flow::Peer_socket_send_stats::output Pages: 1 -->
<svg width="540pt" height="98pt"
 viewBox="0.00 0.00 540.00 98.00" xmlns="http://www.w3.org/2000/svg" xmlns:xlink="http://www.w3.org/1999/xlink">
<g id="graph0" class="graph" transform="scale(1 1) rotate(0) translate(4 94)">
<title>flow::net_flow::Peer_socket_send_stats::output</title>
<polygon fill="white" stroke="transparent" points="-4,4 -4,-94 536,-94 536,4 -4,4"/>
<!-- Node1 -->
<g id="node1" class="node">
<title>Node1</title>
<g id="a_node1"><a xlink:title="Outputs the current stats, across multiple lines but not ending with a newline, into the given output...">
<polygon fill="#bfbfbf" stroke="black" points="0,-32 0,-58 128,-58 128,-32 0,-32"/>
<text text-anchor="start" x="8" y="-47.6" font-family="Helvetica,sans-Serif" font-size="8.00">flow::net_flow::Peer</text>
<text text-anchor="middle" x="64" y="-38.6" font-family="Helvetica,sans-Serif" font-size="8.00">_socket_send_stats::output</text>
</a>
</g>
</g>
<!-- Node2 -->
<g id="node2" class="node">
<title>Node2</title>
<g id="a_node2"><a xlink:href="structflow_1_1net__flow_1_1Peer__socket__info.html#a116259f40c07caafe63017dddb9a837c" target="_top" xlink:title="Helper for various output() methods that outputs a one&#45;line representation of a sorted map,...">
<polygon fill="white" stroke="black" points="164,-27.5 164,-62.5 264,-62.5 264,-27.5 164,-27.5"/>
<text text-anchor="start" x="172" y="-52.1" font-family="Helvetica,sans-Serif" font-size="8.00">flow::net_flow::Peer</text>
<text text-anchor="start" x="172" y="-43.1" font-family="Helvetica,sans-Serif" font-size="8.00">_socket_info::output</text>
<text text-anchor="middle" x="214" y="-34.1" font-family="Helvetica,sans-Serif" font-size="8.00">_map_of_pkt_counts</text>
</a>
</g>
</g>
<!-- Node1&#45;&gt;Node2 -->
<g id="edge1" class="edge">
<title>Node1&#45;&gt;Node2</title>
<path fill="none" stroke="midnightblue" d="M128.19,-45C136.68,-45 145.37,-45 153.79,-45"/>
<polygon fill="midnightblue" stroke="midnightblue" points="153.89,-48.5 163.89,-45 153.89,-41.5 153.89,-48.5"/>
</g>
<!-- Node3 -->
<g id="node3" class="node">
<title>Node3</title>
<g id="a_node3"><a xlink:href="structflow_1_1net__flow_1_1Peer__socket__info.html#ad7f9a5c76ba47a6c55f539bb685b5223" target="_top" xlink:title="Helper for output_map_of_pkt_counts() that outputs a raw packet type ID index, namely type_index(type...">
<polygon fill="white" stroke="black" points="300,-54.5 300,-89.5 400,-89.5 400,-54.5 300,-54.5"/>
<text text-anchor="start" x="308" y="-79.1" font-family="Helvetica,sans-Serif" font-size="8.00">flow::net_flow::Peer</text>
<text text-anchor="start" x="308" y="-70.1" font-family="Helvetica,sans-Serif" font-size="8.00">_socket_info::output</text>
<text text-anchor="middle" x="350" y="-61.1" font-family="Helvetica,sans-Serif" font-size="8.00">_pkt_count_key</text>
</a>
</g>
</g>
<!-- Node2&#45;&gt;Node3 -->
<g id="edge2" class="edge">
<title>Node2&#45;&gt;Node3</title>
<path fill="none" stroke="midnightblue" d="M264.14,-54.9C272.51,-56.59 281.29,-58.36 289.89,-60.09"/>
<polygon fill="midnightblue" stroke="midnightblue" points="289.38,-63.56 299.87,-62.1 290.76,-56.69 289.38,-63.56"/>
</g>
<!-- Node5 -->
<g id="node5" class="node">
<title>Node5</title>
<g id="a_node5"><a xlink:href="structflow_1_1net__flow_1_1Peer__socket__info.html#acb82e68bb8681201e735bf2fe1a2e620" target="_top" xlink:title="Helper for output_map_of_pkt_counts() that outputs a count or size.">
<polygon fill="white" stroke="black" points="300,-0.5 300,-35.5 400,-35.5 400,-0.5 300,-0.5"/>
<text text-anchor="start" x="308" y="-25.1" font-family="Helvetica,sans-Serif" font-size="8.00">flow::net_flow::Peer</text>
<text text-anchor="start" x="308" y="-16.1" font-family="Helvetica,sans-Serif" font-size="8.00">_socket_info::output</text>
<text text-anchor="middle" x="350" y="-7.1" font-family="Helvetica,sans-Serif" font-size="8.00">_pkt_count_value</text>
</a>
</g>
</g>
<!-- Node2&#45;&gt;Node5 -->
<g id="edge4" class="edge">
<title>Node2&#45;&gt;Node5</title>
<path fill="none" stroke="midnightblue" d="M264.14,-35.1C272.51,-33.41 281.29,-31.64 289.89,-29.91"/>
<polygon fill="midnightblue" stroke="midnightblue" points="290.76,-33.31 299.87,-27.9 289.38,-26.44 290.76,-33.31"/>
</g>
<!-- Node4 -->
<g id="node4" class="node">
<title>Node4</title>
<g id="a_node4"><a xlink:href="structflow_1_1net__flow_1_1Low__lvl__packet.html#a37c9c6b04502d73defb803c1efabdf63" target="_top" xlink:title="Returns a brief (a few characters) string description of the given packet type given as type_index(ty...">
<polygon fill="white" stroke="black" points="436,-54.5 436,-89.5 532,-89.5 532,-54.5 436,-54.5"/>
<text text-anchor="start" x="444" y="-79.1" font-family="Helvetica,sans-Serif" font-size="8.00">flow::net_flow::Low</text>
<text text-anchor="start" x="444" y="-70.1" font-family="Helvetica,sans-Serif" font-size="8.00">_lvl_packet::type_id</text>
<text text-anchor="middle" x="484" y="-61.1" font-family="Helvetica,sans-Serif" font-size="8.00">_to_str</text>
</a>
</g>
</g>
<!-- Node3&#45;&gt;Node4 -->
<g id="edge3" class="edge">
<title>Node3&#45;&gt;Node4</title>
<path fill="none" stroke="midnightblue" d="M400.15,-72C408.49,-72 417.21,-72 425.74,-72"/>
<polygon fill="midnightblue" stroke="midnightblue" points="426,-75.5 436,-72 426,-68.5 426,-75.5"/>
</g>
</g>
</svg>
