<?xml version="1.0" encoding="UTF-8" standalone="no"?>
<!DOCTYPE svg PUBLIC "-//W3C//DTD SVG 1.1//EN"
 "http://www.w3.org/Graphics/SVG/1.1/DTD/svg11.dtd">
<!-- Generated by graphviz version 2.43.0 (0)
 -->
<!-- Title: flow::async::Task_qing_thread Pages: 1 -->
<svg width="1099pt" height="290pt"
 viewBox="0.00 0.00 1099.00 290.00" xmlns="http://www.w3.org/2000/svg" xmlns:xlink="http://www.w3.org/1999/xlink">
<g id="graph0" class="graph" transform="scale(1 1) rotate(0) translate(4 286)">
<title>flow::async::Task_qing_thread</title>
<polygon fill="white" stroke="transparent" points="-4,4 -4,-286 1095,-286 1095,4 -4,4"/>
<!-- Node1 -->
<g id="node1" class="node">
<title>Node1</title>
<g id="a_node1"><a xlink:title="Internally used building block of various concrete Concurrent_task_loop subclasses that encapsulates ...">
<polygon fill="#bfbfbf" stroke="black" points="982,-93 982,-119 1091,-119 1091,-93 982,-93"/>
<text text-anchor="start" x="990" y="-108.6" font-family="Helvetica,sans-Serif" font-size="8.00">flow::async::Task_qing</text>
<text text-anchor="middle" x="1036.5" y="-99.6" font-family="Helvetica,sans-Serif" font-size="8.00">_thread</text>
</a>
</g>
</g>
<!-- Node2 -->
<g id="node2" class="node">
<title>Node2</title>
<g id="a_node2"><a xlink:href="classflow_1_1log_1_1Log__context.html" target="_top" xlink:title="Convenience class that simply stores a Logger and/or Component passed into a constructor; and returns...">
<polygon fill="white" stroke="black" points="744.5,-154.5 744.5,-171.5 851.5,-171.5 851.5,-154.5 744.5,-154.5"/>
<text text-anchor="middle" x="798" y="-161.1" font-family="Helvetica,sans-Serif" font-size="8.00">flow::log::Log_context</text>
</a>
</g>
</g>
<!-- Node2&#45;&gt;Node1 -->
<g id="edge1" class="edge">
<title>Node2&#45;&gt;Node1</title>
<path fill="none" stroke="midnightblue" d="M861.76,-153.68C892.8,-148.45 930.66,-141.13 964,-132 976.99,-128.44 990.98,-123.59 1003.11,-119.04"/>
<polygon fill="midnightblue" stroke="midnightblue" points="860.81,-150.29 851.52,-155.38 861.95,-157.2 860.81,-150.29"/>
</g>
<!-- Node3 -->
<g id="node3" class="node">
<title>Node3</title>
<g id="a_node3"><a xlink:href="classflow_1_1log_1_1Logger.html" target="_top" xlink:title="Interface that the user should implement, passing the implementing Logger into logging classes (Flow&#39;...">
<polygon fill="white" stroke="black" points="542.5,-141.5 542.5,-158.5 628.5,-158.5 628.5,-141.5 542.5,-141.5"/>
<text text-anchor="middle" x="585.5" y="-148.1" font-family="Helvetica,sans-Serif" font-size="8.00">flow::log::Logger</text>
</a>
</g>
</g>
<!-- Node3&#45;&gt;Node2 -->
<g id="edge2" class="edge">
<title>Node3&#45;&gt;Node2</title>
<path fill="none" stroke="#9a32cd" stroke-dasharray="5,2" d="M638.69,-153.22C670.82,-155.21 711.88,-157.74 744.14,-159.74"/>
<polygon fill="#9a32cd" stroke="#9a32cd" points="638.79,-149.72 628.59,-152.6 638.36,-156.71 638.79,-149.72"/>
<text text-anchor="middle" x="686.5" y="-160.6" font-family="Helvetica,sans-Serif" font-size="8.00"> m_logger</text>
</g>
<!-- Node4 -->
<g id="node4" class="node">
<title>Node4</title>
<g id="a_node4"><a xlink:href="classflow_1_1util_1_1Null__interface.html" target="_top" xlink:title="An empty interface, consisting of nothing but a default virtual destructor, intended as a boiler&#45;plat...">
<polygon fill="white" stroke="black" points="268,-109.5 268,-126.5 382,-126.5 382,-109.5 268,-109.5"/>
<text text-anchor="middle" x="325" y="-116.1" font-family="Helvetica,sans-Serif" font-size="8.00">flow::util::Null_interface</text>
</a>
</g>
</g>
<!-- Node4&#45;&gt;Node3 -->
<g id="edge3" class="edge">
<title>Node4&#45;&gt;Node3</title>
<path fill="none" stroke="midnightblue" d="M392.23,-126.2C439.42,-132.04 501.46,-139.72 542.13,-144.76"/>
<polygon fill="midnightblue" stroke="midnightblue" points="392.44,-122.7 382.09,-124.94 391.58,-129.65 392.44,-122.7"/>
</g>
<!-- Node5 -->
<g id="node5" class="node">
<title>Node5</title>
<g id="a_node5"><a xlink:href="classflow_1_1util_1_1Unique__id__holder.html" target="_top" xlink:title="Each object of this class stores (at construction) and returns (on demand) a numeric ID unique from a...">
<polygon fill="white" stroke="black" points="281.5,-146 281.5,-172 368.5,-172 368.5,-146 281.5,-146"/>
<text text-anchor="start" x="289.5" y="-161.6" font-family="Helvetica,sans-Serif" font-size="8.00">flow::util::Unique</text>
<text text-anchor="middle" x="325" y="-152.6" font-family="Helvetica,sans-Serif" font-size="8.00">_id_holder</text>
</a>
</g>
</g>
<!-- Node5&#45;&gt;Node3 -->
<g id="edge4" class="edge">
<title>Node5&#45;&gt;Node3</title>
<path fill="none" stroke="midnightblue" d="M378.93,-157.16C427.19,-155.48 497.57,-153.03 542.18,-151.47"/>
<polygon fill="midnightblue" stroke="midnightblue" points="378.56,-153.67 368.69,-157.51 378.8,-160.66 378.56,-153.67"/>
</g>
<!-- Node6 -->
<g id="node6" class="node">
<title>Node6</title>
<g id="a_node6"><a xlink:title=" ">
<polygon fill="white" stroke="#bfbfbf" points="0,-145.5 0,-162.5 50,-162.5 50,-145.5 0,-145.5"/>
<text text-anchor="middle" x="25" y="-152.1" font-family="Helvetica,sans-Serif" font-size="8.00">uint64_t</text>
</a>
</g>
</g>
<!-- Node6&#45;&gt;Node5 -->
<g id="edge5" class="edge">
<title>Node6&#45;&gt;Node5</title>
<path fill="none" stroke="#9a32cd" stroke-dasharray="5,2" d="M60.61,-157.54C63.11,-157.72 65.59,-157.88 68,-158 143.01,-161.82 230.55,-161.03 281.39,-160.06"/>
<polygon fill="#9a32cd" stroke="#9a32cd" points="60.66,-154.03 50.4,-156.69 60.08,-161.01 60.66,-154.03"/>
<text text-anchor="middle" x="147.5" y="-162.6" font-family="Helvetica,sans-Serif" font-size="8.00"> m_id</text>
</g>
<!-- Node7 -->
<g id="node7" class="node">
<title>Node7</title>
<g id="a_node7"><a xlink:title=" ">
<polygon fill="white" stroke="black" points="100,-122.5 100,-139.5 195,-139.5 195,-122.5 100,-122.5"/>
<text text-anchor="middle" x="147.5" y="-129.1" font-family="Helvetica,sans-Serif" font-size="8.00">std::atomic&lt; id_t &gt;</text>
</a>
</g>
</g>
<!-- Node6&#45;&gt;Node7 -->
<g id="edge7" class="edge">
<title>Node6&#45;&gt;Node7</title>
<path fill="none" stroke="#9a32cd" stroke-dasharray="5,2" d="M60.04,-147.5C73.06,-145.02 88.11,-142.14 101.97,-139.5"/>
<polygon fill="#9a32cd" stroke="#9a32cd" points="59.26,-144.09 50.1,-149.4 60.57,-150.96 59.26,-144.09"/>
<text text-anchor="middle" x="75" y="-147.6" font-family="Helvetica,sans-Serif" font-size="8.00"> ptr</text>
</g>
<!-- Node7&#45;&gt;Node5 -->
<g id="edge6" class="edge">
<title>Node7&#45;&gt;Node5</title>
<path fill="none" stroke="#9a32cd" stroke-dasharray="5,2" d="M205.08,-140.03C229.87,-143.98 258.48,-148.55 281.43,-152.21"/>
<polygon fill="#9a32cd" stroke="#9a32cd" points="205.5,-136.55 195.07,-138.43 204.39,-143.46 205.5,-136.55"/>
<text text-anchor="middle" x="231.5" y="-148.6" font-family="Helvetica,sans-Serif" font-size="8.00"> s_last_id</text>
</g>
<!-- Node8 -->
<g id="node8" class="node">
<title>Node8</title>
<g id="a_node8"><a xlink:title=" ">
<polygon fill="white" stroke="#bfbfbf" points="275.5,-191.5 275.5,-208.5 374.5,-208.5 374.5,-191.5 275.5,-191.5"/>
<text text-anchor="middle" x="325" y="-198.1" font-family="Helvetica,sans-Serif" font-size="8.00">boost::noncopyable</text>
</a>
</g>
</g>
<!-- Node8&#45;&gt;Node1 -->
<g id="edge13" class="edge">
<title>Node8&#45;&gt;Node1</title>
<path fill="none" stroke="#8b1a1a" d="M384.71,-201.95C483.56,-204.34 689.26,-205.44 861,-181 907.74,-174.35 920.97,-174.43 964,-155 984.85,-145.59 1006.15,-130.08 1020.01,-119.03"/>
<polygon fill="#8b1a1a" stroke="#8b1a1a" points="384.71,-198.45 374.62,-201.7 384.53,-205.45 384.71,-198.45"/>
</g>
<!-- Node8&#45;&gt;Node3 -->
<g id="edge8" class="edge">
<title>Node8&#45;&gt;Node3</title>
<path fill="none" stroke="#8b1a1a" d="M380.1,-189.54C428.34,-180.2 498,-166.73 542.25,-158.17"/>
<polygon fill="#8b1a1a" stroke="#8b1a1a" points="379.3,-186.13 370.14,-191.46 380.63,-193 379.3,-186.13"/>
</g>
<!-- Node9 -->
<g id="node9" class="node">
<title>Node9</title>
<g id="a_node9"><a xlink:title=" ">
<polygon fill="white" stroke="#bfbfbf" points="278,-64 278,-90 372,-90 372,-64 278,-64"/>
<text text-anchor="start" x="286" y="-79.6" font-family="Helvetica,sans-Serif" font-size="8.00">thread_specific_ptr</text>
<text text-anchor="middle" x="325" y="-70.6" font-family="Helvetica,sans-Serif" font-size="8.00">&lt; std::string &gt;</text>
</a>
</g>
</g>
<!-- Node9&#45;&gt;Node3 -->
<g id="edge9" class="edge">
<title>Node9&#45;&gt;Node3</title>
<path fill="none" stroke="#9a32cd" stroke-dasharray="5,2" d="M381.93,-83.69C420.14,-89.28 471.53,-98.84 515,-114 535.4,-121.12 557.27,-133.28 570.91,-141.48"/>
<polygon fill="#9a32cd" stroke="#9a32cd" points="382.41,-80.22 372.02,-82.28 381.43,-87.15 382.41,-80.22"/>
<text text-anchor="middle" x="457.5" y="-116.6" font-family="Helvetica,sans-Serif" font-size="8.00"> s_this_thread_nickname_ptr</text>
</g>
<!-- Node10 -->
<g id="node10" class="node">
<title>Node10</title>
<g id="a_node10"><a xlink:href="classflow_1_1log_1_1Component.html" target="_top" xlink:title="A light&#45;weight class, each object storing a component payload encoding an enum value from enum type o...">
<polygon fill="white" stroke="black" points="533,-228.5 533,-245.5 638,-245.5 638,-228.5 533,-228.5"/>
<text text-anchor="middle" x="585.5" y="-235.1" font-family="Helvetica,sans-Serif" font-size="8.00">flow::log::Component</text>
</a>
</g>
</g>
<!-- Node10&#45;&gt;Node2 -->
<g id="edge10" class="edge">
<title>Node10&#45;&gt;Node2</title>
<path fill="none" stroke="#9a32cd" stroke-dasharray="5,2" d="M620.72,-224.97C663.35,-209.98 735.14,-184.75 772.6,-171.58"/>
<polygon fill="#9a32cd" stroke="#9a32cd" points="619.33,-221.75 611.06,-228.37 621.65,-228.35 619.33,-221.75"/>
<text text-anchor="middle" x="686.5" y="-212.6" font-family="Helvetica,sans-Serif" font-size="8.00"> m_component</text>
</g>
<!-- Node11 -->
<g id="node11" class="node">
<title>Node11</title>
<g id="a_node11"><a xlink:title=" ">
<polygon fill="white" stroke="#bfbfbf" points="282.5,-228.5 282.5,-245.5 367.5,-245.5 367.5,-228.5 282.5,-228.5"/>
<text text-anchor="middle" x="325" y="-235.1" font-family="Helvetica,sans-Serif" font-size="8.00">type_info const *</text>
</a>
</g>
</g>
<!-- Node11&#45;&gt;Node10 -->
<g id="edge11" class="edge">
<title>Node11&#45;&gt;Node10</title>
<path fill="none" stroke="#9a32cd" stroke-dasharray="5,2" d="M377.68,-237C422.74,-237 487.76,-237 532.82,-237"/>
<polygon fill="#9a32cd" stroke="#9a32cd" points="377.53,-233.5 367.53,-237 377.53,-240.5 377.53,-233.5"/>
<text text-anchor="middle" x="457.5" y="-239.6" font-family="Helvetica,sans-Serif" font-size="8.00"> m_payload_type_or_null</text>
</g>
<!-- Node12 -->
<g id="node12" class="node">
<title>Node12</title>
<g id="a_node12"><a xlink:title=" ">
<polygon fill="white" stroke="#bfbfbf" points="291,-264.5 291,-281.5 359,-281.5 359,-264.5 291,-264.5"/>
<text text-anchor="middle" x="325" y="-271.1" font-family="Helvetica,sans-Serif" font-size="8.00">unsigned int</text>
</a>
</g>
</g>
<!-- Node12&#45;&gt;Node10 -->
<g id="edge12" class="edge">
<title>Node12&#45;&gt;Node10</title>
<path fill="none" stroke="#9a32cd" stroke-dasharray="5,2" d="M369.5,-268.5C407.88,-264.35 465.28,-257.67 515,-250 523.49,-248.69 532.54,-247.12 541.2,-245.54"/>
<polygon fill="#9a32cd" stroke="#9a32cd" points="368.78,-265.06 359.21,-269.61 369.52,-272.02 368.78,-265.06"/>
<text text-anchor="start" x="411" y="-275.6" font-family="Helvetica,sans-Serif" font-size="8.00"> m_payload_enum_raw</text>
<text text-anchor="middle" x="457.5" y="-266.6" font-family="Helvetica,sans-Serif" font-size="8.00">_value</text>
</g>
<!-- Node13 -->
<g id="node13" class="node">
<title>Node13</title>
<g id="a_node13"><a xlink:title=" ">
<polygon fill="white" stroke="#bfbfbf" points="759.5,-118.5 759.5,-135.5 836.5,-135.5 836.5,-118.5 759.5,-118.5"/>
<text text-anchor="middle" x="798" y="-125.1" font-family="Helvetica,sans-Serif" font-size="8.00">static const int</text>
</a>
</g>
</g>
<!-- Node13&#45;&gt;Node1 -->
<g id="edge14" class="edge">
<title>Node13&#45;&gt;Node1</title>
<path fill="none" stroke="#9a32cd" stroke-dasharray="5,2" d="M846.79,-122.76C885.84,-119.29 941,-114.39 981.61,-110.79"/>
<polygon fill="#9a32cd" stroke="#9a32cd" points="846.39,-119.28 836.74,-123.65 847.01,-126.25 846.39,-119.28"/>
<text text-anchor="middle" x="921.5" y="-121.6" font-family="Helvetica,sans-Serif" font-size="8.00"> S_BAD_EXIT</text>
</g>
<!-- Node14 -->
<g id="node14" class="node">
<title>Node14</title>
<g id="a_node14"><a xlink:title=" ">
<polygon fill="white" stroke="#bfbfbf" points="745,-73 745,-99 851,-99 851,-73 745,-73"/>
<text text-anchor="start" x="753" y="-88.6" font-family="Helvetica,sans-Serif" font-size="8.00">shared_ptr&lt; util::Task</text>
<text text-anchor="middle" x="798" y="-79.6" font-family="Helvetica,sans-Serif" font-size="8.00">_engine &gt;</text>
</a>
</g>
</g>
<!-- Node14&#45;&gt;Node1 -->
<g id="edge15" class="edge">
<title>Node14&#45;&gt;Node1</title>
<path fill="none" stroke="#9a32cd" stroke-dasharray="5,2" d="M861.31,-88.62C892.24,-90.22 930.13,-92.61 964,-96 969.74,-96.57 975.72,-97.26 981.68,-98.01"/>
<polygon fill="#9a32cd" stroke="#9a32cd" points="861.27,-85.11 851.1,-88.11 860.92,-92.11 861.27,-85.11"/>
<text text-anchor="middle" x="921.5" y="-98.6" font-family="Helvetica,sans-Serif" font-size="8.00"> m_task_engine</text>
</g>
<!-- Node15 -->
<g id="node15" class="node">
<title>Node15</title>
<g id="a_node15"><a xlink:href="classbool.html" target="_top" xlink:title=" ">
<polygon fill="white" stroke="#bfbfbf" points="780.5,-36.5 780.5,-53.5 815.5,-53.5 815.5,-36.5 780.5,-36.5"/>
<text text-anchor="middle" x="798" y="-43.1" font-family="Helvetica,sans-Serif" font-size="8.00">bool</text>
</a>
</g>
</g>
<!-- Node15&#45;&gt;Node1 -->
<g id="edge16" class="edge">
<title>Node15&#45;&gt;Node1</title>
<path fill="none" stroke="#9a32cd" stroke-dasharray="5,2" d="M825.87,-48.27C858.88,-52.69 916.34,-61.7 964,-76 978.96,-80.49 995.04,-87.07 1008.16,-92.92"/>
<polygon fill="#9a32cd" stroke="#9a32cd" points="826.04,-44.76 815.67,-46.95 825.14,-51.7 826.04,-44.76"/>
<text text-anchor="middle" x="921.5" y="-78.6" font-family="Helvetica,sans-Serif" font-size="8.00"> m_own_task_engine</text>
</g>
<!-- Node16 -->
<g id="node16" class="node">
<title>Node16</title>
<g id="a_node16"><a xlink:title=" ">
<polygon fill="white" stroke="#bfbfbf" points="735,-0.5 735,-17.5 861,-17.5 861,-0.5 735,-0.5"/>
<text text-anchor="middle" x="798" y="-7.1" font-family="Helvetica,sans-Serif" font-size="8.00">unique_ptr&lt; util::Thread &gt;</text>
</a>
</g>
</g>
<!-- Node16&#45;&gt;Node1 -->
<g id="edge17" class="edge">
<title>Node16&#45;&gt;Node1</title>
<path fill="none" stroke="#9a32cd" stroke-dasharray="5,2" d="M871.02,-15.6C900.94,-20.4 935.31,-28.69 964,-43 988.72,-55.33 1011.62,-78.39 1024.55,-92.92"/>
<polygon fill="#9a32cd" stroke="#9a32cd" points="871.46,-12.13 861.05,-14.1 870.42,-19.05 871.46,-12.13"/>
<text text-anchor="middle" x="921.5" y="-45.6" font-family="Helvetica,sans-Serif" font-size="8.00"> m_worker_thread</text>
</g>
</g>
</svg>
