<?xml version="1.0" encoding="UTF-8" standalone="no"?>
<!DOCTYPE svg PUBLIC "-//W3C//DTD SVG 1.1//EN"
 "http://www.w3.org/Graphics/SVG/1.1/DTD/svg11.dtd">
<!-- Generated by graphviz version 2.43.0 (0)
 -->
<!-- Title: flow::async::Segregated_thread_task_loop::~Segregated_thread_task_loop Pages: 1 -->
<svg width="312pt" height="44pt"
 viewBox="0.00 0.00 312.00 44.00" xmlns="http://www.w3.org/2000/svg" xmlns:xlink="http://www.w3.org/1999/xlink">
<g id="graph0" class="graph" transform="scale(1 1) rotate(0) translate(4 40)">
<title>flow::async::Segregated_thread_task_loop::~Segregated_thread_task_loop</title>
<polygon fill="white" stroke="transparent" points="-4,4 -4,-40 308,-40 308,4 -4,4"/>
<!-- Node1 -->
<g id="node1" class="node">
<title>Node1</title>
<g id="a_node1"><a xlink:title="See superclass destructor.">
<polygon fill="#bfbfbf" stroke="black" points="0,-0.5 0,-35.5 151,-35.5 151,-0.5 0,-0.5"/>
<text text-anchor="start" x="8" y="-25.1" font-family="Helvetica,sans-Serif" font-size="8.00">flow::async::Segregated</text>
<text text-anchor="start" x="8" y="-16.1" font-family="Helvetica,sans-Serif" font-size="8.00">_thread_task_loop::~Segregated</text>
<text text-anchor="middle" x="75.5" y="-7.1" font-family="Helvetica,sans-Serif" font-size="8.00">_thread_task_loop</text>
</a>
</g>
</g>
<!-- Node2 -->
<g id="node2" class="node">
<title>Node2</title>
<g id="a_node2"><a xlink:href="classflow_1_1async_1_1Segregated__thread__task__loop.html#a8d007bcbedf76eb13d4e1a2df087a470" target="_top" xlink:title="Implements superclass API.">
<polygon fill="white" stroke="black" points="187,-5 187,-31 304,-31 304,-5 187,-5"/>
<text text-anchor="start" x="195" y="-20.6" font-family="Helvetica,sans-Serif" font-size="8.00">flow::async::Segregated</text>
<text text-anchor="middle" x="245.5" y="-11.6" font-family="Helvetica,sans-Serif" font-size="8.00">_thread_task_loop::stop</text>
</a>
</g>
</g>
<!-- Node1&#45;&gt;Node2 -->
<g id="edge1" class="edge">
<title>Node1&#45;&gt;Node2</title>
<path fill="none" stroke="midnightblue" d="M151.17,-18C159.7,-18 168.37,-18 176.8,-18"/>
<polygon fill="midnightblue" stroke="midnightblue" points="176.96,-21.5 186.96,-18 176.96,-14.5 176.96,-21.5"/>
</g>
</g>
</svg>
