<?xml version="1.0" encoding="UTF-8" standalone="no"?>
<!DOCTYPE svg PUBLIC "-//W3C//DTD SVG 1.1//EN"
 "http://www.w3.org/Graphics/SVG/1.1/DTD/svg11.dtd">
<!-- Generated by graphviz version 2.43.0 (0)
 -->
<!-- Title: flow::net_flow::Event_set::ev_type_to_socks_map_entry_is_empty Pages: 1 -->
<svg width="1561pt" height="696pt"
 viewBox="0.00 0.00 1561.00 696.00" xmlns="http://www.w3.org/2000/svg" xmlns:xlink="http://www.w3.org/1999/xlink">
<g id="graph0" class="graph" transform="scale(1 1) rotate(0) translate(4 692)">
<title>flow::net_flow::Event_set::ev_type_to_socks_map_entry_is_empty</title>
<polygon fill="white" stroke="transparent" points="-4,4 -4,-692 1557,-692 1557,4 -4,4"/>
<!-- Node1 -->
<g id="node1" class="node">
<title>Node1</title>
<g id="a_node1"><a xlink:title="Functional helper that checks whether a given pair in an Ev_type_to_socks_map contains an empty set o...">
<polygon fill="#bfbfbf" stroke="black" points="1443,-530 1443,-565 1553,-565 1553,-530 1443,-530"/>
<text text-anchor="start" x="1451" y="-554.6" font-family="Helvetica,sans-Serif" font-size="8.00">flow::net_flow::Event</text>
<text text-anchor="start" x="1451" y="-545.6" font-family="Helvetica,sans-Serif" font-size="8.00">_set::ev_type_to_socks</text>
<text text-anchor="middle" x="1498" y="-536.6" font-family="Helvetica,sans-Serif" font-size="8.00">_map_entry_is_empty</text>
</a>
</g>
</g>
<!-- Node2 -->
<g id="node2" class="node">
<title>Node2</title>
<g id="a_node2"><a xlink:href="classflow_1_1net__flow_1_1Event__set.html#a43dfb881ab3a9488a6a60dd83ad21c85" target="_top" xlink:title="Moves object to State::S_WAITING state, saves the given handler to be executed later (in a different,...">
<polygon fill="white" stroke="black" points="1292,-643.5 1292,-669.5 1394,-669.5 1394,-643.5 1292,-643.5"/>
<text text-anchor="start" x="1300" y="-659.1" font-family="Helvetica,sans-Serif" font-size="8.00">flow::net_flow::Event</text>
<text text-anchor="middle" x="1343" y="-650.1" font-family="Helvetica,sans-Serif" font-size="8.00">_set::async_wait</text>
</a>
</g>
</g>
<!-- Node1&#45;&gt;Node2 -->
<g id="edge1" class="edge">
<title>Node1&#45;&gt;Node2</title>
<path fill="none" stroke="midnightblue" d="M1473.38,-572.6C1456.16,-589.88 1431.62,-612.53 1407,-628.5 1398.26,-634.17 1388.19,-639.22 1378.7,-643.41"/>
<polygon fill="midnightblue" stroke="midnightblue" points="1476.25,-574.67 1480.75,-565.07 1471.25,-569.77 1476.25,-574.67"/>
</g>
<!-- Node3 -->
<g id="node3" class="node">
<title>Node3</title>
<g id="a_node3"><a xlink:href="classflow_1_1net__flow_1_1Event__set.html#a13a17c404f0ce43da5fec53a550da9be" target="_top" xlink:title="Same as the public sync_wait(max_wait) but uses a Fine_clock&#45;based Fine_duration non&#45;template type fo...">
<polygon fill="white" stroke="black" points="1118,-643.5 1118,-669.5 1220,-669.5 1220,-643.5 1118,-643.5"/>
<text text-anchor="start" x="1126" y="-659.1" font-family="Helvetica,sans-Serif" font-size="8.00">flow::net_flow::Event</text>
<text text-anchor="middle" x="1169" y="-650.1" font-family="Helvetica,sans-Serif" font-size="8.00">_set::sync_wait_impl</text>
</a>
</g>
</g>
<!-- Node1&#45;&gt;Node3 -->
<g id="edge42" class="edge">
<title>Node1&#45;&gt;Node3</title>
<path fill="none" stroke="midnightblue" d="M1459.34,-570.17C1443.57,-578.97 1424.8,-588.58 1407,-595.5 1344.44,-619.83 1268.82,-637.37 1220.1,-647.22"/>
<polygon fill="midnightblue" stroke="midnightblue" points="1461.28,-573.09 1468.25,-565.1 1457.82,-567 1461.28,-573.09"/>
</g>
<!-- Node5 -->
<g id="node5" class="node">
<title>Node5</title>
<g id="a_node5"><a xlink:href="classflow_1_1net__flow_1_1Node.html#a8a4ddf81ddbeab1f740940c4cc0d3625" target="_top" xlink:title="For each WAITING Event_set within the Node: checks for any events that hold, and if any do hold,...">
<polygon fill="white" stroke="black" points="1279,-559.5 1279,-585.5 1407,-585.5 1407,-559.5 1279,-559.5"/>
<text text-anchor="start" x="1287" y="-575.1" font-family="Helvetica,sans-Serif" font-size="8.00">flow::net_flow::Node</text>
<text text-anchor="middle" x="1343" y="-566.1" font-family="Helvetica,sans-Serif" font-size="8.00">::event_set_all_check_delta</text>
</a>
</g>
</g>
<!-- Node1&#45;&gt;Node5 -->
<g id="edge5" class="edge">
<title>Node1&#45;&gt;Node5</title>
<path fill="none" stroke="midnightblue" d="M1432.49,-558.04C1424.08,-559.42 1415.47,-560.82 1407.08,-562.19"/>
<polygon fill="midnightblue" stroke="midnightblue" points="1433.32,-561.45 1442.63,-556.38 1432.19,-554.54 1433.32,-561.45"/>
</g>
<!-- Node51 -->
<g id="node27" class="node">
<title>Node51</title>
<g id="a_node27"><a xlink:href="classflow_1_1net__flow_1_1Node.html#afdefbbb3c3b9f2f2866f6b4c770fa62d" target="_top" xlink:title="Check whether given Event_set contains any active sockets (Event_set::m_can); if so,...">
<polygon fill="white" stroke="black" points="1290,-505 1290,-540 1396,-540 1396,-505 1290,-505"/>
<text text-anchor="start" x="1298" y="-529.6" font-family="Helvetica,sans-Serif" font-size="8.00">flow::net_flow::Node</text>
<text text-anchor="start" x="1298" y="-520.6" font-family="Helvetica,sans-Serif" font-size="8.00">::event_set_fire_if_got</text>
<text text-anchor="middle" x="1343" y="-511.6" font-family="Helvetica,sans-Serif" font-size="8.00">_events</text>
</a>
</g>
</g>
<!-- Node1&#45;&gt;Node51 -->
<g id="edge37" class="edge">
<title>Node1&#45;&gt;Node51</title>
<path fill="none" stroke="midnightblue" d="M1432.55,-536.97C1420.41,-534.99 1407.85,-532.93 1396.15,-531.02"/>
<polygon fill="midnightblue" stroke="midnightblue" points="1432.19,-540.46 1442.63,-538.62 1433.32,-533.55 1432.19,-540.46"/>
</g>
<!-- Node52 -->
<g id="node28" class="node">
<title>Node52</title>
<g id="a_node28"><a xlink:href="classflow_1_1net__flow_1_1Event__set.html#a314635daf8fdf3805868baff8b42cfc9" target="_top" xlink:title="Returns true if and only if the last wait, if any, detected at least one event.">
<polygon fill="white" stroke="black" points="1289.5,-441.5 1289.5,-467.5 1396.5,-467.5 1396.5,-441.5 1289.5,-441.5"/>
<text text-anchor="start" x="1297.5" y="-457.1" font-family="Helvetica,sans-Serif" font-size="8.00">flow::net_flow::Event</text>
<text text-anchor="middle" x="1343" y="-448.1" font-family="Helvetica,sans-Serif" font-size="8.00">_set::events_detected</text>
</a>
</g>
</g>
<!-- Node1&#45;&gt;Node52 -->
<g id="edge38" class="edge">
<title>Node1&#45;&gt;Node52</title>
<path fill="none" stroke="midnightblue" d="M1459.08,-524.45C1429.64,-506.56 1389.87,-482.38 1365.62,-467.64"/>
<polygon fill="midnightblue" stroke="midnightblue" points="1457.5,-527.59 1467.86,-529.79 1461.13,-521.6 1457.5,-527.59"/>
</g>
<!-- Node53 -->
<g id="node29" class="node">
<title>Node53</title>
<g id="a_node29"><a xlink:href="classflow_1_1net__flow_1_1Event__set.html#a976144f6e525190344eb4e51620f9fd9" target="_top" xlink:title="Returns true if and only if at least one wanted event for at least one socket is registered (via add_...">
<polygon fill="white" stroke="black" points="1292,-378.5 1292,-404.5 1394,-404.5 1394,-378.5 1292,-378.5"/>
<text text-anchor="start" x="1300" y="-394.1" font-family="Helvetica,sans-Serif" font-size="8.00">flow::net_flow::Event</text>
<text text-anchor="middle" x="1343" y="-385.1" font-family="Helvetica,sans-Serif" font-size="8.00">_set::events_wanted</text>
</a>
</g>
</g>
<!-- Node1&#45;&gt;Node53 -->
<g id="edge40" class="edge">
<title>Node1&#45;&gt;Node53</title>
<path fill="none" stroke="midnightblue" d="M1480.12,-521.15C1463.46,-496.43 1436.3,-459.35 1407,-432.5 1395.26,-421.74 1380.4,-411.93 1368.07,-404.6"/>
<polygon fill="midnightblue" stroke="midnightblue" points="1477.32,-523.26 1485.76,-529.66 1483.15,-519.39 1477.32,-523.26"/>
</g>
<!-- Node2&#45;&gt;Node2 -->
<g id="edge2" class="edge">
<title>Node2&#45;&gt;Node2</title>
<path fill="none" stroke="midnightblue" d="M1370.72,-679.94C1367.64,-684.64 1358.4,-688 1343,-688 1317.73,-688 1309.05,-678.96 1316.94,-669.77"/>
<polygon fill="midnightblue" stroke="midnightblue" points="1374.12,-679.07 1369.06,-669.77 1367.21,-680.2 1374.12,-679.07"/>
</g>
<!-- Node2&#45;&gt;Node3 -->
<g id="edge3" class="edge">
<title>Node2&#45;&gt;Node3</title>
<path fill="none" stroke="midnightblue" d="M1281.53,-656.5C1261.5,-656.5 1239.45,-656.5 1220.27,-656.5"/>
<polygon fill="midnightblue" stroke="midnightblue" points="1281.79,-660 1291.79,-656.5 1281.79,-653 1281.79,-660"/>
</g>
<!-- Node4 -->
<g id="node4" class="node">
<title>Node4</title>
<g id="a_node4"><a xlink:href="classflow_1_1net__flow_1_1Event__set.html#a7272a3b8975ff72edd3db3f777e930f1" target="_top" xlink:title="Same as the other sync_wait() but will stop waiting if the timeout given as argument expires.">
<polygon fill="white" stroke="black" points="944,-643.5 944,-669.5 1046,-669.5 1046,-643.5 944,-643.5"/>
<text text-anchor="start" x="952" y="-659.1" font-family="Helvetica,sans-Serif" font-size="8.00">flow::net_flow::Event</text>
<text text-anchor="middle" x="995" y="-650.1" font-family="Helvetica,sans-Serif" font-size="8.00">_set::sync_wait</text>
</a>
</g>
</g>
<!-- Node3&#45;&gt;Node4 -->
<g id="edge4" class="edge">
<title>Node3&#45;&gt;Node4</title>
<path fill="none" stroke="midnightblue" d="M1107.53,-656.5C1087.5,-656.5 1065.45,-656.5 1046.27,-656.5"/>
<polygon fill="midnightblue" stroke="midnightblue" points="1107.79,-660 1117.79,-656.5 1107.79,-653 1107.79,-660"/>
</g>
<!-- Node6 -->
<g id="node6" class="node">
<title>Node6</title>
<g id="a_node6"><a xlink:href="classflow_1_1net__flow_1_1Node.html#ade49e7bc7202a0adf33fec2d93d1b177" target="_top" xlink:title="A thread W method that handles the transition of the given socket from OPEN (any sub&#45;state) to CLOSED...">
<polygon fill="white" stroke="black" points="1095,-199.5 1095,-225.5 1243,-225.5 1243,-199.5 1095,-199.5"/>
<text text-anchor="start" x="1103" y="-215.1" font-family="Helvetica,sans-Serif" font-size="8.00">flow::net_flow::Node</text>
<text text-anchor="middle" x="1169" y="-206.1" font-family="Helvetica,sans-Serif" font-size="8.00">::close_connection_immediately</text>
</a>
</g>
</g>
<!-- Node5&#45;&gt;Node6 -->
<g id="edge6" class="edge">
<title>Node5&#45;&gt;Node6</title>
<path fill="none" stroke="midnightblue" d="M1283.56,-553.66C1281.95,-552.36 1280.42,-550.98 1279,-549.5 1185.57,-452.52 1172.22,-274.84 1170.32,-225.51"/>
<polygon fill="midnightblue" stroke="midnightblue" points="1281.92,-556.77 1292.18,-559.42 1285.81,-550.95 1281.92,-556.77"/>
</g>
<!-- Node21 -->
<g id="node12" class="node">
<title>Node21</title>
<g id="a_node12"><a xlink:href="classflow_1_1net__flow_1_1Node.html#a10a92f11a2c9f218cdd9a55f282e79b1" target="_top" xlink:title="Thread W implemention of send(): synchronously or asynchronously send the contents of sock&#45;&gt;m_snd_buf...">
<polygon fill="white" stroke="red" points="769.5,-521.5 769.5,-547.5 870.5,-547.5 870.5,-521.5 769.5,-521.5"/>
<text text-anchor="start" x="777.5" y="-537.1" font-family="Helvetica,sans-Serif" font-size="8.00">flow::net_flow::Node</text>
<text text-anchor="middle" x="820" y="-528.1" font-family="Helvetica,sans-Serif" font-size="8.00">::send_worker</text>
</a>
</g>
</g>
<!-- Node5&#45;&gt;Node21 -->
<g id="edge36" class="edge">
<title>Node5&#45;&gt;Node21</title>
<path fill="none" stroke="midnightblue" d="M1268.78,-564.82C1260.09,-563.99 1251.35,-563.2 1243,-562.5 1108.55,-551.25 949.7,-541.73 870.74,-537.24"/>
<polygon fill="midnightblue" stroke="midnightblue" points="1268.63,-568.32 1278.92,-565.8 1269.3,-561.35 1268.63,-568.32"/>
</g>
<!-- Node41 -->
<g id="node21" class="node">
<title>Node41</title>
<g id="a_node21"><a xlink:href="classflow_1_1net__flow_1_1Node.html#a29d02f9e302c7b06288ff1c644fa8d65" target="_top" xlink:title="Handles a just&#45;deserialized, just&#45;demultiplexed low&#45;level SYN_ACK_ACK packet delivered to the given p...">
<polygon fill="white" stroke="black" points="604,-167 604,-202 709,-202 709,-167 604,-167"/>
<text text-anchor="start" x="612" y="-191.6" font-family="Helvetica,sans-Serif" font-size="8.00">flow::net_flow::Node</text>
<text text-anchor="start" x="612" y="-182.6" font-family="Helvetica,sans-Serif" font-size="8.00">::handle_syn_ack_ack</text>
<text text-anchor="middle" x="656.5" y="-173.6" font-family="Helvetica,sans-Serif" font-size="8.00">_to_syn_rcvd</text>
</a>
</g>
</g>
<!-- Node5&#45;&gt;Node41 -->
<g id="edge32" class="edge">
<title>Node5&#45;&gt;Node41</title>
<path fill="none" stroke="midnightblue" d="M1268.48,-581.36C1126.84,-596.75 823.18,-621.08 745,-557.5 688.36,-511.44 664.52,-270.15 658.88,-202.28"/>
<polygon fill="midnightblue" stroke="midnightblue" points="1269.25,-584.8 1278.81,-580.22 1268.49,-577.84 1269.25,-584.8"/>
</g>
<!-- Node49 -->
<g id="node25" class="node">
<title>Node49</title>
<g id="a_node25"><a xlink:href="classflow_1_1net__flow_1_1Node.html#adf6d71af81def2d030f0fef159c1b06d" target="_top" xlink:title="Handles the transition of the given server socket from S_LISTENING/S_CLOSING to S_CLOSED (including e...">
<polygon fill="white" stroke="black" points="1117.5,-41 1117.5,-76 1220.5,-76 1220.5,-41 1117.5,-41"/>
<text text-anchor="start" x="1125.5" y="-65.6" font-family="Helvetica,sans-Serif" font-size="8.00">flow::net_flow::Node</text>
<text text-anchor="start" x="1125.5" y="-56.6" font-family="Helvetica,sans-Serif" font-size="8.00">::close_empty_server</text>
<text text-anchor="middle" x="1169" y="-47.6" font-family="Helvetica,sans-Serif" font-size="8.00">_immediately</text>
</a>
</g>
</g>
<!-- Node5&#45;&gt;Node49 -->
<g id="edge30" class="edge">
<title>Node5&#45;&gt;Node49</title>
<path fill="none" stroke="midnightblue" d="M1282.09,-553.01C1280.99,-551.91 1279.96,-550.74 1279,-549.5 1229.82,-486.18 1266.89,-267.04 1243,-190.5 1229.27,-146.5 1199.91,-100.61 1182.91,-76.23"/>
<polygon fill="midnightblue" stroke="midnightblue" points="1280.12,-555.92 1290.11,-559.44 1284.5,-550.46 1280.12,-555.92"/>
</g>
<!-- Node50 -->
<g id="node26" class="node">
<title>Node50</title>
<g id="a_node26"><a xlink:href="classflow_1_1net__flow_1_1Node.html#a0fba26db0055a969f3869014bc5c2bfc" target="_top" xlink:title="Performs all tasks to be performed at the end of low_lvl_recv_and_handle() or async part of async_wai...">
<polygon fill="white" stroke="black" points="456,-268 456,-303 568,-303 568,-268 456,-268"/>
<text text-anchor="start" x="464" y="-292.6" font-family="Helvetica,sans-Serif" font-size="8.00">flow::net_flow::Node</text>
<text text-anchor="start" x="464" y="-283.6" font-family="Helvetica,sans-Serif" font-size="8.00">::perform_accumulated</text>
<text text-anchor="middle" x="512" y="-274.6" font-family="Helvetica,sans-Serif" font-size="8.00">_on_recv_tasks</text>
</a>
</g>
</g>
<!-- Node5&#45;&gt;Node50 -->
<g id="edge33" class="edge">
<title>Node5&#45;&gt;Node50</title>
<path fill="none" stroke="midnightblue" d="M1289.71,-588.39C1271.07,-593.82 1252.38,-598.93 1243,-600.5 1134.56,-618.68 1105.95,-614.5 996,-614.5 996,-614.5 996,-614.5 819,-614.5 647.39,-614.5 544.75,-371.53 519.27,-303.19"/>
<polygon fill="midnightblue" stroke="midnightblue" points="1290.8,-591.72 1299.41,-585.54 1288.83,-585.01 1290.8,-591.72"/>
</g>
<!-- Node7 -->
<g id="node7" class="node">
<title>Node7</title>
<g id="a_node7"><a xlink:href="classflow_1_1net__flow_1_1Node.html#aa5f7c019665d9dd91af0ad6431f8f97d" target="_top" xlink:title="Similar to async_sock_low_lvl_packet_send_paced() except it also calls close_connection_immediately(s...">
<polygon fill="white" stroke="black" points="940,-383.5 940,-427.5 1050,-427.5 1050,-383.5 940,-383.5"/>
<text text-anchor="start" x="948" y="-417.1" font-family="Helvetica,sans-Serif" font-size="8.00">flow::net_flow::Node</text>
<text text-anchor="start" x="948" y="-408.1" font-family="Helvetica,sans-Serif" font-size="8.00">::async_sock_low_lvl</text>
<text text-anchor="start" x="948" y="-399.1" font-family="Helvetica,sans-Serif" font-size="8.00">_packet_send_or_close</text>
<text text-anchor="middle" x="995" y="-390.1" font-family="Helvetica,sans-Serif" font-size="8.00">_immediately</text>
</a>
</g>
</g>
<!-- Node6&#45;&gt;Node7 -->
<g id="edge7" class="edge">
<title>Node6&#45;&gt;Node7</title>
<path fill="none" stroke="midnightblue" d="M1149.39,-233.38C1116.73,-270.03 1049.36,-345.62 1015.84,-383.23"/>
<polygon fill="midnightblue" stroke="midnightblue" points="1152.14,-235.56 1156.18,-225.77 1146.91,-230.9 1152.14,-235.56"/>
</g>
<!-- Node31 -->
<g id="node13" class="node">
<title>Node31</title>
<g id="a_node13"><a xlink:href="classflow_1_1net__flow_1_1Node.html#a1699dfdaf3e5ebe1b1d715a9c306d116" target="_top" xlink:title="Handles a just&#45;received, not&#45;yet&#45;deserialized low&#45;level packet.">
<polygon fill="white" stroke="black" points="461.5,-171.5 461.5,-197.5 562.5,-197.5 562.5,-171.5 461.5,-171.5"/>
<text text-anchor="start" x="469.5" y="-187.1" font-family="Helvetica,sans-Serif" font-size="8.00">flow::net_flow::Node</text>
<text text-anchor="middle" x="512" y="-178.1" font-family="Helvetica,sans-Serif" font-size="8.00">::handle_incoming</text>
</a>
</g>
</g>
<!-- Node6&#45;&gt;Node31 -->
<g id="edge14" class="edge">
<title>Node6&#45;&gt;Node31</title>
<path fill="none" stroke="midnightblue" d="M1141.28,-193.55C1094.22,-161.47 992.31,-97.7 895,-74.5 830.15,-59.04 810.04,-59.86 745,-74.5 660.85,-93.44 571.36,-146.59 532.69,-171.42"/>
<polygon fill="midnightblue" stroke="midnightblue" points="1139.45,-196.54 1149.67,-199.34 1143.43,-190.78 1139.45,-196.54"/>
</g>
<!-- Node37 -->
<g id="node17" class="node">
<title>Node37</title>
<g id="a_node17"><a xlink:href="classflow_1_1net__flow_1_1Node.html#ad608f9bbe76426f4fbf4bf5af908e4e0" target="_top" xlink:title="Placed by receive() onto W during a graceful close, after the Receive buffer had been emptied by the ...">
<polygon fill="white" stroke="black" points="934.5,-238 934.5,-273 1055.5,-273 1055.5,-238 934.5,-238"/>
<text text-anchor="start" x="942.5" y="-262.6" font-family="Helvetica,sans-Serif" font-size="8.00">flow::net_flow::Node</text>
<text text-anchor="start" x="942.5" y="-253.6" font-family="Helvetica,sans-Serif" font-size="8.00">::receive_emptied_rcv</text>
<text text-anchor="middle" x="995" y="-244.6" font-family="Helvetica,sans-Serif" font-size="8.00">_buf_while_disconnecting</text>
</a>
</g>
</g>
<!-- Node6&#45;&gt;Node37 -->
<g id="edge20" class="edge">
<title>Node6&#45;&gt;Node37</title>
<path fill="none" stroke="midnightblue" d="M1105.93,-228.02C1089.57,-232.11 1071.96,-236.51 1055.73,-240.57"/>
<polygon fill="midnightblue" stroke="midnightblue" points="1107.08,-231.34 1115.93,-225.52 1105.38,-224.55 1107.08,-231.34"/>
</g>
<!-- Node38 -->
<g id="node19" class="node">
<title>Node38</title>
<g id="a_node19"><a xlink:href="classflow_1_1net__flow_1_1Node.html#afe70a0c32695e417e7a09e0ba773f151" target="_top" xlink:title="Asynchronously send RST to the other side of the given socket and close_connection_immediately().">
<polygon fill="white" stroke="black" points="931,-167 931,-202 1059,-202 1059,-167 931,-167"/>
<text text-anchor="start" x="939" y="-191.6" font-family="Helvetica,sans-Serif" font-size="8.00">flow::net_flow::Node</text>
<text text-anchor="start" x="939" y="-182.6" font-family="Helvetica,sans-Serif" font-size="8.00">::rst_and_close_connection</text>
<text text-anchor="middle" x="995" y="-173.6" font-family="Helvetica,sans-Serif" font-size="8.00">_immediately</text>
</a>
</g>
</g>
<!-- Node6&#45;&gt;Node38 -->
<g id="edge22" class="edge">
<title>Node6&#45;&gt;Node38</title>
<path fill="none" stroke="midnightblue" d="M1084.56,-198.92C1076.02,-197.53 1067.44,-196.13 1059.17,-194.78"/>
<polygon fill="midnightblue" stroke="midnightblue" points="1084.13,-202.39 1094.56,-200.54 1085.25,-195.48 1084.13,-202.39"/>
</g>
<!-- Node36 -->
<g id="node24" class="node">
<title>Node36</title>
<g id="a_node24"><a xlink:href="classflow_1_1net__flow_1_1Node.html#a5b056ed753b832458f44f537acfe86d7" target="_top" xlink:title="Worker thread W (main event loop) body.">
<polygon fill="white" stroke="black" points="944.5,-0.5 944.5,-26.5 1045.5,-26.5 1045.5,-0.5 944.5,-0.5"/>
<text text-anchor="start" x="952.5" y="-16.1" font-family="Helvetica,sans-Serif" font-size="8.00">flow::net_flow::Node</text>
<text text-anchor="middle" x="995" y="-7.1" font-family="Helvetica,sans-Serif" font-size="8.00">::worker_run</text>
</a>
</g>
</g>
<!-- Node6&#45;&gt;Node36 -->
<g id="edge29" class="edge">
<title>Node6&#45;&gt;Node36</title>
<path fill="none" stroke="midnightblue" d="M1156.13,-190.57C1133.64,-149.62 1084.75,-63.67 1059,-41.5 1052.02,-35.49 1043.53,-30.56 1035.09,-26.61"/>
<polygon fill="midnightblue" stroke="midnightblue" points="1153.14,-192.4 1161.01,-199.5 1159.28,-189.04 1153.14,-192.4"/>
</g>
<!-- Node8 -->
<g id="node8" class="node">
<title>Node8</title>
<g id="a_node8"><a xlink:href="classflow_1_1net__flow_1_1Node.html#a81e50276d0b162f6577adc690e0ef9e0" target="_top" xlink:title="Sends a low&#45;level ACK packet, with all accumulated in Peer_socket::m_rcv_pending_acks of sock individ...">
<polygon fill="white" stroke="black" points="760.5,-476.5 760.5,-502.5 879.5,-502.5 879.5,-476.5 760.5,-476.5"/>
<text text-anchor="start" x="768.5" y="-492.1" font-family="Helvetica,sans-Serif" font-size="8.00">flow::net_flow::Node</text>
<text text-anchor="middle" x="820" y="-483.1" font-family="Helvetica,sans-Serif" font-size="8.00">::async_low_lvl_ack_send</text>
</a>
</g>
</g>
<!-- Node7&#45;&gt;Node8 -->
<g id="edge8" class="edge">
<title>Node7&#45;&gt;Node8</title>
<path fill="none" stroke="midnightblue" d="M953.78,-433.47C936.28,-444.79 915.19,-457.32 895,-466.5 886.92,-470.18 878.08,-473.48 869.42,-476.37"/>
<polygon fill="midnightblue" stroke="midnightblue" points="956.15,-436.1 962.58,-427.68 952.3,-430.25 956.15,-436.1"/>
</g>
<!-- Node9 -->
<g id="node9" class="node">
<title>Node9</title>
<g id="a_node9"><a xlink:href="classflow_1_1net__flow_1_1Node.html#acaf55766783893827061fd85cab2634f" target="_top" xlink:title="Helper to create, fully fill out, and asynchronously send via async_sock_low_lvl_packet_send_or_close...">
<polygon fill="white" stroke="black" points="745,-422 745,-457 895,-457 895,-422 745,-422"/>
<text text-anchor="start" x="753" y="-446.6" font-family="Helvetica,sans-Serif" font-size="8.00">flow::net_flow::Node</text>
<text text-anchor="start" x="753" y="-437.6" font-family="Helvetica,sans-Serif" font-size="8.00">::async_low_lvl_syn_ack</text>
<text text-anchor="middle" x="820" y="-428.6" font-family="Helvetica,sans-Serif" font-size="8.00">_ack_send_or_close_immediately</text>
</a>
</g>
</g>
<!-- Node7&#45;&gt;Node9 -->
<g id="edge9" class="edge">
<title>Node7&#45;&gt;Node9</title>
<path fill="none" stroke="midnightblue" d="M929.92,-418.09C918.56,-420.33 906.65,-422.67 895.04,-424.95"/>
<polygon fill="midnightblue" stroke="midnightblue" points="930.6,-421.53 939.74,-416.16 929.25,-414.66 930.6,-421.53"/>
</g>
<!-- Node10 -->
<g id="node10" class="node">
<title>Node10</title>
<g id="a_node10"><a xlink:href="classflow_1_1net__flow_1_1Node.html#a192d4b95b9f8a5c3d08b1e5486eb6f78" target="_top" xlink:title="receive_wnd_updated() helper that continues rcv_wnd recovery: that is, sends unsolicited ACK with a r...">
<polygon fill="white" stroke="red" points="759,-358.5 759,-384.5 881,-384.5 881,-358.5 759,-358.5"/>
<text text-anchor="start" x="767" y="-374.1" font-family="Helvetica,sans-Serif" font-size="8.00">flow::net_flow::Node</text>
<text text-anchor="middle" x="820" y="-365.1" font-family="Helvetica,sans-Serif" font-size="8.00">::async_rcv_wnd_recovery</text>
</a>
</g>
</g>
<!-- Node7&#45;&gt;Node10 -->
<g id="edge10" class="edge">
<title>Node7&#45;&gt;Node10</title>
<path fill="none" stroke="midnightblue" d="M929.49,-392.82C913.64,-389.71 896.72,-386.38 881.09,-383.31"/>
<polygon fill="midnightblue" stroke="midnightblue" points="929.25,-396.34 939.74,-394.84 930.6,-389.47 929.25,-396.34"/>
</g>
<!-- Node20 -->
<g id="node11" class="node">
<title>Node20</title>
<g id="a_node11"><a xlink:href="classflow_1_1net__flow_1_1Node.html#addd654cb6b1ccff34ddccbe5226be8f0" target="_top" xlink:title="Handles the triggering of the retransmit timer wait set up by setup_connection_timers(); it will re&#45;s...">
<polygon fill="white" stroke="black" points="755.5,-304 755.5,-339 884.5,-339 884.5,-304 755.5,-304"/>
<text text-anchor="start" x="763.5" y="-328.6" font-family="Helvetica,sans-Serif" font-size="8.00">flow::net_flow::Node</text>
<text text-anchor="start" x="763.5" y="-319.6" font-family="Helvetica,sans-Serif" font-size="8.00">::handle_connection_rexmit</text>
<text text-anchor="middle" x="820" y="-310.6" font-family="Helvetica,sans-Serif" font-size="8.00">_timer_event</text>
</a>
</g>
</g>
<!-- Node7&#45;&gt;Node20 -->
<g id="edge12" class="edge">
<title>Node7&#45;&gt;Node20</title>
<path fill="none" stroke="midnightblue" d="M949.05,-378.15C932.37,-368.52 913.1,-357.98 895,-349.5 887.29,-345.89 878.97,-342.38 870.8,-339.14"/>
<polygon fill="midnightblue" stroke="midnightblue" points="947.63,-381.37 958.03,-383.39 951.16,-375.33 947.63,-381.37"/>
</g>
<!-- Node7&#45;&gt;Node21 -->
<g id="edge13" class="edge">
<title>Node7&#45;&gt;Node21</title>
<path fill="none" stroke="midnightblue" d="M973.17,-435.76C955.11,-459.82 926.91,-492.65 895,-512.5 887.6,-517.1 879.19,-520.79 870.76,-523.72"/>
<polygon fill="midnightblue" stroke="midnightblue" points="976.03,-437.78 979.12,-427.65 970.38,-433.64 976.03,-437.78"/>
</g>
<!-- Node10&#45;&gt;Node10 -->
<g id="edge11" class="edge">
<title>Node10&#45;&gt;Node10</title>
<path fill="none" stroke="midnightblue" d="M849.39,-394.58C846.41,-399.47 836.61,-403 820,-403 793.42,-403 784.29,-393.96 792.59,-384.77"/>
<polygon fill="midnightblue" stroke="midnightblue" points="852.82,-393.88 847.41,-384.77 845.96,-395.27 852.82,-393.88"/>
</g>
<!-- Node32 -->
<g id="node14" class="node">
<title>Node32</title>
<g id="a_node14"><a xlink:href="classflow_1_1net__flow_1_1Node.html#a4368247d07e930bdd07ab8d2425c6de8" target="_top" xlink:title="Sets up handle_incoming(packet_data, low_lvl_remote_endpoint) to be called asynchronously after a spe...">
<polygon fill="white" stroke="black" points="307,-213 307,-248 420,-248 420,-213 307,-213"/>
<text text-anchor="start" x="315" y="-237.6" font-family="Helvetica,sans-Serif" font-size="8.00">flow::net_flow::Node</text>
<text text-anchor="start" x="315" y="-228.6" font-family="Helvetica,sans-Serif" font-size="8.00">::async_wait_latency</text>
<text text-anchor="middle" x="363.5" y="-219.6" font-family="Helvetica,sans-Serif" font-size="8.00">_then_handle_incoming</text>
</a>
</g>
</g>
<!-- Node31&#45;&gt;Node32 -->
<g id="edge15" class="edge">
<title>Node31&#45;&gt;Node32</title>
<path fill="none" stroke="midnightblue" d="M459.83,-200.57C447,-204.59 433.18,-208.93 420.15,-213.03"/>
<polygon fill="midnightblue" stroke="midnightblue" points="460.92,-203.89 469.41,-197.56 458.82,-197.22 460.92,-203.89"/>
</g>
<!-- Node33 -->
<g id="node15" class="node">
<title>Node33</title>
<g id="a_node15"><a xlink:href="classflow_1_1net__flow_1_1Node.html#a90ecbad1ff3a8d2fe4b3ad1c474f7513" target="_top" xlink:title="Helper for low_lvl_recv_and_handle() that calls handle_incoming() on the not&#45;yet&#45;deserialized low&#45;lev...">
<polygon fill="white" stroke="black" points="158,-204 158,-239 271,-239 271,-204 158,-204"/>
<text text-anchor="start" x="166" y="-228.6" font-family="Helvetica,sans-Serif" font-size="8.00">flow::net_flow::Node</text>
<text text-anchor="start" x="166" y="-219.6" font-family="Helvetica,sans-Serif" font-size="8.00">::handle_incoming_with</text>
<text text-anchor="middle" x="214.5" y="-210.6" font-family="Helvetica,sans-Serif" font-size="8.00">_simulation</text>
</a>
</g>
</g>
<!-- Node31&#45;&gt;Node33 -->
<g id="edge19" class="edge">
<title>Node31&#45;&gt;Node33</title>
<path fill="none" stroke="midnightblue" d="M451.32,-188.46C410.55,-191.55 355.36,-196.51 307,-203.5 295.46,-205.17 283.18,-207.32 271.48,-209.56"/>
<polygon fill="midnightblue" stroke="midnightblue" points="451.65,-191.94 461.37,-187.71 451.14,-184.96 451.65,-191.94"/>
</g>
<!-- Node32&#45;&gt;Node33 -->
<g id="edge16" class="edge">
<title>Node32&#45;&gt;Node33</title>
<path fill="none" stroke="midnightblue" d="M296.92,-226.49C288.32,-225.96 279.57,-225.42 271.15,-224.91"/>
<polygon fill="midnightblue" stroke="midnightblue" points="296.73,-229.98 306.93,-227.1 297.16,-222.99 296.73,-229.98"/>
</g>
<!-- Node33&#45;&gt;Node33 -->
<g id="edge17" class="edge">
<title>Node33&#45;&gt;Node33</title>
<path fill="none" stroke="midnightblue" d="M240.27,-249.6C236.65,-254.27 228.06,-257.5 214.5,-257.5 192.24,-257.5 183.37,-248.81 187.89,-239.28"/>
<polygon fill="midnightblue" stroke="midnightblue" points="243.79,-249.53 241.11,-239.28 236.81,-248.97 243.79,-249.53"/>
</g>
<!-- Node34 -->
<g id="node16" class="node">
<title>Node34</title>
<g id="a_node16"><a xlink:href="classflow_1_1net__flow_1_1Node.html#a9909cd2b2a77c57da9e35fcef0f8a4e5" target="_top" xlink:title="Handles the pre&#45;condition that m_low_lvl_sock has a UDP packet available for reading,...">
<polygon fill="white" stroke="red" points="0,-240.5 0,-266.5 122,-266.5 122,-240.5 0,-240.5"/>
<text text-anchor="start" x="8" y="-256.1" font-family="Helvetica,sans-Serif" font-size="8.00">flow::net_flow::Node</text>
<text text-anchor="middle" x="61" y="-247.1" font-family="Helvetica,sans-Serif" font-size="8.00">::low_lvl_recv_and_handle</text>
</a>
</g>
</g>
<!-- Node33&#45;&gt;Node34 -->
<g id="edge18" class="edge">
<title>Node33&#45;&gt;Node34</title>
<path fill="none" stroke="midnightblue" d="M147.98,-235.34C139.39,-237.15 130.63,-239 122.14,-240.8"/>
<polygon fill="midnightblue" stroke="midnightblue" points="148.89,-238.73 157.95,-233.23 147.44,-231.88 148.89,-238.73"/>
</g>
<!-- Node12 -->
<g id="node18" class="node">
<title>Node12</title>
<g id="a_node18"><a xlink:href="classflow_1_1net__flow_1_1Node.html#addbb96858fd7b3c9ddd7c6fe8078809c" target="_top" xlink:title="Implementation of non&#45;blocking sock&#45;&gt;receive() for socket sock in all cases except when sock&#45;&gt;state()...">
<polygon fill="white" stroke="red" points="769.5,-258.5 769.5,-284.5 870.5,-284.5 870.5,-258.5 769.5,-258.5"/>
<text text-anchor="start" x="777.5" y="-274.1" font-family="Helvetica,sans-Serif" font-size="8.00">flow::net_flow::Node</text>
<text text-anchor="middle" x="820" y="-265.1" font-family="Helvetica,sans-Serif" font-size="8.00">::receive</text>
</a>
</g>
</g>
<!-- Node37&#45;&gt;Node12 -->
<g id="edge21" class="edge">
<title>Node37&#45;&gt;Node12</title>
<path fill="none" stroke="midnightblue" d="M924.31,-261.95C906.32,-263.61 887.32,-265.37 870.59,-266.91"/>
<polygon fill="midnightblue" stroke="midnightblue" points="924.83,-265.41 934.46,-261.01 924.18,-258.44 924.83,-265.41"/>
</g>
<!-- Node39 -->
<g id="node20" class="node">
<title>Node39</title>
<g id="a_node20"><a xlink:href="classflow_1_1net__flow_1_1Node.html#a6461124e5bc3e59083e172e26029e632" target="_top" xlink:title="Implementation of non&#45;blocking sock&#45;&gt;close_abruptly() for socket sock in all cases except when sock&#45;&gt;...">
<polygon fill="white" stroke="red" points="769.5,-213.5 769.5,-239.5 870.5,-239.5 870.5,-213.5 769.5,-213.5"/>
<text text-anchor="start" x="777.5" y="-229.1" font-family="Helvetica,sans-Serif" font-size="8.00">flow::net_flow::Node</text>
<text text-anchor="middle" x="820" y="-220.1" font-family="Helvetica,sans-Serif" font-size="8.00">::close_abruptly</text>
</a>
</g>
</g>
<!-- Node38&#45;&gt;Node39 -->
<g id="edge23" class="edge">
<title>Node38&#45;&gt;Node39</title>
<path fill="none" stroke="midnightblue" d="M920.71,-202.29C903.82,-206.39 886.23,-210.66 870.61,-214.46"/>
<polygon fill="midnightblue" stroke="midnightblue" points="921.67,-205.66 930.56,-199.9 920.02,-198.86 921.67,-205.66"/>
</g>
<!-- Node38&#45;&gt;Node41 -->
<g id="edge24" class="edge">
<title>Node38&#45;&gt;Node41</title>
<path fill="none" stroke="midnightblue" d="M920.7,-184.5C856.8,-184.5 765.75,-184.5 709.21,-184.5"/>
<polygon fill="midnightblue" stroke="midnightblue" points="920.71,-188 930.71,-184.5 920.71,-181 920.71,-188"/>
</g>
<!-- Node42 -->
<g id="node22" class="node">
<title>Node42</title>
<g id="a_node22"><a xlink:href="classflow_1_1net__flow_1_1Node.html#ab427ebc124a6233ae48a7562662a6e81" target="_top" xlink:title="Creates a new Drop Timer and saves it to sock&#45;&gt;m_snd_drop_timer.">
<polygon fill="white" stroke="black" points="769.5,-129.5 769.5,-155.5 870.5,-155.5 870.5,-129.5 769.5,-129.5"/>
<text text-anchor="start" x="777.5" y="-145.1" font-family="Helvetica,sans-Serif" font-size="8.00">flow::net_flow::Node</text>
<text text-anchor="middle" x="820" y="-136.1" font-family="Helvetica,sans-Serif" font-size="8.00">::setup_drop_timer</text>
</a>
</g>
</g>
<!-- Node38&#45;&gt;Node42 -->
<g id="edge26" class="edge">
<title>Node38&#45;&gt;Node42</title>
<path fill="none" stroke="midnightblue" d="M920.71,-166.71C903.82,-162.61 886.23,-158.34 870.61,-154.54"/>
<polygon fill="midnightblue" stroke="midnightblue" points="920.02,-170.14 930.56,-169.1 921.67,-163.34 920.02,-170.14"/>
</g>
<!-- Node43 -->
<g id="node23" class="node">
<title>Node43</title>
<g id="a_node23"><a xlink:href="classflow_1_1net__flow_1_1Node.html#a3fd57a0d025a78cbeccfd8a15a983575" target="_top" xlink:title="async_sock_low_lvl_packet_send_paced() pacing helper: If sock_pacing_process_q() ran out of the last ...">
<polygon fill="white" stroke="red" points="751.5,-84.5 751.5,-110.5 888.5,-110.5 888.5,-84.5 751.5,-84.5"/>
<text text-anchor="start" x="759.5" y="-100.1" font-family="Helvetica,sans-Serif" font-size="8.00">flow::net_flow::Node</text>
<text text-anchor="middle" x="820" y="-91.1" font-family="Helvetica,sans-Serif" font-size="8.00">::sock_pacing_time_slice_end</text>
</a>
</g>
</g>
<!-- Node38&#45;&gt;Node43 -->
<g id="edge28" class="edge">
<title>Node38&#45;&gt;Node43</title>
<path fill="none" stroke="midnightblue" d="M963.31,-160.97C944.42,-147.37 919.25,-130.77 895,-119.5 887.83,-116.17 880.03,-113.2 872.28,-110.61"/>
<polygon fill="midnightblue" stroke="midnightblue" points="961.39,-163.9 971.52,-166.98 965.52,-158.25 961.39,-163.9"/>
</g>
<!-- Node41&#45;&gt;Node31 -->
<g id="edge25" class="edge">
<title>Node41&#45;&gt;Node31</title>
<path fill="none" stroke="midnightblue" d="M593.47,-184.5C583.17,-184.5 572.61,-184.5 562.67,-184.5"/>
<polygon fill="midnightblue" stroke="midnightblue" points="593.65,-188 603.65,-184.5 593.65,-181 593.65,-188"/>
</g>
<!-- Node42&#45;&gt;Node41 -->
<g id="edge27" class="edge">
<title>Node42&#45;&gt;Node41</title>
<path fill="none" stroke="midnightblue" d="M759.17,-158.06C742.71,-162.34 725.01,-166.94 709.06,-171.09"/>
<polygon fill="midnightblue" stroke="midnightblue" points="760.43,-161.35 769.23,-155.44 758.67,-154.57 760.43,-161.35"/>
</g>
<!-- Node49&#45;&gt;Node36 -->
<g id="edge31" class="edge">
<title>Node49&#45;&gt;Node36</title>
<path fill="none" stroke="midnightblue" d="M1107.58,-42.69C1087.35,-37.4 1065.04,-31.56 1045.72,-26.51"/>
<polygon fill="midnightblue" stroke="midnightblue" points="1106.76,-46.1 1117.32,-45.24 1108.54,-39.32 1106.76,-46.1"/>
</g>
<!-- Node50&#45;&gt;Node32 -->
<g id="edge34" class="edge">
<title>Node50&#45;&gt;Node32</title>
<path fill="none" stroke="midnightblue" d="M454.53,-264.3C440.24,-258.94 425.06,-253.24 411.31,-248.08"/>
<polygon fill="midnightblue" stroke="midnightblue" points="453.65,-267.71 464.24,-267.95 456.11,-261.15 453.65,-267.71"/>
</g>
<!-- Node50&#45;&gt;Node34 -->
<g id="edge35" class="edge">
<title>Node50&#45;&gt;Node34</title>
<path fill="none" stroke="midnightblue" d="M445.74,-283.57C374.81,-281.1 258.17,-275.96 158,-266.5 146.36,-265.4 133.97,-263.94 122.09,-262.4"/>
<polygon fill="midnightblue" stroke="midnightblue" points="445.76,-287.07 455.87,-283.91 445.99,-280.07 445.76,-287.07"/>
</g>
<!-- Node52&#45;&gt;Node52 -->
<g id="edge39" class="edge">
<title>Node52&#45;&gt;Node52</title>
<path fill="none" stroke="midnightblue" d="M1370.72,-477.94C1367.64,-482.64 1358.4,-486 1343,-486 1317.73,-486 1309.05,-476.96 1316.94,-467.77"/>
<polygon fill="midnightblue" stroke="midnightblue" points="1374.12,-477.07 1369.06,-467.77 1367.21,-478.2 1374.12,-477.07"/>
</g>
<!-- Node53&#45;&gt;Node53 -->
<g id="edge41" class="edge">
<title>Node53&#45;&gt;Node53</title>
<path fill="none" stroke="midnightblue" d="M1370.72,-414.94C1367.64,-419.64 1358.4,-423 1343,-423 1317.73,-423 1309.05,-413.96 1316.94,-404.77"/>
<polygon fill="midnightblue" stroke="midnightblue" points="1374.12,-414.07 1369.06,-404.77 1367.21,-415.2 1374.12,-414.07"/>
</g>
</g>
</svg>
