<?xml version="1.0" encoding="UTF-8" standalone="no"?>
<!DOCTYPE svg PUBLIC "-//W3C//DTD SVG 1.1//EN"
 "http://www.w3.org/Graphics/SVG/1.1/DTD/svg11.dtd">
<!-- Generated by graphviz version 2.43.0 (0)
 -->
<!-- Title: flow::net_flow::Event_set::add_wanted_socket Pages: 1 -->
<svg width="294pt" height="35pt"
 viewBox="0.00 0.00 294.00 35.00" xmlns="http://www.w3.org/2000/svg" xmlns:xlink="http://www.w3.org/1999/xlink">
<g id="graph0" class="graph" transform="scale(1 1) rotate(0) translate(4 31)">
<title>flow::net_flow::Event_set::add_wanted_socket</title>
<polygon fill="white" stroke="transparent" points="-4,4 -4,-31 290,-31 290,4 -4,4"/>
<!-- Node1 -->
<g id="node1" class="node">
<title>Node1</title>
<g id="a_node1"><a xlink:title="Adds the given socket to the set of sockets we want to know are &quot;ready&quot; by the definition of the give...">
<polygon fill="#bfbfbf" stroke="black" points="0,-0.5 0,-26.5 120,-26.5 120,-0.5 0,-0.5"/>
<text text-anchor="start" x="8" y="-16.1" font-family="Helvetica,sans-Serif" font-size="8.00">flow::net_flow::Event</text>
<text text-anchor="middle" x="60" y="-7.1" font-family="Helvetica,sans-Serif" font-size="8.00">_set::add_wanted_socket</text>
</a>
</g>
</g>
<!-- Node2 -->
<g id="node2" class="node">
<title>Node2</title>
<g id="a_node2"><a xlink:href="classflow_1_1net__flow_1_1Event__set.html#a8e16d91f81860eb2a6c971863548e466" target="_top" xlink:title="Helper that ensures the state of *this is such that one may modify the m_can and m_want socket sets.">
<polygon fill="white" stroke="black" points="156,-0.5 156,-26.5 286,-26.5 286,-0.5 156,-0.5"/>
<text text-anchor="start" x="164" y="-16.1" font-family="Helvetica,sans-Serif" font-size="8.00">flow::net_flow::Event</text>
<text text-anchor="middle" x="221" y="-7.1" font-family="Helvetica,sans-Serif" font-size="8.00">_set::ok_to_mod_socket_set</text>
</a>
</g>
</g>
<!-- Node1&#45;&gt;Node2 -->
<g id="edge1" class="edge">
<title>Node1&#45;&gt;Node2</title>
<path fill="none" stroke="midnightblue" d="M120.21,-13.5C128.58,-13.5 137.28,-13.5 145.9,-13.5"/>
<polygon fill="midnightblue" stroke="midnightblue" points="145.94,-17 155.94,-13.5 145.94,-10 145.94,-17"/>
</g>
</g>
</svg>
