<?xml version="1.0" encoding="UTF-8" standalone="no"?>
<!DOCTYPE svg PUBLIC "-//W3C//DTD SVG 1.1//EN"
 "http://www.w3.org/Graphics/SVG/1.1/DTD/svg11.dtd">
<!-- Generated by graphviz version 2.43.0 (0)
 -->
<!-- Title: flow::net_flow::Peer_socket::sync_receive Pages: 1 -->
<svg width="726pt" height="215pt"
 viewBox="0.00 0.00 726.00 215.00" xmlns="http://www.w3.org/2000/svg" xmlns:xlink="http://www.w3.org/1999/xlink">
<g id="graph0" class="graph" transform="scale(1 1) rotate(0) translate(4 211)">
<title>flow::net_flow::Peer_socket::sync_receive</title>
<polygon fill="white" stroke="transparent" points="-4,4 -4,-211 722,-211 722,4 -4,4"/>
<!-- Node1 -->
<g id="node1" class="node">
<title>Node1</title>
<g id="a_node1"><a xlink:title="Equivalent to sync_receive(nullptr, duration::max(), err_code); i.e., sync_receive(nullptr_t) with no...">
<polygon fill="#bfbfbf" stroke="black" points="0,-137.5 0,-163.5 106,-163.5 106,-137.5 0,-137.5"/>
<text text-anchor="start" x="8" y="-153.1" font-family="Helvetica,sans-Serif" font-size="8.00">flow::net_flow::Peer</text>
<text text-anchor="middle" x="53" y="-144.1" font-family="Helvetica,sans-Serif" font-size="8.00">_socket::sync_receive</text>
</a>
</g>
</g>
<!-- Node2 -->
<g id="node2" class="node">
<title>Node2</title>
<g id="a_node2"><a xlink:href="classflow_1_1net__flow_1_1Peer__socket.html#a70f940bd624603790512c2e0e420a4f7" target="_top" xlink:title="Blocking (synchronous) version of receive().">
<polygon fill="white" stroke="black" points="142,-137.5 142,-163.5 248,-163.5 248,-137.5 142,-137.5"/>
<text text-anchor="start" x="150" y="-153.1" font-family="Helvetica,sans-Serif" font-size="8.00">flow::net_flow::Peer</text>
<text text-anchor="middle" x="195" y="-144.1" font-family="Helvetica,sans-Serif" font-size="8.00">_socket::sync_receive</text>
</a>
</g>
</g>
<!-- Node1&#45;&gt;Node2 -->
<g id="edge1" class="edge">
<title>Node1&#45;&gt;Node2</title>
<path fill="none" stroke="midnightblue" d="M106.13,-150.5C114.42,-150.5 123.07,-150.5 131.57,-150.5"/>
<polygon fill="midnightblue" stroke="midnightblue" points="131.83,-154 141.83,-150.5 131.83,-147 131.83,-154"/>
</g>
<!-- Node3 -->
<g id="node3" class="node">
<title>Node3</title>
<g id="a_node3"><a xlink:href="namespaceflow_1_1util.html#a5488415feb5570a6551892a7bdfeeec4" target="_top" xlink:title="Helper that takes a non&#45;negative duration of arbitrary precision/period and converts it to Fine_durat...">
<polygon fill="white" stroke="black" points="292.5,-158 292.5,-193 402.5,-193 402.5,-158 292.5,-158"/>
<text text-anchor="start" x="300.5" y="-182.6" font-family="Helvetica,sans-Serif" font-size="8.00">flow::util::chrono</text>
<text text-anchor="start" x="300.5" y="-173.6" font-family="Helvetica,sans-Serif" font-size="8.00">_duration_from_now_to</text>
<text text-anchor="middle" x="347.5" y="-164.6" font-family="Helvetica,sans-Serif" font-size="8.00">_fine_time_pt</text>
</a>
</g>
</g>
<!-- Node2&#45;&gt;Node3 -->
<g id="edge2" class="edge">
<title>Node2&#45;&gt;Node3</title>
<path fill="none" stroke="midnightblue" d="M248.22,-159.17C259.25,-161.01 271.01,-162.96 282.42,-164.86"/>
<polygon fill="midnightblue" stroke="midnightblue" points="281.89,-168.32 292.33,-166.5 283.04,-161.41 281.89,-168.32"/>
</g>
<!-- Node4 -->
<g id="node4" class="node">
<title>Node4</title>
<g id="a_node4"><a xlink:href="classflow_1_1net__flow_1_1Peer__socket.html#ad29f61b9885b10ddc3846cdae0560518" target="_top" xlink:title="Same as sync_receive() but uses a Fine_clock&#45;based Fine_duration non&#45;template type for implementation...">
<polygon fill="white" stroke="black" points="284,-112.5 284,-138.5 411,-138.5 411,-112.5 284,-112.5"/>
<text text-anchor="start" x="292" y="-128.1" font-family="Helvetica,sans-Serif" font-size="8.00">flow::net_flow::Peer</text>
<text text-anchor="middle" x="347.5" y="-119.1" font-family="Helvetica,sans-Serif" font-size="8.00">_socket::sync_receive_impl</text>
</a>
</g>
</g>
<!-- Node2&#45;&gt;Node4 -->
<g id="edge3" class="edge">
<title>Node2&#45;&gt;Node4</title>
<path fill="none" stroke="midnightblue" d="M248.22,-141.83C256.45,-140.46 265.1,-139.02 273.7,-137.59"/>
<polygon fill="midnightblue" stroke="midnightblue" points="274.46,-141.01 283.75,-135.92 273.31,-134.11 274.46,-141.01"/>
</g>
<!-- Node5 -->
<g id="node5" class="node">
<title>Node5</title>
<g id="a_node5"><a xlink:href="classflow_1_1net__flow_1_1Socket__buffer.html#af60133c1d6825246b54f10f26810cd88" target="_top" xlink:title="Consumes (removes from the front of the internal byte buffer and returns them to the caller) a byte s...">
<polygon fill="white" stroke="black" points="447,-157.5 447,-183.5 580,-183.5 580,-157.5 447,-157.5"/>
<text text-anchor="start" x="455" y="-173.1" font-family="Helvetica,sans-Serif" font-size="8.00">flow::net_flow::Socket</text>
<text text-anchor="middle" x="513.5" y="-164.1" font-family="Helvetica,sans-Serif" font-size="8.00">_buffer::consume_bufs_copy</text>
</a>
</g>
</g>
<!-- Node4&#45;&gt;Node5 -->
<g id="edge4" class="edge">
<title>Node4&#45;&gt;Node5</title>
<path fill="none" stroke="midnightblue" d="M395.94,-138.52C414.38,-143.58 435.69,-149.42 455,-154.72"/>
<polygon fill="midnightblue" stroke="midnightblue" points="454.32,-158.16 464.89,-157.44 456.17,-151.41 454.32,-158.16"/>
</g>
<!-- Node8 -->
<g id="node7" class="node">
<title>Node8</title>
<g id="a_node7"><a xlink:href="classflow_1_1net__flow_1_1Peer__socket.html#a8abde92d5189bf2a058fe8741789f814" target="_top" xlink:title="This is to sync_receive() as node_receive() is to receive().">
<polygon fill="white" stroke="black" points="448,-90.5 448,-116.5 579,-116.5 579,-90.5 448,-90.5"/>
<text text-anchor="start" x="456" y="-106.1" font-family="Helvetica,sans-Serif" font-size="8.00">flow::net_flow::Peer</text>
<text text-anchor="middle" x="513.5" y="-97.1" font-family="Helvetica,sans-Serif" font-size="8.00">_socket::node_sync_receive</text>
</a>
</g>
</g>
<!-- Node4&#45;&gt;Node8 -->
<g id="edge6" class="edge">
<title>Node4&#45;&gt;Node8</title>
<path fill="none" stroke="midnightblue" d="M411.44,-117.06C420.1,-115.9 429.06,-114.69 437.91,-113.51"/>
<polygon fill="midnightblue" stroke="midnightblue" points="438.38,-116.97 447.83,-112.18 437.45,-110.04 438.38,-116.97"/>
</g>
<!-- Node6 -->
<g id="node6" class="node">
<title>Node6</title>
<g id="a_node6"><a xlink:href="namespaceflow_1_1util.html#a16357344c21456b86b7de3085e2661a2" target="_top" xlink:title="Identical to buffers_to_ostream() but returns an std::string instead of writing to a given ostream.">
<polygon fill="white" stroke="red" points="624,-180.5 624,-206.5 710,-206.5 710,-180.5 624,-180.5"/>
<text text-anchor="start" x="632" y="-196.1" font-family="Helvetica,sans-Serif" font-size="8.00">flow::util::buffers</text>
<text text-anchor="middle" x="667" y="-187.1" font-family="Helvetica,sans-Serif" font-size="8.00">_dump_string</text>
</a>
</g>
</g>
<!-- Node5&#45;&gt;Node6 -->
<g id="edge5" class="edge">
<title>Node5&#45;&gt;Node6</title>
<path fill="none" stroke="midnightblue" d="M580.07,-180.45C591.34,-182.17 602.92,-183.92 613.78,-185.57"/>
<polygon fill="midnightblue" stroke="midnightblue" points="613.53,-189.07 623.94,-187.11 614.58,-182.15 613.53,-189.07"/>
</g>
<!-- Node9 -->
<g id="node8" class="node">
<title>Node9</title>
<g id="a_node8"><a xlink:href="classflow_1_1net__flow_1_1Node.html#a109a118ca312e94686595ea08dac7ad0" target="_top" xlink:title="Helper method that checks whether the given Peer_socket or Server_socket is CLOSED; if so,...">
<polygon fill="white" stroke="black" points="616.5,-135.5 616.5,-161.5 717.5,-161.5 717.5,-135.5 616.5,-135.5"/>
<text text-anchor="start" x="624.5" y="-151.1" font-family="Helvetica,sans-Serif" font-size="8.00">flow::net_flow::Node</text>
<text text-anchor="middle" x="667" y="-142.1" font-family="Helvetica,sans-Serif" font-size="8.00">::ensure_sock_open</text>
</a>
</g>
</g>
<!-- Node8&#45;&gt;Node9 -->
<g id="edge7" class="edge">
<title>Node8&#45;&gt;Node9</title>
<path fill="none" stroke="midnightblue" d="M558.32,-116.52C575.21,-121.53 594.68,-127.32 612.39,-132.58"/>
<polygon fill="midnightblue" stroke="midnightblue" points="611.43,-135.94 622.02,-135.44 613.43,-129.23 611.43,-135.94"/>
</g>
<!-- Node10 -->
<g id="node9" class="node">
<title>Node10</title>
<g id="a_node9"><a xlink:href="classflow_1_1net__flow_1_1Peer__socket.html#a5003c554807f5b5b58989ad58be48d42" target="_top" xlink:title="Constructs object; initializes most values to well&#45;defined (0, empty, etc.) but not necessarily meani...">
<polygon fill="white" stroke="red" points="616,-90.5 616,-116.5 718,-116.5 718,-90.5 616,-90.5"/>
<text text-anchor="start" x="624" y="-106.1" font-family="Helvetica,sans-Serif" font-size="8.00">flow::net_flow::Peer</text>
<text text-anchor="middle" x="667" y="-97.1" font-family="Helvetica,sans-Serif" font-size="8.00">_socket::Peer_socket</text>
</a>
</g>
</g>
<!-- Node8&#45;&gt;Node10 -->
<g id="edge8" class="edge">
<title>Node8&#45;&gt;Node10</title>
<path fill="none" stroke="midnightblue" d="M579.19,-103.5C587.98,-103.5 596.96,-103.5 605.67,-103.5"/>
<polygon fill="midnightblue" stroke="midnightblue" points="605.73,-107 615.73,-103.5 605.73,-100 605.73,-107"/>
</g>
<!-- Node13 -->
<g id="node10" class="node">
<title>Node13</title>
<g id="a_node10"><a xlink:href="classflow_1_1net__flow_1_1Node.html#addbb96858fd7b3c9ddd7c6fe8078809c" target="_top" xlink:title="Implementation of non&#45;blocking sock&#45;&gt;receive() for socket sock in all cases except when sock&#45;&gt;state()...">
<polygon fill="white" stroke="red" points="616.5,-45.5 616.5,-71.5 717.5,-71.5 717.5,-45.5 616.5,-45.5"/>
<text text-anchor="start" x="624.5" y="-61.1" font-family="Helvetica,sans-Serif" font-size="8.00">flow::net_flow::Node</text>
<text text-anchor="middle" x="667" y="-52.1" font-family="Helvetica,sans-Serif" font-size="8.00">::receive</text>
</a>
</g>
</g>
<!-- Node8&#45;&gt;Node13 -->
<g id="edge9" class="edge">
<title>Node8&#45;&gt;Node13</title>
<path fill="none" stroke="midnightblue" d="M558.32,-90.48C575.21,-85.47 594.68,-79.68 612.39,-74.42"/>
<polygon fill="midnightblue" stroke="midnightblue" points="613.43,-77.77 622.02,-71.56 611.43,-71.06 613.43,-77.77"/>
</g>
<!-- Node66 -->
<g id="node11" class="node">
<title>Node66</title>
<g id="a_node11"><a xlink:href="classflow_1_1net__flow_1_1Node.html#a2a4dc3d8e294bbc8423e111f52e414ae" target="_top" xlink:title="Implementation of core blocking transfer methods, namely Peer_socket::sync_send(),...">
<polygon fill="white" stroke="red" points="616.5,-0.5 616.5,-26.5 717.5,-26.5 717.5,-0.5 616.5,-0.5"/>
<text text-anchor="start" x="624.5" y="-16.1" font-family="Helvetica,sans-Serif" font-size="8.00">flow::net_flow::Node</text>
<text text-anchor="middle" x="667" y="-7.1" font-family="Helvetica,sans-Serif" font-size="8.00">::sync_op</text>
</a>
</g>
</g>
<!-- Node8&#45;&gt;Node66 -->
<g id="edge10" class="edge">
<title>Node8&#45;&gt;Node66</title>
<path fill="none" stroke="midnightblue" d="M531.87,-90.48C551.62,-76.01 585.14,-52.45 616,-35.5 618.87,-33.92 621.87,-32.37 624.92,-30.87"/>
<polygon fill="midnightblue" stroke="midnightblue" points="626.57,-33.96 634.12,-26.52 623.58,-27.63 626.57,-33.96"/>
</g>
</g>
</svg>
