<?xml version="1.0" encoding="UTF-8" standalone="no"?>
<!DOCTYPE svg PUBLIC "-//W3C//DTD SVG 1.1//EN"
 "http://www.w3.org/Graphics/SVG/1.1/DTD/svg11.dtd">
<!-- Generated by graphviz version 2.43.0 (0)
 -->
<!-- Title: flow::net_flow::Node::running Pages: 1 -->
<svg width="720pt" height="417pt"
 viewBox="0.00 0.00 720.00 417.00" xmlns="http://www.w3.org/2000/svg" xmlns:xlink="http://www.w3.org/1999/xlink">
<g id="graph0" class="graph" transform="scale(1 1) rotate(0) translate(4 413)">
<title>flow::net_flow::Node::running</title>
<polygon fill="white" stroke="transparent" points="-4,4 -4,-413 716,-413 716,4 -4,4"/>
<!-- Node1 -->
<g id="node1" class="node">
<title>Node1</title>
<g id="a_node1"><a xlink:title="Returns true if and only if the Node is operating.">
<polygon fill="#bfbfbf" stroke="black" points="611,-188.5 611,-214.5 712,-214.5 712,-188.5 611,-188.5"/>
<text text-anchor="start" x="619" y="-204.1" font-family="Helvetica,sans-Serif" font-size="8.00">flow::net_flow::Node</text>
<text text-anchor="middle" x="661.5" y="-195.1" font-family="Helvetica,sans-Serif" font-size="8.00">::running</text>
</a>
</g>
</g>
<!-- Node2 -->
<g id="node2" class="node">
<title>Node2</title>
<g id="a_node2"><a xlink:href="classflow_1_1net__flow_1_1Node.html#a6461124e5bc3e59083e172e26029e632" target="_top" xlink:title="Implementation of non&#45;blocking sock&#45;&gt;close_abruptly() for socket sock in all cases except when sock&#45;&gt;...">
<polygon fill="white" stroke="black" points="474,-364.5 474,-390.5 575,-390.5 575,-364.5 474,-364.5"/>
<text text-anchor="start" x="482" y="-380.1" font-family="Helvetica,sans-Serif" font-size="8.00">flow::net_flow::Node</text>
<text text-anchor="middle" x="524.5" y="-371.1" font-family="Helvetica,sans-Serif" font-size="8.00">::close_abruptly</text>
</a>
</g>
</g>
<!-- Node1&#45;&gt;Node2 -->
<g id="edge1" class="edge">
<title>Node1&#45;&gt;Node2</title>
<path fill="none" stroke="midnightblue" d="M653.02,-224.57C641.26,-257.59 615.51,-318.43 575,-355.5 571.25,-358.93 566.89,-361.89 562.32,-364.43"/>
<polygon fill="midnightblue" stroke="midnightblue" points="656.41,-225.49 656.35,-214.89 649.79,-223.21 656.41,-225.49"/>
</g>
<!-- Node4 -->
<g id="node4" class="node">
<title>Node4</title>
<g id="a_node4"><a xlink:href="classflow_1_1net__flow_1_1Node.html#a3c2cd6a6c328a2d5381308258d35d95d" target="_top" xlink:title="Sets up a server on the given local Flow port and returns Server_socket which can be used to accept s...">
<polygon fill="white" stroke="black" points="474,-301.5 474,-327.5 575,-327.5 575,-301.5 474,-301.5"/>
<text text-anchor="start" x="482" y="-317.1" font-family="Helvetica,sans-Serif" font-size="8.00">flow::net_flow::Node</text>
<text text-anchor="middle" x="524.5" y="-308.1" font-family="Helvetica,sans-Serif" font-size="8.00">::listen</text>
</a>
</g>
</g>
<!-- Node1&#45;&gt;Node4 -->
<g id="edge4" class="edge">
<title>Node1&#45;&gt;Node4</title>
<path fill="none" stroke="midnightblue" d="M644.89,-222.44C629.07,-242.51 602.99,-272.62 575,-292.5 570.32,-295.82 565.06,-298.81 559.77,-301.43"/>
<polygon fill="midnightblue" stroke="midnightblue" points="647.68,-224.56 651.02,-214.51 642.14,-220.28 647.68,-224.56"/>
</g>
<!-- Node5 -->
<g id="node5" class="node">
<title>Node5</title>
<g id="a_node5"><a xlink:href="classflow_1_1net__flow_1_1Node.html#addbb96858fd7b3c9ddd7c6fe8078809c" target="_top" xlink:title="Implementation of non&#45;blocking sock&#45;&gt;receive() for socket sock in all cases except when sock&#45;&gt;state()...">
<polygon fill="white" stroke="black" points="474,-256.5 474,-282.5 575,-282.5 575,-256.5 474,-256.5"/>
<text text-anchor="start" x="482" y="-272.1" font-family="Helvetica,sans-Serif" font-size="8.00">flow::net_flow::Node</text>
<text text-anchor="middle" x="524.5" y="-263.1" font-family="Helvetica,sans-Serif" font-size="8.00">::receive</text>
</a>
</g>
</g>
<!-- Node1&#45;&gt;Node5 -->
<g id="edge6" class="edge">
<title>Node1&#45;&gt;Node5</title>
<path fill="none" stroke="midnightblue" d="M628.26,-219.59C612.37,-228.31 592.84,-238.75 575,-247.5 568.84,-250.52 562.16,-253.61 555.77,-256.48"/>
<polygon fill="midnightblue" stroke="midnightblue" points="630.1,-222.57 637.16,-214.67 626.71,-216.44 630.1,-222.57"/>
</g>
<!-- Node13 -->
<g id="node13" class="node">
<title>Node13</title>
<g id="a_node13"><a xlink:href="classflow_1_1net__flow_1_1Node.html#aa19d1f49638ef8ce8883e7477a06d3fc" target="_top" xlink:title="Implementation of non&#45;blocking sock&#45;&gt;send() for socket sock in all cases except when sock&#45;&gt;state() ==...">
<polygon fill="white" stroke="black" points="474,-166.5 474,-192.5 575,-192.5 575,-166.5 474,-166.5"/>
<text text-anchor="start" x="482" y="-182.1" font-family="Helvetica,sans-Serif" font-size="8.00">flow::net_flow::Node</text>
<text text-anchor="middle" x="524.5" y="-173.1" font-family="Helvetica,sans-Serif" font-size="8.00">::send</text>
</a>
</g>
</g>
<!-- Node1&#45;&gt;Node13 -->
<g id="edge15" class="edge">
<title>Node1&#45;&gt;Node13</title>
<path fill="none" stroke="midnightblue" d="M601.07,-191.82C592.52,-190.42 583.79,-189 575.45,-187.64"/>
<polygon fill="midnightblue" stroke="midnightblue" points="600.56,-195.28 611,-193.43 601.69,-188.37 600.56,-195.28"/>
</g>
<!-- Node21 -->
<g id="node21" class="node">
<title>Node21</title>
<g id="a_node21"><a xlink:href="classflow_1_1net__flow_1_1Node.html#a2779cc2429651696df1bca8de73534f3" target="_top" xlink:title="Dynamically replaces the current options set (options()) with the given options set.">
<polygon fill="white" stroke="black" points="474,-103.5 474,-129.5 575,-129.5 575,-103.5 474,-103.5"/>
<text text-anchor="start" x="482" y="-119.1" font-family="Helvetica,sans-Serif" font-size="8.00">flow::net_flow::Node</text>
<text text-anchor="middle" x="524.5" y="-110.1" font-family="Helvetica,sans-Serif" font-size="8.00">::set_options</text>
</a>
</g>
</g>
<!-- Node1&#45;&gt;Node21 -->
<g id="edge24" class="edge">
<title>Node1&#45;&gt;Node21</title>
<path fill="none" stroke="midnightblue" d="M631.17,-183.03C605.64,-166.96 569.27,-144.06 546.54,-129.75"/>
<polygon fill="midnightblue" stroke="midnightblue" points="629.37,-186.04 639.7,-188.41 633.1,-180.12 629.37,-186.04"/>
</g>
<!-- Node22 -->
<g id="node22" class="node">
<title>Node22</title>
<g id="a_node22"><a xlink:href="classflow_1_1net__flow_1_1Node.html#a07ad769737db60dd637365010b80f4f3" target="_top" xlink:title="Implementation of sock&#45;&gt;info() for socket sock in all cases except when sock&#45;&gt;state() == Peer_socket:...">
<polygon fill="white" stroke="black" points="474,-58.5 474,-84.5 575,-84.5 575,-58.5 474,-58.5"/>
<text text-anchor="start" x="482" y="-74.1" font-family="Helvetica,sans-Serif" font-size="8.00">flow::net_flow::Node</text>
<text text-anchor="middle" x="524.5" y="-65.1" font-family="Helvetica,sans-Serif" font-size="8.00">::sock_info</text>
</a>
</g>
</g>
<!-- Node1&#45;&gt;Node22 -->
<g id="edge26" class="edge">
<title>Node1&#45;&gt;Node22</title>
<path fill="none" stroke="midnightblue" d="M647.61,-179.47C632.71,-155.6 606.2,-117.7 575,-93.5 570.69,-90.16 565.79,-87.2 560.79,-84.62"/>
<polygon fill="midnightblue" stroke="midnightblue" points="644.72,-181.45 652.92,-188.17 650.7,-177.8 644.72,-181.45"/>
</g>
<!-- Node24 -->
<g id="node24" class="node">
<title>Node24</title>
<g id="a_node24"><a xlink:href="classflow_1_1net__flow_1_1Node.html#aadea4a9941c6138d9c025401b1f85ceb" target="_top" xlink:title="Thread W implementation of sock&#45;&gt;set_options().">
<polygon fill="white" stroke="black" points="474,-13.5 474,-39.5 575,-39.5 575,-13.5 474,-13.5"/>
<text text-anchor="start" x="482" y="-29.1" font-family="Helvetica,sans-Serif" font-size="8.00">flow::net_flow::Node</text>
<text text-anchor="middle" x="524.5" y="-20.1" font-family="Helvetica,sans-Serif" font-size="8.00">::sock_set_options</text>
</a>
</g>
</g>
<!-- Node1&#45;&gt;Node24 -->
<g id="edge28" class="edge">
<title>Node1&#45;&gt;Node24</title>
<path fill="none" stroke="midnightblue" d="M652.98,-178.58C641.17,-145.77 615.36,-85.33 575,-48.5 571.25,-45.08 566.88,-42.12 562.32,-39.58"/>
<polygon fill="midnightblue" stroke="midnightblue" points="649.73,-179.9 656.32,-188.19 656.34,-177.6 649.73,-179.9"/>
</g>
<!-- Node26 -->
<g id="node26" class="node">
<title>Node26</title>
<g id="a_node26"><a xlink:href="classflow_1_1net__flow_1_1Node.html#a2a4dc3d8e294bbc8423e111f52e414ae" target="_top" xlink:title="Implementation of core blocking transfer methods, namely Peer_socket::sync_send(),...">
<polygon fill="white" stroke="black" points="474,-211.5 474,-237.5 575,-237.5 575,-211.5 474,-211.5"/>
<text text-anchor="start" x="482" y="-227.1" font-family="Helvetica,sans-Serif" font-size="8.00">flow::net_flow::Node</text>
<text text-anchor="middle" x="524.5" y="-218.1" font-family="Helvetica,sans-Serif" font-size="8.00">::sync_op</text>
</a>
</g>
</g>
<!-- Node1&#45;&gt;Node26 -->
<g id="edge31" class="edge">
<title>Node1&#45;&gt;Node26</title>
<path fill="none" stroke="midnightblue" d="M601.07,-211.62C592.52,-213.08 583.79,-214.57 575.45,-215.99"/>
<polygon fill="midnightblue" stroke="midnightblue" points="601.73,-215.06 611,-209.93 600.55,-208.16 601.73,-215.06"/>
</g>
<!-- Node3 -->
<g id="node3" class="node">
<title>Node3</title>
<g id="a_node3"><a xlink:href="classflow_1_1net__flow_1_1Peer__socket.html#a9ab710704237f912eb219f9b8d574afc" target="_top" xlink:title="Acts as if fatal error error::Code::S_USER_CLOSED_ABRUPTLY has been discovered on the connection.">
<polygon fill="white" stroke="black" points="316,-364.5 316,-390.5 429,-390.5 429,-364.5 316,-364.5"/>
<text text-anchor="start" x="324" y="-380.1" font-family="Helvetica,sans-Serif" font-size="8.00">flow::net_flow::Peer</text>
<text text-anchor="middle" x="372.5" y="-371.1" font-family="Helvetica,sans-Serif" font-size="8.00">_socket::close_abruptly</text>
</a>
</g>
</g>
<!-- Node2&#45;&gt;Node3 -->
<g id="edge2" class="edge">
<title>Node2&#45;&gt;Node3</title>
<path fill="none" stroke="midnightblue" d="M463.69,-377.5C452.31,-377.5 440.45,-377.5 429.2,-377.5"/>
<polygon fill="midnightblue" stroke="midnightblue" points="463.97,-381 473.97,-377.5 463.97,-374 463.97,-381"/>
</g>
<!-- Node3&#45;&gt;Node3 -->
<g id="edge3" class="edge">
<title>Node3&#45;&gt;Node3</title>
<path fill="none" stroke="midnightblue" d="M399.86,-400.94C396.82,-405.64 387.7,-409 372.5,-409 347.56,-409 338.99,-399.96 346.78,-390.77"/>
<polygon fill="midnightblue" stroke="midnightblue" points="403.27,-400.09 398.22,-390.77 396.35,-401.2 403.27,-400.09"/>
</g>
<!-- Node4&#45;&gt;Node4 -->
<g id="edge5" class="edge">
<title>Node4&#45;&gt;Node4</title>
<path fill="none" stroke="midnightblue" d="M548.98,-337.94C546.26,-342.64 538.1,-346 524.5,-346 502.19,-346 494.52,-336.96 501.49,-327.77"/>
<polygon fill="midnightblue" stroke="midnightblue" points="552.4,-337.17 547.51,-327.77 545.47,-338.17 552.4,-337.17"/>
</g>
<!-- Node6 -->
<g id="node6" class="node">
<title>Node6</title>
<g id="a_node6"><a xlink:href="classflow_1_1net__flow_1_1Peer__socket.html#af3ac1b0b3c9b1c3a5ec246148595c657" target="_top" xlink:title="Non&#45;template helper for template receive() that forwards the receive() logic to Node::receive().">
<polygon fill="white" stroke="black" points="318.5,-319.5 318.5,-345.5 426.5,-345.5 426.5,-319.5 318.5,-319.5"/>
<text text-anchor="start" x="326.5" y="-335.1" font-family="Helvetica,sans-Serif" font-size="8.00">flow::net_flow::Peer</text>
<text text-anchor="middle" x="372.5" y="-326.1" font-family="Helvetica,sans-Serif" font-size="8.00">_socket::node_receive</text>
</a>
</g>
</g>
<!-- Node5&#45;&gt;Node6 -->
<g id="edge7" class="edge">
<title>Node5&#45;&gt;Node6</title>
<path fill="none" stroke="midnightblue" d="M485.73,-286.91C481.76,-288.78 477.79,-290.67 474,-292.5 457.89,-300.27 454.5,-303.6 438,-310.5 430.47,-313.65 422.31,-316.7 414.41,-319.48"/>
<polygon fill="midnightblue" stroke="midnightblue" points="487.33,-290.03 494.9,-282.62 484.36,-283.69 487.33,-290.03"/>
</g>
<!-- Node8 -->
<g id="node8" class="node">
<title>Node8</title>
<g id="a_node8"><a xlink:href="classflow_1_1net__flow_1_1Peer__socket.html#a8abde92d5189bf2a058fe8741789f814" target="_top" xlink:title="This is to sync_receive() as node_receive() is to receive().">
<polygon fill="white" stroke="black" points="307,-274.5 307,-300.5 438,-300.5 438,-274.5 307,-274.5"/>
<text text-anchor="start" x="315" y="-290.1" font-family="Helvetica,sans-Serif" font-size="8.00">flow::net_flow::Peer</text>
<text text-anchor="middle" x="372.5" y="-281.1" font-family="Helvetica,sans-Serif" font-size="8.00">_socket::node_sync_receive</text>
</a>
</g>
</g>
<!-- Node5&#45;&gt;Node8 -->
<g id="edge9" class="edge">
<title>Node5&#45;&gt;Node8</title>
<path fill="none" stroke="midnightblue" d="M463.86,-276.66C455.43,-277.67 446.74,-278.71 438.23,-279.73"/>
<polygon fill="midnightblue" stroke="midnightblue" points="464.46,-280.11 473.97,-275.44 463.62,-273.16 464.46,-280.11"/>
</g>
<!-- Node7 -->
<g id="node7" class="node">
<title>Node7</title>
<g id="a_node7"><a xlink:href="classflow_1_1net__flow_1_1Peer__socket.html#aeb88e9253cc3f52269cb762c8e57e6d0" target="_top" xlink:title="Receives (consumes from the Receive buffer) bytes of data, up to a given maximum cumulative number of...">
<polygon fill="white" stroke="black" points="158,-374.5 158,-400.5 255,-400.5 255,-374.5 158,-374.5"/>
<text text-anchor="start" x="166" y="-390.1" font-family="Helvetica,sans-Serif" font-size="8.00">flow::net_flow::Peer</text>
<text text-anchor="middle" x="206.5" y="-381.1" font-family="Helvetica,sans-Serif" font-size="8.00">_socket::receive</text>
</a>
</g>
</g>
<!-- Node6&#45;&gt;Node7 -->
<g id="edge8" class="edge">
<title>Node6&#45;&gt;Node7</title>
<path fill="none" stroke="midnightblue" d="M322.84,-348.82C298.43,-357.01 269.27,-366.79 246.37,-374.46"/>
<polygon fill="midnightblue" stroke="midnightblue" points="324.27,-352.03 332.63,-345.53 322.04,-345.4 324.27,-352.03"/>
</g>
<!-- Node9 -->
<g id="node9" class="node">
<title>Node9</title>
<g id="a_node9"><a xlink:href="classflow_1_1net__flow_1_1Peer__socket.html#ad29f61b9885b10ddc3846cdae0560518" target="_top" xlink:title="Same as sync_receive() but uses a Fine_clock&#45;based Fine_duration non&#45;template type for implementation...">
<polygon fill="white" stroke="black" points="143,-256.5 143,-282.5 270,-282.5 270,-256.5 143,-256.5"/>
<text text-anchor="start" x="151" y="-272.1" font-family="Helvetica,sans-Serif" font-size="8.00">flow::net_flow::Peer</text>
<text text-anchor="middle" x="206.5" y="-263.1" font-family="Helvetica,sans-Serif" font-size="8.00">_socket::sync_receive_impl</text>
</a>
</g>
</g>
<!-- Node8&#45;&gt;Node9 -->
<g id="edge10" class="edge">
<title>Node8&#45;&gt;Node9</title>
<path fill="none" stroke="midnightblue" d="M296.46,-279.26C287.69,-278.3 278.82,-277.33 270.24,-276.39"/>
<polygon fill="midnightblue" stroke="midnightblue" points="296.36,-282.77 306.68,-280.39 297.12,-275.82 296.36,-282.77"/>
</g>
<!-- Node11 -->
<g id="node11" class="node">
<title>Node11</title>
<g id="a_node11"><a xlink:href="classflow_1_1net__flow_1_1Peer__socket.html#a1a2eccfa314a397c12259f414ef6798c" target="_top" xlink:title="Helper similar to sync_receive_impl() but for the nullptr_t versions of sync_receive().">
<polygon fill="white" stroke="black" points="153.5,-302 153.5,-337 259.5,-337 259.5,-302 153.5,-302"/>
<text text-anchor="start" x="161.5" y="-326.6" font-family="Helvetica,sans-Serif" font-size="8.00">flow::net_flow::Peer</text>
<text text-anchor="start" x="161.5" y="-317.6" font-family="Helvetica,sans-Serif" font-size="8.00">_socket::sync_receive</text>
<text text-anchor="middle" x="206.5" y="-308.6" font-family="Helvetica,sans-Serif" font-size="8.00">_reactor_pattern_impl</text>
</a>
</g>
</g>
<!-- Node8&#45;&gt;Node11 -->
<g id="edge12" class="edge">
<title>Node8&#45;&gt;Node11</title>
<path fill="none" stroke="midnightblue" d="M296.73,-302.09C284.23,-304.53 271.51,-307.01 259.74,-309.31"/>
<polygon fill="midnightblue" stroke="midnightblue" points="297.54,-305.5 306.68,-300.15 296.2,-298.63 297.54,-305.5"/>
</g>
<!-- Node10 -->
<g id="node10" class="node">
<title>Node10</title>
<g id="a_node10"><a xlink:href="classflow_1_1net__flow_1_1Peer__socket.html#af5143886b33b4f16e4fbfbe3a4e91e44" target="_top" xlink:title="Equivalent to sync_receive(target, duration::max(), err_code); i.e., sync_receive() with no timeout.">
<polygon fill="white" stroke="black" points="0,-256.5 0,-282.5 106,-282.5 106,-256.5 0,-256.5"/>
<text text-anchor="start" x="8" y="-272.1" font-family="Helvetica,sans-Serif" font-size="8.00">flow::net_flow::Peer</text>
<text text-anchor="middle" x="53" y="-263.1" font-family="Helvetica,sans-Serif" font-size="8.00">_socket::sync_receive</text>
</a>
</g>
</g>
<!-- Node9&#45;&gt;Node10 -->
<g id="edge11" class="edge">
<title>Node9&#45;&gt;Node10</title>
<path fill="none" stroke="midnightblue" d="M132.34,-269.5C123.58,-269.5 114.78,-269.5 106.4,-269.5"/>
<polygon fill="midnightblue" stroke="midnightblue" points="132.57,-273 142.57,-269.5 132.57,-266 132.57,-273"/>
</g>
<!-- Node11&#45;&gt;Node11 -->
<g id="edge14" class="edge">
<title>Node11&#45;&gt;Node11</title>
<path fill="none" stroke="midnightblue" d="M232.97,-347.6C229.25,-352.27 220.43,-355.5 206.5,-355.5 183.64,-355.5 174.53,-346.81 179.18,-337.28"/>
<polygon fill="midnightblue" stroke="midnightblue" points="236.49,-347.54 233.82,-337.28 229.51,-346.96 236.49,-347.54"/>
</g>
<!-- Node12 -->
<g id="node12" class="node">
<title>Node12</title>
<g id="a_node12"><a xlink:href="classflow_1_1net__flow_1_1Peer__socket.html#a34cc9ad4501bb8cefe2c4e946be88232" target="_top" xlink:title="sync_receive() operating in nullptr_t mode, wherein – if Readable state is reached – the actual data ...">
<polygon fill="white" stroke="black" points="0,-306.5 0,-332.5 106,-332.5 106,-306.5 0,-306.5"/>
<text text-anchor="start" x="8" y="-322.1" font-family="Helvetica,sans-Serif" font-size="8.00">flow::net_flow::Peer</text>
<text text-anchor="middle" x="53" y="-313.1" font-family="Helvetica,sans-Serif" font-size="8.00">_socket::sync_receive</text>
</a>
</g>
</g>
<!-- Node11&#45;&gt;Node12 -->
<g id="edge13" class="edge">
<title>Node11&#45;&gt;Node12</title>
<path fill="none" stroke="midnightblue" d="M143.19,-319.5C130.91,-319.5 118.14,-319.5 106.23,-319.5"/>
<polygon fill="midnightblue" stroke="midnightblue" points="143.36,-323 153.36,-319.5 143.36,-316 143.36,-323"/>
</g>
<!-- Node14 -->
<g id="node14" class="node">
<title>Node14</title>
<g id="a_node14"><a xlink:href="classflow_1_1net__flow_1_1Peer__socket.html#a83ba2b4c39555afad67932ea6ed39bbe" target="_top" xlink:title="Non&#45;template helper for template send() that forwards the send() logic to Node::send().">
<polygon fill="white" stroke="black" points="323.5,-117.5 323.5,-143.5 421.5,-143.5 421.5,-117.5 323.5,-117.5"/>
<text text-anchor="start" x="331.5" y="-133.1" font-family="Helvetica,sans-Serif" font-size="8.00">flow::net_flow::Peer</text>
<text text-anchor="middle" x="372.5" y="-124.1" font-family="Helvetica,sans-Serif" font-size="8.00">_socket::node_send</text>
</a>
</g>
</g>
<!-- Node13&#45;&gt;Node14 -->
<g id="edge16" class="edge">
<title>Node13&#45;&gt;Node14</title>
<path fill="none" stroke="midnightblue" d="M474,-163.33C454.36,-156.92 432.08,-149.63 413.49,-143.56"/>
<polygon fill="midnightblue" stroke="midnightblue" points="473.1,-166.72 483.7,-166.5 475.28,-160.07 473.1,-166.72"/>
</g>
<!-- Node16 -->
<g id="node16" class="node">
<title>Node16</title>
<g id="a_node16"><a xlink:href="classflow_1_1net__flow_1_1Peer__socket.html#a34e2c7dfb5596269a6f86a716015f1a6" target="_top" xlink:title="This is to sync_send() as node_send() is to send().">
<polygon fill="white" stroke="black" points="312,-166.5 312,-192.5 433,-192.5 433,-166.5 312,-166.5"/>
<text text-anchor="start" x="320" y="-182.1" font-family="Helvetica,sans-Serif" font-size="8.00">flow::net_flow::Peer</text>
<text text-anchor="middle" x="372.5" y="-173.1" font-family="Helvetica,sans-Serif" font-size="8.00">_socket::node_sync_send</text>
</a>
</g>
</g>
<!-- Node13&#45;&gt;Node16 -->
<g id="edge18" class="edge">
<title>Node13&#45;&gt;Node16</title>
<path fill="none" stroke="midnightblue" d="M463.67,-179.5C453.62,-179.5 443.2,-179.5 433.16,-179.5"/>
<polygon fill="midnightblue" stroke="midnightblue" points="463.97,-183 473.97,-179.5 463.97,-176 463.97,-183"/>
</g>
<!-- Node15 -->
<g id="node15" class="node">
<title>Node15</title>
<g id="a_node15"><a xlink:href="classflow_1_1net__flow_1_1Peer__socket.html#af90b656d7e0b7e746b8beb4e24717cec" target="_top" xlink:title="Sends (adds to the Send buffer) the given bytes of data up to a maximum internal buffer size; and asy...">
<polygon fill="white" stroke="black" points="158,-48.5 158,-74.5 255,-74.5 255,-48.5 158,-48.5"/>
<text text-anchor="start" x="166" y="-64.1" font-family="Helvetica,sans-Serif" font-size="8.00">flow::net_flow::Peer</text>
<text text-anchor="middle" x="206.5" y="-55.1" font-family="Helvetica,sans-Serif" font-size="8.00">_socket::send</text>
</a>
</g>
</g>
<!-- Node14&#45;&gt;Node15 -->
<g id="edge17" class="edge">
<title>Node14&#45;&gt;Node15</title>
<path fill="none" stroke="midnightblue" d="M335.28,-113.06C316.3,-104.13 292.57,-93.33 271,-84.5 262.75,-81.13 253.81,-77.73 245.3,-74.62"/>
<polygon fill="midnightblue" stroke="midnightblue" points="333.93,-116.29 344.46,-117.4 336.92,-109.96 333.93,-116.29"/>
</g>
<!-- Node17 -->
<g id="node17" class="node">
<title>Node17</title>
<g id="a_node17"><a xlink:href="classflow_1_1net__flow_1_1Peer__socket.html#a3f1a802024549a59978a53343b09a86d" target="_top" xlink:title="Same as sync_send() but uses a Fine_clock&#45;based Fine_duration non&#45;template type for implementation co...">
<polygon fill="white" stroke="black" points="148,-166.5 148,-192.5 265,-192.5 265,-166.5 148,-166.5"/>
<text text-anchor="start" x="156" y="-182.1" font-family="Helvetica,sans-Serif" font-size="8.00">flow::net_flow::Peer</text>
<text text-anchor="middle" x="206.5" y="-173.1" font-family="Helvetica,sans-Serif" font-size="8.00">_socket::sync_send_impl</text>
</a>
</g>
</g>
<!-- Node16&#45;&gt;Node17 -->
<g id="edge19" class="edge">
<title>Node16&#45;&gt;Node17</title>
<path fill="none" stroke="midnightblue" d="M301.72,-179.5C289.55,-179.5 277.01,-179.5 265.21,-179.5"/>
<polygon fill="midnightblue" stroke="midnightblue" points="301.83,-183 311.83,-179.5 301.83,-176 301.83,-183"/>
</g>
<!-- Node19 -->
<g id="node19" class="node">
<title>Node19</title>
<g id="a_node19"><a xlink:href="classflow_1_1net__flow_1_1Peer__socket.html#a15ba1d4af6d4e3fcab9534a307c00595" target="_top" xlink:title="Helper similar to sync_send_impl() but for the nullptr_t versions of sync_send().">
<polygon fill="white" stroke="black" points="142,-94 142,-129 271,-129 271,-94 142,-94"/>
<text text-anchor="start" x="150" y="-118.6" font-family="Helvetica,sans-Serif" font-size="8.00">flow::net_flow::Peer</text>
<text text-anchor="start" x="150" y="-109.6" font-family="Helvetica,sans-Serif" font-size="8.00">_socket::sync_send_reactor</text>
<text text-anchor="middle" x="206.5" y="-100.6" font-family="Helvetica,sans-Serif" font-size="8.00">_pattern_impl</text>
</a>
</g>
</g>
<!-- Node16&#45;&gt;Node19 -->
<g id="edge21" class="edge">
<title>Node16&#45;&gt;Node19</title>
<path fill="none" stroke="midnightblue" d="M330.47,-162.49C305.89,-152.3 274.7,-139.36 249.88,-129.07"/>
<polygon fill="midnightblue" stroke="midnightblue" points="329.3,-165.79 339.88,-166.39 331.98,-159.33 329.3,-165.79"/>
</g>
<!-- Node18 -->
<g id="node18" class="node">
<title>Node18</title>
<g id="a_node18"><a xlink:href="classflow_1_1net__flow_1_1Peer__socket.html#a6b9fa02a7c41b52fde9e05e862a9d20f" target="_top" xlink:title="Equivalent to sync_send(data, duration::max(), err_code); i.e., sync_send() with no timeout.">
<polygon fill="white" stroke="black" points="4.5,-166.5 4.5,-192.5 101.5,-192.5 101.5,-166.5 4.5,-166.5"/>
<text text-anchor="start" x="12.5" y="-182.1" font-family="Helvetica,sans-Serif" font-size="8.00">flow::net_flow::Peer</text>
<text text-anchor="middle" x="53" y="-173.1" font-family="Helvetica,sans-Serif" font-size="8.00">_socket::sync_send</text>
</a>
</g>
</g>
<!-- Node17&#45;&gt;Node18 -->
<g id="edge20" class="edge">
<title>Node17&#45;&gt;Node18</title>
<path fill="none" stroke="midnightblue" d="M137.68,-179.5C125.54,-179.5 113.12,-179.5 101.7,-179.5"/>
<polygon fill="midnightblue" stroke="midnightblue" points="137.79,-183 147.79,-179.5 137.79,-176 137.79,-183"/>
</g>
<!-- Node19&#45;&gt;Node19 -->
<g id="edge23" class="edge">
<title>Node19&#45;&gt;Node19</title>
<path fill="none" stroke="midnightblue" d="M232.97,-139.6C229.25,-144.27 220.43,-147.5 206.5,-147.5 183.64,-147.5 174.53,-138.81 179.18,-129.28"/>
<polygon fill="midnightblue" stroke="midnightblue" points="236.49,-139.54 233.82,-129.28 229.51,-138.96 236.49,-139.54"/>
</g>
<!-- Node20 -->
<g id="node20" class="node">
<title>Node20</title>
<g id="a_node20"><a xlink:href="classflow_1_1net__flow_1_1Peer__socket.html#aa4c4e5917d693efdf4701962bdc35a0f" target="_top" xlink:title="sync_send() operating in nullptr_t mode, wherein – if Writable state is reached – the actual data are...">
<polygon fill="white" stroke="black" points="4.5,-98.5 4.5,-124.5 101.5,-124.5 101.5,-98.5 4.5,-98.5"/>
<text text-anchor="start" x="12.5" y="-114.1" font-family="Helvetica,sans-Serif" font-size="8.00">flow::net_flow::Peer</text>
<text text-anchor="middle" x="53" y="-105.1" font-family="Helvetica,sans-Serif" font-size="8.00">_socket::sync_send</text>
</a>
</g>
</g>
<!-- Node19&#45;&gt;Node20 -->
<g id="edge22" class="edge">
<title>Node19&#45;&gt;Node20</title>
<path fill="none" stroke="midnightblue" d="M131.55,-111.5C121.37,-111.5 111.15,-111.5 101.62,-111.5"/>
<polygon fill="midnightblue" stroke="midnightblue" points="131.69,-115 141.69,-111.5 131.69,-108 131.69,-115"/>
</g>
<!-- Node21&#45;&gt;Node21 -->
<g id="edge25" class="edge">
<title>Node21&#45;&gt;Node21</title>
<path fill="none" stroke="midnightblue" d="M548.98,-139.94C546.26,-144.64 538.1,-148 524.5,-148 502.19,-148 494.52,-138.96 501.49,-129.77"/>
<polygon fill="midnightblue" stroke="midnightblue" points="552.4,-139.17 547.51,-129.77 545.47,-140.17 552.4,-139.17"/>
</g>
<!-- Node23 -->
<g id="node23" class="node">
<title>Node23</title>
<g id="a_node23"><a xlink:href="classflow_1_1net__flow_1_1Peer__socket.html#aad81cc16fc6f0d353fdc1379e1dd4712" target="_top" xlink:title="Returns a structure containing the most up&#45;to&#45;date stats about this connection.">
<polygon fill="white" stroke="black" points="324,-63.5 324,-89.5 421,-89.5 421,-63.5 324,-63.5"/>
<text text-anchor="start" x="332" y="-79.1" font-family="Helvetica,sans-Serif" font-size="8.00">flow::net_flow::Peer</text>
<text text-anchor="middle" x="372.5" y="-70.1" font-family="Helvetica,sans-Serif" font-size="8.00">_socket::info</text>
</a>
</g>
</g>
<!-- Node22&#45;&gt;Node23 -->
<g id="edge27" class="edge">
<title>Node22&#45;&gt;Node23</title>
<path fill="none" stroke="midnightblue" d="M463.82,-73.49C449.66,-73.96 434.74,-74.46 421.2,-74.91"/>
<polygon fill="midnightblue" stroke="midnightblue" points="464.09,-76.98 473.97,-73.15 463.86,-69.99 464.09,-76.98"/>
</g>
<!-- Node25 -->
<g id="node25" class="node">
<title>Node25</title>
<g id="a_node25"><a xlink:href="classflow_1_1net__flow_1_1Peer__socket.html#a7d31cf18a3c075873de1c46c0176e41f" target="_top" xlink:title="Dynamically replaces the current options set (options()) with the given options set.">
<polygon fill="white" stroke="black" points="322,-0.5 322,-26.5 423,-26.5 423,-0.5 322,-0.5"/>
<text text-anchor="start" x="330" y="-16.1" font-family="Helvetica,sans-Serif" font-size="8.00">flow::net_flow::Peer</text>
<text text-anchor="middle" x="372.5" y="-7.1" font-family="Helvetica,sans-Serif" font-size="8.00">_socket::set_options</text>
</a>
</g>
</g>
<!-- Node24&#45;&gt;Node25 -->
<g id="edge29" class="edge">
<title>Node24&#45;&gt;Node25</title>
<path fill="none" stroke="midnightblue" d="M463.84,-21.33C450.38,-20.16 436.24,-18.94 423.24,-17.81"/>
<polygon fill="midnightblue" stroke="midnightblue" points="463.7,-24.83 473.97,-22.21 464.31,-17.86 463.7,-24.83"/>
</g>
<!-- Node25&#45;&gt;Node25 -->
<g id="edge30" class="edge">
<title>Node25&#45;&gt;Node25</title>
<path fill="none" stroke="midnightblue" d="M399.86,-36.94C396.82,-41.64 387.7,-45 372.5,-45 347.56,-45 338.99,-35.96 346.78,-26.77"/>
<polygon fill="midnightblue" stroke="midnightblue" points="403.27,-36.09 398.22,-26.77 396.35,-37.2 403.27,-36.09"/>
</g>
<!-- Node26&#45;&gt;Node8 -->
<g id="edge32" class="edge">
<title>Node26&#45;&gt;Node8</title>
<path fill="none" stroke="midnightblue" d="M485.73,-241.91C481.76,-243.78 477.79,-245.67 474,-247.5 457.89,-255.27 454.5,-258.6 438,-265.5 430.47,-268.65 422.31,-271.7 414.41,-274.48"/>
<polygon fill="midnightblue" stroke="midnightblue" points="487.33,-245.03 494.9,-237.62 484.36,-238.69 487.33,-245.03"/>
</g>
<!-- Node26&#45;&gt;Node16 -->
<g id="edge33" class="edge">
<title>Node26&#45;&gt;Node16</title>
<path fill="none" stroke="midnightblue" d="M470.1,-208.48C452.71,-203.26 433.63,-197.54 417.05,-192.56"/>
<polygon fill="midnightblue" stroke="midnightblue" points="469.53,-211.96 480.11,-211.48 471.54,-205.26 469.53,-211.96"/>
</g>
<!-- Node27 -->
<g id="node27" class="node">
<title>Node27</title>
<g id="a_node27"><a xlink:href="classflow_1_1net__flow_1_1Server__socket.html#a7f374375e95e008cfe0326ecfb27cf3b" target="_top" xlink:title="Same as sync_accept() but uses a Fine_clock&#45;based Fine_duration non&#45;template type for implementation ...">
<polygon fill="white" stroke="black" points="310,-211.5 310,-237.5 435,-237.5 435,-211.5 310,-211.5"/>
<text text-anchor="start" x="318" y="-227.1" font-family="Helvetica,sans-Serif" font-size="8.00">flow::net_flow::Server</text>
<text text-anchor="middle" x="372.5" y="-218.1" font-family="Helvetica,sans-Serif" font-size="8.00">_socket::sync_accept_impl</text>
</a>
</g>
</g>
<!-- Node26&#45;&gt;Node27 -->
<g id="edge34" class="edge">
<title>Node26&#45;&gt;Node27</title>
<path fill="none" stroke="midnightblue" d="M463.85,-224.5C454.36,-224.5 444.54,-224.5 435.02,-224.5"/>
<polygon fill="midnightblue" stroke="midnightblue" points="463.97,-228 473.97,-224.5 463.97,-221 463.97,-228"/>
</g>
<!-- Node27&#45;&gt;Node27 -->
<g id="edge36" class="edge">
<title>Node27&#45;&gt;Node27</title>
<path fill="none" stroke="midnightblue" d="M399.86,-247.94C396.82,-252.64 387.7,-256 372.5,-256 347.56,-256 338.99,-246.96 346.78,-237.77"/>
<polygon fill="midnightblue" stroke="midnightblue" points="403.27,-247.09 398.22,-237.77 396.35,-248.2 403.27,-247.09"/>
</g>
<!-- Node28 -->
<g id="node28" class="node">
<title>Node28</title>
<g id="a_node28"><a xlink:href="classflow_1_1net__flow_1_1Server__socket.html#a02ba529163a2d50132eff7aec9d9c9b8" target="_top" xlink:title="Blocking (synchronous) version of accept().">
<polygon fill="white" stroke="black" points="154,-211.5 154,-237.5 259,-237.5 259,-211.5 154,-211.5"/>
<text text-anchor="start" x="162" y="-227.1" font-family="Helvetica,sans-Serif" font-size="8.00">flow::net_flow::Server</text>
<text text-anchor="middle" x="206.5" y="-218.1" font-family="Helvetica,sans-Serif" font-size="8.00">_socket::sync_accept</text>
</a>
</g>
</g>
<!-- Node27&#45;&gt;Node28 -->
<g id="edge35" class="edge">
<title>Node27&#45;&gt;Node28</title>
<path fill="none" stroke="midnightblue" d="M299.65,-224.5C286.03,-224.5 272.03,-224.5 259.19,-224.5"/>
<polygon fill="midnightblue" stroke="midnightblue" points="299.97,-228 309.97,-224.5 299.97,-221 299.97,-228"/>
</g>
</g>
</svg>
