<?xml version="1.0" encoding="UTF-8" standalone="no"?>
<!DOCTYPE svg PUBLIC "-//W3C//DTD SVG 1.1//EN"
 "http://www.w3.org/Graphics/SVG/1.1/DTD/svg11.dtd">
<!-- Generated by graphviz version 2.43.0 (0)
 -->
<!-- Title: flow::util::Linked_hash_key&lt; Key_t, Iterator_t, IS_ITER_TO_PAIR &gt; Pages: 1 -->
<svg width="189pt" height="107pt"
 viewBox="0.00 0.00 189.00 107.00" xmlns="http://www.w3.org/2000/svg" xmlns:xlink="http://www.w3.org/1999/xlink">
<g id="graph0" class="graph" transform="scale(1 1) rotate(0) translate(4 103)">
<title>flow::util::Linked_hash_key&lt; Key_t, Iterator_t, IS_ITER_TO_PAIR &gt;</title>
<polygon fill="white" stroke="transparent" points="-4,4 -4,-103 185,-103 185,4 -4,4"/>
<!-- Node1 -->
<g id="node1" class="node">
<title>Node1</title>
<g id="a_node1"><a xlink:title="The internal&#45;use key/iterator&#45;wrapper, used as the key type in internal&#45;use set&#45;type Linked_hash_key_...">
<polygon fill="#bfbfbf" stroke="black" points="6,-0.5 6,-35.5 129,-35.5 129,-0.5 6,-0.5"/>
<text text-anchor="start" x="14" y="-25.1" font-family="Helvetica,sans-Serif" font-size="8.00">flow::util::Linked</text>
<text text-anchor="start" x="14" y="-16.1" font-family="Helvetica,sans-Serif" font-size="8.00">_hash_key&lt; Key_t, Iterator</text>
<text text-anchor="middle" x="67.5" y="-7.1" font-family="Helvetica,sans-Serif" font-size="8.00">_t, IS_ITER_TO_PAIR &gt;</text>
</a>
</g>
</g>
<!-- Node2 -->
<g id="node2" class="node">
<title>Node2</title>
<g id="a_node2"><a xlink:href="classbool.html" target="_top" xlink:title=" ">
<polygon fill="white" stroke="#bfbfbf" points="0,-81.5 0,-98.5 35,-98.5 35,-81.5 0,-81.5"/>
<text text-anchor="middle" x="17.5" y="-88.1" font-family="Helvetica,sans-Serif" font-size="8.00">bool</text>
</a>
</g>
</g>
<!-- Node2&#45;&gt;Node1 -->
<g id="edge1" class="edge">
<title>Node2&#45;&gt;Node1</title>
<path fill="none" stroke="#9a32cd" stroke-dasharray="5,2" d="M14.97,-71.16C14.92,-65.4 15.75,-59.17 18.5,-54 22.38,-46.71 28.54,-40.59 35.19,-35.6"/>
<polygon fill="#9a32cd" stroke="#9a32cd" points="11.49,-71.6 15.84,-81.27 18.47,-71 11.49,-71.6"/>
<text text-anchor="middle" x="57" y="-56.6" font-family="Helvetica,sans-Serif" font-size="8.00"> S_IS_ITER_TO_PAIR</text>
</g>
<!-- Node3 -->
<g id="node3" class="node">
<title>Node3</title>
<g id="a_node3"><a xlink:title=" ">
<polygon fill="white" stroke="#bfbfbf" points="54,-81.5 54,-98.5 181,-98.5 181,-81.5 54,-81.5"/>
<text text-anchor="middle" x="117.5" y="-88.1" font-family="Helvetica,sans-Serif" font-size="8.00">variant&lt; Key_ptr, Iterator &gt;</text>
</a>
</g>
</g>
<!-- Node3&#45;&gt;Node1 -->
<g id="edge2" class="edge">
<title>Node3&#45;&gt;Node1</title>
<path fill="none" stroke="#9a32cd" stroke-dasharray="5,2" d="M107.57,-72.36C103.92,-66.46 99.66,-59.85 95.5,-54 91.17,-47.91 86.15,-41.47 81.57,-35.79"/>
<polygon fill="#9a32cd" stroke="#9a32cd" points="104.84,-74.6 113.02,-81.33 110.82,-70.96 104.84,-74.6"/>
<text text-anchor="middle" x="125.5" y="-56.6" font-family="Helvetica,sans-Serif" font-size="8.00"> m_key_hndl</text>
</g>
</g>
</svg>
