<?xml version="1.0" encoding="UTF-8" standalone="no"?>
<!DOCTYPE svg PUBLIC "-//W3C//DTD SVG 1.1//EN"
 "http://www.w3.org/Graphics/SVG/1.1/DTD/svg11.dtd">
<!-- Generated by graphviz version 2.43.0 (0)
 -->
<!-- Title: flow::log::Thread_local_string_appender Pages: 1 -->
<svg width="839pt" height="173pt"
 viewBox="0.00 0.00 839.00 172.50" xmlns="http://www.w3.org/2000/svg" xmlns:xlink="http://www.w3.org/1999/xlink">
<g id="graph0" class="graph" transform="scale(1 1) rotate(0) translate(4 168.5)">
<title>flow::log::Thread_local_string_appender</title>
<polygon fill="white" stroke="transparent" points="-4,4 -4,-168.5 835,-168.5 835,4 -4,4"/>
<!-- Node1 -->
<g id="node1" class="node">
<title>Node1</title>
<g id="a_node1"><a xlink:title="Internal flow::log class that facilitates a more efficient way to get util::ostream_op_to_string() be...">
<polygon fill="#bfbfbf" stroke="black" points="721,-67.5 721,-93.5 831,-93.5 831,-67.5 721,-67.5"/>
<text text-anchor="start" x="729" y="-83.1" font-family="Helvetica,sans-Serif" font-size="8.00">flow::log::Thread_local</text>
<text text-anchor="middle" x="776" y="-74.1" font-family="Helvetica,sans-Serif" font-size="8.00">_string_appender</text>
</a>
</g>
</g>
<!-- Node2 -->
<g id="node2" class="node">
<title>Node2</title>
<g id="a_node2"><a xlink:title=" ">
<polygon fill="white" stroke="#bfbfbf" points="140.5,-147 140.5,-164 239.5,-164 239.5,-147 140.5,-147"/>
<text text-anchor="middle" x="190" y="-153.6" font-family="Helvetica,sans-Serif" font-size="8.00">boost::noncopyable</text>
</a>
</g>
</g>
<!-- Node2&#45;&gt;Node1 -->
<g id="edge1" class="edge">
<title>Node2&#45;&gt;Node1</title>
<path fill="none" stroke="#8b1a1a" d="M249.96,-155.82C346.27,-155.06 542.66,-148.06 703,-107.5 716.98,-103.96 731.98,-98.61 744.65,-93.59"/>
<polygon fill="#8b1a1a" stroke="#8b1a1a" points="249.82,-152.32 239.84,-155.88 249.86,-159.32 249.82,-152.32"/>
</g>
<!-- Node4 -->
<g id="node4" class="node">
<title>Node4</title>
<g id="a_node4"><a xlink:href="classflow_1_1util_1_1String__ostream.html" target="_top" xlink:title="Similar to ostringstream but allows fast read&#45;only access directly into the std::string being written...">
<polygon fill="white" stroke="black" points="445.5,-90.5 445.5,-116.5 527.5,-116.5 527.5,-90.5 445.5,-90.5"/>
<text text-anchor="start" x="453.5" y="-106.1" font-family="Helvetica,sans-Serif" font-size="8.00">flow::util::String</text>
<text text-anchor="middle" x="486.5" y="-97.1" font-family="Helvetica,sans-Serif" font-size="8.00">_ostream</text>
</a>
</g>
</g>
<!-- Node2&#45;&gt;Node4 -->
<g id="edge4" class="edge">
<title>Node2&#45;&gt;Node4</title>
<path fill="none" stroke="#8b1a1a" d="M249.77,-146.26C289.43,-139.9 342.94,-131.08 390,-122.5 408.13,-119.19 428.13,-115.26 445.13,-111.83"/>
<polygon fill="#8b1a1a" stroke="#8b1a1a" points="249.06,-142.83 239.74,-147.87 250.16,-149.74 249.06,-142.83"/>
</g>
<!-- Node3 -->
<g id="node3" class="node">
<title>Node3</title>
<g id="a_node3"><a xlink:title=" ">
<polygon fill="white" stroke="#bfbfbf" points="408,-45.5 408,-71.5 565,-71.5 565,-45.5 408,-45.5"/>
<text text-anchor="start" x="416" y="-61.1" font-family="Helvetica,sans-Serif" font-size="8.00">thread_specific_ptr</text>
<text text-anchor="middle" x="486.5" y="-52.1" font-family="Helvetica,sans-Serif" font-size="8.00">&lt; Source_obj_to_appender_map &gt;</text>
</a>
</g>
</g>
<!-- Node3&#45;&gt;Node1 -->
<g id="edge2" class="edge">
<title>Node3&#45;&gt;Node1</title>
<path fill="none" stroke="#9a32cd" stroke-dasharray="5,2" d="M575.08,-58.68C614.32,-59.55 661.09,-61.68 703,-66.5 708.82,-67.17 714.87,-68.05 720.89,-69.05"/>
<polygon fill="#9a32cd" stroke="#9a32cd" points="575.09,-55.18 565.02,-58.48 574.95,-62.18 575.09,-55.18"/>
<text text-anchor="middle" x="643" y="-69.1" font-family="Helvetica,sans-Serif" font-size="8.00"> s_this_thread_appender_ptrs</text>
</g>
<!-- Node4&#45;&gt;Node1 -->
<g id="edge3" class="edge">
<title>Node4&#45;&gt;Node1</title>
<path fill="none" stroke="#9a32cd" stroke-dasharray="5,2" d="M537.95,-99.46C589.18,-95.37 668.23,-89.04 720.77,-84.84"/>
<polygon fill="#9a32cd" stroke="#9a32cd" points="537.47,-95.99 527.78,-100.28 538.03,-102.97 537.47,-95.99"/>
<text text-anchor="middle" x="643" y="-97.1" font-family="Helvetica,sans-Serif" font-size="8.00"> m_target_appender_ostream</text>
</g>
<!-- Node5 -->
<g id="node5" class="node">
<title>Node5</title>
<g id="a_node5"><a xlink:title=" ">
<polygon fill="white" stroke="black" points="160.5,-104 160.5,-121 219.5,-121 219.5,-104 160.5,-104"/>
<text text-anchor="middle" x="190" y="-110.6" font-family="Helvetica,sans-Serif" font-size="8.00">std::string</text>
</a>
</g>
</g>
<!-- Node5&#45;&gt;Node4 -->
<g id="edge5" class="edge">
<title>Node5&#45;&gt;Node4</title>
<path fill="none" stroke="#9a32cd" stroke-dasharray="5,2" d="M230.11,-107.79C242.81,-106.46 256.99,-105.19 270,-104.5 331.09,-101.27 402.05,-101.76 445.35,-102.53"/>
<polygon fill="#9a32cd" stroke="#9a32cd" points="229.4,-104.34 219.84,-108.91 230.16,-111.3 229.4,-104.34"/>
<text text-anchor="middle" x="330" y="-116.1" font-family="Helvetica,sans-Serif" font-size="8.00"> m_own_target_str</text>
<text text-anchor="middle" x="330" y="-107.1" font-family="Helvetica,sans-Serif" font-size="8.00">m_target</text>
</g>
<!-- Node6 -->
<g id="node6" class="node">
<title>Node6</title>
<g id="a_node6"><a xlink:title=" ">
<polygon fill="white" stroke="black" points="0,-99.5 0,-125.5 91,-125.5 91,-99.5 0,-99.5"/>
<text text-anchor="start" x="8" y="-115.1" font-family="Helvetica,sans-Serif" font-size="8.00">std::basic_string&lt;</text>
<text text-anchor="middle" x="45.5" y="-106.1" font-family="Helvetica,sans-Serif" font-size="8.00"> Char &gt;</text>
</a>
</g>
</g>
<!-- Node6&#45;&gt;Node5 -->
<g id="edge6" class="edge">
<title>Node6&#45;&gt;Node5</title>
<path fill="none" stroke="midnightblue" d="M101.47,-112.5C121.49,-112.5 143.32,-112.5 160.18,-112.5"/>
<polygon fill="midnightblue" stroke="midnightblue" points="101.2,-109 91.2,-112.5 101.2,-116 101.2,-109"/>
</g>
<!-- Node7 -->
<g id="node7" class="node">
<title>Node7</title>
<g id="a_node7"><a xlink:title=" ">
<polygon fill="white" stroke="#bfbfbf" points="143,-58.5 143,-84.5 237,-84.5 237,-58.5 143,-58.5"/>
<text text-anchor="start" x="151" y="-74.1" font-family="Helvetica,sans-Serif" font-size="8.00">back_insert_device</text>
<text text-anchor="middle" x="190" y="-65.1" font-family="Helvetica,sans-Serif" font-size="8.00">&lt; std::string &gt;</text>
</a>
</g>
</g>
<!-- Node7&#45;&gt;Node4 -->
<g id="edge7" class="edge">
<title>Node7&#45;&gt;Node4</title>
<path fill="none" stroke="#9a32cd" stroke-dasharray="5,2" d="M247.41,-75.25C287.31,-78.17 342.03,-82.69 390,-88.5 408.16,-90.7 428.17,-93.74 445.16,-96.52"/>
<polygon fill="#9a32cd" stroke="#9a32cd" points="247.56,-71.76 237.34,-74.53 247.06,-78.74 247.56,-71.76"/>
<text text-anchor="middle" x="330" y="-91.1" font-family="Helvetica,sans-Serif" font-size="8.00"> m_target_inserter</text>
</g>
<!-- Node8 -->
<g id="node8" class="node">
<title>Node8</title>
<g id="a_node8"><a xlink:title=" ">
<polygon fill="white" stroke="#bfbfbf" points="128,-4 128,-39 252,-39 252,-4 128,-4"/>
<text text-anchor="start" x="136" y="-28.6" font-family="Helvetica,sans-Serif" font-size="8.00">stream&lt; boost::iostreams</text>
<text text-anchor="start" x="136" y="-19.6" font-family="Helvetica,sans-Serif" font-size="8.00">::back_insert_device&lt; std</text>
<text text-anchor="middle" x="190" y="-10.6" font-family="Helvetica,sans-Serif" font-size="8.00">::string &gt; &gt;</text>
</a>
</g>
</g>
<!-- Node8&#45;&gt;Node4 -->
<g id="edge8" class="edge">
<title>Node8&#45;&gt;Node4</title>
<path fill="none" stroke="#9a32cd" stroke-dasharray="5,2" d="M262.11,-26.53C301.69,-31.71 350.73,-42.22 390,-63.5 399.95,-68.89 398.24,-75.77 408,-81.5 419.34,-88.16 432.8,-92.89 445.29,-96.22"/>
<polygon fill="#9a32cd" stroke="#9a32cd" points="262.36,-23.03 252.01,-25.29 261.51,-29.98 262.36,-23.03"/>
<text text-anchor="middle" x="330" y="-66.1" font-family="Helvetica,sans-Serif" font-size="8.00"> m_target_appender_ostream</text>
</g>
<!-- Node9 -->
<g id="node9" class="node">
<title>Node9</title>
<g id="a_node9"><a xlink:title=" ">
<polygon fill="white" stroke="#bfbfbf" points="437.5,-0.5 437.5,-26.5 535.5,-26.5 535.5,-0.5 437.5,-0.5"/>
<text text-anchor="start" x="445.5" y="-16.1" font-family="Helvetica,sans-Serif" font-size="8.00">unique_ptr&lt; boost::</text>
<text text-anchor="middle" x="486.5" y="-7.1" font-family="Helvetica,sans-Serif" font-size="8.00">io::ios_all_saver &gt;</text>
</a>
</g>
</g>
<!-- Node9&#45;&gt;Node1 -->
<g id="edge9" class="edge">
<title>Node9&#45;&gt;Node1</title>
<path fill="none" stroke="#9a32cd" stroke-dasharray="5,2" d="M545.88,-12.85C590.1,-13.99 651.77,-19.1 703,-36.5 723.53,-43.47 744.39,-57.09 758.33,-67.34"/>
<polygon fill="#9a32cd" stroke="#9a32cd" points="545.94,-9.35 535.88,-12.66 545.81,-16.35 545.94,-9.35"/>
<text text-anchor="start" x="583" y="-48.1" font-family="Helvetica,sans-Serif" font-size="8.00"> m_target_appender_ostream</text>
<text text-anchor="middle" x="643" y="-39.1" font-family="Helvetica,sans-Serif" font-size="8.00">_prev_os_state</text>
</g>
</g>
</svg>
