<?xml version="1.0" encoding="UTF-8" standalone="no"?>
<!DOCTYPE svg PUBLIC "-//W3C//DTD SVG 1.1//EN"
 "http://www.w3.org/Graphics/SVG/1.1/DTD/svg11.dtd">
<!-- Generated by graphviz version 2.43.0 (0)
 -->
<!-- Title: flow::net_flow::Node Pages: 1 -->
<svg width="365pt" height="143pt"
 viewBox="0.00 0.00 364.50 143.00" xmlns="http://www.w3.org/2000/svg" xmlns:xlink="http://www.w3.org/1999/xlink">
<g id="graph0" class="graph" transform="scale(1 1) rotate(0) translate(4 139)">
<title>flow::net_flow::Node</title>
<polygon fill="white" stroke="transparent" points="-4,4 -4,-139 360.5,-139 360.5,4 -4,4"/>
<!-- Node1 -->
<g id="node1" class="node">
<title>Node1</title>
<g id="a_node1"><a xlink:title="An object of this class is a single Flow&#45;protocol networking node, in the sense that: (1) it has a di...">
<polygon fill="#bfbfbf" stroke="black" points="135.5,-63.5 135.5,-80.5 236.5,-80.5 236.5,-63.5 135.5,-63.5"/>
<text text-anchor="middle" x="186" y="-70.1" font-family="Helvetica,sans-Serif" font-size="8.00">flow::net_flow::Node</text>
</a>
</g>
</g>
<!-- Node5 -->
<g id="node5" class="node">
<title>Node5</title>
<g id="a_node5"><a xlink:href="classflow_1_1net__flow_1_1asio_1_1Node.html" target="_top" xlink:title="A subclass of net_flow::Node that adds the ability to easily and directly use net_flow sockets in gen...">
<polygon fill="white" stroke="black" points="138,-0.5 138,-26.5 234,-26.5 234,-0.5 138,-0.5"/>
<text text-anchor="start" x="146" y="-16.1" font-family="Helvetica,sans-Serif" font-size="8.00">flow::net_flow::asio</text>
<text text-anchor="middle" x="186" y="-7.1" font-family="Helvetica,sans-Serif" font-size="8.00">::Node</text>
</a>
</g>
</g>
<!-- Node1&#45;&gt;Node5 -->
<g id="edge4" class="edge">
<title>Node1&#45;&gt;Node5</title>
<path fill="none" stroke="midnightblue" d="M186,-53C186,-44.4 186,-34.32 186,-26.64"/>
<polygon fill="midnightblue" stroke="midnightblue" points="182.5,-53.14 186,-63.14 189.5,-53.14 182.5,-53.14"/>
</g>
<!-- Node2 -->
<g id="node2" class="node">
<title>Node2</title>
<g id="a_node2"><a xlink:href="classflow_1_1util_1_1Null__interface.html" target="_top" xlink:title="An empty interface, consisting of nothing but a default virtual destructor, intended as a boiler&#45;plat...">
<polygon fill="white" stroke="black" points="0,-117.5 0,-134.5 114,-134.5 114,-117.5 0,-117.5"/>
<text text-anchor="middle" x="57" y="-124.1" font-family="Helvetica,sans-Serif" font-size="8.00">flow::util::Null_interface</text>
</a>
</g>
</g>
<!-- Node2&#45;&gt;Node1 -->
<g id="edge1" class="edge">
<title>Node2&#45;&gt;Node1</title>
<path fill="none" stroke="midnightblue" d="M85.04,-113.7C109.94,-103.66 145.62,-89.28 167.22,-80.57"/>
<polygon fill="midnightblue" stroke="midnightblue" points="83.72,-110.45 75.76,-117.44 86.34,-116.95 83.72,-110.45"/>
</g>
<!-- Node3 -->
<g id="node3" class="node">
<title>Node3</title>
<g id="a_node3"><a xlink:href="classflow_1_1log_1_1Log__context.html" target="_top" xlink:title="Convenience class that simply stores a Logger and/or Component passed into a constructor; and returns...">
<polygon fill="white" stroke="black" points="132.5,-117.5 132.5,-134.5 239.5,-134.5 239.5,-117.5 132.5,-117.5"/>
<text text-anchor="middle" x="186" y="-124.1" font-family="Helvetica,sans-Serif" font-size="8.00">flow::log::Log_context</text>
</a>
</g>
</g>
<!-- Node3&#45;&gt;Node1 -->
<g id="edge2" class="edge">
<title>Node3&#45;&gt;Node1</title>
<path fill="none" stroke="midnightblue" d="M186,-107.06C186,-98.06 186,-87.63 186,-80.7"/>
<polygon fill="midnightblue" stroke="midnightblue" points="182.5,-107.33 186,-117.33 189.5,-107.33 182.5,-107.33"/>
</g>
<!-- Node4 -->
<g id="node4" class="node">
<title>Node4</title>
<g id="a_node4"><a xlink:title=" ">
<polygon fill="white" stroke="#bfbfbf" points="257.5,-117.5 257.5,-134.5 356.5,-134.5 356.5,-117.5 257.5,-117.5"/>
<text text-anchor="middle" x="307" y="-124.1" font-family="Helvetica,sans-Serif" font-size="8.00">boost::noncopyable</text>
</a>
</g>
</g>
<!-- Node4&#45;&gt;Node1 -->
<g id="edge3" class="edge">
<title>Node4&#45;&gt;Node1</title>
<path fill="none" stroke="#8b1a1a" d="M280.07,-113.43C256.76,-103.41 223.7,-89.2 203.62,-80.57"/>
<polygon fill="#8b1a1a" stroke="#8b1a1a" points="278.84,-116.71 289.41,-117.44 281.6,-110.27 278.84,-116.71"/>
</g>
</g>
</svg>
