<?xml version="1.0" encoding="UTF-8" standalone="no"?>
<!DOCTYPE svg PUBLIC "-//W3C//DTD SVG 1.1//EN"
 "http://www.w3.org/Graphics/SVG/1.1/DTD/svg11.dtd">
<!-- Generated by graphviz version 2.43.0 (0)
 -->
<!-- Title: flow::log::Log_context_mt::swap Pages: 1 -->
<svg width="231pt" height="53pt"
 viewBox="0.00 0.00 231.00 53.00" xmlns="http://www.w3.org/2000/svg" xmlns:xlink="http://www.w3.org/1999/xlink">
<g id="graph0" class="graph" transform="scale(1 1) rotate(0) translate(4 49)">
<title>flow::log::Log_context_mt::swap</title>
<polygon fill="white" stroke="transparent" points="-4,4 -4,-49 227,-49 227,4 -4,4"/>
<!-- Node1 -->
<g id="node1" class="node">
<title>Node1</title>
<g id="a_node1"><a xlink:title="Identical to Log_context API; but safe against concurrent operations on a *this.">
<polygon fill="#bfbfbf" stroke="black" points="0,-0.5 0,-26.5 107,-26.5 107,-0.5 0,-0.5"/>
<text text-anchor="start" x="8" y="-16.1" font-family="Helvetica,sans-Serif" font-size="8.00">flow::log::Log_context</text>
<text text-anchor="middle" x="53.5" y="-7.1" font-family="Helvetica,sans-Serif" font-size="8.00">_mt::swap</text>
</a>
</g>
</g>
<!-- Node1&#45;&gt;Node1 -->
<g id="edge1" class="edge">
<title>Node1&#45;&gt;Node1</title>
<path fill="none" stroke="midnightblue" d="M31.84,-26.77C25.28,-35.96 32.5,-45 53.5,-45 66.3,-45 73.98,-41.64 76.54,-36.94"/>
<polygon fill="midnightblue" stroke="midnightblue" points="79.97,-36.21 75.16,-26.77 73.03,-37.15 79.97,-36.21"/>
</g>
<!-- Node2 -->
<g id="node2" class="node">
<title>Node2</title>
<g id="a_node2"><a xlink:href="namespaceflow_1_1log.html#a553a1a30fb96a4af77078fb914fb372f" target="_top" xlink:title="Log_context_mt ADL&#45;friendly swap: Equivalent to val1.swap(val2).">
<polygon fill="white" stroke="black" points="143,-5 143,-22 223,-22 223,-5 143,-5"/>
<text text-anchor="middle" x="183" y="-11.6" font-family="Helvetica,sans-Serif" font-size="8.00">flow::log::swap</text>
</a>
</g>
</g>
<!-- Node1&#45;&gt;Node2 -->
<g id="edge2" class="edge">
<title>Node1&#45;&gt;Node2</title>
<path fill="none" stroke="midnightblue" d="M107.1,-6.84C115.58,-6.7 124.34,-6.72 132.74,-6.91"/>
<polygon fill="midnightblue" stroke="midnightblue" points="132.67,-10.41 142.77,-7.22 132.89,-3.41 132.67,-10.41"/>
</g>
<!-- Node2&#45;&gt;Node1 -->
<g id="edge3" class="edge">
<title>Node2&#45;&gt;Node1</title>
<path fill="none" stroke="midnightblue" d="M142.77,-19.78C134.67,-20.11 125.95,-20.26 117.26,-20.25"/>
<polygon fill="midnightblue" stroke="midnightblue" points="117.13,-16.75 107.1,-20.16 117.06,-23.75 117.13,-16.75"/>
</g>
</g>
</svg>
