<?xml version="1.0" encoding="UTF-8" standalone="no"?>
<!DOCTYPE svg PUBLIC "-//W3C//DTD SVG 1.1//EN"
 "http://www.w3.org/Graphics/SVG/1.1/DTD/svg11.dtd">
<!-- Generated by graphviz version 2.43.0 (0)
 -->
<!-- Title: flow::net_flow::Node::receive_wnd_updated Pages: 1 -->
<svg width="959pt" height="297pt"
 viewBox="0.00 0.00 959.00 296.50" xmlns="http://www.w3.org/2000/svg" xmlns:xlink="http://www.w3.org/1999/xlink">
<g id="graph0" class="graph" transform="scale(1 1) rotate(0) translate(4 292.5)">
<title>flow::net_flow::Node::receive_wnd_updated</title>
<polygon fill="white" stroke="transparent" points="-4,4 -4,-292.5 955,-292.5 955,4 -4,4"/>
<!-- Node1 -->
<g id="node1" class="node">
<title>Node1</title>
<g id="a_node1"><a xlink:title="Placed by receive() onto W if it has dequeued data from Receive buffer and given it to the user,...">
<polygon fill="#bfbfbf" stroke="black" points="0,-50.5 0,-76.5 112,-76.5 112,-50.5 0,-50.5"/>
<text text-anchor="start" x="8" y="-66.1" font-family="Helvetica,sans-Serif" font-size="8.00">flow::net_flow::Node</text>
<text text-anchor="middle" x="56" y="-57.1" font-family="Helvetica,sans-Serif" font-size="8.00">::receive_wnd_updated</text>
</a>
</g>
</g>
<!-- Node2 -->
<g id="node2" class="node">
<title>Node2</title>
<g id="a_node2"><a xlink:href="classflow_1_1net__flow_1_1Node.html#a192d4b95b9f8a5c3d08b1e5486eb6f78" target="_top" xlink:title="receive_wnd_updated() helper that continues rcv_wnd recovery: that is, sends unsolicited ACK with a r...">
<polygon fill="white" stroke="black" points="148,-72.5 148,-98.5 270,-98.5 270,-72.5 148,-72.5"/>
<text text-anchor="start" x="156" y="-88.1" font-family="Helvetica,sans-Serif" font-size="8.00">flow::net_flow::Node</text>
<text text-anchor="middle" x="209" y="-79.1" font-family="Helvetica,sans-Serif" font-size="8.00">::async_rcv_wnd_recovery</text>
</a>
</g>
</g>
<!-- Node1&#45;&gt;Node2 -->
<g id="edge1" class="edge">
<title>Node1&#45;&gt;Node2</title>
<path fill="none" stroke="midnightblue" d="M112.37,-71.57C120.66,-72.77 129.29,-74.03 137.84,-75.28"/>
<polygon fill="midnightblue" stroke="midnightblue" points="137.4,-78.75 147.8,-76.73 138.41,-71.82 137.4,-78.75"/>
</g>
<!-- Node44 -->
<g id="node14" class="node">
<title>Node44</title>
<g id="a_node14"><a xlink:href="classflow_1_1net__flow_1_1Node.html#ac397d3fd163f1456b7bb370a3cff951c" target="_top" xlink:title="Computes and returns the currently correct rcv_wnd value; that is the amount of space free in Receive...">
<polygon fill="white" stroke="black" points="323.5,-0.5 323.5,-26.5 424.5,-26.5 424.5,-0.5 323.5,-0.5"/>
<text text-anchor="start" x="331.5" y="-16.1" font-family="Helvetica,sans-Serif" font-size="8.00">flow::net_flow::Node</text>
<text text-anchor="middle" x="374" y="-7.1" font-family="Helvetica,sans-Serif" font-size="8.00">::sock_rcv_wnd</text>
</a>
</g>
</g>
<!-- Node1&#45;&gt;Node44 -->
<g id="edge17" class="edge">
<title>Node1&#45;&gt;Node44</title>
<path fill="none" stroke="midnightblue" d="M112.04,-54.79C168.26,-45.9 255.27,-32.13 313.17,-22.97"/>
<polygon fill="midnightblue" stroke="midnightblue" points="313.94,-26.39 323.27,-21.37 312.84,-19.48 313.94,-26.39"/>
</g>
<!-- Node2&#45;&gt;Node2 -->
<g id="edge2" class="edge">
<title>Node2&#45;&gt;Node2</title>
<path fill="none" stroke="midnightblue" d="M183.28,-98.77C175.49,-107.96 184.06,-117 209,-117 224.2,-117 233.32,-113.64 236.36,-108.94"/>
<polygon fill="midnightblue" stroke="midnightblue" points="239.77,-108.09 234.72,-98.77 232.85,-109.2 239.77,-108.09"/>
</g>
<!-- Node3 -->
<g id="node3" class="node">
<title>Node3</title>
<g id="a_node3"><a xlink:href="classflow_1_1net__flow_1_1Node.html#aa5f7c019665d9dd91af0ad6431f8f97d" target="_top" xlink:title="Similar to async_sock_low_lvl_packet_send_paced() except it also calls close_connection_immediately(s...">
<polygon fill="white" stroke="black" points="319,-198.5 319,-242.5 429,-242.5 429,-198.5 319,-198.5"/>
<text text-anchor="start" x="327" y="-232.1" font-family="Helvetica,sans-Serif" font-size="8.00">flow::net_flow::Node</text>
<text text-anchor="start" x="327" y="-223.1" font-family="Helvetica,sans-Serif" font-size="8.00">::async_sock_low_lvl</text>
<text text-anchor="start" x="327" y="-214.1" font-family="Helvetica,sans-Serif" font-size="8.00">_packet_send_or_close</text>
<text text-anchor="middle" x="374" y="-205.1" font-family="Helvetica,sans-Serif" font-size="8.00">_immediately</text>
</a>
</g>
</g>
<!-- Node2&#45;&gt;Node3 -->
<g id="edge3" class="edge">
<title>Node2&#45;&gt;Node3</title>
<path fill="none" stroke="midnightblue" d="M219.32,-98.54C235.12,-119.89 269.05,-162.6 306,-189.5 307.63,-190.69 309.32,-191.85 311.04,-192.98"/>
<polygon fill="midnightblue" stroke="midnightblue" points="309.58,-196.18 319.94,-198.37 313.2,-190.2 309.58,-196.18"/>
</g>
<!-- Node9 -->
<g id="node9" class="node">
<title>Node9</title>
<g id="a_node9"><a xlink:href="classflow_1_1log_1_1Log__context.html#af4db395042b065b00398cd59845dcb4d" target="_top" xlink:title="Returns the stored Logger pointer, particularly as many FLOW_LOG_*() macros expect.">
<polygon fill="white" stroke="black" points="320.5,-153.5 320.5,-179.5 427.5,-179.5 427.5,-153.5 320.5,-153.5"/>
<text text-anchor="start" x="328.5" y="-169.1" font-family="Helvetica,sans-Serif" font-size="8.00">flow::log::Log_context</text>
<text text-anchor="middle" x="374" y="-160.1" font-family="Helvetica,sans-Serif" font-size="8.00">::get_logger</text>
</a>
</g>
</g>
<!-- Node2&#45;&gt;Node9 -->
<g id="edge11" class="edge">
<title>Node2&#45;&gt;Node9</title>
<path fill="none" stroke="midnightblue" d="M228.4,-98.61C247.2,-111.58 277.6,-131.33 306,-144.5 310.11,-146.41 314.43,-148.22 318.82,-149.93"/>
<polygon fill="midnightblue" stroke="midnightblue" points="317.87,-153.31 328.46,-153.5 320.3,-146.75 317.87,-153.31"/>
</g>
<!-- Node52 -->
<g id="node10" class="node">
<title>Node52</title>
<g id="a_node10"><a xlink:href="classflow_1_1util_1_1Shared__ptr__alias__holder.html#a55a247bb8fb2ec94b7cbfdd56be65a81" target="_top" xlink:title="Provides syntactic&#45;sugary way to perform a static_pointer_cast&lt;&gt; from a compatible smart pointer type...">
<polygon fill="white" stroke="black" points="306,-90.5 306,-134.5 442,-134.5 442,-90.5 306,-90.5"/>
<text text-anchor="start" x="314" y="-124.1" font-family="Helvetica,sans-Serif" font-size="8.00">flow::util::Shared</text>
<text text-anchor="start" x="314" y="-115.1" font-family="Helvetica,sans-Serif" font-size="8.00">_ptr_alias_holder&lt; boost</text>
<text text-anchor="start" x="314" y="-106.1" font-family="Helvetica,sans-Serif" font-size="8.00">::shared_ptr&lt; Low_lvl_packet</text>
<text text-anchor="middle" x="374" y="-97.1" font-family="Helvetica,sans-Serif" font-size="8.00"> &gt; &gt;::ptr_cast</text>
</a>
</g>
</g>
<!-- Node2&#45;&gt;Node52 -->
<g id="edge12" class="edge">
<title>Node2&#45;&gt;Node52</title>
<path fill="none" stroke="midnightblue" d="M270.23,-95.48C278.58,-96.86 287.24,-98.29 295.84,-99.72"/>
<polygon fill="midnightblue" stroke="midnightblue" points="295.44,-103.2 305.88,-101.38 296.58,-96.29 295.44,-103.2"/>
</g>
<!-- Node53 -->
<g id="node11" class="node">
<title>Node53</title>
<g id="a_node11"><a xlink:href="namespaceflow_1_1util.html#a74d4a66fb00055be4e1bd6ee98e04667" target="_top" xlink:title="Schedule the given function to execute in a certain amount of time: A handy wrapper around Timer (asi...">
<polygon fill="white" stroke="black" points="326.5,-45.5 326.5,-71.5 421.5,-71.5 421.5,-45.5 326.5,-45.5"/>
<text text-anchor="start" x="334.5" y="-61.1" font-family="Helvetica,sans-Serif" font-size="8.00">flow::util::schedule</text>
<text text-anchor="middle" x="374" y="-52.1" font-family="Helvetica,sans-Serif" font-size="8.00">_task_from_now</text>
</a>
</g>
</g>
<!-- Node2&#45;&gt;Node53 -->
<g id="edge13" class="edge">
<title>Node2&#45;&gt;Node53</title>
<path fill="none" stroke="midnightblue" d="M270.23,-75.52C285.26,-73.03 301.33,-70.37 316.19,-67.91"/>
<polygon fill="midnightblue" stroke="midnightblue" points="316.97,-71.33 326.26,-66.24 315.82,-64.42 316.97,-71.33"/>
</g>
<!-- Node2&#45;&gt;Node44 -->
<g id="edge16" class="edge">
<title>Node2&#45;&gt;Node44</title>
<path fill="none" stroke="midnightblue" d="M238.31,-72.37C248.4,-67.55 259.79,-61.94 270,-56.5 286.35,-47.8 289.11,-43.1 306,-35.5 310.31,-33.56 314.84,-31.71 319.43,-29.96"/>
<polygon fill="midnightblue" stroke="midnightblue" points="320.69,-33.23 328.88,-26.51 318.29,-26.65 320.69,-33.23"/>
</g>
<!-- Node4 -->
<g id="node4" class="node">
<title>Node4</title>
<g id="a_node4"><a xlink:href="classflow_1_1net__flow_1_1Node.html#a31edf238c1b21a409ea807c66c1b22f0" target="_top" xlink:title="Begins the process of asynchronously sending the given low&#45;level packet to the remote Node specified ...">
<polygon fill="white" stroke="black" points="501.5,-253 501.5,-288 602.5,-288 602.5,-253 501.5,-253"/>
<text text-anchor="start" x="509.5" y="-277.6" font-family="Helvetica,sans-Serif" font-size="8.00">flow::net_flow::Node</text>
<text text-anchor="start" x="509.5" y="-268.6" font-family="Helvetica,sans-Serif" font-size="8.00">::async_sock_low_lvl</text>
<text text-anchor="middle" x="552" y="-259.6" font-family="Helvetica,sans-Serif" font-size="8.00">_packet_send_paced</text>
</a>
</g>
</g>
<!-- Node3&#45;&gt;Node4 -->
<g id="edge4" class="edge">
<title>Node3&#45;&gt;Node4</title>
<path fill="none" stroke="midnightblue" d="M429.24,-235.91C449.03,-241.53 471.51,-247.92 491.71,-253.66"/>
<polygon fill="midnightblue" stroke="midnightblue" points="490.85,-257.05 501.43,-256.42 492.77,-250.32 490.85,-257.05"/>
</g>
<!-- Node18 -->
<g id="node7" class="node">
<title>Node18</title>
<g id="a_node7"><a xlink:href="classflow_1_1net__flow_1_1Node.html#ade49e7bc7202a0adf33fec2d93d1b177" target="_top" xlink:title="A thread W method that handles the transition of the given socket from OPEN (any sub&#45;state) to CLOSED...">
<polygon fill="white" stroke="red" points="478,-207.5 478,-233.5 626,-233.5 626,-207.5 478,-207.5"/>
<text text-anchor="start" x="486" y="-223.1" font-family="Helvetica,sans-Serif" font-size="8.00">flow::net_flow::Node</text>
<text text-anchor="middle" x="552" y="-214.1" font-family="Helvetica,sans-Serif" font-size="8.00">::close_connection_immediately</text>
</a>
</g>
</g>
<!-- Node3&#45;&gt;Node18 -->
<g id="edge8" class="edge">
<title>Node3&#45;&gt;Node18</title>
<path fill="none" stroke="midnightblue" d="M429.24,-220.5C441.36,-220.5 454.48,-220.5 467.47,-220.5"/>
<polygon fill="midnightblue" stroke="midnightblue" points="467.83,-224 477.83,-220.5 467.83,-217 467.83,-224"/>
</g>
<!-- Node51 -->
<g id="node8" class="node">
<title>Node51</title>
<g id="a_node8"><a xlink:href="classflow_1_1net__flow_1_1Node.html#a99836ffb51eaefa4d2cc21770461cd97" target="_top" xlink:title="Constructs the socket pair (connection ID) for the given socket.">
<polygon fill="white" stroke="black" points="687.5,-177.5 687.5,-203.5 788.5,-203.5 788.5,-177.5 687.5,-177.5"/>
<text text-anchor="start" x="695.5" y="-193.1" font-family="Helvetica,sans-Serif" font-size="8.00">flow::net_flow::Node</text>
<text text-anchor="middle" x="738" y="-184.1" font-family="Helvetica,sans-Serif" font-size="8.00">::socket_id</text>
</a>
</g>
</g>
<!-- Node3&#45;&gt;Node51 -->
<g id="edge10" class="edge">
<title>Node3&#45;&gt;Node51</title>
<path fill="none" stroke="midnightblue" d="M429.22,-207.01C444.86,-203.64 462.03,-200.44 478,-198.5 545.83,-190.28 624.33,-188.99 676.98,-189.31"/>
<polygon fill="midnightblue" stroke="midnightblue" points="677.12,-192.81 687.15,-189.4 677.18,-185.81 677.12,-192.81"/>
</g>
<!-- Node5 -->
<g id="node5" class="node">
<title>Node5</title>
<g id="a_node5"><a xlink:href="classflow_1_1net__flow_1_1Node.html#a0db2bb587e0407077b11368df075f0ff" target="_top" xlink:title="async_low_lvl_packet_send_impl() wrapper to call when packet is to be sent to the remote side of the ...">
<polygon fill="white" stroke="red" points="850,-250 850,-285 951,-285 951,-250 850,-250"/>
<text text-anchor="start" x="858" y="-274.6" font-family="Helvetica,sans-Serif" font-size="8.00">flow::net_flow::Node</text>
<text text-anchor="start" x="858" y="-265.6" font-family="Helvetica,sans-Serif" font-size="8.00">::async_sock_low_lvl</text>
<text text-anchor="middle" x="900.5" y="-256.6" font-family="Helvetica,sans-Serif" font-size="8.00">_packet_send</text>
</a>
</g>
</g>
<!-- Node4&#45;&gt;Node5 -->
<g id="edge5" class="edge">
<title>Node4&#45;&gt;Node5</title>
<path fill="none" stroke="midnightblue" d="M602.55,-270.6C655.05,-270.63 740.37,-270.5 814,-269.5 822.32,-269.39 831.1,-269.23 839.74,-269.05"/>
<polygon fill="midnightblue" stroke="midnightblue" points="839.85,-272.55 849.77,-268.83 839.7,-265.55 839.85,-272.55"/>
</g>
<!-- Node12 -->
<g id="node6" class="node">
<title>Node12</title>
<g id="a_node6"><a xlink:href="classflow_1_1net__flow_1_1Node.html#a62e1f8e6da36d7cd3ad905924aea376c" target="_top" xlink:title="async_sock_low_lvl_packet_send_paced() pacing helper: Handles a DATA or ACK packet that was just pass...">
<polygon fill="white" stroke="red" points="662,-233.5 662,-259.5 814,-259.5 814,-233.5 662,-233.5"/>
<text text-anchor="start" x="670" y="-249.1" font-family="Helvetica,sans-Serif" font-size="8.00">flow::net_flow::Node</text>
<text text-anchor="middle" x="738" y="-240.1" font-family="Helvetica,sans-Serif" font-size="8.00">::sock_pacing_new_packet_ready</text>
</a>
</g>
</g>
<!-- Node4&#45;&gt;Node12 -->
<g id="edge6" class="edge">
<title>Node4&#45;&gt;Node12</title>
<path fill="none" stroke="midnightblue" d="M602.79,-264.01C617.86,-262.04 634.87,-259.82 651.58,-257.64"/>
<polygon fill="midnightblue" stroke="midnightblue" points="652.46,-261.06 661.92,-256.29 651.55,-254.12 652.46,-261.06"/>
</g>
<!-- Node12&#45;&gt;Node5 -->
<g id="edge7" class="edge">
<title>Node12&#45;&gt;Node5</title>
<path fill="none" stroke="midnightblue" d="M814.08,-256.32C822.67,-257.45 831.33,-258.58 839.68,-259.67"/>
<polygon fill="midnightblue" stroke="midnightblue" points="839.31,-263.15 849.68,-260.98 840.21,-256.21 839.31,-263.15"/>
</g>
<!-- Node18&#45;&gt;Node51 -->
<g id="edge9" class="edge">
<title>Node18&#45;&gt;Node51</title>
<path fill="none" stroke="midnightblue" d="M626.25,-208.56C643.26,-205.78 661.17,-202.86 677.51,-200.2"/>
<polygon fill="midnightblue" stroke="midnightblue" points="678.15,-203.64 687.46,-198.58 677.02,-196.73 678.15,-203.64"/>
</g>
<!-- Node54 -->
<g id="node12" class="node">
<title>Node54</title>
<g id="a_node12"><a xlink:href="classflow_1_1util_1_1Unique__id__holder.html#a50489177a7731618ca130468c3872748" target="_top" xlink:title="Short&#45;hand for Unique_id_holder().unique_id(); useful when all you want is the unique integer itself.">
<polygon fill="white" stroke="black" points="485,-45.5 485,-71.5 619,-71.5 619,-45.5 485,-45.5"/>
<text text-anchor="start" x="493" y="-61.1" font-family="Helvetica,sans-Serif" font-size="8.00">flow::util::Unique</text>
<text text-anchor="middle" x="552" y="-52.1" font-family="Helvetica,sans-Serif" font-size="8.00">_id_holder::create_unique_id</text>
</a>
</g>
</g>
<!-- Node53&#45;&gt;Node54 -->
<g id="edge14" class="edge">
<title>Node53&#45;&gt;Node54</title>
<path fill="none" stroke="midnightblue" d="M421.7,-58.5C437.95,-58.5 456.63,-58.5 474.65,-58.5"/>
<polygon fill="midnightblue" stroke="midnightblue" points="474.86,-62 484.86,-58.5 474.86,-55 474.86,-62"/>
</g>
<!-- Node55 -->
<g id="node13" class="node">
<title>Node55</title>
<g id="a_node13"><a xlink:href="classflow_1_1util_1_1Unique__id__holder.html#a90705293787069f52372638d5450ef52" target="_top" xlink:title="Thread&#45;safely construct an ID whose value is different from any other object of this class,...">
<polygon fill="white" stroke="black" points="686,-41 686,-76 790,-76 790,-41 686,-41"/>
<text text-anchor="start" x="694" y="-65.6" font-family="Helvetica,sans-Serif" font-size="8.00">flow::util::Unique</text>
<text text-anchor="start" x="694" y="-56.6" font-family="Helvetica,sans-Serif" font-size="8.00">_id_holder::Unique_id</text>
<text text-anchor="middle" x="738" y="-47.6" font-family="Helvetica,sans-Serif" font-size="8.00">_holder</text>
</a>
</g>
</g>
<!-- Node54&#45;&gt;Node55 -->
<g id="edge15" class="edge">
<title>Node54&#45;&gt;Node55</title>
<path fill="none" stroke="midnightblue" d="M619.17,-58.5C637.6,-58.5 657.53,-58.5 675.67,-58.5"/>
<polygon fill="midnightblue" stroke="midnightblue" points="675.83,-62 685.83,-58.5 675.83,-55 675.83,-62"/>
</g>
</g>
</svg>
