<?xml version="1.0" encoding="UTF-8" standalone="no"?>
<!DOCTYPE svg PUBLIC "-//W3C//DTD SVG 1.1//EN"
 "http://www.w3.org/Graphics/SVG/1.1/DTD/svg11.dtd">
<!-- Generated by graphviz version 2.43.0 (0)
 -->
<!-- Title: flow::net_flow::Event_set::ev_type_to_socks_map_sizes_to_str Pages: 1 -->
<svg width="380pt" height="120pt"
 viewBox="0.00 0.00 380.00 120.00" xmlns="http://www.w3.org/2000/svg" xmlns:xlink="http://www.w3.org/1999/xlink">
<g id="graph0" class="graph" transform="scale(1 1) rotate(0) translate(4 116)">
<title>flow::net_flow::Event_set::ev_type_to_socks_map_sizes_to_str</title>
<polygon fill="white" stroke="transparent" points="-4,4 -4,-116 376,-116 376,4 -4,4"/>
<!-- Node1 -->
<g id="node1" class="node">
<title>Node1</title>
<g id="a_node1"><a xlink:title="Helper that returns a loggable string summarizing the sizes of the socket sets, by type,...">
<polygon fill="#bfbfbf" stroke="black" points="0,-18 0,-53 110,-53 110,-18 0,-18"/>
<text text-anchor="start" x="8" y="-42.6" font-family="Helvetica,sans-Serif" font-size="8.00">flow::net_flow::Event</text>
<text text-anchor="start" x="8" y="-33.6" font-family="Helvetica,sans-Serif" font-size="8.00">_set::ev_type_to_socks</text>
<text text-anchor="middle" x="55" y="-24.6" font-family="Helvetica,sans-Serif" font-size="8.00">_map_sizes_to_str</text>
</a>
</g>
</g>
<!-- Node2 -->
<g id="node2" class="node">
<title>Node2</title>
<g id="a_node2"><a xlink:href="namespaceflow_1_1util.html#a8afd30c50bcd670d45442df49d1da484" target="_top" xlink:title="Writes to the specified string, as if the given arguments were each passed, via &lt;&lt; in sequence,...">
<polygon fill="white" stroke="black" points="146,-45.5 146,-71.5 238,-71.5 238,-45.5 146,-45.5"/>
<text text-anchor="start" x="154" y="-61.1" font-family="Helvetica,sans-Serif" font-size="8.00">flow::util::ostream</text>
<text text-anchor="middle" x="192" y="-52.1" font-family="Helvetica,sans-Serif" font-size="8.00">_op_to_string</text>
</a>
</g>
</g>
<!-- Node1&#45;&gt;Node2 -->
<g id="edge1" class="edge">
<title>Node1&#45;&gt;Node2</title>
<path fill="none" stroke="midnightblue" d="M110.13,-44.72C118.67,-46.18 127.51,-47.68 136.07,-49.14"/>
<polygon fill="midnightblue" stroke="midnightblue" points="135.51,-52.6 145.96,-50.83 136.69,-45.7 135.51,-52.6"/>
</g>
<!-- Node5 -->
<g id="node5" class="node">
<title>Node5</title>
<g id="a_node5"><a xlink:href="classflow_1_1util_1_1Linked__hash__map.html#aba0949de5032e8dd6d75a48bcac9b060" target="_top" xlink:title="Returns number of elements stored.">
<polygon fill="white" stroke="black" points="149.5,-0.5 149.5,-26.5 234.5,-26.5 234.5,-0.5 149.5,-0.5"/>
<text text-anchor="start" x="157.5" y="-16.1" font-family="Helvetica,sans-Serif" font-size="8.00">flow::util::Linked</text>
<text text-anchor="middle" x="192" y="-7.1" font-family="Helvetica,sans-Serif" font-size="8.00">_hash_map::size</text>
</a>
</g>
</g>
<!-- Node1&#45;&gt;Node5 -->
<g id="edge5" class="edge">
<title>Node1&#45;&gt;Node5</title>
<path fill="none" stroke="midnightblue" d="M110.13,-26.68C119.72,-25.12 129.68,-23.49 139.21,-21.94"/>
<polygon fill="midnightblue" stroke="midnightblue" points="140.02,-25.35 149.33,-20.29 138.9,-18.45 140.02,-25.35"/>
</g>
<!-- Node3 -->
<g id="node3" class="node">
<title>Node3</title>
<g id="a_node3"><a xlink:href="namespaceflow_1_1util.html#af92e6183c2071f4166d4b5a91f50d70c" target="_top" xlink:title="&quot;Induction step&quot; version of variadic function template that simply outputs arguments 2+ via &lt;&lt; to the...">
<polygon fill="white" stroke="black" points="274,-67.5 274,-93.5 372,-93.5 372,-67.5 274,-67.5"/>
<text text-anchor="start" x="282" y="-83.1" font-family="Helvetica,sans-Serif" font-size="8.00">flow::util::feed_args</text>
<text text-anchor="middle" x="323" y="-74.1" font-family="Helvetica,sans-Serif" font-size="8.00">_to_ostream</text>
</a>
</g>
</g>
<!-- Node2&#45;&gt;Node3 -->
<g id="edge2" class="edge">
<title>Node2&#45;&gt;Node3</title>
<path fill="none" stroke="midnightblue" d="M238.12,-66.19C246.37,-67.6 255.09,-69.09 263.66,-70.55"/>
<polygon fill="midnightblue" stroke="midnightblue" points="263.17,-74.02 273.62,-72.25 264.35,-67.12 263.17,-74.02"/>
</g>
<!-- Node4 -->
<g id="node4" class="node">
<title>Node4</title>
<g id="a_node4"><a xlink:href="classflow_1_1util_1_1String__ostream.html#a7e64b069ae0e221952068c13fdc0f080" target="_top" xlink:title="Access to stream that will write to owned string.">
<polygon fill="white" stroke="black" points="282,-22.5 282,-48.5 364,-48.5 364,-22.5 282,-22.5"/>
<text text-anchor="start" x="290" y="-38.1" font-family="Helvetica,sans-Serif" font-size="8.00">flow::util::String</text>
<text text-anchor="middle" x="323" y="-29.1" font-family="Helvetica,sans-Serif" font-size="8.00">_ostream::os</text>
</a>
</g>
</g>
<!-- Node2&#45;&gt;Node4 -->
<g id="edge4" class="edge">
<title>Node2&#45;&gt;Node4</title>
<path fill="none" stroke="midnightblue" d="M238.12,-50.46C249.02,-48.51 260.74,-46.42 271.86,-44.44"/>
<polygon fill="midnightblue" stroke="midnightblue" points="272.63,-47.86 281.86,-42.66 271.4,-40.97 272.63,-47.86"/>
</g>
<!-- Node3&#45;&gt;Node3 -->
<g id="edge3" class="edge">
<title>Node3&#45;&gt;Node3</title>
<path fill="none" stroke="midnightblue" d="M301.01,-93.77C294.34,-102.96 301.67,-112 323,-112 336,-112 343.8,-108.64 346.4,-103.94"/>
<polygon fill="midnightblue" stroke="midnightblue" points="349.83,-103.2 344.99,-93.77 342.89,-104.16 349.83,-103.2"/>
</g>
</g>
</svg>
