<?xml version="1.0" encoding="UTF-8" standalone="no"?>
<!DOCTYPE svg PUBLIC "-//W3C//DTD SVG 1.1//EN"
 "http://www.w3.org/Graphics/SVG/1.1/DTD/svg11.dtd">
<!-- Generated by graphviz version 2.43.0 (0)
 -->
<!-- Title: flow::net_flow::asio::Peer_socket::async_task_engine Pages: 1 -->
<svg width="583pt" height="144pt"
 viewBox="0.00 0.00 583.00 143.50" xmlns="http://www.w3.org/2000/svg" xmlns:xlink="http://www.w3.org/1999/xlink">
<g id="graph0" class="graph" transform="scale(1 1) rotate(0) translate(4 139.5)">
<title>flow::net_flow::asio::Peer_socket::async_task_engine</title>
<polygon fill="white" stroke="transparent" points="-4,4 -4,-139.5 579,-139.5 579,4 -4,4"/>
<!-- Node1 -->
<g id="node1" class="node">
<title>Node1</title>
<g id="a_node1"><a xlink:title="Pointer (possibly null) for the flow::util::Task_engine used by any coming async_*() I/O calls.">
<polygon fill="#bfbfbf" stroke="black" points="474,-21 474,-56 575,-56 575,-21 474,-21"/>
<text text-anchor="start" x="482" y="-45.6" font-family="Helvetica,sans-Serif" font-size="8.00">flow::net_flow::asio</text>
<text text-anchor="start" x="482" y="-36.6" font-family="Helvetica,sans-Serif" font-size="8.00">::Peer_socket::async</text>
<text text-anchor="middle" x="524.5" y="-27.6" font-family="Helvetica,sans-Serif" font-size="8.00">_task_engine</text>
</a>
</g>
</g>
<!-- Node2 -->
<g id="node2" class="node">
<title>Node2</title>
<g id="a_node2"><a xlink:href="classflow_1_1net__flow_1_1asio_1_1Peer__socket.html#aa727c33c3eeeb217d50fcd451096ded8" target="_top" xlink:title="Returns a functor that essentially performs post() on_result onto *async_task_engine() in a way suita...">
<polygon fill="white" stroke="black" points="161,-0.5 161,-26.5 292,-26.5 292,-0.5 161,-0.5"/>
<text text-anchor="start" x="169" y="-16.1" font-family="Helvetica,sans-Serif" font-size="8.00">flow::net_flow::asio</text>
<text text-anchor="middle" x="226.5" y="-7.1" font-family="Helvetica,sans-Serif" font-size="8.00">::Peer_socket::handler_func</text>
</a>
</g>
</g>
<!-- Node1&#45;&gt;Node2 -->
<g id="edge1" class="edge">
<title>Node1&#45;&gt;Node2</title>
<path fill="none" stroke="midnightblue" d="M463.99,-33.47C414.24,-29.27 343.41,-23.29 292.25,-18.97"/>
<polygon fill="midnightblue" stroke="midnightblue" points="463.7,-36.96 473.96,-34.32 464.29,-29.99 463.7,-36.96"/>
</g>
<!-- Node5 -->
<g id="node5" class="node">
<title>Node5</title>
<g id="a_node5"><a xlink:href="classflow_1_1net__flow_1_1asio_1_1Peer__socket.html#aa9e96966c7a8f5d35a34c0f5b3f65eb6" target="_top" xlink:title="Helper that returns the net_flow::asio::Node that generated *this; unless *this is closed; in which c...">
<polygon fill="white" stroke="black" points="328,-46 328,-81 438,-81 438,-46 328,-46"/>
<text text-anchor="start" x="336" y="-70.6" font-family="Helvetica,sans-Serif" font-size="8.00">flow::net_flow::asio</text>
<text text-anchor="start" x="336" y="-61.6" font-family="Helvetica,sans-Serif" font-size="8.00">::Peer_socket::node_or</text>
<text text-anchor="middle" x="383" y="-52.6" font-family="Helvetica,sans-Serif" font-size="8.00">_post_error</text>
</a>
</g>
</g>
<!-- Node1&#45;&gt;Node5 -->
<g id="edge4" class="edge">
<title>Node1&#45;&gt;Node5</title>
<path fill="none" stroke="midnightblue" d="M463.98,-49.17C455.41,-50.7 446.62,-52.28 438.15,-53.8"/>
<polygon fill="midnightblue" stroke="midnightblue" points="464.7,-52.59 473.92,-47.38 463.46,-45.7 464.7,-52.59"/>
</g>
<!-- Node3 -->
<g id="node3" class="node">
<title>Node3</title>
<g id="a_node3"><a xlink:href="classflow_1_1net__flow_1_1asio_1_1Peer__socket.html#a98186f8257f1f7b49dbbbc13c0dda7fe" target="_top" xlink:title="boost.asio&#45;style asynchronous version that essentially performs non&#45;nullptr_t net_flow::Peer_socket::...">
<polygon fill="white" stroke="black" points="12,-21 12,-56 113,-56 113,-21 12,-21"/>
<text text-anchor="start" x="20" y="-45.6" font-family="Helvetica,sans-Serif" font-size="8.00">flow::net_flow::asio</text>
<text text-anchor="start" x="20" y="-36.6" font-family="Helvetica,sans-Serif" font-size="8.00">::Peer_socket::async</text>
<text text-anchor="middle" x="62.5" y="-27.6" font-family="Helvetica,sans-Serif" font-size="8.00">_receive</text>
</a>
</g>
</g>
<!-- Node2&#45;&gt;Node3 -->
<g id="edge2" class="edge">
<title>Node2&#45;&gt;Node3</title>
<path fill="none" stroke="midnightblue" d="M150.43,-25.09C137.73,-27.04 124.84,-29.03 113.01,-30.86"/>
<polygon fill="midnightblue" stroke="midnightblue" points="151.19,-28.51 160.54,-23.52 150.12,-21.59 151.19,-28.51"/>
</g>
<!-- Node4 -->
<g id="node4" class="node">
<title>Node4</title>
<g id="a_node4"><a xlink:href="classflow_1_1net__flow_1_1asio_1_1Peer__socket.html#a33adc635f29071b10ea59802405d9b6c" target="_top" xlink:title="boost.asio&#45;style asynchronous version that essentially performs non&#45;nullptr_t net_flow::Peer_socket::...">
<polygon fill="white" stroke="black" points="0,-89.5 0,-115.5 125,-115.5 125,-89.5 0,-89.5"/>
<text text-anchor="start" x="8" y="-105.1" font-family="Helvetica,sans-Serif" font-size="8.00">flow::net_flow::asio</text>
<text text-anchor="middle" x="62.5" y="-96.1" font-family="Helvetica,sans-Serif" font-size="8.00">::Peer_socket::async_send</text>
</a>
</g>
</g>
<!-- Node2&#45;&gt;Node4 -->
<g id="edge3" class="edge">
<title>Node2&#45;&gt;Node4</title>
<path fill="none" stroke="midnightblue" d="M173.27,-30.39C169.04,-32.28 164.9,-34.32 161,-36.5 143.07,-46.54 141.84,-53.73 125,-65.5 112.85,-73.99 98.7,-82.58 87.04,-89.35"/>
<polygon fill="midnightblue" stroke="midnightblue" points="174.74,-33.58 182.62,-26.5 172.05,-27.11 174.74,-33.58"/>
</g>
<!-- Node6 -->
<g id="node6" class="node">
<title>Node6</title>
<g id="a_node6"><a xlink:href="classflow_1_1net__flow_1_1asio_1_1Peer__socket.html#a85e456ae997bae047e022d234bec9531" target="_top" xlink:title="De&#45;templated implementation of all async_receive() methods.">
<polygon fill="white" stroke="black" points="176,-46 176,-81 277,-81 277,-46 176,-46"/>
<text text-anchor="start" x="184" y="-70.6" font-family="Helvetica,sans-Serif" font-size="8.00">flow::net_flow::asio</text>
<text text-anchor="start" x="184" y="-61.6" font-family="Helvetica,sans-Serif" font-size="8.00">::Peer_socket::async</text>
<text text-anchor="middle" x="226.5" y="-52.6" font-family="Helvetica,sans-Serif" font-size="8.00">_receive_impl</text>
</a>
</g>
</g>
<!-- Node5&#45;&gt;Node6 -->
<g id="edge5" class="edge">
<title>Node5&#45;&gt;Node6</title>
<path fill="none" stroke="midnightblue" d="M317.72,-63.5C304.16,-63.5 290.04,-63.5 277.11,-63.5"/>
<polygon fill="midnightblue" stroke="midnightblue" points="317.96,-67 327.96,-63.5 317.96,-60 317.96,-67"/>
</g>
<!-- Node7 -->
<g id="node7" class="node">
<title>Node7</title>
<g id="a_node7"><a xlink:href="classflow_1_1net__flow_1_1asio_1_1Peer__socket.html#ab6c48bcfc9cab0b42216443f39fa8a4b" target="_top" xlink:title="De&#45;templated implementation of all async_send() methods.">
<polygon fill="white" stroke="black" points="176,-100 176,-135 277,-135 277,-100 176,-100"/>
<text text-anchor="start" x="184" y="-124.6" font-family="Helvetica,sans-Serif" font-size="8.00">flow::net_flow::asio</text>
<text text-anchor="start" x="184" y="-115.6" font-family="Helvetica,sans-Serif" font-size="8.00">::Peer_socket::async</text>
<text text-anchor="middle" x="226.5" y="-106.6" font-family="Helvetica,sans-Serif" font-size="8.00">_send_impl</text>
</a>
</g>
</g>
<!-- Node5&#45;&gt;Node7 -->
<g id="edge7" class="edge">
<title>Node5&#45;&gt;Node7</title>
<path fill="none" stroke="midnightblue" d="M322.2,-84.4C307.31,-89.61 291.5,-95.13 277.15,-100.15"/>
<polygon fill="midnightblue" stroke="midnightblue" points="323.55,-87.64 331.84,-81.03 321.24,-81.03 323.55,-87.64"/>
</g>
<!-- Node6&#45;&gt;Node3 -->
<g id="edge6" class="edge">
<title>Node6&#45;&gt;Node3</title>
<path fill="none" stroke="midnightblue" d="M165.62,-54.26C148.39,-51.6 129.8,-48.73 113.26,-46.18"/>
<polygon fill="midnightblue" stroke="midnightblue" points="165.16,-57.73 175.57,-55.8 166.22,-50.81 165.16,-57.73"/>
</g>
<!-- Node7&#45;&gt;Node4 -->
<g id="edge8" class="edge">
<title>Node7&#45;&gt;Node4</title>
<path fill="none" stroke="midnightblue" d="M165.29,-111.92C152.23,-110.72 138.39,-109.43 125.26,-108.22"/>
<polygon fill="midnightblue" stroke="midnightblue" points="165.29,-115.44 175.57,-112.88 165.94,-108.47 165.29,-115.44"/>
</g>
</g>
</svg>
