<?xml version="1.0" encoding="UTF-8" standalone="no"?>
<!DOCTYPE svg PUBLIC "-//W3C//DTD SVG 1.1//EN"
 "http://www.w3.org/Graphics/SVG/1.1/DTD/svg11.dtd">
<!-- Generated by graphviz version 2.43.0 (0)
 -->
<!-- Title: flow::net_flow::Node::send Pages: 1 -->
<svg width="916pt" height="702pt"
 viewBox="0.00 0.00 916.00 702.00" xmlns="http://www.w3.org/2000/svg" xmlns:xlink="http://www.w3.org/1999/xlink">
<g id="graph0" class="graph" transform="scale(1 1) rotate(0) translate(4 698)">
<title>flow::net_flow::Node::send</title>
<polygon fill="white" stroke="transparent" points="-4,4 -4,-698 912,-698 912,4 -4,4"/>
<!-- Node1 -->
<g id="node1" class="node">
<title>Node1</title>
<g id="a_node1"><a xlink:title="Implementation of non&#45;blocking sock&#45;&gt;send() for socket sock in all cases except when sock&#45;&gt;state() ==...">
<polygon fill="#bfbfbf" stroke="black" points="0,-168.5 0,-194.5 101,-194.5 101,-168.5 0,-168.5"/>
<text text-anchor="start" x="8" y="-184.1" font-family="Helvetica,sans-Serif" font-size="8.00">flow::net_flow::Node</text>
<text text-anchor="middle" x="50.5" y="-175.1" font-family="Helvetica,sans-Serif" font-size="8.00">::send</text>
</a>
</g>
</g>
<!-- Node2 -->
<g id="node2" class="node">
<title>Node2</title>
<g id="a_node2"><a xlink:href="classflow_1_1net__flow_1_1Node.html#aae148cec361b59237996a4b30c6624b5" target="_top" xlink:title="Returns true if and only if the Node is operating.">
<polygon fill="white" stroke="black" points="150,-213.5 150,-239.5 251,-239.5 251,-213.5 150,-213.5"/>
<text text-anchor="start" x="158" y="-229.1" font-family="Helvetica,sans-Serif" font-size="8.00">flow::net_flow::Node</text>
<text text-anchor="middle" x="200.5" y="-220.1" font-family="Helvetica,sans-Serif" font-size="8.00">::running</text>
</a>
</g>
</g>
<!-- Node1&#45;&gt;Node2 -->
<g id="edge1" class="edge">
<title>Node1&#45;&gt;Node2</title>
<path fill="none" stroke="midnightblue" d="M94.31,-194.52C110.65,-199.48 129.48,-205.21 146.65,-210.43"/>
<polygon fill="midnightblue" stroke="midnightblue" points="145.95,-213.88 156.53,-213.44 147.98,-207.18 145.95,-213.88"/>
</g>
<!-- Node3 -->
<g id="node3" class="node">
<title>Node3</title>
<g id="a_node3"><a xlink:href="classflow_1_1net__flow_1_1Node.html#a2565b7c0bd82cad86eb168b62f8ffd9d" target="_top" xlink:title="Helper placed by send() onto W to invoke send_worker() but ensures that the socket has not entered so...">
<polygon fill="white" stroke="black" points="137,-168.5 137,-194.5 264,-194.5 264,-168.5 137,-168.5"/>
<text text-anchor="start" x="145" y="-184.1" font-family="Helvetica,sans-Serif" font-size="8.00">flow::net_flow::Node</text>
<text text-anchor="middle" x="200.5" y="-175.1" font-family="Helvetica,sans-Serif" font-size="8.00">::send_worker_check_state</text>
</a>
</g>
</g>
<!-- Node1&#45;&gt;Node3 -->
<g id="edge2" class="edge">
<title>Node1&#45;&gt;Node3</title>
<path fill="none" stroke="midnightblue" d="M101.19,-181.5C109.4,-181.5 118.06,-181.5 126.7,-181.5"/>
<polygon fill="midnightblue" stroke="midnightblue" points="126.8,-185 136.8,-181.5 126.79,-178 126.8,-185"/>
</g>
<!-- Node39 -->
<g id="node26" class="node">
<title>Node39</title>
<g id="a_node26"><a xlink:href="classflow_1_1net__flow_1_1Node.html#a382b607fa2e482886f2fd75edc36b8b7" target="_top" xlink:title="Return true if and only if there are enough data either in Peer_socket::m_snd_rexmit_q of sock (if re...">
<polygon fill="white" stroke="black" points="459.5,-0.5 459.5,-26.5 560.5,-26.5 560.5,-0.5 459.5,-0.5"/>
<text text-anchor="start" x="467.5" y="-16.1" font-family="Helvetica,sans-Serif" font-size="8.00">flow::net_flow::Node</text>
<text text-anchor="middle" x="510" y="-7.1" font-family="Helvetica,sans-Serif" font-size="8.00">::snd_deqable</text>
</a>
</g>
</g>
<!-- Node1&#45;&gt;Node39 -->
<g id="edge34" class="edge">
<title>Node1&#45;&gt;Node39</title>
<path fill="none" stroke="midnightblue" d="M83.73,-168.47C149.6,-142.03 304.61,-80.74 437,-35.5 442.84,-33.5 448.98,-31.49 455.11,-29.54"/>
<polygon fill="midnightblue" stroke="midnightblue" points="456.19,-32.87 464.68,-26.54 454.09,-26.2 456.19,-32.87"/>
</g>
<!-- Node4 -->
<g id="node4" class="node">
<title>Node4</title>
<g id="a_node4"><a xlink:href="classflow_1_1net__flow_1_1Node.html#a10a92f11a2c9f218cdd9a55f282e79b1" target="_top" xlink:title="Thread W implemention of send(): synchronously or asynchronously send the contents of sock&#45;&gt;m_snd_buf...">
<polygon fill="white" stroke="black" points="300,-269.5 300,-295.5 401,-295.5 401,-269.5 300,-269.5"/>
<text text-anchor="start" x="308" y="-285.1" font-family="Helvetica,sans-Serif" font-size="8.00">flow::net_flow::Node</text>
<text text-anchor="middle" x="350.5" y="-276.1" font-family="Helvetica,sans-Serif" font-size="8.00">::send_worker</text>
</a>
</g>
</g>
<!-- Node3&#45;&gt;Node4 -->
<g id="edge3" class="edge">
<title>Node3&#45;&gt;Node4</title>
<path fill="none" stroke="midnightblue" d="M243.89,-194.56C250.83,-197.4 257.78,-200.72 264,-204.5 290.06,-220.34 315.27,-244.81 331.48,-262.11"/>
<polygon fill="midnightblue" stroke="midnightblue" points="328.92,-264.5 338.26,-269.5 334.08,-259.77 328.92,-264.5"/>
</g>
<!-- Node5 -->
<g id="node5" class="node">
<title>Node5</title>
<g id="a_node5"><a xlink:href="classflow_1_1net__flow_1_1Node.html#a80d58cfa8fad00a116a38f76ccb2b868" target="_top" xlink:title="Assuming *seq_num points to the start of data.m_data, increments *seq_num to point to the datum just ...">
<polygon fill="white" stroke="black" points="459.5,-649.5 459.5,-675.5 560.5,-675.5 560.5,-649.5 459.5,-649.5"/>
<text text-anchor="start" x="467.5" y="-665.1" font-family="Helvetica,sans-Serif" font-size="8.00">flow::net_flow::Node</text>
<text text-anchor="middle" x="510" y="-656.1" font-family="Helvetica,sans-Serif" font-size="8.00">::advance_seq_num</text>
</a>
</g>
</g>
<!-- Node4&#45;&gt;Node5 -->
<g id="edge4" class="edge">
<title>Node4&#45;&gt;Node5</title>
<path fill="none" stroke="midnightblue" d="M352.94,-295.78C359.53,-354.14 388.54,-587.31 437,-639.5 440.79,-643.59 445.31,-646.95 450.21,-649.72"/>
<polygon fill="midnightblue" stroke="midnightblue" points="448.83,-652.94 459.36,-654.09 451.85,-646.62 448.83,-652.94"/>
</g>
<!-- Node6 -->
<g id="node6" class="node">
<title>Node6</title>
<g id="a_node6"><a xlink:href="classflow_1_1net__flow_1_1Node.html#af1c4623729d0a061200a386f7a651926" target="_top" xlink:title="Begins the process of asynchronously sending the given low&#45;level packet to the remote Node specified ...">
<polygon fill="white" stroke="black" points="459.5,-595 459.5,-630 560.5,-630 560.5,-595 459.5,-595"/>
<text text-anchor="start" x="467.5" y="-619.6" font-family="Helvetica,sans-Serif" font-size="8.00">flow::net_flow::Node</text>
<text text-anchor="start" x="467.5" y="-610.6" font-family="Helvetica,sans-Serif" font-size="8.00">::async_sock_low_lvl</text>
<text text-anchor="middle" x="510" y="-601.6" font-family="Helvetica,sans-Serif" font-size="8.00">_packet_send_paced</text>
</a>
</g>
</g>
<!-- Node4&#45;&gt;Node6 -->
<g id="edge6" class="edge">
<title>Node4&#45;&gt;Node6</title>
<path fill="none" stroke="midnightblue" d="M352.64,-295.63C356.87,-337.76 374.76,-471.91 437,-559.5 445.25,-571.11 456.83,-581.2 468.3,-589.38"/>
<polygon fill="midnightblue" stroke="midnightblue" points="466.34,-592.27 476.58,-594.98 470.26,-586.48 466.34,-592.27"/>
</g>
<!-- Node18 -->
<g id="node9" class="node">
<title>Node18</title>
<g id="a_node9"><a xlink:href="classflow_1_1net__flow_1_1Node.html#a7395ac534047f06629962ad19b3fa657" target="_top" xlink:title="Answers the perennial question of congestion and flow control: assuming there is a DATA packet to sen...">
<polygon fill="white" stroke="black" points="459.5,-523.5 459.5,-549.5 560.5,-549.5 560.5,-523.5 459.5,-523.5"/>
<text text-anchor="start" x="467.5" y="-539.1" font-family="Helvetica,sans-Serif" font-size="8.00">flow::net_flow::Node</text>
<text text-anchor="middle" x="510" y="-530.1" font-family="Helvetica,sans-Serif" font-size="8.00">::can_send</text>
</a>
</g>
</g>
<!-- Node4&#45;&gt;Node18 -->
<g id="edge10" class="edge">
<title>Node4&#45;&gt;Node18</title>
<path fill="none" stroke="midnightblue" d="M352.39,-295.72C355.77,-335.02 371.17,-452.29 437,-514.5 440.82,-518.11 445.22,-521.13 449.92,-523.65"/>
<polygon fill="midnightblue" stroke="midnightblue" points="448.7,-526.95 459.25,-527.92 451.61,-520.58 448.7,-526.95"/>
</g>
<!-- Node19 -->
<g id="node10" class="node">
<title>Node19</title>
<g id="a_node10"><a xlink:href="classflow_1_1net__flow_1_1Socket__buffer.html#a8fe3fe5f6a33cfd8fb84eb2607fbc05b" target="_top" xlink:title="Consumes (removes from the front of the internal byte buffer and returns them to the caller) a byte s...">
<polygon fill="white" stroke="black" points="444.5,-478.5 444.5,-504.5 575.5,-504.5 575.5,-478.5 444.5,-478.5"/>
<text text-anchor="start" x="452.5" y="-494.1" font-family="Helvetica,sans-Serif" font-size="8.00">flow::net_flow::Socket</text>
<text text-anchor="middle" x="510" y="-485.1" font-family="Helvetica,sans-Serif" font-size="8.00">_buffer::consume_buf_move</text>
</a>
</g>
</g>
<!-- Node4&#45;&gt;Node19 -->
<g id="edge11" class="edge">
<title>Node4&#45;&gt;Node19</title>
<path fill="none" stroke="midnightblue" d="M358.63,-295.88C372.28,-321.01 403.75,-376.52 437,-418.5 452.25,-437.75 471.97,-457.45 486.92,-471.53"/>
<polygon fill="midnightblue" stroke="midnightblue" points="484.54,-474.1 494.25,-478.34 489.31,-468.97 484.54,-474.1"/>
</g>
<!-- Node24 -->
<g id="node13" class="node">
<title>Node24</title>
<g id="a_node13"><a xlink:href="classflow_1_1net__flow_1_1Socket__buffer.html#af21cd24bba62da1d16a8fc4f9b8e37fd" target="_top" xlink:title="The total number of bytes of application&#45;layer data stored in this object.">
<polygon fill="white" stroke="black" points="456.5,-382.5 456.5,-408.5 563.5,-408.5 563.5,-382.5 456.5,-382.5"/>
<text text-anchor="start" x="464.5" y="-398.1" font-family="Helvetica,sans-Serif" font-size="8.00">flow::net_flow::Socket</text>
<text text-anchor="middle" x="510" y="-389.1" font-family="Helvetica,sans-Serif" font-size="8.00">_buffer::data_size</text>
</a>
</g>
</g>
<!-- Node4&#45;&gt;Node24 -->
<g id="edge15" class="edge">
<title>Node4&#45;&gt;Node24</title>
<path fill="none" stroke="midnightblue" d="M360.4,-295.69C374.42,-315.46 403.5,-352.66 437,-373.5 440.18,-375.48 443.56,-377.29 447.04,-378.95"/>
<polygon fill="midnightblue" stroke="midnightblue" points="445.88,-382.26 456.45,-382.99 448.64,-375.83 445.88,-382.26"/>
</g>
<!-- Node25 -->
<g id="node14" class="node">
<title>Node25</title>
<g id="a_node14"><a xlink:href="classflow_1_1net__flow_1_1Node.html#a8a4ddf81ddbeab1f740940c4cc0d3625" target="_top" xlink:title="For each WAITING Event_set within the Node: checks for any events that hold, and if any do hold,...">
<polygon fill="white" stroke="black" points="446,-337.5 446,-363.5 574,-363.5 574,-337.5 446,-337.5"/>
<text text-anchor="start" x="454" y="-353.1" font-family="Helvetica,sans-Serif" font-size="8.00">flow::net_flow::Node</text>
<text text-anchor="middle" x="510" y="-344.1" font-family="Helvetica,sans-Serif" font-size="8.00">::event_set_all_check_delta</text>
</a>
</g>
</g>
<!-- Node4&#45;&gt;Node25 -->
<g id="edge16" class="edge">
<title>Node4&#45;&gt;Node25</title>
<path fill="none" stroke="midnightblue" d="M378.25,-295.57C395,-303.62 417.11,-313.99 437,-322.5 445.88,-326.3 455.46,-330.17 464.64,-333.78"/>
<polygon fill="midnightblue" stroke="midnightblue" points="463.43,-337.07 474.02,-337.44 465.97,-330.55 463.43,-337.07"/>
</g>
<!-- Node11 -->
<g id="node23" class="node">
<title>Node11</title>
<g id="a_node23"><a xlink:href="classflow_1_1log_1_1Log__context.html#af4db395042b065b00398cd59845dcb4d" target="_top" xlink:title="Returns the stored Logger pointer, particularly as many FLOW_LOG_*() macros expect.">
<polygon fill="white" stroke="black" points="641.5,-115.5 641.5,-141.5 748.5,-141.5 748.5,-115.5 641.5,-115.5"/>
<text text-anchor="start" x="649.5" y="-131.1" font-family="Helvetica,sans-Serif" font-size="8.00">flow::log::Log_context</text>
<text text-anchor="middle" x="695" y="-122.1" font-family="Helvetica,sans-Serif" font-size="8.00">::get_logger</text>
</a>
</g>
</g>
<!-- Node4&#45;&gt;Node11 -->
<g id="edge25" class="edge">
<title>Node4&#45;&gt;Node11</title>
<path fill="none" stroke="midnightblue" d="M385.05,-295.56C434.06,-312.22 525.61,-333.92 583,-289.5 633.47,-250.44 574.6,-196.34 619,-150.5 622.84,-146.54 627.34,-143.28 632.21,-140.61"/>
<polygon fill="midnightblue" stroke="midnightblue" points="633.7,-143.77 641.3,-136.39 630.75,-137.42 633.7,-143.77"/>
</g>
<!-- Node37 -->
<g id="node24" class="node">
<title>Node37</title>
<g id="a_node24"><a xlink:href="classflow_1_1util_1_1Shared__ptr__alias__holder.html#a55a247bb8fb2ec94b7cbfdd56be65a81" target="_top" xlink:title="Provides syntactic&#45;sugary way to perform a static_pointer_cast&lt;&gt; from a compatible smart pointer type...">
<polygon fill="white" stroke="black" points="442,-235.5 442,-279.5 578,-279.5 578,-235.5 442,-235.5"/>
<text text-anchor="start" x="450" y="-269.1" font-family="Helvetica,sans-Serif" font-size="8.00">flow::util::Shared</text>
<text text-anchor="start" x="450" y="-260.1" font-family="Helvetica,sans-Serif" font-size="8.00">_ptr_alias_holder&lt; boost</text>
<text text-anchor="start" x="450" y="-251.1" font-family="Helvetica,sans-Serif" font-size="8.00">::shared_ptr&lt; Low_lvl_packet</text>
<text text-anchor="middle" x="510" y="-242.1" font-family="Helvetica,sans-Serif" font-size="8.00"> &gt; &gt;::ptr_cast</text>
</a>
</g>
</g>
<!-- Node4&#45;&gt;Node37 -->
<g id="edge26" class="edge">
<title>Node4&#45;&gt;Node37</title>
<path fill="none" stroke="midnightblue" d="M401.33,-274.59C411.1,-273.04 421.56,-271.38 431.97,-269.73"/>
<polygon fill="midnightblue" stroke="midnightblue" points="432.59,-273.17 441.92,-268.15 431.5,-266.26 432.59,-273.17"/>
</g>
<!-- Node38 -->
<g id="node25" class="node">
<title>Node38</title>
<g id="a_node25"><a xlink:href="classflow_1_1net__flow_1_1Node.html#a70d124ba678e2ab72f8c6d28140ca137" target="_top" xlink:title="Return true if and only if there is enough free space in Peer_socket::m_snd_buf of sock to enqueue an...">
<polygon fill="white" stroke="black" points="459.5,-190.5 459.5,-216.5 560.5,-216.5 560.5,-190.5 459.5,-190.5"/>
<text text-anchor="start" x="467.5" y="-206.1" font-family="Helvetica,sans-Serif" font-size="8.00">flow::net_flow::Node</text>
<text text-anchor="middle" x="510" y="-197.1" font-family="Helvetica,sans-Serif" font-size="8.00">::snd_buf_enqable</text>
</a>
</g>
</g>
<!-- Node4&#45;&gt;Node38 -->
<g id="edge27" class="edge">
<title>Node4&#45;&gt;Node38</title>
<path fill="none" stroke="midnightblue" d="M368.37,-269.46C385.05,-257.06 411.69,-238.56 437,-226.5 441.89,-224.17 447.07,-222 452.32,-219.99"/>
<polygon fill="midnightblue" stroke="midnightblue" points="453.6,-223.25 461.81,-216.55 451.22,-216.67 453.6,-223.25"/>
</g>
<!-- Node4&#45;&gt;Node39 -->
<g id="edge28" class="edge">
<title>Node4&#45;&gt;Node39</title>
<path fill="none" stroke="midnightblue" d="M356.87,-269.43C366.3,-246.25 386.25,-196.37 401,-153.5 418.83,-101.65 398.24,-74.28 437,-35.5 440.77,-31.73 445.17,-28.6 449.91,-26"/>
<polygon fill="midnightblue" stroke="midnightblue" points="451.73,-29.01 459.34,-21.64 448.79,-22.66 451.73,-29.01"/>
</g>
<!-- Node40 -->
<g id="node27" class="node">
<title>Node40</title>
<g id="a_node27"><a xlink:href="classflow_1_1net__flow_1_1Node.html#a52a3e10ef08b93daf87ea5f0f1e87062" target="_top" xlink:title="Adds a new packet struct (presumably representing packet to be sent shortly) to the &quot;scoreboard&quot; (Pee...">
<polygon fill="white" stroke="black" points="446,-145.5 446,-171.5 574,-171.5 574,-145.5 446,-145.5"/>
<text text-anchor="start" x="454" y="-161.1" font-family="Helvetica,sans-Serif" font-size="8.00">flow::net_flow::Node</text>
<text text-anchor="middle" x="510" y="-152.1" font-family="Helvetica,sans-Serif" font-size="8.00">::snd_flying_pkts_push_one</text>
</a>
</g>
</g>
<!-- Node4&#45;&gt;Node40 -->
<g id="edge29" class="edge">
<title>Node4&#45;&gt;Node40</title>
<path fill="none" stroke="midnightblue" d="M359.21,-269.3C372.43,-247.79 401.46,-205.23 437,-181.5 440.13,-179.41 443.46,-177.5 446.91,-175.75"/>
<polygon fill="midnightblue" stroke="midnightblue" points="448.61,-178.83 456.27,-171.51 445.71,-172.46 448.61,-178.83"/>
</g>
<!-- Node41 -->
<g id="node29" class="node">
<title>Node41</title>
<g id="a_node29"><a xlink:href="classflow_1_1net__flow_1_1Node.html#a837d37e6eb06fb6df4666bac327d20f8" target="_top" xlink:title="Obtain the sequence number for the datum just past the last (latest) In&#45;flight (i....">
<polygon fill="white" stroke="black" points="458,-91 458,-126 562,-126 562,-91 458,-91"/>
<text text-anchor="start" x="466" y="-115.6" font-family="Helvetica,sans-Serif" font-size="8.00">flow::net_flow::Node</text>
<text text-anchor="start" x="466" y="-106.6" font-family="Helvetica,sans-Serif" font-size="8.00">::snd_past_last_flying</text>
<text text-anchor="middle" x="510" y="-97.6" font-family="Helvetica,sans-Serif" font-size="8.00">_datum_seq_num</text>
</a>
</g>
</g>
<!-- Node4&#45;&gt;Node41 -->
<g id="edge32" class="edge">
<title>Node4&#45;&gt;Node41</title>
<path fill="none" stroke="midnightblue" d="M355.8,-269.09C365.62,-240.53 392.34,-173.22 437,-135.5 440.63,-132.43 444.65,-129.69 448.87,-127.25"/>
<polygon fill="midnightblue" stroke="midnightblue" points="450.49,-130.36 457.77,-122.66 447.28,-124.14 450.49,-130.36"/>
</g>
<!-- Node42 -->
<g id="node30" class="node">
<title>Node42</title>
<g id="a_node30"><a xlink:href="classflow_1_1net__flow_1_1Node.html#a479dfcb7944cb6571af51f1feed2656d" target="_top" xlink:title="Returns the &quot;order number&quot; to use for Peer_socket::Sent_packet::Sent_when structure corresponding to ...">
<polygon fill="white" stroke="black" points="437,-45.5 437,-71.5 583,-71.5 583,-45.5 437,-45.5"/>
<text text-anchor="start" x="445" y="-61.1" font-family="Helvetica,sans-Serif" font-size="8.00">flow::net_flow::Node</text>
<text text-anchor="middle" x="510" y="-52.1" font-family="Helvetica,sans-Serif" font-size="8.00">::sock_get_new_snd_order_num</text>
</a>
</g>
</g>
<!-- Node4&#45;&gt;Node42 -->
<g id="edge33" class="edge">
<title>Node4&#45;&gt;Node42</title>
<path fill="none" stroke="midnightblue" d="M356.33,-269.45C372.1,-227.05 421.97,-95.2 437,-81.5 438.91,-79.76 440.95,-78.15 443.09,-76.67"/>
<polygon fill="midnightblue" stroke="midnightblue" points="444.97,-79.62 451.79,-71.51 441.4,-73.6 444.97,-79.62"/>
</g>
<!-- Node5&#45;&gt;Node5 -->
<g id="edge5" class="edge">
<title>Node5&#45;&gt;Node5</title>
<path fill="none" stroke="midnightblue" d="M483.27,-675.77C475.17,-684.96 484.08,-694 510,-694 525.8,-694 535.28,-690.64 538.44,-685.94"/>
<polygon fill="midnightblue" stroke="midnightblue" points="541.84,-685.05 536.73,-675.77 534.93,-686.21 541.84,-685.05"/>
</g>
<!-- Node7 -->
<g id="node7" class="node">
<title>Node7</title>
<g id="a_node7"><a xlink:href="classflow_1_1net__flow_1_1Node.html#a0db2bb587e0407077b11368df075f0ff" target="_top" xlink:title="async_low_lvl_packet_send_impl() wrapper to call when packet is to be sent to the remote side of the ...">
<polygon fill="white" stroke="red" points="807,-633 807,-668 908,-668 908,-633 807,-633"/>
<text text-anchor="start" x="815" y="-657.6" font-family="Helvetica,sans-Serif" font-size="8.00">flow::net_flow::Node</text>
<text text-anchor="start" x="815" y="-648.6" font-family="Helvetica,sans-Serif" font-size="8.00">::async_sock_low_lvl</text>
<text text-anchor="middle" x="857.5" y="-639.6" font-family="Helvetica,sans-Serif" font-size="8.00">_packet_send</text>
</a>
</g>
</g>
<!-- Node6&#45;&gt;Node7 -->
<g id="edge7" class="edge">
<title>Node6&#45;&gt;Node7</title>
<path fill="none" stroke="midnightblue" d="M559.47,-630.14C567.43,-633.38 575.51,-636.89 583,-640.5 599.68,-648.55 601.12,-656.67 619,-661.5 677.96,-677.44 748.11,-671.28 796.82,-663.24"/>
<polygon fill="midnightblue" stroke="midnightblue" points="797.62,-666.65 806.87,-661.5 796.42,-659.75 797.62,-666.65"/>
</g>
<!-- Node14 -->
<g id="node8" class="node">
<title>Node14</title>
<g id="a_node8"><a xlink:href="classflow_1_1net__flow_1_1Node.html#a0556af278dc07a43f109fbd74ac64d5e" target="_top" xlink:title="async_sock_low_lvl_packet_send_paced() pacing helper: Handles a DATA or ACK packet that was just pass...">
<polygon fill="white" stroke="red" points="619,-625.5 619,-651.5 771,-651.5 771,-625.5 619,-625.5"/>
<text text-anchor="start" x="627" y="-641.1" font-family="Helvetica,sans-Serif" font-size="8.00">flow::net_flow::Node</text>
<text text-anchor="middle" x="695" y="-632.1" font-family="Helvetica,sans-Serif" font-size="8.00">::sock_pacing_new_packet_ready</text>
</a>
</g>
</g>
<!-- Node6&#45;&gt;Node14 -->
<g id="edge8" class="edge">
<title>Node6&#45;&gt;Node14</title>
<path fill="none" stroke="midnightblue" d="M560.52,-619.54C575.42,-621.65 592.22,-624.04 608.75,-626.39"/>
<polygon fill="midnightblue" stroke="midnightblue" points="608.59,-629.9 618.98,-627.84 609.57,-622.97 608.59,-629.9"/>
</g>
<!-- Node14&#45;&gt;Node7 -->
<g id="edge9" class="edge">
<title>Node14&#45;&gt;Node7</title>
<path fill="none" stroke="midnightblue" d="M771.08,-644.11C779.67,-644.76 788.33,-645.4 796.68,-646.03"/>
<polygon fill="midnightblue" stroke="midnightblue" points="796.44,-649.52 806.68,-646.77 796.96,-642.54 796.44,-649.52"/>
</g>
<!-- Node20 -->
<g id="node11" class="node">
<title>Node20</title>
<g id="a_node11"><a xlink:href="namespaceflow_1_1util.html#a16357344c21456b86b7de3085e2661a2" target="_top" xlink:title="Identical to buffers_to_ostream() but returns an std::string instead of writing to a given ostream.">
<polygon fill="white" stroke="red" points="814.5,-570.5 814.5,-596.5 900.5,-596.5 900.5,-570.5 814.5,-570.5"/>
<text text-anchor="start" x="822.5" y="-586.1" font-family="Helvetica,sans-Serif" font-size="8.00">flow::util::buffers</text>
<text text-anchor="middle" x="857.5" y="-577.1" font-family="Helvetica,sans-Serif" font-size="8.00">_dump_string</text>
</a>
</g>
</g>
<!-- Node19&#45;&gt;Node20 -->
<g id="edge12" class="edge">
<title>Node19&#45;&gt;Node20</title>
<path fill="none" stroke="midnightblue" d="M566.66,-504.53C572.51,-507.25 578.1,-510.54 583,-514.5 608.07,-534.79 591.31,-560.96 619,-577.5 675.43,-611.21 753.65,-605.27 804.66,-595.99"/>
<polygon fill="midnightblue" stroke="midnightblue" points="805.32,-599.42 814.48,-594.1 804,-592.55 805.32,-599.42"/>
</g>
<!-- Node23 -->
<g id="node12" class="node">
<title>Node23</title>
<g id="a_node12"><a xlink:href="classflow_1_1net__flow_1_1Socket__buffer.html#af60133c1d6825246b54f10f26810cd88" target="_top" xlink:title="Consumes (removes from the front of the internal byte buffer and returns them to the caller) a byte s...">
<polygon fill="white" stroke="black" points="628.5,-541.5 628.5,-567.5 761.5,-567.5 761.5,-541.5 628.5,-541.5"/>
<text text-anchor="start" x="636.5" y="-557.1" font-family="Helvetica,sans-Serif" font-size="8.00">flow::net_flow::Socket</text>
<text text-anchor="middle" x="695" y="-548.1" font-family="Helvetica,sans-Serif" font-size="8.00">_buffer::consume_bufs_copy</text>
</a>
</g>
</g>
<!-- Node19&#45;&gt;Node23 -->
<g id="edge13" class="edge">
<title>Node19&#45;&gt;Node23</title>
<path fill="none" stroke="midnightblue" d="M555.11,-504.57C564.4,-507.61 574.09,-510.99 583,-514.5 599.46,-520.98 602.5,-525.11 619,-531.5 625,-533.82 631.34,-536.07 637.69,-538.2"/>
<polygon fill="midnightblue" stroke="midnightblue" points="637.04,-541.66 647.63,-541.42 639.2,-535.01 637.04,-541.66"/>
</g>
<!-- Node23&#45;&gt;Node20 -->
<g id="edge14" class="edge">
<title>Node23&#45;&gt;Node20</title>
<path fill="none" stroke="midnightblue" d="M761.74,-566.38C775.82,-568.92 790.51,-571.58 804,-574.01"/>
<polygon fill="midnightblue" stroke="midnightblue" points="803.6,-577.5 814.06,-575.83 804.84,-570.61 803.6,-577.5"/>
</g>
<!-- Node26 -->
<g id="node15" class="node">
<title>Node26</title>
<g id="a_node15"><a xlink:href="classflow_1_1net__flow_1_1Event__set.html#a0edced1cb69b2cad299ee32e652ccea7" target="_top" xlink:title="Helper that clears each Sockets set inside an Ev_type_to_socks_map.">
<polygon fill="white" stroke="black" points="641.5,-487 641.5,-522 748.5,-522 748.5,-487 641.5,-487"/>
<text text-anchor="start" x="649.5" y="-511.6" font-family="Helvetica,sans-Serif" font-size="8.00">flow::net_flow::Event</text>
<text text-anchor="start" x="649.5" y="-502.6" font-family="Helvetica,sans-Serif" font-size="8.00">_set::clear_ev_type_to</text>
<text text-anchor="middle" x="695" y="-493.6" font-family="Helvetica,sans-Serif" font-size="8.00">_socks_map</text>
</a>
</g>
</g>
<!-- Node25&#45;&gt;Node26 -->
<g id="edge17" class="edge">
<title>Node25&#45;&gt;Node26</title>
<path fill="none" stroke="midnightblue" d="M569.2,-363.59C574.25,-366.29 578.96,-369.56 583,-373.5 618,-407.67 584.63,-442.7 619,-477.5 622.89,-481.44 627.4,-484.8 632.23,-487.68"/>
<polygon fill="midnightblue" stroke="midnightblue" points="630.73,-490.85 641.22,-492.35 633.96,-484.64 630.73,-490.85"/>
</g>
<!-- Node27 -->
<g id="node16" class="node">
<title>Node27</title>
<g id="a_node16"><a xlink:href="classflow_1_1util_1_1Linked__hash__set.html#a048a8d78c4ae3bc45c8bcede6b0e2dc6" target="_top" xlink:title="Returns true if and only if container is empty.">
<polygon fill="white" stroke="black" points="650.5,-441.5 650.5,-467.5 739.5,-467.5 739.5,-441.5 650.5,-441.5"/>
<text text-anchor="start" x="658.5" y="-457.1" font-family="Helvetica,sans-Serif" font-size="8.00">flow::util::Linked</text>
<text text-anchor="middle" x="695" y="-448.1" font-family="Helvetica,sans-Serif" font-size="8.00">_hash_set::empty</text>
</a>
</g>
</g>
<!-- Node25&#45;&gt;Node27 -->
<g id="edge18" class="edge">
<title>Node25&#45;&gt;Node27</title>
<path fill="none" stroke="midnightblue" d="M566.15,-363.54C572.16,-366.26 577.93,-369.55 583,-373.5 606.93,-392.16 594.97,-412.98 619,-431.5 625.44,-436.46 632.96,-440.36 640.7,-443.42"/>
<polygon fill="midnightblue" stroke="midnightblue" points="639.6,-446.75 650.2,-446.76 641.92,-440.14 639.6,-446.75"/>
</g>
<!-- Node28 -->
<g id="node17" class="node">
<title>Node28</title>
<g id="a_node17"><a xlink:href="classflow_1_1net__flow_1_1Event__set.html#aed9505b886c78169fe35b527f4e01855" target="_top" xlink:title="Functional helper that checks whether a given pair in an Ev_type_to_socks_map contains an empty set o...">
<polygon fill="white" stroke="black" points="640,-387 640,-422 750,-422 750,-387 640,-387"/>
<text text-anchor="start" x="648" y="-411.6" font-family="Helvetica,sans-Serif" font-size="8.00">flow::net_flow::Event</text>
<text text-anchor="start" x="648" y="-402.6" font-family="Helvetica,sans-Serif" font-size="8.00">_set::ev_type_to_socks</text>
<text text-anchor="middle" x="695" y="-393.6" font-family="Helvetica,sans-Serif" font-size="8.00">_map_entry_is_empty</text>
</a>
</g>
</g>
<!-- Node25&#45;&gt;Node28 -->
<g id="edge19" class="edge">
<title>Node25&#45;&gt;Node28</title>
<path fill="none" stroke="midnightblue" d="M555.3,-363.57C577.8,-370.21 605.56,-378.4 630.31,-385.71"/>
<polygon fill="midnightblue" stroke="midnightblue" points="629.41,-389.09 639.99,-388.56 631.39,-382.37 629.41,-389.09"/>
</g>
<!-- Node29 -->
<g id="node18" class="node">
<title>Node29</title>
<g id="a_node18"><a xlink:href="classflow_1_1net__flow_1_1Event__set.html#a19e241ae4dfe1ea54de6027052bc2135" target="_top" xlink:title="Helper that returns a loggable string summarizing the sizes of the socket sets, by type,...">
<polygon fill="white" stroke="red" points="640,-333 640,-368 750,-368 750,-333 640,-333"/>
<text text-anchor="start" x="648" y="-357.6" font-family="Helvetica,sans-Serif" font-size="8.00">flow::net_flow::Event</text>
<text text-anchor="start" x="648" y="-348.6" font-family="Helvetica,sans-Serif" font-size="8.00">_set::ev_type_to_socks</text>
<text text-anchor="middle" x="695" y="-339.6" font-family="Helvetica,sans-Serif" font-size="8.00">_map_sizes_to_str</text>
</a>
</g>
</g>
<!-- Node25&#45;&gt;Node29 -->
<g id="edge20" class="edge">
<title>Node25&#45;&gt;Node29</title>
<path fill="none" stroke="midnightblue" d="M574.23,-350.5C592.19,-350.5 611.77,-350.5 629.78,-350.5"/>
<polygon fill="midnightblue" stroke="midnightblue" points="629.9,-354 639.9,-350.5 629.9,-347 629.9,-354"/>
</g>
<!-- Node33 -->
<g id="node19" class="node">
<title>Node33</title>
<g id="a_node19"><a xlink:href="classflow_1_1util_1_1Linked__hash__set.html#a517b9b0ac9d6ab2c56e27ba380f87180" target="_top" xlink:title="Attempts to insert the given key into the set.">
<polygon fill="white" stroke="black" points="652,-287.5 652,-313.5 738,-313.5 738,-287.5 652,-287.5"/>
<text text-anchor="start" x="660" y="-303.1" font-family="Helvetica,sans-Serif" font-size="8.00">flow::util::Linked</text>
<text text-anchor="middle" x="695" y="-294.1" font-family="Helvetica,sans-Serif" font-size="8.00">_hash_set::insert</text>
</a>
</g>
</g>
<!-- Node25&#45;&gt;Node33 -->
<g id="edge21" class="edge">
<title>Node25&#45;&gt;Node33</title>
<path fill="none" stroke="midnightblue" d="M558.6,-337.49C584.24,-330.49 615.9,-321.84 642.16,-314.66"/>
<polygon fill="midnightblue" stroke="midnightblue" points="643.21,-318.01 651.93,-311.99 641.37,-311.25 643.21,-318.01"/>
</g>
<!-- Node34 -->
<g id="node20" class="node">
<title>Node34</title>
<g id="a_node20"><a xlink:href="namespaceflow_1_1util.html#a03984e29450abf9cf287c501d6c8f866" target="_top" xlink:title="Returns true if and only if the given key is present at least once in the given associative container...">
<polygon fill="white" stroke="black" points="645.5,-251 645.5,-268 744.5,-268 744.5,-251 645.5,-251"/>
<text text-anchor="middle" x="695" y="-257.6" font-family="Helvetica,sans-Serif" font-size="8.00">flow::util::key_exists</text>
</a>
</g>
</g>
<!-- Node25&#45;&gt;Node34 -->
<g id="edge22" class="edge">
<title>Node25&#45;&gt;Node34</title>
<path fill="none" stroke="midnightblue" d="M555.12,-337.47C564.8,-333.52 574.64,-328.57 583,-322.5 603.45,-307.66 597.68,-292.06 619,-278.5 624.08,-275.27 629.69,-272.58 635.47,-270.36"/>
<polygon fill="midnightblue" stroke="midnightblue" points="636.97,-273.54 645.32,-267.02 634.73,-266.91 636.97,-273.54"/>
</g>
<!-- Node35 -->
<g id="node21" class="node">
<title>Node35</title>
<g id="a_node21"><a xlink:href="classflow_1_1util_1_1Linked__hash__set.html#ad2ce3ff8f57696dcb230f419775ab865" target="_top" xlink:title="Returns number of elements stored.">
<polygon fill="white" stroke="black" points="652.5,-205.5 652.5,-231.5 737.5,-231.5 737.5,-205.5 652.5,-205.5"/>
<text text-anchor="start" x="660.5" y="-221.1" font-family="Helvetica,sans-Serif" font-size="8.00">flow::util::Linked</text>
<text text-anchor="middle" x="695" y="-212.1" font-family="Helvetica,sans-Serif" font-size="8.00">_hash_set::size</text>
</a>
</g>
</g>
<!-- Node25&#45;&gt;Node35 -->
<g id="edge23" class="edge">
<title>Node25&#45;&gt;Node35</title>
<path fill="none" stroke="midnightblue" d="M560.15,-337.39C568.47,-333.58 576.5,-328.7 583,-322.5 611.51,-295.31 589.51,-267.63 619,-241.5 625.74,-235.53 634,-231.11 642.55,-227.83"/>
<polygon fill="midnightblue" stroke="midnightblue" points="643.87,-231.08 652.25,-224.6 641.66,-224.44 643.87,-231.08"/>
</g>
<!-- Node36 -->
<g id="node22" class="node">
<title>Node36</title>
<g id="a_node22"><a xlink:href="classflow_1_1net__flow_1_1Event__set.html#ae04c117b15179ba37a94f6836c63497b" target="_top" xlink:title="Helper that returns a loggable string representing the socket stored in the given boost::any that sto...">
<polygon fill="white" stroke="red" points="637,-160.5 637,-186.5 753,-186.5 753,-160.5 637,-160.5"/>
<text text-anchor="start" x="645" y="-176.1" font-family="Helvetica,sans-Serif" font-size="8.00">flow::net_flow::Event</text>
<text text-anchor="middle" x="695" y="-167.1" font-family="Helvetica,sans-Serif" font-size="8.00">_set::sock_as_any_to_str</text>
</a>
</g>
</g>
<!-- Node25&#45;&gt;Node36 -->
<g id="edge24" class="edge">
<title>Node25&#45;&gt;Node36</title>
<path fill="none" stroke="midnightblue" d="M562.36,-337.4C570.06,-333.61 577.31,-328.74 583,-322.5 622.23,-279.46 578.22,-238.08 619,-196.5 621.69,-193.76 624.69,-191.35 627.9,-189.22"/>
<polygon fill="midnightblue" stroke="midnightblue" points="629.82,-192.16 636.85,-184.23 626.41,-186.05 629.82,-192.16"/>
</g>
<!-- Node40&#45;&gt;Node11 -->
<g id="edge31" class="edge">
<title>Node40&#45;&gt;Node11</title>
<path fill="none" stroke="midnightblue" d="M574.23,-148.13C592.71,-145.1 612.9,-141.8 631.34,-138.77"/>
<polygon fill="midnightblue" stroke="midnightblue" points="632.09,-142.2 641.39,-137.12 630.95,-135.29 632.09,-142.2"/>
</g>
<!-- Node10 -->
<g id="node28" class="node">
<title>Node10</title>
<g id="a_node28"><a xlink:href="classflow_1_1log_1_1Log__context.html#a8a5fef42dc2cedf3c0d1a6e83beb2948" target="_top" xlink:title="Returns reference to the stored Component object, particularly as many FLOW_LOG_*() macros expect.">
<polygon fill="white" stroke="black" points="641.5,-70.5 641.5,-96.5 748.5,-96.5 748.5,-70.5 641.5,-70.5"/>
<text text-anchor="start" x="649.5" y="-86.1" font-family="Helvetica,sans-Serif" font-size="8.00">flow::log::Log_context</text>
<text text-anchor="middle" x="695" y="-77.1" font-family="Helvetica,sans-Serif" font-size="8.00">::get_log_component</text>
</a>
</g>
</g>
<!-- Node40&#45;&gt;Node10 -->
<g id="edge30" class="edge">
<title>Node40&#45;&gt;Node10</title>
<path fill="none" stroke="midnightblue" d="M560.47,-145.5C568.22,-142.67 575.98,-139.35 583,-135.5 601.26,-125.48 600.62,-115.3 619,-105.5 623.01,-103.36 627.26,-101.4 631.62,-99.61"/>
<polygon fill="midnightblue" stroke="midnightblue" points="633.15,-102.78 641.27,-95.98 630.68,-96.23 633.15,-102.78"/>
</g>
</g>
</svg>
