<?xml version="1.0" encoding="UTF-8" standalone="no"?>
<!DOCTYPE svg PUBLIC "-//W3C//DTD SVG 1.1//EN"
 "http://www.w3.org/Graphics/SVG/1.1/DTD/svg11.dtd">
<!-- Generated by graphviz version 2.43.0 (0)
 -->
<!-- Title: flow::util::Basic_blob::Deleter_raw::Deleter_raw Pages: 1 -->
<svg width="270pt" height="35pt"
 viewBox="0.00 0.00 270.00 35.00" xmlns="http://www.w3.org/2000/svg" xmlns:xlink="http://www.w3.org/1999/xlink">
<g id="graph0" class="graph" transform="scale(1 1) rotate(0) translate(4 31)">
<title>flow::util::Basic_blob::Deleter_raw::Deleter_raw</title>
<polygon fill="white" stroke="transparent" points="-4,4 -4,-31 266,-31 266,4 -4,4"/>
<!-- Node1 -->
<g id="node1" class="node">
<title>Node1</title>
<g id="a_node1"><a xlink:title="Move&#45;construction which may be required when we are used in unique_ptr.">
<polygon fill="#bfbfbf" stroke="black" points="0,-0.5 0,-26.5 125,-26.5 125,-0.5 0,-0.5"/>
<text text-anchor="start" x="8" y="-16.1" font-family="Helvetica,sans-Serif" font-size="8.00">flow::util::Basic_blob</text>
<text text-anchor="middle" x="62.5" y="-7.1" font-family="Helvetica,sans-Serif" font-size="8.00">::Deleter_raw::Deleter_raw</text>
</a>
</g>
</g>
<!-- Node2 -->
<g id="node2" class="node">
<title>Node2</title>
<g id="a_node2"><a xlink:href="classflow_1_1util_1_1Basic__blob.html#ab8208b62142b55c94993da20336e7a94" target="_top" xlink:title="Move assignment operator (no logging): equivalent to assign(std::move(moved_src), nullptr).">
<polygon fill="white" stroke="black" points="161,-0.5 161,-26.5 262,-26.5 262,-0.5 161,-0.5"/>
<text text-anchor="start" x="169" y="-16.1" font-family="Helvetica,sans-Serif" font-size="8.00">flow::util::Basic_blob</text>
<text text-anchor="middle" x="211.5" y="-7.1" font-family="Helvetica,sans-Serif" font-size="8.00">::operator=</text>
</a>
</g>
</g>
<!-- Node1&#45;&gt;Node2 -->
<g id="edge1" class="edge">
<title>Node1&#45;&gt;Node2</title>
<path fill="none" stroke="midnightblue" d="M125.42,-13.5C133.78,-13.5 142.36,-13.5 150.69,-13.5"/>
<polygon fill="midnightblue" stroke="midnightblue" points="150.7,-17 160.7,-13.5 150.7,-10 150.7,-17"/>
</g>
</g>
</svg>
