<?xml version="1.0" encoding="UTF-8" standalone="no"?>
<!DOCTYPE svg PUBLIC "-//W3C//DTD SVG 1.1//EN"
 "http://www.w3.org/Graphics/SVG/1.1/DTD/svg11.dtd">
<!-- Generated by graphviz version 2.43.0 (0)
 -->
<!-- Title: flow::net_flow::Congestion_control_classic_data::on_congestion_event Pages: 1 -->
<svg width="487pt" height="124pt"
 viewBox="0.00 0.00 487.00 124.00" xmlns="http://www.w3.org/2000/svg" xmlns:xlink="http://www.w3.org/1999/xlink">
<g id="graph0" class="graph" transform="scale(1 1) rotate(0) translate(4 120)">
<title>flow::net_flow::Congestion_control_classic_data::on_congestion_event</title>
<polygon fill="white" stroke="transparent" points="-4,4 -4,-120 483,-120 483,4 -4,4"/>
<!-- Node1 -->
<g id="node1" class="node">
<title>Node1</title>
<g id="a_node1"><a xlink:title="Sets internally stored SSHTRESH and CWND to the given values; appropriately resets internal state so ...">
<polygon fill="#bfbfbf" stroke="black" points="0,-30.5 0,-65.5 125,-65.5 125,-30.5 0,-30.5"/>
<text text-anchor="start" x="8" y="-55.1" font-family="Helvetica,sans-Serif" font-size="8.00">flow::net_flow::Congestion</text>
<text text-anchor="start" x="8" y="-46.1" font-family="Helvetica,sans-Serif" font-size="8.00">_control_classic_data::on</text>
<text text-anchor="middle" x="62.5" y="-37.1" font-family="Helvetica,sans-Serif" font-size="8.00">_congestion_event</text>
</a>
</g>
</g>
<!-- Node2 -->
<g id="node2" class="node">
<title>Node2</title>
<g id="a_node2"><a xlink:href="classflow_1_1net__flow_1_1Congestion__control__classic__data.html#a7b798f3211fd2214477355b95e2d10d2" target="_top" xlink:title="If congestion_window_at_limit(), sets CWND to the limit value.">
<polygon fill="white" stroke="black" points="167,-80.5 167,-115.5 301,-115.5 301,-80.5 167,-80.5"/>
<text text-anchor="start" x="175" y="-105.1" font-family="Helvetica,sans-Serif" font-size="8.00">flow::net_flow::Congestion</text>
<text text-anchor="start" x="175" y="-96.1" font-family="Helvetica,sans-Serif" font-size="8.00">_control_classic_data::clamp</text>
<text text-anchor="middle" x="234" y="-87.1" font-family="Helvetica,sans-Serif" font-size="8.00">_congestion_window</text>
</a>
</g>
</g>
<!-- Node1&#45;&gt;Node2 -->
<g id="edge1" class="edge">
<title>Node1&#45;&gt;Node2</title>
<path fill="none" stroke="midnightblue" d="M123.26,-65.63C136.37,-69.5 150.37,-73.62 163.82,-77.59"/>
<polygon fill="midnightblue" stroke="midnightblue" points="162.91,-80.97 173.49,-80.45 164.89,-74.26 162.91,-80.97"/>
</g>
<!-- Node4 -->
<g id="node4" class="node">
<title>Node4</title>
<g id="a_node4"><a xlink:href="classflow_1_1net__flow_1_1Congestion__control__classic__data.html#aecb03f208c177ec3cbce5242f19efee0" target="_top" xlink:title="Return true if and only if CWND &lt; SSTHRESH.">
<polygon fill="white" stroke="black" points="348.5,-0.5 348.5,-35.5 473.5,-35.5 473.5,-0.5 348.5,-0.5"/>
<text text-anchor="start" x="356.5" y="-25.1" font-family="Helvetica,sans-Serif" font-size="8.00">flow::net_flow::Congestion</text>
<text text-anchor="start" x="356.5" y="-16.1" font-family="Helvetica,sans-Serif" font-size="8.00">_control_classic_data::in</text>
<text text-anchor="middle" x="411" y="-7.1" font-family="Helvetica,sans-Serif" font-size="8.00">_slow_start</text>
</a>
</g>
</g>
<!-- Node1&#45;&gt;Node4 -->
<g id="edge3" class="edge">
<title>Node1&#45;&gt;Node4</title>
<path fill="none" stroke="midnightblue" d="M125.04,-31.48C136.9,-28.87 149.27,-26.53 161,-25 220.37,-17.24 288.36,-15.83 338.28,-16.17"/>
<polygon fill="midnightblue" stroke="midnightblue" points="338.3,-19.67 348.33,-16.26 338.36,-12.67 338.3,-19.67"/>
</g>
<!-- Node5 -->
<g id="node5" class="node">
<title>Node5</title>
<g id="a_node5"><a xlink:href="classflow_1_1net__flow_1_1Congestion__control__classic__data.html#a092ddd8d1f700b426a5f9e0184af004f" target="_top" xlink:title="Logs, in a TRACE message, all internal state values.">
<polygon fill="white" stroke="black" points="161,-35 161,-61 307,-61 307,-35 161,-35"/>
<text text-anchor="start" x="169" y="-50.6" font-family="Helvetica,sans-Serif" font-size="8.00">flow::net_flow::Congestion</text>
<text text-anchor="middle" x="234" y="-41.6" font-family="Helvetica,sans-Serif" font-size="8.00">_control_classic_data::log_state</text>
</a>
</g>
</g>
<!-- Node1&#45;&gt;Node5 -->
<g id="edge5" class="edge">
<title>Node1&#45;&gt;Node5</title>
<path fill="none" stroke="midnightblue" d="M125.17,-48C133.47,-48 142.09,-48 150.68,-48"/>
<polygon fill="midnightblue" stroke="midnightblue" points="150.72,-51.5 160.72,-48 150.72,-44.5 150.72,-51.5"/>
</g>
<!-- Node3 -->
<g id="node3" class="node">
<title>Node3</title>
<g id="a_node3"><a xlink:href="classflow_1_1net__flow_1_1Congestion__control__classic__data.html#a842fd11c65c3be53ce3d81a7f050f7d7" target="_top" xlink:title="Analogous to Congestion_control_strategy::socket().">
<polygon fill="white" stroke="black" points="343,-79 343,-105 479,-105 479,-79 343,-79"/>
<text text-anchor="start" x="351" y="-94.6" font-family="Helvetica,sans-Serif" font-size="8.00">flow::net_flow::Congestion</text>
<text text-anchor="middle" x="411" y="-85.6" font-family="Helvetica,sans-Serif" font-size="8.00">_control_classic_data::socket</text>
</a>
</g>
</g>
<!-- Node2&#45;&gt;Node3 -->
<g id="edge2" class="edge">
<title>Node2&#45;&gt;Node3</title>
<path fill="none" stroke="midnightblue" d="M301.16,-95.73C311.5,-95.38 322.27,-95.01 332.83,-94.65"/>
<polygon fill="midnightblue" stroke="midnightblue" points="333,-98.14 342.87,-94.3 332.76,-91.15 333,-98.14"/>
</g>
<!-- Node4&#45;&gt;Node4 -->
<g id="edge4" class="edge">
<title>Node4&#45;&gt;Node4</title>
<path fill="none" stroke="midnightblue" d="M379.36,-35.78C373.99,-45.31 384.53,-54 411,-54 427.13,-54 437.35,-50.77 441.65,-46.1"/>
<polygon fill="midnightblue" stroke="midnightblue" points="445.17,-46.07 442.64,-35.78 438.2,-45.4 445.17,-46.07"/>
</g>
<!-- Node5&#45;&gt;Node3 -->
<g id="edge7" class="edge">
<title>Node5&#45;&gt;Node3</title>
<path fill="none" stroke="midnightblue" d="M287.03,-61.08C306.25,-65.91 328.22,-71.44 348.22,-76.47"/>
<polygon fill="midnightblue" stroke="midnightblue" points="347.62,-79.92 358.17,-78.97 349.32,-73.14 347.62,-79.92"/>
</g>
<!-- Node5&#45;&gt;Node4 -->
<g id="edge6" class="edge">
<title>Node5&#45;&gt;Node4</title>
<path fill="none" stroke="midnightblue" d="M307.19,-35.62C317.43,-33.87 327.96,-32.06 338.19,-30.31"/>
<polygon fill="midnightblue" stroke="midnightblue" points="339.03,-33.72 348.3,-28.58 337.85,-26.82 339.03,-33.72"/>
</g>
</g>
</svg>
