<?xml version="1.0" encoding="UTF-8" standalone="no"?>
<!DOCTYPE svg PUBLIC "-//W3C//DTD SVG 1.1//EN"
 "http://www.w3.org/Graphics/SVG/1.1/DTD/svg11.dtd">
<!-- Generated by graphviz version 2.43.0 (0)
 -->
<!-- Title: flow::util::Unique_id_holder Pages: 1 -->
<svg width="171pt" height="161pt"
 viewBox="0.00 0.00 171.00 161.00" xmlns="http://www.w3.org/2000/svg" xmlns:xlink="http://www.w3.org/1999/xlink">
<g id="graph0" class="graph" transform="scale(1 1) rotate(0) translate(4 157)">
<title>flow::util::Unique_id_holder</title>
<polygon fill="white" stroke="transparent" points="-4,4 -4,-157 167,-157 167,4 -4,4"/>
<!-- Node1 -->
<g id="node1" class="node">
<title>Node1</title>
<g id="a_node1"><a xlink:title="Each object of this class stores (at construction) and returns (on demand) a numeric ID unique from a...">
<polygon fill="#bfbfbf" stroke="black" points="0,-0.5 0,-26.5 87,-26.5 87,-0.5 0,-0.5"/>
<text text-anchor="start" x="8" y="-16.1" font-family="Helvetica,sans-Serif" font-size="8.00">flow::util::Unique</text>
<text text-anchor="middle" x="43.5" y="-7.1" font-family="Helvetica,sans-Serif" font-size="8.00">_id_holder</text>
</a>
</g>
</g>
<!-- Node2 -->
<g id="node2" class="node">
<title>Node2</title>
<g id="a_node2"><a xlink:title=" ">
<polygon fill="white" stroke="#bfbfbf" points="18.5,-135.5 18.5,-152.5 68.5,-152.5 68.5,-135.5 18.5,-135.5"/>
<text text-anchor="middle" x="43.5" y="-142.1" font-family="Helvetica,sans-Serif" font-size="8.00">uint64_t</text>
</a>
</g>
</g>
<!-- Node2&#45;&gt;Node1 -->
<g id="edge1" class="edge">
<title>Node2&#45;&gt;Node1</title>
<path fill="none" stroke="#9a32cd" stroke-dasharray="5,2" d="M40.58,-125.36C39.03,-115.08 37.28,-101.84 36.5,-90 35.02,-67.54 38.64,-41.4 41.21,-26.51"/>
<polygon fill="#9a32cd" stroke="#9a32cd" points="37.16,-126.16 42.19,-135.48 44.08,-125.06 37.16,-126.16"/>
<text text-anchor="middle" x="47.5" y="-79.1" font-family="Helvetica,sans-Serif" font-size="8.00"> m_id</text>
</g>
<!-- Node3 -->
<g id="node3" class="node">
<title>Node3</title>
<g id="a_node3"><a xlink:title=" ">
<polygon fill="white" stroke="black" points="68,-72.5 68,-89.5 163,-89.5 163,-72.5 68,-72.5"/>
<text text-anchor="middle" x="115.5" y="-79.1" font-family="Helvetica,sans-Serif" font-size="8.00">std::atomic&lt; id_t &gt;</text>
</a>
</g>
</g>
<!-- Node2&#45;&gt;Node3 -->
<g id="edge3" class="edge">
<title>Node2&#45;&gt;Node3</title>
<path fill="none" stroke="#9a32cd" stroke-dasharray="5,2" d="M60.28,-128.79C74.59,-116.66 94.64,-99.67 106.23,-89.86"/>
<polygon fill="#9a32cd" stroke="#9a32cd" points="57.99,-126.14 52.62,-135.27 62.51,-131.48 57.99,-126.14"/>
<text text-anchor="middle" x="90.5" y="-110.6" font-family="Helvetica,sans-Serif" font-size="8.00"> ptr</text>
</g>
<!-- Node3&#45;&gt;Node1 -->
<g id="edge2" class="edge">
<title>Node3&#45;&gt;Node1</title>
<path fill="none" stroke="#9a32cd" stroke-dasharray="5,2" d="M99.64,-65.57C86.78,-53.88 68.89,-37.59 56.78,-26.58"/>
<polygon fill="#9a32cd" stroke="#9a32cd" points="97.49,-68.35 107.24,-72.49 102.2,-63.17 97.49,-68.35"/>
<text text-anchor="middle" x="104" y="-47.6" font-family="Helvetica,sans-Serif" font-size="8.00"> s_last_id</text>
</g>
</g>
</svg>
