<?xml version="1.0" encoding="UTF-8" standalone="no"?>
<!DOCTYPE svg PUBLIC "-//W3C//DTD SVG 1.1//EN"
 "http://www.w3.org/Graphics/SVG/1.1/DTD/svg11.dtd">
<!-- Generated by graphviz version 2.43.0 (0)
 -->
<!-- Title: flow::net_flow::Congestion_control_classic_data::on_acks Pages: 1 -->
<svg width="513pt" height="204pt"
 viewBox="0.00 0.00 513.00 204.43" xmlns="http://www.w3.org/2000/svg" xmlns:xlink="http://www.w3.org/1999/xlink">
<g id="graph0" class="graph" transform="scale(1 1) rotate(0) translate(4 200.43)">
<title>flow::net_flow::Congestion_control_classic_data::on_acks</title>
<polygon fill="white" stroke="transparent" points="-4,4 -4,-200.43 509,-200.43 509,4 -4,4"/>
<!-- Node1 -->
<g id="node1" class="node">
<title>Node1</title>
<g id="a_node1"><a xlink:title="Adjusts state, including potentially CWND, based on either &quot;congestion avoidance&quot; or &quot;slow start&quot; alg...">
<polygon fill="#bfbfbf" stroke="black" points="0,-73.43 0,-99.43 142,-99.43 142,-73.43 0,-73.43"/>
<text text-anchor="start" x="8" y="-89.03" font-family="Helvetica,sans-Serif" font-size="8.00">flow::net_flow::Congestion</text>
<text text-anchor="middle" x="71" y="-80.03" font-family="Helvetica,sans-Serif" font-size="8.00">_control_classic_data::on_acks</text>
</a>
</g>
</g>
<!-- Node2 -->
<g id="node2" class="node">
<title>Node2</title>
<g id="a_node2"><a xlink:href="classflow_1_1net__flow_1_1Congestion__control__classic__data.html#a7b798f3211fd2214477355b95e2d10d2" target="_top" xlink:title="If congestion_window_at_limit(), sets CWND to the limit value.">
<polygon fill="white" stroke="black" points="188.5,-160.93 188.5,-195.93 322.5,-195.93 322.5,-160.93 188.5,-160.93"/>
<text text-anchor="start" x="196.5" y="-185.53" font-family="Helvetica,sans-Serif" font-size="8.00">flow::net_flow::Congestion</text>
<text text-anchor="start" x="196.5" y="-176.53" font-family="Helvetica,sans-Serif" font-size="8.00">_control_classic_data::clamp</text>
<text text-anchor="middle" x="255.5" y="-167.53" font-family="Helvetica,sans-Serif" font-size="8.00">_congestion_window</text>
</a>
</g>
</g>
<!-- Node1&#45;&gt;Node2 -->
<g id="edge1" class="edge">
<title>Node1&#45;&gt;Node2</title>
<path fill="none" stroke="midnightblue" d="M93.52,-99.61C114.65,-112.32 148,-131.73 178,-146.43 185.26,-149.99 193.02,-153.52 200.7,-156.88"/>
<polygon fill="midnightblue" stroke="midnightblue" points="199.44,-160.14 210.01,-160.87 202.19,-153.71 199.44,-160.14"/>
</g>
<!-- Node3 -->
<g id="node3" class="node">
<title>Node3</title>
<g id="a_node3"><a xlink:href="classflow_1_1net__flow_1_1Congestion__control__classic__data.html#a842fd11c65c3be53ce3d81a7f050f7d7" target="_top" xlink:title="Analogous to Congestion_control_strategy::socket().">
<polygon fill="white" stroke="black" points="369,-88.43 369,-114.43 505,-114.43 505,-88.43 369,-88.43"/>
<text text-anchor="start" x="377" y="-104.03" font-family="Helvetica,sans-Serif" font-size="8.00">flow::net_flow::Congestion</text>
<text text-anchor="middle" x="437" y="-95.03" font-family="Helvetica,sans-Serif" font-size="8.00">_control_classic_data::socket</text>
</a>
</g>
</g>
<!-- Node1&#45;&gt;Node3 -->
<g id="edge10" class="edge">
<title>Node1&#45;&gt;Node3</title>
<path fill="none" stroke="midnightblue" d="M113.07,-99.43C132.53,-104.94 156.24,-110.7 178,-113.43 238.48,-121.01 307.48,-117.16 358.89,-111.87"/>
<polygon fill="midnightblue" stroke="midnightblue" points="359.36,-115.34 368.93,-110.8 358.62,-108.38 359.36,-115.34"/>
</g>
<!-- Node4 -->
<g id="node4" class="node">
<title>Node4</title>
<g id="a_node4"><a xlink:href="classflow_1_1net__flow_1_1Congestion__control__classic__data.html#a9c6cac4d5409855f5e39f4411d787ad9" target="_top" xlink:title="Returns true if and only if the stored CWND is &gt;= a certain constant maximum value.">
<polygon fill="white" stroke="black" points="178,-68.93 178,-103.93 333,-103.93 333,-68.93 178,-68.93"/>
<text text-anchor="start" x="186" y="-93.53" font-family="Helvetica,sans-Serif" font-size="8.00">flow::net_flow::Congestion</text>
<text text-anchor="start" x="186" y="-84.53" font-family="Helvetica,sans-Serif" font-size="8.00">_control_classic_data::congestion</text>
<text text-anchor="middle" x="255.5" y="-75.53" font-family="Helvetica,sans-Serif" font-size="8.00">_window_at_limit</text>
</a>
</g>
</g>
<!-- Node1&#45;&gt;Node4 -->
<g id="edge3" class="edge">
<title>Node1&#45;&gt;Node4</title>
<path fill="none" stroke="midnightblue" d="M142.04,-86.43C150.49,-86.43 159.2,-86.43 167.86,-86.43"/>
<polygon fill="midnightblue" stroke="midnightblue" points="167.97,-89.93 177.97,-86.43 167.97,-82.93 167.97,-89.93"/>
</g>
<!-- Node5 -->
<g id="node5" class="node">
<title>Node5</title>
<g id="a_node5"><a xlink:href="classflow_1_1net__flow_1_1Congestion__control__classic__data.html#aecb03f208c177ec3cbce5242f19efee0" target="_top" xlink:title="Return true if and only if CWND &lt; SSTHRESH.">
<polygon fill="white" stroke="black" points="374.5,-3.93 374.5,-38.93 499.5,-38.93 499.5,-3.93 374.5,-3.93"/>
<text text-anchor="start" x="382.5" y="-28.53" font-family="Helvetica,sans-Serif" font-size="8.00">flow::net_flow::Congestion</text>
<text text-anchor="start" x="382.5" y="-19.53" font-family="Helvetica,sans-Serif" font-size="8.00">_control_classic_data::in</text>
<text text-anchor="middle" x="437" y="-10.53" font-family="Helvetica,sans-Serif" font-size="8.00">_slow_start</text>
</a>
</g>
</g>
<!-- Node1&#45;&gt;Node5 -->
<g id="edge5" class="edge">
<title>Node1&#45;&gt;Node5</title>
<path fill="none" stroke="midnightblue" d="M85.26,-73.22C104.02,-55.57 140.23,-25.17 178,-13.43 238.8,5.48 311.59,0.94 364.33,-6.85"/>
<polygon fill="midnightblue" stroke="midnightblue" points="363.85,-10.32 374.27,-8.39 364.92,-3.4 363.85,-10.32"/>
</g>
<!-- Node6 -->
<g id="node6" class="node">
<title>Node6</title>
<g id="a_node6"><a xlink:href="classflow_1_1net__flow_1_1Congestion__control__classic__data.html#a092ddd8d1f700b426a5f9e0184af004f" target="_top" xlink:title="Logs, in a TRACE message, all internal state values.">
<polygon fill="white" stroke="black" points="182.5,-23.43 182.5,-49.43 328.5,-49.43 328.5,-23.43 182.5,-23.43"/>
<text text-anchor="start" x="190.5" y="-39.03" font-family="Helvetica,sans-Serif" font-size="8.00">flow::net_flow::Congestion</text>
<text text-anchor="middle" x="255.5" y="-30.03" font-family="Helvetica,sans-Serif" font-size="8.00">_control_classic_data::log_state</text>
</a>
</g>
</g>
<!-- Node1&#45;&gt;Node6 -->
<g id="edge7" class="edge">
<title>Node1&#45;&gt;Node6</title>
<path fill="none" stroke="midnightblue" d="M119.47,-73.42C143.25,-66.91 172.22,-58.97 197.22,-52.12"/>
<polygon fill="midnightblue" stroke="midnightblue" points="198.23,-55.47 206.95,-49.46 196.38,-48.72 198.23,-55.47"/>
</g>
<!-- Node2&#45;&gt;Node3 -->
<g id="edge2" class="edge">
<title>Node2&#45;&gt;Node3</title>
<path fill="none" stroke="midnightblue" d="M299.04,-160.77C310.11,-156.14 322.01,-151.12 333,-146.43 354.18,-137.37 377.73,-127.1 396.96,-118.65"/>
<polygon fill="midnightblue" stroke="midnightblue" points="398.56,-121.78 406.31,-114.55 395.74,-115.37 398.56,-121.78"/>
</g>
<!-- Node4&#45;&gt;Node3 -->
<g id="edge4" class="edge">
<title>Node4&#45;&gt;Node3</title>
<path fill="none" stroke="midnightblue" d="M333.14,-92.83C341.61,-93.54 350.24,-94.26 358.72,-94.97"/>
<polygon fill="midnightblue" stroke="midnightblue" points="358.7,-98.48 368.96,-95.82 359.28,-91.5 358.7,-98.48"/>
</g>
<!-- Node5&#45;&gt;Node5 -->
<g id="edge6" class="edge">
<title>Node5&#45;&gt;Node5</title>
<path fill="none" stroke="midnightblue" d="M404.64,-39.21C399.14,-48.74 409.93,-57.43 437,-57.43 453.5,-57.43 463.94,-54.2 468.35,-49.53"/>
<polygon fill="midnightblue" stroke="midnightblue" points="471.87,-49.5 469.36,-39.21 464.9,-48.82 471.87,-49.5"/>
</g>
<!-- Node6&#45;&gt;Node3 -->
<g id="edge9" class="edge">
<title>Node6&#45;&gt;Node3</title>
<path fill="none" stroke="midnightblue" d="M302.44,-49.47C312.57,-52.55 323.19,-55.96 333,-59.43 354.34,-66.97 377.73,-76.41 396.82,-84.42"/>
<polygon fill="midnightblue" stroke="midnightblue" points="395.52,-87.68 406.09,-88.35 398.25,-81.23 395.52,-87.68"/>
</g>
<!-- Node6&#45;&gt;Node5 -->
<g id="edge8" class="edge">
<title>Node6&#45;&gt;Node5</title>
<path fill="none" stroke="midnightblue" d="M328.73,-30.39C340.41,-29.41 352.5,-28.4 364.17,-27.43"/>
<polygon fill="midnightblue" stroke="midnightblue" points="364.62,-30.9 374.3,-26.58 364.04,-23.93 364.62,-30.9"/>
</g>
</g>
</svg>
