<?xml version="1.0" encoding="UTF-8" standalone="no"?>
<!DOCTYPE svg PUBLIC "-//W3C//DTD SVG 1.1//EN"
 "http://www.w3.org/Graphics/SVG/1.1/DTD/svg11.dtd">
<!-- Generated by graphviz version 2.43.0 (0)
 -->
<!-- Title: flow::net_flow::Server_socket::sync_accept Pages: 1 -->
<svg width="705pt" height="215pt"
 viewBox="0.00 0.00 705.00 215.00" xmlns="http://www.w3.org/2000/svg" xmlns:xlink="http://www.w3.org/1999/xlink">
<g id="graph0" class="graph" transform="scale(1 1) rotate(0) translate(4 211)">
<title>flow::net_flow::Server_socket::sync_accept</title>
<polygon fill="white" stroke="transparent" points="-4,4 -4,-211 701,-211 701,4 -4,4"/>
<!-- Node1 -->
<g id="node1" class="node">
<title>Node1</title>
<g id="a_node1"><a xlink:title="Equivalent to sync_accept(duration::max(), reactor_pattern, err_code); i.e., sync_accept() with no us...">
<polygon fill="#bfbfbf" stroke="black" points="0,-112.5 0,-138.5 105,-138.5 105,-112.5 0,-112.5"/>
<text text-anchor="start" x="8" y="-128.1" font-family="Helvetica,sans-Serif" font-size="8.00">flow::net_flow::Server</text>
<text text-anchor="middle" x="52.5" y="-119.1" font-family="Helvetica,sans-Serif" font-size="8.00">_socket::sync_accept</text>
</a>
</g>
</g>
<!-- Node2 -->
<g id="node2" class="node">
<title>Node2</title>
<g id="a_node2"><a xlink:href="classflow_1_1net__flow_1_1Server__socket.html#a7f374375e95e008cfe0326ecfb27cf3b" target="_top" xlink:title="Same as sync_accept() but uses a Fine_clock&#45;based Fine_duration non&#45;template type for implementation ...">
<polygon fill="white" stroke="black" points="141,-112.5 141,-138.5 266,-138.5 266,-112.5 141,-112.5"/>
<text text-anchor="start" x="149" y="-128.1" font-family="Helvetica,sans-Serif" font-size="8.00">flow::net_flow::Server</text>
<text text-anchor="middle" x="203.5" y="-119.1" font-family="Helvetica,sans-Serif" font-size="8.00">_socket::sync_accept_impl</text>
</a>
</g>
</g>
<!-- Node1&#45;&gt;Node2 -->
<g id="edge1" class="edge">
<title>Node1&#45;&gt;Node2</title>
<path fill="none" stroke="midnightblue" d="M105.19,-125.5C113.47,-125.5 122.16,-125.5 130.81,-125.5"/>
<polygon fill="midnightblue" stroke="midnightblue" points="130.9,-129 140.9,-125.5 130.9,-122 130.9,-129"/>
</g>
<!-- Node2&#45;&gt;Node2 -->
<g id="edge5" class="edge">
<title>Node2&#45;&gt;Node2</title>
<path fill="none" stroke="midnightblue" d="M178.12,-138.77C170.43,-147.96 178.89,-157 203.5,-157 218.5,-157 227.5,-153.64 230.5,-148.94"/>
<polygon fill="midnightblue" stroke="midnightblue" points="233.91,-148.1 228.88,-138.77 226.99,-149.2 233.91,-148.1"/>
</g>
<!-- Node3 -->
<g id="node3" class="node">
<title>Node3</title>
<g id="a_node3"><a xlink:href="classflow_1_1net__flow_1_1Node.html#ac3c67514c259404de3f27a8cae8b0567" target="_top" xlink:title="Implementation of non&#45;blocking serv&#45;&gt;accept() for server socket serv in all cases except when serv&#45;&gt;s...">
<polygon fill="white" stroke="black" points="306.5,-180.5 306.5,-206.5 407.5,-206.5 407.5,-180.5 306.5,-180.5"/>
<text text-anchor="start" x="314.5" y="-196.1" font-family="Helvetica,sans-Serif" font-size="8.00">flow::net_flow::Node</text>
<text text-anchor="middle" x="357" y="-187.1" font-family="Helvetica,sans-Serif" font-size="8.00">::accept</text>
</a>
</g>
</g>
<!-- Node2&#45;&gt;Node3 -->
<g id="edge2" class="edge">
<title>Node2&#45;&gt;Node3</title>
<path fill="none" stroke="midnightblue" d="M231.22,-138.58C250.71,-148.01 277.84,-160.89 302,-171.5 305.81,-173.17 309.78,-174.87 313.77,-176.55"/>
<polygon fill="midnightblue" stroke="midnightblue" points="312.46,-179.8 323.04,-180.4 315.15,-173.33 312.46,-179.8"/>
</g>
<!-- Node4 -->
<g id="node4" class="node">
<title>Node4</title>
<g id="a_node4"><a xlink:href="classflow_1_1net__flow_1_1Node.html#a109a118ca312e94686595ea08dac7ad0" target="_top" xlink:title="Helper method that checks whether the given Peer_socket or Server_socket is CLOSED; if so,...">
<polygon fill="white" stroke="black" points="306.5,-135.5 306.5,-161.5 407.5,-161.5 407.5,-135.5 306.5,-135.5"/>
<text text-anchor="start" x="314.5" y="-151.1" font-family="Helvetica,sans-Serif" font-size="8.00">flow::net_flow::Node</text>
<text text-anchor="middle" x="357" y="-142.1" font-family="Helvetica,sans-Serif" font-size="8.00">::ensure_sock_open</text>
</a>
</g>
</g>
<!-- Node2&#45;&gt;Node4 -->
<g id="edge3" class="edge">
<title>Node2&#45;&gt;Node4</title>
<path fill="none" stroke="midnightblue" d="M266.12,-134.85C276.09,-136.37 286.4,-137.93 296.33,-139.44"/>
<polygon fill="midnightblue" stroke="midnightblue" points="296.09,-142.94 306.5,-140.98 297.14,-136.02 296.09,-142.94"/>
</g>
<!-- Node5 -->
<g id="node5" class="node">
<title>Node5</title>
<g id="a_node5"><a xlink:href="classflow_1_1net__flow_1_1Server__socket.html#a1f48a72439665d8754549f11a4f4c7bb" target="_top" xlink:title="Constructs object; initializes most values to well&#45;defined (0, empty, etc.) but not necessarily meani...">
<polygon fill="white" stroke="black" points="302,-90.5 302,-116.5 412,-116.5 412,-90.5 302,-90.5"/>
<text text-anchor="start" x="310" y="-106.1" font-family="Helvetica,sans-Serif" font-size="8.00">flow::net_flow::Server</text>
<text text-anchor="middle" x="357" y="-97.1" font-family="Helvetica,sans-Serif" font-size="8.00">_socket::Server_socket</text>
</a>
</g>
</g>
<!-- Node2&#45;&gt;Node5 -->
<g id="edge4" class="edge">
<title>Node2&#45;&gt;Node5</title>
<path fill="none" stroke="midnightblue" d="M266.12,-116.55C274.51,-115.33 283.13,-114.08 291.57,-112.86"/>
<polygon fill="midnightblue" stroke="midnightblue" points="292.34,-116.28 301.73,-111.38 291.33,-109.35 292.34,-116.28"/>
</g>
<!-- Node6 -->
<g id="node6" class="node">
<title>Node6</title>
<g id="a_node6"><a xlink:href="classflow_1_1net__flow_1_1Node.html#a2a4dc3d8e294bbc8423e111f52e414ae" target="_top" xlink:title="Implementation of core blocking transfer methods, namely Peer_socket::sync_send(),...">
<polygon fill="white" stroke="black" points="306.5,-45.5 306.5,-71.5 407.5,-71.5 407.5,-45.5 306.5,-45.5"/>
<text text-anchor="start" x="314.5" y="-61.1" font-family="Helvetica,sans-Serif" font-size="8.00">flow::net_flow::Node</text>
<text text-anchor="middle" x="357" y="-52.1" font-family="Helvetica,sans-Serif" font-size="8.00">::sync_op</text>
</a>
</g>
</g>
<!-- Node2&#45;&gt;Node6 -->
<g id="edge6" class="edge">
<title>Node2&#45;&gt;Node6</title>
<path fill="none" stroke="midnightblue" d="M233.01,-112.44C252.41,-103.6 278.7,-91.72 302,-81.5 306.43,-79.56 311.08,-77.54 315.71,-75.55"/>
<polygon fill="midnightblue" stroke="midnightblue" points="317.3,-78.68 325.11,-71.52 314.54,-72.24 317.3,-78.68"/>
</g>
<!-- Node7 -->
<g id="node7" class="node">
<title>Node7</title>
<g id="a_node7"><a xlink:href="classflow_1_1net__flow_1_1Node.html#ad100464cf0126dbbad39bde1c90a774f" target="_top" xlink:title="Creates a new Event_set in Event_set::State::S_INACTIVE state with no sockets/events stored; returns ...">
<polygon fill="white" stroke="black" points="449.5,-90.5 449.5,-116.5 550.5,-116.5 550.5,-90.5 449.5,-90.5"/>
<text text-anchor="start" x="457.5" y="-106.1" font-family="Helvetica,sans-Serif" font-size="8.00">flow::net_flow::Node</text>
<text text-anchor="middle" x="500" y="-97.1" font-family="Helvetica,sans-Serif" font-size="8.00">::event_set_create</text>
</a>
</g>
</g>
<!-- Node6&#45;&gt;Node7 -->
<g id="edge7" class="edge">
<title>Node6&#45;&gt;Node7</title>
<path fill="none" stroke="midnightblue" d="M398.78,-71.52C414.14,-76.42 431.8,-82.05 447.97,-87.22"/>
<polygon fill="midnightblue" stroke="midnightblue" points="447.23,-90.65 457.82,-90.36 449.36,-83.98 447.23,-90.65"/>
</g>
<!-- Node13 -->
<g id="node11" class="node">
<title>Node13</title>
<g id="a_node11"><a xlink:href="classflow_1_1net__flow_1_1Node.html#aae148cec361b59237996a4b30c6624b5" target="_top" xlink:title="Returns true if and only if the Node is operating.">
<polygon fill="white" stroke="black" points="449.5,-45.5 449.5,-71.5 550.5,-71.5 550.5,-45.5 449.5,-45.5"/>
<text text-anchor="start" x="457.5" y="-61.1" font-family="Helvetica,sans-Serif" font-size="8.00">flow::net_flow::Node</text>
<text text-anchor="middle" x="500" y="-52.1" font-family="Helvetica,sans-Serif" font-size="8.00">::running</text>
</a>
</g>
</g>
<!-- Node6&#45;&gt;Node13 -->
<g id="edge12" class="edge">
<title>Node6&#45;&gt;Node13</title>
<path fill="none" stroke="midnightblue" d="M407.71,-58.5C417.82,-58.5 428.56,-58.5 438.98,-58.5"/>
<polygon fill="midnightblue" stroke="midnightblue" points="439.26,-62 449.26,-58.5 439.26,-55 439.26,-62"/>
</g>
<!-- Node14 -->
<g id="node12" class="node">
<title>Node14</title>
<g id="a_node12"><a xlink:href="namespaceflow_1_1util.html#a09a032f8e1e77a3afc0b7df115a773e1" target="_top" xlink:title="Provides a way to execute arbitrary (cleanup) code at the exit of the current block.">
<polygon fill="white" stroke="black" points="448,-0.5 448,-26.5 552,-26.5 552,-0.5 448,-0.5"/>
<text text-anchor="start" x="456" y="-16.1" font-family="Helvetica,sans-Serif" font-size="8.00">flow::util::setup_auto</text>
<text text-anchor="middle" x="500" y="-7.1" font-family="Helvetica,sans-Serif" font-size="8.00">_cleanup</text>
</a>
</g>
</g>
<!-- Node6&#45;&gt;Node14 -->
<g id="edge13" class="edge">
<title>Node6&#45;&gt;Node14</title>
<path fill="none" stroke="midnightblue" d="M398.78,-45.48C414.14,-40.58 431.8,-34.95 447.97,-29.78"/>
<polygon fill="midnightblue" stroke="midnightblue" points="449.36,-33.02 457.82,-26.64 447.23,-26.35 449.36,-33.02"/>
</g>
<!-- Node7&#45;&gt;Node7 -->
<g id="edge10" class="edge">
<title>Node7&#45;&gt;Node7</title>
<path fill="none" stroke="midnightblue" d="M475.98,-116.77C468.69,-125.96 476.7,-135 500,-135 514.2,-135 522.72,-131.64 525.56,-126.94"/>
<polygon fill="midnightblue" stroke="midnightblue" points="528.98,-126.14 524.02,-116.77 522.05,-127.18 528.98,-126.14"/>
</g>
<!-- Node8 -->
<g id="node8" class="node">
<title>Node8</title>
<g id="a_node8"><a xlink:href="namespaceflow_1_1async.html#a24567271e97a67d3cae6bd8bf8dc63c4" target="_top" xlink:title="An extension of boost.asio&#39;s post() and dispatch() free function templates, this free function templa...">
<polygon fill="white" stroke="red" points="588,-135.5 588,-161.5 697,-161.5 697,-135.5 588,-135.5"/>
<text text-anchor="start" x="596" y="-151.1" font-family="Helvetica,sans-Serif" font-size="8.00">flow::async::asio_exec</text>
<text text-anchor="middle" x="642.5" y="-142.1" font-family="Helvetica,sans-Serif" font-size="8.00">_ctx_post</text>
</a>
</g>
</g>
<!-- Node7&#45;&gt;Node8 -->
<g id="edge8" class="edge">
<title>Node7&#45;&gt;Node8</title>
<path fill="none" stroke="midnightblue" d="M541.64,-116.52C556.94,-121.42 574.54,-127.05 590.66,-132.22"/>
<polygon fill="midnightblue" stroke="midnightblue" points="589.88,-135.64 600.47,-135.36 592.01,-128.97 589.88,-135.64"/>
</g>
<!-- Node11 -->
<g id="node9" class="node">
<title>Node11</title>
<g id="a_node9"><a xlink:href="classflow_1_1net__flow_1_1Event__set.html#a7b8e6cf7046b6905015301a203cd88f5" target="_top" xlink:title="Constructs object; initializes all values to well&#45;defined but possibly meaningless values (0,...">
<polygon fill="white" stroke="black" points="591.5,-90.5 591.5,-116.5 693.5,-116.5 693.5,-90.5 591.5,-90.5"/>
<text text-anchor="start" x="599.5" y="-106.1" font-family="Helvetica,sans-Serif" font-size="8.00">flow::net_flow::Event</text>
<text text-anchor="middle" x="642.5" y="-97.1" font-family="Helvetica,sans-Serif" font-size="8.00">_set::Event_set</text>
</a>
</g>
</g>
<!-- Node7&#45;&gt;Node11 -->
<g id="edge9" class="edge">
<title>Node7&#45;&gt;Node11</title>
<path fill="none" stroke="midnightblue" d="M550.54,-103.5C560.49,-103.5 571.05,-103.5 581.32,-103.5"/>
<polygon fill="midnightblue" stroke="midnightblue" points="581.46,-107 591.46,-103.5 581.46,-100 581.46,-107"/>
</g>
<!-- Node12 -->
<g id="node10" class="node">
<title>Node12</title>
<g id="a_node10"><a xlink:href="classflow_1_1log_1_1Log__context.html#af4db395042b065b00398cd59845dcb4d" target="_top" xlink:title="Returns the stored Logger pointer, particularly as many FLOW_LOG_*() macros expect.">
<polygon fill="white" stroke="black" points="589,-45.5 589,-71.5 696,-71.5 696,-45.5 589,-45.5"/>
<text text-anchor="start" x="597" y="-61.1" font-family="Helvetica,sans-Serif" font-size="8.00">flow::log::Log_context</text>
<text text-anchor="middle" x="642.5" y="-52.1" font-family="Helvetica,sans-Serif" font-size="8.00">::get_logger</text>
</a>
</g>
</g>
<!-- Node7&#45;&gt;Node12 -->
<g id="edge11" class="edge">
<title>Node7&#45;&gt;Node12</title>
<path fill="none" stroke="midnightblue" d="M541.64,-90.48C556.94,-85.58 574.54,-79.95 590.66,-74.78"/>
<polygon fill="midnightblue" stroke="midnightblue" points="592.01,-78.03 600.47,-71.64 589.88,-71.36 592.01,-78.03"/>
</g>
</g>
</svg>
