<?xml version="1.0" encoding="UTF-8" standalone="no"?>
<!DOCTYPE svg PUBLIC "-//W3C//DTD SVG 1.1//EN"
 "http://www.w3.org/Graphics/SVG/1.1/DTD/svg11.dtd">
<!-- Generated by graphviz version 2.43.0 (0)
 -->
<!-- Title: flow::net_flow::Drop_timer::start_timer Pages: 1 -->
<svg width="284pt" height="44pt"
 viewBox="0.00 0.00 284.00 44.00" xmlns="http://www.w3.org/2000/svg" xmlns:xlink="http://www.w3.org/1999/xlink">
<g id="graph0" class="graph" transform="scale(1 1) rotate(0) translate(4 40)">
<title>flow::net_flow::Drop_timer::start_timer</title>
<polygon fill="white" stroke="transparent" points="-4,4 -4,-40 280,-40 280,4 -4,4"/>
<!-- Node1 -->
<g id="node1" class="node">
<title>Node1</title>
<g id="a_node1"><a xlink:title="Starts a new wait on the timer, so that is it asynchronously triggered according to the current DTO v...">
<polygon fill="#bfbfbf" stroke="black" points="178,-5 178,-31 276,-31 276,-5 178,-5"/>
<text text-anchor="start" x="186" y="-20.6" font-family="Helvetica,sans-Serif" font-size="8.00">flow::net_flow::Drop</text>
<text text-anchor="middle" x="227" y="-11.6" font-family="Helvetica,sans-Serif" font-size="8.00">_timer::start_timer</text>
</a>
</g>
</g>
<!-- Node2 -->
<g id="node2" class="node">
<title>Node2</title>
<g id="a_node2"><a xlink:href="classflow_1_1net__flow_1_1Drop__timer.html#a45d4cf2dfecc2cd5c35f452cd7c8d05d" target="_top" xlink:title="Finishes the group started by start start_contemporaneous_events().">
<polygon fill="white" stroke="black" points="0,-0.5 0,-35.5 142,-35.5 142,-0.5 0,-0.5"/>
<text text-anchor="start" x="8" y="-25.1" font-family="Helvetica,sans-Serif" font-size="8.00">flow::net_flow::Drop</text>
<text text-anchor="start" x="8" y="-16.1" font-family="Helvetica,sans-Serif" font-size="8.00">_timer::end_contemporaneous</text>
<text text-anchor="middle" x="71" y="-7.1" font-family="Helvetica,sans-Serif" font-size="8.00">_events</text>
</a>
</g>
</g>
<!-- Node1&#45;&gt;Node2 -->
<g id="edge1" class="edge">
<title>Node1&#45;&gt;Node2</title>
<path fill="none" stroke="midnightblue" d="M167.69,-18C159.34,-18 150.68,-18 142.13,-18"/>
<polygon fill="midnightblue" stroke="midnightblue" points="167.7,-21.5 177.7,-18 167.7,-14.5 167.7,-21.5"/>
</g>
</g>
</svg>
