<?xml version="1.0" encoding="UTF-8" standalone="no"?>
<!DOCTYPE svg PUBLIC "-//W3C//DTD SVG 1.1//EN"
 "http://www.w3.org/Graphics/SVG/1.1/DTD/svg11.dtd">
<!-- Generated by graphviz version 2.43.0 (0)
 -->
<!-- Title: flow::net_flow::Node::sock_pacing_new_packet_ready Pages: 1 -->
<svg width="988pt" height="258pt"
 viewBox="0.00 0.00 988.00 258.00" xmlns="http://www.w3.org/2000/svg" xmlns:xlink="http://www.w3.org/1999/xlink">
<g id="graph0" class="graph" transform="scale(1 1) rotate(0) translate(4 254)">
<title>flow::net_flow::Node::sock_pacing_new_packet_ready</title>
<polygon fill="white" stroke="transparent" points="-4,4 -4,-254 984,-254 984,4 -4,4"/>
<!-- Node1 -->
<g id="node1" class="node">
<title>Node1</title>
<g id="a_node1"><a xlink:title="async_sock_low_lvl_packet_send_paced() pacing helper: Handles a DATA or ACK packet that was just pass...">
<polygon fill="#bfbfbf" stroke="black" points="0,-92.5 0,-118.5 152,-118.5 152,-92.5 0,-92.5"/>
<text text-anchor="start" x="8" y="-108.1" font-family="Helvetica,sans-Serif" font-size="8.00">flow::net_flow::Node</text>
<text text-anchor="middle" x="76" y="-99.1" font-family="Helvetica,sans-Serif" font-size="8.00">::sock_pacing_new_packet_ready</text>
</a>
</g>
</g>
<!-- Node2 -->
<g id="node2" class="node">
<title>Node2</title>
<g id="a_node2"><a xlink:href="classflow_1_1net__flow_1_1Node.html#a0db2bb587e0407077b11368df075f0ff" target="_top" xlink:title="async_low_lvl_packet_send_impl() wrapper to call when packet is to be sent to the remote side of the ...">
<polygon fill="white" stroke="black" points="360,-88 360,-123 461,-123 461,-88 360,-88"/>
<text text-anchor="start" x="368" y="-112.6" font-family="Helvetica,sans-Serif" font-size="8.00">flow::net_flow::Node</text>
<text text-anchor="start" x="368" y="-103.6" font-family="Helvetica,sans-Serif" font-size="8.00">::async_sock_low_lvl</text>
<text text-anchor="middle" x="410.5" y="-94.6" font-family="Helvetica,sans-Serif" font-size="8.00">_packet_send</text>
</a>
</g>
</g>
<!-- Node1&#45;&gt;Node2 -->
<g id="edge1" class="edge">
<title>Node1&#45;&gt;Node2</title>
<path fill="none" stroke="midnightblue" d="M152.03,-105.5C211.9,-105.5 294.62,-105.5 349.98,-105.5"/>
<polygon fill="midnightblue" stroke="midnightblue" points="349.99,-109 359.99,-105.5 349.99,-102 349.99,-109"/>
</g>
<!-- Node9 -->
<g id="node9" class="node">
<title>Node9</title>
<g id="a_node9"><a xlink:href="classflow_1_1net__flow_1_1Node.html#afb88dafa8ec5c1b412de86dfdccd9c8f" target="_top" xlink:title="async_sock_low_lvl_packet_send_paced() pacing helper: Resets the socket&#39;s Send_pacing_data structure ...">
<polygon fill="white" stroke="black" points="515,-128.5 515,-154.5 653,-154.5 653,-128.5 515,-128.5"/>
<text text-anchor="start" x="523" y="-144.1" font-family="Helvetica,sans-Serif" font-size="8.00">flow::net_flow::Node</text>
<text text-anchor="middle" x="584" y="-135.1" font-family="Helvetica,sans-Serif" font-size="8.00">::sock_pacing_new_time_slice</text>
</a>
</g>
</g>
<!-- Node1&#45;&gt;Node9 -->
<g id="edge10" class="edge">
<title>Node1&#45;&gt;Node9</title>
<path fill="none" stroke="midnightblue" d="M152.18,-115.41C164.16,-116.86 176.41,-118.28 188,-119.5 256.31,-126.69 273.44,-128.33 342,-132.5 396.31,-135.8 457.59,-138.07 504.77,-139.51"/>
<polygon fill="midnightblue" stroke="midnightblue" points="504.82,-143.01 514.92,-139.81 505.03,-136.01 504.82,-143.01"/>
</g>
<!-- Node10 -->
<g id="node10" class="node">
<title>Node10</title>
<g id="a_node10"><a xlink:href="classflow_1_1net__flow_1_1Node.html#aaf0acf9de5f151727a43acce180a5e49" target="_top" xlink:title="async_sock_low_lvl_packet_send_paced() pacing helper: Given that we are currently in the pacing time ...">
<polygon fill="white" stroke="black" points="188,-46.5 188,-72.5 306,-72.5 306,-46.5 188,-46.5"/>
<text text-anchor="start" x="196" y="-62.1" font-family="Helvetica,sans-Serif" font-size="8.00">flow::net_flow::Node</text>
<text text-anchor="middle" x="247" y="-53.1" font-family="Helvetica,sans-Serif" font-size="8.00">::sock_pacing_process_q</text>
</a>
</g>
</g>
<!-- Node1&#45;&gt;Node10 -->
<g id="edge12" class="edge">
<title>Node1&#45;&gt;Node10</title>
<path fill="none" stroke="midnightblue" d="M124.98,-92.44C144.68,-87.08 167.67,-80.82 188.29,-75.21"/>
<polygon fill="midnightblue" stroke="midnightblue" points="189.47,-78.52 198.2,-72.51 187.63,-71.76 189.47,-78.52"/>
</g>
<!-- Node3 -->
<g id="node3" class="node">
<title>Node3</title>
<g id="a_node3"><a xlink:href="classflow_1_1net__flow_1_1Node.html#a9f302fe63e36f72931e1a759b0aaaed4" target="_top" xlink:title="Takes given low&#45;level packet structure, serializes it, and initiates asynchronous send of these data ...">
<polygon fill="white" stroke="black" points="529.5,-174 529.5,-209 638.5,-209 638.5,-174 529.5,-174"/>
<text text-anchor="start" x="537.5" y="-198.6" font-family="Helvetica,sans-Serif" font-size="8.00">flow::net_flow::Node</text>
<text text-anchor="start" x="537.5" y="-189.6" font-family="Helvetica,sans-Serif" font-size="8.00">::async_low_lvl_packet</text>
<text text-anchor="middle" x="584" y="-180.6" font-family="Helvetica,sans-Serif" font-size="8.00">_send_impl</text>
</a>
</g>
</g>
<!-- Node2&#45;&gt;Node3 -->
<g id="edge2" class="edge">
<title>Node2&#45;&gt;Node3</title>
<path fill="none" stroke="midnightblue" d="M439.92,-123.14C460.39,-135.49 488.9,-151.96 515,-164.5 518.8,-166.33 522.76,-168.13 526.77,-169.89"/>
<polygon fill="midnightblue" stroke="midnightblue" points="525.6,-173.2 536.17,-173.91 528.35,-166.76 525.6,-173.2"/>
</g>
<!-- Node4 -->
<g id="node4" class="node">
<title>Node4</title>
<g id="a_node4"><a xlink:href="classflow_1_1net__flow_1_1Node.html#a0055a25892990585561e69ceb02214d5" target="_top" xlink:title="Completion handler for async_low_lvl_packet_send_impl(); called when the packet is either successfull...">
<polygon fill="white" stroke="black" points="711.5,-223.5 711.5,-249.5 814.5,-249.5 814.5,-223.5 711.5,-223.5"/>
<text text-anchor="start" x="719.5" y="-239.1" font-family="Helvetica,sans-Serif" font-size="8.00">flow::net_flow::Node</text>
<text text-anchor="middle" x="763" y="-230.1" font-family="Helvetica,sans-Serif" font-size="8.00">::low_lvl_packet_sent</text>
</a>
</g>
</g>
<!-- Node3&#45;&gt;Node4 -->
<g id="edge3" class="edge">
<title>Node3&#45;&gt;Node4</title>
<path fill="none" stroke="midnightblue" d="M638.59,-205.12C658.44,-210.17 681.07,-215.93 701.5,-221.12"/>
<polygon fill="midnightblue" stroke="midnightblue" points="700.77,-224.54 711.32,-223.62 702.49,-217.76 700.77,-224.54"/>
</g>
<!-- Node7 -->
<g id="node7" class="node">
<title>Node7</title>
<g id="a_node7"><a xlink:href="classflow_1_1net__flow_1_1Node.html#a2983d0d8a4d4eb5c3402f63f68ef44d8" target="_top" xlink:title="Performs important book&#45;keeping based on the event &quot;DATA packet was sent to destination....">
<polygon fill="white" stroke="black" points="703.5,-178.5 703.5,-204.5 822.5,-204.5 822.5,-178.5 703.5,-178.5"/>
<text text-anchor="start" x="711.5" y="-194.1" font-family="Helvetica,sans-Serif" font-size="8.00">flow::net_flow::Node</text>
<text text-anchor="middle" x="763" y="-185.1" font-family="Helvetica,sans-Serif" font-size="8.00">::mark_data_packet_sent</text>
</a>
</g>
</g>
<!-- Node3&#45;&gt;Node7 -->
<g id="edge6" class="edge">
<title>Node3&#45;&gt;Node7</title>
<path fill="none" stroke="midnightblue" d="M638.59,-191.5C655.76,-191.5 675.03,-191.5 693.14,-191.5"/>
<polygon fill="midnightblue" stroke="midnightblue" points="693.35,-195 703.35,-191.5 693.35,-188 693.35,-195"/>
</g>
<!-- Node8 -->
<g id="node8" class="node">
<title>Node8</title>
<g id="a_node8"><a xlink:href="classflow_1_1net__flow_1_1Node.html#a43c42121d48a55a43a48e3a84bd10595" target="_top" xlink:title="Obtain a copy of the value of a given option in a thread&#45;safe manner.">
<polygon fill="white" stroke="black" points="703,-142 703,-159 823,-159 823,-142 703,-142"/>
<text text-anchor="middle" x="763" y="-148.6" font-family="Helvetica,sans-Serif" font-size="8.00">flow::net_flow::Node::opt</text>
</a>
</g>
</g>
<!-- Node3&#45;&gt;Node8 -->
<g id="edge9" class="edge">
<title>Node3&#45;&gt;Node8</title>
<path fill="none" stroke="midnightblue" d="M638.59,-179.09C663.07,-173.42 691.8,-166.76 715.38,-161.3"/>
<polygon fill="midnightblue" stroke="midnightblue" points="716.18,-164.71 725.14,-159.04 714.6,-157.89 716.18,-164.71"/>
</g>
<!-- Node5 -->
<g id="node5" class="node">
<title>Node5</title>
<g id="a_node5"><a xlink:href="classflow_1_1log_1_1Log__context.html#a8a5fef42dc2cedf3c0d1a6e83beb2948" target="_top" xlink:title="Returns reference to the stored Component object, particularly as many FLOW_LOG_*() macros expect.">
<polygon fill="white" stroke="black" points="873,-223.5 873,-249.5 980,-249.5 980,-223.5 873,-223.5"/>
<text text-anchor="start" x="881" y="-239.1" font-family="Helvetica,sans-Serif" font-size="8.00">flow::log::Log_context</text>
<text text-anchor="middle" x="926.5" y="-230.1" font-family="Helvetica,sans-Serif" font-size="8.00">::get_log_component</text>
</a>
</g>
</g>
<!-- Node4&#45;&gt;Node5 -->
<g id="edge4" class="edge">
<title>Node4&#45;&gt;Node5</title>
<path fill="none" stroke="midnightblue" d="M814.66,-236.5C829.83,-236.5 846.66,-236.5 862.53,-236.5"/>
<polygon fill="midnightblue" stroke="midnightblue" points="862.79,-240 872.79,-236.5 862.79,-233 862.79,-240"/>
</g>
<!-- Node6 -->
<g id="node6" class="node">
<title>Node6</title>
<g id="a_node6"><a xlink:href="classflow_1_1log_1_1Log__context.html#af4db395042b065b00398cd59845dcb4d" target="_top" xlink:title="Returns the stored Logger pointer, particularly as many FLOW_LOG_*() macros expect.">
<polygon fill="white" stroke="black" points="873,-178.5 873,-204.5 980,-204.5 980,-178.5 873,-178.5"/>
<text text-anchor="start" x="881" y="-194.1" font-family="Helvetica,sans-Serif" font-size="8.00">flow::log::Log_context</text>
<text text-anchor="middle" x="926.5" y="-185.1" font-family="Helvetica,sans-Serif" font-size="8.00">::get_logger</text>
</a>
</g>
</g>
<!-- Node4&#45;&gt;Node6 -->
<g id="edge5" class="edge">
<title>Node4&#45;&gt;Node6</title>
<path fill="none" stroke="midnightblue" d="M810.71,-223.48C828.88,-218.42 849.86,-212.58 868.87,-207.28"/>
<polygon fill="midnightblue" stroke="midnightblue" points="869.92,-210.62 878.61,-204.56 868.04,-203.88 869.92,-210.62"/>
</g>
<!-- Node7&#45;&gt;Node5 -->
<g id="edge7" class="edge">
<title>Node7&#45;&gt;Node5</title>
<path fill="none" stroke="midnightblue" d="M810.71,-204.52C828.88,-209.58 849.86,-215.42 868.87,-220.72"/>
<polygon fill="midnightblue" stroke="midnightblue" points="868.04,-224.12 878.61,-223.44 869.92,-217.38 868.04,-224.12"/>
</g>
<!-- Node7&#45;&gt;Node6 -->
<g id="edge8" class="edge">
<title>Node7&#45;&gt;Node6</title>
<path fill="none" stroke="midnightblue" d="M822.76,-191.5C835.71,-191.5 849.48,-191.5 862.59,-191.5"/>
<polygon fill="midnightblue" stroke="midnightblue" points="862.93,-195 872.93,-191.5 862.93,-188 862.93,-195"/>
</g>
<!-- Node9&#45;&gt;Node8 -->
<g id="edge11" class="edge">
<title>Node9&#45;&gt;Node8</title>
<path fill="none" stroke="midnightblue" d="M653.18,-144.97C666.09,-145.62 679.61,-146.31 692.56,-146.97"/>
<polygon fill="midnightblue" stroke="midnightblue" points="692.63,-150.48 702.8,-147.49 692.99,-143.49 692.63,-150.48"/>
</g>
<!-- Node10&#45;&gt;Node2 -->
<g id="edge13" class="edge">
<title>Node10&#45;&gt;Node2</title>
<path fill="none" stroke="midnightblue" d="M293.85,-72.56C311.32,-77.53 331.49,-83.28 350.04,-88.56"/>
<polygon fill="midnightblue" stroke="midnightblue" points="349.28,-91.99 359.86,-91.36 351.2,-85.26 349.28,-91.99"/>
</g>
<!-- Node11 -->
<g id="node11" class="node">
<title>Node11</title>
<g id="a_node11"><a xlink:href="classflow_1_1net__flow_1_1Node.html#a3fd57a0d025a78cbeccfd8a15a983575" target="_top" xlink:title="async_sock_low_lvl_packet_send_paced() pacing helper: If sock_pacing_process_q() ran out of the last ...">
<polygon fill="white" stroke="black" points="342,-42.5 342,-68.5 479,-68.5 479,-42.5 342,-42.5"/>
<text text-anchor="start" x="350" y="-58.1" font-family="Helvetica,sans-Serif" font-size="8.00">flow::net_flow::Node</text>
<text text-anchor="middle" x="410.5" y="-49.1" font-family="Helvetica,sans-Serif" font-size="8.00">::sock_pacing_time_slice_end</text>
</a>
</g>
</g>
<!-- Node10&#45;&gt;Node11 -->
<g id="edge14" class="edge">
<title>Node10&#45;&gt;Node11</title>
<path fill="none" stroke="midnightblue" d="M306.31,-51.54C314.62,-51.16 323.27,-50.87 331.88,-50.68"/>
<polygon fill="midnightblue" stroke="midnightblue" points="332.01,-54.18 341.95,-50.5 331.89,-47.18 332.01,-54.18"/>
</g>
<!-- Node11&#45;&gt;Node9 -->
<g id="edge21" class="edge">
<title>Node11&#45;&gt;Node9</title>
<path fill="none" stroke="midnightblue" d="M454.54,-68.61C462.79,-71.55 471.26,-74.89 479,-78.5 506.16,-91.17 535.19,-109.17 555.65,-122.68"/>
<polygon fill="midnightblue" stroke="midnightblue" points="553.88,-125.71 564.14,-128.36 557.77,-119.89 553.88,-125.71"/>
</g>
<!-- Node11&#45;&gt;Node10 -->
<g id="edge22" class="edge">
<title>Node11&#45;&gt;Node10</title>
<path fill="none" stroke="midnightblue" d="M341.95,-63.84C333.53,-64.15 324.91,-64.37 316.48,-64.48"/>
<polygon fill="midnightblue" stroke="midnightblue" points="316.28,-60.99 306.31,-64.57 316.33,-67.99 316.28,-60.99"/>
</g>
<!-- Node12 -->
<g id="node12" class="node">
<title>Node12</title>
<g id="a_node12"><a xlink:href="classflow_1_1net__flow_1_1Node.html#afe70a0c32695e417e7a09e0ba773f151" target="_top" xlink:title="Asynchronously send RST to the other side of the given socket and close_connection_immediately().">
<polygon fill="white" stroke="black" points="520,-38 520,-73 648,-73 648,-38 520,-38"/>
<text text-anchor="start" x="528" y="-62.6" font-family="Helvetica,sans-Serif" font-size="8.00">flow::net_flow::Node</text>
<text text-anchor="start" x="528" y="-53.6" font-family="Helvetica,sans-Serif" font-size="8.00">::rst_and_close_connection</text>
<text text-anchor="middle" x="584" y="-44.6" font-family="Helvetica,sans-Serif" font-size="8.00">_immediately</text>
</a>
</g>
</g>
<!-- Node11&#45;&gt;Node12 -->
<g id="edge15" class="edge">
<title>Node11&#45;&gt;Node12</title>
<path fill="none" stroke="midnightblue" d="M479.28,-55.5C489.32,-55.5 499.71,-55.5 509.85,-55.5"/>
<polygon fill="midnightblue" stroke="midnightblue" points="509.9,-59 519.9,-55.5 509.9,-52 509.9,-59"/>
</g>
<!-- Node48 -->
<g id="node15" class="node">
<title>Node48</title>
<g id="a_node15"><a xlink:href="classflow_1_1net__flow_1_1Node.html#a99836ffb51eaefa4d2cc21770461cd97" target="_top" xlink:title="Constructs the socket pair (connection ID) for the given socket.">
<polygon fill="white" stroke="black" points="876,-0.5 876,-26.5 977,-26.5 977,-0.5 876,-0.5"/>
<text text-anchor="start" x="884" y="-16.1" font-family="Helvetica,sans-Serif" font-size="8.00">flow::net_flow::Node</text>
<text text-anchor="middle" x="926.5" y="-7.1" font-family="Helvetica,sans-Serif" font-size="8.00">::socket_id</text>
</a>
</g>
</g>
<!-- Node11&#45;&gt;Node48 -->
<g id="edge23" class="edge">
<title>Node11&#45;&gt;Node48</title>
<path fill="none" stroke="midnightblue" d="M454.44,-42.5C472.92,-37.37 494.86,-31.91 515,-28.5 638.15,-7.65 784.92,-8.31 865.36,-10.8"/>
<polygon fill="midnightblue" stroke="midnightblue" points="865.68,-14.32 875.79,-11.15 865.91,-7.32 865.68,-14.32"/>
</g>
<!-- Node13 -->
<g id="node13" class="node">
<title>Node13</title>
<g id="a_node13"><a xlink:href="classflow_1_1net__flow_1_1Node.html#ad03aa88df3d1d3981454ee3356e868c1" target="_top" xlink:title="Sends an RST to the other side of the given socket asynchronously when possible.">
<polygon fill="white" stroke="red" points="712.5,-88 712.5,-123 813.5,-123 813.5,-88 712.5,-88"/>
<text text-anchor="start" x="720.5" y="-112.6" font-family="Helvetica,sans-Serif" font-size="8.00">flow::net_flow::Node</text>
<text text-anchor="start" x="720.5" y="-103.6" font-family="Helvetica,sans-Serif" font-size="8.00">::async_sock_low_lvl</text>
<text text-anchor="middle" x="763" y="-94.6" font-family="Helvetica,sans-Serif" font-size="8.00">_rst_send</text>
</a>
</g>
</g>
<!-- Node12&#45;&gt;Node13 -->
<g id="edge16" class="edge">
<title>Node12&#45;&gt;Node13</title>
<path fill="none" stroke="midnightblue" d="M647.4,-73.13C665.37,-78.2 684.92,-83.73 702.7,-88.75"/>
<polygon fill="midnightblue" stroke="midnightblue" points="701.8,-92.13 712.37,-91.48 703.7,-85.39 701.8,-92.13"/>
</g>
<!-- Node15 -->
<g id="node14" class="node">
<title>Node15</title>
<g id="a_node14"><a xlink:href="classflow_1_1net__flow_1_1Node.html#ade49e7bc7202a0adf33fec2d93d1b177" target="_top" xlink:title="A thread W method that handles the transition of the given socket from OPEN (any sub&#45;state) to CLOSED...">
<polygon fill="white" stroke="red" points="689,-42.5 689,-68.5 837,-68.5 837,-42.5 689,-42.5"/>
<text text-anchor="start" x="697" y="-58.1" font-family="Helvetica,sans-Serif" font-size="8.00">flow::net_flow::Node</text>
<text text-anchor="middle" x="763" y="-49.1" font-family="Helvetica,sans-Serif" font-size="8.00">::close_connection_immediately</text>
</a>
</g>
</g>
<!-- Node12&#45;&gt;Node15 -->
<g id="edge18" class="edge">
<title>Node12&#45;&gt;Node15</title>
<path fill="none" stroke="midnightblue" d="M648.4,-55.5C658.22,-55.5 668.49,-55.5 678.67,-55.5"/>
<polygon fill="midnightblue" stroke="midnightblue" points="678.8,-59 688.8,-55.5 678.8,-52 678.8,-59"/>
</g>
<!-- Node12&#45;&gt;Node48 -->
<g id="edge20" class="edge">
<title>Node12&#45;&gt;Node48</title>
<path fill="none" stroke="midnightblue" d="M648.26,-40.06C661.65,-37.2 675.74,-34.49 689,-32.5 748.77,-23.53 817.72,-18.6 865.69,-16.03"/>
<polygon fill="midnightblue" stroke="midnightblue" points="866.1,-19.51 875.9,-15.5 865.73,-12.52 866.1,-19.51"/>
</g>
<!-- Node13&#45;&gt;Node6 -->
<g id="edge17" class="edge">
<title>Node13&#45;&gt;Node6</title>
<path fill="none" stroke="midnightblue" d="M813.76,-122.12C821.67,-125.27 829.66,-128.76 837,-132.5 859.42,-143.92 883.04,-159.9 900.24,-172.34"/>
<polygon fill="midnightblue" stroke="midnightblue" points="898.47,-175.39 908.6,-178.49 902.62,-169.75 898.47,-175.39"/>
</g>
<!-- Node15&#45;&gt;Node48 -->
<g id="edge19" class="edge">
<title>Node15&#45;&gt;Node48</title>
<path fill="none" stroke="midnightblue" d="M814.21,-42.44C830.62,-38.17 849.01,-33.39 866.03,-28.97"/>
<polygon fill="midnightblue" stroke="midnightblue" points="867.07,-32.31 875.87,-26.41 865.31,-25.54 867.07,-32.31"/>
</g>
</g>
</svg>
