<?xml version="1.0" encoding="UTF-8" standalone="no"?>
<!DOCTYPE svg PUBLIC "-//W3C//DTD SVG 1.1//EN"
 "http://www.w3.org/Graphics/SVG/1.1/DTD/svg11.dtd">
<!-- Generated by graphviz version 2.43.0 (0)
 -->
<!-- Title: flow::net_flow::Net_env_simulator Pages: 1 -->
<svg width="1147pt" height="372pt"
 viewBox="0.00 0.00 1147.00 371.50" xmlns="http://www.w3.org/2000/svg" xmlns:xlink="http://www.w3.org/1999/xlink">
<g id="graph0" class="graph" transform="scale(1 1) rotate(0) translate(4 367.5)">
<title>flow::net_flow::Net_env_simulator</title>
<polygon fill="white" stroke="transparent" points="-4,4 -4,-367.5 1143,-367.5 1143,4 -4,4"/>
<!-- Node1 -->
<g id="node1" class="node">
<title>Node1</title>
<g id="a_node1"><a xlink:title="Objects of this class can be fed to Node to make it internally simulate network conditions like loss,...">
<polygon fill="#bfbfbf" stroke="black" points="1046,-143.5 1046,-169.5 1139,-169.5 1139,-143.5 1046,-143.5"/>
<text text-anchor="start" x="1054" y="-159.1" font-family="Helvetica,sans-Serif" font-size="8.00">flow::net_flow::Net</text>
<text text-anchor="middle" x="1092.5" y="-150.1" font-family="Helvetica,sans-Serif" font-size="8.00">_env_simulator</text>
</a>
</g>
</g>
<!-- Node2 -->
<g id="node2" class="node">
<title>Node2</title>
<g id="a_node2"><a xlink:href="classflow_1_1log_1_1Log__context.html" target="_top" xlink:title="Convenience class that simply stores a Logger and/or Component passed into a constructor; and returns...">
<polygon fill="white" stroke="black" points="748.5,-237 748.5,-254 855.5,-254 855.5,-237 748.5,-237"/>
<text text-anchor="middle" x="802" y="-243.6" font-family="Helvetica,sans-Serif" font-size="8.00">flow::log::Log_context</text>
</a>
</g>
</g>
<!-- Node2&#45;&gt;Node1 -->
<g id="edge1" class="edge">
<title>Node2&#45;&gt;Node1</title>
<path fill="none" stroke="midnightblue" d="M865.56,-247.18C912.37,-246.12 976.86,-239.61 1028,-215.5 1050.46,-204.91 1070.35,-183.46 1081.65,-169.55"/>
<polygon fill="midnightblue" stroke="midnightblue" points="865.5,-243.68 855.55,-247.33 865.6,-250.68 865.5,-243.68"/>
</g>
<!-- Node3 -->
<g id="node3" class="node">
<title>Node3</title>
<g id="a_node3"><a xlink:href="classflow_1_1log_1_1Logger.html" target="_top" xlink:title="Interface that the user should implement, passing the implementing Logger into logging classes (Flow&#39;...">
<polygon fill="white" stroke="black" points="542.5,-224 542.5,-241 628.5,-241 628.5,-224 542.5,-224"/>
<text text-anchor="middle" x="585.5" y="-230.6" font-family="Helvetica,sans-Serif" font-size="8.00">flow::log::Logger</text>
</a>
</g>
</g>
<!-- Node3&#45;&gt;Node2 -->
<g id="edge2" class="edge">
<title>Node3&#45;&gt;Node2</title>
<path fill="none" stroke="#9a32cd" stroke-dasharray="5,2" d="M638.62,-235.66C671.91,-237.68 714.94,-240.28 748.33,-242.31"/>
<polygon fill="#9a32cd" stroke="#9a32cd" points="638.82,-232.16 628.62,-235.05 638.39,-239.15 638.82,-232.16"/>
<text text-anchor="middle" x="686.5" y="-242.1" font-family="Helvetica,sans-Serif" font-size="8.00"> m_logger</text>
</g>
<!-- Node4 -->
<g id="node4" class="node">
<title>Node4</title>
<g id="a_node4"><a xlink:href="classflow_1_1util_1_1Null__interface.html" target="_top" xlink:title="An empty interface, consisting of nothing but a default virtual destructor, intended as a boiler&#45;plat...">
<polygon fill="white" stroke="black" points="268,-192 268,-209 382,-209 382,-192 268,-192"/>
<text text-anchor="middle" x="325" y="-198.6" font-family="Helvetica,sans-Serif" font-size="8.00">flow::util::Null_interface</text>
</a>
</g>
</g>
<!-- Node4&#45;&gt;Node3 -->
<g id="edge3" class="edge">
<title>Node4&#45;&gt;Node3</title>
<path fill="none" stroke="midnightblue" d="M392.23,-208.7C439.42,-214.54 501.46,-222.22 542.13,-227.26"/>
<polygon fill="midnightblue" stroke="midnightblue" points="392.44,-205.2 382.09,-207.44 391.58,-212.15 392.44,-205.2"/>
</g>
<!-- Node5 -->
<g id="node5" class="node">
<title>Node5</title>
<g id="a_node5"><a xlink:href="classflow_1_1util_1_1Unique__id__holder.html" target="_top" xlink:title="Each object of this class stores (at construction) and returns (on demand) a numeric ID unique from a...">
<polygon fill="white" stroke="black" points="281.5,-228.5 281.5,-254.5 368.5,-254.5 368.5,-228.5 281.5,-228.5"/>
<text text-anchor="start" x="289.5" y="-244.1" font-family="Helvetica,sans-Serif" font-size="8.00">flow::util::Unique</text>
<text text-anchor="middle" x="325" y="-235.1" font-family="Helvetica,sans-Serif" font-size="8.00">_id_holder</text>
</a>
</g>
</g>
<!-- Node5&#45;&gt;Node3 -->
<g id="edge4" class="edge">
<title>Node5&#45;&gt;Node3</title>
<path fill="none" stroke="midnightblue" d="M378.93,-239.66C427.19,-237.98 497.57,-235.53 542.18,-233.97"/>
<polygon fill="midnightblue" stroke="midnightblue" points="378.56,-236.17 368.69,-240.01 378.8,-243.16 378.56,-236.17"/>
</g>
<!-- Node6 -->
<g id="node6" class="node">
<title>Node6</title>
<g id="a_node6"><a xlink:title=" ">
<polygon fill="white" stroke="#bfbfbf" points="0,-228 0,-245 50,-245 50,-228 0,-228"/>
<text text-anchor="middle" x="25" y="-234.6" font-family="Helvetica,sans-Serif" font-size="8.00">uint64_t</text>
</a>
</g>
</g>
<!-- Node6&#45;&gt;Node5 -->
<g id="edge5" class="edge">
<title>Node6&#45;&gt;Node5</title>
<path fill="none" stroke="#9a32cd" stroke-dasharray="5,2" d="M60.61,-240.04C63.11,-240.22 65.59,-240.38 68,-240.5 143.01,-244.32 230.55,-243.53 281.39,-242.56"/>
<polygon fill="#9a32cd" stroke="#9a32cd" points="60.66,-236.53 50.4,-239.19 60.08,-243.51 60.66,-236.53"/>
<text text-anchor="middle" x="147.5" y="-245.1" font-family="Helvetica,sans-Serif" font-size="8.00"> m_id</text>
</g>
<!-- Node7 -->
<g id="node7" class="node">
<title>Node7</title>
<g id="a_node7"><a xlink:title=" ">
<polygon fill="white" stroke="black" points="100,-205 100,-222 195,-222 195,-205 100,-205"/>
<text text-anchor="middle" x="147.5" y="-211.6" font-family="Helvetica,sans-Serif" font-size="8.00">std::atomic&lt; id_t &gt;</text>
</a>
</g>
</g>
<!-- Node6&#45;&gt;Node7 -->
<g id="edge7" class="edge">
<title>Node6&#45;&gt;Node7</title>
<path fill="none" stroke="#9a32cd" stroke-dasharray="5,2" d="M60.04,-230C73.06,-227.52 88.11,-224.64 101.97,-222"/>
<polygon fill="#9a32cd" stroke="#9a32cd" points="59.26,-226.59 50.1,-231.9 60.57,-233.46 59.26,-226.59"/>
<text text-anchor="middle" x="75" y="-230.1" font-family="Helvetica,sans-Serif" font-size="8.00"> ptr</text>
</g>
<!-- Node7&#45;&gt;Node5 -->
<g id="edge6" class="edge">
<title>Node7&#45;&gt;Node5</title>
<path fill="none" stroke="#9a32cd" stroke-dasharray="5,2" d="M205.08,-222.53C229.87,-226.48 258.48,-231.05 281.43,-234.71"/>
<polygon fill="#9a32cd" stroke="#9a32cd" points="205.5,-219.05 195.07,-220.93 204.39,-225.96 205.5,-219.05"/>
<text text-anchor="middle" x="231.5" y="-231.1" font-family="Helvetica,sans-Serif" font-size="8.00"> s_last_id</text>
</g>
<!-- Node8 -->
<g id="node8" class="node">
<title>Node8</title>
<g id="a_node8"><a xlink:title=" ">
<polygon fill="white" stroke="#bfbfbf" points="275.5,-274 275.5,-291 374.5,-291 374.5,-274 275.5,-274"/>
<text text-anchor="middle" x="325" y="-280.6" font-family="Helvetica,sans-Serif" font-size="8.00">boost::noncopyable</text>
</a>
</g>
</g>
<!-- Node8&#45;&gt;Node1 -->
<g id="edge13" class="edge">
<title>Node8&#45;&gt;Node1</title>
<path fill="none" stroke="#8b1a1a" d="M384.95,-286.1C533.68,-294.12 920.04,-308.1 1028,-244.5 1057.71,-227 1077.39,-189.55 1086.2,-169.62"/>
<polygon fill="#8b1a1a" stroke="#8b1a1a" points="384.83,-282.59 374.65,-285.53 384.45,-289.58 384.83,-282.59"/>
</g>
<!-- Node8&#45;&gt;Node3 -->
<g id="edge8" class="edge">
<title>Node8&#45;&gt;Node3</title>
<path fill="none" stroke="#8b1a1a" d="M380.1,-272.04C428.34,-262.7 498,-249.23 542.25,-240.67"/>
<polygon fill="#8b1a1a" stroke="#8b1a1a" points="379.3,-268.63 370.14,-273.96 380.63,-275.5 379.3,-268.63"/>
</g>
<!-- Node9 -->
<g id="node9" class="node">
<title>Node9</title>
<g id="a_node9"><a xlink:title=" ">
<polygon fill="white" stroke="#bfbfbf" points="278,-146.5 278,-172.5 372,-172.5 372,-146.5 278,-146.5"/>
<text text-anchor="start" x="286" y="-162.1" font-family="Helvetica,sans-Serif" font-size="8.00">thread_specific_ptr</text>
<text text-anchor="middle" x="325" y="-153.1" font-family="Helvetica,sans-Serif" font-size="8.00">&lt; std::string &gt;</text>
</a>
</g>
</g>
<!-- Node9&#45;&gt;Node3 -->
<g id="edge9" class="edge">
<title>Node9&#45;&gt;Node3</title>
<path fill="none" stroke="#9a32cd" stroke-dasharray="5,2" d="M381.93,-166.19C420.14,-171.78 471.53,-181.34 515,-196.5 535.4,-203.62 557.27,-215.78 570.91,-223.98"/>
<polygon fill="#9a32cd" stroke="#9a32cd" points="382.41,-162.72 372.02,-164.78 381.43,-169.65 382.41,-162.72"/>
<text text-anchor="middle" x="457.5" y="-199.1" font-family="Helvetica,sans-Serif" font-size="8.00"> s_this_thread_nickname_ptr</text>
</g>
<!-- Node10 -->
<g id="node10" class="node">
<title>Node10</title>
<g id="a_node10"><a xlink:href="classflow_1_1log_1_1Component.html" target="_top" xlink:title="A light&#45;weight class, each object storing a component payload encoding an enum value from enum type o...">
<polygon fill="white" stroke="black" points="533,-311 533,-328 638,-328 638,-311 533,-311"/>
<text text-anchor="middle" x="585.5" y="-317.6" font-family="Helvetica,sans-Serif" font-size="8.00">flow::log::Component</text>
</a>
</g>
</g>
<!-- Node10&#45;&gt;Node2 -->
<g id="edge10" class="edge">
<title>Node10&#45;&gt;Node2</title>
<path fill="none" stroke="#9a32cd" stroke-dasharray="5,2" d="M621.09,-307.57C664.5,-292.59 737.89,-267.27 776.13,-254.08"/>
<polygon fill="#9a32cd" stroke="#9a32cd" points="619.84,-304.3 611.53,-310.87 622.12,-310.91 619.84,-304.3"/>
<text text-anchor="middle" x="686.5" y="-295.1" font-family="Helvetica,sans-Serif" font-size="8.00"> m_component</text>
</g>
<!-- Node11 -->
<g id="node11" class="node">
<title>Node11</title>
<g id="a_node11"><a xlink:title=" ">
<polygon fill="white" stroke="#bfbfbf" points="282.5,-310 282.5,-327 367.5,-327 367.5,-310 282.5,-310"/>
<text text-anchor="middle" x="325" y="-316.6" font-family="Helvetica,sans-Serif" font-size="8.00">type_info const *</text>
</a>
</g>
</g>
<!-- Node11&#45;&gt;Node10 -->
<g id="edge11" class="edge">
<title>Node11&#45;&gt;Node10</title>
<path fill="none" stroke="#9a32cd" stroke-dasharray="5,2" d="M377.68,-318.7C422.74,-318.87 487.76,-319.13 532.82,-319.3"/>
<polygon fill="#9a32cd" stroke="#9a32cd" points="377.55,-315.2 367.53,-318.66 377.52,-322.2 377.55,-315.2"/>
<text text-anchor="middle" x="457.5" y="-321.1" font-family="Helvetica,sans-Serif" font-size="8.00"> m_payload_type_or_null</text>
</g>
<!-- Node12 -->
<g id="node12" class="node">
<title>Node12</title>
<g id="a_node12"><a xlink:title=" ">
<polygon fill="white" stroke="#bfbfbf" points="291,-346 291,-363 359,-363 359,-346 291,-346"/>
<text text-anchor="middle" x="325" y="-352.6" font-family="Helvetica,sans-Serif" font-size="8.00">unsigned int</text>
</a>
</g>
</g>
<!-- Node12&#45;&gt;Node10 -->
<g id="edge12" class="edge">
<title>Node12&#45;&gt;Node10</title>
<path fill="none" stroke="#9a32cd" stroke-dasharray="5,2" d="M369.48,-349.83C407.84,-345.57 465.23,-338.82 515,-331.5 522.15,-330.45 529.69,-329.24 537.07,-328.01"/>
<polygon fill="#9a32cd" stroke="#9a32cd" points="368.74,-346.39 359.18,-350.97 369.51,-353.35 368.74,-346.39"/>
<text text-anchor="start" x="411" y="-357.1" font-family="Helvetica,sans-Serif" font-size="8.00"> m_payload_enum_raw</text>
<text text-anchor="middle" x="457.5" y="-348.1" font-family="Helvetica,sans-Serif" font-size="8.00">_value</text>
</g>
<!-- Node13 -->
<g id="node13" class="node">
<title>Node13</title>
<g id="a_node13"><a xlink:title=" ">
<polygon fill="white" stroke="#bfbfbf" points="777,-201 777,-218 827,-218 827,-201 777,-201"/>
<text text-anchor="middle" x="802" y="-207.6" font-family="Helvetica,sans-Serif" font-size="8.00">uint32_t</text>
</a>
</g>
</g>
<!-- Node13&#45;&gt;Node1 -->
<g id="edge14" class="edge">
<title>Node13&#45;&gt;Node1</title>
<path fill="none" stroke="#9a32cd" stroke-dasharray="5,2" d="M837.32,-207.57C881.84,-204.5 961.67,-197.07 1028,-180.5 1039.09,-177.73 1050.89,-173.61 1061.28,-169.57"/>
<polygon fill="#9a32cd" stroke="#9a32cd" points="837.07,-204.08 827.32,-208.23 837.53,-211.06 837.07,-204.08"/>
<text text-anchor="middle" x="957.5" y="-205.1" font-family="Helvetica,sans-Serif" font-size="8.00"> m_seed</text>
</g>
<!-- Node14 -->
<g id="node14" class="node">
<title>Node14</title>
<g id="a_node14"><a xlink:title=" ">
<polygon fill="white" stroke="#bfbfbf" points="754.5,-165 754.5,-182 849.5,-182 849.5,-165 754.5,-165"/>
<text text-anchor="middle" x="802" y="-171.6" font-family="Helvetica,sans-Serif" font-size="8.00">Random_generator</text>
</a>
</g>
</g>
<!-- Node14&#45;&gt;Node1 -->
<g id="edge15" class="edge">
<title>Node14&#45;&gt;Node1</title>
<path fill="none" stroke="#9a32cd" stroke-dasharray="5,2" d="M859.86,-170.15C914.32,-166.94 995.47,-162.16 1045.85,-159.19"/>
<polygon fill="#9a32cd" stroke="#9a32cd" points="859.45,-166.67 849.67,-170.75 859.86,-173.66 859.45,-166.67"/>
<text text-anchor="middle" x="957.5" y="-170.1" font-family="Helvetica,sans-Serif" font-size="8.00"> m_rnd_generator</text>
</g>
<!-- Node15 -->
<g id="node15" class="node">
<title>Node15</title>
<g id="a_node15"><a xlink:title=" ">
<polygon fill="white" stroke="black" points="753,-128 753,-145 851,-145 851,-128 753,-128"/>
<text text-anchor="middle" x="802" y="-134.6" font-family="Helvetica,sans-Serif" font-size="8.00">std::queue&lt; bool &gt;</text>
</a>
</g>
</g>
<!-- Node15&#45;&gt;Node1 -->
<g id="edge16" class="edge">
<title>Node15&#45;&gt;Node1</title>
<path fill="none" stroke="#9a32cd" stroke-dasharray="5,2" d="M861.13,-132.78C906.75,-130.88 971.74,-130.43 1028,-138.5 1035.71,-139.61 1043.81,-141.4 1051.54,-143.43"/>
<polygon fill="#9a32cd" stroke="#9a32cd" points="860.95,-129.29 851.12,-133.24 861.27,-136.28 860.95,-129.29"/>
<text text-anchor="middle" x="957.5" y="-150.1" font-family="Helvetica,sans-Serif" font-size="8.00"> m_recv_packet_dup_seq</text>
<text text-anchor="middle" x="957.5" y="-141.1" font-family="Helvetica,sans-Serif" font-size="8.00">m_recv_packet_loss_seq</text>
</g>
<!-- Node16 -->
<g id="node16" class="node">
<title>Node16</title>
<g id="a_node16"><a xlink:href="classbool.html" target="_top" xlink:title=" ">
<polygon fill="white" stroke="#bfbfbf" points="568,-128 568,-145 603,-145 603,-128 568,-128"/>
<text text-anchor="middle" x="585.5" y="-134.6" font-family="Helvetica,sans-Serif" font-size="8.00">bool</text>
</a>
</g>
</g>
<!-- Node16&#45;&gt;Node15 -->
<g id="edge17" class="edge">
<title>Node16&#45;&gt;Node15</title>
<path fill="none" stroke="#9a32cd" stroke-dasharray="5,2" d="M613.68,-136.5C648.59,-136.5 709.76,-136.5 752.68,-136.5"/>
<polygon fill="#9a32cd" stroke="#9a32cd" points="613.33,-133 603.33,-136.5 613.33,-140 613.33,-133"/>
<text text-anchor="middle" x="686.5" y="-139.1" font-family="Helvetica,sans-Serif" font-size="8.00"> elements</text>
</g>
<!-- Node17 -->
<g id="node17" class="node">
<title>Node17</title>
<g id="a_node17"><a xlink:title=" ">
<polygon fill="white" stroke="#bfbfbf" points="750.5,-82.5 750.5,-108.5 853.5,-108.5 853.5,-82.5 750.5,-82.5"/>
<text text-anchor="start" x="758.5" y="-98.1" font-family="Helvetica,sans-Serif" font-size="8.00">bernoulli_distribution</text>
<text text-anchor="middle" x="802" y="-89.1" font-family="Helvetica,sans-Serif" font-size="8.00">&lt; prob_type_t &gt;</text>
</a>
</g>
</g>
<!-- Node17&#45;&gt;Node1 -->
<g id="edge18" class="edge">
<title>Node17&#45;&gt;Node1</title>
<path fill="none" stroke="#9a32cd" stroke-dasharray="5,2" d="M864.01,-90.11C910.39,-88.17 975.01,-90.18 1028,-109.5 1047.59,-116.64 1066.3,-131.87 1078.27,-143.07"/>
<polygon fill="#9a32cd" stroke="#9a32cd" points="863.63,-86.63 853.82,-90.61 863.98,-93.62 863.63,-86.63"/>
<text text-anchor="middle" x="957.5" y="-121.1" font-family="Helvetica,sans-Serif" font-size="8.00"> m_recv_packet_dup_distribution</text>
<text text-anchor="middle" x="957.5" y="-112.1" font-family="Helvetica,sans-Serif" font-size="8.00">m_recv_packet_loss_distribution</text>
</g>
<!-- Node18 -->
<g id="node18" class="node">
<title>Node18</title>
<g id="a_node18"><a xlink:title=" ">
<polygon fill="white" stroke="black" points="735,-46 735,-63 869,-63 869,-46 735,-46"/>
<text text-anchor="middle" x="802" y="-52.6" font-family="Helvetica,sans-Serif" font-size="8.00">std::queue&lt; Fine_duration &gt;</text>
</a>
</g>
</g>
<!-- Node18&#45;&gt;Node1 -->
<g id="edge19" class="edge">
<title>Node18&#45;&gt;Node1</title>
<path fill="none" stroke="#9a32cd" stroke-dasharray="5,2" d="M879.4,-47.52C925.12,-46.74 982.9,-51.94 1028,-76.5 1055.88,-91.68 1075.81,-124.74 1085.29,-143.26"/>
<polygon fill="#9a32cd" stroke="#9a32cd" points="879.15,-44.03 869.25,-47.8 879.34,-51.03 879.15,-44.03"/>
<text text-anchor="middle" x="957.5" y="-79.1" font-family="Helvetica,sans-Serif" font-size="8.00"> m_recv_latency_seq</text>
</g>
<!-- Node19 -->
<g id="node19" class="node">
<title>Node19</title>
<g id="a_node19"><a xlink:title=" ">
<polygon fill="white" stroke="#bfbfbf" points="550,-46 550,-63 621,-63 621,-46 550,-46"/>
<text text-anchor="middle" x="585.5" y="-52.6" font-family="Helvetica,sans-Serif" font-size="8.00">Fine_duration</text>
</a>
</g>
</g>
<!-- Node19&#45;&gt;Node18 -->
<g id="edge20" class="edge">
<title>Node19&#45;&gt;Node18</title>
<path fill="none" stroke="#9a32cd" stroke-dasharray="5,2" d="M631.6,-54.5C661.55,-54.5 701.37,-54.5 734.89,-54.5"/>
<polygon fill="#9a32cd" stroke="#9a32cd" points="631.44,-51 621.44,-54.5 631.44,-58 631.44,-51"/>
<text text-anchor="middle" x="686.5" y="-57.1" font-family="Helvetica,sans-Serif" font-size="8.00"> elements</text>
</g>
<!-- Node20 -->
<g id="node20" class="node">
<title>Node20</title>
<g id="a_node20"><a xlink:title=" ">
<polygon fill="white" stroke="#bfbfbf" points="745.5,-0.5 745.5,-26.5 858.5,-26.5 858.5,-0.5 745.5,-0.5"/>
<text text-anchor="start" x="753.5" y="-16.1" font-family="Helvetica,sans-Serif" font-size="8.00">uniform_int_distribution</text>
<text text-anchor="middle" x="802" y="-7.1" font-family="Helvetica,sans-Serif" font-size="8.00">&lt; Fine_duration::rep &gt;</text>
</a>
</g>
</g>
<!-- Node20&#45;&gt;Node1 -->
<g id="edge21" class="edge">
<title>Node20&#45;&gt;Node1</title>
<path fill="none" stroke="#9a32cd" stroke-dasharray="5,2" d="M868.76,-3.85C916.84,-0.32 981.5,-3.23 1028,-34.5 1066.64,-60.48 1083.26,-117.67 1088.98,-143.45"/>
<polygon fill="#9a32cd" stroke="#9a32cd" points="868.44,-0.37 858.77,-4.7 869.03,-7.34 868.44,-0.37"/>
<text text-anchor="middle" x="957.5" y="-37.1" font-family="Helvetica,sans-Serif" font-size="8.00"> m_recv_latency_distribution_msec</text>
</g>
</g>
</svg>
