<?xml version="1.0" encoding="UTF-8" standalone="no"?>
<!DOCTYPE svg PUBLIC "-//W3C//DTD SVG 1.1//EN"
 "http://www.w3.org/Graphics/SVG/1.1/DTD/svg11.dtd">
<!-- Generated by graphviz version 2.43.0 (0)
 -->
<!-- Title: flow::net_flow::Node::async_sock_low_lvl_rst_send Pages: 1 -->
<svg width="1152pt" height="153pt"
 viewBox="0.00 0.00 1152.00 152.63" xmlns="http://www.w3.org/2000/svg" xmlns:xlink="http://www.w3.org/1999/xlink">
<g id="graph0" class="graph" transform="scale(1 1) rotate(0) translate(4 148.63)">
<title>flow::net_flow::Node::async_sock_low_lvl_rst_send</title>
<polygon fill="white" stroke="transparent" points="-4,4 -4,-148.63 1148,-148.63 1148,4 -4,4"/>
<!-- Node1 -->
<g id="node1" class="node">
<title>Node1</title>
<g id="a_node1"><a xlink:title="Sends an RST to the other side of the given socket asynchronously when possible.">
<polygon fill="#bfbfbf" stroke="black" points="1043,-89 1043,-124 1144,-124 1144,-89 1043,-89"/>
<text text-anchor="start" x="1051" y="-113.6" font-family="Helvetica,sans-Serif" font-size="8.00">flow::net_flow::Node</text>
<text text-anchor="start" x="1051" y="-104.6" font-family="Helvetica,sans-Serif" font-size="8.00">::async_sock_low_lvl</text>
<text text-anchor="middle" x="1093.5" y="-95.6" font-family="Helvetica,sans-Serif" font-size="8.00">_rst_send</text>
</a>
</g>
</g>
<!-- Node2 -->
<g id="node2" class="node">
<title>Node2</title>
<g id="a_node2"><a xlink:href="classflow_1_1net__flow_1_1Node.html#a1699dfdaf3e5ebe1b1d715a9c306d116" target="_top" xlink:title="Handles a just&#45;received, not&#45;yet&#45;deserialized low&#45;level packet.">
<polygon fill="white" stroke="black" points="456,-80.5 456,-106.5 557,-106.5 557,-80.5 456,-80.5"/>
<text text-anchor="start" x="464" y="-96.1" font-family="Helvetica,sans-Serif" font-size="8.00">flow::net_flow::Node</text>
<text text-anchor="middle" x="506.5" y="-87.1" font-family="Helvetica,sans-Serif" font-size="8.00">::handle_incoming</text>
</a>
</g>
</g>
<!-- Node1&#45;&gt;Node2 -->
<g id="edge1" class="edge">
<title>Node1&#45;&gt;Node2</title>
<path fill="none" stroke="midnightblue" d="M1033.04,-118.49C938.71,-135.46 749.4,-161.08 593,-129.5 571.21,-125.1 548.07,-114.98 531.36,-106.59"/>
<polygon fill="midnightblue" stroke="midnightblue" points="1033.76,-121.92 1042.97,-116.68 1032.5,-115.03 1033.76,-121.92"/>
</g>
<!-- Node8 -->
<g id="node6" class="node">
<title>Node8</title>
<g id="a_node6"><a xlink:href="classflow_1_1net__flow_1_1Node.html#afe70a0c32695e417e7a09e0ba773f151" target="_top" xlink:title="Asynchronously send RST to the other side of the given socket and close_connection_immediately().">
<polygon fill="white" stroke="black" points="879,-66 879,-101 1007,-101 1007,-66 879,-66"/>
<text text-anchor="start" x="887" y="-90.6" font-family="Helvetica,sans-Serif" font-size="8.00">flow::net_flow::Node</text>
<text text-anchor="start" x="887" y="-81.6" font-family="Helvetica,sans-Serif" font-size="8.00">::rst_and_close_connection</text>
<text text-anchor="middle" x="943" y="-72.6" font-family="Helvetica,sans-Serif" font-size="8.00">_immediately</text>
</a>
</g>
</g>
<!-- Node1&#45;&gt;Node8 -->
<g id="edge7" class="edge">
<title>Node1&#45;&gt;Node8</title>
<path fill="none" stroke="midnightblue" d="M1032.59,-97.22C1024.22,-95.93 1015.6,-94.59 1007.18,-93.29"/>
<polygon fill="midnightblue" stroke="midnightblue" points="1032.22,-100.71 1042.64,-98.78 1033.29,-93.79 1032.22,-100.71"/>
</g>
<!-- Node3 -->
<g id="node3" class="node">
<title>Node3</title>
<g id="a_node3"><a xlink:href="classflow_1_1net__flow_1_1Node.html#a4368247d07e930bdd07ab8d2425c6de8" target="_top" xlink:title="Sets up handle_incoming(packet_data, low_lvl_remote_endpoint) to be called asynchronously after a spe...">
<polygon fill="white" stroke="black" points="307,-99 307,-134 420,-134 420,-99 307,-99"/>
<text text-anchor="start" x="315" y="-123.6" font-family="Helvetica,sans-Serif" font-size="8.00">flow::net_flow::Node</text>
<text text-anchor="start" x="315" y="-114.6" font-family="Helvetica,sans-Serif" font-size="8.00">::async_wait_latency</text>
<text text-anchor="middle" x="363.5" y="-105.6" font-family="Helvetica,sans-Serif" font-size="8.00">_then_handle_incoming</text>
</a>
</g>
</g>
<!-- Node2&#45;&gt;Node3 -->
<g id="edge2" class="edge">
<title>Node2&#45;&gt;Node3</title>
<path fill="none" stroke="midnightblue" d="M445.86,-103.23C437.29,-104.63 428.49,-106.06 420.01,-107.45"/>
<polygon fill="midnightblue" stroke="midnightblue" points="446.48,-106.67 455.79,-101.61 445.36,-99.76 446.48,-106.67"/>
</g>
<!-- Node4 -->
<g id="node4" class="node">
<title>Node4</title>
<g id="a_node4"><a xlink:href="classflow_1_1net__flow_1_1Node.html#a90ecbad1ff3a8d2fe4b3ad1c474f7513" target="_top" xlink:title="Helper for low_lvl_recv_and_handle() that calls handle_incoming() on the not&#45;yet&#45;deserialized low&#45;lev...">
<polygon fill="white" stroke="black" points="158,-76 158,-111 271,-111 271,-76 158,-76"/>
<text text-anchor="start" x="166" y="-100.6" font-family="Helvetica,sans-Serif" font-size="8.00">flow::net_flow::Node</text>
<text text-anchor="start" x="166" y="-91.6" font-family="Helvetica,sans-Serif" font-size="8.00">::handle_incoming_with</text>
<text text-anchor="middle" x="214.5" y="-82.6" font-family="Helvetica,sans-Serif" font-size="8.00">_simulation</text>
</a>
</g>
</g>
<!-- Node2&#45;&gt;Node4 -->
<g id="edge6" class="edge">
<title>Node2&#45;&gt;Node4</title>
<path fill="none" stroke="midnightblue" d="M445.75,-90.35C437.11,-90 428.33,-89.69 420,-89.5 369.79,-88.33 357.21,-88.4 307,-89.5 295.4,-89.75 282.97,-90.19 271.13,-90.68"/>
<polygon fill="midnightblue" stroke="midnightblue" points="445.64,-93.85 455.78,-90.78 445.94,-86.85 445.64,-93.85"/>
</g>
<!-- Node3&#45;&gt;Node4 -->
<g id="edge3" class="edge">
<title>Node3&#45;&gt;Node4</title>
<path fill="none" stroke="midnightblue" d="M296.92,-106.24C288.32,-104.89 279.57,-103.52 271.15,-102.21"/>
<polygon fill="midnightblue" stroke="midnightblue" points="296.5,-109.72 306.93,-107.8 297.59,-102.8 296.5,-109.72"/>
</g>
<!-- Node4&#45;&gt;Node4 -->
<g id="edge4" class="edge">
<title>Node4&#45;&gt;Node4</title>
<path fill="none" stroke="midnightblue" d="M240.27,-121.6C236.65,-126.27 228.06,-129.5 214.5,-129.5 192.24,-129.5 183.37,-120.81 187.89,-111.28"/>
<polygon fill="midnightblue" stroke="midnightblue" points="243.79,-121.53 241.11,-111.28 236.81,-120.97 243.79,-121.53"/>
</g>
<!-- Node5 -->
<g id="node5" class="node">
<title>Node5</title>
<g id="a_node5"><a xlink:href="classflow_1_1net__flow_1_1Node.html#a9909cd2b2a77c57da9e35fcef0f8a4e5" target="_top" xlink:title="Handles the pre&#45;condition that m_low_lvl_sock has a UDP packet available for reading,...">
<polygon fill="white" stroke="red" points="0,-80.5 0,-106.5 122,-106.5 122,-80.5 0,-80.5"/>
<text text-anchor="start" x="8" y="-96.1" font-family="Helvetica,sans-Serif" font-size="8.00">flow::net_flow::Node</text>
<text text-anchor="middle" x="61" y="-87.1" font-family="Helvetica,sans-Serif" font-size="8.00">::low_lvl_recv_and_handle</text>
</a>
</g>
</g>
<!-- Node4&#45;&gt;Node5 -->
<g id="edge5" class="edge">
<title>Node4&#45;&gt;Node5</title>
<path fill="none" stroke="midnightblue" d="M147.7,-93.5C139.2,-93.5 130.54,-93.5 122.14,-93.5"/>
<polygon fill="midnightblue" stroke="midnightblue" points="147.95,-97 157.95,-93.5 147.95,-90 147.95,-97"/>
</g>
<!-- Node9 -->
<g id="node7" class="node">
<title>Node9</title>
<g id="a_node7"><a xlink:href="classflow_1_1net__flow_1_1Node.html#a6461124e5bc3e59083e172e26029e632" target="_top" xlink:title="Implementation of non&#45;blocking sock&#45;&gt;close_abruptly() for socket sock in all cases except when sock&#45;&gt;...">
<polygon fill="white" stroke="black" points="742,-84.5 742,-110.5 843,-110.5 843,-84.5 742,-84.5"/>
<text text-anchor="start" x="750" y="-100.1" font-family="Helvetica,sans-Serif" font-size="8.00">flow::net_flow::Node</text>
<text text-anchor="middle" x="792.5" y="-91.1" font-family="Helvetica,sans-Serif" font-size="8.00">::close_abruptly</text>
</a>
</g>
</g>
<!-- Node8&#45;&gt;Node9 -->
<g id="edge8" class="edge">
<title>Node8&#45;&gt;Node9</title>
<path fill="none" stroke="midnightblue" d="M868.55,-90.42C859.97,-91.23 851.38,-92.04 843.23,-92.81"/>
<polygon fill="midnightblue" stroke="midnightblue" points="868.96,-93.9 878.59,-89.48 868.31,-86.93 868.96,-93.9"/>
</g>
<!-- Node11 -->
<g id="node9" class="node">
<title>Node11</title>
<g id="a_node9"><a xlink:href="classflow_1_1net__flow_1_1Node.html#a29d02f9e302c7b06288ff1c644fa8d65" target="_top" xlink:title="Handles a just&#45;deserialized, just&#45;demultiplexed low&#45;level SYN_ACK_ACK packet delivered to the given p...">
<polygon fill="white" stroke="black" points="597,-21 597,-56 702,-56 702,-21 597,-21"/>
<text text-anchor="start" x="605" y="-45.6" font-family="Helvetica,sans-Serif" font-size="8.00">flow::net_flow::Node</text>
<text text-anchor="start" x="605" y="-36.6" font-family="Helvetica,sans-Serif" font-size="8.00">::handle_syn_ack_ack</text>
<text text-anchor="middle" x="649.5" y="-27.6" font-family="Helvetica,sans-Serif" font-size="8.00">_to_syn_rcvd</text>
</a>
</g>
</g>
<!-- Node8&#45;&gt;Node11 -->
<g id="edge11" class="edge">
<title>Node8&#45;&gt;Node11</title>
<path fill="none" stroke="midnightblue" d="M868.62,-72.17C816.82,-64.18 748.68,-53.66 702.44,-46.52"/>
<polygon fill="midnightblue" stroke="midnightblue" points="868.33,-75.67 878.75,-73.74 869.4,-68.75 868.33,-75.67"/>
</g>
<!-- Node12 -->
<g id="node10" class="node">
<title>Node12</title>
<g id="a_node10"><a xlink:href="classflow_1_1net__flow_1_1Node.html#ab427ebc124a6233ae48a7562662a6e81" target="_top" xlink:title="Creates a new Drop Timer and saves it to sock&#45;&gt;m_snd_drop_timer.">
<polygon fill="white" stroke="black" points="742,-0.5 742,-26.5 843,-26.5 843,-0.5 742,-0.5"/>
<text text-anchor="start" x="750" y="-16.1" font-family="Helvetica,sans-Serif" font-size="8.00">flow::net_flow::Node</text>
<text text-anchor="middle" x="792.5" y="-7.1" font-family="Helvetica,sans-Serif" font-size="8.00">::setup_drop_timer</text>
</a>
</g>
</g>
<!-- Node8&#45;&gt;Node12 -->
<g id="edge13" class="edge">
<title>Node8&#45;&gt;Node12</title>
<path fill="none" stroke="midnightblue" d="M895.43,-61.55C871.02,-50.04 841.95,-36.34 821.12,-26.52"/>
<polygon fill="midnightblue" stroke="midnightblue" points="893.99,-64.74 904.53,-65.84 896.97,-58.41 893.99,-64.74"/>
</g>
<!-- Node10 -->
<g id="node8" class="node">
<title>Node10</title>
<g id="a_node8"><a xlink:href="classflow_1_1net__flow_1_1Peer__socket.html#a1812e852957c43ccca8712d63c6e3de7" target="_top" xlink:title="Acts as if fatal error error::Code::S_USER_CLOSED_ABRUPTLY has been discovered on the connection.">
<polygon fill="white" stroke="black" points="593,-75.5 593,-101.5 706,-101.5 706,-75.5 593,-75.5"/>
<text text-anchor="start" x="601" y="-91.1" font-family="Helvetica,sans-Serif" font-size="8.00">flow::net_flow::Peer</text>
<text text-anchor="middle" x="649.5" y="-82.1" font-family="Helvetica,sans-Serif" font-size="8.00">_socket::close_abruptly</text>
</a>
</g>
</g>
<!-- Node9&#45;&gt;Node10 -->
<g id="edge9" class="edge">
<title>Node9&#45;&gt;Node10</title>
<path fill="none" stroke="midnightblue" d="M731.58,-93.68C723.09,-93.13 714.4,-92.58 706.01,-92.04"/>
<polygon fill="midnightblue" stroke="midnightblue" points="731.59,-97.18 741.79,-94.33 732.03,-90.2 731.59,-97.18"/>
</g>
<!-- Node10&#45;&gt;Node10 -->
<g id="edge10" class="edge">
<title>Node10&#45;&gt;Node10</title>
<path fill="none" stroke="midnightblue" d="M675.06,-111.94C672.22,-116.64 663.7,-120 649.5,-120 626.2,-120 618.19,-110.96 625.48,-101.77"/>
<polygon fill="midnightblue" stroke="midnightblue" points="678.48,-111.14 673.52,-101.77 671.55,-112.18 678.48,-111.14"/>
</g>
<!-- Node11&#45;&gt;Node2 -->
<g id="edge12" class="edge">
<title>Node11&#45;&gt;Node2</title>
<path fill="none" stroke="midnightblue" d="M593.77,-59.85C575.94,-66.8 556.69,-74.31 540.91,-80.47"/>
<polygon fill="midnightblue" stroke="midnightblue" points="595.45,-62.95 603.5,-56.05 592.91,-56.43 595.45,-62.95"/>
</g>
<!-- Node12&#45;&gt;Node11 -->
<g id="edge14" class="edge">
<title>Node12&#45;&gt;Node11</title>
<path fill="none" stroke="midnightblue" d="M731.69,-24.11C721.86,-25.85 711.75,-27.64 702.15,-29.34"/>
<polygon fill="midnightblue" stroke="midnightblue" points="732.55,-27.51 741.79,-22.31 731.33,-20.61 732.55,-27.51"/>
</g>
</g>
</svg>
