<?xml version="1.0" encoding="UTF-8" standalone="no"?>
<!DOCTYPE svg PUBLIC "-//W3C//DTD SVG 1.1//EN"
 "http://www.w3.org/Graphics/SVG/1.1/DTD/svg11.dtd">
<!-- Generated by graphviz version 2.43.0 (0)
 -->
<!-- Title: flow::util::Linked_hash_map::const_past_newest Pages: 1 -->
<svg width="249pt" height="44pt"
 viewBox="0.00 0.00 249.00 44.00" xmlns="http://www.w3.org/2000/svg" xmlns:xlink="http://www.w3.org/1999/xlink">
<g id="graph0" class="graph" transform="scale(1 1) rotate(0) translate(4 40)">
<title>flow::util::Linked_hash_map::const_past_newest</title>
<polygon fill="white" stroke="transparent" points="-4,4 -4,-40 245,-40 245,4 -4,4"/>
<!-- Node1 -->
<g id="node1" class="node">
<title>Node1</title>
<g id="a_node1"><a xlink:title="Returns special reverse iterator indicating the position just past the reverse&#45;iteration order; if no...">
<polygon fill="#bfbfbf" stroke="black" points="0,-0.5 0,-35.5 113,-35.5 113,-0.5 0,-0.5"/>
<text text-anchor="start" x="8" y="-25.1" font-family="Helvetica,sans-Serif" font-size="8.00">flow::util::Linked</text>
<text text-anchor="start" x="8" y="-16.1" font-family="Helvetica,sans-Serif" font-size="8.00">_hash_map::const_past</text>
<text text-anchor="middle" x="56.5" y="-7.1" font-family="Helvetica,sans-Serif" font-size="8.00">_newest</text>
</a>
</g>
</g>
<!-- Node2 -->
<g id="node2" class="node">
<title>Node2</title>
<g id="a_node2"><a xlink:href="classflow_1_1util_1_1Linked__hash__map.html#a146bacf7c55bc513217fc0c8a951cfd8" target="_top" xlink:title="Synonym of const_past_newest().">
<polygon fill="white" stroke="black" points="149,-5 149,-31 241,-31 241,-5 149,-5"/>
<text text-anchor="start" x="157" y="-20.6" font-family="Helvetica,sans-Serif" font-size="8.00">flow::util::Linked</text>
<text text-anchor="middle" x="195" y="-11.6" font-family="Helvetica,sans-Serif" font-size="8.00">_hash_map::crend</text>
</a>
</g>
</g>
<!-- Node1&#45;&gt;Node2 -->
<g id="edge1" class="edge">
<title>Node1&#45;&gt;Node2</title>
<path fill="none" stroke="midnightblue" d="M113.02,-18C121.52,-18 130.29,-18 138.79,-18"/>
<polygon fill="midnightblue" stroke="midnightblue" points="138.97,-21.5 148.97,-18 138.97,-14.5 138.97,-21.5"/>
</g>
</g>
</svg>
