<?xml version="1.0" encoding="UTF-8" standalone="no"?>
<!DOCTYPE svg PUBLIC "-//W3C//DTD SVG 1.1//EN"
 "http://www.w3.org/Graphics/SVG/1.1/DTD/svg11.dtd">
<!-- Generated by graphviz version 2.43.0 (0)
 -->
<!-- Title: flow::net_flow::Peer_socket_send_stats Pages: 1 -->
<svg width="545pt" height="415pt"
 viewBox="0.00 0.00 545.00 415.00" xmlns="http://www.w3.org/2000/svg" xmlns:xlink="http://www.w3.org/1999/xlink">
<g id="graph0" class="graph" transform="scale(1 1) rotate(0) translate(4 411)">
<title>flow::net_flow::Peer_socket_send_stats</title>
<polygon fill="white" stroke="transparent" points="-4,4 -4,-411 541,-411 541,4 -4,4"/>
<!-- Node1 -->
<g id="node1" class="node">
<title>Node1</title>
<g id="a_node1"><a xlink:title="A data store that keeps stats about the outgoing direction of a Peer_socket connection to another Flo...">
<polygon fill="#bfbfbf" stroke="black" points="440,-182 440,-208 537,-208 537,-182 440,-182"/>
<text text-anchor="start" x="448" y="-197.6" font-family="Helvetica,sans-Serif" font-size="8.00">flow::net_flow::Peer</text>
<text text-anchor="middle" x="488.5" y="-188.6" font-family="Helvetica,sans-Serif" font-size="8.00">_socket_send_stats</text>
</a>
</g>
</g>
<!-- Node2 -->
<g id="node2" class="node">
<title>Node2</title>
<g id="a_node2"><a xlink:title=" ">
<polygon fill="white" stroke="#bfbfbf" points="208,-389.5 208,-406.5 267,-406.5 267,-389.5 208,-389.5"/>
<text text-anchor="middle" x="237.5" y="-396.1" font-family="Helvetica,sans-Serif" font-size="8.00">time_point</text>
</a>
</g>
</g>
<!-- Node2&#45;&gt;Node1 -->
<g id="edge1" class="edge">
<title>Node2&#45;&gt;Node1</title>
<path fill="none" stroke="#9a32cd" stroke-dasharray="5,2" d="M271.52,-385.68C279.05,-382.5 286.92,-378.87 294,-375 354.8,-341.77 372.61,-334.59 422,-286 446.84,-261.56 468.97,-226.81 480.03,-208.11"/>
<polygon fill="#9a32cd" stroke="#9a32cd" points="270.18,-382.45 262.24,-389.46 272.82,-388.93 270.18,-382.45"/>
<text text-anchor="middle" x="367" y="-366.6" font-family="Helvetica,sans-Serif" font-size="8.00"> m_init_time</text>
</g>
<!-- Node3 -->
<g id="node3" class="node">
<title>Node3</title>
<g id="a_node3"><a xlink:title=" ">
<polygon fill="white" stroke="#bfbfbf" points="27,-235.5 27,-252.5 77,-252.5 77,-235.5 27,-235.5"/>
<text text-anchor="middle" x="52" y="-242.1" font-family="Helvetica,sans-Serif" font-size="8.00">uint64_t</text>
</a>
</g>
</g>
<!-- Node3&#45;&gt;Node1 -->
<g id="edge2" class="edge">
<title>Node3&#45;&gt;Node1</title>
<path fill="none" stroke="#9a32cd" stroke-dasharray="5,2" d="M87.36,-248.76C153.83,-256.69 303.87,-268.29 422,-231 438.58,-225.77 455.75,-216.15 468.35,-208.17"/>
<polygon fill="#9a32cd" stroke="#9a32cd" points="87.41,-245.24 77.05,-247.48 86.55,-252.19 87.41,-245.24"/>
<text text-anchor="middle" x="237.5" y="-348.6" font-family="Helvetica,sans-Serif" font-size="8.00"> m_drop_timeouts</text>
<text text-anchor="middle" x="237.5" y="-339.6" font-family="Helvetica,sans-Serif" font-size="8.00">m_dropped_data_count</text>
<text text-anchor="middle" x="237.5" y="-330.6" font-family="Helvetica,sans-Serif" font-size="8.00">m_dropped_data_size</text>
<text text-anchor="middle" x="237.5" y="-321.6" font-family="Helvetica,sans-Serif" font-size="8.00">m_error_acks_data_count</text>
<text text-anchor="middle" x="237.5" y="-312.6" font-family="Helvetica,sans-Serif" font-size="8.00">m_good_ack_count</text>
<text text-anchor="middle" x="237.5" y="-303.6" font-family="Helvetica,sans-Serif" font-size="8.00">m_good_ack_data_size</text>
<text text-anchor="middle" x="237.5" y="-294.6" font-family="Helvetica,sans-Serif" font-size="8.00">m_idle_timeouts</text>
<text text-anchor="middle" x="237.5" y="-285.6" font-family="Helvetica,sans-Serif" font-size="8.00">m_late_or_dupe_ack_count</text>
<text text-anchor="middle" x="237.5" y="-276.6" font-family="Helvetica,sans-Serif" font-size="8.00">m_loss_events</text>
<text text-anchor="middle" x="237.5" y="-267.6" font-family="Helvetica,sans-Serif" font-size="8.00">m_received_ack_count</text>
<text text-anchor="middle" x="237.5" y="-258.6" font-family="Helvetica,sans-Serif" font-size="8.00">...</text>
</g>
<!-- Node6 -->
<g id="node6" class="node">
<title>Node6</title>
<g id="a_node6"><a xlink:title=" ">
<polygon fill="white" stroke="black" points="188,-137 188,-163 287,-163 287,-137 188,-137"/>
<text text-anchor="start" x="196" y="-152.6" font-family="Helvetica,sans-Serif" font-size="8.00">std::map&lt; std::type</text>
<text text-anchor="middle" x="237.5" y="-143.6" font-family="Helvetica,sans-Serif" font-size="8.00">_index, uint64_t &gt;</text>
</a>
</g>
</g>
<!-- Node3&#45;&gt;Node6 -->
<g id="edge7" class="edge">
<title>Node3&#45;&gt;Node6</title>
<path fill="none" stroke="#9a32cd" stroke-dasharray="5,2" d="M76.15,-230.11C101.47,-215.17 143.46,-191.12 181,-173 188.14,-169.55 195.93,-166.13 203.36,-163.01"/>
<polygon fill="#9a32cd" stroke="#9a32cd" points="74.12,-227.25 67.31,-235.36 77.69,-233.27 74.12,-227.25"/>
<text text-anchor="middle" x="142.5" y="-204.6" font-family="Helvetica,sans-Serif" font-size="8.00"> elements</text>
</g>
<!-- Node4 -->
<g id="node4" class="node">
<title>Node4</title>
<g id="a_node4"><a xlink:href="classbool.html" target="_top" xlink:title=" ">
<polygon fill="white" stroke="#bfbfbf" points="220,-218.5 220,-235.5 255,-235.5 255,-218.5 220,-218.5"/>
<text text-anchor="middle" x="237.5" y="-225.1" font-family="Helvetica,sans-Serif" font-size="8.00">bool</text>
</a>
</g>
</g>
<!-- Node4&#45;&gt;Node1 -->
<g id="edge3" class="edge">
<title>Node4&#45;&gt;Node1</title>
<path fill="none" stroke="#9a32cd" stroke-dasharray="5,2" d="M265.33,-224.06C301.11,-220.07 366.39,-212.58 422,-205 427.81,-204.21 433.91,-203.33 439.95,-202.44"/>
<polygon fill="#9a32cd" stroke="#9a32cd" points="264.78,-220.6 255.22,-225.18 265.55,-227.55 264.78,-220.6"/>
<text text-anchor="middle" x="367" y="-220.6" font-family="Helvetica,sans-Serif" font-size="8.00"> m_rcv_wnd_exhausted</text>
</g>
<!-- Node5 -->
<g id="node5" class="node">
<title>Node5</title>
<g id="a_node5"><a xlink:title=" ">
<polygon fill="white" stroke="#bfbfbf" points="217.5,-182.5 217.5,-199.5 257.5,-199.5 257.5,-182.5 217.5,-182.5"/>
<text text-anchor="middle" x="237.5" y="-189.1" font-family="Helvetica,sans-Serif" font-size="8.00">size_t</text>
</a>
</g>
</g>
<!-- Node5&#45;&gt;Node1 -->
<g id="edge4" class="edge">
<title>Node5&#45;&gt;Node1</title>
<path fill="none" stroke="#9a32cd" stroke-dasharray="5,2" d="M267.81,-191.47C310.15,-192.15 388.91,-193.42 439.72,-194.23"/>
<polygon fill="#9a32cd" stroke="#9a32cd" points="267.68,-187.97 257.63,-191.31 267.57,-194.97 267.68,-187.97"/>
<text text-anchor="middle" x="367" y="-195.6" font-family="Helvetica,sans-Serif" font-size="8.00"> m_max_buf_data_size</text>
</g>
<!-- Node6&#45;&gt;Node1 -->
<g id="edge5" class="edge">
<title>Node6&#45;&gt;Node1</title>
<path fill="none" stroke="#9a32cd" stroke-dasharray="5,2" d="M297.78,-152.61C334.05,-155.15 381.17,-160.16 422,-170 434.07,-172.91 446.92,-177.47 458.01,-181.9"/>
<polygon fill="#9a32cd" stroke="#9a32cd" points="297.58,-149.09 287.38,-151.92 297.13,-156.07 297.58,-149.09"/>
<text text-anchor="start" x="312.5" y="-181.6" font-family="Helvetica,sans-Serif" font-size="8.00"> m_low_lvl_packet_xfer</text>
<text text-anchor="middle" x="367" y="-172.6" font-family="Helvetica,sans-Serif" font-size="8.00">_requested_count_by_type</text>
</g>
<!-- Node7 -->
<g id="node7" class="node">
<title>Node7</title>
<g id="a_node7"><a xlink:title=" ">
<polygon fill="white" stroke="#bfbfbf" points="22,-71.5 22,-88.5 82,-88.5 82,-71.5 22,-71.5"/>
<text text-anchor="middle" x="52" y="-78.1" font-family="Helvetica,sans-Serif" font-size="8.00">type_index</text>
</a>
</g>
</g>
<!-- Node7&#45;&gt;Node6 -->
<g id="edge6" class="edge">
<title>Node7&#45;&gt;Node6</title>
<path fill="none" stroke="#9a32cd" stroke-dasharray="5,2" d="M92.1,-89.93C113.37,-95.79 139.97,-103.83 163,-113 180.25,-119.87 198.94,-129.3 213.15,-136.93"/>
<polygon fill="#9a32cd" stroke="#9a32cd" points="92.99,-86.55 82.42,-87.32 91.17,-93.31 92.99,-86.55"/>
<text text-anchor="middle" x="142.5" y="-115.6" font-family="Helvetica,sans-Serif" font-size="8.00"> keys</text>
</g>
<!-- Node8 -->
<g id="node8" class="node">
<title>Node8</title>
<g id="a_node8"><a xlink:title=" ">
<polygon fill="white" stroke="black" points="188,-0.5 188,-35.5 287,-35.5 287,-0.5 188,-0.5"/>
<text text-anchor="start" x="196" y="-25.1" font-family="Helvetica,sans-Serif" font-size="8.00">std::map&lt; std::type</text>
<text text-anchor="start" x="196" y="-16.1" font-family="Helvetica,sans-Serif" font-size="8.00">_index, boost::array</text>
<text text-anchor="middle" x="237.5" y="-7.1" font-family="Helvetica,sans-Serif" font-size="8.00">&lt; uint64_t, 2 &gt; &gt;</text>
</a>
</g>
</g>
<!-- Node7&#45;&gt;Node8 -->
<g id="edge9" class="edge">
<title>Node7&#45;&gt;Node8</title>
<path fill="none" stroke="#9a32cd" stroke-dasharray="5,2" d="M88.36,-68.05C116.61,-58.51 156.52,-45.02 187.79,-34.46"/>
<polygon fill="#9a32cd" stroke="#9a32cd" points="86.87,-64.86 78.51,-71.38 89.11,-71.49 86.87,-64.86"/>
<text text-anchor="middle" x="142.5" y="-58.6" font-family="Helvetica,sans-Serif" font-size="8.00"> keys</text>
</g>
<!-- Node10 -->
<g id="node10" class="node">
<title>Node10</title>
<g id="a_node10"><a xlink:title=" ">
<polygon fill="white" stroke="black" points="181,-62.5 181,-97.5 294,-97.5 294,-62.5 181,-62.5"/>
<text text-anchor="start" x="189" y="-87.1" font-family="Helvetica,sans-Serif" font-size="8.00">std::map&lt; std::type</text>
<text text-anchor="start" x="189" y="-78.1" font-family="Helvetica,sans-Serif" font-size="8.00">_index, std::map&lt; Xfer</text>
<text text-anchor="middle" x="237.5" y="-69.1" font-family="Helvetica,sans-Serif" font-size="8.00">_op_result, uint64_t &gt; &gt;</text>
</a>
</g>
</g>
<!-- Node7&#45;&gt;Node10 -->
<g id="edge12" class="edge">
<title>Node7&#45;&gt;Node10</title>
<path fill="none" stroke="#9a32cd" stroke-dasharray="5,2" d="M92.25,-80C118.09,-80 152.31,-80 180.94,-80"/>
<polygon fill="#9a32cd" stroke="#9a32cd" points="92.08,-76.5 82.08,-80 92.08,-83.5 92.08,-76.5"/>
<text text-anchor="middle" x="142.5" y="-82.6" font-family="Helvetica,sans-Serif" font-size="8.00"> keys</text>
</g>
<!-- Node8&#45;&gt;Node1 -->
<g id="edge8" class="edge">
<title>Node8&#45;&gt;Node1</title>
<path fill="none" stroke="#9a32cd" stroke-dasharray="5,2" d="M297.48,-7.11C336.42,-3.28 386.6,-5.15 422,-31 472.26,-67.71 484,-149.32 486.7,-181.54"/>
<polygon fill="#9a32cd" stroke="#9a32cd" points="296.87,-3.65 287.33,-8.26 297.66,-10.61 296.87,-3.65"/>
<text text-anchor="start" x="321" y="-60.6" font-family="Helvetica,sans-Serif" font-size="8.00"> m_low_lvl_packet_xfer</text>
<text text-anchor="middle" x="367" y="-51.6" font-family="Helvetica,sans-Serif" font-size="8.00">_called_count_by_type</text>
<text text-anchor="start" x="321" y="-42.6" font-family="Helvetica,sans-Serif" font-size="8.00">m_low_lvl_packet_xfer</text>
<text text-anchor="middle" x="367" y="-33.6" font-family="Helvetica,sans-Serif" font-size="8.00">_called_size_by_type</text>
</g>
<!-- Node9 -->
<g id="node9" class="node">
<title>Node9</title>
<g id="a_node9"><a xlink:title=" ">
<polygon fill="white" stroke="#bfbfbf" points="3,-7.5 3,-24.5 101,-24.5 101,-7.5 3,-7.5"/>
<text text-anchor="middle" x="52" y="-14.1" font-family="Helvetica,sans-Serif" font-size="8.00">array&lt; uint64_t, 2 &gt;</text>
</a>
</g>
</g>
<!-- Node9&#45;&gt;Node8 -->
<g id="edge10" class="edge">
<title>Node9&#45;&gt;Node8</title>
<path fill="none" stroke="#9a32cd" stroke-dasharray="5,2" d="M111.35,-16.48C128.04,-16.63 146.24,-16.81 163,-17 171.04,-17.09 179.57,-17.2 187.87,-17.31"/>
<polygon fill="#9a32cd" stroke="#9a32cd" points="111.22,-12.98 101.19,-16.39 111.16,-19.98 111.22,-12.98"/>
<text text-anchor="middle" x="142.5" y="-19.6" font-family="Helvetica,sans-Serif" font-size="8.00"> elements</text>
</g>
<!-- Node10&#45;&gt;Node1 -->
<g id="edge11" class="edge">
<title>Node10&#45;&gt;Node1</title>
<path fill="none" stroke="#9a32cd" stroke-dasharray="5,2" d="M304.3,-71.81C341.3,-70.38 386.96,-74.18 422,-95 455.54,-114.93 475.14,-159.52 483.19,-181.8"/>
<polygon fill="#9a32cd" stroke="#9a32cd" points="303.91,-68.32 294.1,-72.34 304.27,-75.31 303.91,-68.32"/>
<text text-anchor="start" x="312" y="-142.6" font-family="Helvetica,sans-Serif" font-size="8.00"> m_low_lvl_packet_xfer</text>
<text text-anchor="start" x="312" y="-133.6" font-family="Helvetica,sans-Serif" font-size="8.00">_completed_count_by_type</text>
<text text-anchor="middle" x="367" y="-124.6" font-family="Helvetica,sans-Serif" font-size="8.00">_and_result</text>
<text text-anchor="start" x="312" y="-115.6" font-family="Helvetica,sans-Serif" font-size="8.00">m_low_lvl_packet_xfer</text>
<text text-anchor="start" x="312" y="-106.6" font-family="Helvetica,sans-Serif" font-size="8.00">_completed_size_by_type</text>
<text text-anchor="middle" x="367" y="-97.6" font-family="Helvetica,sans-Serif" font-size="8.00">_and_result</text>
</g>
<!-- Node11 -->
<g id="node11" class="node">
<title>Node11</title>
<g id="a_node11"><a xlink:title=" ">
<polygon fill="white" stroke="#bfbfbf" points="0,-131 0,-157 104,-157 104,-131 0,-131"/>
<text text-anchor="start" x="8" y="-146.6" font-family="Helvetica,sans-Serif" font-size="8.00">map&lt; Xfer_op_result,</text>
<text text-anchor="middle" x="52" y="-137.6" font-family="Helvetica,sans-Serif" font-size="8.00"> uint64_t &gt;</text>
</a>
</g>
</g>
<!-- Node11&#45;&gt;Node10 -->
<g id="edge13" class="edge">
<title>Node11&#45;&gt;Node10</title>
<path fill="none" stroke="#9a32cd" stroke-dasharray="5,2" d="M113.99,-135.42C130.21,-132.17 147.52,-127.8 163,-122 179.65,-115.76 196.98,-106.04 210.63,-97.52"/>
<polygon fill="#9a32cd" stroke="#9a32cd" points="113.23,-132 104.05,-137.31 114.53,-138.88 113.23,-132"/>
<text text-anchor="middle" x="142.5" y="-135.6" font-family="Helvetica,sans-Serif" font-size="8.00"> elements</text>
</g>
</g>
</svg>
