<?xml version="1.0" encoding="UTF-8" standalone="no"?>
<!DOCTYPE svg PUBLIC "-//W3C//DTD SVG 1.1//EN"
 "http://www.w3.org/Graphics/SVG/1.1/DTD/svg11.dtd">
<!-- Generated by graphviz version 2.43.0 (0)
 -->
<!-- Title: flow::util::Basic_blob&lt; Allocator, S_SHARING_ALLOWED &gt; Pages: 1 -->
<svg width="407pt" height="306pt"
 viewBox="0.00 0.00 407.00 306.00" xmlns="http://www.w3.org/2000/svg" xmlns:xlink="http://www.w3.org/1999/xlink">
<g id="graph0" class="graph" transform="scale(1 1) rotate(0) translate(4 302)">
<title>flow::util::Basic_blob&lt; Allocator, S_SHARING_ALLOWED &gt;</title>
<polygon fill="white" stroke="transparent" points="-4,4 -4,-302 403,-302 403,4 -4,4"/>
<!-- Node1 -->
<g id="node1" class="node">
<title>Node1</title>
<g id="a_node1"><a xlink:title="A hand&#45;optimized and API&#45;tweaked replacement for vector&lt;uint8_t&gt;, i.e., buffer of bytes inside an all...">
<polygon fill="#bfbfbf" stroke="black" points="288,-173.5 288,-208.5 399,-208.5 399,-173.5 288,-173.5"/>
<text text-anchor="start" x="296" y="-198.1" font-family="Helvetica,sans-Serif" font-size="8.00">flow::util::Basic_blob</text>
<text text-anchor="start" x="296" y="-189.1" font-family="Helvetica,sans-Serif" font-size="8.00">&lt; Allocator, S_SHARING</text>
<text text-anchor="middle" x="343.5" y="-180.1" font-family="Helvetica,sans-Serif" font-size="8.00">_ALLOWED &gt;</text>
</a>
</g>
</g>
<!-- Node2 -->
<g id="node2" class="node">
<title>Node2</title>
<g id="a_node2"><a xlink:href="classbool.html" target="_top" xlink:title=" ">
<polygon fill="white" stroke="#bfbfbf" points="66,-280.5 66,-297.5 101,-297.5 101,-280.5 66,-280.5"/>
<text text-anchor="middle" x="83.5" y="-287.1" font-family="Helvetica,sans-Serif" font-size="8.00">bool</text>
</a>
</g>
</g>
<!-- Node2&#45;&gt;Node1 -->
<g id="edge1" class="edge">
<title>Node2&#45;&gt;Node1</title>
<path fill="none" stroke="#9a32cd" stroke-dasharray="5,2" d="M111.21,-286.66C148.37,-282.61 217.06,-272.14 270,-247 290.4,-237.31 310.48,-221.14 324.31,-208.66"/>
<polygon fill="#9a32cd" stroke="#9a32cd" points="110.76,-283.19 101.17,-287.69 111.47,-290.16 110.76,-283.19"/>
<text text-anchor="middle" x="227.5" y="-285.6" font-family="Helvetica,sans-Serif" font-size="8.00"> S_IS_VANILLA_ALLOC</text>
<text text-anchor="middle" x="227.5" y="-276.6" font-family="Helvetica,sans-Serif" font-size="8.00">S_SHARING</text>
</g>
<!-- Node3 -->
<g id="node3" class="node">
<title>Node3</title>
<g id="a_node3"><a xlink:title=" ">
<polygon fill="white" stroke="#bfbfbf" points="22.5,-244.5 22.5,-261.5 144.5,-261.5 144.5,-244.5 22.5,-244.5"/>
<text text-anchor="middle" x="83.5" y="-251.1" font-family="Helvetica,sans-Serif" font-size="8.00">static constexpr size_type</text>
</a>
</g>
</g>
<!-- Node3&#45;&gt;Node1 -->
<g id="edge2" class="edge">
<title>Node3&#45;&gt;Node1</title>
<path fill="none" stroke="#9a32cd" stroke-dasharray="5,2" d="M146.85,-242.74C183.07,-236.23 229.44,-226.98 270,-216 277.97,-213.84 286.33,-211.26 294.42,-208.59"/>
<polygon fill="#9a32cd" stroke="#9a32cd" points="146.15,-239.31 136.91,-244.5 147.37,-246.2 146.15,-239.31"/>
<text text-anchor="middle" x="227.5" y="-236.6" font-family="Helvetica,sans-Serif" font-size="8.00"> S_UNCHANGED</text>
</g>
<!-- Node4 -->
<g id="node4" class="node">
<title>Node4</title>
<g id="a_node4"><a xlink:title=" ">
<polygon fill="white" stroke="#bfbfbf" points="32.5,-199 32.5,-225 134.5,-225 134.5,-199 32.5,-199"/>
<text text-anchor="start" x="40.5" y="-214.6" font-family="Helvetica,sans-Serif" font-size="8.00">static constexpr Flow</text>
<text text-anchor="middle" x="83.5" y="-205.6" font-family="Helvetica,sans-Serif" font-size="8.00">_log_component</text>
</a>
</g>
</g>
<!-- Node4&#45;&gt;Node1 -->
<g id="edge3" class="edge">
<title>Node4&#45;&gt;Node1</title>
<path fill="none" stroke="#9a32cd" stroke-dasharray="5,2" d="M144.65,-207.1C187.89,-203.58 245.71,-198.88 287.68,-195.46"/>
<polygon fill="#9a32cd" stroke="#9a32cd" points="144.23,-203.63 134.55,-207.93 144.8,-210.6 144.23,-203.63"/>
<text text-anchor="middle" x="227.5" y="-205.6" font-family="Helvetica,sans-Serif" font-size="8.00"> S_LOG_COMPONENT</text>
</g>
<!-- Node5 -->
<g id="node5" class="node">
<title>Node5</title>
<g id="a_node5"><a xlink:title=" ">
<polygon fill="white" stroke="#bfbfbf" points="57,-162.5 57,-179.5 110,-179.5 110,-162.5 57,-162.5"/>
<text text-anchor="middle" x="83.5" y="-169.1" font-family="Helvetica,sans-Serif" font-size="8.00">Allocator</text>
</a>
</g>
</g>
<!-- Node5&#45;&gt;Node1 -->
<g id="edge4" class="edge">
<title>Node5&#45;&gt;Node1</title>
<path fill="none" stroke="#9a32cd" stroke-dasharray="5,2" d="M120.44,-172.05C157.86,-173.35 218.13,-176.03 270,-181 275.82,-181.56 281.89,-182.24 287.93,-182.98"/>
<polygon fill="#9a32cd" stroke="#9a32cd" points="120.17,-168.54 110.05,-171.7 119.93,-175.54 120.17,-168.54"/>
<text text-anchor="middle" x="227.5" y="-183.6" font-family="Helvetica,sans-Serif" font-size="8.00"> m_alloc_raw</text>
</g>
<!-- Node6 -->
<g id="node6" class="node">
<title>Node6</title>
<g id="a_node6"><a xlink:title=" ">
<polygon fill="white" stroke="#bfbfbf" points="0,-36.5 0,-143.5 167,-143.5 167,-36.5 0,-36.5"/>
<text text-anchor="start" x="8" y="-133.1" font-family="Helvetica,sans-Serif" font-size="8.00">conditional_t&lt; S_IS</text>
<text text-anchor="start" x="8" y="-124.1" font-family="Helvetica,sans-Serif" font-size="8.00">_VANILLA_ALLOC, std</text>
<text text-anchor="start" x="8" y="-115.1" font-family="Helvetica,sans-Serif" font-size="8.00">::conditional_t&lt; S_SHARING,</text>
<text text-anchor="start" x="8" y="-106.1" font-family="Helvetica,sans-Serif" font-size="8.00"> boost::shared_ptr&lt; value</text>
<text text-anchor="start" x="8" y="-97.1" font-family="Helvetica,sans-Serif" font-size="8.00">_type[]&gt;, boost::movelib::</text>
<text text-anchor="start" x="8" y="-88.1" font-family="Helvetica,sans-Serif" font-size="8.00">unique_ptr&lt; value_type[]&gt; &gt;</text>
<text text-anchor="start" x="8" y="-79.1" font-family="Helvetica,sans-Serif" font-size="8.00">, std::conditional_t&lt; S_SHARING,</text>
<text text-anchor="start" x="8" y="-70.1" font-family="Helvetica,sans-Serif" font-size="8.00"> boost::interprocess::shared_ptr</text>
<text text-anchor="start" x="8" y="-61.1" font-family="Helvetica,sans-Serif" font-size="8.00">&lt; value_type, Allocator_raw, Deleter</text>
<text text-anchor="start" x="8" y="-52.1" font-family="Helvetica,sans-Serif" font-size="8.00">_raw &gt;, boost::movelib::unique_ptr&lt;</text>
<text text-anchor="middle" x="83.5" y="-43.1" font-family="Helvetica,sans-Serif" font-size="8.00"> value_type, Deleter_raw &gt; &gt; &gt;</text>
</a>
</g>
</g>
<!-- Node6&#45;&gt;Node1 -->
<g id="edge5" class="edge">
<title>Node6&#45;&gt;Node1</title>
<path fill="none" stroke="#9a32cd" stroke-dasharray="5,2" d="M176.76,-125.6C206.55,-137.14 239.69,-150.06 270,-162 279.33,-165.68 289.33,-169.65 298.82,-173.45"/>
<polygon fill="#9a32cd" stroke="#9a32cd" points="177.81,-122.25 167.22,-121.9 175.28,-128.77 177.81,-122.25"/>
<text text-anchor="middle" x="227.5" y="-164.6" font-family="Helvetica,sans-Serif" font-size="8.00"> m_buf_ptr</text>
</g>
<!-- Node7 -->
<g id="node7" class="node">
<title>Node7</title>
<g id="a_node7"><a xlink:title=" ">
<polygon fill="white" stroke="#bfbfbf" points="63.5,-0.5 63.5,-17.5 103.5,-17.5 103.5,-0.5 63.5,-0.5"/>
<text text-anchor="middle" x="83.5" y="-7.1" font-family="Helvetica,sans-Serif" font-size="8.00">size_t</text>
</a>
</g>
</g>
<!-- Node7&#45;&gt;Node1 -->
<g id="edge6" class="edge">
<title>Node7&#45;&gt;Node1</title>
<path fill="none" stroke="#9a32cd" stroke-dasharray="5,2" d="M113.5,-12.46C129.72,-15.1 150.03,-19.58 167,-27 218.17,-49.39 229.39,-60.65 270,-99 294.54,-122.18 317.74,-153.98 331.02,-173.48"/>
<polygon fill="#9a32cd" stroke="#9a32cd" points="113.91,-8.98 103.5,-10.99 112.89,-15.91 113.91,-8.98"/>
<text text-anchor="middle" x="227.5" y="-119.6" font-family="Helvetica,sans-Serif" font-size="8.00"> m_capacity</text>
<text text-anchor="middle" x="227.5" y="-110.6" font-family="Helvetica,sans-Serif" font-size="8.00">m_size</text>
<text text-anchor="middle" x="227.5" y="-101.6" font-family="Helvetica,sans-Serif" font-size="8.00">m_start</text>
</g>
</g>
</svg>
