<?xml version="1.0" encoding="UTF-8" standalone="no"?>
<!DOCTYPE svg PUBLIC "-//W3C//DTD SVG 1.1//EN"
 "http://www.w3.org/Graphics/SVG/1.1/DTD/svg11.dtd">
<!-- Generated by graphviz version 2.43.0 (0)
 -->
<!-- Title: flow::log::Verbosity_config::component_sev_pairs Pages: 1 -->
<svg width="285pt" height="80pt"
 viewBox="0.00 0.00 285.00 80.00" xmlns="http://www.w3.org/2000/svg" xmlns:xlink="http://www.w3.org/1999/xlink">
<g id="graph0" class="graph" transform="scale(1 1) rotate(0) translate(4 76)">
<title>flow::log::Verbosity_config::component_sev_pairs</title>
<polygon fill="white" stroke="transparent" points="-4,4 -4,-76 281,-76 281,4 -4,4"/>
<!-- Node1 -->
<g id="node1" class="node">
<title>Node1</title>
<g id="a_node1"><a xlink:title="Read&#45;only access to encapsulated config; specifies the verbosity&#45;setting calls to make on a Config in...">
<polygon fill="#bfbfbf" stroke="black" points="137,-22.5 137,-48.5 277,-48.5 277,-22.5 137,-22.5"/>
<text text-anchor="start" x="145" y="-38.1" font-family="Helvetica,sans-Serif" font-size="8.00">flow::log::Verbosity</text>
<text text-anchor="middle" x="207" y="-29.1" font-family="Helvetica,sans-Serif" font-size="8.00">_config::component_sev_pairs</text>
</a>
</g>
</g>
<!-- Node2 -->
<g id="node2" class="node">
<title>Node2</title>
<g id="a_node2"><a xlink:href="classflow_1_1log_1_1Verbosity__config.html#a8cf08ca4573526c68e0164a6915b6e44" target="_top" xlink:title="Serializes a Verbosity_config to a standard output stream.">
<polygon fill="white" stroke="black" points="0,-45.5 0,-71.5 101,-71.5 101,-45.5 0,-45.5"/>
<text text-anchor="start" x="8" y="-61.1" font-family="Helvetica,sans-Serif" font-size="8.00">flow::log::Verbosity</text>
<text text-anchor="middle" x="50.5" y="-52.1" font-family="Helvetica,sans-Serif" font-size="8.00">_config::operator&lt;&lt;</text>
</a>
</g>
</g>
<!-- Node1&#45;&gt;Node2 -->
<g id="edge1" class="edge">
<title>Node1&#45;&gt;Node2</title>
<path fill="none" stroke="midnightblue" d="M126.96,-47.27C118.16,-48.58 109.4,-49.88 101.12,-51.11"/>
<polygon fill="midnightblue" stroke="midnightblue" points="127.51,-50.72 136.88,-45.79 126.48,-43.8 127.51,-50.72"/>
</g>
<!-- Node3 -->
<g id="node3" class="node">
<title>Node3</title>
<g id="a_node3"><a xlink:href="classflow_1_1log_1_1Verbosity__config.html#abfd655adc908d249fe66baf6e8e426e6" target="_top" xlink:title="Checks for exact equality of two Verbosity_config objects.">
<polygon fill="white" stroke="black" points="0,-0.5 0,-26.5 101,-26.5 101,-0.5 0,-0.5"/>
<text text-anchor="start" x="8" y="-16.1" font-family="Helvetica,sans-Serif" font-size="8.00">flow::log::Verbosity</text>
<text text-anchor="middle" x="50.5" y="-7.1" font-family="Helvetica,sans-Serif" font-size="8.00">_config::operator==</text>
</a>
</g>
</g>
<!-- Node1&#45;&gt;Node3 -->
<g id="edge2" class="edge">
<title>Node1&#45;&gt;Node3</title>
<path fill="none" stroke="midnightblue" d="M126.96,-24.25C118.16,-22.99 109.4,-21.74 101.12,-20.57"/>
<polygon fill="midnightblue" stroke="midnightblue" points="126.49,-27.71 136.88,-25.66 127.48,-20.78 126.49,-27.71"/>
</g>
</g>
</svg>
