<?xml version="1.0" encoding="UTF-8" standalone="no"?>
<!DOCTYPE svg PUBLIC "-//W3C//DTD SVG 1.1//EN"
 "http://www.w3.org/Graphics/SVG/1.1/DTD/svg11.dtd">
<!-- Generated by graphviz version 2.43.0 (0)
 -->
<!-- Title: flow::net_flow::Node::sync_sock_low_lvl_rst_send Pages: 1 -->
<svg width="297pt" height="72pt"
 viewBox="0.00 0.00 297.00 71.50" xmlns="http://www.w3.org/2000/svg" xmlns:xlink="http://www.w3.org/1999/xlink">
<g id="graph0" class="graph" transform="scale(1 1) rotate(0) translate(4 67.5)">
<title>flow::net_flow::Node::sync_sock_low_lvl_rst_send</title>
<polygon fill="white" stroke="transparent" points="-4,4 -4,-67.5 293,-67.5 293,4 -4,4"/>
<!-- Node1 -->
<g id="node1" class="node">
<title>Node1</title>
<g id="a_node1"><a xlink:title="Sends an RST to the other side of the given socket, synchronously.">
<polygon fill="#bfbfbf" stroke="black" points="0,-16 0,-42 133,-42 133,-16 0,-16"/>
<text text-anchor="start" x="8" y="-31.6" font-family="Helvetica,sans-Serif" font-size="8.00">flow::net_flow::Node</text>
<text text-anchor="middle" x="66.5" y="-22.6" font-family="Helvetica,sans-Serif" font-size="8.00">::sync_sock_low_lvl_rst_send</text>
</a>
</g>
</g>
<!-- Node2 -->
<g id="node2" class="node">
<title>Node2</title>
<g id="a_node2"><a xlink:href="classflow_1_1log_1_1Log__context.html#af4db395042b065b00398cd59845dcb4d" target="_top" xlink:title="Returns the stored Logger pointer, particularly as many FLOW_LOG_*() macros expect.">
<polygon fill="white" stroke="black" points="175.5,-37 175.5,-63 282.5,-63 282.5,-37 175.5,-37"/>
<text text-anchor="start" x="183.5" y="-52.6" font-family="Helvetica,sans-Serif" font-size="8.00">flow::log::Log_context</text>
<text text-anchor="middle" x="229" y="-43.6" font-family="Helvetica,sans-Serif" font-size="8.00">::get_logger</text>
</a>
</g>
</g>
<!-- Node1&#45;&gt;Node2 -->
<g id="edge1" class="edge">
<title>Node1&#45;&gt;Node2</title>
<path fill="none" stroke="midnightblue" d="M133.24,-37.6C143.87,-38.99 154.85,-40.43 165.4,-41.81"/>
<polygon fill="midnightblue" stroke="midnightblue" points="164.99,-45.29 175.36,-43.11 165.9,-38.34 164.99,-45.29"/>
</g>
<!-- Node3 -->
<g id="node3" class="node">
<title>Node3</title>
<g id="a_node3"><a xlink:href="classflow_1_1net__flow_1_1Node.html#a43c42121d48a55a43a48e3a84bd10595" target="_top" xlink:title="Obtain a copy of the value of a given option in a thread&#45;safe manner.">
<polygon fill="white" stroke="black" points="169,-0.5 169,-17.5 289,-17.5 289,-0.5 169,-0.5"/>
<text text-anchor="middle" x="229" y="-7.1" font-family="Helvetica,sans-Serif" font-size="8.00">flow::net_flow::Node::opt</text>
</a>
</g>
</g>
<!-- Node1&#45;&gt;Node3 -->
<g id="edge2" class="edge">
<title>Node1&#45;&gt;Node3</title>
<path fill="none" stroke="midnightblue" d="M133.24,-20.81C141.61,-19.76 150.2,-18.69 158.63,-17.64"/>
<polygon fill="midnightblue" stroke="midnightblue" points="159.31,-21.09 168.8,-16.38 158.44,-14.14 159.31,-21.09"/>
</g>
</g>
</svg>
