<?xml version="1.0" encoding="UTF-8" standalone="no"?>
<!DOCTYPE svg PUBLIC "-//W3C//DTD SVG 1.1//EN"
 "http://www.w3.org/Graphics/SVG/1.1/DTD/svg11.dtd">
<!-- Generated by graphviz version 2.43.0 (0)
 -->
<!-- Title: flow::log::Verbosity_config::apply_to_config Pages: 1 -->
<svg width="514pt" height="98pt"
 viewBox="0.00 0.00 514.00 98.00" xmlns="http://www.w3.org/2000/svg" xmlns:xlink="http://www.w3.org/1999/xlink">
<g id="graph0" class="graph" transform="scale(1 1) rotate(0) translate(4 94)">
<title>flow::log::Verbosity_config::apply_to_config</title>
<polygon fill="white" stroke="transparent" points="-4,4 -4,-94 510,-94 510,4 -4,4"/>
<!-- Node1 -->
<g id="node1" class="node">
<title>Node1</title>
<g id="a_node1"><a xlink:title="Applies *this to to the given log::Config.">
<polygon fill="#bfbfbf" stroke="black" points="0,-22.5 0,-48.5 116,-48.5 116,-22.5 0,-22.5"/>
<text text-anchor="start" x="8" y="-38.1" font-family="Helvetica,sans-Serif" font-size="8.00">flow::log::Verbosity</text>
<text text-anchor="middle" x="58" y="-29.1" font-family="Helvetica,sans-Serif" font-size="8.00">_config::apply_to_config</text>
</a>
</g>
</g>
<!-- Node2 -->
<g id="node2" class="node">
<title>Node2</title>
<g id="a_node2"><a xlink:href="namespaceflow_1_1util.html#a685b86585da2fa5186f51854e7ae1561" target="_top" xlink:title="Equivalent to ostream_op_to_string() but returns a new string by value instead of writing to the call...">
<polygon fill="white" stroke="black" points="152,-22.5 152,-48.5 244,-48.5 244,-22.5 152,-22.5"/>
<text text-anchor="start" x="160" y="-38.1" font-family="Helvetica,sans-Serif" font-size="8.00">flow::util::ostream</text>
<text text-anchor="middle" x="198" y="-29.1" font-family="Helvetica,sans-Serif" font-size="8.00">_op_string</text>
</a>
</g>
</g>
<!-- Node1&#45;&gt;Node2 -->
<g id="edge1" class="edge">
<title>Node1&#45;&gt;Node2</title>
<path fill="none" stroke="midnightblue" d="M116.33,-35.5C124.75,-35.5 133.41,-35.5 141.79,-35.5"/>
<polygon fill="midnightblue" stroke="midnightblue" points="141.84,-39 151.84,-35.5 141.84,-32 141.84,-39"/>
</g>
<!-- Node3 -->
<g id="node3" class="node">
<title>Node3</title>
<g id="a_node3"><a xlink:href="namespaceflow_1_1util.html#a8afd30c50bcd670d45442df49d1da484" target="_top" xlink:title="Writes to the specified string, as if the given arguments were each passed, via &lt;&lt; in sequence,...">
<polygon fill="white" stroke="black" points="280,-22.5 280,-48.5 372,-48.5 372,-22.5 280,-22.5"/>
<text text-anchor="start" x="288" y="-38.1" font-family="Helvetica,sans-Serif" font-size="8.00">flow::util::ostream</text>
<text text-anchor="middle" x="326" y="-29.1" font-family="Helvetica,sans-Serif" font-size="8.00">_op_to_string</text>
</a>
</g>
</g>
<!-- Node2&#45;&gt;Node3 -->
<g id="edge2" class="edge">
<title>Node2&#45;&gt;Node3</title>
<path fill="none" stroke="midnightblue" d="M244.13,-35.5C252.37,-35.5 261.04,-35.5 269.53,-35.5"/>
<polygon fill="midnightblue" stroke="midnightblue" points="269.76,-39 279.76,-35.5 269.76,-32 269.76,-39"/>
</g>
<!-- Node4 -->
<g id="node4" class="node">
<title>Node4</title>
<g id="a_node4"><a xlink:href="namespaceflow_1_1util.html#af92e6183c2071f4166d4b5a91f50d70c" target="_top" xlink:title="&quot;Induction step&quot; version of variadic function template that simply outputs arguments 2+ via &lt;&lt; to the...">
<polygon fill="white" stroke="black" points="408,-45.5 408,-71.5 506,-71.5 506,-45.5 408,-45.5"/>
<text text-anchor="start" x="416" y="-61.1" font-family="Helvetica,sans-Serif" font-size="8.00">flow::util::feed_args</text>
<text text-anchor="middle" x="457" y="-52.1" font-family="Helvetica,sans-Serif" font-size="8.00">_to_ostream</text>
</a>
</g>
</g>
<!-- Node3&#45;&gt;Node4 -->
<g id="edge3" class="edge">
<title>Node3&#45;&gt;Node4</title>
<path fill="none" stroke="midnightblue" d="M372.12,-43.54C380.37,-45.02 389.09,-46.57 397.66,-48.1"/>
<polygon fill="midnightblue" stroke="midnightblue" points="397.16,-51.56 407.62,-49.87 398.38,-44.67 397.16,-51.56"/>
</g>
<!-- Node5 -->
<g id="node5" class="node">
<title>Node5</title>
<g id="a_node5"><a xlink:href="classflow_1_1util_1_1String__ostream.html#a7e64b069ae0e221952068c13fdc0f080" target="_top" xlink:title="Access to stream that will write to owned string.">
<polygon fill="white" stroke="black" points="416,-0.5 416,-26.5 498,-26.5 498,-0.5 416,-0.5"/>
<text text-anchor="start" x="424" y="-16.1" font-family="Helvetica,sans-Serif" font-size="8.00">flow::util::String</text>
<text text-anchor="middle" x="457" y="-7.1" font-family="Helvetica,sans-Serif" font-size="8.00">_ostream::os</text>
</a>
</g>
</g>
<!-- Node3&#45;&gt;Node5 -->
<g id="edge5" class="edge">
<title>Node3&#45;&gt;Node5</title>
<path fill="none" stroke="midnightblue" d="M372.12,-27.81C383.02,-25.95 394.74,-23.95 405.86,-22.05"/>
<polygon fill="midnightblue" stroke="midnightblue" points="406.59,-25.48 415.86,-20.35 405.41,-18.58 406.59,-25.48"/>
</g>
<!-- Node4&#45;&gt;Node4 -->
<g id="edge4" class="edge">
<title>Node4&#45;&gt;Node4</title>
<path fill="none" stroke="midnightblue" d="M435.01,-71.77C428.34,-80.96 435.67,-90 457,-90 470,-90 477.8,-86.64 480.4,-81.94"/>
<polygon fill="midnightblue" stroke="midnightblue" points="483.83,-81.2 478.99,-71.77 476.89,-82.16 483.83,-81.2"/>
</g>
</g>
</svg>
