<?xml version="1.0" encoding="UTF-8" standalone="no"?>
<!DOCTYPE svg PUBLIC "-//W3C//DTD SVG 1.1//EN"
 "http://www.w3.org/Graphics/SVG/1.1/DTD/svg11.dtd">
<!-- Generated by graphviz version 2.43.0 (0)
 -->
<!-- Title: flow::util::Linked_hash_map::operator[] Pages: 1 -->
<svg width="239pt" height="53pt"
 viewBox="0.00 0.00 239.00 53.00" xmlns="http://www.w3.org/2000/svg" xmlns:xlink="http://www.w3.org/1999/xlink">
<g id="graph0" class="graph" transform="scale(1 1) rotate(0) translate(4 49)">
<title>flow::util::Linked_hash_map::operator[]</title>
<polygon fill="white" stroke="transparent" points="-4,4 -4,-49 235,-49 235,4 -4,4"/>
<!-- Node1 -->
<g id="node1" class="node">
<title>Node1</title>
<g id="a_node1"><a xlink:title="Identical to the other overload, except that (if key not already present in *this) the key is moved,...">
<polygon fill="#bfbfbf" stroke="black" points="0,-0.5 0,-26.5 110,-26.5 110,-0.5 0,-0.5"/>
<text text-anchor="start" x="8" y="-16.1" font-family="Helvetica,sans-Serif" font-size="8.00">flow::util::Linked</text>
<text text-anchor="middle" x="55" y="-7.1" font-family="Helvetica,sans-Serif" font-size="8.00">_hash_map::operator[]</text>
</a>
</g>
</g>
<!-- Node2 -->
<g id="node2" class="node">
<title>Node2</title>
<g id="a_node2"><a xlink:href="classflow_1_1util_1_1Linked__hash__map.html#a9a18e44447eb0b848f1ed4c6d947427d" target="_top" xlink:title="Attempts to find value at the given key in the map.">
<polygon fill="white" stroke="black" points="146,-0.5 146,-26.5 231,-26.5 231,-0.5 146,-0.5"/>
<text text-anchor="start" x="154" y="-16.1" font-family="Helvetica,sans-Serif" font-size="8.00">flow::util::Linked</text>
<text text-anchor="middle" x="188.5" y="-7.1" font-family="Helvetica,sans-Serif" font-size="8.00">_hash_map::find</text>
</a>
</g>
</g>
<!-- Node1&#45;&gt;Node2 -->
<g id="edge1" class="edge">
<title>Node1&#45;&gt;Node2</title>
<path fill="none" stroke="midnightblue" d="M110.25,-13.5C118.7,-13.5 127.41,-13.5 135.8,-13.5"/>
<polygon fill="midnightblue" stroke="midnightblue" points="135.84,-17 145.84,-13.5 135.84,-10 135.84,-17"/>
</g>
<!-- Node2&#45;&gt;Node2 -->
<g id="edge2" class="edge">
<title>Node2&#45;&gt;Node2</title>
<path fill="none" stroke="midnightblue" d="M166.17,-26.77C159.4,-35.96 166.84,-45 188.5,-45 201.7,-45 209.62,-41.64 212.26,-36.94"/>
<polygon fill="midnightblue" stroke="midnightblue" points="215.69,-36.19 210.83,-26.77 208.75,-37.16 215.69,-36.19"/>
</g>
</g>
</svg>
