<?xml version="1.0" encoding="UTF-8" standalone="no"?>
<!DOCTYPE svg PUBLIC "-//W3C//DTD SVG 1.1//EN"
 "http://www.w3.org/Graphics/SVG/1.1/DTD/svg11.dtd">
<!-- Generated by graphviz version 2.43.0 (0)
 -->
<!-- Title: flow::net_flow::Peer_socket::info Pages: 1 -->
<svg width="544pt" height="206pt"
 viewBox="0.00 0.00 544.00 205.50" xmlns="http://www.w3.org/2000/svg" xmlns:xlink="http://www.w3.org/1999/xlink">
<g id="graph0" class="graph" transform="scale(1 1) rotate(0) translate(4 201.5)">
<title>flow::net_flow::Peer_socket::info</title>
<polygon fill="white" stroke="transparent" points="-4,4 -4,-201.5 540,-201.5 540,4 -4,4"/>
<!-- Node1 -->
<g id="node1" class="node">
<title>Node1</title>
<g id="a_node1"><a xlink:title="Returns a structure containing the most up&#45;to&#45;date stats about this connection.">
<polygon fill="#bfbfbf" stroke="black" points="0,-109.5 0,-135.5 97,-135.5 97,-109.5 0,-109.5"/>
<text text-anchor="start" x="8" y="-125.1" font-family="Helvetica,sans-Serif" font-size="8.00">flow::net_flow::Peer</text>
<text text-anchor="middle" x="48.5" y="-116.1" font-family="Helvetica,sans-Serif" font-size="8.00">_socket::info</text>
</a>
</g>
</g>
<!-- Node2 -->
<g id="node2" class="node">
<title>Node2</title>
<g id="a_node2"><a xlink:href="classflow_1_1net__flow_1_1Node.html#a109a118ca312e94686595ea08dac7ad0" target="_top" xlink:title="Helper method that checks whether the given Peer_socket or Server_socket is CLOSED; if so,...">
<polygon fill="white" stroke="black" points="133,-132.5 133,-158.5 234,-158.5 234,-132.5 133,-132.5"/>
<text text-anchor="start" x="141" y="-148.1" font-family="Helvetica,sans-Serif" font-size="8.00">flow::net_flow::Node</text>
<text text-anchor="middle" x="183.5" y="-139.1" font-family="Helvetica,sans-Serif" font-size="8.00">::ensure_sock_open</text>
</a>
</g>
</g>
<!-- Node1&#45;&gt;Node2 -->
<g id="edge1" class="edge">
<title>Node1&#45;&gt;Node2</title>
<path fill="none" stroke="midnightblue" d="M97.14,-130.74C105.5,-132.18 114.29,-133.7 122.92,-135.2"/>
<polygon fill="midnightblue" stroke="midnightblue" points="122.5,-138.68 132.95,-136.93 123.69,-131.78 122.5,-138.68"/>
</g>
<!-- Node3 -->
<g id="node3" class="node">
<title>Node3</title>
<g id="a_node3"><a xlink:href="classflow_1_1net__flow_1_1Node.html#a07ad769737db60dd637365010b80f4f3" target="_top" xlink:title="Implementation of sock&#45;&gt;info() for socket sock in all cases except when sock&#45;&gt;state() == Peer_socket:...">
<polygon fill="white" stroke="black" points="133,-87.5 133,-113.5 234,-113.5 234,-87.5 133,-87.5"/>
<text text-anchor="start" x="141" y="-103.1" font-family="Helvetica,sans-Serif" font-size="8.00">flow::net_flow::Node</text>
<text text-anchor="middle" x="183.5" y="-94.1" font-family="Helvetica,sans-Serif" font-size="8.00">::sock_info</text>
</a>
</g>
</g>
<!-- Node1&#45;&gt;Node3 -->
<g id="edge2" class="edge">
<title>Node1&#45;&gt;Node3</title>
<path fill="none" stroke="midnightblue" d="M97.14,-114.62C105.5,-113.24 114.29,-111.78 122.92,-110.36"/>
<polygon fill="midnightblue" stroke="midnightblue" points="123.65,-113.78 132.95,-108.7 122.51,-106.88 123.65,-113.78"/>
</g>
<!-- Node4 -->
<g id="node4" class="node">
<title>Node4</title>
<g id="a_node4"><a xlink:href="namespaceflow_1_1async.html#a24567271e97a67d3cae6bd8bf8dc63c4" target="_top" xlink:title="An extension of boost.asio&#39;s post() and dispatch() free function templates, this free function templa...">
<polygon fill="white" stroke="black" points="270.5,-155.5 270.5,-181.5 379.5,-181.5 379.5,-155.5 270.5,-155.5"/>
<text text-anchor="start" x="278.5" y="-171.1" font-family="Helvetica,sans-Serif" font-size="8.00">flow::async::asio_exec</text>
<text text-anchor="middle" x="325" y="-162.1" font-family="Helvetica,sans-Serif" font-size="8.00">_ctx_post</text>
</a>
</g>
</g>
<!-- Node3&#45;&gt;Node4 -->
<g id="edge3" class="edge">
<title>Node3&#45;&gt;Node4</title>
<path fill="none" stroke="midnightblue" d="M214.4,-113.61C220.94,-116.69 227.77,-120.08 234,-123.5 250.65,-132.63 253.14,-137.77 270,-146.5 273.25,-148.18 276.65,-149.83 280.11,-151.41"/>
<polygon fill="midnightblue" stroke="midnightblue" points="278.73,-154.63 289.3,-155.45 281.55,-148.22 278.73,-154.63"/>
</g>
<!-- Node7 -->
<g id="node7" class="node">
<title>Node7</title>
<g id="a_node7"><a xlink:href="classflow_1_1log_1_1Log__context.html#af4db395042b065b00398cd59845dcb4d" target="_top" xlink:title="Returns the stored Logger pointer, particularly as many FLOW_LOG_*() macros expect.">
<polygon fill="white" stroke="black" points="271.5,-110.5 271.5,-136.5 378.5,-136.5 378.5,-110.5 271.5,-110.5"/>
<text text-anchor="start" x="279.5" y="-126.1" font-family="Helvetica,sans-Serif" font-size="8.00">flow::log::Log_context</text>
<text text-anchor="middle" x="325" y="-117.1" font-family="Helvetica,sans-Serif" font-size="8.00">::get_logger</text>
</a>
</g>
</g>
<!-- Node3&#45;&gt;Node7 -->
<g id="edge6" class="edge">
<title>Node3&#45;&gt;Node7</title>
<path fill="none" stroke="midnightblue" d="M234.08,-108.67C242.84,-110.12 252.07,-111.64 261.14,-113.14"/>
<polygon fill="midnightblue" stroke="midnightblue" points="260.84,-116.63 271.28,-114.81 261.98,-109.73 260.84,-116.63"/>
</g>
<!-- Node8 -->
<g id="node8" class="node">
<title>Node8</title>
<g id="a_node8"><a xlink:href="classflow_1_1net__flow_1_1Node.html#aae148cec361b59237996a4b30c6624b5" target="_top" xlink:title="Returns true if and only if the Node is operating.">
<polygon fill="white" stroke="black" points="274.5,-65.5 274.5,-91.5 375.5,-91.5 375.5,-65.5 274.5,-65.5"/>
<text text-anchor="start" x="282.5" y="-81.1" font-family="Helvetica,sans-Serif" font-size="8.00">flow::net_flow::Node</text>
<text text-anchor="middle" x="325" y="-72.1" font-family="Helvetica,sans-Serif" font-size="8.00">::running</text>
</a>
</g>
</g>
<!-- Node3&#45;&gt;Node8 -->
<g id="edge7" class="edge">
<title>Node3&#45;&gt;Node8</title>
<path fill="none" stroke="midnightblue" d="M234.08,-92.68C243.83,-91.14 254.15,-89.52 264.2,-87.93"/>
<polygon fill="midnightblue" stroke="midnightblue" points="264.78,-91.38 274.11,-86.37 263.69,-84.47 264.78,-91.38"/>
</g>
<!-- Node9 -->
<g id="node9" class="node">
<title>Node9</title>
<g id="a_node9"><a xlink:href="classflow_1_1net__flow_1_1Node.html#a2336fae98b318ab73e7268e9a242bf09" target="_top" xlink:title="Given a Peer_socket, copies all stats info (as available via Peer_socket::info()) from various struct...">
<polygon fill="white" stroke="black" points="270,-20.5 270,-46.5 380,-46.5 380,-20.5 270,-20.5"/>
<text text-anchor="start" x="278" y="-36.1" font-family="Helvetica,sans-Serif" font-size="8.00">flow::net_flow::Node</text>
<text text-anchor="middle" x="325" y="-27.1" font-family="Helvetica,sans-Serif" font-size="8.00">::sock_load_info_struct</text>
</a>
</g>
</g>
<!-- Node3&#45;&gt;Node9 -->
<g id="edge8" class="edge">
<title>Node3&#45;&gt;Node9</title>
<path fill="none" stroke="midnightblue" d="M207.78,-87.46C224.8,-78.12 248.56,-65.48 270,-55.5 273.56,-53.84 277.29,-52.18 281.04,-50.55"/>
<polygon fill="midnightblue" stroke="midnightblue" points="282.52,-53.73 290.37,-46.61 279.79,-47.28 282.52,-53.73"/>
</g>
<!-- Node5 -->
<g id="node5" class="node">
<title>Node5</title>
<g id="a_node5"><a xlink:href="namespaceflow_1_1async.html#a4cce43f39672e80cba5512103c53ae60" target="_top" xlink:title="Returns the 0&#45;based processor logical (not hardware) core index of the core executing the calling thr...">
<polygon fill="white" stroke="black" points="426,-180 426,-197 526,-197 526,-180 426,-180"/>
<text text-anchor="middle" x="476" y="-186.6" font-family="Helvetica,sans-Serif" font-size="8.00">flow::async::cpu_idx</text>
</a>
</g>
</g>
<!-- Node4&#45;&gt;Node5 -->
<g id="edge4" class="edge">
<title>Node4&#45;&gt;Node5</title>
<path fill="none" stroke="midnightblue" d="M379.79,-175.72C391.4,-177.28 403.73,-178.93 415.54,-180.52"/>
<polygon fill="midnightblue" stroke="midnightblue" points="415.37,-184.03 425.75,-181.89 416.3,-177.09 415.37,-184.03"/>
</g>
<!-- Node6 -->
<g id="node6" class="node">
<title>Node6</title>
<g id="a_node6"><a xlink:href="classflow_1_1log_1_1Logger.html#ac8a2e7a33fe3fbc0c29ead62ed98c022" target="_top" xlink:title="Given attributes of a hypothetical message that would be logged, return true if that message should b...">
<polygon fill="white" stroke="black" points="430,-134.5 430,-160.5 522,-160.5 522,-134.5 430,-134.5"/>
<text text-anchor="start" x="438" y="-150.1" font-family="Helvetica,sans-Serif" font-size="8.00">flow::log::Logger::</text>
<text text-anchor="middle" x="476" y="-141.1" font-family="Helvetica,sans-Serif" font-size="8.00">should_log</text>
</a>
</g>
</g>
<!-- Node4&#45;&gt;Node6 -->
<g id="edge5" class="edge">
<title>Node4&#45;&gt;Node6</title>
<path fill="none" stroke="midnightblue" d="M379.79,-160.92C392.68,-159.1 406.47,-157.16 419.44,-155.33"/>
<polygon fill="midnightblue" stroke="midnightblue" points="420.22,-158.75 429.64,-153.89 419.25,-151.82 420.22,-158.75"/>
</g>
<!-- Node10 -->
<g id="node10" class="node">
<title>Node10</title>
<g id="a_node10"><a xlink:href="classflow_1_1net__flow_1_1Node.html#a43c42121d48a55a43a48e3a84bd10595" target="_top" xlink:title="Obtain a copy of the value of a given option in a thread&#45;safe manner.">
<polygon fill="white" stroke="black" points="416,-46 416,-63 536,-63 536,-46 416,-46"/>
<text text-anchor="middle" x="476" y="-52.6" font-family="Helvetica,sans-Serif" font-size="8.00">flow::net_flow::Node::opt</text>
</a>
</g>
</g>
<!-- Node9&#45;&gt;Node10 -->
<g id="edge9" class="edge">
<title>Node9&#45;&gt;Node10</title>
<path fill="none" stroke="midnightblue" d="M380.21,-41.14C388.53,-42.31 397.2,-43.54 405.79,-44.75"/>
<polygon fill="midnightblue" stroke="midnightblue" points="405.4,-48.23 415.79,-46.16 406.38,-41.29 405.4,-48.23"/>
</g>
<!-- Node11 -->
<g id="node11" class="node">
<title>Node11</title>
<g id="a_node11"><a xlink:href="classflow_1_1net__flow_1_1Node.html#ac397d3fd163f1456b7bb370a3cff951c" target="_top" xlink:title="Computes and returns the currently correct rcv_wnd value; that is the amount of space free in Receive...">
<polygon fill="white" stroke="black" points="425.5,-0.5 425.5,-26.5 526.5,-26.5 526.5,-0.5 425.5,-0.5"/>
<text text-anchor="start" x="433.5" y="-16.1" font-family="Helvetica,sans-Serif" font-size="8.00">flow::net_flow::Node</text>
<text text-anchor="middle" x="476" y="-7.1" font-family="Helvetica,sans-Serif" font-size="8.00">::sock_rcv_wnd</text>
</a>
</g>
</g>
<!-- Node9&#45;&gt;Node11 -->
<g id="edge10" class="edge">
<title>Node9&#45;&gt;Node11</title>
<path fill="none" stroke="midnightblue" d="M380.21,-26.22C391.54,-24.7 403.54,-23.09 415.07,-21.54"/>
<polygon fill="midnightblue" stroke="midnightblue" points="415.59,-25.01 425.04,-20.21 414.66,-18.07 415.59,-25.01"/>
</g>
</g>
</svg>
