<?xml version="1.0" encoding="UTF-8" standalone="no"?>
<!DOCTYPE svg PUBLIC "-//W3C//DTD SVG 1.1//EN"
 "http://www.w3.org/Graphics/SVG/1.1/DTD/svg11.dtd">
<!-- Generated by graphviz version 2.43.0 (0)
 -->
<!-- Title: flow::log::Component Pages: 1 -->
<svg width="256pt" height="98pt"
 viewBox="0.00 0.00 255.50 98.00" xmlns="http://www.w3.org/2000/svg" xmlns:xlink="http://www.w3.org/1999/xlink">
<g id="graph0" class="graph" transform="scale(1 1) rotate(0) translate(4 94)">
<title>flow::log::Component</title>
<polygon fill="white" stroke="transparent" points="-4,4 -4,-94 251.5,-94 251.5,4 -4,4"/>
<!-- Node1 -->
<g id="node1" class="node">
<title>Node1</title>
<g id="a_node1"><a xlink:title="A light&#45;weight class, each object storing a component payload encoding an enum value from enum type o...">
<polygon fill="#bfbfbf" stroke="black" points="51,-0.5 51,-17.5 156,-17.5 156,-0.5 51,-0.5"/>
<text text-anchor="middle" x="103.5" y="-7.1" font-family="Helvetica,sans-Serif" font-size="8.00">flow::log::Component</text>
</a>
</g>
</g>
<!-- Node2 -->
<g id="node2" class="node">
<title>Node2</title>
<g id="a_node2"><a xlink:title=" ">
<polygon fill="white" stroke="#bfbfbf" points="0,-72.5 0,-89.5 85,-89.5 85,-72.5 0,-72.5"/>
<text text-anchor="middle" x="42.5" y="-79.1" font-family="Helvetica,sans-Serif" font-size="8.00">type_info const *</text>
</a>
</g>
</g>
<!-- Node2&#45;&gt;Node1 -->
<g id="edge1" class="edge">
<title>Node2&#45;&gt;Node1</title>
<path fill="none" stroke="#9a32cd" stroke-dasharray="5,2" d="M38.7,-62.29C37.85,-53.68 38.4,-43.58 43.5,-36 49.39,-27.24 58.92,-21.41 68.67,-17.55"/>
<polygon fill="#9a32cd" stroke="#9a32cd" points="35.29,-63.13 40.38,-72.42 42.2,-61.98 35.29,-63.13"/>
<text text-anchor="middle" x="93.5" y="-43.1" font-family="Helvetica,sans-Serif" font-size="8.00"> m_payload_type_or_null</text>
</g>
<!-- Node3 -->
<g id="node3" class="node">
<title>Node3</title>
<g id="a_node3"><a xlink:title=" ">
<polygon fill="white" stroke="#bfbfbf" points="131.5,-72.5 131.5,-89.5 199.5,-89.5 199.5,-72.5 131.5,-72.5"/>
<text text-anchor="middle" x="165.5" y="-79.1" font-family="Helvetica,sans-Serif" font-size="8.00">unsigned int</text>
</a>
</g>
</g>
<!-- Node3&#45;&gt;Node1 -->
<g id="edge2" class="edge">
<title>Node3&#45;&gt;Node1</title>
<path fill="none" stroke="#9a32cd" stroke-dasharray="5,2" d="M159.46,-62.9C155.79,-54.18 150.46,-43.79 143.5,-36 136.77,-28.46 127.37,-22.21 119.37,-17.72"/>
<polygon fill="#9a32cd" stroke="#9a32cd" points="156.26,-64.35 163.11,-72.44 162.8,-61.85 156.26,-64.35"/>
<text text-anchor="start" x="154.5" y="-47.6" font-family="Helvetica,sans-Serif" font-size="8.00"> m_payload_enum_raw</text>
<text text-anchor="middle" x="201" y="-38.6" font-family="Helvetica,sans-Serif" font-size="8.00">_value</text>
</g>
</g>
</svg>
