<?xml version="1.0" encoding="UTF-8" standalone="no"?>
<!DOCTYPE svg PUBLIC "-//W3C//DTD SVG 1.1//EN"
 "http://www.w3.org/Graphics/SVG/1.1/DTD/svg11.dtd">
<!-- Generated by graphviz version 2.43.0 (0)
 -->
<!-- Title: flow::net_flow::Node::send_worker_check_state Pages: 1 -->
<svg width="963pt" height="654pt"
 viewBox="0.00 0.00 963.00 653.50" xmlns="http://www.w3.org/2000/svg" xmlns:xlink="http://www.w3.org/1999/xlink">
<g id="graph0" class="graph" transform="scale(1 1) rotate(0) translate(4 649.5)">
<title>flow::net_flow::Node::send_worker_check_state</title>
<polygon fill="white" stroke="transparent" points="-4,4 -4,-649.5 959,-649.5 959,4 -4,4"/>
<!-- Node1 -->
<g id="node1" class="node">
<title>Node1</title>
<g id="a_node1"><a xlink:title="Helper placed by send() onto W to invoke send_worker() but ensures that the socket has not entered so...">
<polygon fill="#bfbfbf" stroke="black" points="0,-295.5 0,-321.5 127,-321.5 127,-295.5 0,-295.5"/>
<text text-anchor="start" x="8" y="-311.1" font-family="Helvetica,sans-Serif" font-size="8.00">flow::net_flow::Node</text>
<text text-anchor="middle" x="63.5" y="-302.1" font-family="Helvetica,sans-Serif" font-size="8.00">::send_worker_check_state</text>
</a>
</g>
</g>
<!-- Node2 -->
<g id="node2" class="node">
<title>Node2</title>
<g id="a_node2"><a xlink:href="classflow_1_1net__flow_1_1Node.html#a10a92f11a2c9f218cdd9a55f282e79b1" target="_top" xlink:title="Thread W implemention of send(): synchronously or asynchronously send the contents of sock&#45;&gt;m_snd_buf...">
<polygon fill="white" stroke="black" points="163,-295.5 163,-321.5 264,-321.5 264,-295.5 163,-295.5"/>
<text text-anchor="start" x="171" y="-311.1" font-family="Helvetica,sans-Serif" font-size="8.00">flow::net_flow::Node</text>
<text text-anchor="middle" x="213.5" y="-302.1" font-family="Helvetica,sans-Serif" font-size="8.00">::send_worker</text>
</a>
</g>
</g>
<!-- Node1&#45;&gt;Node2 -->
<g id="edge1" class="edge">
<title>Node1&#45;&gt;Node2</title>
<path fill="none" stroke="midnightblue" d="M127.27,-308.5C135.67,-308.5 144.27,-308.5 152.62,-308.5"/>
<polygon fill="midnightblue" stroke="midnightblue" points="152.65,-312 162.65,-308.5 152.65,-305 152.65,-312"/>
</g>
<!-- Node3 -->
<g id="node3" class="node">
<title>Node3</title>
<g id="a_node3"><a xlink:href="classflow_1_1net__flow_1_1Node.html#a80d58cfa8fad00a116a38f76ccb2b868" target="_top" xlink:title="Assuming *seq_num points to the start of data.m_data, increments *seq_num to point to the datum just ...">
<polygon fill="white" stroke="black" points="322.5,-574.5 322.5,-600.5 423.5,-600.5 423.5,-574.5 322.5,-574.5"/>
<text text-anchor="start" x="330.5" y="-590.1" font-family="Helvetica,sans-Serif" font-size="8.00">flow::net_flow::Node</text>
<text text-anchor="middle" x="373" y="-581.1" font-family="Helvetica,sans-Serif" font-size="8.00">::advance_seq_num</text>
</a>
</g>
</g>
<!-- Node2&#45;&gt;Node3 -->
<g id="edge2" class="edge">
<title>Node2&#45;&gt;Node3</title>
<path fill="none" stroke="midnightblue" d="M214.85,-321.6C216.67,-363.47 228.14,-495.39 300,-565.5 303.82,-569.23 308.25,-572.32 313.01,-574.9"/>
<polygon fill="midnightblue" stroke="midnightblue" points="311.91,-578.25 322.46,-579.23 314.83,-571.88 311.91,-578.25"/>
</g>
<!-- Node4 -->
<g id="node4" class="node">
<title>Node4</title>
<g id="a_node4"><a xlink:href="classflow_1_1net__flow_1_1Node.html#aa5f7c019665d9dd91af0ad6431f8f97d" target="_top" xlink:title="Similar to async_sock_low_lvl_packet_send_paced() except it also calls close_connection_immediately(s...">
<polygon fill="white" stroke="black" points="318,-511.5 318,-555.5 428,-555.5 428,-511.5 318,-511.5"/>
<text text-anchor="start" x="326" y="-545.1" font-family="Helvetica,sans-Serif" font-size="8.00">flow::net_flow::Node</text>
<text text-anchor="start" x="326" y="-536.1" font-family="Helvetica,sans-Serif" font-size="8.00">::async_sock_low_lvl</text>
<text text-anchor="start" x="326" y="-527.1" font-family="Helvetica,sans-Serif" font-size="8.00">_packet_send_or_close</text>
<text text-anchor="middle" x="373" y="-518.1" font-family="Helvetica,sans-Serif" font-size="8.00">_immediately</text>
</a>
</g>
</g>
<!-- Node2&#45;&gt;Node4 -->
<g id="edge4" class="edge">
<title>Node2&#45;&gt;Node4</title>
<path fill="none" stroke="midnightblue" d="M217.29,-321.58C224.97,-354.75 249.28,-443.3 300,-496.5 303.14,-499.79 306.64,-502.85 310.35,-505.66"/>
<polygon fill="midnightblue" stroke="midnightblue" points="308.55,-508.68 318.77,-511.47 312.52,-502.91 308.55,-508.68"/>
</g>
<!-- Node22 -->
<g id="node9" class="node">
<title>Node22</title>
<g id="a_node9"><a xlink:href="classflow_1_1net__flow_1_1Node.html#a8a4ddf81ddbeab1f740940c4cc0d3625" target="_top" xlink:title="For each WAITING Event_set within the Node: checks for any events that hold, and if any do hold,...">
<polygon fill="white" stroke="red" points="678,-474.5 678,-500.5 806,-500.5 806,-474.5 678,-474.5"/>
<text text-anchor="start" x="686" y="-490.1" font-family="Helvetica,sans-Serif" font-size="8.00">flow::net_flow::Node</text>
<text text-anchor="middle" x="742" y="-481.1" font-family="Helvetica,sans-Serif" font-size="8.00">::event_set_all_check_delta</text>
</a>
</g>
</g>
<!-- Node2&#45;&gt;Node22 -->
<g id="edge21" class="edge">
<title>Node2&#45;&gt;Node22</title>
<path fill="none" stroke="midnightblue" d="M217.29,-321.87C224.58,-353.07 247.42,-430.5 300,-463.5 359.29,-500.72 558.39,-497.05 667.67,-491.89"/>
<polygon fill="midnightblue" stroke="midnightblue" points="668.14,-495.37 677.96,-491.39 667.8,-488.38 668.14,-495.37"/>
</g>
<!-- Node53 -->
<g id="node11" class="node">
<title>Node53</title>
<g id="a_node11"><a xlink:href="classflow_1_1net__flow_1_1Node.html#a7395ac534047f06629962ad19b3fa657" target="_top" xlink:title="Answers the perennial question of congestion and flow control: assuming there is a DATA packet to sen...">
<polygon fill="white" stroke="black" points="322.5,-427.5 322.5,-453.5 423.5,-453.5 423.5,-427.5 322.5,-427.5"/>
<text text-anchor="start" x="330.5" y="-443.1" font-family="Helvetica,sans-Serif" font-size="8.00">flow::net_flow::Node</text>
<text text-anchor="middle" x="373" y="-434.1" font-family="Helvetica,sans-Serif" font-size="8.00">::can_send</text>
</a>
</g>
</g>
<!-- Node2&#45;&gt;Node53 -->
<g id="edge13" class="edge">
<title>Node2&#45;&gt;Node53</title>
<path fill="none" stroke="midnightblue" d="M221.27,-321.83C233.69,-344.97 262.36,-392.56 300,-418.5 304.03,-421.27 308.41,-423.71 312.97,-425.84"/>
<polygon fill="midnightblue" stroke="midnightblue" points="311.92,-429.19 322.5,-429.81 314.61,-422.73 311.92,-429.19"/>
</g>
<!-- Node54 -->
<g id="node12" class="node">
<title>Node54</title>
<g id="a_node12"><a xlink:href="classflow_1_1net__flow_1_1Socket__buffer.html#a8fe3fe5f6a33cfd8fb84eb2607fbc05b" target="_top" xlink:title="Consumes (removes from the front of the internal byte buffer and returns them to the caller) a byte s...">
<polygon fill="white" stroke="black" points="307.5,-382.5 307.5,-408.5 438.5,-408.5 438.5,-382.5 307.5,-382.5"/>
<text text-anchor="start" x="315.5" y="-398.1" font-family="Helvetica,sans-Serif" font-size="8.00">flow::net_flow::Socket</text>
<text text-anchor="middle" x="373" y="-389.1" font-family="Helvetica,sans-Serif" font-size="8.00">_buffer::consume_buf_move</text>
</a>
</g>
</g>
<!-- Node2&#45;&gt;Node54 -->
<g id="edge14" class="edge">
<title>Node2&#45;&gt;Node54</title>
<path fill="none" stroke="midnightblue" d="M228.56,-321.72C244.68,-336.25 272.45,-359.39 300,-373.5 303.73,-375.41 307.66,-377.19 311.67,-378.83"/>
<polygon fill="midnightblue" stroke="midnightblue" points="310.55,-382.15 321.14,-382.44 313.04,-375.61 310.55,-382.15"/>
</g>
<!-- Node58 -->
<g id="node17" class="node">
<title>Node58</title>
<g id="a_node17"><a xlink:href="classflow_1_1net__flow_1_1Socket__buffer.html#af21cd24bba62da1d16a8fc4f9b8e37fd" target="_top" xlink:title="The total number of bytes of application&#45;layer data stored in this object.">
<polygon fill="white" stroke="black" points="319.5,-337.5 319.5,-363.5 426.5,-363.5 426.5,-337.5 319.5,-337.5"/>
<text text-anchor="start" x="327.5" y="-353.1" font-family="Helvetica,sans-Serif" font-size="8.00">flow::net_flow::Socket</text>
<text text-anchor="middle" x="373" y="-344.1" font-family="Helvetica,sans-Serif" font-size="8.00">_buffer::data_size</text>
</a>
</g>
</g>
<!-- Node2&#45;&gt;Node58 -->
<g id="edge20" class="edge">
<title>Node2&#45;&gt;Node58</title>
<path fill="none" stroke="midnightblue" d="M263.47,-321.56C279.17,-325.75 296.73,-330.43 313.07,-334.79"/>
<polygon fill="midnightblue" stroke="midnightblue" points="312.5,-338.25 323.06,-337.45 314.3,-331.49 312.5,-338.25"/>
</g>
<!-- Node10 -->
<g id="node18" class="node">
<title>Node10</title>
<g id="a_node18"><a xlink:href="classflow_1_1log_1_1Log__context.html#af4db395042b065b00398cd59845dcb4d" target="_top" xlink:title="Returns the stored Logger pointer, particularly as many FLOW_LOG_*() macros expect.">
<polygon fill="white" stroke="black" points="502.5,-220.5 502.5,-246.5 609.5,-246.5 609.5,-220.5 502.5,-220.5"/>
<text text-anchor="start" x="510.5" y="-236.1" font-family="Helvetica,sans-Serif" font-size="8.00">flow::log::Log_context</text>
<text text-anchor="middle" x="556" y="-227.1" font-family="Helvetica,sans-Serif" font-size="8.00">::get_logger</text>
</a>
</g>
</g>
<!-- Node2&#45;&gt;Node10 -->
<g id="edge22" class="edge">
<title>Node2&#45;&gt;Node10</title>
<path fill="none" stroke="midnightblue" d="M264.27,-309.98C311.85,-310.1 385.12,-306.89 446,-289.5 475.18,-281.17 505.68,-264.74 526.97,-251.82"/>
<polygon fill="midnightblue" stroke="midnightblue" points="528.84,-254.77 535.5,-246.53 525.15,-248.82 528.84,-254.77"/>
</g>
<!-- Node59 -->
<g id="node19" class="node">
<title>Node59</title>
<g id="a_node19"><a xlink:href="classflow_1_1util_1_1Shared__ptr__alias__holder.html#a55a247bb8fb2ec94b7cbfdd56be65a81" target="_top" xlink:title="Provides syntactic&#45;sugary way to perform a static_pointer_cast&lt;&gt; from a compatible smart pointer type...">
<polygon fill="white" stroke="black" points="305,-235.5 305,-279.5 441,-279.5 441,-235.5 305,-235.5"/>
<text text-anchor="start" x="313" y="-269.1" font-family="Helvetica,sans-Serif" font-size="8.00">flow::util::Shared</text>
<text text-anchor="start" x="313" y="-260.1" font-family="Helvetica,sans-Serif" font-size="8.00">_ptr_alias_holder&lt; boost</text>
<text text-anchor="start" x="313" y="-251.1" font-family="Helvetica,sans-Serif" font-size="8.00">::shared_ptr&lt; Low_lvl_packet</text>
<text text-anchor="middle" x="373" y="-242.1" font-family="Helvetica,sans-Serif" font-size="8.00"> &gt; &gt;::ptr_cast</text>
</a>
</g>
</g>
<!-- Node2&#45;&gt;Node59 -->
<g id="edge23" class="edge">
<title>Node2&#45;&gt;Node59</title>
<path fill="none" stroke="midnightblue" d="M254.65,-295.5C267.09,-291.47 281.24,-286.89 295.3,-282.34"/>
<polygon fill="midnightblue" stroke="midnightblue" points="296.56,-285.61 305,-279.2 294.41,-278.95 296.56,-285.61"/>
</g>
<!-- Node60 -->
<g id="node20" class="node">
<title>Node60</title>
<g id="a_node20"><a xlink:href="classflow_1_1net__flow_1_1Node.html#a70d124ba678e2ab72f8c6d28140ca137" target="_top" xlink:title="Return true if and only if there is enough free space in Peer_socket::m_snd_buf of sock to enqueue an...">
<polygon fill="white" stroke="black" points="322.5,-190.5 322.5,-216.5 423.5,-216.5 423.5,-190.5 322.5,-190.5"/>
<text text-anchor="start" x="330.5" y="-206.1" font-family="Helvetica,sans-Serif" font-size="8.00">flow::net_flow::Node</text>
<text text-anchor="middle" x="373" y="-197.1" font-family="Helvetica,sans-Serif" font-size="8.00">::snd_buf_enqable</text>
</a>
</g>
</g>
<!-- Node2&#45;&gt;Node60 -->
<g id="edge24" class="edge">
<title>Node2&#45;&gt;Node60</title>
<path fill="none" stroke="midnightblue" d="M224.96,-295.21C239.82,-277.19 268.72,-245.12 300,-226.5 304.08,-224.07 308.45,-221.87 312.95,-219.87"/>
<polygon fill="midnightblue" stroke="midnightblue" points="314.34,-223.09 322.29,-216.08 311.71,-216.6 314.34,-223.09"/>
</g>
<!-- Node61 -->
<g id="node21" class="node">
<title>Node61</title>
<g id="a_node21"><a xlink:href="classflow_1_1net__flow_1_1Node.html#a382b607fa2e482886f2fd75edc36b8b7" target="_top" xlink:title="Return true if and only if there are enough data either in Peer_socket::m_snd_rexmit_q of sock (if re...">
<polygon fill="white" stroke="black" points="322.5,-145.5 322.5,-171.5 423.5,-171.5 423.5,-145.5 322.5,-145.5"/>
<text text-anchor="start" x="330.5" y="-161.1" font-family="Helvetica,sans-Serif" font-size="8.00">flow::net_flow::Node</text>
<text text-anchor="middle" x="373" y="-152.1" font-family="Helvetica,sans-Serif" font-size="8.00">::snd_deqable</text>
</a>
</g>
</g>
<!-- Node2&#45;&gt;Node61 -->
<g id="edge25" class="edge">
<title>Node2&#45;&gt;Node61</title>
<path fill="none" stroke="midnightblue" d="M219.63,-295.46C230.46,-269.58 258.18,-211.59 300,-180.5 303.92,-177.58 308.24,-175.05 312.75,-172.85"/>
<polygon fill="midnightblue" stroke="midnightblue" points="314.4,-175.95 322.2,-168.78 311.63,-169.52 314.4,-175.95"/>
</g>
<!-- Node62 -->
<g id="node22" class="node">
<title>Node62</title>
<g id="a_node22"><a xlink:href="classflow_1_1net__flow_1_1Node.html#a52a3e10ef08b93daf87ea5f0f1e87062" target="_top" xlink:title="Adds a new packet struct (presumably representing packet to be sent shortly) to the &quot;scoreboard&quot; (Pee...">
<polygon fill="white" stroke="black" points="309,-100.5 309,-126.5 437,-126.5 437,-100.5 309,-100.5"/>
<text text-anchor="start" x="317" y="-116.1" font-family="Helvetica,sans-Serif" font-size="8.00">flow::net_flow::Node</text>
<text text-anchor="middle" x="373" y="-107.1" font-family="Helvetica,sans-Serif" font-size="8.00">::snd_flying_pkts_push_one</text>
</a>
</g>
</g>
<!-- Node2&#45;&gt;Node62 -->
<g id="edge26" class="edge">
<title>Node2&#45;&gt;Node62</title>
<path fill="none" stroke="midnightblue" d="M217.2,-295.46C224.55,-263.33 247.91,-179.75 300,-135.5 301.53,-134.2 303.14,-132.97 304.81,-131.82"/>
<polygon fill="midnightblue" stroke="midnightblue" points="306.75,-134.74 313.59,-126.65 303.2,-128.71 306.75,-134.74"/>
</g>
<!-- Node63 -->
<g id="node24" class="node">
<title>Node63</title>
<g id="a_node24"><a xlink:href="classflow_1_1net__flow_1_1Node.html#a837d37e6eb06fb6df4666bac327d20f8" target="_top" xlink:title="Obtain the sequence number for the datum just past the last (latest) In&#45;flight (i....">
<polygon fill="white" stroke="black" points="321,-46 321,-81 425,-81 425,-46 321,-46"/>
<text text-anchor="start" x="329" y="-70.6" font-family="Helvetica,sans-Serif" font-size="8.00">flow::net_flow::Node</text>
<text text-anchor="start" x="329" y="-61.6" font-family="Helvetica,sans-Serif" font-size="8.00">::snd_past_last_flying</text>
<text text-anchor="middle" x="373" y="-52.6" font-family="Helvetica,sans-Serif" font-size="8.00">_datum_seq_num</text>
</a>
</g>
</g>
<!-- Node2&#45;&gt;Node63 -->
<g id="edge29" class="edge">
<title>Node2&#45;&gt;Node63</title>
<path fill="none" stroke="midnightblue" d="M215.93,-295.45C220.7,-258.21 239.33,-150.27 300,-90.5 303.5,-87.05 307.48,-84.04 311.74,-81.4"/>
<polygon fill="midnightblue" stroke="midnightblue" points="313.65,-84.34 320.78,-76.51 310.32,-78.19 313.65,-84.34"/>
</g>
<!-- Node64 -->
<g id="node25" class="node">
<title>Node64</title>
<g id="a_node25"><a xlink:href="classflow_1_1net__flow_1_1Node.html#a479dfcb7944cb6571af51f1feed2656d" target="_top" xlink:title="Returns the &quot;order number&quot; to use for Peer_socket::Sent_packet::Sent_when structure corresponding to ...">
<polygon fill="white" stroke="black" points="300,-0.5 300,-26.5 446,-26.5 446,-0.5 300,-0.5"/>
<text text-anchor="start" x="308" y="-16.1" font-family="Helvetica,sans-Serif" font-size="8.00">flow::net_flow::Node</text>
<text text-anchor="middle" x="373" y="-7.1" font-family="Helvetica,sans-Serif" font-size="8.00">::sock_get_new_snd_order_num</text>
</a>
</g>
</g>
<!-- Node2&#45;&gt;Node64 -->
<g id="edge30" class="edge">
<title>Node2&#45;&gt;Node64</title>
<path fill="none" stroke="midnightblue" d="M214.61,-295.31C215.69,-251.86 225.1,-111.75 300,-36.5 301.46,-35.04 303.01,-33.66 304.64,-32.38"/>
<polygon fill="midnightblue" stroke="midnightblue" points="306.9,-35.08 313.33,-26.66 303.05,-29.23 306.9,-35.08"/>
</g>
<!-- Node3&#45;&gt;Node3 -->
<g id="edge3" class="edge">
<title>Node3&#45;&gt;Node3</title>
<path fill="none" stroke="midnightblue" d="M346.27,-600.77C338.17,-609.96 347.08,-619 373,-619 388.8,-619 398.28,-615.64 401.44,-610.94"/>
<polygon fill="midnightblue" stroke="midnightblue" points="404.84,-610.05 399.73,-600.77 397.93,-611.21 404.84,-610.05"/>
</g>
<!-- Node5 -->
<g id="node5" class="node">
<title>Node5</title>
<g id="a_node5"><a xlink:href="classflow_1_1net__flow_1_1Node.html#a31edf238c1b21a409ea807c66c1b22f0" target="_top" xlink:title="Begins the process of asynchronously sending the given low&#45;level packet to the remote Node specified ...">
<polygon fill="white" stroke="black" points="505.5,-595 505.5,-630 606.5,-630 606.5,-595 505.5,-595"/>
<text text-anchor="start" x="513.5" y="-619.6" font-family="Helvetica,sans-Serif" font-size="8.00">flow::net_flow::Node</text>
<text text-anchor="start" x="513.5" y="-610.6" font-family="Helvetica,sans-Serif" font-size="8.00">::async_sock_low_lvl</text>
<text text-anchor="middle" x="556" y="-601.6" font-family="Helvetica,sans-Serif" font-size="8.00">_packet_send_paced</text>
</a>
</g>
</g>
<!-- Node4&#45;&gt;Node5 -->
<g id="edge5" class="edge">
<title>Node4&#45;&gt;Node5</title>
<path fill="none" stroke="midnightblue" d="M424.42,-555.51C449.74,-566.56 480.31,-579.9 505.5,-590.9"/>
<polygon fill="midnightblue" stroke="midnightblue" points="504.31,-594.19 514.87,-594.98 507.11,-587.78 504.31,-594.19"/>
</g>
<!-- Node19 -->
<g id="node8" class="node">
<title>Node19</title>
<g id="a_node8"><a xlink:href="classflow_1_1net__flow_1_1Node.html#ade49e7bc7202a0adf33fec2d93d1b177" target="_top" xlink:title="A thread W method that handles the transition of the given socket from OPEN (any sub&#45;state) to CLOSED...">
<polygon fill="white" stroke="red" points="482,-511.5 482,-537.5 630,-537.5 630,-511.5 482,-511.5"/>
<text text-anchor="start" x="490" y="-527.1" font-family="Helvetica,sans-Serif" font-size="8.00">flow::net_flow::Node</text>
<text text-anchor="middle" x="556" y="-518.1" font-family="Helvetica,sans-Serif" font-size="8.00">::close_connection_immediately</text>
</a>
</g>
</g>
<!-- Node4&#45;&gt;Node19 -->
<g id="edge9" class="edge">
<title>Node4&#45;&gt;Node19</title>
<path fill="none" stroke="midnightblue" d="M428.31,-530.8C442.01,-530.12 457.04,-529.37 471.81,-528.64"/>
<polygon fill="midnightblue" stroke="midnightblue" points="472.17,-532.12 481.98,-528.13 471.82,-525.13 472.17,-532.12"/>
</g>
<!-- Node52 -->
<g id="node10" class="node">
<title>Node52</title>
<g id="a_node10"><a xlink:href="classflow_1_1net__flow_1_1Node.html#a99836ffb51eaefa4d2cc21770461cd97" target="_top" xlink:title="Constructs the socket pair (connection ID) for the given socket.">
<polygon fill="white" stroke="black" points="691.5,-538.5 691.5,-564.5 792.5,-564.5 792.5,-538.5 691.5,-538.5"/>
<text text-anchor="start" x="699.5" y="-554.1" font-family="Helvetica,sans-Serif" font-size="8.00">flow::net_flow::Node</text>
<text text-anchor="middle" x="742" y="-545.1" font-family="Helvetica,sans-Serif" font-size="8.00">::socket_id</text>
</a>
</g>
</g>
<!-- Node4&#45;&gt;Node52 -->
<g id="edge12" class="edge">
<title>Node4&#45;&gt;Node52</title>
<path fill="none" stroke="midnightblue" d="M428.27,-541.76C445.41,-544.04 464.46,-546.23 482,-547.5 550.12,-552.43 628.57,-552.91 681.12,-552.5"/>
<polygon fill="midnightblue" stroke="midnightblue" points="681.31,-556 691.27,-552.4 681.24,-549 681.31,-556"/>
</g>
<!-- Node6 -->
<g id="node6" class="node">
<title>Node6</title>
<g id="a_node6"><a xlink:href="classflow_1_1net__flow_1_1Node.html#a0db2bb587e0407077b11368df075f0ff" target="_top" xlink:title="async_low_lvl_packet_send_impl() wrapper to call when packet is to be sent to the remote side of the ...">
<polygon fill="white" stroke="red" points="854,-610 854,-645 955,-645 955,-610 854,-610"/>
<text text-anchor="start" x="862" y="-634.6" font-family="Helvetica,sans-Serif" font-size="8.00">flow::net_flow::Node</text>
<text text-anchor="start" x="862" y="-625.6" font-family="Helvetica,sans-Serif" font-size="8.00">::async_sock_low_lvl</text>
<text text-anchor="middle" x="904.5" y="-616.6" font-family="Helvetica,sans-Serif" font-size="8.00">_packet_send</text>
</a>
</g>
</g>
<!-- Node5&#45;&gt;Node6 -->
<g id="edge6" class="edge">
<title>Node5&#45;&gt;Node6</title>
<path fill="none" stroke="midnightblue" d="M606.73,-621.92C625.26,-624.98 646.52,-627.99 666,-629.5 733.35,-634.72 750.45,-630.29 818,-629.5 826.32,-629.4 835.1,-629.25 843.74,-629.08"/>
<polygon fill="midnightblue" stroke="midnightblue" points="843.85,-632.57 853.77,-628.86 843.7,-625.58 843.85,-632.57"/>
</g>
<!-- Node13 -->
<g id="node7" class="node">
<title>Node13</title>
<g id="a_node7"><a xlink:href="classflow_1_1net__flow_1_1Node.html#a62e1f8e6da36d7cd3ad905924aea376c" target="_top" xlink:title="async_sock_low_lvl_packet_send_paced() pacing helper: Handles a DATA or ACK packet that was just pass...">
<polygon fill="white" stroke="red" points="666,-593.5 666,-619.5 818,-619.5 818,-593.5 666,-593.5"/>
<text text-anchor="start" x="674" y="-609.1" font-family="Helvetica,sans-Serif" font-size="8.00">flow::net_flow::Node</text>
<text text-anchor="middle" x="742" y="-600.1" font-family="Helvetica,sans-Serif" font-size="8.00">::sock_pacing_new_packet_ready</text>
</a>
</g>
</g>
<!-- Node5&#45;&gt;Node13 -->
<g id="edge7" class="edge">
<title>Node5&#45;&gt;Node13</title>
<path fill="none" stroke="midnightblue" d="M606.79,-610.88C621.86,-610.38 638.87,-609.83 655.58,-609.29"/>
<polygon fill="midnightblue" stroke="midnightblue" points="656.04,-612.77 665.92,-608.95 655.81,-605.78 656.04,-612.77"/>
</g>
<!-- Node13&#45;&gt;Node6 -->
<g id="edge8" class="edge">
<title>Node13&#45;&gt;Node6</title>
<path fill="none" stroke="midnightblue" d="M818.08,-616.32C826.67,-617.45 835.33,-618.58 843.68,-619.67"/>
<polygon fill="midnightblue" stroke="midnightblue" points="843.31,-623.15 853.68,-620.98 844.21,-616.21 843.31,-623.15"/>
</g>
<!-- Node19&#45;&gt;Node22 -->
<g id="edge10" class="edge">
<title>Node19&#45;&gt;Node22</title>
<path fill="none" stroke="midnightblue" d="M621.87,-511.46C636.81,-508.45 652.8,-505.24 668.05,-502.17"/>
<polygon fill="midnightblue" stroke="midnightblue" points="668.84,-505.58 677.95,-500.18 667.46,-498.72 668.84,-505.58"/>
</g>
<!-- Node19&#45;&gt;Node52 -->
<g id="edge11" class="edge">
<title>Node19&#45;&gt;Node52</title>
<path fill="none" stroke="midnightblue" d="M630.25,-535.25C647.26,-537.75 665.17,-540.37 681.51,-542.77"/>
<polygon fill="midnightblue" stroke="midnightblue" points="681.05,-546.24 691.46,-544.23 682.07,-539.32 681.05,-546.24"/>
</g>
<!-- Node55 -->
<g id="node13" class="node">
<title>Node55</title>
<g id="a_node13"><a xlink:href="namespaceflow_1_1util.html#a16357344c21456b86b7de3085e2661a2" target="_top" xlink:title="Identical to buffers_to_ostream() but returns an std::string instead of writing to a given ostream.">
<polygon fill="white" stroke="black" points="699,-382.5 699,-408.5 785,-408.5 785,-382.5 699,-382.5"/>
<text text-anchor="start" x="707" y="-398.1" font-family="Helvetica,sans-Serif" font-size="8.00">flow::util::buffers</text>
<text text-anchor="middle" x="742" y="-389.1" font-family="Helvetica,sans-Serif" font-size="8.00">_dump_string</text>
</a>
</g>
</g>
<!-- Node54&#45;&gt;Node55 -->
<g id="edge15" class="edge">
<title>Node54&#45;&gt;Node55</title>
<path fill="none" stroke="midnightblue" d="M438.53,-396.89C452.84,-397.14 467.94,-397.37 482,-397.5 547.77,-398.11 564.22,-398.09 630,-397.5 649.19,-397.33 670.24,-396.99 688.81,-396.63"/>
<polygon fill="midnightblue" stroke="midnightblue" points="688.91,-400.13 698.84,-396.44 688.77,-393.13 688.91,-400.13"/>
</g>
<!-- Node57 -->
<g id="node16" class="node">
<title>Node57</title>
<g id="a_node16"><a xlink:href="classflow_1_1net__flow_1_1Socket__buffer.html#af60133c1d6825246b54f10f26810cd88" target="_top" xlink:title="Consumes (removes from the front of the internal byte buffer and returns them to the caller) a byte s...">
<polygon fill="white" stroke="black" points="489.5,-361.5 489.5,-387.5 622.5,-387.5 622.5,-361.5 489.5,-361.5"/>
<text text-anchor="start" x="497.5" y="-377.1" font-family="Helvetica,sans-Serif" font-size="8.00">flow::net_flow::Socket</text>
<text text-anchor="middle" x="556" y="-368.1" font-family="Helvetica,sans-Serif" font-size="8.00">_buffer::consume_bufs_copy</text>
</a>
</g>
</g>
<!-- Node54&#45;&gt;Node57 -->
<g id="edge18" class="edge">
<title>Node54&#45;&gt;Node57</title>
<path fill="none" stroke="midnightblue" d="M438.58,-388.01C451.68,-386.49 465.58,-384.87 479.04,-383.31"/>
<polygon fill="midnightblue" stroke="midnightblue" points="479.7,-386.76 489.23,-382.13 478.89,-379.81 479.7,-386.76"/>
</g>
<!-- Node56 -->
<g id="node14" class="node">
<title>Node56</title>
<g id="a_node14"><a xlink:href="namespaceflow_1_1util.html#aa132928b364caefca5c3821e019924bf" target="_top" xlink:title="Writes a multi&#45; or single&#45;line string representation of the provided binary data to an output stream,...">
<polygon fill="white" stroke="black" points="861.5,-405.5 861.5,-431.5 947.5,-431.5 947.5,-405.5 861.5,-405.5"/>
<text text-anchor="start" x="869.5" y="-421.1" font-family="Helvetica,sans-Serif" font-size="8.00">flow::util::buffers</text>
<text text-anchor="middle" x="904.5" y="-412.1" font-family="Helvetica,sans-Serif" font-size="8.00">_to_ostream</text>
</a>
</g>
</g>
<!-- Node55&#45;&gt;Node56 -->
<g id="edge16" class="edge">
<title>Node55&#45;&gt;Node56</title>
<path fill="none" stroke="midnightblue" d="M785.17,-401.54C805.45,-404.45 829.97,-407.96 851.41,-411.03"/>
<polygon fill="midnightblue" stroke="midnightblue" points="850.94,-414.5 861.33,-412.46 851.93,-407.57 850.94,-414.5"/>
</g>
<!-- Node29 -->
<g id="node15" class="node">
<title>Node29</title>
<g id="a_node15"><a xlink:href="classflow_1_1util_1_1String__ostream.html#a7e64b069ae0e221952068c13fdc0f080" target="_top" xlink:title="Access to stream that will write to owned string.">
<polygon fill="white" stroke="black" points="863.5,-360.5 863.5,-386.5 945.5,-386.5 945.5,-360.5 863.5,-360.5"/>
<text text-anchor="start" x="871.5" y="-376.1" font-family="Helvetica,sans-Serif" font-size="8.00">flow::util::String</text>
<text text-anchor="middle" x="904.5" y="-367.1" font-family="Helvetica,sans-Serif" font-size="8.00">_ostream::os</text>
</a>
</g>
</g>
<!-- Node55&#45;&gt;Node29 -->
<g id="edge17" class="edge">
<title>Node55&#45;&gt;Node29</title>
<path fill="none" stroke="midnightblue" d="M785.17,-389.72C806.02,-386.86 831.33,-383.39 853.18,-380.4"/>
<polygon fill="midnightblue" stroke="midnightblue" points="853.84,-383.84 863.27,-379.01 852.89,-376.9 853.84,-383.84"/>
</g>
<!-- Node57&#45;&gt;Node55 -->
<g id="edge19" class="edge">
<title>Node57&#45;&gt;Node55</title>
<path fill="none" stroke="midnightblue" d="M622.65,-381.99C644.37,-384.47 668.23,-387.19 688.8,-389.54"/>
<polygon fill="midnightblue" stroke="midnightblue" points="688.58,-393.04 698.92,-390.7 689.38,-386.09 688.58,-393.04"/>
</g>
<!-- Node62&#45;&gt;Node10 -->
<g id="edge28" class="edge">
<title>Node62&#45;&gt;Node10</title>
<path fill="none" stroke="midnightblue" d="M426.64,-126.63C433.35,-129.15 439.97,-132.09 446,-135.5 482.5,-156.13 517.17,-190.8 537.24,-212.89"/>
<polygon fill="midnightblue" stroke="midnightblue" points="534.69,-215.28 543.96,-220.41 539.91,-210.62 534.69,-215.28"/>
</g>
<!-- Node9 -->
<g id="node23" class="node">
<title>Node9</title>
<g id="a_node23"><a xlink:href="classflow_1_1log_1_1Log__context.html#a8a5fef42dc2cedf3c0d1a6e83beb2948" target="_top" xlink:title="Returns reference to the stored Component object, particularly as many FLOW_LOG_*() macros expect.">
<polygon fill="white" stroke="black" points="502.5,-100.5 502.5,-126.5 609.5,-126.5 609.5,-100.5 502.5,-100.5"/>
<text text-anchor="start" x="510.5" y="-116.1" font-family="Helvetica,sans-Serif" font-size="8.00">flow::log::Log_context</text>
<text text-anchor="middle" x="556" y="-107.1" font-family="Helvetica,sans-Serif" font-size="8.00">::get_log_component</text>
</a>
</g>
</g>
<!-- Node62&#45;&gt;Node9 -->
<g id="edge27" class="edge">
<title>Node62&#45;&gt;Node9</title>
<path fill="none" stroke="midnightblue" d="M437.05,-113.5C454.88,-113.5 474.27,-113.5 492.09,-113.5"/>
<polygon fill="midnightblue" stroke="midnightblue" points="492.37,-117 502.37,-113.5 492.37,-110 492.37,-117"/>
</g>
</g>
</svg>
