<?xml version="1.0" encoding="UTF-8" standalone="no"?>
<!DOCTYPE svg PUBLIC "-//W3C//DTD SVG 1.1//EN"
 "http://www.w3.org/Graphics/SVG/1.1/DTD/svg11.dtd">
<!-- Generated by graphviz version 2.43.0 (0)
 -->
<!-- Title: flow::cfg::Option_set&lt; Value_set &gt; Pages: 1 -->
<svg width="1126pt" height="482pt"
 viewBox="0.00 0.00 1126.00 481.70" xmlns="http://www.w3.org/2000/svg" xmlns:xlink="http://www.w3.org/1999/xlink">
<g id="graph0" class="graph" transform="scale(1 1) rotate(0) translate(4 477.7)">
<title>flow::cfg::Option_set&lt; Value_set &gt;</title>
<polygon fill="white" stroke="transparent" points="-4,4 -4,-477.7 1122,-477.7 1122,4 -4,4"/>
<!-- Node1 -->
<g id="node1" class="node">
<title>Node1</title>
<g id="a_node1"><a xlink:title="The core config&#45;parsing facility, which builds parsing/comparison/output capabilities on top of a giv...">
<polygon fill="#bfbfbf" stroke="black" points="1017,-199.7 1017,-225.7 1118,-225.7 1118,-199.7 1017,-199.7"/>
<text text-anchor="start" x="1025" y="-215.3" font-family="Helvetica,sans-Serif" font-size="8.00">flow::cfg::Option_set</text>
<text text-anchor="middle" x="1067.5" y="-206.3" font-family="Helvetica,sans-Serif" font-size="8.00">&lt; Value_set &gt;</text>
</a>
</g>
</g>
<!-- Node2 -->
<g id="node2" class="node">
<title>Node2</title>
<g id="a_node2"><a xlink:href="classflow_1_1cfg_1_1Option__set__base.html" target="_top" xlink:title="Un&#45;templated base for Option_set.">
<polygon fill="white" stroke="black" points="735,-390.2 735,-407.2 860,-407.2 860,-390.2 735,-390.2"/>
<text text-anchor="middle" x="797.5" y="-396.8" font-family="Helvetica,sans-Serif" font-size="8.00">flow::cfg::Option_set_base</text>
</a>
</g>
</g>
<!-- Node2&#45;&gt;Node1 -->
<g id="edge1" class="edge">
<title>Node2&#45;&gt;Node1</title>
<path fill="none" stroke="midnightblue" d="M870.23,-404.32C911.75,-403.87 962.78,-396.55 999,-368.7 1046.26,-332.36 1060.96,-256.24 1065.06,-225.74"/>
<polygon fill="midnightblue" stroke="midnightblue" points="870.18,-400.82 860.17,-404.3 870.16,-407.82 870.18,-400.82"/>
</g>
<!-- Node3 -->
<g id="node3" class="node">
<title>Node3</title>
<g id="a_node3"><a xlink:href="classflow_1_1log_1_1Log__context.html" target="_top" xlink:title="Convenience class that simply stores a Logger and/or Component passed into a constructor; and returns...">
<polygon fill="white" stroke="black" points="744,-354.2 744,-371.2 851,-371.2 851,-354.2 744,-354.2"/>
<text text-anchor="middle" x="797.5" y="-360.8" font-family="Helvetica,sans-Serif" font-size="8.00">flow::log::Log_context</text>
</a>
</g>
</g>
<!-- Node3&#45;&gt;Node1 -->
<g id="edge2" class="edge">
<title>Node3&#45;&gt;Node1</title>
<path fill="none" stroke="midnightblue" d="M861.46,-369.9C903.81,-371.49 959.01,-366.95 999,-339.7 1039.44,-312.14 1057.52,-252.33 1063.78,-225.82"/>
<polygon fill="midnightblue" stroke="midnightblue" points="861.42,-366.39 851.26,-369.39 861.07,-373.38 861.42,-366.39"/>
</g>
<!-- Node4 -->
<g id="node4" class="node">
<title>Node4</title>
<g id="a_node4"><a xlink:href="classflow_1_1log_1_1Logger.html" target="_top" xlink:title="Interface that the user should implement, passing the implementing Logger into logging classes (Flow&#39;...">
<polygon fill="white" stroke="black" points="542.5,-375.2 542.5,-392.2 628.5,-392.2 628.5,-375.2 542.5,-375.2"/>
<text text-anchor="middle" x="585.5" y="-381.8" font-family="Helvetica,sans-Serif" font-size="8.00">flow::log::Logger</text>
</a>
</g>
</g>
<!-- Node4&#45;&gt;Node3 -->
<g id="edge3" class="edge">
<title>Node4&#45;&gt;Node3</title>
<path fill="none" stroke="#9a32cd" stroke-dasharray="5,2" d="M638.82,-378.47C670.88,-375.26 711.78,-371.17 743.89,-367.96"/>
<polygon fill="#9a32cd" stroke="#9a32cd" points="638.35,-375 628.74,-379.47 639.04,-381.96 638.35,-375"/>
<text text-anchor="middle" x="686.5" y="-378.3" font-family="Helvetica,sans-Serif" font-size="8.00"> m_logger</text>
</g>
<!-- Node5 -->
<g id="node5" class="node">
<title>Node5</title>
<g id="a_node5"><a xlink:href="classflow_1_1util_1_1Null__interface.html" target="_top" xlink:title="An empty interface, consisting of nothing but a default virtual destructor, intended as a boiler&#45;plat...">
<polygon fill="white" stroke="black" points="268,-456.2 268,-473.2 382,-473.2 382,-456.2 268,-456.2"/>
<text text-anchor="middle" x="325" y="-462.8" font-family="Helvetica,sans-Serif" font-size="8.00">flow::util::Null_interface</text>
</a>
</g>
</g>
<!-- Node5&#45;&gt;Node4 -->
<g id="edge4" class="edge">
<title>Node5&#45;&gt;Node4</title>
<path fill="none" stroke="midnightblue" d="M379.42,-454.05C417.73,-445.7 470.27,-432.82 515,-416.7 534.1,-409.81 555.02,-399.47 568.87,-392.2"/>
<polygon fill="midnightblue" stroke="midnightblue" points="378.55,-450.65 369.5,-456.17 380.01,-457.5 378.55,-450.65"/>
</g>
<!-- Node6 -->
<g id="node6" class="node">
<title>Node6</title>
<g id="a_node6"><a xlink:href="classflow_1_1util_1_1Unique__id__holder.html" target="_top" xlink:title="Each object of this class stores (at construction) and returns (on demand) a numeric ID unique from a...">
<polygon fill="white" stroke="black" points="281.5,-410.7 281.5,-436.7 368.5,-436.7 368.5,-410.7 281.5,-410.7"/>
<text text-anchor="start" x="289.5" y="-426.3" font-family="Helvetica,sans-Serif" font-size="8.00">flow::util::Unique</text>
<text text-anchor="middle" x="325" y="-417.3" font-family="Helvetica,sans-Serif" font-size="8.00">_id_holder</text>
</a>
</g>
</g>
<!-- Node6&#45;&gt;Node4 -->
<g id="edge5" class="edge">
<title>Node6&#45;&gt;Node4</title>
<path fill="none" stroke="midnightblue" d="M379.08,-415.62C416.97,-409.84 469.13,-401.85 515,-394.7 523.81,-393.33 533.25,-391.84 542.24,-390.42"/>
<polygon fill="midnightblue" stroke="midnightblue" points="378.15,-412.22 368.79,-417.19 379.21,-419.14 378.15,-412.22"/>
</g>
<!-- Node7 -->
<g id="node7" class="node">
<title>Node7</title>
<g id="a_node7"><a xlink:title=" ">
<polygon fill="white" stroke="#bfbfbf" points="0,-410.2 0,-427.2 50,-427.2 50,-410.2 0,-410.2"/>
<text text-anchor="middle" x="25" y="-416.8" font-family="Helvetica,sans-Serif" font-size="8.00">uint64_t</text>
</a>
</g>
</g>
<!-- Node7&#45;&gt;Node6 -->
<g id="edge6" class="edge">
<title>Node7&#45;&gt;Node6</title>
<path fill="none" stroke="#9a32cd" stroke-dasharray="5,2" d="M60.61,-422.24C63.11,-422.42 65.59,-422.58 68,-422.7 143.01,-426.52 230.55,-425.73 281.39,-424.76"/>
<polygon fill="#9a32cd" stroke="#9a32cd" points="60.66,-418.73 50.4,-421.39 60.08,-425.71 60.66,-418.73"/>
<text text-anchor="middle" x="147.5" y="-427.3" font-family="Helvetica,sans-Serif" font-size="8.00"> m_id</text>
</g>
<!-- Node8 -->
<g id="node8" class="node">
<title>Node8</title>
<g id="a_node8"><a xlink:title=" ">
<polygon fill="white" stroke="black" points="100,-387.2 100,-404.2 195,-404.2 195,-387.2 100,-387.2"/>
<text text-anchor="middle" x="147.5" y="-393.8" font-family="Helvetica,sans-Serif" font-size="8.00">std::atomic&lt; id_t &gt;</text>
</a>
</g>
</g>
<!-- Node7&#45;&gt;Node8 -->
<g id="edge8" class="edge">
<title>Node7&#45;&gt;Node8</title>
<path fill="none" stroke="#9a32cd" stroke-dasharray="5,2" d="M60.04,-412.2C73.06,-409.72 88.11,-406.84 101.97,-404.2"/>
<polygon fill="#9a32cd" stroke="#9a32cd" points="59.26,-408.79 50.1,-414.1 60.57,-415.66 59.26,-408.79"/>
<text text-anchor="middle" x="75" y="-412.3" font-family="Helvetica,sans-Serif" font-size="8.00"> ptr</text>
</g>
<!-- Node8&#45;&gt;Node6 -->
<g id="edge7" class="edge">
<title>Node8&#45;&gt;Node6</title>
<path fill="none" stroke="#9a32cd" stroke-dasharray="5,2" d="M205.08,-404.73C229.87,-408.68 258.48,-413.25 281.43,-416.91"/>
<polygon fill="#9a32cd" stroke="#9a32cd" points="205.5,-401.25 195.07,-403.13 204.39,-408.16 205.5,-401.25"/>
<text text-anchor="middle" x="231.5" y="-413.3" font-family="Helvetica,sans-Serif" font-size="8.00"> s_last_id</text>
</g>
<!-- Node9 -->
<g id="node9" class="node">
<title>Node9</title>
<g id="a_node9"><a xlink:title=" ">
<polygon fill="white" stroke="#bfbfbf" points="275.5,-321.2 275.5,-338.2 374.5,-338.2 374.5,-321.2 275.5,-321.2"/>
<text text-anchor="middle" x="325" y="-327.8" font-family="Helvetica,sans-Serif" font-size="8.00">boost::noncopyable</text>
</a>
</g>
</g>
<!-- Node9&#45;&gt;Node1 -->
<g id="edge14" class="edge">
<title>Node9&#45;&gt;Node1</title>
<path fill="none" stroke="#8b1a1a" d="M385.34,-330.07C528.85,-330.15 890.83,-325.19 999,-274.7 1023.08,-263.46 1044.47,-240.5 1056.43,-225.89"/>
<polygon fill="#8b1a1a" stroke="#8b1a1a" points="384.99,-326.57 374.99,-330.06 384.98,-333.57 384.99,-326.57"/>
</g>
<!-- Node9&#45;&gt;Node4 -->
<g id="edge9" class="edge">
<title>Node9&#45;&gt;Node4</title>
<path fill="none" stroke="#8b1a1a" d="M377,-340.35C425.86,-350.56 498.62,-365.76 543.73,-375.18"/>
<polygon fill="#8b1a1a" stroke="#8b1a1a" points="377.46,-336.87 366.96,-338.26 376.03,-343.73 377.46,-336.87"/>
</g>
<!-- Node10 -->
<g id="node10" class="node">
<title>Node10</title>
<g id="a_node10"><a xlink:title=" ">
<polygon fill="white" stroke="#bfbfbf" points="278,-365.7 278,-391.7 372,-391.7 372,-365.7 278,-365.7"/>
<text text-anchor="start" x="286" y="-381.3" font-family="Helvetica,sans-Serif" font-size="8.00">thread_specific_ptr</text>
<text text-anchor="middle" x="325" y="-372.3" font-family="Helvetica,sans-Serif" font-size="8.00">&lt; std::string &gt;</text>
</a>
</g>
</g>
<!-- Node10&#45;&gt;Node4 -->
<g id="edge10" class="edge">
<title>Node10&#45;&gt;Node4</title>
<path fill="none" stroke="#9a32cd" stroke-dasharray="5,2" d="M382.46,-379.79C430.54,-380.72 498.57,-382.04 542.11,-382.88"/>
<polygon fill="#9a32cd" stroke="#9a32cd" points="382.28,-376.29 372.21,-379.59 382.15,-383.29 382.28,-376.29"/>
<text text-anchor="middle" x="457.5" y="-384.3" font-family="Helvetica,sans-Serif" font-size="8.00"> s_this_thread_nickname_ptr</text>
</g>
<!-- Node11 -->
<g id="node11" class="node">
<title>Node11</title>
<g id="a_node11"><a xlink:href="classflow_1_1log_1_1Component.html" target="_top" xlink:title="A light&#45;weight class, each object storing a component payload encoding an enum value from enum type o...">
<polygon fill="white" stroke="black" points="533,-280.2 533,-297.2 638,-297.2 638,-280.2 533,-280.2"/>
<text text-anchor="middle" x="585.5" y="-286.8" font-family="Helvetica,sans-Serif" font-size="8.00">flow::log::Component</text>
</a>
</g>
</g>
<!-- Node11&#45;&gt;Node3 -->
<g id="edge11" class="edge">
<title>Node11&#45;&gt;Node3</title>
<path fill="none" stroke="#9a32cd" stroke-dasharray="5,2" d="M620.64,-300.73C663.17,-315.72 734.79,-340.95 772.16,-354.12"/>
<polygon fill="#9a32cd" stroke="#9a32cd" points="621.6,-297.36 611,-297.33 619.27,-303.96 621.6,-297.36"/>
<text text-anchor="middle" x="686.5" y="-336.3" font-family="Helvetica,sans-Serif" font-size="8.00"> m_component</text>
</g>
<!-- Node12 -->
<g id="node12" class="node">
<title>Node12</title>
<g id="a_node12"><a xlink:title=" ">
<polygon fill="white" stroke="#bfbfbf" points="282.5,-285.2 282.5,-302.2 367.5,-302.2 367.5,-285.2 282.5,-285.2"/>
<text text-anchor="middle" x="325" y="-291.8" font-family="Helvetica,sans-Serif" font-size="8.00">type_info const *</text>
</a>
</g>
</g>
<!-- Node12&#45;&gt;Node11 -->
<g id="edge12" class="edge">
<title>Node12&#45;&gt;Node11</title>
<path fill="none" stroke="#9a32cd" stroke-dasharray="5,2" d="M377.68,-292.7C422.74,-291.83 487.76,-290.57 532.82,-289.7"/>
<polygon fill="#9a32cd" stroke="#9a32cd" points="377.46,-289.2 367.53,-292.9 377.6,-296.2 377.46,-289.2"/>
<text text-anchor="middle" x="457.5" y="-294.3" font-family="Helvetica,sans-Serif" font-size="8.00"> m_payload_type_or_null</text>
</g>
<!-- Node13 -->
<g id="node13" class="node">
<title>Node13</title>
<g id="a_node13"><a xlink:title=" ">
<polygon fill="white" stroke="#bfbfbf" points="291,-244.2 291,-261.2 359,-261.2 359,-244.2 291,-244.2"/>
<text text-anchor="middle" x="325" y="-250.8" font-family="Helvetica,sans-Serif" font-size="8.00">unsigned int</text>
</a>
</g>
</g>
<!-- Node13&#45;&gt;Node11 -->
<g id="edge13" class="edge">
<title>Node13&#45;&gt;Node11</title>
<path fill="none" stroke="#9a32cd" stroke-dasharray="5,2" d="M369.4,-253.51C407.93,-254.85 465.62,-258.39 515,-267.7 530.48,-270.62 547.42,-275.69 560.69,-280.12"/>
<polygon fill="#9a32cd" stroke="#9a32cd" points="369.16,-250 359.06,-253.19 368.95,-257 369.16,-250"/>
<text text-anchor="start" x="411" y="-279.3" font-family="Helvetica,sans-Serif" font-size="8.00"> m_payload_enum_raw</text>
<text text-anchor="middle" x="457.5" y="-270.3" font-family="Helvetica,sans-Serif" font-size="8.00">_value</text>
</g>
<!-- Node14 -->
<g id="node14" class="node">
<title>Node14</title>
<g id="a_node14"><a xlink:title=" ">
<polygon fill="white" stroke="black" points="556,-143.2 556,-160.2 615,-160.2 615,-143.2 556,-143.2"/>
<text text-anchor="middle" x="585.5" y="-149.8" font-family="Helvetica,sans-Serif" font-size="8.00">std::string</text>
</a>
</g>
</g>
<!-- Node14&#45;&gt;Node1 -->
<g id="edge15" class="edge">
<title>Node14&#45;&gt;Node1</title>
<path fill="none" stroke="#9a32cd" stroke-dasharray="5,2" d="M602.49,-167.34C627.99,-191.04 680.55,-235.07 735,-251.7 847.23,-285.96 885.48,-278.39 999,-248.7 1016.6,-244.1 1034.7,-234.11 1047.71,-225.82"/>
<polygon fill="#9a32cd" stroke="#9a32cd" points="604.86,-164.76 595.2,-160.41 600.04,-169.84 604.86,-164.76"/>
<text text-anchor="middle" x="797.5" y="-276.3" font-family="Helvetica,sans-Serif" font-size="8.00"> m_nickname</text>
</g>
<!-- Node20 -->
<g id="node20" class="node">
<title>Node20</title>
<g id="a_node20"><a xlink:title=" ">
<polygon fill="white" stroke="black" points="744,-43.7 744,-69.7 851,-69.7 851,-43.7 744,-43.7"/>
<text text-anchor="start" x="752" y="-59.3" font-family="Helvetica,sans-Serif" font-size="8.00">std::map&lt; std::string,</text>
<text text-anchor="middle" x="797.5" y="-50.3" font-family="Helvetica,sans-Serif" font-size="8.00"> boost::any &gt;</text>
</a>
</g>
</g>
<!-- Node14&#45;&gt;Node20 -->
<g id="edge22" class="edge">
<title>Node14&#45;&gt;Node20</title>
<path fill="none" stroke="#9a32cd" stroke-dasharray="5,2" d="M612.33,-138.26C641.69,-123.2 691.22,-98.45 735,-79.7 742.96,-76.29 751.62,-72.88 759.85,-69.76"/>
<polygon fill="#9a32cd" stroke="#9a32cd" points="610.47,-135.28 603.19,-142.97 613.68,-141.5 610.47,-135.28"/>
<text text-anchor="middle" x="686.5" y="-117.3" font-family="Helvetica,sans-Serif" font-size="8.00"> keys</text>
</g>
<!-- Node15 -->
<g id="node15" class="node">
<title>Node15</title>
<g id="a_node15"><a xlink:title=" ">
<polygon fill="white" stroke="black" points="279.5,-138.7 279.5,-164.7 370.5,-164.7 370.5,-138.7 279.5,-138.7"/>
<text text-anchor="start" x="287.5" y="-154.3" font-family="Helvetica,sans-Serif" font-size="8.00">std::basic_string&lt;</text>
<text text-anchor="middle" x="325" y="-145.3" font-family="Helvetica,sans-Serif" font-size="8.00"> Char &gt;</text>
</a>
</g>
</g>
<!-- Node15&#45;&gt;Node14 -->
<g id="edge16" class="edge">
<title>Node15&#45;&gt;Node14</title>
<path fill="none" stroke="midnightblue" d="M380.75,-151.7C434.31,-151.7 513.79,-151.7 555.9,-151.7"/>
<polygon fill="midnightblue" stroke="midnightblue" points="380.73,-148.2 370.73,-151.7 380.73,-155.2 380.73,-148.2"/>
</g>
<!-- Node16 -->
<g id="node16" class="node">
<title>Node16</title>
<g id="a_node16"><a xlink:href="classbool.html" target="_top" xlink:title=" ">
<polygon fill="white" stroke="#bfbfbf" points="780,-225.2 780,-242.2 815,-242.2 815,-225.2 780,-225.2"/>
<text text-anchor="middle" x="797.5" y="-231.8" font-family="Helvetica,sans-Serif" font-size="8.00">bool</text>
</a>
</g>
</g>
<!-- Node16&#45;&gt;Node1 -->
<g id="edge17" class="edge">
<title>Node16&#45;&gt;Node1</title>
<path fill="none" stroke="#9a32cd" stroke-dasharray="5,2" d="M825.34,-231.6C870.04,-228.09 960.37,-221.02 1016.9,-216.59"/>
<polygon fill="#9a32cd" stroke="#9a32cd" points="824.96,-228.11 815.26,-232.39 825.51,-235.09 824.96,-228.11"/>
<text text-anchor="middle" x="938.5" y="-238.3" font-family="Helvetica,sans-Serif" font-size="8.00"> m_null</text>
<text text-anchor="middle" x="938.5" y="-229.3" font-family="Helvetica,sans-Serif" font-size="8.00">m_parsing</text>
</g>
<!-- Node17 -->
<g id="node17" class="node">
<title>Node17</title>
<g id="a_node17"><a xlink:title=" ">
<polygon fill="white" stroke="#bfbfbf" points="748.5,-179.7 748.5,-205.7 846.5,-205.7 846.5,-179.7 748.5,-179.7"/>
<text text-anchor="start" x="756.5" y="-195.3" font-family="Helvetica,sans-Serif" font-size="8.00">unordered_set&lt; std</text>
<text text-anchor="middle" x="797.5" y="-186.3" font-family="Helvetica,sans-Serif" font-size="8.00">::string &gt;</text>
</a>
</g>
</g>
<!-- Node17&#45;&gt;Node1 -->
<g id="edge18" class="edge">
<title>Node17&#45;&gt;Node1</title>
<path fill="none" stroke="#9a32cd" stroke-dasharray="5,2" d="M856.93,-194.11C896.99,-195.45 951.3,-197.99 999,-202.7 1004.78,-203.27 1010.82,-203.99 1016.8,-204.78"/>
<polygon fill="#9a32cd" stroke="#9a32cd" points="856.91,-190.61 846.81,-193.79 856.69,-197.61 856.91,-190.61"/>
<text text-anchor="middle" x="938.5" y="-205.3" font-family="Helvetica,sans-Serif" font-size="8.00"> m_opt_names</text>
</g>
<!-- Node18 -->
<g id="node18" class="node">
<title>Node18</title>
<g id="a_node18"><a xlink:href="classflow_1_1Function.html" target="_top" xlink:title=" ">
<polygon fill="white" stroke="#bfbfbf" points="742.5,-125.2 742.5,-160.2 852.5,-160.2 852.5,-125.2 742.5,-125.2"/>
<text text-anchor="start" x="750.5" y="-149.8" font-family="Helvetica,sans-Serif" font-size="8.00">flow::Function&lt; void</text>
<text text-anchor="start" x="750.5" y="-140.8" font-family="Helvetica,sans-Serif" font-size="8.00">(const Declare_options</text>
<text text-anchor="middle" x="797.5" y="-131.8" font-family="Helvetica,sans-Serif" font-size="8.00">_func_args &amp;args)&gt;</text>
</a>
</g>
</g>
<!-- Node18&#45;&gt;Node1 -->
<g id="edge19" class="edge">
<title>Node18&#45;&gt;Node1</title>
<path fill="none" stroke="#9a32cd" stroke-dasharray="5,2" d="M862.68,-151.19C902.52,-157.44 954.44,-167.36 999,-181.7 1013.61,-186.4 1029.22,-193.43 1041.75,-199.61"/>
<polygon fill="#9a32cd" stroke="#9a32cd" points="862.98,-147.7 852.56,-149.64 861.92,-154.62 862.98,-147.7"/>
<text text-anchor="middle" x="938.5" y="-184.3" font-family="Helvetica,sans-Serif" font-size="8.00"> m_declare_opts_func</text>
</g>
<!-- Node19 -->
<g id="node19" class="node">
<title>Node19</title>
<g id="a_node19"><a xlink:title=" ">
<polygon fill="white" stroke="#bfbfbf" points="769.5,-89.2 769.5,-106.2 825.5,-106.2 825.5,-89.2 769.5,-89.2"/>
<text text-anchor="middle" x="797.5" y="-95.8" font-family="Helvetica,sans-Serif" font-size="8.00">Value_set</text>
</a>
</g>
</g>
<!-- Node19&#45;&gt;Node1 -->
<g id="edge20" class="edge">
<title>Node19&#45;&gt;Node1</title>
<path fill="none" stroke="#9a32cd" stroke-dasharray="5,2" d="M835.73,-94.02C878.18,-91.61 948.23,-93.25 999,-122.7 1030.09,-140.73 1051.36,-179.34 1060.86,-199.63"/>
<polygon fill="#9a32cd" stroke="#9a32cd" points="835.31,-90.54 825.57,-94.7 835.78,-97.52 835.31,-90.54"/>
<text text-anchor="middle" x="938.5" y="-143.3" font-family="Helvetica,sans-Serif" font-size="8.00"> m_values</text>
<text text-anchor="middle" x="938.5" y="-134.3" font-family="Helvetica,sans-Serif" font-size="8.00">m_values_candidate</text>
<text text-anchor="middle" x="938.5" y="-125.3" font-family="Helvetica,sans-Serif" font-size="8.00">m_values_default</text>
</g>
<!-- Node20&#45;&gt;Node1 -->
<g id="edge21" class="edge">
<title>Node20&#45;&gt;Node1</title>
<path fill="none" stroke="#9a32cd" stroke-dasharray="5,2" d="M861.62,-49.26C904.05,-47.56 959.27,-52.07 999,-79.7 1040.88,-108.82 1058.28,-171.88 1064.07,-199.4"/>
<polygon fill="#9a32cd" stroke="#9a32cd" points="861.2,-45.78 851.4,-49.8 861.57,-52.77 861.2,-45.78"/>
<text text-anchor="middle" x="938.5" y="-82.3" font-family="Helvetica,sans-Serif" font-size="8.00"> m_iterable_values_candidate</text>
</g>
<!-- Node21 -->
<g id="node21" class="node">
<title>Node21</title>
<g id="a_node21"><a xlink:title=" ">
<polygon fill="white" stroke="#bfbfbf" points="569.5,-48.2 569.5,-65.2 601.5,-65.2 601.5,-48.2 569.5,-48.2"/>
<text text-anchor="middle" x="585.5" y="-54.8" font-family="Helvetica,sans-Serif" font-size="8.00">any</text>
</a>
</g>
</g>
<!-- Node21&#45;&gt;Node20 -->
<g id="edge23" class="edge">
<title>Node21&#45;&gt;Node20</title>
<path fill="none" stroke="#9a32cd" stroke-dasharray="5,2" d="M611.62,-56.7C644.15,-56.7 701.68,-56.7 743.95,-56.7"/>
<polygon fill="#9a32cd" stroke="#9a32cd" points="611.6,-53.2 601.6,-56.7 611.6,-60.2 611.6,-53.2"/>
<text text-anchor="middle" x="686.5" y="-59.3" font-family="Helvetica,sans-Serif" font-size="8.00"> elements</text>
</g>
<!-- Node22 -->
<g id="node22" class="node">
<title>Node22</title>
<g id="a_node22"><a xlink:title=" ">
<polygon fill="white" stroke="#bfbfbf" points="769.5,-7.2 769.5,-24.2 825.5,-24.2 825.5,-7.2 769.5,-7.2"/>
<text text-anchor="middle" x="797.5" y="-13.8" font-family="Helvetica,sans-Serif" font-size="8.00">Opt_table</text>
</a>
</g>
</g>
<!-- Node22&#45;&gt;Node1 -->
<g id="edge24" class="edge">
<title>Node22&#45;&gt;Node1</title>
<path fill="none" stroke="#9a32cd" stroke-dasharray="5,2" d="M835.53,-6.78C879.14,1.43 951.63,7.6 999,-27.7 1055.75,-69.98 1064.86,-164.84 1066.27,-199.61"/>
<polygon fill="#9a32cd" stroke="#9a32cd" points="834.74,-3.36 825.63,-8.77 836.12,-10.23 834.74,-3.36"/>
<text text-anchor="middle" x="938.5" y="-39.3" font-family="Helvetica,sans-Serif" font-size="8.00"> m_opts_for_help</text>
<text text-anchor="middle" x="938.5" y="-30.3" font-family="Helvetica,sans-Serif" font-size="8.00">m_opts_for_parsing</text>
</g>
</g>
</svg>
