<?xml version="1.0" encoding="UTF-8" standalone="no"?>
<!DOCTYPE svg PUBLIC "-//W3C//DTD SVG 1.1//EN"
 "http://www.w3.org/Graphics/SVG/1.1/DTD/svg11.dtd">
<!-- Generated by graphviz version 2.43.0 (0)
 -->
<!-- Title: flow::net_flow::Peer_socket::sync_send Pages: 1 -->
<svg width="859pt" height="389pt"
 viewBox="0.00 0.00 859.00 389.00" xmlns="http://www.w3.org/2000/svg" xmlns:xlink="http://www.w3.org/1999/xlink">
<g id="graph0" class="graph" transform="scale(1 1) rotate(0) translate(4 385)">
<title>flow::net_flow::Peer_socket::sync_send</title>
<polygon fill="white" stroke="transparent" points="-4,4 -4,-385 855,-385 855,4 -4,4"/>
<!-- Node1 -->
<g id="node1" class="node">
<title>Node1</title>
<g id="a_node1"><a xlink:title="Equivalent to sync_send(data, duration::max(), err_code); i.e., sync_send() with no timeout.">
<polygon fill="#bfbfbf" stroke="black" points="0,-223.5 0,-249.5 97,-249.5 97,-223.5 0,-223.5"/>
<text text-anchor="start" x="8" y="-239.1" font-family="Helvetica,sans-Serif" font-size="8.00">flow::net_flow::Peer</text>
<text text-anchor="middle" x="48.5" y="-230.1" font-family="Helvetica,sans-Serif" font-size="8.00">_socket::sync_send</text>
</a>
</g>
</g>
<!-- Node2 -->
<g id="node2" class="node">
<title>Node2</title>
<g id="a_node2"><a xlink:href="classflow_1_1net__flow_1_1Peer__socket.html#a3f1a802024549a59978a53343b09a86d" target="_top" xlink:title="Same as sync_send() but uses a Fine_clock&#45;based Fine_duration non&#45;template type for implementation co...">
<polygon fill="white" stroke="black" points="133,-223.5 133,-249.5 250,-249.5 250,-223.5 133,-223.5"/>
<text text-anchor="start" x="141" y="-239.1" font-family="Helvetica,sans-Serif" font-size="8.00">flow::net_flow::Peer</text>
<text text-anchor="middle" x="191.5" y="-230.1" font-family="Helvetica,sans-Serif" font-size="8.00">_socket::sync_send_impl</text>
</a>
</g>
</g>
<!-- Node1&#45;&gt;Node2 -->
<g id="edge1" class="edge">
<title>Node1&#45;&gt;Node2</title>
<path fill="none" stroke="midnightblue" d="M97.24,-236.5C105.3,-236.5 113.81,-236.5 122.28,-236.5"/>
<polygon fill="midnightblue" stroke="midnightblue" points="122.55,-240 132.55,-236.5 122.55,-233 122.55,-240"/>
</g>
<!-- Node3 -->
<g id="node3" class="node">
<title>Node3</title>
<g id="a_node3"><a xlink:href="classflow_1_1net__flow_1_1Socket__buffer.html#a69a0c514df820c36e7109fb1fcf78522" target="_top" xlink:title="Feeds (adds to the back of the byte buffer) the contents of the byte stream composed of the bytes in ...">
<polygon fill="white" stroke="black" points="289.5,-267.5 289.5,-293.5 403.5,-293.5 403.5,-267.5 289.5,-267.5"/>
<text text-anchor="start" x="297.5" y="-283.1" font-family="Helvetica,sans-Serif" font-size="8.00">flow::net_flow::Socket</text>
<text text-anchor="middle" x="346.5" y="-274.1" font-family="Helvetica,sans-Serif" font-size="8.00">_buffer::feed_bufs_copy</text>
</a>
</g>
</g>
<!-- Node2&#45;&gt;Node3 -->
<g id="edge2" class="edge">
<title>Node2&#45;&gt;Node3</title>
<path fill="none" stroke="midnightblue" d="M237.99,-249.58C254.41,-254.3 273.13,-259.69 290.29,-264.62"/>
<polygon fill="midnightblue" stroke="midnightblue" points="289.61,-268.07 300.18,-267.47 291.54,-261.34 289.61,-268.07"/>
</g>
<!-- Node8 -->
<g id="node8" class="node">
<title>Node8</title>
<g id="a_node8"><a xlink:href="classflow_1_1net__flow_1_1Peer__socket.html#a34e2c7dfb5596269a6f86a716015f1a6" target="_top" xlink:title="This is to sync_send() as node_send() is to send().">
<polygon fill="white" stroke="black" points="286,-180.5 286,-206.5 407,-206.5 407,-180.5 286,-180.5"/>
<text text-anchor="start" x="294" y="-196.1" font-family="Helvetica,sans-Serif" font-size="8.00">flow::net_flow::Peer</text>
<text text-anchor="middle" x="346.5" y="-187.1" font-family="Helvetica,sans-Serif" font-size="8.00">_socket::node_sync_send</text>
</a>
</g>
</g>
<!-- Node2&#45;&gt;Node8 -->
<g id="edge7" class="edge">
<title>Node2&#45;&gt;Node8</title>
<path fill="none" stroke="midnightblue" d="M238.82,-223.48C254.63,-219.04 272.48,-214.02 288.99,-209.38"/>
<polygon fill="midnightblue" stroke="midnightblue" points="290.39,-212.62 299.07,-206.55 288.5,-205.88 290.39,-212.62"/>
</g>
<!-- Node4 -->
<g id="node4" class="node">
<title>Node4</title>
<g id="a_node4"><a xlink:href="namespaceflow_1_1util.html#a16357344c21456b86b7de3085e2661a2" target="_top" xlink:title="Identical to buffers_to_ostream() but returns an std::string instead of writing to a given ostream.">
<polygon fill="white" stroke="black" points="451,-309.5 451,-335.5 537,-335.5 537,-309.5 451,-309.5"/>
<text text-anchor="start" x="459" y="-325.1" font-family="Helvetica,sans-Serif" font-size="8.00">flow::util::buffers</text>
<text text-anchor="middle" x="494" y="-316.1" font-family="Helvetica,sans-Serif" font-size="8.00">_dump_string</text>
</a>
</g>
</g>
<!-- Node3&#45;&gt;Node4 -->
<g id="edge3" class="edge">
<title>Node3&#45;&gt;Node4</title>
<path fill="none" stroke="midnightblue" d="M392.74,-293.56C408.08,-297.99 425.33,-302.97 441.14,-307.53"/>
<polygon fill="midnightblue" stroke="midnightblue" points="440.19,-310.9 450.77,-310.31 442.13,-304.17 440.19,-310.9"/>
</g>
<!-- Node7 -->
<g id="node7" class="node">
<title>Node7</title>
<g id="a_node7"><a xlink:href="classflow_1_1log_1_1Log__context.html#af4db395042b065b00398cd59845dcb4d" target="_top" xlink:title="Returns the stored Logger pointer, particularly as many FLOW_LOG_*() macros expect.">
<polygon fill="white" stroke="black" points="744,-156.5 744,-182.5 851,-182.5 851,-156.5 744,-156.5"/>
<text text-anchor="start" x="752" y="-172.1" font-family="Helvetica,sans-Serif" font-size="8.00">flow::log::Log_context</text>
<text text-anchor="middle" x="797.5" y="-163.1" font-family="Helvetica,sans-Serif" font-size="8.00">::get_logger</text>
</a>
</g>
</g>
<!-- Node3&#45;&gt;Node7 -->
<g id="edge6" class="edge">
<title>Node3&#45;&gt;Node7</title>
<path fill="none" stroke="midnightblue" d="M403.6,-289.77C477.17,-299.28 608.53,-306.96 708,-261.5 740.95,-246.44 767.91,-213.1 783.09,-190.96"/>
<polygon fill="midnightblue" stroke="midnightblue" points="786.07,-192.8 788.68,-182.53 780.24,-188.93 786.07,-192.8"/>
</g>
<!-- Node5 -->
<g id="node5" class="node">
<title>Node5</title>
<g id="a_node5"><a xlink:href="namespaceflow_1_1util.html#aa132928b364caefca5c3821e019924bf" target="_top" xlink:title="Writes a multi&#45; or single&#45;line string representation of the provided binary data to an output stream,...">
<polygon fill="white" stroke="black" points="601.5,-354.5 601.5,-380.5 687.5,-380.5 687.5,-354.5 601.5,-354.5"/>
<text text-anchor="start" x="609.5" y="-370.1" font-family="Helvetica,sans-Serif" font-size="8.00">flow::util::buffers</text>
<text text-anchor="middle" x="644.5" y="-361.1" font-family="Helvetica,sans-Serif" font-size="8.00">_to_ostream</text>
</a>
</g>
</g>
<!-- Node4&#45;&gt;Node5 -->
<g id="edge4" class="edge">
<title>Node4&#45;&gt;Node5</title>
<path fill="none" stroke="midnightblue" d="M537.16,-335.27C554.16,-340.43 573.94,-346.42 591.8,-351.83"/>
<polygon fill="midnightblue" stroke="midnightblue" points="590.91,-355.22 601.49,-354.77 592.94,-348.52 590.91,-355.22"/>
</g>
<!-- Node6 -->
<g id="node6" class="node">
<title>Node6</title>
<g id="a_node6"><a xlink:href="classflow_1_1util_1_1String__ostream.html#a7e64b069ae0e221952068c13fdc0f080" target="_top" xlink:title="Access to stream that will write to owned string.">
<polygon fill="white" stroke="black" points="603.5,-309.5 603.5,-335.5 685.5,-335.5 685.5,-309.5 603.5,-309.5"/>
<text text-anchor="start" x="611.5" y="-325.1" font-family="Helvetica,sans-Serif" font-size="8.00">flow::util::String</text>
<text text-anchor="middle" x="644.5" y="-316.1" font-family="Helvetica,sans-Serif" font-size="8.00">_ostream::os</text>
</a>
</g>
</g>
<!-- Node4&#45;&gt;Node6 -->
<g id="edge5" class="edge">
<title>Node4&#45;&gt;Node6</title>
<path fill="none" stroke="midnightblue" d="M537.16,-322.5C554.58,-322.5 574.93,-322.5 593.14,-322.5"/>
<polygon fill="midnightblue" stroke="midnightblue" points="593.28,-326 603.28,-322.5 593.28,-319 593.28,-326"/>
</g>
<!-- Node9 -->
<g id="node9" class="node">
<title>Node9</title>
<g id="a_node9"><a xlink:href="classflow_1_1net__flow_1_1Node.html#a109a118ca312e94686595ea08dac7ad0" target="_top" xlink:title="Helper method that checks whether the given Peer_socket or Server_socket is CLOSED; if so,...">
<polygon fill="white" stroke="black" points="443.5,-225.5 443.5,-251.5 544.5,-251.5 544.5,-225.5 443.5,-225.5"/>
<text text-anchor="start" x="451.5" y="-241.1" font-family="Helvetica,sans-Serif" font-size="8.00">flow::net_flow::Node</text>
<text text-anchor="middle" x="494" y="-232.1" font-family="Helvetica,sans-Serif" font-size="8.00">::ensure_sock_open</text>
</a>
</g>
</g>
<!-- Node8&#45;&gt;Node9 -->
<g id="edge8" class="edge">
<title>Node8&#45;&gt;Node9</title>
<path fill="none" stroke="midnightblue" d="M389.58,-206.52C405.65,-211.48 424.16,-217.21 441.04,-222.43"/>
<polygon fill="midnightblue" stroke="midnightblue" points="440.17,-225.82 450.76,-225.44 442.24,-219.14 440.17,-225.82"/>
</g>
<!-- Node10 -->
<g id="node10" class="node">
<title>Node10</title>
<g id="a_node10"><a xlink:href="classflow_1_1net__flow_1_1Peer__socket.html#a5003c554807f5b5b58989ad58be48d42" target="_top" xlink:title="Constructs object; initializes most values to well&#45;defined (0, empty, etc.) but not necessarily meani...">
<polygon fill="white" stroke="black" points="443,-180.5 443,-206.5 545,-206.5 545,-180.5 443,-180.5"/>
<text text-anchor="start" x="451" y="-196.1" font-family="Helvetica,sans-Serif" font-size="8.00">flow::net_flow::Peer</text>
<text text-anchor="middle" x="494" y="-187.1" font-family="Helvetica,sans-Serif" font-size="8.00">_socket::Peer_socket</text>
</a>
</g>
</g>
<!-- Node8&#45;&gt;Node10 -->
<g id="edge9" class="edge">
<title>Node8&#45;&gt;Node10</title>
<path fill="none" stroke="midnightblue" d="M407.1,-193.5C415.47,-193.5 424.08,-193.5 432.47,-193.5"/>
<polygon fill="midnightblue" stroke="midnightblue" points="432.55,-197 442.55,-193.5 432.55,-190 432.55,-197"/>
</g>
<!-- Node13 -->
<g id="node12" class="node">
<title>Node13</title>
<g id="a_node12"><a xlink:href="classflow_1_1net__flow_1_1Node.html#aa19d1f49638ef8ce8883e7477a06d3fc" target="_top" xlink:title="Implementation of non&#45;blocking sock&#45;&gt;send() for socket sock in all cases except when sock&#45;&gt;state() ==...">
<polygon fill="white" stroke="black" points="443.5,-135.5 443.5,-161.5 544.5,-161.5 544.5,-135.5 443.5,-135.5"/>
<text text-anchor="start" x="451.5" y="-151.1" font-family="Helvetica,sans-Serif" font-size="8.00">flow::net_flow::Node</text>
<text text-anchor="middle" x="494" y="-142.1" font-family="Helvetica,sans-Serif" font-size="8.00">::send</text>
</a>
</g>
</g>
<!-- Node8&#45;&gt;Node13 -->
<g id="edge11" class="edge">
<title>Node8&#45;&gt;Node13</title>
<path fill="none" stroke="midnightblue" d="M389.58,-180.48C405.65,-175.52 424.16,-169.79 441.04,-164.57"/>
<polygon fill="midnightblue" stroke="midnightblue" points="442.24,-167.86 450.76,-161.56 440.17,-161.18 442.24,-167.86"/>
</g>
<!-- Node51 -->
<g id="node16" class="node">
<title>Node51</title>
<g id="a_node16"><a xlink:href="classflow_1_1net__flow_1_1Node.html#a2a4dc3d8e294bbc8423e111f52e414ae" target="_top" xlink:title="Implementation of core blocking transfer methods, namely Peer_socket::sync_send(),...">
<polygon fill="white" stroke="black" points="443.5,-68.5 443.5,-94.5 544.5,-94.5 544.5,-68.5 443.5,-68.5"/>
<text text-anchor="start" x="451.5" y="-84.1" font-family="Helvetica,sans-Serif" font-size="8.00">flow::net_flow::Node</text>
<text text-anchor="middle" x="494" y="-75.1" font-family="Helvetica,sans-Serif" font-size="8.00">::sync_op</text>
</a>
</g>
</g>
<!-- Node8&#45;&gt;Node51 -->
<g id="edge15" class="edge">
<title>Node8&#45;&gt;Node51</title>
<path fill="none" stroke="midnightblue" d="M364.48,-180.43C389.86,-160.9 437.87,-123.93 467.49,-101.14"/>
<polygon fill="midnightblue" stroke="midnightblue" points="469.89,-103.7 475.68,-94.83 465.62,-98.16 469.89,-103.7"/>
</g>
<!-- Node11 -->
<g id="node11" class="node">
<title>Node11</title>
<g id="a_node11"><a xlink:href="classflow_1_1net__flow_1_1Peer__socket.html#ad94e37c8cca01f801f13e9e0e0bc857d" target="_top" xlink:title="Copies this socket&#39;s option set and returns that copy.">
<polygon fill="white" stroke="red" points="596,-225.5 596,-251.5 693,-251.5 693,-225.5 596,-225.5"/>
<text text-anchor="start" x="604" y="-241.1" font-family="Helvetica,sans-Serif" font-size="8.00">flow::net_flow::Peer</text>
<text text-anchor="middle" x="644.5" y="-232.1" font-family="Helvetica,sans-Serif" font-size="8.00">_socket::options</text>
</a>
</g>
</g>
<!-- Node10&#45;&gt;Node11 -->
<g id="edge10" class="edge">
<title>Node10&#45;&gt;Node11</title>
<path fill="none" stroke="midnightblue" d="M537.95,-206.52C554.35,-211.48 573.24,-217.21 590.47,-222.43"/>
<polygon fill="midnightblue" stroke="midnightblue" points="589.8,-225.88 600.39,-225.44 591.83,-219.19 589.8,-225.88"/>
</g>
<!-- Node14 -->
<g id="node13" class="node">
<title>Node14</title>
<g id="a_node13"><a xlink:href="classflow_1_1net__flow_1_1Node.html#aae148cec361b59237996a4b30c6624b5" target="_top" xlink:title="Returns true if and only if the Node is operating.">
<polygon fill="white" stroke="black" points="594,-90.5 594,-116.5 695,-116.5 695,-90.5 594,-90.5"/>
<text text-anchor="start" x="602" y="-106.1" font-family="Helvetica,sans-Serif" font-size="8.00">flow::net_flow::Node</text>
<text text-anchor="middle" x="644.5" y="-97.1" font-family="Helvetica,sans-Serif" font-size="8.00">::running</text>
</a>
</g>
</g>
<!-- Node13&#45;&gt;Node14 -->
<g id="edge12" class="edge">
<title>Node13&#45;&gt;Node14</title>
<path fill="none" stroke="midnightblue" d="M537.95,-135.48C554.35,-130.52 573.24,-124.79 590.47,-119.57"/>
<polygon fill="midnightblue" stroke="midnightblue" points="591.83,-122.81 600.39,-116.56 589.8,-116.12 591.83,-122.81"/>
</g>
<!-- Node15 -->
<g id="node14" class="node">
<title>Node15</title>
<g id="a_node14"><a xlink:href="classflow_1_1net__flow_1_1Node.html#a2565b7c0bd82cad86eb168b62f8ffd9d" target="_top" xlink:title="Helper placed by send() onto W to invoke send_worker() but ensures that the socket has not entered so...">
<polygon fill="white" stroke="red" points="581,-180.5 581,-206.5 708,-206.5 708,-180.5 581,-180.5"/>
<text text-anchor="start" x="589" y="-196.1" font-family="Helvetica,sans-Serif" font-size="8.00">flow::net_flow::Node</text>
<text text-anchor="middle" x="644.5" y="-187.1" font-family="Helvetica,sans-Serif" font-size="8.00">::send_worker_check_state</text>
</a>
</g>
</g>
<!-- Node13&#45;&gt;Node15 -->
<g id="edge13" class="edge">
<title>Node13&#45;&gt;Node15</title>
<path fill="none" stroke="midnightblue" d="M537.95,-161.52C554.35,-166.48 573.24,-172.21 590.47,-177.43"/>
<polygon fill="midnightblue" stroke="midnightblue" points="589.8,-180.88 600.39,-180.44 591.83,-174.19 589.8,-180.88"/>
</g>
<!-- Node47 -->
<g id="node15" class="node">
<title>Node47</title>
<g id="a_node15"><a xlink:href="classflow_1_1net__flow_1_1Node.html#a382b607fa2e482886f2fd75edc36b8b7" target="_top" xlink:title="Return true if and only if there are enough data either in Peer_socket::m_snd_rexmit_q of sock (if re...">
<polygon fill="white" stroke="black" points="594,-135.5 594,-161.5 695,-161.5 695,-135.5 594,-135.5"/>
<text text-anchor="start" x="602" y="-151.1" font-family="Helvetica,sans-Serif" font-size="8.00">flow::net_flow::Node</text>
<text text-anchor="middle" x="644.5" y="-142.1" font-family="Helvetica,sans-Serif" font-size="8.00">::snd_deqable</text>
</a>
</g>
</g>
<!-- Node13&#45;&gt;Node47 -->
<g id="edge14" class="edge">
<title>Node13&#45;&gt;Node47</title>
<path fill="none" stroke="midnightblue" d="M544.86,-148.5C557.29,-148.5 570.75,-148.5 583.61,-148.5"/>
<polygon fill="midnightblue" stroke="midnightblue" points="583.77,-152 593.77,-148.5 583.77,-145 583.77,-152"/>
</g>
<!-- Node51&#45;&gt;Node14 -->
<g id="edge18" class="edge">
<title>Node51&#45;&gt;Node14</title>
<path fill="none" stroke="midnightblue" d="M544.86,-88.89C557.29,-90.73 570.75,-92.72 583.61,-94.63"/>
<polygon fill="midnightblue" stroke="midnightblue" points="583.37,-98.13 593.77,-96.13 584.39,-91.2 583.37,-98.13"/>
</g>
<!-- Node52 -->
<g id="node17" class="node">
<title>Node52</title>
<g id="a_node17"><a xlink:href="classflow_1_1net__flow_1_1Node.html#ad100464cf0126dbbad39bde1c90a774f" target="_top" xlink:title="Creates a new Event_set in Event_set::State::S_INACTIVE state with no sockets/events stored; returns ...">
<polygon fill="white" stroke="red" points="594,-45.5 594,-71.5 695,-71.5 695,-45.5 594,-45.5"/>
<text text-anchor="start" x="602" y="-61.1" font-family="Helvetica,sans-Serif" font-size="8.00">flow::net_flow::Node</text>
<text text-anchor="middle" x="644.5" y="-52.1" font-family="Helvetica,sans-Serif" font-size="8.00">::event_set_create</text>
</a>
</g>
</g>
<!-- Node51&#45;&gt;Node52 -->
<g id="edge16" class="edge">
<title>Node51&#45;&gt;Node52</title>
<path fill="none" stroke="midnightblue" d="M544.86,-73.78C557.29,-71.85 570.75,-69.77 583.61,-67.78"/>
<polygon fill="midnightblue" stroke="midnightblue" points="584.42,-71.19 593.77,-66.2 583.35,-64.27 584.42,-71.19"/>
</g>
<!-- Node57 -->
<g id="node18" class="node">
<title>Node57</title>
<g id="a_node18"><a xlink:href="namespaceflow_1_1util.html#a09a032f8e1e77a3afc0b7df115a773e1" target="_top" xlink:title="Provides a way to execute arbitrary (cleanup) code at the exit of the current block.">
<polygon fill="white" stroke="black" points="592.5,-0.5 592.5,-26.5 696.5,-26.5 696.5,-0.5 592.5,-0.5"/>
<text text-anchor="start" x="600.5" y="-16.1" font-family="Helvetica,sans-Serif" font-size="8.00">flow::util::setup_auto</text>
<text text-anchor="middle" x="644.5" y="-7.1" font-family="Helvetica,sans-Serif" font-size="8.00">_cleanup</text>
</a>
</g>
</g>
<!-- Node51&#45;&gt;Node57 -->
<g id="edge19" class="edge">
<title>Node51&#45;&gt;Node57</title>
<path fill="none" stroke="midnightblue" d="M517.17,-68.43C534.26,-58.65 558.69,-45.33 581,-35.5 585.14,-33.68 589.48,-31.9 593.86,-30.19"/>
<polygon fill="midnightblue" stroke="midnightblue" points="595.35,-33.37 603.47,-26.57 592.88,-26.82 595.35,-33.37"/>
</g>
<!-- Node52&#45;&gt;Node7 -->
<g id="edge17" class="edge">
<title>Node52&#45;&gt;Node7</title>
<path fill="none" stroke="midnightblue" d="M690.36,-71.5C696.5,-74.07 702.55,-77.06 708,-80.5 737.18,-98.93 764.13,-128.62 780.44,-148.58"/>
<polygon fill="midnightblue" stroke="midnightblue" points="777.77,-150.86 786.75,-156.48 783.24,-146.49 777.77,-150.86"/>
</g>
</g>
</svg>
