<?xml version="1.0" encoding="UTF-8" standalone="no"?>
<!DOCTYPE svg PUBLIC "-//W3C//DTD SVG 1.1//EN"
 "http://www.w3.org/Graphics/SVG/1.1/DTD/svg11.dtd">
<!-- Generated by graphviz version 2.43.0 (0)
 -->
<!-- Title: flow::Function&lt; Result(Args...)&gt; Pages: 1 -->
<svg width="117pt" height="98pt"
 viewBox="0.00 0.00 117.00 98.00" xmlns="http://www.w3.org/2000/svg" xmlns:xlink="http://www.w3.org/1999/xlink">
<g id="graph0" class="graph" transform="scale(1 1) rotate(0) translate(4 94)">
<title>flow::Function&lt; Result(Args...)&gt;</title>
<polygon fill="white" stroke="transparent" points="-4,4 -4,-94 113,-94 113,4 -4,4"/>
<!-- Node1 -->
<g id="node1" class="node">
<title>Node1</title>
<g id="a_node1"><a xlink:title="Intended as the polymorphic function wrapper of choice for Flow, internally and externally; to be use...">
<polygon fill="#bfbfbf" stroke="black" points="0,-0.5 0,-26.5 109,-26.5 109,-0.5 0,-0.5"/>
<text text-anchor="start" x="8" y="-16.1" font-family="Helvetica,sans-Serif" font-size="8.00">flow::Function&lt; Result</text>
<text text-anchor="middle" x="54.5" y="-7.1" font-family="Helvetica,sans-Serif" font-size="8.00">(Args...)&gt;</text>
</a>
</g>
</g>
<!-- Node2 -->
<g id="node2" class="node">
<title>Node2</title>
<g id="a_node2"><a xlink:title=" ">
<polygon fill="white" stroke="#bfbfbf" points="2.5,-63.5 2.5,-89.5 106.5,-89.5 106.5,-63.5 2.5,-63.5"/>
<text text-anchor="start" x="10.5" y="-79.1" font-family="Helvetica,sans-Serif" font-size="8.00">std::function&lt; Result</text>
<text text-anchor="middle" x="54.5" y="-70.1" font-family="Helvetica,sans-Serif" font-size="8.00">(Args...)&gt;</text>
</a>
</g>
</g>
<!-- Node2&#45;&gt;Node1 -->
<g id="edge1" class="edge">
<title>Node2&#45;&gt;Node1</title>
<path fill="none" stroke="midnightblue" d="M54.5,-53.19C54.5,-44.18 54.5,-34.12 54.5,-26.53"/>
<polygon fill="midnightblue" stroke="midnightblue" points="51,-53.45 54.5,-63.45 58,-53.45 51,-53.45"/>
</g>
</g>
</svg>
