<?xml version="1.0" encoding="UTF-8" standalone="no"?>
<!DOCTYPE svg PUBLIC "-//W3C//DTD SVG 1.1//EN"
 "http://www.w3.org/Graphics/SVG/1.1/DTD/svg11.dtd">
<!-- Generated by graphviz version 2.43.0 (0)
 -->
<!-- Title: flow::net_flow::Event_set::sock_as_any_to_str Pages: 1 -->
<svg width="1568pt" height="622pt"
 viewBox="0.00 0.00 1568.00 621.50" xmlns="http://www.w3.org/2000/svg" xmlns:xlink="http://www.w3.org/1999/xlink">
<g id="graph0" class="graph" transform="scale(1 1) rotate(0) translate(4 617.5)">
<title>flow::net_flow::Event_set::sock_as_any_to_str</title>
<polygon fill="white" stroke="transparent" points="-4,4 -4,-617.5 1564,-617.5 1564,4 -4,4"/>
<!-- Node1 -->
<g id="node1" class="node">
<title>Node1</title>
<g id="a_node1"><a xlink:title="Helper that returns a loggable string representing the socket stored in the given boost::any that sto...">
<polygon fill="#bfbfbf" stroke="black" points="1444,-302.5 1444,-328.5 1560,-328.5 1560,-302.5 1444,-302.5"/>
<text text-anchor="start" x="1452" y="-318.1" font-family="Helvetica,sans-Serif" font-size="8.00">flow::net_flow::Event</text>
<text text-anchor="middle" x="1502" y="-309.1" font-family="Helvetica,sans-Serif" font-size="8.00">_set::sock_as_any_to_str</text>
</a>
</g>
</g>
<!-- Node2 -->
<g id="node2" class="node">
<title>Node2</title>
<g id="a_node2"><a xlink:href="classflow_1_1net__flow_1_1Node.html#a8a4ddf81ddbeab1f740940c4cc0d3625" target="_top" xlink:title="For each WAITING Event_set within the Node: checks for any events that hold, and if any do hold,...">
<polygon fill="white" stroke="black" points="1279.5,-361.5 1279.5,-387.5 1407.5,-387.5 1407.5,-361.5 1279.5,-361.5"/>
<text text-anchor="start" x="1287.5" y="-377.1" font-family="Helvetica,sans-Serif" font-size="8.00">flow::net_flow::Node</text>
<text text-anchor="middle" x="1343.5" y="-368.1" font-family="Helvetica,sans-Serif" font-size="8.00">::event_set_all_check_delta</text>
</a>
</g>
</g>
<!-- Node1&#45;&gt;Node2 -->
<g id="edge1" class="edge">
<title>Node1&#45;&gt;Node2</title>
<path fill="none" stroke="midnightblue" d="M1456.79,-332.17C1432.19,-341.44 1402.01,-352.82 1379.14,-361.44"/>
<polygon fill="midnightblue" stroke="midnightblue" points="1458.15,-335.4 1466.27,-328.59 1455.68,-328.85 1458.15,-335.4"/>
</g>
<!-- Node48 -->
<g id="node24" class="node">
<title>Node48</title>
<g id="a_node24"><a xlink:href="classflow_1_1net__flow_1_1Node.html#a2195fb7d86acfaf340b3e7e59e7e10e8" target="_top" xlink:title="Checks each desired (Event_set::m_want) event in event_set; any that holds true is saved into event_s...">
<polygon fill="white" stroke="black" points="1279,-280.5 1279,-306.5 1408,-306.5 1408,-280.5 1279,-280.5"/>
<text text-anchor="start" x="1287" y="-296.1" font-family="Helvetica,sans-Serif" font-size="8.00">flow::net_flow::Node</text>
<text text-anchor="middle" x="1343.5" y="-287.1" font-family="Helvetica,sans-Serif" font-size="8.00">::event_set_check_baseline</text>
</a>
</g>
</g>
<!-- Node1&#45;&gt;Node48 -->
<g id="edge33" class="edge">
<title>Node1&#45;&gt;Node48</title>
<path fill="none" stroke="midnightblue" d="M1433.49,-306.01C1425.1,-304.83 1416.55,-303.63 1408.22,-302.46"/>
<polygon fill="midnightblue" stroke="midnightblue" points="1433.22,-309.51 1443.61,-307.43 1434.2,-302.57 1433.22,-309.51"/>
</g>
<!-- Node3 -->
<g id="node3" class="node">
<title>Node3</title>
<g id="a_node3"><a xlink:href="classflow_1_1net__flow_1_1Node.html#ade49e7bc7202a0adf33fec2d93d1b177" target="_top" xlink:title="A thread W method that handles the transition of the given socket from OPEN (any sub&#45;state) to CLOSED...">
<polygon fill="white" stroke="black" points="1095,-238.5 1095,-264.5 1243,-264.5 1243,-238.5 1095,-238.5"/>
<text text-anchor="start" x="1103" y="-254.1" font-family="Helvetica,sans-Serif" font-size="8.00">flow::net_flow::Node</text>
<text text-anchor="middle" x="1169" y="-245.1" font-family="Helvetica,sans-Serif" font-size="8.00">::close_connection_immediately</text>
</a>
</g>
</g>
<!-- Node2&#45;&gt;Node3 -->
<g id="edge2" class="edge">
<title>Node2&#45;&gt;Node3</title>
<path fill="none" stroke="midnightblue" d="M1315.63,-355.34C1280.22,-330.09 1218.85,-286.33 1188.33,-264.57"/>
<polygon fill="midnightblue" stroke="midnightblue" points="1313.87,-358.38 1324.04,-361.34 1317.93,-352.68 1313.87,-358.38"/>
</g>
<!-- Node18 -->
<g id="node9" class="node">
<title>Node18</title>
<g id="a_node9"><a xlink:href="classflow_1_1net__flow_1_1Node.html#a10a92f11a2c9f218cdd9a55f282e79b1" target="_top" xlink:title="Thread W implemention of send(): synchronously or asynchronously send the contents of sock&#45;&gt;m_snd_buf...">
<polygon fill="white" stroke="red" points="769.5,-520.5 769.5,-546.5 870.5,-546.5 870.5,-520.5 769.5,-520.5"/>
<text text-anchor="start" x="777.5" y="-536.1" font-family="Helvetica,sans-Serif" font-size="8.00">flow::net_flow::Node</text>
<text text-anchor="middle" x="820" y="-527.1" font-family="Helvetica,sans-Serif" font-size="8.00">::send_worker</text>
</a>
</g>
</g>
<!-- Node2&#45;&gt;Node18 -->
<g id="edge32" class="edge">
<title>Node2&#45;&gt;Node18</title>
<path fill="none" stroke="midnightblue" d="M1290.24,-390.43C1187.06,-421.89 958.96,-491.44 863.9,-520.42"/>
<polygon fill="midnightblue" stroke="midnightblue" points="1291.28,-393.78 1299.82,-387.51 1289.24,-387.08 1291.28,-393.78"/>
</g>
<!-- Node38 -->
<g id="node18" class="node">
<title>Node38</title>
<g id="a_node18"><a xlink:href="classflow_1_1net__flow_1_1Node.html#a29d02f9e302c7b06288ff1c644fa8d65" target="_top" xlink:title="Handles a just&#45;deserialized, just&#45;demultiplexed low&#45;level SYN_ACK_ACK packet delivered to the given p...">
<polygon fill="white" stroke="black" points="604,-165 604,-200 709,-200 709,-165 604,-165"/>
<text text-anchor="start" x="612" y="-189.6" font-family="Helvetica,sans-Serif" font-size="8.00">flow::net_flow::Node</text>
<text text-anchor="start" x="612" y="-180.6" font-family="Helvetica,sans-Serif" font-size="8.00">::handle_syn_ack_ack</text>
<text text-anchor="middle" x="656.5" y="-171.6" font-family="Helvetica,sans-Serif" font-size="8.00">_to_syn_rcvd</text>
</a>
</g>
</g>
<!-- Node2&#45;&gt;Node38 -->
<g id="edge28" class="edge">
<title>Node2&#45;&gt;Node38</title>
<path fill="none" stroke="midnightblue" d="M1317.68,-393.65C1298.19,-408.01 1269.94,-427.36 1243,-440.5 1140.87,-490.3 834.03,-627.11 745,-556.5 687.66,-511.02 664.32,-268.58 658.83,-200.37"/>
<polygon fill="midnightblue" stroke="midnightblue" points="1319.81,-396.43 1325.72,-387.64 1315.62,-390.83 1319.81,-396.43"/>
</g>
<!-- Node46 -->
<g id="node22" class="node">
<title>Node46</title>
<g id="a_node22"><a xlink:href="classflow_1_1net__flow_1_1Node.html#adf6d71af81def2d030f0fef159c1b06d" target="_top" xlink:title="Handles the transition of the given server socket from S_LISTENING/S_CLOSING to S_CLOSED (including e...">
<polygon fill="white" stroke="black" points="1117.5,-178 1117.5,-213 1220.5,-213 1220.5,-178 1117.5,-178"/>
<text text-anchor="start" x="1125.5" y="-202.6" font-family="Helvetica,sans-Serif" font-size="8.00">flow::net_flow::Node</text>
<text text-anchor="start" x="1125.5" y="-193.6" font-family="Helvetica,sans-Serif" font-size="8.00">::close_empty_server</text>
<text text-anchor="middle" x="1169" y="-184.6" font-family="Helvetica,sans-Serif" font-size="8.00">_immediately</text>
</a>
</g>
</g>
<!-- Node2&#45;&gt;Node46 -->
<g id="edge26" class="edge">
<title>Node2&#45;&gt;Node46</title>
<path fill="none" stroke="midnightblue" d="M1316.41,-355.15C1303.82,-344.78 1289.27,-331.14 1279,-316.5 1254.98,-282.24 1271.94,-259.73 1243,-229.5 1236.72,-222.94 1228.92,-217.51 1220.78,-213.08"/>
<polygon fill="midnightblue" stroke="midnightblue" points="1314.33,-357.96 1324.33,-361.46 1318.7,-352.49 1314.33,-357.96"/>
</g>
<!-- Node47 -->
<g id="node23" class="node">
<title>Node47</title>
<g id="a_node23"><a xlink:href="classflow_1_1net__flow_1_1Node.html#a0fba26db0055a969f3869014bc5c2bfc" target="_top" xlink:title="Performs all tasks to be performed at the end of low_lvl_recv_and_handle() or async part of async_wai...">
<polygon fill="white" stroke="black" points="456,-312 456,-347 568,-347 568,-312 456,-312"/>
<text text-anchor="start" x="464" y="-336.6" font-family="Helvetica,sans-Serif" font-size="8.00">flow::net_flow::Node</text>
<text text-anchor="start" x="464" y="-327.6" font-family="Helvetica,sans-Serif" font-size="8.00">::perform_accumulated</text>
<text text-anchor="middle" x="512" y="-318.6" font-family="Helvetica,sans-Serif" font-size="8.00">_on_recv_tasks</text>
</a>
</g>
</g>
<!-- Node2&#45;&gt;Node47 -->
<g id="edge29" class="edge">
<title>Node2&#45;&gt;Node47</title>
<path fill="none" stroke="midnightblue" d="M1327.06,-395.89C1282.75,-454.53 1148.57,-613.5 996,-613.5 996,-613.5 996,-613.5 819,-613.5 661.72,-613.5 551.21,-409.44 521.19,-347.27"/>
<polygon fill="midnightblue" stroke="midnightblue" points="1330,-397.8 1333.16,-387.69 1324.38,-393.62 1330,-397.8"/>
</g>
<!-- Node4 -->
<g id="node4" class="node">
<title>Node4</title>
<g id="a_node4"><a xlink:href="classflow_1_1net__flow_1_1Node.html#aa5f7c019665d9dd91af0ad6431f8f97d" target="_top" xlink:title="Similar to async_sock_low_lvl_packet_send_paced() except it also calls close_connection_immediately(s...">
<polygon fill="white" stroke="black" points="940,-368.5 940,-412.5 1050,-412.5 1050,-368.5 940,-368.5"/>
<text text-anchor="start" x="948" y="-402.1" font-family="Helvetica,sans-Serif" font-size="8.00">flow::net_flow::Node</text>
<text text-anchor="start" x="948" y="-393.1" font-family="Helvetica,sans-Serif" font-size="8.00">::async_sock_low_lvl</text>
<text text-anchor="start" x="948" y="-384.1" font-family="Helvetica,sans-Serif" font-size="8.00">_packet_send_or_close</text>
<text text-anchor="middle" x="995" y="-375.1" font-family="Helvetica,sans-Serif" font-size="8.00">_immediately</text>
</a>
</g>
</g>
<!-- Node3&#45;&gt;Node4 -->
<g id="edge3" class="edge">
<title>Node3&#45;&gt;Node4</title>
<path fill="none" stroke="midnightblue" d="M1143.94,-270.95C1112.29,-296.52 1056.8,-341.37 1023.52,-368.26"/>
<polygon fill="midnightblue" stroke="midnightblue" points="1146.24,-273.58 1151.82,-264.58 1141.84,-268.14 1146.24,-273.58"/>
</g>
<!-- Node28 -->
<g id="node10" class="node">
<title>Node28</title>
<g id="a_node10"><a xlink:href="classflow_1_1net__flow_1_1Node.html#a1699dfdaf3e5ebe1b1d715a9c306d116" target="_top" xlink:title="Handles a just&#45;received, not&#45;yet&#45;deserialized low&#45;level packet.">
<polygon fill="white" stroke="black" points="461.5,-215.5 461.5,-241.5 562.5,-241.5 562.5,-215.5 461.5,-215.5"/>
<text text-anchor="start" x="469.5" y="-231.1" font-family="Helvetica,sans-Serif" font-size="8.00">flow::net_flow::Node</text>
<text text-anchor="middle" x="512" y="-222.1" font-family="Helvetica,sans-Serif" font-size="8.00">::handle_incoming</text>
</a>
</g>
</g>
<!-- Node3&#45;&gt;Node28 -->
<g id="edge10" class="edge">
<title>Node3&#45;&gt;Node28</title>
<path fill="none" stroke="midnightblue" d="M1084.59,-248.42C1075.95,-248.11 1067.3,-247.8 1059,-247.5 876.06,-240.96 658.63,-233.48 562.69,-230.2"/>
<polygon fill="midnightblue" stroke="midnightblue" points="1084.59,-251.93 1094.71,-248.79 1084.84,-244.93 1084.59,-251.93"/>
</g>
<!-- Node34 -->
<g id="node14" class="node">
<title>Node34</title>
<g id="a_node14"><a xlink:href="classflow_1_1net__flow_1_1Node.html#ad608f9bbe76426f4fbf4bf5af908e4e0" target="_top" xlink:title="Placed by receive() onto W during a graceful close, after the Receive buffer had been emptied by the ...">
<polygon fill="white" stroke="black" points="934.5,-257 934.5,-292 1055.5,-292 1055.5,-257 934.5,-257"/>
<text text-anchor="start" x="942.5" y="-281.6" font-family="Helvetica,sans-Serif" font-size="8.00">flow::net_flow::Node</text>
<text text-anchor="start" x="942.5" y="-272.6" font-family="Helvetica,sans-Serif" font-size="8.00">::receive_emptied_rcv</text>
<text text-anchor="middle" x="995" y="-263.6" font-family="Helvetica,sans-Serif" font-size="8.00">_buf_while_disconnecting</text>
</a>
</g>
</g>
<!-- Node3&#45;&gt;Node34 -->
<g id="edge16" class="edge">
<title>Node3&#45;&gt;Node34</title>
<path fill="none" stroke="midnightblue" d="M1084.47,-262.67C1074.76,-263.97 1065.01,-265.27 1055.71,-266.52"/>
<polygon fill="midnightblue" stroke="midnightblue" points="1085.11,-266.12 1094.56,-261.32 1084.18,-259.18 1085.11,-266.12"/>
</g>
<!-- Node35 -->
<g id="node16" class="node">
<title>Node35</title>
<g id="a_node16"><a xlink:href="classflow_1_1net__flow_1_1Node.html#afe70a0c32695e417e7a09e0ba773f151" target="_top" xlink:title="Asynchronously send RST to the other side of the given socket and close_connection_immediately().">
<polygon fill="white" stroke="black" points="931,-165 931,-200 1059,-200 1059,-165 931,-165"/>
<text text-anchor="start" x="939" y="-189.6" font-family="Helvetica,sans-Serif" font-size="8.00">flow::net_flow::Node</text>
<text text-anchor="start" x="939" y="-180.6" font-family="Helvetica,sans-Serif" font-size="8.00">::rst_and_close_connection</text>
<text text-anchor="middle" x="995" y="-171.6" font-family="Helvetica,sans-Serif" font-size="8.00">_immediately</text>
</a>
</g>
</g>
<!-- Node3&#45;&gt;Node35 -->
<g id="edge18" class="edge">
<title>Node3&#45;&gt;Node35</title>
<path fill="none" stroke="midnightblue" d="M1125.54,-234.68C1115.52,-230.7 1104.88,-226.46 1095,-222.5 1076.76,-215.19 1056.65,-207.08 1039.35,-200.08"/>
<polygon fill="midnightblue" stroke="midnightblue" points="1124.33,-237.97 1134.91,-238.4 1126.91,-231.46 1124.33,-237.97"/>
</g>
<!-- Node33 -->
<g id="node21" class="node">
<title>Node33</title>
<g id="a_node21"><a xlink:href="classflow_1_1net__flow_1_1Node.html#a5b056ed753b832458f44f537acfe86d7" target="_top" xlink:title="Worker thread W (main event loop) body.">
<polygon fill="white" stroke="black" points="944.5,-119.5 944.5,-145.5 1045.5,-145.5 1045.5,-119.5 944.5,-119.5"/>
<text text-anchor="start" x="952.5" y="-135.1" font-family="Helvetica,sans-Serif" font-size="8.00">flow::net_flow::Node</text>
<text text-anchor="middle" x="995" y="-126.1" font-family="Helvetica,sans-Serif" font-size="8.00">::worker_run</text>
</a>
</g>
</g>
<!-- Node3&#45;&gt;Node33 -->
<g id="edge25" class="edge">
<title>Node3&#45;&gt;Node33</title>
<path fill="none" stroke="midnightblue" d="M1111.8,-234.01C1105.75,-230.76 1099.99,-226.95 1095,-222.5 1069.76,-200.01 1084.55,-177.63 1059,-155.5 1054.51,-151.61 1049.31,-148.36 1043.86,-145.65"/>
<polygon fill="midnightblue" stroke="midnightblue" points="1110.29,-237.17 1120.82,-238.38 1113.35,-230.87 1110.29,-237.17"/>
</g>
<!-- Node5 -->
<g id="node5" class="node">
<title>Node5</title>
<g id="a_node5"><a xlink:href="classflow_1_1net__flow_1_1Node.html#a81e50276d0b162f6577adc690e0ef9e0" target="_top" xlink:title="Sends a low&#45;level ACK packet, with all accumulated in Peer_socket::m_rcv_pending_acks of sock individ...">
<polygon fill="white" stroke="black" points="760.5,-302.5 760.5,-328.5 879.5,-328.5 879.5,-302.5 760.5,-302.5"/>
<text text-anchor="start" x="768.5" y="-318.1" font-family="Helvetica,sans-Serif" font-size="8.00">flow::net_flow::Node</text>
<text text-anchor="middle" x="820" y="-309.1" font-family="Helvetica,sans-Serif" font-size="8.00">::async_low_lvl_ack_send</text>
</a>
</g>
</g>
<!-- Node4&#45;&gt;Node5 -->
<g id="edge4" class="edge">
<title>Node4&#45;&gt;Node5</title>
<path fill="none" stroke="midnightblue" d="M946.57,-363.34C930.5,-354.75 912.24,-345.64 895,-338.5 886.3,-334.9 876.82,-331.55 867.65,-328.58"/>
<polygon fill="midnightblue" stroke="midnightblue" points="945.3,-366.63 955.76,-368.32 948.64,-360.48 945.3,-366.63"/>
</g>
<!-- Node6 -->
<g id="node6" class="node">
<title>Node6</title>
<g id="a_node6"><a xlink:href="classflow_1_1net__flow_1_1Node.html#acaf55766783893827061fd85cab2634f" target="_top" xlink:title="Helper to create, fully fill out, and asynchronously send via async_sock_low_lvl_packet_send_or_close...">
<polygon fill="white" stroke="black" points="745,-466 745,-501 895,-501 895,-466 745,-466"/>
<text text-anchor="start" x="753" y="-490.6" font-family="Helvetica,sans-Serif" font-size="8.00">flow::net_flow::Node</text>
<text text-anchor="start" x="753" y="-481.6" font-family="Helvetica,sans-Serif" font-size="8.00">::async_low_lvl_syn_ack</text>
<text text-anchor="middle" x="820" y="-472.6" font-family="Helvetica,sans-Serif" font-size="8.00">_ack_send_or_close_immediately</text>
</a>
</g>
</g>
<!-- Node4&#45;&gt;Node6 -->
<g id="edge5" class="edge">
<title>Node4&#45;&gt;Node6</title>
<path fill="none" stroke="midnightblue" d="M956.34,-418.69C938.38,-431.32 916.22,-445.75 895,-456.5 888.29,-459.9 881.05,-463.08 873.81,-465.99"/>
<polygon fill="midnightblue" stroke="midnightblue" points="958.69,-421.31 964.8,-412.66 954.63,-415.61 958.69,-421.31"/>
</g>
<!-- Node7 -->
<g id="node7" class="node">
<title>Node7</title>
<g id="a_node7"><a xlink:href="classflow_1_1net__flow_1_1Node.html#a192d4b95b9f8a5c3d08b1e5486eb6f78" target="_top" xlink:title="receive_wnd_updated() helper that continues rcv_wnd recovery: that is, sends unsolicited ACK with a r...">
<polygon fill="white" stroke="red" points="759,-402.5 759,-428.5 881,-428.5 881,-402.5 759,-402.5"/>
<text text-anchor="start" x="767" y="-418.1" font-family="Helvetica,sans-Serif" font-size="8.00">flow::net_flow::Node</text>
<text text-anchor="middle" x="820" y="-409.1" font-family="Helvetica,sans-Serif" font-size="8.00">::async_rcv_wnd_recovery</text>
</a>
</g>
</g>
<!-- Node4&#45;&gt;Node7 -->
<g id="edge6" class="edge">
<title>Node4&#45;&gt;Node7</title>
<path fill="none" stroke="midnightblue" d="M929.49,-399.82C913.64,-402.11 896.72,-404.56 881.09,-406.82"/>
<polygon fill="midnightblue" stroke="midnightblue" points="930.34,-403.24 939.74,-398.34 929.34,-396.31 930.34,-403.24"/>
</g>
<!-- Node17 -->
<g id="node8" class="node">
<title>Node17</title>
<g id="a_node8"><a xlink:href="classflow_1_1net__flow_1_1Node.html#addd654cb6b1ccff34ddccbe5226be8f0" target="_top" xlink:title="Handles the triggering of the retransmit timer wait set up by setup_connection_timers(); it will re&#45;s...">
<polygon fill="white" stroke="black" points="755.5,-348 755.5,-383 884.5,-383 884.5,-348 755.5,-348"/>
<text text-anchor="start" x="763.5" y="-372.6" font-family="Helvetica,sans-Serif" font-size="8.00">flow::net_flow::Node</text>
<text text-anchor="start" x="763.5" y="-363.6" font-family="Helvetica,sans-Serif" font-size="8.00">::handle_connection_rexmit</text>
<text text-anchor="middle" x="820" y="-354.6" font-family="Helvetica,sans-Serif" font-size="8.00">_timer_event</text>
</a>
</g>
</g>
<!-- Node4&#45;&gt;Node17 -->
<g id="edge8" class="edge">
<title>Node4&#45;&gt;Node17</title>
<path fill="none" stroke="midnightblue" d="M929.73,-381.21C915.04,-379.09 899.43,-376.83 884.76,-374.71"/>
<polygon fill="midnightblue" stroke="midnightblue" points="929.34,-384.69 939.74,-382.66 930.34,-377.76 929.34,-384.69"/>
</g>
<!-- Node4&#45;&gt;Node18 -->
<g id="edge9" class="edge">
<title>Node4&#45;&gt;Node18</title>
<path fill="none" stroke="midnightblue" d="M975.7,-421.62C958.21,-448.79 929.45,-487.37 895,-510.5 887.63,-515.45 879.14,-519.37 870.6,-522.48"/>
<polygon fill="midnightblue" stroke="midnightblue" points="978.83,-423.22 981.19,-412.89 972.9,-419.49 978.83,-423.22"/>
</g>
<!-- Node7&#45;&gt;Node7 -->
<g id="edge7" class="edge">
<title>Node7&#45;&gt;Node7</title>
<path fill="none" stroke="midnightblue" d="M849.39,-438.58C846.41,-443.47 836.61,-447 820,-447 793.42,-447 784.29,-437.96 792.59,-428.77"/>
<polygon fill="midnightblue" stroke="midnightblue" points="852.82,-437.88 847.41,-428.77 845.96,-439.27 852.82,-437.88"/>
</g>
<!-- Node29 -->
<g id="node11" class="node">
<title>Node29</title>
<g id="a_node11"><a xlink:href="classflow_1_1net__flow_1_1Node.html#a4368247d07e930bdd07ab8d2425c6de8" target="_top" xlink:title="Sets up handle_incoming(packet_data, low_lvl_remote_endpoint) to be called asynchronously after a spe...">
<polygon fill="white" stroke="black" points="307,-257 307,-292 420,-292 420,-257 307,-257"/>
<text text-anchor="start" x="315" y="-281.6" font-family="Helvetica,sans-Serif" font-size="8.00">flow::net_flow::Node</text>
<text text-anchor="start" x="315" y="-272.6" font-family="Helvetica,sans-Serif" font-size="8.00">::async_wait_latency</text>
<text text-anchor="middle" x="363.5" y="-263.6" font-family="Helvetica,sans-Serif" font-size="8.00">_then_handle_incoming</text>
</a>
</g>
</g>
<!-- Node28&#45;&gt;Node29 -->
<g id="edge11" class="edge">
<title>Node28&#45;&gt;Node29</title>
<path fill="none" stroke="midnightblue" d="M459.83,-244.57C447,-248.59 433.18,-252.93 420.15,-257.03"/>
<polygon fill="midnightblue" stroke="midnightblue" points="460.92,-247.89 469.41,-241.56 458.82,-241.22 460.92,-247.89"/>
</g>
<!-- Node30 -->
<g id="node12" class="node">
<title>Node30</title>
<g id="a_node12"><a xlink:href="classflow_1_1net__flow_1_1Node.html#a90ecbad1ff3a8d2fe4b3ad1c474f7513" target="_top" xlink:title="Helper for low_lvl_recv_and_handle() that calls handle_incoming() on the not&#45;yet&#45;deserialized low&#45;lev...">
<polygon fill="white" stroke="black" points="158,-248 158,-283 271,-283 271,-248 158,-248"/>
<text text-anchor="start" x="166" y="-272.6" font-family="Helvetica,sans-Serif" font-size="8.00">flow::net_flow::Node</text>
<text text-anchor="start" x="166" y="-263.6" font-family="Helvetica,sans-Serif" font-size="8.00">::handle_incoming_with</text>
<text text-anchor="middle" x="214.5" y="-254.6" font-family="Helvetica,sans-Serif" font-size="8.00">_simulation</text>
</a>
</g>
</g>
<!-- Node28&#45;&gt;Node30 -->
<g id="edge15" class="edge">
<title>Node28&#45;&gt;Node30</title>
<path fill="none" stroke="midnightblue" d="M451.32,-232.46C410.55,-235.55 355.36,-240.51 307,-247.5 295.46,-249.17 283.18,-251.32 271.48,-253.56"/>
<polygon fill="midnightblue" stroke="midnightblue" points="451.65,-235.94 461.37,-231.71 451.14,-228.96 451.65,-235.94"/>
</g>
<!-- Node29&#45;&gt;Node30 -->
<g id="edge12" class="edge">
<title>Node29&#45;&gt;Node30</title>
<path fill="none" stroke="midnightblue" d="M296.92,-270.49C288.32,-269.96 279.57,-269.42 271.15,-268.91"/>
<polygon fill="midnightblue" stroke="midnightblue" points="296.73,-273.98 306.93,-271.1 297.16,-266.99 296.73,-273.98"/>
</g>
<!-- Node30&#45;&gt;Node30 -->
<g id="edge13" class="edge">
<title>Node30&#45;&gt;Node30</title>
<path fill="none" stroke="midnightblue" d="M240.27,-293.6C236.65,-298.27 228.06,-301.5 214.5,-301.5 192.24,-301.5 183.37,-292.81 187.89,-283.28"/>
<polygon fill="midnightblue" stroke="midnightblue" points="243.79,-293.53 241.11,-283.28 236.81,-292.97 243.79,-293.53"/>
</g>
<!-- Node31 -->
<g id="node13" class="node">
<title>Node31</title>
<g id="a_node13"><a xlink:href="classflow_1_1net__flow_1_1Node.html#a9909cd2b2a77c57da9e35fcef0f8a4e5" target="_top" xlink:title="Handles the pre&#45;condition that m_low_lvl_sock has a UDP packet available for reading,...">
<polygon fill="white" stroke="red" points="0,-284.5 0,-310.5 122,-310.5 122,-284.5 0,-284.5"/>
<text text-anchor="start" x="8" y="-300.1" font-family="Helvetica,sans-Serif" font-size="8.00">flow::net_flow::Node</text>
<text text-anchor="middle" x="61" y="-291.1" font-family="Helvetica,sans-Serif" font-size="8.00">::low_lvl_recv_and_handle</text>
</a>
</g>
</g>
<!-- Node30&#45;&gt;Node31 -->
<g id="edge14" class="edge">
<title>Node30&#45;&gt;Node31</title>
<path fill="none" stroke="midnightblue" d="M147.98,-279.34C139.39,-281.15 130.63,-283 122.14,-284.8"/>
<polygon fill="midnightblue" stroke="midnightblue" points="148.89,-282.73 157.95,-277.23 147.44,-275.88 148.89,-282.73"/>
</g>
<!-- Node9 -->
<g id="node15" class="node">
<title>Node9</title>
<g id="a_node15"><a xlink:href="classflow_1_1net__flow_1_1Node.html#addbb96858fd7b3c9ddd7c6fe8078809c" target="_top" xlink:title="Implementation of non&#45;blocking sock&#45;&gt;receive() for socket sock in all cases except when sock&#45;&gt;state()...">
<polygon fill="white" stroke="red" points="769.5,-257.5 769.5,-283.5 870.5,-283.5 870.5,-257.5 769.5,-257.5"/>
<text text-anchor="start" x="777.5" y="-273.1" font-family="Helvetica,sans-Serif" font-size="8.00">flow::net_flow::Node</text>
<text text-anchor="middle" x="820" y="-264.1" font-family="Helvetica,sans-Serif" font-size="8.00">::receive</text>
</a>
</g>
</g>
<!-- Node34&#45;&gt;Node9 -->
<g id="edge17" class="edge">
<title>Node34&#45;&gt;Node9</title>
<path fill="none" stroke="midnightblue" d="M924.31,-272.89C906.32,-272.47 887.32,-272.03 870.59,-271.65"/>
<polygon fill="midnightblue" stroke="midnightblue" points="924.38,-276.39 934.46,-273.12 924.55,-269.39 924.38,-276.39"/>
</g>
<!-- Node36 -->
<g id="node17" class="node">
<title>Node36</title>
<g id="a_node17"><a xlink:href="classflow_1_1net__flow_1_1Node.html#a6461124e5bc3e59083e172e26029e632" target="_top" xlink:title="Implementation of non&#45;blocking sock&#45;&gt;close_abruptly() for socket sock in all cases except when sock&#45;&gt;...">
<polygon fill="white" stroke="red" points="769.5,-45.5 769.5,-71.5 870.5,-71.5 870.5,-45.5 769.5,-45.5"/>
<text text-anchor="start" x="777.5" y="-61.1" font-family="Helvetica,sans-Serif" font-size="8.00">flow::net_flow::Node</text>
<text text-anchor="middle" x="820" y="-52.1" font-family="Helvetica,sans-Serif" font-size="8.00">::close_abruptly</text>
</a>
</g>
</g>
<!-- Node35&#45;&gt;Node36 -->
<g id="edge19" class="edge">
<title>Node35&#45;&gt;Node36</title>
<path fill="none" stroke="midnightblue" d="M935,-158.99C933.61,-157.88 932.27,-156.71 931,-155.5 904.53,-130.26 922.74,-105.33 895,-81.5 888.06,-75.54 879.59,-71.12 870.88,-67.85"/>
<polygon fill="midnightblue" stroke="midnightblue" points="933.22,-162.02 943.43,-164.86 937.22,-156.28 933.22,-162.02"/>
</g>
<!-- Node35&#45;&gt;Node38 -->
<g id="edge20" class="edge">
<title>Node35&#45;&gt;Node38</title>
<path fill="none" stroke="midnightblue" d="M920.7,-182.5C856.8,-182.5 765.75,-182.5 709.21,-182.5"/>
<polygon fill="midnightblue" stroke="midnightblue" points="920.71,-186 930.71,-182.5 920.71,-179 920.71,-186"/>
</g>
<!-- Node39 -->
<g id="node19" class="node">
<title>Node39</title>
<g id="a_node19"><a xlink:href="classflow_1_1net__flow_1_1Node.html#ab427ebc124a6233ae48a7562662a6e81" target="_top" xlink:title="Creates a new Drop Timer and saves it to sock&#45;&gt;m_snd_drop_timer.">
<polygon fill="white" stroke="black" points="769.5,-135.5 769.5,-161.5 870.5,-161.5 870.5,-135.5 769.5,-135.5"/>
<text text-anchor="start" x="777.5" y="-151.1" font-family="Helvetica,sans-Serif" font-size="8.00">flow::net_flow::Node</text>
<text text-anchor="middle" x="820" y="-142.1" font-family="Helvetica,sans-Serif" font-size="8.00">::setup_drop_timer</text>
</a>
</g>
</g>
<!-- Node35&#45;&gt;Node39 -->
<g id="edge22" class="edge">
<title>Node35&#45;&gt;Node39</title>
<path fill="none" stroke="midnightblue" d="M920.71,-168.1C903.82,-164.78 886.23,-161.32 870.61,-158.25"/>
<polygon fill="midnightblue" stroke="midnightblue" points="920.08,-171.54 930.56,-170.03 921.43,-164.67 920.08,-171.54"/>
</g>
<!-- Node40 -->
<g id="node20" class="node">
<title>Node40</title>
<g id="a_node20"><a xlink:href="classflow_1_1net__flow_1_1Node.html#a3fd57a0d025a78cbeccfd8a15a983575" target="_top" xlink:title="async_sock_low_lvl_packet_send_paced() pacing helper: If sock_pacing_process_q() ran out of the last ...">
<polygon fill="white" stroke="red" points="751.5,-90.5 751.5,-116.5 888.5,-116.5 888.5,-90.5 751.5,-90.5"/>
<text text-anchor="start" x="759.5" y="-106.1" font-family="Helvetica,sans-Serif" font-size="8.00">flow::net_flow::Node</text>
<text text-anchor="middle" x="820" y="-97.1" font-family="Helvetica,sans-Serif" font-size="8.00">::sock_pacing_time_slice_end</text>
</a>
</g>
</g>
<!-- Node35&#45;&gt;Node40 -->
<g id="edge24" class="edge">
<title>Node35&#45;&gt;Node40</title>
<path fill="none" stroke="midnightblue" d="M939.73,-160.4C936.73,-158.82 933.8,-157.19 931,-155.5 913.39,-144.91 913.13,-136.16 895,-126.5 887.88,-122.7 880.03,-119.42 872.18,-116.62"/>
<polygon fill="midnightblue" stroke="midnightblue" points="938.34,-163.62 948.85,-164.94 941.46,-157.35 938.34,-163.62"/>
</g>
<!-- Node38&#45;&gt;Node28 -->
<g id="edge21" class="edge">
<title>Node38&#45;&gt;Node28</title>
<path fill="none" stroke="midnightblue" d="M593.81,-202.41C580.14,-206.83 565.98,-211.4 553.42,-215.45"/>
<polygon fill="midnightblue" stroke="midnightblue" points="595.21,-205.64 603.65,-199.24 593.06,-198.98 595.21,-205.64"/>
</g>
<!-- Node39&#45;&gt;Node38 -->
<g id="edge23" class="edge">
<title>Node39&#45;&gt;Node38</title>
<path fill="none" stroke="midnightblue" d="M759.17,-161.1C742.71,-164.56 725.01,-168.29 709.06,-171.64"/>
<polygon fill="midnightblue" stroke="midnightblue" points="760.16,-164.46 769.23,-158.98 758.72,-157.61 760.16,-164.46"/>
</g>
<!-- Node46&#45;&gt;Node33 -->
<g id="edge27" class="edge">
<title>Node46&#45;&gt;Node33</title>
<path fill="none" stroke="midnightblue" d="M1110.65,-174.43C1093.99,-168.32 1075.77,-161.64 1059,-155.5 1050.14,-152.26 1040.58,-148.77 1031.65,-145.5"/>
<polygon fill="midnightblue" stroke="midnightblue" points="1109.66,-177.8 1120.25,-177.96 1112.07,-171.23 1109.66,-177.8"/>
</g>
<!-- Node47&#45;&gt;Node29 -->
<g id="edge30" class="edge">
<title>Node47&#45;&gt;Node29</title>
<path fill="none" stroke="midnightblue" d="M454.53,-308.3C440.24,-302.94 425.06,-297.24 411.31,-292.08"/>
<polygon fill="midnightblue" stroke="midnightblue" points="453.65,-311.71 464.24,-311.95 456.11,-305.15 453.65,-311.71"/>
</g>
<!-- Node47&#45;&gt;Node31 -->
<g id="edge31" class="edge">
<title>Node47&#45;&gt;Node31</title>
<path fill="none" stroke="midnightblue" d="M445.74,-327.57C374.81,-325.1 258.17,-319.96 158,-310.5 146.36,-309.4 133.97,-307.94 122.09,-306.4"/>
<polygon fill="midnightblue" stroke="midnightblue" points="445.76,-331.07 455.87,-327.91 445.99,-324.07 445.76,-331.07"/>
</g>
<!-- Node49 -->
<g id="node25" class="node">
<title>Node49</title>
<g id="a_node25"><a xlink:href="classflow_1_1net__flow_1_1Event__set.html#a412214de6a4f3a1ff1e86ddb1975f47b" target="_top" xlink:title="Checks for all previously described events that currently hold, saves them for retrieval via emit_res...">
<polygon fill="white" stroke="black" points="1118,-103.5 1118,-129.5 1220,-129.5 1220,-103.5 1118,-103.5"/>
<text text-anchor="start" x="1126" y="-119.1" font-family="Helvetica,sans-Serif" font-size="8.00">flow::net_flow::Event</text>
<text text-anchor="middle" x="1169" y="-110.1" font-family="Helvetica,sans-Serif" font-size="8.00">_set::poll</text>
</a>
</g>
</g>
<!-- Node48&#45;&gt;Node49 -->
<g id="edge34" class="edge">
<title>Node48&#45;&gt;Node49</title>
<path fill="none" stroke="midnightblue" d="M1328.21,-272.04C1310.2,-245.87 1277.39,-201.1 1243,-168.5 1227.19,-153.51 1206.84,-139.37 1191.64,-129.62"/>
<polygon fill="midnightblue" stroke="midnightblue" points="1325.43,-274.17 1333.95,-280.47 1331.22,-270.23 1325.43,-274.17"/>
</g>
<!-- Node49&#45;&gt;Node49 -->
<g id="edge35" class="edge">
<title>Node49&#45;&gt;Node49</title>
<path fill="none" stroke="midnightblue" d="M1200.57,-139.58C1197.37,-144.47 1186.84,-148 1169,-148 1140.45,-148 1130.64,-138.96 1139.56,-129.77"/>
<polygon fill="midnightblue" stroke="midnightblue" points="1203.98,-138.8 1198.44,-129.77 1197.14,-140.29 1203.98,-138.8"/>
</g>
<!-- Node50 -->
<g id="node26" class="node">
<title>Node50</title>
<g id="a_node26"><a xlink:href="classflow_1_1net__flow_1_1Event__set.html#a13a17c404f0ce43da5fec53a550da9be" target="_top" xlink:title="Same as the public sync_wait(max_wait) but uses a Fine_clock&#45;based Fine_duration non&#45;template type fo...">
<polygon fill="white" stroke="black" points="944,-37.5 944,-63.5 1046,-63.5 1046,-37.5 944,-37.5"/>
<text text-anchor="start" x="952" y="-53.1" font-family="Helvetica,sans-Serif" font-size="8.00">flow::net_flow::Event</text>
<text text-anchor="middle" x="995" y="-44.1" font-family="Helvetica,sans-Serif" font-size="8.00">_set::sync_wait_impl</text>
</a>
</g>
</g>
<!-- Node49&#45;&gt;Node50 -->
<g id="edge36" class="edge">
<title>Node49&#45;&gt;Node50</title>
<path fill="none" stroke="midnightblue" d="M1124.44,-99.78C1095.1,-88.53 1056.98,-73.9 1029.91,-63.51"/>
<polygon fill="midnightblue" stroke="midnightblue" points="1123.43,-103.15 1134.02,-103.46 1125.94,-96.61 1123.43,-103.15"/>
</g>
<!-- Node51 -->
<g id="node27" class="node">
<title>Node51</title>
<g id="a_node27"><a xlink:href="classflow_1_1net__flow_1_1Event__set.html#a7272a3b8975ff72edd3db3f777e930f1" target="_top" xlink:title="Same as the other sync_wait() but will stop waiting if the timeout given as argument expires.">
<polygon fill="white" stroke="black" points="769,-0.5 769,-26.5 871,-26.5 871,-0.5 769,-0.5"/>
<text text-anchor="start" x="777" y="-16.1" font-family="Helvetica,sans-Serif" font-size="8.00">flow::net_flow::Event</text>
<text text-anchor="middle" x="820" y="-7.1" font-family="Helvetica,sans-Serif" font-size="8.00">_set::sync_wait</text>
</a>
</g>
</g>
<!-- Node50&#45;&gt;Node51 -->
<g id="edge37" class="edge">
<title>Node50&#45;&gt;Node51</title>
<path fill="none" stroke="midnightblue" d="M934.1,-37.69C913.59,-33.3 890.88,-28.45 871.23,-24.24"/>
<polygon fill="midnightblue" stroke="midnightblue" points="933.45,-41.13 943.96,-39.8 934.91,-34.28 933.45,-41.13"/>
</g>
</g>
</svg>
