<?xml version="1.0" encoding="UTF-8" standalone="no"?>
<!DOCTYPE svg PUBLIC "-//W3C//DTD SVG 1.1//EN"
 "http://www.w3.org/Graphics/SVG/1.1/DTD/svg11.dtd">
<!-- Generated by graphviz version 2.43.0 (0)
 -->
<!-- Title: flow::net_flow::Event_set::ev_type_to_socks_map_sizes_to_str Pages: 1 -->
<svg width="1561pt" height="635pt"
 viewBox="0.00 0.00 1561.00 634.66" xmlns="http://www.w3.org/2000/svg" xmlns:xlink="http://www.w3.org/1999/xlink">
<g id="graph0" class="graph" transform="scale(1 1) rotate(0) translate(4 630.66)">
<title>flow::net_flow::Event_set::ev_type_to_socks_map_sizes_to_str</title>
<polygon fill="white" stroke="transparent" points="-4,4 -4,-630.66 1557,-630.66 1557,4 -4,4"/>
<!-- Node1 -->
<g id="node1" class="node">
<title>Node1</title>
<g id="a_node1"><a xlink:title="Helper that returns a loggable string summarizing the sizes of the socket sets, by type,...">
<polygon fill="#bfbfbf" stroke="black" points="1443,-421.5 1443,-456.5 1553,-456.5 1553,-421.5 1443,-421.5"/>
<text text-anchor="start" x="1451" y="-446.1" font-family="Helvetica,sans-Serif" font-size="8.00">flow::net_flow::Event</text>
<text text-anchor="start" x="1451" y="-437.1" font-family="Helvetica,sans-Serif" font-size="8.00">_set::ev_type_to_socks</text>
<text text-anchor="middle" x="1498" y="-428.1" font-family="Helvetica,sans-Serif" font-size="8.00">_map_sizes_to_str</text>
</a>
</g>
</g>
<!-- Node2 -->
<g id="node2" class="node">
<title>Node2</title>
<g id="a_node2"><a xlink:href="classflow_1_1net__flow_1_1Event__set.html#ab64e128595b701e37256ff79d782c146" target="_top" xlink:title="Forgets all sockets stored in this object in any fashion.">
<polygon fill="white" stroke="black" points="1292,-471 1292,-497 1394,-497 1394,-471 1292,-471"/>
<text text-anchor="start" x="1300" y="-486.6" font-family="Helvetica,sans-Serif" font-size="8.00">flow::net_flow::Event</text>
<text text-anchor="middle" x="1343" y="-477.6" font-family="Helvetica,sans-Serif" font-size="8.00">_set::clear</text>
</a>
</g>
</g>
<!-- Node1&#45;&gt;Node2 -->
<g id="edge1" class="edge">
<title>Node1&#45;&gt;Node2</title>
<path fill="none" stroke="midnightblue" d="M1432.95,-457.84C1418.04,-462.22 1402.48,-466.8 1388.62,-470.88"/>
<polygon fill="midnightblue" stroke="midnightblue" points="1434.02,-461.17 1442.63,-454.99 1432.05,-454.46 1434.02,-461.17"/>
</g>
<!-- Node3 -->
<g id="node3" class="node">
<title>Node3</title>
<g id="a_node3"><a xlink:href="classflow_1_1net__flow_1_1Node.html#a8a4ddf81ddbeab1f740940c4cc0d3625" target="_top" xlink:title="For each WAITING Event_set within the Node: checks for any events that hold, and if any do hold,...">
<polygon fill="white" stroke="black" points="1279,-426 1279,-452 1407,-452 1407,-426 1279,-426"/>
<text text-anchor="start" x="1287" y="-441.6" font-family="Helvetica,sans-Serif" font-size="8.00">flow::net_flow::Node</text>
<text text-anchor="middle" x="1343" y="-432.6" font-family="Helvetica,sans-Serif" font-size="8.00">::event_set_all_check_delta</text>
</a>
</g>
</g>
<!-- Node1&#45;&gt;Node3 -->
<g id="edge3" class="edge">
<title>Node1&#45;&gt;Node3</title>
<path fill="none" stroke="midnightblue" d="M1432.49,-439C1424.08,-439 1415.47,-439 1407.08,-439"/>
<polygon fill="midnightblue" stroke="midnightblue" points="1432.63,-442.5 1442.63,-439 1432.63,-435.5 1432.63,-442.5"/>
</g>
<!-- Node49 -->
<g id="node25" class="node">
<title>Node49</title>
<g id="a_node25"><a xlink:href="classflow_1_1net__flow_1_1Event__set.html#a314635daf8fdf3805868baff8b42cfc9" target="_top" xlink:title="Returns true if and only if the last wait, if any, detected at least one event.">
<polygon fill="white" stroke="black" points="1289.5,-363 1289.5,-389 1396.5,-389 1396.5,-363 1289.5,-363"/>
<text text-anchor="start" x="1297.5" y="-378.6" font-family="Helvetica,sans-Serif" font-size="8.00">flow::net_flow::Event</text>
<text text-anchor="middle" x="1343" y="-369.6" font-family="Helvetica,sans-Serif" font-size="8.00">_set::events_detected</text>
</a>
</g>
</g>
<!-- Node1&#45;&gt;Node49 -->
<g id="edge35" class="edge">
<title>Node1&#45;&gt;Node49</title>
<path fill="none" stroke="midnightblue" d="M1445.08,-417.62C1422.07,-408.15 1395.74,-397.3 1375.72,-389.06"/>
<polygon fill="midnightblue" stroke="midnightblue" points="1443.8,-420.88 1454.38,-421.45 1446.47,-414.41 1443.8,-420.88"/>
</g>
<!-- Node2&#45;&gt;Node2 -->
<g id="edge2" class="edge">
<title>Node2&#45;&gt;Node2</title>
<path fill="none" stroke="midnightblue" d="M1370.72,-507.44C1367.64,-512.14 1358.4,-515.5 1343,-515.5 1317.73,-515.5 1309.05,-506.46 1316.94,-497.27"/>
<polygon fill="midnightblue" stroke="midnightblue" points="1374.12,-506.57 1369.06,-497.27 1367.21,-507.7 1374.12,-506.57"/>
</g>
<!-- Node4 -->
<g id="node4" class="node">
<title>Node4</title>
<g id="a_node4"><a xlink:href="classflow_1_1net__flow_1_1Node.html#ade49e7bc7202a0adf33fec2d93d1b177" target="_top" xlink:title="A thread W method that handles the transition of the given socket from OPEN (any sub&#45;state) to CLOSED...">
<polygon fill="white" stroke="black" points="1095,-342 1095,-368 1243,-368 1243,-342 1095,-342"/>
<text text-anchor="start" x="1103" y="-357.6" font-family="Helvetica,sans-Serif" font-size="8.00">flow::net_flow::Node</text>
<text text-anchor="middle" x="1169" y="-348.6" font-family="Helvetica,sans-Serif" font-size="8.00">::close_connection_immediately</text>
</a>
</g>
</g>
<!-- Node3&#45;&gt;Node4 -->
<g id="edge4" class="edge">
<title>Node3&#45;&gt;Node4</title>
<path fill="none" stroke="midnightblue" d="M1293.69,-422.27C1288.68,-420.26 1283.71,-418.16 1279,-416 1247.46,-401.53 1212.77,-381.32 1191.18,-368.2"/>
<polygon fill="midnightblue" stroke="midnightblue" points="1292.7,-425.64 1303.29,-425.98 1295.22,-419.11 1292.7,-425.64"/>
</g>
<!-- Node19 -->
<g id="node10" class="node">
<title>Node19</title>
<g id="a_node10"><a xlink:href="classflow_1_1net__flow_1_1Node.html#a10a92f11a2c9f218cdd9a55f282e79b1" target="_top" xlink:title="Thread W implemention of send(): synchronously or asynchronously send the contents of sock&#45;&gt;m_snd_buf...">
<polygon fill="white" stroke="red" points="769.5,-522 769.5,-548 870.5,-548 870.5,-522 769.5,-522"/>
<text text-anchor="start" x="777.5" y="-537.6" font-family="Helvetica,sans-Serif" font-size="8.00">flow::net_flow::Node</text>
<text text-anchor="middle" x="820" y="-528.6" font-family="Helvetica,sans-Serif" font-size="8.00">::send_worker</text>
</a>
</g>
</g>
<!-- Node3&#45;&gt;Node19 -->
<g id="edge34" class="edge">
<title>Node3&#45;&gt;Node19</title>
<path fill="none" stroke="midnightblue" d="M1288.04,-454.81C1273.5,-458.77 1257.71,-462.8 1243,-466 1109.52,-495.03 949.91,-517.98 870.69,-528.59"/>
<polygon fill="midnightblue" stroke="midnightblue" points="1289.18,-458.13 1297.89,-452.09 1287.32,-451.38 1289.18,-458.13"/>
</g>
<!-- Node39 -->
<g id="node19" class="node">
<title>Node39</title>
<g id="a_node19"><a xlink:href="classflow_1_1net__flow_1_1Node.html#a29d02f9e302c7b06288ff1c644fa8d65" target="_top" xlink:title="Handles a just&#45;deserialized, just&#45;demultiplexed low&#45;level SYN_ACK_ACK packet delivered to the given p...">
<polygon fill="white" stroke="black" points="604,-103.5 604,-138.5 709,-138.5 709,-103.5 604,-103.5"/>
<text text-anchor="start" x="612" y="-128.1" font-family="Helvetica,sans-Serif" font-size="8.00">flow::net_flow::Node</text>
<text text-anchor="start" x="612" y="-119.1" font-family="Helvetica,sans-Serif" font-size="8.00">::handle_syn_ack_ack</text>
<text text-anchor="middle" x="656.5" y="-110.1" font-family="Helvetica,sans-Serif" font-size="8.00">_to_syn_rcvd</text>
</a>
</g>
</g>
<!-- Node3&#45;&gt;Node39 -->
<g id="edge30" class="edge">
<title>Node3&#45;&gt;Node39</title>
<path fill="none" stroke="midnightblue" d="M1287.88,-456.23C1284.82,-457.72 1281.83,-459.31 1279,-461 1260.37,-472.14 1262.43,-484.33 1243,-494 1043.23,-593.45 917.59,-699.46 745,-558 678.43,-503.43 661.48,-213.61 658.18,-138.69"/>
<polygon fill="midnightblue" stroke="midnightblue" points="1289.53,-459.32 1297.25,-452.07 1286.69,-452.93 1289.53,-459.32"/>
</g>
<!-- Node47 -->
<g id="node23" class="node">
<title>Node47</title>
<g id="a_node23"><a xlink:href="classflow_1_1net__flow_1_1Node.html#adf6d71af81def2d030f0fef159c1b06d" target="_top" xlink:title="Handles the transition of the given server socket from S_LISTENING/S_CLOSING to S_CLOSED (including e...">
<polygon fill="white" stroke="black" points="1117.5,-421.5 1117.5,-456.5 1220.5,-456.5 1220.5,-421.5 1117.5,-421.5"/>
<text text-anchor="start" x="1125.5" y="-446.1" font-family="Helvetica,sans-Serif" font-size="8.00">flow::net_flow::Node</text>
<text text-anchor="start" x="1125.5" y="-437.1" font-family="Helvetica,sans-Serif" font-size="8.00">::close_empty_server</text>
<text text-anchor="middle" x="1169" y="-428.1" font-family="Helvetica,sans-Serif" font-size="8.00">_immediately</text>
</a>
</g>
</g>
<!-- Node3&#45;&gt;Node47 -->
<g id="edge28" class="edge">
<title>Node3&#45;&gt;Node47</title>
<path fill="none" stroke="midnightblue" d="M1268.92,-439C1252.68,-439 1235.8,-439 1220.69,-439"/>
<polygon fill="midnightblue" stroke="midnightblue" points="1268.93,-442.5 1278.93,-439 1268.93,-435.5 1268.93,-442.5"/>
</g>
<!-- Node48 -->
<g id="node24" class="node">
<title>Node48</title>
<g id="a_node24"><a xlink:href="classflow_1_1net__flow_1_1Node.html#a0fba26db0055a969f3869014bc5c2bfc" target="_top" xlink:title="Performs all tasks to be performed at the end of low_lvl_recv_and_handle() or async part of async_wai...">
<polygon fill="white" stroke="black" points="456,-0.5 456,-35.5 568,-35.5 568,-0.5 456,-0.5"/>
<text text-anchor="start" x="464" y="-25.1" font-family="Helvetica,sans-Serif" font-size="8.00">flow::net_flow::Node</text>
<text text-anchor="start" x="464" y="-16.1" font-family="Helvetica,sans-Serif" font-size="8.00">::perform_accumulated</text>
<text text-anchor="middle" x="512" y="-7.1" font-family="Helvetica,sans-Serif" font-size="8.00">_on_recv_tasks</text>
</a>
</g>
</g>
<!-- Node3&#45;&gt;Node48 -->
<g id="edge31" class="edge">
<title>Node3&#45;&gt;Node48</title>
<path fill="none" stroke="midnightblue" d="M1284.38,-420.46C1282.49,-419.08 1280.68,-417.59 1279,-416 1249.5,-388.08 1263.1,-367.29 1243,-332 1174.36,-211.5 1149.61,-184.98 1059,-80 1033.33,-50.26 1035.28,-18 996,-18 996,-18 996,-18 819,-18 731.21,-18 629.25,-18 568,-18"/>
<polygon fill="midnightblue" stroke="midnightblue" points="1282.82,-423.61 1293.17,-425.9 1286.5,-417.66 1282.82,-423.61"/>
</g>
<!-- Node5 -->
<g id="node5" class="node">
<title>Node5</title>
<g id="a_node5"><a xlink:href="classflow_1_1net__flow_1_1Node.html#aa5f7c019665d9dd91af0ad6431f8f97d" target="_top" xlink:title="Similar to async_sock_low_lvl_packet_send_paced() except it also calls close_connection_immediately(s...">
<polygon fill="white" stroke="black" points="940,-363 940,-407 1050,-407 1050,-363 940,-363"/>
<text text-anchor="start" x="948" y="-396.6" font-family="Helvetica,sans-Serif" font-size="8.00">flow::net_flow::Node</text>
<text text-anchor="start" x="948" y="-387.6" font-family="Helvetica,sans-Serif" font-size="8.00">::async_sock_low_lvl</text>
<text text-anchor="start" x="948" y="-378.6" font-family="Helvetica,sans-Serif" font-size="8.00">_packet_send_or_close</text>
<text text-anchor="middle" x="995" y="-369.6" font-family="Helvetica,sans-Serif" font-size="8.00">_immediately</text>
</a>
</g>
</g>
<!-- Node4&#45;&gt;Node5 -->
<g id="edge5" class="edge">
<title>Node4&#45;&gt;Node5</title>
<path fill="none" stroke="midnightblue" d="M1084.38,-369.58C1072.77,-371.61 1061.09,-373.65 1050.21,-375.55"/>
<polygon fill="midnightblue" stroke="midnightblue" points="1085.31,-372.98 1094.56,-367.81 1084.1,-366.08 1085.31,-372.98"/>
</g>
<!-- Node29 -->
<g id="node11" class="node">
<title>Node29</title>
<g id="a_node11"><a xlink:href="classflow_1_1net__flow_1_1Node.html#a1699dfdaf3e5ebe1b1d715a9c306d116" target="_top" xlink:title="Handles a just&#45;received, not&#45;yet&#45;deserialized low&#45;level packet.">
<polygon fill="white" stroke="black" points="461.5,-65 461.5,-91 562.5,-91 562.5,-65 461.5,-65"/>
<text text-anchor="start" x="469.5" y="-80.6" font-family="Helvetica,sans-Serif" font-size="8.00">flow::net_flow::Node</text>
<text text-anchor="middle" x="512" y="-71.6" font-family="Helvetica,sans-Serif" font-size="8.00">::handle_incoming</text>
</a>
</g>
</g>
<!-- Node4&#45;&gt;Node29 -->
<g id="edge12" class="edge">
<title>Node4&#45;&gt;Node29</title>
<path fill="none" stroke="midnightblue" d="M1160.74,-332.05C1146.89,-291.54 1113.19,-206.79 1059,-155 1000.37,-98.96 974.02,-93.25 895,-75 778.36,-48.07 636.29,-60.61 562.64,-70.34"/>
<polygon fill="midnightblue" stroke="midnightblue" points="1157.5,-333.4 1163.97,-341.79 1164.14,-331.19 1157.5,-333.4"/>
</g>
<!-- Node35 -->
<g id="node15" class="node">
<title>Node35</title>
<g id="a_node15"><a xlink:href="classflow_1_1net__flow_1_1Node.html#ad608f9bbe76426f4fbf4bf5af908e4e0" target="_top" xlink:title="Placed by receive() onto W during a graceful close, after the Receive buffer had been emptied by the ...">
<polygon fill="white" stroke="black" points="934.5,-281.5 934.5,-316.5 1055.5,-316.5 1055.5,-281.5 934.5,-281.5"/>
<text text-anchor="start" x="942.5" y="-306.1" font-family="Helvetica,sans-Serif" font-size="8.00">flow::net_flow::Node</text>
<text text-anchor="start" x="942.5" y="-297.1" font-family="Helvetica,sans-Serif" font-size="8.00">::receive_emptied_rcv</text>
<text text-anchor="middle" x="995" y="-288.1" font-family="Helvetica,sans-Serif" font-size="8.00">_buf_while_disconnecting</text>
</a>
</g>
</g>
<!-- Node4&#45;&gt;Node35 -->
<g id="edge18" class="edge">
<title>Node4&#45;&gt;Node35</title>
<path fill="none" stroke="midnightblue" d="M1118.11,-338.76C1096.68,-331.78 1071.59,-323.61 1049.75,-316.5"/>
<polygon fill="midnightblue" stroke="midnightblue" points="1117.08,-342.1 1127.67,-341.87 1119.25,-335.45 1117.08,-342.1"/>
</g>
<!-- Node36 -->
<g id="node17" class="node">
<title>Node36</title>
<g id="a_node17"><a xlink:href="classflow_1_1net__flow_1_1Node.html#afe70a0c32695e417e7a09e0ba773f151" target="_top" xlink:title="Asynchronously send RST to the other side of the given socket and close_connection_immediately().">
<polygon fill="white" stroke="black" points="931,-164.5 931,-199.5 1059,-199.5 1059,-164.5 931,-164.5"/>
<text text-anchor="start" x="939" y="-189.1" font-family="Helvetica,sans-Serif" font-size="8.00">flow::net_flow::Node</text>
<text text-anchor="start" x="939" y="-180.1" font-family="Helvetica,sans-Serif" font-size="8.00">::rst_and_close_connection</text>
<text text-anchor="middle" x="995" y="-171.1" font-family="Helvetica,sans-Serif" font-size="8.00">_immediately</text>
</a>
</g>
</g>
<!-- Node4&#45;&gt;Node36 -->
<g id="edge20" class="edge">
<title>Node4&#45;&gt;Node36</title>
<path fill="none" stroke="midnightblue" d="M1147.99,-334.88C1114.07,-300.76 1045.82,-232.11 1013.6,-199.7"/>
<polygon fill="midnightblue" stroke="midnightblue" points="1145.54,-337.37 1155.07,-342 1150.5,-332.44 1145.54,-337.37"/>
</g>
<!-- Node34 -->
<g id="node22" class="node">
<title>Node34</title>
<g id="a_node22"><a xlink:href="classflow_1_1net__flow_1_1Node.html#a5b056ed753b832458f44f537acfe86d7" target="_top" xlink:title="Worker thread W (main event loop) body.">
<polygon fill="white" stroke="black" points="944.5,-426 944.5,-452 1045.5,-452 1045.5,-426 944.5,-426"/>
<text text-anchor="start" x="952.5" y="-441.6" font-family="Helvetica,sans-Serif" font-size="8.00">flow::net_flow::Node</text>
<text text-anchor="middle" x="995" y="-432.6" font-family="Helvetica,sans-Serif" font-size="8.00">::worker_run</text>
</a>
</g>
</g>
<!-- Node4&#45;&gt;Node34 -->
<g id="edge27" class="edge">
<title>Node4&#45;&gt;Node34</title>
<path fill="none" stroke="midnightblue" d="M1138.14,-373.43C1116.61,-386.28 1086.59,-403.34 1059,-416 1051.27,-419.54 1042.83,-422.94 1034.71,-425.98"/>
<polygon fill="midnightblue" stroke="midnightblue" points="1140.06,-376.36 1146.82,-368.2 1136.44,-370.36 1140.06,-376.36"/>
</g>
<!-- Node6 -->
<g id="node6" class="node">
<title>Node6</title>
<g id="a_node6"><a xlink:href="classflow_1_1net__flow_1_1Node.html#a81e50276d0b162f6577adc690e0ef9e0" target="_top" xlink:title="Sends a low&#45;level ACK packet, with all accumulated in Peer_socket::m_rcv_pending_acks of sock individ...">
<polygon fill="white" stroke="black" points="760.5,-422 760.5,-448 879.5,-448 879.5,-422 760.5,-422"/>
<text text-anchor="start" x="768.5" y="-437.6" font-family="Helvetica,sans-Serif" font-size="8.00">flow::net_flow::Node</text>
<text text-anchor="middle" x="820" y="-428.6" font-family="Helvetica,sans-Serif" font-size="8.00">::async_low_lvl_ack_send</text>
</a>
</g>
</g>
<!-- Node5&#45;&gt;Node6 -->
<g id="edge6" class="edge">
<title>Node5&#45;&gt;Node6</title>
<path fill="none" stroke="midnightblue" d="M930.12,-403.46C908.85,-409.61 885.62,-416.33 866.07,-421.97"/>
<polygon fill="midnightblue" stroke="midnightblue" points="931.1,-406.82 939.74,-400.68 929.16,-400.1 931.1,-406.82"/>
</g>
<!-- Node7 -->
<g id="node7" class="node">
<title>Node7</title>
<g id="a_node7"><a xlink:href="classflow_1_1net__flow_1_1Node.html#acaf55766783893827061fd85cab2634f" target="_top" xlink:title="Helper to create, fully fill out, and asynchronously send via async_sock_low_lvl_packet_send_or_close...">
<polygon fill="white" stroke="black" points="745,-367.5 745,-402.5 895,-402.5 895,-367.5 745,-367.5"/>
<text text-anchor="start" x="753" y="-392.1" font-family="Helvetica,sans-Serif" font-size="8.00">flow::net_flow::Node</text>
<text text-anchor="start" x="753" y="-383.1" font-family="Helvetica,sans-Serif" font-size="8.00">::async_low_lvl_syn_ack</text>
<text text-anchor="middle" x="820" y="-374.1" font-family="Helvetica,sans-Serif" font-size="8.00">_ack_send_or_close_immediately</text>
</a>
</g>
</g>
<!-- Node5&#45;&gt;Node7 -->
<g id="edge7" class="edge">
<title>Node5&#45;&gt;Node7</title>
<path fill="none" stroke="midnightblue" d="M929.57,-385C918.32,-385 906.53,-385 895.04,-385"/>
<polygon fill="midnightblue" stroke="midnightblue" points="929.74,-388.5 939.74,-385 929.74,-381.5 929.74,-388.5"/>
</g>
<!-- Node8 -->
<g id="node8" class="node">
<title>Node8</title>
<g id="a_node8"><a xlink:href="classflow_1_1net__flow_1_1Node.html#a192d4b95b9f8a5c3d08b1e5486eb6f78" target="_top" xlink:title="receive_wnd_updated() helper that continues rcv_wnd recovery: that is, sends unsolicited ACK with a r...">
<polygon fill="white" stroke="red" points="759,-304 759,-330 881,-330 881,-304 759,-304"/>
<text text-anchor="start" x="767" y="-319.6" font-family="Helvetica,sans-Serif" font-size="8.00">flow::net_flow::Node</text>
<text text-anchor="middle" x="820" y="-310.6" font-family="Helvetica,sans-Serif" font-size="8.00">::async_rcv_wnd_recovery</text>
</a>
</g>
</g>
<!-- Node5&#45;&gt;Node8 -->
<g id="edge8" class="edge">
<title>Node5&#45;&gt;Node8</title>
<path fill="none" stroke="midnightblue" d="M930.36,-359.99C904.51,-349.83 875.73,-338.51 854.18,-330.04"/>
<polygon fill="midnightblue" stroke="midnightblue" points="929.15,-363.27 939.74,-363.67 931.71,-356.76 929.15,-363.27"/>
</g>
<!-- Node18 -->
<g id="node9" class="node">
<title>Node18</title>
<g id="a_node9"><a xlink:href="classflow_1_1net__flow_1_1Node.html#addd654cb6b1ccff34ddccbe5226be8f0" target="_top" xlink:title="Handles the triggering of the retransmit timer wait set up by setup_connection_timers(); it will re&#45;s...">
<polygon fill="white" stroke="black" points="755.5,-467.5 755.5,-502.5 884.5,-502.5 884.5,-467.5 755.5,-467.5"/>
<text text-anchor="start" x="763.5" y="-492.1" font-family="Helvetica,sans-Serif" font-size="8.00">flow::net_flow::Node</text>
<text text-anchor="start" x="763.5" y="-483.1" font-family="Helvetica,sans-Serif" font-size="8.00">::handle_connection_rexmit</text>
<text text-anchor="middle" x="820" y="-474.1" font-family="Helvetica,sans-Serif" font-size="8.00">_timer_event</text>
</a>
</g>
</g>
<!-- Node5&#45;&gt;Node18 -->
<g id="edge10" class="edge">
<title>Node5&#45;&gt;Node18</title>
<path fill="none" stroke="midnightblue" d="M935.83,-412.5C934.17,-413.64 932.56,-414.8 931,-416 911.75,-430.75 914.93,-443.19 895,-457 889.35,-460.91 883.09,-464.36 876.67,-467.39"/>
<polygon fill="midnightblue" stroke="midnightblue" points="937.82,-415.38 944.38,-407.05 934.06,-409.47 937.82,-415.38"/>
</g>
<!-- Node5&#45;&gt;Node19 -->
<g id="edge11" class="edge">
<title>Node5&#45;&gt;Node19</title>
<path fill="none" stroke="midnightblue" d="M933.29,-413.62C932.5,-414.39 931.74,-415.19 931,-416 900.4,-449.77 928.13,-480.72 895,-512 888.15,-518.47 879.52,-523.11 870.58,-526.46"/>
<polygon fill="midnightblue" stroke="midnightblue" points="935.57,-416.27 940.92,-407.13 931.03,-410.94 935.57,-416.27"/>
</g>
<!-- Node8&#45;&gt;Node8 -->
<g id="edge9" class="edge">
<title>Node8&#45;&gt;Node8</title>
<path fill="none" stroke="midnightblue" d="M849.39,-340.08C846.41,-344.97 836.61,-348.5 820,-348.5 793.42,-348.5 784.29,-339.46 792.59,-330.27"/>
<polygon fill="midnightblue" stroke="midnightblue" points="852.82,-339.38 847.41,-330.27 845.96,-340.77 852.82,-339.38"/>
</g>
<!-- Node30 -->
<g id="node12" class="node">
<title>Node30</title>
<g id="a_node12"><a xlink:href="classflow_1_1net__flow_1_1Node.html#a4368247d07e930bdd07ab8d2425c6de8" target="_top" xlink:title="Sets up handle_incoming(packet_data, low_lvl_remote_endpoint) to be called asynchronously after a spe...">
<polygon fill="white" stroke="black" points="307,-25.5 307,-60.5 420,-60.5 420,-25.5 307,-25.5"/>
<text text-anchor="start" x="315" y="-50.1" font-family="Helvetica,sans-Serif" font-size="8.00">flow::net_flow::Node</text>
<text text-anchor="start" x="315" y="-41.1" font-family="Helvetica,sans-Serif" font-size="8.00">::async_wait_latency</text>
<text text-anchor="middle" x="363.5" y="-32.1" font-family="Helvetica,sans-Serif" font-size="8.00">_then_handle_incoming</text>
</a>
</g>
</g>
<!-- Node29&#45;&gt;Node30 -->
<g id="edge13" class="edge">
<title>Node29&#45;&gt;Node30</title>
<path fill="none" stroke="midnightblue" d="M451.58,-63.8C441.17,-61.32 430.39,-58.74 420.09,-56.28"/>
<polygon fill="midnightblue" stroke="midnightblue" points="450.86,-67.23 461.4,-66.15 452.49,-60.42 450.86,-67.23"/>
</g>
<!-- Node31 -->
<g id="node13" class="node">
<title>Node31</title>
<g id="a_node13"><a xlink:href="classflow_1_1net__flow_1_1Node.html#a90ecbad1ff3a8d2fe4b3ad1c474f7513" target="_top" xlink:title="Helper for low_lvl_recv_and_handle() that calls handle_incoming() on the not&#45;yet&#45;deserialized low&#45;lev...">
<polygon fill="white" stroke="black" points="158,-25.5 158,-60.5 271,-60.5 271,-25.5 158,-25.5"/>
<text text-anchor="start" x="166" y="-50.1" font-family="Helvetica,sans-Serif" font-size="8.00">flow::net_flow::Node</text>
<text text-anchor="start" x="166" y="-41.1" font-family="Helvetica,sans-Serif" font-size="8.00">::handle_incoming_with</text>
<text text-anchor="middle" x="214.5" y="-32.1" font-family="Helvetica,sans-Serif" font-size="8.00">_simulation</text>
</a>
</g>
</g>
<!-- Node29&#45;&gt;Node31 -->
<g id="edge17" class="edge">
<title>Node29&#45;&gt;Node31</title>
<path fill="none" stroke="midnightblue" d="M451.12,-79.53C410.26,-79.63 355.04,-77.9 307,-70 293.76,-67.82 279.74,-64.32 266.76,-60.55"/>
<polygon fill="midnightblue" stroke="midnightblue" points="451.21,-83.03 461.19,-79.47 451.17,-76.03 451.21,-83.03"/>
</g>
<!-- Node30&#45;&gt;Node31 -->
<g id="edge14" class="edge">
<title>Node30&#45;&gt;Node31</title>
<path fill="none" stroke="midnightblue" d="M296.92,-43C288.32,-43 279.57,-43 271.15,-43"/>
<polygon fill="midnightblue" stroke="midnightblue" points="296.93,-46.5 306.93,-43 296.93,-39.5 296.93,-46.5"/>
</g>
<!-- Node31&#45;&gt;Node31 -->
<g id="edge15" class="edge">
<title>Node31&#45;&gt;Node31</title>
<path fill="none" stroke="midnightblue" d="M240.27,-71.1C236.65,-75.77 228.06,-79 214.5,-79 192.24,-79 183.37,-70.31 187.89,-60.78"/>
<polygon fill="midnightblue" stroke="midnightblue" points="243.79,-71.03 241.11,-60.78 236.81,-70.47 243.79,-71.03"/>
</g>
<!-- Node32 -->
<g id="node14" class="node">
<title>Node32</title>
<g id="a_node14"><a xlink:href="classflow_1_1net__flow_1_1Node.html#a9909cd2b2a77c57da9e35fcef0f8a4e5" target="_top" xlink:title="Handles the pre&#45;condition that m_low_lvl_sock has a UDP packet available for reading,...">
<polygon fill="white" stroke="red" points="0,-7 0,-33 122,-33 122,-7 0,-7"/>
<text text-anchor="start" x="8" y="-22.6" font-family="Helvetica,sans-Serif" font-size="8.00">flow::net_flow::Node</text>
<text text-anchor="middle" x="61" y="-13.6" font-family="Helvetica,sans-Serif" font-size="8.00">::low_lvl_recv_and_handle</text>
</a>
</g>
</g>
<!-- Node31&#45;&gt;Node32 -->
<g id="edge16" class="edge">
<title>Node31&#45;&gt;Node32</title>
<path fill="none" stroke="midnightblue" d="M147.98,-33.05C139.39,-31.75 130.63,-30.42 122.14,-29.13"/>
<polygon fill="midnightblue" stroke="midnightblue" points="147.54,-36.53 157.95,-34.57 148.59,-29.6 147.54,-36.53"/>
</g>
<!-- Node10 -->
<g id="node16" class="node">
<title>Node10</title>
<g id="a_node16"><a xlink:href="classflow_1_1net__flow_1_1Node.html#addbb96858fd7b3c9ddd7c6fe8078809c" target="_top" xlink:title="Implementation of non&#45;blocking sock&#45;&gt;receive() for socket sock in all cases except when sock&#45;&gt;state()...">
<polygon fill="white" stroke="red" points="769.5,-259 769.5,-285 870.5,-285 870.5,-259 769.5,-259"/>
<text text-anchor="start" x="777.5" y="-274.6" font-family="Helvetica,sans-Serif" font-size="8.00">flow::net_flow::Node</text>
<text text-anchor="middle" x="820" y="-265.6" font-family="Helvetica,sans-Serif" font-size="8.00">::receive</text>
</a>
</g>
</g>
<!-- Node35&#45;&gt;Node10 -->
<g id="edge19" class="edge">
<title>Node35&#45;&gt;Node10</title>
<path fill="none" stroke="midnightblue" d="M924.56,-288.16C906.49,-285.34 887.4,-282.36 870.59,-279.74"/>
<polygon fill="midnightblue" stroke="midnightblue" points="924.04,-291.62 934.46,-289.71 925.12,-284.71 924.04,-291.62"/>
</g>
<!-- Node37 -->
<g id="node18" class="node">
<title>Node37</title>
<g id="a_node18"><a xlink:href="classflow_1_1net__flow_1_1Node.html#a6461124e5bc3e59083e172e26029e632" target="_top" xlink:title="Implementation of non&#45;blocking sock&#45;&gt;close_abruptly() for socket sock in all cases except when sock&#45;&gt;...">
<polygon fill="white" stroke="red" points="769.5,-169 769.5,-195 870.5,-195 870.5,-169 769.5,-169"/>
<text text-anchor="start" x="777.5" y="-184.6" font-family="Helvetica,sans-Serif" font-size="8.00">flow::net_flow::Node</text>
<text text-anchor="middle" x="820" y="-175.6" font-family="Helvetica,sans-Serif" font-size="8.00">::close_abruptly</text>
</a>
</g>
</g>
<!-- Node36&#45;&gt;Node37 -->
<g id="edge21" class="edge">
<title>Node36&#45;&gt;Node37</title>
<path fill="none" stroke="midnightblue" d="M920.24,-182C903.49,-182 886.08,-182 870.61,-182"/>
<polygon fill="midnightblue" stroke="midnightblue" points="920.56,-185.5 930.56,-182 920.56,-178.5 920.56,-185.5"/>
</g>
<!-- Node36&#45;&gt;Node39 -->
<g id="edge22" class="edge">
<title>Node36&#45;&gt;Node39</title>
<path fill="none" stroke="midnightblue" d="M920.96,-164.43C912.23,-162.51 903.43,-160.65 895,-159 831.28,-146.52 757.34,-135.18 709.11,-128.2"/>
<polygon fill="midnightblue" stroke="midnightblue" points="920.24,-167.85 930.76,-166.62 921.77,-161.02 920.24,-167.85"/>
</g>
<!-- Node40 -->
<g id="node20" class="node">
<title>Node40</title>
<g id="a_node20"><a xlink:href="classflow_1_1net__flow_1_1Node.html#ab427ebc124a6233ae48a7562662a6e81" target="_top" xlink:title="Creates a new Drop Timer and saves it to sock&#45;&gt;m_snd_drop_timer.">
<polygon fill="white" stroke="black" points="769.5,-85 769.5,-111 870.5,-111 870.5,-85 769.5,-85"/>
<text text-anchor="start" x="777.5" y="-100.6" font-family="Helvetica,sans-Serif" font-size="8.00">flow::net_flow::Node</text>
<text text-anchor="middle" x="820" y="-91.6" font-family="Helvetica,sans-Serif" font-size="8.00">::setup_drop_timer</text>
</a>
</g>
</g>
<!-- Node36&#45;&gt;Node40 -->
<g id="edge24" class="edge">
<title>Node36&#45;&gt;Node40</title>
<path fill="none" stroke="midnightblue" d="M956.98,-159.27C938.68,-148.5 916.05,-135.87 895,-126 883.43,-120.58 870.5,-115.4 858.73,-111.01"/>
<polygon fill="midnightblue" stroke="midnightblue" points="955.21,-162.29 965.59,-164.39 958.78,-156.27 955.21,-162.29"/>
</g>
<!-- Node41 -->
<g id="node21" class="node">
<title>Node41</title>
<g id="a_node21"><a xlink:href="classflow_1_1net__flow_1_1Node.html#a3fd57a0d025a78cbeccfd8a15a983575" target="_top" xlink:title="async_sock_low_lvl_packet_send_paced() pacing helper: If sock_pacing_process_q() ran out of the last ...">
<polygon fill="white" stroke="red" points="751.5,-214 751.5,-240 888.5,-240 888.5,-214 751.5,-214"/>
<text text-anchor="start" x="759.5" y="-229.6" font-family="Helvetica,sans-Serif" font-size="8.00">flow::net_flow::Node</text>
<text text-anchor="middle" x="820" y="-220.6" font-family="Helvetica,sans-Serif" font-size="8.00">::sock_pacing_time_slice_end</text>
</a>
</g>
</g>
<!-- Node36&#45;&gt;Node41 -->
<g id="edge26" class="edge">
<title>Node36&#45;&gt;Node41</title>
<path fill="none" stroke="midnightblue" d="M920.81,-201.04C904.08,-205.39 886.67,-209.92 871.16,-213.95"/>
<polygon fill="midnightblue" stroke="midnightblue" points="921.77,-204.41 930.56,-198.5 920,-197.63 921.77,-204.41"/>
</g>
<!-- Node39&#45;&gt;Node29 -->
<g id="edge23" class="edge">
<title>Node39&#45;&gt;Node29</title>
<path fill="none" stroke="midnightblue" d="M594.01,-102.44C581.25,-98.6 568.07,-94.62 556.14,-91.02"/>
<polygon fill="midnightblue" stroke="midnightblue" points="593.07,-105.82 603.65,-105.35 595.09,-99.11 593.07,-105.82"/>
</g>
<!-- Node40&#45;&gt;Node39 -->
<g id="edge25" class="edge">
<title>Node40&#45;&gt;Node39</title>
<path fill="none" stroke="midnightblue" d="M759.17,-106.52C742.71,-108.86 725.01,-111.39 709.06,-113.66"/>
<polygon fill="midnightblue" stroke="midnightblue" points="759.82,-109.96 769.23,-105.09 758.83,-103.03 759.82,-109.96"/>
</g>
<!-- Node47&#45;&gt;Node34 -->
<g id="edge29" class="edge">
<title>Node47&#45;&gt;Node34</title>
<path fill="none" stroke="midnightblue" d="M1107.31,-439C1087.15,-439 1064.95,-439 1045.72,-439"/>
<polygon fill="midnightblue" stroke="midnightblue" points="1107.32,-442.5 1117.32,-439 1107.32,-435.5 1107.32,-442.5"/>
</g>
<!-- Node48&#45;&gt;Node30 -->
<g id="edge32" class="edge">
<title>Node48&#45;&gt;Node30</title>
<path fill="none" stroke="midnightblue" d="M445.51,-29.18C437.15,-30.6 428.64,-32.05 420.45,-33.45"/>
<polygon fill="midnightblue" stroke="midnightblue" points="446.35,-32.58 455.61,-27.45 445.17,-25.68 446.35,-32.58"/>
</g>
<!-- Node48&#45;&gt;Node32 -->
<g id="edge33" class="edge">
<title>Node48&#45;&gt;Node32</title>
<path fill="none" stroke="midnightblue" d="M445.62,-16.39C437.01,-16.23 428.29,-16.09 420,-16 303.56,-14.72 274.42,-13.58 158,-16 146.41,-16.24 134.04,-16.65 122.16,-17.11"/>
<polygon fill="midnightblue" stroke="midnightblue" points="445.59,-19.89 455.66,-16.59 445.73,-12.89 445.59,-19.89"/>
</g>
<!-- Node49&#45;&gt;Node49 -->
<g id="edge36" class="edge">
<title>Node49&#45;&gt;Node49</title>
<path fill="none" stroke="midnightblue" d="M1370.72,-399.44C1367.64,-404.14 1358.4,-407.5 1343,-407.5 1317.73,-407.5 1309.05,-398.46 1316.94,-389.27"/>
<polygon fill="midnightblue" stroke="midnightblue" points="1374.12,-398.57 1369.06,-389.27 1367.21,-399.7 1374.12,-398.57"/>
</g>
</g>
</svg>
