<?xml version="1.0" encoding="UTF-8" standalone="no"?>
<!DOCTYPE svg PUBLIC "-//W3C//DTD SVG 1.1//EN"
 "http://www.w3.org/Graphics/SVG/1.1/DTD/svg11.dtd">
<!-- Generated by graphviz version 2.43.0 (0)
 -->
<!-- Title: flow::async::Cross_thread_task_loop::schedule_from_now Pages: 1 -->
<svg width="506pt" height="144pt"
 viewBox="0.00 0.00 506.00 143.50" xmlns="http://www.w3.org/2000/svg" xmlns:xlink="http://www.w3.org/1999/xlink">
<g id="graph0" class="graph" transform="scale(1 1) rotate(0) translate(4 139.5)">
<title>flow::async::Cross_thread_task_loop::schedule_from_now</title>
<polygon fill="white" stroke="transparent" points="-4,4 -4,-139.5 502,-139.5 502,4 -4,4"/>
<!-- Node1 -->
<g id="node1" class="node">
<title>Node1</title>
<g id="a_node1"><a xlink:title="Implements superclass API.">
<polygon fill="#bfbfbf" stroke="black" points="364,-54.5 364,-89.5 498,-89.5 498,-54.5 364,-54.5"/>
<text text-anchor="start" x="372" y="-79.1" font-family="Helvetica,sans-Serif" font-size="8.00">flow::async::Cross</text>
<text text-anchor="start" x="372" y="-70.1" font-family="Helvetica,sans-Serif" font-size="8.00">_thread_task_loop::schedule</text>
<text text-anchor="middle" x="431" y="-61.1" font-family="Helvetica,sans-Serif" font-size="8.00">_from_now</text>
</a>
</g>
</g>
<!-- Node2 -->
<g id="node2" class="node">
<title>Node2</title>
<g id="a_node2"><a xlink:href="classflow_1_1async_1_1Cross__thread__task__loop.html#aa8fb0ac1ac3dc4fb86b0a7dbec0a8686" target="_top" xlink:title="Implements superclass API.">
<polygon fill="white" stroke="black" points="182,-109 182,-135 328,-135 328,-109 182,-109"/>
<text text-anchor="start" x="190" y="-124.6" font-family="Helvetica,sans-Serif" font-size="8.00">flow::async::Cross</text>
<text text-anchor="middle" x="255" y="-115.6" font-family="Helvetica,sans-Serif" font-size="8.00">_thread_task_loop::schedule_at</text>
</a>
</g>
</g>
<!-- Node1&#45;&gt;Node2 -->
<g id="edge1" class="edge">
<title>Node1&#45;&gt;Node2</title>
<path fill="none" stroke="midnightblue" d="M358.93,-92.42C339.53,-98 319.04,-103.89 301.48,-108.93"/>
<polygon fill="midnightblue" stroke="midnightblue" points="360.01,-95.75 368.65,-89.63 358.08,-89.03 360.01,-95.75"/>
</g>
<!-- Node4 -->
<g id="node4" class="node">
<title>Node4</title>
<g id="a_node4"><a xlink:href="classflow_1_1async_1_1Single__thread__task__loop.html#a2669021fe545a05ced370f09ce794f52" target="_top" xlink:title="Equivalent to post() but execution is scheduled for later, after the given time period passes.">
<polygon fill="white" stroke="black" points="188,-54.5 188,-89.5 322,-89.5 322,-54.5 188,-54.5"/>
<text text-anchor="start" x="196" y="-79.1" font-family="Helvetica,sans-Serif" font-size="8.00">flow::async::Single</text>
<text text-anchor="start" x="196" y="-70.1" font-family="Helvetica,sans-Serif" font-size="8.00">_thread_task_loop::schedule</text>
<text text-anchor="middle" x="255" y="-61.1" font-family="Helvetica,sans-Serif" font-size="8.00">_from_now</text>
</a>
</g>
</g>
<!-- Node1&#45;&gt;Node4 -->
<g id="edge3" class="edge">
<title>Node1&#45;&gt;Node4</title>
<path fill="none" stroke="midnightblue" d="M353.71,-72C343.17,-72 332.42,-72 322.09,-72"/>
<polygon fill="midnightblue" stroke="midnightblue" points="353.72,-75.5 363.72,-72 353.72,-68.5 353.72,-75.5"/>
</g>
<!-- Node5 -->
<g id="node5" class="node">
<title>Node5</title>
<g id="a_node5"><a xlink:href="classflow_1_1async_1_1Cross__thread__task__loop.html#a414e266ad227e12d47cb25f827251698" target="_top" xlink:title="Implements superclass API.">
<polygon fill="white" stroke="black" points="188,-0.5 188,-35.5 322,-35.5 322,-0.5 188,-0.5"/>
<text text-anchor="start" x="196" y="-25.1" font-family="Helvetica,sans-Serif" font-size="8.00">flow::async::Cross</text>
<text text-anchor="start" x="196" y="-16.1" font-family="Helvetica,sans-Serif" font-size="8.00">_thread_task_loop::schedule</text>
<text text-anchor="middle" x="255" y="-7.1" font-family="Helvetica,sans-Serif" font-size="8.00">_from_now</text>
</a>
</g>
</g>
<!-- Node1&#45;&gt;Node5 -->
<g id="edge4" class="edge">
<title>Node1&#45;&gt;Node5</title>
<path fill="none" stroke="midnightblue" d="M363.72,-51.43C346.84,-46.19 328.85,-40.61 312.51,-35.54"/>
<polygon fill="midnightblue" stroke="midnightblue" points="362.92,-54.85 373.51,-54.47 364.99,-48.16 362.92,-54.85"/>
</g>
<!-- Node3 -->
<g id="node3" class="node">
<title>Node3</title>
<g id="a_node3"><a xlink:href="classflow_1_1async_1_1Single__thread__task__loop.html#a0fff7cd79132c92a03e46be93f7f53b8" target="_top" xlink:title="Equivalent to schedule_from_now() except one specifies an absolute time point instead of wait duratio...">
<polygon fill="white" stroke="black" points="0,-109 0,-135 146,-135 146,-109 0,-109"/>
<text text-anchor="start" x="8" y="-124.6" font-family="Helvetica,sans-Serif" font-size="8.00">flow::async::Single</text>
<text text-anchor="middle" x="73" y="-115.6" font-family="Helvetica,sans-Serif" font-size="8.00">_thread_task_loop::schedule_at</text>
</a>
</g>
</g>
<!-- Node2&#45;&gt;Node3 -->
<g id="edge2" class="edge">
<title>Node2&#45;&gt;Node3</title>
<path fill="none" stroke="midnightblue" d="M171.56,-122C163.09,-122 154.54,-122 146.19,-122"/>
<polygon fill="midnightblue" stroke="midnightblue" points="171.82,-125.5 181.82,-122 171.82,-118.5 171.82,-125.5"/>
</g>
</g>
</svg>
