<?xml version="1.0" encoding="UTF-8" standalone="no"?>
<!DOCTYPE svg PUBLIC "-//W3C//DTD SVG 1.1//EN"
 "http://www.w3.org/Graphics/SVG/1.1/DTD/svg11.dtd">
<!-- Generated by graphviz version 2.43.0 (0)
 -->
<!-- Title: flow::log::Verbosity_config::parse Pages: 1 -->
<svg width="493pt" height="98pt"
 viewBox="0.00 0.00 493.00 98.00" xmlns="http://www.w3.org/2000/svg" xmlns:xlink="http://www.w3.org/1999/xlink">
<g id="graph0" class="graph" transform="scale(1 1) rotate(0) translate(4 94)">
<title>flow::log::Verbosity_config::parse</title>
<polygon fill="white" stroke="transparent" points="-4,4 -4,-94 489,-94 489,4 -4,4"/>
<!-- Node1 -->
<g id="node1" class="node">
<title>Node1</title>
<g id="a_node1"><a xlink:title="Deserializes *this from a standard input stream.">
<polygon fill="#bfbfbf" stroke="black" points="0,-22.5 0,-48.5 95,-48.5 95,-22.5 0,-22.5"/>
<text text-anchor="start" x="8" y="-38.1" font-family="Helvetica,sans-Serif" font-size="8.00">flow::log::Verbosity</text>
<text text-anchor="middle" x="47.5" y="-29.1" font-family="Helvetica,sans-Serif" font-size="8.00">_config::parse</text>
</a>
</g>
</g>
<!-- Node2 -->
<g id="node2" class="node">
<title>Node2</title>
<g id="a_node2"><a xlink:href="namespaceflow_1_1util.html#a685b86585da2fa5186f51854e7ae1561" target="_top" xlink:title="Equivalent to ostream_op_to_string() but returns a new string by value instead of writing to the call...">
<polygon fill="white" stroke="black" points="131,-22.5 131,-48.5 223,-48.5 223,-22.5 131,-22.5"/>
<text text-anchor="start" x="139" y="-38.1" font-family="Helvetica,sans-Serif" font-size="8.00">flow::util::ostream</text>
<text text-anchor="middle" x="177" y="-29.1" font-family="Helvetica,sans-Serif" font-size="8.00">_op_string</text>
</a>
</g>
</g>
<!-- Node1&#45;&gt;Node2 -->
<g id="edge1" class="edge">
<title>Node1&#45;&gt;Node2</title>
<path fill="none" stroke="midnightblue" d="M95.25,-35.5C103.54,-35.5 112.24,-35.5 120.73,-35.5"/>
<polygon fill="midnightblue" stroke="midnightblue" points="120.95,-39 130.95,-35.5 120.95,-32 120.95,-39"/>
</g>
<!-- Node3 -->
<g id="node3" class="node">
<title>Node3</title>
<g id="a_node3"><a xlink:href="namespaceflow_1_1util.html#a8afd30c50bcd670d45442df49d1da484" target="_top" xlink:title="Writes to the specified string, as if the given arguments were each passed, via &lt;&lt; in sequence,...">
<polygon fill="white" stroke="black" points="259,-22.5 259,-48.5 351,-48.5 351,-22.5 259,-22.5"/>
<text text-anchor="start" x="267" y="-38.1" font-family="Helvetica,sans-Serif" font-size="8.00">flow::util::ostream</text>
<text text-anchor="middle" x="305" y="-29.1" font-family="Helvetica,sans-Serif" font-size="8.00">_op_to_string</text>
</a>
</g>
</g>
<!-- Node2&#45;&gt;Node3 -->
<g id="edge2" class="edge">
<title>Node2&#45;&gt;Node3</title>
<path fill="none" stroke="midnightblue" d="M223.13,-35.5C231.37,-35.5 240.04,-35.5 248.53,-35.5"/>
<polygon fill="midnightblue" stroke="midnightblue" points="248.76,-39 258.76,-35.5 248.76,-32 248.76,-39"/>
</g>
<!-- Node4 -->
<g id="node4" class="node">
<title>Node4</title>
<g id="a_node4"><a xlink:href="namespaceflow_1_1util.html#af92e6183c2071f4166d4b5a91f50d70c" target="_top" xlink:title="&quot;Induction step&quot; version of variadic function template that simply outputs arguments 2+ via &lt;&lt; to the...">
<polygon fill="white" stroke="black" points="387,-45.5 387,-71.5 485,-71.5 485,-45.5 387,-45.5"/>
<text text-anchor="start" x="395" y="-61.1" font-family="Helvetica,sans-Serif" font-size="8.00">flow::util::feed_args</text>
<text text-anchor="middle" x="436" y="-52.1" font-family="Helvetica,sans-Serif" font-size="8.00">_to_ostream</text>
</a>
</g>
</g>
<!-- Node3&#45;&gt;Node4 -->
<g id="edge3" class="edge">
<title>Node3&#45;&gt;Node4</title>
<path fill="none" stroke="midnightblue" d="M351.12,-43.54C359.37,-45.02 368.09,-46.57 376.66,-48.1"/>
<polygon fill="midnightblue" stroke="midnightblue" points="376.16,-51.56 386.62,-49.87 377.38,-44.67 376.16,-51.56"/>
</g>
<!-- Node5 -->
<g id="node5" class="node">
<title>Node5</title>
<g id="a_node5"><a xlink:href="classflow_1_1util_1_1String__ostream.html#a7e64b069ae0e221952068c13fdc0f080" target="_top" xlink:title="Access to stream that will write to owned string.">
<polygon fill="white" stroke="black" points="395,-0.5 395,-26.5 477,-26.5 477,-0.5 395,-0.5"/>
<text text-anchor="start" x="403" y="-16.1" font-family="Helvetica,sans-Serif" font-size="8.00">flow::util::String</text>
<text text-anchor="middle" x="436" y="-7.1" font-family="Helvetica,sans-Serif" font-size="8.00">_ostream::os</text>
</a>
</g>
</g>
<!-- Node3&#45;&gt;Node5 -->
<g id="edge5" class="edge">
<title>Node3&#45;&gt;Node5</title>
<path fill="none" stroke="midnightblue" d="M351.12,-27.81C362.02,-25.95 373.74,-23.95 384.86,-22.05"/>
<polygon fill="midnightblue" stroke="midnightblue" points="385.59,-25.48 394.86,-20.35 384.41,-18.58 385.59,-25.48"/>
</g>
<!-- Node4&#45;&gt;Node4 -->
<g id="edge4" class="edge">
<title>Node4&#45;&gt;Node4</title>
<path fill="none" stroke="midnightblue" d="M414.01,-71.77C407.34,-80.96 414.67,-90 436,-90 449,-90 456.8,-86.64 459.4,-81.94"/>
<polygon fill="midnightblue" stroke="midnightblue" points="462.83,-81.2 457.99,-71.77 455.89,-82.16 462.83,-81.2"/>
</g>
</g>
</svg>
