<?xml version="1.0" encoding="UTF-8" standalone="no"?>
<!DOCTYPE svg PUBLIC "-//W3C//DTD SVG 1.1//EN"
 "http://www.w3.org/Graphics/SVG/1.1/DTD/svg11.dtd">
<!-- Generated by graphviz version 2.43.0 (0)
 -->
<!-- Title: flow::net_flow::Peer_socket::receive Pages: 1 -->
<svg width="889pt" height="185pt"
 viewBox="0.00 0.00 889.00 185.00" xmlns="http://www.w3.org/2000/svg" xmlns:xlink="http://www.w3.org/1999/xlink">
<g id="graph0" class="graph" transform="scale(1 1) rotate(0) translate(4 181)">
<title>flow::net_flow::Peer_socket::receive</title>
<polygon fill="white" stroke="transparent" points="-4,4 -4,-181 885,-181 885,4 -4,4"/>
<!-- Node1 -->
<g id="node1" class="node">
<title>Node1</title>
<g id="a_node1"><a xlink:title="Receives (consumes from the Receive buffer) bytes of data, up to a given maximum cumulative number of...">
<polygon fill="#bfbfbf" stroke="black" points="0,-114.5 0,-140.5 97,-140.5 97,-114.5 0,-114.5"/>
<text text-anchor="start" x="8" y="-130.1" font-family="Helvetica,sans-Serif" font-size="8.00">flow::net_flow::Peer</text>
<text text-anchor="middle" x="48.5" y="-121.1" font-family="Helvetica,sans-Serif" font-size="8.00">_socket::receive</text>
</a>
</g>
</g>
<!-- Node2 -->
<g id="node2" class="node">
<title>Node2</title>
<g id="a_node2"><a xlink:href="classflow_1_1net__flow_1_1Socket__buffer.html#af60133c1d6825246b54f10f26810cd88" target="_top" xlink:title="Consumes (removes from the front of the internal byte buffer and returns them to the caller) a byte s...">
<polygon fill="white" stroke="black" points="133,-139.5 133,-165.5 266,-165.5 266,-139.5 133,-139.5"/>
<text text-anchor="start" x="141" y="-155.1" font-family="Helvetica,sans-Serif" font-size="8.00">flow::net_flow::Socket</text>
<text text-anchor="middle" x="199.5" y="-146.1" font-family="Helvetica,sans-Serif" font-size="8.00">_buffer::consume_bufs_copy</text>
</a>
</g>
</g>
<!-- Node1&#45;&gt;Node2 -->
<g id="edge1" class="edge">
<title>Node1&#45;&gt;Node2</title>
<path fill="none" stroke="midnightblue" d="M97.05,-135.48C105.35,-136.87 114.15,-138.35 122.98,-139.83"/>
<polygon fill="midnightblue" stroke="midnightblue" points="122.48,-143.29 132.92,-141.5 123.64,-136.39 122.48,-143.29"/>
</g>
<!-- Node5 -->
<g id="node5" class="node">
<title>Node5</title>
<g id="a_node5"><a xlink:href="classflow_1_1net__flow_1_1Peer__socket.html#af3ac1b0b3c9b1c3a5ec246148595c657" target="_top" xlink:title="Non&#45;template helper for template receive() that forwards the receive() logic to Node::receive().">
<polygon fill="white" stroke="black" points="145.5,-92.5 145.5,-118.5 253.5,-118.5 253.5,-92.5 145.5,-92.5"/>
<text text-anchor="start" x="153.5" y="-108.1" font-family="Helvetica,sans-Serif" font-size="8.00">flow::net_flow::Peer</text>
<text text-anchor="middle" x="199.5" y="-99.1" font-family="Helvetica,sans-Serif" font-size="8.00">_socket::node_receive</text>
</a>
</g>
</g>
<!-- Node1&#45;&gt;Node5 -->
<g id="edge4" class="edge">
<title>Node1&#45;&gt;Node5</title>
<path fill="none" stroke="midnightblue" d="M97.05,-120.48C109.22,-118.68 122.49,-116.72 135.3,-114.83"/>
<polygon fill="midnightblue" stroke="midnightblue" points="136.07,-118.26 145.45,-113.33 135.05,-111.33 136.07,-118.26"/>
</g>
<!-- Node3 -->
<g id="node3" class="node">
<title>Node3</title>
<g id="a_node3"><a xlink:href="namespaceflow_1_1util.html#a16357344c21456b86b7de3085e2661a2" target="_top" xlink:title="Identical to buffers_to_ostream() but returns an std::string instead of writing to a given ostream.">
<polygon fill="white" stroke="black" points="309.5,-144.5 309.5,-170.5 395.5,-170.5 395.5,-144.5 309.5,-144.5"/>
<text text-anchor="start" x="317.5" y="-160.1" font-family="Helvetica,sans-Serif" font-size="8.00">flow::util::buffers</text>
<text text-anchor="middle" x="352.5" y="-151.1" font-family="Helvetica,sans-Serif" font-size="8.00">_dump_string</text>
</a>
</g>
</g>
<!-- Node2&#45;&gt;Node3 -->
<g id="edge2" class="edge">
<title>Node2&#45;&gt;Node3</title>
<path fill="none" stroke="midnightblue" d="M266.29,-154.68C277.26,-155.04 288.5,-155.41 299.08,-155.76"/>
<polygon fill="midnightblue" stroke="midnightblue" points="299.29,-159.27 309.4,-156.11 299.52,-152.28 299.29,-159.27"/>
</g>
<!-- Node4 -->
<g id="node4" class="node">
<title>Node4</title>
<g id="a_node4"><a xlink:href="namespaceflow_1_1util.html#aa132928b364caefca5c3821e019924bf" target="_top" xlink:title="Writes a multi&#45; or single&#45;line string representation of the provided binary data to an output stream,...">
<polygon fill="white" stroke="black" points="456.5,-150.5 456.5,-176.5 542.5,-176.5 542.5,-150.5 456.5,-150.5"/>
<text text-anchor="start" x="464.5" y="-166.1" font-family="Helvetica,sans-Serif" font-size="8.00">flow::util::buffers</text>
<text text-anchor="middle" x="499.5" y="-157.1" font-family="Helvetica,sans-Serif" font-size="8.00">_to_ostream</text>
</a>
</g>
</g>
<!-- Node3&#45;&gt;Node4 -->
<g id="edge3" class="edge">
<title>Node3&#45;&gt;Node4</title>
<path fill="none" stroke="midnightblue" d="M395.83,-159.25C411.61,-159.9 429.72,-160.65 446.29,-161.34"/>
<polygon fill="midnightblue" stroke="midnightblue" points="446.23,-164.84 456.37,-161.76 446.52,-157.85 446.23,-164.84"/>
</g>
<!-- Node6 -->
<g id="node6" class="node">
<title>Node6</title>
<g id="a_node6"><a xlink:href="classflow_1_1net__flow_1_1Node.html#a109a118ca312e94686595ea08dac7ad0" target="_top" xlink:title="Helper method that checks whether the given Peer_socket or Server_socket is CLOSED; if so,...">
<polygon fill="white" stroke="black" points="302,-92.5 302,-118.5 403,-118.5 403,-92.5 302,-92.5"/>
<text text-anchor="start" x="310" y="-108.1" font-family="Helvetica,sans-Serif" font-size="8.00">flow::net_flow::Node</text>
<text text-anchor="middle" x="352.5" y="-99.1" font-family="Helvetica,sans-Serif" font-size="8.00">::ensure_sock_open</text>
</a>
</g>
</g>
<!-- Node5&#45;&gt;Node6 -->
<g id="edge5" class="edge">
<title>Node5&#45;&gt;Node6</title>
<path fill="none" stroke="midnightblue" d="M253.74,-105.5C265.94,-105.5 279,-105.5 291.47,-105.5"/>
<polygon fill="midnightblue" stroke="midnightblue" points="291.78,-109 301.78,-105.5 291.78,-102 291.78,-109"/>
</g>
<!-- Node7 -->
<g id="node7" class="node">
<title>Node7</title>
<g id="a_node7"><a xlink:href="classflow_1_1net__flow_1_1Node.html#addbb96858fd7b3c9ddd7c6fe8078809c" target="_top" xlink:title="Implementation of non&#45;blocking sock&#45;&gt;receive() for socket sock in all cases except when sock&#45;&gt;state()...">
<polygon fill="white" stroke="black" points="302,-46.5 302,-72.5 403,-72.5 403,-46.5 302,-46.5"/>
<text text-anchor="start" x="310" y="-62.1" font-family="Helvetica,sans-Serif" font-size="8.00">flow::net_flow::Node</text>
<text text-anchor="middle" x="352.5" y="-53.1" font-family="Helvetica,sans-Serif" font-size="8.00">::receive</text>
</a>
</g>
</g>
<!-- Node5&#45;&gt;Node7 -->
<g id="edge6" class="edge">
<title>Node5&#45;&gt;Node7</title>
<path fill="none" stroke="midnightblue" d="M243.37,-92.44C260.74,-87.15 280.96,-80.99 299.18,-75.44"/>
<polygon fill="midnightblue" stroke="midnightblue" points="300.24,-78.77 308.79,-72.51 298.2,-72.08 300.24,-78.77"/>
</g>
<!-- Node8 -->
<g id="node8" class="node">
<title>Node8</title>
<g id="a_node8"><a xlink:href="classflow_1_1net__flow_1_1Node.html#ad608f9bbe76426f4fbf4bf5af908e4e0" target="_top" xlink:title="Placed by receive() onto W during a graceful close, after the Receive buffer had been emptied by the ...">
<polygon fill="white" stroke="black" points="439,-96 439,-131 560,-131 560,-96 439,-96"/>
<text text-anchor="start" x="447" y="-120.6" font-family="Helvetica,sans-Serif" font-size="8.00">flow::net_flow::Node</text>
<text text-anchor="start" x="447" y="-111.6" font-family="Helvetica,sans-Serif" font-size="8.00">::receive_emptied_rcv</text>
<text text-anchor="middle" x="499.5" y="-102.6" font-family="Helvetica,sans-Serif" font-size="8.00">_buf_while_disconnecting</text>
</a>
</g>
</g>
<!-- Node7&#45;&gt;Node8 -->
<g id="edge7" class="edge">
<title>Node7&#45;&gt;Node8</title>
<path fill="none" stroke="midnightblue" d="M388.6,-72.57C404.51,-78.5 423.73,-85.66 441.62,-92.32"/>
<polygon fill="midnightblue" stroke="midnightblue" points="440.8,-95.75 451.39,-95.96 443.24,-89.19 440.8,-95.75"/>
</g>
<!-- Node45 -->
<g id="node11" class="node">
<title>Node45</title>
<g id="a_node11"><a xlink:href="classflow_1_1net__flow_1_1Node.html#a08cf95363b26c0c676979437e34db357" target="_top" xlink:title="Placed by receive() onto W if it has dequeued data from Receive buffer and given it to the user,...">
<polygon fill="white" stroke="black" points="443.5,-45.5 443.5,-71.5 555.5,-71.5 555.5,-45.5 443.5,-45.5"/>
<text text-anchor="start" x="451.5" y="-61.1" font-family="Helvetica,sans-Serif" font-size="8.00">flow::net_flow::Node</text>
<text text-anchor="middle" x="499.5" y="-52.1" font-family="Helvetica,sans-Serif" font-size="8.00">::receive_wnd_updated</text>
</a>
</g>
</g>
<!-- Node7&#45;&gt;Node45 -->
<g id="edge11" class="edge">
<title>Node7&#45;&gt;Node45</title>
<path fill="none" stroke="midnightblue" d="M403.4,-59.16C412.95,-59.09 423.07,-59.02 433.02,-58.95"/>
<polygon fill="midnightblue" stroke="midnightblue" points="433.32,-62.45 443.29,-58.88 433.27,-55.45 433.32,-62.45"/>
</g>
<!-- Node60 -->
<g id="node14" class="node">
<title>Node60</title>
<g id="a_node14"><a xlink:href="classflow_1_1net__flow_1_1Node.html#aae148cec361b59237996a4b30c6624b5" target="_top" xlink:title="Returns true if and only if the Node is operating.">
<polygon fill="white" stroke="black" points="449,-0.5 449,-26.5 550,-26.5 550,-0.5 449,-0.5"/>
<text text-anchor="start" x="457" y="-16.1" font-family="Helvetica,sans-Serif" font-size="8.00">flow::net_flow::Node</text>
<text text-anchor="middle" x="499.5" y="-7.1" font-family="Helvetica,sans-Serif" font-size="8.00">::running</text>
</a>
</g>
</g>
<!-- Node7&#45;&gt;Node60 -->
<g id="edge16" class="edge">
<title>Node7&#45;&gt;Node60</title>
<path fill="none" stroke="midnightblue" d="M394.66,-46.44C411.11,-41.22 430.22,-35.16 447.53,-29.67"/>
<polygon fill="midnightblue" stroke="midnightblue" points="449.01,-32.87 457.48,-26.51 446.89,-26.2 449.01,-32.87"/>
</g>
<!-- Node9 -->
<g id="node9" class="node">
<title>Node9</title>
<g id="a_node9"><a xlink:href="classflow_1_1net__flow_1_1Node.html#ade49e7bc7202a0adf33fec2d93d1b177" target="_top" xlink:title="A thread W method that handles the transition of the given socket from OPEN (any sub&#45;state) to CLOSED...">
<polygon fill="white" stroke="red" points="596,-144.5 596,-170.5 744,-170.5 744,-144.5 596,-144.5"/>
<text text-anchor="start" x="604" y="-160.1" font-family="Helvetica,sans-Serif" font-size="8.00">flow::net_flow::Node</text>
<text text-anchor="middle" x="670" y="-151.1" font-family="Helvetica,sans-Serif" font-size="8.00">::close_connection_immediately</text>
</a>
</g>
</g>
<!-- Node8&#45;&gt;Node9 -->
<g id="edge8" class="edge">
<title>Node8&#45;&gt;Node9</title>
<path fill="none" stroke="midnightblue" d="M560.38,-129.14C576.28,-133.29 593.45,-137.77 609.34,-141.92"/>
<polygon fill="midnightblue" stroke="midnightblue" points="608.49,-145.32 619.05,-144.46 610.26,-138.54 608.49,-145.32"/>
</g>
<!-- Node44 -->
<g id="node10" class="node">
<title>Node44</title>
<g id="a_node10"><a xlink:href="classflow_1_1net__flow_1_1Node.html#a99836ffb51eaefa4d2cc21770461cd97" target="_top" xlink:title="Constructs the socket pair (connection ID) for the given socket.">
<polygon fill="white" stroke="black" points="780,-123.5 780,-149.5 881,-149.5 881,-123.5 780,-123.5"/>
<text text-anchor="start" x="788" y="-139.1" font-family="Helvetica,sans-Serif" font-size="8.00">flow::net_flow::Node</text>
<text text-anchor="middle" x="830.5" y="-130.1" font-family="Helvetica,sans-Serif" font-size="8.00">::socket_id</text>
</a>
</g>
</g>
<!-- Node8&#45;&gt;Node44 -->
<g id="edge10" class="edge">
<title>Node8&#45;&gt;Node44</title>
<path fill="none" stroke="midnightblue" d="M560.08,-117.67C619.51,-121.82 710.29,-128.17 769.77,-132.32"/>
<polygon fill="midnightblue" stroke="midnightblue" points="769.55,-135.82 779.77,-133.02 770.04,-128.83 769.55,-135.82"/>
</g>
<!-- Node9&#45;&gt;Node44 -->
<g id="edge9" class="edge">
<title>Node9&#45;&gt;Node44</title>
<path fill="none" stroke="midnightblue" d="M744.22,-147.8C752.75,-146.67 761.38,-145.53 769.7,-144.42"/>
<polygon fill="midnightblue" stroke="midnightblue" points="770.23,-147.88 779.68,-143.1 769.31,-140.94 770.23,-147.88"/>
</g>
<!-- Node46 -->
<g id="node12" class="node">
<title>Node46</title>
<g id="a_node12"><a xlink:href="classflow_1_1net__flow_1_1Node.html#a192d4b95b9f8a5c3d08b1e5486eb6f78" target="_top" xlink:title="receive_wnd_updated() helper that continues rcv_wnd recovery: that is, sends unsolicited ACK with a r...">
<polygon fill="white" stroke="red" points="609,-42.5 609,-68.5 731,-68.5 731,-42.5 609,-42.5"/>
<text text-anchor="start" x="617" y="-58.1" font-family="Helvetica,sans-Serif" font-size="8.00">flow::net_flow::Node</text>
<text text-anchor="middle" x="670" y="-49.1" font-family="Helvetica,sans-Serif" font-size="8.00">::async_rcv_wnd_recovery</text>
</a>
</g>
</g>
<!-- Node45&#45;&gt;Node46 -->
<g id="edge12" class="edge">
<title>Node45&#45;&gt;Node46</title>
<path fill="none" stroke="midnightblue" d="M555.67,-57.52C569.34,-57.27 584.18,-57.01 598.47,-56.76"/>
<polygon fill="midnightblue" stroke="midnightblue" points="598.82,-60.25 608.76,-56.57 598.7,-53.25 598.82,-60.25"/>
</g>
<!-- Node36 -->
<g id="node13" class="node">
<title>Node36</title>
<g id="a_node13"><a xlink:href="classflow_1_1net__flow_1_1Node.html#ac397d3fd163f1456b7bb370a3cff951c" target="_top" xlink:title="Computes and returns the currently correct rcv_wnd value; that is the amount of space free in Receive...">
<polygon fill="white" stroke="black" points="780,-21.5 780,-47.5 881,-47.5 881,-21.5 780,-21.5"/>
<text text-anchor="start" x="788" y="-37.1" font-family="Helvetica,sans-Serif" font-size="8.00">flow::net_flow::Node</text>
<text text-anchor="middle" x="830.5" y="-28.1" font-family="Helvetica,sans-Serif" font-size="8.00">::sock_rcv_wnd</text>
</a>
</g>
</g>
<!-- Node45&#45;&gt;Node36 -->
<g id="edge15" class="edge">
<title>Node45&#45;&gt;Node36</title>
<path fill="none" stroke="midnightblue" d="M539.05,-45.5C556.26,-40.35 576.92,-35.05 596,-32.5 654.59,-24.67 722.18,-26.41 769.52,-29.35"/>
<polygon fill="midnightblue" stroke="midnightblue" points="769.39,-32.85 779.6,-30.02 769.85,-25.87 769.39,-32.85"/>
</g>
<!-- Node46&#45;&gt;Node46 -->
<g id="edge13" class="edge">
<title>Node46&#45;&gt;Node46</title>
<path fill="none" stroke="midnightblue" d="M642.93,-68.77C634.73,-77.96 643.75,-87 670,-87 686,-87 695.6,-83.64 698.8,-78.94"/>
<polygon fill="midnightblue" stroke="midnightblue" points="702.2,-78.04 697.07,-68.77 695.29,-79.22 702.2,-78.04"/>
</g>
<!-- Node46&#45;&gt;Node36 -->
<g id="edge14" class="edge">
<title>Node46&#45;&gt;Node36</title>
<path fill="none" stroke="midnightblue" d="M731.37,-47.5C744.01,-45.83 757.32,-44.06 769.92,-42.39"/>
<polygon fill="midnightblue" stroke="midnightblue" points="770.4,-45.86 779.85,-41.08 769.48,-38.92 770.4,-45.86"/>
</g>
</g>
</svg>
