<?xml version="1.0" encoding="UTF-8" standalone="no"?>
<!DOCTYPE svg PUBLIC "-//W3C//DTD SVG 1.1//EN"
 "http://www.w3.org/Graphics/SVG/1.1/DTD/svg11.dtd">
<!-- Generated by graphviz version 2.43.0 (0)
 -->
<!-- Title: flow::util::Basic_blob&lt; Allocator, S_SHARING_ALLOWED &gt;::Deleter_raw Pages: 1 -->
<svg width="164pt" height="116pt"
 viewBox="0.00 0.00 163.50 116.00" xmlns="http://www.w3.org/2000/svg" xmlns:xlink="http://www.w3.org/1999/xlink">
<g id="graph0" class="graph" transform="scale(1 1) rotate(0) translate(4 112)">
<title>flow::util::Basic_blob&lt; Allocator, S_SHARING_ALLOWED &gt;::Deleter_raw</title>
<polygon fill="white" stroke="transparent" points="-4,4 -4,-112 159.5,-112 159.5,4 -4,4"/>
<!-- Node1 -->
<g id="node1" class="node">
<title>Node1</title>
<g id="a_node1"><a xlink:title="Internal deleter functor used if and only if S_IS_VANILLA_ALLOC is false and therefore only with Buf_...">
<polygon fill="#bfbfbf" stroke="black" points="28.5,-0.5 28.5,-35.5 152.5,-35.5 152.5,-0.5 28.5,-0.5"/>
<text text-anchor="start" x="36.5" y="-25.1" font-family="Helvetica,sans-Serif" font-size="8.00">flow::util::Basic_blob</text>
<text text-anchor="start" x="36.5" y="-16.1" font-family="Helvetica,sans-Serif" font-size="8.00">&lt; Allocator, S_SHARING</text>
<text text-anchor="middle" x="90.5" y="-7.1" font-family="Helvetica,sans-Serif" font-size="8.00">_ALLOWED &gt;::Deleter_raw</text>
</a>
</g>
</g>
<!-- Node2 -->
<g id="node2" class="node">
<title>Node2</title>
<g id="a_node2"><a xlink:title=" ">
<polygon fill="white" stroke="#bfbfbf" points="0,-81.5 0,-107.5 95,-107.5 95,-81.5 0,-81.5"/>
<text text-anchor="start" x="8" y="-97.1" font-family="Helvetica,sans-Serif" font-size="8.00">optional&lt; Allocator</text>
<text text-anchor="middle" x="47.5" y="-88.1" font-family="Helvetica,sans-Serif" font-size="8.00">_raw &gt;</text>
</a>
</g>
</g>
<!-- Node2&#45;&gt;Node1 -->
<g id="edge1" class="edge">
<title>Node2&#45;&gt;Node1</title>
<path fill="none" stroke="#9a32cd" stroke-dasharray="5,2" d="M52.43,-71.29C54.2,-65.46 56.53,-59.32 59.5,-54 63.14,-47.48 68.17,-41.13 73.12,-35.66"/>
<polygon fill="#9a32cd" stroke="#9a32cd" points="48.98,-70.64 49.8,-81.21 55.75,-72.44 48.98,-70.64"/>
<text text-anchor="middle" x="85.5" y="-56.6" font-family="Helvetica,sans-Serif" font-size="8.00"> m_alloc_raw</text>
</g>
<!-- Node3 -->
<g id="node3" class="node">
<title>Node3</title>
<g id="a_node3"><a xlink:title=" ">
<polygon fill="white" stroke="#bfbfbf" points="113.5,-86 113.5,-103 153.5,-103 153.5,-86 113.5,-86"/>
<text text-anchor="middle" x="133.5" y="-92.6" font-family="Helvetica,sans-Serif" font-size="8.00">size_t</text>
</a>
</g>
</g>
<!-- Node3&#45;&gt;Node1 -->
<g id="edge2" class="edge">
<title>Node3&#45;&gt;Node1</title>
<path fill="none" stroke="#9a32cd" stroke-dasharray="5,2" d="M124.29,-76.68C120.39,-69.64 115.78,-61.4 111.5,-54 108.02,-47.99 104.13,-41.45 100.65,-35.67"/>
<polygon fill="#9a32cd" stroke="#9a32cd" points="121.47,-78.81 129.35,-85.89 127.6,-75.44 121.47,-78.81"/>
<text text-anchor="middle" x="135.5" y="-56.6" font-family="Helvetica,sans-Serif" font-size="8.00"> m_buf_sz</text>
</g>
</g>
</svg>
