<?xml version="1.0" encoding="UTF-8" standalone="no"?>
<!DOCTYPE svg PUBLIC "-//W3C//DTD SVG 1.1//EN"
 "http://www.w3.org/Graphics/SVG/1.1/DTD/svg11.dtd">
<!-- Generated by graphviz version 2.43.0 (0)
 -->
<!-- Title: flow::log::Log_context_mt::get_logger Pages: 1 -->
<svg width="258pt" height="35pt"
 viewBox="0.00 0.00 258.00 35.00" xmlns="http://www.w3.org/2000/svg" xmlns:xlink="http://www.w3.org/1999/xlink">
<g id="graph0" class="graph" transform="scale(1 1) rotate(0) translate(4 31)">
<title>flow::log::Log_context_mt::get_logger</title>
<polygon fill="white" stroke="transparent" points="-4,4 -4,-31 254,-31 254,4 -4,4"/>
<!-- Node1 -->
<g id="node1" class="node">
<title>Node1</title>
<g id="a_node1"><a xlink:title="Identical to Log_context API; but safe against concurrent operations on a *this.">
<polygon fill="#bfbfbf" stroke="black" points="0,-0.5 0,-26.5 107,-26.5 107,-0.5 0,-0.5"/>
<text text-anchor="start" x="8" y="-16.1" font-family="Helvetica,sans-Serif" font-size="8.00">flow::log::Log_context</text>
<text text-anchor="middle" x="53.5" y="-7.1" font-family="Helvetica,sans-Serif" font-size="8.00">_mt::get_logger</text>
</a>
</g>
</g>
<!-- Node2 -->
<g id="node2" class="node">
<title>Node2</title>
<g id="a_node2"><a xlink:href="classflow_1_1log_1_1Log__context.html#af4db395042b065b00398cd59845dcb4d" target="_top" xlink:title="Returns the stored Logger pointer, particularly as many FLOW_LOG_*() macros expect.">
<polygon fill="white" stroke="black" points="143,-0.5 143,-26.5 250,-26.5 250,-0.5 143,-0.5"/>
<text text-anchor="start" x="151" y="-16.1" font-family="Helvetica,sans-Serif" font-size="8.00">flow::log::Log_context</text>
<text text-anchor="middle" x="196.5" y="-7.1" font-family="Helvetica,sans-Serif" font-size="8.00">::get_logger</text>
</a>
</g>
</g>
<!-- Node1&#45;&gt;Node2 -->
<g id="edge1" class="edge">
<title>Node1&#45;&gt;Node2</title>
<path fill="none" stroke="midnightblue" d="M107,-13.5C115.44,-13.5 124.26,-13.5 132.9,-13.5"/>
<polygon fill="midnightblue" stroke="midnightblue" points="132.95,-17 142.95,-13.5 132.95,-10 132.95,-17"/>
</g>
</g>
</svg>
