<?xml version="1.0" encoding="UTF-8" standalone="no"?>
<!DOCTYPE svg PUBLIC "-//W3C//DTD SVG 1.1//EN"
 "http://www.w3.org/Graphics/SVG/1.1/DTD/svg11.dtd">
<!-- Generated by graphviz version 2.43.0 (0)
 -->
<!-- Title: flow::net_flow::Node::sync_op Pages: 1 -->
<svg width="530pt" height="186pt"
 viewBox="0.00 0.00 530.00 185.50" xmlns="http://www.w3.org/2000/svg" xmlns:xlink="http://www.w3.org/1999/xlink">
<g id="graph0" class="graph" transform="scale(1 1) rotate(0) translate(4 181.5)">
<title>flow::net_flow::Node::sync_op</title>
<polygon fill="white" stroke="transparent" points="-4,4 -4,-181.5 526,-181.5 526,4 -4,4"/>
<!-- Node1 -->
<g id="node1" class="node">
<title>Node1</title>
<g id="a_node1"><a xlink:title="Implementation of core blocking transfer methods, namely Peer_socket::sync_send(),...">
<polygon fill="#bfbfbf" stroke="black" points="0,-45.5 0,-71.5 101,-71.5 101,-45.5 0,-45.5"/>
<text text-anchor="start" x="8" y="-61.1" font-family="Helvetica,sans-Serif" font-size="8.00">flow::net_flow::Node</text>
<text text-anchor="middle" x="50.5" y="-52.1" font-family="Helvetica,sans-Serif" font-size="8.00">::sync_op</text>
</a>
</g>
</g>
<!-- Node2 -->
<g id="node2" class="node">
<title>Node2</title>
<g id="a_node2"><a xlink:href="classflow_1_1net__flow_1_1Node.html#ad100464cf0126dbbad39bde1c90a774f" target="_top" xlink:title="Creates a new Event_set in Event_set::State::S_INACTIVE state with no sockets/events stored; returns ...">
<polygon fill="white" stroke="black" points="138.5,-90.5 138.5,-116.5 239.5,-116.5 239.5,-90.5 138.5,-90.5"/>
<text text-anchor="start" x="146.5" y="-106.1" font-family="Helvetica,sans-Serif" font-size="8.00">flow::net_flow::Node</text>
<text text-anchor="middle" x="189" y="-97.1" font-family="Helvetica,sans-Serif" font-size="8.00">::event_set_create</text>
</a>
</g>
</g>
<!-- Node1&#45;&gt;Node2 -->
<g id="edge1" class="edge">
<title>Node1&#45;&gt;Node2</title>
<path fill="none" stroke="midnightblue" d="M90.98,-71.52C105.85,-76.42 122.94,-82.05 138.6,-87.22"/>
<polygon fill="midnightblue" stroke="midnightblue" points="137.54,-90.55 148.13,-90.36 139.73,-83.9 137.54,-90.55"/>
</g>
<!-- Node8 -->
<g id="node8" class="node">
<title>Node8</title>
<g id="a_node8"><a xlink:href="classflow_1_1net__flow_1_1Node.html#aae148cec361b59237996a4b30c6624b5" target="_top" xlink:title="Returns true if and only if the Node is operating.">
<polygon fill="white" stroke="black" points="138.5,-45.5 138.5,-71.5 239.5,-71.5 239.5,-45.5 138.5,-45.5"/>
<text text-anchor="start" x="146.5" y="-61.1" font-family="Helvetica,sans-Serif" font-size="8.00">flow::net_flow::Node</text>
<text text-anchor="middle" x="189" y="-52.1" font-family="Helvetica,sans-Serif" font-size="8.00">::running</text>
</a>
</g>
</g>
<!-- Node1&#45;&gt;Node8 -->
<g id="edge8" class="edge">
<title>Node1&#45;&gt;Node8</title>
<path fill="none" stroke="midnightblue" d="M101.17,-58.5C109.92,-58.5 119.11,-58.5 128.1,-58.5"/>
<polygon fill="midnightblue" stroke="midnightblue" points="128.14,-62 138.14,-58.5 128.14,-55 128.14,-62"/>
</g>
<!-- Node9 -->
<g id="node9" class="node">
<title>Node9</title>
<g id="a_node9"><a xlink:href="namespaceflow_1_1util.html#a09a032f8e1e77a3afc0b7df115a773e1" target="_top" xlink:title="Provides a way to execute arbitrary (cleanup) code at the exit of the current block.">
<polygon fill="white" stroke="black" points="137,-0.5 137,-26.5 241,-26.5 241,-0.5 137,-0.5"/>
<text text-anchor="start" x="145" y="-16.1" font-family="Helvetica,sans-Serif" font-size="8.00">flow::util::setup_auto</text>
<text text-anchor="middle" x="189" y="-7.1" font-family="Helvetica,sans-Serif" font-size="8.00">_cleanup</text>
</a>
</g>
</g>
<!-- Node1&#45;&gt;Node9 -->
<g id="edge9" class="edge">
<title>Node1&#45;&gt;Node9</title>
<path fill="none" stroke="midnightblue" d="M90.98,-45.48C105.85,-40.58 122.94,-34.95 138.6,-29.78"/>
<polygon fill="midnightblue" stroke="midnightblue" points="139.73,-33.1 148.13,-26.64 137.54,-26.45 139.73,-33.1"/>
</g>
<!-- Node2&#45;&gt;Node2 -->
<g id="edge6" class="edge">
<title>Node2&#45;&gt;Node2</title>
<path fill="none" stroke="midnightblue" d="M165.65,-116.77C158.58,-125.96 166.36,-135 189,-135 202.8,-135 211.08,-131.64 213.84,-126.94"/>
<polygon fill="midnightblue" stroke="midnightblue" points="217.26,-126.16 212.35,-116.77 210.33,-127.17 217.26,-126.16"/>
</g>
<!-- Node3 -->
<g id="node3" class="node">
<title>Node3</title>
<g id="a_node3"><a xlink:href="namespaceflow_1_1async.html#a24567271e97a67d3cae6bd8bf8dc63c4" target="_top" xlink:title="An extension of boost.asio&#39;s post() and dispatch() free function templates, this free function templa...">
<polygon fill="white" stroke="black" points="277,-135.5 277,-161.5 386,-161.5 386,-135.5 277,-135.5"/>
<text text-anchor="start" x="285" y="-151.1" font-family="Helvetica,sans-Serif" font-size="8.00">flow::async::asio_exec</text>
<text text-anchor="middle" x="331.5" y="-142.1" font-family="Helvetica,sans-Serif" font-size="8.00">_ctx_post</text>
</a>
</g>
</g>
<!-- Node2&#45;&gt;Node3 -->
<g id="edge2" class="edge">
<title>Node2&#45;&gt;Node3</title>
<path fill="none" stroke="midnightblue" d="M230.64,-116.52C245.94,-121.42 263.54,-127.05 279.66,-132.22"/>
<polygon fill="midnightblue" stroke="midnightblue" points="278.88,-135.64 289.47,-135.36 281.01,-128.97 278.88,-135.64"/>
</g>
<!-- Node6 -->
<g id="node6" class="node">
<title>Node6</title>
<g id="a_node6"><a xlink:href="classflow_1_1net__flow_1_1Event__set.html#a7b8e6cf7046b6905015301a203cd88f5" target="_top" xlink:title="Constructs object; initializes all values to well&#45;defined but possibly meaningless values (0,...">
<polygon fill="white" stroke="black" points="280.5,-90.5 280.5,-116.5 382.5,-116.5 382.5,-90.5 280.5,-90.5"/>
<text text-anchor="start" x="288.5" y="-106.1" font-family="Helvetica,sans-Serif" font-size="8.00">flow::net_flow::Event</text>
<text text-anchor="middle" x="331.5" y="-97.1" font-family="Helvetica,sans-Serif" font-size="8.00">_set::Event_set</text>
</a>
</g>
</g>
<!-- Node2&#45;&gt;Node6 -->
<g id="edge5" class="edge">
<title>Node2&#45;&gt;Node6</title>
<path fill="none" stroke="midnightblue" d="M239.54,-103.5C249.49,-103.5 260.05,-103.5 270.32,-103.5"/>
<polygon fill="midnightblue" stroke="midnightblue" points="270.46,-107 280.46,-103.5 270.46,-100 270.46,-107"/>
</g>
<!-- Node7 -->
<g id="node7" class="node">
<title>Node7</title>
<g id="a_node7"><a xlink:href="classflow_1_1log_1_1Log__context.html#af4db395042b065b00398cd59845dcb4d" target="_top" xlink:title="Returns the stored Logger pointer, particularly as many FLOW_LOG_*() macros expect.">
<polygon fill="white" stroke="black" points="278,-45.5 278,-71.5 385,-71.5 385,-45.5 278,-45.5"/>
<text text-anchor="start" x="286" y="-61.1" font-family="Helvetica,sans-Serif" font-size="8.00">flow::log::Log_context</text>
<text text-anchor="middle" x="331.5" y="-52.1" font-family="Helvetica,sans-Serif" font-size="8.00">::get_logger</text>
</a>
</g>
</g>
<!-- Node2&#45;&gt;Node7 -->
<g id="edge7" class="edge">
<title>Node2&#45;&gt;Node7</title>
<path fill="none" stroke="midnightblue" d="M230.64,-90.48C245.94,-85.58 263.54,-79.95 279.66,-74.78"/>
<polygon fill="midnightblue" stroke="midnightblue" points="281.01,-78.03 289.47,-71.64 278.88,-71.36 281.01,-78.03"/>
</g>
<!-- Node4 -->
<g id="node4" class="node">
<title>Node4</title>
<g id="a_node4"><a xlink:href="namespaceflow_1_1async.html#a4cce43f39672e80cba5512103c53ae60" target="_top" xlink:title="Returns the 0&#45;based processor logical (not hardware) core index of the core executing the calling thr...">
<polygon fill="white" stroke="black" points="422,-160 422,-177 522,-177 522,-160 422,-160"/>
<text text-anchor="middle" x="472" y="-166.6" font-family="Helvetica,sans-Serif" font-size="8.00">flow::async::cpu_idx</text>
</a>
</g>
</g>
<!-- Node3&#45;&gt;Node4 -->
<g id="edge3" class="edge">
<title>Node3&#45;&gt;Node4</title>
<path fill="none" stroke="midnightblue" d="M386.05,-156.23C394.47,-157.45 403.23,-158.71 411.77,-159.95"/>
<polygon fill="midnightblue" stroke="midnightblue" points="411.28,-163.41 421.67,-161.38 412.28,-156.48 411.28,-163.41"/>
</g>
<!-- Node5 -->
<g id="node5" class="node">
<title>Node5</title>
<g id="a_node5"><a xlink:href="classflow_1_1log_1_1Logger.html#ac8a2e7a33fe3fbc0c29ead62ed98c022" target="_top" xlink:title="Given attributes of a hypothetical message that would be logged, return true if that message should b...">
<polygon fill="white" stroke="black" points="426,-114.5 426,-140.5 518,-140.5 518,-114.5 426,-114.5"/>
<text text-anchor="start" x="434" y="-130.1" font-family="Helvetica,sans-Serif" font-size="8.00">flow::log::Logger::</text>
<text text-anchor="middle" x="472" y="-121.1" font-family="Helvetica,sans-Serif" font-size="8.00">should_log</text>
</a>
</g>
</g>
<!-- Node3&#45;&gt;Node5 -->
<g id="edge4" class="edge">
<title>Node3&#45;&gt;Node5</title>
<path fill="none" stroke="midnightblue" d="M386.05,-140.38C395.77,-138.91 405.92,-137.37 415.68,-135.89"/>
<polygon fill="midnightblue" stroke="midnightblue" points="416.33,-139.33 425.69,-134.37 415.28,-132.41 416.33,-139.33"/>
</g>
</g>
</svg>
