<?xml version="1.0" encoding="UTF-8" standalone="no"?>
<!DOCTYPE svg PUBLIC "-//W3C//DTD SVG 1.1//EN"
 "http://www.w3.org/Graphics/SVG/1.1/DTD/svg11.dtd">
<!-- Generated by graphviz version 2.43.0 (0)
 -->
<!-- Title: flow::net_flow::asio::Node::async_connect_impl Pages: 1 -->
<svg width="592pt" height="170pt"
 viewBox="0.00 0.00 592.00 170.00" xmlns="http://www.w3.org/2000/svg" xmlns:xlink="http://www.w3.org/1999/xlink">
<g id="graph0" class="graph" transform="scale(1 1) rotate(0) translate(4 166)">
<title>flow::net_flow::asio::Node::async_connect_impl</title>
<polygon fill="white" stroke="transparent" points="-4,4 -4,-166 588,-166 588,4 -4,4"/>
<!-- Node1 -->
<g id="node1" class="node">
<title>Node1</title>
<g id="a_node1"><a xlink:title="Implementation core of async_connect*() that gets rid of templated or missing arguments thereof.">
<polygon fill="#bfbfbf" stroke="black" points="0,-90.5 0,-116.5 132,-116.5 132,-90.5 0,-90.5"/>
<text text-anchor="start" x="8" y="-106.1" font-family="Helvetica,sans-Serif" font-size="8.00">flow::net_flow::asio</text>
<text text-anchor="middle" x="66" y="-97.1" font-family="Helvetica,sans-Serif" font-size="8.00">::Node::async_connect_impl</text>
</a>
</g>
</g>
<!-- Node2 -->
<g id="node2" class="node">
<title>Node2</title>
<g id="a_node2"><a xlink:href="classflow_1_1net__flow_1_1asio_1_1Node.html#a778ffa52a73f455142da9497ca10734d" target="_top" xlink:title="Pointer (possibly null) for the flow::util::Task_engine used by any coming async I/O calls and inheri...">
<polygon fill="white" stroke="black" points="168,-135.5 168,-161.5 296,-161.5 296,-135.5 168,-135.5"/>
<text text-anchor="start" x="176" y="-151.1" font-family="Helvetica,sans-Serif" font-size="8.00">flow::net_flow::asio</text>
<text text-anchor="middle" x="232" y="-142.1" font-family="Helvetica,sans-Serif" font-size="8.00">::Node::async_task_engine</text>
</a>
</g>
</g>
<!-- Node1&#45;&gt;Node2 -->
<g id="edge1" class="edge">
<title>Node1&#45;&gt;Node2</title>
<path fill="none" stroke="midnightblue" d="M114.44,-116.52C132.88,-121.58 154.19,-127.42 173.5,-132.72"/>
<polygon fill="midnightblue" stroke="midnightblue" points="172.82,-136.16 183.39,-135.44 174.67,-129.41 172.82,-136.16"/>
</g>
<!-- Node3 -->
<g id="node3" class="node">
<title>Node3</title>
<g id="a_node3"><a xlink:href="classflow_1_1net__flow_1_1asio_1_1Peer__socket.html#a0744682e2dc9118b4da3f00bc5267bec" target="_top" xlink:title="Convenience method that polymorphically casts from net_flow::Peer_socket::Ptr to subclass pointer net...">
<polygon fill="white" stroke="black" points="184,-90.5 184,-116.5 280,-116.5 280,-90.5 184,-90.5"/>
<text text-anchor="start" x="192" y="-106.1" font-family="Helvetica,sans-Serif" font-size="8.00">flow::net_flow::asio</text>
<text text-anchor="middle" x="232" y="-97.1" font-family="Helvetica,sans-Serif" font-size="8.00">::Peer_socket::cast</text>
</a>
</g>
</g>
<!-- Node1&#45;&gt;Node3 -->
<g id="edge2" class="edge">
<title>Node1&#45;&gt;Node3</title>
<path fill="none" stroke="midnightblue" d="M132.29,-103.5C145.82,-103.5 159.99,-103.5 173.23,-103.5"/>
<polygon fill="midnightblue" stroke="midnightblue" points="173.62,-107 183.62,-103.5 173.62,-100 173.62,-107"/>
</g>
<!-- Node4 -->
<g id="node4" class="node">
<title>Node4</title>
<g id="a_node4"><a xlink:href="classflow_1_1net__flow_1_1Node.html#a5dbd8c3b12fa035c56396a4f7263a8e6" target="_top" xlink:title="Same as connect() but sends, as part of the connection handshake, the user&#45;supplied metadata,...">
<polygon fill="white" stroke="black" points="172,-45.5 172,-71.5 292,-71.5 292,-45.5 172,-45.5"/>
<text text-anchor="start" x="180" y="-61.1" font-family="Helvetica,sans-Serif" font-size="8.00">flow::net_flow::Node</text>
<text text-anchor="middle" x="232" y="-52.1" font-family="Helvetica,sans-Serif" font-size="8.00">::connect_with_metadata</text>
</a>
</g>
</g>
<!-- Node1&#45;&gt;Node4 -->
<g id="edge3" class="edge">
<title>Node1&#45;&gt;Node4</title>
<path fill="none" stroke="midnightblue" d="M114.44,-90.48C132.88,-85.42 154.19,-79.58 173.5,-74.28"/>
<polygon fill="midnightblue" stroke="midnightblue" points="174.67,-77.59 183.39,-71.56 172.82,-70.84 174.67,-77.59"/>
</g>
<!-- Node5 -->
<g id="node5" class="node">
<title>Node5</title>
<g id="a_node5"><a xlink:href="namespaceflow_1_1async.html#a24567271e97a67d3cae6bd8bf8dc63c4" target="_top" xlink:title="An extension of boost.asio&#39;s post() and dispatch() free function templates, this free function templa...">
<polygon fill="white" stroke="black" points="335.5,-90.5 335.5,-116.5 444.5,-116.5 444.5,-90.5 335.5,-90.5"/>
<text text-anchor="start" x="343.5" y="-106.1" font-family="Helvetica,sans-Serif" font-size="8.00">flow::async::asio_exec</text>
<text text-anchor="middle" x="390" y="-97.1" font-family="Helvetica,sans-Serif" font-size="8.00">_ctx_post</text>
</a>
</g>
</g>
<!-- Node4&#45;&gt;Node5 -->
<g id="edge4" class="edge">
<title>Node4&#45;&gt;Node5</title>
<path fill="none" stroke="midnightblue" d="M278.12,-71.52C295.59,-76.55 315.75,-82.37 334.05,-87.65"/>
<polygon fill="midnightblue" stroke="midnightblue" points="333.13,-91.03 343.71,-90.44 335.07,-84.3 333.13,-91.03"/>
</g>
<!-- Node8 -->
<g id="node8" class="node">
<title>Node8</title>
<g id="a_node8"><a xlink:href="classflow_1_1log_1_1Log__context.html#af4db395042b065b00398cd59845dcb4d" target="_top" xlink:title="Returns the stored Logger pointer, particularly as many FLOW_LOG_*() macros expect.">
<polygon fill="white" stroke="black" points="336.5,-45.5 336.5,-71.5 443.5,-71.5 443.5,-45.5 336.5,-45.5"/>
<text text-anchor="start" x="344.5" y="-61.1" font-family="Helvetica,sans-Serif" font-size="8.00">flow::log::Log_context</text>
<text text-anchor="middle" x="390" y="-52.1" font-family="Helvetica,sans-Serif" font-size="8.00">::get_logger</text>
</a>
</g>
</g>
<!-- Node4&#45;&gt;Node8 -->
<g id="edge7" class="edge">
<title>Node4&#45;&gt;Node8</title>
<path fill="none" stroke="midnightblue" d="M292.42,-58.5C303.5,-58.5 315.1,-58.5 326.27,-58.5"/>
<polygon fill="midnightblue" stroke="midnightblue" points="326.38,-62 336.38,-58.5 326.38,-55 326.38,-62"/>
</g>
<!-- Node9 -->
<g id="node9" class="node">
<title>Node9</title>
<g id="a_node9"><a xlink:href="classflow_1_1net__flow_1_1Peer__socket.html#aa1f821dde38a7aa572651730744edbd8" target="_top" xlink:title="The maximum number of bytes of user data per received or sent packet on this connection.">
<polygon fill="white" stroke="black" points="332,-0.5 332,-26.5 448,-26.5 448,-0.5 332,-0.5"/>
<text text-anchor="start" x="340" y="-16.1" font-family="Helvetica,sans-Serif" font-size="8.00">flow::net_flow::Peer</text>
<text text-anchor="middle" x="390" y="-7.1" font-family="Helvetica,sans-Serif" font-size="8.00">_socket::max_block_size</text>
</a>
</g>
</g>
<!-- Node4&#45;&gt;Node9 -->
<g id="edge8" class="edge">
<title>Node4&#45;&gt;Node9</title>
<path fill="none" stroke="midnightblue" d="M278.12,-45.48C295.59,-40.45 315.75,-34.63 334.05,-29.35"/>
<polygon fill="midnightblue" stroke="midnightblue" points="335.07,-32.7 343.71,-26.56 333.13,-25.97 335.07,-32.7"/>
</g>
<!-- Node6 -->
<g id="node6" class="node">
<title>Node6</title>
<g id="a_node6"><a xlink:href="namespaceflow_1_1async.html#a4cce43f39672e80cba5512103c53ae60" target="_top" xlink:title="Returns the 0&#45;based processor logical (not hardware) core index of the core executing the calling thr...">
<polygon fill="white" stroke="black" points="484,-115 484,-132 584,-132 584,-115 484,-115"/>
<text text-anchor="middle" x="534" y="-121.6" font-family="Helvetica,sans-Serif" font-size="8.00">flow::async::cpu_idx</text>
</a>
</g>
</g>
<!-- Node5&#45;&gt;Node6 -->
<g id="edge5" class="edge">
<title>Node5&#45;&gt;Node6</title>
<path fill="none" stroke="midnightblue" d="M444.68,-111.06C454.24,-112.41 464.25,-113.82 473.95,-115.18"/>
<polygon fill="midnightblue" stroke="midnightblue" points="473.52,-118.66 483.91,-116.59 474.5,-111.73 473.52,-118.66"/>
</g>
<!-- Node7 -->
<g id="node7" class="node">
<title>Node7</title>
<g id="a_node7"><a xlink:href="classflow_1_1log_1_1Logger.html#ac8a2e7a33fe3fbc0c29ead62ed98c022" target="_top" xlink:title="Given attributes of a hypothetical message that would be logged, return true if that message should b...">
<polygon fill="white" stroke="black" points="488,-69.5 488,-95.5 580,-95.5 580,-69.5 488,-69.5"/>
<text text-anchor="start" x="496" y="-85.1" font-family="Helvetica,sans-Serif" font-size="8.00">flow::log::Logger::</text>
<text text-anchor="middle" x="534" y="-76.1" font-family="Helvetica,sans-Serif" font-size="8.00">should_log</text>
</a>
</g>
</g>
<!-- Node5&#45;&gt;Node7 -->
<g id="edge6" class="edge">
<title>Node5&#45;&gt;Node7</title>
<path fill="none" stroke="midnightblue" d="M444.68,-95.56C455.4,-93.98 466.67,-92.31 477.45,-90.72"/>
<polygon fill="midnightblue" stroke="midnightblue" points="478.21,-94.14 487.59,-89.22 477.18,-87.22 478.21,-94.14"/>
</g>
<!-- Node10 -->
<g id="node10" class="node">
<title>Node10</title>
<g id="a_node10"><a xlink:href="classflow_1_1net__flow_1_1Peer__socket.html#accf6d724ed1f145716ae3d4567f582f3" target="_top" xlink:title="Analogous to Node::opt() but for per&#45;socket options.">
<polygon fill="white" stroke="black" points="485.5,-0.5 485.5,-26.5 582.5,-26.5 582.5,-0.5 485.5,-0.5"/>
<text text-anchor="start" x="493.5" y="-16.1" font-family="Helvetica,sans-Serif" font-size="8.00">flow::net_flow::Peer</text>
<text text-anchor="middle" x="534" y="-7.1" font-family="Helvetica,sans-Serif" font-size="8.00">_socket::opt</text>
</a>
</g>
</g>
<!-- Node9&#45;&gt;Node10 -->
<g id="edge9" class="edge">
<title>Node9&#45;&gt;Node10</title>
<path fill="none" stroke="midnightblue" d="M448.35,-13.5C457.2,-13.5 466.35,-13.5 475.21,-13.5"/>
<polygon fill="midnightblue" stroke="midnightblue" points="475.44,-17 485.44,-13.5 475.44,-10 475.44,-17"/>
</g>
</g>
</svg>
