<?xml version="1.0" encoding="UTF-8" standalone="no"?>
<!DOCTYPE svg PUBLIC "-//W3C//DTD SVG 1.1//EN"
 "http://www.w3.org/Graphics/SVG/1.1/DTD/svg11.dtd">
<!-- Generated by graphviz version 2.43.0 (0)
 -->
<!-- Title: flow::net_flow::Event_set::clear_ev_type_to_socks_map Pages: 1 -->
<svg width="1558pt" height="759pt"
 viewBox="0.00 0.00 1558.00 759.00" xmlns="http://www.w3.org/2000/svg" xmlns:xlink="http://www.w3.org/1999/xlink">
<g id="graph0" class="graph" transform="scale(1 1) rotate(0) translate(4 755)">
<title>flow::net_flow::Event_set::clear_ev_type_to_socks_map</title>
<polygon fill="white" stroke="transparent" points="-4,4 -4,-755 1554,-755 1554,4 -4,4"/>
<!-- Node1 -->
<g id="node1" class="node">
<title>Node1</title>
<g id="a_node1"><a xlink:title="Helper that clears each Sockets set inside an Ev_type_to_socks_map.">
<polygon fill="#bfbfbf" stroke="black" points="1443,-373 1443,-408 1550,-408 1550,-373 1443,-373"/>
<text text-anchor="start" x="1451" y="-397.6" font-family="Helvetica,sans-Serif" font-size="8.00">flow::net_flow::Event</text>
<text text-anchor="start" x="1451" y="-388.6" font-family="Helvetica,sans-Serif" font-size="8.00">_set::clear_ev_type_to</text>
<text text-anchor="middle" x="1496.5" y="-379.6" font-family="Helvetica,sans-Serif" font-size="8.00">_socks_map</text>
</a>
</g>
</g>
<!-- Node2 -->
<g id="node2" class="node">
<title>Node2</title>
<g id="a_node2"><a xlink:href="classflow_1_1net__flow_1_1Event__set.html#ab64e128595b701e37256ff79d782c146" target="_top" xlink:title="Forgets all sockets stored in this object in any fashion.">
<polygon fill="white" stroke="black" points="1292,-484.5 1292,-510.5 1394,-510.5 1394,-484.5 1292,-484.5"/>
<text text-anchor="start" x="1300" y="-500.1" font-family="Helvetica,sans-Serif" font-size="8.00">flow::net_flow::Event</text>
<text text-anchor="middle" x="1343" y="-491.1" font-family="Helvetica,sans-Serif" font-size="8.00">_set::clear</text>
</a>
</g>
</g>
<!-- Node1&#45;&gt;Node2 -->
<g id="edge1" class="edge">
<title>Node1&#45;&gt;Node2</title>
<path fill="none" stroke="midnightblue" d="M1471.6,-415.59C1454.69,-432.36 1430.85,-454.09 1407,-469.5 1398.25,-475.15 1388.17,-480.19 1378.68,-484.39"/>
<polygon fill="midnightblue" stroke="midnightblue" points="1474.3,-417.84 1478.86,-408.28 1469.33,-412.91 1474.3,-417.84"/>
</g>
<!-- Node3 -->
<g id="node3" class="node">
<title>Node3</title>
<g id="a_node3"><a xlink:href="classflow_1_1net__flow_1_1Node.html#a8a4ddf81ddbeab1f740940c4cc0d3625" target="_top" xlink:title="For each WAITING Event_set within the Node: checks for any events that hold, and if any do hold,...">
<polygon fill="white" stroke="black" points="1279,-400.5 1279,-426.5 1407,-426.5 1407,-400.5 1279,-400.5"/>
<text text-anchor="start" x="1287" y="-416.1" font-family="Helvetica,sans-Serif" font-size="8.00">flow::net_flow::Node</text>
<text text-anchor="middle" x="1343" y="-407.1" font-family="Helvetica,sans-Serif" font-size="8.00">::event_set_all_check_delta</text>
</a>
</g>
</g>
<!-- Node1&#45;&gt;Node3 -->
<g id="edge3" class="edge">
<title>Node1&#45;&gt;Node3</title>
<path fill="none" stroke="midnightblue" d="M1433.04,-399.98C1424.5,-401.28 1415.72,-402.61 1407.16,-403.91"/>
<polygon fill="midnightblue" stroke="midnightblue" points="1433.58,-403.44 1442.94,-398.48 1432.53,-396.52 1433.58,-403.44"/>
</g>
<!-- Node49 -->
<g id="node25" class="node">
<title>Node49</title>
<g id="a_node25"><a xlink:href="classflow_1_1net__flow_1_1Node.html#aa18a14a4749f34d07c71bb2a1214d65f" target="_top" xlink:title="Implementation of Event_set::async_wait() when Event_set::state() == Event_set::State::S_INACTIVE.">
<polygon fill="white" stroke="black" points="1287.5,-355.5 1287.5,-381.5 1398.5,-381.5 1398.5,-355.5 1287.5,-355.5"/>
<text text-anchor="start" x="1295.5" y="-371.1" font-family="Helvetica,sans-Serif" font-size="8.00">flow::net_flow::Node</text>
<text text-anchor="middle" x="1343" y="-362.1" font-family="Helvetica,sans-Serif" font-size="8.00">::event_set_async_wait</text>
</a>
</g>
</g>
<!-- Node1&#45;&gt;Node49 -->
<g id="edge35" class="edge">
<title>Node1&#45;&gt;Node49</title>
<path fill="none" stroke="midnightblue" d="M1433.02,-381.43C1421.57,-379.76 1409.72,-378.04 1398.53,-376.42"/>
<polygon fill="midnightblue" stroke="midnightblue" points="1432.54,-384.89 1442.94,-382.87 1433.54,-377.97 1432.54,-384.89"/>
</g>
<!-- Node53 -->
<g id="node29" class="node">
<title>Node53</title>
<g id="a_node29"><a xlink:href="classflow_1_1net__flow_1_1Node.html#a6727ca42e15c8627c1ed3d94e6dd7a53" target="_top" xlink:title="The guts of event_set_close_worker_check_state(): same thing, but assumes Event_set::state() == Event...">
<polygon fill="white" stroke="black" points="1109.5,-724.5 1109.5,-750.5 1228.5,-750.5 1228.5,-724.5 1109.5,-724.5"/>
<text text-anchor="start" x="1117.5" y="-740.1" font-family="Helvetica,sans-Serif" font-size="8.00">flow::net_flow::Node</text>
<text text-anchor="middle" x="1169" y="-731.1" font-family="Helvetica,sans-Serif" font-size="8.00">::event_set_close_worker</text>
</a>
</g>
</g>
<!-- Node1&#45;&gt;Node53 -->
<g id="edge40" class="edge">
<title>Node1&#45;&gt;Node53</title>
<path fill="none" stroke="midnightblue" d="M1456.01,-413C1440.96,-421.05 1423.46,-429.78 1407,-436.5 1351.94,-458.98 1317.94,-430.55 1279,-475.5 1210.11,-555.03 1309.05,-627.59 1243,-709.5 1237.97,-715.73 1231.39,-720.58 1224.22,-724.35"/>
<polygon fill="midnightblue" stroke="midnightblue" points="1457.91,-415.95 1465.03,-408.11 1454.57,-409.8 1457.91,-415.95"/>
</g>
<!-- Node54 -->
<g id="node30" class="node">
<title>Node54</title>
<g id="a_node30"><a xlink:href="classflow_1_1net__flow_1_1Node.html#ad2840a7a95f16b7e222e449e3d6b9aca" target="_top" xlink:title="Thread W implementation of interrupt_all_waits().">
<polygon fill="white" stroke="black" points="1292.5,-263 1292.5,-298 1393.5,-298 1393.5,-263 1292.5,-263"/>
<text text-anchor="start" x="1300.5" y="-287.6" font-family="Helvetica,sans-Serif" font-size="8.00">flow::net_flow::Node</text>
<text text-anchor="start" x="1300.5" y="-278.6" font-family="Helvetica,sans-Serif" font-size="8.00">::interrupt_all_waits</text>
<text text-anchor="middle" x="1343" y="-269.6" font-family="Helvetica,sans-Serif" font-size="8.00">_worker</text>
</a>
</g>
</g>
<!-- Node1&#45;&gt;Node54 -->
<g id="edge42" class="edge">
<title>Node1&#45;&gt;Node54</title>
<path fill="none" stroke="midnightblue" d="M1470.97,-365.82C1453.94,-349.49 1430.22,-328.26 1407,-312.5 1399.39,-307.33 1390.83,-302.45 1382.53,-298.12"/>
<polygon fill="midnightblue" stroke="midnightblue" points="1468.68,-368.49 1478.29,-372.95 1473.56,-363.47 1468.68,-368.49"/>
</g>
<!-- Node55 -->
<g id="node31" class="node">
<title>Node55</title>
<g id="a_node31"><a xlink:href="classflow_1_1net__flow_1_1Event__set.html#a412214de6a4f3a1ff1e86ddb1975f47b" target="_top" xlink:title="Checks for all previously described events that currently hold, saves them for retrieval via emit_res...">
<polygon fill="white" stroke="black" points="1118,-0.5 1118,-26.5 1220,-26.5 1220,-0.5 1118,-0.5"/>
<text text-anchor="start" x="1126" y="-16.1" font-family="Helvetica,sans-Serif" font-size="8.00">flow::net_flow::Event</text>
<text text-anchor="middle" x="1169" y="-7.1" font-family="Helvetica,sans-Serif" font-size="8.00">_set::poll</text>
</a>
</g>
</g>
<!-- Node1&#45;&gt;Node55 -->
<g id="edge43" class="edge">
<title>Node1&#45;&gt;Node55</title>
<path fill="none" stroke="midnightblue" d="M1454.03,-368.11C1439.4,-360.69 1422.69,-352.74 1407,-346.5 1351.74,-324.52 1317.67,-352.68 1279,-307.5 1204.86,-220.88 1307.86,-147.27 1243,-53.5 1234.7,-41.5 1221.58,-32.74 1208.75,-26.53"/>
<polygon fill="midnightblue" stroke="midnightblue" points="1452.81,-371.42 1463.31,-372.88 1456.02,-365.19 1452.81,-371.42"/>
</g>
<!-- Node2&#45;&gt;Node2 -->
<g id="edge2" class="edge">
<title>Node2&#45;&gt;Node2</title>
<path fill="none" stroke="midnightblue" d="M1370.36,-520.94C1367.32,-525.64 1358.2,-529 1343,-529 1318.06,-529 1309.49,-519.96 1317.28,-510.77"/>
<polygon fill="midnightblue" stroke="midnightblue" points="1373.77,-520.09 1368.72,-510.77 1366.85,-521.2 1373.77,-520.09"/>
</g>
<!-- Node4 -->
<g id="node4" class="node">
<title>Node4</title>
<g id="a_node4"><a xlink:href="classflow_1_1net__flow_1_1Node.html#ade49e7bc7202a0adf33fec2d93d1b177" target="_top" xlink:title="A thread W method that handles the transition of the given socket from OPEN (any sub&#45;state) to CLOSED...">
<polygon fill="white" stroke="black" points="1095,-424.5 1095,-450.5 1243,-450.5 1243,-424.5 1095,-424.5"/>
<text text-anchor="start" x="1103" y="-440.1" font-family="Helvetica,sans-Serif" font-size="8.00">flow::net_flow::Node</text>
<text text-anchor="middle" x="1169" y="-431.1" font-family="Helvetica,sans-Serif" font-size="8.00">::close_connection_immediately</text>
</a>
</g>
</g>
<!-- Node3&#45;&gt;Node4 -->
<g id="edge4" class="edge">
<title>Node3&#45;&gt;Node4</title>
<path fill="none" stroke="midnightblue" d="M1269.02,-423.68C1260.49,-424.87 1251.79,-426.09 1243.26,-427.28"/>
<polygon fill="midnightblue" stroke="midnightblue" points="1269.51,-427.15 1278.93,-422.3 1268.54,-420.22 1269.51,-427.15"/>
</g>
<!-- Node19 -->
<g id="node10" class="node">
<title>Node19</title>
<g id="a_node10"><a xlink:href="classflow_1_1net__flow_1_1Node.html#a10a92f11a2c9f218cdd9a55f282e79b1" target="_top" xlink:title="Thread W implemention of send(): synchronously or asynchronously send the contents of sock&#45;&gt;m_snd_buf...">
<polygon fill="white" stroke="red" points="769.5,-377.5 769.5,-403.5 870.5,-403.5 870.5,-377.5 769.5,-377.5"/>
<text text-anchor="start" x="777.5" y="-393.1" font-family="Helvetica,sans-Serif" font-size="8.00">flow::net_flow::Node</text>
<text text-anchor="middle" x="820" y="-384.1" font-family="Helvetica,sans-Serif" font-size="8.00">::send_worker</text>
</a>
</g>
</g>
<!-- Node3&#45;&gt;Node19 -->
<g id="edge34" class="edge">
<title>Node3&#45;&gt;Node19</title>
<path fill="none" stroke="midnightblue" d="M1268.77,-410.27C1161.16,-405.52 963.12,-396.77 870.8,-392.7"/>
<polygon fill="midnightblue" stroke="midnightblue" points="1268.75,-413.77 1278.9,-410.71 1269.06,-406.78 1268.75,-413.77"/>
</g>
<!-- Node39 -->
<g id="node19" class="node">
<title>Node39</title>
<g id="a_node19"><a xlink:href="classflow_1_1net__flow_1_1Node.html#a29d02f9e302c7b06288ff1c644fa8d65" target="_top" xlink:title="Handles a just&#45;deserialized, just&#45;demultiplexed low&#45;level SYN_ACK_ACK packet delivered to the given p...">
<polygon fill="white" stroke="black" points="604,-267 604,-302 709,-302 709,-267 604,-267"/>
<text text-anchor="start" x="612" y="-291.6" font-family="Helvetica,sans-Serif" font-size="8.00">flow::net_flow::Node</text>
<text text-anchor="start" x="612" y="-282.6" font-family="Helvetica,sans-Serif" font-size="8.00">::handle_syn_ack_ack</text>
<text text-anchor="middle" x="656.5" y="-273.6" font-family="Helvetica,sans-Serif" font-size="8.00">_to_syn_rcvd</text>
</a>
</g>
</g>
<!-- Node3&#45;&gt;Node39 -->
<g id="edge30" class="edge">
<title>Node3&#45;&gt;Node39</title>
<path fill="none" stroke="midnightblue" d="M1279.51,-433.94C1244.91,-474.92 1278.07,-511.58 1243,-548.5 1085.62,-714.2 923.33,-819.41 745,-676.5 685.01,-628.42 663.45,-372.35 658.62,-302.25"/>
<polygon fill="midnightblue" stroke="midnightblue" points="1282.19,-436.19 1286.5,-426.51 1277.1,-431.39 1282.19,-436.19"/>
</g>
<!-- Node47 -->
<g id="node23" class="node">
<title>Node47</title>
<g id="a_node23"><a xlink:href="classflow_1_1net__flow_1_1Node.html#adf6d71af81def2d030f0fef159c1b06d" target="_top" xlink:title="Handles the transition of the given server socket from S_LISTENING/S_CLOSING to S_CLOSED (including e...">
<polygon fill="white" stroke="black" points="1117.5,-504 1117.5,-539 1220.5,-539 1220.5,-504 1117.5,-504"/>
<text text-anchor="start" x="1125.5" y="-528.6" font-family="Helvetica,sans-Serif" font-size="8.00">flow::net_flow::Node</text>
<text text-anchor="start" x="1125.5" y="-519.6" font-family="Helvetica,sans-Serif" font-size="8.00">::close_empty_server</text>
<text text-anchor="middle" x="1169" y="-510.6" font-family="Helvetica,sans-Serif" font-size="8.00">_immediately</text>
</a>
</g>
</g>
<!-- Node3&#45;&gt;Node47 -->
<g id="edge28" class="edge">
<title>Node3&#45;&gt;Node47</title>
<path fill="none" stroke="midnightblue" d="M1299.54,-430.86C1292.55,-434.15 1285.48,-437.74 1279,-441.5 1246.72,-460.23 1212.49,-486.55 1191.18,-503.81"/>
<polygon fill="midnightblue" stroke="midnightblue" points="1301.3,-433.91 1308.96,-426.59 1298.41,-427.53 1301.3,-433.91"/>
</g>
<!-- Node48 -->
<g id="node24" class="node">
<title>Node48</title>
<g id="a_node24"><a xlink:href="classflow_1_1net__flow_1_1Node.html#a0fba26db0055a969f3869014bc5c2bfc" target="_top" xlink:title="Performs all tasks to be performed at the end of low_lvl_recv_and_handle() or async part of async_wai...">
<polygon fill="white" stroke="black" points="456,-119 456,-154 568,-154 568,-119 456,-119"/>
<text text-anchor="start" x="464" y="-143.6" font-family="Helvetica,sans-Serif" font-size="8.00">flow::net_flow::Node</text>
<text text-anchor="start" x="464" y="-134.6" font-family="Helvetica,sans-Serif" font-size="8.00">::perform_accumulated</text>
<text text-anchor="middle" x="512" y="-125.6" font-family="Helvetica,sans-Serif" font-size="8.00">_on_recv_tasks</text>
</a>
</g>
</g>
<!-- Node3&#45;&gt;Node48 -->
<g id="edge31" class="edge">
<title>Node3&#45;&gt;Node48</title>
<path fill="none" stroke="midnightblue" d="M1287.9,-396.24C1284.83,-394.76 1281.84,-393.18 1279,-391.5 1133.32,-305.23 1165.31,-136.5 996,-136.5 996,-136.5 996,-136.5 819,-136.5 731.21,-136.5 629.25,-136.5 568,-136.5"/>
<polygon fill="midnightblue" stroke="midnightblue" points="1286.72,-399.55 1297.28,-400.39 1289.55,-393.14 1286.72,-399.55"/>
</g>
<!-- Node5 -->
<g id="node5" class="node">
<title>Node5</title>
<g id="a_node5"><a xlink:href="classflow_1_1net__flow_1_1Node.html#aa5f7c019665d9dd91af0ad6431f8f97d" target="_top" xlink:title="Similar to async_sock_low_lvl_packet_send_paced() except it also calls close_connection_immediately(s...">
<polygon fill="white" stroke="black" points="940,-419.5 940,-463.5 1050,-463.5 1050,-419.5 940,-419.5"/>
<text text-anchor="start" x="948" y="-453.1" font-family="Helvetica,sans-Serif" font-size="8.00">flow::net_flow::Node</text>
<text text-anchor="start" x="948" y="-444.1" font-family="Helvetica,sans-Serif" font-size="8.00">::async_sock_low_lvl</text>
<text text-anchor="start" x="948" y="-435.1" font-family="Helvetica,sans-Serif" font-size="8.00">_packet_send_or_close</text>
<text text-anchor="middle" x="995" y="-426.1" font-family="Helvetica,sans-Serif" font-size="8.00">_immediately</text>
</a>
</g>
</g>
<!-- Node4&#45;&gt;Node5 -->
<g id="edge5" class="edge">
<title>Node4&#45;&gt;Node5</title>
<path fill="none" stroke="midnightblue" d="M1084.38,-439.44C1072.77,-439.71 1061.09,-439.99 1050.21,-440.24"/>
<polygon fill="midnightblue" stroke="midnightblue" points="1084.64,-442.94 1094.56,-439.21 1084.48,-435.94 1084.64,-442.94"/>
</g>
<!-- Node29 -->
<g id="node11" class="node">
<title>Node29</title>
<g id="a_node11"><a xlink:href="classflow_1_1net__flow_1_1Node.html#a1699dfdaf3e5ebe1b1d715a9c306d116" target="_top" xlink:title="Handles a just&#45;received, not&#45;yet&#45;deserialized low&#45;level packet.">
<polygon fill="white" stroke="black" points="461.5,-183.5 461.5,-209.5 562.5,-209.5 562.5,-183.5 461.5,-183.5"/>
<text text-anchor="start" x="469.5" y="-199.1" font-family="Helvetica,sans-Serif" font-size="8.00">flow::net_flow::Node</text>
<text text-anchor="middle" x="512" y="-190.1" font-family="Helvetica,sans-Serif" font-size="8.00">::handle_incoming</text>
</a>
</g>
</g>
<!-- Node4&#45;&gt;Node29 -->
<g id="edge12" class="edge">
<title>Node4&#45;&gt;Node29</title>
<path fill="none" stroke="midnightblue" d="M1157.14,-415.17C1140.1,-382.03 1104.31,-319.44 1059,-279.5 997.42,-225.21 974.76,-213.94 895,-194.5 778.7,-166.15 636.49,-178.77 562.73,-188.68"/>
<polygon fill="midnightblue" stroke="midnightblue" points="1154.19,-417.1 1161.81,-424.45 1160.44,-413.95 1154.19,-417.1"/>
</g>
<!-- Node35 -->
<g id="node15" class="node">
<title>Node35</title>
<g id="a_node15"><a xlink:href="classflow_1_1net__flow_1_1Node.html#ad608f9bbe76426f4fbf4bf5af908e4e0" target="_top" xlink:title="Placed by receive() onto W during a graceful close, after the Receive buffer had been emptied by the ...">
<polygon fill="white" stroke="black" points="934.5,-483 934.5,-518 1055.5,-518 1055.5,-483 934.5,-483"/>
<text text-anchor="start" x="942.5" y="-507.6" font-family="Helvetica,sans-Serif" font-size="8.00">flow::net_flow::Node</text>
<text text-anchor="start" x="942.5" y="-498.6" font-family="Helvetica,sans-Serif" font-size="8.00">::receive_emptied_rcv</text>
<text text-anchor="middle" x="995" y="-489.6" font-family="Helvetica,sans-Serif" font-size="8.00">_buf_while_disconnecting</text>
</a>
</g>
</g>
<!-- Node4&#45;&gt;Node35 -->
<g id="edge18" class="edge">
<title>Node4&#45;&gt;Node35</title>
<path fill="none" stroke="midnightblue" d="M1122.69,-454.1C1098.46,-462.97 1068.62,-473.9 1043.99,-482.92"/>
<polygon fill="midnightblue" stroke="midnightblue" points="1124.18,-457.28 1132.36,-450.55 1121.77,-450.71 1124.18,-457.28"/>
</g>
<!-- Node36 -->
<g id="node17" class="node">
<title>Node36</title>
<g id="a_node17"><a xlink:href="classflow_1_1net__flow_1_1Node.html#afe70a0c32695e417e7a09e0ba773f151" target="_top" xlink:title="Asynchronously send RST to the other side of the given socket and close_connection_immediately().">
<polygon fill="white" stroke="black" points="931,-289 931,-324 1059,-324 1059,-289 931,-289"/>
<text text-anchor="start" x="939" y="-313.6" font-family="Helvetica,sans-Serif" font-size="8.00">flow::net_flow::Node</text>
<text text-anchor="start" x="939" y="-304.6" font-family="Helvetica,sans-Serif" font-size="8.00">::rst_and_close_connection</text>
<text text-anchor="middle" x="995" y="-295.6" font-family="Helvetica,sans-Serif" font-size="8.00">_immediately</text>
</a>
</g>
</g>
<!-- Node4&#45;&gt;Node36 -->
<g id="edge20" class="edge">
<title>Node4&#45;&gt;Node36</title>
<path fill="none" stroke="midnightblue" d="M1142.56,-418.13C1109.19,-392.71 1051.13,-348.49 1019.01,-324.03"/>
<polygon fill="midnightblue" stroke="midnightblue" points="1140.8,-421.19 1150.88,-424.46 1145.04,-415.62 1140.8,-421.19"/>
</g>
<!-- Node34 -->
<g id="node22" class="node">
<title>Node34</title>
<g id="a_node22"><a xlink:href="classflow_1_1net__flow_1_1Node.html#a5b056ed753b832458f44f537acfe86d7" target="_top" xlink:title="Worker thread W (main event loop) body.">
<polygon fill="white" stroke="black" points="944.5,-537.5 944.5,-563.5 1045.5,-563.5 1045.5,-537.5 944.5,-537.5"/>
<text text-anchor="start" x="952.5" y="-553.1" font-family="Helvetica,sans-Serif" font-size="8.00">flow::net_flow::Node</text>
<text text-anchor="middle" x="995" y="-544.1" font-family="Helvetica,sans-Serif" font-size="8.00">::worker_run</text>
</a>
</g>
</g>
<!-- Node4&#45;&gt;Node34 -->
<g id="edge27" class="edge">
<title>Node4&#45;&gt;Node34</title>
<path fill="none" stroke="midnightblue" d="M1142,-457C1127.88,-467.79 1110.25,-481.6 1095,-494.5 1078.43,-508.52 1077.55,-516.23 1059,-527.5 1052.73,-531.31 1045.73,-534.64 1038.74,-537.49"/>
<polygon fill="midnightblue" stroke="midnightblue" points="1144.44,-459.55 1150.29,-450.71 1140.21,-453.97 1144.44,-459.55"/>
</g>
<!-- Node6 -->
<g id="node6" class="node">
<title>Node6</title>
<g id="a_node6"><a xlink:href="classflow_1_1net__flow_1_1Node.html#a81e50276d0b162f6577adc690e0ef9e0" target="_top" xlink:title="Sends a low&#45;level ACK packet, with all accumulated in Peer_socket::m_rcv_pending_acks of sock individ...">
<polygon fill="white" stroke="black" points="760.5,-477.5 760.5,-503.5 879.5,-503.5 879.5,-477.5 760.5,-477.5"/>
<text text-anchor="start" x="768.5" y="-493.1" font-family="Helvetica,sans-Serif" font-size="8.00">flow::net_flow::Node</text>
<text text-anchor="middle" x="820" y="-484.1" font-family="Helvetica,sans-Serif" font-size="8.00">::async_low_lvl_ack_send</text>
</a>
</g>
</g>
<!-- Node5&#45;&gt;Node6 -->
<g id="edge6" class="edge">
<title>Node5&#45;&gt;Node6</title>
<path fill="none" stroke="midnightblue" d="M929.96,-459.64C909.04,-465.56 886.24,-472.02 866.92,-477.49"/>
<polygon fill="midnightblue" stroke="midnightblue" points="931.07,-462.96 939.74,-456.87 929.16,-456.23 931.07,-462.96"/>
</g>
<!-- Node7 -->
<g id="node7" class="node">
<title>Node7</title>
<g id="a_node7"><a xlink:href="classflow_1_1net__flow_1_1Node.html#acaf55766783893827061fd85cab2634f" target="_top" xlink:title="Helper to create, fully fill out, and asynchronously send via async_sock_low_lvl_packet_send_or_close...">
<polygon fill="white" stroke="black" points="745,-423 745,-458 895,-458 895,-423 745,-423"/>
<text text-anchor="start" x="753" y="-447.6" font-family="Helvetica,sans-Serif" font-size="8.00">flow::net_flow::Node</text>
<text text-anchor="start" x="753" y="-438.6" font-family="Helvetica,sans-Serif" font-size="8.00">::async_low_lvl_syn_ack</text>
<text text-anchor="middle" x="820" y="-429.6" font-family="Helvetica,sans-Serif" font-size="8.00">_ack_send_or_close_immediately</text>
</a>
</g>
</g>
<!-- Node5&#45;&gt;Node7 -->
<g id="edge7" class="edge">
<title>Node5&#45;&gt;Node7</title>
<path fill="none" stroke="midnightblue" d="M929.57,-441.13C918.32,-441.06 906.53,-440.99 895.04,-440.93"/>
<polygon fill="midnightblue" stroke="midnightblue" points="929.72,-444.63 939.74,-441.19 929.76,-437.63 929.72,-444.63"/>
</g>
<!-- Node8 -->
<g id="node8" class="node">
<title>Node8</title>
<g id="a_node8"><a xlink:href="classflow_1_1net__flow_1_1Node.html#a192d4b95b9f8a5c3d08b1e5486eb6f78" target="_top" xlink:title="receive_wnd_updated() helper that continues rcv_wnd recovery: that is, sends unsolicited ACK with a r...">
<polygon fill="white" stroke="red" points="759,-577.5 759,-603.5 881,-603.5 881,-577.5 759,-577.5"/>
<text text-anchor="start" x="767" y="-593.1" font-family="Helvetica,sans-Serif" font-size="8.00">flow::net_flow::Node</text>
<text text-anchor="middle" x="820" y="-584.1" font-family="Helvetica,sans-Serif" font-size="8.00">::async_rcv_wnd_recovery</text>
</a>
</g>
</g>
<!-- Node5&#45;&gt;Node8 -->
<g id="edge8" class="edge">
<title>Node5&#45;&gt;Node8</title>
<path fill="none" stroke="midnightblue" d="M934.22,-470.19C933.1,-471.26 932.03,-472.36 931,-473.5 901.06,-506.74 927.64,-536.9 895,-567.5 890.78,-571.46 885.89,-574.73 880.67,-577.45"/>
<polygon fill="midnightblue" stroke="midnightblue" points="936.68,-472.69 942.15,-463.61 932.22,-467.3 936.68,-472.69"/>
</g>
<!-- Node18 -->
<g id="node9" class="node">
<title>Node18</title>
<g id="a_node9"><a xlink:href="classflow_1_1net__flow_1_1Node.html#addd654cb6b1ccff34ddccbe5226be8f0" target="_top" xlink:title="Handles the triggering of the retransmit timer wait set up by setup_connection_timers(); it will re&#45;s...">
<polygon fill="white" stroke="black" points="755.5,-523 755.5,-558 884.5,-558 884.5,-523 755.5,-523"/>
<text text-anchor="start" x="763.5" y="-547.6" font-family="Helvetica,sans-Serif" font-size="8.00">flow::net_flow::Node</text>
<text text-anchor="start" x="763.5" y="-538.6" font-family="Helvetica,sans-Serif" font-size="8.00">::handle_connection_rexmit</text>
<text text-anchor="middle" x="820" y="-529.6" font-family="Helvetica,sans-Serif" font-size="8.00">_timer_event</text>
</a>
</g>
</g>
<!-- Node5&#45;&gt;Node18 -->
<g id="edge10" class="edge">
<title>Node5&#45;&gt;Node18</title>
<path fill="none" stroke="midnightblue" d="M937.23,-469.02C935.09,-470.47 933,-471.97 931,-473.5 912.02,-488.05 914.82,-500.12 895,-513.5 889.79,-517.02 884.06,-520.15 878.17,-522.91"/>
<polygon fill="midnightblue" stroke="midnightblue" points="939.16,-471.95 945.74,-463.65 935.42,-466.03 939.16,-471.95"/>
</g>
<!-- Node5&#45;&gt;Node19 -->
<g id="edge11" class="edge">
<title>Node5&#45;&gt;Node19</title>
<path fill="none" stroke="midnightblue" d="M930,-422.63C908.45,-416.28 884.9,-409.34 865.23,-403.54"/>
<polygon fill="midnightblue" stroke="midnightblue" points="929.15,-426.03 939.74,-425.5 931.13,-419.32 929.15,-426.03"/>
</g>
<!-- Node8&#45;&gt;Node8 -->
<g id="edge9" class="edge">
<title>Node8&#45;&gt;Node8</title>
<path fill="none" stroke="midnightblue" d="M849.39,-613.58C846.41,-618.47 836.61,-622 820,-622 793.42,-622 784.29,-612.96 792.59,-603.77"/>
<polygon fill="midnightblue" stroke="midnightblue" points="852.82,-612.88 847.41,-603.77 845.96,-614.27 852.82,-612.88"/>
</g>
<!-- Node30 -->
<g id="node12" class="node">
<title>Node30</title>
<g id="a_node12"><a xlink:href="classflow_1_1net__flow_1_1Node.html#a4368247d07e930bdd07ab8d2425c6de8" target="_top" xlink:title="Sets up handle_incoming(packet_data, low_lvl_remote_endpoint) to be called asynchronously after a spe...">
<polygon fill="white" stroke="black" points="307,-144 307,-179 420,-179 420,-144 307,-144"/>
<text text-anchor="start" x="315" y="-168.6" font-family="Helvetica,sans-Serif" font-size="8.00">flow::net_flow::Node</text>
<text text-anchor="start" x="315" y="-159.6" font-family="Helvetica,sans-Serif" font-size="8.00">::async_wait_latency</text>
<text text-anchor="middle" x="363.5" y="-150.6" font-family="Helvetica,sans-Serif" font-size="8.00">_then_handle_incoming</text>
</a>
</g>
</g>
<!-- Node29&#45;&gt;Node30 -->
<g id="edge13" class="edge">
<title>Node29&#45;&gt;Node30</title>
<path fill="none" stroke="midnightblue" d="M451.58,-182.3C441.17,-179.82 430.39,-177.24 420.09,-174.78"/>
<polygon fill="midnightblue" stroke="midnightblue" points="450.86,-185.73 461.4,-184.65 452.49,-178.92 450.86,-185.73"/>
</g>
<!-- Node31 -->
<g id="node13" class="node">
<title>Node31</title>
<g id="a_node13"><a xlink:href="classflow_1_1net__flow_1_1Node.html#a90ecbad1ff3a8d2fe4b3ad1c474f7513" target="_top" xlink:title="Helper for low_lvl_recv_and_handle() that calls handle_incoming() on the not&#45;yet&#45;deserialized low&#45;lev...">
<polygon fill="white" stroke="black" points="158,-144 158,-179 271,-179 271,-144 158,-144"/>
<text text-anchor="start" x="166" y="-168.6" font-family="Helvetica,sans-Serif" font-size="8.00">flow::net_flow::Node</text>
<text text-anchor="start" x="166" y="-159.6" font-family="Helvetica,sans-Serif" font-size="8.00">::handle_incoming_with</text>
<text text-anchor="middle" x="214.5" y="-150.6" font-family="Helvetica,sans-Serif" font-size="8.00">_simulation</text>
</a>
</g>
</g>
<!-- Node29&#45;&gt;Node31 -->
<g id="edge17" class="edge">
<title>Node29&#45;&gt;Node31</title>
<path fill="none" stroke="midnightblue" d="M451.12,-198.03C410.26,-198.13 355.04,-196.4 307,-188.5 293.76,-186.32 279.74,-182.82 266.76,-179.05"/>
<polygon fill="midnightblue" stroke="midnightblue" points="451.21,-201.53 461.19,-197.97 451.17,-194.53 451.21,-201.53"/>
</g>
<!-- Node30&#45;&gt;Node31 -->
<g id="edge14" class="edge">
<title>Node30&#45;&gt;Node31</title>
<path fill="none" stroke="midnightblue" d="M296.92,-161.5C288.32,-161.5 279.57,-161.5 271.15,-161.5"/>
<polygon fill="midnightblue" stroke="midnightblue" points="296.93,-165 306.93,-161.5 296.93,-158 296.93,-165"/>
</g>
<!-- Node31&#45;&gt;Node31 -->
<g id="edge15" class="edge">
<title>Node31&#45;&gt;Node31</title>
<path fill="none" stroke="midnightblue" d="M240.27,-189.6C236.65,-194.27 228.06,-197.5 214.5,-197.5 192.24,-197.5 183.37,-188.81 187.89,-179.28"/>
<polygon fill="midnightblue" stroke="midnightblue" points="243.79,-189.53 241.11,-179.28 236.81,-188.97 243.79,-189.53"/>
</g>
<!-- Node32 -->
<g id="node14" class="node">
<title>Node32</title>
<g id="a_node14"><a xlink:href="classflow_1_1net__flow_1_1Node.html#a9909cd2b2a77c57da9e35fcef0f8a4e5" target="_top" xlink:title="Handles the pre&#45;condition that m_low_lvl_sock has a UDP packet available for reading,...">
<polygon fill="white" stroke="red" points="0,-125.5 0,-151.5 122,-151.5 122,-125.5 0,-125.5"/>
<text text-anchor="start" x="8" y="-141.1" font-family="Helvetica,sans-Serif" font-size="8.00">flow::net_flow::Node</text>
<text text-anchor="middle" x="61" y="-132.1" font-family="Helvetica,sans-Serif" font-size="8.00">::low_lvl_recv_and_handle</text>
</a>
</g>
</g>
<!-- Node31&#45;&gt;Node32 -->
<g id="edge16" class="edge">
<title>Node31&#45;&gt;Node32</title>
<path fill="none" stroke="midnightblue" d="M147.98,-151.55C139.39,-150.25 130.63,-148.92 122.14,-147.63"/>
<polygon fill="midnightblue" stroke="midnightblue" points="147.54,-155.03 157.95,-153.07 148.59,-148.1 147.54,-155.03"/>
</g>
<!-- Node10 -->
<g id="node16" class="node">
<title>Node10</title>
<g id="a_node16"><a xlink:href="classflow_1_1net__flow_1_1Node.html#addbb96858fd7b3c9ddd7c6fe8078809c" target="_top" xlink:title="Implementation of non&#45;blocking sock&#45;&gt;receive() for socket sock in all cases except when sock&#45;&gt;state()...">
<polygon fill="white" stroke="red" points="769.5,-640.5 769.5,-666.5 870.5,-666.5 870.5,-640.5 769.5,-640.5"/>
<text text-anchor="start" x="777.5" y="-656.1" font-family="Helvetica,sans-Serif" font-size="8.00">flow::net_flow::Node</text>
<text text-anchor="middle" x="820" y="-647.1" font-family="Helvetica,sans-Serif" font-size="8.00">::receive</text>
</a>
</g>
</g>
<!-- Node35&#45;&gt;Node10 -->
<g id="edge19" class="edge">
<title>Node35&#45;&gt;Node10</title>
<path fill="none" stroke="midnightblue" d="M935.37,-524.26C933.83,-525.6 932.37,-527.01 931,-528.5 898.14,-564.17 930.09,-598.03 895,-631.5 888.21,-637.98 879.6,-642.55 870.68,-645.79"/>
<polygon fill="midnightblue" stroke="midnightblue" points="937.66,-526.92 943.59,-518.14 933.48,-521.3 937.66,-526.92"/>
</g>
<!-- Node37 -->
<g id="node18" class="node">
<title>Node37</title>
<g id="a_node18"><a xlink:href="classflow_1_1net__flow_1_1Node.html#a6461124e5bc3e59083e172e26029e632" target="_top" xlink:title="Implementation of non&#45;blocking sock&#45;&gt;close_abruptly() for socket sock in all cases except when sock&#45;&gt;...">
<polygon fill="white" stroke="red" points="769.5,-293.5 769.5,-319.5 870.5,-319.5 870.5,-293.5 769.5,-293.5"/>
<text text-anchor="start" x="777.5" y="-309.1" font-family="Helvetica,sans-Serif" font-size="8.00">flow::net_flow::Node</text>
<text text-anchor="middle" x="820" y="-300.1" font-family="Helvetica,sans-Serif" font-size="8.00">::close_abruptly</text>
</a>
</g>
</g>
<!-- Node36&#45;&gt;Node37 -->
<g id="edge21" class="edge">
<title>Node36&#45;&gt;Node37</title>
<path fill="none" stroke="midnightblue" d="M920.24,-306.5C903.49,-306.5 886.08,-306.5 870.61,-306.5"/>
<polygon fill="midnightblue" stroke="midnightblue" points="920.56,-310 930.56,-306.5 920.56,-303 920.56,-310"/>
</g>
<!-- Node36&#45;&gt;Node39 -->
<g id="edge22" class="edge">
<title>Node36&#45;&gt;Node39</title>
<path fill="none" stroke="midnightblue" d="M920.66,-325.74C870.57,-335.86 803.03,-343.55 745,-329.5 723.08,-324.19 700.51,-312.4 683.77,-302.21"/>
<polygon fill="midnightblue" stroke="midnightblue" points="921.68,-329.1 930.75,-323.62 920.25,-322.25 921.68,-329.1"/>
</g>
<!-- Node40 -->
<g id="node20" class="node">
<title>Node40</title>
<g id="a_node20"><a xlink:href="classflow_1_1net__flow_1_1Node.html#ab427ebc124a6233ae48a7562662a6e81" target="_top" xlink:title="Creates a new Drop Timer and saves it to sock&#45;&gt;m_snd_drop_timer.">
<polygon fill="white" stroke="black" points="769.5,-203.5 769.5,-229.5 870.5,-229.5 870.5,-203.5 769.5,-203.5"/>
<text text-anchor="start" x="777.5" y="-219.1" font-family="Helvetica,sans-Serif" font-size="8.00">flow::net_flow::Node</text>
<text text-anchor="middle" x="820" y="-210.1" font-family="Helvetica,sans-Serif" font-size="8.00">::setup_drop_timer</text>
</a>
</g>
</g>
<!-- Node36&#45;&gt;Node40 -->
<g id="edge24" class="edge">
<title>Node36&#45;&gt;Node40</title>
<path fill="none" stroke="midnightblue" d="M963.74,-282.59C944.83,-268.53 919.49,-251.28 895,-239.5 887.24,-235.77 878.74,-232.47 870.34,-229.61"/>
<polygon fill="midnightblue" stroke="midnightblue" points="961.86,-285.55 971.95,-288.79 966.08,-279.97 961.86,-285.55"/>
</g>
<!-- Node41 -->
<g id="node21" class="node">
<title>Node41</title>
<g id="a_node21"><a xlink:href="classflow_1_1net__flow_1_1Node.html#a3fd57a0d025a78cbeccfd8a15a983575" target="_top" xlink:title="async_sock_low_lvl_packet_send_paced() pacing helper: If sock_pacing_process_q() ran out of the last ...">
<polygon fill="white" stroke="red" points="751.5,-248.5 751.5,-274.5 888.5,-274.5 888.5,-248.5 751.5,-248.5"/>
<text text-anchor="start" x="759.5" y="-264.1" font-family="Helvetica,sans-Serif" font-size="8.00">flow::net_flow::Node</text>
<text text-anchor="middle" x="820" y="-255.1" font-family="Helvetica,sans-Serif" font-size="8.00">::sock_pacing_time_slice_end</text>
</a>
</g>
</g>
<!-- Node36&#45;&gt;Node41 -->
<g id="edge26" class="edge">
<title>Node36&#45;&gt;Node41</title>
<path fill="none" stroke="midnightblue" d="M920.81,-287.46C904.08,-283.11 886.67,-278.58 871.16,-274.55"/>
<polygon fill="midnightblue" stroke="midnightblue" points="920,-290.87 930.56,-290 921.77,-284.09 920,-290.87"/>
</g>
<!-- Node39&#45;&gt;Node29 -->
<g id="edge23" class="edge">
<title>Node39&#45;&gt;Node29</title>
<path fill="none" stroke="midnightblue" d="M618.31,-261.53C591.64,-245.06 556.64,-223.45 534.48,-209.76"/>
<polygon fill="midnightblue" stroke="midnightblue" points="616.66,-264.63 627.01,-266.9 620.34,-258.67 616.66,-264.63"/>
</g>
<!-- Node40&#45;&gt;Node39 -->
<g id="edge25" class="edge">
<title>Node40&#45;&gt;Node39</title>
<path fill="none" stroke="midnightblue" d="M763.11,-232.73C756.94,-234.86 750.8,-237.13 745,-239.5 725.71,-247.39 704.93,-257.98 688.47,-266.9"/>
<polygon fill="midnightblue" stroke="midnightblue" points="764.39,-235.99 772.77,-229.51 762.18,-229.35 764.39,-235.99"/>
</g>
<!-- Node47&#45;&gt;Node34 -->
<g id="edge29" class="edge">
<title>Node47&#45;&gt;Node34</title>
<path fill="none" stroke="midnightblue" d="M1107.31,-531.73C1087.15,-535.13 1064.95,-538.87 1045.72,-542.12"/>
<polygon fill="midnightblue" stroke="midnightblue" points="1108.05,-535.16 1117.32,-530.04 1106.88,-528.26 1108.05,-535.16"/>
</g>
<!-- Node48&#45;&gt;Node30 -->
<g id="edge32" class="edge">
<title>Node48&#45;&gt;Node30</title>
<path fill="none" stroke="midnightblue" d="M445.51,-147.68C437.15,-149.1 428.64,-150.55 420.45,-151.95"/>
<polygon fill="midnightblue" stroke="midnightblue" points="446.35,-151.08 455.61,-145.95 445.17,-144.18 446.35,-151.08"/>
</g>
<!-- Node48&#45;&gt;Node32 -->
<g id="edge33" class="edge">
<title>Node48&#45;&gt;Node32</title>
<path fill="none" stroke="midnightblue" d="M445.62,-134.89C437.01,-134.73 428.29,-134.59 420,-134.5 303.56,-133.22 274.42,-132.08 158,-134.5 146.41,-134.74 134.04,-135.15 122.16,-135.61"/>
<polygon fill="midnightblue" stroke="midnightblue" points="445.59,-138.39 455.66,-135.09 445.73,-131.39 445.59,-138.39"/>
</g>
<!-- Node50 -->
<g id="node26" class="node">
<title>Node50</title>
<g id="a_node26"><a xlink:href="classflow_1_1net__flow_1_1Event__set.html#a43dfb881ab3a9488a6a60dd83ad21c85" target="_top" xlink:title="Moves object to State::S_WAITING state, saves the given handler to be executed later (in a different,...">
<polygon fill="white" stroke="black" points="1118,-63.5 1118,-89.5 1220,-89.5 1220,-63.5 1118,-63.5"/>
<text text-anchor="start" x="1126" y="-79.1" font-family="Helvetica,sans-Serif" font-size="8.00">flow::net_flow::Event</text>
<text text-anchor="middle" x="1169" y="-70.1" font-family="Helvetica,sans-Serif" font-size="8.00">_set::async_wait</text>
</a>
</g>
</g>
<!-- Node49&#45;&gt;Node50 -->
<g id="edge36" class="edge">
<title>Node49&#45;&gt;Node50</title>
<path fill="none" stroke="midnightblue" d="M1288.85,-350.03C1285.15,-347.27 1281.79,-344.11 1279,-340.5 1218.94,-262.81 1297.32,-204.31 1243,-122.5 1233.31,-107.9 1217.22,-97.04 1202.62,-89.54"/>
<polygon fill="midnightblue" stroke="midnightblue" points="1287.07,-353.05 1297.39,-355.45 1290.82,-347.14 1287.07,-353.05"/>
</g>
<!-- Node50&#45;&gt;Node50 -->
<g id="edge37" class="edge">
<title>Node50&#45;&gt;Node50</title>
<path fill="none" stroke="midnightblue" d="M1200.57,-99.58C1197.37,-104.47 1186.84,-108 1169,-108 1140.45,-108 1130.64,-98.96 1139.56,-89.77"/>
<polygon fill="midnightblue" stroke="midnightblue" points="1203.98,-98.8 1198.44,-89.77 1197.14,-100.29 1203.98,-98.8"/>
</g>
<!-- Node51 -->
<g id="node27" class="node">
<title>Node51</title>
<g id="a_node27"><a xlink:href="classflow_1_1net__flow_1_1Event__set.html#a13a17c404f0ce43da5fec53a550da9be" target="_top" xlink:title="Same as the public sync_wait(max_wait) but uses a Fine_clock&#45;based Fine_duration non&#45;template type fo...">
<polygon fill="white" stroke="black" points="944,-32.5 944,-58.5 1046,-58.5 1046,-32.5 944,-32.5"/>
<text text-anchor="start" x="952" y="-48.1" font-family="Helvetica,sans-Serif" font-size="8.00">flow::net_flow::Event</text>
<text text-anchor="middle" x="995" y="-39.1" font-family="Helvetica,sans-Serif" font-size="8.00">_set::sync_wait_impl</text>
</a>
</g>
</g>
<!-- Node50&#45;&gt;Node51 -->
<g id="edge38" class="edge">
<title>Node50&#45;&gt;Node51</title>
<path fill="none" stroke="midnightblue" d="M1107.8,-65.65C1087.71,-62.03 1065.54,-58.03 1046.27,-54.56"/>
<polygon fill="midnightblue" stroke="midnightblue" points="1107.33,-69.12 1117.79,-67.45 1108.57,-62.23 1107.33,-69.12"/>
</g>
<!-- Node52 -->
<g id="node28" class="node">
<title>Node52</title>
<g id="a_node28"><a xlink:href="classflow_1_1net__flow_1_1Event__set.html#a7272a3b8975ff72edd3db3f777e930f1" target="_top" xlink:title="Same as the other sync_wait() but will stop waiting if the timeout given as argument expires.">
<polygon fill="white" stroke="black" points="769,-32.5 769,-58.5 871,-58.5 871,-32.5 769,-32.5"/>
<text text-anchor="start" x="777" y="-48.1" font-family="Helvetica,sans-Serif" font-size="8.00">flow::net_flow::Event</text>
<text text-anchor="middle" x="820" y="-39.1" font-family="Helvetica,sans-Serif" font-size="8.00">_set::sync_wait</text>
</a>
</g>
</g>
<!-- Node51&#45;&gt;Node52 -->
<g id="edge39" class="edge">
<title>Node51&#45;&gt;Node52</title>
<path fill="none" stroke="midnightblue" d="M933.82,-45.5C913.39,-45.5 890.79,-45.5 871.23,-45.5"/>
<polygon fill="midnightblue" stroke="midnightblue" points="933.96,-49 943.96,-45.5 933.96,-42 933.96,-49"/>
</g>
<!-- Node53&#45;&gt;Node34 -->
<g id="edge41" class="edge">
<title>Node53&#45;&gt;Node34</title>
<path fill="none" stroke="midnightblue" d="M1148.96,-716.8C1113.43,-678.17 1037.95,-596.11 1008.31,-563.89"/>
<polygon fill="midnightblue" stroke="midnightblue" points="1146.56,-719.36 1155.91,-724.35 1151.71,-714.62 1146.56,-719.36"/>
</g>
<!-- Node55&#45;&gt;Node51 -->
<g id="edge45" class="edge">
<title>Node55&#45;&gt;Node51</title>
<path fill="none" stroke="midnightblue" d="M1107.8,-24.7C1087.71,-28.44 1065.54,-32.56 1046.27,-36.15"/>
<polygon fill="midnightblue" stroke="midnightblue" points="1108.6,-28.11 1117.79,-22.84 1107.32,-21.23 1108.6,-28.11"/>
</g>
<!-- Node55&#45;&gt;Node55 -->
<g id="edge44" class="edge">
<title>Node55&#45;&gt;Node55</title>
<path fill="none" stroke="midnightblue" d="M1200.57,-36.58C1197.37,-41.47 1186.84,-45 1169,-45 1140.45,-45 1130.64,-35.96 1139.56,-26.77"/>
<polygon fill="midnightblue" stroke="midnightblue" points="1203.98,-35.8 1198.44,-26.77 1197.14,-37.29 1203.98,-35.8"/>
</g>
</g>
</svg>
