<?xml version="1.0" encoding="UTF-8" standalone="no"?>
<!DOCTYPE svg PUBLIC "-//W3C//DTD SVG 1.1//EN"
 "http://www.w3.org/Graphics/SVG/1.1/DTD/svg11.dtd">
<!-- Generated by graphviz version 2.43.0 (0)
 -->
<!-- Title: flow::net_flow::Node::socket_id Pages: 1 -->
<svg width="1365pt" height="546pt"
 viewBox="0.00 0.00 1365.00 546.21" xmlns="http://www.w3.org/2000/svg" xmlns:xlink="http://www.w3.org/1999/xlink">
<g id="graph0" class="graph" transform="scale(1 1) rotate(0) translate(4 542.21)">
<title>flow::net_flow::Node::socket_id</title>
<polygon fill="white" stroke="transparent" points="-4,4 -4,-542.21 1361,-542.21 1361,4 -4,4"/>
<!-- Node1 -->
<g id="node1" class="node">
<title>Node1</title>
<g id="a_node1"><a xlink:title="Constructs the socket pair (connection ID) for the given socket.">
<polygon fill="#bfbfbf" stroke="black" points="1256,-208.71 1256,-234.71 1357,-234.71 1357,-208.71 1256,-208.71"/>
<text text-anchor="start" x="1264" y="-224.31" font-family="Helvetica,sans-Serif" font-size="8.00">flow::net_flow::Node</text>
<text text-anchor="middle" x="1306.5" y="-215.31" font-family="Helvetica,sans-Serif" font-size="8.00">::socket_id</text>
</a>
</g>
</g>
<!-- Node2 -->
<g id="node2" class="node">
<title>Node2</title>
<g id="a_node2"><a xlink:href="classflow_1_1net__flow_1_1Node.html#a6461124e5bc3e59083e172e26029e632" target="_top" xlink:title="Implementation of non&#45;blocking sock&#45;&gt;close_abruptly() for socket sock in all cases except when sock&#45;&gt;...">
<polygon fill="white" stroke="black" points="771,-336.71 771,-362.71 872,-362.71 872,-336.71 771,-336.71"/>
<text text-anchor="start" x="779" y="-352.31" font-family="Helvetica,sans-Serif" font-size="8.00">flow::net_flow::Node</text>
<text text-anchor="middle" x="821.5" y="-343.31" font-family="Helvetica,sans-Serif" font-size="8.00">::close_abruptly</text>
</a>
</g>
</g>
<!-- Node1&#45;&gt;Node2 -->
<g id="edge1" class="edge">
<title>Node1&#45;&gt;Node2</title>
<path fill="none" stroke="midnightblue" d="M1289.07,-242.95C1273.42,-261.57 1248.12,-287.79 1220,-301.71 1105.52,-358.36 950.59,-358.42 872.26,-353.93"/>
<polygon fill="midnightblue" stroke="midnightblue" points="1291.95,-244.96 1295.56,-234.99 1286.52,-240.53 1291.95,-244.96"/>
</g>
<!-- Node4 -->
<g id="node4" class="node">
<title>Node4</title>
<g id="a_node4"><a xlink:href="classflow_1_1net__flow_1_1Node.html#ade49e7bc7202a0adf33fec2d93d1b177" target="_top" xlink:title="A thread W method that handles the transition of the given socket from OPEN (any sub&#45;state) to CLOSED...">
<polygon fill="white" stroke="black" points="1072,-380.71 1072,-406.71 1220,-406.71 1220,-380.71 1072,-380.71"/>
<text text-anchor="start" x="1080" y="-396.31" font-family="Helvetica,sans-Serif" font-size="8.00">flow::net_flow::Node</text>
<text text-anchor="middle" x="1146" y="-387.31" font-family="Helvetica,sans-Serif" font-size="8.00">::close_connection_immediately</text>
</a>
</g>
</g>
<!-- Node1&#45;&gt;Node4 -->
<g id="edge4" class="edge">
<title>Node1&#45;&gt;Node4</title>
<path fill="none" stroke="midnightblue" d="M1297.52,-244.43C1285.41,-275.83 1259.54,-332.37 1220,-365.71 1212.74,-371.84 1203.99,-376.7 1195.11,-380.55"/>
<polygon fill="midnightblue" stroke="midnightblue" points="1300.89,-245.41 1301.1,-234.82 1294.33,-242.97 1300.89,-245.41"/>
</g>
<!-- Node5 -->
<g id="node5" class="node">
<title>Node5</title>
<g id="a_node5"><a xlink:href="classflow_1_1net__flow_1_1Node.html#a1699dfdaf3e5ebe1b1d715a9c306d116" target="_top" xlink:title="Handles a just&#45;received, not&#45;yet&#45;deserialized low&#45;level packet.">
<polygon fill="white" stroke="black" points="461.5,-205.71 461.5,-231.71 562.5,-231.71 562.5,-205.71 461.5,-205.71"/>
<text text-anchor="start" x="469.5" y="-221.31" font-family="Helvetica,sans-Serif" font-size="8.00">flow::net_flow::Node</text>
<text text-anchor="middle" x="512" y="-212.31" font-family="Helvetica,sans-Serif" font-size="8.00">::handle_incoming</text>
</a>
</g>
</g>
<!-- Node1&#45;&gt;Node5 -->
<g id="edge24" class="edge">
<title>Node1&#45;&gt;Node5</title>
<path fill="none" stroke="midnightblue" d="M1245.87,-232.52C1237.21,-233.78 1228.39,-234.91 1220,-235.71 947.43,-261.82 874.97,-285.06 604,-245.71 585.25,-242.99 564.98,-237.26 548.34,-231.78"/>
<polygon fill="midnightblue" stroke="midnightblue" points="1246.56,-235.95 1255.91,-230.98 1245.5,-229.03 1246.56,-235.95"/>
</g>
<!-- Node11 -->
<g id="node9" class="node">
<title>Node11</title>
<g id="a_node9"><a xlink:href="classflow_1_1net__flow_1_1Node.html#ad608f9bbe76426f4fbf4bf5af908e4e0" target="_top" xlink:title="Placed by receive() onto W during a graceful close, after the Receive buffer had been emptied by the ...">
<polygon fill="white" stroke="black" points="911.5,-464.21 911.5,-499.21 1032.5,-499.21 1032.5,-464.21 911.5,-464.21"/>
<text text-anchor="start" x="919.5" y="-488.81" font-family="Helvetica,sans-Serif" font-size="8.00">flow::net_flow::Node</text>
<text text-anchor="start" x="919.5" y="-479.81" font-family="Helvetica,sans-Serif" font-size="8.00">::receive_emptied_rcv</text>
<text text-anchor="middle" x="972" y="-470.81" font-family="Helvetica,sans-Serif" font-size="8.00">_buf_while_disconnecting</text>
</a>
</g>
</g>
<!-- Node1&#45;&gt;Node11 -->
<g id="edge31" class="edge">
<title>Node1&#45;&gt;Node11</title>
<path fill="none" stroke="midnightblue" d="M1301.98,-245.06C1294.53,-286.1 1273.27,-371.16 1220,-416.71 1167.43,-461.67 1087.21,-475.97 1032.56,-480.28"/>
<polygon fill="midnightblue" stroke="midnightblue" points="1305.47,-245.39 1303.69,-234.94 1298.57,-244.22 1305.47,-245.39"/>
</g>
<!-- Node20 -->
<g id="node13" class="node">
<title>Node20</title>
<g id="a_node13"><a xlink:href="classflow_1_1net__flow_1_1Node.html#afe70a0c32695e417e7a09e0ba773f151" target="_top" xlink:title="Asynchronously send RST to the other side of the given socket and close_connection_immediately().">
<polygon fill="white" stroke="black" points="908,-288.21 908,-323.21 1036,-323.21 1036,-288.21 908,-288.21"/>
<text text-anchor="start" x="916" y="-312.81" font-family="Helvetica,sans-Serif" font-size="8.00">flow::net_flow::Node</text>
<text text-anchor="start" x="916" y="-303.81" font-family="Helvetica,sans-Serif" font-size="8.00">::rst_and_close_connection</text>
<text text-anchor="middle" x="972" y="-294.81" font-family="Helvetica,sans-Serif" font-size="8.00">_immediately</text>
</a>
</g>
</g>
<!-- Node1&#45;&gt;Node20 -->
<g id="edge32" class="edge">
<title>Node1&#45;&gt;Node20</title>
<path fill="none" stroke="midnightblue" d="M1280.47,-240.81C1264.13,-252.25 1241.85,-266.04 1220,-273.71 1159.82,-294.84 1086.99,-302.24 1036.07,-304.72"/>
<polygon fill="midnightblue" stroke="midnightblue" points="1282.82,-243.42 1288.89,-234.74 1278.73,-237.74 1282.82,-243.42"/>
</g>
<!-- Node21 -->
<g id="node14" class="node">
<title>Node21</title>
<g id="a_node14"><a xlink:href="classflow_1_1net__flow_1_1Node.html#a29d02f9e302c7b06288ff1c644fa8d65" target="_top" xlink:title="Handles a just&#45;deserialized, just&#45;demultiplexed low&#45;level SYN_ACK_ACK packet delivered to the given p...">
<polygon fill="white" stroke="black" points="617,-201.21 617,-236.21 722,-236.21 722,-201.21 617,-201.21"/>
<text text-anchor="start" x="625" y="-225.81" font-family="Helvetica,sans-Serif" font-size="8.00">flow::net_flow::Node</text>
<text text-anchor="start" x="625" y="-216.81" font-family="Helvetica,sans-Serif" font-size="8.00">::handle_syn_ack_ack</text>
<text text-anchor="middle" x="669.5" y="-207.81" font-family="Helvetica,sans-Serif" font-size="8.00">_to_syn_rcvd</text>
</a>
</g>
</g>
<!-- Node1&#45;&gt;Node21 -->
<g id="edge25" class="edge">
<title>Node1&#45;&gt;Node21</title>
<path fill="none" stroke="midnightblue" d="M1245.53,-214C1146.51,-202.44 942.69,-183.62 771,-199.71 755,-201.21 737.75,-204.02 722.14,-207.03"/>
<polygon fill="midnightblue" stroke="midnightblue" points="1245.3,-217.5 1255.64,-215.2 1246.12,-210.55 1245.3,-217.5"/>
</g>
<!-- Node22 -->
<g id="node15" class="node">
<title>Node22</title>
<g id="a_node15"><a xlink:href="classflow_1_1net__flow_1_1Node.html#ab427ebc124a6233ae48a7562662a6e81" target="_top" xlink:title="Creates a new Drop Timer and saves it to sock&#45;&gt;m_snd_drop_timer.">
<polygon fill="white" stroke="black" points="771,-209.71 771,-235.71 872,-235.71 872,-209.71 771,-209.71"/>
<text text-anchor="start" x="779" y="-225.31" font-family="Helvetica,sans-Serif" font-size="8.00">flow::net_flow::Node</text>
<text text-anchor="middle" x="821.5" y="-216.31" font-family="Helvetica,sans-Serif" font-size="8.00">::setup_drop_timer</text>
</a>
</g>
</g>
<!-- Node1&#45;&gt;Node22 -->
<g id="edge33" class="edge">
<title>Node1&#45;&gt;Node22</title>
<path fill="none" stroke="midnightblue" d="M1245.46,-221.83C1149.03,-222.03 961.43,-222.42 872.1,-222.61"/>
<polygon fill="midnightblue" stroke="midnightblue" points="1245.64,-225.33 1255.63,-221.81 1245.62,-218.33 1245.64,-225.33"/>
</g>
<!-- Node23 -->
<g id="node17" class="node">
<title>Node23</title>
<g id="a_node17"><a xlink:href="classflow_1_1net__flow_1_1Node.html#ac619d1a96cc62d223f990ee6a3c909ff" target="_top" xlink:title="Thread W implementation of connect().">
<polygon fill="white" stroke="black" points="1095.5,-128.71 1095.5,-154.71 1196.5,-154.71 1196.5,-128.71 1095.5,-128.71"/>
<text text-anchor="start" x="1103.5" y="-144.31" font-family="Helvetica,sans-Serif" font-size="8.00">flow::net_flow::Node</text>
<text text-anchor="middle" x="1146" y="-135.31" font-family="Helvetica,sans-Serif" font-size="8.00">::connect_worker</text>
</a>
</g>
</g>
<!-- Node1&#45;&gt;Node23 -->
<g id="edge22" class="edge">
<title>Node1&#45;&gt;Node23</title>
<path fill="none" stroke="midnightblue" d="M1277.82,-203.12C1261.42,-192.56 1240,-179.53 1220,-169.71 1208.91,-164.27 1196.48,-159.15 1185.07,-154.83"/>
<polygon fill="midnightblue" stroke="midnightblue" points="1276.08,-206.17 1286.37,-208.7 1279.91,-200.3 1276.08,-206.17"/>
</g>
<!-- Node24 -->
<g id="node18" class="node">
<title>Node24</title>
<g id="a_node18"><a xlink:href="classflow_1_1net__flow_1_1Node.html#addd654cb6b1ccff34ddccbe5226be8f0" target="_top" xlink:title="Handles the triggering of the retransmit timer wait set up by setup_connection_timers(); it will re&#45;s...">
<polygon fill="white" stroke="black" points="1081.5,-74.21 1081.5,-109.21 1210.5,-109.21 1210.5,-74.21 1081.5,-74.21"/>
<text text-anchor="start" x="1089.5" y="-98.81" font-family="Helvetica,sans-Serif" font-size="8.00">flow::net_flow::Node</text>
<text text-anchor="start" x="1089.5" y="-89.81" font-family="Helvetica,sans-Serif" font-size="8.00">::handle_connection_rexmit</text>
<text text-anchor="middle" x="1146" y="-80.81" font-family="Helvetica,sans-Serif" font-size="8.00">_timer_event</text>
</a>
</g>
</g>
<!-- Node1&#45;&gt;Node24 -->
<g id="edge23" class="edge">
<title>Node1&#45;&gt;Node24</title>
<path fill="none" stroke="midnightblue" d="M1292.22,-199.68C1277.28,-176.58 1251.01,-140.66 1220,-118.71 1215.04,-115.2 1209.56,-112.08 1203.91,-109.34"/>
<polygon fill="midnightblue" stroke="midnightblue" points="1289.44,-201.83 1297.73,-208.42 1295.36,-198.09 1289.44,-201.83"/>
</g>
<!-- Node25 -->
<g id="node19" class="node">
<title>Node25</title>
<g id="a_node19"><a xlink:href="classflow_1_1net__flow_1_1Node.html#aaaf5c3b5e6b9f9f1658b60907b36a498" target="_top" xlink:title="Handles a just&#45;deserialized, just&#45;demultiplexed low&#45;level SYN packet delivered to the given server so...">
<polygon fill="white" stroke="black" points="912,-77.21 912,-112.21 1032,-112.21 1032,-77.21 912,-77.21"/>
<text text-anchor="start" x="920" y="-101.81" font-family="Helvetica,sans-Serif" font-size="8.00">flow::net_flow::Node</text>
<text text-anchor="start" x="920" y="-92.81" font-family="Helvetica,sans-Serif" font-size="8.00">::handle_syn_to_listening</text>
<text text-anchor="middle" x="972" y="-83.81" font-family="Helvetica,sans-Serif" font-size="8.00">_server</text>
</a>
</g>
</g>
<!-- Node1&#45;&gt;Node25 -->
<g id="edge26" class="edge">
<title>Node1&#45;&gt;Node25</title>
<path fill="none" stroke="midnightblue" d="M1300.66,-198.34C1291.78,-162.2 1269.09,-93.87 1220,-64.71 1153.89,-25.44 1060.3,-55.28 1009.41,-77.11"/>
<polygon fill="midnightblue" stroke="midnightblue" points="1297.33,-199.49 1302.99,-208.45 1304.15,-197.92 1297.33,-199.49"/>
</g>
<!-- Node26 -->
<g id="node20" class="node">
<title>Node26</title>
<g id="a_node20"><a xlink:href="classflow_1_1net__flow_1_1Node.html#a0fba26db0055a969f3869014bc5c2bfc" target="_top" xlink:title="Performs all tasks to be performed at the end of low_lvl_recv_and_handle() or async part of async_wai...">
<polygon fill="white" stroke="black" points="456,-109.21 456,-144.21 568,-144.21 568,-109.21 456,-109.21"/>
<text text-anchor="start" x="464" y="-133.81" font-family="Helvetica,sans-Serif" font-size="8.00">flow::net_flow::Node</text>
<text text-anchor="start" x="464" y="-124.81" font-family="Helvetica,sans-Serif" font-size="8.00">::perform_accumulated</text>
<text text-anchor="middle" x="512" y="-115.81" font-family="Helvetica,sans-Serif" font-size="8.00">_on_recv_tasks</text>
</a>
</g>
</g>
<!-- Node1&#45;&gt;Node26 -->
<g id="edge28" class="edge">
<title>Node1&#45;&gt;Node26</title>
<path fill="none" stroke="midnightblue" d="M1301.75,-198.68C1294.06,-159.45 1272.56,-80.2 1220,-41.71 1130.6,23.76 1083.81,-7.71 973,-7.71 973,-7.71 973,-7.71 820.5,-7.71 709.45,-7.71 590.12,-76.05 538.83,-109.15"/>
<polygon fill="midnightblue" stroke="midnightblue" points="1298.33,-199.4 1303.57,-208.61 1305.21,-198.14 1298.33,-199.4"/>
</g>
<!-- Node3 -->
<g id="node3" class="node">
<title>Node3</title>
<g id="a_node3"><a xlink:href="classflow_1_1net__flow_1_1Peer__socket.html#a9ab710704237f912eb219f9b8d574afc" target="_top" xlink:title="Acts as if fatal error error::Code::S_USER_CLOSED_ABRUPTLY has been discovered on the connection.">
<polygon fill="white" stroke="black" points="613,-336.71 613,-362.71 726,-362.71 726,-336.71 613,-336.71"/>
<text text-anchor="start" x="621" y="-352.31" font-family="Helvetica,sans-Serif" font-size="8.00">flow::net_flow::Peer</text>
<text text-anchor="middle" x="669.5" y="-343.31" font-family="Helvetica,sans-Serif" font-size="8.00">_socket::close_abruptly</text>
</a>
</g>
</g>
<!-- Node2&#45;&gt;Node3 -->
<g id="edge2" class="edge">
<title>Node2&#45;&gt;Node3</title>
<path fill="none" stroke="midnightblue" d="M760.69,-349.71C749.31,-349.71 737.45,-349.71 726.2,-349.71"/>
<polygon fill="midnightblue" stroke="midnightblue" points="760.97,-353.21 770.97,-349.71 760.97,-346.21 760.97,-353.21"/>
</g>
<!-- Node3&#45;&gt;Node3 -->
<g id="edge3" class="edge">
<title>Node3&#45;&gt;Node3</title>
<path fill="none" stroke="midnightblue" d="M696.86,-373.15C693.82,-377.85 684.7,-381.21 669.5,-381.21 644.56,-381.21 635.99,-372.17 643.78,-362.98"/>
<polygon fill="midnightblue" stroke="midnightblue" points="700.27,-372.29 695.22,-362.98 693.35,-373.41 700.27,-372.29"/>
</g>
<!-- Node4&#45;&gt;Node5 -->
<g id="edge5" class="edge">
<title>Node4&#45;&gt;Node5</title>
<path fill="none" stroke="midnightblue" d="M1084.03,-408.91C1068.47,-412.14 1051.7,-415.07 1036,-416.71 844.69,-436.67 764.39,-496.88 604,-390.71 546.25,-352.48 522.64,-265.18 515.52,-231.92"/>
<polygon fill="midnightblue" stroke="midnightblue" points="1085.02,-412.27 1094.06,-406.75 1083.54,-405.43 1085.02,-412.27"/>
</g>
<!-- Node4&#45;&gt;Node11 -->
<g id="edge11" class="edge">
<title>Node4&#45;&gt;Node11</title>
<path fill="none" stroke="midnightblue" d="M1110.43,-411.52C1089.01,-422.55 1060.92,-436.98 1036,-449.71 1026.82,-454.4 1016.89,-459.45 1007.67,-464.13"/>
<polygon fill="midnightblue" stroke="midnightblue" points="1112.18,-414.56 1119.47,-406.87 1108.98,-408.33 1112.18,-414.56"/>
</g>
<!-- Node4&#45;&gt;Node20 -->
<g id="edge15" class="edge">
<title>Node4&#45;&gt;Node20</title>
<path fill="none" stroke="midnightblue" d="M1110,-375.8C1079.99,-360.45 1037.03,-338.47 1007.24,-323.23"/>
<polygon fill="midnightblue" stroke="midnightblue" points="1108.75,-379.1 1119.25,-380.53 1111.94,-372.86 1108.75,-379.1"/>
</g>
<!-- Node10 -->
<g id="node16" class="node">
<title>Node10</title>
<g id="a_node16"><a xlink:href="classflow_1_1net__flow_1_1Node.html#a5b056ed753b832458f44f537acfe86d7" target="_top" xlink:title="Worker thread W (main event loop) body.">
<polygon fill="white" stroke="black" points="921.5,-380.71 921.5,-406.71 1022.5,-406.71 1022.5,-380.71 921.5,-380.71"/>
<text text-anchor="start" x="929.5" y="-396.31" font-family="Helvetica,sans-Serif" font-size="8.00">flow::net_flow::Node</text>
<text text-anchor="middle" x="972" y="-387.31" font-family="Helvetica,sans-Serif" font-size="8.00">::worker_run</text>
</a>
</g>
</g>
<!-- Node4&#45;&gt;Node10 -->
<g id="edge21" class="edge">
<title>Node4&#45;&gt;Node10</title>
<path fill="none" stroke="midnightblue" d="M1061.43,-393.71C1048.14,-393.71 1034.77,-393.71 1022.59,-393.71"/>
<polygon fill="midnightblue" stroke="midnightblue" points="1061.56,-397.21 1071.56,-393.71 1061.56,-390.21 1061.56,-397.21"/>
</g>
<!-- Node6 -->
<g id="node6" class="node">
<title>Node6</title>
<g id="a_node6"><a xlink:href="classflow_1_1net__flow_1_1Node.html#a4368247d07e930bdd07ab8d2425c6de8" target="_top" xlink:title="Sets up handle_incoming(packet_data, low_lvl_remote_endpoint) to be called asynchronously after a spe...">
<polygon fill="white" stroke="black" points="307,-155.21 307,-190.21 420,-190.21 420,-155.21 307,-155.21"/>
<text text-anchor="start" x="315" y="-179.81" font-family="Helvetica,sans-Serif" font-size="8.00">flow::net_flow::Node</text>
<text text-anchor="start" x="315" y="-170.81" font-family="Helvetica,sans-Serif" font-size="8.00">::async_wait_latency</text>
<text text-anchor="middle" x="363.5" y="-161.81" font-family="Helvetica,sans-Serif" font-size="8.00">_then_handle_incoming</text>
</a>
</g>
</g>
<!-- Node5&#45;&gt;Node6 -->
<g id="edge6" class="edge">
<title>Node5&#45;&gt;Node6</title>
<path fill="none" stroke="midnightblue" d="M459.83,-202.64C447,-198.61 433.18,-194.27 420.15,-190.18"/>
<polygon fill="midnightblue" stroke="midnightblue" points="458.82,-205.99 469.41,-205.65 460.92,-199.32 458.82,-205.99"/>
</g>
<!-- Node7 -->
<g id="node7" class="node">
<title>Node7</title>
<g id="a_node7"><a xlink:href="classflow_1_1net__flow_1_1Node.html#a90ecbad1ff3a8d2fe4b3ad1c474f7513" target="_top" xlink:title="Helper for low_lvl_recv_and_handle() that calls handle_incoming() on the not&#45;yet&#45;deserialized low&#45;lev...">
<polygon fill="white" stroke="black" points="158,-155.21 158,-190.21 271,-190.21 271,-155.21 158,-155.21"/>
<text text-anchor="start" x="166" y="-179.81" font-family="Helvetica,sans-Serif" font-size="8.00">flow::net_flow::Node</text>
<text text-anchor="start" x="166" y="-170.81" font-family="Helvetica,sans-Serif" font-size="8.00">::handle_incoming_with</text>
<text text-anchor="middle" x="214.5" y="-161.81" font-family="Helvetica,sans-Serif" font-size="8.00">_simulation</text>
</a>
</g>
</g>
<!-- Node5&#45;&gt;Node7 -->
<g id="edge10" class="edge">
<title>Node5&#45;&gt;Node7</title>
<path fill="none" stroke="midnightblue" d="M451.08,-216.19C410.2,-213.73 354.98,-208.93 307,-199.71 294.48,-197.3 281.21,-193.9 268.78,-190.32"/>
<polygon fill="midnightblue" stroke="midnightblue" points="450.97,-219.69 461.15,-216.77 451.37,-212.7 450.97,-219.69"/>
</g>
<!-- Node6&#45;&gt;Node7 -->
<g id="edge7" class="edge">
<title>Node6&#45;&gt;Node7</title>
<path fill="none" stroke="midnightblue" d="M296.92,-172.71C288.32,-172.71 279.57,-172.71 271.15,-172.71"/>
<polygon fill="midnightblue" stroke="midnightblue" points="296.93,-176.21 306.93,-172.71 296.93,-169.21 296.93,-176.21"/>
</g>
<!-- Node7&#45;&gt;Node7 -->
<g id="edge8" class="edge">
<title>Node7&#45;&gt;Node7</title>
<path fill="none" stroke="midnightblue" d="M240.27,-200.81C236.65,-205.48 228.06,-208.71 214.5,-208.71 192.24,-208.71 183.37,-200.02 187.89,-190.49"/>
<polygon fill="midnightblue" stroke="midnightblue" points="243.79,-200.74 241.11,-190.49 236.81,-200.18 243.79,-200.74"/>
</g>
<!-- Node8 -->
<g id="node8" class="node">
<title>Node8</title>
<g id="a_node8"><a xlink:href="classflow_1_1net__flow_1_1Node.html#a9909cd2b2a77c57da9e35fcef0f8a4e5" target="_top" xlink:title="Handles the pre&#45;condition that m_low_lvl_sock has a UDP packet available for reading,...">
<polygon fill="white" stroke="red" points="0,-136.71 0,-162.71 122,-162.71 122,-136.71 0,-136.71"/>
<text text-anchor="start" x="8" y="-152.31" font-family="Helvetica,sans-Serif" font-size="8.00">flow::net_flow::Node</text>
<text text-anchor="middle" x="61" y="-143.31" font-family="Helvetica,sans-Serif" font-size="8.00">::low_lvl_recv_and_handle</text>
</a>
</g>
</g>
<!-- Node7&#45;&gt;Node8 -->
<g id="edge9" class="edge">
<title>Node7&#45;&gt;Node8</title>
<path fill="none" stroke="midnightblue" d="M147.98,-162.76C139.39,-161.46 130.63,-160.13 122.14,-158.84"/>
<polygon fill="midnightblue" stroke="midnightblue" points="147.54,-166.23 157.95,-164.28 148.59,-159.31 147.54,-166.23"/>
</g>
<!-- Node12 -->
<g id="node10" class="node">
<title>Node12</title>
<g id="a_node10"><a xlink:href="classflow_1_1net__flow_1_1Node.html#addbb96858fd7b3c9ddd7c6fe8078809c" target="_top" xlink:title="Implementation of non&#45;blocking sock&#45;&gt;receive() for socket sock in all cases except when sock&#45;&gt;state()...">
<polygon fill="white" stroke="black" points="771,-468.71 771,-494.71 872,-494.71 872,-468.71 771,-468.71"/>
<text text-anchor="start" x="779" y="-484.31" font-family="Helvetica,sans-Serif" font-size="8.00">flow::net_flow::Node</text>
<text text-anchor="middle" x="821.5" y="-475.31" font-family="Helvetica,sans-Serif" font-size="8.00">::receive</text>
</a>
</g>
</g>
<!-- Node11&#45;&gt;Node12 -->
<g id="edge12" class="edge">
<title>Node11&#45;&gt;Node12</title>
<path fill="none" stroke="midnightblue" d="M901.25,-481.71C891.39,-481.71 881.42,-481.71 872.05,-481.71"/>
<polygon fill="midnightblue" stroke="midnightblue" points="901.46,-485.21 911.46,-481.71 901.45,-478.21 901.46,-485.21"/>
</g>
<!-- Node13 -->
<g id="node11" class="node">
<title>Node13</title>
<g id="a_node11"><a xlink:href="classflow_1_1net__flow_1_1Peer__socket.html#af3ac1b0b3c9b1c3a5ec246148595c657" target="_top" xlink:title="Non&#45;template helper for template receive() that forwards the receive() logic to Node::receive().">
<polygon fill="white" stroke="red" points="615.5,-511.71 615.5,-537.71 723.5,-537.71 723.5,-511.71 615.5,-511.71"/>
<text text-anchor="start" x="623.5" y="-527.31" font-family="Helvetica,sans-Serif" font-size="8.00">flow::net_flow::Peer</text>
<text text-anchor="middle" x="669.5" y="-518.31" font-family="Helvetica,sans-Serif" font-size="8.00">_socket::node_receive</text>
</a>
</g>
</g>
<!-- Node12&#45;&gt;Node13 -->
<g id="edge13" class="edge">
<title>Node12&#45;&gt;Node13</title>
<path fill="none" stroke="midnightblue" d="M765.21,-497.56C749.02,-502.2 731.52,-507.22 716.02,-511.66"/>
<polygon fill="midnightblue" stroke="midnightblue" points="766.44,-500.85 775.09,-494.73 764.51,-494.12 766.44,-500.85"/>
</g>
<!-- Node15 -->
<g id="node12" class="node">
<title>Node15</title>
<g id="a_node12"><a xlink:href="classflow_1_1net__flow_1_1Peer__socket.html#a8abde92d5189bf2a058fe8741789f814" target="_top" xlink:title="This is to sync_receive() as node_receive() is to receive().">
<polygon fill="white" stroke="red" points="604,-466.71 604,-492.71 735,-492.71 735,-466.71 604,-466.71"/>
<text text-anchor="start" x="612" y="-482.31" font-family="Helvetica,sans-Serif" font-size="8.00">flow::net_flow::Peer</text>
<text text-anchor="middle" x="669.5" y="-473.31" font-family="Helvetica,sans-Serif" font-size="8.00">_socket::node_sync_receive</text>
</a>
</g>
</g>
<!-- Node12&#45;&gt;Node15 -->
<g id="edge14" class="edge">
<title>Node12&#45;&gt;Node15</title>
<path fill="none" stroke="midnightblue" d="M760.86,-480.91C752.43,-480.8 743.74,-480.69 735.23,-480.57"/>
<polygon fill="midnightblue" stroke="midnightblue" points="760.92,-484.42 770.97,-481.05 761.02,-477.42 760.92,-484.42"/>
</g>
<!-- Node20&#45;&gt;Node2 -->
<g id="edge16" class="edge">
<title>Node20&#45;&gt;Node2</title>
<path fill="none" stroke="midnightblue" d="M902.27,-326.07C890.2,-329.65 877.94,-333.28 866.77,-336.59"/>
<polygon fill="midnightblue" stroke="midnightblue" points="903.29,-329.42 911.88,-323.23 901.3,-322.71 903.29,-329.42"/>
</g>
<!-- Node20&#45;&gt;Node21 -->
<g id="edge17" class="edge">
<title>Node20&#45;&gt;Node21</title>
<path fill="none" stroke="midnightblue" d="M900.94,-285.43C846.31,-269.61 771.68,-248 722.34,-233.72"/>
<polygon fill="midnightblue" stroke="midnightblue" points="899.97,-288.79 910.55,-288.21 901.92,-282.07 899.97,-288.79"/>
</g>
<!-- Node20&#45;&gt;Node22 -->
<g id="edge19" class="edge">
<title>Node20&#45;&gt;Node22</title>
<path fill="none" stroke="midnightblue" d="M930.65,-283.16C903.58,-268.02 868.85,-248.62 846.15,-235.93"/>
<polygon fill="midnightblue" stroke="midnightblue" points="929.07,-286.28 939.51,-288.11 932.49,-280.17 929.07,-286.28"/>
</g>
<!-- Node21&#45;&gt;Node5 -->
<g id="edge18" class="edge">
<title>Node21&#45;&gt;Node5</title>
<path fill="none" stroke="midnightblue" d="M606.33,-218.71C591.83,-218.71 576.58,-218.71 562.71,-218.71"/>
<polygon fill="midnightblue" stroke="midnightblue" points="606.72,-222.21 616.72,-218.71 606.72,-215.21 606.72,-222.21"/>
</g>
<!-- Node22&#45;&gt;Node21 -->
<g id="edge20" class="edge">
<title>Node22&#45;&gt;Node21</title>
<path fill="none" stroke="midnightblue" d="M760.84,-221.12C748,-220.78 734.53,-220.42 722.04,-220.08"/>
<polygon fill="midnightblue" stroke="midnightblue" points="760.88,-224.62 770.97,-221.39 761.07,-217.62 760.88,-224.62"/>
</g>
<!-- Node25&#45;&gt;Node5 -->
<g id="edge27" class="edge">
<title>Node25&#45;&gt;Node5</title>
<path fill="none" stroke="midnightblue" d="M901.62,-112.38C827.7,-131.37 707.33,-162.73 604,-191.71 588.29,-196.11 571.12,-201.15 555.97,-205.67"/>
<polygon fill="midnightblue" stroke="midnightblue" points="902.92,-115.66 911.74,-109.79 901.18,-108.88 902.92,-115.66"/>
</g>
<!-- Node26&#45;&gt;Node6 -->
<g id="edge29" class="edge">
<title>Node26&#45;&gt;Node6</title>
<path fill="none" stroke="midnightblue" d="M446.06,-147.1C437.52,-149.78 428.82,-152.51 420.45,-155.14"/>
<polygon fill="midnightblue" stroke="midnightblue" points="447.12,-150.44 455.61,-144.1 445.03,-143.76 447.12,-150.44"/>
</g>
<!-- Node26&#45;&gt;Node8 -->
<g id="edge30" class="edge">
<title>Node26&#45;&gt;Node8</title>
<path fill="none" stroke="midnightblue" d="M445.95,-130.04C359.1,-134.49 206.45,-142.31 122.16,-146.63"/>
<polygon fill="midnightblue" stroke="midnightblue" points="446.14,-133.54 455.94,-129.53 445.78,-126.55 446.14,-133.54"/>
</g>
</g>
</svg>
