<?xml version="1.0" encoding="UTF-8" standalone="no"?>
<!DOCTYPE svg PUBLIC "-//W3C//DTD SVG 1.1//EN"
 "http://www.w3.org/Graphics/SVG/1.1/DTD/svg11.dtd">
<!-- Generated by graphviz version 2.43.0 (0)
 -->
<!-- Title: flow::net_flow::Node::log_accumulated_acks Pages: 1 -->
<svg width="266pt" height="80pt"
 viewBox="0.00 0.00 266.00 80.00" xmlns="http://www.w3.org/2000/svg" xmlns:xlink="http://www.w3.org/1999/xlink">
<g id="graph0" class="graph" transform="scale(1 1) rotate(0) translate(4 76)">
<title>flow::net_flow::Node::log_accumulated_acks</title>
<polygon fill="white" stroke="transparent" points="-4,4 -4,-76 262,-76 262,4 -4,4"/>
<!-- Node1 -->
<g id="node1" class="node">
<title>Node1</title>
<g id="a_node1"><a xlink:title="Helper of handle_accumulated_acks() that logs the about&#45;to&#45;be&#45;handled accumulated individual acknowle...">
<polygon fill="#bfbfbf" stroke="black" points="0,-22.5 0,-48.5 115,-48.5 115,-22.5 0,-22.5"/>
<text text-anchor="start" x="8" y="-38.1" font-family="Helvetica,sans-Serif" font-size="8.00">flow::net_flow::Node</text>
<text text-anchor="middle" x="57.5" y="-29.1" font-family="Helvetica,sans-Serif" font-size="8.00">::log_accumulated_acks</text>
</a>
</g>
</g>
<!-- Node2 -->
<g id="node2" class="node">
<title>Node2</title>
<g id="a_node2"><a xlink:href="classflow_1_1log_1_1Log__context.html#a8a5fef42dc2cedf3c0d1a6e83beb2948" target="_top" xlink:title="Returns reference to the stored Component object, particularly as many FLOW_LOG_*() macros expect.">
<polygon fill="white" stroke="black" points="151,-45.5 151,-71.5 258,-71.5 258,-45.5 151,-45.5"/>
<text text-anchor="start" x="159" y="-61.1" font-family="Helvetica,sans-Serif" font-size="8.00">flow::log::Log_context</text>
<text text-anchor="middle" x="204.5" y="-52.1" font-family="Helvetica,sans-Serif" font-size="8.00">::get_log_component</text>
</a>
</g>
</g>
<!-- Node1&#45;&gt;Node2 -->
<g id="edge1" class="edge">
<title>Node1&#45;&gt;Node2</title>
<path fill="none" stroke="midnightblue" d="M115.39,-44.52C123.63,-45.83 132.14,-47.18 140.49,-48.51"/>
<polygon fill="midnightblue" stroke="midnightblue" points="140.13,-51.99 150.56,-50.1 141.23,-45.08 140.13,-51.99"/>
</g>
<!-- Node3 -->
<g id="node3" class="node">
<title>Node3</title>
<g id="a_node3"><a xlink:href="classflow_1_1log_1_1Log__context.html#af4db395042b065b00398cd59845dcb4d" target="_top" xlink:title="Returns the stored Logger pointer, particularly as many FLOW_LOG_*() macros expect.">
<polygon fill="white" stroke="black" points="151,-0.5 151,-26.5 258,-26.5 258,-0.5 151,-0.5"/>
<text text-anchor="start" x="159" y="-16.1" font-family="Helvetica,sans-Serif" font-size="8.00">flow::log::Log_context</text>
<text text-anchor="middle" x="204.5" y="-7.1" font-family="Helvetica,sans-Serif" font-size="8.00">::get_logger</text>
</a>
</g>
</g>
<!-- Node1&#45;&gt;Node3 -->
<g id="edge2" class="edge">
<title>Node1&#45;&gt;Node3</title>
<path fill="none" stroke="midnightblue" d="M115.39,-26.87C123.63,-25.62 132.14,-24.33 140.49,-23.06"/>
<polygon fill="midnightblue" stroke="midnightblue" points="141.2,-26.49 150.56,-21.53 140.15,-19.57 141.2,-26.49"/>
</g>
</g>
</svg>
