<?xml version="1.0" encoding="UTF-8" standalone="no"?>
<!DOCTYPE svg PUBLIC "-//W3C//DTD SVG 1.1//EN"
 "http://www.w3.org/Graphics/SVG/1.1/DTD/svg11.dtd">
<!-- Generated by graphviz version 2.43.0 (0)
 -->
<!-- Title: flow::async::Segregated_thread_task_loop::start Pages: 1 -->
<svg width="746pt" height="327pt"
 viewBox="0.00 0.00 746.00 326.54" xmlns="http://www.w3.org/2000/svg" xmlns:xlink="http://www.w3.org/1999/xlink">
<g id="graph0" class="graph" transform="scale(1 1) rotate(0) translate(4 322.54)">
<title>flow::async::Segregated_thread_task_loop::start</title>
<polygon fill="white" stroke="transparent" points="-4,4 -4,-322.54 742,-322.54 742,4 -4,4"/>
<!-- Node1 -->
<g id="node1" class="node">
<title>Node1</title>
<g id="a_node1"><a xlink:title="Implements superclass API.">
<polygon fill="#bfbfbf" stroke="black" points="0,-154.5 0,-180.5 117,-180.5 117,-154.5 0,-154.5"/>
<text text-anchor="start" x="8" y="-170.1" font-family="Helvetica,sans-Serif" font-size="8.00">flow::async::Segregated</text>
<text text-anchor="middle" x="58.5" y="-161.1" font-family="Helvetica,sans-Serif" font-size="8.00">_thread_task_loop::start</text>
</a>
</g>
</g>
<!-- Node2 -->
<g id="node2" class="node">
<title>Node2</title>
<g id="a_node2"><a xlink:href="classflow_1_1log_1_1Log__context.html#af4db395042b065b00398cd59845dcb4d" target="_top" xlink:title="Returns the stored Logger pointer, particularly as many FLOW_LOG_*() macros expect.">
<polygon fill="white" stroke="black" points="497,-291.5 497,-317.5 604,-317.5 604,-291.5 497,-291.5"/>
<text text-anchor="start" x="505" y="-307.1" font-family="Helvetica,sans-Serif" font-size="8.00">flow::log::Log_context</text>
<text text-anchor="middle" x="550.5" y="-298.1" font-family="Helvetica,sans-Serif" font-size="8.00">::get_logger</text>
</a>
</g>
</g>
<!-- Node1&#45;&gt;Node2 -->
<g id="edge1" class="edge">
<title>Node1&#45;&gt;Node2</title>
<path fill="none" stroke="midnightblue" d="M68.14,-180.59C82.89,-201.86 115.06,-243.74 153,-265.5 257.97,-325.71 404.65,-321.84 487,-313.35"/>
<polygon fill="midnightblue" stroke="midnightblue" points="487.4,-316.83 496.96,-312.27 486.65,-309.87 487.4,-316.83"/>
</g>
<!-- Node3 -->
<g id="node3" class="node">
<title>Node3</title>
<g id="a_node3"><a xlink:href="classflow_1_1async_1_1Segregated__thread__task__loop.html#a28d7c70f0d3147ba48a10afa84ef98c1" target="_top" xlink:title="Implements superclass API.">
<polygon fill="white" stroke="black" points="153,-129.5 153,-155.5 290,-155.5 290,-129.5 153,-129.5"/>
<text text-anchor="start" x="161" y="-145.1" font-family="Helvetica,sans-Serif" font-size="8.00">flow::async::Segregated</text>
<text text-anchor="middle" x="221.5" y="-136.1" font-family="Helvetica,sans-Serif" font-size="8.00">_thread_task_loop::n_threads</text>
</a>
</g>
</g>
<!-- Node1&#45;&gt;Node3 -->
<g id="edge2" class="edge">
<title>Node1&#45;&gt;Node3</title>
<path fill="none" stroke="midnightblue" d="M117.17,-158.55C125.47,-157.26 134.13,-155.91 142.74,-154.57"/>
<polygon fill="midnightblue" stroke="midnightblue" points="143.46,-158 152.8,-153.01 142.39,-151.09 143.46,-158"/>
</g>
<!-- Node4 -->
<g id="node4" class="node">
<title>Node4</title>
<g id="a_node4"><a xlink:href="namespaceflow_1_1async.html#a3e200db7e5375de21d2568004a85dcad" target="_top" xlink:title="Assuming the same situation as documented for optimal_worker_thread_count_per_pool(),...">
<polygon fill="white" stroke="black" points="164,-66.5 164,-92.5 279,-92.5 279,-66.5 164,-66.5"/>
<text text-anchor="start" x="172" y="-82.1" font-family="Helvetica,sans-Serif" font-size="8.00">flow::async::optimize</text>
<text text-anchor="middle" x="221.5" y="-73.1" font-family="Helvetica,sans-Serif" font-size="8.00">_pinning_in_thread_pool</text>
</a>
</g>
</g>
<!-- Node1&#45;&gt;Node4 -->
<g id="edge3" class="edge">
<title>Node1&#45;&gt;Node4</title>
<path fill="none" stroke="midnightblue" d="M83.6,-154.33C111.19,-139.25 156.53,-114.46 187.41,-97.59"/>
<polygon fill="midnightblue" stroke="midnightblue" points="189.4,-100.49 196.5,-92.62 186.04,-94.35 189.4,-100.49"/>
</g>
<!-- Node7 -->
<g id="node7" class="node">
<title>Node7</title>
<g id="a_node7"><a xlink:href="namespaceflow_1_1util.html#a685b86585da2fa5186f51854e7ae1561" target="_top" xlink:title="Equivalent to ostream_op_to_string() but returns a new string by value instead of writing to the call...">
<polygon fill="white" stroke="black" points="347.5,-22.5 347.5,-48.5 439.5,-48.5 439.5,-22.5 347.5,-22.5"/>
<text text-anchor="start" x="355.5" y="-38.1" font-family="Helvetica,sans-Serif" font-size="8.00">flow::util::ostream</text>
<text text-anchor="middle" x="393.5" y="-29.1" font-family="Helvetica,sans-Serif" font-size="8.00">_op_string</text>
</a>
</g>
</g>
<!-- Node1&#45;&gt;Node7 -->
<g id="edge12" class="edge">
<title>Node1&#45;&gt;Node7</title>
<path fill="none" stroke="midnightblue" d="M66.06,-154.34C78.94,-130.09 110.07,-78.8 153,-56.5 210.52,-26.62 286.39,-25.26 337.18,-28.82"/>
<polygon fill="midnightblue" stroke="midnightblue" points="337.06,-32.32 347.31,-29.62 337.61,-25.34 337.06,-32.32"/>
</g>
<!-- Node11 -->
<g id="node11" class="node">
<title>Node11</title>
<g id="a_node11"><a xlink:href="classflow_1_1async_1_1Segregated__thread__task__loop.html#a9ae5be313170da86f361f8bf987b40b4" target="_top" xlink:title="Implements superclass API.">
<polygon fill="white" stroke="black" points="163,-229.5 163,-255.5 280,-255.5 280,-229.5 163,-229.5"/>
<text text-anchor="start" x="171" y="-245.1" font-family="Helvetica,sans-Serif" font-size="8.00">flow::async::Segregated</text>
<text text-anchor="middle" x="221.5" y="-236.1" font-family="Helvetica,sans-Serif" font-size="8.00">_thread_task_loop::post</text>
</a>
</g>
</g>
<!-- Node1&#45;&gt;Node11 -->
<g id="edge13" class="edge">
<title>Node1&#45;&gt;Node11</title>
<path fill="none" stroke="midnightblue" d="M80.48,-180.6C99.07,-191.86 127.2,-208.04 153,-219.5 158.02,-221.73 163.33,-223.88 168.67,-225.91"/>
<polygon fill="midnightblue" stroke="midnightblue" points="167.69,-229.27 178.28,-229.42 170.09,-222.7 167.69,-229.27"/>
</g>
<!-- Node15 -->
<g id="node15" class="node">
<title>Node15</title>
<g id="a_node15"><a xlink:href="classflow_1_1async_1_1Segregated__thread__task__loop.html#a5723cb843a014e8b77fa401cb93f241a" target="_top" xlink:title="See superclass API.">
<polygon fill="white" stroke="black" points="163,-175 163,-210 280,-210 280,-175 163,-175"/>
<text text-anchor="start" x="171" y="-199.6" font-family="Helvetica,sans-Serif" font-size="8.00">flow::async::Segregated</text>
<text text-anchor="start" x="171" y="-190.6" font-family="Helvetica,sans-Serif" font-size="8.00">_thread_task_loop::task</text>
<text text-anchor="middle" x="221.5" y="-181.6" font-family="Helvetica,sans-Serif" font-size="8.00">_engine</text>
</a>
</g>
</g>
<!-- Node1&#45;&gt;Node15 -->
<g id="edge18" class="edge">
<title>Node1&#45;&gt;Node15</title>
<path fill="none" stroke="midnightblue" d="M117.17,-176.45C128.8,-178.26 141.13,-180.17 153.06,-182.03"/>
<polygon fill="midnightblue" stroke="midnightblue" points="152.54,-185.49 162.96,-183.57 153.62,-178.57 152.54,-185.49"/>
</g>
<!-- Node4&#45;&gt;Node4 -->
<g id="edge6" class="edge">
<title>Node4&#45;&gt;Node4</title>
<path fill="none" stroke="midnightblue" d="M194.09,-92.77C185.79,-101.96 194.92,-111 221.5,-111 238.11,-111 247.91,-107.47 250.89,-102.58"/>
<polygon fill="midnightblue" stroke="midnightblue" points="254.32,-101.88 248.91,-92.77 247.46,-103.27 254.32,-101.88"/>
</g>
<!-- Node5 -->
<g id="node5" class="node">
<title>Node5</title>
<g id="a_node5"><a xlink:href="namespaceflow_1_1error.html#a48afa7f8c2e100acd461365dfb00a114" target="_top" xlink:title="Equivalent of exec_and_throw_on_error() for operations with void return type.">
<polygon fill="white" stroke="black" points="341.5,-67.5 341.5,-93.5 445.5,-93.5 445.5,-67.5 341.5,-67.5"/>
<text text-anchor="start" x="349.5" y="-83.1" font-family="Helvetica,sans-Serif" font-size="8.00">flow::error::exec_void</text>
<text text-anchor="middle" x="393.5" y="-74.1" font-family="Helvetica,sans-Serif" font-size="8.00">_and_throw_on_error</text>
</a>
</g>
</g>
<!-- Node4&#45;&gt;Node5 -->
<g id="edge4" class="edge">
<title>Node4&#45;&gt;Node5</title>
<path fill="none" stroke="midnightblue" d="M279.11,-79.83C295.74,-79.93 314.02,-80.04 330.95,-80.14"/>
<polygon fill="midnightblue" stroke="midnightblue" points="331.27,-83.64 341.29,-80.2 331.31,-76.64 331.27,-83.64"/>
</g>
<!-- Node6 -->
<g id="node6" class="node">
<title>Node6</title>
<g id="a_node6"><a xlink:href="namespaceflow_1_1async.html#adab04f47b40b92fffbe12bc33fadd223" target="_top" xlink:title="Assuming a planned thread pool will be receiving ~symmetrical load, and its UX&#45;affecting (in particul...">
<polygon fill="white" stroke="black" points="340.5,-113 340.5,-148 446.5,-148 446.5,-113 340.5,-113"/>
<text text-anchor="start" x="348.5" y="-137.6" font-family="Helvetica,sans-Serif" font-size="8.00">flow::async::optimal</text>
<text text-anchor="start" x="348.5" y="-128.6" font-family="Helvetica,sans-Serif" font-size="8.00">_worker_thread_count</text>
<text text-anchor="middle" x="393.5" y="-119.6" font-family="Helvetica,sans-Serif" font-size="8.00">_per_pool</text>
</a>
</g>
</g>
<!-- Node4&#45;&gt;Node6 -->
<g id="edge5" class="edge">
<title>Node4&#45;&gt;Node6</title>
<path fill="none" stroke="midnightblue" d="M265.84,-92.5C285.54,-98.41 309.22,-105.52 330.74,-111.97"/>
<polygon fill="midnightblue" stroke="midnightblue" points="329.87,-115.37 340.46,-114.89 331.88,-108.66 329.87,-115.37"/>
</g>
<!-- Node4&#45;&gt;Node7 -->
<g id="edge7" class="edge">
<title>Node4&#45;&gt;Node7</title>
<path fill="none" stroke="midnightblue" d="M273.05,-66.42C293.32,-61.17 316.73,-55.11 337.43,-49.75"/>
<polygon fill="midnightblue" stroke="midnightblue" points="338.55,-53.08 347.35,-47.18 336.8,-46.3 338.55,-53.08"/>
</g>
<!-- Node8 -->
<g id="node8" class="node">
<title>Node8</title>
<g id="a_node8"><a xlink:href="namespaceflow_1_1util.html#a8afd30c50bcd670d45442df49d1da484" target="_top" xlink:title="Writes to the specified string, as if the given arguments were each passed, via &lt;&lt; in sequence,...">
<polygon fill="white" stroke="black" points="504.5,-22.5 504.5,-48.5 596.5,-48.5 596.5,-22.5 504.5,-22.5"/>
<text text-anchor="start" x="512.5" y="-38.1" font-family="Helvetica,sans-Serif" font-size="8.00">flow::util::ostream</text>
<text text-anchor="middle" x="550.5" y="-29.1" font-family="Helvetica,sans-Serif" font-size="8.00">_op_to_string</text>
</a>
</g>
</g>
<!-- Node7&#45;&gt;Node8 -->
<g id="edge8" class="edge">
<title>Node7&#45;&gt;Node8</title>
<path fill="none" stroke="midnightblue" d="M439.75,-35.5C456.86,-35.5 476.52,-35.5 494.44,-35.5"/>
<polygon fill="midnightblue" stroke="midnightblue" points="494.46,-39 504.46,-35.5 494.46,-32 494.46,-39"/>
</g>
<!-- Node9 -->
<g id="node9" class="node">
<title>Node9</title>
<g id="a_node9"><a xlink:href="namespaceflow_1_1util.html#af92e6183c2071f4166d4b5a91f50d70c" target="_top" xlink:title="&quot;Induction step&quot; version of variadic function template that simply outputs arguments 2+ via &lt;&lt; to the...">
<polygon fill="white" stroke="black" points="640,-45.5 640,-71.5 738,-71.5 738,-45.5 640,-45.5"/>
<text text-anchor="start" x="648" y="-61.1" font-family="Helvetica,sans-Serif" font-size="8.00">flow::util::feed_args</text>
<text text-anchor="middle" x="689" y="-52.1" font-family="Helvetica,sans-Serif" font-size="8.00">_to_ostream</text>
</a>
</g>
</g>
<!-- Node8&#45;&gt;Node9 -->
<g id="edge9" class="edge">
<title>Node8&#45;&gt;Node9</title>
<path fill="none" stroke="midnightblue" d="M596.57,-43.09C607.16,-44.88 618.58,-46.8 629.65,-48.67"/>
<polygon fill="midnightblue" stroke="midnightblue" points="629.25,-52.15 639.69,-50.36 630.41,-45.25 629.25,-52.15"/>
</g>
<!-- Node10 -->
<g id="node10" class="node">
<title>Node10</title>
<g id="a_node10"><a xlink:href="classflow_1_1util_1_1String__ostream.html#a7e64b069ae0e221952068c13fdc0f080" target="_top" xlink:title="Access to stream that will write to owned string.">
<polygon fill="white" stroke="black" points="648,-0.5 648,-26.5 730,-26.5 730,-0.5 648,-0.5"/>
<text text-anchor="start" x="656" y="-16.1" font-family="Helvetica,sans-Serif" font-size="8.00">flow::util::String</text>
<text text-anchor="middle" x="689" y="-7.1" font-family="Helvetica,sans-Serif" font-size="8.00">_ostream::os</text>
</a>
</g>
</g>
<!-- Node8&#45;&gt;Node10 -->
<g id="edge11" class="edge">
<title>Node8&#45;&gt;Node10</title>
<path fill="none" stroke="midnightblue" d="M596.57,-28.24C609.69,-26.12 624.11,-23.8 637.54,-21.63"/>
<polygon fill="midnightblue" stroke="midnightblue" points="638.26,-25.06 647.57,-20.02 637.14,-18.15 638.26,-25.06"/>
</g>
<!-- Node9&#45;&gt;Node9 -->
<g id="edge10" class="edge">
<title>Node9&#45;&gt;Node9</title>
<path fill="none" stroke="midnightblue" d="M665.65,-71.77C658.58,-80.96 666.36,-90 689,-90 702.8,-90 711.08,-86.64 713.84,-81.94"/>
<polygon fill="midnightblue" stroke="midnightblue" points="717.26,-81.16 712.35,-71.77 710.33,-82.17 717.26,-81.16"/>
</g>
<!-- Node12 -->
<g id="node12" class="node">
<title>Node12</title>
<g id="a_node12"><a xlink:href="classflow_1_1async_1_1Segregated__thread__task__loop.html#a4c42c76a9d3f2926bb5545065d69783e" target="_top" xlink:title="Implements superclass API.">
<polygon fill="white" stroke="black" points="335,-171 335,-206 452,-206 452,-171 335,-171"/>
<text text-anchor="start" x="343" y="-195.6" font-family="Helvetica,sans-Serif" font-size="8.00">flow::async::Segregated</text>
<text text-anchor="start" x="343" y="-186.6" font-family="Helvetica,sans-Serif" font-size="8.00">_thread_task_loop::per</text>
<text text-anchor="middle" x="393.5" y="-177.6" font-family="Helvetica,sans-Serif" font-size="8.00">_thread_ops</text>
</a>
</g>
</g>
<!-- Node11&#45;&gt;Node12 -->
<g id="edge14" class="edge">
<title>Node11&#45;&gt;Node12</title>
<path fill="none" stroke="midnightblue" d="M263.65,-229.43C282.83,-223.34 306.1,-215.95 327.56,-209.13"/>
<polygon fill="midnightblue" stroke="midnightblue" points="328.8,-212.41 337.27,-206.04 326.68,-205.73 328.8,-212.41"/>
</g>
<!-- Node13 -->
<g id="node13" class="node">
<title>Node13</title>
<g id="a_node13"><a xlink:href="classflow_1_1async_1_1Segregated__thread__task__loop.html#a68b14a36def5972a6b65f70630fe11ef" target="_top" xlink:title="Helper performing the core post(Task_engine&amp;) (or similar) call on behalf of the various post() overl...">
<polygon fill="white" stroke="black" points="326,-270.5 326,-296.5 461,-296.5 461,-270.5 326,-270.5"/>
<text text-anchor="start" x="334" y="-286.1" font-family="Helvetica,sans-Serif" font-size="8.00">flow::async::Segregated</text>
<text text-anchor="middle" x="393.5" y="-277.1" font-family="Helvetica,sans-Serif" font-size="8.00">_thread_task_loop::post_impl</text>
</a>
</g>
</g>
<!-- Node11&#45;&gt;Node13 -->
<g id="edge15" class="edge">
<title>Node11&#45;&gt;Node13</title>
<path fill="none" stroke="midnightblue" d="M276.76,-255.59C293.25,-259.56 311.52,-263.97 328.58,-268.08"/>
<polygon fill="midnightblue" stroke="midnightblue" points="327.93,-271.53 338.47,-270.47 329.57,-264.72 327.93,-271.53"/>
</g>
<!-- Node14 -->
<g id="node14" class="node">
<title>Node14</title>
<g id="a_node14"><a xlink:href="classflow_1_1async_1_1Op__list.html#ad0929efa574298c96c13845a6e020d7d" target="_top" xlink:title="Returns a randomly selected index from range [O, size()).">
<polygon fill="white" stroke="black" points="345.5,-225.5 345.5,-251.5 441.5,-251.5 441.5,-225.5 345.5,-225.5"/>
<text text-anchor="start" x="353.5" y="-241.1" font-family="Helvetica,sans-Serif" font-size="8.00">flow::async::Op_list</text>
<text text-anchor="middle" x="393.5" y="-232.1" font-family="Helvetica,sans-Serif" font-size="8.00">::random_idx</text>
</a>
</g>
</g>
<!-- Node11&#45;&gt;Node14 -->
<g id="edge17" class="edge">
<title>Node11&#45;&gt;Node14</title>
<path fill="none" stroke="midnightblue" d="M280.05,-241.15C297.85,-240.73 317.44,-240.27 335.22,-239.85"/>
<polygon fill="midnightblue" stroke="midnightblue" points="335.53,-243.34 345.45,-239.61 335.37,-236.34 335.53,-243.34"/>
</g>
<!-- Node13&#45;&gt;Node2 -->
<g id="edge16" class="edge">
<title>Node13&#45;&gt;Node2</title>
<path fill="none" stroke="midnightblue" d="M461.13,-292.53C469.65,-293.68 478.35,-294.86 486.8,-296"/>
<polygon fill="midnightblue" stroke="midnightblue" points="486.58,-299.51 496.96,-297.38 487.52,-292.57 486.58,-299.51"/>
</g>
<!-- Node15&#45;&gt;Node12 -->
<g id="edge19" class="edge">
<title>Node15&#45;&gt;Node12</title>
<path fill="none" stroke="midnightblue" d="M280.05,-191.15C294.38,-190.81 309.86,-190.44 324.63,-190.1"/>
<polygon fill="midnightblue" stroke="midnightblue" points="324.8,-193.59 334.72,-189.86 324.64,-186.6 324.8,-193.59"/>
</g>
<!-- Node15&#45;&gt;Node14 -->
<g id="edge20" class="edge">
<title>Node15&#45;&gt;Node14</title>
<path fill="none" stroke="midnightblue" d="M280.05,-208.07C298.02,-212.93 317.81,-218.29 335.72,-223.14"/>
<polygon fill="midnightblue" stroke="midnightblue" points="334.88,-226.53 345.45,-225.77 336.71,-219.78 334.88,-226.53"/>
</g>
</g>
</svg>
