<?xml version="1.0" encoding="UTF-8" standalone="no"?>
<!DOCTYPE svg PUBLIC "-//W3C//DTD SVG 1.1//EN"
 "http://www.w3.org/Graphics/SVG/1.1/DTD/svg11.dtd">
<!-- Generated by graphviz version 2.43.0 (0)
 -->
<!-- Title: flow::net_flow::Port_space::reserve_ephemeral_port Pages: 1 -->
<svg width="302pt" height="44pt"
 viewBox="0.00 0.00 302.00 44.00" xmlns="http://www.w3.org/2000/svg" xmlns:xlink="http://www.w3.org/1999/xlink">
<g id="graph0" class="graph" transform="scale(1 1) rotate(0) translate(4 40)">
<title>flow::net_flow::Port_space::reserve_ephemeral_port</title>
<polygon fill="white" stroke="transparent" points="-4,4 -4,-40 298,-40 298,4 -4,4"/>
<!-- Node1 -->
<g id="node1" class="node">
<title>Node1</title>
<g id="a_node1"><a xlink:title="Reserve a randomly chosen available ephemeral port.">
<polygon fill="#bfbfbf" stroke="black" points="0,-5 0,-31 150,-31 150,-5 0,-5"/>
<text text-anchor="start" x="8" y="-20.6" font-family="Helvetica,sans-Serif" font-size="8.00">flow::net_flow::Port</text>
<text text-anchor="middle" x="75" y="-11.6" font-family="Helvetica,sans-Serif" font-size="8.00">_space::reserve_ephemeral_port</text>
</a>
</g>
</g>
<!-- Node2 -->
<g id="node2" class="node">
<title>Node2</title>
<g id="a_node2"><a xlink:href="classflow_1_1net__flow_1_1Port__space.html#ad5a6a34a24c95364bb8348e5030d955b" target="_top" xlink:title="Helper method that, given a reference to a bit set representing available ports (1 available,...">
<polygon fill="white" stroke="black" points="186,-0.5 186,-35.5 294,-35.5 294,-0.5 186,-0.5"/>
<text text-anchor="start" x="194" y="-25.1" font-family="Helvetica,sans-Serif" font-size="8.00">flow::net_flow::Port</text>
<text text-anchor="start" x="194" y="-16.1" font-family="Helvetica,sans-Serif" font-size="8.00">_space::find_available</text>
<text text-anchor="middle" x="240" y="-7.1" font-family="Helvetica,sans-Serif" font-size="8.00">_port_bit_idx</text>
</a>
</g>
</g>
<!-- Node1&#45;&gt;Node2 -->
<g id="edge1" class="edge">
<title>Node1&#45;&gt;Node2</title>
<path fill="none" stroke="midnightblue" d="M150.35,-18C158.73,-18 167.21,-18 175.44,-18"/>
<polygon fill="midnightblue" stroke="midnightblue" points="175.7,-21.5 185.7,-18 175.7,-14.5 175.7,-21.5"/>
</g>
</g>
</svg>
