<?xml version="1.0" encoding="UTF-8" standalone="no"?>
<!DOCTYPE svg PUBLIC "-//W3C//DTD SVG 1.1//EN"
 "http://www.w3.org/Graphics/SVG/1.1/DTD/svg11.dtd">
<!-- Generated by graphviz version 2.43.0 (0)
 -->
<!-- Title: flow::async::Cross_thread_task_loop::schedule_at Pages: 1 -->
<svg width="777pt" height="221pt"
 viewBox="0.00 0.00 777.00 221.00" xmlns="http://www.w3.org/2000/svg" xmlns:xlink="http://www.w3.org/1999/xlink">
<g id="graph0" class="graph" transform="scale(1 1) rotate(0) translate(4 217)">
<title>flow::async::Cross_thread_task_loop::schedule_at</title>
<polygon fill="white" stroke="transparent" points="-4,4 -4,-217 773,-217 773,4 -4,4"/>
<!-- Node1 -->
<g id="node1" class="node">
<title>Node1</title>
<g id="a_node1"><a xlink:title="Implements superclass API.">
<polygon fill="#bfbfbf" stroke="black" points="0,-105 0,-131 146,-131 146,-105 0,-105"/>
<text text-anchor="start" x="8" y="-120.6" font-family="Helvetica,sans-Serif" font-size="8.00">flow::async::Cross</text>
<text text-anchor="middle" x="73" y="-111.6" font-family="Helvetica,sans-Serif" font-size="8.00">_thread_task_loop::schedule_at</text>
</a>
</g>
</g>
<!-- Node2 -->
<g id="node2" class="node">
<title>Node2</title>
<g id="a_node2"><a xlink:href="classflow_1_1async_1_1Cross__thread__task__loop.html#a1008ae4c48d32ebf835d7a7ba203e5a9" target="_top" xlink:title="Implements superclass API.">
<polygon fill="white" stroke="black" points="182,-100.5 182,-135.5 316,-135.5 316,-100.5 182,-100.5"/>
<text text-anchor="start" x="190" y="-125.1" font-family="Helvetica,sans-Serif" font-size="8.00">flow::async::Cross</text>
<text text-anchor="start" x="190" y="-116.1" font-family="Helvetica,sans-Serif" font-size="8.00">_thread_task_loop::schedule</text>
<text text-anchor="middle" x="249" y="-107.1" font-family="Helvetica,sans-Serif" font-size="8.00">_from_now</text>
</a>
</g>
</g>
<!-- Node1&#45;&gt;Node2 -->
<g id="edge1" class="edge">
<title>Node1&#45;&gt;Node2</title>
<path fill="none" stroke="midnightblue" d="M146.03,-118C154.47,-118 163.11,-118 171.6,-118"/>
<polygon fill="midnightblue" stroke="midnightblue" points="171.88,-121.5 181.88,-118 171.88,-114.5 171.88,-121.5"/>
</g>
<!-- Node3 -->
<g id="node3" class="node">
<title>Node3</title>
<g id="a_node3"><a xlink:href="namespaceflow_1_1async.html#a4cce43f39672e80cba5512103c53ae60" target="_top" xlink:title="Returns the 0&#45;based processor logical (not hardware) core index of the core executing the calling thr...">
<polygon fill="white" stroke="black" points="355.5,-195.5 355.5,-212.5 455.5,-212.5 455.5,-195.5 355.5,-195.5"/>
<text text-anchor="middle" x="405.5" y="-202.1" font-family="Helvetica,sans-Serif" font-size="8.00">flow::async::cpu_idx</text>
</a>
</g>
</g>
<!-- Node2&#45;&gt;Node3 -->
<g id="edge2" class="edge">
<title>Node2&#45;&gt;Node3</title>
<path fill="none" stroke="midnightblue" d="M272.86,-135.75C292.88,-150.66 323.19,-171.76 352,-186 356.36,-188.16 361.04,-190.16 365.75,-191.99"/>
<polygon fill="midnightblue" stroke="midnightblue" points="364.75,-195.35 375.35,-195.49 367.15,-188.78 364.75,-195.35"/>
</g>
<!-- Node4 -->
<g id="node4" class="node">
<title>Node4</title>
<g id="a_node4"><a xlink:href="classflow_1_1log_1_1Log__context.html#a8a5fef42dc2cedf3c0d1a6e83beb2948" target="_top" xlink:title="Returns reference to the stored Component object, particularly as many FLOW_LOG_*() macros expect.">
<polygon fill="white" stroke="black" points="352,-150 352,-176 459,-176 459,-150 352,-150"/>
<text text-anchor="start" x="360" y="-165.6" font-family="Helvetica,sans-Serif" font-size="8.00">flow::log::Log_context</text>
<text text-anchor="middle" x="405.5" y="-156.6" font-family="Helvetica,sans-Serif" font-size="8.00">::get_log_component</text>
</a>
</g>
</g>
<!-- Node2&#45;&gt;Node4 -->
<g id="edge3" class="edge">
<title>Node2&#45;&gt;Node4</title>
<path fill="none" stroke="midnightblue" d="M310.18,-135.53C323.27,-139.34 337.06,-143.36 349.93,-147.11"/>
<polygon fill="midnightblue" stroke="midnightblue" points="348.98,-150.48 359.56,-149.91 350.94,-143.75 348.98,-150.48"/>
</g>
<!-- Node5 -->
<g id="node5" class="node">
<title>Node5</title>
<g id="a_node5"><a xlink:href="classflow_1_1log_1_1Log__context.html#af4db395042b065b00398cd59845dcb4d" target="_top" xlink:title="Returns the stored Logger pointer, particularly as many FLOW_LOG_*() macros expect.">
<polygon fill="white" stroke="black" points="352,-105 352,-131 459,-131 459,-105 352,-105"/>
<text text-anchor="start" x="360" y="-120.6" font-family="Helvetica,sans-Serif" font-size="8.00">flow::log::Log_context</text>
<text text-anchor="middle" x="405.5" y="-111.6" font-family="Helvetica,sans-Serif" font-size="8.00">::get_logger</text>
</a>
</g>
</g>
<!-- Node2&#45;&gt;Node5 -->
<g id="edge4" class="edge">
<title>Node2&#45;&gt;Node5</title>
<path fill="none" stroke="midnightblue" d="M316.42,-118C324.79,-118 333.34,-118 341.65,-118"/>
<polygon fill="midnightblue" stroke="midnightblue" points="341.65,-121.5 351.65,-118 341.65,-114.5 341.65,-121.5"/>
</g>
<!-- Node6 -->
<g id="node6" class="node">
<title>Node6</title>
<g id="a_node6"><a xlink:href="classflow_1_1async_1_1Cross__thread__task__loop.html#a5c9a3da291fa961bb4d8c4be13c39bb8" target="_top" xlink:title="Implements superclass API.">
<polygon fill="white" stroke="black" points="355,-50.5 355,-85.5 456,-85.5 456,-50.5 355,-50.5"/>
<text text-anchor="start" x="363" y="-75.1" font-family="Helvetica,sans-Serif" font-size="8.00">flow::async::Cross</text>
<text text-anchor="start" x="363" y="-66.1" font-family="Helvetica,sans-Serif" font-size="8.00">_thread_task_loop::n</text>
<text text-anchor="middle" x="405.5" y="-57.1" font-family="Helvetica,sans-Serif" font-size="8.00">_threads</text>
</a>
</g>
</g>
<!-- Node2&#45;&gt;Node6 -->
<g id="edge5" class="edge">
<title>Node2&#45;&gt;Node6</title>
<path fill="none" stroke="midnightblue" d="M304.47,-100.37C317.68,-96.1 331.87,-91.5 345.29,-87.16"/>
<polygon fill="midnightblue" stroke="midnightblue" points="346.47,-90.46 354.9,-84.05 344.31,-83.8 346.47,-90.46"/>
</g>
<!-- Node7 -->
<g id="node7" class="node">
<title>Node7</title>
<g id="a_node7"><a xlink:href="namespaceflow_1_1util.html#a74d4a66fb00055be4e1bd6ee98e04667" target="_top" xlink:title="Schedule the given function to execute in a certain amount of time: A handy wrapper around Timer (asi...">
<polygon fill="white" stroke="black" points="358,-5 358,-31 453,-31 453,-5 358,-5"/>
<text text-anchor="start" x="366" y="-20.6" font-family="Helvetica,sans-Serif" font-size="8.00">flow::util::schedule</text>
<text text-anchor="middle" x="405.5" y="-11.6" font-family="Helvetica,sans-Serif" font-size="8.00">_task_from_now</text>
</a>
</g>
</g>
<!-- Node2&#45;&gt;Node7 -->
<g id="edge6" class="edge">
<title>Node2&#45;&gt;Node7</title>
<path fill="none" stroke="midnightblue" d="M270.48,-100.26C290.39,-83.58 321.94,-58.6 352,-41 355.24,-39.1 358.66,-37.27 362.15,-35.51"/>
<polygon fill="midnightblue" stroke="midnightblue" points="363.91,-38.55 371.43,-31.08 360.89,-32.23 363.91,-38.55"/>
</g>
<!-- Node8 -->
<g id="node8" class="node">
<title>Node8</title>
<g id="a_node8"><a xlink:href="classflow_1_1util_1_1Unique__id__holder.html#a50489177a7731618ca130468c3872748" target="_top" xlink:title="Short&#45;hand for Unique_id_holder().unique_id(); useful when all you want is the unique integer itself.">
<polygon fill="white" stroke="black" points="495,-5 495,-31 629,-31 629,-5 495,-5"/>
<text text-anchor="start" x="503" y="-20.6" font-family="Helvetica,sans-Serif" font-size="8.00">flow::util::Unique</text>
<text text-anchor="middle" x="562" y="-11.6" font-family="Helvetica,sans-Serif" font-size="8.00">_id_holder::create_unique_id</text>
</a>
</g>
</g>
<!-- Node7&#45;&gt;Node8 -->
<g id="edge7" class="edge">
<title>Node7&#45;&gt;Node8</title>
<path fill="none" stroke="midnightblue" d="M453.27,-18C463.17,-18 473.86,-18 484.52,-18"/>
<polygon fill="midnightblue" stroke="midnightblue" points="484.72,-21.5 494.72,-18 484.72,-14.5 484.72,-21.5"/>
</g>
<!-- Node9 -->
<g id="node9" class="node">
<title>Node9</title>
<g id="a_node9"><a xlink:href="classflow_1_1util_1_1Unique__id__holder.html#a90705293787069f52372638d5450ef52" target="_top" xlink:title="Thread&#45;safely construct an ID whose value is different from any other object of this class,...">
<polygon fill="white" stroke="black" points="665,-0.5 665,-35.5 769,-35.5 769,-0.5 665,-0.5"/>
<text text-anchor="start" x="673" y="-25.1" font-family="Helvetica,sans-Serif" font-size="8.00">flow::util::Unique</text>
<text text-anchor="start" x="673" y="-16.1" font-family="Helvetica,sans-Serif" font-size="8.00">_id_holder::Unique_id</text>
<text text-anchor="middle" x="717" y="-7.1" font-family="Helvetica,sans-Serif" font-size="8.00">_holder</text>
</a>
</g>
</g>
<!-- Node8&#45;&gt;Node9 -->
<g id="edge8" class="edge">
<title>Node8&#45;&gt;Node9</title>
<path fill="none" stroke="midnightblue" d="M629.22,-18C637.72,-18 646.39,-18 654.8,-18"/>
<polygon fill="midnightblue" stroke="midnightblue" points="654.9,-21.5 664.9,-18 654.9,-14.5 654.9,-21.5"/>
</g>
</g>
</svg>
