<?xml version="1.0" encoding="UTF-8" standalone="no"?>
<!DOCTYPE svg PUBLIC "-//W3C//DTD SVG 1.1//EN"
 "http://www.w3.org/Graphics/SVG/1.1/DTD/svg11.dtd">
<!-- Generated by graphviz version 2.43.0 (0)
 -->
<!-- Title: flow::net_flow::Socket_buffer::consume_buf_move Pages: 1 -->
<svg width="552pt" height="80pt"
 viewBox="0.00 0.00 552.00 80.00" xmlns="http://www.w3.org/2000/svg" xmlns:xlink="http://www.w3.org/1999/xlink">
<g id="graph0" class="graph" transform="scale(1 1) rotate(0) translate(4 76)">
<title>flow::net_flow::Socket_buffer::consume_buf_move</title>
<polygon fill="white" stroke="transparent" points="-4,4 -4,-76 548,-76 548,4 -4,4"/>
<!-- Node1 -->
<g id="node1" class="node">
<title>Node1</title>
<g id="a_node1"><a xlink:title="Consumes (removes from the front of the internal byte buffer and returns them to the caller) a byte s...">
<polygon fill="#bfbfbf" stroke="black" points="0,-22.5 0,-48.5 131,-48.5 131,-22.5 0,-22.5"/>
<text text-anchor="start" x="8" y="-38.1" font-family="Helvetica,sans-Serif" font-size="8.00">flow::net_flow::Socket</text>
<text text-anchor="middle" x="65.5" y="-29.1" font-family="Helvetica,sans-Serif" font-size="8.00">_buffer::consume_buf_move</text>
</a>
</g>
</g>
<!-- Node2 -->
<g id="node2" class="node">
<title>Node2</title>
<g id="a_node2"><a xlink:href="namespaceflow_1_1util.html#a16357344c21456b86b7de3085e2661a2" target="_top" xlink:title="Identical to buffers_to_ostream() but returns an std::string instead of writing to a given ostream.">
<polygon fill="white" stroke="black" points="336,-22.5 336,-48.5 422,-48.5 422,-22.5 336,-22.5"/>
<text text-anchor="start" x="344" y="-38.1" font-family="Helvetica,sans-Serif" font-size="8.00">flow::util::buffers</text>
<text text-anchor="middle" x="379" y="-29.1" font-family="Helvetica,sans-Serif" font-size="8.00">_dump_string</text>
</a>
</g>
</g>
<!-- Node1&#45;&gt;Node2 -->
<g id="edge1" class="edge">
<title>Node1&#45;&gt;Node2</title>
<path fill="none" stroke="midnightblue" d="M131.1,-36.98C143.04,-37.19 155.4,-37.38 167,-37.5 226.11,-38.09 240.89,-38.26 300,-37.5 308.37,-37.39 317.25,-37.22 325.9,-37.02"/>
<polygon fill="midnightblue" stroke="midnightblue" points="325.99,-40.52 335.9,-36.78 325.82,-33.52 325.99,-40.52"/>
</g>
<!-- Node5 -->
<g id="node5" class="node">
<title>Node5</title>
<g id="a_node5"><a xlink:href="classflow_1_1net__flow_1_1Socket__buffer.html#af60133c1d6825246b54f10f26810cd88" target="_top" xlink:title="Consumes (removes from the front of the internal byte buffer and returns them to the caller) a byte s...">
<polygon fill="white" stroke="black" points="167,-1.5 167,-27.5 300,-27.5 300,-1.5 167,-1.5"/>
<text text-anchor="start" x="175" y="-17.1" font-family="Helvetica,sans-Serif" font-size="8.00">flow::net_flow::Socket</text>
<text text-anchor="middle" x="233.5" y="-8.1" font-family="Helvetica,sans-Serif" font-size="8.00">_buffer::consume_bufs_copy</text>
</a>
</g>
</g>
<!-- Node1&#45;&gt;Node5 -->
<g id="edge4" class="edge">
<title>Node1&#45;&gt;Node5</title>
<path fill="none" stroke="midnightblue" d="M131.16,-27.32C139.6,-26.25 148.3,-25.15 156.9,-24.06"/>
<polygon fill="midnightblue" stroke="midnightblue" points="157.45,-27.52 166.93,-22.8 156.57,-20.58 157.45,-27.52"/>
</g>
<!-- Node3 -->
<g id="node3" class="node">
<title>Node3</title>
<g id="a_node3"><a xlink:href="namespaceflow_1_1util.html#aa132928b364caefca5c3821e019924bf" target="_top" xlink:title="Writes a multi&#45; or single&#45;line string representation of the provided binary data to an output stream,...">
<polygon fill="white" stroke="black" points="458,-45.5 458,-71.5 544,-71.5 544,-45.5 458,-45.5"/>
<text text-anchor="start" x="466" y="-61.1" font-family="Helvetica,sans-Serif" font-size="8.00">flow::util::buffers</text>
<text text-anchor="middle" x="501" y="-52.1" font-family="Helvetica,sans-Serif" font-size="8.00">_to_ostream</text>
</a>
</g>
</g>
<!-- Node2&#45;&gt;Node3 -->
<g id="edge2" class="edge">
<title>Node2&#45;&gt;Node3</title>
<path fill="none" stroke="midnightblue" d="M422.31,-43.61C430.55,-45.19 439.29,-46.86 447.81,-48.5"/>
<polygon fill="midnightblue" stroke="midnightblue" points="447.19,-51.94 457.67,-50.39 448.51,-45.07 447.19,-51.94"/>
</g>
<!-- Node4 -->
<g id="node4" class="node">
<title>Node4</title>
<g id="a_node4"><a xlink:href="classflow_1_1util_1_1String__ostream.html#a7e64b069ae0e221952068c13fdc0f080" target="_top" xlink:title="Access to stream that will write to owned string.">
<polygon fill="white" stroke="black" points="460,-0.5 460,-26.5 542,-26.5 542,-0.5 460,-0.5"/>
<text text-anchor="start" x="468" y="-16.1" font-family="Helvetica,sans-Serif" font-size="8.00">flow::util::String</text>
<text text-anchor="middle" x="501" y="-7.1" font-family="Helvetica,sans-Serif" font-size="8.00">_ostream::os</text>
</a>
</g>
</g>
<!-- Node2&#45;&gt;Node4 -->
<g id="edge3" class="edge">
<title>Node2&#45;&gt;Node4</title>
<path fill="none" stroke="midnightblue" d="M422.31,-27.74C431.13,-26.13 440.52,-24.41 449.6,-22.74"/>
<polygon fill="midnightblue" stroke="midnightblue" points="450.48,-26.14 459.68,-20.89 449.22,-19.25 450.48,-26.14"/>
</g>
<!-- Node5&#45;&gt;Node2 -->
<g id="edge5" class="edge">
<title>Node5&#45;&gt;Node2</title>
<path fill="none" stroke="midnightblue" d="M300.37,-24.14C308.96,-25.4 317.66,-26.67 325.98,-27.89"/>
<polygon fill="midnightblue" stroke="midnightblue" points="325.51,-31.36 335.91,-29.34 326.52,-24.43 325.51,-31.36"/>
</g>
</g>
</svg>
