<?xml version="1.0" encoding="UTF-8" standalone="no"?>
<!DOCTYPE svg PUBLIC "-//W3C//DTD SVG 1.1//EN"
 "http://www.w3.org/Graphics/SVG/1.1/DTD/svg11.dtd">
<!-- Generated by graphviz version 2.43.0 (0)
 -->
<!-- Title: flow::net_flow::Node::validate_static_option Pages: 1 -->
<svg width="264pt" height="35pt"
 viewBox="0.00 0.00 264.00 35.00" xmlns="http://www.w3.org/2000/svg" xmlns:xlink="http://www.w3.org/1999/xlink">
<g id="graph0" class="graph" transform="scale(1 1) rotate(0) translate(4 31)">
<title>flow::net_flow::Node::validate_static_option</title>
<polygon fill="white" stroke="transparent" points="-4,4 -4,-31 260,-31 260,4 -4,4"/>
<!-- Node1 -->
<g id="node1" class="node">
<title>Node1</title>
<g id="a_node1"><a xlink:title="Helper that compares new_val to old_val and, if they are not equal, logs and returns an error; used t...">
<polygon fill="#bfbfbf" stroke="black" points="0,-0.5 0,-26.5 112,-26.5 112,-0.5 0,-0.5"/>
<text text-anchor="start" x="8" y="-16.1" font-family="Helvetica,sans-Serif" font-size="8.00">flow::net_flow::Node</text>
<text text-anchor="middle" x="56" y="-7.1" font-family="Helvetica,sans-Serif" font-size="8.00">::validate_static_option</text>
</a>
</g>
</g>
<!-- Node2 -->
<g id="node2" class="node">
<title>Node2</title>
<g id="a_node2"><a xlink:href="structflow_1_1net__flow_1_1Node__options.html#aacfe6175ac39447c107413853e578459" target="_top" xlink:title="Helper that, for a given option m_blah, takes something like &quot;m_blah_blah&quot; and returns the similar mo...">
<polygon fill="white" stroke="black" points="148,-0.5 148,-26.5 256,-26.5 256,-0.5 148,-0.5"/>
<text text-anchor="start" x="156" y="-16.1" font-family="Helvetica,sans-Serif" font-size="8.00">flow::net_flow::Node</text>
<text text-anchor="middle" x="202" y="-7.1" font-family="Helvetica,sans-Serif" font-size="8.00">_options::opt_id_to_str</text>
</a>
</g>
</g>
<!-- Node1&#45;&gt;Node2 -->
<g id="edge1" class="edge">
<title>Node1&#45;&gt;Node2</title>
<path fill="none" stroke="midnightblue" d="M112.26,-13.5C120.49,-13.5 129.04,-13.5 137.42,-13.5"/>
<polygon fill="midnightblue" stroke="midnightblue" points="137.55,-17 147.55,-13.5 137.55,-10 137.55,-17"/>
</g>
</g>
</svg>
