<?xml version="1.0" encoding="UTF-8" standalone="no"?>
<!DOCTYPE svg PUBLIC "-//W3C//DTD SVG 1.1//EN"
 "http://www.w3.org/Graphics/SVG/1.1/DTD/svg11.dtd">
<!-- Generated by graphviz version 2.43.0 (0)
 -->
<!-- Title: flow::net_flow::Event_set::Event_set Pages: 1 -->
<svg width="716pt" height="271pt"
 viewBox="0.00 0.00 716.00 271.00" xmlns="http://www.w3.org/2000/svg" xmlns:xlink="http://www.w3.org/1999/xlink">
<g id="graph0" class="graph" transform="scale(1 1) rotate(0) translate(4 267)">
<title>flow::net_flow::Event_set::Event_set</title>
<polygon fill="white" stroke="transparent" points="-4,4 -4,-267 712,-267 712,4 -4,4"/>
<!-- Node1 -->
<g id="node1" class="node">
<title>Node1</title>
<g id="a_node1"><a xlink:title="Constructs object; initializes all values to well&#45;defined but possibly meaningless values (0,...">
<polygon fill="#bfbfbf" stroke="black" points="606,-113.5 606,-139.5 708,-139.5 708,-113.5 606,-113.5"/>
<text text-anchor="start" x="614" y="-129.1" font-family="Helvetica,sans-Serif" font-size="8.00">flow::net_flow::Event</text>
<text text-anchor="middle" x="657" y="-120.1" font-family="Helvetica,sans-Serif" font-size="8.00">_set::Event_set</text>
</a>
</g>
</g>
<!-- Node2 -->
<g id="node2" class="node">
<title>Node2</title>
<g id="a_node2"><a xlink:href="classflow_1_1net__flow_1_1Node.html#ad100464cf0126dbbad39bde1c90a774f" target="_top" xlink:title="Creates a new Event_set in Event_set::State::S_INACTIVE state with no sockets/events stored; returns ...">
<polygon fill="white" stroke="black" points="469,-113.5 469,-139.5 570,-139.5 570,-113.5 469,-113.5"/>
<text text-anchor="start" x="477" y="-129.1" font-family="Helvetica,sans-Serif" font-size="8.00">flow::net_flow::Node</text>
<text text-anchor="middle" x="519.5" y="-120.1" font-family="Helvetica,sans-Serif" font-size="8.00">::event_set_create</text>
</a>
</g>
</g>
<!-- Node1&#45;&gt;Node2 -->
<g id="edge1" class="edge">
<title>Node1&#45;&gt;Node2</title>
<path fill="none" stroke="midnightblue" d="M595.71,-126.5C587.24,-126.5 578.61,-126.5 570.36,-126.5"/>
<polygon fill="midnightblue" stroke="midnightblue" points="595.93,-130 605.93,-126.5 595.93,-123 595.93,-130"/>
</g>
<!-- Node2&#45;&gt;Node2 -->
<g id="edge4" class="edge">
<title>Node2&#45;&gt;Node2</title>
<path fill="none" stroke="midnightblue" d="M543.98,-149.94C541.26,-154.64 533.1,-158 519.5,-158 497.19,-158 489.52,-148.96 496.49,-139.77"/>
<polygon fill="midnightblue" stroke="midnightblue" points="547.4,-149.17 542.51,-139.77 540.47,-150.17 547.4,-149.17"/>
</g>
<!-- Node3 -->
<g id="node3" class="node">
<title>Node3</title>
<g id="a_node3"><a xlink:href="classflow_1_1net__flow_1_1asio_1_1Node.html#a0cf22e56b3c091645154719eeb49ff4a" target="_top" xlink:title="Implementation of core asynchronous transfer methods, namely asio::Peer_socket::async_send(),...">
<polygon fill="white" stroke="black" points="334.5,-136.5 334.5,-162.5 430.5,-162.5 430.5,-136.5 334.5,-136.5"/>
<text text-anchor="start" x="342.5" y="-152.1" font-family="Helvetica,sans-Serif" font-size="8.00">flow::net_flow::asio</text>
<text text-anchor="middle" x="382.5" y="-143.1" font-family="Helvetica,sans-Serif" font-size="8.00">::Node::async_op</text>
</a>
</g>
</g>
<!-- Node2&#45;&gt;Node3 -->
<g id="edge2" class="edge">
<title>Node2&#45;&gt;Node3</title>
<path fill="none" stroke="midnightblue" d="M458.89,-136.66C449.47,-138.26 439.84,-139.9 430.75,-141.45"/>
<polygon fill="midnightblue" stroke="midnightblue" points="459.73,-140.06 469,-134.93 458.55,-133.16 459.73,-140.06"/>
</g>
<!-- Node4 -->
<g id="node4" class="node">
<title>Node4</title>
<g id="a_node4"><a xlink:href="classflow_1_1net__flow_1_1Node.html#a2a4dc3d8e294bbc8423e111f52e414ae" target="_top" xlink:title="Implementation of core blocking transfer methods, namely Peer_socket::sync_send(),...">
<polygon fill="white" stroke="black" points="332,-91.5 332,-117.5 433,-117.5 433,-91.5 332,-91.5"/>
<text text-anchor="start" x="340" y="-107.1" font-family="Helvetica,sans-Serif" font-size="8.00">flow::net_flow::Node</text>
<text text-anchor="middle" x="382.5" y="-98.1" font-family="Helvetica,sans-Serif" font-size="8.00">::sync_op</text>
</a>
</g>
</g>
<!-- Node2&#45;&gt;Node4 -->
<g id="edge5" class="edge">
<title>Node2&#45;&gt;Node4</title>
<path fill="none" stroke="midnightblue" d="M459.07,-116.82C450.52,-115.42 441.79,-114 433.45,-112.64"/>
<polygon fill="midnightblue" stroke="midnightblue" points="458.56,-120.28 469,-118.43 459.69,-113.37 458.56,-120.28"/>
</g>
<!-- Node3&#45;&gt;Node3 -->
<g id="edge3" class="edge">
<title>Node3&#45;&gt;Node3</title>
<path fill="none" stroke="midnightblue" d="M406.98,-172.94C404.26,-177.64 396.1,-181 382.5,-181 360.19,-181 352.52,-171.96 359.49,-162.77"/>
<polygon fill="midnightblue" stroke="midnightblue" points="410.4,-172.17 405.51,-162.77 403.47,-173.17 410.4,-172.17"/>
</g>
<!-- Node5 -->
<g id="node5" class="node">
<title>Node5</title>
<g id="a_node5"><a xlink:href="classflow_1_1net__flow_1_1Peer__socket.html#a8abde92d5189bf2a058fe8741789f814" target="_top" xlink:title="This is to sync_receive() as node_receive() is to receive().">
<polygon fill="white" stroke="black" points="165,-168.5 165,-194.5 296,-194.5 296,-168.5 165,-168.5"/>
<text text-anchor="start" x="173" y="-184.1" font-family="Helvetica,sans-Serif" font-size="8.00">flow::net_flow::Peer</text>
<text text-anchor="middle" x="230.5" y="-175.1" font-family="Helvetica,sans-Serif" font-size="8.00">_socket::node_sync_receive</text>
</a>
</g>
</g>
<!-- Node4&#45;&gt;Node5 -->
<g id="edge6" class="edge">
<title>Node4&#45;&gt;Node5</title>
<path fill="none" stroke="midnightblue" d="M343.52,-121.87C339.62,-123.74 335.72,-125.64 332,-127.5 305.25,-140.89 275.09,-157.27 254.85,-168.45"/>
<polygon fill="midnightblue" stroke="midnightblue" points="345.02,-125.03 352.57,-117.6 342.04,-118.7 345.02,-125.03"/>
</g>
<!-- Node10 -->
<g id="node8" class="node">
<title>Node10</title>
<g id="a_node8"><a xlink:href="classflow_1_1net__flow_1_1Peer__socket.html#a34e2c7dfb5596269a6f86a716015f1a6" target="_top" xlink:title="This is to sync_send() as node_send() is to send().">
<polygon fill="white" stroke="black" points="170,-91.5 170,-117.5 291,-117.5 291,-91.5 170,-91.5"/>
<text text-anchor="start" x="178" y="-107.1" font-family="Helvetica,sans-Serif" font-size="8.00">flow::net_flow::Peer</text>
<text text-anchor="middle" x="230.5" y="-98.1" font-family="Helvetica,sans-Serif" font-size="8.00">_socket::node_sync_send</text>
</a>
</g>
</g>
<!-- Node4&#45;&gt;Node10 -->
<g id="edge10" class="edge">
<title>Node4&#45;&gt;Node10</title>
<path fill="none" stroke="midnightblue" d="M321.67,-104.5C311.62,-104.5 301.2,-104.5 291.16,-104.5"/>
<polygon fill="midnightblue" stroke="midnightblue" points="321.97,-108 331.97,-104.5 321.97,-101 321.97,-108"/>
</g>
<!-- Node15 -->
<g id="node11" class="node">
<title>Node15</title>
<g id="a_node11"><a xlink:href="classflow_1_1net__flow_1_1Server__socket.html#a7f374375e95e008cfe0326ecfb27cf3b" target="_top" xlink:title="Same as sync_accept() but uses a Fine_clock&#45;based Fine_duration non&#45;template type for implementation ...">
<polygon fill="white" stroke="black" points="168,-14.5 168,-40.5 293,-40.5 293,-14.5 168,-14.5"/>
<text text-anchor="start" x="176" y="-30.1" font-family="Helvetica,sans-Serif" font-size="8.00">flow::net_flow::Server</text>
<text text-anchor="middle" x="230.5" y="-21.1" font-family="Helvetica,sans-Serif" font-size="8.00">_socket::sync_accept_impl</text>
</a>
</g>
</g>
<!-- Node4&#45;&gt;Node15 -->
<g id="edge14" class="edge">
<title>Node4&#45;&gt;Node15</title>
<path fill="none" stroke="midnightblue" d="M346.82,-86.7C319.42,-72.63 281.79,-53.31 257.07,-40.63"/>
<polygon fill="midnightblue" stroke="midnightblue" points="345.56,-89.98 356.05,-91.44 348.76,-83.76 345.56,-89.98"/>
</g>
<!-- Node6 -->
<g id="node6" class="node">
<title>Node6</title>
<g id="a_node6"><a xlink:href="classflow_1_1net__flow_1_1Peer__socket.html#ad29f61b9885b10ddc3846cdae0560518" target="_top" xlink:title="Same as sync_receive() but uses a Fine_clock&#45;based Fine_duration non&#45;template type for implementation...">
<polygon fill="white" stroke="red" points="1,-236.5 1,-262.5 128,-262.5 128,-236.5 1,-236.5"/>
<text text-anchor="start" x="9" y="-252.1" font-family="Helvetica,sans-Serif" font-size="8.00">flow::net_flow::Peer</text>
<text text-anchor="middle" x="64.5" y="-243.1" font-family="Helvetica,sans-Serif" font-size="8.00">_socket::sync_receive_impl</text>
</a>
</g>
</g>
<!-- Node5&#45;&gt;Node6 -->
<g id="edge7" class="edge">
<title>Node5&#45;&gt;Node6</title>
<path fill="none" stroke="midnightblue" d="M192.44,-198.88C173.59,-207.52 150.23,-217.92 129,-226.5 120.63,-229.88 111.55,-233.31 102.94,-236.45"/>
<polygon fill="midnightblue" stroke="midnightblue" points="193.96,-202.03 201.58,-194.67 191.03,-195.67 193.96,-202.03"/>
</g>
<!-- Node8 -->
<g id="node7" class="node">
<title>Node8</title>
<g id="a_node7"><a xlink:href="classflow_1_1net__flow_1_1Peer__socket.html#a1a2eccfa314a397c12259f414ef6798c" target="_top" xlink:title="Helper similar to sync_receive_impl() but for the null_buffers versions of sync_receive().">
<polygon fill="white" stroke="red" points="11.5,-164 11.5,-199 117.5,-199 117.5,-164 11.5,-164"/>
<text text-anchor="start" x="19.5" y="-188.6" font-family="Helvetica,sans-Serif" font-size="8.00">flow::net_flow::Peer</text>
<text text-anchor="start" x="19.5" y="-179.6" font-family="Helvetica,sans-Serif" font-size="8.00">_socket::sync_receive</text>
<text text-anchor="middle" x="64.5" y="-170.6" font-family="Helvetica,sans-Serif" font-size="8.00">_reactor_pattern_impl</text>
</a>
</g>
</g>
<!-- Node5&#45;&gt;Node8 -->
<g id="edge8" class="edge">
<title>Node5&#45;&gt;Node8</title>
<path fill="none" stroke="midnightblue" d="M154.36,-181.5C141.98,-181.5 129.39,-181.5 117.74,-181.5"/>
<polygon fill="midnightblue" stroke="midnightblue" points="154.68,-185 164.68,-181.5 154.68,-178 154.68,-185"/>
</g>
<!-- Node8&#45;&gt;Node8 -->
<g id="edge9" class="edge">
<title>Node8&#45;&gt;Node8</title>
<path fill="none" stroke="midnightblue" d="M93.41,-209.6C89.35,-214.27 79.71,-217.5 64.5,-217.5 39.54,-217.5 29.59,-208.81 34.66,-199.28"/>
<polygon fill="midnightblue" stroke="midnightblue" points="96.93,-209.56 94.34,-199.28 89.96,-208.93 96.93,-209.56"/>
</g>
<!-- Node11 -->
<g id="node9" class="node">
<title>Node11</title>
<g id="a_node9"><a xlink:href="classflow_1_1net__flow_1_1Peer__socket.html#a3f1a802024549a59978a53343b09a86d" target="_top" xlink:title="Same as sync_send() but uses a Fine_clock&#45;based Fine_duration non&#45;template type for implementation co...">
<polygon fill="white" stroke="red" points="6,-118.5 6,-144.5 123,-144.5 123,-118.5 6,-118.5"/>
<text text-anchor="start" x="14" y="-134.1" font-family="Helvetica,sans-Serif" font-size="8.00">flow::net_flow::Peer</text>
<text text-anchor="middle" x="64.5" y="-125.1" font-family="Helvetica,sans-Serif" font-size="8.00">_socket::sync_send_impl</text>
</a>
</g>
</g>
<!-- Node10&#45;&gt;Node11 -->
<g id="edge11" class="edge">
<title>Node10&#45;&gt;Node11</title>
<path fill="none" stroke="midnightblue" d="M159.72,-115.99C147.55,-117.99 135.01,-120.06 123.21,-122"/>
<polygon fill="midnightblue" stroke="midnightblue" points="160.53,-119.4 169.83,-114.32 159.39,-112.5 160.53,-119.4"/>
</g>
<!-- Node13 -->
<g id="node10" class="node">
<title>Node13</title>
<g id="a_node10"><a xlink:href="classflow_1_1net__flow_1_1Peer__socket.html#a15ba1d4af6d4e3fcab9534a307c00595" target="_top" xlink:title="Helper similar to sync_send_impl() but for the null_buffers versions of sync_send().">
<polygon fill="white" stroke="red" points="0,-46 0,-81 129,-81 129,-46 0,-46"/>
<text text-anchor="start" x="8" y="-70.6" font-family="Helvetica,sans-Serif" font-size="8.00">flow::net_flow::Peer</text>
<text text-anchor="start" x="8" y="-61.6" font-family="Helvetica,sans-Serif" font-size="8.00">_socket::sync_send_reactor</text>
<text text-anchor="middle" x="64.5" y="-52.6" font-family="Helvetica,sans-Serif" font-size="8.00">_pattern_impl</text>
</a>
</g>
</g>
<!-- Node10&#45;&gt;Node13 -->
<g id="edge12" class="edge">
<title>Node10&#45;&gt;Node13</title>
<path fill="none" stroke="midnightblue" d="M167.3,-88.95C154.81,-85.83 141.66,-82.54 129.11,-79.4"/>
<polygon fill="midnightblue" stroke="midnightblue" points="166.61,-92.38 177.16,-91.41 168.31,-85.59 166.61,-92.38"/>
</g>
<!-- Node13&#45;&gt;Node13 -->
<g id="edge13" class="edge">
<title>Node13&#45;&gt;Node13</title>
<path fill="none" stroke="midnightblue" d="M93.41,-91.6C89.35,-96.27 79.71,-99.5 64.5,-99.5 39.54,-99.5 29.59,-90.81 34.66,-81.28"/>
<polygon fill="midnightblue" stroke="midnightblue" points="96.93,-91.56 94.34,-81.28 89.96,-90.93 96.93,-91.56"/>
</g>
<!-- Node15&#45;&gt;Node15 -->
<g id="edge16" class="edge">
<title>Node15&#45;&gt;Node15</title>
<path fill="none" stroke="midnightblue" d="M257.86,-50.94C254.82,-55.64 245.7,-59 230.5,-59 205.56,-59 196.99,-49.96 204.78,-40.77"/>
<polygon fill="midnightblue" stroke="midnightblue" points="261.27,-50.09 256.22,-40.77 254.35,-51.2 261.27,-50.09"/>
</g>
<!-- Node16 -->
<g id="node12" class="node">
<title>Node16</title>
<g id="a_node12"><a xlink:href="classflow_1_1net__flow_1_1Server__socket.html#a02ba529163a2d50132eff7aec9d9c9b8" target="_top" xlink:title="Blocking (synchronous) version of accept().">
<polygon fill="white" stroke="black" points="12,-0.5 12,-26.5 117,-26.5 117,-0.5 12,-0.5"/>
<text text-anchor="start" x="20" y="-16.1" font-family="Helvetica,sans-Serif" font-size="8.00">flow::net_flow::Server</text>
<text text-anchor="middle" x="64.5" y="-7.1" font-family="Helvetica,sans-Serif" font-size="8.00">_socket::sync_accept</text>
</a>
</g>
</g>
<!-- Node15&#45;&gt;Node16 -->
<g id="edge15" class="edge">
<title>Node15&#45;&gt;Node16</title>
<path fill="none" stroke="midnightblue" d="M157.65,-21.37C144.03,-20.2 130.03,-19.01 117.19,-17.91"/>
<polygon fill="midnightblue" stroke="midnightblue" points="157.7,-24.88 167.97,-22.25 158.3,-17.91 157.7,-24.88"/>
</g>
</g>
</svg>
