<?xml version="1.0" encoding="UTF-8" standalone="no"?>
<!DOCTYPE svg PUBLIC "-//W3C//DTD SVG 1.1//EN"
 "http://www.w3.org/Graphics/SVG/1.1/DTD/svg11.dtd">
<!-- Generated by graphviz version 2.43.0 (0)
 -->
<!-- Title: flow::error::Runtime_error Pages: 1 -->
<svg width="118pt" height="98pt"
 viewBox="0.00 0.00 118.00 98.00" xmlns="http://www.w3.org/2000/svg" xmlns:xlink="http://www.w3.org/1999/xlink">
<g id="graph0" class="graph" transform="scale(1 1) rotate(0) translate(4 94)">
<title>flow::error::Runtime_error</title>
<polygon fill="white" stroke="transparent" points="-4,4 -4,-94 114,-94 114,4 -4,4"/>
<!-- Node1 -->
<g id="node1" class="node">
<title>Node1</title>
<g id="a_node1"><a xlink:title="An std::runtime_error (which is an std::exception) that stores an Error_code.">
<polygon fill="#bfbfbf" stroke="black" points="6,-0.5 6,-26.5 104,-26.5 104,-0.5 6,-0.5"/>
<text text-anchor="start" x="14" y="-16.1" font-family="Helvetica,sans-Serif" font-size="8.00">flow::error::Runtime</text>
<text text-anchor="middle" x="55" y="-7.1" font-family="Helvetica,sans-Serif" font-size="8.00">_error</text>
</a>
</g>
</g>
<!-- Node2 -->
<g id="node2" class="node">
<title>Node2</title>
<g id="a_node2"><a xlink:href="classboost_1_1system_1_1system__error.html" target="_top" xlink:title=" ">
<polygon fill="white" stroke="#bfbfbf" points="0,-63.5 0,-89.5 110,-89.5 110,-63.5 0,-63.5"/>
<text text-anchor="start" x="8" y="-79.1" font-family="Helvetica,sans-Serif" font-size="8.00">boost::system::system</text>
<text text-anchor="middle" x="55" y="-70.1" font-family="Helvetica,sans-Serif" font-size="8.00">_error</text>
</a>
</g>
</g>
<!-- Node2&#45;&gt;Node1 -->
<g id="edge1" class="edge">
<title>Node2&#45;&gt;Node1</title>
<path fill="none" stroke="midnightblue" d="M55,-53.19C55,-44.18 55,-34.12 55,-26.53"/>
<polygon fill="midnightblue" stroke="midnightblue" points="51.5,-53.45 55,-63.45 58.5,-53.45 51.5,-53.45"/>
</g>
</g>
</svg>
