<?xml version="1.0" encoding="UTF-8" standalone="no"?>
<!DOCTYPE svg PUBLIC "-//W3C//DTD SVG 1.1//EN"
 "http://www.w3.org/Graphics/SVG/1.1/DTD/svg11.dtd">
<!-- Generated by graphviz version 2.43.0 (0)
 -->
<!-- Title: flow::net_flow::Drop_timer::start_timer Pages: 1 -->
<svg width="249pt" height="225pt"
 viewBox="0.00 0.00 249.00 225.00" xmlns="http://www.w3.org/2000/svg" xmlns:xlink="http://www.w3.org/1999/xlink">
<g id="graph0" class="graph" transform="scale(1 1) rotate(0) translate(4 221)">
<title>flow::net_flow::Drop_timer::start_timer</title>
<polygon fill="white" stroke="transparent" points="-4,4 -4,-221 245,-221 245,4 -4,4"/>
<!-- Node1 -->
<g id="node1" class="node">
<title>Node1</title>
<g id="a_node1"><a xlink:title="Starts a new wait on the timer, so that is it asynchronously triggered according to the current DTO v...">
<polygon fill="#bfbfbf" stroke="black" points="0,-95.5 0,-121.5 98,-121.5 98,-95.5 0,-95.5"/>
<text text-anchor="start" x="8" y="-111.1" font-family="Helvetica,sans-Serif" font-size="8.00">flow::net_flow::Drop</text>
<text text-anchor="middle" x="49" y="-102.1" font-family="Helvetica,sans-Serif" font-size="8.00">_timer::start_timer</text>
</a>
</g>
</g>
<!-- Node2 -->
<g id="node2" class="node">
<title>Node2</title>
<g id="a_node2"><a xlink:href="classflow_1_1log_1_1Log__context.html#a8a5fef42dc2cedf3c0d1a6e83beb2948" target="_top" xlink:title="Returns reference to the stored Component object, particularly as many FLOW_LOG_*() macros expect.">
<polygon fill="white" stroke="black" points="134,-190.5 134,-216.5 241,-216.5 241,-190.5 134,-190.5"/>
<text text-anchor="start" x="142" y="-206.1" font-family="Helvetica,sans-Serif" font-size="8.00">flow::log::Log_context</text>
<text text-anchor="middle" x="187.5" y="-197.1" font-family="Helvetica,sans-Serif" font-size="8.00">::get_log_component</text>
</a>
</g>
</g>
<!-- Node1&#45;&gt;Node2 -->
<g id="edge1" class="edge">
<title>Node1&#45;&gt;Node2</title>
<path fill="none" stroke="midnightblue" d="M62.35,-121.53C77.89,-137.35 105.94,-164.06 134,-181.5 136.48,-183.04 139.08,-184.52 141.75,-185.93"/>
<polygon fill="midnightblue" stroke="midnightblue" points="140.47,-189.2 150.99,-190.45 143.54,-182.91 140.47,-189.2"/>
</g>
<!-- Node3 -->
<g id="node3" class="node">
<title>Node3</title>
<g id="a_node3"><a xlink:href="classflow_1_1log_1_1Log__context.html#af4db395042b065b00398cd59845dcb4d" target="_top" xlink:title="Returns the stored Logger pointer, particularly as many FLOW_LOG_*() macros expect.">
<polygon fill="white" stroke="black" points="134,-145.5 134,-171.5 241,-171.5 241,-145.5 134,-145.5"/>
<text text-anchor="start" x="142" y="-161.1" font-family="Helvetica,sans-Serif" font-size="8.00">flow::log::Log_context</text>
<text text-anchor="middle" x="187.5" y="-152.1" font-family="Helvetica,sans-Serif" font-size="8.00">::get_logger</text>
</a>
</g>
</g>
<!-- Node1&#45;&gt;Node3 -->
<g id="edge2" class="edge">
<title>Node1&#45;&gt;Node3</title>
<path fill="none" stroke="midnightblue" d="M85.51,-121.51C102.44,-127.71 122.89,-135.2 140.95,-141.81"/>
<polygon fill="midnightblue" stroke="midnightblue" points="140.1,-145.23 150.7,-145.39 142.51,-138.66 140.1,-145.23"/>
</g>
<!-- Node4 -->
<g id="node4" class="node">
<title>Node4</title>
<g id="a_node4"><a xlink:href="classflow_1_1net__flow_1_1Drop__timer.html#aaf4f0fce1d41e16309beca40a126e2f0" target="_top" xlink:title="Called by boost.asio when the Drop Timer fires; disables timer and calls an outside action callback (...">
<polygon fill="white" stroke="black" points="137,-91 137,-126 238,-126 238,-91 137,-91"/>
<text text-anchor="start" x="145" y="-115.6" font-family="Helvetica,sans-Serif" font-size="8.00">flow::net_flow::Drop</text>
<text text-anchor="start" x="145" y="-106.6" font-family="Helvetica,sans-Serif" font-size="8.00">_timer::handle_timer</text>
<text text-anchor="middle" x="187.5" y="-97.6" font-family="Helvetica,sans-Serif" font-size="8.00">_firing</text>
</a>
</g>
</g>
<!-- Node1&#45;&gt;Node4 -->
<g id="edge3" class="edge">
<title>Node1&#45;&gt;Node4</title>
<path fill="none" stroke="midnightblue" d="M98.12,-108.5C107.37,-108.5 117.15,-108.5 126.71,-108.5"/>
<polygon fill="midnightblue" stroke="midnightblue" points="126.96,-112 136.96,-108.5 126.96,-105 126.96,-112"/>
</g>
<!-- Node5 -->
<g id="node5" class="node">
<title>Node5</title>
<g id="a_node5"><a xlink:href="classflow_1_1log_1_1Logger.html#ac8a2e7a33fe3fbc0c29ead62ed98c022" target="_top" xlink:title="Given attributes of a hypothetical message that would be logged, return true if that message should b...">
<polygon fill="white" stroke="black" points="141.5,-45.5 141.5,-71.5 233.5,-71.5 233.5,-45.5 141.5,-45.5"/>
<text text-anchor="start" x="149.5" y="-61.1" font-family="Helvetica,sans-Serif" font-size="8.00">flow::log::Logger::</text>
<text text-anchor="middle" x="187.5" y="-52.1" font-family="Helvetica,sans-Serif" font-size="8.00">should_log</text>
</a>
</g>
</g>
<!-- Node1&#45;&gt;Node5 -->
<g id="edge4" class="edge">
<title>Node1&#45;&gt;Node5</title>
<path fill="none" stroke="midnightblue" d="M85.51,-95.49C102.44,-89.29 122.89,-81.8 140.95,-75.19"/>
<polygon fill="midnightblue" stroke="midnightblue" points="142.51,-78.34 150.7,-71.61 140.1,-71.77 142.51,-78.34"/>
</g>
<!-- Node6 -->
<g id="node6" class="node">
<title>Node6</title>
<g id="a_node6"><a xlink:href="classflow_1_1net__flow_1_1Drop__timer.html#a40029643f0a6c7a2a6b20499ca4c5a67" target="_top" xlink:title="Called by boost.asio after we post it, in the event of some timer error.">
<polygon fill="white" stroke="black" points="138.5,-0.5 138.5,-26.5 236.5,-26.5 236.5,-0.5 138.5,-0.5"/>
<text text-anchor="start" x="146.5" y="-16.1" font-family="Helvetica,sans-Serif" font-size="8.00">flow::net_flow::Drop</text>
<text text-anchor="middle" x="187.5" y="-7.1" font-family="Helvetica,sans-Serif" font-size="8.00">_timer::timer_failure</text>
</a>
</g>
</g>
<!-- Node1&#45;&gt;Node6 -->
<g id="edge5" class="edge">
<title>Node1&#45;&gt;Node6</title>
<path fill="none" stroke="midnightblue" d="M62.71,-95.46C78.38,-79.92 106.35,-53.87 134,-36.5 137,-34.62 140.18,-32.81 143.43,-31.1"/>
<polygon fill="midnightblue" stroke="midnightblue" points="145.27,-34.1 152.69,-26.54 142.18,-27.82 145.27,-34.1"/>
</g>
</g>
</svg>
