<?xml version="1.0" encoding="UTF-8" standalone="no"?>
<!DOCTYPE svg PUBLIC "-//W3C//DTD SVG 1.1//EN"
 "http://www.w3.org/Graphics/SVG/1.1/DTD/svg11.dtd">
<!-- Generated by graphviz version 2.43.0 (0)
 -->
<!-- Title: flow::net_flow::Node::this_thread_init_logger_setup Pages: 1 -->
<svg width="742pt" height="165pt"
 viewBox="0.00 0.00 742.00 164.50" xmlns="http://www.w3.org/2000/svg" xmlns:xlink="http://www.w3.org/1999/xlink">
<g id="graph0" class="graph" transform="scale(1 1) rotate(0) translate(4 160.5)">
<title>flow::net_flow::Node::this_thread_init_logger_setup</title>
<polygon fill="white" stroke="transparent" points="-4,4 -4,-160.5 738,-160.5 738,4 -4,4"/>
<!-- Node1 -->
<g id="node1" class="node">
<title>Node1</title>
<g id="a_node1"><a xlink:title="Helper to invoke for each thread in which this Node executes, whether or not it starts that thread,...">
<polygon fill="#bfbfbf" stroke="black" points="0,-45.5 0,-71.5 142,-71.5 142,-45.5 0,-45.5"/>
<text text-anchor="start" x="8" y="-61.1" font-family="Helvetica,sans-Serif" font-size="8.00">flow::net_flow::Node</text>
<text text-anchor="middle" x="71" y="-52.1" font-family="Helvetica,sans-Serif" font-size="8.00">::this_thread_init_logger_setup</text>
</a>
</g>
</g>
<!-- Node2 -->
<g id="node2" class="node">
<title>Node2</title>
<g id="a_node2"><a xlink:href="namespaceflow_1_1log.html#aaaaa1dcbf7c8dc99aceb2b6c217187fc" target="_top" xlink:title="Sets certain chrono&#45;related formatting on the given Logger in the current thread that results in a co...">
<polygon fill="white" stroke="black" points="182.5,-91 182.5,-126 280.5,-126 280.5,-91 182.5,-91"/>
<text text-anchor="start" x="190.5" y="-115.6" font-family="Helvetica,sans-Serif" font-size="8.00">flow::log::beautify</text>
<text text-anchor="start" x="190.5" y="-106.6" font-family="Helvetica,sans-Serif" font-size="8.00">_chrono_logger_this</text>
<text text-anchor="middle" x="231.5" y="-97.6" font-family="Helvetica,sans-Serif" font-size="8.00">_thread</text>
</a>
</g>
</g>
<!-- Node1&#45;&gt;Node2 -->
<g id="edge1" class="edge">
<title>Node1&#45;&gt;Node2</title>
<path fill="none" stroke="midnightblue" d="M113.23,-71.51C131.36,-77.22 152.96,-84.04 172.66,-90.25"/>
<polygon fill="midnightblue" stroke="midnightblue" points="171.86,-93.67 182.45,-93.34 173.97,-87 171.86,-93.67"/>
</g>
<!-- Node10 -->
<g id="node10" class="node">
<title>Node10</title>
<g id="a_node10"><a xlink:href="classflow_1_1log_1_1Log__context.html#af4db395042b065b00398cd59845dcb4d" target="_top" xlink:title="Returns the stored Logger pointer, particularly as many FLOW_LOG_*() macros expect.">
<polygon fill="white" stroke="black" points="178,-45.5 178,-71.5 285,-71.5 285,-45.5 178,-45.5"/>
<text text-anchor="start" x="186" y="-61.1" font-family="Helvetica,sans-Serif" font-size="8.00">flow::log::Log_context</text>
<text text-anchor="middle" x="231.5" y="-52.1" font-family="Helvetica,sans-Serif" font-size="8.00">::get_logger</text>
</a>
</g>
</g>
<!-- Node1&#45;&gt;Node10 -->
<g id="edge9" class="edge">
<title>Node1&#45;&gt;Node10</title>
<path fill="none" stroke="midnightblue" d="M142.44,-58.5C150.91,-58.5 159.51,-58.5 167.85,-58.5"/>
<polygon fill="midnightblue" stroke="midnightblue" points="167.87,-62 177.87,-58.5 167.87,-55 167.87,-62"/>
</g>
<!-- Node11 -->
<g id="node11" class="node">
<title>Node11</title>
<g id="a_node11"><a xlink:href="namespaceflow_1_1util.html#aa079e37d8ddc1b8f76b792e377dd80bd" target="_top" xlink:title="Writes to the specified string, as if the given arguments were each passed, via &lt;&lt; in sequence,...">
<polygon fill="white" stroke="black" points="185.5,-0.5 185.5,-26.5 277.5,-26.5 277.5,-0.5 185.5,-0.5"/>
<text text-anchor="start" x="193.5" y="-16.1" font-family="Helvetica,sans-Serif" font-size="8.00">flow::util::ostream</text>
<text text-anchor="middle" x="231.5" y="-7.1" font-family="Helvetica,sans-Serif" font-size="8.00">_op_to_string</text>
</a>
</g>
</g>
<!-- Node1&#45;&gt;Node11 -->
<g id="edge10" class="edge">
<title>Node1&#45;&gt;Node11</title>
<path fill="none" stroke="midnightblue" d="M117.84,-45.48C135.91,-40.36 156.8,-34.42 175.66,-29.07"/>
<polygon fill="midnightblue" stroke="midnightblue" points="176.64,-32.43 185.31,-26.33 174.73,-25.7 176.64,-32.43"/>
</g>
<!-- Node3 -->
<g id="node3" class="node">
<title>Node3</title>
<g id="a_node3"><a xlink:href="namespaceflow_1_1util.html#a0955a29930075ac1fe393896c089b911" target="_top" xlink:title="Sets certain chrono&#45;related formatting on the given ostream that results in a consistent,...">
<polygon fill="white" stroke="black" points="325,-118.5 325,-144.5 417,-144.5 417,-118.5 325,-118.5"/>
<text text-anchor="start" x="333" y="-134.1" font-family="Helvetica,sans-Serif" font-size="8.00">flow::util::beautify</text>
<text text-anchor="middle" x="371" y="-125.1" font-family="Helvetica,sans-Serif" font-size="8.00">_chrono_ostream</text>
</a>
</g>
</g>
<!-- Node2&#45;&gt;Node3 -->
<g id="edge2" class="edge">
<title>Node2&#45;&gt;Node3</title>
<path fill="none" stroke="midnightblue" d="M280.59,-116.54C291.62,-118.39 303.43,-120.36 314.73,-122.26"/>
<polygon fill="midnightblue" stroke="midnightblue" points="314.5,-125.76 324.94,-123.96 315.65,-118.86 314.5,-125.76"/>
</g>
<!-- Node5 -->
<g id="node5" class="node">
<title>Node5</title>
<g id="a_node5"><a xlink:href="classflow_1_1log_1_1Logger.html#ad6ead44c19a7b15111b2f77656a2ea31" target="_top" xlink:title="Returns the stream dedicated to the executing thread and this Logger, so that the caller can apply st...">
<polygon fill="white" stroke="black" points="321,-71.5 321,-97.5 421,-97.5 421,-71.5 321,-71.5"/>
<text text-anchor="start" x="329" y="-87.1" font-family="Helvetica,sans-Serif" font-size="8.00">flow::log::Logger::</text>
<text text-anchor="middle" x="371" y="-78.1" font-family="Helvetica,sans-Serif" font-size="8.00">this_thread_ostream</text>
</a>
</g>
</g>
<!-- Node2&#45;&gt;Node5 -->
<g id="edge4" class="edge">
<title>Node2&#45;&gt;Node5</title>
<path fill="none" stroke="midnightblue" d="M280.59,-100.11C290.35,-98.4 300.72,-96.59 310.81,-94.83"/>
<polygon fill="midnightblue" stroke="midnightblue" points="311.52,-98.26 320.77,-93.09 310.32,-91.36 311.52,-98.26"/>
</g>
<!-- Node4 -->
<g id="node4" class="node">
<title>Node4</title>
<g id="a_node4"><a xlink:href="classflow_1_1util_1_1Duration__units__beautified.html#aa689f853f75e06263d6875ae5824a4c6" target="_top" xlink:title="Returns a reference to a locale that – if imbued onto an ostream – equals std::locale::classic except...">
<polygon fill="white" stroke="black" points="458.5,-121 458.5,-156 592.5,-156 592.5,-121 458.5,-121"/>
<text text-anchor="start" x="466.5" y="-145.6" font-family="Helvetica,sans-Serif" font-size="8.00">flow::util::Duration</text>
<text text-anchor="start" x="466.5" y="-136.6" font-family="Helvetica,sans-Serif" font-size="8.00">_units_beautified::beautified</text>
<text text-anchor="middle" x="525.5" y="-127.6" font-family="Helvetica,sans-Serif" font-size="8.00">_locale</text>
</a>
</g>
</g>
<!-- Node3&#45;&gt;Node4 -->
<g id="edge3" class="edge">
<title>Node3&#45;&gt;Node4</title>
<path fill="none" stroke="midnightblue" d="M417.34,-133.58C427.12,-134.03 437.72,-134.52 448.32,-135"/>
<polygon fill="midnightblue" stroke="midnightblue" points="448.3,-138.51 458.45,-135.47 448.62,-131.51 448.3,-138.51"/>
</g>
<!-- Node6 -->
<g id="node6" class="node">
<title>Node6</title>
<g id="a_node6"><a xlink:href="classflow_1_1log_1_1Thread__local__string__appender.html#a64383811f529af676dde0028f61831f7" target="_top" xlink:title="Same as fresh_appender_ostream() but does not clear the result string, enabling piecemeal writing to ...">
<polygon fill="white" stroke="black" points="459,-67 459,-102 592,-102 592,-67 459,-67"/>
<text text-anchor="start" x="467" y="-91.6" font-family="Helvetica,sans-Serif" font-size="8.00">flow::log::Thread_local</text>
<text text-anchor="start" x="467" y="-82.6" font-family="Helvetica,sans-Serif" font-size="8.00">_string_appender::appender</text>
<text text-anchor="middle" x="525.5" y="-73.6" font-family="Helvetica,sans-Serif" font-size="8.00">_ostream</text>
</a>
</g>
</g>
<!-- Node5&#45;&gt;Node6 -->
<g id="edge5" class="edge">
<title>Node5&#45;&gt;Node6</title>
<path fill="none" stroke="midnightblue" d="M421.09,-84.5C429.92,-84.5 439.3,-84.5 448.67,-84.5"/>
<polygon fill="midnightblue" stroke="midnightblue" points="448.81,-88 458.81,-84.5 448.81,-81 448.81,-88"/>
</g>
<!-- Node8 -->
<g id="node8" class="node">
<title>Node8</title>
<g id="a_node8"><a xlink:href="classflow_1_1log_1_1Thread__local__string__appender.html#a4c67bd1c2f1ccc58288df86abda02d88" target="_top" xlink:title="Returns a pointer to the exactly one Thread_local_string_appender object that is accessible from the ...">
<polygon fill="white" stroke="black" points="457,-13 457,-48 594,-48 594,-13 457,-13"/>
<text text-anchor="start" x="465" y="-37.6" font-family="Helvetica,sans-Serif" font-size="8.00">flow::log::Thread_local</text>
<text text-anchor="start" x="465" y="-28.6" font-family="Helvetica,sans-Serif" font-size="8.00">_string_appender::get</text>
<text text-anchor="middle" x="525.5" y="-19.6" font-family="Helvetica,sans-Serif" font-size="8.00">_this_thread_string_appender</text>
</a>
</g>
</g>
<!-- Node5&#45;&gt;Node8 -->
<g id="edge7" class="edge">
<title>Node5&#45;&gt;Node8</title>
<path fill="none" stroke="midnightblue" d="M408.92,-71.43C425.88,-65.42 446.43,-58.14 465.46,-51.4"/>
<polygon fill="midnightblue" stroke="midnightblue" points="466.7,-54.68 474.96,-48.04 464.36,-48.08 466.7,-54.68"/>
</g>
<!-- Node7 -->
<g id="node7" class="node">
<title>Node7</title>
<g id="a_node7"><a xlink:href="classflow_1_1util_1_1String__ostream.html#a7e64b069ae0e221952068c13fdc0f080" target="_top" xlink:title="Access to stream that will write to owned string.">
<polygon fill="white" stroke="black" points="641,-71.5 641,-97.5 723,-97.5 723,-71.5 641,-71.5"/>
<text text-anchor="start" x="649" y="-87.1" font-family="Helvetica,sans-Serif" font-size="8.00">flow::util::String</text>
<text text-anchor="middle" x="682" y="-78.1" font-family="Helvetica,sans-Serif" font-size="8.00">_ostream::os</text>
</a>
</g>
</g>
<!-- Node6&#45;&gt;Node7 -->
<g id="edge6" class="edge">
<title>Node6&#45;&gt;Node7</title>
<path fill="none" stroke="midnightblue" d="M592.02,-84.5C605,-84.5 618.43,-84.5 630.8,-84.5"/>
<polygon fill="midnightblue" stroke="midnightblue" points="630.91,-88 640.91,-84.5 630.91,-81 630.91,-88"/>
</g>
<!-- Node9 -->
<g id="node9" class="node">
<title>Node9</title>
<g id="a_node9"><a xlink:href="classflow_1_1util_1_1Unique__id__holder.html#a24742b697933e623df30056aebbebfae" target="_top" xlink:title="Raw unique ID identifying this object as well as any object of a derived type.">
<polygon fill="white" stroke="black" points="630,-17.5 630,-43.5 734,-43.5 734,-17.5 630,-17.5"/>
<text text-anchor="start" x="638" y="-33.1" font-family="Helvetica,sans-Serif" font-size="8.00">flow::util::Unique</text>
<text text-anchor="middle" x="682" y="-24.1" font-family="Helvetica,sans-Serif" font-size="8.00">_id_holder::unique_id</text>
</a>
</g>
</g>
<!-- Node8&#45;&gt;Node9 -->
<g id="edge8" class="edge">
<title>Node8&#45;&gt;Node9</title>
<path fill="none" stroke="midnightblue" d="M594.27,-30.5C602.59,-30.5 611.06,-30.5 619.29,-30.5"/>
<polygon fill="midnightblue" stroke="midnightblue" points="619.55,-34 629.55,-30.5 619.55,-27 619.55,-34"/>
</g>
<!-- Node12 -->
<g id="node12" class="node">
<title>Node12</title>
<g id="a_node12"><a xlink:href="namespaceflow_1_1util.html#a1bf7064869bb90466477e426b466f7d2" target="_top" xlink:title="Function template that simply outputs arguments 2+ via &lt;&lt; to the given ostream, in the order given.">
<polygon fill="white" stroke="black" points="322,-0.5 322,-26.5 420,-26.5 420,-0.5 322,-0.5"/>
<text text-anchor="start" x="330" y="-16.1" font-family="Helvetica,sans-Serif" font-size="8.00">flow::util::feed_args</text>
<text text-anchor="middle" x="371" y="-7.1" font-family="Helvetica,sans-Serif" font-size="8.00">_to_ostream</text>
</a>
</g>
</g>
<!-- Node11&#45;&gt;Node12 -->
<g id="edge11" class="edge">
<title>Node11&#45;&gt;Node12</title>
<path fill="none" stroke="midnightblue" d="M277.52,-13.5C288.32,-13.5 300,-13.5 311.31,-13.5"/>
<polygon fill="midnightblue" stroke="midnightblue" points="311.56,-17 321.56,-13.5 311.56,-10 311.56,-17"/>
</g>
</g>
</svg>
