<?xml version="1.0" encoding="UTF-8" standalone="no"?>
<!DOCTYPE svg PUBLIC "-//W3C//DTD SVG 1.1//EN"
 "http://www.w3.org/Graphics/SVG/1.1/DTD/svg11.dtd">
<!-- Generated by graphviz version 2.43.0 (0)
 -->
<!-- Title: flow::log::Log_context Pages: 1 -->
<svg width="850pt" height="231pt"
 viewBox="0.00 0.00 850.00 231.00" xmlns="http://www.w3.org/2000/svg" xmlns:xlink="http://www.w3.org/1999/xlink">
<g id="graph0" class="graph" transform="scale(1 1) rotate(0) translate(4 227)">
<title>flow::log::Log_context</title>
<polygon fill="white" stroke="transparent" points="-4,4 -4,-227 846,-227 846,4 -4,4"/>
<!-- Node1 -->
<g id="node1" class="node">
<title>Node1</title>
<g id="a_node1"><a xlink:title="Convenience class that simply stores a Logger and/or Component passed into a constructor; and returns...">
<polygon fill="#bfbfbf" stroke="black" points="735,-82.5 735,-99.5 842,-99.5 842,-82.5 735,-82.5"/>
<text text-anchor="middle" x="788.5" y="-89.1" font-family="Helvetica,sans-Serif" font-size="8.00">flow::log::Log_context</text>
</a>
</g>
</g>
<!-- Node2 -->
<g id="node2" class="node">
<title>Node2</title>
<g id="a_node2"><a xlink:href="classflow_1_1log_1_1Logger.html" target="_top" xlink:title="Interface that the user should implement, passing the implementing Logger into logging classes (Flow&#39;...">
<polygon fill="white" stroke="black" points="542.5,-123.5 542.5,-140.5 628.5,-140.5 628.5,-123.5 542.5,-123.5"/>
<text text-anchor="middle" x="585.5" y="-130.1" font-family="Helvetica,sans-Serif" font-size="8.00">flow::log::Logger</text>
</a>
</g>
</g>
<!-- Node2&#45;&gt;Node1 -->
<g id="edge1" class="edge">
<title>Node2&#45;&gt;Node1</title>
<path fill="none" stroke="#9a32cd" stroke-dasharray="5,2" d="M638.66,-121.36C672.01,-114.56 714.67,-105.86 745.76,-99.51"/>
<polygon fill="#9a32cd" stroke="#9a32cd" points="637.73,-117.98 628.64,-123.41 639.13,-124.84 637.73,-117.98"/>
<text text-anchor="middle" x="686.5" y="-119.6" font-family="Helvetica,sans-Serif" font-size="8.00"> m_logger</text>
</g>
<!-- Node3 -->
<g id="node3" class="node">
<title>Node3</title>
<g id="a_node3"><a xlink:href="classflow_1_1util_1_1Null__interface.html" target="_top" xlink:title="An empty interface, consisting of nothing but a default virtual destructor, intended as a boiler&#45;plat...">
<polygon fill="white" stroke="black" points="268,-205.5 268,-222.5 382,-222.5 382,-205.5 268,-205.5"/>
<text text-anchor="middle" x="325" y="-212.1" font-family="Helvetica,sans-Serif" font-size="8.00">flow::util::Null_interface</text>
</a>
</g>
</g>
<!-- Node3&#45;&gt;Node2 -->
<g id="edge2" class="edge">
<title>Node3&#45;&gt;Node2</title>
<path fill="none" stroke="midnightblue" d="M384.58,-203.51C422.47,-195.82 472.47,-183.93 515,-168 534.98,-160.52 556.59,-148.67 570.32,-140.63"/>
<polygon fill="midnightblue" stroke="midnightblue" points="383.85,-200.09 374.73,-205.48 385.22,-206.95 383.85,-200.09"/>
</g>
<!-- Node4 -->
<g id="node4" class="node">
<title>Node4</title>
<g id="a_node4"><a xlink:href="classflow_1_1util_1_1Unique__id__holder.html" target="_top" xlink:title="Each object of this class stores (at construction) and returns (on demand) a numeric ID unique from a...">
<polygon fill="white" stroke="black" points="281.5,-160 281.5,-186 368.5,-186 368.5,-160 281.5,-160"/>
<text text-anchor="start" x="289.5" y="-175.6" font-family="Helvetica,sans-Serif" font-size="8.00">flow::util::Unique</text>
<text text-anchor="middle" x="325" y="-166.6" font-family="Helvetica,sans-Serif" font-size="8.00">_id_holder</text>
</a>
</g>
</g>
<!-- Node4&#45;&gt;Node2 -->
<g id="edge3" class="edge">
<title>Node4&#45;&gt;Node2</title>
<path fill="none" stroke="midnightblue" d="M378.83,-166.27C416.8,-161.24 469.17,-153.88 515,-146 524.46,-144.37 534.61,-142.44 544.15,-140.53"/>
<polygon fill="midnightblue" stroke="midnightblue" points="377.98,-162.85 368.52,-167.63 378.89,-169.79 377.98,-162.85"/>
</g>
<!-- Node5 -->
<g id="node5" class="node">
<title>Node5</title>
<g id="a_node5"><a xlink:title=" ">
<polygon fill="white" stroke="#bfbfbf" points="0,-159.5 0,-176.5 50,-176.5 50,-159.5 0,-159.5"/>
<text text-anchor="middle" x="25" y="-166.1" font-family="Helvetica,sans-Serif" font-size="8.00">uint64_t</text>
</a>
</g>
</g>
<!-- Node5&#45;&gt;Node4 -->
<g id="edge4" class="edge">
<title>Node5&#45;&gt;Node4</title>
<path fill="none" stroke="#9a32cd" stroke-dasharray="5,2" d="M60.61,-171.54C63.11,-171.72 65.59,-171.88 68,-172 143.01,-175.82 230.55,-175.03 281.39,-174.06"/>
<polygon fill="#9a32cd" stroke="#9a32cd" points="60.66,-168.03 50.4,-170.69 60.08,-175.01 60.66,-168.03"/>
<text text-anchor="middle" x="147.5" y="-176.6" font-family="Helvetica,sans-Serif" font-size="8.00"> m_id</text>
</g>
<!-- Node6 -->
<g id="node6" class="node">
<title>Node6</title>
<g id="a_node6"><a xlink:title=" ">
<polygon fill="white" stroke="black" points="100,-136.5 100,-153.5 195,-153.5 195,-136.5 100,-136.5"/>
<text text-anchor="middle" x="147.5" y="-143.1" font-family="Helvetica,sans-Serif" font-size="8.00">std::atomic&lt; id_t &gt;</text>
</a>
</g>
</g>
<!-- Node5&#45;&gt;Node6 -->
<g id="edge6" class="edge">
<title>Node5&#45;&gt;Node6</title>
<path fill="none" stroke="#9a32cd" stroke-dasharray="5,2" d="M60.04,-161.5C73.06,-159.02 88.11,-156.14 101.97,-153.5"/>
<polygon fill="#9a32cd" stroke="#9a32cd" points="59.26,-158.09 50.1,-163.4 60.57,-164.96 59.26,-158.09"/>
<text text-anchor="middle" x="75" y="-161.6" font-family="Helvetica,sans-Serif" font-size="8.00"> ptr</text>
</g>
<!-- Node6&#45;&gt;Node4 -->
<g id="edge5" class="edge">
<title>Node6&#45;&gt;Node4</title>
<path fill="none" stroke="#9a32cd" stroke-dasharray="5,2" d="M205.08,-154.03C229.87,-157.98 258.48,-162.55 281.43,-166.21"/>
<polygon fill="#9a32cd" stroke="#9a32cd" points="205.5,-150.55 195.07,-152.43 204.39,-157.46 205.5,-150.55"/>
<text text-anchor="middle" x="231.5" y="-162.6" font-family="Helvetica,sans-Serif" font-size="8.00"> s_last_id</text>
</g>
<!-- Node7 -->
<g id="node7" class="node">
<title>Node7</title>
<g id="a_node7"><a xlink:title=" ">
<polygon fill="white" stroke="#bfbfbf" points="275.5,-123.5 275.5,-140.5 374.5,-140.5 374.5,-123.5 275.5,-123.5"/>
<text text-anchor="middle" x="325" y="-130.1" font-family="Helvetica,sans-Serif" font-size="8.00">boost::noncopyable</text>
</a>
</g>
</g>
<!-- Node7&#45;&gt;Node2 -->
<g id="edge7" class="edge">
<title>Node7&#45;&gt;Node2</title>
<path fill="none" stroke="#8b1a1a" d="M384.85,-132C432.77,-132 499.26,-132 542.09,-132"/>
<polygon fill="#8b1a1a" stroke="#8b1a1a" points="384.62,-128.5 374.62,-132 384.62,-135.5 384.62,-128.5"/>
</g>
<!-- Node8 -->
<g id="node8" class="node">
<title>Node8</title>
<g id="a_node8"><a xlink:title=" ">
<polygon fill="white" stroke="#bfbfbf" points="278,-78 278,-104 372,-104 372,-78 278,-78"/>
<text text-anchor="start" x="286" y="-93.6" font-family="Helvetica,sans-Serif" font-size="8.00">thread_specific_ptr</text>
<text text-anchor="middle" x="325" y="-84.6" font-family="Helvetica,sans-Serif" font-size="8.00">&lt; std::string &gt;</text>
</a>
</g>
</g>
<!-- Node8&#45;&gt;Node2 -->
<g id="edge8" class="edge">
<title>Node8&#45;&gt;Node2</title>
<path fill="none" stroke="#9a32cd" stroke-dasharray="5,2" d="M382.54,-98.81C420.14,-104.14 470.59,-111.56 515,-119 523.84,-120.48 533.29,-122.17 542.28,-123.84"/>
<polygon fill="#9a32cd" stroke="#9a32cd" points="382.68,-95.29 372.29,-97.36 381.7,-102.22 382.68,-95.29"/>
<text text-anchor="middle" x="457.5" y="-121.6" font-family="Helvetica,sans-Serif" font-size="8.00"> s_this_thread_nickname_ptr</text>
</g>
<!-- Node9 -->
<g id="node9" class="node">
<title>Node9</title>
<g id="a_node9"><a xlink:href="classflow_1_1log_1_1Component.html" target="_top" xlink:title="A light&#45;weight class, each object storing a component payload encoding an enum value from enum type o...">
<polygon fill="white" stroke="black" points="533,-41.5 533,-58.5 638,-58.5 638,-41.5 533,-41.5"/>
<text text-anchor="middle" x="585.5" y="-48.1" font-family="Helvetica,sans-Serif" font-size="8.00">flow::log::Component</text>
</a>
</g>
</g>
<!-- Node9&#45;&gt;Node1 -->
<g id="edge9" class="edge">
<title>Node9&#45;&gt;Node1</title>
<path fill="none" stroke="#9a32cd" stroke-dasharray="5,2" d="M638.66,-60.64C672.01,-67.44 714.67,-76.14 745.76,-82.49"/>
<polygon fill="#9a32cd" stroke="#9a32cd" points="639.13,-57.16 628.64,-58.59 637.73,-64.02 639.13,-57.16"/>
<text text-anchor="middle" x="686.5" y="-78.6" font-family="Helvetica,sans-Serif" font-size="8.00"> m_component</text>
</g>
<!-- Node10 -->
<g id="node10" class="node">
<title>Node10</title>
<g id="a_node10"><a xlink:title=" ">
<polygon fill="white" stroke="#bfbfbf" points="282.5,-41.5 282.5,-58.5 367.5,-58.5 367.5,-41.5 282.5,-41.5"/>
<text text-anchor="middle" x="325" y="-48.1" font-family="Helvetica,sans-Serif" font-size="8.00">type_info const *</text>
</a>
</g>
</g>
<!-- Node10&#45;&gt;Node9 -->
<g id="edge10" class="edge">
<title>Node10&#45;&gt;Node9</title>
<path fill="none" stroke="#9a32cd" stroke-dasharray="5,2" d="M377.68,-50C422.74,-50 487.76,-50 532.82,-50"/>
<polygon fill="#9a32cd" stroke="#9a32cd" points="377.53,-46.5 367.53,-50 377.53,-53.5 377.53,-46.5"/>
<text text-anchor="middle" x="457.5" y="-52.6" font-family="Helvetica,sans-Serif" font-size="8.00"> m_payload_type_or_null</text>
</g>
<!-- Node11 -->
<g id="node11" class="node">
<title>Node11</title>
<g id="a_node11"><a xlink:title=" ">
<polygon fill="white" stroke="#bfbfbf" points="291,-0.5 291,-17.5 359,-17.5 359,-0.5 291,-0.5"/>
<text text-anchor="middle" x="325" y="-7.1" font-family="Helvetica,sans-Serif" font-size="8.00">unsigned int</text>
</a>
</g>
</g>
<!-- Node11&#45;&gt;Node9 -->
<g id="edge11" class="edge">
<title>Node11&#45;&gt;Node9</title>
<path fill="none" stroke="#9a32cd" stroke-dasharray="5,2" d="M369.43,-10.82C407.99,-13.03 465.7,-17.83 515,-28 530.87,-31.27 548.24,-36.77 561.65,-41.45"/>
<polygon fill="#9a32cd" stroke="#9a32cd" points="369.26,-7.3 359.09,-10.26 368.89,-14.29 369.26,-7.3"/>
<text text-anchor="start" x="411" y="-39.6" font-family="Helvetica,sans-Serif" font-size="8.00"> m_payload_enum_raw</text>
<text text-anchor="middle" x="457.5" y="-30.6" font-family="Helvetica,sans-Serif" font-size="8.00">_value</text>
</g>
</g>
</svg>
