<?xml version="1.0" encoding="UTF-8" standalone="no"?>
<!DOCTYPE svg PUBLIC "-//W3C//DTD SVG 1.1//EN"
 "http://www.w3.org/Graphics/SVG/1.1/DTD/svg11.dtd">
<!-- Generated by graphviz version 2.43.0 (0)
 -->
<!-- Title: flow::net_flow::Node::sock_free_memory Pages: 1 -->
<svg width="1343pt" height="188pt"
 viewBox="0.00 0.00 1343.00 188.16" xmlns="http://www.w3.org/2000/svg" xmlns:xlink="http://www.w3.org/1999/xlink">
<g id="graph0" class="graph" transform="scale(1 1) rotate(0) translate(4 184.16)">
<title>flow::net_flow::Node::sock_free_memory</title>
<polygon fill="white" stroke="transparent" points="-4,4 -4,-184.16 1339,-184.16 1339,4 -4,4"/>
<!-- Node1 -->
<g id="node1" class="node">
<title>Node1</title>
<g id="a_node1"><a xlink:title="Helper that clears all non&#45;O(1)&#45;space data structures stored inside sock.">
<polygon fill="#bfbfbf" stroke="black" points="1234,-98.5 1234,-124.5 1335,-124.5 1335,-98.5 1234,-98.5"/>
<text text-anchor="start" x="1242" y="-114.1" font-family="Helvetica,sans-Serif" font-size="8.00">flow::net_flow::Node</text>
<text text-anchor="middle" x="1284.5" y="-105.1" font-family="Helvetica,sans-Serif" font-size="8.00">::sock_free_memory</text>
</a>
</g>
</g>
<!-- Node2 -->
<g id="node2" class="node">
<title>Node2</title>
<g id="a_node2"><a xlink:href="classflow_1_1net__flow_1_1Node.html#ade529b5452c9fe363ae468346e662ceb" target="_top" xlink:title="While in S_OPEN+S_DISCONNECTING state (i.e., after beginning a graceful close with sock_disconnect_de...">
<polygon fill="white" stroke="black" points="1061,-121.5 1061,-147.5 1198,-147.5 1198,-121.5 1061,-121.5"/>
<text text-anchor="start" x="1069" y="-137.1" font-family="Helvetica,sans-Serif" font-size="8.00">flow::net_flow::Node</text>
<text text-anchor="middle" x="1129.5" y="-128.1" font-family="Helvetica,sans-Serif" font-size="8.00">::sock_disconnect_completed</text>
</a>
</g>
</g>
<!-- Node1&#45;&gt;Node2 -->
<g id="edge1" class="edge">
<title>Node1&#45;&gt;Node2</title>
<path fill="none" stroke="midnightblue" d="M1223.71,-120.49C1215.28,-121.75 1206.57,-123.06 1198.01,-124.35"/>
<polygon fill="midnightblue" stroke="midnightblue" points="1224.46,-123.92 1233.83,-118.97 1223.42,-116.99 1224.46,-123.92"/>
</g>
<!-- Node24 -->
<g id="node14" class="node">
<title>Node24</title>
<g id="a_node14"><a xlink:href="classflow_1_1net__flow_1_1Node.html#ada9357f6ce9d5fc249b1cc176afdc471" target="_top" xlink:title="Records that thread W shows underlying connection is broken (graceful termination,...">
<polygon fill="white" stroke="black" points="1064,-76.5 1064,-102.5 1195,-102.5 1195,-76.5 1064,-76.5"/>
<text text-anchor="start" x="1072" y="-92.1" font-family="Helvetica,sans-Serif" font-size="8.00">flow::net_flow::Node</text>
<text text-anchor="middle" x="1129.5" y="-83.1" font-family="Helvetica,sans-Serif" font-size="8.00">::sock_disconnect_detected</text>
</a>
</g>
</g>
<!-- Node1&#45;&gt;Node24 -->
<g id="edge17" class="edge">
<title>Node1&#45;&gt;Node24</title>
<path fill="none" stroke="midnightblue" d="M1223.83,-102.92C1214.46,-101.57 1204.73,-100.17 1195.25,-98.81"/>
<polygon fill="midnightblue" stroke="midnightblue" points="1223.43,-106.4 1233.83,-104.36 1224.43,-99.47 1223.43,-106.4"/>
</g>
<!-- Node3 -->
<g id="node3" class="node">
<title>Node3</title>
<g id="a_node3"><a xlink:href="classflow_1_1net__flow_1_1Node.html#ade49e7bc7202a0adf33fec2d93d1b177" target="_top" xlink:title="A thread W method that handles the transition of the given socket from OPEN (any sub&#45;state) to CLOSED...">
<polygon fill="white" stroke="black" points="877,-98.5 877,-124.5 1025,-124.5 1025,-98.5 877,-98.5"/>
<text text-anchor="start" x="885" y="-114.1" font-family="Helvetica,sans-Serif" font-size="8.00">flow::net_flow::Node</text>
<text text-anchor="middle" x="951" y="-105.1" font-family="Helvetica,sans-Serif" font-size="8.00">::close_connection_immediately</text>
</a>
</g>
</g>
<!-- Node2&#45;&gt;Node3 -->
<g id="edge2" class="edge">
<title>Node2&#45;&gt;Node3</title>
<path fill="none" stroke="midnightblue" d="M1050.82,-124.38C1042.28,-123.26 1033.61,-122.13 1025.13,-121.03"/>
<polygon fill="midnightblue" stroke="midnightblue" points="1050.4,-127.85 1060.77,-125.67 1051.3,-120.91 1050.4,-127.85"/>
</g>
<!-- Node4 -->
<g id="node4" class="node">
<title>Node4</title>
<g id="a_node4"><a xlink:href="classflow_1_1net__flow_1_1Node.html#a1699dfdaf3e5ebe1b1d715a9c306d116" target="_top" xlink:title="Handles a just&#45;received, not&#45;yet&#45;deserialized low&#45;level packet.">
<polygon fill="white" stroke="black" points="298,-106.5 298,-132.5 399,-132.5 399,-106.5 298,-106.5"/>
<text text-anchor="start" x="306" y="-122.1" font-family="Helvetica,sans-Serif" font-size="8.00">flow::net_flow::Node</text>
<text text-anchor="middle" x="348.5" y="-113.1" font-family="Helvetica,sans-Serif" font-size="8.00">::handle_incoming</text>
</a>
</g>
</g>
<!-- Node3&#45;&gt;Node4 -->
<g id="edge3" class="edge">
<title>Node3&#45;&gt;Node4</title>
<path fill="none" stroke="midnightblue" d="M922.06,-129.85C900.81,-142.66 870.33,-158.63 841,-165.5 678.28,-203.6 478.28,-156.97 392.2,-132.58"/>
<polygon fill="midnightblue" stroke="midnightblue" points="923.9,-132.83 930.57,-124.59 920.22,-126.87 923.9,-132.83"/>
</g>
<!-- Node10 -->
<g id="node7" class="node">
<title>Node10</title>
<g id="a_node7"><a xlink:href="classflow_1_1net__flow_1_1Node.html#ad608f9bbe76426f4fbf4bf5af908e4e0" target="_top" xlink:title="Placed by receive() onto W during a graceful close, after the Receive buffer had been emptied by the ...">
<polygon fill="white" stroke="black" points="716.5,-121 716.5,-156 837.5,-156 837.5,-121 716.5,-121"/>
<text text-anchor="start" x="724.5" y="-145.6" font-family="Helvetica,sans-Serif" font-size="8.00">flow::net_flow::Node</text>
<text text-anchor="start" x="724.5" y="-136.6" font-family="Helvetica,sans-Serif" font-size="8.00">::receive_emptied_rcv</text>
<text text-anchor="middle" x="777" y="-127.6" font-family="Helvetica,sans-Serif" font-size="8.00">_buf_while_disconnecting</text>
</a>
</g>
</g>
<!-- Node3&#45;&gt;Node10 -->
<g id="edge8" class="edge">
<title>Node3&#45;&gt;Node10</title>
<path fill="none" stroke="midnightblue" d="M866.47,-124.61C856.76,-126.14 847.01,-127.67 837.71,-129.13"/>
<polygon fill="midnightblue" stroke="midnightblue" points="867.22,-128.04 876.56,-123.03 866.14,-121.12 867.22,-128.04"/>
</g>
<!-- Node19 -->
<g id="node9" class="node">
<title>Node19</title>
<g id="a_node9"><a xlink:href="classflow_1_1net__flow_1_1Node.html#afe70a0c32695e417e7a09e0ba773f151" target="_top" xlink:title="Asynchronously send RST to the other side of the given socket and close_connection_immediately().">
<polygon fill="white" stroke="black" points="713,-67 713,-102 841,-102 841,-67 713,-67"/>
<text text-anchor="start" x="721" y="-91.6" font-family="Helvetica,sans-Serif" font-size="8.00">flow::net_flow::Node</text>
<text text-anchor="start" x="721" y="-82.6" font-family="Helvetica,sans-Serif" font-size="8.00">::rst_and_close_connection</text>
<text text-anchor="middle" x="777" y="-73.6" font-family="Helvetica,sans-Serif" font-size="8.00">_immediately</text>
</a>
</g>
</g>
<!-- Node3&#45;&gt;Node19 -->
<g id="edge10" class="edge">
<title>Node3&#45;&gt;Node19</title>
<path fill="none" stroke="midnightblue" d="M866.56,-98.4C858.02,-97.06 849.44,-95.71 841.17,-94.42"/>
<polygon fill="midnightblue" stroke="midnightblue" points="866.14,-101.88 876.56,-99.97 867.22,-94.96 866.14,-101.88"/>
</g>
<!-- Node9 -->
<g id="node13" class="node">
<title>Node9</title>
<g id="a_node13"><a xlink:href="classflow_1_1net__flow_1_1Node.html#a5b056ed753b832458f44f537acfe86d7" target="_top" xlink:title="Worker thread W (main event loop) body.">
<polygon fill="white" stroke="black" points="726.5,-21.5 726.5,-47.5 827.5,-47.5 827.5,-21.5 726.5,-21.5"/>
<text text-anchor="start" x="734.5" y="-37.1" font-family="Helvetica,sans-Serif" font-size="8.00">flow::net_flow::Node</text>
<text text-anchor="middle" x="777" y="-28.1" font-family="Helvetica,sans-Serif" font-size="8.00">::worker_run</text>
</a>
</g>
</g>
<!-- Node3&#45;&gt;Node9 -->
<g id="edge16" class="edge">
<title>Node3&#45;&gt;Node9</title>
<path fill="none" stroke="midnightblue" d="M916.7,-93.81C895.35,-82.77 866.87,-68.59 841,-57.5 832.97,-54.06 824.24,-50.66 815.91,-47.57"/>
<polygon fill="midnightblue" stroke="midnightblue" points="915.2,-96.98 925.69,-98.49 918.43,-90.77 915.2,-96.98"/>
</g>
<!-- Node5 -->
<g id="node5" class="node">
<title>Node5</title>
<g id="a_node5"><a xlink:href="classflow_1_1net__flow_1_1Node.html#a4368247d07e930bdd07ab8d2425c6de8" target="_top" xlink:title="Sets up handle_incoming(packet_data, low_lvl_remote_endpoint) to be called asynchronously after a spe...">
<polygon fill="white" stroke="black" points="149,-125 149,-160 262,-160 262,-125 149,-125"/>
<text text-anchor="start" x="157" y="-149.6" font-family="Helvetica,sans-Serif" font-size="8.00">flow::net_flow::Node</text>
<text text-anchor="start" x="157" y="-140.6" font-family="Helvetica,sans-Serif" font-size="8.00">::async_wait_latency</text>
<text text-anchor="middle" x="205.5" y="-131.6" font-family="Helvetica,sans-Serif" font-size="8.00">_then_handle_incoming</text>
</a>
</g>
</g>
<!-- Node4&#45;&gt;Node5 -->
<g id="edge4" class="edge">
<title>Node4&#45;&gt;Node5</title>
<path fill="none" stroke="midnightblue" d="M287.86,-129.23C279.29,-130.63 270.49,-132.06 262.01,-133.45"/>
<polygon fill="midnightblue" stroke="midnightblue" points="288.48,-132.67 297.79,-127.61 287.36,-125.76 288.48,-132.67"/>
</g>
<!-- Node6 -->
<g id="node6" class="node">
<title>Node6</title>
<g id="a_node6"><a xlink:href="classflow_1_1net__flow_1_1Node.html#a90ecbad1ff3a8d2fe4b3ad1c474f7513" target="_top" xlink:title="Helper for low_lvl_recv_and_handle() that calls handle_incoming() on the not&#45;yet&#45;deserialized low&#45;lev...">
<polygon fill="white" stroke="red" points="0,-102 0,-137 113,-137 113,-102 0,-102"/>
<text text-anchor="start" x="8" y="-126.6" font-family="Helvetica,sans-Serif" font-size="8.00">flow::net_flow::Node</text>
<text text-anchor="start" x="8" y="-117.6" font-family="Helvetica,sans-Serif" font-size="8.00">::handle_incoming_with</text>
<text text-anchor="middle" x="56.5" y="-108.6" font-family="Helvetica,sans-Serif" font-size="8.00">_simulation</text>
</a>
</g>
</g>
<!-- Node4&#45;&gt;Node6 -->
<g id="edge7" class="edge">
<title>Node4&#45;&gt;Node6</title>
<path fill="none" stroke="midnightblue" d="M287.75,-116.35C279.11,-116 270.33,-115.69 262,-115.5 211.79,-114.33 199.21,-114.4 149,-115.5 137.4,-115.75 124.97,-116.19 113.13,-116.68"/>
<polygon fill="midnightblue" stroke="midnightblue" points="287.64,-119.85 297.78,-116.78 287.94,-112.85 287.64,-119.85"/>
</g>
<!-- Node5&#45;&gt;Node6 -->
<g id="edge5" class="edge">
<title>Node5&#45;&gt;Node6</title>
<path fill="none" stroke="midnightblue" d="M138.92,-132.24C130.32,-130.89 121.57,-129.52 113.15,-128.21"/>
<polygon fill="midnightblue" stroke="midnightblue" points="138.5,-135.72 148.93,-133.8 139.59,-128.8 138.5,-135.72"/>
</g>
<!-- Node6&#45;&gt;Node6 -->
<g id="edge6" class="edge">
<title>Node6&#45;&gt;Node6</title>
<path fill="none" stroke="midnightblue" d="M82.27,-147.6C78.65,-152.27 70.06,-155.5 56.5,-155.5 34.24,-155.5 25.37,-146.81 29.89,-137.28"/>
<polygon fill="midnightblue" stroke="midnightblue" points="85.79,-147.53 83.11,-137.28 78.81,-146.97 85.79,-147.53"/>
</g>
<!-- Node11 -->
<g id="node8" class="node">
<title>Node11</title>
<g id="a_node8"><a xlink:href="classflow_1_1net__flow_1_1Node.html#addbb96858fd7b3c9ddd7c6fe8078809c" target="_top" xlink:title="Implementation of non&#45;blocking sock&#45;&gt;receive() for socket sock in all cases except when sock&#45;&gt;state()...">
<polygon fill="white" stroke="red" points="576,-129.5 576,-155.5 677,-155.5 677,-129.5 576,-129.5"/>
<text text-anchor="start" x="584" y="-145.1" font-family="Helvetica,sans-Serif" font-size="8.00">flow::net_flow::Node</text>
<text text-anchor="middle" x="626.5" y="-136.1" font-family="Helvetica,sans-Serif" font-size="8.00">::receive</text>
</a>
</g>
</g>
<!-- Node10&#45;&gt;Node11 -->
<g id="edge9" class="edge">
<title>Node10&#45;&gt;Node11</title>
<path fill="none" stroke="midnightblue" d="M706.25,-140.38C696.39,-140.64 686.42,-140.91 677.05,-141.17"/>
<polygon fill="midnightblue" stroke="midnightblue" points="706.55,-143.87 716.46,-140.1 706.36,-136.87 706.55,-143.87"/>
</g>
<!-- Node20 -->
<g id="node10" class="node">
<title>Node20</title>
<g id="a_node10"><a xlink:href="classflow_1_1net__flow_1_1Node.html#a6461124e5bc3e59083e172e26029e632" target="_top" xlink:title="Implementation of non&#45;blocking sock&#45;&gt;close_abruptly() for socket sock in all cases except when sock&#45;&gt;...">
<polygon fill="white" stroke="red" points="576,-84.5 576,-110.5 677,-110.5 677,-84.5 576,-84.5"/>
<text text-anchor="start" x="584" y="-100.1" font-family="Helvetica,sans-Serif" font-size="8.00">flow::net_flow::Node</text>
<text text-anchor="middle" x="626.5" y="-91.1" font-family="Helvetica,sans-Serif" font-size="8.00">::close_abruptly</text>
</a>
</g>
</g>
<!-- Node19&#45;&gt;Node20 -->
<g id="edge11" class="edge">
<title>Node19&#45;&gt;Node20</title>
<path fill="none" stroke="midnightblue" d="M702.55,-90.93C693.97,-91.68 685.38,-92.43 677.23,-93.15"/>
<polygon fill="midnightblue" stroke="midnightblue" points="702.94,-94.41 712.59,-90.05 702.32,-87.44 702.94,-94.41"/>
</g>
<!-- Node22 -->
<g id="node11" class="node">
<title>Node22</title>
<g id="a_node11"><a xlink:href="classflow_1_1net__flow_1_1Node.html#a29d02f9e302c7b06288ff1c644fa8d65" target="_top" xlink:title="Handles a just&#45;deserialized, just&#45;demultiplexed low&#45;level SYN_ACK_ACK packet delivered to the given p...">
<polygon fill="white" stroke="black" points="435,-38 435,-73 540,-73 540,-38 435,-38"/>
<text text-anchor="start" x="443" y="-62.6" font-family="Helvetica,sans-Serif" font-size="8.00">flow::net_flow::Node</text>
<text text-anchor="start" x="443" y="-53.6" font-family="Helvetica,sans-Serif" font-size="8.00">::handle_syn_ack_ack</text>
<text text-anchor="middle" x="487.5" y="-44.6" font-family="Helvetica,sans-Serif" font-size="8.00">_to_syn_rcvd</text>
</a>
</g>
</g>
<!-- Node19&#45;&gt;Node22 -->
<g id="edge12" class="edge">
<title>Node19&#45;&gt;Node22</title>
<path fill="none" stroke="midnightblue" d="M702.75,-77.1C694.07,-76.22 685.34,-75.34 677,-74.5 630.69,-69.83 577.99,-64.52 540.1,-60.7"/>
<polygon fill="midnightblue" stroke="midnightblue" points="702.59,-80.6 712.89,-78.12 703.29,-73.64 702.59,-80.6"/>
</g>
<!-- Node23 -->
<g id="node12" class="node">
<title>Node23</title>
<g id="a_node12"><a xlink:href="classflow_1_1net__flow_1_1Node.html#ab427ebc124a6233ae48a7562662a6e81" target="_top" xlink:title="Creates a new Drop Timer and saves it to sock&#45;&gt;m_snd_drop_timer.">
<polygon fill="white" stroke="black" points="576,-0.5 576,-26.5 677,-26.5 677,-0.5 576,-0.5"/>
<text text-anchor="start" x="584" y="-16.1" font-family="Helvetica,sans-Serif" font-size="8.00">flow::net_flow::Node</text>
<text text-anchor="middle" x="626.5" y="-7.1" font-family="Helvetica,sans-Serif" font-size="8.00">::setup_drop_timer</text>
</a>
</g>
</g>
<!-- Node19&#45;&gt;Node23 -->
<g id="edge14" class="edge">
<title>Node19&#45;&gt;Node23</title>
<path fill="none" stroke="midnightblue" d="M726.3,-62.68C721.79,-60.62 717.3,-58.54 713,-56.5 692.58,-46.83 669.72,-35.3 652.78,-26.61"/>
<polygon fill="midnightblue" stroke="midnightblue" points="724.99,-65.92 735.54,-66.86 727.87,-59.55 724.99,-65.92"/>
</g>
<!-- Node22&#45;&gt;Node4 -->
<g id="edge13" class="edge">
<title>Node22&#45;&gt;Node4</title>
<path fill="none" stroke="midnightblue" d="M439.48,-77.47C418.89,-87.09 395.42,-98.05 377.61,-106.37"/>
<polygon fill="midnightblue" stroke="midnightblue" points="441.12,-80.56 448.7,-73.16 438.16,-74.22 441.12,-80.56"/>
</g>
<!-- Node23&#45;&gt;Node22 -->
<g id="edge15" class="edge">
<title>Node23&#45;&gt;Node22</title>
<path fill="none" stroke="midnightblue" d="M573.18,-29.54C562.38,-32.85 551.01,-36.34 540.23,-39.64"/>
<polygon fill="midnightblue" stroke="midnightblue" points="574.37,-32.84 582.9,-26.56 572.32,-26.14 574.37,-32.84"/>
</g>
<!-- Node24&#45;&gt;Node3 -->
<g id="edge18" class="edge">
<title>Node24&#45;&gt;Node3</title>
<path fill="none" stroke="midnightblue" d="M1053.62,-98.83C1044.16,-100.01 1034.49,-101.22 1025.06,-102.39"/>
<polygon fill="midnightblue" stroke="midnightblue" points="1054.29,-102.28 1063.78,-97.57 1053.42,-95.33 1054.29,-102.28"/>
</g>
</g>
</svg>
