<?xml version="1.0" encoding="UTF-8" standalone="no"?>
<!DOCTYPE svg PUBLIC "-//W3C//DTD SVG 1.1//EN"
 "http://www.w3.org/Graphics/SVG/1.1/DTD/svg11.dtd">
<!-- Generated by graphviz version 2.43.0 (0)
 -->
<!-- Title: flow::log::Config::output_component_to_ostream Pages: 1 -->
<svg width="573pt" height="151pt"
 viewBox="0.00 0.00 573.00 150.50" xmlns="http://www.w3.org/2000/svg" xmlns:xlink="http://www.w3.org/1999/xlink">
<g id="graph0" class="graph" transform="scale(1 1) rotate(0) translate(4 146.5)">
<title>flow::log::Config::output_component_to_ostream</title>
<polygon fill="white" stroke="transparent" points="-4,4 -4,-146.5 569,-146.5 569,4 -4,4"/>
<!-- Node1 -->
<g id="node1" class="node">
<title>Node1</title>
<g id="a_node1"><a xlink:title="An output of Config, this writes a string representation of the given component value to the given os...">
<polygon fill="#bfbfbf" stroke="black" points="0,-0.5 0,-35.5 106,-35.5 106,-0.5 0,-0.5"/>
<text text-anchor="start" x="8" y="-25.1" font-family="Helvetica,sans-Serif" font-size="8.00">flow::log::Config::</text>
<text text-anchor="start" x="8" y="-16.1" font-family="Helvetica,sans-Serif" font-size="8.00">output_component_to</text>
<text text-anchor="middle" x="53" y="-7.1" font-family="Helvetica,sans-Serif" font-size="8.00">_ostream</text>
</a>
</g>
</g>
<!-- Node2 -->
<g id="node2" class="node">
<title>Node2</title>
<g id="a_node2"><a xlink:href="classflow_1_1log_1_1Config.html#af2d963a6e1e9e0fc5809764d5718e938" target="_top" xlink:title="Given a component in the form user provides it at log call sites, returns its index in the flat compo...">
<polygon fill="white" stroke="black" points="142,-48 142,-74 260,-74 260,-48 142,-48"/>
<text text-anchor="start" x="150" y="-63.6" font-family="Helvetica,sans-Serif" font-size="8.00">flow::log::Config::</text>
<text text-anchor="middle" x="201" y="-54.6" font-family="Helvetica,sans-Serif" font-size="8.00">component_to_union_idx</text>
</a>
</g>
</g>
<!-- Node1&#45;&gt;Node2 -->
<g id="edge1" class="edge">
<title>Node1&#45;&gt;Node2</title>
<path fill="none" stroke="midnightblue" d="M106.3,-33.4C119.21,-37.2 133.06,-41.28 146.05,-45.11"/>
<polygon fill="midnightblue" stroke="midnightblue" points="145.2,-48.51 155.78,-47.98 147.18,-41.79 145.2,-48.51"/>
</g>
<!-- Node5 -->
<g id="node5" class="node">
<title>Node5</title>
<g id="a_node5"><a xlink:href="classflow_1_1log_1_1Component.html#a5af2f66731c407bd519a873706bd04c4" target="_top" xlink:title="Returns true if *this is as if default&#45;constructed (a null Component); false if as if constructed via...">
<polygon fill="white" stroke="black" points="460,-26 460,-52 565,-52 565,-26 460,-26"/>
<text text-anchor="start" x="468" y="-41.6" font-family="Helvetica,sans-Serif" font-size="8.00">flow::log::Component</text>
<text text-anchor="middle" x="512.5" y="-32.6" font-family="Helvetica,sans-Serif" font-size="8.00">::empty</text>
</a>
</g>
</g>
<!-- Node1&#45;&gt;Node5 -->
<g id="edge7" class="edge">
<title>Node1&#45;&gt;Node5</title>
<path fill="none" stroke="midnightblue" d="M106.05,-13.36C177.91,-7.94 311.4,-1.45 424,-16 436.05,-17.56 448.8,-20.27 460.74,-23.3"/>
<polygon fill="midnightblue" stroke="midnightblue" points="459.97,-26.72 470.54,-25.91 461.77,-19.96 459.97,-26.72"/>
</g>
<!-- Node3 -->
<g id="node3" class="node">
<title>Node3</title>
<g id="a_node3"><a xlink:href="classflow_1_1log_1_1Component__payload__type__dict.html#afcb470076f57f851f8fff1d0322e5f66" target="_top" xlink:title="Looks up a value previously added via insert(), or indicates no such value has yet been added.">
<polygon fill="white" stroke="black" points="296,-116 296,-142 424,-142 424,-116 296,-116"/>
<text text-anchor="start" x="304" y="-131.6" font-family="Helvetica,sans-Serif" font-size="8.00">flow::log::Component</text>
<text text-anchor="middle" x="360" y="-122.6" font-family="Helvetica,sans-Serif" font-size="8.00">_payload_type_dict::lookup</text>
</a>
</g>
</g>
<!-- Node2&#45;&gt;Node3 -->
<g id="edge2" class="edge">
<title>Node2&#45;&gt;Node3</title>
<path fill="none" stroke="midnightblue" d="M226.76,-74.12C245.5,-83.81 272.02,-96.99 296,-107 300.44,-108.86 305.1,-110.69 309.8,-112.46"/>
<polygon fill="midnightblue" stroke="midnightblue" points="308.81,-115.82 319.41,-115.98 311.22,-109.25 308.81,-115.82"/>
</g>
<!-- Node4 -->
<g id="node4" class="node">
<title>Node4</title>
<g id="a_node4"><a xlink:href="classflow_1_1log_1_1Component.html#a899a7d2b0c5daa8e4d666d431b9bf48e" target="_top" xlink:title="Returns the numeric value of the enum payload stored by this Component, originating in the one&#45;arg co...">
<polygon fill="white" stroke="black" points="296,-71 296,-97 424,-97 424,-71 296,-71"/>
<text text-anchor="start" x="304" y="-86.6" font-family="Helvetica,sans-Serif" font-size="8.00">flow::log::Component</text>
<text text-anchor="middle" x="360" y="-77.6" font-family="Helvetica,sans-Serif" font-size="8.00">::payload_enum_raw_value</text>
</a>
</g>
</g>
<!-- Node2&#45;&gt;Node4 -->
<g id="edge3" class="edge">
<title>Node2&#45;&gt;Node4</title>
<path fill="none" stroke="midnightblue" d="M260.01,-69.5C268.43,-70.73 277.18,-72.01 285.84,-73.28"/>
<polygon fill="midnightblue" stroke="midnightblue" points="285.54,-76.78 295.95,-74.76 286.56,-69.85 285.54,-76.78"/>
</g>
<!-- Node6 -->
<g id="node6" class="node">
<title>Node6</title>
<g id="a_node6"><a xlink:href="classflow_1_1log_1_1Component.html#a3ff8ff4d75add447b3e10ded5430833d" target="_top" xlink:title="Returns typeid(Payload), where Payload was the template param used when calling the originating one&#45;a...">
<polygon fill="white" stroke="black" points="307.5,-26 307.5,-52 412.5,-52 412.5,-26 307.5,-26"/>
<text text-anchor="start" x="315.5" y="-41.6" font-family="Helvetica,sans-Serif" font-size="8.00">flow::log::Component</text>
<text text-anchor="middle" x="360" y="-32.6" font-family="Helvetica,sans-Serif" font-size="8.00">::payload_type</text>
</a>
</g>
</g>
<!-- Node2&#45;&gt;Node6 -->
<g id="edge5" class="edge">
<title>Node2&#45;&gt;Node6</title>
<path fill="none" stroke="midnightblue" d="M260.01,-52.87C272.16,-51.17 285.01,-49.37 297.29,-47.65"/>
<polygon fill="midnightblue" stroke="midnightblue" points="298.02,-51.08 307.44,-46.23 297.05,-44.15 298.02,-51.08"/>
</g>
<!-- Node4&#45;&gt;Node5 -->
<g id="edge4" class="edge">
<title>Node4&#45;&gt;Node5</title>
<path fill="none" stroke="midnightblue" d="M404.53,-70.98C421.15,-66.02 440.29,-60.29 457.75,-55.07"/>
<polygon fill="midnightblue" stroke="midnightblue" points="459.23,-58.28 467.81,-52.06 457.22,-51.58 459.23,-58.28"/>
</g>
<!-- Node6&#45;&gt;Node5 -->
<g id="edge6" class="edge">
<title>Node6&#45;&gt;Node5</title>
<path fill="none" stroke="midnightblue" d="M412.79,-39C424.68,-39 437.44,-39 449.71,-39"/>
<polygon fill="midnightblue" stroke="midnightblue" points="449.87,-42.5 459.87,-39 449.87,-35.5 449.87,-42.5"/>
</g>
</g>
</svg>
