<?xml version="1.0" encoding="UTF-8" standalone="no"?>
<!DOCTYPE svg PUBLIC "-//W3C//DTD SVG 1.1//EN"
 "http://www.w3.org/Graphics/SVG/1.1/DTD/svg11.dtd">
<!-- Generated by graphviz version 2.43.0 (0)
 -->
<!-- Title: flow::log::Log_context::operator= Pages: 1 -->
<svg width="258pt" height="80pt"
 viewBox="0.00 0.00 258.00 80.00" xmlns="http://www.w3.org/2000/svg" xmlns:xlink="http://www.w3.org/1999/xlink">
<g id="graph0" class="graph" transform="scale(1 1) rotate(0) translate(4 76)">
<title>flow::log::Log_context::operator=</title>
<polygon fill="white" stroke="transparent" points="-4,4 -4,-76 254,-76 254,4 -4,4"/>
<!-- Node1 -->
<g id="node1" class="node">
<title>Node1</title>
<g id="a_node1"><a xlink:title="Assignment operator that behaves similarly to the copy constructor.">
<polygon fill="#bfbfbf" stroke="black" points="143,-22.5 143,-48.5 250,-48.5 250,-22.5 143,-22.5"/>
<text text-anchor="start" x="151" y="-38.1" font-family="Helvetica,sans-Serif" font-size="8.00">flow::log::Log_context</text>
<text text-anchor="middle" x="196.5" y="-29.1" font-family="Helvetica,sans-Serif" font-size="8.00">::operator=</text>
</a>
</g>
</g>
<!-- Node2 -->
<g id="node2" class="node">
<title>Node2</title>
<g id="a_node2"><a xlink:href="classflow_1_1log_1_1Async__file__logger.html#aa557c0f55c1044161acc8fb54c115a3e" target="_top" xlink:title="Implements interface method by asynchronously logging the message and some subset of the metadata in ...">
<polygon fill="white" stroke="black" points="4.5,-45.5 4.5,-71.5 102.5,-71.5 102.5,-45.5 4.5,-45.5"/>
<text text-anchor="start" x="12.5" y="-61.1" font-family="Helvetica,sans-Serif" font-size="8.00">flow::log::Async_file</text>
<text text-anchor="middle" x="53.5" y="-52.1" font-family="Helvetica,sans-Serif" font-size="8.00">_logger::do_log</text>
</a>
</g>
</g>
<!-- Node1&#45;&gt;Node2 -->
<g id="edge1" class="edge">
<title>Node1&#45;&gt;Node2</title>
<path fill="none" stroke="midnightblue" d="M132.99,-45.7C122.89,-47.34 112.56,-49.03 102.85,-50.61"/>
<polygon fill="midnightblue" stroke="midnightblue" points="133.69,-49.13 143,-44.06 132.56,-42.22 133.69,-49.13"/>
</g>
<!-- Node3 -->
<g id="node3" class="node">
<title>Node3</title>
<g id="a_node3"><a xlink:href="classflow_1_1log_1_1Log__context.html#a3d4e624833d96bdafa1485ffff472509" target="_top" xlink:title="Move constructor that makes this equal to src, while the latter becomes as&#45;if default&#45;constructed.">
<polygon fill="white" stroke="black" points="0,-0.5 0,-26.5 107,-26.5 107,-0.5 0,-0.5"/>
<text text-anchor="start" x="8" y="-16.1" font-family="Helvetica,sans-Serif" font-size="8.00">flow::log::Log_context</text>
<text text-anchor="middle" x="53.5" y="-7.1" font-family="Helvetica,sans-Serif" font-size="8.00">::Log_context</text>
</a>
</g>
</g>
<!-- Node1&#45;&gt;Node3 -->
<g id="edge2" class="edge">
<title>Node1&#45;&gt;Node3</title>
<path fill="none" stroke="midnightblue" d="M132.95,-25.74C124.3,-24.39 115.49,-23.02 107.05,-21.7"/>
<polygon fill="midnightblue" stroke="midnightblue" points="132.58,-29.22 143,-27.31 133.66,-22.31 132.58,-29.22"/>
</g>
</g>
</svg>
