<?xml version="1.0" encoding="UTF-8" standalone="no"?>
<!DOCTYPE svg PUBLIC "-//W3C//DTD SVG 1.1//EN"
 "http://www.w3.org/Graphics/SVG/1.1/DTD/svg11.dtd">
<!-- Generated by graphviz version 2.43.0 (0)
 -->
<!-- Title: flow::net_flow::Drop_timer::Drop_timer Pages: 1 -->
<svg width="678pt" height="44pt"
 viewBox="0.00 0.00 678.00 44.00" xmlns="http://www.w3.org/2000/svg" xmlns:xlink="http://www.w3.org/1999/xlink">
<g id="graph0" class="graph" transform="scale(1 1) rotate(0) translate(4 40)">
<title>flow::net_flow::Drop_timer::Drop_timer</title>
<polygon fill="white" stroke="transparent" points="-4,4 -4,-40 674,-40 674,4 -4,4"/>
<!-- Node1 -->
<g id="node1" class="node">
<title>Node1</title>
<g id="a_node1"><a xlink:title="Constructs Drop_timer as described in the factory constructor create_drop_timer().">
<polygon fill="#bfbfbf" stroke="black" points="572,-5 572,-31 670,-31 670,-5 572,-5"/>
<text text-anchor="start" x="580" y="-20.6" font-family="Helvetica,sans-Serif" font-size="8.00">flow::net_flow::Drop</text>
<text text-anchor="middle" x="621" y="-11.6" font-family="Helvetica,sans-Serif" font-size="8.00">_timer::Drop_timer</text>
</a>
</g>
</g>
<!-- Node2 -->
<g id="node2" class="node">
<title>Node2</title>
<g id="a_node2"><a xlink:href="classflow_1_1net__flow_1_1Drop__timer.html#a64def367e38954d8a392cdf92fcc8f24" target="_top" xlink:title="Constructs Drop_timer and returns a ref&#45;counted pointer wrapping it.">
<polygon fill="white" stroke="black" points="415,-5 415,-31 536,-31 536,-5 415,-5"/>
<text text-anchor="start" x="423" y="-20.6" font-family="Helvetica,sans-Serif" font-size="8.00">flow::net_flow::Drop</text>
<text text-anchor="middle" x="475.5" y="-11.6" font-family="Helvetica,sans-Serif" font-size="8.00">_timer::create_drop_timer</text>
</a>
</g>
</g>
<!-- Node1&#45;&gt;Node2 -->
<g id="edge1" class="edge">
<title>Node1&#45;&gt;Node2</title>
<path fill="none" stroke="midnightblue" d="M561.67,-18C553.21,-18 544.5,-18 536.03,-18"/>
<polygon fill="midnightblue" stroke="midnightblue" points="561.82,-21.5 571.82,-18 561.82,-14.5 561.82,-21.5"/>
</g>
<!-- Node3 -->
<g id="node3" class="node">
<title>Node3</title>
<g id="a_node3"><a xlink:href="classflow_1_1net__flow_1_1Node.html#ab427ebc124a6233ae48a7562662a6e81" target="_top" xlink:title="Creates a new Drop Timer and saves it to sock&#45;&gt;m_snd_drop_timer.">
<polygon fill="white" stroke="black" points="278,-5 278,-31 379,-31 379,-5 278,-5"/>
<text text-anchor="start" x="286" y="-20.6" font-family="Helvetica,sans-Serif" font-size="8.00">flow::net_flow::Node</text>
<text text-anchor="middle" x="328.5" y="-11.6" font-family="Helvetica,sans-Serif" font-size="8.00">::setup_drop_timer</text>
</a>
</g>
</g>
<!-- Node2&#45;&gt;Node3 -->
<g id="edge2" class="edge">
<title>Node2&#45;&gt;Node3</title>
<path fill="none" stroke="midnightblue" d="M404.6,-18C395.96,-18 387.28,-18 379.03,-18"/>
<polygon fill="midnightblue" stroke="midnightblue" points="404.69,-21.5 414.69,-18 404.69,-14.5 404.69,-21.5"/>
</g>
<!-- Node4 -->
<g id="node4" class="node">
<title>Node4</title>
<g id="a_node4"><a xlink:href="classflow_1_1net__flow_1_1Node.html#a29d02f9e302c7b06288ff1c644fa8d65" target="_top" xlink:title="Handles a just&#45;deserialized, just&#45;demultiplexed low&#45;level SYN_ACK_ACK packet delivered to the given p...">
<polygon fill="white" stroke="black" points="137,-0.5 137,-35.5 242,-35.5 242,-0.5 137,-0.5"/>
<text text-anchor="start" x="145" y="-25.1" font-family="Helvetica,sans-Serif" font-size="8.00">flow::net_flow::Node</text>
<text text-anchor="start" x="145" y="-16.1" font-family="Helvetica,sans-Serif" font-size="8.00">::handle_syn_ack_ack</text>
<text text-anchor="middle" x="189.5" y="-7.1" font-family="Helvetica,sans-Serif" font-size="8.00">_to_syn_rcvd</text>
</a>
</g>
</g>
<!-- Node3&#45;&gt;Node4 -->
<g id="edge3" class="edge">
<title>Node3&#45;&gt;Node4</title>
<path fill="none" stroke="midnightblue" d="M267.55,-18C259.16,-18 250.6,-18 242.38,-18"/>
<polygon fill="midnightblue" stroke="midnightblue" points="267.65,-21.5 277.65,-18 267.65,-14.5 267.65,-21.5"/>
</g>
<!-- Node5 -->
<g id="node5" class="node">
<title>Node5</title>
<g id="a_node5"><a xlink:href="classflow_1_1net__flow_1_1Node.html#a1699dfdaf3e5ebe1b1d715a9c306d116" target="_top" xlink:title="Handles a just&#45;received, not&#45;yet&#45;deserialized low&#45;level packet.">
<polygon fill="white" stroke="red" points="0,-5 0,-31 101,-31 101,-5 0,-5"/>
<text text-anchor="start" x="8" y="-20.6" font-family="Helvetica,sans-Serif" font-size="8.00">flow::net_flow::Node</text>
<text text-anchor="middle" x="50.5" y="-11.6" font-family="Helvetica,sans-Serif" font-size="8.00">::handle_incoming</text>
</a>
</g>
</g>
<!-- Node4&#45;&gt;Node5 -->
<g id="edge4" class="edge">
<title>Node4&#45;&gt;Node5</title>
<path fill="none" stroke="midnightblue" d="M126.45,-18C117.96,-18 109.33,-18 101.1,-18"/>
<polygon fill="midnightblue" stroke="midnightblue" points="126.71,-21.5 136.71,-18 126.71,-14.5 126.71,-21.5"/>
</g>
</g>
</svg>
