<?xml version="1.0" encoding="UTF-8" standalone="no"?>
<!DOCTYPE svg PUBLIC "-//W3C//DTD SVG 1.1//EN"
 "http://www.w3.org/Graphics/SVG/1.1/DTD/svg11.dtd">
<!-- Generated by graphviz version 2.43.0 (0)
 -->
<!-- Title: flow::log::Config::this_thread_verbosity_override_auto Pages: 1 -->
<svg width="252pt" height="44pt"
 viewBox="0.00 0.00 252.00 44.00" xmlns="http://www.w3.org/2000/svg" xmlns:xlink="http://www.w3.org/1999/xlink">
<g id="graph0" class="graph" transform="scale(1 1) rotate(0) translate(4 40)">
<title>flow::log::Config::this_thread_verbosity_override_auto</title>
<polygon fill="white" stroke="transparent" points="-4,4 -4,-40 248,-40 248,4 -4,4"/>
<!-- Node1 -->
<g id="node1" class="node">
<title>Node1</title>
<g id="a_node1"><a xlink:title="Sets *(this_thread_verbosity_override()) = most_verbose_sev_or_none; and returns an object that shall...">
<polygon fill="#bfbfbf" stroke="black" points="0,-0.5 0,-35.5 104,-35.5 104,-0.5 0,-0.5"/>
<text text-anchor="start" x="8" y="-25.1" font-family="Helvetica,sans-Serif" font-size="8.00">flow::log::Config::</text>
<text text-anchor="start" x="8" y="-16.1" font-family="Helvetica,sans-Serif" font-size="8.00">this_thread_verbosity</text>
<text text-anchor="middle" x="52" y="-7.1" font-family="Helvetica,sans-Serif" font-size="8.00">_override_auto</text>
</a>
</g>
</g>
<!-- Node2 -->
<g id="node2" class="node">
<title>Node2</title>
<g id="a_node2"><a xlink:href="classflow_1_1log_1_1Config.html#a81da2c80d99cdd43c66a0df2eed64c70" target="_top" xlink:title="Returns pointer to this thread&#39;s mutable verbosity override, for querying or assignment alike.">
<polygon fill="white" stroke="black" points="140,-0.5 140,-35.5 244,-35.5 244,-0.5 140,-0.5"/>
<text text-anchor="start" x="148" y="-25.1" font-family="Helvetica,sans-Serif" font-size="8.00">flow::log::Config::</text>
<text text-anchor="start" x="148" y="-16.1" font-family="Helvetica,sans-Serif" font-size="8.00">this_thread_verbosity</text>
<text text-anchor="middle" x="192" y="-7.1" font-family="Helvetica,sans-Serif" font-size="8.00">_override</text>
</a>
</g>
</g>
<!-- Node1&#45;&gt;Node2 -->
<g id="edge1" class="edge">
<title>Node1&#45;&gt;Node2</title>
<path fill="none" stroke="midnightblue" d="M104.39,-18C112.56,-18 121.08,-18 129.46,-18"/>
<polygon fill="midnightblue" stroke="midnightblue" points="129.57,-21.5 139.57,-18 129.57,-14.5 129.57,-21.5"/>
</g>
</g>
</svg>
