<?xml version="1.0" encoding="UTF-8" standalone="no"?>
<!DOCTYPE svg PUBLIC "-//W3C//DTD SVG 1.1//EN"
 "http://www.w3.org/Graphics/SVG/1.1/DTD/svg11.dtd">
<!-- Generated by graphviz version 2.43.0 (0)
 -->
<!-- Title: flow::net_flow::Congestion_control_classic_data::Congestion_control_classic_data Pages: 1 -->
<svg width="517pt" height="108pt"
 viewBox="0.00 0.00 517.00 107.50" xmlns="http://www.w3.org/2000/svg" xmlns:xlink="http://www.w3.org/1999/xlink">
<g id="graph0" class="graph" transform="scale(1 1) rotate(0) translate(4 103.5)">
<title>flow::net_flow::Congestion_control_classic_data::Congestion_control_classic_data</title>
<polygon fill="white" stroke="transparent" points="-4,4 -4,-103.5 513,-103.5 513,4 -4,4"/>
<!-- Node1 -->
<g id="node1" class="node">
<title>Node1</title>
<g id="a_node1"><a xlink:title="Constructs object by setting up logging and saving a pointer to the containing Peer_socket,...">
<polygon fill="#bfbfbf" stroke="black" points="0,-21 0,-56 155,-56 155,-21 0,-21"/>
<text text-anchor="start" x="8" y="-45.6" font-family="Helvetica,sans-Serif" font-size="8.00">flow::net_flow::Congestion</text>
<text text-anchor="start" x="8" y="-36.6" font-family="Helvetica,sans-Serif" font-size="8.00">_control_classic_data::Congestion</text>
<text text-anchor="middle" x="77.5" y="-27.6" font-family="Helvetica,sans-Serif" font-size="8.00">_control_classic_data</text>
</a>
</g>
</g>
<!-- Node2 -->
<g id="node2" class="node">
<title>Node2</title>
<g id="a_node2"><a xlink:href="classflow_1_1net__flow_1_1Congestion__control__classic__data.html#a092ddd8d1f700b426a5f9e0184af004f" target="_top" xlink:title="Logs, in a TRACE message, all internal state values.">
<polygon fill="white" stroke="black" points="191,-25.5 191,-51.5 337,-51.5 337,-25.5 191,-25.5"/>
<text text-anchor="start" x="199" y="-41.1" font-family="Helvetica,sans-Serif" font-size="8.00">flow::net_flow::Congestion</text>
<text text-anchor="middle" x="264" y="-32.1" font-family="Helvetica,sans-Serif" font-size="8.00">_control_classic_data::log_state</text>
</a>
</g>
</g>
<!-- Node1&#45;&gt;Node2 -->
<g id="edge1" class="edge">
<title>Node1&#45;&gt;Node2</title>
<path fill="none" stroke="midnightblue" d="M155.14,-38.5C163.52,-38.5 172.07,-38.5 180.51,-38.5"/>
<polygon fill="midnightblue" stroke="midnightblue" points="180.74,-42 190.74,-38.5 180.74,-35 180.74,-42"/>
</g>
<!-- Node3 -->
<g id="node3" class="node">
<title>Node3</title>
<g id="a_node3"><a xlink:href="classflow_1_1net__flow_1_1Congestion__control__classic__data.html#aecb03f208c177ec3cbce5242f19efee0" target="_top" xlink:title="Return true if and only if CWND &lt; SSTHRESH.">
<polygon fill="white" stroke="black" points="378.5,-46 378.5,-81 503.5,-81 503.5,-46 378.5,-46"/>
<text text-anchor="start" x="386.5" y="-70.6" font-family="Helvetica,sans-Serif" font-size="8.00">flow::net_flow::Congestion</text>
<text text-anchor="start" x="386.5" y="-61.6" font-family="Helvetica,sans-Serif" font-size="8.00">_control_classic_data::in</text>
<text text-anchor="middle" x="441" y="-52.6" font-family="Helvetica,sans-Serif" font-size="8.00">_slow_start</text>
</a>
</g>
</g>
<!-- Node2&#45;&gt;Node3 -->
<g id="edge2" class="edge">
<title>Node2&#45;&gt;Node3</title>
<path fill="none" stroke="midnightblue" d="M337.19,-48.81C347.43,-50.28 357.96,-51.78 368.19,-53.24"/>
<polygon fill="midnightblue" stroke="midnightblue" points="367.91,-56.74 378.3,-54.69 368.9,-49.81 367.91,-56.74"/>
</g>
<!-- Node4 -->
<g id="node4" class="node">
<title>Node4</title>
<g id="a_node4"><a xlink:href="classflow_1_1net__flow_1_1Congestion__control__classic__data.html#a842fd11c65c3be53ce3d81a7f050f7d7" target="_top" xlink:title="Analogous to Congestion_control_strategy::socket().">
<polygon fill="white" stroke="black" points="373,-0.5 373,-26.5 509,-26.5 509,-0.5 373,-0.5"/>
<text text-anchor="start" x="381" y="-16.1" font-family="Helvetica,sans-Serif" font-size="8.00">flow::net_flow::Congestion</text>
<text text-anchor="middle" x="441" y="-7.1" font-family="Helvetica,sans-Serif" font-size="8.00">_control_classic_data::socket</text>
</a>
</g>
</g>
<!-- Node2&#45;&gt;Node4 -->
<g id="edge4" class="edge">
<title>Node2&#45;&gt;Node4</title>
<path fill="none" stroke="midnightblue" d="M337.19,-28.19C345.65,-26.98 354.3,-25.74 362.83,-24.52"/>
<polygon fill="midnightblue" stroke="midnightblue" points="363.35,-27.99 372.75,-23.11 362.36,-21.06 363.35,-27.99"/>
</g>
<!-- Node3&#45;&gt;Node3 -->
<g id="edge3" class="edge">
<title>Node3&#45;&gt;Node3</title>
<path fill="none" stroke="midnightblue" d="M409.36,-81.28C403.99,-90.81 414.53,-99.5 441,-99.5 457.13,-99.5 467.35,-96.27 471.65,-91.6"/>
<polygon fill="midnightblue" stroke="midnightblue" points="475.17,-91.57 472.64,-81.28 468.2,-90.9 475.17,-91.57"/>
</g>
</g>
</svg>
