<?xml version="1.0" encoding="UTF-8" standalone="no"?>
<!DOCTYPE svg PUBLIC "-//W3C//DTD SVG 1.1//EN"
 "http://www.w3.org/Graphics/SVG/1.1/DTD/svg11.dtd">
<!-- Generated by graphviz version 2.43.0 (0)
 -->
<!-- Title: flow::net_flow::Peer_socket_receive_stats_accumulator::good_data_delivered_packet Pages: 1 -->
<svg width="274pt" height="98pt"
 viewBox="0.00 0.00 274.00 98.00" xmlns="http://www.w3.org/2000/svg" xmlns:xlink="http://www.w3.org/1999/xlink">
<g id="graph0" class="graph" transform="scale(1 1) rotate(0) translate(4 94)">
<title>flow::net_flow::Peer_socket_receive_stats_accumulator::good_data_delivered_packet</title>
<polygon fill="white" stroke="transparent" points="-4,4 -4,-94 270,-94 270,4 -4,4"/>
<!-- Node1 -->
<g id="node1" class="node">
<title>Node1</title>
<g id="a_node1"><a xlink:title="Indicates good_data_accepted_packet(), and these data are delivered into Receive buffer (either immed...">
<polygon fill="#bfbfbf" stroke="black" points="145,-23 145,-67 266,-67 266,-23 145,-23"/>
<text text-anchor="start" x="153" y="-56.6" font-family="Helvetica,sans-Serif" font-size="8.00">flow::net_flow::Peer</text>
<text text-anchor="start" x="153" y="-47.6" font-family="Helvetica,sans-Serif" font-size="8.00">_socket_receive_stats</text>
<text text-anchor="start" x="153" y="-38.6" font-family="Helvetica,sans-Serif" font-size="8.00">_accumulator::good_data</text>
<text text-anchor="middle" x="205.5" y="-29.6" font-family="Helvetica,sans-Serif" font-size="8.00">_delivered_packet</text>
</a>
</g>
</g>
<!-- Node2 -->
<g id="node2" class="node">
<title>Node2</title>
<g id="a_node2"><a xlink:href="classflow_1_1net__flow_1_1Node.html#aab414ebd0e2d27f02ed51270dab90c45" target="_top" xlink:title="Helper for handle_data_to_established() that aims to pass the payload of the given DATA packet to the...">
<polygon fill="white" stroke="black" points="0,-54.5 0,-89.5 109,-89.5 109,-54.5 0,-54.5"/>
<text text-anchor="start" x="8" y="-79.1" font-family="Helvetica,sans-Serif" font-size="8.00">flow::net_flow::Node</text>
<text text-anchor="start" x="8" y="-70.1" font-family="Helvetica,sans-Serif" font-size="8.00">::sock_data_to_rcv_buf</text>
<text text-anchor="middle" x="54.5" y="-61.1" font-family="Helvetica,sans-Serif" font-size="8.00">_unless_overflow</text>
</a>
</g>
</g>
<!-- Node1&#45;&gt;Node2 -->
<g id="edge1" class="edge">
<title>Node1&#45;&gt;Node2</title>
<path fill="none" stroke="midnightblue" d="M134.83,-57.63C126.31,-59.17 117.71,-60.73 109.48,-62.22"/>
<polygon fill="midnightblue" stroke="midnightblue" points="135.54,-61.05 144.75,-55.83 134.29,-54.17 135.54,-61.05"/>
</g>
<!-- Node3 -->
<g id="node3" class="node">
<title>Node3</title>
<g id="a_node3"><a xlink:href="classflow_1_1net__flow_1_1Node.html#a74adc7d61419f4beb7941d418a31a648" target="_top" xlink:title="Helper for handle_data_to_established() that aims to register a set of received DATA packet data as i...">
<polygon fill="white" stroke="black" points="4,-0.5 4,-35.5 105,-35.5 105,-0.5 4,-0.5"/>
<text text-anchor="start" x="12" y="-25.1" font-family="Helvetica,sans-Serif" font-size="8.00">flow::net_flow::Node</text>
<text text-anchor="start" x="12" y="-16.1" font-family="Helvetica,sans-Serif" font-size="8.00">::sock_slide_rcv_next</text>
<text text-anchor="middle" x="54.5" y="-7.1" font-family="Helvetica,sans-Serif" font-size="8.00">_seq_num</text>
</a>
</g>
</g>
<!-- Node1&#45;&gt;Node3 -->
<g id="edge2" class="edge">
<title>Node1&#45;&gt;Node3</title>
<path fill="none" stroke="midnightblue" d="M134.83,-32.37C124.83,-30.56 114.72,-28.73 105.22,-27.01"/>
<polygon fill="midnightblue" stroke="midnightblue" points="134.29,-35.83 144.75,-34.17 135.54,-28.95 134.29,-35.83"/>
</g>
</g>
</svg>
