<?xml version="1.0" encoding="UTF-8" standalone="no"?>
<!DOCTYPE svg PUBLIC "-//W3C//DTD SVG 1.1//EN"
 "http://www.w3.org/Graphics/SVG/1.1/DTD/svg11.dtd">
<!-- Generated by graphviz version 2.43.0 (0)
 -->
<!-- Title: flow::net_flow::Node::options Pages: 1 -->
<svg width="246pt" height="35pt"
 viewBox="0.00 0.00 246.00 35.00" xmlns="http://www.w3.org/2000/svg" xmlns:xlink="http://www.w3.org/1999/xlink">
<g id="graph0" class="graph" transform="scale(1 1) rotate(0) translate(4 31)">
<title>flow::net_flow::Node::options</title>
<polygon fill="white" stroke="transparent" points="-4,4 -4,-31 242,-31 242,4 -4,4"/>
<!-- Node1 -->
<g id="node1" class="node">
<title>Node1</title>
<g id="a_node1"><a xlink:title="Copies this Node&#39;s option set and returns that copy.">
<polygon fill="#bfbfbf" stroke="black" points="137,-0.5 137,-26.5 238,-26.5 238,-0.5 137,-0.5"/>
<text text-anchor="start" x="145" y="-16.1" font-family="Helvetica,sans-Serif" font-size="8.00">flow::net_flow::Node</text>
<text text-anchor="middle" x="187.5" y="-7.1" font-family="Helvetica,sans-Serif" font-size="8.00">::options</text>
</a>
</g>
</g>
<!-- Node2 -->
<g id="node2" class="node">
<title>Node2</title>
<g id="a_node2"><a xlink:href="classflow_1_1net__flow_1_1Node.html#acd93ba39d6a9cdee60c2ad7da1085902" target="_top" xlink:title="Constructs Node.">
<polygon fill="white" stroke="black" points="0,-0.5 0,-26.5 101,-26.5 101,-0.5 0,-0.5"/>
<text text-anchor="start" x="8" y="-16.1" font-family="Helvetica,sans-Serif" font-size="8.00">flow::net_flow::Node</text>
<text text-anchor="middle" x="50.5" y="-7.1" font-family="Helvetica,sans-Serif" font-size="8.00">::Node</text>
</a>
</g>
</g>
<!-- Node1&#45;&gt;Node2 -->
<g id="edge1" class="edge">
<title>Node1&#45;&gt;Node2</title>
<path fill="none" stroke="midnightblue" d="M126.79,-13.5C118.33,-13.5 109.7,-13.5 101.45,-13.5"/>
<polygon fill="midnightblue" stroke="midnightblue" points="127,-17 137,-13.5 127,-10 127,-17"/>
</g>
</g>
</svg>
