<?xml version="1.0" encoding="UTF-8" standalone="no"?>
<!DOCTYPE svg PUBLIC "-//W3C//DTD SVG 1.1//EN"
 "http://www.w3.org/Graphics/SVG/1.1/DTD/svg11.dtd">
<!-- Generated by graphviz version 2.43.0 (0)
 -->
<!-- Title: flow::net_flow::asio::Peer_socket::async_receive Pages: 1 -->
<svg width="601pt" height="186pt"
 viewBox="0.00 0.00 601.00 186.00" xmlns="http://www.w3.org/2000/svg" xmlns:xlink="http://www.w3.org/1999/xlink">
<g id="graph0" class="graph" transform="scale(1 1) rotate(0) translate(4 182)">
<title>flow::net_flow::asio::Peer_socket::async_receive</title>
<polygon fill="white" stroke="transparent" points="-4,4 -4,-182 597,-182 597,4 -4,4"/>
<!-- Node1 -->
<g id="node1" class="node">
<title>Node1</title>
<g id="a_node1"><a xlink:title="boost.asio&#45;style asynchronous version that essentially performs a null_buffers net_flow::Peer_socket:...">
<polygon fill="#bfbfbf" stroke="black" points="0,-46 0,-81 101,-81 101,-46 0,-46"/>
<text text-anchor="start" x="8" y="-70.6" font-family="Helvetica,sans-Serif" font-size="8.00">flow::net_flow::asio</text>
<text text-anchor="start" x="8" y="-61.6" font-family="Helvetica,sans-Serif" font-size="8.00">::Peer_socket::async</text>
<text text-anchor="middle" x="50.5" y="-52.6" font-family="Helvetica,sans-Serif" font-size="8.00">_receive</text>
</a>
</g>
</g>
<!-- Node2 -->
<g id="node2" class="node">
<title>Node2</title>
<g id="a_node2"><a xlink:href="classflow_1_1net__flow_1_1asio_1_1Peer__socket.html#a85e456ae997bae047e022d234bec9531" target="_top" xlink:title="De&#45;templated implementation of all async_receive() methods.">
<polygon fill="white" stroke="black" points="152,-100 152,-135 253,-135 253,-100 152,-100"/>
<text text-anchor="start" x="160" y="-124.6" font-family="Helvetica,sans-Serif" font-size="8.00">flow::net_flow::asio</text>
<text text-anchor="start" x="160" y="-115.6" font-family="Helvetica,sans-Serif" font-size="8.00">::Peer_socket::async</text>
<text text-anchor="middle" x="202.5" y="-106.6" font-family="Helvetica,sans-Serif" font-size="8.00">_receive_impl</text>
</a>
</g>
</g>
<!-- Node1&#45;&gt;Node2 -->
<g id="edge1" class="edge">
<title>Node1&#45;&gt;Node2</title>
<path fill="none" stroke="midnightblue" d="M100.2,-81.03C113.89,-85.96 128.92,-91.37 143.12,-96.48"/>
<polygon fill="midnightblue" stroke="midnightblue" points="142.19,-99.87 152.79,-99.96 144.56,-93.28 142.19,-99.87"/>
</g>
<!-- Node9 -->
<g id="node9" class="node">
<title>Node9</title>
<g id="a_node9"><a xlink:href="namespaceflow_1_1util.html#a5488415feb5570a6551892a7bdfeeec4" target="_top" xlink:title="Helper that takes a non&#45;negative duration of arbitrary precision/period and converts it to Fine_durat...">
<polygon fill="white" stroke="black" points="147.5,-46 147.5,-81 257.5,-81 257.5,-46 147.5,-46"/>
<text text-anchor="start" x="155.5" y="-70.6" font-family="Helvetica,sans-Serif" font-size="8.00">flow::util::chrono</text>
<text text-anchor="start" x="155.5" y="-61.6" font-family="Helvetica,sans-Serif" font-size="8.00">_duration_from_now_to</text>
<text text-anchor="middle" x="202.5" y="-52.6" font-family="Helvetica,sans-Serif" font-size="8.00">_fine_time_pt</text>
</a>
</g>
</g>
<!-- Node1&#45;&gt;Node9 -->
<g id="edge8" class="edge">
<title>Node1&#45;&gt;Node9</title>
<path fill="none" stroke="midnightblue" d="M101.03,-63.5C112.63,-63.5 125.15,-63.5 137.29,-63.5"/>
<polygon fill="midnightblue" stroke="midnightblue" points="137.37,-67 147.37,-63.5 137.37,-60 137.37,-67"/>
</g>
<!-- Node10 -->
<g id="node10" class="node">
<title>Node10</title>
<g id="a_node10"><a xlink:href="classflow_1_1net__flow_1_1asio_1_1Peer__socket.html#aa727c33c3eeeb217d50fcd451096ded8" target="_top" xlink:title="Returns a functor that essentially performs post() on_result onto *async_task_engine() in a way suita...">
<polygon fill="white" stroke="black" points="137,-0.5 137,-26.5 268,-26.5 268,-0.5 137,-0.5"/>
<text text-anchor="start" x="145" y="-16.1" font-family="Helvetica,sans-Serif" font-size="8.00">flow::net_flow::asio</text>
<text text-anchor="middle" x="202.5" y="-7.1" font-family="Helvetica,sans-Serif" font-size="8.00">::Peer_socket::handler_func</text>
</a>
</g>
</g>
<!-- Node1&#45;&gt;Node10 -->
<g id="edge9" class="edge">
<title>Node1&#45;&gt;Node10</title>
<path fill="none" stroke="midnightblue" d="M101.03,-46.99C117.72,-41.43 136.33,-35.22 152.94,-29.69"/>
<polygon fill="midnightblue" stroke="midnightblue" points="154.09,-32.99 162.47,-26.51 151.87,-26.35 154.09,-32.99"/>
</g>
<!-- Node3 -->
<g id="node3" class="node">
<title>Node3</title>
<g id="a_node3"><a xlink:href="classflow_1_1net__flow_1_1asio_1_1Peer__socket.html#a0744682e2dc9118b4da3f00bc5267bec" target="_top" xlink:title="Convenience method that polymorphically casts from net_flow::Peer_socket::Ptr to subclass pointer net...">
<polygon fill="white" stroke="black" points="319,-151.5 319,-177.5 415,-177.5 415,-151.5 319,-151.5"/>
<text text-anchor="start" x="327" y="-167.1" font-family="Helvetica,sans-Serif" font-size="8.00">flow::net_flow::asio</text>
<text text-anchor="middle" x="367" y="-158.1" font-family="Helvetica,sans-Serif" font-size="8.00">::Peer_socket::cast</text>
</a>
</g>
</g>
<!-- Node2&#45;&gt;Node3 -->
<g id="edge2" class="edge">
<title>Node2&#45;&gt;Node3</title>
<path fill="none" stroke="midnightblue" d="M253.14,-131.86C271.5,-137.17 292.41,-143.22 311.2,-148.65"/>
<polygon fill="midnightblue" stroke="midnightblue" points="310.23,-152.01 320.81,-151.43 312.18,-145.29 310.23,-152.01"/>
</g>
<!-- Node4 -->
<g id="node4" class="node">
<title>Node4</title>
<g id="a_node4"><a xlink:href="classflow_1_1net__flow_1_1asio_1_1Peer__socket.html#aa9e96966c7a8f5d35a34c0f5b3f65eb6" target="_top" xlink:title="Helper that returns the net_flow::asio::Node that generated *this; unless *this is closed; in which c...">
<polygon fill="white" stroke="black" points="312,-97 312,-132 422,-132 422,-97 312,-97"/>
<text text-anchor="start" x="320" y="-121.6" font-family="Helvetica,sans-Serif" font-size="8.00">flow::net_flow::asio</text>
<text text-anchor="start" x="320" y="-112.6" font-family="Helvetica,sans-Serif" font-size="8.00">::Peer_socket::node_or</text>
<text text-anchor="middle" x="367" y="-103.6" font-family="Helvetica,sans-Serif" font-size="8.00">_post_error</text>
</a>
</g>
</g>
<!-- Node2&#45;&gt;Node4 -->
<g id="edge3" class="edge">
<title>Node2&#45;&gt;Node4</title>
<path fill="none" stroke="midnightblue" d="M253.14,-116.58C268.37,-116.3 285.37,-115.99 301.45,-115.69"/>
<polygon fill="midnightblue" stroke="midnightblue" points="301.92,-119.18 311.86,-115.5 301.8,-112.18 301.92,-119.18"/>
</g>
<!-- Node8 -->
<g id="node8" class="node">
<title>Node8</title>
<g id="a_node8"><a xlink:href="classflow_1_1net__flow_1_1asio_1_1Peer__socket.html#abac02ab0468161ea5ce431a2f53c4703" target="_top" xlink:title="Constructs object.">
<polygon fill="white" stroke="black" points="304,-51.5 304,-77.5 430,-77.5 430,-51.5 304,-51.5"/>
<text text-anchor="start" x="312" y="-67.1" font-family="Helvetica,sans-Serif" font-size="8.00">flow::net_flow::asio</text>
<text text-anchor="middle" x="367" y="-58.1" font-family="Helvetica,sans-Serif" font-size="8.00">::Peer_socket::Peer_socket</text>
</a>
</g>
</g>
<!-- Node2&#45;&gt;Node8 -->
<g id="edge7" class="edge">
<title>Node2&#45;&gt;Node8</title>
<path fill="none" stroke="midnightblue" d="M253.14,-101.31C273.19,-94.77 296.29,-87.24 316.34,-80.7"/>
<polygon fill="midnightblue" stroke="midnightblue" points="317.49,-84 325.92,-77.57 315.32,-77.35 317.49,-84"/>
</g>
<!-- Node5 -->
<g id="node5" class="node">
<title>Node5</title>
<g id="a_node5"><a xlink:href="classflow_1_1net__flow_1_1asio_1_1Peer__socket.html#a1c63aaece6a9b056688a35405f064c70" target="_top" xlink:title="Pointer (possibly null) for the flow::util::Task_engine used by any coming async_*() I/O calls.">
<polygon fill="white" stroke="black" points="479,-23 479,-58 580,-58 580,-23 479,-23"/>
<text text-anchor="start" x="487" y="-47.6" font-family="Helvetica,sans-Serif" font-size="8.00">flow::net_flow::asio</text>
<text text-anchor="start" x="487" y="-38.6" font-family="Helvetica,sans-Serif" font-size="8.00">::Peer_socket::async</text>
<text text-anchor="middle" x="529.5" y="-29.6" font-family="Helvetica,sans-Serif" font-size="8.00">_task_engine</text>
</a>
</g>
</g>
<!-- Node4&#45;&gt;Node5 -->
<g id="edge4" class="edge">
<title>Node4&#45;&gt;Node5</title>
<path fill="none" stroke="midnightblue" d="M408.78,-96.98C415.87,-93.87 423.16,-90.62 430,-87.5 447.29,-79.61 466.16,-70.69 482.71,-62.75"/>
<polygon fill="midnightblue" stroke="midnightblue" points="484.66,-65.7 492.15,-58.21 481.62,-59.39 484.66,-65.7"/>
</g>
<!-- Node6 -->
<g id="node6" class="node">
<title>Node6</title>
<g id="a_node6"><a xlink:href="classflow_1_1net__flow_1_1Peer__socket.html#a74f6fd527766fdeb05a96c5c03729a00" target="_top" xlink:title="The error code that perviously caused state() to become State::S_CLOSED, or success code if state is ...">
<polygon fill="white" stroke="black" points="466,-132.5 466,-158.5 593,-158.5 593,-132.5 466,-132.5"/>
<text text-anchor="start" x="474" y="-148.1" font-family="Helvetica,sans-Serif" font-size="8.00">flow::net_flow::Peer</text>
<text text-anchor="middle" x="529.5" y="-139.1" font-family="Helvetica,sans-Serif" font-size="8.00">_socket::disconnect_cause</text>
</a>
</g>
</g>
<!-- Node4&#45;&gt;Node6 -->
<g id="edge5" class="edge">
<title>Node4&#45;&gt;Node6</title>
<path fill="none" stroke="midnightblue" d="M422.34,-125C433.17,-127.09 444.71,-129.32 456.04,-131.5"/>
<polygon fill="midnightblue" stroke="midnightblue" points="455.43,-134.95 465.92,-133.41 456.76,-128.08 455.43,-134.95"/>
</g>
<!-- Node7 -->
<g id="node7" class="node">
<title>Node7</title>
<g id="a_node7"><a xlink:href="classflow_1_1net__flow_1_1Peer__socket.html#aa9e7e1be830c901bc7348742e79ba2e7" target="_top" xlink:title="Node that produced this Peer_socket.">
<polygon fill="white" stroke="black" points="481,-87.5 481,-113.5 578,-113.5 578,-87.5 481,-87.5"/>
<text text-anchor="start" x="489" y="-103.1" font-family="Helvetica,sans-Serif" font-size="8.00">flow::net_flow::Peer</text>
<text text-anchor="middle" x="529.5" y="-94.1" font-family="Helvetica,sans-Serif" font-size="8.00">_socket::node</text>
</a>
</g>
</g>
<!-- Node4&#45;&gt;Node7 -->
<g id="edge6" class="edge">
<title>Node4&#45;&gt;Node7</title>
<path fill="none" stroke="midnightblue" d="M422.34,-109.76C437.93,-108.4 454.98,-106.91 470.77,-105.54"/>
<polygon fill="midnightblue" stroke="midnightblue" points="471.28,-109 480.94,-104.65 470.67,-102.03 471.28,-109"/>
</g>
<!-- Node10&#45;&gt;Node5 -->
<g id="edge10" class="edge">
<title>Node10&#45;&gt;Node5</title>
<path fill="none" stroke="midnightblue" d="M268.1,-18.87C326.48,-23.72 411.74,-30.8 468.61,-35.52"/>
<polygon fill="midnightblue" stroke="midnightblue" points="468.63,-39.04 478.89,-36.38 469.21,-32.06 468.63,-39.04"/>
</g>
</g>
</svg>
