<?xml version="1.0" encoding="UTF-8" standalone="no"?>
<!DOCTYPE svg PUBLIC "-//W3C//DTD SVG 1.1//EN"
 "http://www.w3.org/Graphics/SVG/1.1/DTD/svg11.dtd">
<!-- Generated by graphviz version 2.43.0 (0)
 -->
<!-- Title: flow::net_flow::Peer_socket_receive_stats_accumulator::error_data_packet Pages: 1 -->
<svg width="876pt" height="117pt"
 viewBox="0.00 0.00 876.00 117.00" xmlns="http://www.w3.org/2000/svg" xmlns:xlink="http://www.w3.org/1999/xlink">
<g id="graph0" class="graph" transform="scale(1 1) rotate(0) translate(4 113)">
<title>flow::net_flow::Peer_socket_receive_stats_accumulator::error_data_packet</title>
<polygon fill="white" stroke="transparent" points="-4,4 -4,-113 872,-113 872,4 -4,4"/>
<!-- Node1 -->
<g id="node1" class="node">
<title>Node1</title>
<g id="a_node1"><a xlink:title="Indicates total_data_packet(), but there is some error about the sequence numbers so that they are no...">
<polygon fill="#bfbfbf" stroke="black" points="749,-21 749,-65 868,-65 868,-21 749,-21"/>
<text text-anchor="start" x="757" y="-54.6" font-family="Helvetica,sans-Serif" font-size="8.00">flow::net_flow::Peer</text>
<text text-anchor="start" x="757" y="-45.6" font-family="Helvetica,sans-Serif" font-size="8.00">_socket_receive_stats</text>
<text text-anchor="start" x="757" y="-36.6" font-family="Helvetica,sans-Serif" font-size="8.00">_accumulator::error_data</text>
<text text-anchor="middle" x="808.5" y="-27.6" font-family="Helvetica,sans-Serif" font-size="8.00">_packet</text>
</a>
</g>
</g>
<!-- Node2 -->
<g id="node2" class="node">
<title>Node2</title>
<g id="a_node2"><a xlink:href="classflow_1_1net__flow_1_1Node.html#a06e4cea2eefa1b06975864f09740c96b" target="_top" xlink:title="Handles a just&#45;deserialized, just&#45;demultiplexed, low&#45;level DATA packet delivered to the given peer so...">
<polygon fill="white" stroke="black" points="576,-55 576,-81 713,-81 713,-55 576,-55"/>
<text text-anchor="start" x="584" y="-70.6" font-family="Helvetica,sans-Serif" font-size="8.00">flow::net_flow::Node</text>
<text text-anchor="middle" x="644.5" y="-61.6" font-family="Helvetica,sans-Serif" font-size="8.00">::handle_data_to_established</text>
</a>
</g>
</g>
<!-- Node1&#45;&gt;Node2 -->
<g id="edge1" class="edge">
<title>Node1&#45;&gt;Node2</title>
<path fill="none" stroke="midnightblue" d="M738.46,-53.65C730.09,-54.95 721.54,-56.27 713.19,-57.55"/>
<polygon fill="midnightblue" stroke="midnightblue" points="739.21,-57.08 748.56,-52.1 738.14,-50.16 739.21,-57.08"/>
</g>
<!-- Node10 -->
<g id="node7" class="node">
<title>Node10</title>
<g id="a_node7"><a xlink:href="classflow_1_1net__flow_1_1Node.html#acfbd969c7a16b2ea8bb7f0db6fa454df" target="_top" xlink:title="Helper for handle_data_to_established() that categorizes the DATA packet received as either illegal; ...">
<polygon fill="white" stroke="black" points="589,-0.5 589,-35.5 700,-35.5 700,-0.5 589,-0.5"/>
<text text-anchor="start" x="597" y="-25.1" font-family="Helvetica,sans-Serif" font-size="8.00">flow::net_flow::Node</text>
<text text-anchor="start" x="597" y="-16.1" font-family="Helvetica,sans-Serif" font-size="8.00">::sock_categorize_data</text>
<text text-anchor="middle" x="644.5" y="-7.1" font-family="Helvetica,sans-Serif" font-size="8.00">_to_established</text>
</a>
</g>
</g>
<!-- Node1&#45;&gt;Node10 -->
<g id="edge9" class="edge">
<title>Node1&#45;&gt;Node10</title>
<path fill="none" stroke="midnightblue" d="M738.4,-32.34C725.6,-30.36 712.39,-28.32 700.09,-26.42"/>
<polygon fill="midnightblue" stroke="midnightblue" points="738.14,-35.84 748.56,-33.9 739.21,-28.92 738.14,-35.84"/>
</g>
<!-- Node3 -->
<g id="node3" class="node">
<title>Node3</title>
<g id="a_node3"><a xlink:href="classflow_1_1net__flow_1_1Node.html#a1699dfdaf3e5ebe1b1d715a9c306d116" target="_top" xlink:title="Handles a just&#45;received, not&#45;yet&#45;deserialized low&#45;level packet.">
<polygon fill="white" stroke="black" points="298,-55 298,-81 399,-81 399,-55 298,-55"/>
<text text-anchor="start" x="306" y="-70.6" font-family="Helvetica,sans-Serif" font-size="8.00">flow::net_flow::Node</text>
<text text-anchor="middle" x="348.5" y="-61.6" font-family="Helvetica,sans-Serif" font-size="8.00">::handle_incoming</text>
</a>
</g>
</g>
<!-- Node2&#45;&gt;Node3 -->
<g id="edge2" class="edge">
<title>Node2&#45;&gt;Node3</title>
<path fill="none" stroke="midnightblue" d="M565.72,-71.33C557.05,-71.61 548.33,-71.84 540,-72 493.34,-72.9 481.65,-73.09 435,-72 423.41,-71.73 410.95,-71.25 399.22,-70.72"/>
<polygon fill="midnightblue" stroke="midnightblue" points="565.99,-74.82 575.87,-70.99 565.76,-67.83 565.99,-74.82"/>
</g>
<!-- Node9 -->
<g id="node6" class="node">
<title>Node9</title>
<g id="a_node6"><a xlink:href="classflow_1_1net__flow_1_1Node.html#a29d02f9e302c7b06288ff1c644fa8d65" target="_top" xlink:title="Handles a just&#45;deserialized, just&#45;demultiplexed low&#45;level SYN_ACK_ACK packet delivered to the given p...">
<polygon fill="white" stroke="black" points="435,-27.5 435,-62.5 540,-62.5 540,-27.5 435,-27.5"/>
<text text-anchor="start" x="443" y="-52.1" font-family="Helvetica,sans-Serif" font-size="8.00">flow::net_flow::Node</text>
<text text-anchor="start" x="443" y="-43.1" font-family="Helvetica,sans-Serif" font-size="8.00">::handle_syn_ack_ack</text>
<text text-anchor="middle" x="487.5" y="-34.1" font-family="Helvetica,sans-Serif" font-size="8.00">_to_syn_rcvd</text>
</a>
</g>
</g>
<!-- Node2&#45;&gt;Node9 -->
<g id="edge7" class="edge">
<title>Node2&#45;&gt;Node9</title>
<path fill="none" stroke="midnightblue" d="M565.87,-56.48C557.24,-55.2 548.62,-53.92 540.43,-52.71"/>
<polygon fill="midnightblue" stroke="midnightblue" points="565.56,-59.97 575.97,-57.98 566.59,-53.05 565.56,-59.97"/>
</g>
<!-- Node4 -->
<g id="node4" class="node">
<title>Node4</title>
<g id="a_node4"><a xlink:href="classflow_1_1net__flow_1_1Node.html#a4368247d07e930bdd07ab8d2425c6de8" target="_top" xlink:title="Sets up handle_incoming(packet_data, low_lvl_remote_endpoint) to be called asynchronously after a spe...">
<polygon fill="white" stroke="black" points="149,-73.5 149,-108.5 262,-108.5 262,-73.5 149,-73.5"/>
<text text-anchor="start" x="157" y="-98.1" font-family="Helvetica,sans-Serif" font-size="8.00">flow::net_flow::Node</text>
<text text-anchor="start" x="157" y="-89.1" font-family="Helvetica,sans-Serif" font-size="8.00">::async_wait_latency</text>
<text text-anchor="middle" x="205.5" y="-80.1" font-family="Helvetica,sans-Serif" font-size="8.00">_then_handle_incoming</text>
</a>
</g>
</g>
<!-- Node3&#45;&gt;Node4 -->
<g id="edge3" class="edge">
<title>Node3&#45;&gt;Node4</title>
<path fill="none" stroke="midnightblue" d="M287.86,-77.73C279.29,-79.13 270.49,-80.56 262.01,-81.95"/>
<polygon fill="midnightblue" stroke="midnightblue" points="288.48,-81.17 297.79,-76.11 287.36,-74.26 288.48,-81.17"/>
</g>
<!-- Node5 -->
<g id="node5" class="node">
<title>Node5</title>
<g id="a_node5"><a xlink:href="classflow_1_1net__flow_1_1Node.html#a90ecbad1ff3a8d2fe4b3ad1c474f7513" target="_top" xlink:title="Helper for low_lvl_recv_and_handle() that calls handle_incoming() on the not&#45;yet&#45;deserialized low&#45;lev...">
<polygon fill="white" stroke="red" points="0,-50.5 0,-85.5 113,-85.5 113,-50.5 0,-50.5"/>
<text text-anchor="start" x="8" y="-75.1" font-family="Helvetica,sans-Serif" font-size="8.00">flow::net_flow::Node</text>
<text text-anchor="start" x="8" y="-66.1" font-family="Helvetica,sans-Serif" font-size="8.00">::handle_incoming_with</text>
<text text-anchor="middle" x="56.5" y="-57.1" font-family="Helvetica,sans-Serif" font-size="8.00">_simulation</text>
</a>
</g>
</g>
<!-- Node3&#45;&gt;Node5 -->
<g id="edge6" class="edge">
<title>Node3&#45;&gt;Node5</title>
<path fill="none" stroke="midnightblue" d="M287.75,-64.85C279.11,-64.5 270.33,-64.19 262,-64 211.79,-62.83 199.21,-62.9 149,-64 137.4,-64.25 124.97,-64.69 113.13,-65.18"/>
<polygon fill="midnightblue" stroke="midnightblue" points="287.64,-68.35 297.78,-65.28 287.94,-61.35 287.64,-68.35"/>
</g>
<!-- Node4&#45;&gt;Node5 -->
<g id="edge4" class="edge">
<title>Node4&#45;&gt;Node5</title>
<path fill="none" stroke="midnightblue" d="M138.92,-80.74C130.32,-79.39 121.57,-78.02 113.15,-76.71"/>
<polygon fill="midnightblue" stroke="midnightblue" points="138.5,-84.22 148.93,-82.3 139.59,-77.3 138.5,-84.22"/>
</g>
<!-- Node5&#45;&gt;Node5 -->
<g id="edge5" class="edge">
<title>Node5&#45;&gt;Node5</title>
<path fill="none" stroke="midnightblue" d="M82.27,-96.1C78.65,-100.77 70.06,-104 56.5,-104 34.24,-104 25.37,-95.31 29.89,-85.78"/>
<polygon fill="midnightblue" stroke="midnightblue" points="85.79,-96.03 83.11,-85.78 78.81,-95.47 85.79,-96.03"/>
</g>
<!-- Node9&#45;&gt;Node3 -->
<g id="edge8" class="edge">
<title>Node9&#45;&gt;Node3</title>
<path fill="none" stroke="midnightblue" d="M424.73,-55.37C416.15,-56.81 407.42,-58.28 399.1,-59.67"/>
<polygon fill="midnightblue" stroke="midnightblue" points="425.42,-58.8 434.71,-53.7 424.26,-51.9 425.42,-58.8"/>
</g>
</g>
</svg>
