<?xml version="1.0" encoding="UTF-8" standalone="no"?>
<!DOCTYPE svg PUBLIC "-//W3C//DTD SVG 1.1//EN"
 "http://www.w3.org/Graphics/SVG/1.1/DTD/svg11.dtd">
<!-- Generated by graphviz version 2.43.0 (0)
 -->
<!-- Title: flow::net_flow::Congestion_control_strategy::socket Pages: 1 -->
<svg width="540pt" height="303pt"
 viewBox="0.00 0.00 540.00 302.73" xmlns="http://www.w3.org/2000/svg" xmlns:xlink="http://www.w3.org/1999/xlink">
<g id="graph0" class="graph" transform="scale(1 1) rotate(0) translate(4 298.73)">
<title>flow::net_flow::Congestion_control_strategy::socket</title>
<polygon fill="white" stroke="transparent" points="-4,4 -4,-298.73 536,-298.73 536,4 -4,4"/>
<!-- Node1 -->
<g id="node1" class="node">
<title>Node1</title>
<g id="a_node1"><a xlink:title="Utility for subclasses that returns a handle to the containing Peer_socket.">
<polygon fill="#bfbfbf" stroke="black" points="407,-143 407,-169 532,-169 532,-143 407,-143"/>
<text text-anchor="start" x="415" y="-158.6" font-family="Helvetica,sans-Serif" font-size="8.00">flow::net_flow::Congestion</text>
<text text-anchor="middle" x="469.5" y="-149.6" font-family="Helvetica,sans-Serif" font-size="8.00">_control_strategy::socket</text>
</a>
</g>
</g>
<!-- Node2 -->
<g id="node2" class="node">
<title>Node2</title>
<g id="a_node2"><a xlink:href="classflow_1_1net__flow_1_1Congestion__control__classic__with__bandwidth__est.html#a9650086c28de7e9ed9fdaecaf9f183a6" target="_top" xlink:title="Returns the best bandwidth/latency&#45;based guess for what the current window (pipe) size should be.">
<polygon fill="white" stroke="black" points="185,-222.5 185,-257.5 371,-257.5 371,-222.5 185,-222.5"/>
<text text-anchor="start" x="193" y="-247.1" font-family="Helvetica,sans-Serif" font-size="8.00">flow::net_flow::Congestion</text>
<text text-anchor="start" x="193" y="-238.1" font-family="Helvetica,sans-Serif" font-size="8.00">_control_classic_with_bandwidth</text>
<text text-anchor="middle" x="278" y="-229.1" font-family="Helvetica,sans-Serif" font-size="8.00">_est::congestion_window_adjusted_bytes</text>
</a>
</g>
</g>
<!-- Node1&#45;&gt;Node2 -->
<g id="edge1" class="edge">
<title>Node1&#45;&gt;Node2</title>
<path fill="none" stroke="midnightblue" d="M437.4,-174.18C418.55,-184.8 393.81,-198.02 371,-208 359.23,-213.15 346.33,-218.06 334.03,-222.43"/>
<polygon fill="midnightblue" stroke="midnightblue" points="439.18,-177.2 446.14,-169.21 435.72,-171.11 439.18,-177.2"/>
</g>
<!-- Node3 -->
<g id="node3" class="node">
<title>Node3</title>
<g id="a_node3"><a xlink:href="classflow_1_1net__flow_1_1Congestion__control__classic__with__bandwidth__est.html#a3358f8b8700d5427a5163f2f480b2e8d" target="_top" xlink:title="Implements Congestion_control_strategy::on_drop_timeout() API.">
<polygon fill="white" stroke="black" points="0,-258.5 0,-293.5 149,-293.5 149,-258.5 0,-258.5"/>
<text text-anchor="start" x="8" y="-283.1" font-family="Helvetica,sans-Serif" font-size="8.00">flow::net_flow::Congestion</text>
<text text-anchor="start" x="8" y="-274.1" font-family="Helvetica,sans-Serif" font-size="8.00">_control_classic_with_bandwidth</text>
<text text-anchor="middle" x="74.5" y="-265.1" font-family="Helvetica,sans-Serif" font-size="8.00">_est::on_drop_timeout</text>
</a>
</g>
</g>
<!-- Node1&#45;&gt;Node3 -->
<g id="edge8" class="edge">
<title>Node1&#45;&gt;Node3</title>
<path fill="none" stroke="midnightblue" d="M456.76,-177.99C441.17,-204.61 410.88,-248.21 371,-267 301.12,-299.92 211.27,-297.24 149.09,-289.45"/>
<polygon fill="midnightblue" stroke="midnightblue" points="459.95,-179.45 461.83,-169.03 453.86,-176.01 459.95,-179.45"/>
</g>
<!-- Node4 -->
<g id="node4" class="node">
<title>Node4</title>
<g id="a_node4"><a xlink:href="classflow_1_1net__flow_1_1Congestion__control__classic__with__bandwidth__est.html#a942ce2561d6d2bbbb8faa8160a772416" target="_top" xlink:title="Implements Congestion_control_strategy::on_loss_event() API.">
<polygon fill="white" stroke="black" points="0,-185.5 0,-220.5 149,-220.5 149,-185.5 0,-185.5"/>
<text text-anchor="start" x="8" y="-210.1" font-family="Helvetica,sans-Serif" font-size="8.00">flow::net_flow::Congestion</text>
<text text-anchor="start" x="8" y="-201.1" font-family="Helvetica,sans-Serif" font-size="8.00">_control_classic_with_bandwidth</text>
<text text-anchor="middle" x="74.5" y="-192.1" font-family="Helvetica,sans-Serif" font-size="8.00">_est::on_loss_event</text>
</a>
</g>
</g>
<!-- Node1&#45;&gt;Node4 -->
<g id="edge11" class="edge">
<title>Node1&#45;&gt;Node4</title>
<path fill="none" stroke="midnightblue" d="M396.56,-164.6C326.28,-173.01 219.84,-185.74 149.02,-194.21"/>
<polygon fill="midnightblue" stroke="midnightblue" points="397.15,-168.06 406.66,-163.4 396.32,-161.11 397.15,-168.06"/>
</g>
<!-- Node5 -->
<g id="node5" class="node">
<title>Node5</title>
<g id="a_node5"><a xlink:href="classflow_1_1net__flow_1_1Congestion__control__classic.html#a6267f980c8a0f33f8213e1fa4b83ee16" target="_top" xlink:title="Returns the decay (as a percentage) to apply to the congestion window upon encounterling loss.">
<polygon fill="white" stroke="black" points="212,-92.5 212,-127.5 344,-127.5 344,-92.5 212,-92.5"/>
<text text-anchor="start" x="220" y="-117.1" font-family="Helvetica,sans-Serif" font-size="8.00">flow::net_flow::Congestion</text>
<text text-anchor="start" x="220" y="-108.1" font-family="Helvetica,sans-Serif" font-size="8.00">_control_classic::congestion</text>
<text text-anchor="middle" x="278" y="-99.1" font-family="Helvetica,sans-Serif" font-size="8.00">_window_decay</text>
</a>
</g>
</g>
<!-- Node1&#45;&gt;Node5 -->
<g id="edge4" class="edge">
<title>Node1&#45;&gt;Node5</title>
<path fill="none" stroke="midnightblue" d="M404.96,-140.58C385.35,-135.82 363.74,-130.57 344.04,-125.79"/>
<polygon fill="midnightblue" stroke="midnightblue" points="404.16,-143.98 414.7,-142.94 405.81,-137.18 404.16,-143.98"/>
</g>
<!-- Node6 -->
<g id="node6" class="node">
<title>Node6</title>
<g id="a_node6"><a xlink:href="classflow_1_1net__flow_1_1Congestion__control__classic.html#a59148ce4dafea4063b6992b9670909dc" target="_top" xlink:title="Implements Congestion_control_strategy::on_drop_timeout() API.">
<polygon fill="white" stroke="black" points="12,-125.5 12,-160.5 137,-160.5 137,-125.5 12,-125.5"/>
<text text-anchor="start" x="20" y="-150.1" font-family="Helvetica,sans-Serif" font-size="8.00">flow::net_flow::Congestion</text>
<text text-anchor="start" x="20" y="-141.1" font-family="Helvetica,sans-Serif" font-size="8.00">_control_classic::on_drop</text>
<text text-anchor="middle" x="74.5" y="-132.1" font-family="Helvetica,sans-Serif" font-size="8.00">_timeout</text>
</a>
</g>
</g>
<!-- Node1&#45;&gt;Node6 -->
<g id="edge7" class="edge">
<title>Node1&#45;&gt;Node6</title>
<path fill="none" stroke="midnightblue" d="M396.46,-153.62C322.18,-151.16 207.58,-147.37 137.3,-145.04"/>
<polygon fill="midnightblue" stroke="midnightblue" points="396.55,-157.12 406.66,-153.95 396.78,-150.13 396.55,-157.12"/>
</g>
<!-- Node7 -->
<g id="node7" class="node">
<title>Node7</title>
<g id="a_node7"><a xlink:href="classflow_1_1net__flow_1_1Congestion__control__classic.html#af2340e68dbdbb8d6065ae487b05074be" target="_top" xlink:title="Implements Congestion_control_strategy::on_loss_event() API.">
<polygon fill="white" stroke="black" points="2.5,-67 2.5,-93 146.5,-93 146.5,-67 2.5,-67"/>
<text text-anchor="start" x="10.5" y="-82.6" font-family="Helvetica,sans-Serif" font-size="8.00">flow::net_flow::Congestion</text>
<text text-anchor="middle" x="74.5" y="-73.6" font-family="Helvetica,sans-Serif" font-size="8.00">_control_classic::on_loss_event</text>
</a>
</g>
</g>
<!-- Node1&#45;&gt;Node7 -->
<g id="edge10" class="edge">
<title>Node1&#45;&gt;Node7</title>
<path fill="none" stroke="midnightblue" d="M449.4,-135.74C431.19,-118.01 402.02,-93.5 371,-83 297.5,-58.12 207.7,-61.59 146.52,-68.6"/>
<polygon fill="midnightblue" stroke="midnightblue" points="446.96,-138.26 456.5,-142.86 451.92,-133.31 446.96,-138.26"/>
</g>
<!-- Node8 -->
<g id="node8" class="node">
<title>Node8</title>
<g id="a_node8"><a xlink:href="classflow_1_1net__flow_1_1Congestion__control__classic__with__bandwidth__est.html#a8d0e32a67aa333ab15a5b166a2913260" target="_top" xlink:title="Implements Congestion_control_strategy::on_individual_ack() API.">
<polygon fill="white" stroke="black" points="203.5,-0.5 203.5,-35.5 352.5,-35.5 352.5,-0.5 203.5,-0.5"/>
<text text-anchor="start" x="211.5" y="-25.1" font-family="Helvetica,sans-Serif" font-size="8.00">flow::net_flow::Congestion</text>
<text text-anchor="start" x="211.5" y="-16.1" font-family="Helvetica,sans-Serif" font-size="8.00">_control_classic_with_bandwidth</text>
<text text-anchor="middle" x="278" y="-7.1" font-family="Helvetica,sans-Serif" font-size="8.00">_est::on_individual_ack</text>
</a>
</g>
</g>
<!-- Node1&#45;&gt;Node8 -->
<g id="edge9" class="edge">
<title>Node1&#45;&gt;Node8</title>
<path fill="none" stroke="midnightblue" d="M453.91,-134.66C436.65,-110.91 405.84,-72.88 371,-50 362.38,-44.34 352.64,-39.56 342.81,-35.56"/>
<polygon fill="midnightblue" stroke="midnightblue" points="451.19,-136.87 459.83,-143 456.89,-132.82 451.19,-136.87"/>
</g>
<!-- Node2&#45;&gt;Node3 -->
<g id="edge2" class="edge">
<title>Node2&#45;&gt;Node3</title>
<path fill="none" stroke="midnightblue" d="M174.72,-258.27C166.13,-259.81 157.55,-261.34 149.24,-262.83"/>
<polygon fill="midnightblue" stroke="midnightblue" points="175.57,-261.68 184.8,-256.47 174.34,-254.79 175.57,-261.68"/>
</g>
<!-- Node2&#45;&gt;Node4 -->
<g id="edge3" class="edge">
<title>Node2&#45;&gt;Node4</title>
<path fill="none" stroke="midnightblue" d="M174.72,-221.22C166.13,-219.64 157.55,-218.07 149.24,-216.54"/>
<polygon fill="midnightblue" stroke="midnightblue" points="174.33,-224.71 184.8,-223.07 175.6,-217.82 174.33,-224.71"/>
</g>
<!-- Node5&#45;&gt;Node6 -->
<g id="edge5" class="edge">
<title>Node5&#45;&gt;Node6</title>
<path fill="none" stroke="midnightblue" d="M201.89,-122.3C180.62,-125.78 157.72,-129.53 137.33,-132.87"/>
<polygon fill="midnightblue" stroke="midnightblue" points="202.55,-125.74 211.86,-120.67 201.42,-118.83 202.55,-125.74"/>
</g>
<!-- Node5&#45;&gt;Node7 -->
<g id="edge6" class="edge">
<title>Node5&#45;&gt;Node7</title>
<path fill="none" stroke="midnightblue" d="M201.95,-98.83C183.86,-96.13 164.59,-93.26 146.69,-90.6"/>
<polygon fill="midnightblue" stroke="midnightblue" points="201.45,-102.29 211.86,-100.3 202.48,-95.37 201.45,-102.29"/>
</g>
</g>
</svg>
