<?xml version="1.0" encoding="UTF-8" standalone="no"?>
<!DOCTYPE svg PUBLIC "-//W3C//DTD SVG 1.1//EN"
 "http://www.w3.org/Graphics/SVG/1.1/DTD/svg11.dtd">
<!-- Generated by graphviz version 2.43.0 (0)
 -->
<!-- Title: flow::cfg::Option_set::reject_candidate Pages: 1 -->
<svg width="270pt" height="44pt"
 viewBox="0.00 0.00 270.00 44.00" xmlns="http://www.w3.org/2000/svg" xmlns:xlink="http://www.w3.org/1999/xlink">
<g id="graph0" class="graph" transform="scale(1 1) rotate(0) translate(4 40)">
<title>flow::cfg::Option_set::reject_candidate</title>
<polygon fill="white" stroke="transparent" points="-4,4 -4,-40 266,-40 266,4 -4,4"/>
<!-- Node1 -->
<g id="node1" class="node">
<title>Node1</title>
<g id="a_node1"><a xlink:title="In PARSING state, returns to CANONICAL state, as if no parse attempts have occurred.">
<polygon fill="#bfbfbf" stroke="black" points="161,-5 161,-31 262,-31 262,-5 161,-5"/>
<text text-anchor="start" x="169" y="-20.6" font-family="Helvetica,sans-Serif" font-size="8.00">flow::cfg::Option_set</text>
<text text-anchor="middle" x="211.5" y="-11.6" font-family="Helvetica,sans-Serif" font-size="8.00">::reject_candidate</text>
</a>
</g>
</g>
<!-- Node2 -->
<g id="node2" class="node">
<title>Node2</title>
<g id="a_node2"><a xlink:href="classflow_1_1cfg_1_1Config__manager.html#a2c9f7e2dd8973d5ff191eee1c2394cae" target="_top" xlink:title="Helper that executes opt_set&#45;&gt;canonicalize_candidate() or opt_set&#45;&gt;reject_candidate().">
<polygon fill="white" stroke="black" points="0,-0.5 0,-35.5 125,-35.5 125,-0.5 0,-0.5"/>
<text text-anchor="start" x="8" y="-25.1" font-family="Helvetica,sans-Serif" font-size="8.00">flow::cfg::Config_manager</text>
<text text-anchor="start" x="8" y="-16.1" font-family="Helvetica,sans-Serif" font-size="8.00">::option_set_canonicalize</text>
<text text-anchor="middle" x="62.5" y="-7.1" font-family="Helvetica,sans-Serif" font-size="8.00">_or_reject</text>
</a>
</g>
</g>
<!-- Node1&#45;&gt;Node2 -->
<g id="edge1" class="edge">
<title>Node1&#45;&gt;Node2</title>
<path fill="none" stroke="midnightblue" d="M150.65,-18C142.27,-18 133.63,-18 125.21,-18"/>
<polygon fill="midnightblue" stroke="midnightblue" points="150.73,-21.5 160.73,-18 150.73,-14.5 150.73,-21.5"/>
</g>
</g>
</svg>
