<?xml version="1.0" encoding="UTF-8" standalone="no"?>
<!DOCTYPE svg PUBLIC "-//W3C//DTD SVG 1.1//EN"
 "http://www.w3.org/Graphics/SVG/1.1/DTD/svg11.dtd">
<!-- Generated by graphviz version 2.43.0 (0)
 -->
<!-- Title: flow::log::Buffer_logger Pages: 1 -->
<svg width="1275pt" height="578pt"
 viewBox="0.00 0.00 1275.00 578.00" xmlns="http://www.w3.org/2000/svg" xmlns:xlink="http://www.w3.org/1999/xlink">
<g id="graph0" class="graph" transform="scale(1 1) rotate(0) translate(4 574)">
<title>flow::log::Buffer_logger</title>
<polygon fill="white" stroke="transparent" points="-4,4 -4,-574 1271,-574 1271,4 -4,4"/>
<!-- Node1 -->
<g id="node1" class="node">
<title>Node1</title>
<g id="a_node1"><a xlink:title="An implementation of Logger that logs messages to an internal std::string buffer and provides read&#45;on...">
<polygon fill="#bfbfbf" stroke="black" points="1155,-242.5 1155,-259.5 1267,-259.5 1267,-242.5 1155,-242.5"/>
<text text-anchor="middle" x="1211" y="-249.1" font-family="Helvetica,sans-Serif" font-size="8.00">flow::log::Buffer_logger</text>
</a>
</g>
</g>
<!-- Node2 -->
<g id="node2" class="node">
<title>Node2</title>
<g id="a_node2"><a xlink:href="classflow_1_1log_1_1Logger.html" target="_top" xlink:title="Interface that the user should implement, passing the implementing Logger into logging classes (Flow&#39;...">
<polygon fill="white" stroke="black" points="975,-466.5 975,-483.5 1061,-483.5 1061,-466.5 975,-466.5"/>
<text text-anchor="middle" x="1018" y="-473.1" font-family="Helvetica,sans-Serif" font-size="8.00">flow::log::Logger</text>
</a>
</g>
</g>
<!-- Node2&#45;&gt;Node1 -->
<g id="edge1" class="edge">
<title>Node2&#45;&gt;Node1</title>
<path fill="none" stroke="midnightblue" d="M1032.89,-458.71C1070.67,-414.4 1174.36,-292.8 1202.74,-259.52"/>
<polygon fill="midnightblue" stroke="midnightblue" points="1030.08,-456.61 1026.25,-466.49 1035.41,-461.15 1030.08,-456.61"/>
</g>
<!-- Node3 -->
<g id="node3" class="node">
<title>Node3</title>
<g id="a_node3"><a xlink:href="classflow_1_1util_1_1Null__interface.html" target="_top" xlink:title="An empty interface, consisting of nothing but a default virtual destructor, intended as a boiler&#45;plat...">
<polygon fill="white" stroke="black" points="693.5,-552.5 693.5,-569.5 807.5,-569.5 807.5,-552.5 693.5,-552.5"/>
<text text-anchor="middle" x="750.5" y="-559.1" font-family="Helvetica,sans-Serif" font-size="8.00">flow::util::Null_interface</text>
</a>
</g>
</g>
<!-- Node3&#45;&gt;Node2 -->
<g id="edge2" class="edge">
<title>Node3&#45;&gt;Node2</title>
<path fill="none" stroke="midnightblue" d="M815.32,-550.54C855.95,-542.68 909.17,-530.12 954,-512 972.58,-504.49 992.22,-492.15 1004.54,-483.81"/>
<polygon fill="midnightblue" stroke="midnightblue" points="814.45,-547.14 805.27,-552.44 815.75,-554.02 814.45,-547.14"/>
</g>
<!-- Node4 -->
<g id="node4" class="node">
<title>Node4</title>
<g id="a_node4"><a xlink:href="classflow_1_1util_1_1Unique__id__holder.html" target="_top" xlink:title="Each object of this class stores (at construction) and returns (on demand) a numeric ID unique from a...">
<polygon fill="white" stroke="black" points="707,-507 707,-533 794,-533 794,-507 707,-507"/>
<text text-anchor="start" x="715" y="-522.6" font-family="Helvetica,sans-Serif" font-size="8.00">flow::util::Unique</text>
<text text-anchor="middle" x="750.5" y="-513.6" font-family="Helvetica,sans-Serif" font-size="8.00">_id_holder</text>
</a>
</g>
</g>
<!-- Node4&#45;&gt;Node2 -->
<g id="edge3" class="edge">
<title>Node4&#45;&gt;Node2</title>
<path fill="none" stroke="midnightblue" d="M804.29,-512.35C845.22,-506.25 903.32,-497.23 954,-488 961.47,-486.64 969.42,-485.08 977.06,-483.53"/>
<polygon fill="midnightblue" stroke="midnightblue" points="803.64,-508.91 794.26,-513.84 804.67,-515.83 803.64,-508.91"/>
</g>
<!-- Node5 -->
<g id="node5" class="node">
<title>Node5</title>
<g id="a_node5"><a xlink:title=" ">
<polygon fill="white" stroke="#bfbfbf" points="232,-527.5 232,-544.5 282,-544.5 282,-527.5 232,-527.5"/>
<text text-anchor="middle" x="257" y="-534.1" font-family="Helvetica,sans-Serif" font-size="8.00">uint64_t</text>
</a>
</g>
</g>
<!-- Node5&#45;&gt;Node4 -->
<g id="edge4" class="edge">
<title>Node5&#45;&gt;Node4</title>
<path fill="none" stroke="#9a32cd" stroke-dasharray="5,2" d="M292.28,-535.8C314.69,-535.64 344.58,-535.38 371,-535 502.57,-533.08 535.69,-537.48 667,-529 679.94,-528.16 693.98,-526.8 706.74,-525.39"/>
<polygon fill="#9a32cd" stroke="#9a32cd" points="292.22,-532.3 282.25,-535.87 292.27,-539.3 292.22,-532.3"/>
<text text-anchor="middle" x="457.5" y="-537.6" font-family="Helvetica,sans-Serif" font-size="8.00"> m_id</text>
</g>
<!-- Node6 -->
<g id="node6" class="node">
<title>Node6</title>
<g id="a_node6"><a xlink:title=" ">
<polygon fill="white" stroke="black" points="410,-495.5 410,-512.5 505,-512.5 505,-495.5 410,-495.5"/>
<text text-anchor="middle" x="457.5" y="-502.1" font-family="Helvetica,sans-Serif" font-size="8.00">std::atomic&lt; id_t &gt;</text>
</a>
</g>
</g>
<!-- Node5&#45;&gt;Node6 -->
<g id="edge6" class="edge">
<title>Node5&#45;&gt;Node6</title>
<path fill="none" stroke="#9a32cd" stroke-dasharray="5,2" d="M292.28,-530.47C324.81,-525.23 373.94,-517.31 409.99,-511.5"/>
<polygon fill="#9a32cd" stroke="#9a32cd" points="291.66,-527.03 282.34,-532.08 292.77,-533.94 291.66,-527.03"/>
<text text-anchor="middle" x="350.5" y="-526.6" font-family="Helvetica,sans-Serif" font-size="8.00"> ptr</text>
</g>
<!-- Node6&#45;&gt;Node4 -->
<g id="edge5" class="edge">
<title>Node6&#45;&gt;Node4</title>
<path fill="none" stroke="#9a32cd" stroke-dasharray="5,2" d="M515.39,-507.13C571.49,-510.21 656,-514.86 706.65,-517.64"/>
<polygon fill="#9a32cd" stroke="#9a32cd" points="515.43,-503.63 505.25,-506.57 515.05,-510.61 515.43,-503.63"/>
<text text-anchor="middle" x="605.5" y="-518.6" font-family="Helvetica,sans-Serif" font-size="8.00"> s_last_id</text>
</g>
<!-- Node7 -->
<g id="node7" class="node">
<title>Node7</title>
<g id="a_node7"><a xlink:title=" ">
<polygon fill="white" stroke="#bfbfbf" points="701,-289.5 701,-306.5 800,-306.5 800,-289.5 701,-289.5"/>
<text text-anchor="middle" x="750.5" y="-296.1" font-family="Helvetica,sans-Serif" font-size="8.00">boost::noncopyable</text>
</a>
</g>
</g>
<!-- Node7&#45;&gt;Node2 -->
<g id="edge7" class="edge">
<title>Node7&#45;&gt;Node2</title>
<path fill="none" stroke="#8b1a1a" d="M807.85,-308.5C863.69,-319.31 942.52,-335.83 954,-345 955.32,-346.05 998.86,-437.03 1012.77,-466.15"/>
<polygon fill="#8b1a1a" stroke="#8b1a1a" points="808.19,-305 797.71,-306.55 806.87,-311.87 808.19,-305"/>
</g>
<!-- Node19 -->
<g id="node19" class="node">
<title>Node19</title>
<g id="a_node19"><a xlink:href="classflow_1_1util_1_1String__ostream.html" target="_top" xlink:title="Similar to ostringstream but allows fast read&#45;only access directly into the std::string being written...">
<polygon fill="white" stroke="black" points="977,-346 977,-372 1059,-372 1059,-346 977,-346"/>
<text text-anchor="start" x="985" y="-361.6" font-family="Helvetica,sans-Serif" font-size="8.00">flow::util::String</text>
<text text-anchor="middle" x="1018" y="-352.6" font-family="Helvetica,sans-Serif" font-size="8.00">_ostream</text>
</a>
</g>
</g>
<!-- Node7&#45;&gt;Node19 -->
<g id="edge21" class="edge">
<title>Node7&#45;&gt;Node19</title>
<path fill="none" stroke="#8b1a1a" d="M810.24,-294.97C851.61,-294.72 907.66,-298.26 954,-315 972.57,-321.71 990.72,-335.37 1002.74,-345.7"/>
<polygon fill="#8b1a1a" stroke="#8b1a1a" points="810,-291.47 800.05,-295.11 810.1,-298.47 810,-291.47"/>
</g>
<!-- Node24 -->
<g id="node24" class="node">
<title>Node24</title>
<g id="a_node24"><a xlink:href="classflow_1_1log_1_1Ostream__log__msg__writer.html" target="_top" xlink:title="Utility class, each object of which wraps a given ostream and outputs discrete messages to it adorned...">
<polygon fill="white" stroke="black" points="972,-182 972,-208 1064,-208 1064,-182 972,-182"/>
<text text-anchor="start" x="980" y="-197.6" font-family="Helvetica,sans-Serif" font-size="8.00">flow::log::Ostream</text>
<text text-anchor="middle" x="1018" y="-188.6" font-family="Helvetica,sans-Serif" font-size="8.00">_log_msg_writer</text>
</a>
</g>
</g>
<!-- Node7&#45;&gt;Node24 -->
<g id="edge27" class="edge">
<title>Node7&#45;&gt;Node24</title>
<path fill="none" stroke="#8b1a1a" d="M809.85,-287.35C851.43,-278.4 907.88,-263.42 954,-241 958.93,-238.6 982.85,-220.82 999.75,-208.08"/>
<polygon fill="#8b1a1a" stroke="#8b1a1a" points="808.96,-283.96 799.89,-289.44 810.39,-290.81 808.96,-283.96"/>
</g>
<!-- Node8 -->
<g id="node8" class="node">
<title>Node8</title>
<g id="a_node8"><a xlink:title=" ">
<polygon fill="white" stroke="#bfbfbf" points="703.5,-462 703.5,-488 797.5,-488 797.5,-462 703.5,-462"/>
<text text-anchor="start" x="711.5" y="-477.6" font-family="Helvetica,sans-Serif" font-size="8.00">thread_specific_ptr</text>
<text text-anchor="middle" x="750.5" y="-468.6" font-family="Helvetica,sans-Serif" font-size="8.00">&lt; std::string &gt;</text>
</a>
</g>
</g>
<!-- Node8&#45;&gt;Node2 -->
<g id="edge8" class="edge">
<title>Node8&#45;&gt;Node2</title>
<path fill="none" stroke="#9a32cd" stroke-dasharray="5,2" d="M808.06,-475C858,-475 929.7,-475 974.78,-475"/>
<polygon fill="#9a32cd" stroke="#9a32cd" points="807.75,-471.5 797.75,-475 807.75,-478.5 807.75,-471.5"/>
<text text-anchor="middle" x="894" y="-477.6" font-family="Helvetica,sans-Serif" font-size="8.00"> s_this_thread_nickname_ptr</text>
</g>
<!-- Node9 -->
<g id="node9" class="node">
<title>Node9</title>
<g id="a_node9"><a xlink:href="classflow_1_1log_1_1Config.html" target="_top" xlink:title="Class used to configure the filtering and logging behavior of Loggers; its use in your custom Loggers...">
<polygon fill="white" stroke="black" points="708.5,-242.5 708.5,-259.5 792.5,-259.5 792.5,-242.5 708.5,-242.5"/>
<text text-anchor="middle" x="750.5" y="-249.1" font-family="Helvetica,sans-Serif" font-size="8.00">flow::log::Config</text>
</a>
</g>
</g>
<!-- Node9&#45;&gt;Node1 -->
<g id="edge9" class="edge">
<title>Node9&#45;&gt;Node1</title>
<path fill="none" stroke="#9a32cd" stroke-dasharray="5,2" d="M802.74,-251C889.66,-251 1065.25,-251 1154.79,-251"/>
<polygon fill="#9a32cd" stroke="#9a32cd" points="802.59,-247.5 792.59,-251 802.59,-254.5 802.59,-247.5"/>
<text text-anchor="middle" x="1018" y="-253.6" font-family="Helvetica,sans-Serif" font-size="8.00"> m_config</text>
</g>
<!-- Node9&#45;&gt;Node24 -->
<g id="edge32" class="edge">
<title>Node9&#45;&gt;Node24</title>
<path fill="none" stroke="#9a32cd" stroke-dasharray="5,2" d="M789.35,-239.65C803.31,-235.67 819.3,-231.37 834,-228 859.57,-222.14 926.41,-210.43 971.83,-202.65"/>
<polygon fill="#9a32cd" stroke="#9a32cd" points="788.23,-236.33 779.59,-242.47 790.17,-243.05 788.23,-236.33"/>
<text text-anchor="middle" x="894" y="-230.6" font-family="Helvetica,sans-Serif" font-size="8.00"> m_config</text>
</g>
<!-- Node10 -->
<g id="node10" class="node">
<title>Node10</title>
<g id="a_node10"><a xlink:title=" ">
<polygon fill="white" stroke="#bfbfbf" points="417,-202.5 417,-219.5 498,-219.5 498,-202.5 417,-202.5"/>
<text text-anchor="middle" x="457.5" y="-209.1" font-family="Helvetica,sans-Serif" font-size="8.00">static const Sev</text>
</a>
</g>
</g>
<!-- Node10&#45;&gt;Node9 -->
<g id="edge10" class="edge">
<title>Node10&#45;&gt;Node9</title>
<path fill="none" stroke="#9a32cd" stroke-dasharray="5,2" d="M508.37,-213.78C550.77,-216.63 613.17,-221.94 667,-231 684.29,-233.91 703.34,-238.44 718.77,-242.45"/>
<polygon fill="#9a32cd" stroke="#9a32cd" points="508.51,-210.29 498.3,-213.13 508.05,-217.27 508.51,-210.29"/>
<text text-anchor="start" x="557.5" y="-242.6" font-family="Helvetica,sans-Serif" font-size="8.00"> S_MOST_VERBOSE_SEV</text>
<text text-anchor="middle" x="605.5" y="-233.6" font-family="Helvetica,sans-Serif" font-size="8.00">_DEFAULT</text>
</g>
<!-- Node11 -->
<g id="node11" class="node">
<title>Node11</title>
<g id="a_node11"><a xlink:href="classbool.html" target="_top" xlink:title=" ">
<polygon fill="white" stroke="#bfbfbf" points="440,-166.5 440,-183.5 475,-183.5 475,-166.5 440,-166.5"/>
<text text-anchor="middle" x="457.5" y="-173.1" font-family="Helvetica,sans-Serif" font-size="8.00">bool</text>
</a>
</g>
</g>
<!-- Node11&#45;&gt;Node9 -->
<g id="edge11" class="edge">
<title>Node11&#45;&gt;Node9</title>
<path fill="none" stroke="#9a32cd" stroke-dasharray="5,2" d="M485.28,-171.32C526.86,-166.91 608.25,-163.64 667,-195 678.14,-200.95 675.22,-209.01 685,-217 698.04,-227.65 714.94,-236.41 728.17,-242.37"/>
<polygon fill="#9a32cd" stroke="#9a32cd" points="484.66,-167.86 475.13,-172.5 485.47,-174.82 484.66,-167.86"/>
<text text-anchor="start" x="557.5" y="-206.6" font-family="Helvetica,sans-Serif" font-size="8.00"> m_use_human_friendly</text>
<text text-anchor="middle" x="605.5" y="-197.6" font-family="Helvetica,sans-Serif" font-size="8.00">_time_stamps</text>
</g>
<!-- Node12 -->
<g id="node12" class="node">
<title>Node12</title>
<g id="a_node12"><a xlink:title=" ">
<polygon fill="white" stroke="#bfbfbf" points="398.5,-112.5 398.5,-147.5 516.5,-147.5 516.5,-112.5 398.5,-112.5"/>
<text text-anchor="start" x="406.5" y="-137.1" font-family="Helvetica,sans-Serif" font-size="8.00">unordered_map&lt; std</text>
<text text-anchor="start" x="406.5" y="-128.1" font-family="Helvetica,sans-Serif" font-size="8.00">::type_index, Component</text>
<text text-anchor="middle" x="457.5" y="-119.1" font-family="Helvetica,sans-Serif" font-size="8.00">_config &gt;</text>
</a>
</g>
</g>
<!-- Node12&#45;&gt;Node9 -->
<g id="edge12" class="edge">
<title>Node12&#45;&gt;Node9</title>
<path fill="none" stroke="#9a32cd" stroke-dasharray="5,2" d="M526.53,-116.88C571.42,-112.3 628.79,-114.8 667,-147 691.56,-167.7 665.09,-191.79 685,-217 694.42,-228.92 709.18,-237.13 722.2,-242.5"/>
<polygon fill="#9a32cd" stroke="#9a32cd" points="526.1,-113.41 516.57,-118.03 526.9,-120.36 526.1,-113.41"/>
<text text-anchor="start" x="558" y="-158.6" font-family="Helvetica,sans-Serif" font-size="8.00"> m_component_cfgs_by</text>
<text text-anchor="middle" x="605.5" y="-149.6" font-family="Helvetica,sans-Serif" font-size="8.00">_payload_type</text>
</g>
<!-- Node13 -->
<g id="node13" class="node">
<title>Node13</title>
<g id="a_node13"><a xlink:href="classflow_1_1log_1_1Config_1_1Atomic__raw__sev.html" target="_top" xlink:title="Trivial wrapper of atomic&lt;raw_sev_t&gt; which adds a couple of things to make it possible to construct,...">
<polygon fill="white" stroke="black" points="212,-370 212,-396 302,-396 302,-370 212,-370"/>
<text text-anchor="start" x="220" y="-385.6" font-family="Helvetica,sans-Serif" font-size="8.00">flow::log::Config::</text>
<text text-anchor="middle" x="257" y="-376.6" font-family="Helvetica,sans-Serif" font-size="8.00">Atomic_raw_sev</text>
</a>
</g>
</g>
<!-- Node13&#45;&gt;Node9 -->
<g id="edge13" class="edge">
<title>Node13&#45;&gt;Node9</title>
<path fill="none" stroke="#9a32cd" stroke-dasharray="5,2" d="M312.28,-389.16C411.19,-399.14 615.33,-413.5 667,-369 697.58,-342.67 659.82,-311.53 685,-280 692.59,-270.5 703.95,-264.01 715.04,-259.63"/>
<polygon fill="#9a32cd" stroke="#9a32cd" points="312.49,-385.67 302.19,-388.13 311.78,-392.63 312.49,-385.67"/>
<text text-anchor="middle" x="457.5" y="-402.6" font-family="Helvetica,sans-Serif" font-size="8.00"> m_verbosity_default</text>
</g>
<!-- Node16 -->
<g id="node16" class="node">
<title>Node16</title>
<g id="a_node16"><a xlink:title=" ">
<polygon fill="white" stroke="black" points="408.5,-338 408.5,-364 506.5,-364 506.5,-338 408.5,-338"/>
<text text-anchor="start" x="416.5" y="-353.6" font-family="Helvetica,sans-Serif" font-size="8.00">std::vector&lt; Atomic</text>
<text text-anchor="middle" x="457.5" y="-344.6" font-family="Helvetica,sans-Serif" font-size="8.00">_raw_sev &gt;</text>
</a>
</g>
</g>
<!-- Node13&#45;&gt;Node16 -->
<g id="edge17" class="edge">
<title>Node13&#45;&gt;Node16</title>
<path fill="none" stroke="#9a32cd" stroke-dasharray="5,2" d="M311.97,-374.3C342.09,-369.44 379.29,-363.45 408.4,-358.75"/>
<polygon fill="#9a32cd" stroke="#9a32cd" points="311.37,-370.85 302.05,-375.9 312.48,-377.76 311.37,-370.85"/>
<text text-anchor="middle" x="350.5" y="-373.6" font-family="Helvetica,sans-Serif" font-size="8.00"> elements</text>
</g>
<!-- Node14 -->
<g id="node14" class="node">
<title>Node14</title>
<g id="a_node14"><a xlink:title=" ">
<polygon fill="white" stroke="black" points="79,-374.5 79,-391.5 165,-391.5 165,-374.5 79,-374.5"/>
<text text-anchor="middle" x="122" y="-381.1" font-family="Helvetica,sans-Serif" font-size="8.00">std::atomic&lt; T &gt;</text>
</a>
</g>
</g>
<!-- Node14&#45;&gt;Node13 -->
<g id="edge14" class="edge">
<title>Node14&#45;&gt;Node13</title>
<path fill="none" stroke="midnightblue" d="M175.11,-383C187.27,-383 200.12,-383 211.9,-383"/>
<polygon fill="midnightblue" stroke="midnightblue" points="175.08,-379.5 165.08,-383 175.08,-386.5 175.08,-379.5"/>
</g>
<!-- Node15 -->
<g id="node15" class="node">
<title>Node15</title>
<g id="a_node15"><a xlink:title=" ">
<polygon fill="white" stroke="#bfbfbf" points="0,-374.5 0,-391.5 29,-391.5 29,-374.5 0,-374.5"/>
<text text-anchor="middle" x="14.5" y="-381.1" font-family="Helvetica,sans-Serif" font-size="8.00">T</text>
</a>
</g>
</g>
<!-- Node15&#45;&gt;Node14 -->
<g id="edge15" class="edge">
<title>Node15&#45;&gt;Node14</title>
<path fill="none" stroke="#9a32cd" stroke-dasharray="5,2" d="M39.53,-383C51.19,-383 65.54,-383 78.94,-383"/>
<polygon fill="#9a32cd" stroke="#9a32cd" points="39.29,-379.5 29.29,-383 39.29,-386.5 39.29,-379.5"/>
<text text-anchor="middle" x="54" y="-385.6" font-family="Helvetica,sans-Serif" font-size="8.00"> ptr</text>
</g>
<!-- Node16&#45;&gt;Node9 -->
<g id="edge16" class="edge">
<title>Node16&#45;&gt;Node9</title>
<path fill="none" stroke="#9a32cd" stroke-dasharray="5,2" d="M517.14,-356.16C562.38,-357.05 624.25,-351.19 667,-319 682.25,-307.52 671.43,-293.43 685,-280 694.42,-270.67 707.37,-264.05 719.2,-259.52"/>
<polygon fill="#9a32cd" stroke="#9a32cd" points="516.99,-352.66 506.88,-355.84 516.77,-359.65 516.99,-352.66"/>
<text text-anchor="middle" x="605.5" y="-358.6" font-family="Helvetica,sans-Serif" font-size="8.00"> m_verbosities_by_component</text>
</g>
<!-- Node17 -->
<g id="node17" class="node">
<title>Node17</title>
<g id="a_node17"><a xlink:title=" ">
<polygon fill="white" stroke="#bfbfbf" points="389,-293 389,-319 526,-319 526,-293 389,-293"/>
<text text-anchor="start" x="397" y="-308.6" font-family="Helvetica,sans-Serif" font-size="8.00">unordered_map&lt; component</text>
<text text-anchor="middle" x="457.5" y="-299.6" font-family="Helvetica,sans-Serif" font-size="8.00">_union_idx_t, std::string &gt;</text>
</a>
</g>
</g>
<!-- Node17&#45;&gt;Node9 -->
<g id="edge18" class="edge">
<title>Node17&#45;&gt;Node9</title>
<path fill="none" stroke="#9a32cd" stroke-dasharray="5,2" d="M536.24,-298.31C575.69,-293.63 624.2,-286.65 667,-277 687.22,-272.44 709.61,-265.24 725.96,-259.57"/>
<polygon fill="#9a32cd" stroke="#9a32cd" points="535.68,-294.86 526.15,-299.49 536.49,-301.81 535.68,-294.86"/>
<text text-anchor="start" x="552.5" y="-308.6" font-family="Helvetica,sans-Serif" font-size="8.00"> m_component_names_by</text>
<text text-anchor="middle" x="605.5" y="-299.6" font-family="Helvetica,sans-Serif" font-size="8.00">_union_idx</text>
</g>
<!-- Node18 -->
<g id="node18" class="node">
<title>Node18</title>
<g id="a_node18"><a xlink:title=" ">
<polygon fill="white" stroke="#bfbfbf" points="406,-238.5 406,-273.5 509,-273.5 509,-238.5 406,-238.5"/>
<text text-anchor="start" x="414" y="-263.1" font-family="Helvetica,sans-Serif" font-size="8.00">unordered_map&lt; std</text>
<text text-anchor="start" x="414" y="-254.1" font-family="Helvetica,sans-Serif" font-size="8.00">::string, component</text>
<text text-anchor="middle" x="457.5" y="-245.1" font-family="Helvetica,sans-Serif" font-size="8.00">_union_idx_t &gt;</text>
</a>
</g>
</g>
<!-- Node18&#45;&gt;Node9 -->
<g id="edge19" class="edge">
<title>Node18&#45;&gt;Node9</title>
<path fill="none" stroke="#9a32cd" stroke-dasharray="5,2" d="M519.45,-254.95C576.14,-253.98 659.05,-252.55 708.32,-251.71"/>
<polygon fill="#9a32cd" stroke="#9a32cd" points="519.13,-251.46 509.19,-255.13 519.25,-258.46 519.13,-251.46"/>
<text text-anchor="start" x="551.5" y="-266.6" font-family="Helvetica,sans-Serif" font-size="8.00"> m_component_union_idxs</text>
<text text-anchor="middle" x="605.5" y="-257.6" font-family="Helvetica,sans-Serif" font-size="8.00">_by_name</text>
</g>
<!-- Node19&#45;&gt;Node1 -->
<g id="edge20" class="edge">
<title>Node19&#45;&gt;Node1</title>
<path fill="none" stroke="#9a32cd" stroke-dasharray="5,2" d="M1050.96,-340.93C1092.63,-317.37 1163.86,-277.09 1194.85,-259.57"/>
<polygon fill="#9a32cd" stroke="#9a32cd" points="1049.02,-338 1042.04,-345.97 1052.47,-344.1 1049.02,-338"/>
<text text-anchor="middle" x="1109.5" y="-323.6" font-family="Helvetica,sans-Serif" font-size="8.00"> m_os</text>
</g>
<!-- Node20 -->
<g id="node20" class="node">
<title>Node20</title>
<g id="a_node20"><a xlink:title=" ">
<polygon fill="white" stroke="black" points="721,-425.5 721,-442.5 780,-442.5 780,-425.5 721,-425.5"/>
<text text-anchor="middle" x="750.5" y="-432.1" font-family="Helvetica,sans-Serif" font-size="8.00">std::string</text>
</a>
</g>
</g>
<!-- Node20&#45;&gt;Node19 -->
<g id="edge22" class="edge">
<title>Node20&#45;&gt;Node19</title>
<path fill="none" stroke="#9a32cd" stroke-dasharray="5,2" d="M790.2,-431.11C831.8,-427.05 899.31,-417.7 954,-397 970.25,-390.85 987.01,-380.51 999.16,-372.17"/>
<polygon fill="#9a32cd" stroke="#9a32cd" points="789.85,-427.63 780.21,-432.03 790.49,-434.6 789.85,-427.63"/>
<text text-anchor="middle" x="894" y="-437.6" font-family="Helvetica,sans-Serif" font-size="8.00"> m_own_target_str</text>
<text text-anchor="middle" x="894" y="-428.6" font-family="Helvetica,sans-Serif" font-size="8.00">m_target</text>
</g>
<!-- Node21 -->
<g id="node21" class="node">
<title>Node21</title>
<g id="a_node21"><a xlink:title=" ">
<polygon fill="white" stroke="black" points="412,-429 412,-455 503,-455 503,-429 412,-429"/>
<text text-anchor="start" x="420" y="-444.6" font-family="Helvetica,sans-Serif" font-size="8.00">std::basic_string&lt;</text>
<text text-anchor="middle" x="457.5" y="-435.6" font-family="Helvetica,sans-Serif" font-size="8.00"> Char &gt;</text>
</a>
</g>
</g>
<!-- Node21&#45;&gt;Node20 -->
<g id="edge23" class="edge">
<title>Node21&#45;&gt;Node20</title>
<path fill="none" stroke="midnightblue" d="M513.34,-440.49C574.99,-438.8 672.77,-436.11 720.86,-434.79"/>
<polygon fill="midnightblue" stroke="midnightblue" points="512.91,-437 503.01,-440.78 513.11,-444 512.91,-437"/>
</g>
<!-- Node22 -->
<g id="node22" class="node">
<title>Node22</title>
<g id="a_node22"><a xlink:title=" ">
<polygon fill="white" stroke="#bfbfbf" points="703.5,-380 703.5,-406 797.5,-406 797.5,-380 703.5,-380"/>
<text text-anchor="start" x="711.5" y="-395.6" font-family="Helvetica,sans-Serif" font-size="8.00">back_insert_device</text>
<text text-anchor="middle" x="750.5" y="-386.6" font-family="Helvetica,sans-Serif" font-size="8.00">&lt; std::string &gt;</text>
</a>
</g>
</g>
<!-- Node22&#45;&gt;Node19 -->
<g id="edge24" class="edge">
<title>Node22&#45;&gt;Node19</title>
<path fill="none" stroke="#9a32cd" stroke-dasharray="5,2" d="M807.8,-386.93C848.48,-382.4 904.7,-375.83 954,-369 961.35,-367.98 969.17,-366.81 976.71,-365.64"/>
<polygon fill="#9a32cd" stroke="#9a32cd" points="807.37,-383.46 797.81,-388.04 808.14,-390.41 807.37,-383.46"/>
<text text-anchor="middle" x="894" y="-386.6" font-family="Helvetica,sans-Serif" font-size="8.00"> m_target_inserter</text>
</g>
<!-- Node23 -->
<g id="node23" class="node">
<title>Node23</title>
<g id="a_node23"><a xlink:title=" ">
<polygon fill="white" stroke="#bfbfbf" points="688.5,-325.5 688.5,-360.5 812.5,-360.5 812.5,-325.5 688.5,-325.5"/>
<text text-anchor="start" x="696.5" y="-350.1" font-family="Helvetica,sans-Serif" font-size="8.00">stream&lt; boost::iostreams</text>
<text text-anchor="start" x="696.5" y="-341.1" font-family="Helvetica,sans-Serif" font-size="8.00">::back_insert_device&lt; std</text>
<text text-anchor="middle" x="750.5" y="-332.1" font-family="Helvetica,sans-Serif" font-size="8.00">::string &gt; &gt;</text>
</a>
</g>
</g>
<!-- Node23&#45;&gt;Node19 -->
<g id="edge25" class="edge">
<title>Node23&#45;&gt;Node19</title>
<path fill="none" stroke="#9a32cd" stroke-dasharray="5,2" d="M823.03,-347.31C872.3,-350.28 935.99,-354.12 976.68,-356.57"/>
<polygon fill="#9a32cd" stroke="#9a32cd" points="822.94,-343.8 812.74,-346.69 822.52,-350.79 822.94,-343.8"/>
<text text-anchor="middle" x="894" y="-358.6" font-family="Helvetica,sans-Serif" font-size="8.00"> m_target_appender_ostream</text>
</g>
<!-- Node24&#45;&gt;Node1 -->
<g id="edge26" class="edge">
<title>Node24&#45;&gt;Node1</title>
<path fill="none" stroke="#9a32cd" stroke-dasharray="5,2" d="M1074.03,-209.99C1093.91,-215.51 1116.5,-221.91 1137,-228 1152.54,-232.62 1169.85,-238.06 1183.71,-242.49"/>
<polygon fill="#9a32cd" stroke="#9a32cd" points="1074.78,-206.57 1064.21,-207.27 1072.91,-213.31 1074.78,-206.57"/>
<text text-anchor="middle" x="1109.5" y="-230.6" font-family="Helvetica,sans-Serif" font-size="8.00"> m_os_writer</text>
</g>
<!-- Node25 -->
<g id="node25" class="node">
<title>Node25</title>
<g id="a_node25"><a xlink:title=" ">
<polygon fill="white" stroke="black" points="692.5,-109 692.5,-135 808.5,-135 808.5,-109 692.5,-109"/>
<text text-anchor="start" x="700.5" y="-124.6" font-family="Helvetica,sans-Serif" font-size="8.00">std::vector&lt; flow::</text>
<text text-anchor="middle" x="750.5" y="-115.6" font-family="Helvetica,sans-Serif" font-size="8.00">util::Basic_string_view &gt;</text>
</a>
</g>
</g>
<!-- Node25&#45;&gt;Node24 -->
<g id="edge28" class="edge">
<title>Node25&#45;&gt;Node24</title>
<path fill="none" stroke="#9a32cd" stroke-dasharray="5,2" d="M818.93,-124.87C859.62,-128.7 911.61,-137.41 954,-157 963.45,-161.37 963.31,-166.26 972,-172 977.27,-175.48 983.14,-178.82 988.85,-181.83"/>
<polygon fill="#9a32cd" stroke="#9a32cd" points="819.11,-121.37 808.85,-124 818.51,-128.34 819.11,-121.37"/>
<text text-anchor="middle" x="894" y="-159.6" font-family="Helvetica,sans-Serif" font-size="8.00"> S_SEV_STRS</text>
</g>
<!-- Node26 -->
<g id="node26" class="node">
<title>Node26</title>
<g id="a_node26"><a xlink:href="classflow_1_1util_1_1Basic__string__view.html" target="_top" xlink:title="Essentially alias for a C++17&#45;conforming string&#45;view class template, which is a very lightweight std:...">
<polygon fill="white" stroke="black" points="404,-22 404,-48 511,-48 511,-22 404,-22"/>
<text text-anchor="start" x="412" y="-37.6" font-family="Helvetica,sans-Serif" font-size="8.00">flow::util::Basic_string</text>
<text text-anchor="middle" x="457.5" y="-28.6" font-family="Helvetica,sans-Serif" font-size="8.00">_view&lt; Ch, Traits &gt;</text>
</a>
</g>
</g>
<!-- Node26&#45;&gt;Node25 -->
<g id="edge29" class="edge">
<title>Node26&#45;&gt;Node25</title>
<path fill="none" stroke="#9a32cd" stroke-dasharray="5,2" d="M521.3,-30.26C565.73,-30.05 624.69,-36.46 667,-66 680.7,-75.56 672.3,-88.15 685,-99 689.61,-102.94 694.94,-106.22 700.53,-108.95"/>
<polygon fill="#9a32cd" stroke="#9a32cd" points="521.13,-26.77 511.19,-30.42 521.25,-33.76 521.13,-26.77"/>
<text text-anchor="middle" x="605.5" y="-68.6" font-family="Helvetica,sans-Serif" font-size="8.00"> elements</text>
</g>
<!-- Node27 -->
<g id="node27" class="node">
<title>Node27</title>
<g id="a_node27"><a xlink:title=" ">
<polygon fill="white" stroke="black" points="203.5,-22 203.5,-48 310.5,-48 310.5,-22 203.5,-22"/>
<text text-anchor="start" x="211.5" y="-37.6" font-family="Helvetica,sans-Serif" font-size="8.00">std::basic_string_view</text>
<text text-anchor="middle" x="257" y="-28.6" font-family="Helvetica,sans-Serif" font-size="8.00">&lt; Char &gt;</text>
</a>
</g>
</g>
<!-- Node27&#45;&gt;Node26 -->
<g id="edge30" class="edge">
<title>Node27&#45;&gt;Node26</title>
<path fill="none" stroke="midnightblue" d="M320.71,-35C347.48,-35 378.38,-35 403.93,-35"/>
<polygon fill="midnightblue" stroke="midnightblue" points="320.67,-31.5 310.67,-35 320.67,-38.5 320.67,-31.5"/>
</g>
<!-- Node28 -->
<g id="node28" class="node">
<title>Node28</title>
<g id="a_node28"><a xlink:title=" ">
<polygon fill="white" stroke="#bfbfbf" points="721,-72.5 721,-89.5 780,-89.5 780,-72.5 721,-72.5"/>
<text text-anchor="middle" x="750.5" y="-79.1" font-family="Helvetica,sans-Serif" font-size="8.00">time_point</text>
</a>
</g>
</g>
<!-- Node28&#45;&gt;Node24 -->
<g id="edge31" class="edge">
<title>Node28&#45;&gt;Node24</title>
<path fill="none" stroke="#9a32cd" stroke-dasharray="5,2" d="M790.43,-76.13C835.32,-72.78 908.71,-74.62 954,-114 974.37,-131.71 954.62,-151.35 972,-172 975.28,-175.89 979.38,-179.2 983.76,-181.99"/>
<polygon fill="#9a32cd" stroke="#9a32cd" points="789.88,-72.66 780.22,-77.02 790.48,-79.64 789.88,-72.66"/>
<text text-anchor="middle" x="894" y="-116.6" font-family="Helvetica,sans-Serif" font-size="8.00"> S_POSIX_EPOCH</text>
</g>
<!-- Node29 -->
<g id="node29" class="node">
<title>Node29</title>
<g id="a_node29"><a xlink:href="classflow_1_1Function.html" target="_top" xlink:title=" ">
<polygon fill="white" stroke="#bfbfbf" points="685,-0.5 685,-53.5 816,-53.5 816,-0.5 685,-0.5"/>
<text text-anchor="start" x="693" y="-43.1" font-family="Helvetica,sans-Serif" font-size="8.00">flow::Function&lt; void</text>
<text text-anchor="start" x="693" y="-34.1" font-family="Helvetica,sans-Serif" font-size="8.00">(flow::log::Ostream_log</text>
<text text-anchor="start" x="693" y="-25.1" font-family="Helvetica,sans-Serif" font-size="8.00">_msg_writer *, const flow</text>
<text text-anchor="start" x="693" y="-16.1" font-family="Helvetica,sans-Serif" font-size="8.00">::log::Msg_metadata &amp;, flow</text>
<text text-anchor="middle" x="750.5" y="-7.1" font-family="Helvetica,sans-Serif" font-size="8.00">::util::Basic_string_view)&gt;</text>
</a>
</g>
</g>
<!-- Node29&#45;&gt;Node24 -->
<g id="edge33" class="edge">
<title>Node29&#45;&gt;Node24</title>
<path fill="none" stroke="#9a32cd" stroke-dasharray="5,2" d="M826.6,-20.58C869.61,-21.2 921.36,-29.96 954,-63 988.51,-97.93 943.03,-132.35 972,-172 974.8,-175.83 978.41,-179.06 982.38,-181.78"/>
<polygon fill="#9a32cd" stroke="#9a32cd" points="826.44,-17.08 816.44,-20.58 826.44,-24.08 826.44,-17.08"/>
<text text-anchor="middle" x="894" y="-65.6" font-family="Helvetica,sans-Serif" font-size="8.00"> m_do_log_func</text>
</g>
<!-- Node30 -->
<g id="node30" class="node">
<title>Node30</title>
<g id="a_node30"><a xlink:title=" ">
<polygon fill="white" stroke="black" points="716,-190.5 716,-207.5 785,-207.5 785,-190.5 716,-190.5"/>
<text text-anchor="middle" x="750.5" y="-197.1" font-family="Helvetica,sans-Serif" font-size="8.00">std::ostream</text>
</a>
</g>
</g>
<!-- Node30&#45;&gt;Node24 -->
<g id="edge34" class="edge">
<title>Node30&#45;&gt;Node24</title>
<path fill="none" stroke="#9a32cd" stroke-dasharray="5,2" d="M795.38,-197.15C807.86,-196.7 821.46,-196.26 834,-196 881.01,-195.02 934.83,-194.84 971.87,-194.86"/>
<polygon fill="#9a32cd" stroke="#9a32cd" points="795.07,-193.66 785.21,-197.54 795.34,-200.66 795.07,-193.66"/>
<text text-anchor="middle" x="894" y="-198.6" font-family="Helvetica,sans-Serif" font-size="8.00"> m_os</text>
</g>
<!-- Node31 -->
<g id="node31" class="node">
<title>Node31</title>
<g id="a_node31"><a xlink:title=" ">
<polygon fill="white" stroke="black" points="410,-67 410,-93 505,-93 505,-67 410,-67"/>
<text text-anchor="start" x="418" y="-82.6" font-family="Helvetica,sans-Serif" font-size="8.00">std::basic_ostream</text>
<text text-anchor="middle" x="457.5" y="-73.6" font-family="Helvetica,sans-Serif" font-size="8.00">&lt; Char &gt;</text>
</a>
</g>
</g>
<!-- Node31&#45;&gt;Node30 -->
<g id="edge35" class="edge">
<title>Node31&#45;&gt;Node30</title>
<path fill="none" stroke="midnightblue" d="M515.59,-80.64C569.52,-82.45 645.29,-88.52 667,-108 691.87,-130.32 661.73,-157.01 685,-181 693.09,-189.34 704.71,-193.92 715.85,-196.39"/>
<polygon fill="midnightblue" stroke="midnightblue" points="515.56,-77.14 505.46,-80.34 515.35,-84.13 515.56,-77.14"/>
</g>
<!-- Node32 -->
<g id="node32" class="node">
<title>Node32</title>
<g id="a_node32"><a xlink:title=" ">
<polygon fill="white" stroke="red" points="202,-71.5 202,-88.5 312,-88.5 312,-71.5 202,-71.5"/>
<text text-anchor="middle" x="257" y="-78.1" font-family="Helvetica,sans-Serif" font-size="8.00">std::basic_ios&lt; Char &gt;</text>
</a>
</g>
</g>
<!-- Node32&#45;&gt;Node31 -->
<g id="edge36" class="edge">
<title>Node32&#45;&gt;Node31</title>
<path fill="none" stroke="midnightblue" d="M322.5,-80C350.93,-80 383.72,-80 409.74,-80"/>
<polygon fill="midnightblue" stroke="midnightblue" points="322.24,-76.5 312.24,-80 322.24,-83.5 322.24,-76.5"/>
</g>
<!-- Node34 -->
<g id="node33" class="node">
<title>Node34</title>
<g id="a_node33"><a xlink:title=" ">
<polygon fill="white" stroke="#bfbfbf" points="716.5,-154.5 716.5,-171.5 784.5,-171.5 784.5,-154.5 716.5,-154.5"/>
<text text-anchor="middle" x="750.5" y="-161.1" font-family="Helvetica,sans-Serif" font-size="8.00">ios_all_saver</text>
</a>
</g>
</g>
<!-- Node34&#45;&gt;Node24 -->
<g id="edge37" class="edge">
<title>Node34&#45;&gt;Node24</title>
<path fill="none" stroke="#9a32cd" stroke-dasharray="5,2" d="M794.81,-165.68C835.93,-168.55 899.39,-173.83 954,-182 959.74,-182.86 965.75,-183.91 971.68,-185.03"/>
<polygon fill="#9a32cd" stroke="#9a32cd" points="794.82,-162.17 784.6,-164.98 794.34,-169.16 794.82,-162.17"/>
<text text-anchor="middle" x="894" y="-184.6" font-family="Helvetica,sans-Serif" font-size="8.00"> m_clean_os_state</text>
</g>
<!-- Node35 -->
<g id="node34" class="node">
<title>Node35</title>
<g id="a_node34"><a xlink:title=" ">
<polygon fill="white" stroke="#bfbfbf" points="997.5,-145.5 997.5,-162.5 1038.5,-162.5 1038.5,-145.5 997.5,-145.5"/>
<text text-anchor="middle" x="1018" y="-152.1" font-family="Helvetica,sans-Serif" font-size="8.00">mutex</text>
</a>
</g>
</g>
<!-- Node35&#45;&gt;Node1 -->
<g id="edge38" class="edge">
<title>Node35&#45;&gt;Node1</title>
<path fill="none" stroke="#9a32cd" stroke-dasharray="5,2" d="M1048.59,-163.34C1072.99,-171.55 1108.15,-184.59 1137,-200 1160.45,-212.53 1185.34,-231.25 1199.15,-242.18"/>
<polygon fill="#9a32cd" stroke="#9a32cd" points="1049.43,-159.93 1038.84,-160.12 1047.24,-166.58 1049.43,-159.93"/>
<text text-anchor="middle" x="1109.5" y="-202.6" font-family="Helvetica,sans-Serif" font-size="8.00"> m_log_mutex</text>
</g>
</g>
</svg>
