<?xml version="1.0" encoding="UTF-8" standalone="no"?>
<!DOCTYPE svg PUBLIC "-//W3C//DTD SVG 1.1//EN"
 "http://www.w3.org/Graphics/SVG/1.1/DTD/svg11.dtd">
<!-- Generated by graphviz version 2.43.0 (0)
 -->
<!-- Title: flow::net_flow::Node::sock_pacing_new_packet_ready Pages: 1 -->
<svg width="960pt" height="165pt"
 viewBox="0.00 0.00 960.00 165.00" xmlns="http://www.w3.org/2000/svg" xmlns:xlink="http://www.w3.org/1999/xlink">
<g id="graph0" class="graph" transform="scale(1 1) rotate(0) translate(4 161)">
<title>flow::net_flow::Node::sock_pacing_new_packet_ready</title>
<polygon fill="white" stroke="transparent" points="-4,4 -4,-161 956,-161 956,4 -4,4"/>
<!-- Node1 -->
<g id="node1" class="node">
<title>Node1</title>
<g id="a_node1"><a xlink:title="async_sock_low_lvl_packet_send_paced() pacing helper: Handles a DATA or ACK packet that was just pass...">
<polygon fill="#bfbfbf" stroke="black" points="0,-42.5 0,-68.5 152,-68.5 152,-42.5 0,-42.5"/>
<text text-anchor="start" x="8" y="-58.1" font-family="Helvetica,sans-Serif" font-size="8.00">flow::net_flow::Node</text>
<text text-anchor="middle" x="76" y="-49.1" font-family="Helvetica,sans-Serif" font-size="8.00">::sock_pacing_new_packet_ready</text>
</a>
</g>
</g>
<!-- Node2 -->
<g id="node2" class="node">
<title>Node2</title>
<g id="a_node2"><a xlink:href="classflow_1_1net__flow_1_1Node.html#a0db2bb587e0407077b11368df075f0ff" target="_top" xlink:title="async_low_lvl_packet_send_impl() wrapper to call when packet is to be sent to the remote side of the ...">
<polygon fill="white" stroke="black" points="360,-84 360,-119 461,-119 461,-84 360,-84"/>
<text text-anchor="start" x="368" y="-108.6" font-family="Helvetica,sans-Serif" font-size="8.00">flow::net_flow::Node</text>
<text text-anchor="start" x="368" y="-99.6" font-family="Helvetica,sans-Serif" font-size="8.00">::async_sock_low_lvl</text>
<text text-anchor="middle" x="410.5" y="-90.6" font-family="Helvetica,sans-Serif" font-size="8.00">_packet_send</text>
</a>
</g>
</g>
<!-- Node1&#45;&gt;Node2 -->
<g id="edge1" class="edge">
<title>Node1&#45;&gt;Node2</title>
<path fill="none" stroke="midnightblue" d="M152.03,-65.88C211.9,-74.16 294.62,-85.61 349.98,-93.27"/>
<polygon fill="midnightblue" stroke="midnightblue" points="349.6,-96.75 359.99,-94.65 350.56,-89.81 349.6,-96.75"/>
</g>
<!-- Node9 -->
<g id="node9" class="node">
<title>Node9</title>
<g id="a_node9"><a xlink:href="classflow_1_1net__flow_1_1Node.html#afb88dafa8ec5c1b412de86dfdccd9c8f" target="_top" xlink:title="async_sock_low_lvl_packet_send_paced() pacing helper: Resets the socket&#39;s Send_pacing_data structure ...">
<polygon fill="white" stroke="black" points="515,-38.5 515,-64.5 653,-64.5 653,-38.5 515,-38.5"/>
<text text-anchor="start" x="523" y="-54.1" font-family="Helvetica,sans-Serif" font-size="8.00">flow::net_flow::Node</text>
<text text-anchor="middle" x="584" y="-45.1" font-family="Helvetica,sans-Serif" font-size="8.00">::sock_pacing_new_time_slice</text>
</a>
</g>
</g>
<!-- Node1&#45;&gt;Node9 -->
<g id="edge10" class="edge">
<title>Node1&#45;&gt;Node9</title>
<path fill="none" stroke="midnightblue" d="M152.21,-54.91C246.77,-54.16 408.34,-52.88 504.45,-52.12"/>
<polygon fill="midnightblue" stroke="midnightblue" points="504.72,-55.62 514.69,-52.04 504.66,-48.62 504.72,-55.62"/>
</g>
<!-- Node10 -->
<g id="node10" class="node">
<title>Node10</title>
<g id="a_node10"><a xlink:href="classflow_1_1net__flow_1_1Node.html#a73cfaa8e5ed7fe845f759a30423a9cbf" target="_top" xlink:title="async_sock_low_lvl_packet_send_paced() pacing helper: Given that we are currently in the pacing time ...">
<polygon fill="white" stroke="black" points="188,-0.5 188,-26.5 306,-26.5 306,-0.5 188,-0.5"/>
<text text-anchor="start" x="196" y="-16.1" font-family="Helvetica,sans-Serif" font-size="8.00">flow::net_flow::Node</text>
<text text-anchor="middle" x="247" y="-7.1" font-family="Helvetica,sans-Serif" font-size="8.00">::sock_pacing_process_q</text>
</a>
</g>
</g>
<!-- Node1&#45;&gt;Node10 -->
<g id="edge12" class="edge">
<title>Node1&#45;&gt;Node10</title>
<path fill="none" stroke="midnightblue" d="M129.55,-42.44C146.71,-38.17 165.95,-33.39 183.76,-28.97"/>
<polygon fill="midnightblue" stroke="midnightblue" points="184.63,-32.36 193.49,-26.55 182.94,-25.57 184.63,-32.36"/>
</g>
<!-- Node3 -->
<g id="node3" class="node">
<title>Node3</title>
<g id="a_node3"><a xlink:href="classflow_1_1net__flow_1_1Node.html#a9f302fe63e36f72931e1a759b0aaaed4" target="_top" xlink:title="Takes given low&#45;level packet structure, serializes it, and initiates asynchronous send of these data ...">
<polygon fill="white" stroke="black" points="529.5,-84 529.5,-119 638.5,-119 638.5,-84 529.5,-84"/>
<text text-anchor="start" x="537.5" y="-108.6" font-family="Helvetica,sans-Serif" font-size="8.00">flow::net_flow::Node</text>
<text text-anchor="start" x="537.5" y="-99.6" font-family="Helvetica,sans-Serif" font-size="8.00">::async_low_lvl_packet</text>
<text text-anchor="middle" x="584" y="-90.6" font-family="Helvetica,sans-Serif" font-size="8.00">_send_impl</text>
</a>
</g>
</g>
<!-- Node2&#45;&gt;Node3 -->
<g id="edge2" class="edge">
<title>Node2&#45;&gt;Node3</title>
<path fill="none" stroke="midnightblue" d="M461.1,-101.5C479.22,-101.5 499.96,-101.5 519.14,-101.5"/>
<polygon fill="midnightblue" stroke="midnightblue" points="519.31,-105 529.31,-101.5 519.31,-98 519.31,-105"/>
</g>
<!-- Node4 -->
<g id="node4" class="node">
<title>Node4</title>
<g id="a_node4"><a xlink:href="classflow_1_1net__flow_1_1Node.html#a0055a25892990585561e69ceb02214d5" target="_top" xlink:title="Completion handler for async_low_lvl_packet_send_impl(); called when the packet is either successfull...">
<polygon fill="white" stroke="black" points="697.5,-130.5 697.5,-156.5 800.5,-156.5 800.5,-130.5 697.5,-130.5"/>
<text text-anchor="start" x="705.5" y="-146.1" font-family="Helvetica,sans-Serif" font-size="8.00">flow::net_flow::Node</text>
<text text-anchor="middle" x="749" y="-137.1" font-family="Helvetica,sans-Serif" font-size="8.00">::low_lvl_packet_sent</text>
</a>
</g>
</g>
<!-- Node3&#45;&gt;Node4 -->
<g id="edge3" class="edge">
<title>Node3&#45;&gt;Node4</title>
<path fill="none" stroke="midnightblue" d="M638.82,-115.37C654.49,-119.41 671.7,-123.84 687.74,-127.97"/>
<polygon fill="midnightblue" stroke="midnightblue" points="686.99,-131.39 697.55,-130.5 688.74,-124.61 686.99,-131.39"/>
</g>
<!-- Node7 -->
<g id="node7" class="node">
<title>Node7</title>
<g id="a_node7"><a xlink:href="classflow_1_1net__flow_1_1Node.html#a2983d0d8a4d4eb5c3402f63f68ef44d8" target="_top" xlink:title="Performs important book&#45;keeping based on the event &quot;DATA packet was sent to destination....">
<polygon fill="white" stroke="black" points="689.5,-85.5 689.5,-111.5 808.5,-111.5 808.5,-85.5 689.5,-85.5"/>
<text text-anchor="start" x="697.5" y="-101.1" font-family="Helvetica,sans-Serif" font-size="8.00">flow::net_flow::Node</text>
<text text-anchor="middle" x="749" y="-92.1" font-family="Helvetica,sans-Serif" font-size="8.00">::mark_data_packet_sent</text>
</a>
</g>
</g>
<!-- Node3&#45;&gt;Node7 -->
<g id="edge6" class="edge">
<title>Node3&#45;&gt;Node7</title>
<path fill="none" stroke="midnightblue" d="M638.82,-100.51C651.76,-100.27 665.74,-100.01 679.25,-99.77"/>
<polygon fill="midnightblue" stroke="midnightblue" points="679.53,-103.26 689.46,-99.58 679.4,-96.26 679.53,-103.26"/>
</g>
<!-- Node8 -->
<g id="node8" class="node">
<title>Node8</title>
<g id="a_node8"><a xlink:href="classflow_1_1net__flow_1_1Node.html#a43c42121d48a55a43a48e3a84bd10595" target="_top" xlink:title="Obtain a copy of the value of a given option in a thread&#45;safe manner.">
<polygon fill="white" stroke="black" points="689,-47 689,-64 809,-64 809,-47 689,-47"/>
<text text-anchor="middle" x="749" y="-53.6" font-family="Helvetica,sans-Serif" font-size="8.00">flow::net_flow::Node::opt</text>
</a>
</g>
</g>
<!-- Node3&#45;&gt;Node8 -->
<g id="edge9" class="edge">
<title>Node3&#45;&gt;Node8</title>
<path fill="none" stroke="midnightblue" d="M638.82,-86.31C661.3,-79.97 686.96,-72.73 707.75,-66.86"/>
<polygon fill="midnightblue" stroke="midnightblue" points="708.86,-70.18 717.53,-64.1 706.96,-63.45 708.86,-70.18"/>
</g>
<!-- Node5 -->
<g id="node5" class="node">
<title>Node5</title>
<g id="a_node5"><a xlink:href="classflow_1_1log_1_1Log__context.html#a8a5fef42dc2cedf3c0d1a6e83beb2948" target="_top" xlink:title="Returns reference to the stored Component object, particularly as many FLOW_LOG_*() macros expect.">
<polygon fill="white" stroke="black" points="845,-130.5 845,-156.5 952,-156.5 952,-130.5 845,-130.5"/>
<text text-anchor="start" x="853" y="-146.1" font-family="Helvetica,sans-Serif" font-size="8.00">flow::log::Log_context</text>
<text text-anchor="middle" x="898.5" y="-137.1" font-family="Helvetica,sans-Serif" font-size="8.00">::get_log_component</text>
</a>
</g>
</g>
<!-- Node4&#45;&gt;Node5 -->
<g id="edge4" class="edge">
<title>Node4&#45;&gt;Node5</title>
<path fill="none" stroke="midnightblue" d="M800.76,-143.5C811.67,-143.5 823.33,-143.5 834.63,-143.5"/>
<polygon fill="midnightblue" stroke="midnightblue" points="834.89,-147 844.89,-143.5 834.89,-140 834.89,-147"/>
</g>
<!-- Node6 -->
<g id="node6" class="node">
<title>Node6</title>
<g id="a_node6"><a xlink:href="classflow_1_1log_1_1Log__context.html#af4db395042b065b00398cd59845dcb4d" target="_top" xlink:title="Returns the stored Logger pointer, particularly as many FLOW_LOG_*() macros expect.">
<polygon fill="white" stroke="black" points="845,-85.5 845,-111.5 952,-111.5 952,-85.5 845,-85.5"/>
<text text-anchor="start" x="853" y="-101.1" font-family="Helvetica,sans-Serif" font-size="8.00">flow::log::Log_context</text>
<text text-anchor="middle" x="898.5" y="-92.1" font-family="Helvetica,sans-Serif" font-size="8.00">::get_logger</text>
</a>
</g>
</g>
<!-- Node4&#45;&gt;Node6 -->
<g id="edge5" class="edge">
<title>Node4&#45;&gt;Node6</title>
<path fill="none" stroke="midnightblue" d="M792.66,-130.48C808.95,-125.52 827.71,-119.79 844.82,-114.57"/>
<polygon fill="midnightblue" stroke="midnightblue" points="846.13,-117.83 854.68,-111.56 844.09,-111.13 846.13,-117.83"/>
</g>
<!-- Node7&#45;&gt;Node5 -->
<g id="edge7" class="edge">
<title>Node7&#45;&gt;Node5</title>
<path fill="none" stroke="midnightblue" d="M792.66,-111.52C808.95,-116.48 827.71,-122.21 844.82,-127.43"/>
<polygon fill="midnightblue" stroke="midnightblue" points="844.09,-130.87 854.68,-130.44 846.13,-124.17 844.09,-130.87"/>
</g>
<!-- Node7&#45;&gt;Node6 -->
<g id="edge8" class="edge">
<title>Node7&#45;&gt;Node6</title>
<path fill="none" stroke="midnightblue" d="M808.72,-98.5C817.17,-98.5 825.9,-98.5 834.43,-98.5"/>
<polygon fill="midnightblue" stroke="midnightblue" points="834.71,-102 844.71,-98.5 834.71,-95 834.71,-102"/>
</g>
<!-- Node9&#45;&gt;Node8 -->
<g id="edge11" class="edge">
<title>Node9&#45;&gt;Node8</title>
<path fill="none" stroke="midnightblue" d="M653.18,-53.17C661.62,-53.38 670.25,-53.59 678.7,-53.8"/>
<polygon fill="midnightblue" stroke="midnightblue" points="678.81,-57.3 688.89,-54.05 678.98,-50.31 678.81,-57.3"/>
</g>
<!-- Node10&#45;&gt;Node2 -->
<g id="edge13" class="edge">
<title>Node10&#45;&gt;Node2</title>
<path fill="none" stroke="midnightblue" d="M272.18,-26.67C297.54,-40.49 337.85,-62.46 368.26,-79.03"/>
<polygon fill="midnightblue" stroke="midnightblue" points="366.89,-82.27 377.35,-83.98 370.24,-76.12 366.89,-82.27"/>
</g>
<!-- Node11 -->
<g id="node11" class="node">
<title>Node11</title>
<g id="a_node11"><a xlink:href="classflow_1_1net__flow_1_1Node.html#a3fd57a0d025a78cbeccfd8a15a983575" target="_top" xlink:title="async_sock_low_lvl_packet_send_paced() pacing helper: If sock_pacing_process_q() ran out of the last ...">
<polygon fill="white" stroke="black" points="342,-0.5 342,-26.5 479,-26.5 479,-0.5 342,-0.5"/>
<text text-anchor="start" x="350" y="-16.1" font-family="Helvetica,sans-Serif" font-size="8.00">flow::net_flow::Node</text>
<text text-anchor="middle" x="410.5" y="-7.1" font-family="Helvetica,sans-Serif" font-size="8.00">::sock_pacing_time_slice_end</text>
</a>
</g>
</g>
<!-- Node10&#45;&gt;Node11 -->
<g id="edge14" class="edge">
<title>Node10&#45;&gt;Node11</title>
<path fill="none" stroke="midnightblue" d="M306.31,-6.99C314.62,-6.81 323.27,-6.73 331.88,-6.75"/>
<polygon fill="midnightblue" stroke="midnightblue" points="331.92,-10.25 341.95,-6.83 331.97,-3.25 331.92,-10.25"/>
</g>
<!-- Node11&#45;&gt;Node9 -->
<g id="edge15" class="edge">
<title>Node11&#45;&gt;Node9</title>
<path fill="none" stroke="midnightblue" d="M470.52,-26.58C484.61,-29.7 499.77,-33.06 514.26,-36.27"/>
<polygon fill="midnightblue" stroke="midnightblue" points="513.64,-39.72 524.16,-38.46 515.16,-32.88 513.64,-39.72"/>
</g>
<!-- Node11&#45;&gt;Node10 -->
<g id="edge16" class="edge">
<title>Node11&#45;&gt;Node10</title>
<path fill="none" stroke="midnightblue" d="M341.95,-20.17C333.53,-20.27 324.91,-20.28 316.48,-20.18"/>
<polygon fill="midnightblue" stroke="midnightblue" points="316.36,-16.68 306.31,-20.01 316.25,-23.68 316.36,-16.68"/>
</g>
</g>
</svg>
