<?xml version="1.0" encoding="UTF-8" standalone="no"?>
<!DOCTYPE svg PUBLIC "-//W3C//DTD SVG 1.1//EN"
 "http://www.w3.org/Graphics/SVG/1.1/DTD/svg11.dtd">
<!-- Generated by graphviz version 2.43.0 (0)
 -->
<!-- Title: flow::net_flow::Node::create_syn Pages: 1 -->
<svg width="274pt" height="44pt"
 viewBox="0.00 0.00 274.00 44.00" xmlns="http://www.w3.org/2000/svg" xmlns:xlink="http://www.w3.org/1999/xlink">
<g id="graph0" class="graph" transform="scale(1 1) rotate(0) translate(4 40)">
<title>flow::net_flow::Node::create_syn</title>
<polygon fill="white" stroke="transparent" points="-4,4 -4,-40 270,-40 270,4 -4,4"/>
<!-- Node1 -->
<g id="node1" class="node">
<title>Node1</title>
<g id="a_node1"><a xlink:title="Helper that creates a new SYN packet object to the extent that is suitable for immediately passing to...">
<polygon fill="#bfbfbf" stroke="black" points="165,-5 165,-31 266,-31 266,-5 165,-5"/>
<text text-anchor="start" x="173" y="-20.6" font-family="Helvetica,sans-Serif" font-size="8.00">flow::net_flow::Node</text>
<text text-anchor="middle" x="215.5" y="-11.6" font-family="Helvetica,sans-Serif" font-size="8.00">::create_syn</text>
</a>
</g>
</g>
<!-- Node2 -->
<g id="node2" class="node">
<title>Node2</title>
<g id="a_node2"><a xlink:href="classflow_1_1net__flow_1_1Node.html#addd654cb6b1ccff34ddccbe5226be8f0" target="_top" xlink:title="Handles the triggering of the retransmit timer wait set up by setup_connection_timers(); it will re&#45;s...">
<polygon fill="white" stroke="black" points="0,-0.5 0,-35.5 129,-35.5 129,-0.5 0,-0.5"/>
<text text-anchor="start" x="8" y="-25.1" font-family="Helvetica,sans-Serif" font-size="8.00">flow::net_flow::Node</text>
<text text-anchor="start" x="8" y="-16.1" font-family="Helvetica,sans-Serif" font-size="8.00">::handle_connection_rexmit</text>
<text text-anchor="middle" x="64.5" y="-7.1" font-family="Helvetica,sans-Serif" font-size="8.00">_timer_event</text>
</a>
</g>
</g>
<!-- Node1&#45;&gt;Node2 -->
<g id="edge1" class="edge">
<title>Node1&#45;&gt;Node2</title>
<path fill="none" stroke="midnightblue" d="M154.78,-18C146.37,-18 137.7,-18 129.21,-18"/>
<polygon fill="midnightblue" stroke="midnightblue" points="154.89,-21.5 164.89,-18 154.89,-14.5 154.89,-21.5"/>
</g>
</g>
</svg>
