<?xml version="1.0" encoding="UTF-8" standalone="no"?>
<!DOCTYPE svg PUBLIC "-//W3C//DTD SVG 1.1//EN"
 "http://www.w3.org/Graphics/SVG/1.1/DTD/svg11.dtd">
<!-- Generated by graphviz version 2.43.0 (0)
 -->
<!-- Title: flow::net_flow::Node::listen_worker Pages: 1 -->
<svg width="246pt" height="53pt"
 viewBox="0.00 0.00 246.00 53.00" xmlns="http://www.w3.org/2000/svg" xmlns:xlink="http://www.w3.org/1999/xlink">
<g id="graph0" class="graph" transform="scale(1 1) rotate(0) translate(4 49)">
<title>flow::net_flow::Node::listen_worker</title>
<polygon fill="white" stroke="transparent" points="-4,4 -4,-49 242,-49 242,4 -4,4"/>
<!-- Node1 -->
<g id="node1" class="node">
<title>Node1</title>
<g id="a_node1"><a xlink:title="Thread W implementation of listen().">
<polygon fill="#bfbfbf" stroke="black" points="137,-0.5 137,-26.5 238,-26.5 238,-0.5 137,-0.5"/>
<text text-anchor="start" x="145" y="-16.1" font-family="Helvetica,sans-Serif" font-size="8.00">flow::net_flow::Node</text>
<text text-anchor="middle" x="187.5" y="-7.1" font-family="Helvetica,sans-Serif" font-size="8.00">::listen_worker</text>
</a>
</g>
</g>
<!-- Node2 -->
<g id="node2" class="node">
<title>Node2</title>
<g id="a_node2"><a xlink:href="classflow_1_1net__flow_1_1Node.html#a9fabe79fbd1888fc7aa9eb25281e7b16" target="_top" xlink:title="Sets up a server on the given local Flow port and returns Server_socket which can be used to accept s...">
<polygon fill="white" stroke="black" points="0,-0.5 0,-26.5 101,-26.5 101,-0.5 0,-0.5"/>
<text text-anchor="start" x="8" y="-16.1" font-family="Helvetica,sans-Serif" font-size="8.00">flow::net_flow::Node</text>
<text text-anchor="middle" x="50.5" y="-7.1" font-family="Helvetica,sans-Serif" font-size="8.00">::listen</text>
</a>
</g>
</g>
<!-- Node1&#45;&gt;Node2 -->
<g id="edge1" class="edge">
<title>Node1&#45;&gt;Node2</title>
<path fill="none" stroke="midnightblue" d="M126.79,-13.5C118.33,-13.5 109.7,-13.5 101.45,-13.5"/>
<polygon fill="midnightblue" stroke="midnightblue" points="127,-17 137,-13.5 127,-10 127,-17"/>
</g>
<!-- Node2&#45;&gt;Node2 -->
<g id="edge2" class="edge">
<title>Node2&#45;&gt;Node2</title>
<path fill="none" stroke="midnightblue" d="M74.98,-36.94C72.26,-41.64 64.1,-45 50.5,-45 28.19,-45 20.52,-35.96 27.49,-26.77"/>
<polygon fill="midnightblue" stroke="midnightblue" points="78.4,-36.17 73.51,-26.77 71.47,-37.17 78.4,-36.17"/>
</g>
</g>
</svg>
