<?xml version="1.0" encoding="UTF-8" standalone="no"?>
<!DOCTYPE svg PUBLIC "-//W3C//DTD SVG 1.1//EN"
 "http://www.w3.org/Graphics/SVG/1.1/DTD/svg11.dtd">
<!-- Generated by graphviz version 2.43.0 (0)
 -->
<!-- Title: flow::net_flow::Node::async_sock_low_lvl_packet_send_or_close_immediately Pages: 1 -->
<svg width="771pt" height="275pt"
 viewBox="0.00 0.00 771.00 275.00" xmlns="http://www.w3.org/2000/svg" xmlns:xlink="http://www.w3.org/1999/xlink">
<g id="graph0" class="graph" transform="scale(1 1) rotate(0) translate(4 271)">
<title>flow::net_flow::Node::async_sock_low_lvl_packet_send_or_close_immediately</title>
<polygon fill="white" stroke="transparent" points="-4,4 -4,-271 767,-271 767,4 -4,4"/>
<!-- Node1 -->
<g id="node1" class="node">
<title>Node1</title>
<g id="a_node1"><a xlink:title="Similar to async_sock_low_lvl_packet_send_paced() except it also calls close_connection_immediately(s...">
<polygon fill="#bfbfbf" stroke="black" points="653,-113.5 653,-157.5 763,-157.5 763,-113.5 653,-113.5"/>
<text text-anchor="start" x="661" y="-147.1" font-family="Helvetica,sans-Serif" font-size="8.00">flow::net_flow::Node</text>
<text text-anchor="start" x="661" y="-138.1" font-family="Helvetica,sans-Serif" font-size="8.00">::async_sock_low_lvl</text>
<text text-anchor="start" x="661" y="-129.1" font-family="Helvetica,sans-Serif" font-size="8.00">_packet_send_or_close</text>
<text text-anchor="middle" x="708" y="-120.1" font-family="Helvetica,sans-Serif" font-size="8.00">_immediately</text>
</a>
</g>
</g>
<!-- Node2 -->
<g id="node2" class="node">
<title>Node2</title>
<g id="a_node2"><a xlink:href="classflow_1_1net__flow_1_1Node.html#a81e50276d0b162f6577adc690e0ef9e0" target="_top" xlink:title="Sends a low&#45;level ACK packet, with all accumulated in Peer_socket::m_rcv_pending_acks of sock individ...">
<polygon fill="white" stroke="black" points="482.5,-240.5 482.5,-266.5 601.5,-266.5 601.5,-240.5 482.5,-240.5"/>
<text text-anchor="start" x="490.5" y="-256.1" font-family="Helvetica,sans-Serif" font-size="8.00">flow::net_flow::Node</text>
<text text-anchor="middle" x="542" y="-247.1" font-family="Helvetica,sans-Serif" font-size="8.00">::async_low_lvl_ack_send</text>
</a>
</g>
</g>
<!-- Node1&#45;&gt;Node2 -->
<g id="edge1" class="edge">
<title>Node1&#45;&gt;Node2</title>
<path fill="none" stroke="midnightblue" d="M685.07,-165.82C668.51,-186.71 644.07,-213.64 617,-230.5 610.72,-234.41 603.72,-237.7 596.6,-240.46"/>
<polygon fill="midnightblue" stroke="midnightblue" points="687.88,-167.91 691.24,-157.86 682.35,-163.62 687.88,-167.91"/>
</g>
<!-- Node3 -->
<g id="node3" class="node">
<title>Node3</title>
<g id="a_node3"><a xlink:href="classflow_1_1net__flow_1_1Node.html#acaf55766783893827061fd85cab2634f" target="_top" xlink:title="Helper to create, fully fill out, and asynchronously send via async_sock_low_lvl_packet_send_or_close...">
<polygon fill="white" stroke="black" points="467,-186 467,-221 617,-221 617,-186 467,-186"/>
<text text-anchor="start" x="475" y="-210.6" font-family="Helvetica,sans-Serif" font-size="8.00">flow::net_flow::Node</text>
<text text-anchor="start" x="475" y="-201.6" font-family="Helvetica,sans-Serif" font-size="8.00">::async_low_lvl_syn_ack</text>
<text text-anchor="middle" x="542" y="-192.6" font-family="Helvetica,sans-Serif" font-size="8.00">_ack_send_or_close_immediately</text>
</a>
</g>
</g>
<!-- Node1&#45;&gt;Node3 -->
<g id="edge2" class="edge">
<title>Node1&#45;&gt;Node3</title>
<path fill="none" stroke="midnightblue" d="M650.9,-161.87C639.73,-166.88 628.05,-171.98 617,-176.5 609.28,-179.66 601.04,-182.85 592.96,-185.87"/>
<polygon fill="midnightblue" stroke="midnightblue" points="652.46,-165 660.12,-157.69 649.57,-158.63 652.46,-165"/>
</g>
<!-- Node4 -->
<g id="node4" class="node">
<title>Node4</title>
<g id="a_node4"><a xlink:href="classflow_1_1net__flow_1_1Node.html#a192d4b95b9f8a5c3d08b1e5486eb6f78" target="_top" xlink:title="receive_wnd_updated() helper that continues rcv_wnd recovery: that is, sends unsolicited ACK with a r...">
<polygon fill="white" stroke="black" points="481,-122.5 481,-148.5 603,-148.5 603,-122.5 481,-122.5"/>
<text text-anchor="start" x="489" y="-138.1" font-family="Helvetica,sans-Serif" font-size="8.00">flow::net_flow::Node</text>
<text text-anchor="middle" x="542" y="-129.1" font-family="Helvetica,sans-Serif" font-size="8.00">::async_rcv_wnd_recovery</text>
</a>
</g>
</g>
<!-- Node1&#45;&gt;Node4 -->
<g id="edge3" class="edge">
<title>Node1&#45;&gt;Node4</title>
<path fill="none" stroke="midnightblue" d="M642.56,-135.5C629.54,-135.5 615.9,-135.5 603.04,-135.5"/>
<polygon fill="midnightblue" stroke="midnightblue" points="642.85,-139 652.85,-135.5 642.85,-132 642.85,-139"/>
</g>
<!-- Node14 -->
<g id="node9" class="node">
<title>Node14</title>
<g id="a_node9"><a xlink:href="classflow_1_1net__flow_1_1Node.html#addd654cb6b1ccff34ddccbe5226be8f0" target="_top" xlink:title="Handles the triggering of the retransmit timer wait set up by setup_connection_timers(); it will re&#45;s...">
<polygon fill="white" stroke="black" points="477.5,-68 477.5,-103 606.5,-103 606.5,-68 477.5,-68"/>
<text text-anchor="start" x="485.5" y="-92.6" font-family="Helvetica,sans-Serif" font-size="8.00">flow::net_flow::Node</text>
<text text-anchor="start" x="485.5" y="-83.6" font-family="Helvetica,sans-Serif" font-size="8.00">::handle_connection_rexmit</text>
<text text-anchor="middle" x="542" y="-74.6" font-family="Helvetica,sans-Serif" font-size="8.00">_timer_event</text>
</a>
</g>
</g>
<!-- Node1&#45;&gt;Node14 -->
<g id="edge9" class="edge">
<title>Node1&#45;&gt;Node14</title>
<path fill="none" stroke="midnightblue" d="M643.23,-116.06C629.15,-111.76 614.3,-107.24 600.48,-103.02"/>
<polygon fill="midnightblue" stroke="midnightblue" points="642.26,-119.42 652.85,-118.99 644.3,-112.73 642.26,-119.42"/>
</g>
<!-- Node15 -->
<g id="node10" class="node">
<title>Node15</title>
<g id="a_node10"><a xlink:href="classflow_1_1net__flow_1_1Node.html#a10a92f11a2c9f218cdd9a55f282e79b1" target="_top" xlink:title="Thread W implemention of send(): synchronously or asynchronously send the contents of sock&#45;&gt;m_snd_buf...">
<polygon fill="white" stroke="black" points="491.5,-22.5 491.5,-48.5 592.5,-48.5 592.5,-22.5 491.5,-22.5"/>
<text text-anchor="start" x="499.5" y="-38.1" font-family="Helvetica,sans-Serif" font-size="8.00">flow::net_flow::Node</text>
<text text-anchor="middle" x="542" y="-29.1" font-family="Helvetica,sans-Serif" font-size="8.00">::send_worker</text>
</a>
</g>
</g>
<!-- Node1&#45;&gt;Node15 -->
<g id="edge10" class="edge">
<title>Node1&#45;&gt;Node15</title>
<path fill="none" stroke="midnightblue" d="M679.08,-106.35C662.36,-90.32 639.95,-71.17 617,-58.5 609.46,-54.34 601.07,-50.82 592.72,-47.88"/>
<polygon fill="midnightblue" stroke="midnightblue" points="676.74,-108.96 686.34,-113.46 681.64,-103.96 676.74,-108.96"/>
</g>
<!-- Node4&#45;&gt;Node4 -->
<g id="edge4" class="edge">
<title>Node4&#45;&gt;Node4</title>
<path fill="none" stroke="midnightblue" d="M572.12,-158.58C569.06,-163.47 559.02,-167 542,-167 514.77,-167 505.4,-157.96 513.91,-148.77"/>
<polygon fill="midnightblue" stroke="midnightblue" points="575.54,-157.85 570.09,-148.77 568.69,-159.27 575.54,-157.85"/>
</g>
<!-- Node5 -->
<g id="node5" class="node">
<title>Node5</title>
<g id="a_node5"><a xlink:href="classflow_1_1net__flow_1_1Node.html#a08cf95363b26c0c676979437e34db357" target="_top" xlink:title="Placed by receive() onto W if it has dequeued data from Receive buffer and given it to the user,...">
<polygon fill="white" stroke="black" points="311.5,-122.5 311.5,-148.5 423.5,-148.5 423.5,-122.5 311.5,-122.5"/>
<text text-anchor="start" x="319.5" y="-138.1" font-family="Helvetica,sans-Serif" font-size="8.00">flow::net_flow::Node</text>
<text text-anchor="middle" x="367.5" y="-129.1" font-family="Helvetica,sans-Serif" font-size="8.00">::receive_wnd_updated</text>
</a>
</g>
</g>
<!-- Node4&#45;&gt;Node5 -->
<g id="edge5" class="edge">
<title>Node4&#45;&gt;Node5</title>
<path fill="none" stroke="midnightblue" d="M470.52,-135.5C454.88,-135.5 438.52,-135.5 423.6,-135.5"/>
<polygon fill="midnightblue" stroke="midnightblue" points="470.67,-139 480.67,-135.5 470.67,-132 470.67,-139"/>
</g>
<!-- Node6 -->
<g id="node6" class="node">
<title>Node6</title>
<g id="a_node6"><a xlink:href="classflow_1_1net__flow_1_1Node.html#addbb96858fd7b3c9ddd7c6fe8078809c" target="_top" xlink:title="Implementation of non&#45;blocking sock&#45;&gt;receive() for socket sock in all cases except when sock&#45;&gt;state()...">
<polygon fill="white" stroke="black" points="167,-122.5 167,-148.5 268,-148.5 268,-122.5 167,-122.5"/>
<text text-anchor="start" x="175" y="-138.1" font-family="Helvetica,sans-Serif" font-size="8.00">flow::net_flow::Node</text>
<text text-anchor="middle" x="217.5" y="-129.1" font-family="Helvetica,sans-Serif" font-size="8.00">::receive</text>
</a>
</g>
</g>
<!-- Node5&#45;&gt;Node6 -->
<g id="edge6" class="edge">
<title>Node5&#45;&gt;Node6</title>
<path fill="none" stroke="midnightblue" d="M301.32,-135.5C290.24,-135.5 278.89,-135.5 268.28,-135.5"/>
<polygon fill="midnightblue" stroke="midnightblue" points="301.39,-139 311.39,-135.5 301.39,-132 301.39,-139"/>
</g>
<!-- Node7 -->
<g id="node7" class="node">
<title>Node7</title>
<g id="a_node7"><a xlink:href="classflow_1_1net__flow_1_1Peer__socket.html#af3ac1b0b3c9b1c3a5ec246148595c657" target="_top" xlink:title="Non&#45;template helper for template receive() that forwards the receive() logic to Node::receive().">
<polygon fill="white" stroke="red" points="11.5,-151.5 11.5,-177.5 119.5,-177.5 119.5,-151.5 11.5,-151.5"/>
<text text-anchor="start" x="19.5" y="-167.1" font-family="Helvetica,sans-Serif" font-size="8.00">flow::net_flow::Peer</text>
<text text-anchor="middle" x="65.5" y="-158.1" font-family="Helvetica,sans-Serif" font-size="8.00">_socket::node_receive</text>
</a>
</g>
</g>
<!-- Node6&#45;&gt;Node7 -->
<g id="edge7" class="edge">
<title>Node6&#45;&gt;Node7</title>
<path fill="none" stroke="midnightblue" d="M156.8,-147.04C144.51,-149.42 131.64,-151.91 119.59,-154.24"/>
<polygon fill="midnightblue" stroke="midnightblue" points="157.81,-150.41 166.97,-145.08 156.49,-143.54 157.81,-150.41"/>
</g>
<!-- Node9 -->
<g id="node8" class="node">
<title>Node9</title>
<g id="a_node8"><a xlink:href="classflow_1_1net__flow_1_1Peer__socket.html#a8abde92d5189bf2a058fe8741789f814" target="_top" xlink:title="This is to sync_receive() as node_receive() is to receive().">
<polygon fill="white" stroke="red" points="0,-106.5 0,-132.5 131,-132.5 131,-106.5 0,-106.5"/>
<text text-anchor="start" x="8" y="-122.1" font-family="Helvetica,sans-Serif" font-size="8.00">flow::net_flow::Peer</text>
<text text-anchor="middle" x="65.5" y="-113.1" font-family="Helvetica,sans-Serif" font-size="8.00">_socket::node_sync_receive</text>
</a>
</g>
</g>
<!-- Node6&#45;&gt;Node9 -->
<g id="edge8" class="edge">
<title>Node6&#45;&gt;Node9</title>
<path fill="none" stroke="midnightblue" d="M156.86,-129.14C148.43,-128.24 139.74,-127.31 131.23,-126.4"/>
<polygon fill="midnightblue" stroke="midnightblue" points="156.65,-132.64 166.97,-130.22 157.4,-125.68 156.65,-132.64"/>
</g>
<!-- Node16 -->
<g id="node11" class="node">
<title>Node16</title>
<g id="a_node11"><a xlink:href="classflow_1_1net__flow_1_1Node.html#a2565b7c0bd82cad86eb168b62f8ffd9d" target="_top" xlink:title="Helper placed by send() onto W to invoke send_worker() but ensures that the socket has not entered so...">
<polygon fill="white" stroke="black" points="304,-22.5 304,-48.5 431,-48.5 431,-22.5 304,-22.5"/>
<text text-anchor="start" x="312" y="-38.1" font-family="Helvetica,sans-Serif" font-size="8.00">flow::net_flow::Node</text>
<text text-anchor="middle" x="367.5" y="-29.1" font-family="Helvetica,sans-Serif" font-size="8.00">::send_worker_check_state</text>
</a>
</g>
</g>
<!-- Node15&#45;&gt;Node16 -->
<g id="edge11" class="edge">
<title>Node15&#45;&gt;Node16</title>
<path fill="none" stroke="midnightblue" d="M480.78,-35.5C464.73,-35.5 447.36,-35.5 431.18,-35.5"/>
<polygon fill="midnightblue" stroke="midnightblue" points="481.11,-39 491.11,-35.5 481.11,-32 481.11,-39"/>
</g>
<!-- Node17 -->
<g id="node12" class="node">
<title>Node17</title>
<g id="a_node12"><a xlink:href="classflow_1_1net__flow_1_1Node.html#aa19d1f49638ef8ce8883e7477a06d3fc" target="_top" xlink:title="Implementation of non&#45;blocking sock&#45;&gt;send() for socket sock in all cases except when sock&#45;&gt;state() ==...">
<polygon fill="white" stroke="black" points="167,-22.5 167,-48.5 268,-48.5 268,-22.5 167,-22.5"/>
<text text-anchor="start" x="175" y="-38.1" font-family="Helvetica,sans-Serif" font-size="8.00">flow::net_flow::Node</text>
<text text-anchor="middle" x="217.5" y="-29.1" font-family="Helvetica,sans-Serif" font-size="8.00">::send</text>
</a>
</g>
</g>
<!-- Node16&#45;&gt;Node17 -->
<g id="edge12" class="edge">
<title>Node16&#45;&gt;Node17</title>
<path fill="none" stroke="midnightblue" d="M293.7,-35.5C285.12,-35.5 276.51,-35.5 268.35,-35.5"/>
<polygon fill="midnightblue" stroke="midnightblue" points="293.73,-39 303.73,-35.5 293.73,-32 293.73,-39"/>
</g>
<!-- Node18 -->
<g id="node13" class="node">
<title>Node18</title>
<g id="a_node13"><a xlink:href="classflow_1_1net__flow_1_1Peer__socket.html#a83ba2b4c39555afad67932ea6ed39bbe" target="_top" xlink:title="Non&#45;template helper for template send() that forwards the send() logic to Node::send().">
<polygon fill="white" stroke="red" points="16.5,-45.5 16.5,-71.5 114.5,-71.5 114.5,-45.5 16.5,-45.5"/>
<text text-anchor="start" x="24.5" y="-61.1" font-family="Helvetica,sans-Serif" font-size="8.00">flow::net_flow::Peer</text>
<text text-anchor="middle" x="65.5" y="-52.1" font-family="Helvetica,sans-Serif" font-size="8.00">_socket::node_send</text>
</a>
</g>
</g>
<!-- Node17&#45;&gt;Node18 -->
<g id="edge13" class="edge">
<title>Node17&#45;&gt;Node18</title>
<path fill="none" stroke="midnightblue" d="M156.93,-44.63C142.91,-46.78 128.15,-49.05 114.7,-51.11"/>
<polygon fill="midnightblue" stroke="midnightblue" points="157.61,-48.07 166.97,-43.09 156.55,-41.15 157.61,-48.07"/>
</g>
<!-- Node20 -->
<g id="node14" class="node">
<title>Node20</title>
<g id="a_node14"><a xlink:href="classflow_1_1net__flow_1_1Peer__socket.html#a34e2c7dfb5596269a6f86a716015f1a6" target="_top" xlink:title="This is to sync_send() as node_send() is to send().">
<polygon fill="white" stroke="red" points="5,-0.5 5,-26.5 126,-26.5 126,-0.5 5,-0.5"/>
<text text-anchor="start" x="13" y="-16.1" font-family="Helvetica,sans-Serif" font-size="8.00">flow::net_flow::Peer</text>
<text text-anchor="middle" x="65.5" y="-7.1" font-family="Helvetica,sans-Serif" font-size="8.00">_socket::node_sync_send</text>
</a>
</g>
</g>
<!-- Node17&#45;&gt;Node20 -->
<g id="edge14" class="edge">
<title>Node17&#45;&gt;Node20</title>
<path fill="none" stroke="midnightblue" d="M156.99,-26.77C146.84,-25.28 136.31,-23.74 126.16,-22.25"/>
<polygon fill="midnightblue" stroke="midnightblue" points="156.57,-30.25 166.97,-28.24 157.58,-23.32 156.57,-30.25"/>
</g>
</g>
</svg>
