<?xml version="1.0" encoding="UTF-8" standalone="no"?>
<!DOCTYPE svg PUBLIC "-//W3C//DTD SVG 1.1//EN"
 "http://www.w3.org/Graphics/SVG/1.1/DTD/svg11.dtd">
<!-- Generated by graphviz version 2.43.0 (0)
 -->
<!-- Title: flow::net_flow::Node::async_no_sock_low_lvl_rst_send Pages: 1 -->
<svg width="871pt" height="90pt"
 viewBox="0.00 0.00 871.00 90.00" xmlns="http://www.w3.org/2000/svg" xmlns:xlink="http://www.w3.org/1999/xlink">
<g id="graph0" class="graph" transform="scale(1 1) rotate(0) translate(4 86)">
<title>flow::net_flow::Node::async_no_sock_low_lvl_rst_send</title>
<polygon fill="white" stroke="transparent" points="-4,4 -4,-86 867,-86 867,4 -4,4"/>
<!-- Node1 -->
<g id="node1" class="node">
<title>Node1</title>
<g id="a_node1"><a xlink:title="Sends an RST to the given UDP endpoint in response to the given incoming low&#45;level packet that came f...">
<polygon fill="#bfbfbf" stroke="black" points="749,-23.5 749,-58.5 863,-58.5 863,-23.5 749,-23.5"/>
<text text-anchor="start" x="757" y="-48.1" font-family="Helvetica,sans-Serif" font-size="8.00">flow::net_flow::Node</text>
<text text-anchor="start" x="757" y="-39.1" font-family="Helvetica,sans-Serif" font-size="8.00">::async_no_sock_low_lvl</text>
<text text-anchor="middle" x="806" y="-30.1" font-family="Helvetica,sans-Serif" font-size="8.00">_rst_send</text>
</a>
</g>
</g>
<!-- Node2 -->
<g id="node2" class="node">
<title>Node2</title>
<g id="a_node2"><a xlink:href="classflow_1_1net__flow_1_1Node.html#a1699dfdaf3e5ebe1b1d715a9c306d116" target="_top" xlink:title="Handles a just&#45;received, not&#45;yet&#45;deserialized low&#45;level packet.">
<polygon fill="white" stroke="black" points="456,-28 456,-54 557,-54 557,-28 456,-28"/>
<text text-anchor="start" x="464" y="-43.6" font-family="Helvetica,sans-Serif" font-size="8.00">flow::net_flow::Node</text>
<text text-anchor="middle" x="506.5" y="-34.6" font-family="Helvetica,sans-Serif" font-size="8.00">::handle_incoming</text>
</a>
</g>
</g>
<!-- Node1&#45;&gt;Node2 -->
<g id="edge1" class="edge">
<title>Node1&#45;&gt;Node2</title>
<path fill="none" stroke="midnightblue" d="M738.55,-44.23C729.96,-44.55 721.27,-44.82 713,-45 659.68,-46.16 646.32,-46.25 593,-45 581.41,-44.73 568.95,-44.25 557.22,-43.72"/>
<polygon fill="midnightblue" stroke="midnightblue" points="738.72,-47.73 748.57,-43.84 738.44,-40.73 738.72,-47.73"/>
</g>
<!-- Node8 -->
<g id="node6" class="node">
<title>Node8</title>
<g id="a_node6"><a xlink:href="classflow_1_1net__flow_1_1Node.html#aaaf5c3b5e6b9f9f1658b60907b36a498" target="_top" xlink:title="Handles a just&#45;deserialized, just&#45;demultiplexed low&#45;level SYN packet delivered to the given server so...">
<polygon fill="white" stroke="black" points="593,-0.5 593,-35.5 713,-35.5 713,-0.5 593,-0.5"/>
<text text-anchor="start" x="601" y="-25.1" font-family="Helvetica,sans-Serif" font-size="8.00">flow::net_flow::Node</text>
<text text-anchor="start" x="601" y="-16.1" font-family="Helvetica,sans-Serif" font-size="8.00">::handle_syn_to_listening</text>
<text text-anchor="middle" x="653" y="-7.1" font-family="Helvetica,sans-Serif" font-size="8.00">_server</text>
</a>
</g>
</g>
<!-- Node1&#45;&gt;Node8 -->
<g id="edge7" class="edge">
<title>Node1&#45;&gt;Node8</title>
<path fill="none" stroke="midnightblue" d="M738.81,-30.92C730.24,-29.61 721.5,-28.28 713.05,-26.99"/>
<polygon fill="midnightblue" stroke="midnightblue" points="738.36,-34.39 748.77,-32.44 739.41,-27.47 738.36,-34.39"/>
</g>
<!-- Node3 -->
<g id="node3" class="node">
<title>Node3</title>
<g id="a_node3"><a xlink:href="classflow_1_1net__flow_1_1Node.html#a4368247d07e930bdd07ab8d2425c6de8" target="_top" xlink:title="Sets up handle_incoming(packet_data, low_lvl_remote_endpoint) to be called asynchronously after a spe...">
<polygon fill="white" stroke="black" points="307,-46.5 307,-81.5 420,-81.5 420,-46.5 307,-46.5"/>
<text text-anchor="start" x="315" y="-71.1" font-family="Helvetica,sans-Serif" font-size="8.00">flow::net_flow::Node</text>
<text text-anchor="start" x="315" y="-62.1" font-family="Helvetica,sans-Serif" font-size="8.00">::async_wait_latency</text>
<text text-anchor="middle" x="363.5" y="-53.1" font-family="Helvetica,sans-Serif" font-size="8.00">_then_handle_incoming</text>
</a>
</g>
</g>
<!-- Node2&#45;&gt;Node3 -->
<g id="edge2" class="edge">
<title>Node2&#45;&gt;Node3</title>
<path fill="none" stroke="midnightblue" d="M445.86,-50.73C437.29,-52.13 428.49,-53.56 420.01,-54.95"/>
<polygon fill="midnightblue" stroke="midnightblue" points="446.48,-54.17 455.79,-49.11 445.36,-47.26 446.48,-54.17"/>
</g>
<!-- Node4 -->
<g id="node4" class="node">
<title>Node4</title>
<g id="a_node4"><a xlink:href="classflow_1_1net__flow_1_1Node.html#a90ecbad1ff3a8d2fe4b3ad1c474f7513" target="_top" xlink:title="Helper for low_lvl_recv_and_handle() that calls handle_incoming() on the not&#45;yet&#45;deserialized low&#45;lev...">
<polygon fill="white" stroke="black" points="158,-23.5 158,-58.5 271,-58.5 271,-23.5 158,-23.5"/>
<text text-anchor="start" x="166" y="-48.1" font-family="Helvetica,sans-Serif" font-size="8.00">flow::net_flow::Node</text>
<text text-anchor="start" x="166" y="-39.1" font-family="Helvetica,sans-Serif" font-size="8.00">::handle_incoming_with</text>
<text text-anchor="middle" x="214.5" y="-30.1" font-family="Helvetica,sans-Serif" font-size="8.00">_simulation</text>
</a>
</g>
</g>
<!-- Node2&#45;&gt;Node4 -->
<g id="edge6" class="edge">
<title>Node2&#45;&gt;Node4</title>
<path fill="none" stroke="midnightblue" d="M445.75,-37.85C437.11,-37.5 428.33,-37.19 420,-37 369.79,-35.83 357.21,-35.9 307,-37 295.4,-37.25 282.97,-37.69 271.13,-38.18"/>
<polygon fill="midnightblue" stroke="midnightblue" points="445.64,-41.35 455.78,-38.28 445.94,-34.35 445.64,-41.35"/>
</g>
<!-- Node3&#45;&gt;Node4 -->
<g id="edge3" class="edge">
<title>Node3&#45;&gt;Node4</title>
<path fill="none" stroke="midnightblue" d="M296.92,-53.74C288.32,-52.39 279.57,-51.02 271.15,-49.71"/>
<polygon fill="midnightblue" stroke="midnightblue" points="296.5,-57.22 306.93,-55.3 297.59,-50.3 296.5,-57.22"/>
</g>
<!-- Node4&#45;&gt;Node4 -->
<g id="edge4" class="edge">
<title>Node4&#45;&gt;Node4</title>
<path fill="none" stroke="midnightblue" d="M240.27,-69.1C236.65,-73.77 228.06,-77 214.5,-77 192.24,-77 183.37,-68.31 187.89,-58.78"/>
<polygon fill="midnightblue" stroke="midnightblue" points="243.79,-69.03 241.11,-58.78 236.81,-68.47 243.79,-69.03"/>
</g>
<!-- Node5 -->
<g id="node5" class="node">
<title>Node5</title>
<g id="a_node5"><a xlink:href="classflow_1_1net__flow_1_1Node.html#a9909cd2b2a77c57da9e35fcef0f8a4e5" target="_top" xlink:title="Handles the pre&#45;condition that m_low_lvl_sock has a UDP packet available for reading,...">
<polygon fill="white" stroke="red" points="0,-28 0,-54 122,-54 122,-28 0,-28"/>
<text text-anchor="start" x="8" y="-43.6" font-family="Helvetica,sans-Serif" font-size="8.00">flow::net_flow::Node</text>
<text text-anchor="middle" x="61" y="-34.6" font-family="Helvetica,sans-Serif" font-size="8.00">::low_lvl_recv_and_handle</text>
</a>
</g>
</g>
<!-- Node4&#45;&gt;Node5 -->
<g id="edge5" class="edge">
<title>Node4&#45;&gt;Node5</title>
<path fill="none" stroke="midnightblue" d="M147.7,-41C139.2,-41 130.54,-41 122.14,-41"/>
<polygon fill="midnightblue" stroke="midnightblue" points="147.95,-44.5 157.95,-41 147.95,-37.5 147.95,-44.5"/>
</g>
<!-- Node8&#45;&gt;Node2 -->
<g id="edge8" class="edge">
<title>Node8&#45;&gt;Node2</title>
<path fill="none" stroke="midnightblue" d="M582.73,-29.03C574.09,-30.4 565.4,-31.78 557.15,-33.1"/>
<polygon fill="midnightblue" stroke="midnightblue" points="583.48,-32.45 592.81,-27.42 582.38,-25.54 583.48,-32.45"/>
</g>
</g>
</svg>
