<?xml version="1.0" encoding="UTF-8" standalone="no"?>
<!DOCTYPE svg PUBLIC "-//W3C//DTD SVG 1.1//EN"
 "http://www.w3.org/Graphics/SVG/1.1/DTD/svg11.dtd">
<!-- Generated by graphviz version 2.43.0 (0)
 -->
<!-- Title: flow::log::Component::payload_type Pages: 1 -->
<svg width="254pt" height="35pt"
 viewBox="0.00 0.00 254.00 35.00" xmlns="http://www.w3.org/2000/svg" xmlns:xlink="http://www.w3.org/1999/xlink">
<g id="graph0" class="graph" transform="scale(1 1) rotate(0) translate(4 31)">
<title>flow::log::Component::payload_type</title>
<polygon fill="white" stroke="transparent" points="-4,4 -4,-31 250,-31 250,4 -4,4"/>
<!-- Node1 -->
<g id="node1" class="node">
<title>Node1</title>
<g id="a_node1"><a xlink:title="Returns typeid(Payload), where Payload was the template param used when calling the originating one&#45;a...">
<polygon fill="#bfbfbf" stroke="black" points="0,-0.5 0,-26.5 105,-26.5 105,-0.5 0,-0.5"/>
<text text-anchor="start" x="8" y="-16.1" font-family="Helvetica,sans-Serif" font-size="8.00">flow::log::Component</text>
<text text-anchor="middle" x="52.5" y="-7.1" font-family="Helvetica,sans-Serif" font-size="8.00">::payload_type</text>
</a>
</g>
</g>
<!-- Node2 -->
<g id="node2" class="node">
<title>Node2</title>
<g id="a_node2"><a xlink:href="classflow_1_1log_1_1Component.html#a5af2f66731c407bd519a873706bd04c4" target="_top" xlink:title="Returns true if *this is as if default&#45;constructed (a null Component); false if as if constructed via...">
<polygon fill="white" stroke="black" points="141,-0.5 141,-26.5 246,-26.5 246,-0.5 141,-0.5"/>
<text text-anchor="start" x="149" y="-16.1" font-family="Helvetica,sans-Serif" font-size="8.00">flow::log::Component</text>
<text text-anchor="middle" x="193.5" y="-7.1" font-family="Helvetica,sans-Serif" font-size="8.00">::empty</text>
</a>
</g>
</g>
<!-- Node1&#45;&gt;Node2 -->
<g id="edge1" class="edge">
<title>Node1&#45;&gt;Node2</title>
<path fill="none" stroke="midnightblue" d="M105.26,-13.5C113.49,-13.5 122.08,-13.5 130.51,-13.5"/>
<polygon fill="midnightblue" stroke="midnightblue" points="130.7,-17 140.7,-13.5 130.7,-10 130.7,-17"/>
</g>
</g>
</svg>
