<?xml version="1.0" encoding="UTF-8" standalone="no"?>
<!DOCTYPE svg PUBLIC "-//W3C//DTD SVG 1.1//EN"
 "http://www.w3.org/Graphics/SVG/1.1/DTD/svg11.dtd">
<!-- Generated by graphviz version 2.43.0 (0)
 -->
<!-- Title: flow::net_flow::Node::sock_validate_options Pages: 1 -->
<svg width="395pt" height="179pt"
 viewBox="0.00 0.00 395.00 179.00" xmlns="http://www.w3.org/2000/svg" xmlns:xlink="http://www.w3.org/1999/xlink">
<g id="graph0" class="graph" transform="scale(1 1) rotate(0) translate(4 175)">
<title>flow::net_flow::Node::sock_validate_options</title>
<polygon fill="white" stroke="transparent" points="-4,4 -4,-175 391,-175 391,4 -4,4"/>
<!-- Node1 -->
<g id="node1" class="node">
<title>Node1</title>
<g id="a_node1"><a xlink:title="Analogous to validate_options() but checks per&#45;socket options instead of per&#45;Node options.">
<polygon fill="#bfbfbf" stroke="black" points="274,-63.5 274,-89.5 387,-89.5 387,-63.5 274,-63.5"/>
<text text-anchor="start" x="282" y="-79.1" font-family="Helvetica,sans-Serif" font-size="8.00">flow::net_flow::Node</text>
<text text-anchor="middle" x="330.5" y="-70.1" font-family="Helvetica,sans-Serif" font-size="8.00">::sock_validate_options</text>
</a>
</g>
</g>
<!-- Node2 -->
<g id="node2" class="node">
<title>Node2</title>
<g id="a_node2"><a xlink:href="classflow_1_1net__flow_1_1Node.html#aba411df8746d5fd4db2d28df3a016f5e" target="_top" xlink:title="Thread W implementation of listen().">
<polygon fill="white" stroke="black" points="137,-117.5 137,-143.5 238,-143.5 238,-117.5 137,-117.5"/>
<text text-anchor="start" x="145" y="-133.1" font-family="Helvetica,sans-Serif" font-size="8.00">flow::net_flow::Node</text>
<text text-anchor="middle" x="187.5" y="-124.1" font-family="Helvetica,sans-Serif" font-size="8.00">::listen_worker</text>
</a>
</g>
</g>
<!-- Node1&#45;&gt;Node2 -->
<g id="edge1" class="edge">
<title>Node1&#45;&gt;Node2</title>
<path fill="none" stroke="midnightblue" d="M286.01,-93.16C265.69,-100.94 241.83,-110.07 222.81,-117.36"/>
<polygon fill="midnightblue" stroke="midnightblue" points="287.28,-96.42 295.37,-89.57 284.78,-89.88 287.28,-96.42"/>
</g>
<!-- Node4 -->
<g id="node4" class="node">
<title>Node4</title>
<g id="a_node4"><a xlink:href="classflow_1_1net__flow_1_1Node.html#aadea4a9941c6138d9c025401b1f85ceb" target="_top" xlink:title="Thread W implementation of sock&#45;&gt;set_options().">
<polygon fill="white" stroke="black" points="137,-63.5 137,-89.5 238,-89.5 238,-63.5 137,-63.5"/>
<text text-anchor="start" x="145" y="-79.1" font-family="Helvetica,sans-Serif" font-size="8.00">flow::net_flow::Node</text>
<text text-anchor="middle" x="187.5" y="-70.1" font-family="Helvetica,sans-Serif" font-size="8.00">::sock_set_options</text>
</a>
</g>
</g>
<!-- Node1&#45;&gt;Node4 -->
<g id="edge4" class="edge">
<title>Node1&#45;&gt;Node4</title>
<path fill="none" stroke="midnightblue" d="M263.52,-76.5C255.05,-76.5 246.49,-76.5 238.34,-76.5"/>
<polygon fill="midnightblue" stroke="midnightblue" points="263.77,-80 273.77,-76.5 263.77,-73 263.77,-80"/>
</g>
<!-- Node6 -->
<g id="node6" class="node">
<title>Node6</title>
<g id="a_node6"><a xlink:href="classflow_1_1net__flow_1_1Node.html#ab2595f47710ddb06cfb22b6710b7286e" target="_top" xlink:title="Given a new set of Node_options intended to replace (or initialize) a Node&#39;s m_opts,...">
<polygon fill="white" stroke="black" points="137,-0.5 137,-26.5 238,-26.5 238,-0.5 137,-0.5"/>
<text text-anchor="start" x="145" y="-16.1" font-family="Helvetica,sans-Serif" font-size="8.00">flow::net_flow::Node</text>
<text text-anchor="middle" x="187.5" y="-7.1" font-family="Helvetica,sans-Serif" font-size="8.00">::validate_options</text>
</a>
</g>
</g>
<!-- Node1&#45;&gt;Node6 -->
<g id="edge7" class="edge">
<title>Node1&#45;&gt;Node6</title>
<path fill="none" stroke="midnightblue" d="M291.09,-59.34C267.95,-49 238.94,-36.04 217.68,-26.54"/>
<polygon fill="midnightblue" stroke="midnightblue" points="289.73,-62.56 300.28,-63.45 292.58,-56.17 289.73,-62.56"/>
</g>
<!-- Node3 -->
<g id="node3" class="node">
<title>Node3</title>
<g id="a_node3"><a xlink:href="classflow_1_1net__flow_1_1Node.html#a3c2cd6a6c328a2d5381308258d35d95d" target="_top" xlink:title="Sets up a server on the given local Flow port and returns Server_socket which can be used to accept s...">
<polygon fill="white" stroke="black" points="0,-126.5 0,-152.5 101,-152.5 101,-126.5 0,-126.5"/>
<text text-anchor="start" x="8" y="-142.1" font-family="Helvetica,sans-Serif" font-size="8.00">flow::net_flow::Node</text>
<text text-anchor="middle" x="50.5" y="-133.1" font-family="Helvetica,sans-Serif" font-size="8.00">::listen</text>
</a>
</g>
</g>
<!-- Node2&#45;&gt;Node3 -->
<g id="edge2" class="edge">
<title>Node2&#45;&gt;Node3</title>
<path fill="none" stroke="midnightblue" d="M126.79,-134.48C118.33,-135.04 109.7,-135.62 101.45,-136.17"/>
<polygon fill="midnightblue" stroke="midnightblue" points="127.25,-137.96 137,-133.8 126.79,-130.97 127.25,-137.96"/>
</g>
<!-- Node3&#45;&gt;Node3 -->
<g id="edge3" class="edge">
<title>Node3&#45;&gt;Node3</title>
<path fill="none" stroke="midnightblue" d="M74.98,-162.94C72.26,-167.64 64.1,-171 50.5,-171 28.19,-171 20.52,-161.96 27.49,-152.77"/>
<polygon fill="midnightblue" stroke="midnightblue" points="78.4,-162.17 73.51,-152.77 71.47,-163.17 78.4,-162.17"/>
</g>
<!-- Node5 -->
<g id="node5" class="node">
<title>Node5</title>
<g id="a_node5"><a xlink:href="classflow_1_1net__flow_1_1Peer__socket.html#a7d31cf18a3c075873de1c46c0176e41f" target="_top" xlink:title="Dynamically replaces the current options set (options()) with the given options set.">
<polygon fill="white" stroke="black" points="0,-63.5 0,-89.5 101,-89.5 101,-63.5 0,-63.5"/>
<text text-anchor="start" x="8" y="-79.1" font-family="Helvetica,sans-Serif" font-size="8.00">flow::net_flow::Peer</text>
<text text-anchor="middle" x="50.5" y="-70.1" font-family="Helvetica,sans-Serif" font-size="8.00">_socket::set_options</text>
</a>
</g>
</g>
<!-- Node4&#45;&gt;Node5 -->
<g id="edge5" class="edge">
<title>Node4&#45;&gt;Node5</title>
<path fill="none" stroke="midnightblue" d="M126.79,-76.5C118.33,-76.5 109.7,-76.5 101.45,-76.5"/>
<polygon fill="midnightblue" stroke="midnightblue" points="127,-80 137,-76.5 127,-73 127,-80"/>
</g>
<!-- Node5&#45;&gt;Node5 -->
<g id="edge6" class="edge">
<title>Node5&#45;&gt;Node5</title>
<path fill="none" stroke="midnightblue" d="M74.98,-99.94C72.26,-104.64 64.1,-108 50.5,-108 28.19,-108 20.52,-98.96 27.49,-89.77"/>
<polygon fill="midnightblue" stroke="midnightblue" points="78.4,-99.17 73.51,-89.77 71.47,-100.17 78.4,-99.17"/>
</g>
<!-- Node6&#45;&gt;Node6 -->
<g id="edge10" class="edge">
<title>Node6&#45;&gt;Node6</title>
<path fill="none" stroke="midnightblue" d="M211.98,-36.94C209.26,-41.64 201.1,-45 187.5,-45 165.19,-45 157.52,-35.96 164.49,-26.77"/>
<polygon fill="midnightblue" stroke="midnightblue" points="215.4,-36.17 210.51,-26.77 208.47,-37.17 215.4,-36.17"/>
</g>
<!-- Node7 -->
<g id="node7" class="node">
<title>Node7</title>
<g id="a_node7"><a xlink:href="classflow_1_1net__flow_1_1Node.html#a2779cc2429651696df1bca8de73534f3" target="_top" xlink:title="Dynamically replaces the current options set (options()) with the given options set.">
<polygon fill="white" stroke="black" points="0,-0.5 0,-26.5 101,-26.5 101,-0.5 0,-0.5"/>
<text text-anchor="start" x="8" y="-16.1" font-family="Helvetica,sans-Serif" font-size="8.00">flow::net_flow::Node</text>
<text text-anchor="middle" x="50.5" y="-7.1" font-family="Helvetica,sans-Serif" font-size="8.00">::set_options</text>
</a>
</g>
</g>
<!-- Node6&#45;&gt;Node7 -->
<g id="edge8" class="edge">
<title>Node6&#45;&gt;Node7</title>
<path fill="none" stroke="midnightblue" d="M126.79,-13.5C118.33,-13.5 109.7,-13.5 101.45,-13.5"/>
<polygon fill="midnightblue" stroke="midnightblue" points="127,-17 137,-13.5 127,-10 127,-17"/>
</g>
<!-- Node7&#45;&gt;Node7 -->
<g id="edge9" class="edge">
<title>Node7&#45;&gt;Node7</title>
<path fill="none" stroke="midnightblue" d="M74.98,-36.94C72.26,-41.64 64.1,-45 50.5,-45 28.19,-45 20.52,-35.96 27.49,-26.77"/>
<polygon fill="midnightblue" stroke="midnightblue" points="78.4,-36.17 73.51,-26.77 71.47,-37.17 78.4,-36.17"/>
</g>
</g>
</svg>
