<?xml version="1.0" encoding="UTF-8" standalone="no"?>
<!DOCTYPE svg PUBLIC "-//W3C//DTD SVG 1.1//EN"
 "http://www.w3.org/Graphics/SVG/1.1/DTD/svg11.dtd">
<!-- Generated by graphviz version 2.43.0 (0)
 -->
<!-- Title: flow::net_flow::Node::sock_set_int_state Pages: 1 -->
<svg width="1196pt" height="330pt"
 viewBox="0.00 0.00 1196.00 329.92" xmlns="http://www.w3.org/2000/svg" xmlns:xlink="http://www.w3.org/1999/xlink">
<g id="graph0" class="graph" transform="scale(1 1) rotate(0) translate(4 325.92)">
<title>flow::net_flow::Node::sock_set_int_state</title>
<polygon fill="white" stroke="transparent" points="-4,4 -4,-325.92 1192,-325.92 1192,4 -4,4"/>
<!-- Node1 -->
<g id="node1" class="node">
<title>Node1</title>
<g id="a_node1"><a xlink:title="Sets internal state of given socket to the given state and logs a TRACE message about it.">
<polygon fill="#bfbfbf" stroke="black" points="1087,-51 1087,-77 1188,-77 1188,-51 1087,-51"/>
<text text-anchor="start" x="1095" y="-66.6" font-family="Helvetica,sans-Serif" font-size="8.00">flow::net_flow::Node</text>
<text text-anchor="middle" x="1137.5" y="-57.6" font-family="Helvetica,sans-Serif" font-size="8.00">::sock_set_int_state</text>
</a>
</g>
</g>
<!-- Node2 -->
<g id="node2" class="node">
<title>Node2</title>
<g id="a_node2"><a xlink:href="classflow_1_1net__flow_1_1Node.html#ade49e7bc7202a0adf33fec2d93d1b177" target="_top" xlink:title="A thread W method that handles the transition of the given socket from OPEN (any sub&#45;state) to CLOSED...">
<polygon fill="white" stroke="black" points="903,-154 903,-180 1051,-180 1051,-154 903,-154"/>
<text text-anchor="start" x="911" y="-169.6" font-family="Helvetica,sans-Serif" font-size="8.00">flow::net_flow::Node</text>
<text text-anchor="middle" x="977" y="-160.6" font-family="Helvetica,sans-Serif" font-size="8.00">::close_connection_immediately</text>
</a>
</g>
</g>
<!-- Node1&#45;&gt;Node2 -->
<g id="edge1" class="edge">
<title>Node1&#45;&gt;Node2</title>
<path fill="none" stroke="midnightblue" d="M1108.02,-82.51C1076.35,-103.09 1026,-135.81 998.16,-153.9"/>
<polygon fill="midnightblue" stroke="midnightblue" points="1109.95,-85.43 1116.43,-77.05 1106.13,-79.56 1109.95,-85.43"/>
</g>
<!-- Node21 -->
<g id="node13" class="node">
<title>Node21</title>
<g id="a_node13"><a xlink:href="classflow_1_1net__flow_1_1Node.html#a29d02f9e302c7b06288ff1c644fa8d65" target="_top" xlink:title="Handles a just&#45;deserialized, just&#45;demultiplexed low&#45;level SYN_ACK_ACK packet delivered to the given p...">
<polygon fill="white" stroke="black" points="448,-61.5 448,-96.5 553,-96.5 553,-61.5 448,-61.5"/>
<text text-anchor="start" x="456" y="-86.1" font-family="Helvetica,sans-Serif" font-size="8.00">flow::net_flow::Node</text>
<text text-anchor="start" x="456" y="-77.1" font-family="Helvetica,sans-Serif" font-size="8.00">::handle_syn_ack_ack</text>
<text text-anchor="middle" x="500.5" y="-68.1" font-family="Helvetica,sans-Serif" font-size="8.00">_to_syn_rcvd</text>
</a>
</g>
</g>
<!-- Node1&#45;&gt;Node21 -->
<g id="edge20" class="edge">
<title>Node1&#45;&gt;Node21</title>
<path fill="none" stroke="midnightblue" d="M1076.88,-65.41C953.12,-68.33 670.13,-75.02 553.36,-77.77"/>
<polygon fill="midnightblue" stroke="midnightblue" points="1077.02,-68.91 1086.94,-65.17 1076.86,-61.91 1077.02,-68.91"/>
</g>
<!-- Node23 -->
<g id="node16" class="node">
<title>Node23</title>
<g id="a_node16"><a xlink:href="classflow_1_1net__flow_1_1Node.html#aaaf5c3b5e6b9f9f1658b60907b36a498" target="_top" xlink:title="Handles a just&#45;deserialized, just&#45;demultiplexed low&#45;level SYN packet delivered to the given server so...">
<polygon fill="white" stroke="black" points="917,-0.5 917,-35.5 1037,-35.5 1037,-0.5 917,-0.5"/>
<text text-anchor="start" x="925" y="-25.1" font-family="Helvetica,sans-Serif" font-size="8.00">flow::net_flow::Node</text>
<text text-anchor="start" x="925" y="-16.1" font-family="Helvetica,sans-Serif" font-size="8.00">::handle_syn_to_listening</text>
<text text-anchor="middle" x="977" y="-7.1" font-family="Helvetica,sans-Serif" font-size="8.00">_server</text>
</a>
</g>
</g>
<!-- Node1&#45;&gt;Node23 -->
<g id="edge21" class="edge">
<title>Node1&#45;&gt;Node23</title>
<path fill="none" stroke="midnightblue" d="M1081.73,-48.11C1067.31,-43.92 1051.68,-39.38 1037.04,-35.13"/>
<polygon fill="midnightblue" stroke="midnightblue" points="1080.92,-51.52 1091.5,-50.94 1082.88,-44.79 1080.92,-51.52"/>
</g>
<!-- Node3 -->
<g id="node3" class="node">
<title>Node3</title>
<g id="a_node3"><a xlink:href="classflow_1_1net__flow_1_1Node.html#a1699dfdaf3e5ebe1b1d715a9c306d116" target="_top" xlink:title="Handles a just&#45;received, not&#45;yet&#45;deserialized low&#45;level packet.">
<polygon fill="white" stroke="black" points="298,-66 298,-92 399,-92 399,-66 298,-66"/>
<text text-anchor="start" x="306" y="-81.6" font-family="Helvetica,sans-Serif" font-size="8.00">flow::net_flow::Node</text>
<text text-anchor="middle" x="348.5" y="-72.6" font-family="Helvetica,sans-Serif" font-size="8.00">::handle_incoming</text>
</a>
</g>
</g>
<!-- Node2&#45;&gt;Node3 -->
<g id="edge2" class="edge">
<title>Node2&#45;&gt;Node3</title>
<path fill="none" stroke="midnightblue" d="M958.04,-187.7C938.2,-208.86 904.12,-240.49 867,-254 686.56,-319.66 597.2,-362.77 435,-260 374.23,-221.5 355.84,-126.92 351.02,-92.12"/>
<polygon fill="midnightblue" stroke="midnightblue" points="960.76,-189.9 964.92,-180.16 955.59,-185.19 960.76,-189.9"/>
</g>
<!-- Node9 -->
<g id="node6" class="node">
<title>Node9</title>
<g id="a_node6"><a xlink:href="classflow_1_1net__flow_1_1Node.html#ad608f9bbe76426f4fbf4bf5af908e4e0" target="_top" xlink:title="Placed by receive() onto W during a graceful close, after the Receive buffer had been emptied by the ...">
<polygon fill="white" stroke="black" points="742.5,-209.5 742.5,-244.5 863.5,-244.5 863.5,-209.5 742.5,-209.5"/>
<text text-anchor="start" x="750.5" y="-234.1" font-family="Helvetica,sans-Serif" font-size="8.00">flow::net_flow::Node</text>
<text text-anchor="start" x="750.5" y="-225.1" font-family="Helvetica,sans-Serif" font-size="8.00">::receive_emptied_rcv</text>
<text text-anchor="middle" x="803" y="-216.1" font-family="Helvetica,sans-Serif" font-size="8.00">_buf_while_disconnecting</text>
</a>
</g>
</g>
<!-- Node2&#45;&gt;Node9 -->
<g id="edge7" class="edge">
<title>Node2&#45;&gt;Node9</title>
<path fill="none" stroke="midnightblue" d="M929.07,-183.37C905.89,-191.46 877.92,-201.22 854.3,-209.45"/>
<polygon fill="midnightblue" stroke="midnightblue" points="930.39,-186.62 938.68,-180.02 928.08,-180.01 930.39,-186.62"/>
</g>
<!-- Node18 -->
<g id="node10" class="node">
<title>Node18</title>
<g id="a_node10"><a xlink:href="classflow_1_1net__flow_1_1Node.html#afe70a0c32695e417e7a09e0ba773f151" target="_top" xlink:title="Asynchronously send RST to the other side of the given socket and close_connection_immediately().">
<polygon fill="white" stroke="black" points="739,-149.5 739,-184.5 867,-184.5 867,-149.5 739,-149.5"/>
<text text-anchor="start" x="747" y="-174.1" font-family="Helvetica,sans-Serif" font-size="8.00">flow::net_flow::Node</text>
<text text-anchor="start" x="747" y="-165.1" font-family="Helvetica,sans-Serif" font-size="8.00">::rst_and_close_connection</text>
<text text-anchor="middle" x="803" y="-156.1" font-family="Helvetica,sans-Serif" font-size="8.00">_immediately</text>
</a>
</g>
</g>
<!-- Node2&#45;&gt;Node18 -->
<g id="edge11" class="edge">
<title>Node2&#45;&gt;Node18</title>
<path fill="none" stroke="midnightblue" d="M892.28,-167C883.83,-167 875.35,-167 867.17,-167"/>
<polygon fill="midnightblue" stroke="midnightblue" points="892.56,-170.5 902.56,-167 892.56,-163.5 892.56,-170.5"/>
</g>
<!-- Node8 -->
<g id="node15" class="node">
<title>Node8</title>
<g id="a_node15"><a xlink:href="classflow_1_1net__flow_1_1Node.html#a5b056ed753b832458f44f537acfe86d7" target="_top" xlink:title="Worker thread W (main event loop) body.">
<polygon fill="white" stroke="black" points="752.5,-104 752.5,-130 853.5,-130 853.5,-104 752.5,-104"/>
<text text-anchor="start" x="760.5" y="-119.6" font-family="Helvetica,sans-Serif" font-size="8.00">flow::net_flow::Node</text>
<text text-anchor="middle" x="803" y="-110.6" font-family="Helvetica,sans-Serif" font-size="8.00">::worker_run</text>
</a>
</g>
</g>
<!-- Node2&#45;&gt;Node8 -->
<g id="edge19" class="edge">
<title>Node2&#45;&gt;Node8</title>
<path fill="none" stroke="midnightblue" d="M921.47,-151.15C898.06,-144.34 871.04,-136.49 848.82,-130.03"/>
<polygon fill="midnightblue" stroke="midnightblue" points="920.68,-154.56 931.26,-153.99 922.63,-147.84 920.68,-154.56"/>
</g>
<!-- Node4 -->
<g id="node4" class="node">
<title>Node4</title>
<g id="a_node4"><a xlink:href="classflow_1_1net__flow_1_1Node.html#a4368247d07e930bdd07ab8d2425c6de8" target="_top" xlink:title="Sets up handle_incoming(packet_data, low_lvl_remote_endpoint) to be called asynchronously after a spe...">
<polygon fill="white" stroke="black" points="149,-84.5 149,-119.5 262,-119.5 262,-84.5 149,-84.5"/>
<text text-anchor="start" x="157" y="-109.1" font-family="Helvetica,sans-Serif" font-size="8.00">flow::net_flow::Node</text>
<text text-anchor="start" x="157" y="-100.1" font-family="Helvetica,sans-Serif" font-size="8.00">::async_wait_latency</text>
<text text-anchor="middle" x="205.5" y="-91.1" font-family="Helvetica,sans-Serif" font-size="8.00">_then_handle_incoming</text>
</a>
</g>
</g>
<!-- Node3&#45;&gt;Node4 -->
<g id="edge3" class="edge">
<title>Node3&#45;&gt;Node4</title>
<path fill="none" stroke="midnightblue" d="M287.86,-88.73C279.29,-90.13 270.49,-91.56 262.01,-92.95"/>
<polygon fill="midnightblue" stroke="midnightblue" points="288.48,-92.17 297.79,-87.11 287.36,-85.26 288.48,-92.17"/>
</g>
<!-- Node5 -->
<g id="node5" class="node">
<title>Node5</title>
<g id="a_node5"><a xlink:href="classflow_1_1net__flow_1_1Node.html#a90ecbad1ff3a8d2fe4b3ad1c474f7513" target="_top" xlink:title="Helper for low_lvl_recv_and_handle() that calls handle_incoming() on the not&#45;yet&#45;deserialized low&#45;lev...">
<polygon fill="white" stroke="red" points="0,-61.5 0,-96.5 113,-96.5 113,-61.5 0,-61.5"/>
<text text-anchor="start" x="8" y="-86.1" font-family="Helvetica,sans-Serif" font-size="8.00">flow::net_flow::Node</text>
<text text-anchor="start" x="8" y="-77.1" font-family="Helvetica,sans-Serif" font-size="8.00">::handle_incoming_with</text>
<text text-anchor="middle" x="56.5" y="-68.1" font-family="Helvetica,sans-Serif" font-size="8.00">_simulation</text>
</a>
</g>
</g>
<!-- Node3&#45;&gt;Node5 -->
<g id="edge6" class="edge">
<title>Node3&#45;&gt;Node5</title>
<path fill="none" stroke="midnightblue" d="M287.75,-75.85C279.11,-75.5 270.33,-75.19 262,-75 211.79,-73.83 199.21,-73.9 149,-75 137.4,-75.25 124.97,-75.69 113.13,-76.18"/>
<polygon fill="midnightblue" stroke="midnightblue" points="287.64,-79.35 297.78,-76.28 287.94,-72.35 287.64,-79.35"/>
</g>
<!-- Node4&#45;&gt;Node5 -->
<g id="edge4" class="edge">
<title>Node4&#45;&gt;Node5</title>
<path fill="none" stroke="midnightblue" d="M138.92,-91.74C130.32,-90.39 121.57,-89.02 113.15,-87.71"/>
<polygon fill="midnightblue" stroke="midnightblue" points="138.5,-95.22 148.93,-93.3 139.59,-88.3 138.5,-95.22"/>
</g>
<!-- Node5&#45;&gt;Node5 -->
<g id="edge5" class="edge">
<title>Node5&#45;&gt;Node5</title>
<path fill="none" stroke="midnightblue" d="M82.27,-107.1C78.65,-111.77 70.06,-115 56.5,-115 34.24,-115 25.37,-106.31 29.89,-96.78"/>
<polygon fill="midnightblue" stroke="midnightblue" points="85.79,-107.03 83.11,-96.78 78.81,-106.47 85.79,-107.03"/>
</g>
<!-- Node10 -->
<g id="node7" class="node">
<title>Node10</title>
<g id="a_node7"><a xlink:href="classflow_1_1net__flow_1_1Node.html#addbb96858fd7b3c9ddd7c6fe8078809c" target="_top" xlink:title="Implementation of non&#45;blocking sock&#45;&gt;receive() for socket sock in all cases except when sock&#45;&gt;state()...">
<polygon fill="white" stroke="black" points="602,-222 602,-248 703,-248 703,-222 602,-222"/>
<text text-anchor="start" x="610" y="-237.6" font-family="Helvetica,sans-Serif" font-size="8.00">flow::net_flow::Node</text>
<text text-anchor="middle" x="652.5" y="-228.6" font-family="Helvetica,sans-Serif" font-size="8.00">::receive</text>
</a>
</g>
</g>
<!-- Node9&#45;&gt;Node10 -->
<g id="edge8" class="edge">
<title>Node9&#45;&gt;Node10</title>
<path fill="none" stroke="midnightblue" d="M732.25,-230.76C722.39,-231.29 712.42,-231.83 703.05,-232.33"/>
<polygon fill="midnightblue" stroke="midnightblue" points="732.66,-234.24 742.46,-230.21 732.28,-227.25 732.66,-234.24"/>
</g>
<!-- Node11 -->
<g id="node8" class="node">
<title>Node11</title>
<g id="a_node8"><a xlink:href="classflow_1_1net__flow_1_1Peer__socket.html#af3ac1b0b3c9b1c3a5ec246148595c657" target="_top" xlink:title="Non&#45;template helper for template receive() that forwards the receive() logic to Node::receive().">
<polygon fill="white" stroke="red" points="446.5,-224 446.5,-250 554.5,-250 554.5,-224 446.5,-224"/>
<text text-anchor="start" x="454.5" y="-239.6" font-family="Helvetica,sans-Serif" font-size="8.00">flow::net_flow::Peer</text>
<text text-anchor="middle" x="500.5" y="-230.6" font-family="Helvetica,sans-Serif" font-size="8.00">_socket::node_receive</text>
</a>
</g>
</g>
<!-- Node10&#45;&gt;Node11 -->
<g id="edge9" class="edge">
<title>Node10&#45;&gt;Node11</title>
<path fill="none" stroke="midnightblue" d="M591.8,-235.8C579.51,-235.96 566.64,-236.13 554.59,-236.29"/>
<polygon fill="midnightblue" stroke="midnightblue" points="592.02,-239.29 601.97,-235.66 591.92,-232.29 592.02,-239.29"/>
</g>
<!-- Node13 -->
<g id="node9" class="node">
<title>Node13</title>
<g id="a_node9"><a xlink:href="classflow_1_1net__flow_1_1Peer__socket.html#a8abde92d5189bf2a058fe8741789f814" target="_top" xlink:title="This is to sync_receive() as node_receive() is to receive().">
<polygon fill="white" stroke="red" points="435,-179 435,-205 566,-205 566,-179 435,-179"/>
<text text-anchor="start" x="443" y="-194.6" font-family="Helvetica,sans-Serif" font-size="8.00">flow::net_flow::Peer</text>
<text text-anchor="middle" x="500.5" y="-185.6" font-family="Helvetica,sans-Serif" font-size="8.00">_socket::node_sync_receive</text>
</a>
</g>
</g>
<!-- Node10&#45;&gt;Node13 -->
<g id="edge10" class="edge">
<title>Node10&#45;&gt;Node13</title>
<path fill="none" stroke="midnightblue" d="M596.21,-219.15C580.02,-214.51 562.52,-209.49 547.02,-205.05"/>
<polygon fill="midnightblue" stroke="midnightblue" points="595.51,-222.59 606.09,-221.98 597.44,-215.86 595.51,-222.59"/>
</g>
<!-- Node19 -->
<g id="node11" class="node">
<title>Node19</title>
<g id="a_node11"><a xlink:href="classflow_1_1net__flow_1_1Node.html#a6461124e5bc3e59083e172e26029e632" target="_top" xlink:title="Implementation of non&#45;blocking sock&#45;&gt;close_abruptly() for socket sock in all cases except when sock&#45;&gt;...">
<polygon fill="white" stroke="black" points="602,-177 602,-203 703,-203 703,-177 602,-177"/>
<text text-anchor="start" x="610" y="-192.6" font-family="Helvetica,sans-Serif" font-size="8.00">flow::net_flow::Node</text>
<text text-anchor="middle" x="652.5" y="-183.6" font-family="Helvetica,sans-Serif" font-size="8.00">::close_abruptly</text>
</a>
</g>
</g>
<!-- Node18&#45;&gt;Node19 -->
<g id="edge12" class="edge">
<title>Node18&#45;&gt;Node19</title>
<path fill="none" stroke="midnightblue" d="M728.55,-178.38C719.97,-179.7 711.38,-181.04 703.23,-182.3"/>
<polygon fill="midnightblue" stroke="midnightblue" points="729.25,-181.81 738.59,-176.82 728.17,-174.89 729.25,-181.81"/>
</g>
<!-- Node18&#45;&gt;Node21 -->
<g id="edge15" class="edge">
<title>Node18&#45;&gt;Node21</title>
<path fill="none" stroke="midnightblue" d="M728.56,-159.05C689.96,-153.31 642.41,-143.7 602,-128 584.52,-121.21 582.7,-114.53 566,-106 559.62,-102.74 552.76,-99.55 545.97,-96.57"/>
<polygon fill="midnightblue" stroke="midnightblue" points="728.29,-162.55 738.68,-160.5 729.28,-155.62 728.29,-162.55"/>
</g>
<!-- Node22 -->
<g id="node14" class="node">
<title>Node22</title>
<g id="a_node14"><a xlink:href="classflow_1_1net__flow_1_1Node.html#ab427ebc124a6233ae48a7562662a6e81" target="_top" xlink:title="Creates a new Drop Timer and saves it to sock&#45;&gt;m_snd_drop_timer.">
<polygon fill="white" stroke="black" points="602,-93 602,-119 703,-119 703,-93 602,-93"/>
<text text-anchor="start" x="610" y="-108.6" font-family="Helvetica,sans-Serif" font-size="8.00">flow::net_flow::Node</text>
<text text-anchor="middle" x="652.5" y="-99.6" font-family="Helvetica,sans-Serif" font-size="8.00">::setup_drop_timer</text>
</a>
</g>
</g>
<!-- Node18&#45;&gt;Node22 -->
<g id="edge17" class="edge">
<title>Node18&#45;&gt;Node22</title>
<path fill="none" stroke="midnightblue" d="M749.74,-145.53C728.33,-136.74 704.23,-126.84 685.5,-119.15"/>
<polygon fill="midnightblue" stroke="midnightblue" points="748.47,-148.79 759.05,-149.36 751.13,-142.32 748.47,-148.79"/>
</g>
<!-- Node20 -->
<g id="node12" class="node">
<title>Node20</title>
<g id="a_node12"><a xlink:href="classflow_1_1net__flow_1_1Peer__socket.html#a9ab710704237f912eb219f9b8d574afc" target="_top" xlink:title="Acts as if fatal error error::Code::S_USER_CLOSED_ABRUPTLY has been discovered on the connection.">
<polygon fill="white" stroke="black" points="444,-116 444,-142 557,-142 557,-116 444,-116"/>
<text text-anchor="start" x="452" y="-131.6" font-family="Helvetica,sans-Serif" font-size="8.00">flow::net_flow::Peer</text>
<text text-anchor="middle" x="500.5" y="-122.6" font-family="Helvetica,sans-Serif" font-size="8.00">_socket::close_abruptly</text>
</a>
</g>
</g>
<!-- Node19&#45;&gt;Node20 -->
<g id="edge13" class="edge">
<title>Node19&#45;&gt;Node20</title>
<path fill="none" stroke="midnightblue" d="M610.05,-173.14C585.92,-163.33 555.96,-151.15 533.63,-142.06"/>
<polygon fill="midnightblue" stroke="midnightblue" points="608.74,-176.39 619.32,-176.91 611.38,-169.9 608.74,-176.39"/>
</g>
<!-- Node20&#45;&gt;Node20 -->
<g id="edge14" class="edge">
<title>Node20&#45;&gt;Node20</title>
<path fill="none" stroke="midnightblue" d="M527.86,-152.44C524.82,-157.14 515.7,-160.5 500.5,-160.5 475.56,-160.5 466.99,-151.46 474.78,-142.27"/>
<polygon fill="midnightblue" stroke="midnightblue" points="531.27,-151.59 526.22,-142.27 524.35,-152.7 531.27,-151.59"/>
</g>
<!-- Node21&#45;&gt;Node3 -->
<g id="edge16" class="edge">
<title>Node21&#45;&gt;Node3</title>
<path fill="none" stroke="midnightblue" d="M437.73,-79C424.89,-79 411.53,-79 399.19,-79"/>
<polygon fill="midnightblue" stroke="midnightblue" points="437.88,-82.5 447.88,-79 437.88,-75.5 437.88,-82.5"/>
</g>
<!-- Node22&#45;&gt;Node21 -->
<g id="edge18" class="edge">
<title>Node22&#45;&gt;Node21</title>
<path fill="none" stroke="midnightblue" d="M591.84,-95.26C579,-92.95 565.53,-90.53 553.04,-88.28"/>
<polygon fill="midnightblue" stroke="midnightblue" points="591.51,-98.76 601.97,-97.08 592.75,-91.87 591.51,-98.76"/>
</g>
<!-- Node23&#45;&gt;Node3 -->
<g id="edge22" class="edge">
<title>Node23&#45;&gt;Node3</title>
<path fill="none" stroke="midnightblue" d="M906.98,-17.01C803.5,-16.71 602.43,-20.79 435,-52 418.01,-55.17 399.68,-60.66 384.37,-65.87"/>
<polygon fill="midnightblue" stroke="midnightblue" points="906.97,-20.51 916.98,-17.05 907,-13.51 906.97,-20.51"/>
</g>
</g>
</svg>
