<?xml version="1.0" encoding="UTF-8" standalone="no"?>
<!DOCTYPE svg PUBLIC "-//W3C//DTD SVG 1.1//EN"
 "http://www.w3.org/Graphics/SVG/1.1/DTD/svg11.dtd">
<!-- Generated by graphviz version 2.43.0 (0)
 -->
<!-- Title: flow::net_flow::Peer_socket::max_block_size Pages: 1 -->
<svg width="595pt" height="135pt"
 viewBox="0.00 0.00 595.00 134.50" xmlns="http://www.w3.org/2000/svg" xmlns:xlink="http://www.w3.org/1999/xlink">
<g id="graph0" class="graph" transform="scale(1 1) rotate(0) translate(4 130.5)">
<title>flow::net_flow::Peer_socket::max_block_size</title>
<polygon fill="white" stroke="transparent" points="-4,4 -4,-130.5 591,-130.5 591,4 -4,4"/>
<!-- Node1 -->
<g id="node1" class="node">
<title>Node1</title>
<g id="a_node1"><a xlink:title="The maximum number of bytes of user data per received or sent packet on this connection.">
<polygon fill="#bfbfbf" stroke="black" points="471,-55 471,-81 587,-81 587,-55 471,-55"/>
<text text-anchor="start" x="479" y="-70.6" font-family="Helvetica,sans-Serif" font-size="8.00">flow::net_flow::Peer</text>
<text text-anchor="middle" x="529" y="-61.6" font-family="Helvetica,sans-Serif" font-size="8.00">_socket::max_block_size</text>
</a>
</g>
</g>
<!-- Node2 -->
<g id="node2" class="node">
<title>Node2</title>
<g id="a_node2"><a xlink:href="classflow_1_1net__flow_1_1Peer__socket.html#acd100a3c02fad5d9e00fcbc1f645f116" target="_top" xlink:title="Helper that, given a byte count, returns a string with that byte count and the number of max_block_si...">
<polygon fill="white" stroke="black" points="315,-100 315,-126 435,-126 435,-100 315,-100"/>
<text text-anchor="start" x="323" y="-115.6" font-family="Helvetica,sans-Serif" font-size="8.00">flow::net_flow::Peer</text>
<text text-anchor="middle" x="375" y="-106.6" font-family="Helvetica,sans-Serif" font-size="8.00">_socket::bytes_blocks_str</text>
</a>
</g>
</g>
<!-- Node1&#45;&gt;Node2 -->
<g id="edge1" class="edge">
<title>Node1&#45;&gt;Node2</title>
<path fill="none" stroke="midnightblue" d="M474.38,-83.87C456.63,-89.13 437.09,-94.92 420.13,-99.94"/>
<polygon fill="midnightblue" stroke="midnightblue" points="475.44,-87.21 484.04,-81.02 473.45,-80.5 475.44,-87.21"/>
</g>
<!-- Node3 -->
<g id="node3" class="node">
<title>Node3</title>
<g id="a_node3"><a xlink:href="classflow_1_1net__flow_1_1Node.html#a5dbd8c3b12fa035c56396a4f7263a8e6" target="_top" xlink:title="Same as connect() but sends, as part of the connection handshake, the user&#45;supplied metadata,...">
<polygon fill="white" stroke="black" points="315,-55 315,-81 435,-81 435,-55 315,-55"/>
<text text-anchor="start" x="323" y="-70.6" font-family="Helvetica,sans-Serif" font-size="8.00">flow::net_flow::Node</text>
<text text-anchor="middle" x="375" y="-61.6" font-family="Helvetica,sans-Serif" font-size="8.00">::connect_with_metadata</text>
</a>
</g>
</g>
<!-- Node1&#45;&gt;Node3 -->
<g id="edge2" class="edge">
<title>Node1&#45;&gt;Node3</title>
<path fill="none" stroke="midnightblue" d="M460.96,-68C452.36,-68 443.59,-68 435.13,-68"/>
<polygon fill="midnightblue" stroke="midnightblue" points="460.97,-71.5 470.97,-68 460.97,-64.5 460.97,-71.5"/>
</g>
<!-- Node7 -->
<g id="node7" class="node">
<title>Node7</title>
<g id="a_node7"><a xlink:href="classflow_1_1net__flow_1_1Peer__socket.html#abb4bf5fcd52fb468d48b46f5762958f1" target="_top" xlink:title="Returns the smallest multiple of max_block_size() that is &gt;= the given option value,...">
<polygon fill="white" stroke="black" points="317,-0.5 317,-35.5 433,-35.5 433,-0.5 317,-0.5"/>
<text text-anchor="start" x="325" y="-25.1" font-family="Helvetica,sans-Serif" font-size="8.00">flow::net_flow::Peer</text>
<text text-anchor="start" x="325" y="-16.1" font-family="Helvetica,sans-Serif" font-size="8.00">_socket::max_block_size</text>
<text text-anchor="middle" x="375" y="-7.1" font-family="Helvetica,sans-Serif" font-size="8.00">_multiple</text>
</a>
</g>
</g>
<!-- Node1&#45;&gt;Node7 -->
<g id="edge6" class="edge">
<title>Node1&#45;&gt;Node7</title>
<path fill="none" stroke="midnightblue" d="M478.87,-51.84C463.06,-46.64 445.46,-40.85 429.36,-35.55"/>
<polygon fill="midnightblue" stroke="midnightblue" points="477.87,-55.19 488.46,-54.99 480.06,-48.54 477.87,-55.19"/>
</g>
<!-- Node4 -->
<g id="node4" class="node">
<title>Node4</title>
<g id="a_node4"><a xlink:href="classflow_1_1net__flow_1_1asio_1_1Node.html#aecac8b38cd35267b1af57e2443a55ea0" target="_top" xlink:title="Implementation core of async_connect*() that gets rid of templated or missing arguments thereof.">
<polygon fill="white" stroke="black" points="147,-55 147,-81 279,-81 279,-55 147,-55"/>
<text text-anchor="start" x="155" y="-70.6" font-family="Helvetica,sans-Serif" font-size="8.00">flow::net_flow::asio</text>
<text text-anchor="middle" x="213" y="-61.6" font-family="Helvetica,sans-Serif" font-size="8.00">::Node::async_connect_impl</text>
</a>
</g>
</g>
<!-- Node3&#45;&gt;Node4 -->
<g id="edge3" class="edge">
<title>Node3&#45;&gt;Node4</title>
<path fill="none" stroke="midnightblue" d="M304.63,-68C296.14,-68 287.49,-68 279.07,-68"/>
<polygon fill="midnightblue" stroke="midnightblue" points="304.88,-71.5 314.88,-68 304.88,-64.5 304.88,-71.5"/>
</g>
<!-- Node5 -->
<g id="node5" class="node">
<title>Node5</title>
<g id="a_node5"><a xlink:href="classflow_1_1net__flow_1_1asio_1_1Node.html#a9d722f4c2d7708a78c3e48615acd245d" target="_top" xlink:title="The boost.asio asynchronous version of sync_connect(), performing any necessary wait and connection i...">
<polygon fill="white" stroke="black" points="0,-80 0,-106 111,-106 111,-80 0,-80"/>
<text text-anchor="start" x="8" y="-95.6" font-family="Helvetica,sans-Serif" font-size="8.00">flow::net_flow::asio</text>
<text text-anchor="middle" x="55.5" y="-86.6" font-family="Helvetica,sans-Serif" font-size="8.00">::Node::async_connect</text>
</a>
</g>
</g>
<!-- Node4&#45;&gt;Node5 -->
<g id="edge4" class="edge">
<title>Node4&#45;&gt;Node5</title>
<path fill="none" stroke="midnightblue" d="M136.91,-80.07C128.32,-81.45 119.68,-82.84 111.43,-84.17"/>
<polygon fill="midnightblue" stroke="midnightblue" points="137.64,-83.5 146.95,-78.46 136.53,-76.59 137.64,-83.5"/>
</g>
<!-- Node6 -->
<g id="node6" class="node">
<title>Node6</title>
<g id="a_node6"><a xlink:href="classflow_1_1net__flow_1_1asio_1_1Node.html#a413bf3647485000a013b416a5b729ffb" target="_top" xlink:title="A combination of async_connect() and connect_with_metadata() (asynchronously blocking connect,...">
<polygon fill="white" stroke="black" points="0,-25.5 0,-60.5 111,-60.5 111,-25.5 0,-25.5"/>
<text text-anchor="start" x="8" y="-50.1" font-family="Helvetica,sans-Serif" font-size="8.00">flow::net_flow::asio</text>
<text text-anchor="start" x="8" y="-41.1" font-family="Helvetica,sans-Serif" font-size="8.00">::Node::async_connect</text>
<text text-anchor="middle" x="55.5" y="-32.1" font-family="Helvetica,sans-Serif" font-size="8.00">_with_metadata</text>
</a>
</g>
</g>
<!-- Node4&#45;&gt;Node6 -->
<g id="edge5" class="edge">
<title>Node4&#45;&gt;Node6</title>
<path fill="none" stroke="midnightblue" d="M136.91,-55.93C128.32,-54.55 119.68,-53.16 111.43,-51.83"/>
<polygon fill="midnightblue" stroke="midnightblue" points="136.53,-59.41 146.95,-57.54 137.64,-52.5 136.53,-59.41"/>
</g>
</g>
</svg>
