<?xml version="1.0" encoding="UTF-8" standalone="no"?>
<!DOCTYPE svg PUBLIC "-//W3C//DTD SVG 1.1//EN"
 "http://www.w3.org/Graphics/SVG/1.1/DTD/svg11.dtd">
<!-- Generated by graphviz version 2.43.0 (0)
 -->
<!-- Title: flow::log::Config::store_severity_by_component Pages: 1 -->
<svg width="311pt" height="144pt"
 viewBox="0.00 0.00 311.00 143.50" xmlns="http://www.w3.org/2000/svg" xmlns:xlink="http://www.w3.org/1999/xlink">
<g id="graph0" class="graph" transform="scale(1 1) rotate(0) translate(4 139.5)">
<title>flow::log::Config::store_severity_by_component</title>
<polygon fill="white" stroke="transparent" points="-4,4 -4,-139.5 307,-139.5 307,4 -4,4"/>
<!-- Node1 -->
<g id="node1" class="node">
<title>Node1</title>
<g id="a_node1"><a xlink:title="Helper that for the given flat&#45;union&#45;component&#45;index saves the given per&#45;component verbosity,...">
<polygon fill="#bfbfbf" stroke="black" points="166,-50.5 166,-76.5 303,-76.5 303,-50.5 166,-50.5"/>
<text text-anchor="start" x="174" y="-66.1" font-family="Helvetica,sans-Serif" font-size="8.00">flow::log::Config::</text>
<text text-anchor="middle" x="234.5" y="-57.1" font-family="Helvetica,sans-Serif" font-size="8.00">store_severity_by_component</text>
</a>
</g>
</g>
<!-- Node2 -->
<g id="node2" class="node">
<title>Node2</title>
<g id="a_node2"><a xlink:href="classflow_1_1log_1_1Config.html#adfde40890c0dc1fa8956451f44251dc8" target="_top" xlink:title="Sets the per&#45;component verbosity for the given component to the given value, to be used by subsequent...">
<polygon fill="white" stroke="black" points="12,-100 12,-135 118,-135 118,-100 12,-100"/>
<text text-anchor="start" x="20" y="-124.6" font-family="Helvetica,sans-Serif" font-size="8.00">flow::log::Config::</text>
<text text-anchor="start" x="20" y="-115.6" font-family="Helvetica,sans-Serif" font-size="8.00">configure_component</text>
<text text-anchor="middle" x="65" y="-106.6" font-family="Helvetica,sans-Serif" font-size="8.00">_verbosity</text>
</a>
</g>
</g>
<!-- Node1&#45;&gt;Node2 -->
<g id="edge1" class="edge">
<title>Node1&#45;&gt;Node2</title>
<path fill="none" stroke="midnightblue" d="M183.17,-79.73C162.65,-86.34 138.93,-93.99 118.22,-100.66"/>
<polygon fill="midnightblue" stroke="midnightblue" points="184.51,-82.97 192.95,-76.57 182.36,-76.31 184.51,-82.97"/>
</g>
<!-- Node3 -->
<g id="node3" class="node">
<title>Node3</title>
<g id="a_node3"><a xlink:href="classflow_1_1log_1_1Config.html#a2f266ee7e22d1090ab4de76e532cab89" target="_top" xlink:title="Like configure_component_verbosity(), but the component is to be specified by its registered string n...">
<polygon fill="white" stroke="black" points="12,-46 12,-81 118,-81 118,-46 12,-46"/>
<text text-anchor="start" x="20" y="-70.6" font-family="Helvetica,sans-Serif" font-size="8.00">flow::log::Config::</text>
<text text-anchor="start" x="20" y="-61.6" font-family="Helvetica,sans-Serif" font-size="8.00">configure_component</text>
<text text-anchor="middle" x="65" y="-52.6" font-family="Helvetica,sans-Serif" font-size="8.00">_verbosity_by_name</text>
</a>
</g>
</g>
<!-- Node1&#45;&gt;Node3 -->
<g id="edge2" class="edge">
<title>Node1&#45;&gt;Node3</title>
<path fill="none" stroke="midnightblue" d="M155.71,-63.5C142.99,-63.5 130.09,-63.5 118.18,-63.5"/>
<polygon fill="midnightblue" stroke="midnightblue" points="155.85,-67 165.85,-63.5 155.85,-60 155.85,-67"/>
</g>
<!-- Node4 -->
<g id="node4" class="node">
<title>Node4</title>
<g id="a_node4"><a xlink:href="classflow_1_1log_1_1Config.html#ac562cc0132f6cfa81b42c332400033ae" target="_top" xlink:title="Sets the default verbosity to the given value, to be used by subsequent output_whether_should_log() c...">
<polygon fill="white" stroke="black" points="0,-0.5 0,-26.5 130,-26.5 130,-0.5 0,-0.5"/>
<text text-anchor="start" x="8" y="-16.1" font-family="Helvetica,sans-Serif" font-size="8.00">flow::log::Config::</text>
<text text-anchor="middle" x="65" y="-7.1" font-family="Helvetica,sans-Serif" font-size="8.00">configure_default_verbosity</text>
</a>
</g>
</g>
<!-- Node1&#45;&gt;Node4 -->
<g id="edge3" class="edge">
<title>Node1&#45;&gt;Node4</title>
<path fill="none" stroke="midnightblue" d="M180.09,-47.56C157.36,-40.77 131.19,-32.96 109.64,-26.53"/>
<polygon fill="midnightblue" stroke="midnightblue" points="179.35,-50.99 189.93,-50.49 181.35,-44.28 179.35,-50.99"/>
</g>
</g>
</svg>
