<?xml version="1.0" encoding="UTF-8" standalone="no"?>
<!DOCTYPE svg PUBLIC "-//W3C//DTD SVG 1.1//EN"
 "http://www.w3.org/Graphics/SVG/1.1/DTD/svg11.dtd">
<!-- Generated by graphviz version 2.43.0 (0)
 -->
<!-- Title: flow::util::Basic_string_view&lt; Ch, Traits &gt; Pages: 1 -->
<svg width="115pt" height="98pt"
 viewBox="0.00 0.00 115.00 98.00" xmlns="http://www.w3.org/2000/svg" xmlns:xlink="http://www.w3.org/1999/xlink">
<g id="graph0" class="graph" transform="scale(1 1) rotate(0) translate(4 94)">
<title>flow::util::Basic_string_view&lt; Ch, Traits &gt;</title>
<polygon fill="white" stroke="transparent" points="-4,4 -4,-94 111,-94 111,4 -4,4"/>
<!-- Node1 -->
<g id="node1" class="node">
<title>Node1</title>
<g id="a_node1"><a xlink:title="Essentially alias for a C++17&#45;conforming string&#45;view class template, which is a very lightweight std:...">
<polygon fill="#bfbfbf" stroke="black" points="0,-0.5 0,-26.5 107,-26.5 107,-0.5 0,-0.5"/>
<text text-anchor="start" x="8" y="-16.1" font-family="Helvetica,sans-Serif" font-size="8.00">flow::util::Basic_string</text>
<text text-anchor="middle" x="53.5" y="-7.1" font-family="Helvetica,sans-Serif" font-size="8.00">_view&lt; Ch, Traits &gt;</text>
</a>
</g>
</g>
<!-- Node2 -->
<g id="node2" class="node">
<title>Node2</title>
<g id="a_node2"><a xlink:title=" ">
<polygon fill="white" stroke="black" points="0,-63.5 0,-89.5 107,-89.5 107,-63.5 0,-63.5"/>
<text text-anchor="start" x="8" y="-79.1" font-family="Helvetica,sans-Serif" font-size="8.00">std::basic_string_view</text>
<text text-anchor="middle" x="53.5" y="-70.1" font-family="Helvetica,sans-Serif" font-size="8.00">&lt; Char &gt;</text>
</a>
</g>
</g>
<!-- Node2&#45;&gt;Node1 -->
<g id="edge1" class="edge">
<title>Node2&#45;&gt;Node1</title>
<path fill="none" stroke="midnightblue" d="M53.5,-53.19C53.5,-44.18 53.5,-34.12 53.5,-26.53"/>
<polygon fill="midnightblue" stroke="midnightblue" points="50,-53.45 53.5,-63.45 57,-53.45 50,-53.45"/>
</g>
</g>
</svg>
