<?xml version="1.0" encoding="UTF-8" standalone="no"?>
<!DOCTYPE svg PUBLIC "-//W3C//DTD SVG 1.1//EN"
 "http://www.w3.org/Graphics/SVG/1.1/DTD/svg11.dtd">
<!-- Generated by graphviz version 2.43.0 (0)
 -->
<!-- Title: flow::net_flow::Node::async_sock_low_lvl_packet_send_or_close_immediately Pages: 1 -->
<svg width="1100pt" height="232pt"
 viewBox="0.00 0.00 1100.00 231.50" xmlns="http://www.w3.org/2000/svg" xmlns:xlink="http://www.w3.org/1999/xlink">
<g id="graph0" class="graph" transform="scale(1 1) rotate(0) translate(4 227.5)">
<title>flow::net_flow::Node::async_sock_low_lvl_packet_send_or_close_immediately</title>
<polygon fill="white" stroke="transparent" points="-4,4 -4,-227.5 1096,-227.5 1096,4 -4,4"/>
<!-- Node1 -->
<g id="node1" class="node">
<title>Node1</title>
<g id="a_node1"><a xlink:title="Similar to async_sock_low_lvl_packet_send_paced() except it also calls close_connection_immediately(s...">
<polygon fill="#bfbfbf" stroke="black" points="0,-20 0,-64 110,-64 110,-20 0,-20"/>
<text text-anchor="start" x="8" y="-53.6" font-family="Helvetica,sans-Serif" font-size="8.00">flow::net_flow::Node</text>
<text text-anchor="start" x="8" y="-44.6" font-family="Helvetica,sans-Serif" font-size="8.00">::async_sock_low_lvl</text>
<text text-anchor="start" x="8" y="-35.6" font-family="Helvetica,sans-Serif" font-size="8.00">_packet_send_or_close</text>
<text text-anchor="middle" x="55" y="-26.6" font-family="Helvetica,sans-Serif" font-size="8.00">_immediately</text>
</a>
</g>
</g>
<!-- Node2 -->
<g id="node2" class="node">
<title>Node2</title>
<g id="a_node2"><a xlink:href="classflow_1_1net__flow_1_1Node.html#a31edf238c1b21a409ea807c66c1b22f0" target="_top" xlink:title="Begins the process of asynchronously sending the given low&#45;level packet to the remote Node specified ...">
<polygon fill="white" stroke="black" points="146,-104.5 146,-139.5 247,-139.5 247,-104.5 146,-104.5"/>
<text text-anchor="start" x="154" y="-129.1" font-family="Helvetica,sans-Serif" font-size="8.00">flow::net_flow::Node</text>
<text text-anchor="start" x="154" y="-120.1" font-family="Helvetica,sans-Serif" font-size="8.00">::async_sock_low_lvl</text>
<text text-anchor="middle" x="196.5" y="-111.1" font-family="Helvetica,sans-Serif" font-size="8.00">_packet_send_paced</text>
</a>
</g>
</g>
<!-- Node1&#45;&gt;Node2 -->
<g id="edge1" class="edge">
<title>Node1&#45;&gt;Node2</title>
<path fill="none" stroke="midnightblue" d="M94.49,-64.07C113.56,-75.01 136.57,-88.21 155.81,-99.24"/>
<polygon fill="midnightblue" stroke="midnightblue" points="154.22,-102.36 164.64,-104.3 157.7,-96.29 154.22,-102.36"/>
</g>
<!-- Node49 -->
<g id="node12" class="node">
<title>Node49</title>
<g id="a_node12"><a xlink:href="classflow_1_1net__flow_1_1Node.html#a99836ffb51eaefa4d2cc21770461cd97" target="_top" xlink:title="Constructs the socket pair (connection ID) for the given socket.">
<polygon fill="white" stroke="black" points="816.5,-25 816.5,-51 917.5,-51 917.5,-25 816.5,-25"/>
<text text-anchor="start" x="824.5" y="-40.6" font-family="Helvetica,sans-Serif" font-size="8.00">flow::net_flow::Node</text>
<text text-anchor="middle" x="867" y="-31.6" font-family="Helvetica,sans-Serif" font-size="8.00">::socket_id</text>
</a>
</g>
</g>
<!-- Node1&#45;&gt;Node49 -->
<g id="edge19" class="edge">
<title>Node1&#45;&gt;Node49</title>
<path fill="none" stroke="midnightblue" d="M110.24,-29.85C170.45,-17.45 270.66,0 358,0 358,0 358,0 531,0 627.87,0 739.51,-15.88 806.33,-27.11"/>
<polygon fill="midnightblue" stroke="midnightblue" points="805.81,-30.57 816.25,-28.8 806.98,-23.67 805.81,-30.57"/>
</g>
<!-- Node16 -->
<g id="node13" class="node">
<title>Node16</title>
<g id="a_node13"><a xlink:href="classflow_1_1net__flow_1_1Node.html#ade49e7bc7202a0adf33fec2d93d1b177" target="_top" xlink:title="A thread W method that handles the transition of the given socket from OPEN (any sub&#45;state) to CLOSED...">
<polygon fill="white" stroke="red" points="285,-29 285,-55 433,-55 433,-29 285,-29"/>
<text text-anchor="start" x="293" y="-44.6" font-family="Helvetica,sans-Serif" font-size="8.00">flow::net_flow::Node</text>
<text text-anchor="middle" x="359" y="-35.6" font-family="Helvetica,sans-Serif" font-size="8.00">::close_connection_immediately</text>
</a>
</g>
</g>
<!-- Node1&#45;&gt;Node16 -->
<g id="edge17" class="edge">
<title>Node1&#45;&gt;Node16</title>
<path fill="none" stroke="midnightblue" d="M110.34,-42C156.03,-42 222.1,-42 274.5,-42"/>
<polygon fill="midnightblue" stroke="midnightblue" points="274.79,-45.5 284.79,-42 274.79,-38.5 274.79,-45.5"/>
</g>
<!-- Node3 -->
<g id="node3" class="node">
<title>Node3</title>
<g id="a_node3"><a xlink:href="classflow_1_1net__flow_1_1Node.html#a0db2bb587e0407077b11368df075f0ff" target="_top" xlink:title="async_low_lvl_packet_send_impl() wrapper to call when packet is to be sent to the remote side of the ...">
<polygon fill="white" stroke="black" points="643,-150.5 643,-185.5 744,-185.5 744,-150.5 643,-150.5"/>
<text text-anchor="start" x="651" y="-175.1" font-family="Helvetica,sans-Serif" font-size="8.00">flow::net_flow::Node</text>
<text text-anchor="start" x="651" y="-166.1" font-family="Helvetica,sans-Serif" font-size="8.00">::async_sock_low_lvl</text>
<text text-anchor="middle" x="693.5" y="-157.1" font-family="Helvetica,sans-Serif" font-size="8.00">_packet_send</text>
</a>
</g>
</g>
<!-- Node2&#45;&gt;Node3 -->
<g id="edge2" class="edge">
<title>Node2&#45;&gt;Node3</title>
<path fill="none" stroke="midnightblue" d="M247.33,-137.1C258.95,-140.14 271.33,-143.01 283,-145 405.94,-165.92 552.33,-168.98 632.54,-168.83"/>
<polygon fill="midnightblue" stroke="midnightblue" points="632.95,-172.33 642.93,-168.79 632.92,-165.33 632.95,-172.33"/>
</g>
<!-- Node10 -->
<g id="node8" class="node">
<title>Node10</title>
<g id="a_node8"><a xlink:href="classflow_1_1net__flow_1_1Node.html#a62e1f8e6da36d7cd3ad905924aea376c" target="_top" xlink:title="async_sock_low_lvl_packet_send_paced() pacing helper: Handles a DATA or ACK packet that was just pass...">
<polygon fill="white" stroke="black" points="283,-109 283,-135 435,-135 435,-109 283,-109"/>
<text text-anchor="start" x="291" y="-124.6" font-family="Helvetica,sans-Serif" font-size="8.00">flow::net_flow::Node</text>
<text text-anchor="middle" x="359" y="-115.6" font-family="Helvetica,sans-Serif" font-size="8.00">::sock_pacing_new_packet_ready</text>
</a>
</g>
</g>
<!-- Node2&#45;&gt;Node10 -->
<g id="edge7" class="edge">
<title>Node2&#45;&gt;Node10</title>
<path fill="none" stroke="midnightblue" d="M247.4,-122C255.47,-122 264.02,-122 272.65,-122"/>
<polygon fill="midnightblue" stroke="midnightblue" points="272.79,-125.5 282.79,-122 272.79,-118.5 272.79,-125.5"/>
</g>
<!-- Node4 -->
<g id="node4" class="node">
<title>Node4</title>
<g id="a_node4"><a xlink:href="classflow_1_1net__flow_1_1Node.html#a9f302fe63e36f72931e1a759b0aaaed4" target="_top" xlink:title="Takes given low&#45;level packet structure, serializes it, and initiates asynchronous send of these data ...">
<polygon fill="white" stroke="black" points="812.5,-150.5 812.5,-185.5 921.5,-185.5 921.5,-150.5 812.5,-150.5"/>
<text text-anchor="start" x="820.5" y="-175.1" font-family="Helvetica,sans-Serif" font-size="8.00">flow::net_flow::Node</text>
<text text-anchor="start" x="820.5" y="-166.1" font-family="Helvetica,sans-Serif" font-size="8.00">::async_low_lvl_packet</text>
<text text-anchor="middle" x="867" y="-157.1" font-family="Helvetica,sans-Serif" font-size="8.00">_send_impl</text>
</a>
</g>
</g>
<!-- Node3&#45;&gt;Node4 -->
<g id="edge3" class="edge">
<title>Node3&#45;&gt;Node4</title>
<path fill="none" stroke="midnightblue" d="M744.1,-168C762.22,-168 782.96,-168 802.14,-168"/>
<polygon fill="midnightblue" stroke="midnightblue" points="802.31,-171.5 812.31,-168 802.31,-164.5 802.31,-171.5"/>
</g>
<!-- Node5 -->
<g id="node5" class="node">
<title>Node5</title>
<g id="a_node5"><a xlink:href="classflow_1_1net__flow_1_1Node.html#a0055a25892990585561e69ceb02214d5" target="_top" xlink:title="Completion handler for async_low_lvl_packet_send_impl(); called when the packet is either successfull...">
<polygon fill="white" stroke="red" points="980.5,-152 980.5,-178 1083.5,-178 1083.5,-152 980.5,-152"/>
<text text-anchor="start" x="988.5" y="-167.6" font-family="Helvetica,sans-Serif" font-size="8.00">flow::net_flow::Node</text>
<text text-anchor="middle" x="1032" y="-158.6" font-family="Helvetica,sans-Serif" font-size="8.00">::low_lvl_packet_sent</text>
</a>
</g>
</g>
<!-- Node4&#45;&gt;Node5 -->
<g id="edge4" class="edge">
<title>Node4&#45;&gt;Node5</title>
<path fill="none" stroke="midnightblue" d="M921.82,-167.01C937.27,-166.73 954.21,-166.41 970.05,-166.12"/>
<polygon fill="midnightblue" stroke="midnightblue" points="970.34,-169.62 980.27,-165.93 970.21,-162.62 970.34,-169.62"/>
</g>
<!-- Node8 -->
<g id="node6" class="node">
<title>Node8</title>
<g id="a_node6"><a xlink:href="classflow_1_1net__flow_1_1Node.html#a2983d0d8a4d4eb5c3402f63f68ef44d8" target="_top" xlink:title="Performs important book&#45;keeping based on the event &quot;DATA packet was sent to destination....">
<polygon fill="white" stroke="red" points="972.5,-197 972.5,-223 1091.5,-223 1091.5,-197 972.5,-197"/>
<text text-anchor="start" x="980.5" y="-212.6" font-family="Helvetica,sans-Serif" font-size="8.00">flow::net_flow::Node</text>
<text text-anchor="middle" x="1032" y="-203.6" font-family="Helvetica,sans-Serif" font-size="8.00">::mark_data_packet_sent</text>
</a>
</g>
</g>
<!-- Node4&#45;&gt;Node8 -->
<g id="edge5" class="edge">
<title>Node4&#45;&gt;Node8</title>
<path fill="none" stroke="midnightblue" d="M921.82,-181.87C937.49,-185.91 954.7,-190.34 970.74,-194.47"/>
<polygon fill="midnightblue" stroke="midnightblue" points="969.99,-197.89 980.55,-197 971.74,-191.11 969.99,-197.89"/>
</g>
<!-- Node9 -->
<g id="node7" class="node">
<title>Node9</title>
<g id="a_node7"><a xlink:href="classflow_1_1net__flow_1_1Node.html#a43c42121d48a55a43a48e3a84bd10595" target="_top" xlink:title="Obtain a copy of the value of a given option in a thread&#45;safe manner.">
<polygon fill="white" stroke="black" points="972,-113.5 972,-130.5 1092,-130.5 1092,-113.5 972,-113.5"/>
<text text-anchor="middle" x="1032" y="-120.1" font-family="Helvetica,sans-Serif" font-size="8.00">flow::net_flow::Node::opt</text>
</a>
</g>
</g>
<!-- Node4&#45;&gt;Node9 -->
<g id="edge6" class="edge">
<title>Node4&#45;&gt;Node9</title>
<path fill="none" stroke="midnightblue" d="M921.82,-152.81C944.3,-146.47 969.96,-139.23 990.75,-133.36"/>
<polygon fill="midnightblue" stroke="midnightblue" points="991.86,-136.68 1000.53,-130.6 989.96,-129.95 991.86,-136.68"/>
</g>
<!-- Node10&#45;&gt;Node3 -->
<g id="edge8" class="edge">
<title>Node10&#45;&gt;Node3</title>
<path fill="none" stroke="midnightblue" d="M435.03,-132.38C494.9,-140.66 577.62,-152.11 632.98,-159.77"/>
<polygon fill="midnightblue" stroke="midnightblue" points="632.6,-163.25 642.99,-161.15 633.56,-156.31 632.6,-163.25"/>
</g>
<!-- Node11 -->
<g id="node9" class="node">
<title>Node11</title>
<g id="a_node9"><a xlink:href="classflow_1_1net__flow_1_1Node.html#afb88dafa8ec5c1b412de86dfdccd9c8f" target="_top" xlink:title="async_sock_low_lvl_packet_send_paced() pacing helper: Resets the socket&#39;s Send_pacing_data structure ...">
<polygon fill="white" stroke="black" points="798,-105 798,-131 936,-131 936,-105 798,-105"/>
<text text-anchor="start" x="806" y="-120.6" font-family="Helvetica,sans-Serif" font-size="8.00">flow::net_flow::Node</text>
<text text-anchor="middle" x="867" y="-111.6" font-family="Helvetica,sans-Serif" font-size="8.00">::sock_pacing_new_time_slice</text>
</a>
</g>
</g>
<!-- Node10&#45;&gt;Node11 -->
<g id="edge9" class="edge">
<title>Node10&#45;&gt;Node11</title>
<path fill="none" stroke="midnightblue" d="M435.21,-121.41C529.77,-120.66 691.34,-119.38 787.45,-118.62"/>
<polygon fill="midnightblue" stroke="midnightblue" points="787.72,-122.12 797.69,-118.54 787.66,-115.12 787.72,-122.12"/>
</g>
<!-- Node12 -->
<g id="node10" class="node">
<title>Node12</title>
<g id="a_node10"><a xlink:href="classflow_1_1net__flow_1_1Node.html#aaf0acf9de5f151727a43acce180a5e49" target="_top" xlink:title="async_sock_low_lvl_packet_send_paced() pacing helper: Given that we are currently in the pacing time ...">
<polygon fill="white" stroke="black" points="471,-67 471,-93 589,-93 589,-67 471,-67"/>
<text text-anchor="start" x="479" y="-82.6" font-family="Helvetica,sans-Serif" font-size="8.00">flow::net_flow::Node</text>
<text text-anchor="middle" x="530" y="-73.6" font-family="Helvetica,sans-Serif" font-size="8.00">::sock_pacing_process_q</text>
</a>
</g>
</g>
<!-- Node10&#45;&gt;Node12 -->
<g id="edge11" class="edge">
<title>Node10&#45;&gt;Node12</title>
<path fill="none" stroke="midnightblue" d="M412.55,-108.94C429.71,-104.67 448.95,-99.89 466.76,-95.47"/>
<polygon fill="midnightblue" stroke="midnightblue" points="467.63,-98.86 476.49,-93.05 465.94,-92.07 467.63,-98.86"/>
</g>
<!-- Node11&#45;&gt;Node9 -->
<g id="edge10" class="edge">
<title>Node11&#45;&gt;Node9</title>
<path fill="none" stroke="midnightblue" d="M936.18,-119.67C944.62,-119.88 953.25,-120.09 961.7,-120.3"/>
<polygon fill="midnightblue" stroke="midnightblue" points="961.81,-123.8 971.89,-120.55 961.98,-116.81 961.81,-123.8"/>
</g>
<!-- Node12&#45;&gt;Node3 -->
<g id="edge12" class="edge">
<title>Node12&#45;&gt;Node3</title>
<path fill="none" stroke="midnightblue" d="M555.18,-93.17C580.54,-106.99 620.85,-128.96 651.26,-145.53"/>
<polygon fill="midnightblue" stroke="midnightblue" points="649.89,-148.77 660.35,-150.48 653.24,-142.62 649.89,-148.77"/>
</g>
<!-- Node13 -->
<g id="node11" class="node">
<title>Node13</title>
<g id="a_node11"><a xlink:href="classflow_1_1net__flow_1_1Node.html#a3fd57a0d025a78cbeccfd8a15a983575" target="_top" xlink:title="async_sock_low_lvl_packet_send_paced() pacing helper: If sock_pacing_process_q() ran out of the last ...">
<polygon fill="white" stroke="red" points="625,-67 625,-93 762,-93 762,-67 625,-67"/>
<text text-anchor="start" x="633" y="-82.6" font-family="Helvetica,sans-Serif" font-size="8.00">flow::net_flow::Node</text>
<text text-anchor="middle" x="693.5" y="-73.6" font-family="Helvetica,sans-Serif" font-size="8.00">::sock_pacing_time_slice_end</text>
</a>
</g>
</g>
<!-- Node12&#45;&gt;Node13 -->
<g id="edge13" class="edge">
<title>Node12&#45;&gt;Node13</title>
<path fill="none" stroke="midnightblue" d="M589.31,-73.49C597.62,-73.31 606.27,-73.23 614.88,-73.25"/>
<polygon fill="midnightblue" stroke="midnightblue" points="614.92,-76.75 624.95,-73.33 614.97,-69.75 614.92,-76.75"/>
</g>
<!-- Node13&#45;&gt;Node11 -->
<g id="edge14" class="edge">
<title>Node13&#45;&gt;Node11</title>
<path fill="none" stroke="midnightblue" d="M753.52,-93.08C767.61,-96.2 782.77,-99.56 797.26,-102.77"/>
<polygon fill="midnightblue" stroke="midnightblue" points="796.64,-106.22 807.16,-104.96 798.16,-99.38 796.64,-106.22"/>
</g>
<!-- Node13&#45;&gt;Node12 -->
<g id="edge15" class="edge">
<title>Node13&#45;&gt;Node12</title>
<path fill="none" stroke="midnightblue" d="M624.95,-86.67C616.53,-86.77 607.91,-86.78 599.48,-86.68"/>
<polygon fill="midnightblue" stroke="midnightblue" points="599.36,-83.18 589.31,-86.51 599.25,-90.18 599.36,-83.18"/>
</g>
<!-- Node13&#45;&gt;Node49 -->
<g id="edge16" class="edge">
<title>Node13&#45;&gt;Node49</title>
<path fill="none" stroke="midnightblue" d="M747.82,-66.94C766.41,-62.39 787.39,-57.25 806.45,-52.58"/>
<polygon fill="midnightblue" stroke="midnightblue" points="807.34,-55.97 816.22,-50.19 805.67,-49.17 807.34,-55.97"/>
</g>
<!-- Node16&#45;&gt;Node49 -->
<g id="edge18" class="edge">
<title>Node16&#45;&gt;Node49</title>
<path fill="none" stroke="midnightblue" d="M433.04,-41.42C533.67,-40.63 713.08,-39.21 806.2,-38.47"/>
<polygon fill="midnightblue" stroke="midnightblue" points="806.33,-41.97 816.3,-38.39 806.28,-34.97 806.33,-41.97"/>
</g>
</g>
</svg>
