<?xml version="1.0" encoding="UTF-8" standalone="no"?>
<!DOCTYPE svg PUBLIC "-//W3C//DTD SVG 1.1//EN"
 "http://www.w3.org/Graphics/SVG/1.1/DTD/svg11.dtd">
<!-- Generated by graphviz version 2.43.0 (0)
 -->
<!-- Title: flow::log::Async_file_logger::deep_size Pages: 1 -->
<svg width="376pt" height="53pt"
 viewBox="0.00 0.00 376.00 53.00" xmlns="http://www.w3.org/2000/svg" xmlns:xlink="http://www.w3.org/1999/xlink">
<g id="graph0" class="graph" transform="scale(1 1) rotate(0) translate(4 49)">
<title>flow::log::Async_file_logger::deep_size</title>
<polygon fill="white" stroke="transparent" points="-4,4 -4,-49 372,-49 372,4 -4,4"/>
<!-- Node1 -->
<g id="node1" class="node">
<title>Node1</title>
<g id="a_node1"><a xlink:title="Estimate of memory footprint of the given value, including memory allocated on its behalf – but exclu...">
<polygon fill="#bfbfbf" stroke="black" points="0,-0.5 0,-26.5 98,-26.5 98,-0.5 0,-0.5"/>
<text text-anchor="start" x="8" y="-16.1" font-family="Helvetica,sans-Serif" font-size="8.00">flow::log::Async_file</text>
<text text-anchor="middle" x="49" y="-7.1" font-family="Helvetica,sans-Serif" font-size="8.00">_logger::deep_size</text>
</a>
</g>
</g>
<!-- Node1&#45;&gt;Node1 -->
<g id="edge1" class="edge">
<title>Node1&#45;&gt;Node1</title>
<path fill="none" stroke="midnightblue" d="M26.33,-26.77C19.46,-35.96 27.02,-45 49,-45 62.4,-45 70.44,-41.64 73.12,-36.94"/>
<polygon fill="midnightblue" stroke="midnightblue" points="76.55,-36.18 71.67,-26.77 69.61,-37.16 76.55,-36.18"/>
</g>
<!-- Node2 -->
<g id="node2" class="node">
<title>Node2</title>
<g id="a_node2"><a xlink:href="namespaceflow_1_1log.html#a267187e63c6355704f547d794c776747" target="_top" xlink:title="Estimate of memory footprint of the given value, including memory allocated on its behalf – but exclu...">
<polygon fill="white" stroke="black" points="134,-5 134,-22 233,-22 233,-5 134,-5"/>
<text text-anchor="middle" x="183.5" y="-11.6" font-family="Helvetica,sans-Serif" font-size="8.00">flow::log::deep_size</text>
</a>
</g>
</g>
<!-- Node1&#45;&gt;Node2 -->
<g id="edge2" class="edge">
<title>Node1&#45;&gt;Node2</title>
<path fill="none" stroke="midnightblue" d="M98.21,-13.5C106.42,-13.5 115.02,-13.5 123.47,-13.5"/>
<polygon fill="midnightblue" stroke="midnightblue" points="123.66,-17 133.66,-13.5 123.66,-10 123.66,-17"/>
</g>
<!-- Node2&#45;&gt;Node2 -->
<g id="edge3" class="edge">
<title>Node2&#45;&gt;Node2</title>
<path fill="none" stroke="midnightblue" d="M163.9,-22.07C152.36,-30.79 158.9,-40.5 183.5,-40.5 200.03,-40.5 208.4,-36.12 208.62,-30.6"/>
<polygon fill="midnightblue" stroke="midnightblue" points="211.48,-28.57 203.1,-22.07 205.6,-32.37 211.48,-28.57"/>
</g>
<!-- Node3 -->
<g id="node3" class="node">
<title>Node3</title>
<g id="a_node3"><a xlink:href="namespaceflow_1_1util.html#a418b56a178c07100eef78da5c9d6ee7a" target="_top" xlink:title="Estimate of memory footprint of the given value, including memory allocated on its behalf – but exclu...">
<polygon fill="white" stroke="black" points="269,-5 269,-22 368,-22 368,-5 269,-5"/>
<text text-anchor="middle" x="318.5" y="-11.6" font-family="Helvetica,sans-Serif" font-size="8.00">flow::util::deep_size</text>
</a>
</g>
</g>
<!-- Node2&#45;&gt;Node3 -->
<g id="edge4" class="edge">
<title>Node2&#45;&gt;Node3</title>
<path fill="none" stroke="midnightblue" d="M233.27,-13.5C241.49,-13.5 250.1,-13.5 258.55,-13.5"/>
<polygon fill="midnightblue" stroke="midnightblue" points="258.74,-17 268.74,-13.5 258.74,-10 258.74,-17"/>
</g>
</g>
</svg>
