<?xml version="1.0" encoding="UTF-8" standalone="no"?>
<!DOCTYPE svg PUBLIC "-//W3C//DTD SVG 1.1//EN"
 "http://www.w3.org/Graphics/SVG/1.1/DTD/svg11.dtd">
<!-- Generated by graphviz version 2.43.0 (0)
 -->
<!-- Title: flow::net_flow::Congestion_control_classic_data::congestion_window_at_limit Pages: 1 -->
<svg width="335pt" height="44pt"
 viewBox="0.00 0.00 335.00 44.00" xmlns="http://www.w3.org/2000/svg" xmlns:xlink="http://www.w3.org/1999/xlink">
<g id="graph0" class="graph" transform="scale(1 1) rotate(0) translate(4 40)">
<title>flow::net_flow::Congestion_control_classic_data::congestion_window_at_limit</title>
<polygon fill="white" stroke="transparent" points="-4,4 -4,-40 331,-40 331,4 -4,4"/>
<!-- Node1 -->
<g id="node1" class="node">
<title>Node1</title>
<g id="a_node1"><a xlink:title="Returns true if and only if the stored CWND is &gt;= a certain constant maximum value.">
<polygon fill="#bfbfbf" stroke="black" points="0,-0.5 0,-35.5 155,-35.5 155,-0.5 0,-0.5"/>
<text text-anchor="start" x="8" y="-25.1" font-family="Helvetica,sans-Serif" font-size="8.00">flow::net_flow::Congestion</text>
<text text-anchor="start" x="8" y="-16.1" font-family="Helvetica,sans-Serif" font-size="8.00">_control_classic_data::congestion</text>
<text text-anchor="middle" x="77.5" y="-7.1" font-family="Helvetica,sans-Serif" font-size="8.00">_window_at_limit</text>
</a>
</g>
</g>
<!-- Node2 -->
<g id="node2" class="node">
<title>Node2</title>
<g id="a_node2"><a xlink:href="classflow_1_1net__flow_1_1Congestion__control__classic__data.html#a842fd11c65c3be53ce3d81a7f050f7d7" target="_top" xlink:title="Analogous to Congestion_control_strategy::socket().">
<polygon fill="white" stroke="black" points="191,-5 191,-31 327,-31 327,-5 191,-5"/>
<text text-anchor="start" x="199" y="-20.6" font-family="Helvetica,sans-Serif" font-size="8.00">flow::net_flow::Congestion</text>
<text text-anchor="middle" x="259" y="-11.6" font-family="Helvetica,sans-Serif" font-size="8.00">_control_classic_data::socket</text>
</a>
</g>
</g>
<!-- Node1&#45;&gt;Node2 -->
<g id="edge1" class="edge">
<title>Node1&#45;&gt;Node2</title>
<path fill="none" stroke="midnightblue" d="M155.14,-18C163.61,-18 172.24,-18 180.72,-18"/>
<polygon fill="midnightblue" stroke="midnightblue" points="180.96,-21.5 190.96,-18 180.96,-14.5 180.96,-21.5"/>
</g>
</g>
</svg>
