<?xml version="1.0" encoding="UTF-8" standalone="no"?>
<!DOCTYPE svg PUBLIC "-//W3C//DTD SVG 1.1//EN"
 "http://www.w3.org/Graphics/SVG/1.1/DTD/svg11.dtd">
<!-- Generated by graphviz version 2.43.0 (0)
 -->
<!-- Title: flow::net_flow::Peer_socket_receive_stats_accumulator::good_data_first_qd_packet Pages: 1 -->
<svg width="292pt" height="53pt"
 viewBox="0.00 0.00 292.00 53.00" xmlns="http://www.w3.org/2000/svg" xmlns:xlink="http://www.w3.org/1999/xlink">
<g id="graph0" class="graph" transform="scale(1 1) rotate(0) translate(4 49)">
<title>flow::net_flow::Peer_socket_receive_stats_accumulator::good_data_first_qd_packet</title>
<polygon fill="white" stroke="transparent" points="-4,4 -4,-49 288,-49 288,4 -4,4"/>
<!-- Node1 -->
<g id="node1" class="node">
<title>Node1</title>
<g id="a_node1"><a xlink:title="Indicates good_data_accepted_packet(), and these data are, upon receipt, queued for reassembly (not i...">
<polygon fill="#bfbfbf" stroke="black" points="163,-0.5 163,-44.5 284,-44.5 284,-0.5 163,-0.5"/>
<text text-anchor="start" x="171" y="-34.1" font-family="Helvetica,sans-Serif" font-size="8.00">flow::net_flow::Peer</text>
<text text-anchor="start" x="171" y="-25.1" font-family="Helvetica,sans-Serif" font-size="8.00">_socket_receive_stats</text>
<text text-anchor="start" x="171" y="-16.1" font-family="Helvetica,sans-Serif" font-size="8.00">_accumulator::good_data</text>
<text text-anchor="middle" x="223.5" y="-7.1" font-family="Helvetica,sans-Serif" font-size="8.00">_first_qd_packet</text>
</a>
</g>
</g>
<!-- Node2 -->
<g id="node2" class="node">
<title>Node2</title>
<g id="a_node2"><a xlink:href="classflow_1_1net__flow_1_1Node.html#a0f9f88761fc18c4f9e0d5f4dd6b4bc95" target="_top" xlink:title="Helper for handle_data_to_established() that aims to register the given DATA packet as an out&#45;of&#45;orde...">
<polygon fill="white" stroke="black" points="0,-5 0,-40 127,-40 127,-5 0,-5"/>
<text text-anchor="start" x="8" y="-29.6" font-family="Helvetica,sans-Serif" font-size="8.00">flow::net_flow::Node</text>
<text text-anchor="start" x="8" y="-20.6" font-family="Helvetica,sans-Serif" font-size="8.00">::sock_data_to_reassembly</text>
<text text-anchor="middle" x="63.5" y="-11.6" font-family="Helvetica,sans-Serif" font-size="8.00">_q_unless_overflow</text>
</a>
</g>
</g>
<!-- Node1&#45;&gt;Node2 -->
<g id="edge1" class="edge">
<title>Node1&#45;&gt;Node2</title>
<path fill="none" stroke="midnightblue" d="M152.57,-22.5C144.12,-22.5 135.54,-22.5 127.21,-22.5"/>
<polygon fill="midnightblue" stroke="midnightblue" points="152.77,-26 162.77,-22.5 152.77,-19 152.77,-26"/>
</g>
</g>
</svg>
