<?xml version="1.0" encoding="UTF-8" standalone="no"?>
<!DOCTYPE svg PUBLIC "-//W3C//DTD SVG 1.1//EN"
 "http://www.w3.org/Graphics/SVG/1.1/DTD/svg11.dtd">
<!-- Generated by graphviz version 2.43.0 (0)
 -->
<!-- Title: flow::net_flow::Node::sock_pacing_process_q Pages: 1 -->
<svg width="780pt" height="361pt"
 viewBox="0.00 0.00 780.00 361.00" xmlns="http://www.w3.org/2000/svg" xmlns:xlink="http://www.w3.org/1999/xlink">
<g id="graph0" class="graph" transform="scale(1 1) rotate(0) translate(4 357)">
<title>flow::net_flow::Node::sock_pacing_process_q</title>
<polygon fill="white" stroke="transparent" points="-4,4 -4,-357 776,-357 776,4 -4,4"/>
<!-- Node1 -->
<g id="node1" class="node">
<title>Node1</title>
<g id="a_node1"><a xlink:title="async_sock_low_lvl_packet_send_paced() pacing helper: Given that we are currently in the pacing time ...">
<polygon fill="#bfbfbf" stroke="black" points="654,-113.5 654,-139.5 772,-139.5 772,-113.5 654,-113.5"/>
<text text-anchor="start" x="662" y="-129.1" font-family="Helvetica,sans-Serif" font-size="8.00">flow::net_flow::Node</text>
<text text-anchor="middle" x="713" y="-120.1" font-family="Helvetica,sans-Serif" font-size="8.00">::sock_pacing_process_q</text>
</a>
</g>
</g>
<!-- Node2 -->
<g id="node2" class="node">
<title>Node2</title>
<g id="a_node2"><a xlink:href="classflow_1_1net__flow_1_1Node.html#a0556af278dc07a43f109fbd74ac64d5e" target="_top" xlink:title="async_sock_low_lvl_packet_send_paced() pacing helper: Handles a DATA or ACK packet that was just pass...">
<polygon fill="white" stroke="black" points="466,-158.5 466,-184.5 618,-184.5 618,-158.5 466,-158.5"/>
<text text-anchor="start" x="474" y="-174.1" font-family="Helvetica,sans-Serif" font-size="8.00">flow::net_flow::Node</text>
<text text-anchor="middle" x="542" y="-165.1" font-family="Helvetica,sans-Serif" font-size="8.00">::sock_pacing_new_packet_ready</text>
</a>
</g>
</g>
<!-- Node1&#45;&gt;Node2 -->
<g id="edge1" class="edge">
<title>Node1&#45;&gt;Node2</title>
<path fill="none" stroke="midnightblue" d="M653.21,-142.15C633.25,-147.47 611.18,-153.35 592.06,-158.44"/>
<polygon fill="midnightblue" stroke="midnightblue" points="654.36,-145.47 663.12,-139.52 652.55,-138.71 654.36,-145.47"/>
</g>
<!-- Node40 -->
<g id="node15" class="node">
<title>Node40</title>
<g id="a_node15"><a xlink:href="classflow_1_1net__flow_1_1Node.html#a3fd57a0d025a78cbeccfd8a15a983575" target="_top" xlink:title="async_sock_low_lvl_packet_send_paced() pacing helper: If sock_pacing_process_q() ran out of the last ...">
<polygon fill="white" stroke="black" points="473.5,-113.5 473.5,-139.5 610.5,-139.5 610.5,-113.5 473.5,-113.5"/>
<text text-anchor="start" x="481.5" y="-129.1" font-family="Helvetica,sans-Serif" font-size="8.00">flow::net_flow::Node</text>
<text text-anchor="middle" x="542" y="-120.1" font-family="Helvetica,sans-Serif" font-size="8.00">::sock_pacing_time_slice_end</text>
</a>
</g>
</g>
<!-- Node1&#45;&gt;Node40 -->
<g id="edge16" class="edge">
<title>Node1&#45;&gt;Node40</title>
<path fill="none" stroke="midnightblue" d="M643.55,-119.86C632.67,-119.71 621.43,-119.71 610.57,-119.87"/>
<polygon fill="midnightblue" stroke="midnightblue" points="643.78,-123.36 653.84,-120.05 643.91,-116.37 643.78,-123.36"/>
</g>
<!-- Node3 -->
<g id="node3" class="node">
<title>Node3</title>
<g id="a_node3"><a xlink:href="classflow_1_1net__flow_1_1Node.html#af1c4623729d0a061200a386f7a651926" target="_top" xlink:title="Begins the process of asynchronously sending the given low&#45;level packet to the remote Node specified ...">
<polygon fill="white" stroke="black" points="329,-154 329,-189 430,-189 430,-154 329,-154"/>
<text text-anchor="start" x="337" y="-178.6" font-family="Helvetica,sans-Serif" font-size="8.00">flow::net_flow::Node</text>
<text text-anchor="start" x="337" y="-169.6" font-family="Helvetica,sans-Serif" font-size="8.00">::async_sock_low_lvl</text>
<text text-anchor="middle" x="379.5" y="-160.6" font-family="Helvetica,sans-Serif" font-size="8.00">_packet_send_paced</text>
</a>
</g>
</g>
<!-- Node2&#45;&gt;Node3 -->
<g id="edge2" class="edge">
<title>Node2&#45;&gt;Node3</title>
<path fill="none" stroke="midnightblue" d="M455.72,-171.5C447.04,-171.5 438.44,-171.5 430.32,-171.5"/>
<polygon fill="midnightblue" stroke="midnightblue" points="455.92,-175 465.92,-171.5 455.92,-168 455.92,-175"/>
</g>
<!-- Node4 -->
<g id="node4" class="node">
<title>Node4</title>
<g id="a_node4"><a xlink:href="classflow_1_1net__flow_1_1Node.html#a11b11abade3b70f242dbb61cddb34ad1" target="_top" xlink:title="Sends a low&#45;level ACK packet, with all accumulated in Peer_socket::m_rcv_pending_acks of sock individ...">
<polygon fill="white" stroke="black" points="169,-326.5 169,-352.5 288,-352.5 288,-326.5 169,-326.5"/>
<text text-anchor="start" x="177" y="-342.1" font-family="Helvetica,sans-Serif" font-size="8.00">flow::net_flow::Node</text>
<text text-anchor="middle" x="228.5" y="-333.1" font-family="Helvetica,sans-Serif" font-size="8.00">::async_low_lvl_ack_send</text>
</a>
</g>
</g>
<!-- Node3&#45;&gt;Node4 -->
<g id="edge3" class="edge">
<title>Node3&#45;&gt;Node4</title>
<path fill="none" stroke="midnightblue" d="M368.9,-199.06C356.28,-231.47 331.15,-284.84 293,-316.5 288.31,-320.39 282.9,-323.66 277.27,-326.38"/>
<polygon fill="midnightblue" stroke="midnightblue" points="372.31,-199.92 372.56,-189.33 365.76,-197.46 372.31,-199.92"/>
</g>
<!-- Node5 -->
<g id="node5" class="node">
<title>Node5</title>
<g id="a_node5"><a xlink:href="classflow_1_1net__flow_1_1Node.html#ae330d0f98ad34cb442d2bb251bdae460" target="_top" xlink:title="Helper to create, fully fill out, and asynchronously send via async_sock_low_lvl_packet_send_paced() ...">
<polygon fill="white" stroke="black" points="172,-272 172,-307 285,-307 285,-272 172,-272"/>
<text text-anchor="start" x="180" y="-296.6" font-family="Helvetica,sans-Serif" font-size="8.00">flow::net_flow::Node</text>
<text text-anchor="start" x="180" y="-287.6" font-family="Helvetica,sans-Serif" font-size="8.00">::async_low_lvl_syn_ack</text>
<text text-anchor="middle" x="228.5" y="-278.6" font-family="Helvetica,sans-Serif" font-size="8.00">_ack_send</text>
</a>
</g>
</g>
<!-- Node3&#45;&gt;Node5 -->
<g id="edge4" class="edge">
<title>Node3&#45;&gt;Node5</title>
<path fill="none" stroke="midnightblue" d="M359.13,-197.38C343.16,-217.29 318.98,-244.37 293,-262.5 288.09,-265.93 282.67,-269.05 277.14,-271.85"/>
<polygon fill="midnightblue" stroke="midnightblue" points="362.02,-199.36 365.45,-189.34 356.52,-195.04 362.02,-199.36"/>
</g>
<!-- Node6 -->
<g id="node6" class="node">
<title>Node6</title>
<g id="a_node6"><a xlink:href="classflow_1_1net__flow_1_1Node.html#a192d4b95b9f8a5c3d08b1e5486eb6f78" target="_top" xlink:title="receive_wnd_updated() helper that continues rcv_wnd recovery: that is, sends unsolicited ACK with a r...">
<polygon fill="white" stroke="black" points="167.5,-208.5 167.5,-234.5 289.5,-234.5 289.5,-208.5 167.5,-208.5"/>
<text text-anchor="start" x="175.5" y="-224.1" font-family="Helvetica,sans-Serif" font-size="8.00">flow::net_flow::Node</text>
<text text-anchor="middle" x="228.5" y="-215.1" font-family="Helvetica,sans-Serif" font-size="8.00">::async_rcv_wnd_recovery</text>
</a>
</g>
</g>
<!-- Node3&#45;&gt;Node6 -->
<g id="edge5" class="edge">
<title>Node3&#45;&gt;Node6</title>
<path fill="none" stroke="midnightblue" d="M319.04,-191.45C302.05,-197.16 283.97,-203.22 268.54,-208.4"/>
<polygon fill="midnightblue" stroke="midnightblue" points="320.52,-194.65 328.89,-188.15 318.29,-188.01 320.52,-194.65"/>
</g>
<!-- Node16 -->
<g id="node8" class="node">
<title>Node16</title>
<g id="a_node8"><a xlink:href="classflow_1_1net__flow_1_1Node.html#ad03aa88df3d1d3981454ee3356e868c1" target="_top" xlink:title="Sends an RST to the other side of the given socket asynchronously when possible.">
<polygon fill="white" stroke="black" points="178,-154 178,-189 279,-189 279,-154 178,-154"/>
<text text-anchor="start" x="186" y="-178.6" font-family="Helvetica,sans-Serif" font-size="8.00">flow::net_flow::Node</text>
<text text-anchor="start" x="186" y="-169.6" font-family="Helvetica,sans-Serif" font-size="8.00">::async_sock_low_lvl</text>
<text text-anchor="middle" x="228.5" y="-160.6" font-family="Helvetica,sans-Serif" font-size="8.00">_rst_send</text>
</a>
</g>
</g>
<!-- Node3&#45;&gt;Node16 -->
<g id="edge8" class="edge">
<title>Node3&#45;&gt;Node16</title>
<path fill="none" stroke="midnightblue" d="M318.56,-171.5C305.48,-171.5 291.78,-171.5 279.15,-171.5"/>
<polygon fill="midnightblue" stroke="midnightblue" points="318.89,-175 328.89,-171.5 318.89,-168 318.89,-175"/>
</g>
<!-- Node28 -->
<g id="node11" class="node">
<title>Node28</title>
<g id="a_node11"><a xlink:href="classflow_1_1net__flow_1_1Node.html#addd654cb6b1ccff34ddccbe5226be8f0" target="_top" xlink:title="Handles the triggering of the retransmit timer wait set up by setup_connection_timers(); it will re&#45;s...">
<polygon fill="white" stroke="black" points="164,-100 164,-135 293,-135 293,-100 164,-100"/>
<text text-anchor="start" x="172" y="-124.6" font-family="Helvetica,sans-Serif" font-size="8.00">flow::net_flow::Node</text>
<text text-anchor="start" x="172" y="-115.6" font-family="Helvetica,sans-Serif" font-size="8.00">::handle_connection_rexmit</text>
<text text-anchor="middle" x="228.5" y="-106.6" font-family="Helvetica,sans-Serif" font-size="8.00">_timer_event</text>
</a>
</g>
</g>
<!-- Node3&#45;&gt;Node28 -->
<g id="edge11" class="edge">
<title>Node3&#45;&gt;Node28</title>
<path fill="none" stroke="midnightblue" d="M320.52,-150.49C306.42,-145.38 291.49,-139.97 277.89,-135.04"/>
<polygon fill="midnightblue" stroke="midnightblue" points="319.53,-153.85 330.12,-153.97 321.91,-147.27 319.53,-153.85"/>
</g>
<!-- Node29 -->
<g id="node12" class="node">
<title>Node29</title>
<g id="a_node12"><a xlink:href="classflow_1_1net__flow_1_1Node.html#aaaf5c3b5e6b9f9f1658b60907b36a498" target="_top" xlink:title="Handles a just&#45;deserialized, just&#45;demultiplexed low&#45;level SYN packet delivered to the given server so...">
<polygon fill="white" stroke="black" points="168.5,-46 168.5,-81 288.5,-81 288.5,-46 168.5,-46"/>
<text text-anchor="start" x="176.5" y="-70.6" font-family="Helvetica,sans-Serif" font-size="8.00">flow::net_flow::Node</text>
<text text-anchor="start" x="176.5" y="-61.6" font-family="Helvetica,sans-Serif" font-size="8.00">::handle_syn_to_listening</text>
<text text-anchor="middle" x="228.5" y="-52.6" font-family="Helvetica,sans-Serif" font-size="8.00">_server</text>
</a>
</g>
</g>
<!-- Node3&#45;&gt;Node29 -->
<g id="edge12" class="edge">
<title>Node3&#45;&gt;Node29</title>
<path fill="none" stroke="midnightblue" d="M356.36,-146.2C340.14,-128.82 316.88,-106.15 293,-90.5 287.79,-87.09 282.08,-83.94 276.28,-81.11"/>
<polygon fill="midnightblue" stroke="midnightblue" points="353.96,-148.76 363.29,-153.77 359.12,-144.03 353.96,-148.76"/>
</g>
<!-- Node30 -->
<g id="node13" class="node">
<title>Node30</title>
<g id="a_node13"><a xlink:href="classflow_1_1net__flow_1_1Node.html#a10a92f11a2c9f218cdd9a55f282e79b1" target="_top" xlink:title="Thread W implemention of send(): synchronously or asynchronously send the contents of sock&#45;&gt;m_snd_buf...">
<polygon fill="white" stroke="black" points="178,-0.5 178,-26.5 279,-26.5 279,-0.5 178,-0.5"/>
<text text-anchor="start" x="186" y="-16.1" font-family="Helvetica,sans-Serif" font-size="8.00">flow::net_flow::Node</text>
<text text-anchor="middle" x="228.5" y="-7.1" font-family="Helvetica,sans-Serif" font-size="8.00">::send_worker</text>
</a>
</g>
</g>
<!-- Node3&#45;&gt;Node30 -->
<g id="edge14" class="edge">
<title>Node3&#45;&gt;Node30</title>
<path fill="none" stroke="midnightblue" d="M367.81,-144.48C354.53,-114.19 329.14,-65.54 293,-36.5 288.16,-32.61 282.6,-29.34 276.82,-26.61"/>
<polygon fill="midnightblue" stroke="midnightblue" points="364.71,-146.15 371.84,-153.99 371.16,-143.42 364.71,-146.15"/>
</g>
<!-- Node6&#45;&gt;Node6 -->
<g id="edge6" class="edge">
<title>Node6&#45;&gt;Node6</title>
<path fill="none" stroke="midnightblue" d="M255.5,-244.94C252.5,-249.64 243.5,-253 228.5,-253 203.89,-253 195.43,-243.96 203.12,-234.77"/>
<polygon fill="midnightblue" stroke="midnightblue" points="258.91,-244.1 253.88,-234.77 251.99,-245.2 258.91,-244.1"/>
</g>
<!-- Node7 -->
<g id="node7" class="node">
<title>Node7</title>
<g id="a_node7"><a xlink:href="classflow_1_1net__flow_1_1Node.html#a08cf95363b26c0c676979437e34db357" target="_top" xlink:title="Placed by receive() onto W if it has dequeued data from Receive buffer and given it to the user,...">
<polygon fill="white" stroke="red" points="8,-208.5 8,-234.5 120,-234.5 120,-208.5 8,-208.5"/>
<text text-anchor="start" x="16" y="-224.1" font-family="Helvetica,sans-Serif" font-size="8.00">flow::net_flow::Node</text>
<text text-anchor="middle" x="64" y="-215.1" font-family="Helvetica,sans-Serif" font-size="8.00">::receive_wnd_updated</text>
</a>
</g>
</g>
<!-- Node6&#45;&gt;Node7 -->
<g id="edge7" class="edge">
<title>Node6&#45;&gt;Node7</title>
<path fill="none" stroke="midnightblue" d="M157.17,-221.5C144.81,-221.5 132.11,-221.5 120.23,-221.5"/>
<polygon fill="midnightblue" stroke="midnightblue" points="157.45,-225 167.45,-221.5 157.45,-218 157.45,-225"/>
</g>
<!-- Node17 -->
<g id="node9" class="node">
<title>Node17</title>
<g id="a_node9"><a xlink:href="classflow_1_1net__flow_1_1Node.html#a1699dfdaf3e5ebe1b1d715a9c306d116" target="_top" xlink:title="Handles a just&#45;received, not&#45;yet&#45;deserialized low&#45;level packet.">
<polygon fill="white" stroke="red" points="13.5,-79.5 13.5,-105.5 114.5,-105.5 114.5,-79.5 13.5,-79.5"/>
<text text-anchor="start" x="21.5" y="-95.1" font-family="Helvetica,sans-Serif" font-size="8.00">flow::net_flow::Node</text>
<text text-anchor="middle" x="64" y="-86.1" font-family="Helvetica,sans-Serif" font-size="8.00">::handle_incoming</text>
</a>
</g>
</g>
<!-- Node16&#45;&gt;Node17 -->
<g id="edge9" class="edge">
<title>Node16&#45;&gt;Node17</title>
<path fill="none" stroke="midnightblue" d="M175.66,-149.87C171.7,-148.09 167.77,-146.29 164,-144.5 137.86,-132.1 108.61,-116.52 88.73,-105.66"/>
<polygon fill="midnightblue" stroke="midnightblue" points="174.37,-153.13 184.93,-153.97 177.2,-146.73 174.37,-153.13"/>
</g>
<!-- Node23 -->
<g id="node10" class="node">
<title>Node23</title>
<g id="a_node10"><a xlink:href="classflow_1_1net__flow_1_1Node.html#afe70a0c32695e417e7a09e0ba773f151" target="_top" xlink:title="Asynchronously send RST to the other side of the given socket and close_connection_immediately().">
<polygon fill="white" stroke="red" points="0,-154 0,-189 128,-189 128,-154 0,-154"/>
<text text-anchor="start" x="8" y="-178.6" font-family="Helvetica,sans-Serif" font-size="8.00">flow::net_flow::Node</text>
<text text-anchor="start" x="8" y="-169.6" font-family="Helvetica,sans-Serif" font-size="8.00">::rst_and_close_connection</text>
<text text-anchor="middle" x="64" y="-160.6" font-family="Helvetica,sans-Serif" font-size="8.00">_immediately</text>
</a>
</g>
</g>
<!-- Node16&#45;&gt;Node23 -->
<g id="edge10" class="edge">
<title>Node16&#45;&gt;Node23</title>
<path fill="none" stroke="midnightblue" d="M167.72,-171.5C154.83,-171.5 141.16,-171.5 128.15,-171.5"/>
<polygon fill="midnightblue" stroke="midnightblue" points="167.86,-175 177.86,-171.5 167.86,-168 167.86,-175"/>
</g>
<!-- Node29&#45;&gt;Node17 -->
<g id="edge13" class="edge">
<title>Node29&#45;&gt;Node17</title>
<path fill="none" stroke="midnightblue" d="M158.34,-75.84C143.68,-78.46 128.49,-81.17 114.72,-83.63"/>
<polygon fill="midnightblue" stroke="midnightblue" points="159.14,-79.25 168.37,-74.05 157.91,-72.36 159.14,-79.25"/>
</g>
<!-- Node31 -->
<g id="node14" class="node">
<title>Node31</title>
<g id="a_node14"><a xlink:href="classflow_1_1net__flow_1_1Node.html#a2565b7c0bd82cad86eb168b62f8ffd9d" target="_top" xlink:title="Helper placed by send() onto W to invoke send_worker() but ensures that the socket has not entered so...">
<polygon fill="white" stroke="red" points="0.5,-0.5 0.5,-26.5 127.5,-26.5 127.5,-0.5 0.5,-0.5"/>
<text text-anchor="start" x="8.5" y="-16.1" font-family="Helvetica,sans-Serif" font-size="8.00">flow::net_flow::Node</text>
<text text-anchor="middle" x="64" y="-7.1" font-family="Helvetica,sans-Serif" font-size="8.00">::send_worker_check_state</text>
</a>
</g>
</g>
<!-- Node30&#45;&gt;Node31 -->
<g id="edge15" class="edge">
<title>Node30&#45;&gt;Node31</title>
<path fill="none" stroke="midnightblue" d="M167.59,-13.5C154.55,-13.5 140.71,-13.5 127.56,-13.5"/>
<polygon fill="midnightblue" stroke="midnightblue" points="167.86,-17 177.86,-13.5 167.86,-10 167.86,-17"/>
</g>
<!-- Node40&#45;&gt;Node1 -->
<g id="edge17" class="edge">
<title>Node40&#45;&gt;Node1</title>
<path fill="none" stroke="midnightblue" d="M620.73,-133.23C631.87,-133.29 643.17,-133.2 653.84,-132.95"/>
<polygon fill="midnightblue" stroke="midnightblue" points="620.61,-129.73 610.57,-133.13 620.54,-136.73 620.61,-129.73"/>
</g>
</g>
</svg>
