<?xml version="1.0" encoding="UTF-8" standalone="no"?>
<!DOCTYPE svg PUBLIC "-//W3C//DTD SVG 1.1//EN"
 "http://www.w3.org/Graphics/SVG/1.1/DTD/svg11.dtd">
<!-- Generated by graphviz version 2.43.0 (0)
 -->
<!-- Title: flow::net_flow::Peer_socket::sync_receive Pages: 1 -->
<svg width="741pt" height="360pt"
 viewBox="0.00 0.00 741.00 360.00" xmlns="http://www.w3.org/2000/svg" xmlns:xlink="http://www.w3.org/1999/xlink">
<g id="graph0" class="graph" transform="scale(1 1) rotate(0) translate(4 356)">
<title>flow::net_flow::Peer_socket::sync_receive</title>
<polygon fill="white" stroke="transparent" points="-4,4 -4,-356 737,-356 737,4 -4,4"/>
<!-- Node1 -->
<g id="node1" class="node">
<title>Node1</title>
<g id="a_node1"><a xlink:title="Blocking (synchronous) version of receive().">
<polygon fill="#bfbfbf" stroke="black" points="0,-232.5 0,-258.5 106,-258.5 106,-232.5 0,-232.5"/>
<text text-anchor="start" x="8" y="-248.1" font-family="Helvetica,sans-Serif" font-size="8.00">flow::net_flow::Peer</text>
<text text-anchor="middle" x="53" y="-239.1" font-family="Helvetica,sans-Serif" font-size="8.00">_socket::sync_receive</text>
</a>
</g>
</g>
<!-- Node2 -->
<g id="node2" class="node">
<title>Node2</title>
<g id="a_node2"><a xlink:href="namespaceflow_1_1util.html#a5488415feb5570a6551892a7bdfeeec4" target="_top" xlink:title="Helper that takes a non&#45;negative duration of arbitrary precision/period and converts it to Fine_durat...">
<polygon fill="white" stroke="black" points="150.5,-253 150.5,-288 260.5,-288 260.5,-253 150.5,-253"/>
<text text-anchor="start" x="158.5" y="-277.6" font-family="Helvetica,sans-Serif" font-size="8.00">flow::util::chrono</text>
<text text-anchor="start" x="158.5" y="-268.6" font-family="Helvetica,sans-Serif" font-size="8.00">_duration_from_now_to</text>
<text text-anchor="middle" x="205.5" y="-259.6" font-family="Helvetica,sans-Serif" font-size="8.00">_fine_time_pt</text>
</a>
</g>
</g>
<!-- Node1&#45;&gt;Node2 -->
<g id="edge1" class="edge">
<title>Node1&#45;&gt;Node2</title>
<path fill="none" stroke="midnightblue" d="M106.22,-254.17C117.25,-256.01 129.01,-257.96 140.42,-259.86"/>
<polygon fill="midnightblue" stroke="midnightblue" points="139.89,-263.32 150.33,-261.5 141.04,-256.41 139.89,-263.32"/>
</g>
<!-- Node3 -->
<g id="node3" class="node">
<title>Node3</title>
<g id="a_node3"><a xlink:href="classflow_1_1net__flow_1_1Peer__socket.html#ad29f61b9885b10ddc3846cdae0560518" target="_top" xlink:title="Same as sync_receive() but uses a Fine_clock&#45;based Fine_duration non&#45;template type for implementation...">
<polygon fill="white" stroke="black" points="142,-207.5 142,-233.5 269,-233.5 269,-207.5 142,-207.5"/>
<text text-anchor="start" x="150" y="-223.1" font-family="Helvetica,sans-Serif" font-size="8.00">flow::net_flow::Peer</text>
<text text-anchor="middle" x="205.5" y="-214.1" font-family="Helvetica,sans-Serif" font-size="8.00">_socket::sync_receive_impl</text>
</a>
</g>
</g>
<!-- Node1&#45;&gt;Node3 -->
<g id="edge2" class="edge">
<title>Node1&#45;&gt;Node3</title>
<path fill="none" stroke="midnightblue" d="M106.22,-236.83C114.45,-235.46 123.1,-234.02 131.7,-232.59"/>
<polygon fill="midnightblue" stroke="midnightblue" points="132.46,-236.01 141.75,-230.92 131.31,-229.11 132.46,-236.01"/>
</g>
<!-- Node4 -->
<g id="node4" class="node">
<title>Node4</title>
<g id="a_node4"><a xlink:href="classflow_1_1net__flow_1_1Socket__buffer.html#af60133c1d6825246b54f10f26810cd88" target="_top" xlink:title="Consumes (removes from the front of the internal byte buffer and returns them to the caller) a byte s...">
<polygon fill="white" stroke="black" points="305,-252.5 305,-278.5 438,-278.5 438,-252.5 305,-252.5"/>
<text text-anchor="start" x="313" y="-268.1" font-family="Helvetica,sans-Serif" font-size="8.00">flow::net_flow::Socket</text>
<text text-anchor="middle" x="371.5" y="-259.1" font-family="Helvetica,sans-Serif" font-size="8.00">_buffer::consume_bufs_copy</text>
</a>
</g>
</g>
<!-- Node3&#45;&gt;Node4 -->
<g id="edge3" class="edge">
<title>Node3&#45;&gt;Node4</title>
<path fill="none" stroke="midnightblue" d="M253.94,-233.52C272.38,-238.58 293.69,-244.42 313,-249.72"/>
<polygon fill="midnightblue" stroke="midnightblue" points="312.32,-253.16 322.89,-252.44 314.17,-246.41 312.32,-253.16"/>
</g>
<!-- Node8 -->
<g id="node8" class="node">
<title>Node8</title>
<g id="a_node8"><a xlink:href="classflow_1_1net__flow_1_1Peer__socket.html#a8abde92d5189bf2a058fe8741789f814" target="_top" xlink:title="This is to sync_receive() as node_receive() is to receive().">
<polygon fill="white" stroke="black" points="306,-185.5 306,-211.5 437,-211.5 437,-185.5 306,-185.5"/>
<text text-anchor="start" x="314" y="-201.1" font-family="Helvetica,sans-Serif" font-size="8.00">flow::net_flow::Peer</text>
<text text-anchor="middle" x="371.5" y="-192.1" font-family="Helvetica,sans-Serif" font-size="8.00">_socket::node_sync_receive</text>
</a>
</g>
</g>
<!-- Node3&#45;&gt;Node8 -->
<g id="edge7" class="edge">
<title>Node3&#45;&gt;Node8</title>
<path fill="none" stroke="midnightblue" d="M269.44,-212.06C278.1,-210.9 287.06,-209.69 295.91,-208.51"/>
<polygon fill="midnightblue" stroke="midnightblue" points="296.38,-211.97 305.83,-207.18 295.45,-205.04 296.38,-211.97"/>
</g>
<!-- Node5 -->
<g id="node5" class="node">
<title>Node5</title>
<g id="a_node5"><a xlink:href="namespaceflow_1_1util.html#a16357344c21456b86b7de3085e2661a2" target="_top" xlink:title="Identical to buffers_to_ostream() but returns an std::string instead of writing to a given ostream.">
<polygon fill="white" stroke="black" points="482,-280.5 482,-306.5 568,-306.5 568,-280.5 482,-280.5"/>
<text text-anchor="start" x="490" y="-296.1" font-family="Helvetica,sans-Serif" font-size="8.00">flow::util::buffers</text>
<text text-anchor="middle" x="525" y="-287.1" font-family="Helvetica,sans-Serif" font-size="8.00">_dump_string</text>
</a>
</g>
</g>
<!-- Node4&#45;&gt;Node5 -->
<g id="edge4" class="edge">
<title>Node4&#45;&gt;Node5</title>
<path fill="none" stroke="midnightblue" d="M438.07,-277.62C449.34,-279.7 460.92,-281.84 471.78,-283.85"/>
<polygon fill="midnightblue" stroke="midnightblue" points="471.47,-287.35 481.94,-285.73 472.74,-280.47 471.47,-287.35"/>
</g>
<!-- Node6 -->
<g id="node6" class="node">
<title>Node6</title>
<g id="a_node6"><a xlink:href="namespaceflow_1_1util.html#aa132928b364caefca5c3821e019924bf" target="_top" xlink:title="Writes a multi&#45; or single&#45;line string representation of the provided binary data to an output stream,...">
<polygon fill="white" stroke="black" points="629.5,-325.5 629.5,-351.5 715.5,-351.5 715.5,-325.5 629.5,-325.5"/>
<text text-anchor="start" x="637.5" y="-341.1" font-family="Helvetica,sans-Serif" font-size="8.00">flow::util::buffers</text>
<text text-anchor="middle" x="672.5" y="-332.1" font-family="Helvetica,sans-Serif" font-size="8.00">_to_ostream</text>
</a>
</g>
</g>
<!-- Node5&#45;&gt;Node6 -->
<g id="edge5" class="edge">
<title>Node5&#45;&gt;Node6</title>
<path fill="none" stroke="midnightblue" d="M568.08,-306.52C584.15,-311.48 602.66,-317.21 619.54,-322.43"/>
<polygon fill="midnightblue" stroke="midnightblue" points="618.67,-325.82 629.26,-325.44 620.74,-319.14 618.67,-325.82"/>
</g>
<!-- Node7 -->
<g id="node7" class="node">
<title>Node7</title>
<g id="a_node7"><a xlink:href="classflow_1_1util_1_1String__ostream.html#a7e64b069ae0e221952068c13fdc0f080" target="_top" xlink:title="Access to stream that will write to owned string.">
<polygon fill="white" stroke="black" points="631.5,-280.5 631.5,-306.5 713.5,-306.5 713.5,-280.5 631.5,-280.5"/>
<text text-anchor="start" x="639.5" y="-296.1" font-family="Helvetica,sans-Serif" font-size="8.00">flow::util::String</text>
<text text-anchor="middle" x="672.5" y="-287.1" font-family="Helvetica,sans-Serif" font-size="8.00">_ostream::os</text>
</a>
</g>
</g>
<!-- Node5&#45;&gt;Node7 -->
<g id="edge6" class="edge">
<title>Node5&#45;&gt;Node7</title>
<path fill="none" stroke="midnightblue" d="M568.08,-293.5C584.49,-293.5 603.44,-293.5 620.6,-293.5"/>
<polygon fill="midnightblue" stroke="midnightblue" points="621.01,-297 631.01,-293.5 621.01,-290 621.01,-297"/>
</g>
<!-- Node9 -->
<g id="node9" class="node">
<title>Node9</title>
<g id="a_node9"><a xlink:href="classflow_1_1net__flow_1_1Node.html#a109a118ca312e94686595ea08dac7ad0" target="_top" xlink:title="Helper method that checks whether the given Peer_socket or Server_socket is CLOSED; if so,...">
<polygon fill="white" stroke="black" points="474.5,-230.5 474.5,-256.5 575.5,-256.5 575.5,-230.5 474.5,-230.5"/>
<text text-anchor="start" x="482.5" y="-246.1" font-family="Helvetica,sans-Serif" font-size="8.00">flow::net_flow::Node</text>
<text text-anchor="middle" x="525" y="-237.1" font-family="Helvetica,sans-Serif" font-size="8.00">::ensure_sock_open</text>
</a>
</g>
</g>
<!-- Node8&#45;&gt;Node9 -->
<g id="edge8" class="edge">
<title>Node8&#45;&gt;Node9</title>
<path fill="none" stroke="midnightblue" d="M416.32,-211.52C433.21,-216.53 452.68,-222.32 470.39,-227.58"/>
<polygon fill="midnightblue" stroke="midnightblue" points="469.43,-230.94 480.02,-230.44 471.43,-224.23 469.43,-230.94"/>
</g>
<!-- Node10 -->
<g id="node10" class="node">
<title>Node10</title>
<g id="a_node10"><a xlink:href="classflow_1_1net__flow_1_1Peer__socket.html#a5003c554807f5b5b58989ad58be48d42" target="_top" xlink:title="Constructs object; initializes most values to well&#45;defined (0, empty, etc.) but not necessarily meani...">
<polygon fill="white" stroke="black" points="474,-185.5 474,-211.5 576,-211.5 576,-185.5 474,-185.5"/>
<text text-anchor="start" x="482" y="-201.1" font-family="Helvetica,sans-Serif" font-size="8.00">flow::net_flow::Peer</text>
<text text-anchor="middle" x="525" y="-192.1" font-family="Helvetica,sans-Serif" font-size="8.00">_socket::Peer_socket</text>
</a>
</g>
</g>
<!-- Node8&#45;&gt;Node10 -->
<g id="edge9" class="edge">
<title>Node8&#45;&gt;Node10</title>
<path fill="none" stroke="midnightblue" d="M437.19,-198.5C445.98,-198.5 454.96,-198.5 463.67,-198.5"/>
<polygon fill="midnightblue" stroke="midnightblue" points="463.73,-202 473.73,-198.5 463.73,-195 463.73,-202"/>
</g>
<!-- Node13 -->
<g id="node12" class="node">
<title>Node13</title>
<g id="a_node12"><a xlink:href="classflow_1_1net__flow_1_1Node.html#addbb96858fd7b3c9ddd7c6fe8078809c" target="_top" xlink:title="Implementation of non&#45;blocking sock&#45;&gt;receive() for socket sock in all cases except when sock&#45;&gt;state()...">
<polygon fill="white" stroke="black" points="474.5,-137.5 474.5,-163.5 575.5,-163.5 575.5,-137.5 474.5,-137.5"/>
<text text-anchor="start" x="482.5" y="-153.1" font-family="Helvetica,sans-Serif" font-size="8.00">flow::net_flow::Node</text>
<text text-anchor="middle" x="525" y="-144.1" font-family="Helvetica,sans-Serif" font-size="8.00">::receive</text>
</a>
</g>
</g>
<!-- Node8&#45;&gt;Node13 -->
<g id="edge11" class="edge">
<title>Node8&#45;&gt;Node13</title>
<path fill="none" stroke="midnightblue" d="M413.9,-185.38C432.26,-179.57 454.04,-172.67 473.36,-166.54"/>
<polygon fill="midnightblue" stroke="midnightblue" points="474.44,-169.87 482.91,-163.52 472.32,-163.2 474.44,-169.87"/>
</g>
<!-- Node66 -->
<g id="node16" class="node">
<title>Node66</title>
<g id="a_node16"><a xlink:href="classflow_1_1net__flow_1_1Node.html#a2a4dc3d8e294bbc8423e111f52e414ae" target="_top" xlink:title="Implementation of core blocking transfer methods, namely Peer_socket::sync_send(),...">
<polygon fill="white" stroke="black" points="474.5,-70.5 474.5,-96.5 575.5,-96.5 575.5,-70.5 474.5,-70.5"/>
<text text-anchor="start" x="482.5" y="-86.1" font-family="Helvetica,sans-Serif" font-size="8.00">flow::net_flow::Node</text>
<text text-anchor="middle" x="525" y="-77.1" font-family="Helvetica,sans-Serif" font-size="8.00">::sync_op</text>
</a>
</g>
</g>
<!-- Node8&#45;&gt;Node66 -->
<g id="edge15" class="edge">
<title>Node8&#45;&gt;Node66</title>
<path fill="none" stroke="midnightblue" d="M389.88,-185.31C416.59,-165.03 467.88,-126.1 498.71,-102.7"/>
<polygon fill="midnightblue" stroke="midnightblue" points="500.97,-105.37 506.82,-96.54 496.74,-99.8 500.97,-105.37"/>
</g>
<!-- Node11 -->
<g id="node11" class="node">
<title>Node11</title>
<g id="a_node11"><a xlink:href="classflow_1_1net__flow_1_1Peer__socket.html#ad94e37c8cca01f801f13e9e0e0bc857d" target="_top" xlink:title="Copies this socket&#39;s option set and returns that copy.">
<polygon fill="white" stroke="red" points="624,-235.5 624,-261.5 721,-261.5 721,-235.5 624,-235.5"/>
<text text-anchor="start" x="632" y="-251.1" font-family="Helvetica,sans-Serif" font-size="8.00">flow::net_flow::Peer</text>
<text text-anchor="middle" x="672.5" y="-242.1" font-family="Helvetica,sans-Serif" font-size="8.00">_socket::options</text>
</a>
</g>
</g>
<!-- Node10&#45;&gt;Node11 -->
<g id="edge10" class="edge">
<title>Node10&#45;&gt;Node11</title>
<path fill="none" stroke="midnightblue" d="M563.85,-211.51C582.22,-217.82 604.47,-225.47 623.97,-232.17"/>
<polygon fill="midnightblue" stroke="midnightblue" points="622.99,-235.53 633.59,-235.47 625.27,-228.91 622.99,-235.53"/>
</g>
<!-- Node14 -->
<g id="node13" class="node">
<title>Node14</title>
<g id="a_node13"><a xlink:href="classflow_1_1net__flow_1_1Node.html#ad608f9bbe76426f4fbf4bf5af908e4e0" target="_top" xlink:title="Placed by receive() onto W during a graceful close, after the Receive buffer had been emptied by the ...">
<polygon fill="white" stroke="red" points="612,-181 612,-216 733,-216 733,-181 612,-181"/>
<text text-anchor="start" x="620" y="-205.6" font-family="Helvetica,sans-Serif" font-size="8.00">flow::net_flow::Node</text>
<text text-anchor="start" x="620" y="-196.6" font-family="Helvetica,sans-Serif" font-size="8.00">::receive_emptied_rcv</text>
<text text-anchor="middle" x="672.5" y="-187.6" font-family="Helvetica,sans-Serif" font-size="8.00">_buf_while_disconnecting</text>
</a>
</g>
</g>
<!-- Node13&#45;&gt;Node14 -->
<g id="edge12" class="edge">
<title>Node13&#45;&gt;Node14</title>
<path fill="none" stroke="midnightblue" d="M565.76,-163.62C579.08,-168.01 594.27,-173.02 608.91,-177.85"/>
<polygon fill="midnightblue" stroke="midnightblue" points="607.82,-181.18 618.42,-180.99 610.02,-174.53 607.82,-181.18"/>
</g>
<!-- Node50 -->
<g id="node14" class="node">
<title>Node50</title>
<g id="a_node14"><a xlink:href="classflow_1_1net__flow_1_1Node.html#a08cf95363b26c0c676979437e34db357" target="_top" xlink:title="Placed by receive() onto W if it has dequeued data from Receive buffer and given it to the user,...">
<polygon fill="white" stroke="red" points="616.5,-135.5 616.5,-161.5 728.5,-161.5 728.5,-135.5 616.5,-135.5"/>
<text text-anchor="start" x="624.5" y="-151.1" font-family="Helvetica,sans-Serif" font-size="8.00">flow::net_flow::Node</text>
<text text-anchor="middle" x="672.5" y="-142.1" font-family="Helvetica,sans-Serif" font-size="8.00">::receive_wnd_updated</text>
</a>
</g>
</g>
<!-- Node13&#45;&gt;Node50 -->
<g id="edge13" class="edge">
<title>Node13&#45;&gt;Node50</title>
<path fill="none" stroke="midnightblue" d="M575.67,-149.82C585.48,-149.68 595.93,-149.54 606.17,-149.4"/>
<polygon fill="midnightblue" stroke="midnightblue" points="606.37,-152.9 616.32,-149.26 606.27,-145.9 606.37,-152.9"/>
</g>
<!-- Node65 -->
<g id="node15" class="node">
<title>Node65</title>
<g id="a_node15"><a xlink:href="classflow_1_1net__flow_1_1Node.html#aae148cec361b59237996a4b30c6624b5" target="_top" xlink:title="Returns true if and only if the Node is operating.">
<polygon fill="white" stroke="black" points="622,-90.5 622,-116.5 723,-116.5 723,-90.5 622,-90.5"/>
<text text-anchor="start" x="630" y="-106.1" font-family="Helvetica,sans-Serif" font-size="8.00">flow::net_flow::Node</text>
<text text-anchor="middle" x="672.5" y="-97.1" font-family="Helvetica,sans-Serif" font-size="8.00">::running</text>
</a>
</g>
</g>
<!-- Node13&#45;&gt;Node65 -->
<g id="edge14" class="edge">
<title>Node13&#45;&gt;Node65</title>
<path fill="none" stroke="midnightblue" d="M566.53,-137.41C583.56,-131.91 603.54,-125.45 621.47,-119.66"/>
<polygon fill="midnightblue" stroke="midnightblue" points="622.75,-122.93 631.19,-116.52 620.6,-116.27 622.75,-122.93"/>
</g>
<!-- Node66&#45;&gt;Node65 -->
<g id="edge17" class="edge">
<title>Node66&#45;&gt;Node65</title>
<path fill="none" stroke="midnightblue" d="M575.67,-90.33C587.24,-91.92 599.69,-93.63 611.66,-95.27"/>
<polygon fill="midnightblue" stroke="midnightblue" points="611.18,-98.74 621.56,-96.64 612.13,-91.81 611.18,-98.74"/>
</g>
<!-- Node67 -->
<g id="node17" class="node">
<title>Node67</title>
<g id="a_node17"><a xlink:href="classflow_1_1net__flow_1_1Node.html#ad100464cf0126dbbad39bde1c90a774f" target="_top" xlink:title="Creates a new Event_set in Event_set::State::S_INACTIVE state with no sockets/events stored; returns ...">
<polygon fill="white" stroke="red" points="622,-45.5 622,-71.5 723,-71.5 723,-45.5 622,-45.5"/>
<text text-anchor="start" x="630" y="-61.1" font-family="Helvetica,sans-Serif" font-size="8.00">flow::net_flow::Node</text>
<text text-anchor="middle" x="672.5" y="-52.1" font-family="Helvetica,sans-Serif" font-size="8.00">::event_set_create</text>
</a>
</g>
</g>
<!-- Node66&#45;&gt;Node67 -->
<g id="edge16" class="edge">
<title>Node66&#45;&gt;Node67</title>
<path fill="none" stroke="midnightblue" d="M575.67,-74.97C587.24,-72.98 599.69,-70.84 611.66,-68.78"/>
<polygon fill="midnightblue" stroke="midnightblue" points="612.3,-72.22 621.56,-67.08 611.12,-65.32 612.3,-72.22"/>
</g>
<!-- Node72 -->
<g id="node18" class="node">
<title>Node72</title>
<g id="a_node18"><a xlink:href="namespaceflow_1_1util.html#a09a032f8e1e77a3afc0b7df115a773e1" target="_top" xlink:title="Provides a way to execute arbitrary (cleanup) code at the exit of the current block.">
<polygon fill="white" stroke="black" points="620.5,-0.5 620.5,-26.5 724.5,-26.5 724.5,-0.5 620.5,-0.5"/>
<text text-anchor="start" x="628.5" y="-16.1" font-family="Helvetica,sans-Serif" font-size="8.00">flow::util::setup_auto</text>
<text text-anchor="middle" x="672.5" y="-7.1" font-family="Helvetica,sans-Serif" font-size="8.00">_cleanup</text>
</a>
</g>
</g>
<!-- Node66&#45;&gt;Node72 -->
<g id="edge18" class="edge">
<title>Node66&#45;&gt;Node72</title>
<path fill="none" stroke="midnightblue" d="M547.43,-70.31C564.54,-60.09 589.33,-45.94 612,-35.5 615.83,-33.74 619.84,-32.01 623.89,-30.35"/>
<polygon fill="midnightblue" stroke="midnightblue" points="625.36,-33.53 633.37,-26.6 622.78,-27.02 625.36,-33.53"/>
</g>
</g>
</svg>
