<?xml version="1.0" encoding="UTF-8" standalone="no"?>
<!DOCTYPE svg PUBLIC "-//W3C//DTD SVG 1.1//EN"
 "http://www.w3.org/Graphics/SVG/1.1/DTD/svg11.dtd">
<!-- Generated by graphviz version 2.43.0 (0)
 -->
<!-- Title: flow::util::Polled_shared_state&lt; Shared_state_t &gt; Pages: 1 -->
<svg width="1152pt" height="374pt"
 viewBox="0.00 0.00 1152.00 373.50" xmlns="http://www.w3.org/2000/svg" xmlns:xlink="http://www.w3.org/1999/xlink">
<g id="graph0" class="graph" transform="scale(1 1) rotate(0) translate(4 369.5)">
<title>flow::util::Polled_shared_state&lt; Shared_state_t &gt;</title>
<polygon fill="white" stroke="transparent" points="-4,4 -4,-369.5 1148,-369.5 1148,4 -4,4"/>
<!-- Node1 -->
<g id="node1" class="node">
<title>Node1</title>
<g id="a_node1"><a xlink:title="Optional&#45;use companion to Thread_local_state_registry that enables the Polled_share_state pattern whe...">
<polygon fill="#bfbfbf" stroke="black" points="1032,-276 1032,-311 1144,-311 1144,-276 1032,-276"/>
<text text-anchor="start" x="1040" y="-300.6" font-family="Helvetica,sans-Serif" font-size="8.00">flow::util::Polled</text>
<text text-anchor="start" x="1040" y="-291.6" font-family="Helvetica,sans-Serif" font-size="8.00">_shared_state&lt; Shared</text>
<text text-anchor="middle" x="1088" y="-282.6" font-family="Helvetica,sans-Serif" font-size="8.00">_state_t &gt;</text>
</a>
</g>
</g>
<!-- Node2 -->
<g id="node2" class="node">
<title>Node2</title>
<g id="a_node2"><a xlink:title=" ">
<polygon fill="white" stroke="#bfbfbf" points="0,-310 0,-327 99,-327 99,-310 0,-310"/>
<text text-anchor="middle" x="49.5" y="-316.6" font-family="Helvetica,sans-Serif" font-size="8.00">boost::noncopyable</text>
</a>
</g>
</g>
<!-- Node2&#45;&gt;Node1 -->
<g id="edge1" class="edge">
<title>Node2&#45;&gt;Node1</title>
<path fill="none" stroke="#8b1a1a" d="M74.08,-331.93C100.73,-345.82 145.84,-365.5 187.5,-365.5 187.5,-365.5 187.5,-365.5 855.5,-365.5 928.53,-365.5 1008.9,-332.43 1053.12,-311.11"/>
<polygon fill="#8b1a1a" stroke="#8b1a1a" points="75.6,-328.77 65.14,-327.12 72.29,-334.94 75.6,-328.77"/>
</g>
<!-- Node3 -->
<g id="node3" class="node">
<title>Node3</title>
<g id="a_node3"><a xlink:href="classflow_1_1util_1_1Thread__local__state__registry.html" target="_top" xlink:title=" ">
<polygon fill="white" stroke="black" points="796,-177 796,-212 913,-212 913,-177 796,-177"/>
<text text-anchor="start" x="804" y="-201.6" font-family="Helvetica,sans-Serif" font-size="8.00">flow::util::Thread</text>
<text text-anchor="start" x="804" y="-192.6" font-family="Helvetica,sans-Serif" font-size="8.00">_local_state_registry</text>
<text text-anchor="middle" x="854.5" y="-183.6" font-family="Helvetica,sans-Serif" font-size="8.00">&lt; std::atomic&lt; bool &gt; &gt;</text>
</a>
</g>
</g>
<!-- Node2&#45;&gt;Node3 -->
<g id="edge9" class="edge">
<title>Node2&#45;&gt;Node3</title>
<path fill="none" stroke="#8b1a1a" d="M66.81,-302.95C91.07,-281.51 139.04,-245.5 187.5,-245.5 187.5,-245.5 187.5,-245.5 588,-245.5 660.75,-245.5 742.74,-226.8 796.1,-212.05"/>
<polygon fill="#8b1a1a" stroke="#8b1a1a" points="64.28,-300.51 59.25,-309.84 69,-305.69 64.28,-300.51"/>
</g>
<!-- Node6 -->
<g id="node6" class="node">
<title>Node6</title>
<g id="a_node6"><a xlink:href="classflow_1_1log_1_1Logger.html" target="_top" xlink:title="Interface that the user should implement, passing the implementing Logger into logging classes (Flow&#39;...">
<polygon fill="white" stroke="red" points="145.5,-310 145.5,-327 231.5,-327 231.5,-310 145.5,-310"/>
<text text-anchor="middle" x="188.5" y="-316.6" font-family="Helvetica,sans-Serif" font-size="8.00">flow::log::Logger</text>
</a>
</g>
</g>
<!-- Node2&#45;&gt;Node6 -->
<g id="edge6" class="edge">
<title>Node2&#45;&gt;Node6</title>
<path fill="none" stroke="#8b1a1a" d="M109.25,-318.5C121.38,-318.5 133.93,-318.5 145.33,-318.5"/>
<polygon fill="#8b1a1a" stroke="#8b1a1a" points="109.19,-315 99.19,-318.5 109.19,-322 109.19,-315"/>
</g>
<!-- Node3&#45;&gt;Node1 -->
<g id="edge2" class="edge">
<title>Node3&#45;&gt;Node1</title>
<path fill="none" stroke="#9a32cd" stroke-dasharray="5,2" d="M905.83,-216.02C947.75,-233.95 1006.73,-259.17 1045.87,-275.91"/>
<polygon fill="#9a32cd" stroke="#9a32cd" points="907.19,-212.8 896.62,-212.09 904.44,-219.24 907.19,-212.8"/>
<text text-anchor="middle" x="972.5" y="-264.1" font-family="Helvetica,sans-Serif" font-size="8.00"> m_poll_flag_registry</text>
</g>
<!-- Node4 -->
<g id="node4" class="node">
<title>Node4</title>
<g id="a_node4"><a xlink:href="classflow_1_1log_1_1Log__context__mt.html" target="_top" xlink:title="Identical to Log_context but is safe w/r/t to set_logger(), assignment, and swap() done concurrently ...">
<polygon fill="white" stroke="black" points="526.5,-274 526.5,-291 647.5,-291 647.5,-274 526.5,-274"/>
<text text-anchor="middle" x="587" y="-280.6" font-family="Helvetica,sans-Serif" font-size="8.00">flow::log::Log_context_mt</text>
</a>
</g>
</g>
<!-- Node4&#45;&gt;Node3 -->
<g id="edge3" class="edge">
<title>Node4&#45;&gt;Node3</title>
<path fill="none" stroke="midnightblue" d="M657.93,-283.71C694.99,-281.99 740.49,-276.06 778,-259.5 802.37,-248.75 824.74,-227.41 838.7,-212.11"/>
<polygon fill="midnightblue" stroke="midnightblue" points="657.58,-280.22 647.71,-284.08 657.83,-287.21 657.58,-280.22"/>
</g>
<!-- Node5 -->
<g id="node5" class="node">
<title>Node5</title>
<g id="a_node5"><a xlink:href="classflow_1_1log_1_1Log__context.html" target="_top" xlink:title="Convenience class that simply stores a Logger and/or Component passed into a constructor; and returns...">
<polygon fill="white" stroke="black" points="338,-274 338,-291 445,-291 445,-274 338,-274"/>
<text text-anchor="middle" x="391.5" y="-280.6" font-family="Helvetica,sans-Serif" font-size="8.00">flow::log::Log_context</text>
</a>
</g>
</g>
<!-- Node5&#45;&gt;Node4 -->
<g id="edge4" class="edge">
<title>Node5&#45;&gt;Node4</title>
<path fill="none" stroke="#8b1a1a" d="M455.35,-282.5C478.11,-282.5 503.73,-282.5 526.22,-282.5"/>
<polygon fill="#8b1a1a" stroke="#8b1a1a" points="455.12,-279 445.12,-282.5 455.12,-286 455.12,-279"/>
</g>
<!-- Node6&#45;&gt;Node5 -->
<g id="edge5" class="edge">
<title>Node6&#45;&gt;Node5</title>
<path fill="none" stroke="#9a32cd" stroke-dasharray="5,2" d="M241.48,-309.19C272.76,-303.59 312.29,-296.51 342.78,-291.05"/>
<polygon fill="#9a32cd" stroke="#9a32cd" points="240.86,-305.74 231.64,-310.95 242.1,-312.64 240.86,-305.74"/>
<text text-anchor="middle" x="289.5" y="-308.1" font-family="Helvetica,sans-Serif" font-size="8.00"> m_logger</text>
</g>
<!-- Node12 -->
<g id="node7" class="node">
<title>Node12</title>
<g id="a_node7"><a xlink:href="classflow_1_1log_1_1Component.html" target="_top" xlink:title="A light&#45;weight class, each object storing a component payload encoding an enum value from enum type o...">
<polygon fill="white" stroke="red" points="136,-274 136,-291 241,-291 241,-274 136,-274"/>
<text text-anchor="middle" x="188.5" y="-280.6" font-family="Helvetica,sans-Serif" font-size="8.00">flow::log::Component</text>
</a>
</g>
</g>
<!-- Node12&#45;&gt;Node5 -->
<g id="edge7" class="edge">
<title>Node12&#45;&gt;Node5</title>
<path fill="none" stroke="#9a32cd" stroke-dasharray="5,2" d="M251.35,-282.5C279,-282.5 311.24,-282.5 337.73,-282.5"/>
<polygon fill="#9a32cd" stroke="#9a32cd" points="251,-279 241,-282.5 251,-286 251,-279"/>
<text text-anchor="middle" x="289.5" y="-285.1" font-family="Helvetica,sans-Serif" font-size="8.00"> m_component</text>
</g>
<!-- Node15 -->
<g id="node8" class="node">
<title>Node15</title>
<g id="a_node8"><a xlink:title=" ">
<polygon fill="white" stroke="#bfbfbf" points="371,-315 371,-332 412,-332 412,-315 371,-315"/>
<text text-anchor="middle" x="391.5" y="-321.6" font-family="Helvetica,sans-Serif" font-size="8.00">mutex</text>
</a>
</g>
</g>
<!-- Node15&#45;&gt;Node1 -->
<g id="edge17" class="edge">
<title>Node15&#45;&gt;Node1</title>
<path fill="none" stroke="#9a32cd" stroke-dasharray="5,2" d="M422.21,-322.22C528.68,-317.62 892.24,-301.91 1031.82,-295.88"/>
<polygon fill="#9a32cd" stroke="#9a32cd" points="422.01,-318.72 412.17,-322.65 422.31,-325.72 422.01,-318.72"/>
<text text-anchor="middle" x="725" y="-313.1" font-family="Helvetica,sans-Serif" font-size="8.00"> m_shared_state_mutex</text>
</g>
<!-- Node15&#45;&gt;Node4 -->
<g id="edge8" class="edge">
<title>Node15&#45;&gt;Node4</title>
<path fill="none" stroke="#9a32cd" stroke-dasharray="5,2" d="M422.07,-314.92C434.63,-311.44 449.47,-307.53 463,-304.5 485.65,-299.43 510.86,-294.76 532.52,-291.03"/>
<polygon fill="#9a32cd" stroke="#9a32cd" points="420.82,-311.64 412.14,-317.72 422.71,-318.38 420.82,-311.64"/>
<text text-anchor="middle" x="482.5" y="-307.1" font-family="Helvetica,sans-Serif" font-size="8.00"> m_mutex</text>
</g>
<!-- Node16 -->
<g id="node9" class="node">
<title>Node16</title>
<g id="a_node9"><a xlink:href="classbool.html" target="_top" xlink:title=" ">
<polygon fill="white" stroke="#bfbfbf" points="569.5,-46 569.5,-63 604.5,-63 604.5,-46 569.5,-46"/>
<text text-anchor="middle" x="587" y="-52.6" font-family="Helvetica,sans-Serif" font-size="8.00">bool</text>
</a>
</g>
</g>
<!-- Node16&#45;&gt;Node3 -->
<g id="edge10" class="edge">
<title>Node16&#45;&gt;Node3</title>
<path fill="none" stroke="#9a32cd" stroke-dasharray="5,2" d="M614.63,-51.42C655.5,-48.3 733.62,-48.87 778,-91.5 803.03,-115.55 774.11,-140.56 796,-167.5 798.92,-171.1 802.43,-174.24 806.26,-176.98"/>
<polygon fill="#9a32cd" stroke="#9a32cd" points="614.26,-47.94 604.61,-52.32 614.89,-54.92 614.26,-47.94"/>
<text text-anchor="start" x="672" y="-103.1" font-family="Helvetica,sans-Serif" font-size="8.00"> S_TL_STATE_HAS_MT_LOG</text>
<text text-anchor="middle" x="725" y="-94.1" font-family="Helvetica,sans-Serif" font-size="8.00">_CONTEXT</text>
</g>
<!-- Node17 -->
<g id="node10" class="node">
<title>Node17</title>
<g id="a_node10"><a xlink:href="classflow_1_1Function.html" target="_top" xlink:title=" ">
<polygon fill="white" stroke="#bfbfbf" points="530.5,-0.5 530.5,-26.5 643.5,-26.5 643.5,-0.5 530.5,-0.5"/>
<text text-anchor="start" x="538.5" y="-16.1" font-family="Helvetica,sans-Serif" font-size="8.00">flow::Function&lt; Thread</text>
<text text-anchor="middle" x="587" y="-7.1" font-family="Helvetica,sans-Serif" font-size="8.00">_local_state *()&gt;</text>
</a>
</g>
</g>
<!-- Node17&#45;&gt;Node3 -->
<g id="edge11" class="edge">
<title>Node17&#45;&gt;Node3</title>
<path fill="none" stroke="#9a32cd" stroke-dasharray="5,2" d="M653.82,-4.18C695.02,-2.28 746.15,-7.76 778,-39.5 818.7,-80.05 761.89,-121.28 796,-167.5 798.62,-171.05 801.82,-174.15 805.37,-176.85"/>
<polygon fill="#9a32cd" stroke="#9a32cd" points="653.35,-0.7 643.58,-4.81 653.78,-7.69 653.35,-0.7"/>
<text text-anchor="middle" x="725" y="-42.1" font-family="Helvetica,sans-Serif" font-size="8.00"> m_create_state_func</text>
</g>
<!-- Node18 -->
<g id="node11" class="node">
<title>Node18</title>
<g id="a_node11"><a xlink:title=" ">
<polygon fill="white" stroke="black" points="557.5,-82 557.5,-99 616.5,-99 616.5,-82 557.5,-82"/>
<text text-anchor="middle" x="587" y="-88.6" font-family="Helvetica,sans-Serif" font-size="8.00">std::string</text>
</a>
</g>
</g>
<!-- Node18&#45;&gt;Node3 -->
<g id="edge12" class="edge">
<title>Node18&#45;&gt;Node3</title>
<path fill="none" stroke="#9a32cd" stroke-dasharray="5,2" d="M626.48,-100.99C635.51,-103.45 645.09,-106.06 654,-108.5 709.12,-123.57 731.07,-109.89 778,-142.5 789.24,-150.31 785.47,-158.75 796,-167.5 800.16,-170.95 804.83,-174.07 809.67,-176.86"/>
<polygon fill="#9a32cd" stroke="#9a32cd" points="627.16,-97.54 616.59,-98.29 625.32,-104.3 627.16,-97.54"/>
<text text-anchor="middle" x="725" y="-145.1" font-family="Helvetica,sans-Serif" font-size="8.00"> m_nickname</text>
</g>
<!-- Node19 -->
<g id="node12" class="node">
<title>Node19</title>
<g id="a_node12"><a xlink:title=" ">
<polygon fill="white" stroke="black" points="346,-77.5 346,-103.5 437,-103.5 437,-77.5 346,-77.5"/>
<text text-anchor="start" x="354" y="-93.1" font-family="Helvetica,sans-Serif" font-size="8.00">std::basic_string&lt;</text>
<text text-anchor="middle" x="391.5" y="-84.1" font-family="Helvetica,sans-Serif" font-size="8.00"> Char &gt;</text>
</a>
</g>
</g>
<!-- Node19&#45;&gt;Node18 -->
<g id="edge13" class="edge">
<title>Node19&#45;&gt;Node18</title>
<path fill="none" stroke="midnightblue" d="M447.66,-90.5C483.39,-90.5 528.46,-90.5 557.27,-90.5"/>
<polygon fill="midnightblue" stroke="midnightblue" points="447.38,-87 437.38,-90.5 447.38,-94 447.38,-87"/>
</g>
<!-- Node20 -->
<g id="node13" class="node">
<title>Node20</title>
<g id="a_node13"><a xlink:href="structflow_1_1util_1_1Thread__local__state__registry_1_1Tsp__wrapper.html" target="_top" xlink:title="Simply wraps a boost::thread_specific_ptr&lt;Tl_context&gt;, adding absolutely no data or algorithms,...">
<polygon fill="white" stroke="black" points="532,-172.5 532,-216.5 642,-216.5 642,-172.5 532,-172.5"/>
<text text-anchor="start" x="540" y="-206.1" font-family="Helvetica,sans-Serif" font-size="8.00">flow::util::Thread</text>
<text text-anchor="start" x="540" y="-197.1" font-family="Helvetica,sans-Serif" font-size="8.00">_local_state_registry</text>
<text text-anchor="start" x="540" y="-188.1" font-family="Helvetica,sans-Serif" font-size="8.00">&lt; Thread_local_state_t</text>
<text text-anchor="middle" x="587" y="-179.1" font-family="Helvetica,sans-Serif" font-size="8.00"> &gt;::Tsp_wrapper</text>
</a>
</g>
</g>
<!-- Node20&#45;&gt;Node3 -->
<g id="edge14" class="edge">
<title>Node20&#45;&gt;Node3</title>
<path fill="none" stroke="#9a32cd" stroke-dasharray="5,2" d="M652.3,-194.5C696.09,-194.5 753.55,-194.5 795.85,-194.5"/>
<polygon fill="#9a32cd" stroke="#9a32cd" points="652.05,-191 642.05,-194.5 652.05,-198 652.05,-191"/>
<text text-anchor="start" x="682.5" y="-206.1" font-family="Helvetica,sans-Serif" font-size="8.00"> m_this_thread_state</text>
<text text-anchor="middle" x="725" y="-197.1" font-family="Helvetica,sans-Serif" font-size="8.00">_or_null</text>
</g>
<!-- Node21 -->
<g id="node14" class="node">
<title>Node21</title>
<g id="a_node14"><a xlink:title=" ">
<polygon fill="white" stroke="#bfbfbf" points="342,-172.5 342,-216.5 441,-216.5 441,-172.5 342,-172.5"/>
<text text-anchor="start" x="350" y="-206.1" font-family="Helvetica,sans-Serif" font-size="8.00">thread_specific_ptr</text>
<text text-anchor="start" x="350" y="-197.1" font-family="Helvetica,sans-Serif" font-size="8.00">&lt; flow::util::Thread</text>
<text text-anchor="start" x="350" y="-188.1" font-family="Helvetica,sans-Serif" font-size="8.00">_local_state_registry</text>
<text text-anchor="middle" x="391.5" y="-179.1" font-family="Helvetica,sans-Serif" font-size="8.00">::Tl_context &gt;</text>
</a>
</g>
</g>
<!-- Node21&#45;&gt;Node20 -->
<g id="edge15" class="edge">
<title>Node21&#45;&gt;Node20</title>
<path fill="none" stroke="#9a32cd" stroke-dasharray="5,2" d="M451.62,-194.5C477.13,-194.5 506.78,-194.5 531.73,-194.5"/>
<polygon fill="#9a32cd" stroke="#9a32cd" points="451.33,-191 441.33,-194.5 451.33,-198 451.33,-191"/>
<text text-anchor="middle" x="482.5" y="-197.1" font-family="Helvetica,sans-Serif" font-size="8.00"> m_tsp</text>
</g>
<!-- Node22 -->
<g id="node15" class="node">
<title>Node22</title>
<g id="a_node15"><a xlink:title=" ">
<polygon fill="white" stroke="#bfbfbf" points="520,-118 520,-153 654,-153 654,-118 520,-118"/>
<text text-anchor="start" x="528" y="-142.6" font-family="Helvetica,sans-Serif" font-size="8.00">shared_ptr&lt; flow::util</text>
<text text-anchor="start" x="528" y="-133.6" font-family="Helvetica,sans-Serif" font-size="8.00">::Thread_local_state_registry</text>
<text text-anchor="middle" x="587" y="-124.6" font-family="Helvetica,sans-Serif" font-size="8.00">::Registry_ctl &gt;</text>
</a>
</g>
</g>
<!-- Node22&#45;&gt;Node3 -->
<g id="edge16" class="edge">
<title>Node22&#45;&gt;Node3</title>
<path fill="none" stroke="#9a32cd" stroke-dasharray="5,2" d="M664.19,-152.43C706.05,-161.73 757.14,-173.09 795.69,-181.65"/>
<polygon fill="#9a32cd" stroke="#9a32cd" points="664.83,-148.99 654.31,-150.24 663.31,-155.82 664.83,-148.99"/>
<text text-anchor="middle" x="725" y="-180.1" font-family="Helvetica,sans-Serif" font-size="8.00"> m_ctl</text>
</g>
<!-- Node23 -->
<g id="node16" class="node">
<title>Node23</title>
<g id="a_node16"><a xlink:title=" ">
<polygon fill="white" stroke="#bfbfbf" points="816,-141 816,-158 893,-158 893,-141 816,-141"/>
<text text-anchor="middle" x="854.5" y="-147.6" font-family="Helvetica,sans-Serif" font-size="8.00">Shared_state_t</text>
</a>
</g>
</g>
<!-- Node23&#45;&gt;Node1 -->
<g id="edge18" class="edge">
<title>Node23&#45;&gt;Node1</title>
<path fill="none" stroke="#9a32cd" stroke-dasharray="5,2" d="M896.85,-161.13C930.52,-171.92 978.17,-190.27 1014,-216.5 1037.49,-233.69 1059.79,-258.99 1073.42,-275.85"/>
<polygon fill="#9a32cd" stroke="#9a32cd" points="897.47,-157.66 886.88,-158.03 895.39,-164.34 897.47,-157.66"/>
<text text-anchor="middle" x="972.5" y="-219.1" font-family="Helvetica,sans-Serif" font-size="8.00"> m_shared_state</text>
</g>
</g>
</svg>
