<?xml version="1.0" encoding="UTF-8" standalone="no"?>
<!DOCTYPE svg PUBLIC "-//W3C//DTD SVG 1.1//EN"
 "http://www.w3.org/Graphics/SVG/1.1/DTD/svg11.dtd">
<!-- Generated by graphviz version 2.43.0 (0)
 -->
<!-- Title: flow::net_flow::asio::Peer_socket::async_receive_impl Pages: 1 -->
<svg width="246pt" height="44pt"
 viewBox="0.00 0.00 246.00 44.00" xmlns="http://www.w3.org/2000/svg" xmlns:xlink="http://www.w3.org/1999/xlink">
<g id="graph0" class="graph" transform="scale(1 1) rotate(0) translate(4 40)">
<title>flow::net_flow::asio::Peer_socket::async_receive_impl</title>
<polygon fill="white" stroke="transparent" points="-4,4 -4,-40 242,-40 242,4 -4,4"/>
<!-- Node1 -->
<g id="node1" class="node">
<title>Node1</title>
<g id="a_node1"><a xlink:title="De&#45;templated implementation of all async_receive() methods.">
<polygon fill="#bfbfbf" stroke="black" points="137,-0.5 137,-35.5 238,-35.5 238,-0.5 137,-0.5"/>
<text text-anchor="start" x="145" y="-25.1" font-family="Helvetica,sans-Serif" font-size="8.00">flow::net_flow::asio</text>
<text text-anchor="start" x="145" y="-16.1" font-family="Helvetica,sans-Serif" font-size="8.00">::Peer_socket::async</text>
<text text-anchor="middle" x="187.5" y="-7.1" font-family="Helvetica,sans-Serif" font-size="8.00">_receive_impl</text>
</a>
</g>
</g>
<!-- Node2 -->
<g id="node2" class="node">
<title>Node2</title>
<g id="a_node2"><a xlink:href="classflow_1_1net__flow_1_1asio_1_1Peer__socket.html#a98186f8257f1f7b49dbbbc13c0dda7fe" target="_top" xlink:title="boost.asio&#45;style asynchronous version that essentially performs non&#45;null_buffers net_flow::Peer_socke...">
<polygon fill="white" stroke="black" points="0,-0.5 0,-35.5 101,-35.5 101,-0.5 0,-0.5"/>
<text text-anchor="start" x="8" y="-25.1" font-family="Helvetica,sans-Serif" font-size="8.00">flow::net_flow::asio</text>
<text text-anchor="start" x="8" y="-16.1" font-family="Helvetica,sans-Serif" font-size="8.00">::Peer_socket::async</text>
<text text-anchor="middle" x="50.5" y="-7.1" font-family="Helvetica,sans-Serif" font-size="8.00">_receive</text>
</a>
</g>
</g>
<!-- Node1&#45;&gt;Node2 -->
<g id="edge1" class="edge">
<title>Node1&#45;&gt;Node2</title>
<path fill="none" stroke="midnightblue" d="M126.79,-18C118.33,-18 109.7,-18 101.45,-18"/>
<polygon fill="midnightblue" stroke="midnightblue" points="127,-21.5 137,-18 127,-14.5 127,-21.5"/>
</g>
</g>
</svg>
