<?xml version="1.0" encoding="UTF-8" standalone="no"?>
<!DOCTYPE svg PUBLIC "-//W3C//DTD SVG 1.1//EN"
 "http://www.w3.org/Graphics/SVG/1.1/DTD/svg11.dtd">
<!-- Generated by graphviz version 2.43.0 (0)
 -->
<!-- Title: flow::net_flow::Socket_buffer::feed_buf_move Pages: 1 -->
<svg width="536pt" height="90pt"
 viewBox="0.00 0.00 536.00 90.00" xmlns="http://www.w3.org/2000/svg" xmlns:xlink="http://www.w3.org/1999/xlink">
<g id="graph0" class="graph" transform="scale(1 1) rotate(0) translate(4 86)">
<title>flow::net_flow::Socket_buffer::feed_buf_move</title>
<polygon fill="white" stroke="transparent" points="-4,4 -4,-86 532,-86 532,4 -4,4"/>
<!-- Node1 -->
<g id="node1" class="node">
<title>Node1</title>
<g id="a_node1"><a xlink:title="Feeds (adds to the back of the byte buffer) the byte sequence equal to the given byte sequence *data,...">
<polygon fill="#bfbfbf" stroke="black" points="0,-23.5 0,-49.5 113,-49.5 113,-23.5 0,-23.5"/>
<text text-anchor="start" x="8" y="-39.1" font-family="Helvetica,sans-Serif" font-size="8.00">flow::net_flow::Socket</text>
<text text-anchor="middle" x="56.5" y="-30.1" font-family="Helvetica,sans-Serif" font-size="8.00">_buffer::feed_buf_move</text>
</a>
</g>
</g>
<!-- Node2 -->
<g id="node2" class="node">
<title>Node2</title>
<g id="a_node2"><a xlink:href="namespaceflow_1_1util.html#a16357344c21456b86b7de3085e2661a2" target="_top" xlink:title="Identical to buffers_to_ostream() but returns an std::string instead of writing to a given ostream.">
<polygon fill="white" stroke="black" points="309.5,-55.5 309.5,-81.5 395.5,-81.5 395.5,-55.5 309.5,-55.5"/>
<text text-anchor="start" x="317.5" y="-71.1" font-family="Helvetica,sans-Serif" font-size="8.00">flow::util::buffers</text>
<text text-anchor="middle" x="352.5" y="-62.1" font-family="Helvetica,sans-Serif" font-size="8.00">_dump_string</text>
</a>
</g>
</g>
<!-- Node1&#45;&gt;Node2 -->
<g id="edge1" class="edge">
<title>Node1&#45;&gt;Node2</title>
<path fill="none" stroke="midnightblue" d="M101.82,-49.55C116.68,-53.42 133.44,-57.22 149,-59.5 199.72,-66.92 258.28,-68.81 299.33,-69.06"/>
<polygon fill="midnightblue" stroke="midnightblue" points="299.37,-72.56 309.38,-69.09 299.39,-65.56 299.37,-72.56"/>
</g>
<!-- Node4 -->
<g id="node4" class="node">
<title>Node4</title>
<g id="a_node4"><a xlink:href="classflow_1_1net__flow_1_1Socket__buffer.html#a69a0c514df820c36e7109fb1fcf78522" target="_top" xlink:title="Feeds (adds to the back of the byte buffer) the contents of the byte stream composed of the bytes in ...">
<polygon fill="white" stroke="black" points="149,-23.5 149,-49.5 263,-49.5 263,-23.5 149,-23.5"/>
<text text-anchor="start" x="157" y="-39.1" font-family="Helvetica,sans-Serif" font-size="8.00">flow::net_flow::Socket</text>
<text text-anchor="middle" x="206" y="-30.1" font-family="Helvetica,sans-Serif" font-size="8.00">_buffer::feed_bufs_copy</text>
</a>
</g>
</g>
<!-- Node1&#45;&gt;Node4 -->
<g id="edge3" class="edge">
<title>Node1&#45;&gt;Node4</title>
<path fill="none" stroke="midnightblue" d="M113.26,-36.5C121.5,-36.5 130.05,-36.5 138.48,-36.5"/>
<polygon fill="midnightblue" stroke="midnightblue" points="138.67,-40 148.67,-36.5 138.67,-33 138.67,-40"/>
</g>
<!-- Node5 -->
<g id="node5" class="node">
<title>Node5</title>
<g id="a_node5"><a xlink:href="classflow_1_1log_1_1Log__context.html#af4db395042b065b00398cd59845dcb4d" target="_top" xlink:title="Returns the stored Logger pointer, particularly as many FLOW_LOG_*() macros expect.">
<polygon fill="white" stroke="black" points="299,-0.5 299,-26.5 406,-26.5 406,-0.5 299,-0.5"/>
<text text-anchor="start" x="307" y="-16.1" font-family="Helvetica,sans-Serif" font-size="8.00">flow::log::Log_context</text>
<text text-anchor="middle" x="352.5" y="-7.1" font-family="Helvetica,sans-Serif" font-size="8.00">::get_logger</text>
</a>
</g>
</g>
<!-- Node1&#45;&gt;Node5 -->
<g id="edge6" class="edge">
<title>Node1&#45;&gt;Node5</title>
<path fill="none" stroke="midnightblue" d="M100.37,-23.41C115.58,-19.38 132.91,-15.49 149,-13.5 195.54,-7.74 248.56,-7.98 288.67,-9.54"/>
<polygon fill="midnightblue" stroke="midnightblue" points="288.7,-13.04 298.84,-9.97 288.99,-6.05 288.7,-13.04"/>
</g>
<!-- Node3 -->
<g id="node3" class="node">
<title>Node3</title>
<g id="a_node3"><a xlink:href="namespaceflow_1_1util.html#aa132928b364caefca5c3821e019924bf" target="_top" xlink:title="Writes a multi&#45; or single&#45;line string representation of the provided binary data to an output stream,...">
<polygon fill="white" stroke="black" points="442,-55.5 442,-81.5 528,-81.5 528,-55.5 442,-55.5"/>
<text text-anchor="start" x="450" y="-71.1" font-family="Helvetica,sans-Serif" font-size="8.00">flow::util::buffers</text>
<text text-anchor="middle" x="485" y="-62.1" font-family="Helvetica,sans-Serif" font-size="8.00">_to_ostream</text>
</a>
</g>
</g>
<!-- Node2&#45;&gt;Node3 -->
<g id="edge2" class="edge">
<title>Node2&#45;&gt;Node3</title>
<path fill="none" stroke="midnightblue" d="M395.51,-68.5C406.92,-68.5 419.42,-68.5 431.34,-68.5"/>
<polygon fill="midnightblue" stroke="midnightblue" points="431.62,-72 441.62,-68.5 431.62,-65 431.62,-72"/>
</g>
<!-- Node4&#45;&gt;Node2 -->
<g id="edge4" class="edge">
<title>Node4&#45;&gt;Node2</title>
<path fill="none" stroke="midnightblue" d="M263.28,-48.96C275.17,-51.6 287.67,-54.36 299.4,-56.96"/>
<polygon fill="midnightblue" stroke="midnightblue" points="298.95,-60.45 309.47,-59.19 300.46,-53.61 298.95,-60.45"/>
</g>
<!-- Node4&#45;&gt;Node5 -->
<g id="edge5" class="edge">
<title>Node4&#45;&gt;Node5</title>
<path fill="none" stroke="midnightblue" d="M263.28,-27.54C271.71,-26.2 280.45,-24.81 289,-23.45"/>
<polygon fill="midnightblue" stroke="midnightblue" points="289.59,-26.9 298.92,-21.87 288.49,-19.99 289.59,-26.9"/>
</g>
</g>
</svg>
