<?xml version="1.0" encoding="UTF-8" standalone="no"?>
<!DOCTYPE svg PUBLIC "-//W3C//DTD SVG 1.1//EN"
 "http://www.w3.org/Graphics/SVG/1.1/DTD/svg11.dtd">
<!-- Generated by graphviz version 2.43.0 (0)
 -->
<!-- Title: flow::net_flow::Peer_socket::set_options Pages: 1 -->
<svg width="527pt" height="124pt"
 viewBox="0.00 0.00 527.00 124.00" xmlns="http://www.w3.org/2000/svg" xmlns:xlink="http://www.w3.org/1999/xlink">
<g id="graph0" class="graph" transform="scale(1 1) rotate(0) translate(4 120)">
<title>flow::net_flow::Peer_socket::set_options</title>
<polygon fill="white" stroke="transparent" points="-4,4 -4,-120 523,-120 523,4 -4,4"/>
<!-- Node1 -->
<g id="node1" class="node">
<title>Node1</title>
<g id="a_node1"><a xlink:title="Dynamically replaces the current options set (options()) with the given options set.">
<polygon fill="#bfbfbf" stroke="black" points="0,-66.5 0,-92.5 101,-92.5 101,-66.5 0,-66.5"/>
<text text-anchor="start" x="8" y="-82.1" font-family="Helvetica,sans-Serif" font-size="8.00">flow::net_flow::Peer</text>
<text text-anchor="middle" x="50.5" y="-73.1" font-family="Helvetica,sans-Serif" font-size="8.00">_socket::set_options</text>
</a>
</g>
</g>
<!-- Node1&#45;&gt;Node1 -->
<g id="edge2" class="edge">
<title>Node1&#45;&gt;Node1</title>
<path fill="none" stroke="midnightblue" d="M27.49,-92.77C20.52,-101.96 28.19,-111 50.5,-111 64.1,-111 72.26,-107.64 74.98,-102.94"/>
<polygon fill="midnightblue" stroke="midnightblue" points="78.4,-102.17 73.51,-92.77 71.47,-103.17 78.4,-102.17"/>
</g>
<!-- Node2 -->
<g id="node2" class="node">
<title>Node2</title>
<g id="a_node2"><a xlink:href="classflow_1_1net__flow_1_1Node.html#a109a118ca312e94686595ea08dac7ad0" target="_top" xlink:title="Helper method that checks whether the given Peer_socket or Server_socket is CLOSED; if so,...">
<polygon fill="white" stroke="black" points="137,-89.5 137,-115.5 238,-115.5 238,-89.5 137,-89.5"/>
<text text-anchor="start" x="145" y="-105.1" font-family="Helvetica,sans-Serif" font-size="8.00">flow::net_flow::Node</text>
<text text-anchor="middle" x="187.5" y="-96.1" font-family="Helvetica,sans-Serif" font-size="8.00">::ensure_sock_open</text>
</a>
</g>
</g>
<!-- Node1&#45;&gt;Node2 -->
<g id="edge1" class="edge">
<title>Node1&#45;&gt;Node2</title>
<path fill="none" stroke="midnightblue" d="M101,-87.93C109.33,-89.35 118.06,-90.84 126.61,-92.3"/>
<polygon fill="midnightblue" stroke="midnightblue" points="126.11,-95.76 136.55,-93.99 127.28,-88.86 126.11,-95.76"/>
</g>
<!-- Node3 -->
<g id="node3" class="node">
<title>Node3</title>
<g id="a_node3"><a xlink:href="classflow_1_1net__flow_1_1Node.html#aadea4a9941c6138d9c025401b1f85ceb" target="_top" xlink:title="Thread W implementation of sock&#45;&gt;set_options().">
<polygon fill="white" stroke="black" points="137,-44.5 137,-70.5 238,-70.5 238,-44.5 137,-44.5"/>
<text text-anchor="start" x="145" y="-60.1" font-family="Helvetica,sans-Serif" font-size="8.00">flow::net_flow::Node</text>
<text text-anchor="middle" x="187.5" y="-51.1" font-family="Helvetica,sans-Serif" font-size="8.00">::sock_set_options</text>
</a>
</g>
</g>
<!-- Node1&#45;&gt;Node3 -->
<g id="edge3" class="edge">
<title>Node1&#45;&gt;Node3</title>
<path fill="none" stroke="midnightblue" d="M101,-71.43C109.33,-70.08 118.06,-68.65 126.61,-67.26"/>
<polygon fill="midnightblue" stroke="midnightblue" points="127.24,-70.7 136.55,-65.64 126.12,-63.79 127.24,-70.7"/>
</g>
<!-- Node4 -->
<g id="node4" class="node">
<title>Node4</title>
<g id="a_node4"><a xlink:href="classflow_1_1net__flow_1_1Node.html#aae148cec361b59237996a4b30c6624b5" target="_top" xlink:title="Returns true if and only if the Node is operating.">
<polygon fill="white" stroke="black" points="280,-67.5 280,-93.5 381,-93.5 381,-67.5 280,-67.5"/>
<text text-anchor="start" x="288" y="-83.1" font-family="Helvetica,sans-Serif" font-size="8.00">flow::net_flow::Node</text>
<text text-anchor="middle" x="330.5" y="-74.1" font-family="Helvetica,sans-Serif" font-size="8.00">::running</text>
</a>
</g>
</g>
<!-- Node3&#45;&gt;Node4 -->
<g id="edge4" class="edge">
<title>Node3&#45;&gt;Node4</title>
<path fill="none" stroke="midnightblue" d="M238.21,-65.61C248.43,-67.28 259.28,-69.05 269.8,-70.76"/>
<polygon fill="midnightblue" stroke="midnightblue" points="269.33,-74.23 279.76,-72.39 270.46,-67.32 269.33,-74.23"/>
</g>
<!-- Node5 -->
<g id="node5" class="node">
<title>Node5</title>
<g id="a_node5"><a xlink:href="classflow_1_1net__flow_1_1Node.html#a446ee7115c70cbcd48e3897d32fc0276" target="_top" xlink:title="Analogous to validate_options() but checks per&#45;socket options instead of per&#45;Node options.">
<polygon fill="white" stroke="black" points="274,-22.5 274,-48.5 387,-48.5 387,-22.5 274,-22.5"/>
<text text-anchor="start" x="282" y="-38.1" font-family="Helvetica,sans-Serif" font-size="8.00">flow::net_flow::Node</text>
<text text-anchor="middle" x="330.5" y="-29.1" font-family="Helvetica,sans-Serif" font-size="8.00">::sock_validate_options</text>
</a>
</g>
</g>
<!-- Node3&#45;&gt;Node5 -->
<g id="edge5" class="edge">
<title>Node3&#45;&gt;Node5</title>
<path fill="none" stroke="midnightblue" d="M238.21,-49.74C246.53,-48.45 255.28,-47.08 263.92,-45.73"/>
<polygon fill="midnightblue" stroke="midnightblue" points="264.65,-49.16 273.99,-44.16 263.57,-42.24 264.65,-49.16"/>
</g>
<!-- Node6 -->
<g id="node6" class="node">
<title>Node6</title>
<g id="a_node6"><a xlink:href="namespaceflow_1_1util.html#ab10bc9e8bef148f875aa743fe0852743" target="_top" xlink:title="Returns true if and only if the given value is within the given range, inclusive.">
<polygon fill="white" stroke="black" points="423,-45.5 423,-71.5 519,-71.5 519,-45.5 423,-45.5"/>
<text text-anchor="start" x="431" y="-61.1" font-family="Helvetica,sans-Serif" font-size="8.00">flow::util::in_closed</text>
<text text-anchor="middle" x="471" y="-52.1" font-family="Helvetica,sans-Serif" font-size="8.00">_range</text>
</a>
</g>
</g>
<!-- Node5&#45;&gt;Node6 -->
<g id="edge6" class="edge">
<title>Node5&#45;&gt;Node6</title>
<path fill="none" stroke="midnightblue" d="M387.04,-44.72C395.58,-46.14 404.42,-47.61 413,-49.03"/>
<polygon fill="midnightblue" stroke="midnightblue" points="412.48,-52.5 422.91,-50.68 413.62,-45.59 412.48,-52.5"/>
</g>
<!-- Node7 -->
<g id="node7" class="node">
<title>Node7</title>
<g id="a_node7"><a xlink:href="namespaceflow_1_1util.html#a8ae762ea4f743a98a73953d7f9ec2164" target="_top" xlink:title="Returns true if and only if the given value is within the given range, given as a (low,...">
<polygon fill="white" stroke="black" points="426,-0.5 426,-26.5 516,-26.5 516,-0.5 426,-0.5"/>
<text text-anchor="start" x="434" y="-16.1" font-family="Helvetica,sans-Serif" font-size="8.00">flow::util::in_open</text>
<text text-anchor="middle" x="471" y="-7.1" font-family="Helvetica,sans-Serif" font-size="8.00">_closed_range</text>
</a>
</g>
</g>
<!-- Node5&#45;&gt;Node7 -->
<g id="edge7" class="edge">
<title>Node5&#45;&gt;Node7</title>
<path fill="none" stroke="midnightblue" d="M387.04,-26.68C396.54,-25.17 406.41,-23.6 415.87,-22.1"/>
<polygon fill="midnightblue" stroke="midnightblue" points="416.63,-25.52 425.96,-20.5 415.53,-18.61 416.63,-25.52"/>
</g>
</g>
</svg>
