<?xml version="1.0" encoding="UTF-8" standalone="no"?>
<!DOCTYPE svg PUBLIC "-//W3C//DTD SVG 1.1//EN"
 "http://www.w3.org/Graphics/SVG/1.1/DTD/svg11.dtd">
<!-- Generated by graphviz version 2.43.0 (0)
 -->
<!-- Title: flow::net_flow::Node::handle_accumulated_acks Pages: 1 -->
<svg width="743pt" height="85pt"
 viewBox="0.00 0.00 743.00 85.00" xmlns="http://www.w3.org/2000/svg" xmlns:xlink="http://www.w3.org/1999/xlink">
<g id="graph0" class="graph" transform="scale(1 1) rotate(0) translate(4 81)">
<title>flow::net_flow::Node::handle_accumulated_acks</title>
<polygon fill="white" stroke="transparent" points="-4,4 -4,-81 739,-81 739,4 -4,4"/>
<!-- Node1 -->
<g id="node1" class="node">
<title>Node1</title>
<g id="a_node1"><a xlink:title="Helper of perform_accumulated_on_recv_tasks() that handles any incoming acknowledgments and rcv_wnd u...">
<polygon fill="#bfbfbf" stroke="black" points="604,-5 604,-31 735,-31 735,-5 604,-5"/>
<text text-anchor="start" x="612" y="-20.6" font-family="Helvetica,sans-Serif" font-size="8.00">flow::net_flow::Node</text>
<text text-anchor="middle" x="669.5" y="-11.6" font-family="Helvetica,sans-Serif" font-size="8.00">::handle_accumulated_acks</text>
</a>
</g>
</g>
<!-- Node2 -->
<g id="node2" class="node">
<title>Node2</title>
<g id="a_node2"><a xlink:href="classflow_1_1net__flow_1_1Node.html#a0fba26db0055a969f3869014bc5c2bfc" target="_top" xlink:title="Performs all tasks to be performed at the end of low_lvl_recv_and_handle() or async part of async_wai...">
<polygon fill="white" stroke="black" points="456,-0.5 456,-35.5 568,-35.5 568,-0.5 456,-0.5"/>
<text text-anchor="start" x="464" y="-25.1" font-family="Helvetica,sans-Serif" font-size="8.00">flow::net_flow::Node</text>
<text text-anchor="start" x="464" y="-16.1" font-family="Helvetica,sans-Serif" font-size="8.00">::perform_accumulated</text>
<text text-anchor="middle" x="512" y="-7.1" font-family="Helvetica,sans-Serif" font-size="8.00">_on_recv_tasks</text>
</a>
</g>
</g>
<!-- Node1&#45;&gt;Node2 -->
<g id="edge1" class="edge">
<title>Node1&#45;&gt;Node2</title>
<path fill="none" stroke="midnightblue" d="M593.83,-18C585.21,-18 576.54,-18 568.24,-18"/>
<polygon fill="midnightblue" stroke="midnightblue" points="593.9,-21.5 603.9,-18 593.9,-14.5 593.9,-21.5"/>
</g>
<!-- Node3 -->
<g id="node3" class="node">
<title>Node3</title>
<g id="a_node3"><a xlink:href="classflow_1_1net__flow_1_1Node.html#a4368247d07e930bdd07ab8d2425c6de8" target="_top" xlink:title="Sets up handle_incoming(packet_data, low_lvl_remote_endpoint) to be called asynchronously after a spe...">
<polygon fill="white" stroke="black" points="307,-23.5 307,-58.5 420,-58.5 420,-23.5 307,-23.5"/>
<text text-anchor="start" x="315" y="-48.1" font-family="Helvetica,sans-Serif" font-size="8.00">flow::net_flow::Node</text>
<text text-anchor="start" x="315" y="-39.1" font-family="Helvetica,sans-Serif" font-size="8.00">::async_wait_latency</text>
<text text-anchor="middle" x="363.5" y="-30.1" font-family="Helvetica,sans-Serif" font-size="8.00">_then_handle_incoming</text>
</a>
</g>
</g>
<!-- Node2&#45;&gt;Node3 -->
<g id="edge2" class="edge">
<title>Node2&#45;&gt;Node3</title>
<path fill="none" stroke="midnightblue" d="M445.51,-28.28C437.15,-29.59 428.64,-30.93 420.45,-32.22"/>
<polygon fill="midnightblue" stroke="midnightblue" points="446.28,-31.7 455.61,-26.7 445.19,-24.79 446.28,-31.7"/>
</g>
<!-- Node5 -->
<g id="node5" class="node">
<title>Node5</title>
<g id="a_node5"><a xlink:href="classflow_1_1net__flow_1_1Node.html#a9909cd2b2a77c57da9e35fcef0f8a4e5" target="_top" xlink:title="Handles the pre&#45;condition that m_low_lvl_sock has a UDP packet available for reading,...">
<polygon fill="white" stroke="red" points="0,-5 0,-31 122,-31 122,-5 0,-5"/>
<text text-anchor="start" x="8" y="-20.6" font-family="Helvetica,sans-Serif" font-size="8.00">flow::net_flow::Node</text>
<text text-anchor="middle" x="61" y="-11.6" font-family="Helvetica,sans-Serif" font-size="8.00">::low_lvl_recv_and_handle</text>
</a>
</g>
</g>
<!-- Node2&#45;&gt;Node5 -->
<g id="edge6" class="edge">
<title>Node2&#45;&gt;Node5</title>
<path fill="none" stroke="midnightblue" d="M445.63,-14.78C437.01,-14.46 428.3,-14.18 420,-14 303.58,-11.44 274.42,-11.58 158,-14 146.41,-14.24 134.04,-14.65 122.16,-15.11"/>
<polygon fill="midnightblue" stroke="midnightblue" points="445.54,-18.28 455.67,-15.18 445.82,-11.29 445.54,-18.28"/>
</g>
<!-- Node4 -->
<g id="node4" class="node">
<title>Node4</title>
<g id="a_node4"><a xlink:href="classflow_1_1net__flow_1_1Node.html#a90ecbad1ff3a8d2fe4b3ad1c474f7513" target="_top" xlink:title="Helper for low_lvl_recv_and_handle() that calls handle_incoming() on the not&#45;yet&#45;deserialized low&#45;lev...">
<polygon fill="white" stroke="black" points="158,-23.5 158,-58.5 271,-58.5 271,-23.5 158,-23.5"/>
<text text-anchor="start" x="166" y="-48.1" font-family="Helvetica,sans-Serif" font-size="8.00">flow::net_flow::Node</text>
<text text-anchor="start" x="166" y="-39.1" font-family="Helvetica,sans-Serif" font-size="8.00">::handle_incoming_with</text>
<text text-anchor="middle" x="214.5" y="-30.1" font-family="Helvetica,sans-Serif" font-size="8.00">_simulation</text>
</a>
</g>
</g>
<!-- Node3&#45;&gt;Node4 -->
<g id="edge3" class="edge">
<title>Node3&#45;&gt;Node4</title>
<path fill="none" stroke="midnightblue" d="M296.92,-41C288.32,-41 279.57,-41 271.15,-41"/>
<polygon fill="midnightblue" stroke="midnightblue" points="296.93,-44.5 306.93,-41 296.93,-37.5 296.93,-44.5"/>
</g>
<!-- Node4&#45;&gt;Node4 -->
<g id="edge4" class="edge">
<title>Node4&#45;&gt;Node4</title>
<path fill="none" stroke="midnightblue" d="M240.27,-69.1C236.65,-73.77 228.06,-77 214.5,-77 192.24,-77 183.37,-68.31 187.89,-58.78"/>
<polygon fill="midnightblue" stroke="midnightblue" points="243.79,-69.03 241.11,-58.78 236.81,-68.47 243.79,-69.03"/>
</g>
<!-- Node4&#45;&gt;Node5 -->
<g id="edge5" class="edge">
<title>Node4&#45;&gt;Node5</title>
<path fill="none" stroke="midnightblue" d="M147.98,-31.05C139.39,-29.75 130.63,-28.42 122.14,-27.13"/>
<polygon fill="midnightblue" stroke="midnightblue" points="147.54,-34.53 157.95,-32.57 148.59,-27.6 147.54,-34.53"/>
</g>
</g>
</svg>
