<?xml version="1.0" encoding="UTF-8" standalone="no"?>
<!DOCTYPE svg PUBLIC "-//W3C//DTD SVG 1.1//EN"
 "http://www.w3.org/Graphics/SVG/1.1/DTD/svg11.dtd">
<!-- Generated by graphviz version 2.43.0 (0)
 -->
<!-- Title: flow::net_flow::Peer_socket_receive_stats_accumulator::good_data_dropped_buf_overflow_packet Pages: 1 -->
<svg width="296pt" height="53pt"
 viewBox="0.00 0.00 296.00 53.00" xmlns="http://www.w3.org/2000/svg" xmlns:xlink="http://www.w3.org/1999/xlink">
<g id="graph0" class="graph" transform="scale(1 1) rotate(0) translate(4 49)">
<title>flow::net_flow::Peer_socket_receive_stats_accumulator::good_data_dropped_buf_overflow_packet</title>
<polygon fill="white" stroke="transparent" points="-4,4 -4,-49 292,-49 292,4 -4,4"/>
<!-- Node1 -->
<g id="node1" class="node">
<title>Node1</title>
<g id="a_node1"><a xlink:title="Indicates good_data_packet(), but these data are dropped due to insufficient Receive buffer space.">
<polygon fill="#bfbfbf" stroke="black" points="145,-0.5 145,-44.5 288,-44.5 288,-0.5 145,-0.5"/>
<text text-anchor="start" x="153" y="-34.1" font-family="Helvetica,sans-Serif" font-size="8.00">flow::net_flow::Peer</text>
<text text-anchor="start" x="153" y="-25.1" font-family="Helvetica,sans-Serif" font-size="8.00">_socket_receive_stats</text>
<text text-anchor="start" x="153" y="-16.1" font-family="Helvetica,sans-Serif" font-size="8.00">_accumulator::good_data</text>
<text text-anchor="middle" x="216.5" y="-7.1" font-family="Helvetica,sans-Serif" font-size="8.00">_dropped_buf_overflow_packet</text>
</a>
</g>
</g>
<!-- Node2 -->
<g id="node2" class="node">
<title>Node2</title>
<g id="a_node2"><a xlink:href="classflow_1_1net__flow_1_1Node.html#aab414ebd0e2d27f02ed51270dab90c45" target="_top" xlink:title="Helper for handle_data_to_established() that aims to pass the payload of the given DATA packet to the...">
<polygon fill="white" stroke="black" points="0,-5 0,-40 109,-40 109,-5 0,-5"/>
<text text-anchor="start" x="8" y="-29.6" font-family="Helvetica,sans-Serif" font-size="8.00">flow::net_flow::Node</text>
<text text-anchor="start" x="8" y="-20.6" font-family="Helvetica,sans-Serif" font-size="8.00">::sock_data_to_rcv_buf</text>
<text text-anchor="middle" x="54.5" y="-11.6" font-family="Helvetica,sans-Serif" font-size="8.00">_unless_overflow</text>
</a>
</g>
</g>
<!-- Node1&#45;&gt;Node2 -->
<g id="edge1" class="edge">
<title>Node1&#45;&gt;Node2</title>
<path fill="none" stroke="midnightblue" d="M134.78,-22.5C126.19,-22.5 117.6,-22.5 109.42,-22.5"/>
<polygon fill="midnightblue" stroke="midnightblue" points="134.86,-26 144.86,-22.5 134.86,-19 134.86,-26"/>
</g>
</g>
</svg>
