<?xml version="1.0" encoding="UTF-8" standalone="no"?>
<!DOCTYPE svg PUBLIC "-//W3C//DTD SVG 1.1//EN"
 "http://www.w3.org/Graphics/SVG/1.1/DTD/svg11.dtd">
<!-- Generated by graphviz version 2.43.0 (0)
 -->
<!-- Title: flow::net_flow::Peer_socket Pages: 1 -->
<svg width="415pt" height="198pt"
 viewBox="0.00 0.00 415.00 198.00" xmlns="http://www.w3.org/2000/svg" xmlns:xlink="http://www.w3.org/1999/xlink">
<g id="graph0" class="graph" transform="scale(1 1) rotate(0) translate(4 194)">
<title>flow::net_flow::Peer_socket</title>
<polygon fill="white" stroke="transparent" points="-4,4 -4,-194 411,-194 411,4 -4,4"/>
<!-- Node1 -->
<g id="node1" class="node">
<title>Node1</title>
<g id="a_node1"><a xlink:title="A peer (non&#45;server) socket operating over the Flow network protocol, with optional stream&#45;of&#45;bytes an...">
<polygon fill="#bfbfbf" stroke="black" points="178,-73 178,-99 275,-99 275,-73 178,-73"/>
<text text-anchor="start" x="186" y="-88.6" font-family="Helvetica,sans-Serif" font-size="8.00">flow::net_flow::Peer</text>
<text text-anchor="middle" x="226.5" y="-79.6" font-family="Helvetica,sans-Serif" font-size="8.00">_socket</text>
</a>
</g>
</g>
<!-- Node7 -->
<g id="node7" class="node">
<title>Node7</title>
<g id="a_node7"><a xlink:href="classflow_1_1net__flow_1_1asio_1_1Peer__socket.html" target="_top" xlink:title="A net_flow::Peer_socket that adds integration with boost.asio.">
<polygon fill="white" stroke="black" points="311,-73 311,-99 407,-99 407,-73 311,-73"/>
<text text-anchor="start" x="319" y="-88.6" font-family="Helvetica,sans-Serif" font-size="8.00">flow::net_flow::asio</text>
<text text-anchor="middle" x="359" y="-79.6" font-family="Helvetica,sans-Serif" font-size="8.00">::Peer_socket</text>
</a>
</g>
</g>
<!-- Node1&#45;&gt;Node7 -->
<g id="edge6" class="edge">
<title>Node1&#45;&gt;Node7</title>
<path fill="none" stroke="midnightblue" d="M285.48,-86C293.87,-86 302.43,-86 310.59,-86"/>
<polygon fill="midnightblue" stroke="midnightblue" points="285.35,-82.5 275.35,-86 285.35,-89.5 285.35,-82.5"/>
</g>
<!-- Node2 -->
<g id="node2" class="node">
<title>Node2</title>
<g id="a_node2"><a xlink:href="classflow_1_1util_1_1Null__interface.html" target="_top" xlink:title="An empty interface, consisting of nothing but a default virtual destructor, intended as a boiler&#45;plat...">
<polygon fill="white" stroke="black" points="14,-172.5 14,-189.5 128,-189.5 128,-172.5 14,-172.5"/>
<text text-anchor="middle" x="71" y="-179.1" font-family="Helvetica,sans-Serif" font-size="8.00">flow::util::Null_interface</text>
</a>
</g>
</g>
<!-- Node2&#45;&gt;Node1 -->
<g id="edge1" class="edge">
<title>Node2&#45;&gt;Node1</title>
<path fill="none" stroke="midnightblue" d="M128.5,-169.11C133.18,-167.34 137.75,-165.31 142,-163 172.31,-146.51 200.2,-116.58 214.82,-99.29"/>
<polygon fill="midnightblue" stroke="midnightblue" points="127.14,-165.88 118.79,-172.4 129.38,-172.51 127.14,-165.88"/>
</g>
<!-- Node3 -->
<g id="node3" class="node">
<title>Node3</title>
<g id="a_node3"><a xlink:href="classflow_1_1util_1_1Shared__ptr__alias__holder.html" target="_top" xlink:title=" ">
<polygon fill="white" stroke="black" points="0,-118.5 0,-153.5 142,-153.5 142,-118.5 0,-118.5"/>
<text text-anchor="start" x="8" y="-143.1" font-family="Helvetica,sans-Serif" font-size="8.00">flow::util::Shared</text>
<text text-anchor="start" x="8" y="-134.1" font-family="Helvetica,sans-Serif" font-size="8.00">_ptr_alias_holder&lt; boost</text>
<text text-anchor="middle" x="71" y="-125.1" font-family="Helvetica,sans-Serif" font-size="8.00">::shared_ptr&lt; Peer_socket &gt; &gt;</text>
</a>
</g>
</g>
<!-- Node3&#45;&gt;Node1 -->
<g id="edge2" class="edge">
<title>Node3&#45;&gt;Node1</title>
<path fill="none" stroke="midnightblue" d="M135.87,-115.2C152.63,-109.73 170.24,-104 185.37,-99.07"/>
<polygon fill="midnightblue" stroke="midnightblue" points="134.54,-111.95 126.12,-118.37 136.71,-118.6 134.54,-111.95"/>
</g>
<!-- Node4 -->
<g id="node4" class="node">
<title>Node4</title>
<g id="a_node4"><a xlink:title=" ">
<polygon fill="white" stroke="#bfbfbf" points="8.5,-73 8.5,-99 133.5,-99 133.5,-73 8.5,-73"/>
<text text-anchor="start" x="16.5" y="-88.6" font-family="Helvetica,sans-Serif" font-size="8.00">boost::enable_shared</text>
<text text-anchor="middle" x="71" y="-79.6" font-family="Helvetica,sans-Serif" font-size="8.00">_from_this&lt; Peer_socket &gt;</text>
</a>
</g>
</g>
<!-- Node4&#45;&gt;Node1 -->
<g id="edge3" class="edge">
<title>Node4&#45;&gt;Node1</title>
<path fill="none" stroke="midnightblue" d="M143.62,-86C155.15,-86 166.85,-86 177.64,-86"/>
<polygon fill="midnightblue" stroke="midnightblue" points="143.55,-82.5 133.55,-86 143.55,-89.5 143.55,-82.5"/>
</g>
<!-- Node5 -->
<g id="node5" class="node">
<title>Node5</title>
<g id="a_node5"><a xlink:href="classflow_1_1log_1_1Log__context.html" target="_top" xlink:title="Convenience class that simply stores a Logger and/or Component passed into a constructor; and returns...">
<polygon fill="white" stroke="black" points="17.5,-36.5 17.5,-53.5 124.5,-53.5 124.5,-36.5 17.5,-36.5"/>
<text text-anchor="middle" x="71" y="-43.1" font-family="Helvetica,sans-Serif" font-size="8.00">flow::log::Log_context</text>
</a>
</g>
</g>
<!-- Node5&#45;&gt;Node1 -->
<g id="edge4" class="edge">
<title>Node5&#45;&gt;Node1</title>
<path fill="none" stroke="midnightblue" d="M113.85,-56.18C133.66,-61.47 157.42,-67.81 177.91,-73.29"/>
<polygon fill="midnightblue" stroke="midnightblue" points="114.74,-52.79 104.18,-53.59 112.94,-59.56 114.74,-52.79"/>
</g>
<!-- Node6 -->
<g id="node6" class="node">
<title>Node6</title>
<g id="a_node6"><a xlink:title=" ">
<polygon fill="white" stroke="#bfbfbf" points="21.5,-0.5 21.5,-17.5 120.5,-17.5 120.5,-0.5 21.5,-0.5"/>
<text text-anchor="middle" x="71" y="-7.1" font-family="Helvetica,sans-Serif" font-size="8.00">boost::noncopyable</text>
</a>
</g>
</g>
<!-- Node6&#45;&gt;Node1 -->
<g id="edge5" class="edge">
<title>Node6&#45;&gt;Node1</title>
<path fill="none" stroke="#8b1a1a" d="M125.17,-20.48C130.96,-22.37 136.67,-24.54 142,-27 168.1,-39.08 194.6,-59.5 210.55,-72.86"/>
<polygon fill="#8b1a1a" stroke="#8b1a1a" points="126.01,-17.08 115.43,-17.55 123.99,-23.78 126.01,-17.08"/>
</g>
</g>
</svg>
