<?xml version="1.0" encoding="UTF-8" standalone="no"?>
<!DOCTYPE svg PUBLIC "-//W3C//DTD SVG 1.1//EN"
 "http://www.w3.org/Graphics/SVG/1.1/DTD/svg11.dtd">
<!-- Generated by graphviz version 2.43.0 (0)
 -->
<!-- Title: flow::net_flow::Congestion_control_classic::on_idle_timeout Pages: 1 -->
<svg width="809pt" height="156pt"
 viewBox="0.00 0.00 809.00 156.00" xmlns="http://www.w3.org/2000/svg" xmlns:xlink="http://www.w3.org/1999/xlink">
<g id="graph0" class="graph" transform="scale(1 1) rotate(0) translate(4 152)">
<title>flow::net_flow::Congestion_control_classic::on_idle_timeout</title>
<polygon fill="white" stroke="transparent" points="-4,4 -4,-152 805,-152 805,4 -4,4"/>
<!-- Node1 -->
<g id="node1" class="node">
<title>Node1</title>
<g id="a_node1"><a xlink:title="Implements Congestion_control_strategy::on_idle_timeout() API.">
<polygon fill="#bfbfbf" stroke="black" points="0,-0.5 0,-35.5 125,-35.5 125,-0.5 0,-0.5"/>
<text text-anchor="start" x="8" y="-25.1" font-family="Helvetica,sans-Serif" font-size="8.00">flow::net_flow::Congestion</text>
<text text-anchor="start" x="8" y="-16.1" font-family="Helvetica,sans-Serif" font-size="8.00">_control_classic::on_idle</text>
<text text-anchor="middle" x="62.5" y="-7.1" font-family="Helvetica,sans-Serif" font-size="8.00">_timeout</text>
</a>
</g>
</g>
<!-- Node2 -->
<g id="node2" class="node">
<title>Node2</title>
<g id="a_node2"><a xlink:href="classflow_1_1net__flow_1_1Congestion__control__classic__data.html#afbe0609319f117e90074e1241abbba5c" target="_top" xlink:title="Adjust state, namely CWND, assuming an Idle Timeout just occurred.">
<polygon fill="white" stroke="black" points="161,-0.5 161,-35.5 286,-35.5 286,-0.5 161,-0.5"/>
<text text-anchor="start" x="169" y="-25.1" font-family="Helvetica,sans-Serif" font-size="8.00">flow::net_flow::Congestion</text>
<text text-anchor="start" x="169" y="-16.1" font-family="Helvetica,sans-Serif" font-size="8.00">_control_classic_data::on</text>
<text text-anchor="middle" x="223.5" y="-7.1" font-family="Helvetica,sans-Serif" font-size="8.00">_idle_timeout</text>
</a>
</g>
</g>
<!-- Node1&#45;&gt;Node2 -->
<g id="edge1" class="edge">
<title>Node1&#45;&gt;Node2</title>
<path fill="none" stroke="midnightblue" d="M125.43,-18C133.67,-18 142.18,-18 150.58,-18"/>
<polygon fill="midnightblue" stroke="midnightblue" points="150.74,-21.5 160.74,-18 150.74,-14.5 150.74,-21.5"/>
</g>
<!-- Node3 -->
<g id="node3" class="node">
<title>Node3</title>
<g id="a_node3"><a xlink:href="classflow_1_1net__flow_1_1Congestion__control__classic__data.html#a79e85a67e583b74cc414524d53650892" target="_top" xlink:title="Sets internally stored SSHTRESH and CWND to the given values; appropriately resets internal state so ...">
<polygon fill="white" stroke="black" points="322,-48.5 322,-83.5 447,-83.5 447,-48.5 322,-48.5"/>
<text text-anchor="start" x="330" y="-73.1" font-family="Helvetica,sans-Serif" font-size="8.00">flow::net_flow::Congestion</text>
<text text-anchor="start" x="330" y="-64.1" font-family="Helvetica,sans-Serif" font-size="8.00">_control_classic_data::on</text>
<text text-anchor="middle" x="384.5" y="-55.1" font-family="Helvetica,sans-Serif" font-size="8.00">_congestion_event</text>
</a>
</g>
</g>
<!-- Node2&#45;&gt;Node3 -->
<g id="edge2" class="edge">
<title>Node2&#45;&gt;Node3</title>
<path fill="none" stroke="midnightblue" d="M282.8,-35.6C293.57,-38.85 304.89,-42.27 315.9,-45.59"/>
<polygon fill="midnightblue" stroke="midnightblue" points="314.89,-48.94 325.47,-48.48 316.91,-42.24 314.89,-48.94"/>
</g>
<!-- Node5 -->
<g id="node5" class="node">
<title>Node5</title>
<g id="a_node5"><a xlink:href="classflow_1_1net__flow_1_1Congestion__control__classic__data.html#a842fd11c65c3be53ce3d81a7f050f7d7" target="_top" xlink:title="Analogous to Congestion_control_strategy::socket().">
<polygon fill="white" stroke="black" points="665,-28 665,-54 801,-54 801,-28 665,-28"/>
<text text-anchor="start" x="673" y="-43.6" font-family="Helvetica,sans-Serif" font-size="8.00">flow::net_flow::Congestion</text>
<text text-anchor="middle" x="733" y="-34.6" font-family="Helvetica,sans-Serif" font-size="8.00">_control_classic_data::socket</text>
</a>
</g>
</g>
<!-- Node2&#45;&gt;Node5 -->
<g id="edge10" class="edge">
<title>Node2&#45;&gt;Node5</title>
<path fill="none" stroke="midnightblue" d="M286.14,-12.14C365.72,-5.78 508.33,1.55 629,-14 646.46,-16.25 665.18,-20.56 681.82,-25.09"/>
<polygon fill="midnightblue" stroke="midnightblue" points="681.3,-28.58 691.87,-27.92 683.19,-21.84 681.3,-28.58"/>
</g>
<!-- Node4 -->
<g id="node4" class="node">
<title>Node4</title>
<g id="a_node4"><a xlink:href="classflow_1_1net__flow_1_1Congestion__control__classic__data.html#a7b798f3211fd2214477355b95e2d10d2" target="_top" xlink:title="If congestion_window_at_limit(), sets CWND to the limit value.">
<polygon fill="white" stroke="black" points="489,-23.5 489,-58.5 623,-58.5 623,-23.5 489,-23.5"/>
<text text-anchor="start" x="497" y="-48.1" font-family="Helvetica,sans-Serif" font-size="8.00">flow::net_flow::Congestion</text>
<text text-anchor="start" x="497" y="-39.1" font-family="Helvetica,sans-Serif" font-size="8.00">_control_classic_data::clamp</text>
<text text-anchor="middle" x="556" y="-30.1" font-family="Helvetica,sans-Serif" font-size="8.00">_congestion_window</text>
</a>
</g>
</g>
<!-- Node3&#45;&gt;Node4 -->
<g id="edge3" class="edge">
<title>Node3&#45;&gt;Node4</title>
<path fill="none" stroke="midnightblue" d="M447.17,-56.9C457.43,-55.39 468.18,-53.81 478.74,-52.25"/>
<polygon fill="midnightblue" stroke="midnightblue" points="479.42,-55.69 488.8,-50.76 478.4,-48.76 479.42,-55.69"/>
</g>
<!-- Node6 -->
<g id="node6" class="node">
<title>Node6</title>
<g id="a_node6"><a xlink:href="classflow_1_1net__flow_1_1Congestion__control__classic__data.html#aecb03f208c177ec3cbce5242f19efee0" target="_top" xlink:title="Return true if and only if CWND &lt; SSTHRESH.">
<polygon fill="white" stroke="black" points="670.5,-94.5 670.5,-129.5 795.5,-129.5 795.5,-94.5 670.5,-94.5"/>
<text text-anchor="start" x="678.5" y="-119.1" font-family="Helvetica,sans-Serif" font-size="8.00">flow::net_flow::Congestion</text>
<text text-anchor="start" x="678.5" y="-110.1" font-family="Helvetica,sans-Serif" font-size="8.00">_control_classic_data::in</text>
<text text-anchor="middle" x="733" y="-101.1" font-family="Helvetica,sans-Serif" font-size="8.00">_slow_start</text>
</a>
</g>
</g>
<!-- Node3&#45;&gt;Node6 -->
<g id="edge5" class="edge">
<title>Node3&#45;&gt;Node6</title>
<path fill="none" stroke="midnightblue" d="M412.8,-83.67C431.67,-94.8 457.83,-108.14 483,-114 541.59,-127.64 610.06,-125.86 660.36,-121.39"/>
<polygon fill="midnightblue" stroke="midnightblue" points="660.86,-124.86 670.49,-120.44 660.2,-117.89 660.86,-124.86"/>
</g>
<!-- Node7 -->
<g id="node7" class="node">
<title>Node7</title>
<g id="a_node7"><a xlink:href="classflow_1_1net__flow_1_1Congestion__control__classic__data.html#a092ddd8d1f700b426a5f9e0184af004f" target="_top" xlink:title="Logs, in a TRACE message, all internal state values.">
<polygon fill="white" stroke="black" points="483,-78 483,-104 629,-104 629,-78 483,-78"/>
<text text-anchor="start" x="491" y="-93.6" font-family="Helvetica,sans-Serif" font-size="8.00">flow::net_flow::Congestion</text>
<text text-anchor="middle" x="556" y="-84.6" font-family="Helvetica,sans-Serif" font-size="8.00">_control_classic_data::log_state</text>
</a>
</g>
</g>
<!-- Node3&#45;&gt;Node7 -->
<g id="edge7" class="edge">
<title>Node3&#45;&gt;Node7</title>
<path fill="none" stroke="midnightblue" d="M447.17,-75.1C455.47,-76.32 464.09,-77.59 472.68,-78.86"/>
<polygon fill="midnightblue" stroke="midnightblue" points="472.32,-82.34 482.72,-80.34 473.34,-75.42 472.32,-82.34"/>
</g>
<!-- Node4&#45;&gt;Node5 -->
<g id="edge4" class="edge">
<title>Node4&#45;&gt;Node5</title>
<path fill="none" stroke="midnightblue" d="M623.16,-41C633.5,-41 644.27,-41 654.83,-41"/>
<polygon fill="midnightblue" stroke="midnightblue" points="654.87,-44.5 664.87,-41 654.87,-37.5 654.87,-44.5"/>
</g>
<!-- Node6&#45;&gt;Node6 -->
<g id="edge6" class="edge">
<title>Node6&#45;&gt;Node6</title>
<path fill="none" stroke="midnightblue" d="M701.36,-129.78C695.99,-139.31 706.53,-148 733,-148 749.13,-148 759.35,-144.77 763.65,-140.1"/>
<polygon fill="midnightblue" stroke="midnightblue" points="767.17,-140.07 764.64,-129.78 760.2,-139.4 767.17,-140.07"/>
</g>
<!-- Node7&#45;&gt;Node5 -->
<g id="edge9" class="edge">
<title>Node7&#45;&gt;Node5</title>
<path fill="none" stroke="midnightblue" d="M602.52,-77.99C625.22,-71.51 652.86,-63.61 676.76,-56.78"/>
<polygon fill="midnightblue" stroke="midnightblue" points="677.75,-60.14 686.4,-54.03 675.83,-53.41 677.75,-60.14"/>
</g>
<!-- Node7&#45;&gt;Node6 -->
<g id="edge8" class="edge">
<title>Node7&#45;&gt;Node6</title>
<path fill="none" stroke="midnightblue" d="M629.19,-99.66C639.43,-100.89 649.96,-102.15 660.19,-103.38"/>
<polygon fill="midnightblue" stroke="midnightblue" points="659.95,-106.88 670.3,-104.6 660.79,-99.93 659.95,-106.88"/>
</g>
</g>
</svg>
