<?xml version="1.0" encoding="UTF-8" standalone="no"?>
<!DOCTYPE svg PUBLIC "-//W3C//DTD SVG 1.1//EN"
 "http://www.w3.org/Graphics/SVG/1.1/DTD/svg11.dtd">
<!-- Generated by graphviz version 2.43.0 (0)
 -->
<!-- Title: flow::async::Timed_single_thread_task_loop::schedule_at Pages: 1 -->
<svg width="561pt" height="58pt"
 viewBox="0.00 0.00 561.00 57.50" xmlns="http://www.w3.org/2000/svg" xmlns:xlink="http://www.w3.org/1999/xlink">
<g id="graph0" class="graph" transform="scale(1 1) rotate(0) translate(4 53.5)">
<title>flow::async::Timed_single_thread_task_loop::schedule_at</title>
<polygon fill="white" stroke="transparent" points="-4,4 -4,-53.5 557,-53.5 557,4 -4,4"/>
<!-- Node1 -->
<g id="node1" class="node">
<title>Node1</title>
<g id="a_node1"><a xlink:title="Implements superclass method but with the addition of timing of task, accessible through accumulated_...">
<polygon fill="#bfbfbf" stroke="black" points="0,-0.5 0,-35.5 97,-35.5 97,-0.5 0,-0.5"/>
<text text-anchor="start" x="8" y="-25.1" font-family="Helvetica,sans-Serif" font-size="8.00">flow::async::Timed</text>
<text text-anchor="start" x="8" y="-16.1" font-family="Helvetica,sans-Serif" font-size="8.00">_single_thread_task</text>
<text text-anchor="middle" x="48.5" y="-7.1" font-family="Helvetica,sans-Serif" font-size="8.00">_loop::schedule_at</text>
</a>
</g>
</g>
<!-- Node2 -->
<g id="node2" class="node">
<title>Node2</title>
<g id="a_node2"><a xlink:href="classflow_1_1async_1_1Timed__concurrent__task__loop__impl.html#a2c3566acb42c14ce7fe31026a711a30b" target="_top" xlink:title="Implements superclass API.">
<polygon fill="white" stroke="black" points="133,-0.5 133,-35.5 240,-35.5 240,-0.5 133,-0.5"/>
<text text-anchor="start" x="141" y="-25.1" font-family="Helvetica,sans-Serif" font-size="8.00">flow::async::Timed</text>
<text text-anchor="start" x="141" y="-16.1" font-family="Helvetica,sans-Serif" font-size="8.00">_concurrent_task_loop</text>
<text text-anchor="middle" x="186.5" y="-7.1" font-family="Helvetica,sans-Serif" font-size="8.00">_impl::schedule_at</text>
</a>
</g>
</g>
<!-- Node1&#45;&gt;Node2 -->
<g id="edge1" class="edge">
<title>Node1&#45;&gt;Node2</title>
<path fill="none" stroke="midnightblue" d="M97.07,-18C105.32,-18 114.03,-18 122.62,-18"/>
<polygon fill="midnightblue" stroke="midnightblue" points="122.62,-21.5 132.62,-18 122.62,-14.5 122.62,-21.5"/>
</g>
<!-- Node3 -->
<g id="node3" class="node">
<title>Node3</title>
<g id="a_node3"><a xlink:href="namespaceflow_1_1perf.html#a0dee22ec7bf250bbbf556a7e15c1f784" target="_top" xlink:title="Constructs a closure that times and executes void&#45;returning function(), adding the elapsed time with ...">
<polygon fill="white" stroke="black" points="276,-9.5 276,-26.5 398,-26.5 398,-9.5 276,-9.5"/>
<text text-anchor="middle" x="337" y="-16.1" font-family="Helvetica,sans-Serif" font-size="8.00">flow::perf::timed_function</text>
</a>
</g>
</g>
<!-- Node2&#45;&gt;Node3 -->
<g id="edge2" class="edge">
<title>Node2&#45;&gt;Node3</title>
<path fill="none" stroke="midnightblue" d="M240.27,-18C248.54,-18 257.2,-18 265.79,-18"/>
<polygon fill="midnightblue" stroke="midnightblue" points="265.8,-21.5 275.8,-18 265.8,-14.5 265.8,-21.5"/>
</g>
<!-- Node4 -->
<g id="node4" class="node">
<title>Node4</title>
<g id="a_node4"><a xlink:href="classflow_1_1perf_1_1Checkpointing__timer.html#a3b73f2812c2bf6a27ef2becc13859d73" target="_top" xlink:title="Sample all currently enabled Clock_types&#39; clocks and return those values, each of which is a time sta...">
<polygon fill="white" stroke="black" points="434,-5 434,-31 553,-31 553,-5 434,-5"/>
<text text-anchor="start" x="442" y="-20.6" font-family="Helvetica,sans-Serif" font-size="8.00">flow::perf::Checkpointing</text>
<text text-anchor="middle" x="493.5" y="-11.6" font-family="Helvetica,sans-Serif" font-size="8.00">_timer::now</text>
</a>
</g>
</g>
<!-- Node3&#45;&gt;Node4 -->
<g id="edge3" class="edge">
<title>Node3&#45;&gt;Node4</title>
<path fill="none" stroke="midnightblue" d="M398.18,-18C406.49,-18 415.08,-18 423.54,-18"/>
<polygon fill="midnightblue" stroke="midnightblue" points="423.76,-21.5 433.76,-18 423.76,-14.5 423.76,-21.5"/>
</g>
<!-- Node4&#45;&gt;Node4 -->
<g id="edge4" class="edge">
<title>Node4&#45;&gt;Node4</title>
<path fill="none" stroke="midnightblue" d="M467.11,-31.27C459.11,-40.46 467.91,-49.5 493.5,-49.5 509.1,-49.5 518.46,-46.14 521.58,-41.44"/>
<polygon fill="midnightblue" stroke="midnightblue" points="524.98,-40.56 519.89,-31.27 518.07,-41.71 524.98,-40.56"/>
</g>
</g>
</svg>
