<?xml version="1.0" encoding="UTF-8" standalone="no"?>
<!DOCTYPE svg PUBLIC "-//W3C//DTD SVG 1.1//EN"
 "http://www.w3.org/Graphics/SVG/1.1/DTD/svg11.dtd">
<!-- Generated by graphviz version 2.43.0 (0)
 -->
<!-- Title: flow::util::Basic_blob::Basic_blob Pages: 1 -->
<svg width="246pt" height="80pt"
 viewBox="0.00 0.00 246.00 80.00" xmlns="http://www.w3.org/2000/svg" xmlns:xlink="http://www.w3.org/1999/xlink">
<g id="graph0" class="graph" transform="scale(1 1) rotate(0) translate(4 76)">
<title>flow::util::Basic_blob::Basic_blob</title>
<polygon fill="white" stroke="transparent" points="-4,4 -4,-76 242,-76 242,4 -4,4"/>
<!-- Node1 -->
<g id="node1" class="node">
<title>Node1</title>
<g id="a_node1"><a xlink:title="Copy constructor, constructing a blob logically equal to src.">
<polygon fill="#bfbfbf" stroke="black" points="0,-22.5 0,-48.5 101,-48.5 101,-22.5 0,-22.5"/>
<text text-anchor="start" x="8" y="-38.1" font-family="Helvetica,sans-Serif" font-size="8.00">flow::util::Basic_blob</text>
<text text-anchor="middle" x="50.5" y="-29.1" font-family="Helvetica,sans-Serif" font-size="8.00">::Basic_blob</text>
</a>
</g>
</g>
<!-- Node2 -->
<g id="node2" class="node">
<title>Node2</title>
<g id="a_node2"><a xlink:href="classflow_1_1util_1_1Basic__blob.html#a770438e824467e6dac1c7c0b060acfb8" target="_top" xlink:title="Replaces logical contents with a copy of the given non&#45;overlapping area anywhere in memory.">
<polygon fill="white" stroke="black" points="137,-45.5 137,-71.5 238,-71.5 238,-45.5 137,-45.5"/>
<text text-anchor="start" x="145" y="-61.1" font-family="Helvetica,sans-Serif" font-size="8.00">flow::util::Basic_blob</text>
<text text-anchor="middle" x="187.5" y="-52.1" font-family="Helvetica,sans-Serif" font-size="8.00">::assign_copy</text>
</a>
</g>
</g>
<!-- Node1&#45;&gt;Node2 -->
<g id="edge1" class="edge">
<title>Node1&#45;&gt;Node2</title>
<path fill="none" stroke="midnightblue" d="M101,-43.93C109.33,-45.35 118.06,-46.84 126.61,-48.3"/>
<polygon fill="midnightblue" stroke="midnightblue" points="126.11,-51.76 136.55,-49.99 127.28,-44.86 126.11,-51.76"/>
</g>
<!-- Node3 -->
<g id="node3" class="node">
<title>Node3</title>
<g id="a_node3"><a xlink:href="classflow_1_1util_1_1Basic__blob.html#a7c7e0aef110c4ab5f335d633e9a96abb" target="_top" xlink:title="Convenience accessor returning an immutable boost.asio buffer &quot;view&quot; into the entirety of the blob.">
<polygon fill="white" stroke="black" points="137,-0.5 137,-26.5 238,-26.5 238,-0.5 137,-0.5"/>
<text text-anchor="start" x="145" y="-16.1" font-family="Helvetica,sans-Serif" font-size="8.00">flow::util::Basic_blob</text>
<text text-anchor="middle" x="187.5" y="-7.1" font-family="Helvetica,sans-Serif" font-size="8.00">::const_buffer</text>
</a>
</g>
</g>
<!-- Node1&#45;&gt;Node3 -->
<g id="edge2" class="edge">
<title>Node1&#45;&gt;Node3</title>
<path fill="none" stroke="midnightblue" d="M101,-27.43C109.33,-26.08 118.06,-24.65 126.61,-23.26"/>
<polygon fill="midnightblue" stroke="midnightblue" points="127.24,-26.7 136.55,-21.64 126.12,-19.79 127.24,-26.7"/>
</g>
</g>
</svg>
