<?xml version="1.0" encoding="UTF-8" standalone="no"?>
<!DOCTYPE svg PUBLIC "-//W3C//DTD SVG 1.1//EN"
 "http://www.w3.org/Graphics/SVG/1.1/DTD/svg11.dtd">
<!-- Generated by graphviz version 2.43.0 (0)
 -->
<!-- Title: flow::net_flow::Node::sock_pacing_process_q Pages: 1 -->
<svg width="966pt" height="403pt"
 viewBox="0.00 0.00 966.00 403.00" xmlns="http://www.w3.org/2000/svg" xmlns:xlink="http://www.w3.org/1999/xlink">
<g id="graph0" class="graph" transform="scale(1 1) rotate(0) translate(4 399)">
<title>flow::net_flow::Node::sock_pacing_process_q</title>
<polygon fill="white" stroke="transparent" points="-4,4 -4,-399 962,-399 962,4 -4,4"/>
<!-- Node1 -->
<g id="node1" class="node">
<title>Node1</title>
<g id="a_node1"><a xlink:title="async_sock_low_lvl_packet_send_paced() pacing helper: Given that we are currently in the pacing time ...">
<polygon fill="#bfbfbf" stroke="black" points="840,-0.5 840,-26.5 958,-26.5 958,-0.5 840,-0.5"/>
<text text-anchor="start" x="848" y="-16.1" font-family="Helvetica,sans-Serif" font-size="8.00">flow::net_flow::Node</text>
<text text-anchor="middle" x="899" y="-7.1" font-family="Helvetica,sans-Serif" font-size="8.00">::sock_pacing_process_q</text>
</a>
</g>
</g>
<!-- Node2 -->
<g id="node2" class="node">
<title>Node2</title>
<g id="a_node2"><a xlink:href="classflow_1_1net__flow_1_1Node.html#a62e1f8e6da36d7cd3ad905924aea376c" target="_top" xlink:title="async_sock_low_lvl_packet_send_paced() pacing helper: Handles a DATA or ACK packet that was just pass...">
<polygon fill="white" stroke="black" points="652,-53.5 652,-79.5 804,-79.5 804,-53.5 652,-53.5"/>
<text text-anchor="start" x="660" y="-69.1" font-family="Helvetica,sans-Serif" font-size="8.00">flow::net_flow::Node</text>
<text text-anchor="middle" x="728" y="-60.1" font-family="Helvetica,sans-Serif" font-size="8.00">::sock_pacing_new_packet_ready</text>
</a>
</g>
</g>
<!-- Node1&#45;&gt;Node2 -->
<g id="edge1" class="edge">
<title>Node1&#45;&gt;Node2</title>
<path fill="none" stroke="midnightblue" d="M846.45,-29.67C822.13,-37.29 793.49,-46.27 770.59,-53.46"/>
<polygon fill="midnightblue" stroke="midnightblue" points="847.73,-32.93 856.22,-26.6 845.64,-26.25 847.73,-32.93"/>
</g>
<!-- Node40 -->
<g id="node13" class="node">
<title>Node40</title>
<g id="a_node13"><a xlink:href="classflow_1_1net__flow_1_1Node.html#a3fd57a0d025a78cbeccfd8a15a983575" target="_top" xlink:title="async_sock_low_lvl_packet_send_paced() pacing helper: If sock_pacing_process_q() ran out of the last ...">
<polygon fill="white" stroke="black" points="0,-0.5 0,-26.5 137,-26.5 137,-0.5 0,-0.5"/>
<text text-anchor="start" x="8" y="-16.1" font-family="Helvetica,sans-Serif" font-size="8.00">flow::net_flow::Node</text>
<text text-anchor="middle" x="68.5" y="-7.1" font-family="Helvetica,sans-Serif" font-size="8.00">::sock_pacing_time_slice_end</text>
</a>
</g>
</g>
<!-- Node1&#45;&gt;Node40 -->
<g id="edge17" class="edge">
<title>Node1&#45;&gt;Node40</title>
<path fill="none" stroke="midnightblue" d="M829.9,-6.63C762.89,-4.5 657.65,-4.5 566.5,-4.5 566.5,-4.5 566.5,-4.5 418,-4.5 320.44,-4.5 207.51,-4.5 137.29,-6.75"/>
<polygon fill="midnightblue" stroke="midnightblue" points="829.8,-10.13 839.91,-6.98 830.04,-3.13 829.8,-10.13"/>
</g>
<!-- Node3 -->
<g id="node3" class="node">
<title>Node3</title>
<g id="a_node3"><a xlink:href="classflow_1_1net__flow_1_1Node.html#a31edf238c1b21a409ea807c66c1b22f0" target="_top" xlink:title="Begins the process of asynchronously sending the given low&#45;level packet to the remote Node specified ...">
<polygon fill="white" stroke="black" points="515,-78 515,-113 616,-113 616,-78 515,-78"/>
<text text-anchor="start" x="523" y="-102.6" font-family="Helvetica,sans-Serif" font-size="8.00">flow::net_flow::Node</text>
<text text-anchor="start" x="523" y="-93.6" font-family="Helvetica,sans-Serif" font-size="8.00">::async_sock_low_lvl</text>
<text text-anchor="middle" x="565.5" y="-84.6" font-family="Helvetica,sans-Serif" font-size="8.00">_packet_send_paced</text>
</a>
</g>
</g>
<!-- Node2&#45;&gt;Node3 -->
<g id="edge2" class="edge">
<title>Node2&#45;&gt;Node3</title>
<path fill="none" stroke="midnightblue" d="M644.66,-81.38C634.99,-83.13 625.35,-84.87 616.32,-86.5"/>
<polygon fill="midnightblue" stroke="midnightblue" points="645.51,-84.78 654.73,-79.56 644.27,-77.89 645.51,-84.78"/>
</g>
<!-- Node4 -->
<g id="node4" class="node">
<title>Node4</title>
<g id="a_node4"><a xlink:href="classflow_1_1net__flow_1_1Node.html#aa5f7c019665d9dd91af0ad6431f8f97d" target="_top" xlink:title="Similar to async_sock_low_lvl_packet_send_paced() except it also calls close_connection_immediately(s...">
<polygon fill="white" stroke="black" points="364,-216.5 364,-260.5 474,-260.5 474,-216.5 364,-216.5"/>
<text text-anchor="start" x="372" y="-250.1" font-family="Helvetica,sans-Serif" font-size="8.00">flow::net_flow::Node</text>
<text text-anchor="start" x="372" y="-241.1" font-family="Helvetica,sans-Serif" font-size="8.00">::async_sock_low_lvl</text>
<text text-anchor="start" x="372" y="-232.1" font-family="Helvetica,sans-Serif" font-size="8.00">_packet_send_or_close</text>
<text text-anchor="middle" x="419" y="-223.1" font-family="Helvetica,sans-Serif" font-size="8.00">_immediately</text>
</a>
</g>
</g>
<!-- Node3&#45;&gt;Node4 -->
<g id="edge3" class="edge">
<title>Node3&#45;&gt;Node4</title>
<path fill="none" stroke="midnightblue" d="M539.54,-120.2C512.26,-147.2 468.94,-190.07 442.62,-216.12"/>
<polygon fill="midnightblue" stroke="midnightblue" points="542.14,-122.56 546.78,-113.03 537.21,-117.58 542.14,-122.56"/>
</g>
<!-- Node28 -->
<g id="node10" class="node">
<title>Node28</title>
<g id="a_node10"><a xlink:href="classflow_1_1net__flow_1_1Node.html#ad03aa88df3d1d3981454ee3356e868c1" target="_top" xlink:title="Sends an RST to the other side of the given socket asynchronously when possible.">
<polygon fill="white" stroke="black" points="368.5,-51 368.5,-86 469.5,-86 469.5,-51 368.5,-51"/>
<text text-anchor="start" x="376.5" y="-75.6" font-family="Helvetica,sans-Serif" font-size="8.00">flow::net_flow::Node</text>
<text text-anchor="start" x="376.5" y="-66.6" font-family="Helvetica,sans-Serif" font-size="8.00">::async_sock_low_lvl</text>
<text text-anchor="middle" x="419" y="-57.6" font-family="Helvetica,sans-Serif" font-size="8.00">_rst_send</text>
</a>
</g>
</g>
<!-- Node3&#45;&gt;Node28 -->
<g id="edge10" class="edge">
<title>Node3&#45;&gt;Node28</title>
<path fill="none" stroke="midnightblue" d="M504.72,-84.33C493.11,-82.16 481.06,-79.91 469.82,-77.81"/>
<polygon fill="midnightblue" stroke="midnightblue" points="504.3,-87.81 514.77,-86.21 505.58,-80.93 504.3,-87.81"/>
</g>
<!-- Node41 -->
<g id="node14" class="node">
<title>Node41</title>
<g id="a_node14"><a xlink:href="classflow_1_1net__flow_1_1Node.html#aaaf5c3b5e6b9f9f1658b60907b36a498" target="_top" xlink:title="Handles a just&#45;deserialized, just&#45;demultiplexed low&#45;level SYN packet delivered to the given server so...">
<polygon fill="white" stroke="black" points="359,-105 359,-140 479,-140 479,-105 359,-105"/>
<text text-anchor="start" x="367" y="-129.6" font-family="Helvetica,sans-Serif" font-size="8.00">flow::net_flow::Node</text>
<text text-anchor="start" x="367" y="-120.6" font-family="Helvetica,sans-Serif" font-size="8.00">::handle_syn_to_listening</text>
<text text-anchor="middle" x="419" y="-111.6" font-family="Helvetica,sans-Serif" font-size="8.00">_server</text>
</a>
</g>
</g>
<!-- Node3&#45;&gt;Node41 -->
<g id="edge15" class="edge">
<title>Node3&#45;&gt;Node41</title>
<path fill="none" stroke="midnightblue" d="M504.89,-106.64C496.35,-108.23 487.56,-109.88 479.04,-111.47"/>
<polygon fill="midnightblue" stroke="midnightblue" points="505.58,-110.07 514.77,-104.79 504.3,-103.19 505.58,-110.07"/>
</g>
<!-- Node5 -->
<g id="node5" class="node">
<title>Node5</title>
<g id="a_node5"><a xlink:href="classflow_1_1net__flow_1_1Node.html#a81e50276d0b162f6577adc690e0ef9e0" target="_top" xlink:title="Sends a low&#45;level ACK packet, with all accumulated in Peer_socket::m_rcv_pending_acks of sock individ...">
<polygon fill="white" stroke="black" points="188.5,-368.5 188.5,-394.5 307.5,-394.5 307.5,-368.5 188.5,-368.5"/>
<text text-anchor="start" x="196.5" y="-384.1" font-family="Helvetica,sans-Serif" font-size="8.00">flow::net_flow::Node</text>
<text text-anchor="middle" x="248" y="-375.1" font-family="Helvetica,sans-Serif" font-size="8.00">::async_low_lvl_ack_send</text>
</a>
</g>
</g>
<!-- Node4&#45;&gt;Node5 -->
<g id="edge4" class="edge">
<title>Node4&#45;&gt;Node5</title>
<path fill="none" stroke="midnightblue" d="M400.73,-269.64C384.14,-296.81 356.66,-335.41 323,-358.5 317.34,-362.38 311,-365.63 304.47,-368.34"/>
<polygon fill="midnightblue" stroke="midnightblue" points="403.82,-271.29 405.93,-260.9 397.8,-267.7 403.82,-271.29"/>
</g>
<!-- Node6 -->
<g id="node6" class="node">
<title>Node6</title>
<g id="a_node6"><a xlink:href="classflow_1_1net__flow_1_1Node.html#acaf55766783893827061fd85cab2634f" target="_top" xlink:title="Helper to create, fully fill out, and asynchronously send via async_sock_low_lvl_packet_send_or_close...">
<polygon fill="white" stroke="black" points="173,-314 173,-349 323,-349 323,-314 173,-314"/>
<text text-anchor="start" x="181" y="-338.6" font-family="Helvetica,sans-Serif" font-size="8.00">flow::net_flow::Node</text>
<text text-anchor="start" x="181" y="-329.6" font-family="Helvetica,sans-Serif" font-size="8.00">::async_low_lvl_syn_ack</text>
<text text-anchor="middle" x="248" y="-320.6" font-family="Helvetica,sans-Serif" font-size="8.00">_ack_send_or_close_immediately</text>
</a>
</g>
</g>
<!-- Node4&#45;&gt;Node6 -->
<g id="edge5" class="edge">
<title>Node4&#45;&gt;Node6</title>
<path fill="none" stroke="midnightblue" d="M382.02,-266.78C364.81,-279.43 343.53,-293.85 323,-304.5 316.44,-307.9 309.36,-311.07 302.27,-313.95"/>
<polygon fill="midnightblue" stroke="midnightblue" points="384.19,-269.52 390.11,-260.74 380.01,-263.91 384.19,-269.52"/>
</g>
<!-- Node7 -->
<g id="node7" class="node">
<title>Node7</title>
<g id="a_node7"><a xlink:href="classflow_1_1net__flow_1_1Node.html#a192d4b95b9f8a5c3d08b1e5486eb6f78" target="_top" xlink:title="receive_wnd_updated() helper that continues rcv_wnd recovery: that is, sends unsolicited ACK with a r...">
<polygon fill="white" stroke="red" points="187,-250.5 187,-276.5 309,-276.5 309,-250.5 187,-250.5"/>
<text text-anchor="start" x="195" y="-266.1" font-family="Helvetica,sans-Serif" font-size="8.00">flow::net_flow::Node</text>
<text text-anchor="middle" x="248" y="-257.1" font-family="Helvetica,sans-Serif" font-size="8.00">::async_rcv_wnd_recovery</text>
</a>
</g>
</g>
<!-- Node4&#45;&gt;Node7 -->
<g id="edge6" class="edge">
<title>Node4&#45;&gt;Node7</title>
<path fill="none" stroke="midnightblue" d="M353.64,-248.02C339.04,-250.18 323.58,-252.47 309.16,-254.6"/>
<polygon fill="midnightblue" stroke="midnightblue" points="354.22,-251.47 363.6,-246.55 353.19,-244.55 354.22,-251.47"/>
</g>
<!-- Node17 -->
<g id="node8" class="node">
<title>Node17</title>
<g id="a_node8"><a xlink:href="classflow_1_1net__flow_1_1Node.html#addd654cb6b1ccff34ddccbe5226be8f0" target="_top" xlink:title="Handles the triggering of the retransmit timer wait set up by setup_connection_timers(); it will re&#45;s...">
<polygon fill="white" stroke="black" points="183.5,-196 183.5,-231 312.5,-231 312.5,-196 183.5,-196"/>
<text text-anchor="start" x="191.5" y="-220.6" font-family="Helvetica,sans-Serif" font-size="8.00">flow::net_flow::Node</text>
<text text-anchor="start" x="191.5" y="-211.6" font-family="Helvetica,sans-Serif" font-size="8.00">::handle_connection_rexmit</text>
<text text-anchor="middle" x="248" y="-202.6" font-family="Helvetica,sans-Serif" font-size="8.00">_timer_event</text>
</a>
</g>
</g>
<!-- Node4&#45;&gt;Node17 -->
<g id="edge8" class="edge">
<title>Node4&#45;&gt;Node17</title>
<path fill="none" stroke="midnightblue" d="M353.53,-228.96C340.16,-226.98 326.07,-224.9 312.73,-222.93"/>
<polygon fill="midnightblue" stroke="midnightblue" points="353.19,-232.45 363.6,-230.45 354.22,-225.53 353.19,-232.45"/>
</g>
<!-- Node18 -->
<g id="node9" class="node">
<title>Node18</title>
<g id="a_node9"><a xlink:href="classflow_1_1net__flow_1_1Node.html#a10a92f11a2c9f218cdd9a55f282e79b1" target="_top" xlink:title="Thread W implemention of send(): synchronously or asynchronously send the contents of sock&#45;&gt;m_snd_buf...">
<polygon fill="white" stroke="red" points="197.5,-150.5 197.5,-176.5 298.5,-176.5 298.5,-150.5 197.5,-150.5"/>
<text text-anchor="start" x="205.5" y="-166.1" font-family="Helvetica,sans-Serif" font-size="8.00">flow::net_flow::Node</text>
<text text-anchor="middle" x="248" y="-157.1" font-family="Helvetica,sans-Serif" font-size="8.00">::send_worker</text>
</a>
</g>
</g>
<!-- Node4&#45;&gt;Node18 -->
<g id="edge9" class="edge">
<title>Node4&#45;&gt;Node18</title>
<path fill="none" stroke="midnightblue" d="M373,-211.47C357.48,-202.8 339.79,-193.62 323,-186.5 314.45,-182.88 305.14,-179.53 296.09,-176.59"/>
<polygon fill="midnightblue" stroke="midnightblue" points="371.43,-214.61 381.86,-216.49 374.88,-208.52 371.43,-214.61"/>
</g>
<!-- Node7&#45;&gt;Node7 -->
<g id="edge7" class="edge">
<title>Node7&#45;&gt;Node7</title>
<path fill="none" stroke="midnightblue" d="M278.85,-286.58C275.71,-291.47 265.43,-295 248,-295 220.11,-295 210.52,-285.96 219.24,-276.77"/>
<polygon fill="midnightblue" stroke="midnightblue" points="282.26,-285.82 276.76,-276.77 275.42,-287.28 282.26,-285.82"/>
</g>
<!-- Node29 -->
<g id="node11" class="node">
<title>Node29</title>
<g id="a_node11"><a xlink:href="classflow_1_1net__flow_1_1Node.html#a1699dfdaf3e5ebe1b1d715a9c306d116" target="_top" xlink:title="Handles a just&#45;received, not&#45;yet&#45;deserialized low&#45;level packet.">
<polygon fill="white" stroke="red" points="197.5,-105.5 197.5,-131.5 298.5,-131.5 298.5,-105.5 197.5,-105.5"/>
<text text-anchor="start" x="205.5" y="-121.1" font-family="Helvetica,sans-Serif" font-size="8.00">flow::net_flow::Node</text>
<text text-anchor="middle" x="248" y="-112.1" font-family="Helvetica,sans-Serif" font-size="8.00">::handle_incoming</text>
</a>
</g>
</g>
<!-- Node28&#45;&gt;Node29 -->
<g id="edge11" class="edge">
<title>Node28&#45;&gt;Node29</title>
<path fill="none" stroke="midnightblue" d="M358.49,-86.11C336.92,-92.49 312.97,-99.57 292.98,-105.49"/>
<polygon fill="midnightblue" stroke="midnightblue" points="359.61,-89.42 368.21,-83.23 357.63,-82.71 359.61,-89.42"/>
</g>
<!-- Node35 -->
<g id="node12" class="node">
<title>Node35</title>
<g id="a_node12"><a xlink:href="classflow_1_1net__flow_1_1Node.html#afe70a0c32695e417e7a09e0ba773f151" target="_top" xlink:title="Asynchronously send RST to the other side of the given socket and close_connection_immediately().">
<polygon fill="white" stroke="red" points="184,-51 184,-86 312,-86 312,-51 184,-51"/>
<text text-anchor="start" x="192" y="-75.6" font-family="Helvetica,sans-Serif" font-size="8.00">flow::net_flow::Node</text>
<text text-anchor="start" x="192" y="-66.6" font-family="Helvetica,sans-Serif" font-size="8.00">::rst_and_close_connection</text>
<text text-anchor="middle" x="248" y="-57.6" font-family="Helvetica,sans-Serif" font-size="8.00">_immediately</text>
</a>
</g>
</g>
<!-- Node28&#45;&gt;Node35 -->
<g id="edge12" class="edge">
<title>Node28&#45;&gt;Node35</title>
<path fill="none" stroke="midnightblue" d="M358.12,-68.5C343.26,-68.5 327.28,-68.5 312.26,-68.5"/>
<polygon fill="midnightblue" stroke="midnightblue" points="358.21,-72 368.21,-68.5 358.21,-65 358.21,-72"/>
</g>
<!-- Node35&#45;&gt;Node40 -->
<g id="edge13" class="edge">
<title>Node35&#45;&gt;Node40</title>
<path fill="none" stroke="midnightblue" d="M180.59,-47.92C157.46,-40.76 132.16,-32.92 111.56,-26.53"/>
<polygon fill="midnightblue" stroke="midnightblue" points="179.76,-51.33 190.35,-50.95 181.83,-44.64 179.76,-51.33"/>
</g>
<!-- Node40&#45;&gt;Node1 -->
<g id="edge14" class="edge">
<title>Node40&#45;&gt;Node1</title>
<path fill="none" stroke="midnightblue" d="M147.44,-20.55C218.07,-22.5 325.01,-22.5 418,-22.5 566.5,-22.5 566.5,-22.5 566.5,-22.5 662.32,-22.5 773.73,-22.5 839.91,-20.02"/>
<polygon fill="midnightblue" stroke="midnightblue" points="147.39,-17.05 137.29,-20.25 147.18,-24.05 147.39,-17.05"/>
</g>
<!-- Node41&#45;&gt;Node29 -->
<g id="edge16" class="edge">
<title>Node41&#45;&gt;Node29</title>
<path fill="none" stroke="midnightblue" d="M348.58,-120.86C331.8,-120.46 314.21,-120.04 298.55,-119.67"/>
<polygon fill="midnightblue" stroke="midnightblue" points="348.81,-124.36 358.89,-121.1 348.98,-117.37 348.81,-124.36"/>
</g>
</g>
</svg>
