<?xml version="1.0" encoding="UTF-8" standalone="no"?>
<!DOCTYPE svg PUBLIC "-//W3C//DTD SVG 1.1//EN"
 "http://www.w3.org/Graphics/SVG/1.1/DTD/svg11.dtd">
<!-- Generated by graphviz version 2.43.0 (0)
 -->
<!-- Title: flow::async::Segregated_thread_task_loop::schedule_from_now Pages: 1 -->
<svg width="324pt" height="44pt"
 viewBox="0.00 0.00 324.00 44.00" xmlns="http://www.w3.org/2000/svg" xmlns:xlink="http://www.w3.org/1999/xlink">
<g id="graph0" class="graph" transform="scale(1 1) rotate(0) translate(4 40)">
<title>flow::async::Segregated_thread_task_loop::schedule_from_now</title>
<polygon fill="white" stroke="transparent" points="-4,4 -4,-40 320,-40 320,4 -4,4"/>
<!-- Node1 -->
<g id="node1" class="node">
<title>Node1</title>
<g id="a_node1"><a xlink:title="Implements superclass API.">
<polygon fill="#bfbfbf" stroke="black" points="182,-0.5 182,-35.5 316,-35.5 316,-0.5 182,-0.5"/>
<text text-anchor="start" x="190" y="-25.1" font-family="Helvetica,sans-Serif" font-size="8.00">flow::async::Segregated</text>
<text text-anchor="start" x="190" y="-16.1" font-family="Helvetica,sans-Serif" font-size="8.00">_thread_task_loop::schedule</text>
<text text-anchor="middle" x="249" y="-7.1" font-family="Helvetica,sans-Serif" font-size="8.00">_from_now</text>
</a>
</g>
</g>
<!-- Node2 -->
<g id="node2" class="node">
<title>Node2</title>
<g id="a_node2"><a xlink:href="classflow_1_1async_1_1Segregated__thread__task__loop.html#aec44a292a4f2800f40f67bfc4bf19367" target="_top" xlink:title="Implements superclass API.">
<polygon fill="white" stroke="black" points="0,-5 0,-31 146,-31 146,-5 0,-5"/>
<text text-anchor="start" x="8" y="-20.6" font-family="Helvetica,sans-Serif" font-size="8.00">flow::async::Segregated</text>
<text text-anchor="middle" x="73" y="-11.6" font-family="Helvetica,sans-Serif" font-size="8.00">_thread_task_loop::schedule_at</text>
</a>
</g>
</g>
<!-- Node1&#45;&gt;Node2 -->
<g id="edge1" class="edge">
<title>Node1&#45;&gt;Node2</title>
<path fill="none" stroke="midnightblue" d="M171.53,-18C163.11,-18 154.55,-18 146.18,-18"/>
<polygon fill="midnightblue" stroke="midnightblue" points="171.72,-21.5 181.72,-18 171.72,-14.5 171.72,-21.5"/>
</g>
</g>
</svg>
