<?xml version="1.0" encoding="UTF-8" standalone="no"?>
<!DOCTYPE svg PUBLIC "-//W3C//DTD SVG 1.1//EN"
 "http://www.w3.org/Graphics/SVG/1.1/DTD/svg11.dtd">
<!-- Generated by graphviz version 2.43.0 (0)
 -->
<!-- Title: flow::log::Log_context Pages: 1 -->
<svg width="489pt" height="1173pt"
 viewBox="0.00 0.00 489.00 1173.00" xmlns="http://www.w3.org/2000/svg" xmlns:xlink="http://www.w3.org/1999/xlink">
<g id="graph0" class="graph" transform="scale(1 1) rotate(0) translate(4 1169)">
<title>flow::log::Log_context</title>
<polygon fill="white" stroke="transparent" points="-4,4 -4,-1169 485,-1169 485,4 -4,4"/>
<!-- Node1 -->
<g id="node1" class="node">
<title>Node1</title>
<g id="a_node1"><a xlink:title="Convenience class that simply stores a Logger and/or Component passed into a constructor; and returns...">
<polygon fill="#bfbfbf" stroke="black" points="0,-574 0,-591 107,-591 107,-574 0,-574"/>
<text text-anchor="middle" x="53.5" y="-580.6" font-family="Helvetica,sans-Serif" font-size="8.00">flow::log::Log_context</text>
</a>
</g>
</g>
<!-- Node2 -->
<g id="node2" class="node">
<title>Node2</title>
<g id="a_node2"><a xlink:href="classflow_1_1cfg_1_1Config__manager.html" target="_top" xlink:title=" ">
<polygon fill="white" stroke="black" points="143,-1138.5 143,-1164.5 280,-1164.5 280,-1138.5 143,-1138.5"/>
<text text-anchor="start" x="151" y="-1154.1" font-family="Helvetica,sans-Serif" font-size="8.00">flow::cfg::Config_manager</text>
<text text-anchor="middle" x="211.5" y="-1145.1" font-family="Helvetica,sans-Serif" font-size="8.00">&lt; Value_set, Null_value_set &gt;</text>
</a>
</g>
</g>
<!-- Node1&#45;&gt;Node2 -->
<g id="edge1" class="edge">
<title>Node1&#45;&gt;Node2</title>
<path fill="none" stroke="midnightblue" d="M54.99,-601.38C57.63,-688.09 72.72,-1047.41 143,-1129.5 145.97,-1132.96 149.48,-1135.89 153.33,-1138.35"/>
<polygon fill="midnightblue" stroke="midnightblue" points="58.49,-601.1 54.7,-591.21 51.49,-601.3 58.49,-601.1"/>
</g>
<!-- Node4 -->
<g id="node4" class="node">
<title>Node4</title>
<g id="a_node4"><a xlink:href="classflow_1_1async_1_1Cross__thread__task__loop.html" target="_top" xlink:title="Concrete Concurrent_task_loop that is able to efficiently schedule Tasks within a given Op to execute...">
<polygon fill="white" stroke="black" points="165.5,-1093.5 165.5,-1119.5 257.5,-1119.5 257.5,-1093.5 165.5,-1093.5"/>
<text text-anchor="start" x="173.5" y="-1109.1" font-family="Helvetica,sans-Serif" font-size="8.00">flow::async::Cross</text>
<text text-anchor="middle" x="211.5" y="-1100.1" font-family="Helvetica,sans-Serif" font-size="8.00">_thread_task_loop</text>
</a>
</g>
</g>
<!-- Node1&#45;&gt;Node4 -->
<g id="edge3" class="edge">
<title>Node1&#45;&gt;Node4</title>
<path fill="none" stroke="midnightblue" d="M55.34,-601.57C59.32,-683.97 78.9,-1008.71 143,-1083.5 148.88,-1090.36 156.9,-1095.18 165.35,-1098.56"/>
<polygon fill="midnightblue" stroke="midnightblue" points="58.82,-601.05 54.86,-591.23 51.82,-601.38 58.82,-601.05"/>
</g>
<!-- Node5 -->
<g id="node5" class="node">
<title>Node5</title>
<g id="a_node5"><a xlink:href="classflow_1_1async_1_1Op__list.html" target="_top" xlink:title="Simple, immutable vector&#45;like sequence of N opaque async::Op objects, usually corresponding to N work...">
<polygon fill="white" stroke="black" points="163.5,-1057 163.5,-1074 259.5,-1074 259.5,-1057 163.5,-1057"/>
<text text-anchor="middle" x="211.5" y="-1063.6" font-family="Helvetica,sans-Serif" font-size="8.00">flow::async::Op_list</text>
</a>
</g>
</g>
<!-- Node1&#45;&gt;Node5 -->
<g id="edge4" class="edge">
<title>Node1&#45;&gt;Node5</title>
<path fill="none" stroke="midnightblue" d="M55.48,-601.29C59.93,-679.8 80.85,-980.67 143,-1047.5 148.53,-1053.45 155.79,-1057.52 163.5,-1060.28"/>
<polygon fill="midnightblue" stroke="midnightblue" points="58.95,-600.81 54.92,-591.02 51.97,-601.19 58.95,-600.81"/>
</g>
<!-- Node6 -->
<g id="node6" class="node">
<title>Node6</title>
<g id="a_node6"><a xlink:href="classflow_1_1async_1_1Segregated__thread__task__loop.html" target="_top" xlink:title="Concrete Concurrent_task_loop that uses the legacy pin&#45;Tasks&#45;within&#45;1&#45;Op&#45;to&#45;1&#45;thread method of achiev...">
<polygon fill="white" stroke="black" points="153,-1011.5 153,-1037.5 270,-1037.5 270,-1011.5 153,-1011.5"/>
<text text-anchor="start" x="161" y="-1027.1" font-family="Helvetica,sans-Serif" font-size="8.00">flow::async::Segregated</text>
<text text-anchor="middle" x="211.5" y="-1018.1" font-family="Helvetica,sans-Serif" font-size="8.00">_thread_task_loop</text>
</a>
</g>
</g>
<!-- Node1&#45;&gt;Node6 -->
<g id="edge5" class="edge">
<title>Node1&#45;&gt;Node6</title>
<path fill="none" stroke="midnightblue" d="M55.99,-601.24C62.19,-674.64 88.18,-941.45 143,-1002.5 146.13,-1005.98 149.82,-1008.92 153.83,-1011.39"/>
<polygon fill="midnightblue" stroke="midnightblue" points="59.47,-600.87 55.16,-591.19 52.49,-601.44 59.47,-600.87"/>
</g>
<!-- Node7 -->
<g id="node7" class="node">
<title>Node7</title>
<g id="a_node7"><a xlink:href="classflow_1_1async_1_1Single__thread__task__loop.html" target="_top" xlink:title="A Concurrent_task_loop&#45;related adapter&#45;style class that represents a single&#45;thread task loop; essenti...">
<polygon fill="white" stroke="black" points="164,-966.5 164,-992.5 259,-992.5 259,-966.5 164,-966.5"/>
<text text-anchor="start" x="172" y="-982.1" font-family="Helvetica,sans-Serif" font-size="8.00">flow::async::Single</text>
<text text-anchor="middle" x="211.5" y="-973.1" font-family="Helvetica,sans-Serif" font-size="8.00">_thread_task_loop</text>
</a>
</g>
</g>
<!-- Node1&#45;&gt;Node7 -->
<g id="edge6" class="edge">
<title>Node1&#45;&gt;Node7</title>
<path fill="none" stroke="midnightblue" d="M56.52,-601.39C64.2,-669.86 93.66,-903.87 143,-957.5 148.67,-963.67 156.1,-968.11 163.94,-971.31"/>
<polygon fill="midnightblue" stroke="midnightblue" points="59.97,-600.79 55.41,-591.23 53.02,-601.55 59.97,-600.79"/>
</g>
<!-- Node9 -->
<g id="node9" class="node">
<title>Node9</title>
<g id="a_node9"><a xlink:href="classflow_1_1async_1_1Task__qing__thread.html" target="_top" xlink:title="Internally used building block of various concrete Concurrent_task_loop subclasses that encapsulates ...">
<polygon fill="white" stroke="black" points="157,-921.5 157,-947.5 266,-947.5 266,-921.5 157,-921.5"/>
<text text-anchor="start" x="165" y="-937.1" font-family="Helvetica,sans-Serif" font-size="8.00">flow::async::Task_qing</text>
<text text-anchor="middle" x="211.5" y="-928.1" font-family="Helvetica,sans-Serif" font-size="8.00">_thread</text>
</a>
</g>
</g>
<!-- Node1&#45;&gt;Node9 -->
<g id="edge8" class="edge">
<title>Node1&#45;&gt;Node9</title>
<path fill="none" stroke="midnightblue" d="M53.76,-601.09C52.6,-656.4 56.88,-821.69 143,-912.5 146.99,-916.7 151.78,-920.1 156.96,-922.86"/>
<polygon fill="midnightblue" stroke="midnightblue" points="57.26,-601.13 54.06,-591.03 50.26,-600.92 57.26,-601.13"/>
</g>
<!-- Node10 -->
<g id="node10" class="node">
<title>Node10</title>
<g id="a_node10"><a xlink:href="classflow_1_1cfg_1_1Config__manager.html" target="_top" xlink:title="Manages a config setup, intended for a single daemon process, by maintaining 1 or more set(s) of stat...">
<polygon fill="white" stroke="black" points="149,-876.5 149,-902.5 274,-902.5 274,-876.5 149,-876.5"/>
<text text-anchor="start" x="157" y="-892.1" font-family="Helvetica,sans-Serif" font-size="8.00">flow::cfg::Config_manager</text>
<text text-anchor="middle" x="211.5" y="-883.1" font-family="Helvetica,sans-Serif" font-size="8.00">&lt; S_d_value_set &gt;</text>
</a>
</g>
</g>
<!-- Node1&#45;&gt;Node10 -->
<g id="edge9" class="edge">
<title>Node1&#45;&gt;Node10</title>
<path fill="none" stroke="midnightblue" d="M54.7,-601.18C56.27,-651.46 67.57,-791.01 143,-867.5 146.46,-871.01 150.49,-873.96 154.82,-876.44"/>
<polygon fill="midnightblue" stroke="midnightblue" points="58.2,-601.05 54.49,-591.13 51.2,-601.2 58.2,-601.05"/>
</g>
<!-- Node11 -->
<g id="node11" class="node">
<title>Node11</title>
<g id="a_node11"><a xlink:href="classflow_1_1cfg_1_1Option__set.html" target="_top" xlink:title="The core config&#45;parsing facility, which builds parsing/comparison/output capabilities on top of a giv...">
<polygon fill="white" stroke="black" points="161,-831.5 161,-857.5 262,-857.5 262,-831.5 161,-831.5"/>
<text text-anchor="start" x="169" y="-847.1" font-family="Helvetica,sans-Serif" font-size="8.00">flow::cfg::Option_set</text>
<text text-anchor="middle" x="211.5" y="-838.1" font-family="Helvetica,sans-Serif" font-size="8.00">&lt; Value_set &gt;</text>
</a>
</g>
</g>
<!-- Node1&#45;&gt;Node11 -->
<g id="edge10" class="edge">
<title>Node1&#45;&gt;Node11</title>
<path fill="none" stroke="midnightblue" d="M56,-601.47C60.56,-646.4 78.25,-760.17 143,-822.5 148.06,-827.37 154.22,-831.17 160.72,-834.12"/>
<polygon fill="midnightblue" stroke="midnightblue" points="59.47,-601.03 55.08,-591.38 52.5,-601.66 59.47,-601.03"/>
</g>
<!-- Node12 -->
<g id="node12" class="node">
<title>Node12</title>
<g id="a_node12"><a xlink:href="classflow_1_1log_1_1Async__file__logger.html" target="_top" xlink:title="An implementation of Logger that logs messages to a given file&#45;system path but never blocks any loggi...">
<polygon fill="white" stroke="black" points="162.5,-786.5 162.5,-812.5 260.5,-812.5 260.5,-786.5 162.5,-786.5"/>
<text text-anchor="start" x="170.5" y="-802.1" font-family="Helvetica,sans-Serif" font-size="8.00">flow::log::Async_file</text>
<text text-anchor="middle" x="211.5" y="-793.1" font-family="Helvetica,sans-Serif" font-size="8.00">_logger</text>
</a>
</g>
</g>
<!-- Node1&#45;&gt;Node12 -->
<g id="edge11" class="edge">
<title>Node1&#45;&gt;Node12</title>
<path fill="none" stroke="darkgreen" d="M57.97,-601.6C65.97,-640.18 89.27,-727.87 143,-776.5 148.6,-781.57 155.36,-785.53 162.42,-788.62"/>
<polygon fill="darkgreen" stroke="darkgreen" points="61.31,-600.45 55.96,-591.3 54.44,-601.78 61.31,-600.45"/>
</g>
<!-- Node13 -->
<g id="node13" class="node">
<title>Node13</title>
<g id="a_node13"><a xlink:href="classflow_1_1log_1_1Log__context__mt.html" target="_top" xlink:title="Identical to Log_context but is safe w/r/t to set_logger(), assignment, and swap() done concurrently ...">
<polygon fill="white" stroke="black" points="151,-750 151,-767 272,-767 272,-750 151,-750"/>
<text text-anchor="middle" x="211.5" y="-756.6" font-family="Helvetica,sans-Serif" font-size="8.00">flow::log::Log_context_mt</text>
</a>
</g>
</g>
<!-- Node1&#45;&gt;Node13 -->
<g id="edge12" class="edge">
<title>Node1&#45;&gt;Node13</title>
<path fill="none" stroke="#8b1a1a" d="M59.63,-601.04C69.8,-634.23 95.71,-703.76 143,-740.5 148.08,-744.44 153.94,-747.53 160.06,-749.93"/>
<polygon fill="#8b1a1a" stroke="#8b1a1a" points="62.94,-599.89 56.78,-591.27 56.22,-601.85 62.94,-599.89"/>
</g>
<!-- Node16 -->
<g id="node16" class="node">
<title>Node16</title>
<g id="a_node16"><a xlink:href="classflow_1_1log_1_1Serial__file__logger.html" target="_top" xlink:title="An internal&#45;use implementation of Logger that logs messages to a given file&#45;system path,...">
<polygon fill="white" stroke="black" points="162.5,-704.5 162.5,-730.5 260.5,-730.5 260.5,-704.5 162.5,-704.5"/>
<text text-anchor="start" x="170.5" y="-720.1" font-family="Helvetica,sans-Serif" font-size="8.00">flow::log::Serial_file</text>
<text text-anchor="middle" x="211.5" y="-711.1" font-family="Helvetica,sans-Serif" font-size="8.00">_logger</text>
</a>
</g>
</g>
<!-- Node1&#45;&gt;Node16 -->
<g id="edge15" class="edge">
<title>Node1&#45;&gt;Node16</title>
<path fill="none" stroke="darkgreen" d="M63.92,-600.32C77.94,-625.16 106.58,-670 143,-695.5 148.86,-699.6 155.52,-702.97 162.33,-705.73"/>
<polygon fill="darkgreen" stroke="darkgreen" points="66.85,-598.38 58.98,-591.29 60.71,-601.75 66.85,-598.38"/>
</g>
<!-- Node17 -->
<g id="node17" class="node">
<title>Node17</title>
<g id="a_node17"><a xlink:href="classflow_1_1net__flow_1_1Congestion__control__classic__data.html" target="_top" xlink:title="Utility class for use by Congestion_control_strategy implementations that implements congestion windo...">
<polygon fill="white" stroke="black" points="149,-659.5 149,-685.5 274,-685.5 274,-659.5 149,-659.5"/>
<text text-anchor="start" x="157" y="-675.1" font-family="Helvetica,sans-Serif" font-size="8.00">flow::net_flow::Congestion</text>
<text text-anchor="middle" x="211.5" y="-666.1" font-family="Helvetica,sans-Serif" font-size="8.00">_control_classic_data</text>
</a>
</g>
</g>
<!-- Node1&#45;&gt;Node17 -->
<g id="edge16" class="edge">
<title>Node1&#45;&gt;Node17</title>
<path fill="none" stroke="midnightblue" d="M70.98,-597.96C87.91,-613.14 115.6,-636.06 143,-650.5 149.43,-653.89 156.49,-656.89 163.53,-659.49"/>
<polygon fill="midnightblue" stroke="midnightblue" points="73.33,-595.36 63.58,-591.2 68.6,-600.53 73.33,-595.36"/>
</g>
<!-- Node18 -->
<g id="node18" class="node">
<title>Node18</title>
<g id="a_node18"><a xlink:href="classflow_1_1net__flow_1_1Congestion__control__strategy.html" target="_top" xlink:title="The abstract interface for a per&#45;socket module that determines the socket&#39;s congestion control behavi...">
<polygon fill="white" stroke="black" points="149,-614.5 149,-640.5 274,-640.5 274,-614.5 149,-614.5"/>
<text text-anchor="start" x="157" y="-630.1" font-family="Helvetica,sans-Serif" font-size="8.00">flow::net_flow::Congestion</text>
<text text-anchor="middle" x="211.5" y="-621.1" font-family="Helvetica,sans-Serif" font-size="8.00">_control_strategy</text>
</a>
</g>
</g>
<!-- Node1&#45;&gt;Node18 -->
<g id="edge17" class="edge">
<title>Node1&#45;&gt;Node18</title>
<path fill="none" stroke="midnightblue" d="M94.08,-593.92C115.76,-600.17 142.72,-607.95 165.24,-614.44"/>
<polygon fill="midnightblue" stroke="midnightblue" points="94.79,-590.48 84.21,-591.07 92.85,-597.2 94.79,-590.48"/>
</g>
<!-- Node21 -->
<g id="node21" class="node">
<title>Node21</title>
<g id="a_node21"><a xlink:href="classflow_1_1net__flow_1_1Drop__timer.html" target="_top" xlink:title="Internal net_flow class that maintains the Drop Timer for DATA packet(s) to have been sent out over a...">
<polygon fill="white" stroke="black" points="162.5,-569.5 162.5,-595.5 260.5,-595.5 260.5,-569.5 162.5,-569.5"/>
<text text-anchor="start" x="170.5" y="-585.1" font-family="Helvetica,sans-Serif" font-size="8.00">flow::net_flow::Drop</text>
<text text-anchor="middle" x="211.5" y="-576.1" font-family="Helvetica,sans-Serif" font-size="8.00">_timer</text>
</a>
</g>
</g>
<!-- Node1&#45;&gt;Node21 -->
<g id="edge20" class="edge">
<title>Node1&#45;&gt;Node21</title>
<path fill="none" stroke="midnightblue" d="M117.54,-582.5C132.52,-582.5 148.27,-582.5 162.46,-582.5"/>
<polygon fill="midnightblue" stroke="midnightblue" points="117.31,-579 107.31,-582.5 117.31,-586 117.31,-579"/>
</g>
<!-- Node22 -->
<g id="node22" class="node">
<title>Node22</title>
<g id="a_node22"><a xlink:href="classflow_1_1net__flow_1_1Event__set.html" target="_top" xlink:title="A user&#45;set collection of sockets and desired conditions on those sockets (such as: &quot;socket has data t...">
<polygon fill="white" stroke="black" points="152,-533 152,-550 271,-550 271,-533 152,-533"/>
<text text-anchor="middle" x="211.5" y="-539.6" font-family="Helvetica,sans-Serif" font-size="8.00">flow::net_flow::Event_set</text>
</a>
</g>
</g>
<!-- Node1&#45;&gt;Node22 -->
<g id="edge21" class="edge">
<title>Node1&#45;&gt;Node22</title>
<path fill="none" stroke="midnightblue" d="M97.01,-571.33C122.57,-564.61 154.6,-556.19 178.11,-550.01"/>
<polygon fill="midnightblue" stroke="midnightblue" points="95.98,-567.98 87.2,-573.91 97.76,-574.75 95.98,-567.98"/>
</g>
<!-- Node23 -->
<g id="node23" class="node">
<title>Node23</title>
<g id="a_node23"><a xlink:href="structflow_1_1net__flow_1_1Low__lvl__packet.html" target="_top" xlink:title="Internal net_flow struct that encapsulates the Flow&#45;protocol low&#45;level packet structure and serves as...">
<polygon fill="white" stroke="black" points="164,-487.5 164,-513.5 259,-513.5 259,-487.5 164,-487.5"/>
<text text-anchor="start" x="172" y="-503.1" font-family="Helvetica,sans-Serif" font-size="8.00">flow::net_flow::Low</text>
<text text-anchor="middle" x="211.5" y="-494.1" font-family="Helvetica,sans-Serif" font-size="8.00">_lvl_packet</text>
</a>
</g>
</g>
<!-- Node1&#45;&gt;Node23 -->
<g id="edge22" class="edge">
<title>Node1&#45;&gt;Node23</title>
<path fill="none" stroke="midnightblue" d="M73.55,-567.67C90.9,-554.7 117.61,-536.02 143,-523.5 150.44,-519.83 158.61,-516.51 166.61,-513.6"/>
<polygon fill="midnightblue" stroke="midnightblue" points="71.23,-565.04 65.39,-573.88 75.47,-570.61 71.23,-565.04"/>
</g>
<!-- Node30 -->
<g id="node30" class="node">
<title>Node30</title>
<g id="a_node30"><a xlink:href="classflow_1_1net__flow_1_1Net__env__simulator.html" target="_top" xlink:title="Objects of this class can be fed to Node to make it internally simulate network conditions like loss,...">
<polygon fill="white" stroke="black" points="165,-442.5 165,-468.5 258,-468.5 258,-442.5 165,-442.5"/>
<text text-anchor="start" x="173" y="-458.1" font-family="Helvetica,sans-Serif" font-size="8.00">flow::net_flow::Net</text>
<text text-anchor="middle" x="211.5" y="-449.1" font-family="Helvetica,sans-Serif" font-size="8.00">_env_simulator</text>
</a>
</g>
</g>
<!-- Node1&#45;&gt;Node30 -->
<g id="edge29" class="edge">
<title>Node1&#45;&gt;Node30</title>
<path fill="none" stroke="midnightblue" d="M64.95,-565.2C79.64,-542.26 108.52,-501.94 143,-478.5 149.65,-473.98 157.28,-470.27 164.96,-467.25"/>
<polygon fill="midnightblue" stroke="midnightblue" points="61.86,-563.53 59.54,-573.87 67.8,-567.24 61.86,-563.53"/>
</g>
<!-- Node31 -->
<g id="node31" class="node">
<title>Node31</title>
<g id="a_node31"><a xlink:href="classflow_1_1net__flow_1_1Node.html" target="_top" xlink:title="An object of this class is a single Flow&#45;protocol networking node, in the sense that: (1) it has a di...">
<polygon fill="white" stroke="black" points="161,-406 161,-423 262,-423 262,-406 161,-406"/>
<text text-anchor="middle" x="211.5" y="-412.6" font-family="Helvetica,sans-Serif" font-size="8.00">flow::net_flow::Node</text>
</a>
</g>
</g>
<!-- Node1&#45;&gt;Node31 -->
<g id="edge30" class="edge">
<title>Node1&#45;&gt;Node31</title>
<path fill="none" stroke="midnightblue" d="M60.29,-564.21C71.22,-532.66 97.95,-468.08 143,-433.5 148.79,-429.05 155.58,-425.65 162.58,-423.04"/>
<polygon fill="midnightblue" stroke="midnightblue" points="56.9,-563.3 57.07,-573.89 63.55,-565.5 56.9,-563.3"/>
</g>
<!-- Node33 -->
<g id="node33" class="node">
<title>Node33</title>
<g id="a_node33"><a xlink:href="classflow_1_1net__flow_1_1Peer__socket.html" target="_top" xlink:title="A peer (non&#45;server) socket operating over the Flow network protocol, with optional stream&#45;of&#45;bytes an...">
<polygon fill="white" stroke="black" points="163,-360.5 163,-386.5 260,-386.5 260,-360.5 163,-360.5"/>
<text text-anchor="start" x="171" y="-376.1" font-family="Helvetica,sans-Serif" font-size="8.00">flow::net_flow::Peer</text>
<text text-anchor="middle" x="211.5" y="-367.1" font-family="Helvetica,sans-Serif" font-size="8.00">_socket</text>
</a>
</g>
</g>
<!-- Node1&#45;&gt;Node33 -->
<g id="edge32" class="edge">
<title>Node1&#45;&gt;Node33</title>
<path fill="none" stroke="midnightblue" d="M58.33,-563.66C66.87,-526.39 90.96,-442.84 143,-396.5 148.73,-391.4 155.65,-387.41 162.84,-384.31"/>
<polygon fill="midnightblue" stroke="midnightblue" points="54.86,-563.14 56.16,-573.65 61.7,-564.62 54.86,-563.14"/>
</g>
<!-- Node35 -->
<g id="node35" class="node">
<title>Node35</title>
<g id="a_node35"><a xlink:href="classflow_1_1net__flow_1_1Port__space.html" target="_top" xlink:title="Internal net_flow class that maintains the available Flow&#45;protocol port space, somewhat similarly to ...">
<polygon fill="white" stroke="black" points="164,-315.5 164,-341.5 259,-341.5 259,-315.5 164,-315.5"/>
<text text-anchor="start" x="172" y="-331.1" font-family="Helvetica,sans-Serif" font-size="8.00">flow::net_flow::Port</text>
<text text-anchor="middle" x="211.5" y="-322.1" font-family="Helvetica,sans-Serif" font-size="8.00">_space</text>
</a>
</g>
</g>
<!-- Node1&#45;&gt;Node35 -->
<g id="edge34" class="edge">
<title>Node1&#45;&gt;Node35</title>
<path fill="none" stroke="midnightblue" d="M56.32,-564C61.55,-520.66 80.53,-411.67 143,-351.5 148.89,-345.83 156.22,-341.56 163.87,-338.33"/>
<polygon fill="midnightblue" stroke="midnightblue" points="52.83,-563.65 55.22,-573.97 59.79,-564.41 52.83,-563.65"/>
</g>
<!-- Node36 -->
<g id="node36" class="node">
<title>Node36</title>
<g id="a_node36"><a xlink:href="classflow_1_1net__flow_1_1Send__bandwidth__estimator.html" target="_top" xlink:title="A per&#45;Peer_socket module that tries to estimate the bandwidth available to the outgoing flow.">
<polygon fill="white" stroke="black" points="158,-270.5 158,-296.5 265,-296.5 265,-270.5 158,-270.5"/>
<text text-anchor="start" x="166" y="-286.1" font-family="Helvetica,sans-Serif" font-size="8.00">flow::net_flow::Send</text>
<text text-anchor="middle" x="211.5" y="-277.1" font-family="Helvetica,sans-Serif" font-size="8.00">_bandwidth_estimator</text>
</a>
</g>
</g>
<!-- Node1&#45;&gt;Node36 -->
<g id="edge35" class="edge">
<title>Node1&#45;&gt;Node36</title>
<path fill="none" stroke="midnightblue" d="M54.98,-563.81C57.27,-514.69 70.21,-380.62 143,-306.5 147.25,-302.17 152.35,-298.66 157.81,-295.8"/>
<polygon fill="midnightblue" stroke="midnightblue" points="51.48,-563.79 54.61,-573.91 58.48,-564.05 51.48,-563.79"/>
</g>
<!-- Node37 -->
<g id="node37" class="node">
<title>Node37</title>
<g id="a_node37"><a xlink:href="classflow_1_1net__flow_1_1Sequence__number_1_1Generator.html" target="_top" xlink:title="An object of this type generates a series of initial sequence numbers (ISN) that are meant to be suff...">
<polygon fill="white" stroke="black" points="151.5,-225.5 151.5,-251.5 271.5,-251.5 271.5,-225.5 151.5,-225.5"/>
<text text-anchor="start" x="159.5" y="-241.1" font-family="Helvetica,sans-Serif" font-size="8.00">flow::net_flow::Sequence</text>
<text text-anchor="middle" x="211.5" y="-232.1" font-family="Helvetica,sans-Serif" font-size="8.00">_number::Generator</text>
</a>
</g>
</g>
<!-- Node1&#45;&gt;Node37 -->
<g id="edge36" class="edge">
<title>Node1&#45;&gt;Node37</title>
<path fill="none" stroke="midnightblue" d="M53.98,-563.76C53.52,-509.39 59.71,-349.89 143,-261.5 146.74,-257.54 151.18,-254.25 155.98,-251.54"/>
<polygon fill="midnightblue" stroke="midnightblue" points="50.49,-564.02 54.16,-573.96 57.48,-563.9 50.49,-564.02"/>
</g>
<!-- Node38 -->
<g id="node38" class="node">
<title>Node38</title>
<g id="a_node38"><a xlink:href="classflow_1_1net__flow_1_1Server__socket.html" target="_top" xlink:title="A server socket able to listen on a single Flow port for incoming connections and return peer sockets...">
<polygon fill="white" stroke="black" points="159,-180.5 159,-206.5 264,-206.5 264,-180.5 159,-180.5"/>
<text text-anchor="start" x="167" y="-196.1" font-family="Helvetica,sans-Serif" font-size="8.00">flow::net_flow::Server</text>
<text text-anchor="middle" x="211.5" y="-187.1" font-family="Helvetica,sans-Serif" font-size="8.00">_socket</text>
</a>
</g>
</g>
<!-- Node1&#45;&gt;Node38 -->
<g id="edge37" class="edge">
<title>Node1&#45;&gt;Node38</title>
<path fill="none" stroke="midnightblue" d="M56.58,-564.01C64.46,-496.98 94.53,-267.93 143,-215.5 147.43,-210.7 152.93,-206.95 158.85,-204.01"/>
<polygon fill="midnightblue" stroke="midnightblue" points="53.1,-563.62 55.43,-573.95 60.05,-564.42 53.1,-563.62"/>
</g>
<!-- Node40 -->
<g id="node40" class="node">
<title>Node40</title>
<g id="a_node40"><a xlink:href="classflow_1_1net__flow_1_1Socket__buffer.html" target="_top" xlink:title="Internal net_flow class that implements a socket buffer, as used by Peer_socket for Send and Receive ...">
<polygon fill="white" stroke="black" points="158,-135.5 158,-161.5 265,-161.5 265,-135.5 158,-135.5"/>
<text text-anchor="start" x="166" y="-151.1" font-family="Helvetica,sans-Serif" font-size="8.00">flow::net_flow::Socket</text>
<text text-anchor="middle" x="211.5" y="-142.1" font-family="Helvetica,sans-Serif" font-size="8.00">_buffer</text>
</a>
</g>
</g>
<!-- Node1&#45;&gt;Node40 -->
<g id="edge39" class="edge">
<title>Node1&#45;&gt;Node40</title>
<path fill="none" stroke="midnightblue" d="M56.08,-563.66C62.54,-491.03 89.17,-230.21 143,-170.5 147.13,-165.92 152.22,-162.29 157.73,-159.42"/>
<polygon fill="midnightblue" stroke="midnightblue" points="52.56,-563.71 55.19,-573.98 59.54,-564.32 52.56,-563.71"/>
</g>
<!-- Node41 -->
<g id="node41" class="node">
<title>Node41</title>
<g id="a_node41"><a xlink:href="classflow_1_1perf_1_1Checkpointing__timer.html" target="_top" xlink:title="The central class in the perf Flow module, this efficiently times the user&#39;s operation,...">
<polygon fill="white" stroke="black" points="152,-90.5 152,-116.5 271,-116.5 271,-90.5 152,-90.5"/>
<text text-anchor="start" x="160" y="-106.1" font-family="Helvetica,sans-Serif" font-size="8.00">flow::perf::Checkpointing</text>
<text text-anchor="middle" x="211.5" y="-97.1" font-family="Helvetica,sans-Serif" font-size="8.00">_timer</text>
</a>
</g>
</g>
<!-- Node1&#45;&gt;Node41 -->
<g id="edge40" class="edge">
<title>Node1&#45;&gt;Node41</title>
<path fill="none" stroke="midnightblue" d="M55.65,-563.62C60.75,-486.03 83.72,-192.62 143,-125.5 146.1,-121.99 149.77,-119.04 153.77,-116.55"/>
<polygon fill="midnightblue" stroke="midnightblue" points="52.15,-563.6 55.01,-573.81 59.13,-564.05 52.15,-563.6"/>
</g>
<!-- Node42 -->
<g id="node42" class="node">
<title>Node42</title>
<g id="a_node42"><a xlink:href="classflow_1_1perf_1_1Checkpointing__timer_1_1Aggregator.html" target="_top" xlink:title="This companion/inner class of Checkpointing_timer provides aggregation of results from many Checkpoin...">
<polygon fill="white" stroke="black" points="152,-45.5 152,-71.5 271,-71.5 271,-45.5 152,-45.5"/>
<text text-anchor="start" x="160" y="-61.1" font-family="Helvetica,sans-Serif" font-size="8.00">flow::perf::Checkpointing</text>
<text text-anchor="middle" x="211.5" y="-52.1" font-family="Helvetica,sans-Serif" font-size="8.00">_timer::Aggregator</text>
</a>
</g>
</g>
<!-- Node1&#45;&gt;Node42 -->
<g id="edge41" class="edge">
<title>Node1&#45;&gt;Node42</title>
<path fill="none" stroke="midnightblue" d="M55.31,-563.37C59.16,-480.72 78.29,-155.01 143,-80.5 145.99,-77.06 149.53,-74.15 153.39,-71.69"/>
<polygon fill="midnightblue" stroke="midnightblue" points="51.79,-563.6 54.84,-573.75 58.79,-563.91 51.79,-563.6"/>
</g>
<!-- Node43 -->
<g id="node43" class="node">
<title>Node43</title>
<g id="a_node43"><a xlink:href="classflow_1_1util_1_1Blob__with__log__context.html" target="_top" xlink:title="Basic_blob that works in regular heap (and is itself placed in heap or stack) and memorizes a log::Lo...">
<polygon fill="white" stroke="black" points="151,-0.5 151,-26.5 272,-26.5 272,-0.5 151,-0.5"/>
<text text-anchor="start" x="159" y="-16.1" font-family="Helvetica,sans-Serif" font-size="8.00">flow::util::Blob_with</text>
<text text-anchor="middle" x="211.5" y="-7.1" font-family="Helvetica,sans-Serif" font-size="8.00">_log_context&lt; SHARING &gt;</text>
</a>
</g>
</g>
<!-- Node1&#45;&gt;Node43 -->
<g id="edge42" class="edge">
<title>Node1&#45;&gt;Node43</title>
<path fill="none" stroke="midnightblue" d="M54.99,-563.62C57.63,-476.91 72.72,-117.59 143,-35.5 145.97,-32.04 149.48,-29.11 153.33,-26.65"/>
<polygon fill="midnightblue" stroke="midnightblue" points="51.49,-563.7 54.7,-573.79 58.49,-563.9 51.49,-563.7"/>
</g>
<!-- Node3 -->
<g id="node3" class="node">
<title>Node3</title>
<g id="a_node3"><a xlink:href="classflow_1_1cfg_1_1Static__config__manager.html" target="_top" xlink:title="A Config_manager&#45;related adapter&#45;style class that manages a simple config setup involving a single (t...">
<polygon fill="white" stroke="black" points="341.5,-1138.5 341.5,-1164.5 455.5,-1164.5 455.5,-1138.5 341.5,-1138.5"/>
<text text-anchor="start" x="349.5" y="-1154.1" font-family="Helvetica,sans-Serif" font-size="8.00">flow::cfg::Static_config</text>
<text text-anchor="middle" x="398.5" y="-1145.1" font-family="Helvetica,sans-Serif" font-size="8.00">_manager&lt; Value_set &gt;</text>
</a>
</g>
</g>
<!-- Node2&#45;&gt;Node3 -->
<g id="edge2" class="edge">
<title>Node2&#45;&gt;Node3</title>
<path fill="none" stroke="#8b1a1a" d="M290.1,-1151.5C307.3,-1151.5 325.2,-1151.5 341.35,-1151.5"/>
<polygon fill="#8b1a1a" stroke="#8b1a1a" points="290.07,-1148 280.07,-1151.5 290.07,-1155 290.07,-1148"/>
</g>
<!-- Node8 -->
<g id="node8" class="node">
<title>Node8</title>
<g id="a_node8"><a xlink:href="classflow_1_1async_1_1Timed__single__thread__task__loop.html" target="_top" xlink:title="Identical to Single_thread_task_loop, but all tasks posted through it are automatically timed,...">
<polygon fill="white" stroke="black" points="339,-966.5 339,-992.5 458,-992.5 458,-966.5 339,-966.5"/>
<text text-anchor="start" x="347" y="-982.1" font-family="Helvetica,sans-Serif" font-size="8.00">flow::async::Timed</text>
<text text-anchor="middle" x="398.5" y="-973.1" font-family="Helvetica,sans-Serif" font-size="8.00">_single_thread_task_loop</text>
</a>
</g>
</g>
<!-- Node7&#45;&gt;Node8 -->
<g id="edge7" class="edge">
<title>Node7&#45;&gt;Node8</title>
<path fill="none" stroke="midnightblue" d="M269.39,-979.5C291.44,-979.5 316.68,-979.5 338.89,-979.5"/>
<polygon fill="midnightblue" stroke="midnightblue" points="269.18,-976 259.18,-979.5 269.18,-983 269.18,-976"/>
</g>
<!-- Node14 -->
<g id="node14" class="node">
<title>Node14</title>
<g id="a_node14"><a xlink:href="classflow_1_1util_1_1Thread__local__state__registry.html" target="_top" xlink:title=" ">
<polygon fill="white" stroke="black" points="340,-781 340,-816 457,-816 457,-781 340,-781"/>
<text text-anchor="start" x="348" y="-805.6" font-family="Helvetica,sans-Serif" font-size="8.00">flow::util::Thread</text>
<text text-anchor="start" x="348" y="-796.6" font-family="Helvetica,sans-Serif" font-size="8.00">_local_state_registry</text>
<text text-anchor="middle" x="398.5" y="-787.6" font-family="Helvetica,sans-Serif" font-size="8.00">&lt; std::atomic&lt; bool &gt; &gt;</text>
</a>
</g>
</g>
<!-- Node13&#45;&gt;Node14 -->
<g id="edge13" class="edge">
<title>Node13&#45;&gt;Node14</title>
<path fill="none" stroke="midnightblue" d="M262.14,-769.23C286.12,-774.42 315.03,-780.67 339.97,-786.06"/>
<polygon fill="midnightblue" stroke="midnightblue" points="262.7,-765.77 252.19,-767.08 261.22,-772.62 262.7,-765.77"/>
</g>
<!-- Node15 -->
<g id="node15" class="node">
<title>Node15</title>
<g id="a_node15"><a xlink:href="classflow_1_1util_1_1Thread__local__state__registry.html" target="_top" xlink:title="Similar to boost::thread_specific_ptr&lt;T&gt; but with built&#45;in lazy&#45;init semantics; and more importantly ...">
<polygon fill="white" stroke="black" points="339,-727 339,-762 458,-762 458,-727 339,-727"/>
<text text-anchor="start" x="347" y="-751.6" font-family="Helvetica,sans-Serif" font-size="8.00">flow::util::Thread</text>
<text text-anchor="start" x="347" y="-742.6" font-family="Helvetica,sans-Serif" font-size="8.00">_local_state_registry</text>
<text text-anchor="middle" x="398.5" y="-733.6" font-family="Helvetica,sans-Serif" font-size="8.00">&lt; Thread_local_state_t &gt;</text>
</a>
</g>
</g>
<!-- Node13&#45;&gt;Node15 -->
<g id="edge14" class="edge">
<title>Node13&#45;&gt;Node15</title>
<path fill="none" stroke="midnightblue" d="M282.23,-753.22C300.83,-751.82 320.74,-750.31 338.69,-748.95"/>
<polygon fill="midnightblue" stroke="midnightblue" points="281.76,-749.75 272.05,-753.99 282.29,-756.73 281.76,-749.75"/>
</g>
<!-- Node19 -->
<g id="node19" class="node">
<title>Node19</title>
<g id="a_node19"><a xlink:href="classflow_1_1net__flow_1_1Congestion__control__classic.html" target="_top" xlink:title="Classic congestion control, based on Reno (TCP RFC 5681), with congestion avoidance,...">
<polygon fill="white" stroke="black" points="336,-674.5 336,-700.5 461,-700.5 461,-674.5 336,-674.5"/>
<text text-anchor="start" x="344" y="-690.1" font-family="Helvetica,sans-Serif" font-size="8.00">flow::net_flow::Congestion</text>
<text text-anchor="middle" x="398.5" y="-681.1" font-family="Helvetica,sans-Serif" font-size="8.00">_control_classic</text>
</a>
</g>
</g>
<!-- Node18&#45;&gt;Node19 -->
<g id="edge18" class="edge">
<title>Node18&#45;&gt;Node19</title>
<path fill="none" stroke="midnightblue" d="M261.84,-643.89C267.98,-646.05 274.15,-648.29 280,-650.5 296.21,-656.63 299.6,-659.9 316,-665.5 325.29,-668.67 335.3,-671.69 345.02,-674.42"/>
<polygon fill="midnightblue" stroke="midnightblue" points="262.87,-640.54 252.28,-640.56 260.57,-647.15 262.87,-640.54"/>
</g>
<!-- Node20 -->
<g id="node20" class="node">
<title>Node20</title>
<g id="a_node20"><a xlink:href="classflow_1_1net__flow_1_1Congestion__control__classic__with__bandwidth__est.html" target="_top" xlink:title="Classic congestion control but with backoff to bandwidth estimate&#45;based pipe size.">
<polygon fill="white" stroke="black" points="316,-629.5 316,-655.5 481,-655.5 481,-629.5 316,-629.5"/>
<text text-anchor="start" x="324" y="-645.1" font-family="Helvetica,sans-Serif" font-size="8.00">flow::net_flow::Congestion</text>
<text text-anchor="middle" x="398.5" y="-636.1" font-family="Helvetica,sans-Serif" font-size="8.00">_control_classic_with_bandwidth_est</text>
</a>
</g>
</g>
<!-- Node18&#45;&gt;Node20 -->
<g id="edge19" class="edge">
<title>Node18&#45;&gt;Node20</title>
<path fill="none" stroke="midnightblue" d="M284.28,-633.32C294.59,-634.16 305.27,-635.02 315.76,-635.87"/>
<polygon fill="midnightblue" stroke="midnightblue" points="284.35,-629.81 274.1,-632.49 283.79,-636.79 284.35,-629.81"/>
</g>
<!-- Node24 -->
<g id="node24" class="node">
<title>Node24</title>
<g id="a_node24"><a xlink:href="structflow_1_1net__flow_1_1Ack__packet.html" target="_top" xlink:title="Internal net_flow struct that encapsulates the Flow&#45;protocol low&#45;level ACK packet.">
<polygon fill="white" stroke="black" points="352,-584.5 352,-610.5 445,-610.5 445,-584.5 352,-584.5"/>
<text text-anchor="start" x="360" y="-600.1" font-family="Helvetica,sans-Serif" font-size="8.00">flow::net_flow::Ack</text>
<text text-anchor="middle" x="398.5" y="-591.1" font-family="Helvetica,sans-Serif" font-size="8.00">_packet</text>
</a>
</g>
</g>
<!-- Node23&#45;&gt;Node24 -->
<g id="edge23" class="edge">
<title>Node23&#45;&gt;Node24</title>
<path fill="none" stroke="midnightblue" d="M268.35,-516.24C272.46,-518.37 276.4,-520.78 280,-523.5 302.43,-540.44 293.03,-559.29 316,-575.5 326.54,-582.94 339.46,-587.86 351.89,-591.12"/>
<polygon fill="midnightblue" stroke="midnightblue" points="269.68,-513 259.14,-511.99 266.75,-519.36 269.68,-513"/>
</g>
<!-- Node25 -->
<g id="node25" class="node">
<title>Node25</title>
<g id="a_node25"><a xlink:href="structflow_1_1net__flow_1_1Data__packet.html" target="_top" xlink:title="Internal net_flow struct that encapsulates the Flow&#45;protocol low&#45;level DATA packet.">
<polygon fill="white" stroke="black" points="349.5,-539.5 349.5,-565.5 447.5,-565.5 447.5,-539.5 349.5,-539.5"/>
<text text-anchor="start" x="357.5" y="-555.1" font-family="Helvetica,sans-Serif" font-size="8.00">flow::net_flow::Data</text>
<text text-anchor="middle" x="398.5" y="-546.1" font-family="Helvetica,sans-Serif" font-size="8.00">_packet</text>
</a>
</g>
</g>
<!-- Node23&#45;&gt;Node25 -->
<g id="edge24" class="edge">
<title>Node23&#45;&gt;Node25</title>
<path fill="none" stroke="midnightblue" d="M266.47,-516.35C282.4,-520.97 299.89,-525.99 316,-530.5 326.73,-533.5 338.27,-536.66 349.19,-539.62"/>
<polygon fill="midnightblue" stroke="midnightblue" points="267.35,-512.96 256.77,-513.53 265.4,-519.68 267.35,-512.96"/>
</g>
<!-- Node26 -->
<g id="node26" class="node">
<title>Node26</title>
<g id="a_node26"><a xlink:href="structflow_1_1net__flow_1_1Rst__packet.html" target="_top" xlink:title="Internal net_flow struct that encapsulates the Flow&#45;protocol low&#45;level RST packet.">
<polygon fill="white" stroke="black" points="352.5,-494.5 352.5,-520.5 444.5,-520.5 444.5,-494.5 352.5,-494.5"/>
<text text-anchor="start" x="360.5" y="-510.1" font-family="Helvetica,sans-Serif" font-size="8.00">flow::net_flow::Rst</text>
<text text-anchor="middle" x="398.5" y="-501.1" font-family="Helvetica,sans-Serif" font-size="8.00">_packet</text>
</a>
</g>
</g>
<!-- Node23&#45;&gt;Node26 -->
<g id="edge25" class="edge">
<title>Node23&#45;&gt;Node26</title>
<path fill="none" stroke="midnightblue" d="M269.53,-502.66C296.18,-503.67 327.46,-504.85 352.43,-505.79"/>
<polygon fill="midnightblue" stroke="midnightblue" points="269.31,-499.15 259.18,-502.27 269.04,-506.14 269.31,-499.15"/>
</g>
<!-- Node27 -->
<g id="node27" class="node">
<title>Node27</title>
<g id="a_node27"><a xlink:href="structflow_1_1net__flow_1_1Syn__ack__ack__packet.html" target="_top" xlink:title="Internal net_flow struct that encapsulates the Flow&#45;protocol low&#45;level SYN_ACK_ACK packet.">
<polygon fill="white" stroke="black" points="351.5,-449.5 351.5,-475.5 445.5,-475.5 445.5,-449.5 351.5,-449.5"/>
<text text-anchor="start" x="359.5" y="-465.1" font-family="Helvetica,sans-Serif" font-size="8.00">flow::net_flow::Syn</text>
<text text-anchor="middle" x="398.5" y="-456.1" font-family="Helvetica,sans-Serif" font-size="8.00">_ack_ack_packet</text>
</a>
</g>
</g>
<!-- Node23&#45;&gt;Node27 -->
<g id="edge26" class="edge">
<title>Node23&#45;&gt;Node27</title>
<path fill="none" stroke="midnightblue" d="M269.06,-488.88C295.47,-483.46 326.52,-477.08 351.47,-471.95"/>
<polygon fill="midnightblue" stroke="midnightblue" points="268.27,-485.47 259.18,-490.91 269.68,-492.33 268.27,-485.47"/>
</g>
<!-- Node28 -->
<g id="node28" class="node">
<title>Node28</title>
<g id="a_node28"><a xlink:href="structflow_1_1net__flow_1_1Syn__ack__packet.html" target="_top" xlink:title="Internal net_flow struct that encapsulates the Flow&#45;protocol low&#45;level SYN_ACK packet.">
<polygon fill="white" stroke="black" points="351.5,-404.5 351.5,-430.5 445.5,-430.5 445.5,-404.5 351.5,-404.5"/>
<text text-anchor="start" x="359.5" y="-420.1" font-family="Helvetica,sans-Serif" font-size="8.00">flow::net_flow::Syn</text>
<text text-anchor="middle" x="398.5" y="-411.1" font-family="Helvetica,sans-Serif" font-size="8.00">_ack_packet</text>
</a>
</g>
</g>
<!-- Node23&#45;&gt;Node28 -->
<g id="edge27" class="edge">
<title>Node23&#45;&gt;Node28</title>
<path fill="none" stroke="midnightblue" d="M268.65,-484.66C272.6,-482.81 276.43,-480.76 280,-478.5 299.66,-466.07 296.09,-452.54 316,-440.5 326.69,-434.04 339.27,-429.33 351.3,-425.92"/>
<polygon fill="midnightblue" stroke="midnightblue" points="267.1,-481.52 259.27,-488.65 269.84,-487.96 267.1,-481.52"/>
</g>
<!-- Node29 -->
<g id="node29" class="node">
<title>Node29</title>
<g id="a_node29"><a xlink:href="structflow_1_1net__flow_1_1Syn__packet.html" target="_top" xlink:title="Internal net_flow struct that encapsulates the Flow&#45;protocol low&#45;level SYN packet.">
<polygon fill="white" stroke="black" points="351.5,-359.5 351.5,-385.5 445.5,-385.5 445.5,-359.5 351.5,-359.5"/>
<text text-anchor="start" x="359.5" y="-375.1" font-family="Helvetica,sans-Serif" font-size="8.00">flow::net_flow::Syn</text>
<text text-anchor="middle" x="398.5" y="-366.1" font-family="Helvetica,sans-Serif" font-size="8.00">_packet</text>
</a>
</g>
</g>
<!-- Node23&#45;&gt;Node29 -->
<g id="edge28" class="edge">
<title>Node23&#45;&gt;Node29</title>
<path fill="none" stroke="midnightblue" d="M268.58,-486.59C272.7,-484.29 276.57,-481.62 280,-478.5 309.74,-451.44 285.73,-421.96 316,-395.5 325.85,-386.89 338.7,-381.49 351.28,-378.1"/>
<polygon fill="midnightblue" stroke="midnightblue" points="266.78,-483.57 259.26,-491.04 269.79,-489.89 266.78,-483.57"/>
</g>
<!-- Node32 -->
<g id="node32" class="node">
<title>Node32</title>
<g id="a_node32"><a xlink:href="classflow_1_1net__flow_1_1asio_1_1Node.html" target="_top" xlink:title="A subclass of net_flow::Node that adds the ability to easily and directly use net_flow sockets in gen...">
<polygon fill="white" stroke="black" points="350.5,-314.5 350.5,-340.5 446.5,-340.5 446.5,-314.5 350.5,-314.5"/>
<text text-anchor="start" x="358.5" y="-330.1" font-family="Helvetica,sans-Serif" font-size="8.00">flow::net_flow::asio</text>
<text text-anchor="middle" x="398.5" y="-321.1" font-family="Helvetica,sans-Serif" font-size="8.00">::Node</text>
</a>
</g>
</g>
<!-- Node31&#45;&gt;Node32 -->
<g id="edge31" class="edge">
<title>Node31&#45;&gt;Node32</title>
<path fill="none" stroke="midnightblue" d="M269.88,-402.08C273.42,-400.45 276.83,-398.59 280,-396.5 301.66,-382.19 294.44,-364.96 316,-350.5 326.26,-343.62 338.56,-338.78 350.45,-335.38"/>
<polygon fill="midnightblue" stroke="midnightblue" points="268.27,-398.96 260.29,-405.93 270.87,-405.46 268.27,-398.96"/>
</g>
<!-- Node34 -->
<g id="node34" class="node">
<title>Node34</title>
<g id="a_node34"><a xlink:href="classflow_1_1net__flow_1_1asio_1_1Peer__socket.html" target="_top" xlink:title="A net_flow::Peer_socket that adds integration with boost.asio.">
<polygon fill="white" stroke="black" points="350.5,-269.5 350.5,-295.5 446.5,-295.5 446.5,-269.5 350.5,-269.5"/>
<text text-anchor="start" x="358.5" y="-285.1" font-family="Helvetica,sans-Serif" font-size="8.00">flow::net_flow::asio</text>
<text text-anchor="middle" x="398.5" y="-276.1" font-family="Helvetica,sans-Serif" font-size="8.00">::Peer_socket</text>
</a>
</g>
</g>
<!-- Node33&#45;&gt;Node34 -->
<g id="edge33" class="edge">
<title>Node33&#45;&gt;Node34</title>
<path fill="none" stroke="midnightblue" d="M269.59,-357.69C273.23,-355.84 276.74,-353.78 280,-351.5 301.27,-336.61 294.44,-319.96 316,-305.5 326.26,-298.62 338.56,-293.78 350.45,-290.38"/>
<polygon fill="midnightblue" stroke="midnightblue" points="267.99,-354.57 260.31,-361.88 270.87,-360.95 267.99,-354.57"/>
</g>
<!-- Node39 -->
<g id="node39" class="node">
<title>Node39</title>
<g id="a_node39"><a xlink:href="classflow_1_1net__flow_1_1asio_1_1Server__socket.html" target="_top" xlink:title="A net_flow::Server_socket that adds integration with boost.asio.">
<polygon fill="white" stroke="black" points="350.5,-180.5 350.5,-206.5 446.5,-206.5 446.5,-180.5 350.5,-180.5"/>
<text text-anchor="start" x="358.5" y="-196.1" font-family="Helvetica,sans-Serif" font-size="8.00">flow::net_flow::asio</text>
<text text-anchor="middle" x="398.5" y="-187.1" font-family="Helvetica,sans-Serif" font-size="8.00">::Server_socket</text>
</a>
</g>
</g>
<!-- Node38&#45;&gt;Node39 -->
<g id="edge38" class="edge">
<title>Node38&#45;&gt;Node39</title>
<path fill="none" stroke="midnightblue" d="M274.09,-193.5C298.96,-193.5 327.18,-193.5 350.36,-193.5"/>
<polygon fill="midnightblue" stroke="midnightblue" points="274.03,-190 264.03,-193.5 274.03,-197 274.03,-190"/>
</g>
</g>
</svg>
