<?xml version="1.0" encoding="UTF-8" standalone="no"?>
<!DOCTYPE svg PUBLIC "-//W3C//DTD SVG 1.1//EN"
 "http://www.w3.org/Graphics/SVG/1.1/DTD/svg11.dtd">
<!-- Generated by graphviz version 2.43.0 (0)
 -->
<!-- Title: flow::util::Linked_hash_set::clear Pages: 1 -->
<svg width="258pt" height="179pt"
 viewBox="0.00 0.00 258.00 179.00" xmlns="http://www.w3.org/2000/svg" xmlns:xlink="http://www.w3.org/1999/xlink">
<g id="graph0" class="graph" transform="scale(1 1) rotate(0) translate(4 175)">
<title>flow::util::Linked_hash_set::clear</title>
<polygon fill="white" stroke="transparent" points="-4,4 -4,-175 254,-175 254,4 -4,4"/>
<!-- Node1 -->
<g id="node1" class="node">
<title>Node1</title>
<g id="a_node1"><a xlink:title="Makes it so that size() == 0.">
<polygon fill="#bfbfbf" stroke="black" points="165,-63.5 165,-89.5 250,-89.5 250,-63.5 165,-63.5"/>
<text text-anchor="start" x="173" y="-79.1" font-family="Helvetica,sans-Serif" font-size="8.00">flow::util::Linked</text>
<text text-anchor="middle" x="207.5" y="-70.1" font-family="Helvetica,sans-Serif" font-size="8.00">_hash_set::clear</text>
</a>
</g>
</g>
<!-- Node2 -->
<g id="node2" class="node">
<title>Node2</title>
<g id="a_node2"><a xlink:href="classflow_1_1net__flow_1_1Event__set.html#afb6379c7fe127c26fd4cdc9752ccf9e2" target="_top" xlink:title="Identical to emit_result_sockets(&amp;sockets, ev_type, err_code), where originally sockets is empty and ...">
<polygon fill="white" stroke="black" points="3.5,-126.5 3.5,-152.5 125.5,-152.5 125.5,-126.5 3.5,-126.5"/>
<text text-anchor="start" x="11.5" y="-142.1" font-family="Helvetica,sans-Serif" font-size="8.00">flow::net_flow::Event</text>
<text text-anchor="middle" x="64.5" y="-133.1" font-family="Helvetica,sans-Serif" font-size="8.00">_set::clear_result_sockets</text>
</a>
</g>
</g>
<!-- Node1&#45;&gt;Node2 -->
<g id="edge1" class="edge">
<title>Node1&#45;&gt;Node2</title>
<path fill="none" stroke="midnightblue" d="M174.8,-94.68C160.97,-102.24 144.43,-110.79 129,-117.5 121.72,-120.66 113.83,-123.7 106.17,-126.45"/>
<polygon fill="midnightblue" stroke="midnightblue" points="176.84,-97.55 183.89,-89.64 173.45,-91.43 176.84,-97.55"/>
</g>
<!-- Node3 -->
<g id="node3" class="node">
<title>Node3</title>
<g id="a_node3"><a xlink:href="classflow_1_1net__flow_1_1Event__set.html#a86ddd6fb8874d85869157bae2ffda69b" target="_top" xlink:title="Identical to swap_wanted_sockets(&amp;sockets, ev_type, err_code), where originally sockets is empty and ...">
<polygon fill="white" stroke="black" points="0,-63.5 0,-89.5 129,-89.5 129,-63.5 0,-63.5"/>
<text text-anchor="start" x="8" y="-79.1" font-family="Helvetica,sans-Serif" font-size="8.00">flow::net_flow::Event</text>
<text text-anchor="middle" x="64.5" y="-70.1" font-family="Helvetica,sans-Serif" font-size="8.00">_set::clear_wanted_sockets</text>
</a>
</g>
</g>
<!-- Node1&#45;&gt;Node3 -->
<g id="edge3" class="edge">
<title>Node1&#45;&gt;Node3</title>
<path fill="none" stroke="midnightblue" d="M154.7,-76.5C146.41,-76.5 137.76,-76.5 129.23,-76.5"/>
<polygon fill="midnightblue" stroke="midnightblue" points="154.96,-80 164.96,-76.5 154.96,-73 154.96,-80"/>
</g>
<!-- Node4 -->
<g id="node4" class="node">
<title>Node4</title>
<g id="a_node4"><a xlink:href="classflow_1_1net__flow_1_1Event__set.html#a72b26f25a2e76e3c61b4760b59de5b25" target="_top" xlink:title="Gets the sockets that satisfy the condition of the given Event_type detected during the last wait.">
<polygon fill="white" stroke="black" points="5,-0.5 5,-26.5 124,-26.5 124,-0.5 5,-0.5"/>
<text text-anchor="start" x="13" y="-16.1" font-family="Helvetica,sans-Serif" font-size="8.00">flow::net_flow::Event</text>
<text text-anchor="middle" x="64.5" y="-7.1" font-family="Helvetica,sans-Serif" font-size="8.00">_set::emit_result_sockets</text>
</a>
</g>
</g>
<!-- Node1&#45;&gt;Node4 -->
<g id="edge5" class="edge">
<title>Node1&#45;&gt;Node4</title>
<path fill="none" stroke="midnightblue" d="M168.09,-59.34C144.95,-49 115.94,-36.04 94.68,-26.54"/>
<polygon fill="midnightblue" stroke="midnightblue" points="166.73,-62.56 177.28,-63.45 169.58,-56.17 166.73,-62.56"/>
</g>
<!-- Node2&#45;&gt;Node2 -->
<g id="edge2" class="edge">
<title>Node2&#45;&gt;Node2</title>
<path fill="none" stroke="midnightblue" d="M90.06,-162.94C87.22,-167.64 78.7,-171 64.5,-171 41.2,-171 33.19,-161.96 40.48,-152.77"/>
<polygon fill="midnightblue" stroke="midnightblue" points="93.48,-162.14 88.52,-152.77 86.55,-163.18 93.48,-162.14"/>
</g>
<!-- Node3&#45;&gt;Node3 -->
<g id="edge4" class="edge">
<title>Node3&#45;&gt;Node3</title>
<path fill="none" stroke="midnightblue" d="M90.06,-99.94C87.22,-104.64 78.7,-108 64.5,-108 41.2,-108 33.19,-98.96 40.48,-89.77"/>
<polygon fill="midnightblue" stroke="midnightblue" points="93.48,-99.14 88.52,-89.77 86.55,-100.18 93.48,-99.14"/>
</g>
<!-- Node4&#45;&gt;Node4 -->
<g id="edge6" class="edge">
<title>Node4&#45;&gt;Node4</title>
<path fill="none" stroke="midnightblue" d="M90.06,-36.94C87.22,-41.64 78.7,-45 64.5,-45 41.2,-45 33.19,-35.96 40.48,-26.77"/>
<polygon fill="midnightblue" stroke="midnightblue" points="93.48,-36.14 88.52,-26.77 86.55,-37.18 93.48,-36.14"/>
</g>
</g>
</svg>
