<?xml version="1.0" encoding="UTF-8" standalone="no"?>
<!DOCTYPE svg PUBLIC "-//W3C//DTD SVG 1.1//EN"
 "http://www.w3.org/Graphics/SVG/1.1/DTD/svg11.dtd">
<!-- Generated by graphviz version 2.43.0 (0)
 -->
<!-- Title: flow::net_flow::Congestion_control_classic_with_bandwidth_est Pages: 1 -->
<svg width="365pt" height="152pt"
 viewBox="0.00 0.00 364.50 152.00" xmlns="http://www.w3.org/2000/svg" xmlns:xlink="http://www.w3.org/1999/xlink">
<g id="graph0" class="graph" transform="scale(1 1) rotate(0) translate(4 148)">
<title>flow::net_flow::Congestion_control_classic_with_bandwidth_est</title>
<polygon fill="white" stroke="transparent" points="-4,4 -4,-148 360.5,-148 360.5,4 -4,4"/>
<!-- Node1 -->
<g id="node1" class="node">
<title>Node1</title>
<g id="a_node1"><a xlink:title="Classic congestion control but with backoff to bandwidth estimate&#45;based pipe size.">
<polygon fill="#bfbfbf" stroke="black" points="103.5,-0.5 103.5,-26.5 268.5,-26.5 268.5,-0.5 103.5,-0.5"/>
<text text-anchor="start" x="111.5" y="-16.1" font-family="Helvetica,sans-Serif" font-size="8.00">flow::net_flow::Congestion</text>
<text text-anchor="middle" x="186" y="-7.1" font-family="Helvetica,sans-Serif" font-size="8.00">_control_classic_with_bandwidth_est</text>
</a>
</g>
</g>
<!-- Node2 -->
<g id="node2" class="node">
<title>Node2</title>
<g id="a_node2"><a xlink:href="classflow_1_1net__flow_1_1Congestion__control__strategy.html" target="_top" xlink:title="The abstract interface for a per&#45;socket module that determines the socket&#39;s congestion control behavi...">
<polygon fill="white" stroke="black" points="123.5,-63.5 123.5,-89.5 248.5,-89.5 248.5,-63.5 123.5,-63.5"/>
<text text-anchor="start" x="131.5" y="-79.1" font-family="Helvetica,sans-Serif" font-size="8.00">flow::net_flow::Congestion</text>
<text text-anchor="middle" x="186" y="-70.1" font-family="Helvetica,sans-Serif" font-size="8.00">_control_strategy</text>
</a>
</g>
</g>
<!-- Node2&#45;&gt;Node1 -->
<g id="edge1" class="edge">
<title>Node2&#45;&gt;Node1</title>
<path fill="none" stroke="midnightblue" d="M186,-53.19C186,-44.18 186,-34.12 186,-26.53"/>
<polygon fill="midnightblue" stroke="midnightblue" points="182.5,-53.45 186,-63.45 189.5,-53.45 182.5,-53.45"/>
</g>
<!-- Node3 -->
<g id="node3" class="node">
<title>Node3</title>
<g id="a_node3"><a xlink:href="classflow_1_1util_1_1Null__interface.html" target="_top" xlink:title="An empty interface, consisting of nothing but a default virtual destructor, intended as a boiler&#45;plat...">
<polygon fill="white" stroke="black" points="0,-126.5 0,-143.5 114,-143.5 114,-126.5 0,-126.5"/>
<text text-anchor="middle" x="57" y="-133.1" font-family="Helvetica,sans-Serif" font-size="8.00">flow::util::Null_interface</text>
</a>
</g>
</g>
<!-- Node3&#45;&gt;Node2 -->
<g id="edge2" class="edge">
<title>Node3&#45;&gt;Node2</title>
<path fill="none" stroke="midnightblue" d="M83.47,-122.41C105.33,-112.83 136.24,-99.29 158.4,-89.59"/>
<polygon fill="midnightblue" stroke="midnightblue" points="81.89,-119.28 74.13,-126.5 84.69,-125.69 81.89,-119.28"/>
</g>
<!-- Node4 -->
<g id="node4" class="node">
<title>Node4</title>
<g id="a_node4"><a xlink:href="classflow_1_1log_1_1Log__context.html" target="_top" xlink:title="Convenience class that simply stores a Logger and/or Component passed into a constructor; and returns...">
<polygon fill="white" stroke="black" points="132.5,-126.5 132.5,-143.5 239.5,-143.5 239.5,-126.5 132.5,-126.5"/>
<text text-anchor="middle" x="186" y="-133.1" font-family="Helvetica,sans-Serif" font-size="8.00">flow::log::Log_context</text>
</a>
</g>
</g>
<!-- Node4&#45;&gt;Node2 -->
<g id="edge3" class="edge">
<title>Node4&#45;&gt;Node2</title>
<path fill="none" stroke="midnightblue" d="M186,-116C186,-107.4 186,-97.32 186,-89.64"/>
<polygon fill="midnightblue" stroke="midnightblue" points="182.5,-116.14 186,-126.14 189.5,-116.14 182.5,-116.14"/>
</g>
<!-- Node5 -->
<g id="node5" class="node">
<title>Node5</title>
<g id="a_node5"><a xlink:title=" ">
<polygon fill="white" stroke="#bfbfbf" points="257.5,-126.5 257.5,-143.5 356.5,-143.5 356.5,-126.5 257.5,-126.5"/>
<text text-anchor="middle" x="307" y="-133.1" font-family="Helvetica,sans-Serif" font-size="8.00">boost::noncopyable</text>
</a>
</g>
</g>
<!-- Node5&#45;&gt;Node2 -->
<g id="edge4" class="edge">
<title>Node5&#45;&gt;Node2</title>
<path fill="none" stroke="#8b1a1a" d="M281.35,-122.02C260.86,-112.45 232.29,-99.11 211.77,-89.53"/>
<polygon fill="#8b1a1a" stroke="#8b1a1a" points="280.14,-125.32 290.68,-126.38 283.1,-118.98 280.14,-125.32"/>
</g>
</g>
</svg>
