<?xml version="1.0" encoding="UTF-8" standalone="no"?>
<!DOCTYPE svg PUBLIC "-//W3C//DTD SVG 1.1//EN"
 "http://www.w3.org/Graphics/SVG/1.1/DTD/svg11.dtd">
<!-- Generated by graphviz version 2.43.0 (0)
 -->
<!-- Title: flow::net_flow::Peer_socket::node_receive Pages: 1 -->
<svg width="1371pt" height="584pt"
 viewBox="0.00 0.00 1371.00 583.50" xmlns="http://www.w3.org/2000/svg" xmlns:xlink="http://www.w3.org/1999/xlink">
<g id="graph0" class="graph" transform="scale(1 1) rotate(0) translate(4 579.5)">
<title>flow::net_flow::Peer_socket::node_receive</title>
<polygon fill="white" stroke="transparent" points="-4,4 -4,-579.5 1367,-579.5 1367,4 -4,4"/>
<!-- Node1 -->
<g id="node1" class="node">
<title>Node1</title>
<g id="a_node1"><a xlink:title="Non&#45;template helper for template receive() that forwards the receive() logic to Node::receive().">
<polygon fill="#bfbfbf" stroke="black" points="0,-353.5 0,-379.5 108,-379.5 108,-353.5 0,-353.5"/>
<text text-anchor="start" x="8" y="-369.1" font-family="Helvetica,sans-Serif" font-size="8.00">flow::net_flow::Peer</text>
<text text-anchor="middle" x="54" y="-360.1" font-family="Helvetica,sans-Serif" font-size="8.00">_socket::node_receive</text>
</a>
</g>
</g>
<!-- Node2 -->
<g id="node2" class="node">
<title>Node2</title>
<g id="a_node2"><a xlink:href="classflow_1_1net__flow_1_1Node.html#a109a118ca312e94686595ea08dac7ad0" target="_top" xlink:title="Helper method that checks whether the given Peer_socket or Server_socket is CLOSED; if so,...">
<polygon fill="white" stroke="black" points="144,-376.5 144,-402.5 245,-402.5 245,-376.5 144,-376.5"/>
<text text-anchor="start" x="152" y="-392.1" font-family="Helvetica,sans-Serif" font-size="8.00">flow::net_flow::Node</text>
<text text-anchor="middle" x="194.5" y="-383.1" font-family="Helvetica,sans-Serif" font-size="8.00">::ensure_sock_open</text>
</a>
</g>
</g>
<!-- Node1&#45;&gt;Node2 -->
<g id="edge1" class="edge">
<title>Node1&#45;&gt;Node2</title>
<path fill="none" stroke="midnightblue" d="M108.15,-375.33C116.6,-376.73 125.38,-378.19 133.96,-379.61"/>
<polygon fill="midnightblue" stroke="midnightblue" points="133.46,-383.08 143.9,-381.26 134.61,-376.17 133.46,-383.08"/>
</g>
<!-- Node3 -->
<g id="node3" class="node">
<title>Node3</title>
<g id="a_node3"><a xlink:href="classflow_1_1net__flow_1_1Node.html#addbb96858fd7b3c9ddd7c6fe8078809c" target="_top" xlink:title="Implementation of non&#45;blocking sock&#45;&gt;receive() for socket sock in all cases except when sock&#45;&gt;state()...">
<polygon fill="white" stroke="black" points="144,-331.5 144,-357.5 245,-357.5 245,-331.5 144,-331.5"/>
<text text-anchor="start" x="152" y="-347.1" font-family="Helvetica,sans-Serif" font-size="8.00">flow::net_flow::Node</text>
<text text-anchor="middle" x="194.5" y="-338.1" font-family="Helvetica,sans-Serif" font-size="8.00">::receive</text>
</a>
</g>
</g>
<!-- Node1&#45;&gt;Node3 -->
<g id="edge2" class="edge">
<title>Node1&#45;&gt;Node3</title>
<path fill="none" stroke="midnightblue" d="M108.15,-358.06C116.6,-356.72 125.38,-355.32 133.96,-353.96"/>
<polygon fill="midnightblue" stroke="midnightblue" points="134.57,-357.4 143.9,-352.38 133.48,-350.49 134.57,-357.4"/>
</g>
<!-- Node4 -->
<g id="node4" class="node">
<title>Node4</title>
<g id="a_node4"><a xlink:href="classflow_1_1net__flow_1_1Node.html#ad608f9bbe76426f4fbf4bf5af908e4e0" target="_top" xlink:title="Placed by receive() onto W during a graceful close, after the Receive buffer had been emptied by the ...">
<polygon fill="white" stroke="black" points="594.5,-264 594.5,-299 715.5,-299 715.5,-264 594.5,-264"/>
<text text-anchor="start" x="602.5" y="-288.6" font-family="Helvetica,sans-Serif" font-size="8.00">flow::net_flow::Node</text>
<text text-anchor="start" x="602.5" y="-279.6" font-family="Helvetica,sans-Serif" font-size="8.00">::receive_emptied_rcv</text>
<text text-anchor="middle" x="655" y="-270.6" font-family="Helvetica,sans-Serif" font-size="8.00">_buf_while_disconnecting</text>
</a>
</g>
</g>
<!-- Node3&#45;&gt;Node4 -->
<g id="edge3" class="edge">
<title>Node3&#45;&gt;Node4</title>
<path fill="none" stroke="midnightblue" d="M245.11,-340.34C285.11,-336.78 342.78,-331.17 393,-324.5 458.11,-315.85 531.94,-303.44 584.42,-294.18"/>
<polygon fill="midnightblue" stroke="midnightblue" points="585.06,-297.62 594.29,-292.43 583.84,-290.72 585.06,-297.62"/>
</g>
<!-- Node42 -->
<g id="node19" class="node">
<title>Node42</title>
<g id="a_node19"><a xlink:href="classflow_1_1net__flow_1_1Node.html#a08cf95363b26c0c676979437e34db357" target="_top" xlink:title="Placed by receive() onto W if it has dequeued data from Receive buffer and given it to the user,...">
<polygon fill="white" stroke="black" points="281,-435.5 281,-461.5 393,-461.5 393,-435.5 281,-435.5"/>
<text text-anchor="start" x="289" y="-451.1" font-family="Helvetica,sans-Serif" font-size="8.00">flow::net_flow::Node</text>
<text text-anchor="middle" x="337" y="-442.1" font-family="Helvetica,sans-Serif" font-size="8.00">::receive_wnd_updated</text>
</a>
</g>
</g>
<!-- Node3&#45;&gt;Node42 -->
<g id="edge20" class="edge">
<title>Node3&#45;&gt;Node42</title>
<path fill="none" stroke="midnightblue" d="M228.75,-357.53C234.33,-360.21 239.95,-363.22 245,-366.5 272.22,-384.17 299.33,-409.92 316.79,-427.83"/>
<polygon fill="midnightblue" stroke="midnightblue" points="314.64,-430.66 324.09,-435.45 319.7,-425.81 314.64,-430.66"/>
</g>
<!-- Node60 -->
<g id="node24" class="node">
<title>Node60</title>
<g id="a_node24"><a xlink:href="classflow_1_1net__flow_1_1Node.html#aae148cec361b59237996a4b30c6624b5" target="_top" xlink:title="Returns true if and only if the Node is operating.">
<polygon fill="white" stroke="black" points="286.5,-289.5 286.5,-315.5 387.5,-315.5 387.5,-289.5 286.5,-289.5"/>
<text text-anchor="start" x="294.5" y="-305.1" font-family="Helvetica,sans-Serif" font-size="8.00">flow::net_flow::Node</text>
<text text-anchor="middle" x="337" y="-296.1" font-family="Helvetica,sans-Serif" font-size="8.00">::running</text>
</a>
</g>
</g>
<!-- Node3&#45;&gt;Node60 -->
<g id="edge31" class="edge">
<title>Node3&#45;&gt;Node60</title>
<path fill="none" stroke="midnightblue" d="M239.18,-331.44C252.93,-327.33 268.27,-322.75 282.61,-318.46"/>
<polygon fill="midnightblue" stroke="midnightblue" points="283.76,-321.77 292.34,-315.55 281.76,-315.06 283.76,-321.77"/>
</g>
<!-- Node5 -->
<g id="node5" class="node">
<title>Node5</title>
<g id="a_node5"><a xlink:href="classflow_1_1net__flow_1_1Node.html#ade49e7bc7202a0adf33fec2d93d1b177" target="_top" xlink:title="A thread W method that handles the transition of the given socket from OPEN (any sub&#45;state) to CLOSED...">
<polygon fill="white" stroke="black" points="759,-264.5 759,-290.5 907,-290.5 907,-264.5 759,-264.5"/>
<text text-anchor="start" x="767" y="-280.1" font-family="Helvetica,sans-Serif" font-size="8.00">flow::net_flow::Node</text>
<text text-anchor="middle" x="833" y="-271.1" font-family="Helvetica,sans-Serif" font-size="8.00">::close_connection_immediately</text>
</a>
</g>
</g>
<!-- Node4&#45;&gt;Node5 -->
<g id="edge4" class="edge">
<title>Node4&#45;&gt;Node5</title>
<path fill="none" stroke="midnightblue" d="M715.59,-280.15C726.2,-279.9 737.43,-279.65 748.56,-279.4"/>
<polygon fill="midnightblue" stroke="midnightblue" points="748.82,-282.89 758.74,-279.17 748.66,-275.89 748.82,-282.89"/>
</g>
<!-- Node41 -->
<g id="node18" class="node">
<title>Node41</title>
<g id="a_node18"><a xlink:href="classflow_1_1net__flow_1_1Node.html#a99836ffb51eaefa4d2cc21770461cd97" target="_top" xlink:title="Constructs the socket pair (connection ID) for the given socket.">
<polygon fill="white" stroke="black" points="961,-444.5 961,-470.5 1062,-470.5 1062,-444.5 961,-444.5"/>
<text text-anchor="start" x="969" y="-460.1" font-family="Helvetica,sans-Serif" font-size="8.00">flow::net_flow::Node</text>
<text text-anchor="middle" x="1011.5" y="-451.1" font-family="Helvetica,sans-Serif" font-size="8.00">::socket_id</text>
</a>
</g>
</g>
<!-- Node4&#45;&gt;Node41 -->
<g id="edge19" class="edge">
<title>Node4&#45;&gt;Node41</title>
<path fill="none" stroke="midnightblue" d="M715.59,-291.35C770.46,-302.98 851.53,-326.97 907,-373.5 931.41,-393.98 918.22,-415.47 943,-435.5 945.72,-437.7 948.66,-439.68 951.75,-441.46"/>
<polygon fill="midnightblue" stroke="midnightblue" points="950.25,-444.63 960.76,-445.99 953.4,-438.37 950.25,-444.63"/>
</g>
<!-- Node6 -->
<g id="node6" class="node">
<title>Node6</title>
<g id="a_node6"><a xlink:href="classflow_1_1net__flow_1_1Node.html#a3f9cf4d7160b3e27b3b0131fc4507ce7" target="_top" xlink:title="Cancel any timers and scheduled tasks active in the given socket.">
<polygon fill="white" stroke="red" points="961,-354.5 961,-380.5 1062,-380.5 1062,-354.5 961,-354.5"/>
<text text-anchor="start" x="969" y="-370.1" font-family="Helvetica,sans-Serif" font-size="8.00">flow::net_flow::Node</text>
<text text-anchor="middle" x="1011.5" y="-361.1" font-family="Helvetica,sans-Serif" font-size="8.00">::cancel_timers</text>
</a>
</g>
</g>
<!-- Node5&#45;&gt;Node6 -->
<g id="edge5" class="edge">
<title>Node5&#45;&gt;Node6</title>
<path fill="none" stroke="midnightblue" d="M852.57,-290.7C873.71,-305.29 909.64,-328.8 943,-344.5 947.71,-346.72 952.69,-348.82 957.73,-350.8"/>
<polygon fill="midnightblue" stroke="midnightblue" points="956.85,-354.21 967.44,-354.43 959.3,-347.65 956.85,-354.21"/>
</g>
<!-- Node9 -->
<g id="node8" class="node">
<title>Node9</title>
<g id="a_node8"><a xlink:href="classflow_1_1net__flow_1_1Node.html#a8a4ddf81ddbeab1f740940c4cc0d3625" target="_top" xlink:title="For each WAITING Event_set within the Node: checks for any events that hold, and if any do hold,...">
<polygon fill="white" stroke="red" points="947.5,-180.5 947.5,-206.5 1075.5,-206.5 1075.5,-180.5 947.5,-180.5"/>
<text text-anchor="start" x="955.5" y="-196.1" font-family="Helvetica,sans-Serif" font-size="8.00">flow::net_flow::Node</text>
<text text-anchor="middle" x="1011.5" y="-187.1" font-family="Helvetica,sans-Serif" font-size="8.00">::event_set_all_check_delta</text>
</a>
</g>
</g>
<!-- Node5&#45;&gt;Node9 -->
<g id="edge7" class="edge">
<title>Node5&#45;&gt;Node9</title>
<path fill="none" stroke="midnightblue" d="M857.97,-264.47C879.87,-252.74 913.27,-235.27 943,-221.5 951.03,-217.78 959.69,-214.01 968.05,-210.49"/>
<polygon fill="midnightblue" stroke="midnightblue" points="969.42,-213.71 977.31,-206.64 966.73,-207.25 969.42,-213.71"/>
</g>
<!-- Node22 -->
<g id="node9" class="node">
<title>Node22</title>
<g id="a_node9"><a xlink:href="classflow_1_1util_1_1Linked__hash__map.html#aae7a4a3047c90f0ab26ae1a4ec7b9963" target="_top" xlink:title="Attempts to insert the given key/mapped&#45;value pair into the map.">
<polygon fill="white" stroke="black" points="965.5,-135.5 965.5,-161.5 1057.5,-161.5 1057.5,-135.5 965.5,-135.5"/>
<text text-anchor="start" x="973.5" y="-151.1" font-family="Helvetica,sans-Serif" font-size="8.00">flow::util::Linked</text>
<text text-anchor="middle" x="1011.5" y="-142.1" font-family="Helvetica,sans-Serif" font-size="8.00">_hash_map::insert</text>
</a>
</g>
</g>
<!-- Node5&#45;&gt;Node22 -->
<g id="edge8" class="edge">
<title>Node5&#45;&gt;Node22</title>
<path fill="none" stroke="midnightblue" d="M843.97,-264.34C861.58,-241.95 900.38,-196.37 943,-170.5 947.07,-168.03 951.44,-165.81 955.94,-163.81"/>
<polygon fill="midnightblue" stroke="midnightblue" points="957.33,-167.02 965.28,-160.02 954.7,-160.54 957.33,-167.02"/>
</g>
<!-- Node23 -->
<g id="node10" class="node">
<title>Node23</title>
<g id="a_node10"><a xlink:href="classflow_1_1net__flow_1_1Port__space.html#a9fe1be917ff7584ff587b5da5967127a" target="_top" xlink:title="Return a previously reserved port (of any type).">
<polygon fill="white" stroke="red" points="963.5,-90.5 963.5,-116.5 1059.5,-116.5 1059.5,-90.5 963.5,-90.5"/>
<text text-anchor="start" x="971.5" y="-106.1" font-family="Helvetica,sans-Serif" font-size="8.00">flow::net_flow::Port</text>
<text text-anchor="middle" x="1011.5" y="-97.1" font-family="Helvetica,sans-Serif" font-size="8.00">_space::return_port</text>
</a>
</g>
</g>
<!-- Node5&#45;&gt;Node23 -->
<g id="edge9" class="edge">
<title>Node5&#45;&gt;Node23</title>
<path fill="none" stroke="midnightblue" d="M839.84,-264.37C853.54,-235.06 890.59,-163.86 943,-125.5 946.41,-123 950.12,-120.78 953.99,-118.8"/>
<polygon fill="midnightblue" stroke="midnightblue" points="955.56,-121.93 963.23,-114.62 952.68,-115.55 955.56,-121.93"/>
</g>
<!-- Node26 -->
<g id="node11" class="node">
<title>Node26</title>
<g id="a_node11"><a xlink:href="classflow_1_1net__flow_1_1Node.html#a8a6c02bf520a16df4028bd3c88732a8d" target="_top" xlink:title="Records that a Server_socket&#45;contained (i.e., currently un&#45;established, or established but not yet ac...">
<polygon fill="white" stroke="black" points="949.5,-45.5 949.5,-71.5 1073.5,-71.5 1073.5,-45.5 949.5,-45.5"/>
<text text-anchor="start" x="957.5" y="-61.1" font-family="Helvetica,sans-Serif" font-size="8.00">flow::net_flow::Node</text>
<text text-anchor="middle" x="1011.5" y="-52.1" font-family="Helvetica,sans-Serif" font-size="8.00">::serv_peer_socket_closed</text>
</a>
</g>
</g>
<!-- Node5&#45;&gt;Node26 -->
<g id="edge10" class="edge">
<title>Node5&#45;&gt;Node26</title>
<path fill="none" stroke="midnightblue" d="M837.59,-264.27C847.85,-229.03 880.61,-132.02 943,-80.5 944.74,-79.07 946.57,-77.72 948.48,-76.47"/>
<polygon fill="midnightblue" stroke="midnightblue" points="950.27,-79.48 957.24,-71.5 946.81,-73.39 950.27,-79.48"/>
</g>
<!-- Node27 -->
<g id="node12" class="node">
<title>Node27</title>
<g id="a_node12"><a xlink:href="classflow_1_1net__flow_1_1Node.html#ade529b5452c9fe363ae468346e662ceb" target="_top" xlink:title="While in S_OPEN+S_DISCONNECTING state (i.e., after beginning a graceful close with sock_disconnect_de...">
<polygon fill="white" stroke="red" points="943,-399.5 943,-425.5 1080,-425.5 1080,-399.5 943,-399.5"/>
<text text-anchor="start" x="951" y="-415.1" font-family="Helvetica,sans-Serif" font-size="8.00">flow::net_flow::Node</text>
<text text-anchor="middle" x="1011.5" y="-406.1" font-family="Helvetica,sans-Serif" font-size="8.00">::sock_disconnect_completed</text>
</a>
</g>
</g>
<!-- Node5&#45;&gt;Node27 -->
<g id="edge11" class="edge">
<title>Node5&#45;&gt;Node27</title>
<path fill="none" stroke="midnightblue" d="M856.59,-290.53C872.04,-300.2 892.3,-314.45 907,-330.5 928.01,-353.43 918.68,-371.12 943,-390.5 944.76,-391.9 946.62,-393.22 948.54,-394.45"/>
<polygon fill="midnightblue" stroke="midnightblue" points="946.92,-397.56 957.36,-399.34 950.32,-391.43 946.92,-397.56"/>
</g>
<!-- Node30 -->
<g id="node13" class="node">
<title>Node30</title>
<g id="a_node13"><a xlink:href="classflow_1_1net__flow_1_1Node.html#ada9357f6ce9d5fc249b1cc176afdc471" target="_top" xlink:title="Records that thread W shows underlying connection is broken (graceful termination,...">
<polygon fill="white" stroke="red" points="946,-309.5 946,-335.5 1077,-335.5 1077,-309.5 946,-309.5"/>
<text text-anchor="start" x="954" y="-325.1" font-family="Helvetica,sans-Serif" font-size="8.00">flow::net_flow::Node</text>
<text text-anchor="middle" x="1011.5" y="-316.1" font-family="Helvetica,sans-Serif" font-size="8.00">::sock_disconnect_detected</text>
</a>
</g>
</g>
<!-- Node5&#45;&gt;Node30 -->
<g id="edge12" class="edge">
<title>Node5&#45;&gt;Node30</title>
<path fill="none" stroke="midnightblue" d="M885.05,-290.52C905.18,-295.65 928.47,-301.58 949.47,-306.94"/>
<polygon fill="midnightblue" stroke="midnightblue" points="948.7,-310.36 959.26,-309.44 950.43,-303.57 948.7,-310.36"/>
</g>
<!-- Node31 -->
<g id="node14" class="node">
<title>Node31</title>
<g id="a_node14"><a xlink:href="classflow_1_1net__flow_1_1Node.html#a2336fae98b318ab73e7268e9a242bf09" target="_top" xlink:title="Given a Peer_socket, copies all stats info (as available via Peer_socket::info()) from various struct...">
<polygon fill="white" stroke="red" points="1116,-222.5 1116,-248.5 1226,-248.5 1226,-222.5 1116,-222.5"/>
<text text-anchor="start" x="1124" y="-238.1" font-family="Helvetica,sans-Serif" font-size="8.00">flow::net_flow::Node</text>
<text text-anchor="middle" x="1171" y="-229.1" font-family="Helvetica,sans-Serif" font-size="8.00">::sock_load_info_struct</text>
</a>
</g>
</g>
<!-- Node5&#45;&gt;Node31 -->
<g id="edge13" class="edge">
<title>Node5&#45;&gt;Node31</title>
<path fill="none" stroke="midnightblue" d="M889.21,-264.46C906.37,-260.78 925.4,-257.08 943,-254.5 997.57,-246.49 1060.04,-241.57 1105.62,-238.75"/>
<polygon fill="midnightblue" stroke="midnightblue" points="1105.89,-242.24 1115.66,-238.14 1105.47,-235.25 1105.89,-242.24"/>
</g>
<!-- Node34 -->
<g id="node16" class="node">
<title>Node34</title>
<g id="a_node16"><a xlink:href="classflow_1_1net__flow_1_1Node.html#a755c329b9e0f2b8edb2e5b900bd2a337" target="_top" xlink:title="Logs a verbose state report for the given socket.">
<polygon fill="white" stroke="red" points="961,-0.5 961,-26.5 1062,-26.5 1062,-0.5 961,-0.5"/>
<text text-anchor="start" x="969" y="-16.1" font-family="Helvetica,sans-Serif" font-size="8.00">flow::net_flow::Node</text>
<text text-anchor="middle" x="1011.5" y="-7.1" font-family="Helvetica,sans-Serif" font-size="8.00">::sock_log_detail</text>
</a>
</g>
</g>
<!-- Node5&#45;&gt;Node34 -->
<g id="edge15" class="edge">
<title>Node5&#45;&gt;Node34</title>
<path fill="none" stroke="midnightblue" d="M836.11,-264.29C843.26,-223.89 870.29,-100.74 943,-35.5 945.65,-33.12 948.56,-31 951.64,-29.11"/>
<polygon fill="midnightblue" stroke="midnightblue" points="953.46,-32.11 960.68,-24.36 950.2,-25.91 953.46,-32.11"/>
</g>
<!-- Node40 -->
<g id="node17" class="node">
<title>Node40</title>
<g id="a_node17"><a xlink:href="classflow_1_1net__flow_1_1Node.html#aa1d9656e9e1480021c87530ec6dbebbe" target="_top" xlink:title="Sets internal state of given socket to the given state and logs a TRACE message about it.">
<polygon fill="white" stroke="black" points="961,-264.5 961,-290.5 1062,-290.5 1062,-264.5 961,-264.5"/>
<text text-anchor="start" x="969" y="-280.1" font-family="Helvetica,sans-Serif" font-size="8.00">flow::net_flow::Node</text>
<text text-anchor="middle" x="1011.5" y="-271.1" font-family="Helvetica,sans-Serif" font-size="8.00">::sock_set_int_state</text>
</a>
</g>
</g>
<!-- Node5&#45;&gt;Node40 -->
<g id="edge17" class="edge">
<title>Node5&#45;&gt;Node40</title>
<path fill="none" stroke="midnightblue" d="M907.06,-277.5C921.64,-277.5 936.79,-277.5 950.85,-277.5"/>
<polygon fill="midnightblue" stroke="midnightblue" points="950.87,-281 960.87,-277.5 950.87,-274 950.87,-281"/>
</g>
<!-- Node5&#45;&gt;Node41 -->
<g id="edge18" class="edge">
<title>Node5&#45;&gt;Node41</title>
<path fill="none" stroke="midnightblue" d="M859.44,-290.64C875.11,-299.89 894.52,-313.62 907,-330.5 936.33,-370.17 907.85,-400.88 943,-435.5 945.71,-438.16 948.74,-440.51 951.98,-442.57"/>
<polygon fill="midnightblue" stroke="midnightblue" points="950.5,-445.74 960.96,-447.38 953.8,-439.57 950.5,-445.74"/>
</g>
<!-- Node7 -->
<g id="node7" class="node">
<title>Node7</title>
<g id="a_node7"><a xlink:href="classflow_1_1log_1_1Log__context.html#af4db395042b065b00398cd59845dcb4d" target="_top" xlink:title="Returns the stored Logger pointer, particularly as many FLOW_LOG_*() macros expect.">
<polygon fill="white" stroke="black" points="1117.5,-418.5 1117.5,-444.5 1224.5,-444.5 1224.5,-418.5 1117.5,-418.5"/>
<text text-anchor="start" x="1125.5" y="-434.1" font-family="Helvetica,sans-Serif" font-size="8.00">flow::log::Log_context</text>
<text text-anchor="middle" x="1171" y="-425.1" font-family="Helvetica,sans-Serif" font-size="8.00">::get_logger</text>
</a>
</g>
</g>
<!-- Node6&#45;&gt;Node7 -->
<g id="edge6" class="edge">
<title>Node6&#45;&gt;Node7</title>
<path fill="none" stroke="midnightblue" d="M1053.07,-380.6C1062,-383.68 1071.37,-387.07 1080,-390.5 1098.01,-397.65 1117.63,-406.46 1133.94,-414.08"/>
<polygon fill="midnightblue" stroke="midnightblue" points="1132.59,-417.32 1143.13,-418.41 1135.57,-410.98 1132.59,-417.32"/>
</g>
<!-- Node33 -->
<g id="node15" class="node">
<title>Node33</title>
<g id="a_node15"><a xlink:href="classflow_1_1net__flow_1_1Node.html#ac397d3fd163f1456b7bb370a3cff951c" target="_top" xlink:title="Computes and returns the currently correct rcv_wnd value; that is the amount of space free in Receive...">
<polygon fill="white" stroke="black" points="1262,-524.5 1262,-550.5 1363,-550.5 1363,-524.5 1262,-524.5"/>
<text text-anchor="start" x="1270" y="-540.1" font-family="Helvetica,sans-Serif" font-size="8.00">flow::net_flow::Node</text>
<text text-anchor="middle" x="1312.5" y="-531.1" font-family="Helvetica,sans-Serif" font-size="8.00">::sock_rcv_wnd</text>
</a>
</g>
</g>
<!-- Node31&#45;&gt;Node33 -->
<g id="edge14" class="edge">
<title>Node31&#45;&gt;Node33</title>
<path fill="none" stroke="midnightblue" d="M1178.17,-248.87C1200.01,-296.13 1273.72,-455.71 1301.12,-515.04"/>
<polygon fill="midnightblue" stroke="midnightblue" points="1298.03,-516.68 1305.4,-524.29 1304.38,-513.74 1298.03,-516.68"/>
</g>
<!-- Node34&#45;&gt;Node31 -->
<g id="edge16" class="edge">
<title>Node34&#45;&gt;Node31</title>
<path fill="none" stroke="midnightblue" d="M1062.32,-24.36C1068.74,-27.24 1074.86,-30.89 1080,-35.5 1133.97,-83.95 1157.45,-171.02 1165.94,-212.42"/>
<polygon fill="midnightblue" stroke="midnightblue" points="1162.53,-213.22 1167.86,-222.37 1169.4,-211.88 1162.53,-213.22"/>
</g>
<!-- Node42&#45;&gt;Node33 -->
<g id="edge30" class="edge">
<title>Node42&#45;&gt;Node33</title>
<path fill="none" stroke="midnightblue" d="M356.2,-461.61C403.07,-494.06 532.79,-575.5 654,-575.5 654,-575.5 654,-575.5 1012.5,-575.5 1095.97,-575.5 1191.52,-560.74 1251.68,-549.62"/>
<polygon fill="midnightblue" stroke="midnightblue" points="1252.57,-553.02 1261.75,-547.73 1251.28,-546.14 1252.57,-553.02"/>
</g>
<!-- Node43 -->
<g id="node20" class="node">
<title>Node43</title>
<g id="a_node20"><a xlink:href="classflow_1_1net__flow_1_1Node.html#a192d4b95b9f8a5c3d08b1e5486eb6f78" target="_top" xlink:title="receive_wnd_updated() helper that continues rcv_wnd recovery: that is, sends unsolicited ACK with a r...">
<polygon fill="white" stroke="black" points="429,-435.5 429,-461.5 551,-461.5 551,-435.5 429,-435.5"/>
<text text-anchor="start" x="437" y="-451.1" font-family="Helvetica,sans-Serif" font-size="8.00">flow::net_flow::Node</text>
<text text-anchor="middle" x="490" y="-442.1" font-family="Helvetica,sans-Serif" font-size="8.00">::async_rcv_wnd_recovery</text>
</a>
</g>
</g>
<!-- Node42&#45;&gt;Node43 -->
<g id="edge21" class="edge">
<title>Node42&#45;&gt;Node43</title>
<path fill="none" stroke="midnightblue" d="M393.37,-448.5C401.57,-448.5 410.11,-448.5 418.56,-448.5"/>
<polygon fill="midnightblue" stroke="midnightblue" points="418.8,-452 428.8,-448.5 418.8,-445 418.8,-452"/>
</g>
<!-- Node43&#45;&gt;Node7 -->
<g id="edge26" class="edge">
<title>Node43&#45;&gt;Node7</title>
<path fill="none" stroke="midnightblue" d="M521.92,-461.63C540.43,-468.77 564.63,-476.87 587,-480.5 803.28,-515.6 867.66,-534.56 1080,-480.5 1103.05,-474.63 1126.57,-461.53 1143.78,-450.35"/>
<polygon fill="midnightblue" stroke="midnightblue" points="1145.82,-453.2 1152.18,-444.72 1141.92,-447.38 1145.82,-453.2"/>
</g>
<!-- Node43&#45;&gt;Node33 -->
<g id="edge29" class="edge">
<title>Node43&#45;&gt;Node33</title>
<path fill="none" stroke="midnightblue" d="M507.98,-461.51C526.39,-474.89 557.14,-495.18 587,-505.5 690.79,-541.38 722.19,-537.5 832,-537.5 832,-537.5 832,-537.5 1012.5,-537.5 1095.43,-537.5 1191.3,-537.5 1251.66,-537.5"/>
<polygon fill="midnightblue" stroke="midnightblue" points="1251.77,-541 1261.77,-537.5 1251.77,-534 1251.77,-541"/>
</g>
<!-- Node43&#45;&gt;Node43 -->
<g id="edge22" class="edge">
<title>Node43&#45;&gt;Node43</title>
<path fill="none" stroke="midnightblue" d="M464.28,-461.77C456.49,-470.96 465.06,-480 490,-480 505.2,-480 514.32,-476.64 517.36,-471.94"/>
<polygon fill="midnightblue" stroke="midnightblue" points="520.77,-471.09 515.72,-461.77 513.85,-472.2 520.77,-471.09"/>
</g>
<!-- Node44 -->
<g id="node21" class="node">
<title>Node44</title>
<g id="a_node21"><a xlink:href="classflow_1_1net__flow_1_1Node.html#aa5f7c019665d9dd91af0ad6431f8f97d" target="_top" xlink:title="Similar to async_sock_low_lvl_packet_send_paced() except it also calls close_connection_immediately(s...">
<polygon fill="white" stroke="red" points="600,-318.5 600,-362.5 710,-362.5 710,-318.5 600,-318.5"/>
<text text-anchor="start" x="608" y="-352.1" font-family="Helvetica,sans-Serif" font-size="8.00">flow::net_flow::Node</text>
<text text-anchor="start" x="608" y="-343.1" font-family="Helvetica,sans-Serif" font-size="8.00">::async_sock_low_lvl</text>
<text text-anchor="start" x="608" y="-334.1" font-family="Helvetica,sans-Serif" font-size="8.00">_packet_send_or_close</text>
<text text-anchor="middle" x="655" y="-325.1" font-family="Helvetica,sans-Serif" font-size="8.00">_immediately</text>
</a>
</g>
</g>
<!-- Node43&#45;&gt;Node44 -->
<g id="edge23" class="edge">
<title>Node43&#45;&gt;Node44</title>
<path fill="none" stroke="midnightblue" d="M505.13,-435.32C523.16,-418.96 555.76,-390.85 587,-371.5 589.19,-370.14 591.45,-368.81 593.76,-367.5"/>
<polygon fill="midnightblue" stroke="midnightblue" points="595.7,-370.43 602.83,-362.59 592.37,-364.27 595.7,-370.43"/>
</g>
<!-- Node56 -->
<g id="node22" class="node">
<title>Node56</title>
<g id="a_node22"><a xlink:href="classflow_1_1util_1_1Shared__ptr__alias__holder.html#a55a247bb8fb2ec94b7cbfdd56be65a81" target="_top" xlink:title="Provides syntactic&#45;sugary way to perform a static_pointer_cast&lt;&gt; from a compatible smart pointer type...">
<polygon fill="white" stroke="black" points="587,-426.5 587,-470.5 723,-470.5 723,-426.5 587,-426.5"/>
<text text-anchor="start" x="595" y="-460.1" font-family="Helvetica,sans-Serif" font-size="8.00">flow::util::Shared</text>
<text text-anchor="start" x="595" y="-451.1" font-family="Helvetica,sans-Serif" font-size="8.00">_ptr_alias_holder&lt; boost</text>
<text text-anchor="start" x="595" y="-442.1" font-family="Helvetica,sans-Serif" font-size="8.00">::shared_ptr&lt; Low_lvl_packet</text>
<text text-anchor="middle" x="655" y="-433.1" font-family="Helvetica,sans-Serif" font-size="8.00"> &gt; &gt;::ptr_cast</text>
</a>
</g>
</g>
<!-- Node43&#45;&gt;Node56 -->
<g id="edge27" class="edge">
<title>Node43&#45;&gt;Node56</title>
<path fill="none" stroke="midnightblue" d="M551.23,-448.5C559.58,-448.5 568.24,-448.5 576.84,-448.5"/>
<polygon fill="midnightblue" stroke="midnightblue" points="576.88,-452 586.88,-448.5 576.88,-445 576.88,-452"/>
</g>
<!-- Node57 -->
<g id="node23" class="node">
<title>Node57</title>
<g id="a_node23"><a xlink:href="namespaceflow_1_1util.html#a74d4a66fb00055be4e1bd6ee98e04667" target="_top" xlink:title="Schedule the given function to execute in a certain amount of time: A handy wrapper around Timer (asi...">
<polygon fill="white" stroke="red" points="607.5,-381.5 607.5,-407.5 702.5,-407.5 702.5,-381.5 607.5,-381.5"/>
<text text-anchor="start" x="615.5" y="-397.1" font-family="Helvetica,sans-Serif" font-size="8.00">flow::util::schedule</text>
<text text-anchor="middle" x="655" y="-388.1" font-family="Helvetica,sans-Serif" font-size="8.00">_task_from_now</text>
</a>
</g>
</g>
<!-- Node43&#45;&gt;Node57 -->
<g id="edge28" class="edge">
<title>Node43&#45;&gt;Node57</title>
<path fill="none" stroke="midnightblue" d="M530.46,-435.43C552.9,-427.99 581.2,-418.62 605.05,-410.72"/>
<polygon fill="midnightblue" stroke="midnightblue" points="606.23,-414.01 614.62,-407.54 604.03,-407.37 606.23,-414.01"/>
</g>
<!-- Node44&#45;&gt;Node5 -->
<g id="edge24" class="edge">
<title>Node44&#45;&gt;Node5</title>
<path fill="none" stroke="midnightblue" d="M710.24,-321.08C734.46,-312.42 762.69,-302.31 785.87,-294.01"/>
<polygon fill="midnightblue" stroke="midnightblue" points="787.24,-297.24 795.47,-290.58 784.88,-290.65 787.24,-297.24"/>
</g>
<!-- Node44&#45;&gt;Node41 -->
<g id="edge25" class="edge">
<title>Node44&#45;&gt;Node41</title>
<path fill="none" stroke="midnightblue" d="M710.2,-358.52C767.88,-377.68 861.85,-408.84 943,-435.5 948.63,-437.35 954.52,-439.28 960.38,-441.19"/>
<polygon fill="midnightblue" stroke="midnightblue" points="959.56,-444.61 970.16,-444.38 961.74,-437.95 959.56,-444.61"/>
</g>
</g>
</svg>
