<?xml version="1.0" encoding="UTF-8" standalone="no"?>
<!DOCTYPE svg PUBLIC "-//W3C//DTD SVG 1.1//EN"
 "http://www.w3.org/Graphics/SVG/1.1/DTD/svg11.dtd">
<!-- Generated by graphviz version 2.43.0 (0)
 -->
<!-- Title: flow::util::Linked_hash_map::insert Pages: 1 -->
<svg width="1232pt" height="524pt"
 viewBox="0.00 0.00 1232.00 524.00" xmlns="http://www.w3.org/2000/svg" xmlns:xlink="http://www.w3.org/1999/xlink">
<g id="graph0" class="graph" transform="scale(1 1) rotate(0) translate(4 520)">
<title>flow::util::Linked_hash_map::insert</title>
<polygon fill="white" stroke="transparent" points="-4,4 -4,-520 1228,-520 1228,4 -4,4"/>
<!-- Node1 -->
<g id="node1" class="node">
<title>Node1</title>
<g id="a_node1"><a xlink:title="Attempts to insert the given key/mapped&#45;value pair into the map.">
<polygon fill="#bfbfbf" stroke="black" points="1132,-189.5 1132,-215.5 1224,-215.5 1224,-189.5 1132,-189.5"/>
<text text-anchor="start" x="1140" y="-205.1" font-family="Helvetica,sans-Serif" font-size="8.00">flow::util::Linked</text>
<text text-anchor="middle" x="1178" y="-196.1" font-family="Helvetica,sans-Serif" font-size="8.00">_hash_map::insert</text>
</a>
</g>
</g>
<!-- Node2 -->
<g id="node2" class="node">
<title>Node2</title>
<g id="a_node2"><a xlink:href="classflow_1_1net__flow_1_1Node.html#ade49e7bc7202a0adf33fec2d93d1b177" target="_top" xlink:title="A thread W method that handles the transition of the given socket from OPEN (any sub&#45;state) to CLOSED...">
<polygon fill="white" stroke="black" points="948,-189.5 948,-215.5 1096,-215.5 1096,-189.5 948,-189.5"/>
<text text-anchor="start" x="956" y="-205.1" font-family="Helvetica,sans-Serif" font-size="8.00">flow::net_flow::Node</text>
<text text-anchor="middle" x="1022" y="-196.1" font-family="Helvetica,sans-Serif" font-size="8.00">::close_connection_immediately</text>
</a>
</g>
</g>
<!-- Node1&#45;&gt;Node2 -->
<g id="edge1" class="edge">
<title>Node1&#45;&gt;Node2</title>
<path fill="none" stroke="midnightblue" d="M1121.42,-202.5C1113.18,-202.5 1104.59,-202.5 1096.07,-202.5"/>
<polygon fill="midnightblue" stroke="midnightblue" points="1121.63,-206 1131.63,-202.5 1121.63,-199 1121.63,-206"/>
</g>
<!-- Node3 -->
<g id="node3" class="node">
<title>Node3</title>
<g id="a_node3"><a xlink:href="classflow_1_1net__flow_1_1Node.html#aa5f7c019665d9dd91af0ad6431f8f97d" target="_top" xlink:title="Similar to async_sock_low_lvl_packet_send_paced() except it also calls close_connection_immediately(s...">
<polygon fill="white" stroke="black" points="793,-358.5 793,-402.5 903,-402.5 903,-358.5 793,-358.5"/>
<text text-anchor="start" x="801" y="-392.1" font-family="Helvetica,sans-Serif" font-size="8.00">flow::net_flow::Node</text>
<text text-anchor="start" x="801" y="-383.1" font-family="Helvetica,sans-Serif" font-size="8.00">::async_sock_low_lvl</text>
<text text-anchor="start" x="801" y="-374.1" font-family="Helvetica,sans-Serif" font-size="8.00">_packet_send_or_close</text>
<text text-anchor="middle" x="848" y="-365.1" font-family="Helvetica,sans-Serif" font-size="8.00">_immediately</text>
</a>
</g>
</g>
<!-- Node2&#45;&gt;Node3 -->
<g id="edge2" class="edge">
<title>Node2&#45;&gt;Node3</title>
<path fill="none" stroke="midnightblue" d="M1001.16,-223.04C968.53,-256.8 903.84,-323.75 870.29,-358.46"/>
<polygon fill="midnightblue" stroke="midnightblue" points="1003.92,-225.21 1008.35,-215.59 998.89,-220.35 1003.92,-225.21"/>
</g>
<!-- Node27 -->
<g id="node12" class="node">
<title>Node27</title>
<g id="a_node12"><a xlink:href="classflow_1_1net__flow_1_1Node.html#a1699dfdaf3e5ebe1b1d715a9c306d116" target="_top" xlink:title="Handles a just&#45;received, not&#45;yet&#45;deserialized low&#45;level packet.">
<polygon fill="white" stroke="black" points="298,-176.5 298,-202.5 399,-202.5 399,-176.5 298,-176.5"/>
<text text-anchor="start" x="306" y="-192.1" font-family="Helvetica,sans-Serif" font-size="8.00">flow::net_flow::Node</text>
<text text-anchor="middle" x="348.5" y="-183.1" font-family="Helvetica,sans-Serif" font-size="8.00">::handle_incoming</text>
</a>
</g>
</g>
<!-- Node2&#45;&gt;Node27 -->
<g id="edge12" class="edge">
<title>Node2&#45;&gt;Node27</title>
<path fill="none" stroke="midnightblue" d="M937.51,-200.88C796.13,-198.15 513.79,-192.68 399.37,-190.47"/>
<polygon fill="midnightblue" stroke="midnightblue" points="937.79,-204.39 947.86,-201.08 937.93,-197.39 937.79,-204.39"/>
</g>
<!-- Node33 -->
<g id="node15" class="node">
<title>Node33</title>
<g id="a_node15"><a xlink:href="classflow_1_1net__flow_1_1Node.html#ad608f9bbe76426f4fbf4bf5af908e4e0" target="_top" xlink:title="Placed by receive() onto W during a graceful close, after the Receive buffer had been emptied by the ...">
<polygon fill="white" stroke="black" points="787.5,-231 787.5,-266 908.5,-266 908.5,-231 787.5,-231"/>
<text text-anchor="start" x="795.5" y="-255.6" font-family="Helvetica,sans-Serif" font-size="8.00">flow::net_flow::Node</text>
<text text-anchor="start" x="795.5" y="-246.6" font-family="Helvetica,sans-Serif" font-size="8.00">::receive_emptied_rcv</text>
<text text-anchor="middle" x="848" y="-237.6" font-family="Helvetica,sans-Serif" font-size="8.00">_buf_while_disconnecting</text>
</a>
</g>
</g>
<!-- Node2&#45;&gt;Node33 -->
<g id="edge17" class="edge">
<title>Node2&#45;&gt;Node33</title>
<path fill="none" stroke="midnightblue" d="M962.21,-218.22C944.92,-222.85 926,-227.91 908.66,-232.55"/>
<polygon fill="midnightblue" stroke="midnightblue" points="963.42,-221.52 972.17,-215.56 961.61,-214.76 963.42,-221.52"/>
</g>
<!-- Node34 -->
<g id="node16" class="node">
<title>Node34</title>
<g id="a_node16"><a xlink:href="classflow_1_1net__flow_1_1Node.html#afe70a0c32695e417e7a09e0ba773f151" target="_top" xlink:title="Asynchronously send RST to the other side of the given socket and close_connection_immediately().">
<polygon fill="white" stroke="black" points="784,-120 784,-155 912,-155 912,-120 784,-120"/>
<text text-anchor="start" x="792" y="-144.6" font-family="Helvetica,sans-Serif" font-size="8.00">flow::net_flow::Node</text>
<text text-anchor="start" x="792" y="-135.6" font-family="Helvetica,sans-Serif" font-size="8.00">::rst_and_close_connection</text>
<text text-anchor="middle" x="848" y="-126.6" font-family="Helvetica,sans-Serif" font-size="8.00">_immediately</text>
</a>
</g>
</g>
<!-- Node2&#45;&gt;Node34 -->
<g id="edge19" class="edge">
<title>Node2&#45;&gt;Node34</title>
<path fill="none" stroke="midnightblue" d="M976.63,-185.73C951.74,-176.33 920.72,-164.6 895.5,-155.07"/>
<polygon fill="midnightblue" stroke="midnightblue" points="975.6,-189.09 986.19,-189.35 978.08,-182.54 975.6,-189.09"/>
</g>
<!-- Node32 -->
<g id="node23" class="node">
<title>Node32</title>
<g id="a_node23"><a xlink:href="classflow_1_1net__flow_1_1Node.html#a5b056ed753b832458f44f537acfe86d7" target="_top" xlink:title="Worker thread W (main event loop) body.">
<polygon fill="white" stroke="black" points="797.5,-74.5 797.5,-100.5 898.5,-100.5 898.5,-74.5 797.5,-74.5"/>
<text text-anchor="start" x="805.5" y="-90.1" font-family="Helvetica,sans-Serif" font-size="8.00">flow::net_flow::Node</text>
<text text-anchor="middle" x="848" y="-81.1" font-family="Helvetica,sans-Serif" font-size="8.00">::worker_run</text>
</a>
</g>
</g>
<!-- Node2&#45;&gt;Node32 -->
<g id="edge30" class="edge">
<title>Node2&#45;&gt;Node32</title>
<path fill="none" stroke="midnightblue" d="M1001.16,-181.97C980.49,-161.54 946.38,-130.44 912,-110.5 905.55,-106.76 898.39,-103.45 891.28,-100.6"/>
<polygon fill="midnightblue" stroke="midnightblue" points="998.86,-184.61 1008.4,-189.23 1003.82,-179.67 998.86,-184.61"/>
</g>
<!-- Node4 -->
<g id="node4" class="node">
<title>Node4</title>
<g id="a_node4"><a xlink:href="classflow_1_1net__flow_1_1Node.html#a81e50276d0b162f6577adc690e0ef9e0" target="_top" xlink:title="Sends a low&#45;level ACK packet, with all accumulated in Peer_socket::m_rcv_pending_acks of sock individ...">
<polygon fill="white" stroke="black" points="613.5,-444.5 613.5,-470.5 732.5,-470.5 732.5,-444.5 613.5,-444.5"/>
<text text-anchor="start" x="621.5" y="-460.1" font-family="Helvetica,sans-Serif" font-size="8.00">flow::net_flow::Node</text>
<text text-anchor="middle" x="673" y="-451.1" font-family="Helvetica,sans-Serif" font-size="8.00">::async_low_lvl_ack_send</text>
</a>
</g>
</g>
<!-- Node3&#45;&gt;Node4 -->
<g id="edge3" class="edge">
<title>Node3&#45;&gt;Node4</title>
<path fill="none" stroke="midnightblue" d="M801.8,-407.61C785.24,-416.88 766.1,-426.84 748,-434.5 739.45,-438.12 730.13,-441.46 721.09,-444.4"/>
<polygon fill="midnightblue" stroke="midnightblue" points="803.75,-410.52 810.72,-402.54 800.3,-404.44 803.75,-410.52"/>
</g>
<!-- Node5 -->
<g id="node5" class="node">
<title>Node5</title>
<g id="a_node5"><a xlink:href="classflow_1_1net__flow_1_1Node.html#acaf55766783893827061fd85cab2634f" target="_top" xlink:title="Helper to create, fully fill out, and asynchronously send via async_sock_low_lvl_packet_send_or_close...">
<polygon fill="white" stroke="black" points="598,-390 598,-425 748,-425 748,-390 598,-390"/>
<text text-anchor="start" x="606" y="-414.6" font-family="Helvetica,sans-Serif" font-size="8.00">flow::net_flow::Node</text>
<text text-anchor="start" x="606" y="-405.6" font-family="Helvetica,sans-Serif" font-size="8.00">::async_low_lvl_syn_ack</text>
<text text-anchor="middle" x="673" y="-396.6" font-family="Helvetica,sans-Serif" font-size="8.00">_ack_send_or_close_immediately</text>
</a>
</g>
</g>
<!-- Node3&#45;&gt;Node5 -->
<g id="edge4" class="edge">
<title>Node3&#45;&gt;Node5</title>
<path fill="none" stroke="midnightblue" d="M782.57,-390.55C771.32,-392.31 759.53,-394.15 748.04,-395.94"/>
<polygon fill="midnightblue" stroke="midnightblue" points="783.4,-393.97 792.74,-388.97 782.32,-387.05 783.4,-393.97"/>
</g>
<!-- Node6 -->
<g id="node6" class="node">
<title>Node6</title>
<g id="a_node6"><a xlink:href="classflow_1_1net__flow_1_1Node.html#a192d4b95b9f8a5c3d08b1e5486eb6f78" target="_top" xlink:title="receive_wnd_updated() helper that continues rcv_wnd recovery: that is, sends unsolicited ACK with a r...">
<polygon fill="white" stroke="black" points="612,-272.5 612,-298.5 734,-298.5 734,-272.5 612,-272.5"/>
<text text-anchor="start" x="620" y="-288.1" font-family="Helvetica,sans-Serif" font-size="8.00">flow::net_flow::Node</text>
<text text-anchor="middle" x="673" y="-279.1" font-family="Helvetica,sans-Serif" font-size="8.00">::async_rcv_wnd_recovery</text>
</a>
</g>
</g>
<!-- Node3&#45;&gt;Node6 -->
<g id="edge5" class="edge">
<title>Node3&#45;&gt;Node6</title>
<path fill="none" stroke="midnightblue" d="M797.9,-353.54C765.18,-335.57 723.62,-312.75 697.92,-298.63"/>
<polygon fill="midnightblue" stroke="midnightblue" points="796.43,-356.72 806.88,-358.47 799.79,-350.59 796.43,-356.72"/>
</g>
<!-- Node16 -->
<g id="node9" class="node">
<title>Node16</title>
<g id="a_node9"><a xlink:href="classflow_1_1net__flow_1_1Node.html#addd654cb6b1ccff34ddccbe5226be8f0" target="_top" xlink:title="Handles the triggering of the retransmit timer wait set up by setup_connection_timers(); it will re&#45;s...">
<polygon fill="white" stroke="black" points="608.5,-336 608.5,-371 737.5,-371 737.5,-336 608.5,-336"/>
<text text-anchor="start" x="616.5" y="-360.6" font-family="Helvetica,sans-Serif" font-size="8.00">flow::net_flow::Node</text>
<text text-anchor="start" x="616.5" y="-351.6" font-family="Helvetica,sans-Serif" font-size="8.00">::handle_connection_rexmit</text>
<text text-anchor="middle" x="673" y="-342.6" font-family="Helvetica,sans-Serif" font-size="8.00">_timer_event</text>
</a>
</g>
</g>
<!-- Node3&#45;&gt;Node16 -->
<g id="edge9" class="edge">
<title>Node3&#45;&gt;Node16</title>
<path fill="none" stroke="midnightblue" d="M782.73,-370.47C768.04,-368.18 752.43,-365.74 737.76,-363.45"/>
<polygon fill="midnightblue" stroke="midnightblue" points="782.32,-373.95 792.74,-372.03 783.4,-367.03 782.32,-373.95"/>
</g>
<!-- Node17 -->
<g id="node10" class="node">
<title>Node17</title>
<g id="a_node10"><a xlink:href="classflow_1_1net__flow_1_1Node.html#a10a92f11a2c9f218cdd9a55f282e79b1" target="_top" xlink:title="Thread W implemention of send(): synchronously or asynchronously send the contents of sock&#45;&gt;m_snd_buf...">
<polygon fill="white" stroke="black" points="622.5,-489.5 622.5,-515.5 723.5,-515.5 723.5,-489.5 622.5,-489.5"/>
<text text-anchor="start" x="630.5" y="-505.1" font-family="Helvetica,sans-Serif" font-size="8.00">flow::net_flow::Node</text>
<text text-anchor="middle" x="673" y="-496.1" font-family="Helvetica,sans-Serif" font-size="8.00">::send_worker</text>
</a>
</g>
</g>
<!-- Node3&#45;&gt;Node17 -->
<g id="edge10" class="edge">
<title>Node3&#45;&gt;Node17</title>
<path fill="none" stroke="midnightblue" d="M824.17,-410.66C805.84,-432.93 778.24,-462.39 748,-480.5 740.53,-484.98 732.08,-488.6 723.63,-491.51"/>
<polygon fill="midnightblue" stroke="midnightblue" points="826.94,-412.8 830.49,-402.82 821.49,-408.41 826.94,-412.8"/>
</g>
<!-- Node6&#45;&gt;Node6 -->
<g id="edge6" class="edge">
<title>Node6&#45;&gt;Node6</title>
<path fill="none" stroke="midnightblue" d="M704.57,-308.58C701.37,-313.47 690.84,-317 673,-317 644.45,-317 634.64,-307.96 643.56,-298.77"/>
<polygon fill="midnightblue" stroke="midnightblue" points="707.98,-307.8 702.44,-298.77 701.14,-309.29 707.98,-307.8"/>
</g>
<!-- Node7 -->
<g id="node7" class="node">
<title>Node7</title>
<g id="a_node7"><a xlink:href="classflow_1_1net__flow_1_1Node.html#a08cf95363b26c0c676979437e34db357" target="_top" xlink:title="Placed by receive() onto W if it has dequeued data from Receive buffer and given it to the user,...">
<polygon fill="white" stroke="black" points="442.5,-272.5 442.5,-298.5 554.5,-298.5 554.5,-272.5 442.5,-272.5"/>
<text text-anchor="start" x="450.5" y="-288.1" font-family="Helvetica,sans-Serif" font-size="8.00">flow::net_flow::Node</text>
<text text-anchor="middle" x="498.5" y="-279.1" font-family="Helvetica,sans-Serif" font-size="8.00">::receive_wnd_updated</text>
</a>
</g>
</g>
<!-- Node6&#45;&gt;Node7 -->
<g id="edge7" class="edge">
<title>Node6&#45;&gt;Node7</title>
<path fill="none" stroke="midnightblue" d="M601.52,-285.5C585.88,-285.5 569.52,-285.5 554.6,-285.5"/>
<polygon fill="midnightblue" stroke="midnightblue" points="601.67,-289 611.67,-285.5 601.67,-282 601.67,-289"/>
</g>
<!-- Node8 -->
<g id="node8" class="node">
<title>Node8</title>
<g id="a_node8"><a xlink:href="classflow_1_1net__flow_1_1Node.html#addbb96858fd7b3c9ddd7c6fe8078809c" target="_top" xlink:title="Implementation of non&#45;blocking sock&#45;&gt;receive() for socket sock in all cases except when sock&#45;&gt;state()...">
<polygon fill="white" stroke="red" points="298,-242.5 298,-268.5 399,-268.5 399,-242.5 298,-242.5"/>
<text text-anchor="start" x="306" y="-258.1" font-family="Helvetica,sans-Serif" font-size="8.00">flow::net_flow::Node</text>
<text text-anchor="middle" x="348.5" y="-249.1" font-family="Helvetica,sans-Serif" font-size="8.00">::receive</text>
</a>
</g>
</g>
<!-- Node7&#45;&gt;Node8 -->
<g id="edge8" class="edge">
<title>Node7&#45;&gt;Node8</title>
<path fill="none" stroke="midnightblue" d="M432.32,-272.29C421.24,-270.04 409.89,-267.74 399.28,-265.59"/>
<polygon fill="midnightblue" stroke="midnightblue" points="431.89,-275.77 442.39,-274.33 433.28,-268.91 431.89,-275.77"/>
</g>
<!-- Node18 -->
<g id="node11" class="node">
<title>Node18</title>
<g id="a_node11"><a xlink:href="classflow_1_1net__flow_1_1Node.html#a2565b7c0bd82cad86eb168b62f8ffd9d" target="_top" xlink:title="Helper placed by send() onto W to invoke send_worker() but ensures that the socket has not entered so...">
<polygon fill="white" stroke="red" points="435,-489.5 435,-515.5 562,-515.5 562,-489.5 435,-489.5"/>
<text text-anchor="start" x="443" y="-505.1" font-family="Helvetica,sans-Serif" font-size="8.00">flow::net_flow::Node</text>
<text text-anchor="middle" x="498.5" y="-496.1" font-family="Helvetica,sans-Serif" font-size="8.00">::send_worker_check_state</text>
</a>
</g>
</g>
<!-- Node17&#45;&gt;Node18 -->
<g id="edge11" class="edge">
<title>Node17&#45;&gt;Node18</title>
<path fill="none" stroke="midnightblue" d="M611.78,-502.5C595.73,-502.5 578.36,-502.5 562.18,-502.5"/>
<polygon fill="midnightblue" stroke="midnightblue" points="612.11,-506 622.11,-502.5 612.11,-499 612.11,-506"/>
</g>
<!-- Node28 -->
<g id="node13" class="node">
<title>Node28</title>
<g id="a_node13"><a xlink:href="classflow_1_1net__flow_1_1Node.html#a4368247d07e930bdd07ab8d2425c6de8" target="_top" xlink:title="Sets up handle_incoming(packet_data, low_lvl_remote_endpoint) to be called asynchronously after a spe...">
<polygon fill="white" stroke="black" points="149,-195 149,-230 262,-230 262,-195 149,-195"/>
<text text-anchor="start" x="157" y="-219.6" font-family="Helvetica,sans-Serif" font-size="8.00">flow::net_flow::Node</text>
<text text-anchor="start" x="157" y="-210.6" font-family="Helvetica,sans-Serif" font-size="8.00">::async_wait_latency</text>
<text text-anchor="middle" x="205.5" y="-201.6" font-family="Helvetica,sans-Serif" font-size="8.00">_then_handle_incoming</text>
</a>
</g>
</g>
<!-- Node27&#45;&gt;Node28 -->
<g id="edge13" class="edge">
<title>Node27&#45;&gt;Node28</title>
<path fill="none" stroke="midnightblue" d="M287.86,-199.23C279.29,-200.63 270.49,-202.06 262.01,-203.45"/>
<polygon fill="midnightblue" stroke="midnightblue" points="288.48,-202.67 297.79,-197.61 287.36,-195.76 288.48,-202.67"/>
</g>
<!-- Node29 -->
<g id="node14" class="node">
<title>Node29</title>
<g id="a_node14"><a xlink:href="classflow_1_1net__flow_1_1Node.html#a90ecbad1ff3a8d2fe4b3ad1c474f7513" target="_top" xlink:title="Helper for low_lvl_recv_and_handle() that calls handle_incoming() on the not&#45;yet&#45;deserialized low&#45;lev...">
<polygon fill="white" stroke="red" points="0,-172 0,-207 113,-207 113,-172 0,-172"/>
<text text-anchor="start" x="8" y="-196.6" font-family="Helvetica,sans-Serif" font-size="8.00">flow::net_flow::Node</text>
<text text-anchor="start" x="8" y="-187.6" font-family="Helvetica,sans-Serif" font-size="8.00">::handle_incoming_with</text>
<text text-anchor="middle" x="56.5" y="-178.6" font-family="Helvetica,sans-Serif" font-size="8.00">_simulation</text>
</a>
</g>
</g>
<!-- Node27&#45;&gt;Node29 -->
<g id="edge16" class="edge">
<title>Node27&#45;&gt;Node29</title>
<path fill="none" stroke="midnightblue" d="M287.75,-186.35C279.11,-186 270.33,-185.69 262,-185.5 211.79,-184.33 199.21,-184.4 149,-185.5 137.4,-185.75 124.97,-186.19 113.13,-186.68"/>
<polygon fill="midnightblue" stroke="midnightblue" points="287.64,-189.85 297.78,-186.78 287.94,-182.85 287.64,-189.85"/>
</g>
<!-- Node28&#45;&gt;Node29 -->
<g id="edge14" class="edge">
<title>Node28&#45;&gt;Node29</title>
<path fill="none" stroke="midnightblue" d="M138.92,-202.24C130.32,-200.89 121.57,-199.52 113.15,-198.21"/>
<polygon fill="midnightblue" stroke="midnightblue" points="138.5,-205.72 148.93,-203.8 139.59,-198.8 138.5,-205.72"/>
</g>
<!-- Node29&#45;&gt;Node29 -->
<g id="edge15" class="edge">
<title>Node29&#45;&gt;Node29</title>
<path fill="none" stroke="midnightblue" d="M82.27,-217.6C78.65,-222.27 70.06,-225.5 56.5,-225.5 34.24,-225.5 25.37,-216.81 29.89,-207.28"/>
<polygon fill="midnightblue" stroke="midnightblue" points="85.79,-217.53 83.11,-207.28 78.81,-216.97 85.79,-217.53"/>
</g>
<!-- Node33&#45;&gt;Node8 -->
<g id="edge18" class="edge">
<title>Node33&#45;&gt;Node8</title>
<path fill="none" stroke="midnightblue" d="M777.29,-249.48C675.33,-250.92 488.03,-253.55 399.01,-254.8"/>
<polygon fill="midnightblue" stroke="midnightblue" points="777.53,-252.98 787.48,-249.34 777.44,-245.98 777.53,-252.98"/>
</g>
<!-- Node35 -->
<g id="node17" class="node">
<title>Node35</title>
<g id="a_node17"><a xlink:href="classflow_1_1net__flow_1_1Node.html#a6461124e5bc3e59083e172e26029e632" target="_top" xlink:title="Implementation of non&#45;blocking sock&#45;&gt;close_abruptly() for socket sock in all cases except when sock&#45;&gt;...">
<polygon fill="white" stroke="black" points="622.5,-9.5 622.5,-35.5 723.5,-35.5 723.5,-9.5 622.5,-9.5"/>
<text text-anchor="start" x="630.5" y="-25.1" font-family="Helvetica,sans-Serif" font-size="8.00">flow::net_flow::Node</text>
<text text-anchor="middle" x="673" y="-16.1" font-family="Helvetica,sans-Serif" font-size="8.00">::close_abruptly</text>
</a>
</g>
</g>
<!-- Node34&#45;&gt;Node35 -->
<g id="edge20" class="edge">
<title>Node34&#45;&gt;Node35</title>
<path fill="none" stroke="midnightblue" d="M790.29,-114.35C788.1,-112.82 785.99,-111.2 784,-109.5 761.54,-90.24 770.67,-72.52 748,-53.5 739.14,-46.07 728.25,-40.2 717.57,-35.66"/>
<polygon fill="midnightblue" stroke="midnightblue" points="788.76,-117.53 799.1,-119.85 792.47,-111.59 788.76,-117.53"/>
</g>
<!-- Node37 -->
<g id="node19" class="node">
<title>Node37</title>
<g id="a_node19"><a xlink:href="classflow_1_1net__flow_1_1Node.html#a29d02f9e302c7b06288ff1c644fa8d65" target="_top" xlink:title="Handles a just&#45;deserialized, just&#45;demultiplexed low&#45;level SYN_ACK_ACK packet delivered to the given p...">
<polygon fill="white" stroke="black" points="446,-139 446,-174 551,-174 551,-139 446,-139"/>
<text text-anchor="start" x="454" y="-163.6" font-family="Helvetica,sans-Serif" font-size="8.00">flow::net_flow::Node</text>
<text text-anchor="start" x="454" y="-154.6" font-family="Helvetica,sans-Serif" font-size="8.00">::handle_syn_ack_ack</text>
<text text-anchor="middle" x="498.5" y="-145.6" font-family="Helvetica,sans-Serif" font-size="8.00">_to_syn_rcvd</text>
</a>
</g>
</g>
<!-- Node34&#45;&gt;Node37 -->
<g id="edge23" class="edge">
<title>Node34&#45;&gt;Node37</title>
<path fill="none" stroke="midnightblue" d="M773.89,-133.85C724.18,-132.26 656.98,-131.86 598,-137.5 582.66,-138.97 566.15,-141.69 551.12,-144.63"/>
<polygon fill="midnightblue" stroke="midnightblue" points="773.79,-137.35 783.91,-134.19 774.03,-130.35 773.79,-137.35"/>
</g>
<!-- Node38 -->
<g id="node20" class="node">
<title>Node38</title>
<g id="a_node20"><a xlink:href="classflow_1_1net__flow_1_1Node.html#ab427ebc124a6233ae48a7562662a6e81" target="_top" xlink:title="Creates a new Drop Timer and saves it to sock&#45;&gt;m_snd_drop_timer.">
<polygon fill="white" stroke="black" points="622.5,-147.5 622.5,-173.5 723.5,-173.5 723.5,-147.5 622.5,-147.5"/>
<text text-anchor="start" x="630.5" y="-163.1" font-family="Helvetica,sans-Serif" font-size="8.00">flow::net_flow::Node</text>
<text text-anchor="middle" x="673" y="-154.1" font-family="Helvetica,sans-Serif" font-size="8.00">::setup_drop_timer</text>
</a>
</g>
</g>
<!-- Node34&#45;&gt;Node38 -->
<g id="edge25" class="edge">
<title>Node34&#45;&gt;Node38</title>
<path fill="none" stroke="midnightblue" d="M773.24,-147.31C756.49,-149.53 739.08,-151.85 723.61,-153.9"/>
<polygon fill="midnightblue" stroke="midnightblue" points="774.11,-150.72 783.56,-145.93 773.19,-143.78 774.11,-150.72"/>
</g>
<!-- Node39 -->
<g id="node21" class="node">
<title>Node39</title>
<g id="a_node21"><a xlink:href="classflow_1_1net__flow_1_1Node.html#a3fd57a0d025a78cbeccfd8a15a983575" target="_top" xlink:title="async_sock_low_lvl_packet_send_paced() pacing helper: If sock_pacing_process_q() ran out of the last ...">
<polygon fill="white" stroke="black" points="604.5,-63.5 604.5,-89.5 741.5,-89.5 741.5,-63.5 604.5,-63.5"/>
<text text-anchor="start" x="612.5" y="-79.1" font-family="Helvetica,sans-Serif" font-size="8.00">flow::net_flow::Node</text>
<text text-anchor="middle" x="673" y="-70.1" font-family="Helvetica,sans-Serif" font-size="8.00">::sock_pacing_time_slice_end</text>
</a>
</g>
</g>
<!-- Node34&#45;&gt;Node39 -->
<g id="edge27" class="edge">
<title>Node34&#45;&gt;Node39</title>
<path fill="none" stroke="midnightblue" d="M787.43,-116.49C762.05,-107.55 733.24,-97.39 711.01,-89.55"/>
<polygon fill="midnightblue" stroke="midnightblue" points="786.37,-119.83 796.96,-119.86 788.69,-113.23 786.37,-119.83"/>
</g>
<!-- Node36 -->
<g id="node18" class="node">
<title>Node36</title>
<g id="a_node18"><a xlink:href="classflow_1_1net__flow_1_1Peer__socket.html#a9ab710704237f912eb219f9b8d574afc" target="_top" xlink:title="Acts as if fatal error error::Code::S_USER_CLOSED_ABRUPTLY has been discovered on the connection.">
<polygon fill="white" stroke="black" points="442,-0.5 442,-26.5 555,-26.5 555,-0.5 442,-0.5"/>
<text text-anchor="start" x="450" y="-16.1" font-family="Helvetica,sans-Serif" font-size="8.00">flow::net_flow::Peer</text>
<text text-anchor="middle" x="498.5" y="-7.1" font-family="Helvetica,sans-Serif" font-size="8.00">_socket::close_abruptly</text>
</a>
</g>
</g>
<!-- Node35&#45;&gt;Node36 -->
<g id="edge21" class="edge">
<title>Node35&#45;&gt;Node36</title>
<path fill="none" stroke="midnightblue" d="M612.03,-19.37C593.52,-18.41 573.23,-17.35 555.03,-16.4"/>
<polygon fill="midnightblue" stroke="midnightblue" points="611.94,-22.87 622.11,-19.9 612.3,-15.88 611.94,-22.87"/>
</g>
<!-- Node36&#45;&gt;Node36 -->
<g id="edge22" class="edge">
<title>Node36&#45;&gt;Node36</title>
<path fill="none" stroke="midnightblue" d="M525.5,-36.94C522.5,-41.64 513.5,-45 498.5,-45 473.89,-45 465.43,-35.96 473.12,-26.77"/>
<polygon fill="midnightblue" stroke="midnightblue" points="528.91,-36.1 523.88,-26.77 521.99,-37.2 528.91,-36.1"/>
</g>
<!-- Node37&#45;&gt;Node27 -->
<g id="edge24" class="edge">
<title>Node37&#45;&gt;Node27</title>
<path fill="none" stroke="midnightblue" d="M435.73,-170.27C423.65,-172.97 411.13,-175.76 399.49,-178.35"/>
<polygon fill="midnightblue" stroke="midnightblue" points="436.74,-173.63 445.74,-168.04 435.21,-166.8 436.74,-173.63"/>
</g>
<!-- Node38&#45;&gt;Node37 -->
<g id="edge26" class="edge">
<title>Node38&#45;&gt;Node37</title>
<path fill="none" stroke="midnightblue" d="M611.94,-159.11C592.11,-158.65 570.23,-158.14 551.08,-157.7"/>
<polygon fill="midnightblue" stroke="midnightblue" points="612.03,-162.61 622.11,-159.34 612.19,-155.61 612.03,-162.61"/>
</g>
<!-- Node40 -->
<g id="node22" class="node">
<title>Node40</title>
<g id="a_node22"><a xlink:href="classflow_1_1net__flow_1_1Node.html#aaf0acf9de5f151727a43acce180a5e49" target="_top" xlink:title="async_sock_low_lvl_packet_send_paced() pacing helper: Given that we are currently in the pacing time ...">
<polygon fill="white" stroke="red" points="439.5,-63.5 439.5,-89.5 557.5,-89.5 557.5,-63.5 439.5,-63.5"/>
<text text-anchor="start" x="447.5" y="-79.1" font-family="Helvetica,sans-Serif" font-size="8.00">flow::net_flow::Node</text>
<text text-anchor="middle" x="498.5" y="-70.1" font-family="Helvetica,sans-Serif" font-size="8.00">::sock_pacing_process_q</text>
</a>
</g>
</g>
<!-- Node39&#45;&gt;Node40 -->
<g id="edge28" class="edge">
<title>Node39&#45;&gt;Node40</title>
<path fill="none" stroke="midnightblue" d="M594.12,-69.78C581.9,-69.7 569.45,-69.79 557.77,-70.08"/>
<polygon fill="midnightblue" stroke="midnightblue" points="594.28,-73.28 604.32,-69.89 594.36,-66.28 594.28,-73.28"/>
</g>
<!-- Node40&#45;&gt;Node39 -->
<g id="edge29" class="edge">
<title>Node40&#45;&gt;Node39</title>
<path fill="none" stroke="midnightblue" d="M568.1,-83.12C580.02,-83.3 592.42,-83.29 604.32,-83.11"/>
<polygon fill="midnightblue" stroke="midnightblue" points="567.83,-79.62 557.77,-82.92 567.7,-86.62 567.83,-79.62"/>
</g>
</g>
</svg>
