<?xml version="1.0" encoding="UTF-8" standalone="no"?>
<!DOCTYPE svg PUBLIC "-//W3C//DTD SVG 1.1//EN"
 "http://www.w3.org/Graphics/SVG/1.1/DTD/svg11.dtd">
<!-- Generated by graphviz version 2.43.0 (0)
 -->
<!-- Title: flow::net_flow::Node::send_worker Pages: 1 -->
<svg width="731pt" height="153pt"
 viewBox="0.00 0.00 731.00 152.50" xmlns="http://www.w3.org/2000/svg" xmlns:xlink="http://www.w3.org/1999/xlink">
<g id="graph0" class="graph" transform="scale(1 1) rotate(0) translate(4 148.5)">
<title>flow::net_flow::Node::send_worker</title>
<polygon fill="white" stroke="transparent" points="-4,4 -4,-148.5 727,-148.5 727,4 -4,4"/>
<!-- Node1 -->
<g id="node1" class="node">
<title>Node1</title>
<g id="a_node1"><a xlink:title="Thread W implemention of send(): synchronously or asynchronously send the contents of sock&#45;&gt;m_snd_buf...">
<polygon fill="#bfbfbf" stroke="black" points="622,-95 622,-121 723,-121 723,-95 622,-95"/>
<text text-anchor="start" x="630" y="-110.6" font-family="Helvetica,sans-Serif" font-size="8.00">flow::net_flow::Node</text>
<text text-anchor="middle" x="672.5" y="-101.6" font-family="Helvetica,sans-Serif" font-size="8.00">::send_worker</text>
</a>
</g>
</g>
<!-- Node2 -->
<g id="node2" class="node">
<title>Node2</title>
<g id="a_node2"><a xlink:href="classflow_1_1net__flow_1_1Node.html#a2565b7c0bd82cad86eb168b62f8ffd9d" target="_top" xlink:title="Helper placed by send() onto W to invoke send_worker() but ensures that the socket has not entered so...">
<polygon fill="white" stroke="black" points="459,-95 459,-121 586,-121 586,-95 459,-95"/>
<text text-anchor="start" x="467" y="-110.6" font-family="Helvetica,sans-Serif" font-size="8.00">flow::net_flow::Node</text>
<text text-anchor="middle" x="522.5" y="-101.6" font-family="Helvetica,sans-Serif" font-size="8.00">::send_worker_check_state</text>
</a>
</g>
</g>
<!-- Node1&#45;&gt;Node2 -->
<g id="edge1" class="edge">
<title>Node1&#45;&gt;Node2</title>
<path fill="none" stroke="midnightblue" d="M611.72,-108C603.31,-108 594.66,-108 586.2,-108"/>
<polygon fill="midnightblue" stroke="midnightblue" points="611.81,-111.5 621.81,-108 611.81,-104.5 611.81,-111.5"/>
</g>
<!-- Node3 -->
<g id="node3" class="node">
<title>Node3</title>
<g id="a_node3"><a xlink:href="classflow_1_1net__flow_1_1Node.html#aa19d1f49638ef8ce8883e7477a06d3fc" target="_top" xlink:title="Implementation of non&#45;blocking sock&#45;&gt;send() for socket sock in all cases except when sock&#45;&gt;state() ==...">
<polygon fill="white" stroke="black" points="322,-95 322,-121 423,-121 423,-95 322,-95"/>
<text text-anchor="start" x="330" y="-110.6" font-family="Helvetica,sans-Serif" font-size="8.00">flow::net_flow::Node</text>
<text text-anchor="middle" x="372.5" y="-101.6" font-family="Helvetica,sans-Serif" font-size="8.00">::send</text>
</a>
</g>
</g>
<!-- Node2&#45;&gt;Node3 -->
<g id="edge2" class="edge">
<title>Node2&#45;&gt;Node3</title>
<path fill="none" stroke="midnightblue" d="M448.7,-108C440.12,-108 431.51,-108 423.35,-108"/>
<polygon fill="midnightblue" stroke="midnightblue" points="448.73,-111.5 458.73,-108 448.73,-104.5 448.73,-111.5"/>
</g>
<!-- Node4 -->
<g id="node4" class="node">
<title>Node4</title>
<g id="a_node4"><a xlink:href="classflow_1_1net__flow_1_1Peer__socket.html#a83ba2b4c39555afad67932ea6ed39bbe" target="_top" xlink:title="Non&#45;template helper for template send() that forwards the send() logic to Node::send().">
<polygon fill="white" stroke="black" points="176.5,-118 176.5,-144 274.5,-144 274.5,-118 176.5,-118"/>
<text text-anchor="start" x="184.5" y="-133.6" font-family="Helvetica,sans-Serif" font-size="8.00">flow::net_flow::Peer</text>
<text text-anchor="middle" x="225.5" y="-124.6" font-family="Helvetica,sans-Serif" font-size="8.00">_socket::node_send</text>
</a>
</g>
</g>
<!-- Node3&#45;&gt;Node4 -->
<g id="edge3" class="edge">
<title>Node3&#45;&gt;Node4</title>
<path fill="none" stroke="midnightblue" d="M311.42,-117.53C299.13,-119.48 286.34,-121.51 274.53,-123.38"/>
<polygon fill="midnightblue" stroke="midnightblue" points="312.27,-120.94 321.6,-115.92 311.17,-114.03 312.27,-120.94"/>
</g>
<!-- Node6 -->
<g id="node6" class="node">
<title>Node6</title>
<g id="a_node6"><a xlink:href="classflow_1_1net__flow_1_1Peer__socket.html#a34e2c7dfb5596269a6f86a716015f1a6" target="_top" xlink:title="This is to sync_send() as node_send() is to send().">
<polygon fill="white" stroke="black" points="165,-73 165,-99 286,-99 286,-73 165,-73"/>
<text text-anchor="start" x="173" y="-88.6" font-family="Helvetica,sans-Serif" font-size="8.00">flow::net_flow::Peer</text>
<text text-anchor="middle" x="225.5" y="-79.6" font-family="Helvetica,sans-Serif" font-size="8.00">_socket::node_sync_send</text>
</a>
</g>
</g>
<!-- Node3&#45;&gt;Node6 -->
<g id="edge5" class="edge">
<title>Node3&#45;&gt;Node6</title>
<path fill="none" stroke="midnightblue" d="M311.55,-98.9C303.19,-97.64 294.6,-96.33 286.25,-95.07"/>
<polygon fill="midnightblue" stroke="midnightblue" points="311.19,-102.39 321.6,-100.43 312.24,-95.47 311.19,-102.39"/>
</g>
<!-- Node5 -->
<g id="node5" class="node">
<title>Node5</title>
<g id="a_node5"><a xlink:href="classflow_1_1net__flow_1_1Peer__socket.html#af90b656d7e0b7e746b8beb4e24717cec" target="_top" xlink:title="Sends (adds to the Send buffer) the given bytes of data up to a maximum internal buffer size; and asy...">
<polygon fill="white" stroke="black" points="16,-118 16,-144 113,-144 113,-118 16,-118"/>
<text text-anchor="start" x="24" y="-133.6" font-family="Helvetica,sans-Serif" font-size="8.00">flow::net_flow::Peer</text>
<text text-anchor="middle" x="64.5" y="-124.6" font-family="Helvetica,sans-Serif" font-size="8.00">_socket::send</text>
</a>
</g>
</g>
<!-- Node4&#45;&gt;Node5 -->
<g id="edge4" class="edge">
<title>Node4&#45;&gt;Node5</title>
<path fill="none" stroke="midnightblue" d="M166.28,-131C148.83,-131 129.89,-131 113.2,-131"/>
<polygon fill="midnightblue" stroke="midnightblue" points="166.36,-134.5 176.36,-131 166.36,-127.5 166.36,-134.5"/>
</g>
<!-- Node7 -->
<g id="node7" class="node">
<title>Node7</title>
<g id="a_node7"><a xlink:href="classflow_1_1net__flow_1_1Peer__socket.html#a3f1a802024549a59978a53343b09a86d" target="_top" xlink:title="Same as sync_send() but uses a Fine_clock&#45;based Fine_duration non&#45;template type for implementation co...">
<polygon fill="white" stroke="red" points="6,-73 6,-99 123,-99 123,-73 6,-73"/>
<text text-anchor="start" x="14" y="-88.6" font-family="Helvetica,sans-Serif" font-size="8.00">flow::net_flow::Peer</text>
<text text-anchor="middle" x="64.5" y="-79.6" font-family="Helvetica,sans-Serif" font-size="8.00">_socket::sync_send_impl</text>
</a>
</g>
</g>
<!-- Node6&#45;&gt;Node7 -->
<g id="edge6" class="edge">
<title>Node6&#45;&gt;Node7</title>
<path fill="none" stroke="midnightblue" d="M154.8,-86C144.22,-86 133.4,-86 123.12,-86"/>
<polygon fill="midnightblue" stroke="midnightblue" points="154.84,-89.5 164.84,-86 154.84,-82.5 154.84,-89.5"/>
</g>
<!-- Node9 -->
<g id="node8" class="node">
<title>Node9</title>
<g id="a_node8"><a xlink:href="classflow_1_1net__flow_1_1Peer__socket.html#a15ba1d4af6d4e3fcab9534a307c00595" target="_top" xlink:title="Helper similar to sync_send_impl() but for the nullptr_t versions of sync_send().">
<polygon fill="white" stroke="red" points="0,-0.5 0,-35.5 129,-35.5 129,-0.5 0,-0.5"/>
<text text-anchor="start" x="8" y="-25.1" font-family="Helvetica,sans-Serif" font-size="8.00">flow::net_flow::Peer</text>
<text text-anchor="start" x="8" y="-16.1" font-family="Helvetica,sans-Serif" font-size="8.00">_socket::sync_send_reactor</text>
<text text-anchor="middle" x="64.5" y="-7.1" font-family="Helvetica,sans-Serif" font-size="8.00">_pattern_impl</text>
</a>
</g>
</g>
<!-- Node6&#45;&gt;Node9 -->
<g id="edge7" class="edge">
<title>Node6&#45;&gt;Node9</title>
<path fill="none" stroke="midnightblue" d="M184.4,-68.85C160.62,-58.68 130.54,-45.82 106.59,-35.57"/>
<polygon fill="midnightblue" stroke="midnightblue" points="183.27,-72.17 193.84,-72.89 186.03,-65.74 183.27,-72.17"/>
</g>
<!-- Node9&#45;&gt;Node9 -->
<g id="edge8" class="edge">
<title>Node9&#45;&gt;Node9</title>
<path fill="none" stroke="midnightblue" d="M92.36,-46.1C88.45,-50.77 79.16,-54 64.5,-54 40.44,-54 30.85,-45.31 35.74,-35.78"/>
<polygon fill="midnightblue" stroke="midnightblue" points="95.88,-46.05 93.26,-35.78 88.91,-45.44 95.88,-46.05"/>
</g>
</g>
</svg>
