<?xml version="1.0" encoding="UTF-8" standalone="no"?>
<!DOCTYPE svg PUBLIC "-//W3C//DTD SVG 1.1//EN"
 "http://www.w3.org/Graphics/SVG/1.1/DTD/svg11.dtd">
<!-- Generated by graphviz version 2.43.0 (0)
 -->
<!-- Title: flow::net_flow::Peer_socket_receive_stats_accumulator::good_data_accepted_packet Pages: 1 -->
<svg width="292pt" height="98pt"
 viewBox="0.00 0.00 292.00 98.00" xmlns="http://www.w3.org/2000/svg" xmlns:xlink="http://www.w3.org/1999/xlink">
<g id="graph0" class="graph" transform="scale(1 1) rotate(0) translate(4 94)">
<title>flow::net_flow::Peer_socket_receive_stats_accumulator::good_data_accepted_packet</title>
<polygon fill="white" stroke="transparent" points="-4,4 -4,-94 288,-94 288,4 -4,4"/>
<!-- Node1 -->
<g id="node1" class="node">
<title>Node1</title>
<g id="a_node1"><a xlink:title="Indicates good_data_packet(), and these data are not dropped (so either delivered into Receive buffer...">
<polygon fill="#bfbfbf" stroke="black" points="163,-23 163,-67 284,-67 284,-23 163,-23"/>
<text text-anchor="start" x="171" y="-56.6" font-family="Helvetica,sans-Serif" font-size="8.00">flow::net_flow::Peer</text>
<text text-anchor="start" x="171" y="-47.6" font-family="Helvetica,sans-Serif" font-size="8.00">_socket_receive_stats</text>
<text text-anchor="start" x="171" y="-38.6" font-family="Helvetica,sans-Serif" font-size="8.00">_accumulator::good_data</text>
<text text-anchor="middle" x="223.5" y="-29.6" font-family="Helvetica,sans-Serif" font-size="8.00">_accepted_packet</text>
</a>
</g>
</g>
<!-- Node2 -->
<g id="node2" class="node">
<title>Node2</title>
<g id="a_node2"><a xlink:href="classflow_1_1net__flow_1_1Node.html#aab414ebd0e2d27f02ed51270dab90c45" target="_top" xlink:title="Helper for handle_data_to_established() that aims to pass the payload of the given DATA packet to the...">
<polygon fill="white" stroke="black" points="9,-54.5 9,-89.5 118,-89.5 118,-54.5 9,-54.5"/>
<text text-anchor="start" x="17" y="-79.1" font-family="Helvetica,sans-Serif" font-size="8.00">flow::net_flow::Node</text>
<text text-anchor="start" x="17" y="-70.1" font-family="Helvetica,sans-Serif" font-size="8.00">::sock_data_to_rcv_buf</text>
<text text-anchor="middle" x="63.5" y="-61.1" font-family="Helvetica,sans-Serif" font-size="8.00">_unless_overflow</text>
</a>
</g>
</g>
<!-- Node1&#45;&gt;Node2 -->
<g id="edge1" class="edge">
<title>Node1&#45;&gt;Node2</title>
<path fill="none" stroke="midnightblue" d="M152.67,-56.93C141.07,-58.92 129.2,-60.94 118.09,-62.84"/>
<polygon fill="midnightblue" stroke="midnightblue" points="153.5,-60.34 162.77,-55.21 152.32,-53.44 153.5,-60.34"/>
</g>
<!-- Node3 -->
<g id="node3" class="node">
<title>Node3</title>
<g id="a_node3"><a xlink:href="classflow_1_1net__flow_1_1Node.html#a0f9f88761fc18c4f9e0d5f4dd6b4bc95" target="_top" xlink:title="Helper for handle_data_to_established() that aims to register the given DATA packet as an out&#45;of&#45;orde...">
<polygon fill="white" stroke="black" points="0,-0.5 0,-35.5 127,-35.5 127,-0.5 0,-0.5"/>
<text text-anchor="start" x="8" y="-25.1" font-family="Helvetica,sans-Serif" font-size="8.00">flow::net_flow::Node</text>
<text text-anchor="start" x="8" y="-16.1" font-family="Helvetica,sans-Serif" font-size="8.00">::sock_data_to_reassembly</text>
<text text-anchor="middle" x="63.5" y="-7.1" font-family="Helvetica,sans-Serif" font-size="8.00">_q_unless_overflow</text>
</a>
</g>
</g>
<!-- Node1&#45;&gt;Node3 -->
<g id="edge2" class="edge">
<title>Node1&#45;&gt;Node3</title>
<path fill="none" stroke="midnightblue" d="M152.84,-33.1C144.31,-31.64 135.63,-30.16 127.21,-28.72"/>
<polygon fill="midnightblue" stroke="midnightblue" points="152.32,-36.56 162.77,-34.79 153.5,-29.66 152.32,-36.56"/>
</g>
</g>
</svg>
