<?xml version="1.0" encoding="UTF-8" standalone="no"?>
<!DOCTYPE svg PUBLIC "-//W3C//DTD SVG 1.1//EN"
 "http://www.w3.org/Graphics/SVG/1.1/DTD/svg11.dtd">
<!-- Generated by graphviz version 2.43.0 (0)
 -->
<!-- Title: flow::log::Logger::this_thread_ostream Pages: 1 -->
<svg width="421pt" height="98pt"
 viewBox="0.00 0.00 421.00 98.00" xmlns="http://www.w3.org/2000/svg" xmlns:xlink="http://www.w3.org/1999/xlink">
<g id="graph0" class="graph" transform="scale(1 1) rotate(0) translate(4 94)">
<title>flow::log::Logger::this_thread_ostream</title>
<polygon fill="white" stroke="transparent" points="-4,4 -4,-94 417,-94 417,4 -4,4"/>
<!-- Node1 -->
<g id="node1" class="node">
<title>Node1</title>
<g id="a_node1"><a xlink:title="Returns the stream dedicated to the executing thread and this Logger, so that the caller can apply st...">
<polygon fill="#bfbfbf" stroke="black" points="0,-32 0,-58 100,-58 100,-32 0,-32"/>
<text text-anchor="start" x="8" y="-47.6" font-family="Helvetica,sans-Serif" font-size="8.00">flow::log::Logger::</text>
<text text-anchor="middle" x="50" y="-38.6" font-family="Helvetica,sans-Serif" font-size="8.00">this_thread_ostream</text>
</a>
</g>
</g>
<!-- Node2 -->
<g id="node2" class="node">
<title>Node2</title>
<g id="a_node2"><a xlink:href="classflow_1_1log_1_1Thread__local__string__appender.html#a64383811f529af676dde0028f61831f7" target="_top" xlink:title="Same as fresh_appender_ostream() but does not clear the result string, enabling piecemeal writing to ...">
<polygon fill="white" stroke="black" points="138,-54.5 138,-89.5 271,-89.5 271,-54.5 138,-54.5"/>
<text text-anchor="start" x="146" y="-79.1" font-family="Helvetica,sans-Serif" font-size="8.00">flow::log::Thread_local</text>
<text text-anchor="start" x="146" y="-70.1" font-family="Helvetica,sans-Serif" font-size="8.00">_string_appender::appender</text>
<text text-anchor="middle" x="204.5" y="-61.1" font-family="Helvetica,sans-Serif" font-size="8.00">_ostream</text>
</a>
</g>
</g>
<!-- Node1&#45;&gt;Node2 -->
<g id="edge1" class="edge">
<title>Node1&#45;&gt;Node2</title>
<path fill="none" stroke="midnightblue" d="M100.09,-53.69C108.92,-55.25 118.3,-56.92 127.67,-58.57"/>
<polygon fill="midnightblue" stroke="midnightblue" points="127.36,-62.07 137.81,-60.37 128.58,-55.18 127.36,-62.07"/>
</g>
<!-- Node4 -->
<g id="node4" class="node">
<title>Node4</title>
<g id="a_node4"><a xlink:href="classflow_1_1log_1_1Thread__local__string__appender.html#a4c67bd1c2f1ccc58288df86abda02d88" target="_top" xlink:title="Returns a pointer to the exactly one Thread_local_string_appender object that is accessible from the ...">
<polygon fill="white" stroke="black" points="136,-0.5 136,-35.5 273,-35.5 273,-0.5 136,-0.5"/>
<text text-anchor="start" x="144" y="-25.1" font-family="Helvetica,sans-Serif" font-size="8.00">flow::log::Thread_local</text>
<text text-anchor="start" x="144" y="-16.1" font-family="Helvetica,sans-Serif" font-size="8.00">_string_appender::get</text>
<text text-anchor="middle" x="204.5" y="-7.1" font-family="Helvetica,sans-Serif" font-size="8.00">_this_thread_string_appender</text>
</a>
</g>
</g>
<!-- Node1&#45;&gt;Node4 -->
<g id="edge3" class="edge">
<title>Node1&#45;&gt;Node4</title>
<path fill="none" stroke="midnightblue" d="M100.09,-36.31C108.38,-34.84 117.16,-33.29 125.96,-31.73"/>
<polygon fill="midnightblue" stroke="midnightblue" points="126.65,-35.16 135.88,-29.97 125.43,-28.27 126.65,-35.16"/>
</g>
<!-- Node3 -->
<g id="node3" class="node">
<title>Node3</title>
<g id="a_node3"><a xlink:href="classflow_1_1util_1_1String__ostream.html#a7e64b069ae0e221952068c13fdc0f080" target="_top" xlink:title="Access to stream that will write to owned string.">
<polygon fill="white" stroke="black" points="320,-59 320,-85 402,-85 402,-59 320,-59"/>
<text text-anchor="start" x="328" y="-74.6" font-family="Helvetica,sans-Serif" font-size="8.00">flow::util::String</text>
<text text-anchor="middle" x="361" y="-65.6" font-family="Helvetica,sans-Serif" font-size="8.00">_ostream::os</text>
</a>
</g>
</g>
<!-- Node2&#45;&gt;Node3 -->
<g id="edge2" class="edge">
<title>Node2&#45;&gt;Node3</title>
<path fill="none" stroke="midnightblue" d="M271.02,-72C284,-72 297.43,-72 309.8,-72"/>
<polygon fill="midnightblue" stroke="midnightblue" points="309.91,-75.5 319.91,-72 309.91,-68.5 309.91,-75.5"/>
</g>
<!-- Node5 -->
<g id="node5" class="node">
<title>Node5</title>
<g id="a_node5"><a xlink:href="classflow_1_1util_1_1Unique__id__holder.html#a24742b697933e623df30056aebbebfae" target="_top" xlink:title="Raw unique ID identifying this object as well as any object of a derived type.">
<polygon fill="white" stroke="black" points="309,-5 309,-31 413,-31 413,-5 309,-5"/>
<text text-anchor="start" x="317" y="-20.6" font-family="Helvetica,sans-Serif" font-size="8.00">flow::util::Unique</text>
<text text-anchor="middle" x="361" y="-11.6" font-family="Helvetica,sans-Serif" font-size="8.00">_id_holder::unique_id</text>
</a>
</g>
</g>
<!-- Node4&#45;&gt;Node5 -->
<g id="edge4" class="edge">
<title>Node4&#45;&gt;Node5</title>
<path fill="none" stroke="midnightblue" d="M273.27,-18C281.59,-18 290.06,-18 298.29,-18"/>
<polygon fill="midnightblue" stroke="midnightblue" points="298.55,-21.5 308.55,-18 298.55,-14.5 298.55,-21.5"/>
</g>
</g>
</svg>
