<?xml version="1.0" encoding="UTF-8" standalone="no"?>
<!DOCTYPE svg PUBLIC "-//W3C//DTD SVG 1.1//EN"
 "http://www.w3.org/Graphics/SVG/1.1/DTD/svg11.dtd">
<!-- Generated by graphviz version 2.43.0 (0)
 -->
<!-- Title: flow::net_flow::Congestion_control_classic_data::in_slow_start Pages: 1 -->
<svg width="876pt" height="354pt"
 viewBox="0.00 0.00 876.00 353.50" xmlns="http://www.w3.org/2000/svg" xmlns:xlink="http://www.w3.org/1999/xlink">
<g id="graph0" class="graph" transform="scale(1 1) rotate(0) translate(4 349.5)">
<title>flow::net_flow::Congestion_control_classic_data::in_slow_start</title>
<polygon fill="white" stroke="transparent" points="-4,4 -4,-349.5 872,-349.5 872,4 -4,4"/>
<!-- Node1 -->
<g id="node1" class="node">
<title>Node1</title>
<g id="a_node1"><a xlink:title="Return true if and only if CWND &lt; SSTHRESH.">
<polygon fill="#bfbfbf" stroke="black" points="743,-215.5 743,-250.5 868,-250.5 868,-215.5 743,-215.5"/>
<text text-anchor="start" x="751" y="-240.1" font-family="Helvetica,sans-Serif" font-size="8.00">flow::net_flow::Congestion</text>
<text text-anchor="start" x="751" y="-231.1" font-family="Helvetica,sans-Serif" font-size="8.00">_control_classic_data::in</text>
<text text-anchor="middle" x="805.5" y="-222.1" font-family="Helvetica,sans-Serif" font-size="8.00">_slow_start</text>
</a>
</g>
</g>
<!-- Node1&#45;&gt;Node1 -->
<g id="edge1" class="edge">
<title>Node1&#45;&gt;Node1</title>
<path fill="none" stroke="midnightblue" d="M835.11,-261.1C830.95,-265.77 821.08,-269 805.5,-269 779.93,-269 769.75,-260.31 774.94,-250.78"/>
<polygon fill="midnightblue" stroke="midnightblue" points="838.62,-261.06 836.06,-250.78 831.65,-260.42 838.62,-261.06"/>
</g>
<!-- Node2 -->
<g id="node2" class="node">
<title>Node2</title>
<g id="a_node2"><a xlink:href="classflow_1_1net__flow_1_1Congestion__control__classic__data.html#a092ddd8d1f700b426a5f9e0184af004f" target="_top" xlink:title="Logs, in a TRACE message, all internal state values.">
<polygon fill="white" stroke="black" points="561,-220 561,-246 707,-246 707,-220 561,-220"/>
<text text-anchor="start" x="569" y="-235.6" font-family="Helvetica,sans-Serif" font-size="8.00">flow::net_flow::Congestion</text>
<text text-anchor="middle" x="634" y="-226.6" font-family="Helvetica,sans-Serif" font-size="8.00">_control_classic_data::log_state</text>
</a>
</g>
</g>
<!-- Node1&#45;&gt;Node2 -->
<g id="edge2" class="edge">
<title>Node1&#45;&gt;Node2</title>
<path fill="none" stroke="midnightblue" d="M732.68,-233C724.27,-233 715.69,-233 707.28,-233"/>
<polygon fill="midnightblue" stroke="midnightblue" points="732.83,-236.5 742.83,-233 732.83,-229.5 732.83,-236.5"/>
</g>
<!-- Node4 -->
<g id="node4" class="node">
<title>Node4</title>
<g id="a_node4"><a xlink:href="classflow_1_1net__flow_1_1Congestion__control__classic__data.html#ab3e34468efdf4d9e5b29eceb1fe84665" target="_top" xlink:title="Adjusts state, including potentially CWND, based on either &quot;congestion avoidance&quot; or &quot;slow start&quot; alg...">
<polygon fill="white" stroke="black" points="376.5,-270 376.5,-296 518.5,-296 518.5,-270 376.5,-270"/>
<text text-anchor="start" x="384.5" y="-285.6" font-family="Helvetica,sans-Serif" font-size="8.00">flow::net_flow::Congestion</text>
<text text-anchor="middle" x="447.5" y="-276.6" font-family="Helvetica,sans-Serif" font-size="8.00">_control_classic_data::on_acks</text>
</a>
</g>
</g>
<!-- Node1&#45;&gt;Node4 -->
<g id="edge16" class="edge">
<title>Node1&#45;&gt;Node4</title>
<path fill="none" stroke="midnightblue" d="M733.04,-250.96C724.31,-252.83 715.47,-254.56 707,-256 643.72,-266.72 570.95,-273.87 518.77,-278.1"/>
<polygon fill="midnightblue" stroke="midnightblue" points="733.84,-254.37 742.85,-248.8 732.33,-247.53 733.84,-254.37"/>
</g>
<!-- Node7 -->
<g id="node7" class="node">
<title>Node7</title>
<g id="a_node7"><a xlink:href="classflow_1_1net__flow_1_1Congestion__control__classic__data.html#a79e85a67e583b74cc414524d53650892" target="_top" xlink:title="Sets internally stored SSHTRESH and CWND to the given values; appropriately resets internal state so ...">
<polygon fill="white" stroke="black" points="385,-161.5 385,-196.5 510,-196.5 510,-161.5 385,-161.5"/>
<text text-anchor="start" x="393" y="-186.1" font-family="Helvetica,sans-Serif" font-size="8.00">flow::net_flow::Congestion</text>
<text text-anchor="start" x="393" y="-177.1" font-family="Helvetica,sans-Serif" font-size="8.00">_control_classic_data::on</text>
<text text-anchor="middle" x="447.5" y="-168.1" font-family="Helvetica,sans-Serif" font-size="8.00">_congestion_event</text>
</a>
</g>
</g>
<!-- Node1&#45;&gt;Node7 -->
<g id="edge17" class="edge">
<title>Node1&#45;&gt;Node7</title>
<path fill="none" stroke="midnightblue" d="M733.02,-215.17C724.29,-213.28 715.46,-211.5 707,-210 640.13,-198.14 562.71,-189.52 510.16,-184.43"/>
<polygon fill="midnightblue" stroke="midnightblue" points="732.3,-218.6 742.82,-217.35 733.82,-211.76 732.3,-218.6"/>
</g>
<!-- Node3 -->
<g id="node3" class="node">
<title>Node3</title>
<g id="a_node3"><a xlink:href="classflow_1_1net__flow_1_1Congestion__control__classic__data.html#a537fe6cb424b4e2591cc4673ed9ec8a1" target="_top" xlink:title="Constructs object by setting up logging and saving a pointer to the containing Peer_socket,...">
<polygon fill="white" stroke="black" points="370,-215.5 370,-250.5 525,-250.5 525,-215.5 370,-215.5"/>
<text text-anchor="start" x="378" y="-240.1" font-family="Helvetica,sans-Serif" font-size="8.00">flow::net_flow::Congestion</text>
<text text-anchor="start" x="378" y="-231.1" font-family="Helvetica,sans-Serif" font-size="8.00">_control_classic_data::Congestion</text>
<text text-anchor="middle" x="447.5" y="-222.1" font-family="Helvetica,sans-Serif" font-size="8.00">_control_classic_data</text>
</a>
</g>
</g>
<!-- Node2&#45;&gt;Node3 -->
<g id="edge3" class="edge">
<title>Node2&#45;&gt;Node3</title>
<path fill="none" stroke="midnightblue" d="M550.61,-233C542.14,-233 533.55,-233 525.14,-233"/>
<polygon fill="midnightblue" stroke="midnightblue" points="550.87,-236.5 560.87,-233 550.87,-229.5 550.87,-236.5"/>
</g>
<!-- Node2&#45;&gt;Node4 -->
<g id="edge4" class="edge">
<title>Node2&#45;&gt;Node4</title>
<path fill="none" stroke="midnightblue" d="M575.18,-248.67C549.91,-255.52 520.62,-263.46 496.57,-269.97"/>
<polygon fill="midnightblue" stroke="midnightblue" points="576.27,-252 585.01,-246.01 574.44,-245.24 576.27,-252"/>
</g>
<!-- Node2&#45;&gt;Node7 -->
<g id="edge7" class="edge">
<title>Node2&#45;&gt;Node7</title>
<path fill="none" stroke="midnightblue" d="M578.49,-217.04C556.47,-210.6 530.98,-203.14 508.44,-196.54"/>
<polygon fill="midnightblue" stroke="midnightblue" points="577.76,-220.48 588.34,-219.93 579.72,-213.76 577.76,-220.48"/>
</g>
<!-- Node5 -->
<g id="node5" class="node">
<title>Node5</title>
<g id="a_node5"><a xlink:href="classflow_1_1net__flow_1_1Congestion__control__classic.html#a34b8ef88093f082df7a935bbebfae2f3" target="_top" xlink:title="Implements Congestion_control_strategy::on_acks() API.">
<polygon fill="white" stroke="black" points="197,-319 197,-345 322,-345 322,-319 197,-319"/>
<text text-anchor="start" x="205" y="-334.6" font-family="Helvetica,sans-Serif" font-size="8.00">flow::net_flow::Congestion</text>
<text text-anchor="middle" x="259.5" y="-325.6" font-family="Helvetica,sans-Serif" font-size="8.00">_control_classic::on_acks</text>
</a>
</g>
</g>
<!-- Node4&#45;&gt;Node5 -->
<g id="edge5" class="edge">
<title>Node4&#45;&gt;Node5</title>
<path fill="none" stroke="midnightblue" d="M387.45,-298.56C362.54,-305.12 333.87,-312.67 310.09,-318.94"/>
<polygon fill="midnightblue" stroke="midnightblue" points="388.37,-301.93 397.14,-296 386.58,-295.17 388.37,-301.93"/>
</g>
<!-- Node6 -->
<g id="node6" class="node">
<title>Node6</title>
<g id="a_node6"><a xlink:href="classflow_1_1net__flow_1_1Congestion__control__classic__with__bandwidth__est.html#a83ee8438d6033c26a6af03b9dd173dc3" target="_top" xlink:title="Implements Congestion_control_strategy::on_acks() API.">
<polygon fill="white" stroke="black" points="185,-264.5 185,-299.5 334,-299.5 334,-264.5 185,-264.5"/>
<text text-anchor="start" x="193" y="-289.1" font-family="Helvetica,sans-Serif" font-size="8.00">flow::net_flow::Congestion</text>
<text text-anchor="start" x="193" y="-280.1" font-family="Helvetica,sans-Serif" font-size="8.00">_control_classic_with_bandwidth</text>
<text text-anchor="middle" x="259.5" y="-271.1" font-family="Helvetica,sans-Serif" font-size="8.00">_est::on_acks</text>
</a>
</g>
</g>
<!-- Node4&#45;&gt;Node6 -->
<g id="edge6" class="edge">
<title>Node4&#45;&gt;Node6</title>
<path fill="none" stroke="midnightblue" d="M366.31,-282.57C355.65,-282.51 344.76,-282.45 334.21,-282.4"/>
<polygon fill="midnightblue" stroke="midnightblue" points="366.43,-286.07 376.45,-282.62 366.47,-279.07 366.43,-286.07"/>
</g>
<!-- Node8 -->
<g id="node8" class="node">
<title>Node8</title>
<g id="a_node8"><a xlink:href="classflow_1_1net__flow_1_1Congestion__control__classic__data.html#a63316b5d9e9a27816b09bb52c464b588" target="_top" xlink:title="Adjust state, including CWND and SSTHRESH, assuming a Drop Timeout just occurred.">
<polygon fill="white" stroke="black" points="197,-108.5 197,-143.5 322,-143.5 322,-108.5 197,-108.5"/>
<text text-anchor="start" x="205" y="-133.1" font-family="Helvetica,sans-Serif" font-size="8.00">flow::net_flow::Congestion</text>
<text text-anchor="start" x="205" y="-124.1" font-family="Helvetica,sans-Serif" font-size="8.00">_control_classic_data::on</text>
<text text-anchor="middle" x="259.5" y="-115.1" font-family="Helvetica,sans-Serif" font-size="8.00">_drop_timeout</text>
</a>
</g>
</g>
<!-- Node7&#45;&gt;Node8 -->
<g id="edge8" class="edge">
<title>Node7&#45;&gt;Node8</title>
<path fill="none" stroke="midnightblue" d="M375.46,-158.76C357.9,-153.75 339.24,-148.44 322.17,-143.57"/>
<polygon fill="midnightblue" stroke="midnightblue" points="374.5,-162.12 385.08,-161.5 376.42,-155.39 374.5,-162.12"/>
</g>
<!-- Node11 -->
<g id="node11" class="node">
<title>Node11</title>
<g id="a_node11"><a xlink:href="classflow_1_1net__flow_1_1Congestion__control__classic__data.html#afbe0609319f117e90074e1241abbba5c" target="_top" xlink:title="Adjust state, namely CWND, assuming an Idle Timeout just occurred.">
<polygon fill="white" stroke="black" points="197,-54.5 197,-89.5 322,-89.5 322,-54.5 197,-54.5"/>
<text text-anchor="start" x="205" y="-79.1" font-family="Helvetica,sans-Serif" font-size="8.00">flow::net_flow::Congestion</text>
<text text-anchor="start" x="205" y="-70.1" font-family="Helvetica,sans-Serif" font-size="8.00">_control_classic_data::on</text>
<text text-anchor="middle" x="259.5" y="-61.1" font-family="Helvetica,sans-Serif" font-size="8.00">_idle_timeout</text>
</a>
</g>
</g>
<!-- Node7&#45;&gt;Node11 -->
<g id="edge11" class="edge">
<title>Node7&#45;&gt;Node11</title>
<path fill="none" stroke="midnightblue" d="M417.29,-154.93C395.37,-137.71 364.08,-114.85 334,-99 327.51,-95.58 320.48,-92.4 313.44,-89.51"/>
<polygon fill="midnightblue" stroke="midnightblue" points="415.21,-157.75 425.22,-161.23 419.57,-152.27 415.21,-157.75"/>
</g>
<!-- Node14 -->
<g id="node14" class="node">
<title>Node14</title>
<g id="a_node14"><a xlink:href="classflow_1_1net__flow_1_1Congestion__control__classic.html#af2340e68dbdbb8d6065ae487b05074be" target="_top" xlink:title="Implements Congestion_control_strategy::on_loss_event() API.">
<polygon fill="white" stroke="black" points="187.5,-217 187.5,-243 331.5,-243 331.5,-217 187.5,-217"/>
<text text-anchor="start" x="195.5" y="-232.6" font-family="Helvetica,sans-Serif" font-size="8.00">flow::net_flow::Congestion</text>
<text text-anchor="middle" x="259.5" y="-223.6" font-family="Helvetica,sans-Serif" font-size="8.00">_control_classic::on_loss_event</text>
</a>
</g>
</g>
<!-- Node7&#45;&gt;Node14 -->
<g id="edge14" class="edge">
<title>Node7&#45;&gt;Node14</title>
<path fill="none" stroke="midnightblue" d="M375.02,-198.6C352.64,-204.74 328.5,-211.36 308.18,-216.93"/>
<polygon fill="midnightblue" stroke="midnightblue" points="376.1,-201.93 384.82,-195.91 374.25,-195.18 376.1,-201.93"/>
</g>
<!-- Node15 -->
<g id="node15" class="node">
<title>Node15</title>
<g id="a_node15"><a xlink:href="classflow_1_1net__flow_1_1Congestion__control__classic__with__bandwidth__est.html#a942ce2561d6d2bbbb8faa8160a772416" target="_top" xlink:title="Implements Congestion_control_strategy::on_loss_event() API.">
<polygon fill="white" stroke="black" points="185,-162.5 185,-197.5 334,-197.5 334,-162.5 185,-162.5"/>
<text text-anchor="start" x="193" y="-187.1" font-family="Helvetica,sans-Serif" font-size="8.00">flow::net_flow::Congestion</text>
<text text-anchor="start" x="193" y="-178.1" font-family="Helvetica,sans-Serif" font-size="8.00">_control_classic_with_bandwidth</text>
<text text-anchor="middle" x="259.5" y="-169.1" font-family="Helvetica,sans-Serif" font-size="8.00">_est::on_loss_event</text>
</a>
</g>
</g>
<!-- Node7&#45;&gt;Node15 -->
<g id="edge15" class="edge">
<title>Node7&#45;&gt;Node15</title>
<path fill="none" stroke="midnightblue" d="M374.81,-179.39C361.52,-179.46 347.63,-179.53 334.29,-179.6"/>
<polygon fill="midnightblue" stroke="midnightblue" points="374.84,-182.89 384.82,-179.33 374.8,-175.89 374.84,-182.89"/>
</g>
<!-- Node9 -->
<g id="node9" class="node">
<title>Node9</title>
<g id="a_node9"><a xlink:href="classflow_1_1net__flow_1_1Congestion__control__classic.html#a59148ce4dafea4063b6992b9670909dc" target="_top" xlink:title="Implements Congestion_control_strategy::on_drop_timeout() API.">
<polygon fill="white" stroke="black" points="12,-162.5 12,-197.5 137,-197.5 137,-162.5 12,-162.5"/>
<text text-anchor="start" x="20" y="-187.1" font-family="Helvetica,sans-Serif" font-size="8.00">flow::net_flow::Congestion</text>
<text text-anchor="start" x="20" y="-178.1" font-family="Helvetica,sans-Serif" font-size="8.00">_control_classic::on_drop</text>
<text text-anchor="middle" x="74.5" y="-169.1" font-family="Helvetica,sans-Serif" font-size="8.00">_timeout</text>
</a>
</g>
</g>
<!-- Node8&#45;&gt;Node9 -->
<g id="edge9" class="edge">
<title>Node8&#45;&gt;Node9</title>
<path fill="none" stroke="midnightblue" d="M189.29,-146.42C171.39,-151.71 152.28,-157.34 134.93,-162.46"/>
<polygon fill="midnightblue" stroke="midnightblue" points="190.48,-149.72 199.09,-143.53 188.5,-143.01 190.48,-149.72"/>
</g>
<!-- Node10 -->
<g id="node10" class="node">
<title>Node10</title>
<g id="a_node10"><a xlink:href="classflow_1_1net__flow_1_1Congestion__control__classic__with__bandwidth__est.html#a3358f8b8700d5427a5163f2f480b2e8d" target="_top" xlink:title="Implements Congestion_control_strategy::on_drop_timeout() API.">
<polygon fill="white" stroke="black" points="0,-108.5 0,-143.5 149,-143.5 149,-108.5 0,-108.5"/>
<text text-anchor="start" x="8" y="-133.1" font-family="Helvetica,sans-Serif" font-size="8.00">flow::net_flow::Congestion</text>
<text text-anchor="start" x="8" y="-124.1" font-family="Helvetica,sans-Serif" font-size="8.00">_control_classic_with_bandwidth</text>
<text text-anchor="middle" x="74.5" y="-115.1" font-family="Helvetica,sans-Serif" font-size="8.00">_est::on_drop_timeout</text>
</a>
</g>
</g>
<!-- Node8&#45;&gt;Node10 -->
<g id="edge10" class="edge">
<title>Node8&#45;&gt;Node10</title>
<path fill="none" stroke="midnightblue" d="M186.63,-126C174.37,-126 161.6,-126 149.29,-126"/>
<polygon fill="midnightblue" stroke="midnightblue" points="186.8,-129.5 196.8,-126 186.8,-122.5 186.8,-129.5"/>
</g>
<!-- Node12 -->
<g id="node12" class="node">
<title>Node12</title>
<g id="a_node12"><a xlink:href="classflow_1_1net__flow_1_1Congestion__control__classic.html#a588baa530b660a3437d3a39d68b16404" target="_top" xlink:title="Implements Congestion_control_strategy::on_idle_timeout() API.">
<polygon fill="white" stroke="black" points="12,-54.5 12,-89.5 137,-89.5 137,-54.5 12,-54.5"/>
<text text-anchor="start" x="20" y="-79.1" font-family="Helvetica,sans-Serif" font-size="8.00">flow::net_flow::Congestion</text>
<text text-anchor="start" x="20" y="-70.1" font-family="Helvetica,sans-Serif" font-size="8.00">_control_classic::on_idle</text>
<text text-anchor="middle" x="74.5" y="-61.1" font-family="Helvetica,sans-Serif" font-size="8.00">_timeout</text>
</a>
</g>
</g>
<!-- Node11&#45;&gt;Node12 -->
<g id="edge12" class="edge">
<title>Node11&#45;&gt;Node12</title>
<path fill="none" stroke="midnightblue" d="M186.75,-72C170.39,-72 153.14,-72 137.24,-72"/>
<polygon fill="midnightblue" stroke="midnightblue" points="186.8,-75.5 196.8,-72 186.8,-68.5 186.8,-75.5"/>
</g>
<!-- Node13 -->
<g id="node13" class="node">
<title>Node13</title>
<g id="a_node13"><a xlink:href="classflow_1_1net__flow_1_1Congestion__control__classic__with__bandwidth__est.html#a461064f1ff0303cded61131df593599a" target="_top" xlink:title="Implements Congestion_control_strategy::on_idle_timeout() API.">
<polygon fill="white" stroke="black" points="0,-0.5 0,-35.5 149,-35.5 149,-0.5 0,-0.5"/>
<text text-anchor="start" x="8" y="-25.1" font-family="Helvetica,sans-Serif" font-size="8.00">flow::net_flow::Congestion</text>
<text text-anchor="start" x="8" y="-16.1" font-family="Helvetica,sans-Serif" font-size="8.00">_control_classic_with_bandwidth</text>
<text text-anchor="middle" x="74.5" y="-7.1" font-family="Helvetica,sans-Serif" font-size="8.00">_est::on_idle_timeout</text>
</a>
</g>
</g>
<!-- Node11&#45;&gt;Node13 -->
<g id="edge13" class="edge">
<title>Node11&#45;&gt;Node13</title>
<path fill="none" stroke="midnightblue" d="M189.29,-51.58C171.39,-46.29 152.28,-40.66 134.93,-35.54"/>
<polygon fill="midnightblue" stroke="midnightblue" points="188.5,-54.99 199.09,-54.47 190.48,-48.28 188.5,-54.99"/>
</g>
</g>
</svg>
