<?xml version="1.0" encoding="UTF-8" standalone="no"?>
<!DOCTYPE svg PUBLIC "-//W3C//DTD SVG 1.1//EN"
 "http://www.w3.org/Graphics/SVG/1.1/DTD/svg11.dtd">
<!-- Generated by graphviz version 2.43.0 (0)
 -->
<!-- Title: flow::perf::Checkpointing_timer::checkpoint Pages: 1 -->
<svg width="443pt" height="135pt"
 viewBox="0.00 0.00 443.00 134.50" xmlns="http://www.w3.org/2000/svg" xmlns:xlink="http://www.w3.org/1999/xlink">
<g id="graph0" class="graph" transform="scale(1 1) rotate(0) translate(4 130.5)">
<title>flow::perf::Checkpointing_timer::checkpoint</title>
<polygon fill="white" stroke="transparent" points="-4,4 -4,-130.5 439,-130.5 439,4 -4,4"/>
<!-- Node1 -->
<g id="node1" class="node">
<title>Node1</title>
<g id="a_node1"><a xlink:title="Records a checkpoint, which takes a sample of all enabled Clock_types&#39; clocks and records the corresp...">
<polygon fill="#bfbfbf" stroke="black" points="316,-45.5 316,-71.5 435,-71.5 435,-45.5 316,-45.5"/>
<text text-anchor="start" x="324" y="-61.1" font-family="Helvetica,sans-Serif" font-size="8.00">flow::perf::Checkpointing</text>
<text text-anchor="middle" x="375.5" y="-52.1" font-family="Helvetica,sans-Serif" font-size="8.00">_timer::checkpoint</text>
</a>
</g>
</g>
<!-- Node2 -->
<g id="node2" class="node">
<title>Node2</title>
<g id="a_node2"><a xlink:href="classflow_1_1perf_1_1Checkpointing__timer_1_1Aggregator.html#acbacf3b4842b77f542082e7a186f1434" target="_top" xlink:title="Provides programmatic access to the aggregation result that would be logged by log_aggregated_results...">
<polygon fill="white" stroke="black" points="155,-91 155,-126 280,-126 280,-91 155,-91"/>
<text text-anchor="start" x="163" y="-115.6" font-family="Helvetica,sans-Serif" font-size="8.00">flow::perf::Checkpointing</text>
<text text-anchor="start" x="163" y="-106.6" font-family="Helvetica,sans-Serif" font-size="8.00">_timer::Aggregator::create</text>
<text text-anchor="middle" x="217.5" y="-97.6" font-family="Helvetica,sans-Serif" font-size="8.00">_aggregated_result</text>
</a>
</g>
</g>
<!-- Node1&#45;&gt;Node2 -->
<g id="edge1" class="edge">
<title>Node1&#45;&gt;Node2</title>
<path fill="none" stroke="midnightblue" d="M324.08,-74.66C307.85,-79.86 289.79,-85.65 273.27,-90.95"/>
<polygon fill="midnightblue" stroke="midnightblue" points="325.47,-77.89 333.92,-71.51 323.33,-71.23 325.47,-77.89"/>
</g>
<!-- Node3 -->
<g id="node3" class="node">
<title>Node3</title>
<g id="a_node3"><a xlink:href="classflow_1_1perf_1_1Checkpointing__timer.html#a07204b9119b94bc10d53a8ba15c44797" target="_top" xlink:title="Equivalent to (*os) &lt;&lt; (*this).">
<polygon fill="white" stroke="black" points="158,-45.5 158,-71.5 277,-71.5 277,-45.5 158,-45.5"/>
<text text-anchor="start" x="166" y="-61.1" font-family="Helvetica,sans-Serif" font-size="8.00">flow::perf::Checkpointing</text>
<text text-anchor="middle" x="217.5" y="-52.1" font-family="Helvetica,sans-Serif" font-size="8.00">_timer::output</text>
</a>
</g>
</g>
<!-- Node1&#45;&gt;Node3 -->
<g id="edge2" class="edge">
<title>Node1&#45;&gt;Node3</title>
<path fill="none" stroke="midnightblue" d="M305.71,-58.5C296.17,-58.5 286.44,-58.5 277.1,-58.5"/>
<polygon fill="midnightblue" stroke="midnightblue" points="305.97,-62 315.97,-58.5 305.97,-55 305.97,-62"/>
</g>
<!-- Node5 -->
<g id="node5" class="node">
<title>Node5</title>
<g id="a_node5"><a xlink:href="classflow_1_1perf_1_1Checkpointing__timer.html#a378be385d0c3dda261c8944551280010" target="_top" xlink:title="Called anytime after the last checkpoint(), this modifies the data collected so far to be as if every...">
<polygon fill="white" stroke="black" points="158,-0.5 158,-26.5 277,-26.5 277,-0.5 158,-0.5"/>
<text text-anchor="start" x="166" y="-16.1" font-family="Helvetica,sans-Serif" font-size="8.00">flow::perf::Checkpointing</text>
<text text-anchor="middle" x="217.5" y="-7.1" font-family="Helvetica,sans-Serif" font-size="8.00">_timer::scale</text>
</a>
</g>
</g>
<!-- Node1&#45;&gt;Node5 -->
<g id="edge4" class="edge">
<title>Node1&#45;&gt;Node5</title>
<path fill="none" stroke="midnightblue" d="M319.73,-42.7C301.44,-37.42 281.27,-31.61 263.79,-26.56"/>
<polygon fill="midnightblue" stroke="midnightblue" points="318.8,-46.08 329.38,-45.48 320.74,-39.35 318.8,-46.08"/>
</g>
<!-- Node4 -->
<g id="node4" class="node">
<title>Node4</title>
<g id="a_node4"><a xlink:href="classflow_1_1perf_1_1Checkpointing__timer.html#a6d5b7cbbe0ec5133299f97148ef3eaa0" target="_top" xlink:title="Prints string representation of the given Checkpointing_timer (whether with original data or an aggre...">
<polygon fill="white" stroke="black" points="0,-45.5 0,-71.5 119,-71.5 119,-45.5 0,-45.5"/>
<text text-anchor="start" x="8" y="-61.1" font-family="Helvetica,sans-Serif" font-size="8.00">flow::perf::Checkpointing</text>
<text text-anchor="middle" x="59.5" y="-52.1" font-family="Helvetica,sans-Serif" font-size="8.00">_timer::operator&lt;&lt;</text>
</a>
</g>
</g>
<!-- Node3&#45;&gt;Node4 -->
<g id="edge3" class="edge">
<title>Node3&#45;&gt;Node4</title>
<path fill="none" stroke="midnightblue" d="M147.71,-58.5C138.17,-58.5 128.44,-58.5 119.1,-58.5"/>
<polygon fill="midnightblue" stroke="midnightblue" points="147.97,-62 157.97,-58.5 147.97,-55 147.97,-62"/>
</g>
</g>
</svg>
