<?xml version="1.0" encoding="UTF-8" standalone="no"?>
<!DOCTYPE svg PUBLIC "-//W3C//DTD SVG 1.1//EN"
 "http://www.w3.org/Graphics/SVG/1.1/DTD/svg11.dtd">
<!-- Generated by graphviz version 2.43.0 (0)
 -->
<!-- Title: flow::net_flow::Peer_socket_receive_stats_accumulator::late_or_dupe_to_send_ack_packet Pages: 1 -->
<svg width="884pt" height="90pt"
 viewBox="0.00 0.00 884.00 90.00" xmlns="http://www.w3.org/2000/svg" xmlns:xlink="http://www.w3.org/1999/xlink">
<g id="graph0" class="graph" transform="scale(1 1) rotate(0) translate(4 86)">
<title>flow::net_flow::Peer_socket_receive_stats_accumulator::late_or_dupe_to_send_ack_packet</title>
<polygon fill="white" stroke="transparent" points="-4,4 -4,-86 880,-86 880,4 -4,4"/>
<!-- Node1 -->
<g id="node1" class="node">
<title>Node1</title>
<g id="a_node1"><a xlink:title="Indicates that late_or_dupe_data_packet() and therefore an individual acknowledgment for this packet ...">
<polygon fill="#bfbfbf" stroke="black" points="749,-19 749,-63 876,-63 876,-19 749,-19"/>
<text text-anchor="start" x="757" y="-52.6" font-family="Helvetica,sans-Serif" font-size="8.00">flow::net_flow::Peer</text>
<text text-anchor="start" x="757" y="-43.6" font-family="Helvetica,sans-Serif" font-size="8.00">_socket_receive_stats</text>
<text text-anchor="start" x="757" y="-34.6" font-family="Helvetica,sans-Serif" font-size="8.00">_accumulator::late_or</text>
<text text-anchor="middle" x="812.5" y="-25.6" font-family="Helvetica,sans-Serif" font-size="8.00">_dupe_to_send_ack_packet</text>
</a>
</g>
</g>
<!-- Node2 -->
<g id="node2" class="node">
<title>Node2</title>
<g id="a_node2"><a xlink:href="classflow_1_1net__flow_1_1Node.html#a06e4cea2eefa1b06975864f09740c96b" target="_top" xlink:title="Handles a just&#45;deserialized, just&#45;demultiplexed, low&#45;level DATA packet delivered to the given peer so...">
<polygon fill="white" stroke="black" points="576,-28 576,-54 713,-54 713,-28 576,-28"/>
<text text-anchor="start" x="584" y="-43.6" font-family="Helvetica,sans-Serif" font-size="8.00">flow::net_flow::Node</text>
<text text-anchor="middle" x="644.5" y="-34.6" font-family="Helvetica,sans-Serif" font-size="8.00">::handle_data_to_established</text>
</a>
</g>
</g>
<!-- Node1&#45;&gt;Node2 -->
<g id="edge1" class="edge">
<title>Node1&#45;&gt;Node2</title>
<path fill="none" stroke="midnightblue" d="M738.51,-41C730.05,-41 721.44,-41 713.06,-41"/>
<polygon fill="midnightblue" stroke="midnightblue" points="738.74,-44.5 748.74,-41 738.74,-37.5 738.74,-44.5"/>
</g>
<!-- Node3 -->
<g id="node3" class="node">
<title>Node3</title>
<g id="a_node3"><a xlink:href="classflow_1_1net__flow_1_1Node.html#a1699dfdaf3e5ebe1b1d715a9c306d116" target="_top" xlink:title="Handles a just&#45;received, not&#45;yet&#45;deserialized low&#45;level packet.">
<polygon fill="white" stroke="black" points="298,-28 298,-54 399,-54 399,-28 298,-28"/>
<text text-anchor="start" x="306" y="-43.6" font-family="Helvetica,sans-Serif" font-size="8.00">flow::net_flow::Node</text>
<text text-anchor="middle" x="348.5" y="-34.6" font-family="Helvetica,sans-Serif" font-size="8.00">::handle_incoming</text>
</a>
</g>
</g>
<!-- Node2&#45;&gt;Node3 -->
<g id="edge2" class="edge">
<title>Node2&#45;&gt;Node3</title>
<path fill="none" stroke="midnightblue" d="M565.72,-44.33C557.05,-44.61 548.33,-44.84 540,-45 493.34,-45.9 481.65,-46.09 435,-45 423.41,-44.73 410.95,-44.25 399.22,-43.72"/>
<polygon fill="midnightblue" stroke="midnightblue" points="565.99,-47.82 575.87,-43.99 565.76,-40.83 565.99,-47.82"/>
</g>
<!-- Node9 -->
<g id="node6" class="node">
<title>Node9</title>
<g id="a_node6"><a xlink:href="classflow_1_1net__flow_1_1Node.html#a29d02f9e302c7b06288ff1c644fa8d65" target="_top" xlink:title="Handles a just&#45;deserialized, just&#45;demultiplexed low&#45;level SYN_ACK_ACK packet delivered to the given p...">
<polygon fill="white" stroke="black" points="435,-0.5 435,-35.5 540,-35.5 540,-0.5 435,-0.5"/>
<text text-anchor="start" x="443" y="-25.1" font-family="Helvetica,sans-Serif" font-size="8.00">flow::net_flow::Node</text>
<text text-anchor="start" x="443" y="-16.1" font-family="Helvetica,sans-Serif" font-size="8.00">::handle_syn_ack_ack</text>
<text text-anchor="middle" x="487.5" y="-7.1" font-family="Helvetica,sans-Serif" font-size="8.00">_to_syn_rcvd</text>
</a>
</g>
</g>
<!-- Node2&#45;&gt;Node9 -->
<g id="edge7" class="edge">
<title>Node2&#45;&gt;Node9</title>
<path fill="none" stroke="midnightblue" d="M565.87,-29.48C557.24,-28.2 548.62,-26.92 540.43,-25.71"/>
<polygon fill="midnightblue" stroke="midnightblue" points="565.56,-32.97 575.97,-30.98 566.59,-26.05 565.56,-32.97"/>
</g>
<!-- Node4 -->
<g id="node4" class="node">
<title>Node4</title>
<g id="a_node4"><a xlink:href="classflow_1_1net__flow_1_1Node.html#a4368247d07e930bdd07ab8d2425c6de8" target="_top" xlink:title="Sets up handle_incoming(packet_data, low_lvl_remote_endpoint) to be called asynchronously after a spe...">
<polygon fill="white" stroke="black" points="149,-46.5 149,-81.5 262,-81.5 262,-46.5 149,-46.5"/>
<text text-anchor="start" x="157" y="-71.1" font-family="Helvetica,sans-Serif" font-size="8.00">flow::net_flow::Node</text>
<text text-anchor="start" x="157" y="-62.1" font-family="Helvetica,sans-Serif" font-size="8.00">::async_wait_latency</text>
<text text-anchor="middle" x="205.5" y="-53.1" font-family="Helvetica,sans-Serif" font-size="8.00">_then_handle_incoming</text>
</a>
</g>
</g>
<!-- Node3&#45;&gt;Node4 -->
<g id="edge3" class="edge">
<title>Node3&#45;&gt;Node4</title>
<path fill="none" stroke="midnightblue" d="M287.86,-50.73C279.29,-52.13 270.49,-53.56 262.01,-54.95"/>
<polygon fill="midnightblue" stroke="midnightblue" points="288.48,-54.17 297.79,-49.11 287.36,-47.26 288.48,-54.17"/>
</g>
<!-- Node5 -->
<g id="node5" class="node">
<title>Node5</title>
<g id="a_node5"><a xlink:href="classflow_1_1net__flow_1_1Node.html#a90ecbad1ff3a8d2fe4b3ad1c474f7513" target="_top" xlink:title="Helper for low_lvl_recv_and_handle() that calls handle_incoming() on the not&#45;yet&#45;deserialized low&#45;lev...">
<polygon fill="white" stroke="red" points="0,-23.5 0,-58.5 113,-58.5 113,-23.5 0,-23.5"/>
<text text-anchor="start" x="8" y="-48.1" font-family="Helvetica,sans-Serif" font-size="8.00">flow::net_flow::Node</text>
<text text-anchor="start" x="8" y="-39.1" font-family="Helvetica,sans-Serif" font-size="8.00">::handle_incoming_with</text>
<text text-anchor="middle" x="56.5" y="-30.1" font-family="Helvetica,sans-Serif" font-size="8.00">_simulation</text>
</a>
</g>
</g>
<!-- Node3&#45;&gt;Node5 -->
<g id="edge6" class="edge">
<title>Node3&#45;&gt;Node5</title>
<path fill="none" stroke="midnightblue" d="M287.75,-37.85C279.11,-37.5 270.33,-37.19 262,-37 211.79,-35.83 199.21,-35.9 149,-37 137.4,-37.25 124.97,-37.69 113.13,-38.18"/>
<polygon fill="midnightblue" stroke="midnightblue" points="287.64,-41.35 297.78,-38.28 287.94,-34.35 287.64,-41.35"/>
</g>
<!-- Node4&#45;&gt;Node5 -->
<g id="edge4" class="edge">
<title>Node4&#45;&gt;Node5</title>
<path fill="none" stroke="midnightblue" d="M138.92,-53.74C130.32,-52.39 121.57,-51.02 113.15,-49.71"/>
<polygon fill="midnightblue" stroke="midnightblue" points="138.5,-57.22 148.93,-55.3 139.59,-50.3 138.5,-57.22"/>
</g>
<!-- Node5&#45;&gt;Node5 -->
<g id="edge5" class="edge">
<title>Node5&#45;&gt;Node5</title>
<path fill="none" stroke="midnightblue" d="M82.27,-69.1C78.65,-73.77 70.06,-77 56.5,-77 34.24,-77 25.37,-68.31 29.89,-58.78"/>
<polygon fill="midnightblue" stroke="midnightblue" points="85.79,-69.03 83.11,-58.78 78.81,-68.47 85.79,-69.03"/>
</g>
<!-- Node9&#45;&gt;Node3 -->
<g id="edge8" class="edge">
<title>Node9&#45;&gt;Node3</title>
<path fill="none" stroke="midnightblue" d="M424.73,-28.37C416.15,-29.81 407.42,-31.28 399.1,-32.67"/>
<polygon fill="midnightblue" stroke="midnightblue" points="425.42,-31.8 434.71,-26.7 424.26,-24.9 425.42,-31.8"/>
</g>
</g>
</svg>
