<?xml version="1.0" encoding="UTF-8" standalone="no"?>
<!DOCTYPE svg PUBLIC "-//W3C//DTD SVG 1.1//EN"
 "http://www.w3.org/Graphics/SVG/1.1/DTD/svg11.dtd">
<!-- Generated by graphviz version 2.43.0 (0)
 -->
<!-- Title: flow::perf::Checkpointing_timer::Aggregator::create_aggregated_result Pages: 1 -->
<svg width="443pt" height="120pt"
 viewBox="0.00 0.00 443.00 120.00" xmlns="http://www.w3.org/2000/svg" xmlns:xlink="http://www.w3.org/1999/xlink">
<g id="graph0" class="graph" transform="scale(1 1) rotate(0) translate(4 116)">
<title>flow::perf::Checkpointing_timer::Aggregator::create_aggregated_result</title>
<polygon fill="white" stroke="transparent" points="-4,4 -4,-116 439,-116 439,4 -4,4"/>
<!-- Node1 -->
<g id="node1" class="node">
<title>Node1</title>
<g id="a_node1"><a xlink:title="Provides programmatic access to the aggregation result that would be logged by log_aggregated_results...">
<polygon fill="#bfbfbf" stroke="black" points="0,-18 0,-53 125,-53 125,-18 0,-18"/>
<text text-anchor="start" x="8" y="-42.6" font-family="Helvetica,sans-Serif" font-size="8.00">flow::perf::Checkpointing</text>
<text text-anchor="start" x="8" y="-33.6" font-family="Helvetica,sans-Serif" font-size="8.00">_timer::Aggregator::create</text>
<text text-anchor="middle" x="62.5" y="-24.6" font-family="Helvetica,sans-Serif" font-size="8.00">_aggregated_result</text>
</a>
</g>
</g>
<!-- Node2 -->
<g id="node2" class="node">
<title>Node2</title>
<g id="a_node2"><a xlink:href="classflow_1_1perf_1_1Checkpointing__timer.html#a9e6078df059d5626ab5774f0a33fbad7" target="_top" xlink:title="Records a checkpoint, which takes a sample of all enabled Clock_types&#39; clocks and records the corresp...">
<polygon fill="white" stroke="black" points="161,-45.5 161,-71.5 280,-71.5 280,-45.5 161,-45.5"/>
<text text-anchor="start" x="169" y="-61.1" font-family="Helvetica,sans-Serif" font-size="8.00">flow::perf::Checkpointing</text>
<text text-anchor="middle" x="220.5" y="-52.1" font-family="Helvetica,sans-Serif" font-size="8.00">_timer::checkpoint</text>
</a>
</g>
</g>
<!-- Node1&#45;&gt;Node2 -->
<g id="edge1" class="edge">
<title>Node1&#45;&gt;Node2</title>
<path fill="none" stroke="midnightblue" d="M125.16,-44.59C133.6,-45.84 142.32,-47.12 150.88,-48.38"/>
<polygon fill="midnightblue" stroke="midnightblue" points="150.43,-51.85 160.84,-49.85 151.45,-44.93 150.43,-51.85"/>
</g>
<!-- Node5 -->
<g id="node5" class="node">
<title>Node5</title>
<g id="a_node5"><a xlink:href="classflow_1_1log_1_1Log__context.html#af4db395042b065b00398cd59845dcb4d" target="_top" xlink:title="Returns the stored Logger pointer, particularly as many FLOW_LOG_*() macros expect.">
<polygon fill="white" stroke="black" points="167,-0.5 167,-26.5 274,-26.5 274,-0.5 167,-0.5"/>
<text text-anchor="start" x="175" y="-16.1" font-family="Helvetica,sans-Serif" font-size="8.00">flow::log::Log_context</text>
<text text-anchor="middle" x="220.5" y="-7.1" font-family="Helvetica,sans-Serif" font-size="8.00">::get_logger</text>
</a>
</g>
</g>
<!-- Node1&#45;&gt;Node5 -->
<g id="edge5" class="edge">
<title>Node1&#45;&gt;Node5</title>
<path fill="none" stroke="midnightblue" d="M125.16,-26.81C135.5,-25.35 146.25,-23.83 156.63,-22.37"/>
<polygon fill="midnightblue" stroke="midnightblue" points="157.44,-25.79 166.86,-20.92 156.46,-18.86 157.44,-25.79"/>
</g>
<!-- Node3 -->
<g id="node3" class="node">
<title>Node3</title>
<g id="a_node3"><a xlink:href="classflow_1_1perf_1_1Checkpointing__timer.html#a3b73f2812c2bf6a27ef2becc13859d73" target="_top" xlink:title="Sample all currently enabled Clock_types&#39; clocks and return those values, each of which is a time sta...">
<polygon fill="white" stroke="black" points="316,-67.5 316,-93.5 435,-93.5 435,-67.5 316,-67.5"/>
<text text-anchor="start" x="324" y="-83.1" font-family="Helvetica,sans-Serif" font-size="8.00">flow::perf::Checkpointing</text>
<text text-anchor="middle" x="375.5" y="-74.1" font-family="Helvetica,sans-Serif" font-size="8.00">_timer::now</text>
</a>
</g>
</g>
<!-- Node2&#45;&gt;Node3 -->
<g id="edge2" class="edge">
<title>Node2&#45;&gt;Node3</title>
<path fill="none" stroke="midnightblue" d="M280.22,-66.94C288.64,-68.15 297.36,-69.41 305.95,-70.64"/>
<polygon fill="midnightblue" stroke="midnightblue" points="305.54,-74.12 315.94,-72.08 306.54,-67.19 305.54,-74.12"/>
</g>
<!-- Node4 -->
<g id="node4" class="node">
<title>Node4</title>
<g id="a_node4"><a xlink:href="classflow_1_1perf_1_1Checkpointing__timer.html#afeb1faa0e4962dacf9b6a134191a4933" target="_top" xlink:title="Returns the duration(s) (for all enabled Clock_types) between construction and the last checkpoint() ...">
<polygon fill="white" stroke="black" points="316,-22.5 316,-48.5 435,-48.5 435,-22.5 316,-22.5"/>
<text text-anchor="start" x="324" y="-38.1" font-family="Helvetica,sans-Serif" font-size="8.00">flow::perf::Checkpointing</text>
<text text-anchor="middle" x="375.5" y="-29.1" font-family="Helvetica,sans-Serif" font-size="8.00">_timer::since_start</text>
</a>
</g>
</g>
<!-- Node2&#45;&gt;Node4 -->
<g id="edge4" class="edge">
<title>Node2&#45;&gt;Node4</title>
<path fill="none" stroke="midnightblue" d="M280.22,-49.67C288.64,-48.41 297.36,-47.1 305.95,-45.81"/>
<polygon fill="midnightblue" stroke="midnightblue" points="306.57,-49.25 315.94,-44.3 305.53,-42.33 306.57,-49.25"/>
</g>
<!-- Node3&#45;&gt;Node3 -->
<g id="edge3" class="edge">
<title>Node3&#45;&gt;Node3</title>
<path fill="none" stroke="midnightblue" d="M349.44,-93.77C341.55,-102.96 350.23,-112 375.5,-112 390.9,-112 400.14,-108.64 403.22,-103.94"/>
<polygon fill="midnightblue" stroke="midnightblue" points="406.62,-103.07 401.56,-93.77 399.71,-104.2 406.62,-103.07"/>
</g>
</g>
</svg>
