<?xml version="1.0" encoding="UTF-8" standalone="no"?>
<!DOCTYPE svg PUBLIC "-//W3C//DTD SVG 1.1//EN"
 "http://www.w3.org/Graphics/SVG/1.1/DTD/svg11.dtd">
<!-- Generated by graphviz version 2.43.0 (0)
 -->
<!-- Title: flow::util::Linked_hash_set&lt; Key_t, Hash_t, Pred_t &gt; Pages: 1 -->
<svg width="216pt" height="188pt"
 viewBox="0.00 0.00 216.00 188.00" xmlns="http://www.w3.org/2000/svg" xmlns:xlink="http://www.w3.org/1999/xlink">
<g id="graph0" class="graph" transform="scale(1 1) rotate(0) translate(4 184)">
<title>flow::util::Linked_hash_set&lt; Key_t, Hash_t, Pred_t &gt;</title>
<polygon fill="white" stroke="transparent" points="-4,4 -4,-184 212,-184 212,4 -4,4"/>
<!-- Node1 -->
<g id="node1" class="node">
<title>Node1</title>
<g id="a_node1"><a xlink:title="An object of this class is a map that combines the lookup speed of an unordered_set&lt;&gt; and ordering an...">
<polygon fill="#bfbfbf" stroke="black" points="43.5,-0.5 43.5,-35.5 156.5,-35.5 156.5,-0.5 43.5,-0.5"/>
<text text-anchor="start" x="51.5" y="-25.1" font-family="Helvetica,sans-Serif" font-size="8.00">flow::util::Linked</text>
<text text-anchor="start" x="51.5" y="-16.1" font-family="Helvetica,sans-Serif" font-size="8.00">_hash_set&lt; Key_t, Hash</text>
<text text-anchor="middle" x="100" y="-7.1" font-family="Helvetica,sans-Serif" font-size="8.00">_t, Pred_t &gt;</text>
</a>
</g>
</g>
<!-- Node2 -->
<g id="node2" class="node">
<title>Node2</title>
<g id="a_node2"><a xlink:title=" ">
<polygon fill="white" stroke="black" points="0,-90.5 0,-107.5 88,-107.5 88,-90.5 0,-90.5"/>
<text text-anchor="middle" x="44" y="-97.1" font-family="Helvetica,sans-Serif" font-size="8.00">std::list&lt; Value &gt;</text>
</a>
</g>
</g>
<!-- Node2&#45;&gt;Node1 -->
<g id="edge1" class="edge">
<title>Node2&#45;&gt;Node1</title>
<path fill="none" stroke="#9a32cd" stroke-dasharray="5,2" d="M55.21,-82.18C64.75,-68.73 78.4,-49.47 88.12,-35.76"/>
<polygon fill="#9a32cd" stroke="#9a32cd" points="52.3,-80.24 49.37,-90.43 58.01,-84.29 52.3,-80.24"/>
<text text-anchor="middle" x="100" y="-56.6" font-family="Helvetica,sans-Serif" font-size="8.00"> m_value_list</text>
</g>
<!-- Node3 -->
<g id="node3" class="node">
<title>Node3</title>
<g id="a_node3"><a xlink:title=" ">
<polygon fill="white" stroke="#bfbfbf" points="24.5,-162.5 24.5,-179.5 63.5,-179.5 63.5,-162.5 24.5,-162.5"/>
<text text-anchor="middle" x="44" y="-169.1" font-family="Helvetica,sans-Serif" font-size="8.00">Value</text>
</a>
</g>
</g>
<!-- Node3&#45;&gt;Node2 -->
<g id="edge2" class="edge">
<title>Node3&#45;&gt;Node2</title>
<path fill="none" stroke="#9a32cd" stroke-dasharray="5,2" d="M44,-152.05C44,-137.65 44,-118.15 44,-107.58"/>
<polygon fill="#9a32cd" stroke="#9a32cd" points="40.5,-152.24 44,-162.24 47.5,-152.24 40.5,-152.24"/>
<text text-anchor="middle" x="64.5" y="-137.6" font-family="Helvetica,sans-Serif" font-size="8.00"> elements</text>
</g>
<!-- Node4 -->
<g id="node4" class="node">
<title>Node4</title>
<g id="a_node4"><a xlink:href="classLinked__hash__key__set_3_01Key_00_01Iterator_00_01Hash_00_01Pred_00_01false_01_4.html" target="_top" xlink:title=" ">
<polygon fill="white" stroke="#bfbfbf" points="106,-81.5 106,-116.5 208,-116.5 208,-81.5 106,-81.5"/>
<text text-anchor="start" x="114" y="-106.1" font-family="Helvetica,sans-Serif" font-size="8.00">Linked_hash_key_set</text>
<text text-anchor="start" x="114" y="-97.1" font-family="Helvetica,sans-Serif" font-size="8.00">&lt; Key, Iterator, Hash,</text>
<text text-anchor="middle" x="157" y="-88.1" font-family="Helvetica,sans-Serif" font-size="8.00"> Pred, false &gt;</text>
</a>
</g>
</g>
<!-- Node4&#45;&gt;Node1 -->
<g id="edge3" class="edge">
<title>Node4&#45;&gt;Node1</title>
<path fill="none" stroke="#9a32cd" stroke-dasharray="5,2" d="M142.34,-72.57C138.51,-66.37 134.25,-59.84 130,-54 125.48,-47.79 120.13,-41.32 115.21,-35.65"/>
<polygon fill="#9a32cd" stroke="#9a32cd" points="139.44,-74.54 147.6,-81.3 145.44,-70.93 139.44,-74.54"/>
<text text-anchor="middle" x="170" y="-56.6" font-family="Helvetica,sans-Serif" font-size="8.00"> m_value_iter_set</text>
</g>
</g>
</svg>
