<?xml version="1.0" encoding="UTF-8" standalone="no"?>
<!DOCTYPE svg PUBLIC "-//W3C//DTD SVG 1.1//EN"
 "http://www.w3.org/Graphics/SVG/1.1/DTD/svg11.dtd">
<!-- Generated by graphviz version 2.43.0 (0)
 -->
<!-- Title: flow::net_flow::Node::connect_worker Pages: 1 -->
<svg width="281pt" height="280pt"
 viewBox="0.00 0.00 281.00 279.50" xmlns="http://www.w3.org/2000/svg" xmlns:xlink="http://www.w3.org/1999/xlink">
<g id="graph0" class="graph" transform="scale(1 1) rotate(0) translate(4 275.5)">
<title>flow::net_flow::Node::connect_worker</title>
<polygon fill="white" stroke="transparent" points="-4,4 -4,-275.5 277,-275.5 277,4 -4,4"/>
<!-- Node1 -->
<g id="node1" class="node">
<title>Node1</title>
<g id="a_node1"><a xlink:title="Thread W implementation of connect().">
<polygon fill="#bfbfbf" stroke="black" points="0,-124.5 0,-150.5 101,-150.5 101,-124.5 0,-124.5"/>
<text text-anchor="start" x="8" y="-140.1" font-family="Helvetica,sans-Serif" font-size="8.00">flow::net_flow::Node</text>
<text text-anchor="middle" x="50.5" y="-131.1" font-family="Helvetica,sans-Serif" font-size="8.00">::connect_worker</text>
</a>
</g>
</g>
<!-- Node2 -->
<g id="node2" class="node">
<title>Node2</title>
<g id="a_node2"><a xlink:href="classflow_1_1net__flow_1_1Congestion__control__selector.html#a52eee18d41c3f9cc7d6c48b766a7919f" target="_top" xlink:title="Factory method that, given an enum identifying the desired strategy, allocates the appropriate Conges...">
<polygon fill="white" stroke="black" points="142.5,-236 142.5,-271 267.5,-271 267.5,-236 142.5,-236"/>
<text text-anchor="start" x="150.5" y="-260.6" font-family="Helvetica,sans-Serif" font-size="8.00">flow::net_flow::Congestion</text>
<text text-anchor="start" x="150.5" y="-251.6" font-family="Helvetica,sans-Serif" font-size="8.00">_control_selector::create</text>
<text text-anchor="middle" x="205" y="-242.6" font-family="Helvetica,sans-Serif" font-size="8.00">_strategy</text>
</a>
</g>
</g>
<!-- Node1&#45;&gt;Node2 -->
<g id="edge1" class="edge">
<title>Node1&#45;&gt;Node2</title>
<path fill="none" stroke="midnightblue" d="M61.18,-150.67C75.76,-169.68 105.04,-204.91 137,-226.5 139.39,-228.11 141.88,-229.65 144.45,-231.12"/>
<polygon fill="midnightblue" stroke="midnightblue" points="142.93,-234.28 153.41,-235.84 146.19,-228.08 142.93,-234.28"/>
</g>
<!-- Node3 -->
<g id="node3" class="node">
<title>Node3</title>
<g id="a_node3"><a xlink:href="classflow_1_1log_1_1Log__context.html#af4db395042b065b00398cd59845dcb4d" target="_top" xlink:title="Returns the stored Logger pointer, particularly as many FLOW_LOG_*() macros expect.">
<polygon fill="white" stroke="black" points="151.5,-190.5 151.5,-216.5 258.5,-216.5 258.5,-190.5 151.5,-190.5"/>
<text text-anchor="start" x="159.5" y="-206.1" font-family="Helvetica,sans-Serif" font-size="8.00">flow::log::Log_context</text>
<text text-anchor="middle" x="205" y="-197.1" font-family="Helvetica,sans-Serif" font-size="8.00">::get_logger</text>
</a>
</g>
</g>
<!-- Node1&#45;&gt;Node3 -->
<g id="edge2" class="edge">
<title>Node1&#45;&gt;Node3</title>
<path fill="none" stroke="midnightblue" d="M75.41,-150.62C92.34,-159.63 115.71,-171.54 137,-180.5 142.3,-182.73 147.9,-184.91 153.51,-186.99"/>
<polygon fill="midnightblue" stroke="midnightblue" points="152.33,-190.29 162.92,-190.38 154.7,-183.7 152.33,-190.29"/>
</g>
<!-- Node4 -->
<g id="node4" class="node">
<title>Node4</title>
<g id="a_node4"><a xlink:href="namespaceflow_1_1util.html#a03984e29450abf9cf287c501d6c8f866" target="_top" xlink:title="Returns true if and only if the given key is present at least once in the given associative container...">
<polygon fill="white" stroke="black" points="155.5,-154 155.5,-171 254.5,-171 254.5,-154 155.5,-154"/>
<text text-anchor="middle" x="205" y="-160.6" font-family="Helvetica,sans-Serif" font-size="8.00">flow::util::key_exists</text>
</a>
</g>
</g>
<!-- Node1&#45;&gt;Node4 -->
<g id="edge3" class="edge">
<title>Node1&#45;&gt;Node4</title>
<path fill="none" stroke="midnightblue" d="M101.01,-145.62C115.15,-147.93 130.68,-150.48 145.31,-152.88"/>
<polygon fill="midnightblue" stroke="midnightblue" points="144.82,-156.35 155.26,-154.51 145.95,-149.44 144.82,-156.35"/>
</g>
<!-- Node5 -->
<g id="node5" class="node">
<title>Node5</title>
<g id="a_node5"><a xlink:href="classflow_1_1util_1_1Shared__ptr__alias__holder.html#a55a247bb8fb2ec94b7cbfdd56be65a81" target="_top" xlink:title="Provides syntactic&#45;sugary way to perform a static_pointer_cast&lt;&gt; from a compatible smart pointer type...">
<polygon fill="white" stroke="black" points="137,-90.5 137,-134.5 273,-134.5 273,-90.5 137,-90.5"/>
<text text-anchor="start" x="145" y="-124.1" font-family="Helvetica,sans-Serif" font-size="8.00">flow::util::Shared</text>
<text text-anchor="start" x="145" y="-115.1" font-family="Helvetica,sans-Serif" font-size="8.00">_ptr_alias_holder&lt; boost</text>
<text text-anchor="start" x="145" y="-106.1" font-family="Helvetica,sans-Serif" font-size="8.00">::shared_ptr&lt; Low_lvl_packet</text>
<text text-anchor="middle" x="205" y="-97.1" font-family="Helvetica,sans-Serif" font-size="8.00"> &gt; &gt;::ptr_cast</text>
</a>
</g>
</g>
<!-- Node1&#45;&gt;Node5 -->
<g id="edge4" class="edge">
<title>Node1&#45;&gt;Node5</title>
<path fill="none" stroke="midnightblue" d="M101.01,-129.38C109.35,-128.02 118.18,-126.57 127.03,-125.12"/>
<polygon fill="midnightblue" stroke="midnightblue" points="127.69,-128.56 136.99,-123.49 126.56,-121.65 127.69,-128.56"/>
</g>
<!-- Node6 -->
<g id="node6" class="node">
<title>Node6</title>
<g id="a_node6"><a xlink:href="classflow_1_1net__flow_1_1Sequence__number.html#a77ce8cf348e93caa8bb03f22f7b7d120" target="_top" xlink:title="Updates the full set of metadata (used at least for convenient convention&#45;based logging but not actua...">
<polygon fill="white" stroke="black" points="145,-45.5 145,-71.5 265,-71.5 265,-45.5 145,-45.5"/>
<text text-anchor="start" x="153" y="-61.1" font-family="Helvetica,sans-Serif" font-size="8.00">flow::net_flow::Sequence</text>
<text text-anchor="middle" x="205" y="-52.1" font-family="Helvetica,sans-Serif" font-size="8.00">_number::set_metadata</text>
</a>
</g>
</g>
<!-- Node1&#45;&gt;Node6 -->
<g id="edge5" class="edge">
<title>Node1&#45;&gt;Node6</title>
<path fill="none" stroke="midnightblue" d="M68.74,-124.35C85.49,-112.04 111.98,-93.75 137,-81.5 141.58,-79.26 146.43,-77.14 151.34,-75.17"/>
<polygon fill="midnightblue" stroke="midnightblue" points="152.73,-78.38 160.82,-71.54 150.23,-71.84 152.73,-78.38"/>
</g>
<!-- Node7 -->
<g id="node7" class="node">
<title>Node7</title>
<g id="a_node7"><a xlink:href="classflow_1_1net__flow_1_1Node.html#a99836ffb51eaefa4d2cc21770461cd97" target="_top" xlink:title="Constructs the socket pair (connection ID) for the given socket.">
<polygon fill="white" stroke="black" points="154.5,-0.5 154.5,-26.5 255.5,-26.5 255.5,-0.5 154.5,-0.5"/>
<text text-anchor="start" x="162.5" y="-16.1" font-family="Helvetica,sans-Serif" font-size="8.00">flow::net_flow::Node</text>
<text text-anchor="middle" x="205" y="-7.1" font-family="Helvetica,sans-Serif" font-size="8.00">::socket_id</text>
</a>
</g>
</g>
<!-- Node1&#45;&gt;Node7 -->
<g id="edge6" class="edge">
<title>Node1&#45;&gt;Node7</title>
<path fill="none" stroke="midnightblue" d="M59.27,-124.38C72.57,-103 101.72,-60.61 137,-36.5 139.93,-34.5 143.05,-32.65 146.29,-30.96"/>
<polygon fill="midnightblue" stroke="midnightblue" points="148.07,-33.99 155.63,-26.56 145.09,-27.65 148.07,-33.99"/>
</g>
</g>
</svg>
