<?xml version="1.0" encoding="UTF-8" standalone="no"?>
<!DOCTYPE svg PUBLIC "-//W3C//DTD SVG 1.1//EN"
 "http://www.w3.org/Graphics/SVG/1.1/DTD/svg11.dtd">
<!-- Generated by graphviz version 2.43.0 (0)
 -->
<!-- Title: flow::log::Async_file_logger::do_log Pages: 1 -->
<svg width="549pt" height="35pt"
 viewBox="0.00 0.00 549.00 35.00" xmlns="http://www.w3.org/2000/svg" xmlns:xlink="http://www.w3.org/1999/xlink">
<g id="graph0" class="graph" transform="scale(1 1) rotate(0) translate(4 31)">
<title>flow::log::Async_file_logger::do_log</title>
<polygon fill="white" stroke="transparent" points="-4,4 -4,-31 545,-31 545,4 -4,4"/>
<!-- Node1 -->
<g id="node1" class="node">
<title>Node1</title>
<g id="a_node1"><a xlink:title="Implements interface method by asynchronously logging the message and some subset of the metadata in ...">
<polygon fill="#bfbfbf" stroke="black" points="0,-0.5 0,-26.5 98,-26.5 98,-0.5 0,-0.5"/>
<text text-anchor="start" x="8" y="-16.1" font-family="Helvetica,sans-Serif" font-size="8.00">flow::log::Async_file</text>
<text text-anchor="middle" x="49" y="-7.1" font-family="Helvetica,sans-Serif" font-size="8.00">_logger::do_log</text>
</a>
</g>
</g>
<!-- Node2 -->
<g id="node2" class="node">
<title>Node2</title>
<g id="a_node2"><a xlink:href="classflow_1_1async_1_1Single__thread__task__loop.html#adaf7dbd5fbd6ee7c886daabc7a6ad0ae" target="_top" xlink:title="Cause the given Task (function) to execute within the worker thread as soon as the thread is free of ...">
<polygon fill="white" stroke="black" points="134,-0.5 134,-26.5 248,-26.5 248,-0.5 134,-0.5"/>
<text text-anchor="start" x="142" y="-16.1" font-family="Helvetica,sans-Serif" font-size="8.00">flow::async::Single</text>
<text text-anchor="middle" x="191" y="-7.1" font-family="Helvetica,sans-Serif" font-size="8.00">_thread_task_loop::post</text>
</a>
</g>
</g>
<!-- Node1&#45;&gt;Node2 -->
<g id="edge1" class="edge">
<title>Node1&#45;&gt;Node2</title>
<path fill="none" stroke="midnightblue" d="M98.18,-13.5C106.28,-13.5 114.81,-13.5 123.27,-13.5"/>
<polygon fill="midnightblue" stroke="midnightblue" points="123.54,-17 133.54,-13.5 123.54,-10 123.54,-17"/>
</g>
<!-- Node3 -->
<g id="node3" class="node">
<title>Node3</title>
<g id="a_node3"><a xlink:href="classflow_1_1async_1_1Cross__thread__task__loop.html#ab785edcaa745fb859aaef4743478ea07" target="_top" xlink:title="Implements superclass API.">
<polygon fill="white" stroke="black" points="284,-0.5 284,-26.5 398,-26.5 398,-0.5 284,-0.5"/>
<text text-anchor="start" x="292" y="-16.1" font-family="Helvetica,sans-Serif" font-size="8.00">flow::async::Cross</text>
<text text-anchor="middle" x="341" y="-7.1" font-family="Helvetica,sans-Serif" font-size="8.00">_thread_task_loop::post</text>
</a>
</g>
</g>
<!-- Node2&#45;&gt;Node3 -->
<g id="edge2" class="edge">
<title>Node2&#45;&gt;Node3</title>
<path fill="none" stroke="midnightblue" d="M248.37,-13.5C256.62,-13.5 265.18,-13.5 273.6,-13.5"/>
<polygon fill="midnightblue" stroke="midnightblue" points="273.78,-17 283.78,-13.5 273.78,-10 273.78,-17"/>
</g>
<!-- Node4 -->
<g id="node4" class="node">
<title>Node4</title>
<g id="a_node4"><a xlink:href="classflow_1_1log_1_1Log__context.html#af4db395042b065b00398cd59845dcb4d" target="_top" xlink:title="Returns the stored Logger pointer, particularly as many FLOW_LOG_*() macros expect.">
<polygon fill="white" stroke="black" points="434,-0.5 434,-26.5 541,-26.5 541,-0.5 434,-0.5"/>
<text text-anchor="start" x="442" y="-16.1" font-family="Helvetica,sans-Serif" font-size="8.00">flow::log::Log_context</text>
<text text-anchor="middle" x="487.5" y="-7.1" font-family="Helvetica,sans-Serif" font-size="8.00">::get_logger</text>
</a>
</g>
</g>
<!-- Node3&#45;&gt;Node4 -->
<g id="edge3" class="edge">
<title>Node3&#45;&gt;Node4</title>
<path fill="none" stroke="midnightblue" d="M398.28,-13.5C406.62,-13.5 415.26,-13.5 423.72,-13.5"/>
<polygon fill="midnightblue" stroke="midnightblue" points="423.92,-17 433.92,-13.5 423.92,-10 423.92,-17"/>
</g>
</g>
</svg>
