<?xml version="1.0" encoding="UTF-8" standalone="no"?>
<!DOCTYPE svg PUBLIC "-//W3C//DTD SVG 1.1//EN"
 "http://www.w3.org/Graphics/SVG/1.1/DTD/svg11.dtd">
<!-- Generated by graphviz version 2.43.0 (0)
 -->
<!-- Title: flow::net_flow::Server_socket::Server_socket Pages: 1 -->
<svg width="420pt" height="53pt"
 viewBox="0.00 0.00 420.00 53.00" xmlns="http://www.w3.org/2000/svg" xmlns:xlink="http://www.w3.org/1999/xlink">
<g id="graph0" class="graph" transform="scale(1 1) rotate(0) translate(4 49)">
<title>flow::net_flow::Server_socket::Server_socket</title>
<polygon fill="white" stroke="transparent" points="-4,4 -4,-49 416,-49 416,4 -4,4"/>
<!-- Node1 -->
<g id="node1" class="node">
<title>Node1</title>
<g id="a_node1"><a xlink:title="Constructs object; initializes most values to well&#45;defined (0, empty, etc.) but not necessarily meani...">
<polygon fill="#bfbfbf" stroke="black" points="302,-0.5 302,-26.5 412,-26.5 412,-0.5 302,-0.5"/>
<text text-anchor="start" x="310" y="-16.1" font-family="Helvetica,sans-Serif" font-size="8.00">flow::net_flow::Server</text>
<text text-anchor="middle" x="357" y="-7.1" font-family="Helvetica,sans-Serif" font-size="8.00">_socket::Server_socket</text>
</a>
</g>
</g>
<!-- Node2 -->
<g id="node2" class="node">
<title>Node2</title>
<g id="a_node2"><a xlink:href="classflow_1_1net__flow_1_1Server__socket.html#a7f374375e95e008cfe0326ecfb27cf3b" target="_top" xlink:title="Same as sync_accept() but uses a Fine_clock&#45;based Fine_duration non&#45;template type for implementation ...">
<polygon fill="white" stroke="black" points="141,-0.5 141,-26.5 266,-26.5 266,-0.5 141,-0.5"/>
<text text-anchor="start" x="149" y="-16.1" font-family="Helvetica,sans-Serif" font-size="8.00">flow::net_flow::Server</text>
<text text-anchor="middle" x="203.5" y="-7.1" font-family="Helvetica,sans-Serif" font-size="8.00">_socket::sync_accept_impl</text>
</a>
</g>
</g>
<!-- Node1&#45;&gt;Node2 -->
<g id="edge1" class="edge">
<title>Node1&#45;&gt;Node2</title>
<path fill="none" stroke="midnightblue" d="M291.57,-13.5C283.13,-13.5 274.5,-13.5 266.11,-13.5"/>
<polygon fill="midnightblue" stroke="midnightblue" points="291.73,-17 301.73,-13.5 291.73,-10 291.73,-17"/>
</g>
<!-- Node2&#45;&gt;Node2 -->
<g id="edge3" class="edge">
<title>Node2&#45;&gt;Node2</title>
<path fill="none" stroke="midnightblue" d="M230.5,-36.94C227.5,-41.64 218.5,-45 203.5,-45 178.89,-45 170.43,-35.96 178.12,-26.77"/>
<polygon fill="midnightblue" stroke="midnightblue" points="233.91,-36.1 228.88,-26.77 226.99,-37.2 233.91,-36.1"/>
</g>
<!-- Node3 -->
<g id="node3" class="node">
<title>Node3</title>
<g id="a_node3"><a xlink:href="classflow_1_1net__flow_1_1Server__socket.html#a33861b2d67ce2b534683a30192d14138" target="_top" xlink:title="Equivalent to sync_accept(duration::max(), reactor_pattern, err_code); i.e., sync_accept() with no us...">
<polygon fill="white" stroke="black" points="0,-0.5 0,-26.5 105,-26.5 105,-0.5 0,-0.5"/>
<text text-anchor="start" x="8" y="-16.1" font-family="Helvetica,sans-Serif" font-size="8.00">flow::net_flow::Server</text>
<text text-anchor="middle" x="52.5" y="-7.1" font-family="Helvetica,sans-Serif" font-size="8.00">_socket::sync_accept</text>
</a>
</g>
</g>
<!-- Node2&#45;&gt;Node3 -->
<g id="edge2" class="edge">
<title>Node2&#45;&gt;Node3</title>
<path fill="none" stroke="midnightblue" d="M130.54,-13.5C121.93,-13.5 113.28,-13.5 105.03,-13.5"/>
<polygon fill="midnightblue" stroke="midnightblue" points="130.61,-17 140.61,-13.5 130.6,-10 130.61,-17"/>
</g>
</g>
</svg>
