<?xml version="1.0" encoding="UTF-8" standalone="no"?>
<!DOCTYPE svg PUBLIC "-//W3C//DTD SVG 1.1//EN"
 "http://www.w3.org/Graphics/SVG/1.1/DTD/svg11.dtd">
<!-- Generated by graphviz version 2.43.0 (0)
 -->
<!-- Title: flow::net_flow::Node::sock_set_state Pages: 1 -->
<svg width="1392pt" height="602pt"
 viewBox="0.00 0.00 1392.00 601.50" xmlns="http://www.w3.org/2000/svg" xmlns:xlink="http://www.w3.org/1999/xlink">
<g id="graph0" class="graph" transform="scale(1 1) rotate(0) translate(4 597.5)">
<title>flow::net_flow::Node::sock_set_state</title>
<polygon fill="white" stroke="transparent" points="-4,4 -4,-597.5 1388,-597.5 1388,4 -4,4"/>
<!-- Node1 -->
<g id="node1" class="node">
<title>Node1</title>
<g id="a_node1"><a xlink:title="Sets Peer_socket::m_state and Peer_socket::m_open_sub_state.">
<polygon fill="#bfbfbf" stroke="black" points="1283,-474.5 1283,-500.5 1384,-500.5 1384,-474.5 1283,-474.5"/>
<text text-anchor="start" x="1291" y="-490.1" font-family="Helvetica,sans-Serif" font-size="8.00">flow::net_flow::Node</text>
<text text-anchor="middle" x="1333.5" y="-481.1" font-family="Helvetica,sans-Serif" font-size="8.00">::sock_set_state</text>
</a>
</g>
</g>
<!-- Node2 -->
<g id="node2" class="node">
<title>Node2</title>
<g id="a_node2"><a xlink:href="classflow_1_1net__flow_1_1Node.html#a29d02f9e302c7b06288ff1c644fa8d65" target="_top" xlink:title="Handles a just&#45;deserialized, just&#45;demultiplexed low&#45;level SYN_ACK_ACK packet delivered to the given p...">
<polygon fill="white" stroke="black" points="435,-425 435,-460 540,-460 540,-425 435,-425"/>
<text text-anchor="start" x="443" y="-449.6" font-family="Helvetica,sans-Serif" font-size="8.00">flow::net_flow::Node</text>
<text text-anchor="start" x="443" y="-440.6" font-family="Helvetica,sans-Serif" font-size="8.00">::handle_syn_ack_ack</text>
<text text-anchor="middle" x="487.5" y="-431.6" font-family="Helvetica,sans-Serif" font-size="8.00">_to_syn_rcvd</text>
</a>
</g>
</g>
<!-- Node1&#45;&gt;Node2 -->
<g id="edge1" class="edge">
<title>Node1&#45;&gt;Node2</title>
<path fill="none" stroke="midnightblue" d="M1272.94,-499.64C1206.8,-512.05 1096.74,-529.5 1001,-529.5 1001,-529.5 1001,-529.5 825,-529.5 713.98,-529.5 679.64,-549.32 576,-509.5 561.35,-503.87 529.56,-477.96 508.61,-460.06"/>
<polygon fill="midnightblue" stroke="midnightblue" points="1273.59,-503.08 1282.77,-497.77 1272.29,-496.2 1273.59,-503.08"/>
</g>
<!-- Node9 -->
<g id="node6" class="node">
<title>Node9</title>
<g id="a_node6"><a xlink:href="classflow_1_1net__flow_1_1Node.html#aaaf5c3b5e6b9f9f1658b60907b36a498" target="_top" xlink:title="Handles a just&#45;deserialized, just&#45;demultiplexed low&#45;level SYN packet delivered to the given server so...">
<polygon fill="white" stroke="black" points="940,-558 940,-593 1060,-593 1060,-558 940,-558"/>
<text text-anchor="start" x="948" y="-582.6" font-family="Helvetica,sans-Serif" font-size="8.00">flow::net_flow::Node</text>
<text text-anchor="start" x="948" y="-573.6" font-family="Helvetica,sans-Serif" font-size="8.00">::handle_syn_to_listening</text>
<text text-anchor="middle" x="1000" y="-564.6" font-family="Helvetica,sans-Serif" font-size="8.00">_server</text>
</a>
</g>
</g>
<!-- Node1&#45;&gt;Node9 -->
<g id="edge7" class="edge">
<title>Node1&#45;&gt;Node9</title>
<path fill="none" stroke="midnightblue" d="M1309.37,-506.82C1293,-519.4 1269.96,-535 1247,-543.5 1185.91,-566.12 1111.14,-573.18 1060.17,-575.17"/>
<polygon fill="midnightblue" stroke="midnightblue" points="1311.61,-509.51 1317.29,-500.57 1307.27,-504.02 1311.61,-509.51"/>
</g>
<!-- Node10 -->
<g id="node7" class="node">
<title>Node10</title>
<g id="a_node7"><a xlink:href="classflow_1_1net__flow_1_1Node.html#ade529b5452c9fe363ae468346e662ceb" target="_top" xlink:title="While in S_OPEN+S_DISCONNECTING state (i.e., after beginning a graceful close with sock_disconnect_de...">
<polygon fill="white" stroke="black" points="1110,-453.5 1110,-479.5 1247,-479.5 1247,-453.5 1110,-453.5"/>
<text text-anchor="start" x="1118" y="-469.1" font-family="Helvetica,sans-Serif" font-size="8.00">flow::net_flow::Node</text>
<text text-anchor="middle" x="1178.5" y="-460.1" font-family="Helvetica,sans-Serif" font-size="8.00">::sock_disconnect_completed</text>
</a>
</g>
</g>
<!-- Node1&#45;&gt;Node10 -->
<g id="edge9" class="edge">
<title>Node1&#45;&gt;Node10</title>
<path fill="none" stroke="midnightblue" d="M1272.71,-479.29C1264.28,-478.14 1255.57,-476.94 1247.01,-475.77"/>
<polygon fill="midnightblue" stroke="midnightblue" points="1272.44,-482.79 1282.83,-480.68 1273.39,-475.85 1272.44,-482.79"/>
</g>
<!-- Node46 -->
<g id="node22" class="node">
<title>Node46</title>
<g id="a_node22"><a xlink:href="classflow_1_1net__flow_1_1Node.html#ada9357f6ce9d5fc249b1cc176afdc471" target="_top" xlink:title="Records that thread W shows underlying connection is broken (graceful termination,...">
<polygon fill="white" stroke="black" points="1113,-367.5 1113,-393.5 1244,-393.5 1244,-367.5 1113,-367.5"/>
<text text-anchor="start" x="1121" y="-383.1" font-family="Helvetica,sans-Serif" font-size="8.00">flow::net_flow::Node</text>
<text text-anchor="middle" x="1178.5" y="-374.1" font-family="Helvetica,sans-Serif" font-size="8.00">::sock_disconnect_detected</text>
</a>
</g>
</g>
<!-- Node1&#45;&gt;Node46 -->
<g id="edge28" class="edge">
<title>Node1&#45;&gt;Node46</title>
<path fill="none" stroke="midnightblue" d="M1305.21,-468.41C1274.44,-446.9 1225.23,-412.48 1198.41,-393.73"/>
<polygon fill="midnightblue" stroke="midnightblue" points="1303.54,-471.52 1313.74,-474.38 1307.55,-465.78 1303.54,-471.52"/>
</g>
<!-- Node3 -->
<g id="node3" class="node">
<title>Node3</title>
<g id="a_node3"><a xlink:href="classflow_1_1net__flow_1_1Node.html#a1699dfdaf3e5ebe1b1d715a9c306d116" target="_top" xlink:title="Handles a just&#45;received, not&#45;yet&#45;deserialized low&#45;level packet.">
<polygon fill="white" stroke="black" points="298,-429.5 298,-455.5 399,-455.5 399,-429.5 298,-429.5"/>
<text text-anchor="start" x="306" y="-445.1" font-family="Helvetica,sans-Serif" font-size="8.00">flow::net_flow::Node</text>
<text text-anchor="middle" x="348.5" y="-436.1" font-family="Helvetica,sans-Serif" font-size="8.00">::handle_incoming</text>
</a>
</g>
</g>
<!-- Node2&#45;&gt;Node3 -->
<g id="edge2" class="edge">
<title>Node2&#45;&gt;Node3</title>
<path fill="none" stroke="midnightblue" d="M424.45,-442.5C415.96,-442.5 407.33,-442.5 399.1,-442.5"/>
<polygon fill="midnightblue" stroke="midnightblue" points="424.71,-446 434.71,-442.5 424.71,-439 424.71,-446"/>
</g>
<!-- Node4 -->
<g id="node4" class="node">
<title>Node4</title>
<g id="a_node4"><a xlink:href="classflow_1_1net__flow_1_1Node.html#a4368247d07e930bdd07ab8d2425c6de8" target="_top" xlink:title="Sets up handle_incoming(packet_data, low_lvl_remote_endpoint) to be called asynchronously after a spe...">
<polygon fill="white" stroke="black" points="149,-448 149,-483 262,-483 262,-448 149,-448"/>
<text text-anchor="start" x="157" y="-472.6" font-family="Helvetica,sans-Serif" font-size="8.00">flow::net_flow::Node</text>
<text text-anchor="start" x="157" y="-463.6" font-family="Helvetica,sans-Serif" font-size="8.00">::async_wait_latency</text>
<text text-anchor="middle" x="205.5" y="-454.6" font-family="Helvetica,sans-Serif" font-size="8.00">_then_handle_incoming</text>
</a>
</g>
</g>
<!-- Node3&#45;&gt;Node4 -->
<g id="edge3" class="edge">
<title>Node3&#45;&gt;Node4</title>
<path fill="none" stroke="midnightblue" d="M287.86,-452.23C279.29,-453.63 270.49,-455.06 262.01,-456.45"/>
<polygon fill="midnightblue" stroke="midnightblue" points="288.48,-455.67 297.79,-450.61 287.36,-448.76 288.48,-455.67"/>
</g>
<!-- Node5 -->
<g id="node5" class="node">
<title>Node5</title>
<g id="a_node5"><a xlink:href="classflow_1_1net__flow_1_1Node.html#a90ecbad1ff3a8d2fe4b3ad1c474f7513" target="_top" xlink:title="Helper for low_lvl_recv_and_handle() that calls handle_incoming() on the not&#45;yet&#45;deserialized low&#45;lev...">
<polygon fill="white" stroke="red" points="0,-425 0,-460 113,-460 113,-425 0,-425"/>
<text text-anchor="start" x="8" y="-449.6" font-family="Helvetica,sans-Serif" font-size="8.00">flow::net_flow::Node</text>
<text text-anchor="start" x="8" y="-440.6" font-family="Helvetica,sans-Serif" font-size="8.00">::handle_incoming_with</text>
<text text-anchor="middle" x="56.5" y="-431.6" font-family="Helvetica,sans-Serif" font-size="8.00">_simulation</text>
</a>
</g>
</g>
<!-- Node3&#45;&gt;Node5 -->
<g id="edge6" class="edge">
<title>Node3&#45;&gt;Node5</title>
<path fill="none" stroke="midnightblue" d="M287.75,-439.35C279.11,-439 270.33,-438.69 262,-438.5 211.79,-437.33 199.21,-437.4 149,-438.5 137.4,-438.75 124.97,-439.19 113.13,-439.68"/>
<polygon fill="midnightblue" stroke="midnightblue" points="287.64,-442.85 297.78,-439.78 287.94,-435.85 287.64,-442.85"/>
</g>
<!-- Node4&#45;&gt;Node5 -->
<g id="edge4" class="edge">
<title>Node4&#45;&gt;Node5</title>
<path fill="none" stroke="midnightblue" d="M138.92,-455.24C130.32,-453.89 121.57,-452.52 113.15,-451.21"/>
<polygon fill="midnightblue" stroke="midnightblue" points="138.5,-458.72 148.93,-456.8 139.59,-451.8 138.5,-458.72"/>
</g>
<!-- Node5&#45;&gt;Node5 -->
<g id="edge5" class="edge">
<title>Node5&#45;&gt;Node5</title>
<path fill="none" stroke="midnightblue" d="M82.27,-470.6C78.65,-475.27 70.06,-478.5 56.5,-478.5 34.24,-478.5 25.37,-469.81 29.89,-460.28"/>
<polygon fill="midnightblue" stroke="midnightblue" points="85.79,-470.53 83.11,-460.28 78.81,-469.97 85.79,-470.53"/>
</g>
<!-- Node9&#45;&gt;Node3 -->
<g id="edge8" class="edge">
<title>Node9&#45;&gt;Node3</title>
<path fill="none" stroke="midnightblue" d="M929.8,-577.47C845.07,-578.24 697.79,-574.27 576,-543.5 497.1,-523.57 411.25,-478.02 371.71,-455.54"/>
<polygon fill="midnightblue" stroke="midnightblue" points="929.86,-580.97 939.82,-577.35 929.78,-573.97 929.86,-580.97"/>
</g>
<!-- Node11 -->
<g id="node8" class="node">
<title>Node11</title>
<g id="a_node8"><a xlink:href="classflow_1_1net__flow_1_1Node.html#ade49e7bc7202a0adf33fec2d93d1b177" target="_top" xlink:title="A thread W method that handles the transition of the given socket from OPEN (any sub&#45;state) to CLOSED...">
<polygon fill="white" stroke="black" points="926,-346.5 926,-372.5 1074,-372.5 1074,-346.5 926,-346.5"/>
<text text-anchor="start" x="934" y="-362.1" font-family="Helvetica,sans-Serif" font-size="8.00">flow::net_flow::Node</text>
<text text-anchor="middle" x="1000" y="-353.1" font-family="Helvetica,sans-Serif" font-size="8.00">::close_connection_immediately</text>
</a>
</g>
</g>
<!-- Node10&#45;&gt;Node11 -->
<g id="edge10" class="edge">
<title>Node10&#45;&gt;Node11</title>
<path fill="none" stroke="midnightblue" d="M1146.9,-447.95C1111.37,-426.41 1053.67,-391.43 1022.54,-372.56"/>
<polygon fill="midnightblue" stroke="midnightblue" points="1145.49,-451.19 1155.86,-453.38 1149.12,-445.2 1145.49,-451.19"/>
</g>
<!-- Node11&#45;&gt;Node3 -->
<g id="edge18" class="edge">
<title>Node11&#45;&gt;Node3</title>
<path fill="none" stroke="midnightblue" d="M938.03,-344.3C922.47,-341.07 905.7,-338.14 890,-336.5 750.86,-321.98 712.01,-325.73 576,-358.5 502.61,-376.18 420.45,-410.53 378.13,-429.36"/>
<polygon fill="midnightblue" stroke="midnightblue" points="937.54,-347.78 948.06,-346.46 939.02,-340.94 937.54,-347.78"/>
</g>
<!-- Node12 -->
<g id="node9" class="node">
<title>Node12</title>
<g id="a_node9"><a xlink:href="classflow_1_1net__flow_1_1Node.html#aa5f7c019665d9dd91af0ad6431f8f97d" target="_top" xlink:title="Similar to async_sock_low_lvl_packet_send_paced() except it also calls close_connection_immediately(s...">
<polygon fill="white" stroke="black" points="771,-156.5 771,-200.5 881,-200.5 881,-156.5 771,-156.5"/>
<text text-anchor="start" x="779" y="-190.1" font-family="Helvetica,sans-Serif" font-size="8.00">flow::net_flow::Node</text>
<text text-anchor="start" x="779" y="-181.1" font-family="Helvetica,sans-Serif" font-size="8.00">::async_sock_low_lvl</text>
<text text-anchor="start" x="779" y="-172.1" font-family="Helvetica,sans-Serif" font-size="8.00">_packet_send_or_close</text>
<text text-anchor="middle" x="826" y="-163.1" font-family="Helvetica,sans-Serif" font-size="8.00">_immediately</text>
</a>
</g>
</g>
<!-- Node11&#45;&gt;Node12 -->
<g id="edge11" class="edge">
<title>Node11&#45;&gt;Node12</title>
<path fill="none" stroke="midnightblue" d="M979.45,-338.93C946.86,-304.63 881.69,-236.05 848.1,-200.7"/>
<polygon fill="midnightblue" stroke="midnightblue" points="977.2,-341.64 986.63,-346.48 982.28,-336.82 977.2,-341.64"/>
</g>
<!-- Node36 -->
<g id="node15" class="node">
<title>Node36</title>
<g id="a_node15"><a xlink:href="classflow_1_1net__flow_1_1Node.html#ad608f9bbe76426f4fbf4bf5af908e4e0" target="_top" xlink:title="Placed by receive() onto W during a graceful close, after the Receive buffer had been emptied by the ...">
<polygon fill="white" stroke="black" points="765.5,-37 765.5,-72 886.5,-72 886.5,-37 765.5,-37"/>
<text text-anchor="start" x="773.5" y="-61.6" font-family="Helvetica,sans-Serif" font-size="8.00">flow::net_flow::Node</text>
<text text-anchor="start" x="773.5" y="-52.6" font-family="Helvetica,sans-Serif" font-size="8.00">::receive_emptied_rcv</text>
<text text-anchor="middle" x="826" y="-43.6" font-family="Helvetica,sans-Serif" font-size="8.00">_buf_while_disconnecting</text>
</a>
</g>
</g>
<!-- Node11&#45;&gt;Node36 -->
<g id="edge19" class="edge">
<title>Node11&#45;&gt;Node36</title>
<path fill="none" stroke="midnightblue" d="M988.64,-336.97C970.25,-297.55 930.06,-213.82 890,-146.5 874.06,-119.72 853.25,-90.23 840,-72.04"/>
<polygon fill="midnightblue" stroke="midnightblue" points="985.55,-338.62 992.93,-346.22 991.89,-335.68 985.55,-338.62"/>
</g>
<!-- Node37 -->
<g id="node17" class="node">
<title>Node37</title>
<g id="a_node17"><a xlink:href="classflow_1_1net__flow_1_1Node.html#afe70a0c32695e417e7a09e0ba773f151" target="_top" xlink:title="Asynchronously send RST to the other side of the given socket and close_connection_immediately().">
<polygon fill="white" stroke="black" points="762,-392 762,-427 890,-427 890,-392 762,-392"/>
<text text-anchor="start" x="770" y="-416.6" font-family="Helvetica,sans-Serif" font-size="8.00">flow::net_flow::Node</text>
<text text-anchor="start" x="770" y="-407.6" font-family="Helvetica,sans-Serif" font-size="8.00">::rst_and_close_connection</text>
<text text-anchor="middle" x="826" y="-398.6" font-family="Helvetica,sans-Serif" font-size="8.00">_immediately</text>
</a>
</g>
</g>
<!-- Node11&#45;&gt;Node37 -->
<g id="edge21" class="edge">
<title>Node11&#45;&gt;Node37</title>
<path fill="none" stroke="midnightblue" d="M944.42,-375.37C926.27,-380.64 905.95,-386.55 887.38,-391.95"/>
<polygon fill="midnightblue" stroke="midnightblue" points="945.63,-378.66 954.26,-372.51 943.68,-371.94 945.63,-378.66"/>
</g>
<!-- Node8 -->
<g id="node21" class="node">
<title>Node8</title>
<g id="a_node21"><a xlink:href="classflow_1_1net__flow_1_1Node.html#a5b056ed753b832458f44f537acfe86d7" target="_top" xlink:title="Worker thread W (main event loop) body.">
<polygon fill="white" stroke="black" points="775.5,-346.5 775.5,-372.5 876.5,-372.5 876.5,-346.5 775.5,-346.5"/>
<text text-anchor="start" x="783.5" y="-362.1" font-family="Helvetica,sans-Serif" font-size="8.00">flow::net_flow::Node</text>
<text text-anchor="middle" x="826" y="-353.1" font-family="Helvetica,sans-Serif" font-size="8.00">::worker_run</text>
</a>
</g>
</g>
<!-- Node11&#45;&gt;Node8 -->
<g id="edge27" class="edge">
<title>Node11&#45;&gt;Node8</title>
<path fill="none" stroke="midnightblue" d="M915.43,-359.5C902.14,-359.5 888.77,-359.5 876.59,-359.5"/>
<polygon fill="midnightblue" stroke="midnightblue" points="915.56,-363 925.56,-359.5 915.56,-356 915.56,-363"/>
</g>
<!-- Node13 -->
<g id="node10" class="node">
<title>Node13</title>
<g id="a_node10"><a xlink:href="classflow_1_1net__flow_1_1Node.html#a81e50276d0b162f6577adc690e0ef9e0" target="_top" xlink:title="Sends a low&#45;level ACK packet, with all accumulated in Peer_socket::m_rcv_pending_acks of sock individ...">
<polygon fill="white" stroke="black" points="591.5,-45.5 591.5,-71.5 710.5,-71.5 710.5,-45.5 591.5,-45.5"/>
<text text-anchor="start" x="599.5" y="-61.1" font-family="Helvetica,sans-Serif" font-size="8.00">flow::net_flow::Node</text>
<text text-anchor="middle" x="651" y="-52.1" font-family="Helvetica,sans-Serif" font-size="8.00">::async_low_lvl_ack_send</text>
</a>
</g>
</g>
<!-- Node12&#45;&gt;Node13 -->
<g id="edge12" class="edge">
<title>Node12&#45;&gt;Node13</title>
<path fill="none" stroke="midnightblue" d="M801.46,-148.27C783.07,-126.54 755.71,-98.09 726,-80.5 720.12,-77.02 713.64,-74.05 707.04,-71.53"/>
<polygon fill="midnightblue" stroke="midnightblue" points="798.98,-150.76 808.06,-156.23 804.37,-146.29 798.98,-150.76"/>
</g>
<!-- Node14 -->
<g id="node11" class="node">
<title>Node14</title>
<g id="a_node11"><a xlink:href="classflow_1_1net__flow_1_1Node.html#acaf55766783893827061fd85cab2634f" target="_top" xlink:title="Helper to create, fully fill out, and asynchronously send via async_sock_low_lvl_packet_send_or_close...">
<polygon fill="white" stroke="black" points="576,-254 576,-289 726,-289 726,-254 576,-254"/>
<text text-anchor="start" x="584" y="-278.6" font-family="Helvetica,sans-Serif" font-size="8.00">flow::net_flow::Node</text>
<text text-anchor="start" x="584" y="-269.6" font-family="Helvetica,sans-Serif" font-size="8.00">::async_low_lvl_syn_ack</text>
<text text-anchor="middle" x="651" y="-260.6" font-family="Helvetica,sans-Serif" font-size="8.00">_ack_send_or_close_immediately</text>
</a>
</g>
</g>
<!-- Node12&#45;&gt;Node14 -->
<g id="edge13" class="edge">
<title>Node12&#45;&gt;Node14</title>
<path fill="none" stroke="midnightblue" d="M786.42,-206.67C768.58,-218.94 746.78,-232.91 726,-243.5 718.66,-247.24 710.69,-250.77 702.8,-253.97"/>
<polygon fill="midnightblue" stroke="midnightblue" points="788.64,-209.39 794.84,-200.8 784.63,-203.65 788.64,-209.39"/>
</g>
<!-- Node15 -->
<g id="node12" class="node">
<title>Node15</title>
<g id="a_node12"><a xlink:href="classflow_1_1net__flow_1_1Node.html#a192d4b95b9f8a5c3d08b1e5486eb6f78" target="_top" xlink:title="receive_wnd_updated() helper that continues rcv_wnd recovery: that is, sends unsolicited ACK with a r...">
<polygon fill="white" stroke="red" points="590,-190.5 590,-216.5 712,-216.5 712,-190.5 590,-190.5"/>
<text text-anchor="start" x="598" y="-206.1" font-family="Helvetica,sans-Serif" font-size="8.00">flow::net_flow::Node</text>
<text text-anchor="middle" x="651" y="-197.1" font-family="Helvetica,sans-Serif" font-size="8.00">::async_rcv_wnd_recovery</text>
</a>
</g>
</g>
<!-- Node12&#45;&gt;Node15 -->
<g id="edge14" class="edge">
<title>Node12&#45;&gt;Node15</title>
<path fill="none" stroke="midnightblue" d="M760.49,-187.82C744.64,-190.11 727.72,-192.56 712.09,-194.82"/>
<polygon fill="midnightblue" stroke="midnightblue" points="761.34,-191.24 770.74,-186.34 760.34,-184.31 761.34,-191.24"/>
</g>
<!-- Node25 -->
<g id="node13" class="node">
<title>Node25</title>
<g id="a_node13"><a xlink:href="classflow_1_1net__flow_1_1Node.html#addd654cb6b1ccff34ddccbe5226be8f0" target="_top" xlink:title="Handles the triggering of the retransmit timer wait set up by setup_connection_timers(); it will re&#45;s...">
<polygon fill="white" stroke="black" points="586.5,-136 586.5,-171 715.5,-171 715.5,-136 586.5,-136"/>
<text text-anchor="start" x="594.5" y="-160.6" font-family="Helvetica,sans-Serif" font-size="8.00">flow::net_flow::Node</text>
<text text-anchor="start" x="594.5" y="-151.6" font-family="Helvetica,sans-Serif" font-size="8.00">::handle_connection_rexmit</text>
<text text-anchor="middle" x="651" y="-142.6" font-family="Helvetica,sans-Serif" font-size="8.00">_timer_event</text>
</a>
</g>
</g>
<!-- Node12&#45;&gt;Node25 -->
<g id="edge16" class="edge">
<title>Node12&#45;&gt;Node25</title>
<path fill="none" stroke="midnightblue" d="M760.73,-169.21C746.04,-167.09 730.43,-164.83 715.76,-162.71"/>
<polygon fill="midnightblue" stroke="midnightblue" points="760.34,-172.69 770.74,-170.66 761.34,-165.76 760.34,-172.69"/>
</g>
<!-- Node26 -->
<g id="node14" class="node">
<title>Node26</title>
<g id="a_node14"><a xlink:href="classflow_1_1net__flow_1_1Node.html#a10a92f11a2c9f218cdd9a55f282e79b1" target="_top" xlink:title="Thread W implemention of send(): synchronously or asynchronously send the contents of sock&#45;&gt;m_snd_buf...">
<polygon fill="white" stroke="red" points="600.5,-90.5 600.5,-116.5 701.5,-116.5 701.5,-90.5 600.5,-90.5"/>
<text text-anchor="start" x="608.5" y="-106.1" font-family="Helvetica,sans-Serif" font-size="8.00">flow::net_flow::Node</text>
<text text-anchor="middle" x="651" y="-97.1" font-family="Helvetica,sans-Serif" font-size="8.00">::send_worker</text>
</a>
</g>
</g>
<!-- Node12&#45;&gt;Node26 -->
<g id="edge17" class="edge">
<title>Node12&#45;&gt;Node26</title>
<path fill="none" stroke="midnightblue" d="M777.57,-151.34C761.5,-142.75 743.24,-133.64 726,-126.5 717.3,-122.9 707.82,-119.55 698.65,-116.58"/>
<polygon fill="midnightblue" stroke="midnightblue" points="776.3,-154.63 786.76,-156.32 779.64,-148.48 776.3,-154.63"/>
</g>
<!-- Node15&#45;&gt;Node15 -->
<g id="edge15" class="edge">
<title>Node15&#45;&gt;Node15</title>
<path fill="none" stroke="midnightblue" d="M680.39,-226.58C677.41,-231.47 667.61,-235 651,-235 624.42,-235 615.29,-225.96 623.59,-216.77"/>
<polygon fill="midnightblue" stroke="midnightblue" points="683.82,-225.88 678.41,-216.77 676.96,-227.27 683.82,-225.88"/>
</g>
<!-- Node17 -->
<g id="node16" class="node">
<title>Node17</title>
<g id="a_node16"><a xlink:href="classflow_1_1net__flow_1_1Node.html#addbb96858fd7b3c9ddd7c6fe8078809c" target="_top" xlink:title="Implementation of non&#45;blocking sock&#45;&gt;receive() for socket sock in all cases except when sock&#45;&gt;state()...">
<polygon fill="white" stroke="red" points="600.5,-0.5 600.5,-26.5 701.5,-26.5 701.5,-0.5 600.5,-0.5"/>
<text text-anchor="start" x="608.5" y="-16.1" font-family="Helvetica,sans-Serif" font-size="8.00">flow::net_flow::Node</text>
<text text-anchor="middle" x="651" y="-7.1" font-family="Helvetica,sans-Serif" font-size="8.00">::receive</text>
</a>
</g>
</g>
<!-- Node36&#45;&gt;Node17 -->
<g id="edge20" class="edge">
<title>Node36&#45;&gt;Node17</title>
<path fill="none" stroke="midnightblue" d="M755.56,-38.04C737.49,-33.76 718.4,-29.24 701.59,-25.25"/>
<polygon fill="midnightblue" stroke="midnightblue" points="754.93,-41.49 765.46,-40.39 756.54,-34.68 754.93,-41.49"/>
</g>
<!-- Node37&#45;&gt;Node2 -->
<g id="edge23" class="edge">
<title>Node37&#45;&gt;Node2</title>
<path fill="none" stroke="midnightblue" d="M775.48,-388.29C759.94,-382.64 742.52,-377.33 726,-374.5 660.29,-363.23 639.06,-352.88 576,-374.5 547.06,-384.42 520.32,-408.25 504.2,-424.88"/>
<polygon fill="midnightblue" stroke="midnightblue" points="774.3,-391.58 784.89,-391.83 776.76,-385.03 774.3,-391.58"/>
</g>
<!-- Node38 -->
<g id="node18" class="node">
<title>Node38</title>
<g id="a_node18"><a xlink:href="classflow_1_1net__flow_1_1Node.html#a6461124e5bc3e59083e172e26029e632" target="_top" xlink:title="Implementation of non&#45;blocking sock&#45;&gt;close_abruptly() for socket sock in all cases except when sock&#45;&gt;...">
<polygon fill="white" stroke="red" points="600.5,-384.5 600.5,-410.5 701.5,-410.5 701.5,-384.5 600.5,-384.5"/>
<text text-anchor="start" x="608.5" y="-400.1" font-family="Helvetica,sans-Serif" font-size="8.00">flow::net_flow::Node</text>
<text text-anchor="middle" x="651" y="-391.1" font-family="Helvetica,sans-Serif" font-size="8.00">::close_abruptly</text>
</a>
</g>
</g>
<!-- Node37&#45;&gt;Node38 -->
<g id="edge22" class="edge">
<title>Node37&#45;&gt;Node38</title>
<path fill="none" stroke="midnightblue" d="M751.24,-404.38C734.49,-403.22 717.08,-402.01 701.61,-400.94"/>
<polygon fill="midnightblue" stroke="midnightblue" points="751.35,-407.9 761.56,-405.1 751.83,-400.92 751.35,-407.9"/>
</g>
<!-- Node40 -->
<g id="node19" class="node">
<title>Node40</title>
<g id="a_node19"><a xlink:href="classflow_1_1net__flow_1_1Node.html#ab427ebc124a6233ae48a7562662a6e81" target="_top" xlink:title="Creates a new Drop Timer and saves it to sock&#45;&gt;m_snd_drop_timer.">
<polygon fill="white" stroke="black" points="600.5,-429.5 600.5,-455.5 701.5,-455.5 701.5,-429.5 600.5,-429.5"/>
<text text-anchor="start" x="608.5" y="-445.1" font-family="Helvetica,sans-Serif" font-size="8.00">flow::net_flow::Node</text>
<text text-anchor="middle" x="651" y="-436.1" font-family="Helvetica,sans-Serif" font-size="8.00">::setup_drop_timer</text>
</a>
</g>
</g>
<!-- Node37&#45;&gt;Node40 -->
<g id="edge24" class="edge">
<title>Node37&#45;&gt;Node40</title>
<path fill="none" stroke="midnightblue" d="M751.71,-423.48C734.82,-426.7 717.23,-430.06 701.61,-433.04"/>
<polygon fill="midnightblue" stroke="midnightblue" points="752.4,-426.91 761.56,-421.6 751.08,-420.04 752.4,-426.91"/>
</g>
<!-- Node41 -->
<g id="node20" class="node">
<title>Node41</title>
<g id="a_node20"><a xlink:href="classflow_1_1net__flow_1_1Node.html#a3fd57a0d025a78cbeccfd8a15a983575" target="_top" xlink:title="async_sock_low_lvl_packet_send_paced() pacing helper: If sock_pacing_process_q() ran out of the last ...">
<polygon fill="white" stroke="red" points="582.5,-474.5 582.5,-500.5 719.5,-500.5 719.5,-474.5 582.5,-474.5"/>
<text text-anchor="start" x="590.5" y="-490.1" font-family="Helvetica,sans-Serif" font-size="8.00">flow::net_flow::Node</text>
<text text-anchor="middle" x="651" y="-481.1" font-family="Helvetica,sans-Serif" font-size="8.00">::sock_pacing_time_slice_end</text>
</a>
</g>
</g>
<!-- Node37&#45;&gt;Node41 -->
<g id="edge26" class="edge">
<title>Node37&#45;&gt;Node41</title>
<path fill="none" stroke="midnightblue" d="M787.68,-432.63C769.52,-443.26 747.09,-455.48 726,-464.5 717.47,-468.15 708.16,-471.5 699.11,-474.46"/>
<polygon fill="midnightblue" stroke="midnightblue" points="789.95,-435.35 796.77,-427.24 786.38,-429.33 789.95,-435.35"/>
</g>
<!-- Node40&#45;&gt;Node2 -->
<g id="edge25" class="edge">
<title>Node40&#45;&gt;Node2</title>
<path fill="none" stroke="midnightblue" d="M590.17,-442.5C573.71,-442.5 556.01,-442.5 540.06,-442.5"/>
<polygon fill="midnightblue" stroke="midnightblue" points="590.23,-446 600.23,-442.5 590.23,-439 590.23,-446"/>
</g>
<!-- Node46&#45;&gt;Node11 -->
<g id="edge29" class="edge">
<title>Node46&#45;&gt;Node11</title>
<path fill="none" stroke="midnightblue" d="M1102.62,-371.59C1093.16,-370.47 1083.49,-369.32 1074.06,-368.19"/>
<polygon fill="midnightblue" stroke="midnightblue" points="1102.44,-375.09 1112.78,-372.8 1103.26,-368.14 1102.44,-375.09"/>
</g>
</g>
</svg>
