<?xml version="1.0" encoding="UTF-8" standalone="no"?>
<!DOCTYPE svg PUBLIC "-//W3C//DTD SVG 1.1//EN"
 "http://www.w3.org/Graphics/SVG/1.1/DTD/svg11.dtd">
<!-- Generated by graphviz version 2.43.0 (0)
 -->
<!-- Title: flow::net_flow::Event_set::ev_type_to_socks_map_sizes_to_str Pages: 1 -->
<svg width="1512pt" height="320pt"
 viewBox="0.00 0.00 1512.00 320.04" xmlns="http://www.w3.org/2000/svg" xmlns:xlink="http://www.w3.org/1999/xlink">
<g id="graph0" class="graph" transform="scale(1 1) rotate(0) translate(4 316.04)">
<title>flow::net_flow::Event_set::ev_type_to_socks_map_sizes_to_str</title>
<polygon fill="white" stroke="transparent" points="-4,4 -4,-316.04 1508,-316.04 1508,4 -4,4"/>
<!-- Node1 -->
<g id="node1" class="node">
<title>Node1</title>
<g id="a_node1"><a xlink:title="Helper that returns a loggable string summarizing the sizes of the socket sets, by type,...">
<polygon fill="#bfbfbf" stroke="black" points="1394,-76 1394,-111 1504,-111 1504,-76 1394,-76"/>
<text text-anchor="start" x="1402" y="-100.6" font-family="Helvetica,sans-Serif" font-size="8.00">flow::net_flow::Event</text>
<text text-anchor="start" x="1402" y="-91.6" font-family="Helvetica,sans-Serif" font-size="8.00">_set::ev_type_to_socks</text>
<text text-anchor="middle" x="1449" y="-82.6" font-family="Helvetica,sans-Serif" font-size="8.00">_map_sizes_to_str</text>
</a>
</g>
</g>
<!-- Node2 -->
<g id="node2" class="node">
<title>Node2</title>
<g id="a_node2"><a xlink:href="classflow_1_1net__flow_1_1Event__set.html#ab64e128595b701e37256ff79d782c146" target="_top" xlink:title="Forgets all sockets stored in this object in any fashion.">
<polygon fill="white" stroke="black" points="1243,-125.5 1243,-151.5 1345,-151.5 1345,-125.5 1243,-125.5"/>
<text text-anchor="start" x="1251" y="-141.1" font-family="Helvetica,sans-Serif" font-size="8.00">flow::net_flow::Event</text>
<text text-anchor="middle" x="1294" y="-132.1" font-family="Helvetica,sans-Serif" font-size="8.00">_set::clear</text>
</a>
</g>
</g>
<!-- Node1&#45;&gt;Node2 -->
<g id="edge1" class="edge">
<title>Node1&#45;&gt;Node2</title>
<path fill="none" stroke="midnightblue" d="M1383.95,-112.34C1369.04,-116.72 1353.48,-121.3 1339.62,-125.38"/>
<polygon fill="midnightblue" stroke="midnightblue" points="1385.02,-115.67 1393.63,-109.49 1383.05,-108.96 1385.02,-115.67"/>
</g>
<!-- Node3 -->
<g id="node3" class="node">
<title>Node3</title>
<g id="a_node3"><a xlink:href="classflow_1_1net__flow_1_1Node.html#a8a4ddf81ddbeab1f740940c4cc0d3625" target="_top" xlink:title="For each WAITING Event_set within the Node: checks for any events that hold, and if any do hold,...">
<polygon fill="white" stroke="black" points="1230,-80.5 1230,-106.5 1358,-106.5 1358,-80.5 1230,-80.5"/>
<text text-anchor="start" x="1238" y="-96.1" font-family="Helvetica,sans-Serif" font-size="8.00">flow::net_flow::Node</text>
<text text-anchor="middle" x="1294" y="-87.1" font-family="Helvetica,sans-Serif" font-size="8.00">::event_set_all_check_delta</text>
</a>
</g>
</g>
<!-- Node1&#45;&gt;Node3 -->
<g id="edge3" class="edge">
<title>Node1&#45;&gt;Node3</title>
<path fill="none" stroke="midnightblue" d="M1383.49,-93.5C1375.08,-93.5 1366.47,-93.5 1358.08,-93.5"/>
<polygon fill="midnightblue" stroke="midnightblue" points="1383.63,-97 1393.63,-93.5 1383.63,-90 1383.63,-97"/>
</g>
<!-- Node37 -->
<g id="node21" class="node">
<title>Node37</title>
<g id="a_node21"><a xlink:href="classflow_1_1net__flow_1_1Event__set.html#a314635daf8fdf3805868baff8b42cfc9" target="_top" xlink:title="Returns true if and only if the last wait, if any, detected at least one event.">
<polygon fill="white" stroke="black" points="1240.5,-17.5 1240.5,-43.5 1347.5,-43.5 1347.5,-17.5 1240.5,-17.5"/>
<text text-anchor="start" x="1248.5" y="-33.1" font-family="Helvetica,sans-Serif" font-size="8.00">flow::net_flow::Event</text>
<text text-anchor="middle" x="1294" y="-24.1" font-family="Helvetica,sans-Serif" font-size="8.00">_set::events_detected</text>
</a>
</g>
</g>
<!-- Node1&#45;&gt;Node37 -->
<g id="edge29" class="edge">
<title>Node1&#45;&gt;Node37</title>
<path fill="none" stroke="midnightblue" d="M1396.08,-72.12C1373.07,-62.65 1346.74,-51.8 1326.72,-43.56"/>
<polygon fill="midnightblue" stroke="midnightblue" points="1394.8,-75.38 1405.38,-75.95 1397.47,-68.91 1394.8,-75.38"/>
</g>
<!-- Node2&#45;&gt;Node2 -->
<g id="edge2" class="edge">
<title>Node2&#45;&gt;Node2</title>
<path fill="none" stroke="midnightblue" d="M1321.72,-161.94C1318.64,-166.64 1309.4,-170 1294,-170 1268.73,-170 1260.05,-160.96 1267.94,-151.77"/>
<polygon fill="midnightblue" stroke="midnightblue" points="1325.12,-161.07 1320.06,-151.77 1318.21,-162.2 1325.12,-161.07"/>
</g>
<!-- Node4 -->
<g id="node4" class="node">
<title>Node4</title>
<g id="a_node4"><a xlink:href="classflow_1_1net__flow_1_1Node.html#ade49e7bc7202a0adf33fec2d93d1b177" target="_top" xlink:title="A thread W method that handles the transition of the given socket from OPEN (any sub&#45;state) to CLOSED...">
<polygon fill="white" stroke="black" points="1046,-176.5 1046,-202.5 1194,-202.5 1194,-176.5 1046,-176.5"/>
<text text-anchor="start" x="1054" y="-192.1" font-family="Helvetica,sans-Serif" font-size="8.00">flow::net_flow::Node</text>
<text text-anchor="middle" x="1120" y="-183.1" font-family="Helvetica,sans-Serif" font-size="8.00">::close_connection_immediately</text>
</a>
</g>
</g>
<!-- Node3&#45;&gt;Node4 -->
<g id="edge4" class="edge">
<title>Node3&#45;&gt;Node4</title>
<path fill="none" stroke="midnightblue" d="M1236.38,-111.22C1234.16,-112.55 1232.02,-113.97 1230,-115.5 1207.85,-132.2 1216.41,-150.14 1194,-166.5 1188.63,-170.42 1182.58,-173.68 1176.31,-176.4"/>
<polygon fill="midnightblue" stroke="midnightblue" points="1238.04,-114.3 1245.26,-106.54 1234.78,-108.1 1238.04,-114.3"/>
</g>
<!-- Node23 -->
<g id="node13" class="node">
<title>Node23</title>
<g id="a_node13"><a xlink:href="classflow_1_1net__flow_1_1Node.html#a29d02f9e302c7b06288ff1c644fa8d65" target="_top" xlink:title="Handles a just&#45;deserialized, just&#45;demultiplexed low&#45;level SYN_ACK_ACK packet delivered to the given p...">
<polygon fill="white" stroke="black" points="604,-119 604,-154 709,-154 709,-119 604,-119"/>
<text text-anchor="start" x="612" y="-143.6" font-family="Helvetica,sans-Serif" font-size="8.00">flow::net_flow::Node</text>
<text text-anchor="start" x="612" y="-134.6" font-family="Helvetica,sans-Serif" font-size="8.00">::handle_syn_ack_ack</text>
<text text-anchor="middle" x="656.5" y="-125.6" font-family="Helvetica,sans-Serif" font-size="8.00">_to_syn_rcvd</text>
</a>
</g>
</g>
<!-- Node3&#45;&gt;Node23 -->
<g id="edge22" class="edge">
<title>Node3&#45;&gt;Node23</title>
<path fill="none" stroke="midnightblue" d="M1219.45,-90.65C1113.8,-87.77 913.27,-86.87 745,-112.5 733.32,-114.28 720.97,-117.08 709.35,-120.14"/>
<polygon fill="midnightblue" stroke="midnightblue" points="1219.59,-94.15 1229.69,-90.94 1219.79,-87.16 1219.59,-94.15"/>
</g>
<!-- Node25 -->
<g id="node16" class="node">
<title>Node25</title>
<g id="a_node16"><a xlink:href="classflow_1_1net__flow_1_1Node.html#adf6d71af81def2d030f0fef159c1b06d" target="_top" xlink:title="Handles the transition of the given server socket from S_LISTENING/S_CLOSING to S_CLOSED (including e...">
<polygon fill="white" stroke="black" points="1068.5,-122 1068.5,-157 1171.5,-157 1171.5,-122 1068.5,-122"/>
<text text-anchor="start" x="1076.5" y="-146.6" font-family="Helvetica,sans-Serif" font-size="8.00">flow::net_flow::Node</text>
<text text-anchor="start" x="1076.5" y="-137.6" font-family="Helvetica,sans-Serif" font-size="8.00">::close_empty_server</text>
<text text-anchor="middle" x="1120" y="-128.6" font-family="Helvetica,sans-Serif" font-size="8.00">_immediately</text>
</a>
</g>
</g>
<!-- Node3&#45;&gt;Node25 -->
<g id="edge20" class="edge">
<title>Node3&#45;&gt;Node25</title>
<path fill="none" stroke="midnightblue" d="M1234.39,-109.18C1214.04,-114.62 1191.41,-120.67 1171.75,-125.93"/>
<polygon fill="midnightblue" stroke="midnightblue" points="1235.42,-112.52 1244.17,-106.56 1233.61,-105.76 1235.42,-112.52"/>
</g>
<!-- Node26 -->
<g id="node17" class="node">
<title>Node26</title>
<g id="a_node17"><a xlink:href="classflow_1_1net__flow_1_1Node.html#a0fba26db0055a969f3869014bc5c2bfc" target="_top" xlink:title="Performs all tasks to be performed at the end of low_lvl_recv_and_handle() or async part of async_wai...">
<polygon fill="white" stroke="black" points="456,-38 456,-73 568,-73 568,-38 456,-38"/>
<text text-anchor="start" x="464" y="-62.6" font-family="Helvetica,sans-Serif" font-size="8.00">flow::net_flow::Node</text>
<text text-anchor="start" x="464" y="-53.6" font-family="Helvetica,sans-Serif" font-size="8.00">::perform_accumulated</text>
<text text-anchor="middle" x="512" y="-44.6" font-family="Helvetica,sans-Serif" font-size="8.00">_on_recv_tasks</text>
</a>
</g>
</g>
<!-- Node3&#45;&gt;Node26 -->
<g id="edge23" class="edge">
<title>Node3&#45;&gt;Node26</title>
<path fill="none" stroke="midnightblue" d="M1219.75,-80.75C1149.89,-69.71 1041.6,-55.5 947,-55.5 947,-55.5 947,-55.5 794.5,-55.5 715.82,-55.5 624.76,-55.5 568.02,-55.5"/>
<polygon fill="midnightblue" stroke="midnightblue" points="1219.35,-84.23 1229.78,-82.36 1220.45,-77.32 1219.35,-84.23"/>
</g>
<!-- Node27 -->
<g id="node18" class="node">
<title>Node27</title>
<g id="a_node18"><a xlink:href="classflow_1_1net__flow_1_1Node.html#a10a92f11a2c9f218cdd9a55f282e79b1" target="_top" xlink:title="Thread W implemention of send(): synchronously or asynchronously send the contents of sock&#45;&gt;m_snd_buf...">
<polygon fill="white" stroke="black" points="1069.5,-0.5 1069.5,-26.5 1170.5,-26.5 1170.5,-0.5 1069.5,-0.5"/>
<text text-anchor="start" x="1077.5" y="-16.1" font-family="Helvetica,sans-Serif" font-size="8.00">flow::net_flow::Node</text>
<text text-anchor="middle" x="1120" y="-7.1" font-family="Helvetica,sans-Serif" font-size="8.00">::send_worker</text>
</a>
</g>
</g>
<!-- Node3&#45;&gt;Node27 -->
<g id="edge26" class="edge">
<title>Node3&#45;&gt;Node27</title>
<path fill="none" stroke="midnightblue" d="M1241.66,-76.39C1237.64,-74.56 1233.71,-72.59 1230,-70.5 1212.11,-60.4 1211.81,-51.75 1194,-41.5 1184,-35.75 1172.59,-30.73 1161.81,-26.59"/>
<polygon fill="midnightblue" stroke="midnightblue" points="1240.55,-79.72 1251.13,-80.41 1243.29,-73.28 1240.55,-79.72"/>
</g>
<!-- Node5 -->
<g id="node5" class="node">
<title>Node5</title>
<g id="a_node5"><a xlink:href="classflow_1_1net__flow_1_1Node.html#a1699dfdaf3e5ebe1b1d715a9c306d116" target="_top" xlink:title="Handles a just&#45;received, not&#45;yet&#45;deserialized low&#45;level packet.">
<polygon fill="white" stroke="black" points="461.5,-126.5 461.5,-152.5 562.5,-152.5 562.5,-126.5 461.5,-126.5"/>
<text text-anchor="start" x="469.5" y="-142.1" font-family="Helvetica,sans-Serif" font-size="8.00">flow::net_flow::Node</text>
<text text-anchor="middle" x="512" y="-133.1" font-family="Helvetica,sans-Serif" font-size="8.00">::handle_incoming</text>
</a>
</g>
</g>
<!-- Node4&#45;&gt;Node5 -->
<g id="edge5" class="edge">
<title>Node4&#45;&gt;Node5</title>
<path fill="none" stroke="midnightblue" d="M1101.44,-210.37C1081.73,-232.1 1047.54,-264.96 1010,-279.5 900.12,-322.05 858.11,-320.51 745,-287.5 652.13,-260.4 561.02,-183.57 526.99,-152.64"/>
<polygon fill="midnightblue" stroke="midnightblue" points="1104.27,-212.46 1108.27,-202.64 1099.02,-207.82 1104.27,-212.46"/>
</g>
<!-- Node11 -->
<g id="node9" class="node">
<title>Node11</title>
<g id="a_node9"><a xlink:href="classflow_1_1net__flow_1_1Node.html#ad608f9bbe76426f4fbf4bf5af908e4e0" target="_top" xlink:title="Placed by receive() onto W during a graceful close, after the Receive buffer had been emptied by the ...">
<polygon fill="white" stroke="black" points="885.5,-235 885.5,-270 1006.5,-270 1006.5,-235 885.5,-235"/>
<text text-anchor="start" x="893.5" y="-259.6" font-family="Helvetica,sans-Serif" font-size="8.00">flow::net_flow::Node</text>
<text text-anchor="start" x="893.5" y="-250.6" font-family="Helvetica,sans-Serif" font-size="8.00">::receive_emptied_rcv</text>
<text text-anchor="middle" x="946" y="-241.6" font-family="Helvetica,sans-Serif" font-size="8.00">_buf_while_disconnecting</text>
</a>
</g>
</g>
<!-- Node4&#45;&gt;Node11 -->
<g id="edge11" class="edge">
<title>Node4&#45;&gt;Node11</title>
<path fill="none" stroke="midnightblue" d="M1073.69,-206.1C1049.46,-214.97 1019.62,-225.9 994.99,-234.92"/>
<polygon fill="midnightblue" stroke="midnightblue" points="1075.18,-209.28 1083.36,-202.55 1072.77,-202.71 1075.18,-209.28"/>
</g>
<!-- Node20 -->
<g id="node11" class="node">
<title>Node20</title>
<g id="a_node11"><a xlink:href="classflow_1_1net__flow_1_1Node.html#afe70a0c32695e417e7a09e0ba773f151" target="_top" xlink:title="Asynchronously send RST to the other side of the given socket and close_connection_immediately().">
<polygon fill="white" stroke="black" points="882,-172 882,-207 1010,-207 1010,-172 882,-172"/>
<text text-anchor="start" x="890" y="-196.6" font-family="Helvetica,sans-Serif" font-size="8.00">flow::net_flow::Node</text>
<text text-anchor="start" x="890" y="-187.6" font-family="Helvetica,sans-Serif" font-size="8.00">::rst_and_close_connection</text>
<text text-anchor="middle" x="946" y="-178.6" font-family="Helvetica,sans-Serif" font-size="8.00">_immediately</text>
</a>
</g>
</g>
<!-- Node4&#45;&gt;Node20 -->
<g id="edge13" class="edge">
<title>Node4&#45;&gt;Node20</title>
<path fill="none" stroke="midnightblue" d="M1035.28,-189.5C1026.83,-189.5 1018.35,-189.5 1010.17,-189.5"/>
<polygon fill="midnightblue" stroke="midnightblue" points="1035.56,-193 1045.56,-189.5 1035.56,-186 1035.56,-193"/>
</g>
<!-- Node10 -->
<g id="node15" class="node">
<title>Node10</title>
<g id="a_node15"><a xlink:href="classflow_1_1net__flow_1_1Node.html#a5b056ed753b832458f44f537acfe86d7" target="_top" xlink:title="Worker thread W (main event loop) body.">
<polygon fill="white" stroke="black" points="895.5,-126.5 895.5,-152.5 996.5,-152.5 996.5,-126.5 895.5,-126.5"/>
<text text-anchor="start" x="903.5" y="-142.1" font-family="Helvetica,sans-Serif" font-size="8.00">flow::net_flow::Node</text>
<text text-anchor="middle" x="946" y="-133.1" font-family="Helvetica,sans-Serif" font-size="8.00">::worker_run</text>
</a>
</g>
</g>
<!-- Node4&#45;&gt;Node10 -->
<g id="edge19" class="edge">
<title>Node4&#45;&gt;Node10</title>
<path fill="none" stroke="midnightblue" d="M1064.47,-173.65C1041.06,-166.84 1014.04,-158.99 991.82,-152.53"/>
<polygon fill="midnightblue" stroke="midnightblue" points="1063.68,-177.06 1074.26,-176.49 1065.63,-170.34 1063.68,-177.06"/>
</g>
<!-- Node6 -->
<g id="node6" class="node">
<title>Node6</title>
<g id="a_node6"><a xlink:href="classflow_1_1net__flow_1_1Node.html#a4368247d07e930bdd07ab8d2425c6de8" target="_top" xlink:title="Sets up handle_incoming(packet_data, low_lvl_remote_endpoint) to be called asynchronously after a spe...">
<polygon fill="white" stroke="black" points="307,-78 307,-113 420,-113 420,-78 307,-78"/>
<text text-anchor="start" x="315" y="-102.6" font-family="Helvetica,sans-Serif" font-size="8.00">flow::net_flow::Node</text>
<text text-anchor="start" x="315" y="-93.6" font-family="Helvetica,sans-Serif" font-size="8.00">::async_wait_latency</text>
<text text-anchor="middle" x="363.5" y="-84.6" font-family="Helvetica,sans-Serif" font-size="8.00">_then_handle_incoming</text>
</a>
</g>
</g>
<!-- Node5&#45;&gt;Node6 -->
<g id="edge6" class="edge">
<title>Node5&#45;&gt;Node6</title>
<path fill="none" stroke="midnightblue" d="M457.82,-123.53C445.56,-119.85 432.49,-115.92 420.13,-112.21"/>
<polygon fill="midnightblue" stroke="midnightblue" points="456.86,-126.89 467.44,-126.42 458.87,-120.19 456.86,-126.89"/>
</g>
<!-- Node7 -->
<g id="node7" class="node">
<title>Node7</title>
<g id="a_node7"><a xlink:href="classflow_1_1net__flow_1_1Node.html#a90ecbad1ff3a8d2fe4b3ad1c474f7513" target="_top" xlink:title="Helper for low_lvl_recv_and_handle() that calls handle_incoming() on the not&#45;yet&#45;deserialized low&#45;lev...">
<polygon fill="white" stroke="black" points="158,-78 158,-113 271,-113 271,-78 158,-78"/>
<text text-anchor="start" x="166" y="-102.6" font-family="Helvetica,sans-Serif" font-size="8.00">flow::net_flow::Node</text>
<text text-anchor="start" x="166" y="-93.6" font-family="Helvetica,sans-Serif" font-size="8.00">::handle_incoming_with</text>
<text text-anchor="middle" x="214.5" y="-84.6" font-family="Helvetica,sans-Serif" font-size="8.00">_simulation</text>
</a>
</g>
</g>
<!-- Node5&#45;&gt;Node7 -->
<g id="edge10" class="edge">
<title>Node5&#45;&gt;Node7</title>
<path fill="none" stroke="midnightblue" d="M451.08,-137.72C410.21,-135.72 354.98,-131.48 307,-122.5 294.3,-120.12 280.85,-116.69 268.28,-113.06"/>
<polygon fill="midnightblue" stroke="midnightblue" points="451.01,-141.22 461.16,-138.18 451.33,-134.23 451.01,-141.22"/>
</g>
<!-- Node6&#45;&gt;Node7 -->
<g id="edge7" class="edge">
<title>Node6&#45;&gt;Node7</title>
<path fill="none" stroke="midnightblue" d="M296.92,-95.5C288.32,-95.5 279.57,-95.5 271.15,-95.5"/>
<polygon fill="midnightblue" stroke="midnightblue" points="296.93,-99 306.93,-95.5 296.93,-92 296.93,-99"/>
</g>
<!-- Node7&#45;&gt;Node7 -->
<g id="edge8" class="edge">
<title>Node7&#45;&gt;Node7</title>
<path fill="none" stroke="midnightblue" d="M240.27,-123.6C236.65,-128.27 228.06,-131.5 214.5,-131.5 192.24,-131.5 183.37,-122.81 187.89,-113.28"/>
<polygon fill="midnightblue" stroke="midnightblue" points="243.79,-123.53 241.11,-113.28 236.81,-122.97 243.79,-123.53"/>
</g>
<!-- Node8 -->
<g id="node8" class="node">
<title>Node8</title>
<g id="a_node8"><a xlink:href="classflow_1_1net__flow_1_1Node.html#a9909cd2b2a77c57da9e35fcef0f8a4e5" target="_top" xlink:title="Handles the pre&#45;condition that m_low_lvl_sock has a UDP packet available for reading,...">
<polygon fill="white" stroke="red" points="0,-59.5 0,-85.5 122,-85.5 122,-59.5 0,-59.5"/>
<text text-anchor="start" x="8" y="-75.1" font-family="Helvetica,sans-Serif" font-size="8.00">flow::net_flow::Node</text>
<text text-anchor="middle" x="61" y="-66.1" font-family="Helvetica,sans-Serif" font-size="8.00">::low_lvl_recv_and_handle</text>
</a>
</g>
</g>
<!-- Node7&#45;&gt;Node8 -->
<g id="edge9" class="edge">
<title>Node7&#45;&gt;Node8</title>
<path fill="none" stroke="midnightblue" d="M147.98,-85.55C139.39,-84.25 130.63,-82.92 122.14,-81.63"/>
<polygon fill="midnightblue" stroke="midnightblue" points="147.54,-89.03 157.95,-87.07 148.59,-82.1 147.54,-89.03"/>
</g>
<!-- Node12 -->
<g id="node10" class="node">
<title>Node12</title>
<g id="a_node10"><a xlink:href="classflow_1_1net__flow_1_1Node.html#addbb96858fd7b3c9ddd7c6fe8078809c" target="_top" xlink:title="Implementation of non&#45;blocking sock&#45;&gt;receive() for socket sock in all cases except when sock&#45;&gt;state()...">
<polygon fill="white" stroke="red" points="745,-251.5 745,-277.5 846,-277.5 846,-251.5 745,-251.5"/>
<text text-anchor="start" x="753" y="-267.1" font-family="Helvetica,sans-Serif" font-size="8.00">flow::net_flow::Node</text>
<text text-anchor="middle" x="795.5" y="-258.1" font-family="Helvetica,sans-Serif" font-size="8.00">::receive</text>
</a>
</g>
</g>
<!-- Node11&#45;&gt;Node12 -->
<g id="edge12" class="edge">
<title>Node11&#45;&gt;Node12</title>
<path fill="none" stroke="midnightblue" d="M875.25,-258.14C865.39,-258.93 855.42,-259.74 846.05,-260.5"/>
<polygon fill="midnightblue" stroke="midnightblue" points="875.77,-261.61 885.46,-257.31 875.21,-254.63 875.77,-261.61"/>
</g>
<!-- Node21 -->
<g id="node12" class="node">
<title>Node21</title>
<g id="a_node12"><a xlink:href="classflow_1_1net__flow_1_1Node.html#a6461124e5bc3e59083e172e26029e632" target="_top" xlink:title="Implementation of non&#45;blocking sock&#45;&gt;close_abruptly() for socket sock in all cases except when sock&#45;&gt;...">
<polygon fill="white" stroke="red" points="745,-206.5 745,-232.5 846,-232.5 846,-206.5 745,-206.5"/>
<text text-anchor="start" x="753" y="-222.1" font-family="Helvetica,sans-Serif" font-size="8.00">flow::net_flow::Node</text>
<text text-anchor="middle" x="795.5" y="-213.1" font-family="Helvetica,sans-Serif" font-size="8.00">::close_abruptly</text>
</a>
</g>
</g>
<!-- Node20&#45;&gt;Node21 -->
<g id="edge14" class="edge">
<title>Node20&#45;&gt;Node21</title>
<path fill="none" stroke="midnightblue" d="M871.55,-204.34C862.97,-206.07 854.38,-207.81 846.23,-209.45"/>
<polygon fill="midnightblue" stroke="midnightblue" points="872.48,-207.72 881.59,-202.31 871.1,-200.86 872.48,-207.72"/>
</g>
<!-- Node20&#45;&gt;Node23 -->
<g id="edge15" class="edge">
<title>Node20&#45;&gt;Node23</title>
<path fill="none" stroke="midnightblue" d="M871.73,-179.8C833.76,-174.36 786.73,-166.96 745,-158.5 733.33,-156.13 720.88,-153.23 709.14,-150.33"/>
<polygon fill="midnightblue" stroke="midnightblue" points="871.29,-183.27 881.68,-181.21 872.27,-176.34 871.29,-183.27"/>
</g>
<!-- Node24 -->
<g id="node14" class="node">
<title>Node24</title>
<g id="a_node14"><a xlink:href="classflow_1_1net__flow_1_1Node.html#ab427ebc124a6233ae48a7562662a6e81" target="_top" xlink:title="Creates a new Drop Timer and saves it to sock&#45;&gt;m_snd_drop_timer.">
<polygon fill="white" stroke="black" points="745,-122.5 745,-148.5 846,-148.5 846,-122.5 745,-122.5"/>
<text text-anchor="start" x="753" y="-138.1" font-family="Helvetica,sans-Serif" font-size="8.00">flow::net_flow::Node</text>
<text text-anchor="middle" x="795.5" y="-129.1" font-family="Helvetica,sans-Serif" font-size="8.00">::setup_drop_timer</text>
</a>
</g>
</g>
<!-- Node20&#45;&gt;Node24 -->
<g id="edge17" class="edge">
<title>Node20&#45;&gt;Node24</title>
<path fill="none" stroke="midnightblue" d="M887.33,-168.53C868.94,-161.84 849.13,-154.64 832.71,-148.67"/>
<polygon fill="midnightblue" stroke="midnightblue" points="886.19,-171.84 896.79,-171.97 888.58,-165.26 886.19,-171.84"/>
</g>
<!-- Node23&#45;&gt;Node5 -->
<g id="edge16" class="edge">
<title>Node23&#45;&gt;Node5</title>
<path fill="none" stroke="midnightblue" d="M593.47,-137.81C583.17,-138.02 572.61,-138.25 562.67,-138.45"/>
<polygon fill="midnightblue" stroke="midnightblue" points="593.73,-141.3 603.65,-137.59 593.58,-134.3 593.73,-141.3"/>
</g>
<!-- Node24&#45;&gt;Node23 -->
<g id="edge18" class="edge">
<title>Node24&#45;&gt;Node23</title>
<path fill="none" stroke="midnightblue" d="M734.55,-135.94C726.16,-136 717.6,-136.06 709.38,-136.12"/>
<polygon fill="midnightblue" stroke="midnightblue" points="734.68,-139.44 744.65,-135.86 734.63,-132.44 734.68,-139.44"/>
</g>
<!-- Node25&#45;&gt;Node10 -->
<g id="edge21" class="edge">
<title>Node25&#45;&gt;Node10</title>
<path fill="none" stroke="midnightblue" d="M1058.31,-139.5C1038.15,-139.5 1015.95,-139.5 996.72,-139.5"/>
<polygon fill="midnightblue" stroke="midnightblue" points="1058.32,-143 1068.32,-139.5 1058.32,-136 1058.32,-143"/>
</g>
<!-- Node26&#45;&gt;Node6 -->
<g id="edge24" class="edge">
<title>Node26&#45;&gt;Node6</title>
<path fill="none" stroke="midnightblue" d="M445.79,-73.31C437.33,-75.61 428.73,-77.96 420.45,-80.22"/>
<polygon fill="midnightblue" stroke="midnightblue" points="446.89,-76.63 455.61,-70.62 445.05,-69.88 446.89,-76.63"/>
</g>
<!-- Node26&#45;&gt;Node8 -->
<g id="edge25" class="edge">
<title>Node26&#45;&gt;Node8</title>
<path fill="none" stroke="midnightblue" d="M445.85,-57.8C375.02,-60.33 258.46,-64.56 158,-68.5 146.42,-68.95 134.05,-69.46 122.17,-69.95"/>
<polygon fill="midnightblue" stroke="midnightblue" points="446.1,-61.3 455.97,-57.44 445.85,-54.3 446.1,-61.3"/>
</g>
<!-- Node28 -->
<g id="node19" class="node">
<title>Node28</title>
<g id="a_node19"><a xlink:href="classflow_1_1net__flow_1_1Node.html#a2565b7c0bd82cad86eb168b62f8ffd9d" target="_top" xlink:title="Helper placed by send() onto W to invoke send_worker() but ensures that the socket has not entered so...">
<polygon fill="white" stroke="black" points="882.5,-0.5 882.5,-26.5 1009.5,-26.5 1009.5,-0.5 882.5,-0.5"/>
<text text-anchor="start" x="890.5" y="-16.1" font-family="Helvetica,sans-Serif" font-size="8.00">flow::net_flow::Node</text>
<text text-anchor="middle" x="946" y="-7.1" font-family="Helvetica,sans-Serif" font-size="8.00">::send_worker_check_state</text>
</a>
</g>
</g>
<!-- Node27&#45;&gt;Node28 -->
<g id="edge27" class="edge">
<title>Node27&#45;&gt;Node28</title>
<path fill="none" stroke="midnightblue" d="M1059.01,-13.5C1043.1,-13.5 1025.87,-13.5 1009.81,-13.5"/>
<polygon fill="midnightblue" stroke="midnightblue" points="1059.25,-17 1069.25,-13.5 1059.25,-10 1059.25,-17"/>
</g>
<!-- Node29 -->
<g id="node20" class="node">
<title>Node29</title>
<g id="a_node20"><a xlink:href="classflow_1_1net__flow_1_1Node.html#aa19d1f49638ef8ce8883e7477a06d3fc" target="_top" xlink:title="Implementation of non&#45;blocking sock&#45;&gt;send() for socket sock in all cases except when sock&#45;&gt;state() ==...">
<polygon fill="white" stroke="red" points="745,-0.5 745,-26.5 846,-26.5 846,-0.5 745,-0.5"/>
<text text-anchor="start" x="753" y="-16.1" font-family="Helvetica,sans-Serif" font-size="8.00">flow::net_flow::Node</text>
<text text-anchor="middle" x="795.5" y="-7.1" font-family="Helvetica,sans-Serif" font-size="8.00">::send</text>
</a>
</g>
</g>
<!-- Node28&#45;&gt;Node29 -->
<g id="edge28" class="edge">
<title>Node28&#45;&gt;Node29</title>
<path fill="none" stroke="midnightblue" d="M872.22,-13.5C863.46,-13.5 854.68,-13.5 846.35,-13.5"/>
<polygon fill="midnightblue" stroke="midnightblue" points="872.45,-17 882.45,-13.5 872.45,-10 872.45,-17"/>
</g>
<!-- Node37&#45;&gt;Node37 -->
<g id="edge30" class="edge">
<title>Node37&#45;&gt;Node37</title>
<path fill="none" stroke="midnightblue" d="M1321.72,-53.94C1318.64,-58.64 1309.4,-62 1294,-62 1268.73,-62 1260.05,-52.96 1267.94,-43.77"/>
<polygon fill="midnightblue" stroke="midnightblue" points="1325.12,-53.07 1320.06,-43.77 1318.21,-54.2 1325.12,-53.07"/>
</g>
</g>
</svg>
