<?xml version="1.0" encoding="UTF-8" standalone="no"?>
<!DOCTYPE svg PUBLIC "-//W3C//DTD SVG 1.1//EN"
 "http://www.w3.org/Graphics/SVG/1.1/DTD/svg11.dtd">
<!-- Generated by graphviz version 2.43.0 (0)
 -->
<!-- Title: flow::cfg::Option_set_base::declare_option_for_output Pages: 1 -->
<svg width="243pt" height="44pt"
 viewBox="0.00 0.00 243.00 44.00" xmlns="http://www.w3.org/2000/svg" xmlns:xlink="http://www.w3.org/1999/xlink">
<g id="graph0" class="graph" transform="scale(1 1) rotate(0) translate(4 40)">
<title>flow::cfg::Option_set_base::declare_option_for_output</title>
<polygon fill="white" stroke="transparent" points="-4,4 -4,-40 239,-40 239,4 -4,4"/>
<!-- Node1 -->
<g id="node1" class="node">
<title>Node1</title>
<g id="a_node1"><a xlink:title="Internal&#45;through&#45;macro helper function; the user shall not call this directly but only through FLOW_C...">
<polygon fill="#bfbfbf" stroke="black" points="0,-0.5 0,-35.5 107,-35.5 107,-0.5 0,-0.5"/>
<text text-anchor="start" x="8" y="-25.1" font-family="Helvetica,sans-Serif" font-size="8.00">flow::cfg::Option_set</text>
<text text-anchor="start" x="8" y="-16.1" font-family="Helvetica,sans-Serif" font-size="8.00">_base::declare_option</text>
<text text-anchor="middle" x="53.5" y="-7.1" font-family="Helvetica,sans-Serif" font-size="8.00">_for_output</text>
</a>
</g>
</g>
<!-- Node2 -->
<g id="node2" class="node">
<title>Node2</title>
<g id="a_node2"><a xlink:href="namespaceflow_1_1cfg.html#a1f5ff766e52aae24e6d5c876b3b26e96" target="_top" xlink:title="Serializes a value of type Value to the given ostream suitably for output in Option_set&#45;related outpu...">
<polygon fill="white" stroke="black" points="143,-5 143,-31 235,-31 235,-5 143,-5"/>
<text text-anchor="start" x="151" y="-20.6" font-family="Helvetica,sans-Serif" font-size="8.00">flow::cfg::value_to</text>
<text text-anchor="middle" x="189" y="-11.6" font-family="Helvetica,sans-Serif" font-size="8.00">_ostream</text>
</a>
</g>
</g>
<!-- Node1&#45;&gt;Node2 -->
<g id="edge1" class="edge">
<title>Node1&#45;&gt;Node2</title>
<path fill="none" stroke="midnightblue" d="M107.26,-18C115.66,-18 124.36,-18 132.81,-18"/>
<polygon fill="midnightblue" stroke="midnightblue" points="132.95,-21.5 142.95,-18 132.95,-14.5 132.95,-21.5"/>
</g>
</g>
</svg>
