<?xml version="1.0" encoding="UTF-8" standalone="no"?>
<!DOCTYPE svg PUBLIC "-//W3C//DTD SVG 1.1//EN"
 "http://www.w3.org/Graphics/SVG/1.1/DTD/svg11.dtd">
<!-- Generated by graphviz version 2.43.0 (0)
 -->
<!-- Title: flow::log::Thread_local_string_appender::get_this_thread_string_appender Pages: 1 -->
<svg width="285pt" height="44pt"
 viewBox="0.00 0.00 285.00 44.00" xmlns="http://www.w3.org/2000/svg" xmlns:xlink="http://www.w3.org/1999/xlink">
<g id="graph0" class="graph" transform="scale(1 1) rotate(0) translate(4 40)">
<title>flow::log::Thread_local_string_appender::get_this_thread_string_appender</title>
<polygon fill="white" stroke="transparent" points="-4,4 -4,-40 281,-40 281,4 -4,4"/>
<!-- Node1 -->
<g id="node1" class="node">
<title>Node1</title>
<g id="a_node1"><a xlink:title="Returns a pointer to the exactly one Thread_local_string_appender object that is accessible from the ...">
<polygon fill="#bfbfbf" stroke="black" points="0,-0.5 0,-35.5 137,-35.5 137,-0.5 0,-0.5"/>
<text text-anchor="start" x="8" y="-25.1" font-family="Helvetica,sans-Serif" font-size="8.00">flow::log::Thread_local</text>
<text text-anchor="start" x="8" y="-16.1" font-family="Helvetica,sans-Serif" font-size="8.00">_string_appender::get</text>
<text text-anchor="middle" x="68.5" y="-7.1" font-family="Helvetica,sans-Serif" font-size="8.00">_this_thread_string_appender</text>
</a>
</g>
</g>
<!-- Node2 -->
<g id="node2" class="node">
<title>Node2</title>
<g id="a_node2"><a xlink:href="classflow_1_1util_1_1Unique__id__holder.html#a24742b697933e623df30056aebbebfae" target="_top" xlink:title="Raw unique ID identifying this object as well as any object of a derived type.">
<polygon fill="white" stroke="black" points="173,-5 173,-31 277,-31 277,-5 173,-5"/>
<text text-anchor="start" x="181" y="-20.6" font-family="Helvetica,sans-Serif" font-size="8.00">flow::util::Unique</text>
<text text-anchor="middle" x="225" y="-11.6" font-family="Helvetica,sans-Serif" font-size="8.00">_id_holder::unique_id</text>
</a>
</g>
</g>
<!-- Node1&#45;&gt;Node2 -->
<g id="edge1" class="edge">
<title>Node1&#45;&gt;Node2</title>
<path fill="none" stroke="midnightblue" d="M137.27,-18C145.59,-18 154.06,-18 162.29,-18"/>
<polygon fill="midnightblue" stroke="midnightblue" points="162.55,-21.5 172.55,-18 162.55,-14.5 162.55,-21.5"/>
</g>
</g>
</svg>
