<?xml version="1.0" encoding="UTF-8" standalone="no"?>
<!DOCTYPE svg PUBLIC "-//W3C//DTD SVG 1.1//EN"
 "http://www.w3.org/Graphics/SVG/1.1/DTD/svg11.dtd">
<!-- Generated by graphviz version 2.43.0 (0)
 -->
<!-- Title: flow::cfg::Option_set::values Pages: 1 -->
<svg width="270pt" height="35pt"
 viewBox="0.00 0.00 270.00 35.00" xmlns="http://www.w3.org/2000/svg" xmlns:xlink="http://www.w3.org/1999/xlink">
<g id="graph0" class="graph" transform="scale(1 1) rotate(0) translate(4 31)">
<title>flow::cfg::Option_set::values</title>
<polygon fill="white" stroke="transparent" points="-4,4 -4,-31 266,-31 266,4 -4,4"/>
<!-- Node1 -->
<g id="node1" class="node">
<title>Node1</title>
<g id="a_node1"><a xlink:title="Externally immutable internally stored canonical (current) config values as last constructed or parse...">
<polygon fill="#bfbfbf" stroke="black" points="161,-0.5 161,-26.5 262,-26.5 262,-0.5 161,-0.5"/>
<text text-anchor="start" x="169" y="-16.1" font-family="Helvetica,sans-Serif" font-size="8.00">flow::cfg::Option_set</text>
<text text-anchor="middle" x="211.5" y="-7.1" font-family="Helvetica,sans-Serif" font-size="8.00">::values</text>
</a>
</g>
</g>
<!-- Node2 -->
<g id="node2" class="node">
<title>Node2</title>
<g id="a_node2"><a xlink:href="classflow_1_1cfg_1_1Config__manager.html#a3dae0dfcdde91dcbdd6db4b05fac0112" target="_top" xlink:title="Work&#45;horse helper that parses into one given Option_set in m_s_d_opt_sets (from opt_set()) from the s...">
<polygon fill="white" stroke="black" points="0,-0.5 0,-26.5 125,-26.5 125,-0.5 0,-0.5"/>
<text text-anchor="start" x="8" y="-16.1" font-family="Helvetica,sans-Serif" font-size="8.00">flow::cfg::Config_manager</text>
<text text-anchor="middle" x="62.5" y="-7.1" font-family="Helvetica,sans-Serif" font-size="8.00">::apply_impl</text>
</a>
</g>
</g>
<!-- Node1&#45;&gt;Node2 -->
<g id="edge1" class="edge">
<title>Node1&#45;&gt;Node2</title>
<path fill="none" stroke="midnightblue" d="M150.65,-13.5C142.27,-13.5 133.63,-13.5 125.21,-13.5"/>
<polygon fill="midnightblue" stroke="midnightblue" points="150.73,-17 160.73,-13.5 150.73,-10 150.73,-17"/>
</g>
</g>
</svg>
