<?xml version="1.0" encoding="UTF-8" standalone="no"?>
<!DOCTYPE svg PUBLIC "-//W3C//DTD SVG 1.1//EN"
 "http://www.w3.org/Graphics/SVG/1.1/DTD/svg11.dtd">
<!-- Generated by graphviz version 2.43.0 (0)
 -->
<!-- Title: flow::net_flow::Node::serv_close_detected Pages: 1 -->
<svg width="251pt" height="35pt"
 viewBox="0.00 0.00 251.00 35.00" xmlns="http://www.w3.org/2000/svg" xmlns:xlink="http://www.w3.org/1999/xlink">
<g id="graph0" class="graph" transform="scale(1 1) rotate(0) translate(4 31)">
<title>flow::net_flow::Node::serv_close_detected</title>
<polygon fill="white" stroke="transparent" points="-4,4 -4,-31 247,-31 247,4 -4,4"/>
<!-- Node1 -->
<g id="node1" class="node">
<title>Node1</title>
<g id="a_node1"><a xlink:title="Records that thread W shows this socket is not to listen to incoming connections and is to abort any ...">
<polygon fill="#bfbfbf" stroke="black" points="0,-0.5 0,-26.5 106,-26.5 106,-0.5 0,-0.5"/>
<text text-anchor="start" x="8" y="-16.1" font-family="Helvetica,sans-Serif" font-size="8.00">flow::net_flow::Node</text>
<text text-anchor="middle" x="53" y="-7.1" font-family="Helvetica,sans-Serif" font-size="8.00">::serv_close_detected</text>
</a>
</g>
</g>
<!-- Node2 -->
<g id="node2" class="node">
<title>Node2</title>
<g id="a_node2"><a xlink:href="classflow_1_1net__flow_1_1Node.html#a0bac29a091e1026e5b4f0b5d84a710c7" target="_top" xlink:title="Sets Server_socket::m_state.">
<polygon fill="white" stroke="black" points="142,-0.5 142,-26.5 243,-26.5 243,-0.5 142,-0.5"/>
<text text-anchor="start" x="150" y="-16.1" font-family="Helvetica,sans-Serif" font-size="8.00">flow::net_flow::Node</text>
<text text-anchor="middle" x="192.5" y="-7.1" font-family="Helvetica,sans-Serif" font-size="8.00">::serv_set_state</text>
</a>
</g>
</g>
<!-- Node1&#45;&gt;Node2 -->
<g id="edge1" class="edge">
<title>Node1&#45;&gt;Node2</title>
<path fill="none" stroke="midnightblue" d="M106.38,-13.5C114.68,-13.5 123.33,-13.5 131.79,-13.5"/>
<polygon fill="midnightblue" stroke="midnightblue" points="131.99,-17 141.99,-13.5 131.99,-10 131.99,-17"/>
</g>
</g>
</svg>
