<?xml version="1.0" encoding="UTF-8" standalone="no"?>
<!DOCTYPE svg PUBLIC "-//W3C//DTD SVG 1.1//EN"
 "http://www.w3.org/Graphics/SVG/1.1/DTD/svg11.dtd">
<!-- Generated by graphviz version 2.43.0 (0)
 -->
<!-- Title: flow::net_flow::Node::sock_set_state Pages: 1 -->
<svg width="1343pt" height="303pt"
 viewBox="0.00 0.00 1343.00 303.00" xmlns="http://www.w3.org/2000/svg" xmlns:xlink="http://www.w3.org/1999/xlink">
<g id="graph0" class="graph" transform="scale(1 1) rotate(0) translate(4 299)">
<title>flow::net_flow::Node::sock_set_state</title>
<polygon fill="white" stroke="transparent" points="-4,4 -4,-299 1339,-299 1339,4 -4,4"/>
<!-- Node1 -->
<g id="node1" class="node">
<title>Node1</title>
<g id="a_node1"><a xlink:title="Sets Peer_socket::m_state and Peer_socket::m_open_sub_state.">
<polygon fill="#bfbfbf" stroke="black" points="1234,-188 1234,-214 1335,-214 1335,-188 1234,-188"/>
<text text-anchor="start" x="1242" y="-203.6" font-family="Helvetica,sans-Serif" font-size="8.00">flow::net_flow::Node</text>
<text text-anchor="middle" x="1284.5" y="-194.6" font-family="Helvetica,sans-Serif" font-size="8.00">::sock_set_state</text>
</a>
</g>
</g>
<!-- Node2 -->
<g id="node2" class="node">
<title>Node2</title>
<g id="a_node2"><a xlink:href="classflow_1_1net__flow_1_1Node.html#a29d02f9e302c7b06288ff1c644fa8d65" target="_top" xlink:title="Handles a just&#45;deserialized, just&#45;demultiplexed low&#45;level SYN_ACK_ACK packet delivered to the given p...">
<polygon fill="white" stroke="black" points="435,-175.5 435,-210.5 540,-210.5 540,-175.5 435,-175.5"/>
<text text-anchor="start" x="443" y="-200.1" font-family="Helvetica,sans-Serif" font-size="8.00">flow::net_flow::Node</text>
<text text-anchor="start" x="443" y="-191.1" font-family="Helvetica,sans-Serif" font-size="8.00">::handle_syn_ack_ack</text>
<text text-anchor="middle" x="487.5" y="-182.1" font-family="Helvetica,sans-Serif" font-size="8.00">_to_syn_rcvd</text>
</a>
</g>
</g>
<!-- Node1&#45;&gt;Node2 -->
<g id="edge1" class="edge">
<title>Node1&#45;&gt;Node2</title>
<path fill="none" stroke="midnightblue" d="M1223.67,-209.69C1157.4,-218.55 1047.31,-231 952,-231 952,-231 952,-231 776,-231 692.93,-231 597.51,-215.21 540.17,-203.99"/>
<polygon fill="midnightblue" stroke="midnightblue" points="1224.48,-213.11 1233.92,-208.3 1223.54,-206.17 1224.48,-213.11"/>
</g>
<!-- Node9 -->
<g id="node6" class="node">
<title>Node9</title>
<g id="a_node6"><a xlink:href="classflow_1_1net__flow_1_1Node.html#aaaf5c3b5e6b9f9f1658b60907b36a498" target="_top" xlink:title="Handles a just&#45;deserialized, just&#45;demultiplexed low&#45;level SYN packet delivered to the given server so...">
<polygon fill="white" stroke="black" points="891,-259.5 891,-294.5 1011,-294.5 1011,-259.5 891,-259.5"/>
<text text-anchor="start" x="899" y="-284.1" font-family="Helvetica,sans-Serif" font-size="8.00">flow::net_flow::Node</text>
<text text-anchor="start" x="899" y="-275.1" font-family="Helvetica,sans-Serif" font-size="8.00">::handle_syn_to_listening</text>
<text text-anchor="middle" x="951" y="-266.1" font-family="Helvetica,sans-Serif" font-size="8.00">_server</text>
</a>
</g>
</g>
<!-- Node1&#45;&gt;Node9 -->
<g id="edge7" class="edge">
<title>Node1&#45;&gt;Node9</title>
<path fill="none" stroke="midnightblue" d="M1254.07,-219.36C1238.07,-228.51 1217.58,-238.89 1198,-245 1136.02,-264.33 1061.73,-271.99 1011.12,-275.02"/>
<polygon fill="midnightblue" stroke="midnightblue" points="1256.08,-222.24 1262.94,-214.16 1252.54,-216.2 1256.08,-222.24"/>
</g>
<!-- Node10 -->
<g id="node7" class="node">
<title>Node10</title>
<g id="a_node7"><a xlink:href="classflow_1_1net__flow_1_1Node.html#ade529b5452c9fe363ae468346e662ceb" target="_top" xlink:title="While in S_OPEN+S_DISCONNECTING state (i.e., after beginning a graceful close with sock_disconnect_de...">
<polygon fill="white" stroke="black" points="1061,-167 1061,-193 1198,-193 1198,-167 1061,-167"/>
<text text-anchor="start" x="1069" y="-182.6" font-family="Helvetica,sans-Serif" font-size="8.00">flow::net_flow::Node</text>
<text text-anchor="middle" x="1129.5" y="-173.6" font-family="Helvetica,sans-Serif" font-size="8.00">::sock_disconnect_completed</text>
</a>
</g>
</g>
<!-- Node1&#45;&gt;Node10 -->
<g id="edge9" class="edge">
<title>Node1&#45;&gt;Node10</title>
<path fill="none" stroke="midnightblue" d="M1223.71,-192.79C1215.28,-191.64 1206.57,-190.44 1198.01,-189.27"/>
<polygon fill="midnightblue" stroke="midnightblue" points="1223.44,-196.29 1233.83,-194.18 1224.39,-189.35 1223.44,-196.29"/>
</g>
<!-- Node25 -->
<g id="node15" class="node">
<title>Node25</title>
<g id="a_node15"><a xlink:href="classflow_1_1net__flow_1_1Node.html#ada9357f6ce9d5fc249b1cc176afdc471" target="_top" xlink:title="Records that thread W shows underlying connection is broken (graceful termination,...">
<polygon fill="white" stroke="black" points="1064,-103 1064,-129 1195,-129 1195,-103 1064,-103"/>
<text text-anchor="start" x="1072" y="-118.6" font-family="Helvetica,sans-Serif" font-size="8.00">flow::net_flow::Node</text>
<text text-anchor="middle" x="1129.5" y="-109.6" font-family="Helvetica,sans-Serif" font-size="8.00">::sock_disconnect_detected</text>
</a>
</g>
</g>
<!-- Node1&#45;&gt;Node25 -->
<g id="edge20" class="edge">
<title>Node1&#45;&gt;Node25</title>
<path fill="none" stroke="midnightblue" d="M1250.98,-182.93C1221.93,-166.79 1180.05,-143.53 1154.1,-129.11"/>
<polygon fill="midnightblue" stroke="midnightblue" points="1249.49,-186.11 1259.93,-187.91 1252.89,-179.99 1249.49,-186.11"/>
</g>
<!-- Node3 -->
<g id="node3" class="node">
<title>Node3</title>
<g id="a_node3"><a xlink:href="classflow_1_1net__flow_1_1Node.html#a1699dfdaf3e5ebe1b1d715a9c306d116" target="_top" xlink:title="Handles a just&#45;received, not&#45;yet&#45;deserialized low&#45;level packet.">
<polygon fill="white" stroke="black" points="298,-180 298,-206 399,-206 399,-180 298,-180"/>
<text text-anchor="start" x="306" y="-195.6" font-family="Helvetica,sans-Serif" font-size="8.00">flow::net_flow::Node</text>
<text text-anchor="middle" x="348.5" y="-186.6" font-family="Helvetica,sans-Serif" font-size="8.00">::handle_incoming</text>
</a>
</g>
</g>
<!-- Node2&#45;&gt;Node3 -->
<g id="edge2" class="edge">
<title>Node2&#45;&gt;Node3</title>
<path fill="none" stroke="midnightblue" d="M424.45,-193C415.96,-193 407.33,-193 399.1,-193"/>
<polygon fill="midnightblue" stroke="midnightblue" points="424.71,-196.5 434.71,-193 424.71,-189.5 424.71,-196.5"/>
</g>
<!-- Node4 -->
<g id="node4" class="node">
<title>Node4</title>
<g id="a_node4"><a xlink:href="classflow_1_1net__flow_1_1Node.html#a4368247d07e930bdd07ab8d2425c6de8" target="_top" xlink:title="Sets up handle_incoming(packet_data, low_lvl_remote_endpoint) to be called asynchronously after a spe...">
<polygon fill="white" stroke="black" points="149,-198.5 149,-233.5 262,-233.5 262,-198.5 149,-198.5"/>
<text text-anchor="start" x="157" y="-223.1" font-family="Helvetica,sans-Serif" font-size="8.00">flow::net_flow::Node</text>
<text text-anchor="start" x="157" y="-214.1" font-family="Helvetica,sans-Serif" font-size="8.00">::async_wait_latency</text>
<text text-anchor="middle" x="205.5" y="-205.1" font-family="Helvetica,sans-Serif" font-size="8.00">_then_handle_incoming</text>
</a>
</g>
</g>
<!-- Node3&#45;&gt;Node4 -->
<g id="edge3" class="edge">
<title>Node3&#45;&gt;Node4</title>
<path fill="none" stroke="midnightblue" d="M287.86,-202.73C279.29,-204.13 270.49,-205.56 262.01,-206.95"/>
<polygon fill="midnightblue" stroke="midnightblue" points="288.48,-206.17 297.79,-201.11 287.36,-199.26 288.48,-206.17"/>
</g>
<!-- Node5 -->
<g id="node5" class="node">
<title>Node5</title>
<g id="a_node5"><a xlink:href="classflow_1_1net__flow_1_1Node.html#a90ecbad1ff3a8d2fe4b3ad1c474f7513" target="_top" xlink:title="Helper for low_lvl_recv_and_handle() that calls handle_incoming() on the not&#45;yet&#45;deserialized low&#45;lev...">
<polygon fill="white" stroke="red" points="0,-175.5 0,-210.5 113,-210.5 113,-175.5 0,-175.5"/>
<text text-anchor="start" x="8" y="-200.1" font-family="Helvetica,sans-Serif" font-size="8.00">flow::net_flow::Node</text>
<text text-anchor="start" x="8" y="-191.1" font-family="Helvetica,sans-Serif" font-size="8.00">::handle_incoming_with</text>
<text text-anchor="middle" x="56.5" y="-182.1" font-family="Helvetica,sans-Serif" font-size="8.00">_simulation</text>
</a>
</g>
</g>
<!-- Node3&#45;&gt;Node5 -->
<g id="edge6" class="edge">
<title>Node3&#45;&gt;Node5</title>
<path fill="none" stroke="midnightblue" d="M287.75,-189.85C279.11,-189.5 270.33,-189.19 262,-189 211.79,-187.83 199.21,-187.9 149,-189 137.4,-189.25 124.97,-189.69 113.13,-190.18"/>
<polygon fill="midnightblue" stroke="midnightblue" points="287.64,-193.35 297.78,-190.28 287.94,-186.35 287.64,-193.35"/>
</g>
<!-- Node4&#45;&gt;Node5 -->
<g id="edge4" class="edge">
<title>Node4&#45;&gt;Node5</title>
<path fill="none" stroke="midnightblue" d="M138.92,-205.74C130.32,-204.39 121.57,-203.02 113.15,-201.71"/>
<polygon fill="midnightblue" stroke="midnightblue" points="138.5,-209.22 148.93,-207.3 139.59,-202.3 138.5,-209.22"/>
</g>
<!-- Node5&#45;&gt;Node5 -->
<g id="edge5" class="edge">
<title>Node5&#45;&gt;Node5</title>
<path fill="none" stroke="midnightblue" d="M82.27,-221.1C78.65,-225.77 70.06,-229 56.5,-229 34.24,-229 25.37,-220.31 29.89,-210.78"/>
<polygon fill="midnightblue" stroke="midnightblue" points="85.79,-221.03 83.11,-210.78 78.81,-220.47 85.79,-221.03"/>
</g>
<!-- Node9&#45;&gt;Node3 -->
<g id="edge8" class="edge">
<title>Node9&#45;&gt;Node3</title>
<path fill="none" stroke="midnightblue" d="M880.56,-275.04C780.69,-270.95 591.31,-258.36 435,-220 419.13,-216.1 401.89,-210.86 387.08,-206.03"/>
<polygon fill="midnightblue" stroke="midnightblue" points="880.69,-278.55 890.82,-275.45 880.97,-271.56 880.69,-278.55"/>
</g>
<!-- Node11 -->
<g id="node8" class="node">
<title>Node11</title>
<g id="a_node8"><a xlink:href="classflow_1_1net__flow_1_1Node.html#ade49e7bc7202a0adf33fec2d93d1b177" target="_top" xlink:title="A thread W method that handles the transition of the given socket from OPEN (any sub&#45;state) to CLOSED...">
<polygon fill="white" stroke="black" points="877,-98 877,-124 1025,-124 1025,-98 877,-98"/>
<text text-anchor="start" x="885" y="-113.6" font-family="Helvetica,sans-Serif" font-size="8.00">flow::net_flow::Node</text>
<text text-anchor="middle" x="951" y="-104.6" font-family="Helvetica,sans-Serif" font-size="8.00">::close_connection_immediately</text>
</a>
</g>
</g>
<!-- Node10&#45;&gt;Node11 -->
<g id="edge10" class="edge">
<title>Node10&#45;&gt;Node11</title>
<path fill="none" stroke="midnightblue" d="M1085.28,-163.1C1054.52,-151.08 1013.79,-135.16 985.49,-124.09"/>
<polygon fill="midnightblue" stroke="midnightblue" points="1084.3,-166.48 1094.89,-166.86 1086.85,-159.96 1084.3,-166.48"/>
</g>
<!-- Node11&#45;&gt;Node3 -->
<g id="edge11" class="edge">
<title>Node11&#45;&gt;Node3</title>
<path fill="none" stroke="midnightblue" d="M899.49,-95.21C881.25,-90.26 860.38,-85.45 841,-83 724.15,-68.23 690.78,-56.6 576,-83 493.56,-101.96 406.34,-155.1 368.67,-179.92"/>
<polygon fill="midnightblue" stroke="midnightblue" points="898.75,-98.63 909.32,-97.96 900.64,-91.89 898.75,-98.63"/>
</g>
<!-- Node12 -->
<g id="node9" class="node">
<title>Node12</title>
<g id="a_node9"><a xlink:href="classflow_1_1net__flow_1_1Node.html#ad608f9bbe76426f4fbf4bf5af908e4e0" target="_top" xlink:title="Placed by receive() onto W during a graceful close, after the Receive buffer had been emptied by the ...">
<polygon fill="white" stroke="black" points="716.5,-0.5 716.5,-35.5 837.5,-35.5 837.5,-0.5 716.5,-0.5"/>
<text text-anchor="start" x="724.5" y="-25.1" font-family="Helvetica,sans-Serif" font-size="8.00">flow::net_flow::Node</text>
<text text-anchor="start" x="724.5" y="-16.1" font-family="Helvetica,sans-Serif" font-size="8.00">::receive_emptied_rcv</text>
<text text-anchor="middle" x="777" y="-7.1" font-family="Helvetica,sans-Serif" font-size="8.00">_buf_while_disconnecting</text>
</a>
</g>
</g>
<!-- Node11&#45;&gt;Node12 -->
<g id="edge12" class="edge">
<title>Node11&#45;&gt;Node12</title>
<path fill="none" stroke="midnightblue" d="M918.41,-92.88C896.75,-80.56 867.28,-64.02 841,-50 832.02,-45.21 822.24,-40.16 813.12,-35.52"/>
<polygon fill="midnightblue" stroke="midnightblue" points="916.76,-95.97 927.18,-97.88 920.23,-89.89 916.76,-95.97"/>
</g>
<!-- Node21 -->
<g id="node11" class="node">
<title>Node21</title>
<g id="a_node11"><a xlink:href="classflow_1_1net__flow_1_1Node.html#afe70a0c32695e417e7a09e0ba773f151" target="_top" xlink:title="Asynchronously send RST to the other side of the given socket and close_connection_immediately().">
<polygon fill="white" stroke="black" points="713,-138.5 713,-173.5 841,-173.5 841,-138.5 713,-138.5"/>
<text text-anchor="start" x="721" y="-163.1" font-family="Helvetica,sans-Serif" font-size="8.00">flow::net_flow::Node</text>
<text text-anchor="start" x="721" y="-154.1" font-family="Helvetica,sans-Serif" font-size="8.00">::rst_and_close_connection</text>
<text text-anchor="middle" x="777" y="-145.1" font-family="Helvetica,sans-Serif" font-size="8.00">_immediately</text>
</a>
</g>
</g>
<!-- Node11&#45;&gt;Node21 -->
<g id="edge14" class="edge">
<title>Node11&#45;&gt;Node21</title>
<path fill="none" stroke="midnightblue" d="M890.52,-126.56C874.57,-130.74 857.27,-135.26 841.13,-139.48"/>
<polygon fill="midnightblue" stroke="midnightblue" points="891.46,-129.93 900.25,-124.02 889.69,-123.16 891.46,-129.93"/>
</g>
<!-- Node8 -->
<g id="node14" class="node">
<title>Node8</title>
<g id="a_node14"><a xlink:href="classflow_1_1net__flow_1_1Node.html#a5b056ed753b832458f44f537acfe86d7" target="_top" xlink:title="Worker thread W (main event loop) body.">
<polygon fill="white" stroke="black" points="726.5,-93 726.5,-119 827.5,-119 827.5,-93 726.5,-93"/>
<text text-anchor="start" x="734.5" y="-108.6" font-family="Helvetica,sans-Serif" font-size="8.00">flow::net_flow::Node</text>
<text text-anchor="middle" x="777" y="-99.6" font-family="Helvetica,sans-Serif" font-size="8.00">::worker_run</text>
</a>
</g>
</g>
<!-- Node11&#45;&gt;Node8 -->
<g id="edge19" class="edge">
<title>Node11&#45;&gt;Node8</title>
<path fill="none" stroke="midnightblue" d="M866.43,-108.57C853.14,-108.18 839.77,-107.8 827.59,-107.44"/>
<polygon fill="midnightblue" stroke="midnightblue" points="866.46,-112.07 876.56,-108.87 866.66,-105.08 866.46,-112.07"/>
</g>
<!-- Node13 -->
<g id="node10" class="node">
<title>Node13</title>
<g id="a_node10"><a xlink:href="classflow_1_1net__flow_1_1Node.html#addbb96858fd7b3c9ddd7c6fe8078809c" target="_top" xlink:title="Implementation of non&#45;blocking sock&#45;&gt;receive() for socket sock in all cases except when sock&#45;&gt;state()...">
<polygon fill="white" stroke="red" points="576,-5 576,-31 677,-31 677,-5 576,-5"/>
<text text-anchor="start" x="584" y="-20.6" font-family="Helvetica,sans-Serif" font-size="8.00">flow::net_flow::Node</text>
<text text-anchor="middle" x="626.5" y="-11.6" font-family="Helvetica,sans-Serif" font-size="8.00">::receive</text>
</a>
</g>
</g>
<!-- Node12&#45;&gt;Node13 -->
<g id="edge13" class="edge">
<title>Node12&#45;&gt;Node13</title>
<path fill="none" stroke="midnightblue" d="M706.25,-18C696.39,-18 686.42,-18 677.05,-18"/>
<polygon fill="midnightblue" stroke="midnightblue" points="706.46,-21.5 716.46,-18 706.45,-14.5 706.46,-21.5"/>
</g>
<!-- Node21&#45;&gt;Node2 -->
<g id="edge16" class="edge">
<title>Node21&#45;&gt;Node2</title>
<path fill="none" stroke="midnightblue" d="M702.83,-169.11C694.14,-170.5 685.38,-171.84 677,-173 630.88,-179.4 578.15,-184.84 540.21,-188.42"/>
<polygon fill="midnightblue" stroke="midnightblue" points="703.68,-172.52 712.98,-167.45 702.55,-165.61 703.68,-172.52"/>
</g>
<!-- Node22 -->
<g id="node12" class="node">
<title>Node22</title>
<g id="a_node12"><a xlink:href="classflow_1_1net__flow_1_1Node.html#a6461124e5bc3e59083e172e26029e632" target="_top" xlink:title="Implementation of non&#45;blocking sock&#45;&gt;close_abruptly() for socket sock in all cases except when sock&#45;&gt;...">
<polygon fill="white" stroke="red" points="576,-93 576,-119 677,-119 677,-93 576,-93"/>
<text text-anchor="start" x="584" y="-108.6" font-family="Helvetica,sans-Serif" font-size="8.00">flow::net_flow::Node</text>
<text text-anchor="middle" x="626.5" y="-99.6" font-family="Helvetica,sans-Serif" font-size="8.00">::close_abruptly</text>
</a>
</g>
</g>
<!-- Node21&#45;&gt;Node22 -->
<g id="edge15" class="edge">
<title>Node21&#45;&gt;Node22</title>
<path fill="none" stroke="midnightblue" d="M713.76,-135.04C697.67,-129.63 680.82,-123.95 666.32,-119.07"/>
<polygon fill="midnightblue" stroke="midnightblue" points="713.05,-138.5 723.64,-138.37 715.28,-131.86 713.05,-138.5"/>
</g>
<!-- Node24 -->
<g id="node13" class="node">
<title>Node24</title>
<g id="a_node13"><a xlink:href="classflow_1_1net__flow_1_1Node.html#ab427ebc124a6233ae48a7562662a6e81" target="_top" xlink:title="Creates a new Drop Timer and saves it to sock&#45;&gt;m_snd_drop_timer.">
<polygon fill="white" stroke="black" points="576,-138 576,-164 677,-164 677,-138 576,-138"/>
<text text-anchor="start" x="584" y="-153.6" font-family="Helvetica,sans-Serif" font-size="8.00">flow::net_flow::Node</text>
<text text-anchor="middle" x="626.5" y="-144.6" font-family="Helvetica,sans-Serif" font-size="8.00">::setup_drop_timer</text>
</a>
</g>
</g>
<!-- Node21&#45;&gt;Node24 -->
<g id="edge17" class="edge">
<title>Node21&#45;&gt;Node24</title>
<path fill="none" stroke="midnightblue" d="M702.55,-153.53C693.97,-153.24 685.38,-152.95 677.23,-152.67"/>
<polygon fill="midnightblue" stroke="midnightblue" points="702.48,-157.03 712.59,-153.87 702.72,-150.03 702.48,-157.03"/>
</g>
<!-- Node24&#45;&gt;Node2 -->
<g id="edge18" class="edge">
<title>Node24&#45;&gt;Node2</title>
<path fill="none" stroke="midnightblue" d="M573.18,-167.04C562.38,-170.35 551.01,-173.84 540.23,-177.14"/>
<polygon fill="midnightblue" stroke="midnightblue" points="574.37,-170.34 582.9,-164.06 572.32,-163.64 574.37,-170.34"/>
</g>
<!-- Node25&#45;&gt;Node11 -->
<g id="edge21" class="edge">
<title>Node25&#45;&gt;Node11</title>
<path fill="none" stroke="midnightblue" d="M1053.62,-113.88C1044.16,-113.61 1034.49,-113.34 1025.06,-113.07"/>
<polygon fill="midnightblue" stroke="midnightblue" points="1053.69,-117.38 1063.78,-114.17 1053.88,-110.38 1053.69,-117.38"/>
</g>
</g>
</svg>
