<?xml version="1.0" encoding="UTF-8" standalone="no"?>
<!DOCTYPE svg PUBLIC "-//W3C//DTD SVG 1.1//EN"
 "http://www.w3.org/Graphics/SVG/1.1/DTD/svg11.dtd">
<!-- Generated by graphviz version 2.43.0 (0)
 -->
<!-- Title: flow::net_flow::Node::max_block_size Pages: 1 -->
<svg width="720pt" height="85pt"
 viewBox="0.00 0.00 720.00 84.50" xmlns="http://www.w3.org/2000/svg" xmlns:xlink="http://www.w3.org/1999/xlink">
<g id="graph0" class="graph" transform="scale(1 1) rotate(0) translate(4 80.5)">
<title>flow::net_flow::Node::max_block_size</title>
<polygon fill="white" stroke="transparent" points="-4,4 -4,-80.5 716,-80.5 716,4 -4,4"/>
<!-- Node1 -->
<g id="node1" class="node">
<title>Node1</title>
<g id="a_node1"><a xlink:title="The maximum number of bytes of user data per received or sent block on connections generated from thi...">
<polygon fill="#bfbfbf" stroke="black" points="611,-27 611,-53 712,-53 712,-27 611,-27"/>
<text text-anchor="start" x="619" y="-42.6" font-family="Helvetica,sans-Serif" font-size="8.00">flow::net_flow::Node</text>
<text text-anchor="middle" x="661.5" y="-33.6" font-family="Helvetica,sans-Serif" font-size="8.00">::max_block_size</text>
</a>
</g>
</g>
<!-- Node2 -->
<g id="node2" class="node">
<title>Node2</title>
<g id="a_node2"><a xlink:href="classflow_1_1net__flow_1_1Node.html#a6524cbac013de26f46784b9a2823e5af" target="_top" xlink:title="Sends a low&#45;level ACK packet, with all accumulated in Peer_socket::m_rcv_pending_acks of sock individ...">
<polygon fill="white" stroke="black" points="456,-50 456,-76 575,-76 575,-50 456,-50"/>
<text text-anchor="start" x="464" y="-65.6" font-family="Helvetica,sans-Serif" font-size="8.00">flow::net_flow::Node</text>
<text text-anchor="middle" x="515.5" y="-56.6" font-family="Helvetica,sans-Serif" font-size="8.00">::async_low_lvl_ack_send</text>
</a>
</g>
</g>
<!-- Node1&#45;&gt;Node2 -->
<g id="edge1" class="edge">
<title>Node1&#45;&gt;Node2</title>
<path fill="none" stroke="midnightblue" d="M601.02,-49.5C592.45,-50.87 583.63,-52.28 575.08,-53.64"/>
<polygon fill="midnightblue" stroke="midnightblue" points="601.62,-52.95 610.94,-47.92 600.52,-46.04 601.62,-52.95"/>
</g>
<!-- Node3 -->
<g id="node3" class="node">
<title>Node3</title>
<g id="a_node3"><a xlink:href="classflow_1_1net__flow_1_1Node.html#a1699dfdaf3e5ebe1b1d715a9c306d116" target="_top" xlink:title="Handles a just&#45;received, not&#45;yet&#45;deserialized low&#45;level packet.">
<polygon fill="white" stroke="black" points="465,-5 465,-31 566,-31 566,-5 465,-5"/>
<text text-anchor="start" x="473" y="-20.6" font-family="Helvetica,sans-Serif" font-size="8.00">flow::net_flow::Node</text>
<text text-anchor="middle" x="515.5" y="-11.6" font-family="Helvetica,sans-Serif" font-size="8.00">::handle_incoming</text>
</a>
</g>
</g>
<!-- Node1&#45;&gt;Node3 -->
<g id="edge2" class="edge">
<title>Node1&#45;&gt;Node3</title>
<path fill="none" stroke="midnightblue" d="M600.92,-30.9C589.36,-29.13 577.35,-27.3 566.15,-25.59"/>
<polygon fill="midnightblue" stroke="midnightblue" points="600.53,-34.38 610.94,-32.43 601.59,-27.46 600.53,-34.38"/>
</g>
<!-- Node4 -->
<g id="node4" class="node">
<title>Node4</title>
<g id="a_node4"><a xlink:href="classflow_1_1net__flow_1_1Node.html#a4368247d07e930bdd07ab8d2425c6de8" target="_top" xlink:title="Sets up handle_incoming(packet_data, low_lvl_remote_endpoint) to be called asynchronously after a spe...">
<polygon fill="white" stroke="black" points="307,-23.5 307,-58.5 420,-58.5 420,-23.5 307,-23.5"/>
<text text-anchor="start" x="315" y="-48.1" font-family="Helvetica,sans-Serif" font-size="8.00">flow::net_flow::Node</text>
<text text-anchor="start" x="315" y="-39.1" font-family="Helvetica,sans-Serif" font-size="8.00">::async_wait_latency</text>
<text text-anchor="middle" x="363.5" y="-30.1" font-family="Helvetica,sans-Serif" font-size="8.00">_then_handle_incoming</text>
</a>
</g>
</g>
<!-- Node3&#45;&gt;Node4 -->
<g id="edge3" class="edge">
<title>Node3&#45;&gt;Node4</title>
<path fill="none" stroke="midnightblue" d="M455.04,-27.12C443.55,-28.88 431.56,-30.72 420.2,-32.46"/>
<polygon fill="midnightblue" stroke="midnightblue" points="455.61,-30.57 464.97,-25.59 454.55,-23.65 455.61,-30.57"/>
</g>
<!-- Node5 -->
<g id="node5" class="node">
<title>Node5</title>
<g id="a_node5"><a xlink:href="classflow_1_1net__flow_1_1Node.html#a90ecbad1ff3a8d2fe4b3ad1c474f7513" target="_top" xlink:title="Helper for low_lvl_recv_and_handle() that calls handle_incoming() on the not&#45;yet&#45;deserialized low&#45;lev...">
<polygon fill="white" stroke="black" points="158,-0.5 158,-35.5 271,-35.5 271,-0.5 158,-0.5"/>
<text text-anchor="start" x="166" y="-25.1" font-family="Helvetica,sans-Serif" font-size="8.00">flow::net_flow::Node</text>
<text text-anchor="start" x="166" y="-16.1" font-family="Helvetica,sans-Serif" font-size="8.00">::handle_incoming_with</text>
<text text-anchor="middle" x="214.5" y="-7.1" font-family="Helvetica,sans-Serif" font-size="8.00">_simulation</text>
</a>
</g>
</g>
<!-- Node3&#45;&gt;Node5 -->
<g id="edge7" class="edge">
<title>Node3&#45;&gt;Node5</title>
<path fill="none" stroke="midnightblue" d="M454.95,-15.1C443.36,-14.64 431.3,-14.24 420,-14 369.79,-12.94 357.21,-12.9 307,-14 295.4,-14.25 282.97,-14.69 271.13,-15.18"/>
<polygon fill="midnightblue" stroke="midnightblue" points="454.84,-18.59 464.98,-15.51 455.13,-11.6 454.84,-18.59"/>
</g>
<!-- Node4&#45;&gt;Node5 -->
<g id="edge4" class="edge">
<title>Node4&#45;&gt;Node5</title>
<path fill="none" stroke="midnightblue" d="M296.92,-30.74C288.32,-29.39 279.57,-28.02 271.15,-26.71"/>
<polygon fill="midnightblue" stroke="midnightblue" points="296.5,-34.22 306.93,-32.3 297.59,-27.3 296.5,-34.22"/>
</g>
<!-- Node5&#45;&gt;Node5 -->
<g id="edge5" class="edge">
<title>Node5&#45;&gt;Node5</title>
<path fill="none" stroke="midnightblue" d="M240.27,-46.1C236.65,-50.77 228.06,-54 214.5,-54 192.24,-54 183.37,-45.31 187.89,-35.78"/>
<polygon fill="midnightblue" stroke="midnightblue" points="243.79,-46.03 241.11,-35.78 236.81,-45.47 243.79,-46.03"/>
</g>
<!-- Node6 -->
<g id="node6" class="node">
<title>Node6</title>
<g id="a_node6"><a xlink:href="classflow_1_1net__flow_1_1Node.html#a9909cd2b2a77c57da9e35fcef0f8a4e5" target="_top" xlink:title="Handles the pre&#45;condition that m_low_lvl_sock has a UDP packet available for reading,...">
<polygon fill="white" stroke="red" points="0,-5 0,-31 122,-31 122,-5 0,-5"/>
<text text-anchor="start" x="8" y="-20.6" font-family="Helvetica,sans-Serif" font-size="8.00">flow::net_flow::Node</text>
<text text-anchor="middle" x="61" y="-11.6" font-family="Helvetica,sans-Serif" font-size="8.00">::low_lvl_recv_and_handle</text>
</a>
</g>
</g>
<!-- Node5&#45;&gt;Node6 -->
<g id="edge6" class="edge">
<title>Node5&#45;&gt;Node6</title>
<path fill="none" stroke="midnightblue" d="M147.7,-18C139.2,-18 130.54,-18 122.14,-18"/>
<polygon fill="midnightblue" stroke="midnightblue" points="147.95,-21.5 157.95,-18 147.95,-14.5 147.95,-21.5"/>
</g>
</g>
</svg>
