<?xml version="1.0" encoding="UTF-8" standalone="no"?>
<!DOCTYPE svg PUBLIC "-//W3C//DTD SVG 1.1//EN"
 "http://www.w3.org/Graphics/SVG/1.1/DTD/svg11.dtd">
<!-- Generated by graphviz version 2.43.0 (0)
 -->
<!-- Title: flow::net_flow::Node::rst_and_close_connection_immediately Pages: 1 -->
<svg width="857pt" height="137pt"
 viewBox="0.00 0.00 857.00 137.00" xmlns="http://www.w3.org/2000/svg" xmlns:xlink="http://www.w3.org/1999/xlink">
<g id="graph0" class="graph" transform="scale(1 1) rotate(0) translate(4 133)">
<title>flow::net_flow::Node::rst_and_close_connection_immediately</title>
<polygon fill="white" stroke="transparent" points="-4,4 -4,-133 853,-133 853,4 -4,4"/>
<!-- Node1 -->
<g id="node1" class="node">
<title>Node1</title>
<g id="a_node1"><a xlink:title="Asynchronously send RST to the other side of the given socket and close_connection_immediately().">
<polygon fill="#bfbfbf" stroke="black" points="721,-38 721,-73 849,-73 849,-38 721,-38"/>
<text text-anchor="start" x="729" y="-62.6" font-family="Helvetica,sans-Serif" font-size="8.00">flow::net_flow::Node</text>
<text text-anchor="start" x="729" y="-53.6" font-family="Helvetica,sans-Serif" font-size="8.00">::rst_and_close_connection</text>
<text text-anchor="middle" x="785" y="-44.6" font-family="Helvetica,sans-Serif" font-size="8.00">_immediately</text>
</a>
</g>
</g>
<!-- Node2 -->
<g id="node2" class="node">
<title>Node2</title>
<g id="a_node2"><a xlink:href="classflow_1_1net__flow_1_1Node.html#a6461124e5bc3e59083e172e26029e632" target="_top" xlink:title="Implementation of non&#45;blocking sock&#45;&gt;close_abruptly() for socket sock in all cases except when sock&#45;&gt;...">
<polygon fill="white" stroke="black" points="584,-84.5 584,-110.5 685,-110.5 685,-84.5 584,-84.5"/>
<text text-anchor="start" x="592" y="-100.1" font-family="Helvetica,sans-Serif" font-size="8.00">flow::net_flow::Node</text>
<text text-anchor="middle" x="634.5" y="-91.1" font-family="Helvetica,sans-Serif" font-size="8.00">::close_abruptly</text>
</a>
</g>
</g>
<!-- Node1&#45;&gt;Node2 -->
<g id="edge1" class="edge">
<title>Node1&#45;&gt;Node2</title>
<path fill="none" stroke="midnightblue" d="M712,-75.86C701.64,-78.79 691.22,-81.74 681.55,-84.48"/>
<polygon fill="midnightblue" stroke="midnightblue" points="713.21,-79.16 721.88,-73.07 711.31,-72.42 713.21,-79.16"/>
</g>
<!-- Node4 -->
<g id="node4" class="node">
<title>Node4</title>
<g id="a_node4"><a xlink:href="classflow_1_1net__flow_1_1Node.html#a29d02f9e302c7b06288ff1c644fa8d65" target="_top" xlink:title="Handles a just&#45;deserialized, just&#45;demultiplexed low&#45;level SYN_ACK_ACK packet delivered to the given p...">
<polygon fill="white" stroke="black" points="439,-13 439,-48 544,-48 544,-13 439,-13"/>
<text text-anchor="start" x="447" y="-37.6" font-family="Helvetica,sans-Serif" font-size="8.00">flow::net_flow::Node</text>
<text text-anchor="start" x="447" y="-28.6" font-family="Helvetica,sans-Serif" font-size="8.00">::handle_syn_ack_ack</text>
<text text-anchor="middle" x="491.5" y="-19.6" font-family="Helvetica,sans-Serif" font-size="8.00">_to_syn_rcvd</text>
</a>
</g>
</g>
<!-- Node1&#45;&gt;Node4 -->
<g id="edge4" class="edge">
<title>Node1&#45;&gt;Node4</title>
<path fill="none" stroke="midnightblue" d="M710.62,-49.21C658.82,-44.76 590.68,-38.92 544.44,-34.95"/>
<polygon fill="midnightblue" stroke="midnightblue" points="710.49,-52.71 720.75,-50.08 711.08,-45.73 710.49,-52.71"/>
</g>
<!-- Node11 -->
<g id="node8" class="node">
<title>Node11</title>
<g id="a_node8"><a xlink:href="classflow_1_1net__flow_1_1Node.html#ab427ebc124a6233ae48a7562662a6e81" target="_top" xlink:title="Creates a new Drop Timer and saves it to sock&#45;&gt;m_snd_drop_timer.">
<polygon fill="white" stroke="black" points="584,-0.5 584,-26.5 685,-26.5 685,-0.5 584,-0.5"/>
<text text-anchor="start" x="592" y="-16.1" font-family="Helvetica,sans-Serif" font-size="8.00">flow::net_flow::Node</text>
<text text-anchor="middle" x="634.5" y="-7.1" font-family="Helvetica,sans-Serif" font-size="8.00">::setup_drop_timer</text>
</a>
</g>
</g>
<!-- Node1&#45;&gt;Node11 -->
<g id="edge10" class="edge">
<title>Node1&#45;&gt;Node11</title>
<path fill="none" stroke="midnightblue" d="M712,-35.14C701.64,-32.21 691.22,-29.26 681.55,-26.52"/>
<polygon fill="midnightblue" stroke="midnightblue" points="711.31,-38.58 721.88,-37.93 713.21,-31.84 711.31,-38.58"/>
</g>
<!-- Node3 -->
<g id="node3" class="node">
<title>Node3</title>
<g id="a_node3"><a xlink:href="classflow_1_1net__flow_1_1Peer__socket.html#a1812e852957c43ccca8712d63c6e3de7" target="_top" xlink:title="Acts as if fatal error error::Code::S_USER_CLOSED_ABRUPTLY has been discovered on the connection.">
<polygon fill="white" stroke="black" points="435,-84.5 435,-110.5 548,-110.5 548,-84.5 435,-84.5"/>
<text text-anchor="start" x="443" y="-100.1" font-family="Helvetica,sans-Serif" font-size="8.00">flow::net_flow::Peer</text>
<text text-anchor="middle" x="491.5" y="-91.1" font-family="Helvetica,sans-Serif" font-size="8.00">_socket::close_abruptly</text>
</a>
</g>
</g>
<!-- Node2&#45;&gt;Node3 -->
<g id="edge2" class="edge">
<title>Node2&#45;&gt;Node3</title>
<path fill="none" stroke="midnightblue" d="M573.58,-97.5C565.09,-97.5 556.4,-97.5 548.01,-97.5"/>
<polygon fill="midnightblue" stroke="midnightblue" points="573.79,-101 583.79,-97.5 573.79,-94 573.79,-101"/>
</g>
<!-- Node3&#45;&gt;Node3 -->
<g id="edge3" class="edge">
<title>Node3&#45;&gt;Node3</title>
<path fill="none" stroke="midnightblue" d="M517.06,-120.94C514.22,-125.64 505.7,-129 491.5,-129 468.2,-129 460.19,-119.96 467.48,-110.77"/>
<polygon fill="midnightblue" stroke="midnightblue" points="520.48,-120.14 515.52,-110.77 513.55,-121.18 520.48,-120.14"/>
</g>
<!-- Node5 -->
<g id="node5" class="node">
<title>Node5</title>
<g id="a_node5"><a xlink:href="classflow_1_1net__flow_1_1Node.html#a1699dfdaf3e5ebe1b1d715a9c306d116" target="_top" xlink:title="Handles a just&#45;received, not&#45;yet&#45;deserialized low&#45;level packet.">
<polygon fill="white" stroke="black" points="298,-17.5 298,-43.5 399,-43.5 399,-17.5 298,-17.5"/>
<text text-anchor="start" x="306" y="-33.1" font-family="Helvetica,sans-Serif" font-size="8.00">flow::net_flow::Node</text>
<text text-anchor="middle" x="348.5" y="-24.1" font-family="Helvetica,sans-Serif" font-size="8.00">::handle_incoming</text>
</a>
</g>
</g>
<!-- Node4&#45;&gt;Node5 -->
<g id="edge5" class="edge">
<title>Node4&#45;&gt;Node5</title>
<path fill="none" stroke="midnightblue" d="M428.68,-30.5C418.86,-30.5 408.81,-30.5 399.32,-30.5"/>
<polygon fill="midnightblue" stroke="midnightblue" points="428.8,-34 438.8,-30.5 428.8,-27 428.8,-34"/>
</g>
<!-- Node6 -->
<g id="node6" class="node">
<title>Node6</title>
<g id="a_node6"><a xlink:href="classflow_1_1net__flow_1_1Node.html#a4368247d07e930bdd07ab8d2425c6de8" target="_top" xlink:title="Sets up handle_incoming(packet_data, low_lvl_remote_endpoint) to be called asynchronously after a spe...">
<polygon fill="white" stroke="black" points="149,-36 149,-71 262,-71 262,-36 149,-36"/>
<text text-anchor="start" x="157" y="-60.6" font-family="Helvetica,sans-Serif" font-size="8.00">flow::net_flow::Node</text>
<text text-anchor="start" x="157" y="-51.6" font-family="Helvetica,sans-Serif" font-size="8.00">::async_wait_latency</text>
<text text-anchor="middle" x="205.5" y="-42.6" font-family="Helvetica,sans-Serif" font-size="8.00">_then_handle_incoming</text>
</a>
</g>
</g>
<!-- Node5&#45;&gt;Node6 -->
<g id="edge6" class="edge">
<title>Node5&#45;&gt;Node6</title>
<path fill="none" stroke="midnightblue" d="M287.86,-40.23C279.29,-41.63 270.49,-43.06 262.01,-44.45"/>
<polygon fill="midnightblue" stroke="midnightblue" points="288.48,-43.67 297.79,-38.61 287.36,-36.76 288.48,-43.67"/>
</g>
<!-- Node7 -->
<g id="node7" class="node">
<title>Node7</title>
<g id="a_node7"><a xlink:href="classflow_1_1net__flow_1_1Node.html#a90ecbad1ff3a8d2fe4b3ad1c474f7513" target="_top" xlink:title="Helper for low_lvl_recv_and_handle() that calls handle_incoming() on the not&#45;yet&#45;deserialized low&#45;lev...">
<polygon fill="white" stroke="red" points="0,-13 0,-48 113,-48 113,-13 0,-13"/>
<text text-anchor="start" x="8" y="-37.6" font-family="Helvetica,sans-Serif" font-size="8.00">flow::net_flow::Node</text>
<text text-anchor="start" x="8" y="-28.6" font-family="Helvetica,sans-Serif" font-size="8.00">::handle_incoming_with</text>
<text text-anchor="middle" x="56.5" y="-19.6" font-family="Helvetica,sans-Serif" font-size="8.00">_simulation</text>
</a>
</g>
</g>
<!-- Node5&#45;&gt;Node7 -->
<g id="edge9" class="edge">
<title>Node5&#45;&gt;Node7</title>
<path fill="none" stroke="midnightblue" d="M287.75,-27.35C279.11,-27 270.33,-26.69 262,-26.5 211.79,-25.33 199.21,-25.4 149,-26.5 137.4,-26.75 124.97,-27.19 113.13,-27.68"/>
<polygon fill="midnightblue" stroke="midnightblue" points="287.64,-30.85 297.78,-27.78 287.94,-23.85 287.64,-30.85"/>
</g>
<!-- Node6&#45;&gt;Node7 -->
<g id="edge7" class="edge">
<title>Node6&#45;&gt;Node7</title>
<path fill="none" stroke="midnightblue" d="M138.92,-43.24C130.32,-41.89 121.57,-40.52 113.15,-39.21"/>
<polygon fill="midnightblue" stroke="midnightblue" points="138.5,-46.72 148.93,-44.8 139.59,-39.8 138.5,-46.72"/>
</g>
<!-- Node7&#45;&gt;Node7 -->
<g id="edge8" class="edge">
<title>Node7&#45;&gt;Node7</title>
<path fill="none" stroke="midnightblue" d="M82.27,-58.6C78.65,-63.27 70.06,-66.5 56.5,-66.5 34.24,-66.5 25.37,-57.81 29.89,-48.28"/>
<polygon fill="midnightblue" stroke="midnightblue" points="85.79,-58.53 83.11,-48.28 78.81,-57.97 85.79,-58.53"/>
</g>
<!-- Node11&#45;&gt;Node4 -->
<g id="edge11" class="edge">
<title>Node11&#45;&gt;Node4</title>
<path fill="none" stroke="midnightblue" d="M573.69,-20.71C563.86,-21.9 553.75,-23.11 544.15,-24.27"/>
<polygon fill="midnightblue" stroke="midnightblue" points="574.28,-24.17 583.79,-19.49 573.44,-17.22 574.28,-24.17"/>
</g>
</g>
</svg>
