<?xml version="1.0" encoding="UTF-8" standalone="no"?>
<!DOCTYPE svg PUBLIC "-//W3C//DTD SVG 1.1//EN"
 "http://www.w3.org/Graphics/SVG/1.1/DTD/svg11.dtd">
<!-- Generated by graphviz version 2.43.0 (0)
 -->
<!-- Title: flow::net_flow::asio::Peer_socket::async_send Pages: 1 -->
<svg width="625pt" height="186pt"
 viewBox="0.00 0.00 625.00 186.00" xmlns="http://www.w3.org/2000/svg" xmlns:xlink="http://www.w3.org/1999/xlink">
<g id="graph0" class="graph" transform="scale(1 1) rotate(0) translate(4 182)">
<title>flow::net_flow::asio::Peer_socket::async_send</title>
<polygon fill="white" stroke="transparent" points="-4,4 -4,-182 621,-182 621,4 -4,4"/>
<!-- Node1 -->
<g id="node1" class="node">
<title>Node1</title>
<g id="a_node1"><a xlink:title="boost.asio&#45;style asynchronous version that essentially performs non&#45;nullptr_t net_flow::Peer_socket::...">
<polygon fill="#bfbfbf" stroke="black" points="0,-50.5 0,-76.5 125,-76.5 125,-50.5 0,-50.5"/>
<text text-anchor="start" x="8" y="-66.1" font-family="Helvetica,sans-Serif" font-size="8.00">flow::net_flow::asio</text>
<text text-anchor="middle" x="62.5" y="-57.1" font-family="Helvetica,sans-Serif" font-size="8.00">::Peer_socket::async_send</text>
</a>
</g>
</g>
<!-- Node2 -->
<g id="node2" class="node">
<title>Node2</title>
<g id="a_node2"><a xlink:href="classflow_1_1net__flow_1_1asio_1_1Peer__socket.html#ab6c48bcfc9cab0b42216443f39fa8a4b" target="_top" xlink:title="De&#45;templated implementation of all async_send() methods.">
<polygon fill="white" stroke="black" points="176,-100 176,-135 277,-135 277,-100 176,-100"/>
<text text-anchor="start" x="184" y="-124.6" font-family="Helvetica,sans-Serif" font-size="8.00">flow::net_flow::asio</text>
<text text-anchor="start" x="184" y="-115.6" font-family="Helvetica,sans-Serif" font-size="8.00">::Peer_socket::async</text>
<text text-anchor="middle" x="226.5" y="-106.6" font-family="Helvetica,sans-Serif" font-size="8.00">_send_impl</text>
</a>
</g>
</g>
<!-- Node1&#45;&gt;Node2 -->
<g id="edge1" class="edge">
<title>Node1&#45;&gt;Node2</title>
<path fill="none" stroke="midnightblue" d="M102.72,-76.57C121.8,-82.93 145.14,-90.71 166.33,-97.78"/>
<polygon fill="midnightblue" stroke="midnightblue" points="165.3,-101.12 175.89,-100.96 167.51,-94.48 165.3,-101.12"/>
</g>
<!-- Node9 -->
<g id="node9" class="node">
<title>Node9</title>
<g id="a_node9"><a xlink:href="namespaceflow_1_1util.html#a5488415feb5570a6551892a7bdfeeec4" target="_top" xlink:title="Helper that takes a non&#45;negative duration of arbitrary precision/period and converts it to Fine_durat...">
<polygon fill="white" stroke="black" points="171.5,-46 171.5,-81 281.5,-81 281.5,-46 171.5,-46"/>
<text text-anchor="start" x="179.5" y="-70.6" font-family="Helvetica,sans-Serif" font-size="8.00">flow::util::chrono</text>
<text text-anchor="start" x="179.5" y="-61.6" font-family="Helvetica,sans-Serif" font-size="8.00">_duration_from_now_to</text>
<text text-anchor="middle" x="226.5" y="-52.6" font-family="Helvetica,sans-Serif" font-size="8.00">_fine_time_pt</text>
</a>
</g>
</g>
<!-- Node1&#45;&gt;Node9 -->
<g id="edge8" class="edge">
<title>Node1&#45;&gt;Node9</title>
<path fill="none" stroke="midnightblue" d="M125.21,-63.5C136.96,-63.5 149.3,-63.5 161.13,-63.5"/>
<polygon fill="midnightblue" stroke="midnightblue" points="161.38,-67 171.38,-63.5 161.38,-60 161.38,-67"/>
</g>
<!-- Node10 -->
<g id="node10" class="node">
<title>Node10</title>
<g id="a_node10"><a xlink:href="classflow_1_1net__flow_1_1asio_1_1Peer__socket.html#aa727c33c3eeeb217d50fcd451096ded8" target="_top" xlink:title="Returns a functor that essentially performs post() on_result onto *async_task_engine() in a way suita...">
<polygon fill="white" stroke="black" points="161,-0.5 161,-26.5 292,-26.5 292,-0.5 161,-0.5"/>
<text text-anchor="start" x="169" y="-16.1" font-family="Helvetica,sans-Serif" font-size="8.00">flow::net_flow::asio</text>
<text text-anchor="middle" x="226.5" y="-7.1" font-family="Helvetica,sans-Serif" font-size="8.00">::Peer_socket::handler_func</text>
</a>
</g>
</g>
<!-- Node1&#45;&gt;Node10 -->
<g id="edge9" class="edge">
<title>Node1&#45;&gt;Node10</title>
<path fill="none" stroke="midnightblue" d="M105.64,-50.49C126.37,-44.1 151.55,-36.32 173.47,-29.56"/>
<polygon fill="midnightblue" stroke="midnightblue" points="174.77,-32.82 183.29,-26.53 172.7,-26.13 174.77,-32.82"/>
</g>
<!-- Node3 -->
<g id="node3" class="node">
<title>Node3</title>
<g id="a_node3"><a xlink:href="classflow_1_1net__flow_1_1asio_1_1Peer__socket.html#a0744682e2dc9118b4da3f00bc5267bec" target="_top" xlink:title="Convenience method that polymorphically casts from net_flow::Peer_socket::Ptr to subclass pointer net...">
<polygon fill="white" stroke="black" points="343,-151.5 343,-177.5 439,-177.5 439,-151.5 343,-151.5"/>
<text text-anchor="start" x="351" y="-167.1" font-family="Helvetica,sans-Serif" font-size="8.00">flow::net_flow::asio</text>
<text text-anchor="middle" x="391" y="-158.1" font-family="Helvetica,sans-Serif" font-size="8.00">::Peer_socket::cast</text>
</a>
</g>
</g>
<!-- Node2&#45;&gt;Node3 -->
<g id="edge2" class="edge">
<title>Node2&#45;&gt;Node3</title>
<path fill="none" stroke="midnightblue" d="M277.14,-131.86C295.5,-137.17 316.41,-143.22 335.2,-148.65"/>
<polygon fill="midnightblue" stroke="midnightblue" points="334.23,-152.01 344.81,-151.43 336.18,-145.29 334.23,-152.01"/>
</g>
<!-- Node4 -->
<g id="node4" class="node">
<title>Node4</title>
<g id="a_node4"><a xlink:href="classflow_1_1net__flow_1_1asio_1_1Peer__socket.html#aa9e96966c7a8f5d35a34c0f5b3f65eb6" target="_top" xlink:title="Helper that returns the net_flow::asio::Node that generated *this; unless *this is closed; in which c...">
<polygon fill="white" stroke="black" points="336,-97 336,-132 446,-132 446,-97 336,-97"/>
<text text-anchor="start" x="344" y="-121.6" font-family="Helvetica,sans-Serif" font-size="8.00">flow::net_flow::asio</text>
<text text-anchor="start" x="344" y="-112.6" font-family="Helvetica,sans-Serif" font-size="8.00">::Peer_socket::node_or</text>
<text text-anchor="middle" x="391" y="-103.6" font-family="Helvetica,sans-Serif" font-size="8.00">_post_error</text>
</a>
</g>
</g>
<!-- Node2&#45;&gt;Node4 -->
<g id="edge3" class="edge">
<title>Node2&#45;&gt;Node4</title>
<path fill="none" stroke="midnightblue" d="M277.14,-116.58C292.37,-116.3 309.37,-115.99 325.45,-115.69"/>
<polygon fill="midnightblue" stroke="midnightblue" points="325.92,-119.18 335.86,-115.5 325.8,-112.18 325.92,-119.18"/>
</g>
<!-- Node8 -->
<g id="node8" class="node">
<title>Node8</title>
<g id="a_node8"><a xlink:href="classflow_1_1net__flow_1_1asio_1_1Peer__socket.html#abac02ab0468161ea5ce431a2f53c4703" target="_top" xlink:title="Constructs object.">
<polygon fill="white" stroke="black" points="328,-51.5 328,-77.5 454,-77.5 454,-51.5 328,-51.5"/>
<text text-anchor="start" x="336" y="-67.1" font-family="Helvetica,sans-Serif" font-size="8.00">flow::net_flow::asio</text>
<text text-anchor="middle" x="391" y="-58.1" font-family="Helvetica,sans-Serif" font-size="8.00">::Peer_socket::Peer_socket</text>
</a>
</g>
</g>
<!-- Node2&#45;&gt;Node8 -->
<g id="edge7" class="edge">
<title>Node2&#45;&gt;Node8</title>
<path fill="none" stroke="midnightblue" d="M277.14,-101.31C297.19,-94.77 320.29,-87.24 340.34,-80.7"/>
<polygon fill="midnightblue" stroke="midnightblue" points="341.49,-84 349.92,-77.57 339.32,-77.35 341.49,-84"/>
</g>
<!-- Node5 -->
<g id="node5" class="node">
<title>Node5</title>
<g id="a_node5"><a xlink:href="classflow_1_1net__flow_1_1asio_1_1Peer__socket.html#a1c63aaece6a9b056688a35405f064c70" target="_top" xlink:title="Pointer (possibly null) for the flow::util::Task_engine used by any coming async_*() I/O calls.">
<polygon fill="white" stroke="black" points="503,-23 503,-58 604,-58 604,-23 503,-23"/>
<text text-anchor="start" x="511" y="-47.6" font-family="Helvetica,sans-Serif" font-size="8.00">flow::net_flow::asio</text>
<text text-anchor="start" x="511" y="-38.6" font-family="Helvetica,sans-Serif" font-size="8.00">::Peer_socket::async</text>
<text text-anchor="middle" x="553.5" y="-29.6" font-family="Helvetica,sans-Serif" font-size="8.00">_task_engine</text>
</a>
</g>
</g>
<!-- Node4&#45;&gt;Node5 -->
<g id="edge4" class="edge">
<title>Node4&#45;&gt;Node5</title>
<path fill="none" stroke="midnightblue" d="M432.78,-96.98C439.87,-93.87 447.16,-90.62 454,-87.5 471.29,-79.61 490.16,-70.69 506.71,-62.75"/>
<polygon fill="midnightblue" stroke="midnightblue" points="508.66,-65.7 516.15,-58.21 505.62,-59.39 508.66,-65.7"/>
</g>
<!-- Node6 -->
<g id="node6" class="node">
<title>Node6</title>
<g id="a_node6"><a xlink:href="classflow_1_1net__flow_1_1Peer__socket.html#a74f6fd527766fdeb05a96c5c03729a00" target="_top" xlink:title="The error code that perviously caused state() to become State::S_CLOSED, or success code if state is ...">
<polygon fill="white" stroke="black" points="490,-132.5 490,-158.5 617,-158.5 617,-132.5 490,-132.5"/>
<text text-anchor="start" x="498" y="-148.1" font-family="Helvetica,sans-Serif" font-size="8.00">flow::net_flow::Peer</text>
<text text-anchor="middle" x="553.5" y="-139.1" font-family="Helvetica,sans-Serif" font-size="8.00">_socket::disconnect_cause</text>
</a>
</g>
</g>
<!-- Node4&#45;&gt;Node6 -->
<g id="edge5" class="edge">
<title>Node4&#45;&gt;Node6</title>
<path fill="none" stroke="midnightblue" d="M446.34,-125C457.17,-127.09 468.71,-129.32 480.04,-131.5"/>
<polygon fill="midnightblue" stroke="midnightblue" points="479.43,-134.95 489.92,-133.41 480.76,-128.08 479.43,-134.95"/>
</g>
<!-- Node7 -->
<g id="node7" class="node">
<title>Node7</title>
<g id="a_node7"><a xlink:href="classflow_1_1net__flow_1_1Peer__socket.html#aa9e7e1be830c901bc7348742e79ba2e7" target="_top" xlink:title="Node that produced this Peer_socket.">
<polygon fill="white" stroke="black" points="505,-87.5 505,-113.5 602,-113.5 602,-87.5 505,-87.5"/>
<text text-anchor="start" x="513" y="-103.1" font-family="Helvetica,sans-Serif" font-size="8.00">flow::net_flow::Peer</text>
<text text-anchor="middle" x="553.5" y="-94.1" font-family="Helvetica,sans-Serif" font-size="8.00">_socket::node</text>
</a>
</g>
</g>
<!-- Node4&#45;&gt;Node7 -->
<g id="edge6" class="edge">
<title>Node4&#45;&gt;Node7</title>
<path fill="none" stroke="midnightblue" d="M446.34,-109.76C461.93,-108.4 478.98,-106.91 494.77,-105.54"/>
<polygon fill="midnightblue" stroke="midnightblue" points="495.28,-109 504.94,-104.65 494.67,-102.03 495.28,-109"/>
</g>
<!-- Node10&#45;&gt;Node5 -->
<g id="edge10" class="edge">
<title>Node10&#45;&gt;Node5</title>
<path fill="none" stroke="midnightblue" d="M292.1,-18.87C350.48,-23.72 435.74,-30.8 492.61,-35.52"/>
<polygon fill="midnightblue" stroke="midnightblue" points="492.63,-39.04 502.89,-36.38 493.21,-32.06 492.63,-39.04"/>
</g>
</g>
</svg>
