<?xml version="1.0" encoding="UTF-8" standalone="no"?>
<!DOCTYPE svg PUBLIC "-//W3C//DTD SVG 1.1//EN"
 "http://www.w3.org/Graphics/SVG/1.1/DTD/svg11.dtd">
<!-- Generated by graphviz version 2.43.0 (0)
 -->
<!-- Title: flow::net_flow::Node::event_set_close_worker Pages: 1 -->
<svg width="264pt" height="35pt"
 viewBox="0.00 0.00 264.00 35.00" xmlns="http://www.w3.org/2000/svg" xmlns:xlink="http://www.w3.org/1999/xlink">
<g id="graph0" class="graph" transform="scale(1 1) rotate(0) translate(4 31)">
<title>flow::net_flow::Node::event_set_close_worker</title>
<polygon fill="white" stroke="transparent" points="-4,4 -4,-31 260,-31 260,4 -4,4"/>
<!-- Node1 -->
<g id="node1" class="node">
<title>Node1</title>
<g id="a_node1"><a xlink:title="The guts of event_set_close_worker_check_state(): same thing, but assumes Event_set::state() == Event...">
<polygon fill="#bfbfbf" stroke="black" points="137,-0.5 137,-26.5 256,-26.5 256,-0.5 137,-0.5"/>
<text text-anchor="start" x="145" y="-16.1" font-family="Helvetica,sans-Serif" font-size="8.00">flow::net_flow::Node</text>
<text text-anchor="middle" x="196.5" y="-7.1" font-family="Helvetica,sans-Serif" font-size="8.00">::event_set_close_worker</text>
</a>
</g>
</g>
<!-- Node2 -->
<g id="node2" class="node">
<title>Node2</title>
<g id="a_node2"><a xlink:href="classflow_1_1net__flow_1_1Node.html#a5b056ed753b832458f44f537acfe86d7" target="_top" xlink:title="Worker thread W (main event loop) body.">
<polygon fill="white" stroke="black" points="0,-0.5 0,-26.5 101,-26.5 101,-0.5 0,-0.5"/>
<text text-anchor="start" x="8" y="-16.1" font-family="Helvetica,sans-Serif" font-size="8.00">flow::net_flow::Node</text>
<text text-anchor="middle" x="50.5" y="-7.1" font-family="Helvetica,sans-Serif" font-size="8.00">::worker_run</text>
</a>
</g>
</g>
<!-- Node1&#45;&gt;Node2 -->
<g id="edge1" class="edge">
<title>Node1&#45;&gt;Node2</title>
<path fill="none" stroke="midnightblue" d="M126.85,-13.5C118.22,-13.5 109.52,-13.5 101.26,-13.5"/>
<polygon fill="midnightblue" stroke="midnightblue" points="126.93,-17 136.93,-13.5 126.93,-10 126.93,-17"/>
</g>
</g>
</svg>
