<?xml version="1.0" encoding="UTF-8" standalone="no"?>
<!DOCTYPE svg PUBLIC "-//W3C//DTD SVG 1.1//EN"
 "http://www.w3.org/Graphics/SVG/1.1/DTD/svg11.dtd">
<!-- Generated by graphviz version 2.43.0 (0)
 -->
<!-- Title: flow::net_flow::Node::log_snd_window Pages: 1 -->
<svg width="1368pt" height="511pt"
 viewBox="0.00 0.00 1368.00 511.00" xmlns="http://www.w3.org/2000/svg" xmlns:xlink="http://www.w3.org/1999/xlink">
<g id="graph0" class="graph" transform="scale(1 1) rotate(0) translate(4 507)">
<title>flow::net_flow::Node::log_snd_window</title>
<polygon fill="white" stroke="transparent" points="-4,4 -4,-507 1364,-507 1364,4 -4,4"/>
<!-- Node1 -->
<g id="node1" class="node">
<title>Node1</title>
<g id="a_node1"><a xlink:title="Logs TRACE or DATA messages thats show the detailed state of the sending sequence number space.">
<polygon fill="#bfbfbf" stroke="black" points="1259,-117.5 1259,-143.5 1360,-143.5 1360,-117.5 1259,-117.5"/>
<text text-anchor="start" x="1267" y="-133.1" font-family="Helvetica,sans-Serif" font-size="8.00">flow::net_flow::Node</text>
<text text-anchor="middle" x="1309.5" y="-124.1" font-family="Helvetica,sans-Serif" font-size="8.00">::log_snd_window</text>
</a>
</g>
</g>
<!-- Node2 -->
<g id="node2" class="node">
<title>Node2</title>
<g id="a_node2"><a xlink:href="classflow_1_1net__flow_1_1Node.html#a755c329b9e0f2b8edb2e5b900bd2a337" target="_top" xlink:title="Logs a verbose state report for the given socket.">
<polygon fill="white" stroke="black" points="1122,-117.5 1122,-143.5 1223,-143.5 1223,-117.5 1122,-117.5"/>
<text text-anchor="start" x="1130" y="-133.1" font-family="Helvetica,sans-Serif" font-size="8.00">flow::net_flow::Node</text>
<text text-anchor="middle" x="1172.5" y="-124.1" font-family="Helvetica,sans-Serif" font-size="8.00">::sock_log_detail</text>
</a>
</g>
</g>
<!-- Node1&#45;&gt;Node2 -->
<g id="edge1" class="edge">
<title>Node1&#45;&gt;Node2</title>
<path fill="none" stroke="midnightblue" d="M1248.79,-130.5C1240.33,-130.5 1231.7,-130.5 1223.45,-130.5"/>
<polygon fill="midnightblue" stroke="midnightblue" points="1249,-134 1259,-130.5 1249,-127 1249,-134"/>
</g>
<!-- Node3 -->
<g id="node3" class="node">
<title>Node3</title>
<g id="a_node3"><a xlink:href="classflow_1_1net__flow_1_1Node.html#ade49e7bc7202a0adf33fec2d93d1b177" target="_top" xlink:title="A thread W method that handles the transition of the given socket from OPEN (any sub&#45;state) to CLOSED...">
<polygon fill="white" stroke="black" points="932,-159.5 932,-185.5 1080,-185.5 1080,-159.5 932,-159.5"/>
<text text-anchor="start" x="940" y="-175.1" font-family="Helvetica,sans-Serif" font-size="8.00">flow::net_flow::Node</text>
<text text-anchor="middle" x="1006" y="-166.1" font-family="Helvetica,sans-Serif" font-size="8.00">::close_connection_immediately</text>
</a>
</g>
</g>
<!-- Node2&#45;&gt;Node3 -->
<g id="edge2" class="edge">
<title>Node2&#45;&gt;Node3</title>
<path fill="none" stroke="midnightblue" d="M1111.56,-145.8C1094.01,-150.28 1075,-155.14 1058.05,-159.46"/>
<polygon fill="midnightblue" stroke="midnightblue" points="1112.87,-149.08 1121.7,-143.22 1111.14,-142.3 1112.87,-149.08"/>
</g>
<!-- Node46 -->
<g id="node21" class="node">
<title>Node46</title>
<g id="a_node21"><a xlink:href="classflow_1_1net__flow_1_1Node.html#aee8466d9c810da5edea443d665b24dcb" target="_top" xlink:title="Performs low&#45;priority tasks that should be run on an infrequent, regular basis, such as stat logging ...">
<polygon fill="white" stroke="black" points="926,-86.5 926,-112.5 1086,-112.5 1086,-86.5 926,-86.5"/>
<text text-anchor="start" x="934" y="-102.1" font-family="Helvetica,sans-Serif" font-size="8.00">flow::net_flow::Node</text>
<text text-anchor="middle" x="1006" y="-93.1" font-family="Helvetica,sans-Serif" font-size="8.00">::perform_regular_infrequent_tasks</text>
</a>
</g>
</g>
<!-- Node2&#45;&gt;Node46 -->
<g id="edge25" class="edge">
<title>Node2&#45;&gt;Node46</title>
<path fill="none" stroke="midnightblue" d="M1111.71,-119.23C1100.13,-117.05 1087.91,-114.75 1076.06,-112.51"/>
<polygon fill="midnightblue" stroke="midnightblue" points="1111.22,-122.7 1121.7,-121.11 1112.52,-115.82 1111.22,-122.7"/>
</g>
<!-- Node4 -->
<g id="node4" class="node">
<title>Node4</title>
<g id="a_node4"><a xlink:href="classflow_1_1net__flow_1_1Node.html#aa5f7c019665d9dd91af0ad6431f8f97d" target="_top" xlink:title="Similar to async_sock_low_lvl_packet_send_paced() except it also calls close_connection_immediately(s...">
<polygon fill="white" stroke="black" points="771,-324.5 771,-368.5 881,-368.5 881,-324.5 771,-324.5"/>
<text text-anchor="start" x="779" y="-358.1" font-family="Helvetica,sans-Serif" font-size="8.00">flow::net_flow::Node</text>
<text text-anchor="start" x="779" y="-349.1" font-family="Helvetica,sans-Serif" font-size="8.00">::async_sock_low_lvl</text>
<text text-anchor="start" x="779" y="-340.1" font-family="Helvetica,sans-Serif" font-size="8.00">_packet_send_or_close</text>
<text text-anchor="middle" x="826" y="-331.1" font-family="Helvetica,sans-Serif" font-size="8.00">_immediately</text>
</a>
</g>
</g>
<!-- Node3&#45;&gt;Node4 -->
<g id="edge3" class="edge">
<title>Node3&#45;&gt;Node4</title>
<path fill="none" stroke="midnightblue" d="M984.18,-192.85C950.49,-225.79 884.3,-290.49 849.54,-324.47"/>
<polygon fill="midnightblue" stroke="midnightblue" points="986.92,-195.07 991.62,-185.58 982.02,-190.07 986.92,-195.07"/>
</g>
<!-- Node28 -->
<g id="node10" class="node">
<title>Node28</title>
<g id="a_node10"><a xlink:href="classflow_1_1net__flow_1_1Node.html#a1699dfdaf3e5ebe1b1d715a9c306d116" target="_top" xlink:title="Handles a just&#45;received, not&#45;yet&#45;deserialized low&#45;level packet.">
<polygon fill="white" stroke="black" points="298,-151.5 298,-177.5 399,-177.5 399,-151.5 298,-151.5"/>
<text text-anchor="start" x="306" y="-167.1" font-family="Helvetica,sans-Serif" font-size="8.00">flow::net_flow::Node</text>
<text text-anchor="middle" x="348.5" y="-158.1" font-family="Helvetica,sans-Serif" font-size="8.00">::handle_incoming</text>
</a>
</g>
</g>
<!-- Node3&#45;&gt;Node28 -->
<g id="edge10" class="edge">
<title>Node3&#45;&gt;Node28</title>
<path fill="none" stroke="midnightblue" d="M964.88,-189.26C943.14,-197.44 915.56,-206.39 890,-210.5 752.22,-232.67 714.86,-224.46 576,-210.5 514.32,-204.3 444.59,-188.83 398.99,-177.54"/>
<polygon fill="midnightblue" stroke="midnightblue" points="966.36,-192.44 974.43,-185.57 963.84,-185.91 966.36,-192.44"/>
</g>
<!-- Node34 -->
<g id="node13" class="node">
<title>Node34</title>
<g id="a_node13"><a xlink:href="classflow_1_1net__flow_1_1Node.html#ad608f9bbe76426f4fbf4bf5af908e4e0" target="_top" xlink:title="Placed by receive() onto W during a graceful close, after the Receive buffer had been emptied by the ...">
<polygon fill="white" stroke="black" points="765.5,-166 765.5,-201 886.5,-201 886.5,-166 765.5,-166"/>
<text text-anchor="start" x="773.5" y="-190.6" font-family="Helvetica,sans-Serif" font-size="8.00">flow::net_flow::Node</text>
<text text-anchor="start" x="773.5" y="-181.6" font-family="Helvetica,sans-Serif" font-size="8.00">::receive_emptied_rcv</text>
<text text-anchor="middle" x="826" y="-172.6" font-family="Helvetica,sans-Serif" font-size="8.00">_buf_while_disconnecting</text>
</a>
</g>
</g>
<!-- Node3&#45;&gt;Node34 -->
<g id="edge15" class="edge">
<title>Node3&#45;&gt;Node34</title>
<path fill="none" stroke="midnightblue" d="M921.52,-177.66C909.73,-178.39 897.81,-179.12 886.59,-179.82"/>
<polygon fill="midnightblue" stroke="midnightblue" points="922.06,-181.13 931.83,-177.02 921.63,-174.15 922.06,-181.13"/>
</g>
<!-- Node35 -->
<g id="node15" class="node">
<title>Node35</title>
<g id="a_node15"><a xlink:href="classflow_1_1net__flow_1_1Node.html#afe70a0c32695e417e7a09e0ba773f151" target="_top" xlink:title="Asynchronously send RST to the other side of the given socket and close_connection_immediately().">
<polygon fill="white" stroke="black" points="762,-112 762,-147 890,-147 890,-112 762,-112"/>
<text text-anchor="start" x="770" y="-136.6" font-family="Helvetica,sans-Serif" font-size="8.00">flow::net_flow::Node</text>
<text text-anchor="start" x="770" y="-127.6" font-family="Helvetica,sans-Serif" font-size="8.00">::rst_and_close_connection</text>
<text text-anchor="middle" x="826" y="-118.6" font-family="Helvetica,sans-Serif" font-size="8.00">_immediately</text>
</a>
</g>
</g>
<!-- Node3&#45;&gt;Node35 -->
<g id="edge17" class="edge">
<title>Node3&#45;&gt;Node35</title>
<path fill="none" stroke="midnightblue" d="M940.98,-157.04C924.42,-153.03 906.6,-148.73 890.09,-144.74"/>
<polygon fill="midnightblue" stroke="midnightblue" points="940.57,-160.54 951.11,-159.48 942.21,-153.73 940.57,-160.54"/>
</g>
<!-- Node33 -->
<g id="node20" class="node">
<title>Node33</title>
<g id="a_node20"><a xlink:href="classflow_1_1net__flow_1_1Node.html#a5b056ed753b832458f44f537acfe86d7" target="_top" xlink:title="Worker thread W (main event loop) body.">
<polygon fill="white" stroke="black" points="775.5,-66.5 775.5,-92.5 876.5,-92.5 876.5,-66.5 775.5,-66.5"/>
<text text-anchor="start" x="783.5" y="-82.1" font-family="Helvetica,sans-Serif" font-size="8.00">flow::net_flow::Node</text>
<text text-anchor="middle" x="826" y="-73.1" font-family="Helvetica,sans-Serif" font-size="8.00">::worker_run</text>
</a>
</g>
</g>
<!-- Node3&#45;&gt;Node33 -->
<g id="edge24" class="edge">
<title>Node3&#45;&gt;Node33</title>
<path fill="none" stroke="midnightblue" d="M955.57,-155.47C945.39,-150.98 935.03,-145.65 926,-139.5 907.03,-126.59 909.26,-114.97 890,-102.5 884.14,-98.7 877.56,-95.42 870.93,-92.63"/>
<polygon fill="midnightblue" stroke="midnightblue" points="954.25,-158.71 964.82,-159.35 956.95,-152.25 954.25,-158.71"/>
</g>
<!-- Node5 -->
<g id="node5" class="node">
<title>Node5</title>
<g id="a_node5"><a xlink:href="classflow_1_1net__flow_1_1Node.html#a81e50276d0b162f6577adc690e0ef9e0" target="_top" xlink:title="Sends a low&#45;level ACK packet, with all accumulated in Peer_socket::m_rcv_pending_acks of sock individ...">
<polygon fill="white" stroke="black" points="591.5,-476.5 591.5,-502.5 710.5,-502.5 710.5,-476.5 591.5,-476.5"/>
<text text-anchor="start" x="599.5" y="-492.1" font-family="Helvetica,sans-Serif" font-size="8.00">flow::net_flow::Node</text>
<text text-anchor="middle" x="651" y="-483.1" font-family="Helvetica,sans-Serif" font-size="8.00">::async_low_lvl_ack_send</text>
</a>
</g>
</g>
<!-- Node4&#45;&gt;Node5 -->
<g id="edge4" class="edge">
<title>Node4&#45;&gt;Node5</title>
<path fill="none" stroke="midnightblue" d="M806.7,-377.62C789.21,-404.79 760.45,-443.37 726,-466.5 720.19,-470.4 713.69,-473.66 707.02,-476.39"/>
<polygon fill="midnightblue" stroke="midnightblue" points="809.83,-379.22 812.19,-368.89 803.9,-375.49 809.83,-379.22"/>
</g>
<!-- Node6 -->
<g id="node6" class="node">
<title>Node6</title>
<g id="a_node6"><a xlink:href="classflow_1_1net__flow_1_1Node.html#acaf55766783893827061fd85cab2634f" target="_top" xlink:title="Helper to create, fully fill out, and asynchronously send via async_sock_low_lvl_packet_send_or_close...">
<polygon fill="white" stroke="black" points="576,-422 576,-457 726,-457 726,-422 576,-422"/>
<text text-anchor="start" x="584" y="-446.6" font-family="Helvetica,sans-Serif" font-size="8.00">flow::net_flow::Node</text>
<text text-anchor="start" x="584" y="-437.6" font-family="Helvetica,sans-Serif" font-size="8.00">::async_low_lvl_syn_ack</text>
<text text-anchor="middle" x="651" y="-428.6" font-family="Helvetica,sans-Serif" font-size="8.00">_ack_send_or_close_immediately</text>
</a>
</g>
</g>
<!-- Node4&#45;&gt;Node6 -->
<g id="edge5" class="edge">
<title>Node4&#45;&gt;Node6</title>
<path fill="none" stroke="midnightblue" d="M787.34,-374.69C769.38,-387.32 747.22,-401.75 726,-412.5 719.29,-415.9 712.05,-419.08 704.81,-421.99"/>
<polygon fill="midnightblue" stroke="midnightblue" points="789.69,-377.31 795.8,-368.66 785.63,-371.61 789.69,-377.31"/>
</g>
<!-- Node7 -->
<g id="node7" class="node">
<title>Node7</title>
<g id="a_node7"><a xlink:href="classflow_1_1net__flow_1_1Node.html#a192d4b95b9f8a5c3d08b1e5486eb6f78" target="_top" xlink:title="receive_wnd_updated() helper that continues rcv_wnd recovery: that is, sends unsolicited ACK with a r...">
<polygon fill="white" stroke="red" points="590,-358.5 590,-384.5 712,-384.5 712,-358.5 590,-358.5"/>
<text text-anchor="start" x="598" y="-374.1" font-family="Helvetica,sans-Serif" font-size="8.00">flow::net_flow::Node</text>
<text text-anchor="middle" x="651" y="-365.1" font-family="Helvetica,sans-Serif" font-size="8.00">::async_rcv_wnd_recovery</text>
</a>
</g>
</g>
<!-- Node4&#45;&gt;Node7 -->
<g id="edge6" class="edge">
<title>Node4&#45;&gt;Node7</title>
<path fill="none" stroke="midnightblue" d="M760.49,-355.82C744.64,-358.11 727.72,-360.56 712.09,-362.82"/>
<polygon fill="midnightblue" stroke="midnightblue" points="761.34,-359.24 770.74,-354.34 760.34,-352.31 761.34,-359.24"/>
</g>
<!-- Node17 -->
<g id="node8" class="node">
<title>Node17</title>
<g id="a_node8"><a xlink:href="classflow_1_1net__flow_1_1Node.html#addd654cb6b1ccff34ddccbe5226be8f0" target="_top" xlink:title="Handles the triggering of the retransmit timer wait set up by setup_connection_timers(); it will re&#45;s...">
<polygon fill="white" stroke="black" points="586.5,-304 586.5,-339 715.5,-339 715.5,-304 586.5,-304"/>
<text text-anchor="start" x="594.5" y="-328.6" font-family="Helvetica,sans-Serif" font-size="8.00">flow::net_flow::Node</text>
<text text-anchor="start" x="594.5" y="-319.6" font-family="Helvetica,sans-Serif" font-size="8.00">::handle_connection_rexmit</text>
<text text-anchor="middle" x="651" y="-310.6" font-family="Helvetica,sans-Serif" font-size="8.00">_timer_event</text>
</a>
</g>
</g>
<!-- Node4&#45;&gt;Node17 -->
<g id="edge8" class="edge">
<title>Node4&#45;&gt;Node17</title>
<path fill="none" stroke="midnightblue" d="M760.73,-337.21C746.04,-335.09 730.43,-332.83 715.76,-330.71"/>
<polygon fill="midnightblue" stroke="midnightblue" points="760.34,-340.69 770.74,-338.66 761.34,-333.76 760.34,-340.69"/>
</g>
<!-- Node18 -->
<g id="node9" class="node">
<title>Node18</title>
<g id="a_node9"><a xlink:href="classflow_1_1net__flow_1_1Node.html#a10a92f11a2c9f218cdd9a55f282e79b1" target="_top" xlink:title="Thread W implemention of send(): synchronously or asynchronously send the contents of sock&#45;&gt;m_snd_buf...">
<polygon fill="white" stroke="red" points="600.5,-258.5 600.5,-284.5 701.5,-284.5 701.5,-258.5 600.5,-258.5"/>
<text text-anchor="start" x="608.5" y="-274.1" font-family="Helvetica,sans-Serif" font-size="8.00">flow::net_flow::Node</text>
<text text-anchor="middle" x="651" y="-265.1" font-family="Helvetica,sans-Serif" font-size="8.00">::send_worker</text>
</a>
</g>
</g>
<!-- Node4&#45;&gt;Node18 -->
<g id="edge9" class="edge">
<title>Node4&#45;&gt;Node18</title>
<path fill="none" stroke="midnightblue" d="M777.57,-319.34C761.5,-310.75 743.24,-301.64 726,-294.5 717.3,-290.9 707.82,-287.55 698.65,-284.58"/>
<polygon fill="midnightblue" stroke="midnightblue" points="776.3,-322.63 786.76,-324.32 779.64,-316.48 776.3,-322.63"/>
</g>
<!-- Node7&#45;&gt;Node7 -->
<g id="edge7" class="edge">
<title>Node7&#45;&gt;Node7</title>
<path fill="none" stroke="midnightblue" d="M680.39,-394.58C677.41,-399.47 667.61,-403 651,-403 624.42,-403 615.29,-393.96 623.59,-384.77"/>
<polygon fill="midnightblue" stroke="midnightblue" points="683.82,-393.88 678.41,-384.77 676.96,-395.27 683.82,-393.88"/>
</g>
<!-- Node29 -->
<g id="node11" class="node">
<title>Node29</title>
<g id="a_node11"><a xlink:href="classflow_1_1net__flow_1_1Node.html#a4368247d07e930bdd07ab8d2425c6de8" target="_top" xlink:title="Sets up handle_incoming(packet_data, low_lvl_remote_endpoint) to be called asynchronously after a spe...">
<polygon fill="white" stroke="black" points="149,-170 149,-205 262,-205 262,-170 149,-170"/>
<text text-anchor="start" x="157" y="-194.6" font-family="Helvetica,sans-Serif" font-size="8.00">flow::net_flow::Node</text>
<text text-anchor="start" x="157" y="-185.6" font-family="Helvetica,sans-Serif" font-size="8.00">::async_wait_latency</text>
<text text-anchor="middle" x="205.5" y="-176.6" font-family="Helvetica,sans-Serif" font-size="8.00">_then_handle_incoming</text>
</a>
</g>
</g>
<!-- Node28&#45;&gt;Node29 -->
<g id="edge11" class="edge">
<title>Node28&#45;&gt;Node29</title>
<path fill="none" stroke="midnightblue" d="M287.86,-174.23C279.29,-175.63 270.49,-177.06 262.01,-178.45"/>
<polygon fill="midnightblue" stroke="midnightblue" points="288.48,-177.67 297.79,-172.61 287.36,-170.76 288.48,-177.67"/>
</g>
<!-- Node30 -->
<g id="node12" class="node">
<title>Node30</title>
<g id="a_node12"><a xlink:href="classflow_1_1net__flow_1_1Node.html#a90ecbad1ff3a8d2fe4b3ad1c474f7513" target="_top" xlink:title="Helper for low_lvl_recv_and_handle() that calls handle_incoming() on the not&#45;yet&#45;deserialized low&#45;lev...">
<polygon fill="white" stroke="red" points="0,-147 0,-182 113,-182 113,-147 0,-147"/>
<text text-anchor="start" x="8" y="-171.6" font-family="Helvetica,sans-Serif" font-size="8.00">flow::net_flow::Node</text>
<text text-anchor="start" x="8" y="-162.6" font-family="Helvetica,sans-Serif" font-size="8.00">::handle_incoming_with</text>
<text text-anchor="middle" x="56.5" y="-153.6" font-family="Helvetica,sans-Serif" font-size="8.00">_simulation</text>
</a>
</g>
</g>
<!-- Node28&#45;&gt;Node30 -->
<g id="edge14" class="edge">
<title>Node28&#45;&gt;Node30</title>
<path fill="none" stroke="midnightblue" d="M287.75,-161.35C279.11,-161 270.33,-160.69 262,-160.5 211.79,-159.33 199.21,-159.4 149,-160.5 137.4,-160.75 124.97,-161.19 113.13,-161.68"/>
<polygon fill="midnightblue" stroke="midnightblue" points="287.64,-164.85 297.78,-161.78 287.94,-157.85 287.64,-164.85"/>
</g>
<!-- Node29&#45;&gt;Node30 -->
<g id="edge12" class="edge">
<title>Node29&#45;&gt;Node30</title>
<path fill="none" stroke="midnightblue" d="M138.92,-177.24C130.32,-175.89 121.57,-174.52 113.15,-173.21"/>
<polygon fill="midnightblue" stroke="midnightblue" points="138.5,-180.72 148.93,-178.8 139.59,-173.8 138.5,-180.72"/>
</g>
<!-- Node30&#45;&gt;Node30 -->
<g id="edge13" class="edge">
<title>Node30&#45;&gt;Node30</title>
<path fill="none" stroke="midnightblue" d="M82.27,-192.6C78.65,-197.27 70.06,-200.5 56.5,-200.5 34.24,-200.5 25.37,-191.81 29.89,-182.28"/>
<polygon fill="midnightblue" stroke="midnightblue" points="85.79,-192.53 83.11,-182.28 78.81,-191.97 85.79,-192.53"/>
</g>
<!-- Node9 -->
<g id="node14" class="node">
<title>Node9</title>
<g id="a_node14"><a xlink:href="classflow_1_1net__flow_1_1Node.html#addbb96858fd7b3c9ddd7c6fe8078809c" target="_top" xlink:title="Implementation of non&#45;blocking sock&#45;&gt;receive() for socket sock in all cases except when sock&#45;&gt;state()...">
<polygon fill="white" stroke="red" points="600.5,-174.5 600.5,-200.5 701.5,-200.5 701.5,-174.5 600.5,-174.5"/>
<text text-anchor="start" x="608.5" y="-190.1" font-family="Helvetica,sans-Serif" font-size="8.00">flow::net_flow::Node</text>
<text text-anchor="middle" x="651" y="-181.1" font-family="Helvetica,sans-Serif" font-size="8.00">::receive</text>
</a>
</g>
</g>
<!-- Node34&#45;&gt;Node9 -->
<g id="edge16" class="edge">
<title>Node34&#45;&gt;Node9</title>
<path fill="none" stroke="midnightblue" d="M755.31,-185.11C737.32,-185.53 718.32,-185.97 701.59,-186.35"/>
<polygon fill="midnightblue" stroke="midnightblue" points="755.55,-188.61 765.46,-184.88 755.38,-181.61 755.55,-188.61"/>
</g>
<!-- Node36 -->
<g id="node16" class="node">
<title>Node36</title>
<g id="a_node16"><a xlink:href="classflow_1_1net__flow_1_1Node.html#a6461124e5bc3e59083e172e26029e632" target="_top" xlink:title="Implementation of non&#45;blocking sock&#45;&gt;close_abruptly() for socket sock in all cases except when sock&#45;&gt;...">
<polygon fill="white" stroke="red" points="600.5,-129.5 600.5,-155.5 701.5,-155.5 701.5,-129.5 600.5,-129.5"/>
<text text-anchor="start" x="608.5" y="-145.1" font-family="Helvetica,sans-Serif" font-size="8.00">flow::net_flow::Node</text>
<text text-anchor="middle" x="651" y="-136.1" font-family="Helvetica,sans-Serif" font-size="8.00">::close_abruptly</text>
</a>
</g>
</g>
<!-- Node35&#45;&gt;Node36 -->
<g id="edge18" class="edge">
<title>Node35&#45;&gt;Node36</title>
<path fill="none" stroke="midnightblue" d="M751.24,-135.04C734.49,-136.3 717.08,-137.61 701.61,-138.77"/>
<polygon fill="midnightblue" stroke="midnightblue" points="751.85,-138.51 761.56,-134.27 751.33,-131.53 751.85,-138.51"/>
</g>
<!-- Node38 -->
<g id="node17" class="node">
<title>Node38</title>
<g id="a_node17"><a xlink:href="classflow_1_1net__flow_1_1Node.html#a29d02f9e302c7b06288ff1c644fa8d65" target="_top" xlink:title="Handles a just&#45;deserialized, just&#45;demultiplexed low&#45;level SYN_ACK_ACK packet delivered to the given p...">
<polygon fill="white" stroke="black" points="435,-83 435,-118 540,-118 540,-83 435,-83"/>
<text text-anchor="start" x="443" y="-107.6" font-family="Helvetica,sans-Serif" font-size="8.00">flow::net_flow::Node</text>
<text text-anchor="start" x="443" y="-98.6" font-family="Helvetica,sans-Serif" font-size="8.00">::handle_syn_ack_ack</text>
<text text-anchor="middle" x="487.5" y="-89.6" font-family="Helvetica,sans-Serif" font-size="8.00">_to_syn_rcvd</text>
</a>
</g>
</g>
<!-- Node35&#45;&gt;Node38 -->
<g id="edge19" class="edge">
<title>Node35&#45;&gt;Node38</title>
<path fill="none" stroke="midnightblue" d="M751.77,-121.93C743.09,-121.08 734.35,-120.26 726,-119.5 662.15,-113.72 588.55,-107.98 540.42,-104.34"/>
<polygon fill="midnightblue" stroke="midnightblue" points="751.61,-125.43 761.91,-122.93 752.3,-118.47 751.61,-125.43"/>
</g>
<!-- Node39 -->
<g id="node18" class="node">
<title>Node39</title>
<g id="a_node18"><a xlink:href="classflow_1_1net__flow_1_1Node.html#ab427ebc124a6233ae48a7562662a6e81" target="_top" xlink:title="Creates a new Drop Timer and saves it to sock&#45;&gt;m_snd_drop_timer.">
<polygon fill="white" stroke="black" points="600.5,-45.5 600.5,-71.5 701.5,-71.5 701.5,-45.5 600.5,-45.5"/>
<text text-anchor="start" x="608.5" y="-61.1" font-family="Helvetica,sans-Serif" font-size="8.00">flow::net_flow::Node</text>
<text text-anchor="middle" x="651" y="-52.1" font-family="Helvetica,sans-Serif" font-size="8.00">::setup_drop_timer</text>
</a>
</g>
</g>
<!-- Node35&#45;&gt;Node39 -->
<g id="edge21" class="edge">
<title>Node35&#45;&gt;Node39</title>
<path fill="none" stroke="midnightblue" d="M776.5,-107.88C760.49,-100.89 742.55,-93.22 726,-86.5 713.53,-81.44 699.76,-76.14 687.52,-71.54"/>
<polygon fill="midnightblue" stroke="midnightblue" points="775.12,-111.1 785.68,-111.91 777.93,-104.69 775.12,-111.1"/>
</g>
<!-- Node40 -->
<g id="node19" class="node">
<title>Node40</title>
<g id="a_node19"><a xlink:href="classflow_1_1net__flow_1_1Node.html#a3fd57a0d025a78cbeccfd8a15a983575" target="_top" xlink:title="async_sock_low_lvl_packet_send_paced() pacing helper: If sock_pacing_process_q() ran out of the last ...">
<polygon fill="white" stroke="red" points="582.5,-0.5 582.5,-26.5 719.5,-26.5 719.5,-0.5 582.5,-0.5"/>
<text text-anchor="start" x="590.5" y="-16.1" font-family="Helvetica,sans-Serif" font-size="8.00">flow::net_flow::Node</text>
<text text-anchor="middle" x="651" y="-7.1" font-family="Helvetica,sans-Serif" font-size="8.00">::sock_pacing_time_slice_end</text>
</a>
</g>
</g>
<!-- Node35&#45;&gt;Node40 -->
<g id="edge23" class="edge">
<title>Node35&#45;&gt;Node40</title>
<path fill="none" stroke="midnightblue" d="M768,-106.44C765.9,-104.88 763.89,-103.24 762,-101.5 737.43,-78.85 751.98,-56.52 726,-35.5 721.73,-32.04 716.93,-29.13 711.87,-26.67"/>
<polygon fill="midnightblue" stroke="midnightblue" points="766.21,-109.45 776.5,-111.98 770.04,-103.59 766.21,-109.45"/>
</g>
<!-- Node38&#45;&gt;Node28 -->
<g id="edge20" class="edge">
<title>Node38&#45;&gt;Node28</title>
<path fill="none" stroke="midnightblue" d="M439.48,-122.47C418.89,-132.09 395.42,-143.05 377.61,-151.37"/>
<polygon fill="midnightblue" stroke="midnightblue" points="441.12,-125.56 448.7,-118.16 438.16,-119.22 441.12,-125.56"/>
</g>
<!-- Node39&#45;&gt;Node38 -->
<g id="edge22" class="edge">
<title>Node39&#45;&gt;Node38</title>
<path fill="none" stroke="midnightblue" d="M590.17,-74.06C573.71,-78.34 556.01,-82.94 540.06,-87.09"/>
<polygon fill="midnightblue" stroke="midnightblue" points="591.43,-77.35 600.23,-71.44 589.67,-70.57 591.43,-77.35"/>
</g>
<!-- Node46&#45;&gt;Node33 -->
<g id="edge27" class="edge">
<title>Node46&#45;&gt;Node33</title>
<path fill="none" stroke="midnightblue" d="M915.67,-89.46C902.28,-87.96 888.89,-86.45 876.73,-85.09"/>
<polygon fill="midnightblue" stroke="midnightblue" points="915.56,-92.97 925.89,-90.61 916.34,-86.02 915.56,-92.97"/>
</g>
<!-- Node46&#45;&gt;Node46 -->
<g id="edge26" class="edge">
<title>Node46&#45;&gt;Node46</title>
<path fill="none" stroke="midnightblue" d="M1036.12,-122.58C1033.06,-127.47 1023.02,-131 1006,-131 978.77,-131 969.4,-121.96 977.91,-112.77"/>
<polygon fill="midnightblue" stroke="midnightblue" points="1039.54,-121.85 1034.09,-112.77 1032.69,-123.27 1039.54,-121.85"/>
</g>
</g>
</svg>
