<?xml version="1.0" encoding="UTF-8" standalone="no"?>
<!DOCTYPE svg PUBLIC "-//W3C//DTD SVG 1.1//EN"
 "http://www.w3.org/Graphics/SVG/1.1/DTD/svg11.dtd">
<!-- Generated by graphviz version 2.43.0 (0)
 -->
<!-- Title: flow::net_flow::Peer_socket::rexmit_on Pages: 1 -->
<svg width="1380pt" height="441pt"
 viewBox="0.00 0.00 1380.00 440.50" xmlns="http://www.w3.org/2000/svg" xmlns:xlink="http://www.w3.org/1999/xlink">
<g id="graph0" class="graph" transform="scale(1 1) rotate(0) translate(4 436.5)">
<title>flow::net_flow::Peer_socket::rexmit_on</title>
<polygon fill="white" stroke="transparent" points="-4,4 -4,-436.5 1376,-436.5 1376,4 -4,4"/>
<!-- Node1 -->
<g id="node1" class="node">
<title>Node1</title>
<g id="a_node1"><a xlink:title="Whether retransmission is enabled on this connection.">
<polygon fill="#bfbfbf" stroke="black" points="1275,-300 1275,-326 1372,-326 1372,-300 1275,-300"/>
<text text-anchor="start" x="1283" y="-315.6" font-family="Helvetica,sans-Serif" font-size="8.00">flow::net_flow::Peer</text>
<text text-anchor="middle" x="1323.5" y="-306.6" font-family="Helvetica,sans-Serif" font-size="8.00">_socket::rexmit_on</text>
</a>
</g>
</g>
<!-- Node2 -->
<g id="node2" class="node">
<title>Node2</title>
<g id="a_node2"><a xlink:href="classflow_1_1net__flow_1_1Node.html#a055ee380cf87f83c06d7380821c4679e" target="_top" xlink:title="Helper of perform_accumulated_on_recv_tasks() that categorizes the given accumulated individual ackno...">
<polygon fill="white" stroke="black" points="1109.5,-406 1109.5,-432 1237.5,-432 1237.5,-406 1109.5,-406"/>
<text text-anchor="start" x="1117.5" y="-421.6" font-family="Helvetica,sans-Serif" font-size="8.00">flow::net_flow::Node</text>
<text text-anchor="middle" x="1173.5" y="-412.6" font-family="Helvetica,sans-Serif" font-size="8.00">::categorize_individual_ack</text>
</a>
</g>
</g>
<!-- Node1&#45;&gt;Node2 -->
<g id="edge1" class="edge">
<title>Node1&#45;&gt;Node2</title>
<path fill="none" stroke="midnightblue" d="M1306.19,-334.25C1290.73,-353.1 1265.92,-380.18 1239,-397 1233.48,-400.45 1227.36,-403.43 1221.14,-405.99"/>
<polygon fill="midnightblue" stroke="midnightblue" points="1309.09,-336.23 1312.61,-326.24 1303.63,-331.86 1309.09,-336.23"/>
</g>
<!-- Node3 -->
<g id="node3" class="node">
<title>Node3</title>
<g id="a_node3"><a xlink:href="classflow_1_1net__flow_1_1Node.html#ac910f24e5a176c4aa01992b08b62146a" target="_top" xlink:title="Helper of perform_accumulated_on_recv_tasks() that acts on the determination made by categorize_pkts_...">
<polygon fill="white" stroke="black" points="1123,-361 1123,-387 1224,-387 1224,-361 1123,-361"/>
<text text-anchor="start" x="1131" y="-376.6" font-family="Helvetica,sans-Serif" font-size="8.00">flow::net_flow::Node</text>
<text text-anchor="middle" x="1173.5" y="-367.6" font-family="Helvetica,sans-Serif" font-size="8.00">::drop_pkts_on_acks</text>
</a>
</g>
</g>
<!-- Node1&#45;&gt;Node3 -->
<g id="edge2" class="edge">
<title>Node1&#45;&gt;Node3</title>
<path fill="none" stroke="midnightblue" d="M1281.29,-329.99C1257.54,-339.78 1228.13,-351.89 1206.2,-360.94"/>
<polygon fill="midnightblue" stroke="midnightblue" points="1282.84,-333.13 1290.75,-326.09 1280.17,-326.66 1282.84,-333.13"/>
</g>
<!-- Node4 -->
<g id="node4" class="node">
<title>Node4</title>
<g id="a_node4"><a xlink:href="classflow_1_1net__flow_1_1Node.html#affbc6abb1e344c6e98d3ac8068a54670" target="_top" xlink:title="Handles a Drop_timer (Peer_socket::m_snd_drop_timer) event in ESTABLISHED state by dropping the speci...">
<polygon fill="white" stroke="black" points="965.5,-323 965.5,-349 1066.5,-349 1066.5,-323 965.5,-323"/>
<text text-anchor="start" x="973.5" y="-338.6" font-family="Helvetica,sans-Serif" font-size="8.00">flow::net_flow::Node</text>
<text text-anchor="middle" x="1016" y="-329.6" font-family="Helvetica,sans-Serif" font-size="8.00">::drop_timer_action</text>
</a>
</g>
</g>
<!-- Node1&#45;&gt;Node4 -->
<g id="edge3" class="edge">
<title>Node1&#45;&gt;Node4</title>
<path fill="none" stroke="midnightblue" d="M1264.44,-317.37C1207.24,-321.68 1120.79,-328.19 1066.68,-332.26"/>
<polygon fill="midnightblue" stroke="midnightblue" points="1265.06,-320.83 1274.77,-316.59 1264.53,-313.85 1265.06,-320.83"/>
</g>
<!-- Node13 -->
<g id="node9" class="node">
<title>Node13</title>
<g id="a_node9"><a xlink:href="classflow_1_1net__flow_1_1Node.html#a136d9ccd25634cee2955ea79ae829006" target="_top" xlink:title="Helper of perform_accumulated_on_recv_tasks() that handles any incoming acknowledgments and rcv_wnd u...">
<polygon fill="white" stroke="black" points="1108,-71 1108,-97 1239,-97 1239,-71 1108,-71"/>
<text text-anchor="start" x="1116" y="-86.6" font-family="Helvetica,sans-Serif" font-size="8.00">flow::net_flow::Node</text>
<text text-anchor="middle" x="1173.5" y="-77.6" font-family="Helvetica,sans-Serif" font-size="8.00">::handle_accumulated_acks</text>
</a>
</g>
</g>
<!-- Node1&#45;&gt;Node13 -->
<g id="edge8" class="edge">
<title>Node1&#45;&gt;Node13</title>
<path fill="none" stroke="midnightblue" d="M1308.4,-291.18C1278.05,-244.22 1207.31,-134.77 1182.94,-97.05"/>
<polygon fill="midnightblue" stroke="midnightblue" points="1305.54,-293.2 1313.9,-299.7 1311.41,-289.4 1305.54,-293.2"/>
</g>
<!-- Node15 -->
<g id="node12" class="node">
<title>Node15</title>
<g id="a_node12"><a xlink:href="classflow_1_1net__flow_1_1Node.html#a06e4cea2eefa1b06975864f09740c96b" target="_top" xlink:title="Handles a just&#45;deserialized, just&#45;demultiplexed, low&#45;level DATA packet delivered to the given peer so...">
<polygon fill="white" stroke="black" points="427,-314 427,-340 564,-340 564,-314 427,-314"/>
<text text-anchor="start" x="435" y="-329.6" font-family="Helvetica,sans-Serif" font-size="8.00">flow::net_flow::Node</text>
<text text-anchor="middle" x="495.5" y="-320.6" font-family="Helvetica,sans-Serif" font-size="8.00">::handle_data_to_established</text>
</a>
</g>
</g>
<!-- Node1&#45;&gt;Node15 -->
<g id="edge12" class="edge">
<title>Node1&#45;&gt;Node15</title>
<path fill="none" stroke="midnightblue" d="M1264.67,-307.26C1203.29,-301.66 1103.4,-294 1017,-294 1017,-294 1017,-294 843,-294 745.71,-294 633.74,-307.05 564.04,-316.74"/>
<polygon fill="midnightblue" stroke="midnightblue" points="1264.65,-310.77 1274.93,-308.21 1265.3,-303.8 1264.65,-310.77"/>
</g>
<!-- Node16 -->
<g id="node13" class="node">
<title>Node16</title>
<g id="a_node13"><a xlink:href="classflow_1_1net__flow_1_1Node.html#a24785d3e04e0a9cd5daca43bc867e5aa" target="_top" xlink:title="Logs TRACE or DATA messages thats show the detailed state of the sending sequence number space.">
<polygon fill="white" stroke="black" points="1123,-198 1123,-224 1224,-224 1224,-198 1123,-198"/>
<text text-anchor="start" x="1131" y="-213.6" font-family="Helvetica,sans-Serif" font-size="8.00">flow::net_flow::Node</text>
<text text-anchor="middle" x="1173.5" y="-204.6" font-family="Helvetica,sans-Serif" font-size="8.00">::log_snd_window</text>
</a>
</g>
</g>
<!-- Node1&#45;&gt;Node16 -->
<g id="edge15" class="edge">
<title>Node1&#45;&gt;Node16</title>
<path fill="none" stroke="midnightblue" d="M1294.85,-293.94C1265.28,-273.57 1219.19,-241.8 1193.47,-224.08"/>
<polygon fill="midnightblue" stroke="midnightblue" points="1293.23,-297.08 1303.45,-299.87 1297.21,-291.32 1293.23,-297.08"/>
</g>
<!-- Node5 -->
<g id="node5" class="node">
<title>Node5</title>
<g id="a_node5"><a xlink:href="classflow_1_1net__flow_1_1Node.html#ab427ebc124a6233ae48a7562662a6e81" target="_top" xlink:title="Creates a new Drop Timer and saves it to sock&#45;&gt;m_snd_drop_timer.">
<polygon fill="white" stroke="black" points="445,-269 445,-295 546,-295 546,-269 445,-269"/>
<text text-anchor="start" x="453" y="-284.6" font-family="Helvetica,sans-Serif" font-size="8.00">flow::net_flow::Node</text>
<text text-anchor="middle" x="495.5" y="-275.6" font-family="Helvetica,sans-Serif" font-size="8.00">::setup_drop_timer</text>
</a>
</g>
</g>
<!-- Node4&#45;&gt;Node5 -->
<g id="edge4" class="edge">
<title>Node4&#45;&gt;Node5</title>
<path fill="none" stroke="midnightblue" d="M955.33,-329.79C852.05,-319.03 641.86,-297.14 546.07,-287.16"/>
<polygon fill="midnightblue" stroke="midnightblue" points="954.98,-333.27 965.28,-330.82 955.7,-326.31 954.98,-333.27"/>
</g>
<!-- Node6 -->
<g id="node6" class="node">
<title>Node6</title>
<g id="a_node6"><a xlink:href="classflow_1_1net__flow_1_1Node.html#a29d02f9e302c7b06288ff1c644fa8d65" target="_top" xlink:title="Handles a just&#45;deserialized, just&#45;demultiplexed low&#45;level SYN_ACK_ACK packet delivered to the given p...">
<polygon fill="white" stroke="black" points="286,-246.5 286,-281.5 391,-281.5 391,-246.5 286,-246.5"/>
<text text-anchor="start" x="294" y="-271.1" font-family="Helvetica,sans-Serif" font-size="8.00">flow::net_flow::Node</text>
<text text-anchor="start" x="294" y="-262.1" font-family="Helvetica,sans-Serif" font-size="8.00">::handle_syn_ack_ack</text>
<text text-anchor="middle" x="338.5" y="-253.1" font-family="Helvetica,sans-Serif" font-size="8.00">_to_syn_rcvd</text>
</a>
</g>
</g>
<!-- Node5&#45;&gt;Node6 -->
<g id="edge5" class="edge">
<title>Node5&#45;&gt;Node6</title>
<path fill="none" stroke="midnightblue" d="M434.39,-275.02C420.12,-273.36 405.02,-271.61 391.17,-270"/>
<polygon fill="midnightblue" stroke="midnightblue" points="434.27,-278.53 444.6,-276.21 435.07,-271.58 434.27,-278.53"/>
</g>
<!-- Node7 -->
<g id="node7" class="node">
<title>Node7</title>
<g id="a_node7"><a xlink:href="classflow_1_1net__flow_1_1Node.html#a1699dfdaf3e5ebe1b1d715a9c306d116" target="_top" xlink:title="Handles a just&#45;received, not&#45;yet&#45;deserialized low&#45;level packet.">
<polygon fill="white" stroke="red" points="149,-212 149,-238 250,-238 250,-212 149,-212"/>
<text text-anchor="start" x="157" y="-227.6" font-family="Helvetica,sans-Serif" font-size="8.00">flow::net_flow::Node</text>
<text text-anchor="middle" x="199.5" y="-218.6" font-family="Helvetica,sans-Serif" font-size="8.00">::handle_incoming</text>
</a>
</g>
</g>
<!-- Node6&#45;&gt;Node7 -->
<g id="edge6" class="edge">
<title>Node6&#45;&gt;Node7</title>
<path fill="none" stroke="midnightblue" d="M275.92,-246.47C266.04,-243.66 255.96,-240.79 246.52,-238.1"/>
<polygon fill="midnightblue" stroke="midnightblue" points="275.13,-249.88 285.71,-249.26 277.05,-243.15 275.13,-249.88"/>
</g>
<!-- Node8 -->
<g id="node8" class="node">
<title>Node8</title>
<g id="a_node8"><a xlink:href="classflow_1_1net__flow_1_1Node.html#a4368247d07e930bdd07ab8d2425c6de8" target="_top" xlink:title="Sets up handle_incoming(packet_data, low_lvl_remote_endpoint) to be called asynchronously after a spe...">
<polygon fill="white" stroke="red" points="0,-83.5 0,-118.5 113,-118.5 113,-83.5 0,-83.5"/>
<text text-anchor="start" x="8" y="-108.1" font-family="Helvetica,sans-Serif" font-size="8.00">flow::net_flow::Node</text>
<text text-anchor="start" x="8" y="-99.1" font-family="Helvetica,sans-Serif" font-size="8.00">::async_wait_latency</text>
<text text-anchor="middle" x="56.5" y="-90.1" font-family="Helvetica,sans-Serif" font-size="8.00">_then_handle_incoming</text>
</a>
</g>
</g>
<!-- Node7&#45;&gt;Node8 -->
<g id="edge7" class="edge">
<title>Node7&#45;&gt;Node8</title>
<path fill="none" stroke="midnightblue" d="M175.86,-205.09C148.67,-181.18 103.5,-141.45 77.53,-118.61"/>
<polygon fill="midnightblue" stroke="midnightblue" points="173.86,-207.99 183.68,-211.96 178.48,-202.73 173.86,-207.99"/>
</g>
<!-- Node14 -->
<g id="node10" class="node">
<title>Node14</title>
<g id="a_node10"><a xlink:href="classflow_1_1net__flow_1_1Node.html#a0fba26db0055a969f3869014bc5c2bfc" target="_top" xlink:title="Performs all tasks to be performed at the end of low_lvl_recv_and_handle() or async part of async_wai...">
<polygon fill="white" stroke="black" points="960,-25.5 960,-60.5 1072,-60.5 1072,-25.5 960,-25.5"/>
<text text-anchor="start" x="968" y="-50.1" font-family="Helvetica,sans-Serif" font-size="8.00">flow::net_flow::Node</text>
<text text-anchor="start" x="968" y="-41.1" font-family="Helvetica,sans-Serif" font-size="8.00">::perform_accumulated</text>
<text text-anchor="middle" x="1016" y="-32.1" font-family="Helvetica,sans-Serif" font-size="8.00">_on_recv_tasks</text>
</a>
</g>
</g>
<!-- Node13&#45;&gt;Node14 -->
<g id="edge9" class="edge">
<title>Node13&#45;&gt;Node14</title>
<path fill="none" stroke="midnightblue" d="M1112.81,-68.26C1099.42,-64.73 1085.28,-61 1072.09,-57.52"/>
<polygon fill="midnightblue" stroke="midnightblue" points="1112.31,-71.75 1122.87,-70.91 1114.09,-64.98 1112.31,-71.75"/>
</g>
<!-- Node14&#45;&gt;Node8 -->
<g id="edge10" class="edge">
<title>Node14&#45;&gt;Node8</title>
<path fill="none" stroke="midnightblue" d="M950.18,-25.19C941.43,-23.2 932.53,-21.4 924,-20 810.06,-1.34 780.45,0 665,0 665,0 665,0 337.5,0 240.35,0 134.88,-54.47 85.71,-83.41"/>
<polygon fill="midnightblue" stroke="midnightblue" points="949.44,-28.61 959.98,-27.49 951.04,-21.79 949.44,-28.61"/>
</g>
<!-- Node10 -->
<g id="node11" class="node">
<title>Node10</title>
<g id="a_node11"><a xlink:href="classflow_1_1net__flow_1_1Node.html#a9909cd2b2a77c57da9e35fcef0f8a4e5" target="_top" xlink:title="Handles the pre&#45;condition that m_low_lvl_sock has a UDP packet available for reading,...">
<polygon fill="white" stroke="red" points="783,-30 783,-56 905,-56 905,-30 783,-30"/>
<text text-anchor="start" x="791" y="-45.6" font-family="Helvetica,sans-Serif" font-size="8.00">flow::net_flow::Node</text>
<text text-anchor="middle" x="844" y="-36.6" font-family="Helvetica,sans-Serif" font-size="8.00">::low_lvl_recv_and_handle</text>
</a>
</g>
</g>
<!-- Node14&#45;&gt;Node10 -->
<g id="edge11" class="edge">
<title>Node14&#45;&gt;Node10</title>
<path fill="none" stroke="midnightblue" d="M949.39,-43C934.85,-43 919.51,-43 905.2,-43"/>
<polygon fill="midnightblue" stroke="midnightblue" points="949.81,-46.5 959.81,-43 949.81,-39.5 949.81,-46.5"/>
</g>
<!-- Node15&#45;&gt;Node6 -->
<g id="edge14" class="edge">
<title>Node15&#45;&gt;Node6</title>
<path fill="none" stroke="midnightblue" d="M441.96,-310.58C436.88,-308.78 431.82,-306.91 427,-305 409.37,-298.03 390.26,-289.22 374.4,-281.56"/>
<polygon fill="midnightblue" stroke="midnightblue" points="441.13,-314 451.73,-313.94 443.41,-307.38 441.13,-314"/>
</g>
<!-- Node15&#45;&gt;Node7 -->
<g id="edge13" class="edge">
<title>Node15&#45;&gt;Node7</title>
<path fill="none" stroke="midnightblue" d="M416.79,-322.58C376.42,-318.08 327.08,-309.06 286,-291 256.99,-278.25 229.02,-253.57 213.36,-238.27"/>
<polygon fill="midnightblue" stroke="midnightblue" points="416.55,-326.07 426.85,-323.62 417.27,-319.11 416.55,-326.07"/>
</g>
<!-- Node17 -->
<g id="node14" class="node">
<title>Node17</title>
<g id="a_node14"><a xlink:href="classflow_1_1net__flow_1_1Node.html#a755c329b9e0f2b8edb2e5b900bd2a337" target="_top" xlink:title="Logs a verbose state report for the given socket.">
<polygon fill="white" stroke="black" points="965.5,-138 965.5,-164 1066.5,-164 1066.5,-138 965.5,-138"/>
<text text-anchor="start" x="973.5" y="-153.6" font-family="Helvetica,sans-Serif" font-size="8.00">flow::net_flow::Node</text>
<text text-anchor="middle" x="1016" y="-144.6" font-family="Helvetica,sans-Serif" font-size="8.00">::sock_log_detail</text>
</a>
</g>
</g>
<!-- Node16&#45;&gt;Node17 -->
<g id="edge16" class="edge">
<title>Node16&#45;&gt;Node17</title>
<path fill="none" stroke="midnightblue" d="M1129.25,-194.31C1104.51,-184.77 1073.94,-172.97 1050.94,-164.1"/>
<polygon fill="midnightblue" stroke="midnightblue" points="1128.17,-197.65 1138.76,-197.98 1130.69,-191.12 1128.17,-197.65"/>
</g>
<!-- Node18 -->
<g id="node15" class="node">
<title>Node18</title>
<g id="a_node15"><a xlink:href="classflow_1_1net__flow_1_1Node.html#ade49e7bc7202a0adf33fec2d93d1b177" target="_top" xlink:title="A thread W method that handles the transition of the given socket from OPEN (any sub&#45;state) to CLOSED...">
<polygon fill="white" stroke="black" points="770,-138 770,-164 918,-164 918,-138 770,-138"/>
<text text-anchor="start" x="778" y="-153.6" font-family="Helvetica,sans-Serif" font-size="8.00">flow::net_flow::Node</text>
<text text-anchor="middle" x="844" y="-144.6" font-family="Helvetica,sans-Serif" font-size="8.00">::close_connection_immediately</text>
</a>
</g>
</g>
<!-- Node17&#45;&gt;Node18 -->
<g id="edge17" class="edge">
<title>Node17&#45;&gt;Node18</title>
<path fill="none" stroke="midnightblue" d="M955.07,-151C943.11,-151 930.42,-151 918.07,-151"/>
<polygon fill="midnightblue" stroke="midnightblue" points="955.37,-154.5 965.37,-151 955.37,-147.5 955.37,-154.5"/>
</g>
<!-- Node53 -->
<g id="node20" class="node">
<title>Node53</title>
<g id="a_node20"><a xlink:href="classflow_1_1net__flow_1_1Node.html#aee8466d9c810da5edea443d665b24dcb" target="_top" xlink:title="Performs low&#45;priority tasks that should be run on an infrequent, regular basis, such as stat logging ...">
<polygon fill="white" stroke="black" points="764,-75 764,-101 924,-101 924,-75 764,-75"/>
<text text-anchor="start" x="772" y="-90.6" font-family="Helvetica,sans-Serif" font-size="8.00">flow::net_flow::Node</text>
<text text-anchor="middle" x="844" y="-81.6" font-family="Helvetica,sans-Serif" font-size="8.00">::perform_regular_infrequent_tasks</text>
</a>
</g>
</g>
<!-- Node17&#45;&gt;Node53 -->
<g id="edge25" class="edge">
<title>Node17&#45;&gt;Node53</title>
<path fill="none" stroke="midnightblue" d="M970.17,-134.39C942.03,-123.96 906.27,-110.7 880.18,-101.04"/>
<polygon fill="midnightblue" stroke="midnightblue" points="969.18,-137.75 979.78,-137.95 971.62,-131.19 969.18,-137.75"/>
</g>
<!-- Node18&#45;&gt;Node7 -->
<g id="edge19" class="edge">
<title>Node18&#45;&gt;Node7</title>
<path fill="none" stroke="midnightblue" d="M792.13,-166.85C772.3,-172.46 749.26,-178.3 728,-182 554.2,-212.25 344.38,-221.31 250.33,-223.95"/>
<polygon fill="midnightblue" stroke="midnightblue" points="793.25,-170.17 801.89,-164.03 791.31,-163.44 793.25,-170.17"/>
</g>
<!-- Node19 -->
<g id="node16" class="node">
<title>Node19</title>
<g id="a_node16"><a xlink:href="classflow_1_1net__flow_1_1Node.html#aa5f7c019665d9dd91af0ad6431f8f97d" target="_top" xlink:title="Similar to async_sock_low_lvl_packet_send_paced() except it also calls close_connection_immediately(s...">
<polygon fill="white" stroke="red" points="609,-129 609,-173 719,-173 719,-129 609,-129"/>
<text text-anchor="start" x="617" y="-162.6" font-family="Helvetica,sans-Serif" font-size="8.00">flow::net_flow::Node</text>
<text text-anchor="start" x="617" y="-153.6" font-family="Helvetica,sans-Serif" font-size="8.00">::async_sock_low_lvl</text>
<text text-anchor="start" x="617" y="-144.6" font-family="Helvetica,sans-Serif" font-size="8.00">_packet_send_or_close</text>
<text text-anchor="middle" x="664" y="-135.6" font-family="Helvetica,sans-Serif" font-size="8.00">_immediately</text>
</a>
</g>
</g>
<!-- Node18&#45;&gt;Node19 -->
<g id="edge18" class="edge">
<title>Node18&#45;&gt;Node19</title>
<path fill="none" stroke="midnightblue" d="M759.81,-151C745.99,-151 731.97,-151 719.11,-151"/>
<polygon fill="midnightblue" stroke="midnightblue" points="759.83,-154.5 769.83,-151 759.83,-147.5 759.83,-154.5"/>
</g>
<!-- Node43 -->
<g id="node17" class="node">
<title>Node43</title>
<g id="a_node17"><a xlink:href="classflow_1_1net__flow_1_1Node.html#ad608f9bbe76426f4fbf4bf5af908e4e0" target="_top" xlink:title="Placed by receive() onto W during a graceful close, after the Receive buffer had been emptied by the ...">
<polygon fill="white" stroke="red" points="603.5,-74.5 603.5,-109.5 724.5,-109.5 724.5,-74.5 603.5,-74.5"/>
<text text-anchor="start" x="611.5" y="-99.1" font-family="Helvetica,sans-Serif" font-size="8.00">flow::net_flow::Node</text>
<text text-anchor="start" x="611.5" y="-90.1" font-family="Helvetica,sans-Serif" font-size="8.00">::receive_emptied_rcv</text>
<text text-anchor="middle" x="664" y="-81.1" font-family="Helvetica,sans-Serif" font-size="8.00">_buf_while_disconnecting</text>
</a>
</g>
</g>
<!-- Node18&#45;&gt;Node43 -->
<g id="edge20" class="edge">
<title>Node18&#45;&gt;Node43</title>
<path fill="none" stroke="midnightblue" d="M786.26,-134.97C778.75,-132.7 771.17,-130.35 764,-128 746.79,-122.37 728.09,-115.71 711.62,-109.66"/>
<polygon fill="midnightblue" stroke="midnightblue" points="785.48,-138.38 796.06,-137.88 787.47,-131.68 785.48,-138.38"/>
</g>
<!-- Node44 -->
<g id="node18" class="node">
<title>Node44</title>
<g id="a_node18"><a xlink:href="classflow_1_1net__flow_1_1Node.html#afe70a0c32695e417e7a09e0ba773f151" target="_top" xlink:title="Asynchronously send RST to the other side of the given socket and close_connection_immediately().">
<polygon fill="white" stroke="red" points="600,-230.5 600,-265.5 728,-265.5 728,-230.5 600,-230.5"/>
<text text-anchor="start" x="608" y="-255.1" font-family="Helvetica,sans-Serif" font-size="8.00">flow::net_flow::Node</text>
<text text-anchor="start" x="608" y="-246.1" font-family="Helvetica,sans-Serif" font-size="8.00">::rst_and_close_connection</text>
<text text-anchor="middle" x="664" y="-237.1" font-family="Helvetica,sans-Serif" font-size="8.00">_immediately</text>
</a>
</g>
</g>
<!-- Node18&#45;&gt;Node44 -->
<g id="edge21" class="edge">
<title>Node18&#45;&gt;Node44</title>
<path fill="none" stroke="midnightblue" d="M811.73,-169.17C788.72,-182.42 756.6,-200.66 728,-216 719.13,-220.75 709.49,-225.75 700.46,-230.33"/>
<polygon fill="midnightblue" stroke="midnightblue" points="813.78,-172.03 820.69,-164 810.28,-165.97 813.78,-172.03"/>
</g>
<!-- Node12 -->
<g id="node19" class="node">
<title>Node12</title>
<g id="a_node19"><a xlink:href="classflow_1_1net__flow_1_1Node.html#a5b056ed753b832458f44f537acfe86d7" target="_top" xlink:title="Worker thread W (main event loop) body.">
<polygon fill="white" stroke="black" points="613.5,-29 613.5,-55 714.5,-55 714.5,-29 613.5,-29"/>
<text text-anchor="start" x="621.5" y="-44.6" font-family="Helvetica,sans-Serif" font-size="8.00">flow::net_flow::Node</text>
<text text-anchor="middle" x="664" y="-35.6" font-family="Helvetica,sans-Serif" font-size="8.00">::worker_run</text>
</a>
</g>
</g>
<!-- Node18&#45;&gt;Node12 -->
<g id="edge24" class="edge">
<title>Node18&#45;&gt;Node12</title>
<path fill="none" stroke="midnightblue" d="M771.76,-133.31C769.05,-131.69 766.45,-129.93 764,-128 738.67,-108.04 752.65,-85.8 728,-65 723.37,-61.1 718.03,-57.83 712.44,-55.1"/>
<polygon fill="midnightblue" stroke="midnightblue" points="770.27,-136.48 780.75,-137.99 773.5,-130.27 770.27,-136.48"/>
</g>
<!-- Node44&#45;&gt;Node5 -->
<g id="edge23" class="edge">
<title>Node44&#45;&gt;Node5</title>
<path fill="none" stroke="midnightblue" d="M589.49,-263.01C574.79,-266.01 559.68,-269.1 546.02,-271.89"/>
<polygon fill="midnightblue" stroke="midnightblue" points="590.48,-266.38 599.58,-260.95 589.08,-259.52 590.48,-266.38"/>
</g>
<!-- Node44&#45;&gt;Node6 -->
<g id="edge22" class="edge">
<title>Node44&#45;&gt;Node6</title>
<path fill="none" stroke="midnightblue" d="M589.6,-251.63C529.03,-254.63 444.64,-258.8 391.03,-261.45"/>
<polygon fill="midnightblue" stroke="midnightblue" points="590.04,-255.11 599.86,-251.12 589.7,-248.12 590.04,-255.11"/>
</g>
<!-- Node53&#45;&gt;Node12 -->
<g id="edge27" class="edge">
<title>Node53&#45;&gt;Node12</title>
<path fill="none" stroke="midnightblue" d="M782.53,-72.37C760.46,-66.67 735.77,-60.29 714.73,-54.85"/>
<polygon fill="midnightblue" stroke="midnightblue" points="781.91,-75.83 792.47,-74.94 783.66,-69.05 781.91,-75.83"/>
</g>
<!-- Node53&#45;&gt;Node53 -->
<g id="edge26" class="edge">
<title>Node53&#45;&gt;Node53</title>
<path fill="none" stroke="midnightblue" d="M875.21,-111.08C872.04,-115.97 861.64,-119.5 844,-119.5 815.78,-119.5 806.08,-110.46 814.9,-101.27"/>
<polygon fill="midnightblue" stroke="midnightblue" points="878.62,-110.31 873.1,-101.27 871.78,-111.78 878.62,-110.31"/>
</g>
</g>
</svg>
