<?xml version="1.0" encoding="UTF-8" standalone="no"?>
<!DOCTYPE svg PUBLIC "-//W3C//DTD SVG 1.1//EN"
 "http://www.w3.org/Graphics/SVG/1.1/DTD/svg11.dtd">
<!-- Generated by graphviz version 2.43.0 (0)
 -->
<!-- Title: flow::log::Async_file_logger::on_rotate_signal Pages: 1 -->
<svg width="287pt" height="53pt"
 viewBox="0.00 0.00 287.00 53.00" xmlns="http://www.w3.org/2000/svg" xmlns:xlink="http://www.w3.org/1999/xlink">
<g id="graph0" class="graph" transform="scale(1 1) rotate(0) translate(4 49)">
<title>flow::log::Async_file_logger::on_rotate_signal</title>
<polygon fill="white" stroke="transparent" points="-4,4 -4,-49 283,-49 283,4 -4,4"/>
<!-- Node1 -->
<g id="node1" class="node">
<title>Node1</title>
<g id="a_node1"><a xlink:title="SIGHUP/equivalent handler for the optional feature capture_rotate_signals_internally in constructor.">
<polygon fill="#bfbfbf" stroke="black" points="159,-0.5 159,-26.5 279,-26.5 279,-0.5 159,-0.5"/>
<text text-anchor="start" x="167" y="-16.1" font-family="Helvetica,sans-Serif" font-size="8.00">flow::log::Async_file</text>
<text text-anchor="middle" x="219" y="-7.1" font-family="Helvetica,sans-Serif" font-size="8.00">_logger::on_rotate_signal</text>
</a>
</g>
</g>
<!-- Node1&#45;&gt;Node1 -->
<g id="edge2" class="edge">
<title>Node1&#45;&gt;Node1</title>
<path fill="none" stroke="midnightblue" d="M247.08,-36.94C243.96,-41.64 234.6,-45 219,-45 193.41,-45 184.61,-35.96 192.61,-26.77"/>
<polygon fill="midnightblue" stroke="midnightblue" points="250.48,-36.06 245.39,-26.77 243.57,-37.21 250.48,-36.06"/>
</g>
<!-- Node2 -->
<g id="node2" class="node">
<title>Node2</title>
<g id="a_node2"><a xlink:href="classflow_1_1log_1_1Async__file__logger.html#aec2b1796c81b020cacea493e21e19562" target="_top" xlink:title="Constructs logger to subsequently log to the given file&#45;system path.">
<polygon fill="white" stroke="black" points="0,-0.5 0,-26.5 123,-26.5 123,-0.5 0,-0.5"/>
<text text-anchor="start" x="8" y="-16.1" font-family="Helvetica,sans-Serif" font-size="8.00">flow::log::Async_file</text>
<text text-anchor="middle" x="61.5" y="-7.1" font-family="Helvetica,sans-Serif" font-size="8.00">_logger::Async_file_logger</text>
</a>
</g>
</g>
<!-- Node1&#45;&gt;Node2 -->
<g id="edge1" class="edge">
<title>Node1&#45;&gt;Node2</title>
<path fill="none" stroke="midnightblue" d="M148.53,-13.5C140.05,-13.5 131.44,-13.5 123.11,-13.5"/>
<polygon fill="midnightblue" stroke="midnightblue" points="148.77,-17 158.77,-13.5 148.77,-10 148.77,-17"/>
</g>
</g>
</svg>
