<?xml version="1.0" encoding="UTF-8" standalone="no"?>
<!DOCTYPE svg PUBLIC "-//W3C//DTD SVG 1.1//EN"
 "http://www.w3.org/Graphics/SVG/1.1/DTD/svg11.dtd">
<!-- Generated by graphviz version 2.43.0 (0)
 -->
<!-- Title: flow::net_flow::Peer_socket::node_sync_receive Pages: 1 -->
<svg width="444pt" height="108pt"
 viewBox="0.00 0.00 444.00 107.50" xmlns="http://www.w3.org/2000/svg" xmlns:xlink="http://www.w3.org/1999/xlink">
<g id="graph0" class="graph" transform="scale(1 1) rotate(0) translate(4 103.5)">
<title>flow::net_flow::Peer_socket::node_sync_receive</title>
<polygon fill="white" stroke="transparent" points="-4,4 -4,-103.5 440,-103.5 440,4 -4,4"/>
<!-- Node1 -->
<g id="node1" class="node">
<title>Node1</title>
<g id="a_node1"><a xlink:title="This is to sync_receive() as node_receive() is to receive().">
<polygon fill="#bfbfbf" stroke="black" points="305,-39 305,-65 436,-65 436,-39 305,-39"/>
<text text-anchor="start" x="313" y="-54.6" font-family="Helvetica,sans-Serif" font-size="8.00">flow::net_flow::Peer</text>
<text text-anchor="middle" x="370.5" y="-45.6" font-family="Helvetica,sans-Serif" font-size="8.00">_socket::node_sync_receive</text>
</a>
</g>
</g>
<!-- Node2 -->
<g id="node2" class="node">
<title>Node2</title>
<g id="a_node2"><a xlink:href="classflow_1_1net__flow_1_1Peer__socket.html#ad29f61b9885b10ddc3846cdae0560518" target="_top" xlink:title="Same as sync_receive() but uses a Fine_clock&#45;based Fine_duration non&#45;template type for implementation...">
<polygon fill="white" stroke="black" points="142,-73 142,-99 269,-99 269,-73 142,-73"/>
<text text-anchor="start" x="150" y="-88.6" font-family="Helvetica,sans-Serif" font-size="8.00">flow::net_flow::Peer</text>
<text text-anchor="middle" x="205.5" y="-79.6" font-family="Helvetica,sans-Serif" font-size="8.00">_socket::sync_receive_impl</text>
</a>
</g>
</g>
<!-- Node1&#45;&gt;Node2 -->
<g id="edge1" class="edge">
<title>Node1&#45;&gt;Node2</title>
<path fill="none" stroke="midnightblue" d="M296.89,-67.15C287.55,-69.09 278.05,-71.08 268.89,-72.99"/>
<polygon fill="midnightblue" stroke="midnightblue" points="297.87,-70.52 306.95,-65.05 296.44,-63.66 297.87,-70.52"/>
</g>
<!-- Node4 -->
<g id="node4" class="node">
<title>Node4</title>
<g id="a_node4"><a xlink:href="classflow_1_1net__flow_1_1Peer__socket.html#a1a2eccfa314a397c12259f414ef6798c" target="_top" xlink:title="Helper similar to sync_receive_impl() but for the nullptr_t versions of sync_receive().">
<polygon fill="white" stroke="black" points="152.5,-0.5 152.5,-35.5 258.5,-35.5 258.5,-0.5 152.5,-0.5"/>
<text text-anchor="start" x="160.5" y="-25.1" font-family="Helvetica,sans-Serif" font-size="8.00">flow::net_flow::Peer</text>
<text text-anchor="start" x="160.5" y="-16.1" font-family="Helvetica,sans-Serif" font-size="8.00">_socket::sync_receive</text>
<text text-anchor="middle" x="205.5" y="-7.1" font-family="Helvetica,sans-Serif" font-size="8.00">_reactor_pattern_impl</text>
</a>
</g>
</g>
<!-- Node1&#45;&gt;Node4 -->
<g id="edge3" class="edge">
<title>Node1&#45;&gt;Node4</title>
<path fill="none" stroke="midnightblue" d="M297.1,-36.9C284.12,-34.19 270.83,-31.42 258.56,-28.86"/>
<polygon fill="midnightblue" stroke="midnightblue" points="296.44,-40.34 306.95,-38.95 297.87,-33.48 296.44,-40.34"/>
</g>
<!-- Node3 -->
<g id="node3" class="node">
<title>Node3</title>
<g id="a_node3"><a xlink:href="classflow_1_1net__flow_1_1Peer__socket.html#af5143886b33b4f16e4fbfbe3a4e91e44" target="_top" xlink:title="Equivalent to sync_receive(target, duration::max(), err_code); i.e., sync_receive() with no timeout.">
<polygon fill="white" stroke="black" points="0,-73 0,-99 106,-99 106,-73 0,-73"/>
<text text-anchor="start" x="8" y="-88.6" font-family="Helvetica,sans-Serif" font-size="8.00">flow::net_flow::Peer</text>
<text text-anchor="middle" x="53" y="-79.6" font-family="Helvetica,sans-Serif" font-size="8.00">_socket::sync_receive</text>
</a>
</g>
</g>
<!-- Node2&#45;&gt;Node3 -->
<g id="edge2" class="edge">
<title>Node2&#45;&gt;Node3</title>
<path fill="none" stroke="midnightblue" d="M131.82,-86C123.12,-86 114.38,-86 106.05,-86"/>
<polygon fill="midnightblue" stroke="midnightblue" points="131.98,-89.5 141.98,-86 131.98,-82.5 131.98,-89.5"/>
</g>
<!-- Node4&#45;&gt;Node4 -->
<g id="edge5" class="edge">
<title>Node4&#45;&gt;Node4</title>
<path fill="none" stroke="midnightblue" d="M231.97,-46.1C228.25,-50.77 219.43,-54 205.5,-54 182.64,-54 173.53,-45.31 178.18,-35.78"/>
<polygon fill="midnightblue" stroke="midnightblue" points="235.49,-46.04 232.82,-35.78 228.51,-45.46 235.49,-46.04"/>
</g>
<!-- Node5 -->
<g id="node5" class="node">
<title>Node5</title>
<g id="a_node5"><a xlink:href="classflow_1_1net__flow_1_1Peer__socket.html#a34cc9ad4501bb8cefe2c4e946be88232" target="_top" xlink:title="sync_receive() operating in nullptr_t mode, wherein – if Readable state is reached – the actual data ...">
<polygon fill="white" stroke="black" points="0,-5 0,-31 106,-31 106,-5 0,-5"/>
<text text-anchor="start" x="8" y="-20.6" font-family="Helvetica,sans-Serif" font-size="8.00">flow::net_flow::Peer</text>
<text text-anchor="middle" x="53" y="-11.6" font-family="Helvetica,sans-Serif" font-size="8.00">_socket::sync_receive</text>
</a>
</g>
</g>
<!-- Node4&#45;&gt;Node5 -->
<g id="edge4" class="edge">
<title>Node4&#45;&gt;Node5</title>
<path fill="none" stroke="midnightblue" d="M141.95,-18C130.03,-18 117.68,-18 106.12,-18"/>
<polygon fill="midnightblue" stroke="midnightblue" points="142.28,-21.5 152.28,-18 142.28,-14.5 142.28,-21.5"/>
</g>
</g>
</svg>
