<?xml version="1.0" encoding="UTF-8" standalone="no"?>
<!DOCTYPE svg PUBLIC "-//W3C//DTD SVG 1.1//EN"
 "http://www.w3.org/Graphics/SVG/1.1/DTD/svg11.dtd">
<!-- Generated by graphviz version 2.43.0 (0)
 -->
<!-- Title: flow::cfg::Option_set_base::throw_on_invalid_func Pages: 1 -->
<svg width="293pt" height="44pt"
 viewBox="0.00 0.00 293.00 44.00" xmlns="http://www.w3.org/2000/svg" xmlns:xlink="http://www.w3.org/1999/xlink">
<g id="graph0" class="graph" transform="scale(1 1) rotate(0) translate(4 40)">
<title>flow::cfg::Option_set_base::throw_on_invalid_func</title>
<polygon fill="white" stroke="transparent" points="-4,4 -4,-40 289,-40 289,4 -4,4"/>
<!-- Node1 -->
<g id="node1" class="node">
<title>Node1</title>
<g id="a_node1"><a xlink:title="Returns a function that wraps a Value&#45;&gt;Boolean validator function, as passed to declare_option_for_pa...">
<polygon fill="#bfbfbf" stroke="black" points="148,-5 148,-31 285,-31 285,-5 148,-5"/>
<text text-anchor="start" x="156" y="-20.6" font-family="Helvetica,sans-Serif" font-size="8.00">flow::cfg::Option_set</text>
<text text-anchor="middle" x="216.5" y="-11.6" font-family="Helvetica,sans-Serif" font-size="8.00">_base::throw_on_invalid_func</text>
</a>
</g>
</g>
<!-- Node2 -->
<g id="node2" class="node">
<title>Node2</title>
<g id="a_node2"><a xlink:href="classflow_1_1cfg_1_1Option__set__base.html#ab79c61f62032b238cb25e132ce1e1d43" target="_top" xlink:title="Internal&#45;through&#45;macro helper function; the user shall not call this directly but only through FLOW_C...">
<polygon fill="white" stroke="black" points="0,-0.5 0,-35.5 112,-35.5 112,-0.5 0,-0.5"/>
<text text-anchor="start" x="8" y="-25.1" font-family="Helvetica,sans-Serif" font-size="8.00">flow::cfg::Option_set</text>
<text text-anchor="start" x="8" y="-16.1" font-family="Helvetica,sans-Serif" font-size="8.00">_base::validate_parsed</text>
<text text-anchor="middle" x="56" y="-7.1" font-family="Helvetica,sans-Serif" font-size="8.00">_option</text>
</a>
</g>
</g>
<!-- Node1&#45;&gt;Node2 -->
<g id="edge1" class="edge">
<title>Node1&#45;&gt;Node2</title>
<path fill="none" stroke="midnightblue" d="M137.68,-18C129.01,-18 120.32,-18 112.02,-18"/>
<polygon fill="midnightblue" stroke="midnightblue" points="137.82,-21.5 147.82,-18 137.82,-14.5 137.82,-21.5"/>
</g>
</g>
</svg>
