<?xml version="1.0" encoding="UTF-8" standalone="no"?>
<!DOCTYPE svg PUBLIC "-//W3C//DTD SVG 1.1//EN"
 "http://www.w3.org/Graphics/SVG/1.1/DTD/svg11.dtd">
<!-- Generated by graphviz version 2.43.0 (0)
 -->
<!-- Title: flow::net_flow::asio::Node::async_task_engine Pages: 1 -->
<svg width="451pt" height="90pt"
 viewBox="0.00 0.00 451.00 89.50" xmlns="http://www.w3.org/2000/svg" xmlns:xlink="http://www.w3.org/1999/xlink">
<g id="graph0" class="graph" transform="scale(1 1) rotate(0) translate(4 85.5)">
<title>flow::net_flow::asio::Node::async_task_engine</title>
<polygon fill="white" stroke="transparent" points="-4,4 -4,-85.5 447,-85.5 447,4 -4,4"/>
<!-- Node1 -->
<g id="node1" class="node">
<title>Node1</title>
<g id="a_node1"><a xlink:title="Pointer (possibly null) for the flow::util::Task_engine used by any coming async I/O calls and inheri...">
<polygon fill="#bfbfbf" stroke="black" points="315,-29 315,-55 443,-55 443,-29 315,-29"/>
<text text-anchor="start" x="323" y="-44.6" font-family="Helvetica,sans-Serif" font-size="8.00">flow::net_flow::asio</text>
<text text-anchor="middle" x="379" y="-35.6" font-family="Helvetica,sans-Serif" font-size="8.00">::Node::async_task_engine</text>
</a>
</g>
</g>
<!-- Node2 -->
<g id="node2" class="node">
<title>Node2</title>
<g id="a_node2"><a xlink:href="classflow_1_1net__flow_1_1asio_1_1Node.html#aecac8b38cd35267b1af57e2443a55ea0" target="_top" xlink:title="Implementation core of async_connect*() that gets rid of templated or missing arguments thereof.">
<polygon fill="white" stroke="black" points="147,-52 147,-78 279,-78 279,-52 147,-52"/>
<text text-anchor="start" x="155" y="-67.6" font-family="Helvetica,sans-Serif" font-size="8.00">flow::net_flow::asio</text>
<text text-anchor="middle" x="213" y="-58.6" font-family="Helvetica,sans-Serif" font-size="8.00">::Node::async_connect_impl</text>
</a>
</g>
</g>
<!-- Node1&#45;&gt;Node2 -->
<g id="edge1" class="edge">
<title>Node1&#45;&gt;Node2</title>
<path fill="none" stroke="midnightblue" d="M304.68,-52.28C296.17,-53.48 287.53,-54.69 279.13,-55.87"/>
<polygon fill="midnightblue" stroke="midnightblue" points="305.18,-55.75 314.59,-50.89 304.2,-48.82 305.18,-55.75"/>
</g>
<!-- Node5 -->
<g id="node5" class="node">
<title>Node5</title>
<g id="a_node5"><a xlink:href="classflow_1_1net__flow_1_1asio_1_1Node.html#ad0b99ea857df0cbbf2b26f6c84e8863a" target="_top" xlink:title="Returns a functor that essentially performs post() on_result onto *async_task_engine() in a way suita...">
<polygon fill="white" stroke="black" points="161,-7 161,-33 265,-33 265,-7 161,-7"/>
<text text-anchor="start" x="169" y="-22.6" font-family="Helvetica,sans-Serif" font-size="8.00">flow::net_flow::asio</text>
<text text-anchor="middle" x="213" y="-13.6" font-family="Helvetica,sans-Serif" font-size="8.00">::Node::handler_func</text>
</a>
</g>
</g>
<!-- Node1&#45;&gt;Node5 -->
<g id="edge4" class="edge">
<title>Node1&#45;&gt;Node5</title>
<path fill="none" stroke="midnightblue" d="M304.49,-32.14C291.17,-30.35 277.55,-28.53 265.05,-26.85"/>
<polygon fill="midnightblue" stroke="midnightblue" points="304.22,-35.63 314.59,-33.49 305.15,-28.7 304.22,-35.63"/>
</g>
<!-- Node3 -->
<g id="node3" class="node">
<title>Node3</title>
<g id="a_node3"><a xlink:href="classflow_1_1net__flow_1_1asio_1_1Node.html#a97d21b9a18651cd234589f3b0b6d2971" target="_top" xlink:title="The boost.asio asynchronous version of sync_connect(), performing any necessary wait and connection i...">
<polygon fill="white" stroke="black" points="0,-55 0,-81 111,-81 111,-55 0,-55"/>
<text text-anchor="start" x="8" y="-70.6" font-family="Helvetica,sans-Serif" font-size="8.00">flow::net_flow::asio</text>
<text text-anchor="middle" x="55.5" y="-61.6" font-family="Helvetica,sans-Serif" font-size="8.00">::Node::async_connect</text>
</a>
</g>
</g>
<!-- Node2&#45;&gt;Node3 -->
<g id="edge2" class="edge">
<title>Node2&#45;&gt;Node3</title>
<path fill="none" stroke="midnightblue" d="M136.91,-66.45C128.32,-66.61 119.68,-66.78 111.43,-66.94"/>
<polygon fill="midnightblue" stroke="midnightblue" points="137.02,-69.95 146.95,-66.25 136.89,-62.95 137.02,-69.95"/>
</g>
<!-- Node4 -->
<g id="node4" class="node">
<title>Node4</title>
<g id="a_node4"><a xlink:href="classflow_1_1net__flow_1_1asio_1_1Node.html#af8ae97d499f6de21140b89218e52fc4c" target="_top" xlink:title="A combination of async_connect() and connect_with_metadata() (asynchronously blocking connect,...">
<polygon fill="white" stroke="black" points="0,-0.5 0,-35.5 111,-35.5 111,-0.5 0,-0.5"/>
<text text-anchor="start" x="8" y="-25.1" font-family="Helvetica,sans-Serif" font-size="8.00">flow::net_flow::asio</text>
<text text-anchor="start" x="8" y="-16.1" font-family="Helvetica,sans-Serif" font-size="8.00">::Node::async_connect</text>
<text text-anchor="middle" x="55.5" y="-7.1" font-family="Helvetica,sans-Serif" font-size="8.00">_with_metadata</text>
</a>
</g>
</g>
<!-- Node2&#45;&gt;Node4 -->
<g id="edge3" class="edge">
<title>Node2&#45;&gt;Node4</title>
<path fill="none" stroke="midnightblue" d="M158.83,-48.93C143.48,-44.29 126.7,-39.22 111.25,-34.55"/>
<polygon fill="midnightblue" stroke="midnightblue" points="158.1,-52.36 168.68,-51.91 160.12,-45.66 158.1,-52.36"/>
</g>
<!-- Node5&#45;&gt;Node3 -->
<g id="edge5" class="edge">
<title>Node5&#45;&gt;Node3</title>
<path fill="none" stroke="midnightblue" d="M159.69,-36.15C139.83,-42.28 117.48,-49.18 98.67,-54.98"/>
<polygon fill="midnightblue" stroke="midnightblue" points="160.99,-39.41 169.51,-33.12 158.92,-32.72 160.99,-39.41"/>
</g>
<!-- Node5&#45;&gt;Node4 -->
<g id="edge6" class="edge">
<title>Node5&#45;&gt;Node4</title>
<path fill="none" stroke="midnightblue" d="M150.44,-19.21C137.5,-19.04 123.94,-18.87 111.27,-18.7"/>
<polygon fill="midnightblue" stroke="midnightblue" points="150.61,-22.71 160.65,-19.34 150.7,-15.71 150.61,-22.71"/>
</g>
</g>
</svg>
