<?xml version="1.0" encoding="UTF-8" standalone="no"?>
<!DOCTYPE svg PUBLIC "-//W3C//DTD SVG 1.1//EN"
 "http://www.w3.org/Graphics/SVG/1.1/DTD/svg11.dtd">
<!-- Generated by graphviz version 2.43.0 (0)
 -->
<!-- Title: flow::net_flow::error::Category::message Pages: 1 -->
<svg width="373pt" height="98pt"
 viewBox="0.00 0.00 373.00 98.00" xmlns="http://www.w3.org/2000/svg" xmlns:xlink="http://www.w3.org/1999/xlink">
<g id="graph0" class="graph" transform="scale(1 1) rotate(0) translate(4 94)">
<title>flow::net_flow::error::Category::message</title>
<polygon fill="white" stroke="transparent" points="-4,4 -4,-94 369,-94 369,4 -4,4"/>
<!-- Node1 -->
<g id="node1" class="node">
<title>Node1</title>
<g id="a_node1"><a xlink:title="Implements superclass API: given the integer error code of an error in this category,...">
<polygon fill="#bfbfbf" stroke="black" points="0,-22.5 0,-48.5 103,-48.5 103,-22.5 0,-22.5"/>
<text text-anchor="start" x="8" y="-38.1" font-family="Helvetica,sans-Serif" font-size="8.00">flow::net_flow::error</text>
<text text-anchor="middle" x="51.5" y="-29.1" font-family="Helvetica,sans-Serif" font-size="8.00">::Category::message</text>
</a>
</g>
</g>
<!-- Node2 -->
<g id="node2" class="node">
<title>Node2</title>
<g id="a_node2"><a xlink:href="namespaceflow_1_1util.html#a8afd30c50bcd670d45442df49d1da484" target="_top" xlink:title="Writes to the specified string, as if the given arguments were each passed, via &lt;&lt; in sequence,...">
<polygon fill="white" stroke="black" points="139,-22.5 139,-48.5 231,-48.5 231,-22.5 139,-22.5"/>
<text text-anchor="start" x="147" y="-38.1" font-family="Helvetica,sans-Serif" font-size="8.00">flow::util::ostream</text>
<text text-anchor="middle" x="185" y="-29.1" font-family="Helvetica,sans-Serif" font-size="8.00">_op_to_string</text>
</a>
</g>
</g>
<!-- Node1&#45;&gt;Node2 -->
<g id="edge1" class="edge">
<title>Node1&#45;&gt;Node2</title>
<path fill="none" stroke="midnightblue" d="M103.34,-35.5C111.67,-35.5 120.33,-35.5 128.75,-35.5"/>
<polygon fill="midnightblue" stroke="midnightblue" points="128.87,-39 138.87,-35.5 128.87,-32 128.87,-39"/>
</g>
<!-- Node3 -->
<g id="node3" class="node">
<title>Node3</title>
<g id="a_node3"><a xlink:href="namespaceflow_1_1util.html#af92e6183c2071f4166d4b5a91f50d70c" target="_top" xlink:title="&quot;Induction step&quot; version of variadic function template that simply outputs arguments 2+ via &lt;&lt; to the...">
<polygon fill="white" stroke="black" points="267,-45.5 267,-71.5 365,-71.5 365,-45.5 267,-45.5"/>
<text text-anchor="start" x="275" y="-61.1" font-family="Helvetica,sans-Serif" font-size="8.00">flow::util::feed_args</text>
<text text-anchor="middle" x="316" y="-52.1" font-family="Helvetica,sans-Serif" font-size="8.00">_to_ostream</text>
</a>
</g>
</g>
<!-- Node2&#45;&gt;Node3 -->
<g id="edge2" class="edge">
<title>Node2&#45;&gt;Node3</title>
<path fill="none" stroke="midnightblue" d="M231.12,-43.54C239.37,-45.02 248.09,-46.57 256.66,-48.1"/>
<polygon fill="midnightblue" stroke="midnightblue" points="256.16,-51.56 266.62,-49.87 257.38,-44.67 256.16,-51.56"/>
</g>
<!-- Node4 -->
<g id="node4" class="node">
<title>Node4</title>
<g id="a_node4"><a xlink:href="classflow_1_1util_1_1String__ostream.html#a7e64b069ae0e221952068c13fdc0f080" target="_top" xlink:title="Access to stream that will write to owned string.">
<polygon fill="white" stroke="black" points="275,-0.5 275,-26.5 357,-26.5 357,-0.5 275,-0.5"/>
<text text-anchor="start" x="283" y="-16.1" font-family="Helvetica,sans-Serif" font-size="8.00">flow::util::String</text>
<text text-anchor="middle" x="316" y="-7.1" font-family="Helvetica,sans-Serif" font-size="8.00">_ostream::os</text>
</a>
</g>
</g>
<!-- Node2&#45;&gt;Node4 -->
<g id="edge4" class="edge">
<title>Node2&#45;&gt;Node4</title>
<path fill="none" stroke="midnightblue" d="M231.12,-27.81C242.02,-25.95 253.74,-23.95 264.86,-22.05"/>
<polygon fill="midnightblue" stroke="midnightblue" points="265.59,-25.48 274.86,-20.35 264.41,-18.58 265.59,-25.48"/>
</g>
<!-- Node3&#45;&gt;Node3 -->
<g id="edge3" class="edge">
<title>Node3&#45;&gt;Node3</title>
<path fill="none" stroke="midnightblue" d="M294.01,-71.77C287.34,-80.96 294.67,-90 316,-90 329,-90 336.8,-86.64 339.4,-81.94"/>
<polygon fill="midnightblue" stroke="midnightblue" points="342.83,-81.2 337.99,-71.77 335.89,-82.16 342.83,-81.2"/>
</g>
</g>
</svg>
