<?xml version="1.0" encoding="UTF-8" standalone="no"?>
<!DOCTYPE svg PUBLIC "-//W3C//DTD SVG 1.1//EN"
 "http://www.w3.org/Graphics/SVG/1.1/DTD/svg11.dtd">
<!-- Generated by graphviz version 2.43.0 (0)
 -->
<!-- Title: flow::async::Task_qing_thread::Task_qing_thread Pages: 1 -->
<svg width="724pt" height="152pt"
 viewBox="0.00 0.00 724.00 152.00" xmlns="http://www.w3.org/2000/svg" xmlns:xlink="http://www.w3.org/1999/xlink">
<g id="graph0" class="graph" transform="scale(1 1) rotate(0) translate(4 148)">
<title>flow::async::Task_qing_thread::Task_qing_thread</title>
<polygon fill="white" stroke="transparent" points="-4,4 -4,-148 720,-148 720,4 -4,4"/>
<!-- Node1 -->
<g id="node1" class="node">
<title>Node1</title>
<g id="a_node1"><a xlink:title="Constructs object, immediately spawning new (worker) thread, memorizing a ref&#45;counted reference to th...">
<polygon fill="#bfbfbf" stroke="black" points="0,-59 0,-85 124,-85 124,-59 0,-59"/>
<text text-anchor="start" x="8" y="-74.6" font-family="Helvetica,sans-Serif" font-size="8.00">flow::async::Task_qing</text>
<text text-anchor="middle" x="62" y="-65.6" font-family="Helvetica,sans-Serif" font-size="8.00">_thread::Task_qing_thread</text>
</a>
</g>
</g>
<!-- Node2 -->
<g id="node2" class="node">
<title>Node2</title>
<g id="a_node2"><a xlink:href="namespaceflow_1_1log.html#aaaaa1dcbf7c8dc99aceb2b6c217187fc" target="_top" xlink:title="Sets certain chrono&#45;related formatting on the given Logger in the current thread that results in a co...">
<polygon fill="white" stroke="black" points="164.5,-79.5 164.5,-114.5 262.5,-114.5 262.5,-79.5 164.5,-79.5"/>
<text text-anchor="start" x="172.5" y="-104.1" font-family="Helvetica,sans-Serif" font-size="8.00">flow::log::beautify</text>
<text text-anchor="start" x="172.5" y="-95.1" font-family="Helvetica,sans-Serif" font-size="8.00">_chrono_logger_this</text>
<text text-anchor="middle" x="213.5" y="-86.1" font-family="Helvetica,sans-Serif" font-size="8.00">_thread</text>
</a>
</g>
</g>
<!-- Node1&#45;&gt;Node2 -->
<g id="edge1" class="edge">
<title>Node1&#45;&gt;Node2</title>
<path fill="none" stroke="midnightblue" d="M124.24,-82.24C134.17,-83.9 144.44,-85.62 154.3,-87.27"/>
<polygon fill="midnightblue" stroke="midnightblue" points="153.95,-90.76 164.4,-88.96 155.11,-83.85 153.95,-90.76"/>
</g>
<!-- Node10 -->
<g id="node10" class="node">
<title>Node10</title>
<g id="a_node10"><a xlink:href="classflow_1_1log_1_1Log__context.html#af4db395042b065b00398cd59845dcb4d" target="_top" xlink:title="Returns the stored Logger pointer, particularly as many FLOW_LOG_*() macros expect.">
<polygon fill="white" stroke="black" points="160,-34 160,-60 267,-60 267,-34 160,-34"/>
<text text-anchor="start" x="168" y="-49.6" font-family="Helvetica,sans-Serif" font-size="8.00">flow::log::Log_context</text>
<text text-anchor="middle" x="213.5" y="-40.6" font-family="Helvetica,sans-Serif" font-size="8.00">::get_logger</text>
</a>
</g>
</g>
<!-- Node1&#45;&gt;Node10 -->
<g id="edge9" class="edge">
<title>Node1&#45;&gt;Node10</title>
<path fill="none" stroke="midnightblue" d="M124.24,-61.76C132.61,-60.36 141.21,-58.92 149.61,-57.52"/>
<polygon fill="midnightblue" stroke="midnightblue" points="150.44,-60.93 159.72,-55.83 149.28,-54.02 150.44,-60.93"/>
</g>
<!-- Node3 -->
<g id="node3" class="node">
<title>Node3</title>
<g id="a_node3"><a xlink:href="namespaceflow_1_1util.html#a0955a29930075ac1fe393896c089b911" target="_top" xlink:title="Sets certain chrono&#45;related formatting on the given ostream that results in a consistent,...">
<polygon fill="white" stroke="black" points="307,-108 307,-134 399,-134 399,-108 307,-108"/>
<text text-anchor="start" x="315" y="-123.6" font-family="Helvetica,sans-Serif" font-size="8.00">flow::util::beautify</text>
<text text-anchor="middle" x="353" y="-114.6" font-family="Helvetica,sans-Serif" font-size="8.00">_chrono_ostream</text>
</a>
</g>
</g>
<!-- Node2&#45;&gt;Node3 -->
<g id="edge2" class="edge">
<title>Node2&#45;&gt;Node3</title>
<path fill="none" stroke="midnightblue" d="M262.59,-105.39C273.73,-107.34 285.67,-109.42 297.08,-111.41"/>
<polygon fill="midnightblue" stroke="midnightblue" points="296.48,-114.86 306.94,-113.13 297.69,-107.97 296.48,-114.86"/>
</g>
<!-- Node5 -->
<g id="node5" class="node">
<title>Node5</title>
<g id="a_node5"><a xlink:href="classflow_1_1log_1_1Logger.html#ad6ead44c19a7b15111b2f77656a2ea31" target="_top" xlink:title="Returns the stream dedicated to the executing thread and this Logger, so that the caller can apply st...">
<polygon fill="white" stroke="black" points="303,-59 303,-85 403,-85 403,-59 303,-59"/>
<text text-anchor="start" x="311" y="-74.6" font-family="Helvetica,sans-Serif" font-size="8.00">flow::log::Logger::</text>
<text text-anchor="middle" x="353" y="-65.6" font-family="Helvetica,sans-Serif" font-size="8.00">this_thread_ostream</text>
</a>
</g>
</g>
<!-- Node2&#45;&gt;Node5 -->
<g id="edge4" class="edge">
<title>Node2&#45;&gt;Node5</title>
<path fill="none" stroke="midnightblue" d="M262.59,-88.26C272.35,-86.48 282.72,-84.6 292.81,-82.76"/>
<polygon fill="midnightblue" stroke="midnightblue" points="293.56,-86.18 302.77,-80.95 292.31,-79.3 293.56,-86.18"/>
</g>
<!-- Node4 -->
<g id="node4" class="node">
<title>Node4</title>
<g id="a_node4"><a xlink:href="classflow_1_1util_1_1Duration__units__beautified.html#aa689f853f75e06263d6875ae5824a4c6" target="_top" xlink:title="Returns a reference to a locale that – if imbued onto an ostream – equals std::locale::classic except...">
<polygon fill="white" stroke="black" points="440.5,-108.5 440.5,-143.5 574.5,-143.5 574.5,-108.5 440.5,-108.5"/>
<text text-anchor="start" x="448.5" y="-133.1" font-family="Helvetica,sans-Serif" font-size="8.00">flow::util::Duration</text>
<text text-anchor="start" x="448.5" y="-124.1" font-family="Helvetica,sans-Serif" font-size="8.00">_units_beautified::beautified</text>
<text text-anchor="middle" x="507.5" y="-115.1" font-family="Helvetica,sans-Serif" font-size="8.00">_locale</text>
</a>
</g>
</g>
<!-- Node3&#45;&gt;Node4 -->
<g id="edge3" class="edge">
<title>Node3&#45;&gt;Node4</title>
<path fill="none" stroke="midnightblue" d="M399.34,-122.49C409.12,-122.81 419.72,-123.15 430.32,-123.5"/>
<polygon fill="midnightblue" stroke="midnightblue" points="430.34,-127 440.45,-123.83 430.57,-120.01 430.34,-127"/>
</g>
<!-- Node6 -->
<g id="node6" class="node">
<title>Node6</title>
<g id="a_node6"><a xlink:href="classflow_1_1log_1_1Thread__local__string__appender.html#a64383811f529af676dde0028f61831f7" target="_top" xlink:title="Same as fresh_appender_ostream() but does not clear the result string, enabling piecemeal writing to ...">
<polygon fill="white" stroke="black" points="441,-54.5 441,-89.5 574,-89.5 574,-54.5 441,-54.5"/>
<text text-anchor="start" x="449" y="-79.1" font-family="Helvetica,sans-Serif" font-size="8.00">flow::log::Thread_local</text>
<text text-anchor="start" x="449" y="-70.1" font-family="Helvetica,sans-Serif" font-size="8.00">_string_appender::appender</text>
<text text-anchor="middle" x="507.5" y="-61.1" font-family="Helvetica,sans-Serif" font-size="8.00">_ostream</text>
</a>
</g>
</g>
<!-- Node5&#45;&gt;Node6 -->
<g id="edge5" class="edge">
<title>Node5&#45;&gt;Node6</title>
<path fill="none" stroke="midnightblue" d="M403.09,-72C411.92,-72 421.3,-72 430.67,-72"/>
<polygon fill="midnightblue" stroke="midnightblue" points="430.81,-75.5 440.81,-72 430.81,-68.5 430.81,-75.5"/>
</g>
<!-- Node8 -->
<g id="node8" class="node">
<title>Node8</title>
<g id="a_node8"><a xlink:href="classflow_1_1log_1_1Thread__local__string__appender.html#a4c67bd1c2f1ccc58288df86abda02d88" target="_top" xlink:title="Returns a pointer to the exactly one Thread_local_string_appender object that is accessible from the ...">
<polygon fill="white" stroke="black" points="439,-0.5 439,-35.5 576,-35.5 576,-0.5 439,-0.5"/>
<text text-anchor="start" x="447" y="-25.1" font-family="Helvetica,sans-Serif" font-size="8.00">flow::log::Thread_local</text>
<text text-anchor="start" x="447" y="-16.1" font-family="Helvetica,sans-Serif" font-size="8.00">_string_appender::get</text>
<text text-anchor="middle" x="507.5" y="-7.1" font-family="Helvetica,sans-Serif" font-size="8.00">_this_thread_string_appender</text>
</a>
</g>
</g>
<!-- Node5&#45;&gt;Node8 -->
<g id="edge7" class="edge">
<title>Node5&#45;&gt;Node8</title>
<path fill="none" stroke="midnightblue" d="M390.92,-58.93C407.88,-52.92 428.43,-45.64 447.46,-38.9"/>
<polygon fill="midnightblue" stroke="midnightblue" points="448.7,-42.18 456.96,-35.54 446.36,-35.58 448.7,-42.18"/>
</g>
<!-- Node7 -->
<g id="node7" class="node">
<title>Node7</title>
<g id="a_node7"><a xlink:href="classflow_1_1util_1_1String__ostream.html#a7e64b069ae0e221952068c13fdc0f080" target="_top" xlink:title="Access to stream that will write to owned string.">
<polygon fill="white" stroke="black" points="623,-59 623,-85 705,-85 705,-59 623,-59"/>
<text text-anchor="start" x="631" y="-74.6" font-family="Helvetica,sans-Serif" font-size="8.00">flow::util::String</text>
<text text-anchor="middle" x="664" y="-65.6" font-family="Helvetica,sans-Serif" font-size="8.00">_ostream::os</text>
</a>
</g>
</g>
<!-- Node6&#45;&gt;Node7 -->
<g id="edge6" class="edge">
<title>Node6&#45;&gt;Node7</title>
<path fill="none" stroke="midnightblue" d="M574.02,-72C587,-72 600.43,-72 612.8,-72"/>
<polygon fill="midnightblue" stroke="midnightblue" points="612.91,-75.5 622.91,-72 612.91,-68.5 612.91,-75.5"/>
</g>
<!-- Node9 -->
<g id="node9" class="node">
<title>Node9</title>
<g id="a_node9"><a xlink:href="classflow_1_1util_1_1Unique__id__holder.html#a24742b697933e623df30056aebbebfae" target="_top" xlink:title="Raw unique ID identifying this object as well as any object of a derived type.">
<polygon fill="white" stroke="black" points="612,-5 612,-31 716,-31 716,-5 612,-5"/>
<text text-anchor="start" x="620" y="-20.6" font-family="Helvetica,sans-Serif" font-size="8.00">flow::util::Unique</text>
<text text-anchor="middle" x="664" y="-11.6" font-family="Helvetica,sans-Serif" font-size="8.00">_id_holder::unique_id</text>
</a>
</g>
</g>
<!-- Node8&#45;&gt;Node9 -->
<g id="edge8" class="edge">
<title>Node8&#45;&gt;Node9</title>
<path fill="none" stroke="midnightblue" d="M576.27,-18C584.59,-18 593.06,-18 601.29,-18"/>
<polygon fill="midnightblue" stroke="midnightblue" points="601.55,-21.5 611.55,-18 601.55,-14.5 601.55,-21.5"/>
</g>
</g>
</svg>
