<?xml version="1.0" encoding="UTF-8" standalone="no"?>
<!DOCTYPE svg PUBLIC "-//W3C//DTD SVG 1.1//EN"
 "http://www.w3.org/Graphics/SVG/1.1/DTD/svg11.dtd">
<!-- Generated by graphviz version 2.43.0 (0)
 -->
<!-- Title: flow::async::Timed_concurrent_task_loop_impl::asio_handler_timed Pages: 1 -->
<svg width="599pt" height="58pt"
 viewBox="0.00 0.00 599.00 57.50" xmlns="http://www.w3.org/2000/svg" xmlns:xlink="http://www.w3.org/1999/xlink">
<g id="graph0" class="graph" transform="scale(1 1) rotate(0) translate(4 53.5)">
<title>flow::async::Timed_concurrent_task_loop_impl::asio_handler_timed</title>
<polygon fill="white" stroke="transparent" points="-4,4 -4,-53.5 595,-53.5 595,4 -4,4"/>
<!-- Node1 -->
<g id="node1" class="node">
<title>Node1</title>
<g id="a_node1"><a xlink:title="Given a boost.asio completion handler handler for a boost.asio async_*() action on some boost....">
<polygon fill="#bfbfbf" stroke="black" points="0,-0.5 0,-35.5 123,-35.5 123,-0.5 0,-0.5"/>
<text text-anchor="start" x="8" y="-25.1" font-family="Helvetica,sans-Serif" font-size="8.00">flow::async::Timed</text>
<text text-anchor="start" x="8" y="-16.1" font-family="Helvetica,sans-Serif" font-size="8.00">_concurrent_task_loop</text>
<text text-anchor="middle" x="61.5" y="-7.1" font-family="Helvetica,sans-Serif" font-size="8.00">_impl::asio_handler_timed</text>
</a>
</g>
</g>
<!-- Node2 -->
<g id="node2" class="node">
<title>Node2</title>
<g id="a_node2"><a xlink:href="namespaceflow_1_1perf.html#a7a3694bcd6e4bd506715d5931bc0c009" target="_top" xlink:title="Identical to timed_function() but suitable for boost.asio&#45;targeted handler functions.">
<polygon fill="white" stroke="black" points="159,-9.5 159,-26.5 278,-26.5 278,-9.5 159,-9.5"/>
<text text-anchor="middle" x="218.5" y="-16.1" font-family="Helvetica,sans-Serif" font-size="8.00">flow::perf::timed_handler</text>
</a>
</g>
</g>
<!-- Node1&#45;&gt;Node2 -->
<g id="edge1" class="edge">
<title>Node1&#45;&gt;Node2</title>
<path fill="none" stroke="midnightblue" d="M123.32,-18C131.64,-18 140.23,-18 148.68,-18"/>
<polygon fill="midnightblue" stroke="midnightblue" points="148.89,-21.5 158.89,-18 148.89,-14.5 148.89,-21.5"/>
</g>
<!-- Node3 -->
<g id="node3" class="node">
<title>Node3</title>
<g id="a_node3"><a xlink:href="namespaceflow_1_1perf.html#a0dee22ec7bf250bbbf556a7e15c1f784" target="_top" xlink:title="Constructs a closure that times and executes void&#45;returning function(), adding the elapsed time with ...">
<polygon fill="white" stroke="black" points="314,-9.5 314,-26.5 436,-26.5 436,-9.5 314,-9.5"/>
<text text-anchor="middle" x="375" y="-16.1" font-family="Helvetica,sans-Serif" font-size="8.00">flow::perf::timed_function</text>
</a>
</g>
</g>
<!-- Node2&#45;&gt;Node3 -->
<g id="edge2" class="edge">
<title>Node2&#45;&gt;Node3</title>
<path fill="none" stroke="midnightblue" d="M278.35,-18C286.6,-18 295.14,-18 303.57,-18"/>
<polygon fill="midnightblue" stroke="midnightblue" points="303.78,-21.5 313.78,-18 303.78,-14.5 303.78,-21.5"/>
</g>
<!-- Node4 -->
<g id="node4" class="node">
<title>Node4</title>
<g id="a_node4"><a xlink:href="classflow_1_1perf_1_1Checkpointing__timer.html#a3b73f2812c2bf6a27ef2becc13859d73" target="_top" xlink:title="Sample all currently enabled Clock_types&#39; clocks and return those values, each of which is a time sta...">
<polygon fill="white" stroke="black" points="472,-5 472,-31 591,-31 591,-5 472,-5"/>
<text text-anchor="start" x="480" y="-20.6" font-family="Helvetica,sans-Serif" font-size="8.00">flow::perf::Checkpointing</text>
<text text-anchor="middle" x="531.5" y="-11.6" font-family="Helvetica,sans-Serif" font-size="8.00">_timer::now</text>
</a>
</g>
</g>
<!-- Node3&#45;&gt;Node4 -->
<g id="edge3" class="edge">
<title>Node3&#45;&gt;Node4</title>
<path fill="none" stroke="midnightblue" d="M436.18,-18C444.49,-18 453.08,-18 461.54,-18"/>
<polygon fill="midnightblue" stroke="midnightblue" points="461.76,-21.5 471.76,-18 461.76,-14.5 461.76,-21.5"/>
</g>
<!-- Node4&#45;&gt;Node4 -->
<g id="edge4" class="edge">
<title>Node4&#45;&gt;Node4</title>
<path fill="none" stroke="midnightblue" d="M505.11,-31.27C497.11,-40.46 505.91,-49.5 531.5,-49.5 547.1,-49.5 556.46,-46.14 559.58,-41.44"/>
<polygon fill="midnightblue" stroke="midnightblue" points="562.98,-40.56 557.89,-31.27 556.07,-41.71 562.98,-40.56"/>
</g>
</g>
</svg>
