<?xml version="1.0" encoding="UTF-8" standalone="no"?>
<!DOCTYPE svg PUBLIC "-//W3C//DTD SVG 1.1//EN"
 "http://www.w3.org/Graphics/SVG/1.1/DTD/svg11.dtd">
<!-- Generated by graphviz version 2.43.0 (0)
 -->
<!-- Title: flow::net_flow::Node::setup_drop_timer Pages: 1 -->
<svg width="1107pt" height="958pt"
 viewBox="0.00 0.00 1107.00 957.50" xmlns="http://www.w3.org/2000/svg" xmlns:xlink="http://www.w3.org/1999/xlink">
<g id="graph0" class="graph" transform="scale(1 1) rotate(0) translate(4 953.5)">
<title>flow::net_flow::Node::setup_drop_timer</title>
<polygon fill="white" stroke="transparent" points="-4,4 -4,-953.5 1103,-953.5 1103,4 -4,4"/>
<!-- Node1 -->
<g id="node1" class="node">
<title>Node1</title>
<g id="a_node1"><a xlink:title="Creates a new Drop Timer and saves it to sock&#45;&gt;m_snd_drop_timer.">
<polygon fill="#bfbfbf" stroke="black" points="0,-379 0,-405 101,-405 101,-379 0,-379"/>
<text text-anchor="start" x="8" y="-394.6" font-family="Helvetica,sans-Serif" font-size="8.00">flow::net_flow::Node</text>
<text text-anchor="middle" x="50.5" y="-385.6" font-family="Helvetica,sans-Serif" font-size="8.00">::setup_drop_timer</text>
</a>
</g>
</g>
<!-- Node2 -->
<g id="node2" class="node">
<title>Node2</title>
<g id="a_node2"><a xlink:href="classflow_1_1net__flow_1_1Drop__timer.html#a64def367e38954d8a392cdf92fcc8f24" target="_top" xlink:title="Constructs Drop_timer and returns a ref&#45;counted pointer wrapping it.">
<polygon fill="white" stroke="black" points="140.5,-745 140.5,-771 261.5,-771 261.5,-745 140.5,-745"/>
<text text-anchor="start" x="148.5" y="-760.6" font-family="Helvetica,sans-Serif" font-size="8.00">flow::net_flow::Drop</text>
<text text-anchor="middle" x="201" y="-751.6" font-family="Helvetica,sans-Serif" font-size="8.00">_timer::create_drop_timer</text>
</a>
</g>
</g>
<!-- Node1&#45;&gt;Node2 -->
<g id="edge1" class="edge">
<title>Node1&#45;&gt;Node2</title>
<path fill="none" stroke="midnightblue" d="M55.09,-405.1C65.62,-442.84 98.14,-554.73 137,-643 151.77,-676.54 172.88,-713.38 186.51,-736.1"/>
<polygon fill="midnightblue" stroke="midnightblue" points="183.68,-738.19 191.86,-744.92 189.67,-734.56 183.68,-738.19"/>
</g>
<!-- Node4 -->
<g id="node4" class="node">
<title>Node4</title>
<g id="a_node4"><a xlink:href="classflow_1_1net__flow_1_1Node.html#affbc6abb1e344c6e98d3ac8068a54670" target="_top" xlink:title="Handles a Drop_timer (Peer_socket::m_snd_drop_timer) event in ESTABLISHED state by dropping the speci...">
<polygon fill="white" stroke="black" points="150.5,-607 150.5,-633 251.5,-633 251.5,-607 150.5,-607"/>
<text text-anchor="start" x="158.5" y="-622.6" font-family="Helvetica,sans-Serif" font-size="8.00">flow::net_flow::Node</text>
<text text-anchor="middle" x="201" y="-613.6" font-family="Helvetica,sans-Serif" font-size="8.00">::drop_timer_action</text>
</a>
</g>
</g>
<!-- Node1&#45;&gt;Node4 -->
<g id="edge3" class="edge">
<title>Node1&#45;&gt;Node4</title>
<path fill="none" stroke="midnightblue" d="M60.13,-405.24C84.73,-443.02 155.44,-551.58 185.83,-598.25"/>
<polygon fill="midnightblue" stroke="midnightblue" points="182.96,-600.25 191.35,-606.72 188.83,-596.43 182.96,-600.25"/>
</g>
<!-- Node7 -->
<g id="node7" class="node">
<title>Node7</title>
<g id="a_node7"><a xlink:href="classflow_1_1log_1_1Log__context.html#af4db395042b065b00398cd59845dcb4d" target="_top" xlink:title="Returns the stored Logger pointer, particularly as many FLOW_LOG_*() macros expect.">
<polygon fill="white" stroke="black" points="852.5,-287 852.5,-313 959.5,-313 959.5,-287 852.5,-287"/>
<text text-anchor="start" x="860.5" y="-302.6" font-family="Helvetica,sans-Serif" font-size="8.00">flow::log::Log_context</text>
<text text-anchor="middle" x="906" y="-293.6" font-family="Helvetica,sans-Serif" font-size="8.00">::get_logger</text>
</a>
</g>
</g>
<!-- Node1&#45;&gt;Node7 -->
<g id="edge6" class="edge">
<title>Node1&#45;&gt;Node7</title>
<path fill="none" stroke="midnightblue" d="M101.2,-404.45C205.35,-427.69 451.02,-467.23 622,-373 646.94,-359.26 633.39,-334.33 658,-320 713.94,-287.42 789.45,-286.23 842.2,-290.78"/>
<polygon fill="midnightblue" stroke="midnightblue" points="842.15,-294.29 852.44,-291.76 842.81,-287.33 842.15,-294.29"/>
</g>
<!-- Node8 -->
<g id="node8" class="node">
<title>Node8</title>
<g id="a_node8"><a xlink:href="classflow_1_1net__flow_1_1Node.html#afe70a0c32695e417e7a09e0ba773f151" target="_top" xlink:title="Asynchronously send RST to the other side of the given socket and close_connection_immediately().">
<polygon fill="white" stroke="black" points="137,-186.5 137,-221.5 265,-221.5 265,-186.5 137,-186.5"/>
<text text-anchor="start" x="145" y="-211.1" font-family="Helvetica,sans-Serif" font-size="8.00">flow::net_flow::Node</text>
<text text-anchor="start" x="145" y="-202.1" font-family="Helvetica,sans-Serif" font-size="8.00">::rst_and_close_connection</text>
<text text-anchor="middle" x="201" y="-193.1" font-family="Helvetica,sans-Serif" font-size="8.00">_immediately</text>
</a>
</g>
</g>
<!-- Node1&#45;&gt;Node8 -->
<g id="edge7" class="edge">
<title>Node1&#45;&gt;Node8</title>
<path fill="none" stroke="midnightblue" d="M56.58,-378.76C67.72,-351.09 96.54,-286.19 137,-244 142.93,-237.82 150,-232.16 157.22,-227.17"/>
<polygon fill="midnightblue" stroke="midnightblue" points="159.26,-230.02 165.72,-221.62 155.43,-224.16 159.26,-230.02"/>
</g>
<!-- Node51 -->
<g id="node41" class="node">
<title>Node51</title>
<g id="a_node41"><a xlink:href="classflow_1_1net__flow_1_1Node.html#a99836ffb51eaefa4d2cc21770461cd97" target="_top" xlink:title="Constructs the socket pair (connection ID) for the given socket.">
<polygon fill="white" stroke="black" points="503,-112 503,-138 604,-138 604,-112 503,-112"/>
<text text-anchor="start" x="511" y="-127.6" font-family="Helvetica,sans-Serif" font-size="8.00">flow::net_flow::Node</text>
<text text-anchor="middle" x="553.5" y="-118.6" font-family="Helvetica,sans-Serif" font-size="8.00">::socket_id</text>
</a>
</g>
</g>
<!-- Node1&#45;&gt;Node51 -->
<g id="edge52" class="edge">
<title>Node1&#45;&gt;Node51</title>
<path fill="none" stroke="midnightblue" d="M80.33,-378.94C147.44,-348.03 318.31,-266.32 449,-178 466.26,-166.34 466.84,-158.2 485,-148 488.87,-145.83 492.98,-143.81 497.18,-141.95"/>
<polygon fill="midnightblue" stroke="midnightblue" points="498.57,-145.17 506.49,-138.13 495.91,-138.69 498.57,-145.17"/>
</g>
<!-- Node3 -->
<g id="node3" class="node">
<title>Node3</title>
<g id="a_node3"><a xlink:href="classflow_1_1net__flow_1_1Drop__timer.html#a40029643f0a6c7a2a6b20499ca4c5a67" target="_top" xlink:title="Called by boost.asio after we post it, in the event of some timer error.">
<polygon fill="white" stroke="black" points="326,-839 326,-865 424,-865 424,-839 326,-839"/>
<text text-anchor="start" x="334" y="-854.6" font-family="Helvetica,sans-Serif" font-size="8.00">flow::net_flow::Drop</text>
<text text-anchor="middle" x="375" y="-845.6" font-family="Helvetica,sans-Serif" font-size="8.00">_timer::timer_failure</text>
</a>
</g>
</g>
<!-- Node2&#45;&gt;Node3 -->
<g id="edge2" class="edge">
<title>Node2&#45;&gt;Node3</title>
<path fill="none" stroke="midnightblue" d="M219.16,-771.16C238.35,-785.45 270.72,-808.35 301,-824 308.8,-828.03 317.31,-831.81 325.69,-835.21"/>
<polygon fill="midnightblue" stroke="midnightblue" points="324.45,-838.49 335.04,-838.88 327.01,-831.97 324.45,-838.49"/>
</g>
<!-- Node5 -->
<g id="node5" class="node">
<title>Node5</title>
<g id="a_node5"><a xlink:href="classflow_1_1net__flow_1_1Peer__socket.html#a89d852e3722532d75006b024714a5cef" target="_top" xlink:title="Whether retransmission is enabled on this connection.">
<polygon fill="white" stroke="black" points="857.5,-756 857.5,-782 954.5,-782 954.5,-756 857.5,-756"/>
<text text-anchor="start" x="865.5" y="-771.6" font-family="Helvetica,sans-Serif" font-size="8.00">flow::net_flow::Peer</text>
<text text-anchor="middle" x="906" y="-762.6" font-family="Helvetica,sans-Serif" font-size="8.00">_socket::rexmit_on</text>
</a>
</g>
</g>
<!-- Node4&#45;&gt;Node5 -->
<g id="edge4" class="edge">
<title>Node4&#45;&gt;Node5</title>
<path fill="none" stroke="midnightblue" d="M216.84,-633.14C256.7,-667.43 370.81,-759.18 485,-791 610.59,-826 765.3,-801.47 847.42,-783.43"/>
<polygon fill="midnightblue" stroke="midnightblue" points="848.32,-786.82 857.31,-781.21 846.79,-779.99 848.32,-786.82"/>
</g>
<!-- Node6 -->
<g id="node6" class="node">
<title>Node6</title>
<g id="a_node6"><a xlink:href="classflow_1_1net__flow_1_1Peer__socket.html#accf6d724ed1f145716ae3d4567f582f3" target="_top" xlink:title="Analogous to Node::opt() but for per&#45;socket options.">
<polygon fill="white" stroke="black" points="1002,-756 1002,-782 1099,-782 1099,-756 1002,-756"/>
<text text-anchor="start" x="1010" y="-771.6" font-family="Helvetica,sans-Serif" font-size="8.00">flow::net_flow::Peer</text>
<text text-anchor="middle" x="1050.5" y="-762.6" font-family="Helvetica,sans-Serif" font-size="8.00">_socket::opt</text>
</a>
</g>
</g>
<!-- Node5&#45;&gt;Node6 -->
<g id="edge5" class="edge">
<title>Node5&#45;&gt;Node6</title>
<path fill="none" stroke="midnightblue" d="M954.85,-769C966.6,-769 979.3,-769 991.47,-769"/>
<polygon fill="midnightblue" stroke="midnightblue" points="991.54,-772.5 1001.54,-769 991.54,-765.5 991.54,-772.5"/>
</g>
<!-- Node9 -->
<g id="node9" class="node">
<title>Node9</title>
<g id="a_node9"><a xlink:href="classflow_1_1net__flow_1_1Node.html#ad03aa88df3d1d3981454ee3356e868c1" target="_top" xlink:title="Sends an RST to the other side of the given socket asynchronously when possible.">
<polygon fill="white" stroke="black" points="324.5,-65.5 324.5,-100.5 425.5,-100.5 425.5,-65.5 324.5,-65.5"/>
<text text-anchor="start" x="332.5" y="-90.1" font-family="Helvetica,sans-Serif" font-size="8.00">flow::net_flow::Node</text>
<text text-anchor="start" x="332.5" y="-81.1" font-family="Helvetica,sans-Serif" font-size="8.00">::async_sock_low_lvl</text>
<text text-anchor="middle" x="375" y="-72.1" font-family="Helvetica,sans-Serif" font-size="8.00">_rst_send</text>
</a>
</g>
</g>
<!-- Node8&#45;&gt;Node9 -->
<g id="edge8" class="edge">
<title>Node8&#45;&gt;Node9</title>
<path fill="none" stroke="midnightblue" d="M227.01,-186.41C256.95,-165.35 307.19,-130 340.47,-106.59"/>
<polygon fill="midnightblue" stroke="midnightblue" points="342.79,-109.23 348.96,-100.62 338.77,-103.51 342.79,-109.23"/>
</g>
<!-- Node21 -->
<g id="node13" class="node">
<title>Node21</title>
<g id="a_node13"><a xlink:href="classflow_1_1net__flow_1_1Node.html#ade49e7bc7202a0adf33fec2d93d1b177" target="_top" xlink:title="A thread W method that handles the transition of the given socket from OPEN (any sub&#45;state) to CLOSED...">
<polygon fill="white" stroke="black" points="301,-320 301,-346 449,-346 449,-320 301,-320"/>
<text text-anchor="start" x="309" y="-335.6" font-family="Helvetica,sans-Serif" font-size="8.00">flow::net_flow::Node</text>
<text text-anchor="middle" x="375" y="-326.6" font-family="Helvetica,sans-Serif" font-size="8.00">::close_connection_immediately</text>
</a>
</g>
</g>
<!-- Node8&#45;&gt;Node21 -->
<g id="edge14" class="edge">
<title>Node8&#45;&gt;Node21</title>
<path fill="none" stroke="midnightblue" d="M225.56,-221.67C257.65,-245.74 314.92,-288.69 348.16,-313.62"/>
<polygon fill="midnightblue" stroke="midnightblue" points="346.36,-316.64 356.46,-319.84 350.56,-311.04 346.36,-316.64"/>
</g>
<!-- Node8&#45;&gt;Node51 -->
<g id="edge51" class="edge">
<title>Node8&#45;&gt;Node51</title>
<path fill="none" stroke="midnightblue" d="M265.07,-189.79C329.8,-175.2 429.76,-152.67 493.11,-138.39"/>
<polygon fill="midnightblue" stroke="midnightblue" points="493.97,-141.78 502.95,-136.17 492.43,-134.95 493.97,-141.78"/>
</g>
<!-- Node9&#45;&gt;Node7 -->
<g id="edge13" class="edge">
<title>Node9&#45;&gt;Node7</title>
<path fill="none" stroke="midnightblue" d="M425.8,-79.5C526.12,-73.42 748.24,-65.17 810,-106 870,-145.67 893.42,-234.8 901.39,-277"/>
<polygon fill="midnightblue" stroke="midnightblue" points="897.95,-277.66 903.14,-286.9 904.85,-276.44 897.95,-277.66"/>
</g>
<!-- Node10 -->
<g id="node10" class="node">
<title>Node10</title>
<g id="a_node10"><a xlink:href="classflow_1_1net__flow_1_1Node.html#af1c4623729d0a061200a386f7a651926" target="_top" xlink:title="Begins the process of asynchronously sending the given low&#45;level packet to the remote Node specified ...">
<polygon fill="white" stroke="black" points="503,-19.5 503,-54.5 604,-54.5 604,-19.5 503,-19.5"/>
<text text-anchor="start" x="511" y="-44.1" font-family="Helvetica,sans-Serif" font-size="8.00">flow::net_flow::Node</text>
<text text-anchor="start" x="511" y="-35.1" font-family="Helvetica,sans-Serif" font-size="8.00">::async_sock_low_lvl</text>
<text text-anchor="middle" x="553.5" y="-26.1" font-family="Helvetica,sans-Serif" font-size="8.00">_packet_send_paced</text>
</a>
</g>
</g>
<!-- Node9&#45;&gt;Node10 -->
<g id="edge9" class="edge">
<title>Node9&#45;&gt;Node10</title>
<path fill="none" stroke="midnightblue" d="M425.63,-70.06C446.59,-64.6 471.16,-58.2 493.08,-52.49"/>
<polygon fill="midnightblue" stroke="midnightblue" points="494.14,-55.83 502.93,-49.92 492.37,-49.05 494.14,-55.83"/>
</g>
<!-- Node11 -->
<g id="node11" class="node">
<title>Node11</title>
<g id="a_node11"><a xlink:href="classflow_1_1net__flow_1_1Node.html#a0db2bb587e0407077b11368df075f0ff" target="_top" xlink:title="async_low_lvl_packet_send_impl() wrapper to call when packet is to be sent to the remote side of the ...">
<polygon fill="white" stroke="red" points="855.5,-0.5 855.5,-35.5 956.5,-35.5 956.5,-0.5 855.5,-0.5"/>
<text text-anchor="start" x="863.5" y="-25.1" font-family="Helvetica,sans-Serif" font-size="8.00">flow::net_flow::Node</text>
<text text-anchor="start" x="863.5" y="-16.1" font-family="Helvetica,sans-Serif" font-size="8.00">::async_sock_low_lvl</text>
<text text-anchor="middle" x="906" y="-7.1" font-family="Helvetica,sans-Serif" font-size="8.00">_packet_send</text>
</a>
</g>
</g>
<!-- Node10&#45;&gt;Node11 -->
<g id="edge10" class="edge">
<title>Node10&#45;&gt;Node11</title>
<path fill="none" stroke="midnightblue" d="M604.2,-24.82C621.16,-21.22 640.3,-17.78 658,-16 725.22,-9.25 742.45,-15.29 810,-16 821.36,-16.12 833.47,-16.32 845.12,-16.55"/>
<polygon fill="midnightblue" stroke="midnightblue" points="845.14,-20.05 855.21,-16.75 845.28,-13.05 845.14,-20.05"/>
</g>
<!-- Node17 -->
<g id="node12" class="node">
<title>Node17</title>
<g id="a_node12"><a xlink:href="classflow_1_1net__flow_1_1Node.html#a0556af278dc07a43f109fbd74ac64d5e" target="_top" xlink:title="async_sock_low_lvl_packet_send_paced() pacing helper: Handles a DATA or ACK packet that was just pass...">
<polygon fill="white" stroke="red" points="658,-26 658,-52 810,-52 810,-26 658,-26"/>
<text text-anchor="start" x="666" y="-41.6" font-family="Helvetica,sans-Serif" font-size="8.00">flow::net_flow::Node</text>
<text text-anchor="middle" x="734" y="-32.6" font-family="Helvetica,sans-Serif" font-size="8.00">::sock_pacing_new_packet_ready</text>
</a>
</g>
</g>
<!-- Node10&#45;&gt;Node17 -->
<g id="edge11" class="edge">
<title>Node10&#45;&gt;Node17</title>
<path fill="none" stroke="midnightblue" d="M604.22,-37.56C617.72,-37.71 632.72,-37.88 647.58,-38.04"/>
<polygon fill="midnightblue" stroke="midnightblue" points="647.79,-41.55 657.83,-38.16 647.87,-34.55 647.79,-41.55"/>
</g>
<!-- Node17&#45;&gt;Node11 -->
<g id="edge12" class="edge">
<title>Node17&#45;&gt;Node11</title>
<path fill="none" stroke="midnightblue" d="M810.06,-29.73C821.77,-28.28 833.74,-26.8 845.06,-25.4"/>
<polygon fill="midnightblue" stroke="midnightblue" points="845.75,-28.85 855.24,-24.15 844.89,-21.9 845.75,-28.85"/>
</g>
<!-- Node22 -->
<g id="node14" class="node">
<title>Node22</title>
<g id="a_node14"><a xlink:href="classflow_1_1net__flow_1_1Node.html#a3f9cf4d7160b3e27b3b0131fc4507ce7" target="_top" xlink:title="Cancel any timers and scheduled tasks active in the given socket.">
<polygon fill="white" stroke="black" points="503,-157 503,-183 604,-183 604,-157 503,-157"/>
<text text-anchor="start" x="511" y="-172.6" font-family="Helvetica,sans-Serif" font-size="8.00">flow::net_flow::Node</text>
<text text-anchor="middle" x="553.5" y="-163.6" font-family="Helvetica,sans-Serif" font-size="8.00">::cancel_timers</text>
</a>
</g>
</g>
<!-- Node21&#45;&gt;Node22 -->
<g id="edge15" class="edge">
<title>Node21&#45;&gt;Node22</title>
<path fill="none" stroke="midnightblue" d="M396.1,-319.97C412.1,-308.79 434.18,-291.44 449,-272 472.39,-241.31 456.4,-218.9 485,-193 487.65,-190.6 490.56,-188.45 493.64,-186.52"/>
<polygon fill="midnightblue" stroke="midnightblue" points="495.54,-189.48 502.69,-181.66 492.22,-183.31 495.54,-189.48"/>
</g>
<!-- Node24 -->
<g id="node16" class="node">
<title>Node24</title>
<g id="a_node16"><a xlink:href="classflow_1_1net__flow_1_1Node.html#a8a4ddf81ddbeab1f740940c4cc0d3625" target="_top" xlink:title="For each WAITING Event_set within the Node: checks for any events that hold, and if any do hold,...">
<polygon fill="white" stroke="black" points="489.5,-483 489.5,-509 617.5,-509 617.5,-483 489.5,-483"/>
<text text-anchor="start" x="497.5" y="-498.6" font-family="Helvetica,sans-Serif" font-size="8.00">flow::net_flow::Node</text>
<text text-anchor="middle" x="553.5" y="-489.6" font-family="Helvetica,sans-Serif" font-size="8.00">::event_set_all_check_delta</text>
</a>
</g>
</g>
<!-- Node21&#45;&gt;Node24 -->
<g id="edge18" class="edge">
<title>Node21&#45;&gt;Node24</title>
<path fill="none" stroke="midnightblue" d="M390.15,-346.06C420.87,-374.44 493.89,-441.87 530.61,-475.79"/>
<polygon fill="midnightblue" stroke="midnightblue" points="528.57,-478.66 538.29,-482.87 533.32,-473.52 528.57,-478.66"/>
</g>
<!-- Node36 -->
<g id="node25" class="node">
<title>Node36</title>
<g id="a_node25"><a xlink:href="classflow_1_1util_1_1Linked__hash__map.html#ac99cc54acf0b5a74e8e7a1f5ca30c2eb" target="_top" xlink:title="Attempts to insert (copying both key and mapped&#45;value) the given key/mapped&#45;value pair into the map; ...">
<polygon fill="white" stroke="black" points="507.5,-292 507.5,-318 599.5,-318 599.5,-292 507.5,-292"/>
<text text-anchor="start" x="515.5" y="-307.6" font-family="Helvetica,sans-Serif" font-size="8.00">flow::util::Linked</text>
<text text-anchor="middle" x="553.5" y="-298.6" font-family="Helvetica,sans-Serif" font-size="8.00">_hash_map::insert</text>
</a>
</g>
</g>
<!-- Node21&#45;&gt;Node36 -->
<g id="edge27" class="edge">
<title>Node21&#45;&gt;Node36</title>
<path fill="none" stroke="midnightblue" d="M449.06,-321.41C465.09,-318.87 481.81,-316.21 497.01,-313.8"/>
<polygon fill="midnightblue" stroke="midnightblue" points="497.94,-317.2 507.27,-312.18 496.84,-310.29 497.94,-317.2"/>
</g>
<!-- Node37 -->
<g id="node26" class="node">
<title>Node37</title>
<g id="a_node26"><a xlink:href="classflow_1_1net__flow_1_1Port__space.html#a9fe1be917ff7584ff587b5da5967127a" target="_top" xlink:title="Return a previously reserved port (of any type).">
<polygon fill="white" stroke="black" points="505.5,-881 505.5,-907 601.5,-907 601.5,-881 505.5,-881"/>
<text text-anchor="start" x="513.5" y="-896.6" font-family="Helvetica,sans-Serif" font-size="8.00">flow::net_flow::Port</text>
<text text-anchor="middle" x="553.5" y="-887.6" font-family="Helvetica,sans-Serif" font-size="8.00">_space::return_port</text>
</a>
</g>
</g>
<!-- Node21&#45;&gt;Node37 -->
<g id="edge28" class="edge">
<title>Node21&#45;&gt;Node37</title>
<path fill="none" stroke="midnightblue" d="M377.09,-346.19C383.38,-419.82 417.3,-779.86 485,-864 488.71,-868.61 493.27,-872.53 498.26,-875.86"/>
<polygon fill="midnightblue" stroke="midnightblue" points="496.58,-878.93 506.98,-880.93 500.1,-872.88 496.58,-878.93"/>
</g>
<!-- Node40 -->
<g id="node29" class="node">
<title>Node40</title>
<g id="a_node29"><a xlink:href="classflow_1_1net__flow_1_1Node.html#a8a6c02bf520a16df4028bd3c88732a8d" target="_top" xlink:title="Records that a Server_socket&#45;contained (i.e., currently un&#45;established, or established but not yet ac...">
<polygon fill="white" stroke="black" points="491.5,-202 491.5,-228 615.5,-228 615.5,-202 491.5,-202"/>
<text text-anchor="start" x="499.5" y="-217.6" font-family="Helvetica,sans-Serif" font-size="8.00">flow::net_flow::Node</text>
<text text-anchor="middle" x="553.5" y="-208.6" font-family="Helvetica,sans-Serif" font-size="8.00">::serv_peer_socket_closed</text>
</a>
</g>
</g>
<!-- Node21&#45;&gt;Node40 -->
<g id="edge32" class="edge">
<title>Node21&#45;&gt;Node40</title>
<path fill="none" stroke="midnightblue" d="M392.19,-319.95C407.14,-307.78 429.86,-289 449,-272 465.45,-257.38 466.15,-249.36 485,-238 488.58,-235.84 492.39,-233.85 496.3,-232.03"/>
<polygon fill="midnightblue" stroke="midnightblue" points="497.76,-235.21 505.57,-228.06 495,-228.78 497.76,-235.21"/>
</g>
<!-- Node41 -->
<g id="node30" class="node">
<title>Node41</title>
<g id="a_node30"><a xlink:href="classflow_1_1net__flow_1_1Node.html#ade529b5452c9fe363ae468346e662ceb" target="_top" xlink:title="While in S_OPEN+S_DISCONNECTING state (i.e., after beginning a graceful close with sock_disconnect_de...">
<polygon fill="white" stroke="black" points="485,-247 485,-273 622,-273 622,-247 485,-247"/>
<text text-anchor="start" x="493" y="-262.6" font-family="Helvetica,sans-Serif" font-size="8.00">flow::net_flow::Node</text>
<text text-anchor="middle" x="553.5" y="-253.6" font-family="Helvetica,sans-Serif" font-size="8.00">::sock_disconnect_completed</text>
</a>
</g>
</g>
<!-- Node21&#45;&gt;Node41 -->
<g id="edge33" class="edge">
<title>Node21&#45;&gt;Node41</title>
<path fill="none" stroke="midnightblue" d="M402.55,-319.9C424.42,-309.34 456.38,-294.41 485,-283 490.53,-280.8 496.35,-278.61 502.18,-276.51"/>
<polygon fill="midnightblue" stroke="midnightblue" points="503.65,-279.71 511.92,-273.08 501.33,-273.1 503.65,-279.71"/>
</g>
<!-- Node44 -->
<g id="node33" class="node">
<title>Node44</title>
<g id="a_node33"><a xlink:href="classflow_1_1net__flow_1_1Node.html#ada9357f6ce9d5fc249b1cc176afdc471" target="_top" xlink:title="Records that thread W shows underlying connection is broken (graceful termination,...">
<polygon fill="white" stroke="black" points="488,-337 488,-363 619,-363 619,-337 488,-337"/>
<text text-anchor="start" x="496" y="-352.6" font-family="Helvetica,sans-Serif" font-size="8.00">flow::net_flow::Node</text>
<text text-anchor="middle" x="553.5" y="-343.6" font-family="Helvetica,sans-Serif" font-size="8.00">::sock_disconnect_detected</text>
</a>
</g>
</g>
<!-- Node21&#45;&gt;Node44 -->
<g id="edge36" class="edge">
<title>Node21&#45;&gt;Node44</title>
<path fill="none" stroke="midnightblue" d="M449.06,-340.04C458.54,-340.95 468.25,-341.89 477.75,-342.8"/>
<polygon fill="midnightblue" stroke="midnightblue" points="477.66,-346.31 487.95,-343.78 478.33,-339.34 477.66,-346.31"/>
</g>
<!-- Node45 -->
<g id="node34" class="node">
<title>Node45</title>
<g id="a_node34"><a xlink:href="classflow_1_1net__flow_1_1Node.html#a2336fae98b318ab73e7268e9a242bf09" target="_top" xlink:title="Given a Peer_socket, copies all stats info (as available via Peer_socket::info()) from various struct...">
<polygon fill="white" stroke="black" points="679,-839 679,-865 789,-865 789,-839 679,-839"/>
<text text-anchor="start" x="687" y="-854.6" font-family="Helvetica,sans-Serif" font-size="8.00">flow::net_flow::Node</text>
<text text-anchor="middle" x="734" y="-845.6" font-family="Helvetica,sans-Serif" font-size="8.00">::sock_load_info_struct</text>
</a>
</g>
</g>
<!-- Node21&#45;&gt;Node45 -->
<g id="edge39" class="edge">
<title>Node21&#45;&gt;Node45</title>
<path fill="none" stroke="midnightblue" d="M377.32,-346.31C384.34,-414.61 419.51,-725.01 485,-791 532.93,-839.29 612.5,-851.61 668.57,-853.72"/>
<polygon fill="midnightblue" stroke="midnightblue" points="668.66,-857.23 678.75,-854.01 668.85,-850.23 668.66,-857.23"/>
</g>
<!-- Node47 -->
<g id="node37" class="node">
<title>Node47</title>
<g id="a_node37"><a xlink:href="classflow_1_1net__flow_1_1Node.html#a755c329b9e0f2b8edb2e5b900bd2a337" target="_top" xlink:title="Logs a verbose state report for the given socket.">
<polygon fill="white" stroke="black" points="503,-710 503,-736 604,-736 604,-710 503,-710"/>
<text text-anchor="start" x="511" y="-725.6" font-family="Helvetica,sans-Serif" font-size="8.00">flow::net_flow::Node</text>
<text text-anchor="middle" x="553.5" y="-716.6" font-family="Helvetica,sans-Serif" font-size="8.00">::sock_log_detail</text>
</a>
</g>
</g>
<!-- Node21&#45;&gt;Node47 -->
<g id="edge42" class="edge">
<title>Node21&#45;&gt;Node47</title>
<path fill="none" stroke="midnightblue" d="M382.08,-346.42C408.01,-403.73 509.62,-628.25 542.31,-700.48"/>
<polygon fill="midnightblue" stroke="midnightblue" points="539.14,-701.96 546.45,-709.63 545.52,-699.08 539.14,-701.96"/>
</g>
<!-- Node50 -->
<g id="node40" class="node">
<title>Node50</title>
<g id="a_node40"><a xlink:href="classflow_1_1net__flow_1_1Node.html#aa1d9656e9e1480021c87530ec6dbebbe" target="_top" xlink:title="Sets internal state of given socket to the given state and logs a TRACE message about it.">
<polygon fill="white" stroke="black" points="503,-755 503,-781 604,-781 604,-755 503,-755"/>
<text text-anchor="start" x="511" y="-770.6" font-family="Helvetica,sans-Serif" font-size="8.00">flow::net_flow::Node</text>
<text text-anchor="middle" x="553.5" y="-761.6" font-family="Helvetica,sans-Serif" font-size="8.00">::sock_set_int_state</text>
</a>
</g>
</g>
<!-- Node21&#45;&gt;Node50 -->
<g id="edge49" class="edge">
<title>Node21&#45;&gt;Node50</title>
<path fill="none" stroke="midnightblue" d="M377.77,-346.18C386.56,-409.85 427.46,-685.08 485,-746 487.65,-748.81 490.67,-751.26 493.92,-753.4"/>
<polygon fill="midnightblue" stroke="midnightblue" points="492.52,-756.62 502.97,-758.36 495.89,-750.48 492.52,-756.62"/>
</g>
<!-- Node21&#45;&gt;Node51 -->
<g id="edge50" class="edge">
<title>Node21&#45;&gt;Node51</title>
<path fill="none" stroke="midnightblue" d="M397.88,-319.85C414.22,-308.96 435.9,-292.05 449,-272 480.38,-223.96 445.36,-189.5 485,-148 487.63,-145.24 490.61,-142.81 493.81,-140.68"/>
<polygon fill="midnightblue" stroke="midnightblue" points="495.72,-143.62 502.73,-135.67 492.29,-137.52 495.72,-143.62"/>
</g>
<!-- Node22&#45;&gt;Node7 -->
<g id="edge16" class="edge">
<title>Node22&#45;&gt;Node7</title>
<path fill="none" stroke="midnightblue" d="M604.05,-163.47C657.79,-158.72 744.66,-157.98 810,-191 848.11,-210.26 877.52,-252.05 892.96,-277.93"/>
<polygon fill="midnightblue" stroke="midnightblue" points="889.98,-279.76 898.01,-286.67 896.04,-276.26 889.98,-279.76"/>
</g>
<!-- Node23 -->
<g id="node15" class="node">
<title>Node23</title>
<g id="a_node15"><a xlink:href="namespaceflow_1_1util.html#ad92e68a1b22556f2625292098c0036a2" target="_top" xlink:title="Attempts to prevent the execution of a previously scheduled (by schedule_task_from_now() or similar) ...">
<polygon fill="white" stroke="black" points="683.5,-116 683.5,-142 784.5,-142 784.5,-116 683.5,-116"/>
<text text-anchor="start" x="691.5" y="-131.6" font-family="Helvetica,sans-Serif" font-size="8.00">flow::util::scheduled</text>
<text text-anchor="middle" x="734" y="-122.6" font-family="Helvetica,sans-Serif" font-size="8.00">_task_cancel</text>
</a>
</g>
</g>
<!-- Node22&#45;&gt;Node23 -->
<g id="edge17" class="edge">
<title>Node22&#45;&gt;Node23</title>
<path fill="none" stroke="midnightblue" d="M604.22,-158.58C625.7,-153.65 651,-147.83 673.47,-142.67"/>
<polygon fill="midnightblue" stroke="midnightblue" points="674.27,-146.08 683.24,-140.43 672.71,-139.26 674.27,-146.08"/>
</g>
<!-- Node25 -->
<g id="node17" class="node">
<title>Node25</title>
<g id="a_node17"><a xlink:href="classflow_1_1net__flow_1_1Event__set.html#a0edced1cb69b2cad299ee32e652ccea7" target="_top" xlink:title="Helper that clears each Sockets set inside an Ev_type_to_socks_map.">
<polygon fill="white" stroke="black" points="680.5,-528.5 680.5,-563.5 787.5,-563.5 787.5,-528.5 680.5,-528.5"/>
<text text-anchor="start" x="688.5" y="-553.1" font-family="Helvetica,sans-Serif" font-size="8.00">flow::net_flow::Event</text>
<text text-anchor="start" x="688.5" y="-544.1" font-family="Helvetica,sans-Serif" font-size="8.00">_set::clear_ev_type_to</text>
<text text-anchor="middle" x="734" y="-535.1" font-family="Helvetica,sans-Serif" font-size="8.00">_socks_map</text>
</a>
</g>
</g>
<!-- Node24&#45;&gt;Node25 -->
<g id="edge19" class="edge">
<title>Node24&#45;&gt;Node25</title>
<path fill="none" stroke="midnightblue" d="M600.93,-509.01C622.26,-514.98 647.87,-522.15 670.84,-528.59"/>
<polygon fill="midnightblue" stroke="midnightblue" points="669.92,-531.97 680.5,-531.29 671.81,-525.23 669.92,-531.97"/>
</g>
<!-- Node26 -->
<g id="node18" class="node">
<title>Node26</title>
<g id="a_node18"><a xlink:href="classflow_1_1util_1_1Linked__hash__set.html#a1fbcb5f6a387904e11c413aa60539365" target="_top" xlink:title="Returns true if and only if container is empty.">
<polygon fill="white" stroke="black" points="689.5,-483 689.5,-509 778.5,-509 778.5,-483 689.5,-483"/>
<text text-anchor="start" x="697.5" y="-498.6" font-family="Helvetica,sans-Serif" font-size="8.00">flow::util::Linked</text>
<text text-anchor="middle" x="734" y="-489.6" font-family="Helvetica,sans-Serif" font-size="8.00">_hash_set::empty</text>
</a>
</g>
</g>
<!-- Node24&#45;&gt;Node26 -->
<g id="edge20" class="edge">
<title>Node24&#45;&gt;Node26</title>
<path fill="none" stroke="midnightblue" d="M617.68,-496C637.75,-496 659.74,-496 679.08,-496"/>
<polygon fill="midnightblue" stroke="midnightblue" points="679.23,-499.5 689.23,-496 679.23,-492.5 679.23,-499.5"/>
</g>
<!-- Node27 -->
<g id="node19" class="node">
<title>Node27</title>
<g id="a_node19"><a xlink:href="classflow_1_1net__flow_1_1Event__set.html#aed9505b886c78169fe35b527f4e01855" target="_top" xlink:title="Functional helper that checks whether a given pair in an Ev_type_to_socks_map contains an empty set o...">
<polygon fill="white" stroke="black" points="679,-428.5 679,-463.5 789,-463.5 789,-428.5 679,-428.5"/>
<text text-anchor="start" x="687" y="-453.1" font-family="Helvetica,sans-Serif" font-size="8.00">flow::net_flow::Event</text>
<text text-anchor="start" x="687" y="-444.1" font-family="Helvetica,sans-Serif" font-size="8.00">_set::ev_type_to_socks</text>
<text text-anchor="middle" x="734" y="-435.1" font-family="Helvetica,sans-Serif" font-size="8.00">_map_entry_is_empty</text>
</a>
</g>
</g>
<!-- Node24&#45;&gt;Node27 -->
<g id="edge21" class="edge">
<title>Node24&#45;&gt;Node27</title>
<path fill="none" stroke="midnightblue" d="M600.93,-482.99C621.72,-477.17 646.57,-470.21 669.07,-463.91"/>
<polygon fill="midnightblue" stroke="midnightblue" points="670.2,-467.23 678.89,-461.16 668.31,-460.48 670.2,-467.23"/>
</g>
<!-- Node28 -->
<g id="node20" class="node">
<title>Node28</title>
<g id="a_node20"><a xlink:href="classflow_1_1net__flow_1_1Event__set.html#a19e241ae4dfe1ea54de6027052bc2135" target="_top" xlink:title="Helper that returns a loggable string summarizing the sizes of the socket sets, by type,...">
<polygon fill="white" stroke="red" points="679,-374.5 679,-409.5 789,-409.5 789,-374.5 679,-374.5"/>
<text text-anchor="start" x="687" y="-399.1" font-family="Helvetica,sans-Serif" font-size="8.00">flow::net_flow::Event</text>
<text text-anchor="start" x="687" y="-390.1" font-family="Helvetica,sans-Serif" font-size="8.00">_set::ev_type_to_socks</text>
<text text-anchor="middle" x="734" y="-381.1" font-family="Helvetica,sans-Serif" font-size="8.00">_map_sizes_to_str</text>
</a>
</g>
</g>
<!-- Node24&#45;&gt;Node28 -->
<g id="edge22" class="edge">
<title>Node24&#45;&gt;Node28</title>
<path fill="none" stroke="midnightblue" d="M569.32,-482.74C588.6,-466.05 623.86,-437.32 658,-419 661.7,-417.01 665.58,-415.12 669.55,-413.32"/>
<polygon fill="midnightblue" stroke="midnightblue" points="671.09,-416.46 678.9,-409.3 668.33,-410.03 671.09,-416.46"/>
</g>
<!-- Node32 -->
<g id="node21" class="node">
<title>Node32</title>
<g id="a_node21"><a xlink:href="classflow_1_1util_1_1Linked__hash__set.html#a3553fc2a52e6d2a265c7c05a5489d8a4" target="_top" xlink:title="Attempts to insert (copying it) the given keyinto the map; if key already in *this makes no change.">
<polygon fill="white" stroke="black" points="691,-329 691,-355 777,-355 777,-329 691,-329"/>
<text text-anchor="start" x="699" y="-344.6" font-family="Helvetica,sans-Serif" font-size="8.00">flow::util::Linked</text>
<text text-anchor="middle" x="734" y="-335.6" font-family="Helvetica,sans-Serif" font-size="8.00">_hash_set::insert</text>
</a>
</g>
</g>
<!-- Node24&#45;&gt;Node32 -->
<g id="edge23" class="edge">
<title>Node24&#45;&gt;Node32</title>
<path fill="none" stroke="midnightblue" d="M564.41,-482.55C587.89,-450.81 645.86,-373.3 658,-365 665.03,-360.19 673.1,-356.36 681.28,-353.32"/>
<polygon fill="midnightblue" stroke="midnightblue" points="682.52,-356.59 690.89,-350.09 680.29,-349.96 682.52,-356.59"/>
</g>
<!-- Node33 -->
<g id="node22" class="node">
<title>Node33</title>
<g id="a_node22"><a xlink:href="namespaceflow_1_1util.html#a03984e29450abf9cf287c501d6c8f866" target="_top" xlink:title="Returns true if and only if the given key is present at least once in the given associative container...">
<polygon fill="white" stroke="black" points="684.5,-673.5 684.5,-690.5 783.5,-690.5 783.5,-673.5 684.5,-673.5"/>
<text text-anchor="middle" x="734" y="-680.1" font-family="Helvetica,sans-Serif" font-size="8.00">flow::util::key_exists</text>
</a>
</g>
</g>
<!-- Node24&#45;&gt;Node33 -->
<g id="edge24" class="edge">
<title>Node24&#45;&gt;Node33</title>
<path fill="none" stroke="midnightblue" d="M558.73,-509.37C569.6,-541.46 601.69,-623.19 658,-664 663.05,-667.66 668.75,-670.59 674.69,-672.92"/>
<polygon fill="midnightblue" stroke="midnightblue" points="673.57,-676.24 684.17,-676.13 675.82,-669.61 673.57,-676.24"/>
</g>
<!-- Node34 -->
<g id="node23" class="node">
<title>Node34</title>
<g id="a_node23"><a xlink:href="classflow_1_1util_1_1Linked__hash__set.html#a494cbbb586ceb41455f3c1e830a969c1" target="_top" xlink:title="Returns number of elements stored.">
<polygon fill="white" stroke="black" points="691.5,-628 691.5,-654 776.5,-654 776.5,-628 691.5,-628"/>
<text text-anchor="start" x="699.5" y="-643.6" font-family="Helvetica,sans-Serif" font-size="8.00">flow::util::Linked</text>
<text text-anchor="middle" x="734" y="-634.6" font-family="Helvetica,sans-Serif" font-size="8.00">_hash_set::size</text>
</a>
</g>
</g>
<!-- Node24&#45;&gt;Node34 -->
<g id="edge25" class="edge">
<title>Node24&#45;&gt;Node34</title>
<path fill="none" stroke="midnightblue" d="M562.02,-509.33C576.97,-534.6 612.9,-589.56 658,-619 665.19,-623.69 673.4,-627.41 681.7,-630.34"/>
<polygon fill="midnightblue" stroke="midnightblue" points="680.82,-633.74 691.41,-633.44 682.95,-627.07 680.82,-633.74"/>
</g>
<!-- Node35 -->
<g id="node24" class="node">
<title>Node35</title>
<g id="a_node24"><a xlink:href="classflow_1_1net__flow_1_1Event__set.html#ae04c117b15179ba37a94f6836c63497b" target="_top" xlink:title="Helper that returns a loggable string representing the socket stored in the given boost::any that sto...">
<polygon fill="white" stroke="red" points="676,-583 676,-609 792,-609 792,-583 676,-583"/>
<text text-anchor="start" x="684" y="-598.6" font-family="Helvetica,sans-Serif" font-size="8.00">flow::net_flow::Event</text>
<text text-anchor="middle" x="734" y="-589.6" font-family="Helvetica,sans-Serif" font-size="8.00">_set::sock_as_any_to_str</text>
</a>
</g>
</g>
<!-- Node24&#45;&gt;Node35 -->
<g id="edge26" class="edge">
<title>Node24&#45;&gt;Node35</title>
<path fill="none" stroke="midnightblue" d="M568.85,-509.22C587.91,-526.15 623.23,-555.4 658,-573 662.59,-575.32 667.46,-577.46 672.43,-579.42"/>
<polygon fill="midnightblue" stroke="midnightblue" points="671.45,-582.79 682.05,-582.96 673.87,-576.22 671.45,-582.79"/>
</g>
<!-- Node38 -->
<g id="node27" class="node">
<title>Node38</title>
<g id="a_node27"><a xlink:href="namespaceflow_1_1util.html#a024ddda9acb2b66f2a1b35cdb0c016aa" target="_top" xlink:title="Returns true if and only if the given value is within the given range, given as a [low,...">
<polygon fill="white" stroke="black" points="858,-913 858,-939 954,-939 954,-913 858,-913"/>
<text text-anchor="start" x="866" y="-928.6" font-family="Helvetica,sans-Serif" font-size="8.00">flow::util::in_closed</text>
<text text-anchor="middle" x="906" y="-919.6" font-family="Helvetica,sans-Serif" font-size="8.00">_open_range</text>
</a>
</g>
</g>
<!-- Node37&#45;&gt;Node38 -->
<g id="edge29" class="edge">
<title>Node37&#45;&gt;Node38</title>
<path fill="none" stroke="midnightblue" d="M601.65,-897.02C652.97,-900.46 737.41,-906.58 810,-914 822.15,-915.24 835.14,-916.76 847.5,-918.29"/>
<polygon fill="midnightblue" stroke="midnightblue" points="847.34,-921.8 857.7,-919.57 848.21,-914.85 847.34,-921.8"/>
</g>
<!-- Node39 -->
<g id="node28" class="node">
<title>Node39</title>
<g id="a_node28"><a xlink:href="classflow_1_1net__flow_1_1Port__space.html#ac43e4303aac2bde697b99bf03901ec85" target="_top" xlink:title="Returns true if and only if the given port is a service port (as opposed to ephemeral or S_PORT_ANY).">
<polygon fill="white" stroke="black" points="678.5,-923 678.5,-949 789.5,-949 789.5,-923 678.5,-923"/>
<text text-anchor="start" x="686.5" y="-938.6" font-family="Helvetica,sans-Serif" font-size="8.00">flow::net_flow::Port</text>
<text text-anchor="middle" x="734" y="-929.6" font-family="Helvetica,sans-Serif" font-size="8.00">_space::is_service_port</text>
</a>
</g>
</g>
<!-- Node37&#45;&gt;Node39 -->
<g id="edge30" class="edge">
<title>Node37&#45;&gt;Node39</title>
<path fill="none" stroke="midnightblue" d="M601.87,-905.14C622.29,-909.95 646.49,-915.65 668.51,-920.83"/>
<polygon fill="midnightblue" stroke="midnightblue" points="667.92,-924.28 678.46,-923.17 669.52,-917.47 667.92,-924.28"/>
</g>
<!-- Node39&#45;&gt;Node38 -->
<g id="edge31" class="edge">
<title>Node39&#45;&gt;Node38</title>
<path fill="none" stroke="midnightblue" d="M789.72,-932.78C808.23,-931.69 828.95,-930.47 847.65,-929.37"/>
<polygon fill="midnightblue" stroke="midnightblue" points="848.03,-932.86 857.81,-928.78 847.62,-925.87 848.03,-932.86"/>
</g>
<!-- Node42 -->
<g id="node31" class="node">
<title>Node42</title>
<g id="a_node31"><a xlink:href="classflow_1_1net__flow_1_1Node.html#a1d5f13062bec6730db533cc1e89bf515" target="_top" xlink:title="Helper that clears all non&#45;O(1)&#45;space data structures stored inside sock.">
<polygon fill="white" stroke="black" points="683.5,-200 683.5,-226 784.5,-226 784.5,-200 683.5,-200"/>
<text text-anchor="start" x="691.5" y="-215.6" font-family="Helvetica,sans-Serif" font-size="8.00">flow::net_flow::Node</text>
<text text-anchor="middle" x="734" y="-206.6" font-family="Helvetica,sans-Serif" font-size="8.00">::sock_free_memory</text>
</a>
</g>
</g>
<!-- Node41&#45;&gt;Node42 -->
<g id="edge34" class="edge">
<title>Node41&#45;&gt;Node42</title>
<path fill="none" stroke="midnightblue" d="M604.22,-246.91C625.79,-241.23 651.21,-234.53 673.75,-228.6"/>
<polygon fill="midnightblue" stroke="midnightblue" points="674.77,-231.95 683.54,-226.02 672.98,-225.18 674.77,-231.95"/>
</g>
<!-- Node43 -->
<g id="node32" class="node">
<title>Node43</title>
<g id="a_node32"><a xlink:href="classflow_1_1net__flow_1_1Node.html#ad502e0a992a79b71af42a9cdc20a4280" target="_top" xlink:title="Sets Peer_socket::m_state and Peer_socket::m_open_sub_state.">
<polygon fill="white" stroke="black" points="683.5,-245 683.5,-271 784.5,-271 784.5,-245 683.5,-245"/>
<text text-anchor="start" x="691.5" y="-260.6" font-family="Helvetica,sans-Serif" font-size="8.00">flow::net_flow::Node</text>
<text text-anchor="middle" x="734" y="-251.6" font-family="Helvetica,sans-Serif" font-size="8.00">::sock_set_state</text>
</a>
</g>
</g>
<!-- Node41&#45;&gt;Node43 -->
<g id="edge35" class="edge">
<title>Node41&#45;&gt;Node43</title>
<path fill="none" stroke="midnightblue" d="M622.24,-259.24C638.9,-259.05 656.63,-258.86 672.91,-258.67"/>
<polygon fill="midnightblue" stroke="midnightblue" points="673.41,-262.17 683.37,-258.56 673.33,-255.17 673.41,-262.17"/>
</g>
<!-- Node44&#45;&gt;Node42 -->
<g id="edge37" class="edge">
<title>Node44&#45;&gt;Node42</title>
<path fill="none" stroke="midnightblue" d="M609.58,-336.85C614.1,-334.39 618.32,-331.47 622,-328 653.93,-297.86 625.8,-265.85 658,-236 662.65,-231.69 668.1,-228.18 673.89,-225.33"/>
<polygon fill="midnightblue" stroke="midnightblue" points="675.38,-228.5 683.22,-221.37 672.64,-222.06 675.38,-228.5"/>
</g>
<!-- Node44&#45;&gt;Node43 -->
<g id="edge38" class="edge">
<title>Node44&#45;&gt;Node43</title>
<path fill="none" stroke="midnightblue" d="M604.97,-336.99C610.95,-334.46 616.77,-331.49 622,-328 642.45,-314.35 637.84,-300.08 658,-286 663.95,-281.84 670.6,-278.21 677.41,-275.07"/>
<polygon fill="midnightblue" stroke="midnightblue" points="678.92,-278.23 686.75,-271.09 676.18,-271.8 678.92,-278.23"/>
</g>
<!-- Node16 -->
<g id="node35" class="node">
<title>Node16</title>
<g id="a_node35"><a xlink:href="classflow_1_1net__flow_1_1Node.html#a43c42121d48a55a43a48e3a84bd10595" target="_top" xlink:title="Obtain a copy of the value of a given option in a thread&#45;safe manner.">
<polygon fill="white" stroke="black" points="846,-812.5 846,-829.5 966,-829.5 966,-812.5 846,-812.5"/>
<text text-anchor="middle" x="906" y="-819.1" font-family="Helvetica,sans-Serif" font-size="8.00">flow::net_flow::Node::opt</text>
</a>
</g>
</g>
<!-- Node45&#45;&gt;Node16 -->
<g id="edge40" class="edge">
<title>Node45&#45;&gt;Node16</title>
<path fill="none" stroke="midnightblue" d="M789.26,-842.11C808.04,-838.68 829.13,-834.84 848.12,-831.37"/>
<polygon fill="midnightblue" stroke="midnightblue" points="848.91,-834.79 858.12,-829.55 847.66,-827.9 848.91,-834.79"/>
</g>
<!-- Node46 -->
<g id="node36" class="node">
<title>Node46</title>
<g id="a_node36"><a xlink:href="classflow_1_1net__flow_1_1Node.html#ac397d3fd163f1456b7bb370a3cff951c" target="_top" xlink:title="Computes and returns the currently correct rcv_wnd value; that is the amount of space free in Receive...">
<polygon fill="white" stroke="black" points="855.5,-849 855.5,-875 956.5,-875 956.5,-849 855.5,-849"/>
<text text-anchor="start" x="863.5" y="-864.6" font-family="Helvetica,sans-Serif" font-size="8.00">flow::net_flow::Node</text>
<text text-anchor="middle" x="906" y="-855.6" font-family="Helvetica,sans-Serif" font-size="8.00">::sock_rcv_wnd</text>
</a>
</g>
</g>
<!-- Node45&#45;&gt;Node46 -->
<g id="edge41" class="edge">
<title>Node45&#45;&gt;Node46</title>
<path fill="none" stroke="midnightblue" d="M789.26,-855.19C807.05,-856.24 826.91,-857.41 845.1,-858.48"/>
<polygon fill="midnightblue" stroke="midnightblue" points="845.1,-861.98 855.29,-859.08 845.51,-854.99 845.1,-861.98"/>
</g>
<!-- Node47&#45;&gt;Node45 -->
<g id="edge48" class="edge">
<title>Node47&#45;&gt;Node45</title>
<path fill="none" stroke="midnightblue" d="M603.69,-736.03C610.13,-738.79 616.43,-742.09 622,-746 642.96,-760.72 639.96,-772.82 658,-791 673.02,-806.14 691.61,-821.28 706.52,-832.69"/>
<polygon fill="midnightblue" stroke="midnightblue" points="704.73,-835.72 714.82,-838.95 708.94,-830.13 704.73,-835.72"/>
</g>
<!-- Node48 -->
<g id="node38" class="node">
<title>Node48</title>
<g id="a_node38"><a xlink:href="classflow_1_1net__flow_1_1Node.html#ac2fdb686165aae42f474cc655fca80c0" target="_top" xlink:title="Logs TRACE or DATA messages that show the detailed state of the receiving sequence number space.">
<polygon fill="white" stroke="red" points="683.5,-710 683.5,-736 784.5,-736 784.5,-710 683.5,-710"/>
<text text-anchor="start" x="691.5" y="-725.6" font-family="Helvetica,sans-Serif" font-size="8.00">flow::net_flow::Node</text>
<text text-anchor="middle" x="734" y="-716.6" font-family="Helvetica,sans-Serif" font-size="8.00">::log_rcv_window</text>
</a>
</g>
</g>
<!-- Node47&#45;&gt;Node48 -->
<g id="edge43" class="edge">
<title>Node47&#45;&gt;Node48</title>
<path fill="none" stroke="midnightblue" d="M604.22,-723C625.6,-723 650.78,-723 673.17,-723"/>
<polygon fill="midnightblue" stroke="midnightblue" points="673.24,-726.5 683.24,-723 673.24,-719.5 673.24,-726.5"/>
</g>
<!-- Node49 -->
<g id="node39" class="node">
<title>Node49</title>
<g id="a_node39"><a xlink:href="classflow_1_1net__flow_1_1Node.html#a24785d3e04e0a9cd5daca43bc867e5aa" target="_top" xlink:title="Logs TRACE or DATA messages thats show the detailed state of the sending sequence number space.">
<polygon fill="white" stroke="red" points="683.5,-755 683.5,-781 784.5,-781 784.5,-755 683.5,-755"/>
<text text-anchor="start" x="691.5" y="-770.6" font-family="Helvetica,sans-Serif" font-size="8.00">flow::net_flow::Node</text>
<text text-anchor="middle" x="734" y="-761.6" font-family="Helvetica,sans-Serif" font-size="8.00">::log_snd_window</text>
</a>
</g>
</g>
<!-- Node47&#45;&gt;Node49 -->
<g id="edge45" class="edge">
<title>Node47&#45;&gt;Node49</title>
<path fill="none" stroke="midnightblue" d="M604.22,-735.54C625.7,-740.95 651,-747.33 673.47,-752.99"/>
<polygon fill="midnightblue" stroke="midnightblue" points="672.68,-756.4 683.24,-755.45 674.39,-749.62 672.68,-756.4"/>
</g>
<!-- Node48&#45;&gt;Node7 -->
<g id="edge44" class="edge">
<title>Node48&#45;&gt;Node7</title>
<path fill="none" stroke="midnightblue" d="M784.76,-715.66C794.18,-712.24 803.2,-707.25 810,-700 862.46,-644.04 893.8,-400.1 902.5,-323.26"/>
<polygon fill="midnightblue" stroke="midnightblue" points="905.99,-323.51 903.62,-313.18 899.04,-322.73 905.99,-323.51"/>
</g>
<!-- Node49&#45;&gt;Node5 -->
<g id="edge47" class="edge">
<title>Node49&#45;&gt;Node5</title>
<path fill="none" stroke="midnightblue" d="M784.63,-768.29C804.25,-768.41 826.92,-768.54 847.27,-768.66"/>
<polygon fill="midnightblue" stroke="midnightblue" points="847.34,-772.16 857.36,-768.72 847.38,-765.16 847.34,-772.16"/>
</g>
<!-- Node49&#45;&gt;Node7 -->
<g id="edge46" class="edge">
<title>Node49&#45;&gt;Node7</title>
<path fill="none" stroke="midnightblue" d="M784.86,-761.48C794.27,-758.17 803.26,-753.26 810,-746 868.41,-683.01 896.06,-406.29 903.13,-323.49"/>
<polygon fill="midnightblue" stroke="midnightblue" points="906.63,-323.59 903.97,-313.34 899.65,-323.01 906.63,-323.59"/>
</g>
</g>
</svg>
