<?xml version="1.0" encoding="UTF-8" standalone="no"?>
<!DOCTYPE svg PUBLIC "-//W3C//DTD SVG 1.1//EN"
 "http://www.w3.org/Graphics/SVG/1.1/DTD/svg11.dtd">
<!-- Generated by graphviz version 2.43.0 (0)
 -->
<!-- Title: flow::net_flow::Node::sync_connect_with_metadata Pages: 1 -->
<svg width="452pt" height="80pt"
 viewBox="0.00 0.00 452.00 80.00" xmlns="http://www.w3.org/2000/svg" xmlns:xlink="http://www.w3.org/1999/xlink">
<g id="graph0" class="graph" transform="scale(1 1) rotate(0) translate(4 76)">
<title>flow::net_flow::Node::sync_connect_with_metadata</title>
<polygon fill="white" stroke="transparent" points="-4,4 -4,-76 448,-76 448,4 -4,4"/>
<!-- Node1 -->
<g id="node1" class="node">
<title>Node1</title>
<g id="a_node1"><a xlink:title="A combination of sync_connect() and connect_with_metadata() (blocking connect, with supplied metadata...">
<polygon fill="#bfbfbf" stroke="black" points="0,-22.5 0,-48.5 143,-48.5 143,-22.5 0,-22.5"/>
<text text-anchor="start" x="8" y="-38.1" font-family="Helvetica,sans-Serif" font-size="8.00">flow::net_flow::Node</text>
<text text-anchor="middle" x="71.5" y="-29.1" font-family="Helvetica,sans-Serif" font-size="8.00">::sync_connect_with_metadata</text>
</a>
</g>
</g>
<!-- Node2 -->
<g id="node2" class="node">
<title>Node2</title>
<g id="a_node2"><a xlink:href="namespaceflow_1_1util.html#aa60d3ba517b5f5cf408faa92d269256a" target="_top" xlink:title="Helper that takes a non&#45;negative duration of arbitrary precision/period and converts it to Fine_durat...">
<polygon fill="white" stroke="black" points="179,-45.5 179,-71.5 304,-71.5 304,-45.5 179,-45.5"/>
<text text-anchor="start" x="187" y="-61.1" font-family="Helvetica,sans-Serif" font-size="8.00">flow::util::chrono</text>
<text text-anchor="middle" x="241.5" y="-52.1" font-family="Helvetica,sans-Serif" font-size="8.00">_duration_to_fine_duration</text>
</a>
</g>
</g>
<!-- Node1&#45;&gt;Node2 -->
<g id="edge1" class="edge">
<title>Node1&#45;&gt;Node2</title>
<path fill="none" stroke="midnightblue" d="M143.26,-45.19C151.68,-46.34 160.27,-47.52 168.7,-48.67"/>
<polygon fill="midnightblue" stroke="midnightblue" points="168.5,-52.17 178.88,-50.06 169.45,-45.24 168.5,-52.17"/>
</g>
<!-- Node3 -->
<g id="node3" class="node">
<title>Node3</title>
<g id="a_node3"><a xlink:href="classflow_1_1net__flow_1_1Node.html#a49e2786f5d1eeb068a828902a631a39a" target="_top" xlink:title="Implementation core of sync_connect*() that gets rid of templated or missing arguments thereof.">
<polygon fill="white" stroke="black" points="191,-0.5 191,-26.5 292,-26.5 292,-0.5 191,-0.5"/>
<text text-anchor="start" x="199" y="-16.1" font-family="Helvetica,sans-Serif" font-size="8.00">flow::net_flow::Node</text>
<text text-anchor="middle" x="241.5" y="-7.1" font-family="Helvetica,sans-Serif" font-size="8.00">::sync_connect_impl</text>
</a>
</g>
</g>
<!-- Node1&#45;&gt;Node3 -->
<g id="edge2" class="edge">
<title>Node1&#45;&gt;Node3</title>
<path fill="none" stroke="midnightblue" d="M143.26,-26.23C155.8,-24.59 168.74,-22.9 180.94,-21.3"/>
<polygon fill="midnightblue" stroke="midnightblue" points="181.51,-24.75 190.98,-19.99 180.61,-17.81 181.51,-24.75"/>
</g>
<!-- Node4 -->
<g id="node4" class="node">
<title>Node4</title>
<g id="a_node4"><a xlink:href="namespaceflow_1_1util.html#a09a032f8e1e77a3afc0b7df115a773e1" target="_top" xlink:title="Provides a way to execute arbitrary (cleanup) code at the exit of the current block.">
<polygon fill="white" stroke="black" points="340,-0.5 340,-26.5 444,-26.5 444,-0.5 340,-0.5"/>
<text text-anchor="start" x="348" y="-16.1" font-family="Helvetica,sans-Serif" font-size="8.00">flow::util::setup_auto</text>
<text text-anchor="middle" x="392" y="-7.1" font-family="Helvetica,sans-Serif" font-size="8.00">_cleanup</text>
</a>
</g>
</g>
<!-- Node3&#45;&gt;Node4 -->
<g id="edge3" class="edge">
<title>Node3&#45;&gt;Node4</title>
<path fill="none" stroke="midnightblue" d="M292.36,-13.5C304.28,-13.5 317.13,-13.5 329.5,-13.5"/>
<polygon fill="midnightblue" stroke="midnightblue" points="329.75,-17 339.75,-13.5 329.75,-10 329.75,-17"/>
</g>
</g>
</svg>
