<?xml version="1.0" encoding="UTF-8" standalone="no"?>
<!DOCTYPE svg PUBLIC "-//W3C//DTD SVG 1.1//EN"
 "http://www.w3.org/Graphics/SVG/1.1/DTD/svg11.dtd">
<!-- Generated by graphviz version 2.43.0 (0)
 -->
<!-- Title: flow::async::Cross_thread_task_loop Pages: 1 -->
<svg width="365pt" height="152pt"
 viewBox="0.00 0.00 364.50 152.00" xmlns="http://www.w3.org/2000/svg" xmlns:xlink="http://www.w3.org/1999/xlink">
<g id="graph0" class="graph" transform="scale(1 1) rotate(0) translate(4 148)">
<title>flow::async::Cross_thread_task_loop</title>
<polygon fill="white" stroke="transparent" points="-4,4 -4,-148 360.5,-148 360.5,4 -4,4"/>
<!-- Node1 -->
<g id="node1" class="node">
<title>Node1</title>
<g id="a_node1"><a xlink:title="Concrete Concurrent_task_loop that is able to efficiently schedule Tasks within a given Op to execute...">
<polygon fill="#bfbfbf" stroke="black" points="140,-0.5 140,-26.5 232,-26.5 232,-0.5 140,-0.5"/>
<text text-anchor="start" x="148" y="-16.1" font-family="Helvetica,sans-Serif" font-size="8.00">flow::async::Cross</text>
<text text-anchor="middle" x="186" y="-7.1" font-family="Helvetica,sans-Serif" font-size="8.00">_thread_task_loop</text>
</a>
</g>
</g>
<!-- Node2 -->
<g id="node2" class="node">
<title>Node2</title>
<g id="a_node2"><a xlink:href="classflow_1_1async_1_1Concurrent__task__loop.html" target="_top" xlink:title="The core flow::async interface, providing an optionally multi&#45;threaded thread pool onto which runnabl...">
<polygon fill="white" stroke="black" points="0,-63.5 0,-89.5 114,-89.5 114,-63.5 0,-63.5"/>
<text text-anchor="start" x="8" y="-79.1" font-family="Helvetica,sans-Serif" font-size="8.00">flow::async::Concurrent</text>
<text text-anchor="middle" x="57" y="-70.1" font-family="Helvetica,sans-Serif" font-size="8.00">_task_loop</text>
</a>
</g>
</g>
<!-- Node2&#45;&gt;Node1 -->
<g id="edge1" class="edge">
<title>Node2&#45;&gt;Node1</title>
<path fill="none" stroke="midnightblue" d="M91.7,-59.09C113.4,-48.83 140.88,-35.84 160.57,-26.53"/>
<polygon fill="midnightblue" stroke="midnightblue" points="90.03,-56.01 82.49,-63.45 93.02,-62.34 90.03,-56.01"/>
</g>
<!-- Node3 -->
<g id="node3" class="node">
<title>Node3</title>
<g id="a_node3"><a xlink:href="classflow_1_1util_1_1Null__interface.html" target="_top" xlink:title="An empty interface, consisting of nothing but a default virtual destructor, intended as a boiler&#45;plat...">
<polygon fill="white" stroke="black" points="0,-126.5 0,-143.5 114,-143.5 114,-126.5 0,-126.5"/>
<text text-anchor="middle" x="57" y="-133.1" font-family="Helvetica,sans-Serif" font-size="8.00">flow::util::Null_interface</text>
</a>
</g>
</g>
<!-- Node3&#45;&gt;Node2 -->
<g id="edge2" class="edge">
<title>Node3&#45;&gt;Node2</title>
<path fill="none" stroke="midnightblue" d="M57,-116C57,-107.4 57,-97.32 57,-89.64"/>
<polygon fill="midnightblue" stroke="midnightblue" points="53.5,-116.14 57,-126.14 60.5,-116.14 53.5,-116.14"/>
</g>
<!-- Node4 -->
<g id="node4" class="node">
<title>Node4</title>
<g id="a_node4"><a xlink:href="classflow_1_1log_1_1Log__context.html" target="_top" xlink:title="Convenience class that simply stores a Logger and/or Component passed into a constructor; and returns...">
<polygon fill="white" stroke="black" points="132.5,-68 132.5,-85 239.5,-85 239.5,-68 132.5,-68"/>
<text text-anchor="middle" x="186" y="-74.6" font-family="Helvetica,sans-Serif" font-size="8.00">flow::log::Log_context</text>
</a>
</g>
</g>
<!-- Node4&#45;&gt;Node1 -->
<g id="edge3" class="edge">
<title>Node4&#45;&gt;Node1</title>
<path fill="none" stroke="midnightblue" d="M186,-57.71C186,-47.7 186,-35.47 186,-26.57"/>
<polygon fill="midnightblue" stroke="midnightblue" points="182.5,-57.77 186,-67.77 189.5,-57.77 182.5,-57.77"/>
</g>
<!-- Node5 -->
<g id="node5" class="node">
<title>Node5</title>
<g id="a_node5"><a xlink:title=" ">
<polygon fill="white" stroke="#bfbfbf" points="257.5,-68 257.5,-85 356.5,-85 356.5,-68 257.5,-68"/>
<text text-anchor="middle" x="307" y="-74.6" font-family="Helvetica,sans-Serif" font-size="8.00">boost::noncopyable</text>
</a>
</g>
</g>
<!-- Node5&#45;&gt;Node1 -->
<g id="edge4" class="edge">
<title>Node5&#45;&gt;Node1</title>
<path fill="none" stroke="#8b1a1a" d="M282.67,-63.24C261.51,-52.56 231,-37.19 209.95,-26.57"/>
<polygon fill="#8b1a1a" stroke="#8b1a1a" points="281.17,-66.4 291.68,-67.77 284.32,-60.15 281.17,-66.4"/>
</g>
</g>
</svg>
