<?xml version="1.0" encoding="UTF-8" standalone="no"?>
<!DOCTYPE svg PUBLIC "-//W3C//DTD SVG 1.1//EN"
 "http://www.w3.org/Graphics/SVG/1.1/DTD/svg11.dtd">
<!-- Generated by graphviz version 2.43.0 (0)
 -->
<!-- Title: flow::net_flow::Node::log_rcv_window Pages: 1 -->
<svg width="386pt" height="147pt"
 viewBox="0.00 0.00 386.00 147.00" xmlns="http://www.w3.org/2000/svg" xmlns:xlink="http://www.w3.org/1999/xlink">
<g id="graph0" class="graph" transform="scale(1 1) rotate(0) translate(4 143)">
<title>flow::net_flow::Node::log_rcv_window</title>
<polygon fill="white" stroke="transparent" points="-4,4 -4,-143 382,-143 382,4 -4,4"/>
<!-- Node1 -->
<g id="node1" class="node">
<title>Node1</title>
<g id="a_node1"><a xlink:title="Logs TRACE or DATA messages that show the detailed state of the receiving sequence number space.">
<polygon fill="#bfbfbf" stroke="black" points="0,-67.5 0,-93.5 101,-93.5 101,-67.5 0,-67.5"/>
<text text-anchor="start" x="8" y="-83.1" font-family="Helvetica,sans-Serif" font-size="8.00">flow::net_flow::Node</text>
<text text-anchor="middle" x="50.5" y="-74.1" font-family="Helvetica,sans-Serif" font-size="8.00">::log_rcv_window</text>
</a>
</g>
</g>
<!-- Node2 -->
<g id="node2" class="node">
<title>Node2</title>
<g id="a_node2"><a xlink:href="classflow_1_1log_1_1Log__context.html#a8a5fef42dc2cedf3c0d1a6e83beb2948" target="_top" xlink:title="Returns reference to the stored Component object, particularly as many FLOW_LOG_*() macros expect.">
<polygon fill="white" stroke="black" points="137,-112.5 137,-138.5 244,-138.5 244,-112.5 137,-112.5"/>
<text text-anchor="start" x="145" y="-128.1" font-family="Helvetica,sans-Serif" font-size="8.00">flow::log::Log_context</text>
<text text-anchor="middle" x="190.5" y="-119.1" font-family="Helvetica,sans-Serif" font-size="8.00">::get_log_component</text>
</a>
</g>
</g>
<!-- Node1&#45;&gt;Node2 -->
<g id="edge1" class="edge">
<title>Node1&#45;&gt;Node2</title>
<path fill="none" stroke="midnightblue" d="M91.42,-93.52C106.45,-98.42 123.73,-104.05 139.56,-109.22"/>
<polygon fill="midnightblue" stroke="midnightblue" points="138.6,-112.58 149.2,-112.36 140.77,-105.93 138.6,-112.58"/>
</g>
<!-- Node3 -->
<g id="node3" class="node">
<title>Node3</title>
<g id="a_node3"><a xlink:href="classflow_1_1log_1_1Log__context.html#af4db395042b065b00398cd59845dcb4d" target="_top" xlink:title="Returns the stored Logger pointer, particularly as many FLOW_LOG_*() macros expect.">
<polygon fill="white" stroke="black" points="137,-67.5 137,-93.5 244,-93.5 244,-67.5 137,-67.5"/>
<text text-anchor="start" x="145" y="-83.1" font-family="Helvetica,sans-Serif" font-size="8.00">flow::log::Log_context</text>
<text text-anchor="middle" x="190.5" y="-74.1" font-family="Helvetica,sans-Serif" font-size="8.00">::get_logger</text>
</a>
</g>
</g>
<!-- Node1&#45;&gt;Node3 -->
<g id="edge2" class="edge">
<title>Node1&#45;&gt;Node3</title>
<path fill="none" stroke="midnightblue" d="M101.32,-80.5C109.55,-80.5 118.18,-80.5 126.69,-80.5"/>
<polygon fill="midnightblue" stroke="midnightblue" points="126.96,-84 136.96,-80.5 126.96,-77 126.96,-84"/>
</g>
<!-- Node4 -->
<g id="node4" class="node">
<title>Node4</title>
<g id="a_node4"><a xlink:href="namespaceflow_1_1util.html#a8afd30c50bcd670d45442df49d1da484" target="_top" xlink:title="Writes to the specified string, as if the given arguments were each passed, via &lt;&lt; in sequence,...">
<polygon fill="white" stroke="black" points="144.5,-22.5 144.5,-48.5 236.5,-48.5 236.5,-22.5 144.5,-22.5"/>
<text text-anchor="start" x="152.5" y="-38.1" font-family="Helvetica,sans-Serif" font-size="8.00">flow::util::ostream</text>
<text text-anchor="middle" x="190.5" y="-29.1" font-family="Helvetica,sans-Serif" font-size="8.00">_op_to_string</text>
</a>
</g>
</g>
<!-- Node1&#45;&gt;Node4 -->
<g id="edge3" class="edge">
<title>Node1&#45;&gt;Node4</title>
<path fill="none" stroke="midnightblue" d="M91.42,-67.48C106.45,-62.58 123.73,-56.95 139.56,-51.78"/>
<polygon fill="midnightblue" stroke="midnightblue" points="140.77,-55.07 149.2,-48.64 138.6,-48.42 140.77,-55.07"/>
</g>
<!-- Node5 -->
<g id="node5" class="node">
<title>Node5</title>
<g id="a_node5"><a xlink:href="namespaceflow_1_1util.html#af92e6183c2071f4166d4b5a91f50d70c" target="_top" xlink:title="&quot;Induction step&quot; version of variadic function template that simply outputs arguments 2+ via &lt;&lt; to the...">
<polygon fill="white" stroke="black" points="280,-45.5 280,-71.5 378,-71.5 378,-45.5 280,-45.5"/>
<text text-anchor="start" x="288" y="-61.1" font-family="Helvetica,sans-Serif" font-size="8.00">flow::util::feed_args</text>
<text text-anchor="middle" x="329" y="-52.1" font-family="Helvetica,sans-Serif" font-size="8.00">_to_ostream</text>
</a>
</g>
</g>
<!-- Node4&#45;&gt;Node5 -->
<g id="edge4" class="edge">
<title>Node4&#45;&gt;Node5</title>
<path fill="none" stroke="midnightblue" d="M236.57,-43.09C247.16,-44.88 258.58,-46.8 269.65,-48.67"/>
<polygon fill="midnightblue" stroke="midnightblue" points="269.25,-52.15 279.69,-50.36 270.41,-45.25 269.25,-52.15"/>
</g>
<!-- Node6 -->
<g id="node6" class="node">
<title>Node6</title>
<g id="a_node6"><a xlink:href="classflow_1_1util_1_1String__ostream.html#a7e64b069ae0e221952068c13fdc0f080" target="_top" xlink:title="Access to stream that will write to owned string.">
<polygon fill="white" stroke="black" points="288,-0.5 288,-26.5 370,-26.5 370,-0.5 288,-0.5"/>
<text text-anchor="start" x="296" y="-16.1" font-family="Helvetica,sans-Serif" font-size="8.00">flow::util::String</text>
<text text-anchor="middle" x="329" y="-7.1" font-family="Helvetica,sans-Serif" font-size="8.00">_ostream::os</text>
</a>
</g>
</g>
<!-- Node4&#45;&gt;Node6 -->
<g id="edge6" class="edge">
<title>Node4&#45;&gt;Node6</title>
<path fill="none" stroke="midnightblue" d="M236.57,-28.24C249.69,-26.12 264.11,-23.8 277.54,-21.63"/>
<polygon fill="midnightblue" stroke="midnightblue" points="278.26,-25.06 287.57,-20.02 277.14,-18.15 278.26,-25.06"/>
</g>
<!-- Node5&#45;&gt;Node5 -->
<g id="edge5" class="edge">
<title>Node5&#45;&gt;Node5</title>
<path fill="none" stroke="midnightblue" d="M305.65,-71.77C298.58,-80.96 306.36,-90 329,-90 342.8,-90 351.08,-86.64 353.84,-81.94"/>
<polygon fill="midnightblue" stroke="midnightblue" points="357.26,-81.16 352.35,-71.77 350.33,-82.17 357.26,-81.16"/>
</g>
</g>
</svg>
