<?xml version="1.0" encoding="UTF-8" standalone="no"?>
<!DOCTYPE svg PUBLIC "-//W3C//DTD SVG 1.1//EN"
 "http://www.w3.org/Graphics/SVG/1.1/DTD/svg11.dtd">
<!-- Generated by graphviz version 2.43.0 (0)
 -->
<!-- Title: flow::async::Timed_single_thread_task_loop::accumulated_time Pages: 1 -->
<svg width="282pt" height="44pt"
 viewBox="0.00 0.00 282.00 44.00" xmlns="http://www.w3.org/2000/svg" xmlns:xlink="http://www.w3.org/1999/xlink">
<g id="graph0" class="graph" transform="scale(1 1) rotate(0) translate(4 40)">
<title>flow::async::Timed_single_thread_task_loop::accumulated_time</title>
<polygon fill="white" stroke="transparent" points="-4,4 -4,-40 278,-40 278,4 -4,4"/>
<!-- Node1 -->
<g id="node1" class="node">
<title>Node1</title>
<g id="a_node1"><a xlink:title="See Timed_concurrent_task_loop_impl::accumulated_time().">
<polygon fill="#bfbfbf" stroke="black" points="0,-0.5 0,-35.5 119,-35.5 119,-0.5 0,-0.5"/>
<text text-anchor="start" x="8" y="-25.1" font-family="Helvetica,sans-Serif" font-size="8.00">flow::async::Timed</text>
<text text-anchor="start" x="8" y="-16.1" font-family="Helvetica,sans-Serif" font-size="8.00">_single_thread_task</text>
<text text-anchor="middle" x="59.5" y="-7.1" font-family="Helvetica,sans-Serif" font-size="8.00">_loop::accumulated_time</text>
</a>
</g>
</g>
<!-- Node2 -->
<g id="node2" class="node">
<title>Node2</title>
<g id="a_node2"><a xlink:href="classflow_1_1async_1_1Timed__concurrent__task__loop__impl.html#a45c91b87a9906781479e2387f2f93573" target="_top" xlink:title="Returns the accumulated time spent on tasks this thread pool handles since its last invocation; and r...">
<polygon fill="white" stroke="black" points="155,-0.5 155,-35.5 274,-35.5 274,-0.5 155,-0.5"/>
<text text-anchor="start" x="163" y="-25.1" font-family="Helvetica,sans-Serif" font-size="8.00">flow::async::Timed</text>
<text text-anchor="start" x="163" y="-16.1" font-family="Helvetica,sans-Serif" font-size="8.00">_concurrent_task_loop</text>
<text text-anchor="middle" x="214.5" y="-7.1" font-family="Helvetica,sans-Serif" font-size="8.00">_impl::accumulated_time</text>
</a>
</g>
</g>
<!-- Node1&#45;&gt;Node2 -->
<g id="edge1" class="edge">
<title>Node1&#45;&gt;Node2</title>
<path fill="none" stroke="midnightblue" d="M119.22,-18C127.54,-18 136.17,-18 144.67,-18"/>
<polygon fill="midnightblue" stroke="midnightblue" points="144.94,-21.5 154.94,-18 144.94,-14.5 144.94,-21.5"/>
</g>
</g>
</svg>
