<?xml version="1.0" encoding="UTF-8" standalone="no"?>
<!DOCTYPE svg PUBLIC "-//W3C//DTD SVG 1.1//EN"
 "http://www.w3.org/Graphics/SVG/1.1/DTD/svg11.dtd">
<!-- Generated by graphviz version 2.43.0 (0)
 -->
<!-- Title: flow::net_flow::Node::log_snd_window Pages: 1 -->
<svg width="1319pt" height="191pt"
 viewBox="0.00 0.00 1319.00 191.36" xmlns="http://www.w3.org/2000/svg" xmlns:xlink="http://www.w3.org/1999/xlink">
<g id="graph0" class="graph" transform="scale(1 1) rotate(0) translate(4 187.36)">
<title>flow::net_flow::Node::log_snd_window</title>
<polygon fill="white" stroke="transparent" points="-4,4 -4,-187.36 1315,-187.36 1315,4 -4,4"/>
<!-- Node1 -->
<g id="node1" class="node">
<title>Node1</title>
<g id="a_node1"><a xlink:title="Logs TRACE or DATA messages thats show the detailed state of the sending sequence number space.">
<polygon fill="#bfbfbf" stroke="black" points="1210,-52.5 1210,-78.5 1311,-78.5 1311,-52.5 1210,-52.5"/>
<text text-anchor="start" x="1218" y="-68.1" font-family="Helvetica,sans-Serif" font-size="8.00">flow::net_flow::Node</text>
<text text-anchor="middle" x="1260.5" y="-59.1" font-family="Helvetica,sans-Serif" font-size="8.00">::log_snd_window</text>
</a>
</g>
</g>
<!-- Node2 -->
<g id="node2" class="node">
<title>Node2</title>
<g id="a_node2"><a xlink:href="classflow_1_1net__flow_1_1Node.html#a755c329b9e0f2b8edb2e5b900bd2a337" target="_top" xlink:title="Logs a verbose state report for the given socket.">
<polygon fill="white" stroke="black" points="1073,-52.5 1073,-78.5 1174,-78.5 1174,-52.5 1073,-52.5"/>
<text text-anchor="start" x="1081" y="-68.1" font-family="Helvetica,sans-Serif" font-size="8.00">flow::net_flow::Node</text>
<text text-anchor="middle" x="1123.5" y="-59.1" font-family="Helvetica,sans-Serif" font-size="8.00">::sock_log_detail</text>
</a>
</g>
</g>
<!-- Node1&#45;&gt;Node2 -->
<g id="edge1" class="edge">
<title>Node1&#45;&gt;Node2</title>
<path fill="none" stroke="midnightblue" d="M1199.79,-65.5C1191.33,-65.5 1182.7,-65.5 1174.45,-65.5"/>
<polygon fill="midnightblue" stroke="midnightblue" points="1200,-69 1210,-65.5 1200,-62 1200,-69"/>
</g>
<!-- Node3 -->
<g id="node3" class="node">
<title>Node3</title>
<g id="a_node3"><a xlink:href="classflow_1_1net__flow_1_1Node.html#ade49e7bc7202a0adf33fec2d93d1b177" target="_top" xlink:title="A thread W method that handles the transition of the given socket from OPEN (any sub&#45;state) to CLOSED...">
<polygon fill="white" stroke="black" points="883,-84.5 883,-110.5 1031,-110.5 1031,-84.5 883,-84.5"/>
<text text-anchor="start" x="891" y="-100.1" font-family="Helvetica,sans-Serif" font-size="8.00">flow::net_flow::Node</text>
<text text-anchor="middle" x="957" y="-91.1" font-family="Helvetica,sans-Serif" font-size="8.00">::close_connection_immediately</text>
</a>
</g>
</g>
<!-- Node2&#45;&gt;Node3 -->
<g id="edge2" class="edge">
<title>Node2&#45;&gt;Node3</title>
<path fill="none" stroke="midnightblue" d="M1062.61,-77.15C1050.37,-79.53 1037.41,-82.05 1024.94,-84.48"/>
<polygon fill="midnightblue" stroke="midnightblue" points="1063.55,-80.53 1072.7,-75.19 1062.21,-73.66 1063.55,-80.53"/>
</g>
<!-- Node24 -->
<g id="node14" class="node">
<title>Node24</title>
<g id="a_node14"><a xlink:href="classflow_1_1net__flow_1_1Node.html#aee8466d9c810da5edea443d665b24dcb" target="_top" xlink:title="Performs low&#45;priority tasks that should be run on an infrequent, regular basis, such as stat logging ...">
<polygon fill="white" stroke="black" points="877,-21.5 877,-47.5 1037,-47.5 1037,-21.5 877,-21.5"/>
<text text-anchor="start" x="885" y="-37.1" font-family="Helvetica,sans-Serif" font-size="8.00">flow::net_flow::Node</text>
<text text-anchor="middle" x="957" y="-28.1" font-family="Helvetica,sans-Serif" font-size="8.00">::perform_regular_infrequent_tasks</text>
</a>
</g>
</g>
<!-- Node2&#45;&gt;Node24 -->
<g id="edge17" class="edge">
<title>Node2&#45;&gt;Node24</title>
<path fill="none" stroke="midnightblue" d="M1062.71,-54.23C1051.13,-52.05 1038.91,-49.75 1027.06,-47.51"/>
<polygon fill="midnightblue" stroke="midnightblue" points="1062.22,-57.7 1072.7,-56.11 1063.52,-50.82 1062.22,-57.7"/>
</g>
<!-- Node4 -->
<g id="node4" class="node">
<title>Node4</title>
<g id="a_node4"><a xlink:href="classflow_1_1net__flow_1_1Node.html#a1699dfdaf3e5ebe1b1d715a9c306d116" target="_top" xlink:title="Handles a just&#45;received, not&#45;yet&#45;deserialized low&#45;level packet.">
<polygon fill="white" stroke="black" points="298,-106.5 298,-132.5 399,-132.5 399,-106.5 298,-106.5"/>
<text text-anchor="start" x="306" y="-122.1" font-family="Helvetica,sans-Serif" font-size="8.00">flow::net_flow::Node</text>
<text text-anchor="middle" x="348.5" y="-113.1" font-family="Helvetica,sans-Serif" font-size="8.00">::handle_incoming</text>
</a>
</g>
</g>
<!-- Node3&#45;&gt;Node4 -->
<g id="edge3" class="edge">
<title>Node3&#45;&gt;Node4</title>
<path fill="none" stroke="midnightblue" d="M932.02,-116.92C909.9,-133.5 875.37,-156.1 841,-165.5 677.53,-210.21 473.33,-158.4 388.87,-132.51"/>
<polygon fill="midnightblue" stroke="midnightblue" points="934.34,-119.55 940.14,-110.68 930.08,-114 934.34,-119.55"/>
</g>
<!-- Node10 -->
<g id="node7" class="node">
<title>Node10</title>
<g id="a_node7"><a xlink:href="classflow_1_1net__flow_1_1Node.html#ad608f9bbe76426f4fbf4bf5af908e4e0" target="_top" xlink:title="Placed by receive() onto W during a graceful close, after the Receive buffer had been emptied by the ...">
<polygon fill="white" stroke="black" points="716.5,-121 716.5,-156 837.5,-156 837.5,-121 716.5,-121"/>
<text text-anchor="start" x="724.5" y="-145.6" font-family="Helvetica,sans-Serif" font-size="8.00">flow::net_flow::Node</text>
<text text-anchor="start" x="724.5" y="-136.6" font-family="Helvetica,sans-Serif" font-size="8.00">::receive_emptied_rcv</text>
<text text-anchor="middle" x="777" y="-127.6" font-family="Helvetica,sans-Serif" font-size="8.00">_buf_while_disconnecting</text>
</a>
</g>
</g>
<!-- Node3&#45;&gt;Node10 -->
<g id="edge8" class="edge">
<title>Node3&#45;&gt;Node10</title>
<path fill="none" stroke="midnightblue" d="M889.35,-112.85C872.38,-116.76 854.24,-120.94 837.64,-124.76"/>
<polygon fill="midnightblue" stroke="midnightblue" points="890.23,-116.24 899.19,-110.59 888.66,-109.42 890.23,-116.24"/>
</g>
<!-- Node19 -->
<g id="node9" class="node">
<title>Node19</title>
<g id="a_node9"><a xlink:href="classflow_1_1net__flow_1_1Node.html#afe70a0c32695e417e7a09e0ba773f151" target="_top" xlink:title="Asynchronously send RST to the other side of the given socket and close_connection_immediately().">
<polygon fill="white" stroke="black" points="713,-67 713,-102 841,-102 841,-67 713,-67"/>
<text text-anchor="start" x="721" y="-91.6" font-family="Helvetica,sans-Serif" font-size="8.00">flow::net_flow::Node</text>
<text text-anchor="start" x="721" y="-82.6" font-family="Helvetica,sans-Serif" font-size="8.00">::rst_and_close_connection</text>
<text text-anchor="middle" x="777" y="-73.6" font-family="Helvetica,sans-Serif" font-size="8.00">_immediately</text>
</a>
</g>
</g>
<!-- Node3&#45;&gt;Node19 -->
<g id="edge10" class="edge">
<title>Node3&#45;&gt;Node19</title>
<path fill="none" stroke="midnightblue" d="M872.72,-91.42C862.13,-90.64 851.43,-89.86 841.22,-89.12"/>
<polygon fill="midnightblue" stroke="midnightblue" points="872.6,-94.92 882.83,-92.16 873.11,-87.94 872.6,-94.92"/>
</g>
<!-- Node9 -->
<g id="node13" class="node">
<title>Node9</title>
<g id="a_node13"><a xlink:href="classflow_1_1net__flow_1_1Node.html#a5b056ed753b832458f44f537acfe86d7" target="_top" xlink:title="Worker thread W (main event loop) body.">
<polygon fill="white" stroke="black" points="726.5,-21.5 726.5,-47.5 827.5,-47.5 827.5,-21.5 726.5,-21.5"/>
<text text-anchor="start" x="734.5" y="-37.1" font-family="Helvetica,sans-Serif" font-size="8.00">flow::net_flow::Node</text>
<text text-anchor="middle" x="777" y="-28.1" font-family="Helvetica,sans-Serif" font-size="8.00">::worker_run</text>
</a>
</g>
</g>
<!-- Node3&#45;&gt;Node9 -->
<g id="edge16" class="edge">
<title>Node3&#45;&gt;Node9</title>
<path fill="none" stroke="midnightblue" d="M896.86,-81.39C890.11,-79.23 883.37,-76.91 877,-74.5 860.45,-68.23 857.33,-64.32 841,-57.5 832.83,-54.09 823.96,-50.68 815.53,-47.56"/>
<polygon fill="midnightblue" stroke="midnightblue" points="896.13,-84.83 906.72,-84.46 898.21,-78.15 896.13,-84.83"/>
</g>
<!-- Node5 -->
<g id="node5" class="node">
<title>Node5</title>
<g id="a_node5"><a xlink:href="classflow_1_1net__flow_1_1Node.html#a4368247d07e930bdd07ab8d2425c6de8" target="_top" xlink:title="Sets up handle_incoming(packet_data, low_lvl_remote_endpoint) to be called asynchronously after a spe...">
<polygon fill="white" stroke="black" points="149,-125 149,-160 262,-160 262,-125 149,-125"/>
<text text-anchor="start" x="157" y="-149.6" font-family="Helvetica,sans-Serif" font-size="8.00">flow::net_flow::Node</text>
<text text-anchor="start" x="157" y="-140.6" font-family="Helvetica,sans-Serif" font-size="8.00">::async_wait_latency</text>
<text text-anchor="middle" x="205.5" y="-131.6" font-family="Helvetica,sans-Serif" font-size="8.00">_then_handle_incoming</text>
</a>
</g>
</g>
<!-- Node4&#45;&gt;Node5 -->
<g id="edge4" class="edge">
<title>Node4&#45;&gt;Node5</title>
<path fill="none" stroke="midnightblue" d="M287.86,-129.23C279.29,-130.63 270.49,-132.06 262.01,-133.45"/>
<polygon fill="midnightblue" stroke="midnightblue" points="288.48,-132.67 297.79,-127.61 287.36,-125.76 288.48,-132.67"/>
</g>
<!-- Node6 -->
<g id="node6" class="node">
<title>Node6</title>
<g id="a_node6"><a xlink:href="classflow_1_1net__flow_1_1Node.html#a90ecbad1ff3a8d2fe4b3ad1c474f7513" target="_top" xlink:title="Helper for low_lvl_recv_and_handle() that calls handle_incoming() on the not&#45;yet&#45;deserialized low&#45;lev...">
<polygon fill="white" stroke="red" points="0,-102 0,-137 113,-137 113,-102 0,-102"/>
<text text-anchor="start" x="8" y="-126.6" font-family="Helvetica,sans-Serif" font-size="8.00">flow::net_flow::Node</text>
<text text-anchor="start" x="8" y="-117.6" font-family="Helvetica,sans-Serif" font-size="8.00">::handle_incoming_with</text>
<text text-anchor="middle" x="56.5" y="-108.6" font-family="Helvetica,sans-Serif" font-size="8.00">_simulation</text>
</a>
</g>
</g>
<!-- Node4&#45;&gt;Node6 -->
<g id="edge7" class="edge">
<title>Node4&#45;&gt;Node6</title>
<path fill="none" stroke="midnightblue" d="M287.75,-116.35C279.11,-116 270.33,-115.69 262,-115.5 211.79,-114.33 199.21,-114.4 149,-115.5 137.4,-115.75 124.97,-116.19 113.13,-116.68"/>
<polygon fill="midnightblue" stroke="midnightblue" points="287.64,-119.85 297.78,-116.78 287.94,-112.85 287.64,-119.85"/>
</g>
<!-- Node5&#45;&gt;Node6 -->
<g id="edge5" class="edge">
<title>Node5&#45;&gt;Node6</title>
<path fill="none" stroke="midnightblue" d="M138.92,-132.24C130.32,-130.89 121.57,-129.52 113.15,-128.21"/>
<polygon fill="midnightblue" stroke="midnightblue" points="138.5,-135.72 148.93,-133.8 139.59,-128.8 138.5,-135.72"/>
</g>
<!-- Node6&#45;&gt;Node6 -->
<g id="edge6" class="edge">
<title>Node6&#45;&gt;Node6</title>
<path fill="none" stroke="midnightblue" d="M82.27,-147.6C78.65,-152.27 70.06,-155.5 56.5,-155.5 34.24,-155.5 25.37,-146.81 29.89,-137.28"/>
<polygon fill="midnightblue" stroke="midnightblue" points="85.79,-147.53 83.11,-137.28 78.81,-146.97 85.79,-147.53"/>
</g>
<!-- Node11 -->
<g id="node8" class="node">
<title>Node11</title>
<g id="a_node8"><a xlink:href="classflow_1_1net__flow_1_1Node.html#addbb96858fd7b3c9ddd7c6fe8078809c" target="_top" xlink:title="Implementation of non&#45;blocking sock&#45;&gt;receive() for socket sock in all cases except when sock&#45;&gt;state()...">
<polygon fill="white" stroke="red" points="576,-129.5 576,-155.5 677,-155.5 677,-129.5 576,-129.5"/>
<text text-anchor="start" x="584" y="-145.1" font-family="Helvetica,sans-Serif" font-size="8.00">flow::net_flow::Node</text>
<text text-anchor="middle" x="626.5" y="-136.1" font-family="Helvetica,sans-Serif" font-size="8.00">::receive</text>
</a>
</g>
</g>
<!-- Node10&#45;&gt;Node11 -->
<g id="edge9" class="edge">
<title>Node10&#45;&gt;Node11</title>
<path fill="none" stroke="midnightblue" d="M706.25,-140.38C696.39,-140.64 686.42,-140.91 677.05,-141.17"/>
<polygon fill="midnightblue" stroke="midnightblue" points="706.55,-143.87 716.46,-140.1 706.36,-136.87 706.55,-143.87"/>
</g>
<!-- Node20 -->
<g id="node10" class="node">
<title>Node20</title>
<g id="a_node10"><a xlink:href="classflow_1_1net__flow_1_1Node.html#a6461124e5bc3e59083e172e26029e632" target="_top" xlink:title="Implementation of non&#45;blocking sock&#45;&gt;close_abruptly() for socket sock in all cases except when sock&#45;&gt;...">
<polygon fill="white" stroke="red" points="576,-84.5 576,-110.5 677,-110.5 677,-84.5 576,-84.5"/>
<text text-anchor="start" x="584" y="-100.1" font-family="Helvetica,sans-Serif" font-size="8.00">flow::net_flow::Node</text>
<text text-anchor="middle" x="626.5" y="-91.1" font-family="Helvetica,sans-Serif" font-size="8.00">::close_abruptly</text>
</a>
</g>
</g>
<!-- Node19&#45;&gt;Node20 -->
<g id="edge11" class="edge">
<title>Node19&#45;&gt;Node20</title>
<path fill="none" stroke="midnightblue" d="M702.55,-90.93C693.97,-91.68 685.38,-92.43 677.23,-93.15"/>
<polygon fill="midnightblue" stroke="midnightblue" points="702.94,-94.41 712.59,-90.05 702.32,-87.44 702.94,-94.41"/>
</g>
<!-- Node22 -->
<g id="node11" class="node">
<title>Node22</title>
<g id="a_node11"><a xlink:href="classflow_1_1net__flow_1_1Node.html#a29d02f9e302c7b06288ff1c644fa8d65" target="_top" xlink:title="Handles a just&#45;deserialized, just&#45;demultiplexed low&#45;level SYN_ACK_ACK packet delivered to the given p...">
<polygon fill="white" stroke="black" points="435,-38 435,-73 540,-73 540,-38 435,-38"/>
<text text-anchor="start" x="443" y="-62.6" font-family="Helvetica,sans-Serif" font-size="8.00">flow::net_flow::Node</text>
<text text-anchor="start" x="443" y="-53.6" font-family="Helvetica,sans-Serif" font-size="8.00">::handle_syn_ack_ack</text>
<text text-anchor="middle" x="487.5" y="-44.6" font-family="Helvetica,sans-Serif" font-size="8.00">_to_syn_rcvd</text>
</a>
</g>
</g>
<!-- Node19&#45;&gt;Node22 -->
<g id="edge12" class="edge">
<title>Node19&#45;&gt;Node22</title>
<path fill="none" stroke="midnightblue" d="M702.75,-77.1C694.07,-76.22 685.34,-75.34 677,-74.5 630.69,-69.83 577.99,-64.52 540.1,-60.7"/>
<polygon fill="midnightblue" stroke="midnightblue" points="702.59,-80.6 712.89,-78.12 703.29,-73.64 702.59,-80.6"/>
</g>
<!-- Node23 -->
<g id="node12" class="node">
<title>Node23</title>
<g id="a_node12"><a xlink:href="classflow_1_1net__flow_1_1Node.html#ab427ebc124a6233ae48a7562662a6e81" target="_top" xlink:title="Creates a new Drop Timer and saves it to sock&#45;&gt;m_snd_drop_timer.">
<polygon fill="white" stroke="black" points="576,-0.5 576,-26.5 677,-26.5 677,-0.5 576,-0.5"/>
<text text-anchor="start" x="584" y="-16.1" font-family="Helvetica,sans-Serif" font-size="8.00">flow::net_flow::Node</text>
<text text-anchor="middle" x="626.5" y="-7.1" font-family="Helvetica,sans-Serif" font-size="8.00">::setup_drop_timer</text>
</a>
</g>
</g>
<!-- Node19&#45;&gt;Node23 -->
<g id="edge14" class="edge">
<title>Node19&#45;&gt;Node23</title>
<path fill="none" stroke="midnightblue" d="M726.3,-62.68C721.79,-60.62 717.3,-58.54 713,-56.5 692.58,-46.83 669.72,-35.3 652.78,-26.61"/>
<polygon fill="midnightblue" stroke="midnightblue" points="724.99,-65.92 735.54,-66.86 727.87,-59.55 724.99,-65.92"/>
</g>
<!-- Node22&#45;&gt;Node4 -->
<g id="edge13" class="edge">
<title>Node22&#45;&gt;Node4</title>
<path fill="none" stroke="midnightblue" d="M439.48,-77.47C418.89,-87.09 395.42,-98.05 377.61,-106.37"/>
<polygon fill="midnightblue" stroke="midnightblue" points="441.12,-80.56 448.7,-73.16 438.16,-74.22 441.12,-80.56"/>
</g>
<!-- Node23&#45;&gt;Node22 -->
<g id="edge15" class="edge">
<title>Node23&#45;&gt;Node22</title>
<path fill="none" stroke="midnightblue" d="M573.18,-29.54C562.38,-32.85 551.01,-36.34 540.23,-39.64"/>
<polygon fill="midnightblue" stroke="midnightblue" points="574.37,-32.84 582.9,-26.56 572.32,-26.14 574.37,-32.84"/>
</g>
<!-- Node24&#45;&gt;Node9 -->
<g id="edge19" class="edge">
<title>Node24&#45;&gt;Node9</title>
<path fill="none" stroke="midnightblue" d="M866.67,-34.5C853.28,-34.5 839.89,-34.5 827.73,-34.5"/>
<polygon fill="midnightblue" stroke="midnightblue" points="866.89,-38 876.89,-34.5 866.89,-31 866.89,-38"/>
</g>
<!-- Node24&#45;&gt;Node24 -->
<g id="edge18" class="edge">
<title>Node24&#45;&gt;Node24</title>
<path fill="none" stroke="midnightblue" d="M987.12,-57.58C984.06,-62.47 974.02,-66 957,-66 929.77,-66 920.4,-56.96 928.91,-47.77"/>
<polygon fill="midnightblue" stroke="midnightblue" points="990.54,-56.85 985.09,-47.77 983.69,-58.27 990.54,-56.85"/>
</g>
</g>
</svg>
