<?xml version="1.0" encoding="UTF-8" standalone="no"?>
<!DOCTYPE svg PUBLIC "-//W3C//DTD SVG 1.1//EN"
 "http://www.w3.org/Graphics/SVG/1.1/DTD/svg11.dtd">
<!-- Generated by graphviz version 2.43.0 (0)
 -->
<!-- Title: flow::net_flow::Node::sock_data_to_reassembly_q_unless_overflow Pages: 1 -->
<svg width="356pt" height="269pt"
 viewBox="0.00 0.00 356.00 269.00" xmlns="http://www.w3.org/2000/svg" xmlns:xlink="http://www.w3.org/1999/xlink">
<g id="graph0" class="graph" transform="scale(1 1) rotate(0) translate(4 265)">
<title>flow::net_flow::Node::sock_data_to_reassembly_q_unless_overflow</title>
<polygon fill="white" stroke="transparent" points="-4,4 -4,-265 352,-265 352,4 -4,4"/>
<!-- Node1 -->
<g id="node1" class="node">
<title>Node1</title>
<g id="a_node1"><a xlink:title="Helper for handle_data_to_established() that aims to register the given DATA packet as an out&#45;of&#45;orde...">
<polygon fill="#bfbfbf" stroke="black" points="0,-113 0,-148 127,-148 127,-113 0,-113"/>
<text text-anchor="start" x="8" y="-137.6" font-family="Helvetica,sans-Serif" font-size="8.00">flow::net_flow::Node</text>
<text text-anchor="start" x="8" y="-128.6" font-family="Helvetica,sans-Serif" font-size="8.00">::sock_data_to_reassembly</text>
<text text-anchor="middle" x="63.5" y="-119.6" font-family="Helvetica,sans-Serif" font-size="8.00">_q_unless_overflow</text>
</a>
</g>
</g>
<!-- Node2 -->
<g id="node2" class="node">
<title>Node2</title>
<g id="a_node2"><a xlink:href="classflow_1_1log_1_1Log__context.html#af4db395042b065b00398cd59845dcb4d" target="_top" xlink:title="Returns the stored Logger pointer, particularly as many FLOW_LOG_*() macros expect.">
<polygon fill="white" stroke="black" points="202,-234.5 202,-260.5 309,-260.5 309,-234.5 202,-234.5"/>
<text text-anchor="start" x="210" y="-250.1" font-family="Helvetica,sans-Serif" font-size="8.00">flow::log::Log_context</text>
<text text-anchor="middle" x="255.5" y="-241.1" font-family="Helvetica,sans-Serif" font-size="8.00">::get_logger</text>
</a>
</g>
</g>
<!-- Node1&#45;&gt;Node2 -->
<g id="edge1" class="edge">
<title>Node1&#45;&gt;Node2</title>
<path fill="none" stroke="midnightblue" d="M77.78,-148.13C95.02,-169.72 127.17,-205.85 163,-225.5 172.01,-230.44 182.12,-234.28 192.24,-237.27"/>
<polygon fill="midnightblue" stroke="midnightblue" points="191.34,-240.65 201.91,-239.87 193.16,-233.89 191.34,-240.65"/>
</g>
<!-- Node3 -->
<g id="node3" class="node">
<title>Node3</title>
<g id="a_node3"><a xlink:href="classflow_1_1net__flow_1_1Peer__socket__receive__stats__accumulator.html#a20f2fe00c0874f075fade075bb82e234" target="_top" xlink:title="Indicates good_data_packet(), and these data are not dropped (so either delivered into Receive buffer...">
<polygon fill="white" stroke="black" points="195,-171.5 195,-215.5 316,-215.5 316,-171.5 195,-171.5"/>
<text text-anchor="start" x="203" y="-205.1" font-family="Helvetica,sans-Serif" font-size="8.00">flow::net_flow::Peer</text>
<text text-anchor="start" x="203" y="-196.1" font-family="Helvetica,sans-Serif" font-size="8.00">_socket_receive_stats</text>
<text text-anchor="start" x="203" y="-187.1" font-family="Helvetica,sans-Serif" font-size="8.00">_accumulator::good_data</text>
<text text-anchor="middle" x="255.5" y="-178.1" font-family="Helvetica,sans-Serif" font-size="8.00">_accepted_packet</text>
</a>
</g>
</g>
<!-- Node1&#45;&gt;Node3 -->
<g id="edge2" class="edge">
<title>Node1&#45;&gt;Node3</title>
<path fill="none" stroke="midnightblue" d="M117.43,-148.05C138.37,-154.99 162.74,-163.07 185.07,-170.48"/>
<polygon fill="midnightblue" stroke="midnightblue" points="184.24,-173.89 194.83,-173.72 186.44,-167.25 184.24,-173.89"/>
</g>
<!-- Node4 -->
<g id="node4" class="node">
<title>Node4</title>
<g id="a_node4"><a xlink:href="classflow_1_1net__flow_1_1Peer__socket__receive__stats__accumulator.html#a30706cd9e07511f17ec73f6af10926f2" target="_top" xlink:title="Indicates good_data_packet(), but these data are dropped due to insufficient Receive reassembly queue...">
<polygon fill="white" stroke="black" points="163,-108.5 163,-152.5 348,-152.5 348,-108.5 163,-108.5"/>
<text text-anchor="start" x="171" y="-142.1" font-family="Helvetica,sans-Serif" font-size="8.00">flow::net_flow::Peer</text>
<text text-anchor="start" x="171" y="-133.1" font-family="Helvetica,sans-Serif" font-size="8.00">_socket_receive_stats</text>
<text text-anchor="start" x="171" y="-124.1" font-family="Helvetica,sans-Serif" font-size="8.00">_accumulator::good_data</text>
<text text-anchor="middle" x="255.5" y="-115.1" font-family="Helvetica,sans-Serif" font-size="8.00">_dropped_reassembly_q_overflow_packet</text>
</a>
</g>
</g>
<!-- Node1&#45;&gt;Node4 -->
<g id="edge3" class="edge">
<title>Node1&#45;&gt;Node4</title>
<path fill="none" stroke="midnightblue" d="M127.24,-130.5C135.47,-130.5 144.08,-130.5 152.75,-130.5"/>
<polygon fill="midnightblue" stroke="midnightblue" points="152.96,-134 162.96,-130.5 152.96,-127 152.96,-134"/>
</g>
<!-- Node5 -->
<g id="node5" class="node">
<title>Node5</title>
<g id="a_node5"><a xlink:href="classflow_1_1net__flow_1_1Peer__socket__receive__stats__accumulator.html#ae2ed3438420d6f331549e2decb9f0556" target="_top" xlink:title="Indicates good_data_accepted_packet(), and these data are, upon receipt, queued for reassembly (not i...">
<polygon fill="white" stroke="black" points="195,-45.5 195,-89.5 316,-89.5 316,-45.5 195,-45.5"/>
<text text-anchor="start" x="203" y="-79.1" font-family="Helvetica,sans-Serif" font-size="8.00">flow::net_flow::Peer</text>
<text text-anchor="start" x="203" y="-70.1" font-family="Helvetica,sans-Serif" font-size="8.00">_socket_receive_stats</text>
<text text-anchor="start" x="203" y="-61.1" font-family="Helvetica,sans-Serif" font-size="8.00">_accumulator::good_data</text>
<text text-anchor="middle" x="255.5" y="-52.1" font-family="Helvetica,sans-Serif" font-size="8.00">_first_qd_packet</text>
</a>
</g>
</g>
<!-- Node1&#45;&gt;Node5 -->
<g id="edge4" class="edge">
<title>Node1&#45;&gt;Node5</title>
<path fill="none" stroke="midnightblue" d="M117.43,-112.95C138.37,-106.01 162.74,-97.93 185.07,-90.52"/>
<polygon fill="midnightblue" stroke="midnightblue" points="186.44,-93.75 194.83,-87.28 184.24,-87.11 186.44,-93.75"/>
</g>
<!-- Node6 -->
<g id="node6" class="node">
<title>Node6</title>
<g id="a_node6"><a xlink:href="namespaceflow_1_1util.html#a34ed70fa4de81a4fdb9234bfb5a3a914" target="_top" xlink:title="Performs *minuend &#45;= subtrahend, subject to a floor of floor.">
<polygon fill="white" stroke="black" points="209.5,-0.5 209.5,-26.5 301.5,-26.5 301.5,-0.5 209.5,-0.5"/>
<text text-anchor="start" x="217.5" y="-16.1" font-family="Helvetica,sans-Serif" font-size="8.00">flow::util::subtract</text>
<text text-anchor="middle" x="255.5" y="-7.1" font-family="Helvetica,sans-Serif" font-size="8.00">_with_floor</text>
</a>
</g>
</g>
<!-- Node1&#45;&gt;Node6 -->
<g id="edge5" class="edge">
<title>Node1&#45;&gt;Node6</title>
<path fill="none" stroke="midnightblue" d="M78.16,-112.75C95.55,-91.41 127.61,-56.03 163,-36.5 174.2,-30.32 187.09,-25.77 199.59,-22.43"/>
<polygon fill="midnightblue" stroke="midnightblue" points="200.61,-25.78 209.49,-20 198.94,-18.98 200.61,-25.78"/>
</g>
</g>
</svg>
