<?xml version="1.0" encoding="UTF-8" standalone="no"?>
<!DOCTYPE svg PUBLIC "-//W3C//DTD SVG 1.1//EN"
 "http://www.w3.org/Graphics/SVG/1.1/DTD/svg11.dtd">
<!-- Generated by graphviz version 2.43.0 (0)
 -->
<!-- Title: flow::net_flow::asio::Server_socket::Server_socket Pages: 1 -->
<svg width="412pt" height="44pt"
 viewBox="0.00 0.00 412.00 44.00" xmlns="http://www.w3.org/2000/svg" xmlns:xlink="http://www.w3.org/1999/xlink">
<g id="graph0" class="graph" transform="scale(1 1) rotate(0) translate(4 40)">
<title>flow::net_flow::asio::Server_socket::Server_socket</title>
<polygon fill="white" stroke="transparent" points="-4,4 -4,-40 408,-40 408,4 -4,4"/>
<!-- Node1 -->
<g id="node1" class="node">
<title>Node1</title>
<g id="a_node1"><a xlink:title="Constructs object.">
<polygon fill="#bfbfbf" stroke="black" points="292,-0.5 292,-35.5 404,-35.5 404,-0.5 292,-0.5"/>
<text text-anchor="start" x="300" y="-25.1" font-family="Helvetica,sans-Serif" font-size="8.00">flow::net_flow::asio</text>
<text text-anchor="start" x="300" y="-16.1" font-family="Helvetica,sans-Serif" font-size="8.00">::Server_socket::Server</text>
<text text-anchor="middle" x="348" y="-7.1" font-family="Helvetica,sans-Serif" font-size="8.00">_socket</text>
</a>
</g>
</g>
<!-- Node2 -->
<g id="node2" class="node">
<title>Node2</title>
<g id="a_node2"><a xlink:href="classflow_1_1net__flow_1_1asio_1_1Server__socket.html#a01233841b5cde6b22a2ae2481c14c51b" target="_top" xlink:title="De&#45;templated implementation of all async_accept() methods.">
<polygon fill="white" stroke="black" points="146,-0.5 146,-35.5 256,-35.5 256,-0.5 146,-0.5"/>
<text text-anchor="start" x="154" y="-25.1" font-family="Helvetica,sans-Serif" font-size="8.00">flow::net_flow::asio</text>
<text text-anchor="start" x="154" y="-16.1" font-family="Helvetica,sans-Serif" font-size="8.00">::Server_socket::async</text>
<text text-anchor="middle" x="201" y="-7.1" font-family="Helvetica,sans-Serif" font-size="8.00">_accept_impl</text>
</a>
</g>
</g>
<!-- Node1&#45;&gt;Node2 -->
<g id="edge1" class="edge">
<title>Node1&#45;&gt;Node2</title>
<path fill="none" stroke="midnightblue" d="M281.51,-18C273.02,-18 264.4,-18 256.12,-18"/>
<polygon fill="midnightblue" stroke="midnightblue" points="281.77,-21.5 291.77,-18 281.77,-14.5 281.77,-21.5"/>
</g>
<!-- Node3 -->
<g id="node3" class="node">
<title>Node3</title>
<g id="a_node3"><a xlink:href="classflow_1_1net__flow_1_1asio_1_1Server__socket.html#a8f374618b5d754321ac288cd6f1f50ea" target="_top" xlink:title="boost.asio&#45;style asynchronous version that essentially performs net_flow::Server_socket::sync_accept(...">
<polygon fill="white" stroke="black" points="0,-0.5 0,-35.5 110,-35.5 110,-0.5 0,-0.5"/>
<text text-anchor="start" x="8" y="-25.1" font-family="Helvetica,sans-Serif" font-size="8.00">flow::net_flow::asio</text>
<text text-anchor="start" x="8" y="-16.1" font-family="Helvetica,sans-Serif" font-size="8.00">::Server_socket::async</text>
<text text-anchor="middle" x="55" y="-7.1" font-family="Helvetica,sans-Serif" font-size="8.00">_accept</text>
</a>
</g>
</g>
<!-- Node2&#45;&gt;Node3 -->
<g id="edge2" class="edge">
<title>Node2&#45;&gt;Node3</title>
<path fill="none" stroke="midnightblue" d="M135.73,-18C127.25,-18 118.62,-18 110.33,-18"/>
<polygon fill="midnightblue" stroke="midnightblue" points="135.97,-21.5 145.97,-18 135.97,-14.5 135.97,-21.5"/>
</g>
</g>
</svg>
