<?xml version="1.0" encoding="UTF-8" standalone="no"?>
<!DOCTYPE svg PUBLIC "-//W3C//DTD SVG 1.1//EN"
 "http://www.w3.org/Graphics/SVG/1.1/DTD/svg11.dtd">
<!-- Generated by graphviz version 2.43.0 (0)
 -->
<!-- Title: flow::util::Basic_blob&lt; Allocator, SHARING &gt; Pages: 1 -->
<svg width="371pt" height="193pt"
 viewBox="0.00 0.00 371.00 193.00" xmlns="http://www.w3.org/2000/svg" xmlns:xlink="http://www.w3.org/1999/xlink">
<g id="graph0" class="graph" transform="scale(1 1) rotate(0) translate(4 189)">
<title>flow::util::Basic_blob&lt; Allocator, SHARING &gt;</title>
<polygon fill="white" stroke="transparent" points="-4,4 -4,-189 367,-189 367,4 -4,4"/>
<!-- Node1 -->
<g id="node1" class="node">
<title>Node1</title>
<g id="a_node1"><a xlink:title="A hand&#45;optimized and API&#45;tweaked replacement for vector&lt;uint8_t&gt;, i.e., buffer of bytes inside an all...">
<polygon fill="#bfbfbf" stroke="black" points="252,-86 252,-112 363,-112 363,-86 252,-86"/>
<text text-anchor="start" x="260" y="-101.6" font-family="Helvetica,sans-Serif" font-size="8.00">flow::util::Basic_blob</text>
<text text-anchor="middle" x="307.5" y="-92.6" font-family="Helvetica,sans-Serif" font-size="8.00">&lt; Allocator, SHARING &gt;</text>
</a>
</g>
</g>
<!-- Node2 -->
<g id="node2" class="node">
<title>Node2</title>
<g id="a_node2"><a xlink:href="classbool.html" target="_top" xlink:title=" ">
<polygon fill="white" stroke="#bfbfbf" points="48,-167.5 48,-184.5 83,-184.5 83,-167.5 48,-167.5"/>
<text text-anchor="middle" x="65.5" y="-174.1" font-family="Helvetica,sans-Serif" font-size="8.00">bool</text>
</a>
</g>
</g>
<!-- Node2&#45;&gt;Node1 -->
<g id="edge1" class="edge">
<title>Node2&#45;&gt;Node1</title>
<path fill="none" stroke="#9a32cd" stroke-dasharray="5,2" d="M93.05,-172.25C126.63,-167 185.87,-156.02 234,-138 252.2,-131.18 271.53,-120.6 285.64,-112.18"/>
<polygon fill="#9a32cd" stroke="#9a32cd" points="92.46,-168.8 83.1,-173.76 93.51,-175.72 92.46,-168.8"/>
<text text-anchor="middle" x="191.5" y="-172.6" font-family="Helvetica,sans-Serif" font-size="8.00"> S_IS_VANILLA_ALLOC</text>
<text text-anchor="middle" x="191.5" y="-163.6" font-family="Helvetica,sans-Serif" font-size="8.00">S_SHARING</text>
</g>
<!-- Node3 -->
<g id="node3" class="node">
<title>Node3</title>
<g id="a_node3"><a xlink:title=" ">
<polygon fill="white" stroke="#bfbfbf" points="4.5,-131.5 4.5,-148.5 126.5,-148.5 126.5,-131.5 4.5,-131.5"/>
<text text-anchor="middle" x="65.5" y="-138.1" font-family="Helvetica,sans-Serif" font-size="8.00">static constexpr size_type</text>
</a>
</g>
</g>
<!-- Node3&#45;&gt;Node1 -->
<g id="edge2" class="edge">
<title>Node3&#45;&gt;Node1</title>
<path fill="none" stroke="#9a32cd" stroke-dasharray="5,2" d="M128.57,-129.8C160.15,-124.57 199.14,-118.04 234,-112 239.8,-111 245.85,-109.93 251.88,-108.86"/>
<polygon fill="#9a32cd" stroke="#9a32cd" points="127.88,-126.37 118.59,-131.46 129.02,-133.28 127.88,-126.37"/>
<text text-anchor="middle" x="191.5" y="-127.6" font-family="Helvetica,sans-Serif" font-size="8.00"> S_UNCHANGED</text>
</g>
<!-- Node4 -->
<g id="node4" class="node">
<title>Node4</title>
<g id="a_node4"><a xlink:title=" ">
<polygon fill="white" stroke="#bfbfbf" points="14.5,-86 14.5,-112 116.5,-112 116.5,-86 14.5,-86"/>
<text text-anchor="start" x="22.5" y="-101.6" font-family="Helvetica,sans-Serif" font-size="8.00">static constexpr Flow</text>
<text text-anchor="middle" x="65.5" y="-92.6" font-family="Helvetica,sans-Serif" font-size="8.00">_log_component</text>
</a>
</g>
</g>
<!-- Node4&#45;&gt;Node1 -->
<g id="edge3" class="edge">
<title>Node4&#45;&gt;Node1</title>
<path fill="none" stroke="#9a32cd" stroke-dasharray="5,2" d="M126.55,-99C165.04,-99 214.59,-99 251.95,-99"/>
<polygon fill="#9a32cd" stroke="#9a32cd" points="126.52,-95.5 116.52,-99 126.52,-102.5 126.52,-95.5"/>
<text text-anchor="middle" x="191.5" y="-101.6" font-family="Helvetica,sans-Serif" font-size="8.00"> S_LOG_COMPONENT</text>
</g>
<!-- Node5 -->
<g id="node5" class="node">
<title>Node5</title>
<g id="a_node5"><a xlink:title=" ">
<polygon fill="white" stroke="#bfbfbf" points="0,-41 0,-67 131,-67 131,-41 0,-41"/>
<text text-anchor="start" x="8" y="-56.6" font-family="Helvetica,sans-Serif" font-size="8.00">compressed_pair&lt; Allocator</text>
<text text-anchor="middle" x="65.5" y="-47.6" font-family="Helvetica,sans-Serif" font-size="8.00">_raw, Buf_ptr &gt;</text>
</a>
</g>
</g>
<!-- Node5&#45;&gt;Node1 -->
<g id="edge4" class="edge">
<title>Node5&#45;&gt;Node1</title>
<path fill="none" stroke="#9a32cd" stroke-dasharray="5,2" d="M141.06,-67.98C176.91,-74.7 219.11,-82.61 251.92,-88.77"/>
<polygon fill="#9a32cd" stroke="#9a32cd" points="141.61,-64.52 131.13,-66.12 140.31,-71.4 141.61,-64.52"/>
<text text-anchor="middle" x="191.5" y="-86.6" font-family="Helvetica,sans-Serif" font-size="8.00"> m_alloc_and_buf_ptr</text>
</g>
<!-- Node6 -->
<g id="node6" class="node">
<title>Node6</title>
<g id="a_node6"><a xlink:title=" ">
<polygon fill="white" stroke="#bfbfbf" points="45.5,-0.5 45.5,-17.5 85.5,-17.5 85.5,-0.5 45.5,-0.5"/>
<text text-anchor="middle" x="65.5" y="-7.1" font-family="Helvetica,sans-Serif" font-size="8.00">size_t</text>
</a>
</g>
</g>
<!-- Node6&#45;&gt;Node1 -->
<g id="edge5" class="edge">
<title>Node6&#45;&gt;Node1</title>
<path fill="none" stroke="#9a32cd" stroke-dasharray="5,2" d="M95.88,-9.49C130.45,-11.08 188.85,-16.99 234,-38 258.76,-49.52 281.89,-71.75 295.1,-85.95"/>
<polygon fill="#9a32cd" stroke="#9a32cd" points="95.66,-5.98 85.54,-9.11 95.41,-12.97 95.66,-5.98"/>
<text text-anchor="middle" x="191.5" y="-58.6" font-family="Helvetica,sans-Serif" font-size="8.00"> m_capacity</text>
<text text-anchor="middle" x="191.5" y="-49.6" font-family="Helvetica,sans-Serif" font-size="8.00">m_size</text>
<text text-anchor="middle" x="191.5" y="-40.6" font-family="Helvetica,sans-Serif" font-size="8.00">m_start</text>
</g>
</g>
</svg>
