<?xml version="1.0" encoding="UTF-8" standalone="no"?>
<!DOCTYPE svg PUBLIC "-//W3C//DTD SVG 1.1//EN"
 "http://www.w3.org/Graphics/SVG/1.1/DTD/svg11.dtd">
<!-- Generated by graphviz version 2.43.0 (0)
 -->
<!-- Title: flow::log::Config::this_thread_verbosity_override Pages: 1 -->
<svg width="277pt" height="90pt"
 viewBox="0.00 0.00 277.00 89.50" xmlns="http://www.w3.org/2000/svg" xmlns:xlink="http://www.w3.org/1999/xlink">
<g id="graph0" class="graph" transform="scale(1 1) rotate(0) translate(4 85.5)">
<title>flow::log::Config::this_thread_verbosity_override</title>
<polygon fill="white" stroke="transparent" points="-4,4 -4,-85.5 273,-85.5 273,4 -4,4"/>
<!-- Node1 -->
<g id="node1" class="node">
<title>Node1</title>
<g id="a_node1"><a xlink:title="Returns pointer to this thread&#39;s mutable verbosity override, for querying or assignment alike.">
<polygon fill="#bfbfbf" stroke="black" points="165,-25.5 165,-60.5 269,-60.5 269,-25.5 165,-25.5"/>
<text text-anchor="start" x="173" y="-50.1" font-family="Helvetica,sans-Serif" font-size="8.00">flow::log::Config::</text>
<text text-anchor="start" x="173" y="-41.1" font-family="Helvetica,sans-Serif" font-size="8.00">this_thread_verbosity</text>
<text text-anchor="middle" x="217" y="-32.1" font-family="Helvetica,sans-Serif" font-size="8.00">_override</text>
</a>
</g>
</g>
<!-- Node2 -->
<g id="node2" class="node">
<title>Node2</title>
<g id="a_node2"><a xlink:href="classflow_1_1log_1_1Config.html#ae429a329e31a41ba75f94578b0e7f26c" target="_top" xlink:title="A key output of Config, this computes the verbosity&#45;filtering answer to Logger::should_log() based on...">
<polygon fill="white" stroke="black" points="0,-55 0,-81 129,-81 129,-55 0,-55"/>
<text text-anchor="start" x="8" y="-70.6" font-family="Helvetica,sans-Serif" font-size="8.00">flow::log::Config::</text>
<text text-anchor="middle" x="64.5" y="-61.6" font-family="Helvetica,sans-Serif" font-size="8.00">output_whether_should_log</text>
</a>
</g>
</g>
<!-- Node1&#45;&gt;Node2 -->
<g id="edge1" class="edge">
<title>Node1&#45;&gt;Node2</title>
<path fill="none" stroke="midnightblue" d="M154.56,-53.21C146.18,-54.6 137.57,-56.03 129.15,-57.43"/>
<polygon fill="midnightblue" stroke="midnightblue" points="155.34,-56.63 164.63,-51.53 154.19,-49.72 155.34,-56.63"/>
</g>
<!-- Node3 -->
<g id="node3" class="node">
<title>Node3</title>
<g id="a_node3"><a xlink:href="classflow_1_1log_1_1Config.html#ab025990297cc07d51aaec277af203dfe" target="_top" xlink:title="Sets *(this_thread_verbosity_override()) = most_verbose_sev_or_none; and returns an object that shall...">
<polygon fill="white" stroke="black" points="12.5,-0.5 12.5,-35.5 116.5,-35.5 116.5,-0.5 12.5,-0.5"/>
<text text-anchor="start" x="20.5" y="-25.1" font-family="Helvetica,sans-Serif" font-size="8.00">flow::log::Config::</text>
<text text-anchor="start" x="20.5" y="-16.1" font-family="Helvetica,sans-Serif" font-size="8.00">this_thread_verbosity</text>
<text text-anchor="middle" x="64.5" y="-7.1" font-family="Helvetica,sans-Serif" font-size="8.00">_override_auto</text>
</a>
</g>
</g>
<!-- Node1&#45;&gt;Node3 -->
<g id="edge2" class="edge">
<title>Node1&#45;&gt;Node3</title>
<path fill="none" stroke="midnightblue" d="M154.65,-32.81C142.02,-30.71 128.86,-28.52 116.64,-26.5"/>
<polygon fill="midnightblue" stroke="midnightblue" points="154.19,-36.28 164.63,-34.47 155.34,-29.37 154.19,-36.28"/>
</g>
</g>
</svg>
