<?xml version="1.0" encoding="UTF-8" standalone="no"?>
<!DOCTYPE svg PUBLIC "-//W3C//DTD SVG 1.1//EN"
 "http://www.w3.org/Graphics/SVG/1.1/DTD/svg11.dtd">
<!-- Generated by graphviz version 2.43.0 (0)
 -->
<!-- Title: flow::net_flow::Drop_timer::create_drop_timer Pages: 1 -->
<svg width="263pt" height="80pt"
 viewBox="0.00 0.00 263.00 80.00" xmlns="http://www.w3.org/2000/svg" xmlns:xlink="http://www.w3.org/1999/xlink">
<g id="graph0" class="graph" transform="scale(1 1) rotate(0) translate(4 76)">
<title>flow::net_flow::Drop_timer::create_drop_timer</title>
<polygon fill="white" stroke="transparent" points="-4,4 -4,-76 259,-76 259,4 -4,4"/>
<!-- Node1 -->
<g id="node1" class="node">
<title>Node1</title>
<g id="a_node1"><a xlink:title="Constructs Drop_timer and returns a ref&#45;counted pointer wrapping it.">
<polygon fill="#bfbfbf" stroke="black" points="0,-22.5 0,-48.5 121,-48.5 121,-22.5 0,-22.5"/>
<text text-anchor="start" x="8" y="-38.1" font-family="Helvetica,sans-Serif" font-size="8.00">flow::net_flow::Drop</text>
<text text-anchor="middle" x="60.5" y="-29.1" font-family="Helvetica,sans-Serif" font-size="8.00">_timer::create_drop_timer</text>
</a>
</g>
</g>
<!-- Node2 -->
<g id="node2" class="node">
<title>Node2</title>
<g id="a_node2"><a xlink:href="classflow_1_1net__flow_1_1Drop__timer.html#a9c94b0191a80afb98b6da4a2d0b47a46" target="_top" xlink:title="Constructs Drop_timer as described in the factory constructor create_drop_timer().">
<polygon fill="white" stroke="black" points="157,-45.5 157,-71.5 255,-71.5 255,-45.5 157,-45.5"/>
<text text-anchor="start" x="165" y="-61.1" font-family="Helvetica,sans-Serif" font-size="8.00">flow::net_flow::Drop</text>
<text text-anchor="middle" x="206" y="-52.1" font-family="Helvetica,sans-Serif" font-size="8.00">_timer::Drop_timer</text>
</a>
</g>
</g>
<!-- Node1&#45;&gt;Node2 -->
<g id="edge1" class="edge">
<title>Node1&#45;&gt;Node2</title>
<path fill="none" stroke="midnightblue" d="M121.11,-45.05C129.54,-46.41 138.2,-47.79 146.61,-49.14"/>
<polygon fill="midnightblue" stroke="midnightblue" points="146.28,-52.63 156.71,-50.76 147.39,-45.72 146.28,-52.63"/>
</g>
<!-- Node3 -->
<g id="node3" class="node">
<title>Node3</title>
<g id="a_node3"><a xlink:href="classflow_1_1net__flow_1_1Drop__timer.html#a40029643f0a6c7a2a6b20499ca4c5a67" target="_top" xlink:title="Called by boost.asio after we post it, in the event of some timer error.">
<polygon fill="white" stroke="black" points="157,-0.5 157,-26.5 255,-26.5 255,-0.5 157,-0.5"/>
<text text-anchor="start" x="165" y="-16.1" font-family="Helvetica,sans-Serif" font-size="8.00">flow::net_flow::Drop</text>
<text text-anchor="middle" x="206" y="-7.1" font-family="Helvetica,sans-Serif" font-size="8.00">_timer::timer_failure</text>
</a>
</g>
</g>
<!-- Node1&#45;&gt;Node3 -->
<g id="edge2" class="edge">
<title>Node1&#45;&gt;Node3</title>
<path fill="none" stroke="midnightblue" d="M121.11,-26.36C129.54,-25.07 138.2,-23.74 146.61,-22.45"/>
<polygon fill="midnightblue" stroke="midnightblue" points="147.35,-25.88 156.71,-20.9 146.29,-18.96 147.35,-25.88"/>
</g>
</g>
</svg>
