<?xml version="1.0" encoding="UTF-8" standalone="no"?>
<!DOCTYPE svg PUBLIC "-//W3C//DTD SVG 1.1//EN"
 "http://www.w3.org/Graphics/SVG/1.1/DTD/svg11.dtd">
<!-- Generated by graphviz version 2.43.0 (0)
 -->
<!-- Title: flow::net_flow::Peer_socket::disconnect_cause Pages: 1 -->
<svg width="579pt" height="98pt"
 viewBox="0.00 0.00 579.00 98.00" xmlns="http://www.w3.org/2000/svg" xmlns:xlink="http://www.w3.org/1999/xlink">
<g id="graph0" class="graph" transform="scale(1 1) rotate(0) translate(4 94)">
<title>flow::net_flow::Peer_socket::disconnect_cause</title>
<polygon fill="white" stroke="transparent" points="-4,4 -4,-94 575,-94 575,4 -4,4"/>
<!-- Node1 -->
<g id="node1" class="node">
<title>Node1</title>
<g id="a_node1"><a xlink:title="The error code that perviously caused state() to become State::S_CLOSED, or success code if state is ...">
<polygon fill="#bfbfbf" stroke="black" points="444,-32 444,-58 571,-58 571,-32 444,-32"/>
<text text-anchor="start" x="452" y="-47.6" font-family="Helvetica,sans-Serif" font-size="8.00">flow::net_flow::Peer</text>
<text text-anchor="middle" x="507.5" y="-38.6" font-family="Helvetica,sans-Serif" font-size="8.00">_socket::disconnect_cause</text>
</a>
</g>
</g>
<!-- Node2 -->
<g id="node2" class="node">
<title>Node2</title>
<g id="a_node2"><a xlink:href="classflow_1_1net__flow_1_1asio_1_1Peer__socket.html#aa9e96966c7a8f5d35a34c0f5b3f65eb6" target="_top" xlink:title="Helper that returns the net_flow::asio::Node that generated *this; unless *this is closed; in which c...">
<polygon fill="white" stroke="black" points="298,-27.5 298,-62.5 408,-62.5 408,-27.5 298,-27.5"/>
<text text-anchor="start" x="306" y="-52.1" font-family="Helvetica,sans-Serif" font-size="8.00">flow::net_flow::asio</text>
<text text-anchor="start" x="306" y="-43.1" font-family="Helvetica,sans-Serif" font-size="8.00">::Peer_socket::node_or</text>
<text text-anchor="middle" x="353" y="-34.1" font-family="Helvetica,sans-Serif" font-size="8.00">_post_error</text>
</a>
</g>
</g>
<!-- Node1&#45;&gt;Node2 -->
<g id="edge1" class="edge">
<title>Node1&#45;&gt;Node2</title>
<path fill="none" stroke="midnightblue" d="M433.54,-45C424.94,-45 416.28,-45 408.01,-45"/>
<polygon fill="midnightblue" stroke="midnightblue" points="433.59,-48.5 443.59,-45 433.59,-41.5 433.59,-48.5"/>
</g>
<!-- Node3 -->
<g id="node3" class="node">
<title>Node3</title>
<g id="a_node3"><a xlink:href="classflow_1_1net__flow_1_1asio_1_1Peer__socket.html#a85e456ae997bae047e022d234bec9531" target="_top" xlink:title="De&#45;templated implementation of all async_receive() methods.">
<polygon fill="white" stroke="black" points="161,-54.5 161,-89.5 262,-89.5 262,-54.5 161,-54.5"/>
<text text-anchor="start" x="169" y="-79.1" font-family="Helvetica,sans-Serif" font-size="8.00">flow::net_flow::asio</text>
<text text-anchor="start" x="169" y="-70.1" font-family="Helvetica,sans-Serif" font-size="8.00">::Peer_socket::async</text>
<text text-anchor="middle" x="211.5" y="-61.1" font-family="Helvetica,sans-Serif" font-size="8.00">_receive_impl</text>
</a>
</g>
</g>
<!-- Node2&#45;&gt;Node3 -->
<g id="edge2" class="edge">
<title>Node2&#45;&gt;Node3</title>
<path fill="none" stroke="midnightblue" d="M287.74,-57.44C279.22,-59.09 270.59,-60.76 262.36,-62.35"/>
<polygon fill="midnightblue" stroke="midnightblue" points="288.51,-60.85 297.67,-55.52 287.18,-53.98 288.51,-60.85"/>
</g>
<!-- Node5 -->
<g id="node5" class="node">
<title>Node5</title>
<g id="a_node5"><a xlink:href="classflow_1_1net__flow_1_1asio_1_1Peer__socket.html#ab6c48bcfc9cab0b42216443f39fa8a4b" target="_top" xlink:title="De&#45;templated implementation of all async_send() methods.">
<polygon fill="white" stroke="black" points="161,-0.5 161,-35.5 262,-35.5 262,-0.5 161,-0.5"/>
<text text-anchor="start" x="169" y="-25.1" font-family="Helvetica,sans-Serif" font-size="8.00">flow::net_flow::asio</text>
<text text-anchor="start" x="169" y="-16.1" font-family="Helvetica,sans-Serif" font-size="8.00">::Peer_socket::async</text>
<text text-anchor="middle" x="211.5" y="-7.1" font-family="Helvetica,sans-Serif" font-size="8.00">_send_impl</text>
</a>
</g>
</g>
<!-- Node2&#45;&gt;Node5 -->
<g id="edge4" class="edge">
<title>Node2&#45;&gt;Node5</title>
<path fill="none" stroke="midnightblue" d="M287.74,-32.56C279.22,-30.91 270.59,-29.24 262.36,-27.65"/>
<polygon fill="midnightblue" stroke="midnightblue" points="287.18,-36.02 297.67,-34.48 288.51,-29.15 287.18,-36.02"/>
</g>
<!-- Node4 -->
<g id="node4" class="node">
<title>Node4</title>
<g id="a_node4"><a xlink:href="classflow_1_1net__flow_1_1asio_1_1Peer__socket.html#a98186f8257f1f7b49dbbbc13c0dda7fe" target="_top" xlink:title="boost.asio&#45;style asynchronous version that essentially performs non&#45;null_buffers net_flow::Peer_socke...">
<polygon fill="white" stroke="black" points="12,-54.5 12,-89.5 113,-89.5 113,-54.5 12,-54.5"/>
<text text-anchor="start" x="20" y="-79.1" font-family="Helvetica,sans-Serif" font-size="8.00">flow::net_flow::asio</text>
<text text-anchor="start" x="20" y="-70.1" font-family="Helvetica,sans-Serif" font-size="8.00">::Peer_socket::async</text>
<text text-anchor="middle" x="62.5" y="-61.1" font-family="Helvetica,sans-Serif" font-size="8.00">_receive</text>
</a>
</g>
</g>
<!-- Node3&#45;&gt;Node4 -->
<g id="edge3" class="edge">
<title>Node3&#45;&gt;Node4</title>
<path fill="none" stroke="midnightblue" d="M150.49,-72C138.1,-72 125.19,-72 113.22,-72"/>
<polygon fill="midnightblue" stroke="midnightblue" points="150.73,-75.5 160.73,-72 150.73,-68.5 150.73,-75.5"/>
</g>
<!-- Node6 -->
<g id="node6" class="node">
<title>Node6</title>
<g id="a_node6"><a xlink:href="classflow_1_1net__flow_1_1asio_1_1Peer__socket.html#a33adc635f29071b10ea59802405d9b6c" target="_top" xlink:title="boost.asio&#45;style asynchronous version that essentially performs non&#45;null_buffers net_flow::Peer_socke...">
<polygon fill="white" stroke="black" points="0,-5 0,-31 125,-31 125,-5 0,-5"/>
<text text-anchor="start" x="8" y="-20.6" font-family="Helvetica,sans-Serif" font-size="8.00">flow::net_flow::asio</text>
<text text-anchor="middle" x="62.5" y="-11.6" font-family="Helvetica,sans-Serif" font-size="8.00">::Peer_socket::async_send</text>
</a>
</g>
</g>
<!-- Node5&#45;&gt;Node6 -->
<g id="edge5" class="edge">
<title>Node5&#45;&gt;Node6</title>
<path fill="none" stroke="midnightblue" d="M150.65,-18C142.27,-18 133.63,-18 125.21,-18"/>
<polygon fill="midnightblue" stroke="midnightblue" points="150.73,-21.5 160.73,-18 150.73,-14.5 150.73,-21.5"/>
</g>
</g>
</svg>
