<?xml version="1.0" encoding="UTF-8" standalone="no"?>
<!DOCTYPE svg PUBLIC "-//W3C//DTD SVG 1.1//EN"
 "http://www.w3.org/Graphics/SVG/1.1/DTD/svg11.dtd">
<!-- Generated by graphviz version 2.43.0 (0)
 -->
<!-- Title: flow::net_flow::Node::async_low_lvl_packet_send_impl Pages: 1 -->
<svg width="1386pt" height="380pt"
 viewBox="0.00 0.00 1386.00 379.50" xmlns="http://www.w3.org/2000/svg" xmlns:xlink="http://www.w3.org/1999/xlink">
<g id="graph0" class="graph" transform="scale(1 1) rotate(0) translate(4 375.5)">
<title>flow::net_flow::Node::async_low_lvl_packet_send_impl</title>
<polygon fill="white" stroke="transparent" points="-4,4 -4,-375.5 1382,-375.5 1382,4 -4,4"/>
<!-- Node1 -->
<g id="node1" class="node">
<title>Node1</title>
<g id="a_node1"><a xlink:title="Takes given low&#45;level packet structure, serializes it, and initiates asynchronous send of these data ...">
<polygon fill="#bfbfbf" stroke="black" points="1269,-234 1269,-269 1378,-269 1378,-234 1269,-234"/>
<text text-anchor="start" x="1277" y="-258.6" font-family="Helvetica,sans-Serif" font-size="8.00">flow::net_flow::Node</text>
<text text-anchor="start" x="1277" y="-249.6" font-family="Helvetica,sans-Serif" font-size="8.00">::async_low_lvl_packet</text>
<text text-anchor="middle" x="1323.5" y="-240.6" font-family="Helvetica,sans-Serif" font-size="8.00">_send_impl</text>
</a>
</g>
</g>
<!-- Node2 -->
<g id="node2" class="node">
<title>Node2</title>
<g id="a_node2"><a xlink:href="classflow_1_1net__flow_1_1Node.html#a08a5752bf3848f31abbe753be47c1fcf" target="_top" xlink:title="async_low_lvl_packet_send_impl() wrapper to call when packet is to be sent to the remote side of the ...">
<polygon fill="white" stroke="black" points="1119,-300 1119,-335 1233,-335 1233,-300 1119,-300"/>
<text text-anchor="start" x="1127" y="-324.6" font-family="Helvetica,sans-Serif" font-size="8.00">flow::net_flow::Node</text>
<text text-anchor="start" x="1127" y="-315.6" font-family="Helvetica,sans-Serif" font-size="8.00">::async_no_sock_low_lvl</text>
<text text-anchor="middle" x="1176" y="-306.6" font-family="Helvetica,sans-Serif" font-size="8.00">_packet_send</text>
</a>
</g>
</g>
<!-- Node1&#45;&gt;Node2 -->
<g id="edge1" class="edge">
<title>Node1&#45;&gt;Node2</title>
<path fill="none" stroke="midnightblue" d="M1274.75,-273.16C1255.63,-281.83 1233.9,-291.69 1215.79,-299.9"/>
<polygon fill="midnightblue" stroke="midnightblue" points="1276.23,-276.33 1283.89,-269.01 1273.34,-269.96 1276.23,-276.33"/>
</g>
<!-- Node11 -->
<g id="node8" class="node">
<title>Node11</title>
<g id="a_node8"><a xlink:href="classflow_1_1net__flow_1_1Node.html#a0db2bb587e0407077b11368df075f0ff" target="_top" xlink:title="async_low_lvl_packet_send_impl() wrapper to call when packet is to be sent to the remote side of the ...">
<polygon fill="white" stroke="black" points="1125.5,-207 1125.5,-242 1226.5,-242 1226.5,-207 1125.5,-207"/>
<text text-anchor="start" x="1133.5" y="-231.6" font-family="Helvetica,sans-Serif" font-size="8.00">flow::net_flow::Node</text>
<text text-anchor="start" x="1133.5" y="-222.6" font-family="Helvetica,sans-Serif" font-size="8.00">::async_sock_low_lvl</text>
<text text-anchor="middle" x="1176" y="-213.6" font-family="Helvetica,sans-Serif" font-size="8.00">_packet_send</text>
</a>
</g>
</g>
<!-- Node1&#45;&gt;Node11 -->
<g id="edge10" class="edge">
<title>Node1&#45;&gt;Node11</title>
<path fill="none" stroke="midnightblue" d="M1258.59,-239.64C1247.9,-237.66 1236.96,-235.63 1226.69,-233.72"/>
<polygon fill="midnightblue" stroke="midnightblue" points="1258.26,-243.14 1268.73,-241.52 1259.54,-236.26 1258.26,-243.14"/>
</g>
<!-- Node3 -->
<g id="node3" class="node">
<title>Node3</title>
<g id="a_node3"><a xlink:href="classflow_1_1net__flow_1_1Node.html#a74a6a82a1390a76e985593969fb47184" target="_top" xlink:title="Sends an RST to the given UDP endpoint in response to the given incoming low&#45;level packet that came f...">
<polygon fill="white" stroke="black" points="627,-318 627,-353 741,-353 741,-318 627,-318"/>
<text text-anchor="start" x="635" y="-342.6" font-family="Helvetica,sans-Serif" font-size="8.00">flow::net_flow::Node</text>
<text text-anchor="start" x="635" y="-333.6" font-family="Helvetica,sans-Serif" font-size="8.00">::async_no_sock_low_lvl</text>
<text text-anchor="middle" x="684" y="-324.6" font-family="Helvetica,sans-Serif" font-size="8.00">_rst_send</text>
</a>
</g>
</g>
<!-- Node2&#45;&gt;Node3 -->
<g id="edge2" class="edge">
<title>Node2&#45;&gt;Node3</title>
<path fill="none" stroke="midnightblue" d="M1108.51,-319.94C1011.36,-323.51 832.32,-330.09 741.31,-333.43"/>
<polygon fill="midnightblue" stroke="midnightblue" points="1108.93,-323.43 1118.79,-319.56 1108.67,-316.43 1108.93,-323.43"/>
</g>
<!-- Node4 -->
<g id="node4" class="node">
<title>Node4</title>
<g id="a_node4"><a xlink:href="classflow_1_1net__flow_1_1Node.html#a1699dfdaf3e5ebe1b1d715a9c306d116" target="_top" xlink:title="Handles a just&#45;received, not&#45;yet&#45;deserialized low&#45;level packet.">
<polygon fill="white" stroke="black" points="311.5,-322.5 311.5,-348.5 412.5,-348.5 412.5,-322.5 311.5,-322.5"/>
<text text-anchor="start" x="319.5" y="-338.1" font-family="Helvetica,sans-Serif" font-size="8.00">flow::net_flow::Node</text>
<text text-anchor="middle" x="362" y="-329.1" font-family="Helvetica,sans-Serif" font-size="8.00">::handle_incoming</text>
</a>
</g>
</g>
<!-- Node3&#45;&gt;Node4 -->
<g id="edge3" class="edge">
<title>Node3&#45;&gt;Node4</title>
<path fill="none" stroke="midnightblue" d="M622.62,-355.87C612.19,-358.62 601.36,-361.01 591,-362.5 534.25,-370.66 518.83,-370.11 462,-362.5 441.69,-359.78 419.65,-354.06 401.53,-348.57"/>
<polygon fill="midnightblue" stroke="midnightblue" points="623.78,-359.18 632.48,-353.13 621.91,-352.44 623.78,-359.18"/>
</g>
<!-- Node10 -->
<g id="node7" class="node">
<title>Node10</title>
<g id="a_node7"><a xlink:href="classflow_1_1net__flow_1_1Node.html#aaaf5c3b5e6b9f9f1658b60907b36a498" target="_top" xlink:title="Handles a just&#45;deserialized, just&#45;demultiplexed low&#45;level SYN packet delivered to the given server so...">
<polygon fill="white" stroke="black" points="466.5,-318 466.5,-353 586.5,-353 586.5,-318 466.5,-318"/>
<text text-anchor="start" x="474.5" y="-342.6" font-family="Helvetica,sans-Serif" font-size="8.00">flow::net_flow::Node</text>
<text text-anchor="start" x="474.5" y="-333.6" font-family="Helvetica,sans-Serif" font-size="8.00">::handle_syn_to_listening</text>
<text text-anchor="middle" x="526.5" y="-324.6" font-family="Helvetica,sans-Serif" font-size="8.00">_server</text>
</a>
</g>
</g>
<!-- Node3&#45;&gt;Node10 -->
<g id="edge8" class="edge">
<title>Node3&#45;&gt;Node10</title>
<path fill="none" stroke="midnightblue" d="M616.62,-335.5C606.68,-335.5 596.48,-335.5 586.7,-335.5"/>
<polygon fill="midnightblue" stroke="midnightblue" points="616.86,-339 626.86,-335.5 616.86,-332 616.86,-339"/>
</g>
<!-- Node5 -->
<g id="node5" class="node">
<title>Node5</title>
<g id="a_node5"><a xlink:href="classflow_1_1net__flow_1_1Node.html#a4368247d07e930bdd07ab8d2425c6de8" target="_top" xlink:title="Sets up handle_incoming(packet_data, low_lvl_remote_endpoint) to be called asynchronously after a spe...">
<polygon fill="white" stroke="black" points="149,-295 149,-330 262,-330 262,-295 149,-295"/>
<text text-anchor="start" x="157" y="-319.6" font-family="Helvetica,sans-Serif" font-size="8.00">flow::net_flow::Node</text>
<text text-anchor="start" x="157" y="-310.6" font-family="Helvetica,sans-Serif" font-size="8.00">::async_wait_latency</text>
<text text-anchor="middle" x="205.5" y="-301.6" font-family="Helvetica,sans-Serif" font-size="8.00">_then_handle_incoming</text>
</a>
</g>
</g>
<!-- Node4&#45;&gt;Node5 -->
<g id="edge4" class="edge">
<title>Node4&#45;&gt;Node5</title>
<path fill="none" stroke="midnightblue" d="M301.12,-326.59C288.26,-324.67 274.72,-322.66 262.04,-320.77"/>
<polygon fill="midnightblue" stroke="midnightblue" points="300.86,-330.09 311.26,-328.1 301.89,-323.16 300.86,-330.09"/>
</g>
<!-- Node6 -->
<g id="node6" class="node">
<title>Node6</title>
<g id="a_node6"><a xlink:href="classflow_1_1net__flow_1_1Node.html#a90ecbad1ff3a8d2fe4b3ad1c474f7513" target="_top" xlink:title="Helper for low_lvl_recv_and_handle() that calls handle_incoming() on the not&#45;yet&#45;deserialized low&#45;lev...">
<polygon fill="white" stroke="red" points="0,-318 0,-353 113,-353 113,-318 0,-318"/>
<text text-anchor="start" x="8" y="-342.6" font-family="Helvetica,sans-Serif" font-size="8.00">flow::net_flow::Node</text>
<text text-anchor="start" x="8" y="-333.6" font-family="Helvetica,sans-Serif" font-size="8.00">::handle_incoming_with</text>
<text text-anchor="middle" x="56.5" y="-324.6" font-family="Helvetica,sans-Serif" font-size="8.00">_simulation</text>
</a>
</g>
</g>
<!-- Node4&#45;&gt;Node6 -->
<g id="edge7" class="edge">
<title>Node4&#45;&gt;Node6</title>
<path fill="none" stroke="midnightblue" d="M301.21,-338.31C288.29,-338.8 274.69,-339.24 262,-339.5 211.79,-340.51 199.21,-340.6 149,-339.5 137.4,-339.25 124.97,-338.81 113.13,-338.32"/>
<polygon fill="midnightblue" stroke="midnightblue" points="301.56,-341.79 311.41,-337.9 301.28,-334.8 301.56,-341.79"/>
</g>
<!-- Node5&#45;&gt;Node6 -->
<g id="edge5" class="edge">
<title>Node5&#45;&gt;Node6</title>
<path fill="none" stroke="midnightblue" d="M138.92,-322.76C130.32,-324.11 121.57,-325.48 113.15,-326.79"/>
<polygon fill="midnightblue" stroke="midnightblue" points="139.59,-326.2 148.93,-321.2 138.5,-319.28 139.59,-326.2"/>
</g>
<!-- Node6&#45;&gt;Node6 -->
<g id="edge6" class="edge">
<title>Node6&#45;&gt;Node6</title>
<path fill="none" stroke="midnightblue" d="M82.27,-363.6C78.65,-368.27 70.06,-371.5 56.5,-371.5 34.24,-371.5 25.37,-362.81 29.89,-353.28"/>
<polygon fill="midnightblue" stroke="midnightblue" points="85.79,-363.53 83.11,-353.28 78.81,-362.97 85.79,-363.53"/>
</g>
<!-- Node10&#45;&gt;Node4 -->
<g id="edge9" class="edge">
<title>Node10&#45;&gt;Node4</title>
<path fill="none" stroke="midnightblue" d="M456.34,-335.5C441.68,-335.5 426.49,-335.5 412.72,-335.5"/>
<polygon fill="midnightblue" stroke="midnightblue" points="456.37,-339 466.37,-335.5 456.37,-332 456.37,-339"/>
</g>
<!-- Node12 -->
<g id="node9" class="node">
<title>Node12</title>
<g id="a_node9"><a xlink:href="classflow_1_1net__flow_1_1Node.html#af1c4623729d0a061200a386f7a651926" target="_top" xlink:title="Begins the process of asynchronously sending the given low&#45;level packet to the remote Node specified ...">
<polygon fill="white" stroke="black" points="633.5,-184 633.5,-219 734.5,-219 734.5,-184 633.5,-184"/>
<text text-anchor="start" x="641.5" y="-208.6" font-family="Helvetica,sans-Serif" font-size="8.00">flow::net_flow::Node</text>
<text text-anchor="start" x="641.5" y="-199.6" font-family="Helvetica,sans-Serif" font-size="8.00">::async_sock_low_lvl</text>
<text text-anchor="middle" x="684" y="-190.6" font-family="Helvetica,sans-Serif" font-size="8.00">_packet_send_paced</text>
</a>
</g>
</g>
<!-- Node11&#45;&gt;Node12 -->
<g id="edge11" class="edge">
<title>Node11&#45;&gt;Node12</title>
<path fill="none" stroke="midnightblue" d="M1115.27,-229.32C1037.14,-234.52 896.17,-240.14 777,-224.5 763.12,-222.68 748.32,-219.53 734.73,-216.14"/>
<polygon fill="midnightblue" stroke="midnightblue" points="1115.67,-232.8 1125.4,-228.62 1115.19,-225.82 1115.67,-232.8"/>
</g>
<!-- Node42 -->
<g id="node19" class="node">
<title>Node42</title>
<g id="a_node19"><a xlink:href="classflow_1_1net__flow_1_1Node.html#a0556af278dc07a43f109fbd74ac64d5e" target="_top" xlink:title="async_sock_low_lvl_packet_send_paced() pacing helper: Handles a DATA or ACK packet that was just pass...">
<polygon fill="white" stroke="black" points="777,-188.5 777,-214.5 929,-214.5 929,-188.5 777,-188.5"/>
<text text-anchor="start" x="785" y="-204.1" font-family="Helvetica,sans-Serif" font-size="8.00">flow::net_flow::Node</text>
<text text-anchor="middle" x="853" y="-195.1" font-family="Helvetica,sans-Serif" font-size="8.00">::sock_pacing_new_packet_ready</text>
</a>
</g>
</g>
<!-- Node11&#45;&gt;Node42 -->
<g id="edge24" class="edge">
<title>Node11&#45;&gt;Node42</title>
<path fill="none" stroke="midnightblue" d="M1115.01,-220.2C1062.4,-216.43 985.68,-210.94 929.02,-206.88"/>
<polygon fill="midnightblue" stroke="midnightblue" points="1114.97,-223.71 1125.2,-220.93 1115.47,-216.73 1114.97,-223.71"/>
</g>
<!-- Node43 -->
<g id="node20" class="node">
<title>Node43</title>
<g id="a_node20"><a xlink:href="classflow_1_1net__flow_1_1Node.html#a73cfaa8e5ed7fe845f759a30423a9cbf" target="_top" xlink:title="async_sock_low_lvl_packet_send_paced() pacing helper: Given that we are currently in the pacing time ...">
<polygon fill="white" stroke="black" points="965,-147.5 965,-173.5 1083,-173.5 1083,-147.5 965,-147.5"/>
<text text-anchor="start" x="973" y="-163.1" font-family="Helvetica,sans-Serif" font-size="8.00">flow::net_flow::Node</text>
<text text-anchor="middle" x="1024" y="-154.1" font-family="Helvetica,sans-Serif" font-size="8.00">::sock_pacing_process_q</text>
</a>
</g>
</g>
<!-- Node11&#45;&gt;Node43 -->
<g id="edge26" class="edge">
<title>Node11&#45;&gt;Node43</title>
<path fill="none" stroke="midnightblue" d="M1124.12,-202.79C1101.43,-193.11 1075.45,-182.03 1055.78,-173.63"/>
<polygon fill="midnightblue" stroke="midnightblue" points="1123.04,-206.14 1133.61,-206.84 1125.79,-199.7 1123.04,-206.14"/>
</g>
<!-- Node12&#45;&gt;Node10 -->
<g id="edge21" class="edge">
<title>Node12&#45;&gt;Node10</title>
<path fill="none" stroke="midnightblue" d="M665.71,-227.78C648.98,-251.51 621.69,-286.06 591,-308.5 586.26,-311.96 581.01,-315.09 575.62,-317.88"/>
<polygon fill="midnightblue" stroke="midnightblue" points="668.79,-229.48 671.59,-219.26 663.03,-225.5 668.79,-229.48"/>
</g>
<!-- Node13 -->
<g id="node10" class="node">
<title>Node13</title>
<g id="a_node10"><a xlink:href="classflow_1_1net__flow_1_1Node.html#a11b11abade3b70f242dbb61cddb34ad1" target="_top" xlink:title="Sends a low&#45;level ACK packet, with all accumulated in Peer_socket::m_rcv_pending_acks of sock individ...">
<polygon fill="white" stroke="black" points="467,-218.5 467,-244.5 586,-244.5 586,-218.5 467,-218.5"/>
<text text-anchor="start" x="475" y="-234.1" font-family="Helvetica,sans-Serif" font-size="8.00">flow::net_flow::Node</text>
<text text-anchor="middle" x="526.5" y="-225.1" font-family="Helvetica,sans-Serif" font-size="8.00">::async_low_lvl_ack_send</text>
</a>
</g>
</g>
<!-- Node12&#45;&gt;Node13 -->
<g id="edge12" class="edge">
<title>Node12&#45;&gt;Node13</title>
<path fill="none" stroke="midnightblue" d="M623.31,-213.02C611.12,-215.37 598.31,-217.84 586.16,-220.18"/>
<polygon fill="midnightblue" stroke="midnightblue" points="624.22,-216.41 633.37,-211.07 622.89,-209.53 624.22,-216.41"/>
</g>
<!-- Node14 -->
<g id="node11" class="node">
<title>Node14</title>
<g id="a_node11"><a xlink:href="classflow_1_1net__flow_1_1Node.html#ae330d0f98ad34cb442d2bb251bdae460" target="_top" xlink:title="Helper to create, fully fill out, and asynchronously send via async_sock_low_lvl_packet_send_paced() ...">
<polygon fill="white" stroke="black" points="470,-164 470,-199 583,-199 583,-164 470,-164"/>
<text text-anchor="start" x="478" y="-188.6" font-family="Helvetica,sans-Serif" font-size="8.00">flow::net_flow::Node</text>
<text text-anchor="start" x="478" y="-179.6" font-family="Helvetica,sans-Serif" font-size="8.00">::async_low_lvl_syn_ack</text>
<text text-anchor="middle" x="526.5" y="-170.6" font-family="Helvetica,sans-Serif" font-size="8.00">_ack_send</text>
</a>
</g>
</g>
<!-- Node12&#45;&gt;Node14 -->
<g id="edge13" class="edge">
<title>Node12&#45;&gt;Node14</title>
<path fill="none" stroke="midnightblue" d="M623.42,-193.84C610.19,-192.13 596.21,-190.34 583.13,-188.66"/>
<polygon fill="midnightblue" stroke="midnightblue" points="623.01,-197.31 633.37,-195.12 623.9,-190.37 623.01,-197.31"/>
</g>
<!-- Node15 -->
<g id="node12" class="node">
<title>Node15</title>
<g id="a_node12"><a xlink:href="classflow_1_1net__flow_1_1Node.html#a192d4b95b9f8a5c3d08b1e5486eb6f78" target="_top" xlink:title="receive_wnd_updated() helper that continues rcv_wnd recovery: that is, sends unsolicited ACK with a r...">
<polygon fill="white" stroke="black" points="465.5,-100.5 465.5,-126.5 587.5,-126.5 587.5,-100.5 465.5,-100.5"/>
<text text-anchor="start" x="473.5" y="-116.1" font-family="Helvetica,sans-Serif" font-size="8.00">flow::net_flow::Node</text>
<text text-anchor="middle" x="526.5" y="-107.1" font-family="Helvetica,sans-Serif" font-size="8.00">::async_rcv_wnd_recovery</text>
</a>
</g>
</g>
<!-- Node12&#45;&gt;Node15 -->
<g id="edge14" class="edge">
<title>Node12&#45;&gt;Node15</title>
<path fill="none" stroke="midnightblue" d="M643.17,-178.96C613.98,-162.44 575.33,-140.57 550.94,-126.76"/>
<polygon fill="midnightblue" stroke="midnightblue" points="641.48,-182.02 651.91,-183.9 644.93,-175.93 641.48,-182.02"/>
</g>
<!-- Node25 -->
<g id="node14" class="node">
<title>Node25</title>
<g id="a_node14"><a xlink:href="classflow_1_1net__flow_1_1Node.html#ad03aa88df3d1d3981454ee3356e868c1" target="_top" xlink:title="Sends an RST to the other side of the given socket asynchronously when possible.">
<polygon fill="white" stroke="black" points="476,-264 476,-299 577,-299 577,-264 476,-264"/>
<text text-anchor="start" x="484" y="-288.6" font-family="Helvetica,sans-Serif" font-size="8.00">flow::net_flow::Node</text>
<text text-anchor="start" x="484" y="-279.6" font-family="Helvetica,sans-Serif" font-size="8.00">::async_sock_low_lvl</text>
<text text-anchor="middle" x="526.5" y="-270.6" font-family="Helvetica,sans-Serif" font-size="8.00">_rst_send</text>
</a>
</g>
</g>
<!-- Node12&#45;&gt;Node25 -->
<g id="edge17" class="edge">
<title>Node12&#45;&gt;Node25</title>
<path fill="none" stroke="midnightblue" d="M645.68,-224.37C629.17,-234.12 609.37,-245.34 591,-254.5 584.57,-257.71 577.66,-260.89 570.86,-263.89"/>
<polygon fill="midnightblue" stroke="midnightblue" points="647.69,-227.25 654.48,-219.12 644.1,-221.23 647.69,-227.25"/>
</g>
<!-- Node31 -->
<g id="node16" class="node">
<title>Node31</title>
<g id="a_node16"><a xlink:href="classflow_1_1net__flow_1_1Node.html#addd654cb6b1ccff34ddccbe5226be8f0" target="_top" xlink:title="Handles the triggering of the retransmit timer wait set up by setup_connection_timers(); it will re&#45;s...">
<polygon fill="white" stroke="black" points="462,-46 462,-81 591,-81 591,-46 462,-46"/>
<text text-anchor="start" x="470" y="-70.6" font-family="Helvetica,sans-Serif" font-size="8.00">flow::net_flow::Node</text>
<text text-anchor="start" x="470" y="-61.6" font-family="Helvetica,sans-Serif" font-size="8.00">::handle_connection_rexmit</text>
<text text-anchor="middle" x="526.5" y="-52.6" font-family="Helvetica,sans-Serif" font-size="8.00">_timer_event</text>
</a>
</g>
</g>
<!-- Node12&#45;&gt;Node31 -->
<g id="edge20" class="edge">
<title>Node12&#45;&gt;Node31</title>
<path fill="none" stroke="midnightblue" d="M666.7,-175.37C650.2,-150.71 622.64,-114.08 591,-90.5 586.29,-86.99 581.06,-83.84 575.68,-81.03"/>
<polygon fill="midnightblue" stroke="midnightblue" points="663.87,-177.43 672.27,-183.87 669.72,-173.59 663.87,-177.43"/>
</g>
<!-- Node32 -->
<g id="node17" class="node">
<title>Node32</title>
<g id="a_node17"><a xlink:href="classflow_1_1net__flow_1_1Node.html#a10a92f11a2c9f218cdd9a55f282e79b1" target="_top" xlink:title="Thread W implemention of send(): synchronously or asynchronously send the contents of sock&#45;&gt;m_snd_buf...">
<polygon fill="white" stroke="black" points="476,-0.5 476,-26.5 577,-26.5 577,-0.5 476,-0.5"/>
<text text-anchor="start" x="484" y="-16.1" font-family="Helvetica,sans-Serif" font-size="8.00">flow::net_flow::Node</text>
<text text-anchor="middle" x="526.5" y="-7.1" font-family="Helvetica,sans-Serif" font-size="8.00">::send_worker</text>
</a>
</g>
</g>
<!-- Node12&#45;&gt;Node32 -->
<g id="edge22" class="edge">
<title>Node12&#45;&gt;Node32</title>
<path fill="none" stroke="midnightblue" d="M674.47,-173.98C661.86,-137.62 634.88,-73.83 591,-36.5 586.36,-32.55 580.98,-29.26 575.36,-26.51"/>
<polygon fill="midnightblue" stroke="midnightblue" points="671.3,-175.52 677.79,-183.89 677.93,-173.3 671.3,-175.52"/>
</g>
<!-- Node15&#45;&gt;Node15 -->
<g id="edge15" class="edge">
<title>Node15&#45;&gt;Node15</title>
<path fill="none" stroke="midnightblue" d="M554.58,-136.94C551.46,-141.64 542.1,-145 526.5,-145 500.91,-145 492.11,-135.96 500.11,-126.77"/>
<polygon fill="midnightblue" stroke="midnightblue" points="557.98,-136.06 552.89,-126.77 551.07,-137.21 557.98,-136.06"/>
</g>
<!-- Node16 -->
<g id="node13" class="node">
<title>Node16</title>
<g id="a_node13"><a xlink:href="classflow_1_1net__flow_1_1Node.html#a08cf95363b26c0c676979437e34db357" target="_top" xlink:title="Placed by receive() onto W if it has dequeued data from Receive buffer and given it to the user,...">
<polygon fill="white" stroke="red" points="306,-100.5 306,-126.5 418,-126.5 418,-100.5 306,-100.5"/>
<text text-anchor="start" x="314" y="-116.1" font-family="Helvetica,sans-Serif" font-size="8.00">flow::net_flow::Node</text>
<text text-anchor="middle" x="362" y="-107.1" font-family="Helvetica,sans-Serif" font-size="8.00">::receive_wnd_updated</text>
</a>
</g>
</g>
<!-- Node15&#45;&gt;Node16 -->
<g id="edge16" class="edge">
<title>Node15&#45;&gt;Node16</title>
<path fill="none" stroke="midnightblue" d="M455.17,-113.5C442.81,-113.5 430.11,-113.5 418.23,-113.5"/>
<polygon fill="midnightblue" stroke="midnightblue" points="455.45,-117 465.45,-113.5 455.45,-110 455.45,-117"/>
</g>
<!-- Node25&#45;&gt;Node4 -->
<g id="edge18" class="edge">
<title>Node25&#45;&gt;Node4</title>
<path fill="none" stroke="midnightblue" d="M466.25,-301.19C444.95,-308.27 421.48,-316.07 402.29,-322.44"/>
<polygon fill="midnightblue" stroke="midnightblue" points="467.48,-304.47 475.86,-298 465.27,-297.83 467.48,-304.47"/>
</g>
<!-- Node26 -->
<g id="node15" class="node">
<title>Node26</title>
<g id="a_node15"><a xlink:href="classflow_1_1net__flow_1_1Node.html#afe70a0c32695e417e7a09e0ba773f151" target="_top" xlink:title="Asynchronously send RST to the other side of the given socket and close_connection_immediately().">
<polygon fill="white" stroke="red" points="298,-264 298,-299 426,-299 426,-264 298,-264"/>
<text text-anchor="start" x="306" y="-288.6" font-family="Helvetica,sans-Serif" font-size="8.00">flow::net_flow::Node</text>
<text text-anchor="start" x="306" y="-279.6" font-family="Helvetica,sans-Serif" font-size="8.00">::rst_and_close_connection</text>
<text text-anchor="middle" x="362" y="-270.6" font-family="Helvetica,sans-Serif" font-size="8.00">_immediately</text>
</a>
</g>
</g>
<!-- Node25&#45;&gt;Node26 -->
<g id="edge19" class="edge">
<title>Node25&#45;&gt;Node26</title>
<path fill="none" stroke="midnightblue" d="M465.72,-281.5C452.83,-281.5 439.16,-281.5 426.15,-281.5"/>
<polygon fill="midnightblue" stroke="midnightblue" points="465.86,-285 475.86,-281.5 465.86,-278 465.86,-285"/>
</g>
<!-- Node33 -->
<g id="node18" class="node">
<title>Node33</title>
<g id="a_node18"><a xlink:href="classflow_1_1net__flow_1_1Node.html#a2565b7c0bd82cad86eb168b62f8ffd9d" target="_top" xlink:title="Helper placed by send() onto W to invoke send_worker() but ensures that the socket has not entered so...">
<polygon fill="white" stroke="red" points="298.5,-0.5 298.5,-26.5 425.5,-26.5 425.5,-0.5 298.5,-0.5"/>
<text text-anchor="start" x="306.5" y="-16.1" font-family="Helvetica,sans-Serif" font-size="8.00">flow::net_flow::Node</text>
<text text-anchor="middle" x="362" y="-7.1" font-family="Helvetica,sans-Serif" font-size="8.00">::send_worker_check_state</text>
</a>
</g>
</g>
<!-- Node32&#45;&gt;Node33 -->
<g id="edge23" class="edge">
<title>Node32&#45;&gt;Node33</title>
<path fill="none" stroke="midnightblue" d="M465.59,-13.5C452.55,-13.5 438.71,-13.5 425.56,-13.5"/>
<polygon fill="midnightblue" stroke="midnightblue" points="465.86,-17 475.86,-13.5 465.86,-10 465.86,-17"/>
</g>
<!-- Node42&#45;&gt;Node12 -->
<g id="edge25" class="edge">
<title>Node42&#45;&gt;Node12</title>
<path fill="none" stroke="midnightblue" d="M766.79,-201.5C755.87,-201.5 745,-201.5 734.9,-201.5"/>
<polygon fill="midnightblue" stroke="midnightblue" points="766.81,-205 776.81,-201.5 766.81,-198 766.81,-205"/>
</g>
<!-- Node43&#45;&gt;Node42 -->
<g id="edge27" class="edge">
<title>Node43&#45;&gt;Node42</title>
<path fill="none" stroke="midnightblue" d="M959.23,-175.97C942.25,-180.09 924.09,-184.5 907.71,-188.47"/>
<polygon fill="midnightblue" stroke="midnightblue" points="960.17,-179.34 969.06,-173.59 958.52,-172.54 960.17,-179.34"/>
</g>
<!-- Node44 -->
<g id="node21" class="node">
<title>Node44</title>
<g id="a_node21"><a xlink:href="classflow_1_1net__flow_1_1Node.html#a3fd57a0d025a78cbeccfd8a15a983575" target="_top" xlink:title="async_sock_low_lvl_packet_send_paced() pacing helper: If sock_pacing_process_q() ran out of the last ...">
<polygon fill="white" stroke="black" points="784.5,-143.5 784.5,-169.5 921.5,-169.5 921.5,-143.5 784.5,-143.5"/>
<text text-anchor="start" x="792.5" y="-159.1" font-family="Helvetica,sans-Serif" font-size="8.00">flow::net_flow::Node</text>
<text text-anchor="middle" x="853" y="-150.1" font-family="Helvetica,sans-Serif" font-size="8.00">::sock_pacing_time_slice_end</text>
</a>
</g>
</g>
<!-- Node43&#45;&gt;Node44 -->
<g id="edge28" class="edge">
<title>Node43&#45;&gt;Node44</title>
<path fill="none" stroke="midnightblue" d="M954.55,-152.24C943.67,-151.83 932.43,-151.57 921.57,-151.47"/>
<polygon fill="midnightblue" stroke="midnightblue" points="954.7,-155.75 964.84,-152.67 955,-148.75 954.7,-155.75"/>
</g>
<!-- Node44&#45;&gt;Node43 -->
<g id="edge29" class="edge">
<title>Node44&#45;&gt;Node43</title>
<path fill="none" stroke="midnightblue" d="M931.73,-165.07C942.87,-165.4 954.17,-165.57 964.84,-165.57"/>
<polygon fill="midnightblue" stroke="midnightblue" points="931.68,-161.57 921.57,-164.73 931.45,-168.56 931.68,-161.57"/>
</g>
</g>
</svg>
