<?xml version="1.0" encoding="UTF-8" standalone="no"?>
<!DOCTYPE svg PUBLIC "-//W3C//DTD SVG 1.1//EN"
 "http://www.w3.org/Graphics/SVG/1.1/DTD/svg11.dtd">
<!-- Generated by graphviz version 2.43.0 (0)
 -->
<!-- Title: flow::net_flow::Node::receive_wnd_updated Pages: 1 -->
<svg width="1094pt" height="253pt"
 viewBox="0.00 0.00 1094.00 252.50" xmlns="http://www.w3.org/2000/svg" xmlns:xlink="http://www.w3.org/1999/xlink">
<g id="graph0" class="graph" transform="scale(1 1) rotate(0) translate(4 248.5)">
<title>flow::net_flow::Node::receive_wnd_updated</title>
<polygon fill="white" stroke="transparent" points="-4,4 -4,-248.5 1090,-248.5 1090,4 -4,4"/>
<!-- Node1 -->
<g id="node1" class="node">
<title>Node1</title>
<g id="a_node1"><a xlink:title="Placed by receive() onto W if it has dequeued data from Receive buffer and given it to the user,...">
<polygon fill="#bfbfbf" stroke="black" points="0,-50.5 0,-76.5 112,-76.5 112,-50.5 0,-50.5"/>
<text text-anchor="start" x="8" y="-66.1" font-family="Helvetica,sans-Serif" font-size="8.00">flow::net_flow::Node</text>
<text text-anchor="middle" x="56" y="-57.1" font-family="Helvetica,sans-Serif" font-size="8.00">::receive_wnd_updated</text>
</a>
</g>
</g>
<!-- Node2 -->
<g id="node2" class="node">
<title>Node2</title>
<g id="a_node2"><a xlink:href="classflow_1_1net__flow_1_1Node.html#a192d4b95b9f8a5c3d08b1e5486eb6f78" target="_top" xlink:title="receive_wnd_updated() helper that continues rcv_wnd recovery: that is, sends unsolicited ACK with a r...">
<polygon fill="white" stroke="black" points="148,-72.5 148,-98.5 270,-98.5 270,-72.5 148,-72.5"/>
<text text-anchor="start" x="156" y="-88.1" font-family="Helvetica,sans-Serif" font-size="8.00">flow::net_flow::Node</text>
<text text-anchor="middle" x="209" y="-79.1" font-family="Helvetica,sans-Serif" font-size="8.00">::async_rcv_wnd_recovery</text>
</a>
</g>
</g>
<!-- Node1&#45;&gt;Node2 -->
<g id="edge1" class="edge">
<title>Node1&#45;&gt;Node2</title>
<path fill="none" stroke="midnightblue" d="M112.37,-71.57C120.66,-72.77 129.29,-74.03 137.84,-75.28"/>
<polygon fill="midnightblue" stroke="midnightblue" points="137.4,-78.75 147.8,-76.73 138.41,-71.82 137.4,-78.75"/>
</g>
<!-- Node19 -->
<g id="node14" class="node">
<title>Node19</title>
<g id="a_node14"><a xlink:href="classflow_1_1net__flow_1_1Node.html#ac397d3fd163f1456b7bb370a3cff951c" target="_top" xlink:title="Computes and returns the currently correct rcv_wnd value; that is the amount of space free in Receive...">
<polygon fill="white" stroke="black" points="323.5,-0.5 323.5,-26.5 424.5,-26.5 424.5,-0.5 323.5,-0.5"/>
<text text-anchor="start" x="331.5" y="-16.1" font-family="Helvetica,sans-Serif" font-size="8.00">flow::net_flow::Node</text>
<text text-anchor="middle" x="374" y="-7.1" font-family="Helvetica,sans-Serif" font-size="8.00">::sock_rcv_wnd</text>
</a>
</g>
</g>
<!-- Node1&#45;&gt;Node19 -->
<g id="edge17" class="edge">
<title>Node1&#45;&gt;Node19</title>
<path fill="none" stroke="midnightblue" d="M112.04,-54.79C168.26,-45.9 255.27,-32.13 313.17,-22.97"/>
<polygon fill="midnightblue" stroke="midnightblue" points="313.94,-26.39 323.27,-21.37 312.84,-19.48 313.94,-26.39"/>
</g>
<!-- Node2&#45;&gt;Node2 -->
<g id="edge2" class="edge">
<title>Node2&#45;&gt;Node2</title>
<path fill="none" stroke="midnightblue" d="M183.28,-98.77C175.49,-107.96 184.06,-117 209,-117 224.2,-117 233.32,-113.64 236.36,-108.94"/>
<polygon fill="midnightblue" stroke="midnightblue" points="239.77,-108.09 234.72,-98.77 232.85,-109.2 239.77,-108.09"/>
</g>
<!-- Node3 -->
<g id="node3" class="node">
<title>Node3</title>
<g id="a_node3"><a xlink:href="classflow_1_1net__flow_1_1Node.html#af1c4623729d0a061200a386f7a651926" target="_top" xlink:title="Begins the process of asynchronously sending the given low&#45;level packet to the remote Node specified ...">
<polygon fill="white" stroke="black" points="323.5,-199 323.5,-234 424.5,-234 424.5,-199 323.5,-199"/>
<text text-anchor="start" x="331.5" y="-223.6" font-family="Helvetica,sans-Serif" font-size="8.00">flow::net_flow::Node</text>
<text text-anchor="start" x="331.5" y="-214.6" font-family="Helvetica,sans-Serif" font-size="8.00">::async_sock_low_lvl</text>
<text text-anchor="middle" x="374" y="-205.6" font-family="Helvetica,sans-Serif" font-size="8.00">_packet_send_paced</text>
</a>
</g>
</g>
<!-- Node2&#45;&gt;Node3 -->
<g id="edge3" class="edge">
<title>Node2&#45;&gt;Node3</title>
<path fill="none" stroke="midnightblue" d="M219.17,-98.75C234.75,-120.4 268.39,-163.53 306,-189.5 308.68,-191.35 311.51,-193.11 314.43,-194.76"/>
<polygon fill="midnightblue" stroke="midnightblue" points="312.91,-197.92 323.39,-199.45 316.15,-191.71 312.91,-197.92"/>
</g>
<!-- Node8 -->
<g id="node9" class="node">
<title>Node8</title>
<g id="a_node9"><a xlink:href="classflow_1_1log_1_1Log__context.html#af4db395042b065b00398cd59845dcb4d" target="_top" xlink:title="Returns the stored Logger pointer, particularly as many FLOW_LOG_*() macros expect.">
<polygon fill="white" stroke="black" points="320.5,-153.5 320.5,-179.5 427.5,-179.5 427.5,-153.5 320.5,-153.5"/>
<text text-anchor="start" x="328.5" y="-169.1" font-family="Helvetica,sans-Serif" font-size="8.00">flow::log::Log_context</text>
<text text-anchor="middle" x="374" y="-160.1" font-family="Helvetica,sans-Serif" font-size="8.00">::get_logger</text>
</a>
</g>
</g>
<!-- Node2&#45;&gt;Node8 -->
<g id="edge11" class="edge">
<title>Node2&#45;&gt;Node8</title>
<path fill="none" stroke="midnightblue" d="M228.4,-98.61C247.2,-111.58 277.6,-131.33 306,-144.5 310.11,-146.41 314.43,-148.22 318.82,-149.93"/>
<polygon fill="midnightblue" stroke="midnightblue" points="317.87,-153.31 328.46,-153.5 320.3,-146.75 317.87,-153.31"/>
</g>
<!-- Node15 -->
<g id="node10" class="node">
<title>Node15</title>
<g id="a_node10"><a xlink:href="classflow_1_1util_1_1Shared__ptr__alias__holder.html#a55a247bb8fb2ec94b7cbfdd56be65a81" target="_top" xlink:title="Provides syntactic&#45;sugary way to perform a static_pointer_cast&lt;&gt; from a compatible smart pointer type...">
<polygon fill="white" stroke="black" points="306,-90.5 306,-134.5 442,-134.5 442,-90.5 306,-90.5"/>
<text text-anchor="start" x="314" y="-124.1" font-family="Helvetica,sans-Serif" font-size="8.00">flow::util::Shared</text>
<text text-anchor="start" x="314" y="-115.1" font-family="Helvetica,sans-Serif" font-size="8.00">_ptr_alias_holder&lt; boost</text>
<text text-anchor="start" x="314" y="-106.1" font-family="Helvetica,sans-Serif" font-size="8.00">::shared_ptr&lt; Low_lvl_packet</text>
<text text-anchor="middle" x="374" y="-97.1" font-family="Helvetica,sans-Serif" font-size="8.00"> &gt; &gt;::ptr_cast</text>
</a>
</g>
</g>
<!-- Node2&#45;&gt;Node15 -->
<g id="edge12" class="edge">
<title>Node2&#45;&gt;Node15</title>
<path fill="none" stroke="midnightblue" d="M270.23,-95.48C278.58,-96.86 287.24,-98.29 295.84,-99.72"/>
<polygon fill="midnightblue" stroke="midnightblue" points="295.44,-103.2 305.88,-101.38 296.58,-96.29 295.44,-103.2"/>
</g>
<!-- Node16 -->
<g id="node11" class="node">
<title>Node16</title>
<g id="a_node11"><a xlink:href="namespaceflow_1_1util.html#a74d4a66fb00055be4e1bd6ee98e04667" target="_top" xlink:title="Schedule the given function to execute in a certain amount of time: A handy wrapper around Timer (asi...">
<polygon fill="white" stroke="black" points="326.5,-45.5 326.5,-71.5 421.5,-71.5 421.5,-45.5 326.5,-45.5"/>
<text text-anchor="start" x="334.5" y="-61.1" font-family="Helvetica,sans-Serif" font-size="8.00">flow::util::schedule</text>
<text text-anchor="middle" x="374" y="-52.1" font-family="Helvetica,sans-Serif" font-size="8.00">_task_from_now</text>
</a>
</g>
</g>
<!-- Node2&#45;&gt;Node16 -->
<g id="edge13" class="edge">
<title>Node2&#45;&gt;Node16</title>
<path fill="none" stroke="midnightblue" d="M270.23,-75.52C285.26,-73.03 301.33,-70.37 316.19,-67.91"/>
<polygon fill="midnightblue" stroke="midnightblue" points="316.97,-71.33 326.26,-66.24 315.82,-64.42 316.97,-71.33"/>
</g>
<!-- Node2&#45;&gt;Node19 -->
<g id="edge16" class="edge">
<title>Node2&#45;&gt;Node19</title>
<path fill="none" stroke="midnightblue" d="M238.31,-72.37C248.4,-67.55 259.79,-61.94 270,-56.5 286.35,-47.8 289.11,-43.1 306,-35.5 310.31,-33.56 314.84,-31.71 319.43,-29.96"/>
<polygon fill="midnightblue" stroke="midnightblue" points="320.69,-33.23 328.88,-26.51 318.29,-26.65 320.69,-33.23"/>
</g>
<!-- Node4 -->
<g id="node4" class="node">
<title>Node4</title>
<g id="a_node4"><a xlink:href="classflow_1_1net__flow_1_1Node.html#a0db2bb587e0407077b11368df075f0ff" target="_top" xlink:title="async_low_lvl_packet_send_impl() wrapper to call when packet is to be sent to the remote side of the ...">
<polygon fill="white" stroke="black" points="840,-209 840,-244 941,-244 941,-209 840,-209"/>
<text text-anchor="start" x="848" y="-233.6" font-family="Helvetica,sans-Serif" font-size="8.00">flow::net_flow::Node</text>
<text text-anchor="start" x="848" y="-224.6" font-family="Helvetica,sans-Serif" font-size="8.00">::async_sock_low_lvl</text>
<text text-anchor="middle" x="890.5" y="-215.6" font-family="Helvetica,sans-Serif" font-size="8.00">_packet_send</text>
</a>
</g>
</g>
<!-- Node3&#45;&gt;Node4 -->
<g id="edge4" class="edge">
<title>Node3&#45;&gt;Node4</title>
<path fill="none" stroke="midnightblue" d="M424.75,-220.3C441.64,-221.48 460.63,-222.68 478,-223.5 622.74,-230.34 659.1,-230.19 804,-228.5 812.32,-228.4 821.1,-228.25 829.74,-228.08"/>
<polygon fill="midnightblue" stroke="midnightblue" points="829.85,-231.57 839.77,-227.86 829.7,-224.58 829.85,-231.57"/>
</g>
<!-- Node11 -->
<g id="node6" class="node">
<title>Node11</title>
<g id="a_node6"><a xlink:href="classflow_1_1net__flow_1_1Node.html#a0556af278dc07a43f109fbd74ac64d5e" target="_top" xlink:title="async_sock_low_lvl_packet_send_paced() pacing helper: Handles a DATA or ACK packet that was just pass...">
<polygon fill="white" stroke="black" points="478,-187.5 478,-213.5 630,-213.5 630,-187.5 478,-187.5"/>
<text text-anchor="start" x="486" y="-203.1" font-family="Helvetica,sans-Serif" font-size="8.00">flow::net_flow::Node</text>
<text text-anchor="middle" x="554" y="-194.1" font-family="Helvetica,sans-Serif" font-size="8.00">::sock_pacing_new_packet_ready</text>
</a>
</g>
</g>
<!-- Node3&#45;&gt;Node11 -->
<g id="edge6" class="edge">
<title>Node3&#45;&gt;Node11</title>
<path fill="none" stroke="midnightblue" d="M424.58,-212.04C437.96,-210.84 452.82,-209.51 467.55,-208.18"/>
<polygon fill="midnightblue" stroke="midnightblue" points="468.06,-211.65 477.71,-207.27 467.43,-204.68 468.06,-211.65"/>
</g>
<!-- Node5 -->
<g id="node5" class="node">
<title>Node5</title>
<g id="a_node5"><a xlink:href="classflow_1_1net__flow_1_1Node.html#a9f302fe63e36f72931e1a759b0aaaed4" target="_top" xlink:title="Takes given low&#45;level packet structure, serializes it, and initiates asynchronous send of these data ...">
<polygon fill="white" stroke="red" points="977,-209 977,-244 1086,-244 1086,-209 977,-209"/>
<text text-anchor="start" x="985" y="-233.6" font-family="Helvetica,sans-Serif" font-size="8.00">flow::net_flow::Node</text>
<text text-anchor="start" x="985" y="-224.6" font-family="Helvetica,sans-Serif" font-size="8.00">::async_low_lvl_packet</text>
<text text-anchor="middle" x="1031.5" y="-215.6" font-family="Helvetica,sans-Serif" font-size="8.00">_send_impl</text>
</a>
</g>
</g>
<!-- Node4&#45;&gt;Node5 -->
<g id="edge5" class="edge">
<title>Node4&#45;&gt;Node5</title>
<path fill="none" stroke="midnightblue" d="M941.29,-226.5C949.49,-226.5 958.08,-226.5 966.57,-226.5"/>
<polygon fill="midnightblue" stroke="midnightblue" points="966.82,-230 976.82,-226.5 966.82,-223 966.82,-230"/>
</g>
<!-- Node11&#45;&gt;Node4 -->
<g id="edge7" class="edge">
<title>Node11&#45;&gt;Node4</title>
<path fill="none" stroke="midnightblue" d="M630.07,-206.33C690.27,-211.01 773.65,-217.5 829.47,-221.83"/>
<polygon fill="midnightblue" stroke="midnightblue" points="829.32,-225.33 839.56,-222.62 829.86,-218.35 829.32,-225.33"/>
</g>
<!-- Node12 -->
<g id="node7" class="node">
<title>Node12</title>
<g id="a_node7"><a xlink:href="classflow_1_1net__flow_1_1Node.html#afb88dafa8ec5c1b412de86dfdccd9c8f" target="_top" xlink:title="async_sock_low_lvl_packet_send_paced() pacing helper: Resets the socket&#39;s Send_pacing_data structure ...">
<polygon fill="white" stroke="red" points="666,-171.5 666,-197.5 804,-197.5 804,-171.5 666,-171.5"/>
<text text-anchor="start" x="674" y="-187.1" font-family="Helvetica,sans-Serif" font-size="8.00">flow::net_flow::Node</text>
<text text-anchor="middle" x="735" y="-178.1" font-family="Helvetica,sans-Serif" font-size="8.00">::sock_pacing_new_time_slice</text>
</a>
</g>
</g>
<!-- Node11&#45;&gt;Node12 -->
<g id="edge8" class="edge">
<title>Node11&#45;&gt;Node12</title>
<path fill="none" stroke="midnightblue" d="M630.13,-193.78C638.66,-193.02 647.37,-192.24 655.93,-191.48"/>
<polygon fill="midnightblue" stroke="midnightblue" points="656.25,-194.96 665.9,-190.59 655.63,-187.99 656.25,-194.96"/>
</g>
<!-- Node13 -->
<g id="node8" class="node">
<title>Node13</title>
<g id="a_node8"><a xlink:href="classflow_1_1net__flow_1_1Node.html#a73cfaa8e5ed7fe845f759a30423a9cbf" target="_top" xlink:title="async_sock_low_lvl_packet_send_paced() pacing helper: Given that we are currently in the pacing time ...">
<polygon fill="white" stroke="red" points="676,-126.5 676,-152.5 794,-152.5 794,-126.5 676,-126.5"/>
<text text-anchor="start" x="684" y="-142.1" font-family="Helvetica,sans-Serif" font-size="8.00">flow::net_flow::Node</text>
<text text-anchor="middle" x="735" y="-133.1" font-family="Helvetica,sans-Serif" font-size="8.00">::sock_pacing_process_q</text>
</a>
</g>
</g>
<!-- Node11&#45;&gt;Node13 -->
<g id="edge9" class="edge">
<title>Node11&#45;&gt;Node13</title>
<path fill="none" stroke="midnightblue" d="M593,-187.45C614.43,-180.1 641.7,-170.77 666,-162.5 672.34,-160.34 679.02,-158.08 685.61,-155.84"/>
<polygon fill="midnightblue" stroke="midnightblue" points="686.81,-159.13 695.16,-152.61 684.56,-152.5 686.81,-159.13"/>
</g>
<!-- Node13&#45;&gt;Node4 -->
<g id="edge10" class="edge">
<title>Node13&#45;&gt;Node4</title>
<path fill="none" stroke="midnightblue" d="M781.1,-152.51C788.92,-155.39 796.83,-158.73 804,-162.5 824.68,-173.38 845.72,-189.06 861.75,-202.18"/>
<polygon fill="midnightblue" stroke="midnightblue" points="859.73,-205.05 869.65,-208.76 864.21,-199.67 859.73,-205.05"/>
</g>
<!-- Node17 -->
<g id="node12" class="node">
<title>Node17</title>
<g id="a_node12"><a xlink:href="classflow_1_1util_1_1Unique__id__holder.html#a50489177a7731618ca130468c3872748" target="_top" xlink:title="Short&#45;hand for Unique_id_holder().unique_id(); useful when all you want is the unique integer itself.">
<polygon fill="white" stroke="black" points="487,-45.5 487,-71.5 621,-71.5 621,-45.5 487,-45.5"/>
<text text-anchor="start" x="495" y="-61.1" font-family="Helvetica,sans-Serif" font-size="8.00">flow::util::Unique</text>
<text text-anchor="middle" x="554" y="-52.1" font-family="Helvetica,sans-Serif" font-size="8.00">_id_holder::create_unique_id</text>
</a>
</g>
</g>
<!-- Node16&#45;&gt;Node17 -->
<g id="edge14" class="edge">
<title>Node16&#45;&gt;Node17</title>
<path fill="none" stroke="midnightblue" d="M421.77,-58.5C438.54,-58.5 457.92,-58.5 476.55,-58.5"/>
<polygon fill="midnightblue" stroke="midnightblue" points="476.8,-62 486.8,-58.5 476.8,-55 476.8,-62"/>
</g>
<!-- Node18 -->
<g id="node13" class="node">
<title>Node18</title>
<g id="a_node13"><a xlink:href="classflow_1_1util_1_1Unique__id__holder.html#a90705293787069f52372638d5450ef52" target="_top" xlink:title="Thread&#45;safely construct an ID whose value is different from any other object of this class,...">
<polygon fill="white" stroke="black" points="683,-41 683,-76 787,-76 787,-41 683,-41"/>
<text text-anchor="start" x="691" y="-65.6" font-family="Helvetica,sans-Serif" font-size="8.00">flow::util::Unique</text>
<text text-anchor="start" x="691" y="-56.6" font-family="Helvetica,sans-Serif" font-size="8.00">_id_holder::Unique_id</text>
<text text-anchor="middle" x="735" y="-47.6" font-family="Helvetica,sans-Serif" font-size="8.00">_holder</text>
</a>
</g>
</g>
<!-- Node17&#45;&gt;Node18 -->
<g id="edge15" class="edge">
<title>Node17&#45;&gt;Node18</title>
<path fill="none" stroke="midnightblue" d="M621.14,-58.5C638.05,-58.5 656.15,-58.5 672.8,-58.5"/>
<polygon fill="midnightblue" stroke="midnightblue" points="672.95,-62 682.95,-58.5 672.95,-55 672.95,-62"/>
</g>
</g>
</svg>
