<?xml version="1.0" encoding="UTF-8" standalone="no"?>
<!DOCTYPE svg PUBLIC "-//W3C//DTD SVG 1.1//EN"
 "http://www.w3.org/Graphics/SVG/1.1/DTD/svg11.dtd">
<!-- Generated by graphviz version 2.43.0 (0)
 -->
<!-- Title: flow::net_flow::Peer_socket::sync_send_impl Pages: 1 -->
<svg width="871pt" height="405pt"
 viewBox="0.00 0.00 871.00 405.00" xmlns="http://www.w3.org/2000/svg" xmlns:xlink="http://www.w3.org/1999/xlink">
<g id="graph0" class="graph" transform="scale(1 1) rotate(0) translate(4 401)">
<title>flow::net_flow::Peer_socket::sync_send_impl</title>
<polygon fill="white" stroke="transparent" points="-4,4 -4,-401 867,-401 867,4 -4,4"/>
<!-- Node1 -->
<g id="node1" class="node">
<title>Node1</title>
<g id="a_node1"><a xlink:title="Same as sync_send() but uses a Fine_clock&#45;based Fine_duration non&#45;template type for implementation co...">
<polygon fill="#bfbfbf" stroke="black" points="0,-215.5 0,-241.5 117,-241.5 117,-215.5 0,-215.5"/>
<text text-anchor="start" x="8" y="-231.1" font-family="Helvetica,sans-Serif" font-size="8.00">flow::net_flow::Peer</text>
<text text-anchor="middle" x="58.5" y="-222.1" font-family="Helvetica,sans-Serif" font-size="8.00">_socket::sync_send_impl</text>
</a>
</g>
</g>
<!-- Node2 -->
<g id="node2" class="node">
<title>Node2</title>
<g id="a_node2"><a xlink:href="classflow_1_1net__flow_1_1Socket__buffer.html#a69a0c514df820c36e7109fb1fcf78522" target="_top" xlink:title="Feeds (adds to the back of the byte buffer) the contents of the byte stream composed of the bytes in ...">
<polygon fill="white" stroke="black" points="156.5,-283.5 156.5,-309.5 270.5,-309.5 270.5,-283.5 156.5,-283.5"/>
<text text-anchor="start" x="164.5" y="-299.1" font-family="Helvetica,sans-Serif" font-size="8.00">flow::net_flow::Socket</text>
<text text-anchor="middle" x="213.5" y="-290.1" font-family="Helvetica,sans-Serif" font-size="8.00">_buffer::feed_bufs_copy</text>
</a>
</g>
</g>
<!-- Node1&#45;&gt;Node2 -->
<g id="edge1" class="edge">
<title>Node1&#45;&gt;Node2</title>
<path fill="none" stroke="midnightblue" d="M89,-241.61C113.13,-252.34 147.44,-267.59 173.78,-279.29"/>
<polygon fill="midnightblue" stroke="midnightblue" points="172.53,-282.57 183.09,-283.43 175.37,-276.17 172.53,-282.57"/>
</g>
<!-- Node7 -->
<g id="node7" class="node">
<title>Node7</title>
<g id="a_node7"><a xlink:href="classflow_1_1net__flow_1_1Peer__socket.html#a34e2c7dfb5596269a6f86a716015f1a6" target="_top" xlink:title="This is to sync_send() as node_send() is to send().">
<polygon fill="white" stroke="black" points="153,-172.5 153,-198.5 274,-198.5 274,-172.5 153,-172.5"/>
<text text-anchor="start" x="161" y="-188.1" font-family="Helvetica,sans-Serif" font-size="8.00">flow::net_flow::Peer</text>
<text text-anchor="middle" x="213.5" y="-179.1" font-family="Helvetica,sans-Serif" font-size="8.00">_socket::node_sync_send</text>
</a>
</g>
</g>
<!-- Node1&#45;&gt;Node7 -->
<g id="edge6" class="edge">
<title>Node1&#45;&gt;Node7</title>
<path fill="none" stroke="midnightblue" d="M105.82,-215.48C121.63,-211.04 139.48,-206.02 155.99,-201.38"/>
<polygon fill="midnightblue" stroke="midnightblue" points="157.39,-204.62 166.07,-198.55 155.5,-197.88 157.39,-204.62"/>
</g>
<!-- Node3 -->
<g id="node3" class="node">
<title>Node3</title>
<g id="a_node3"><a xlink:href="namespaceflow_1_1util.html#a16357344c21456b86b7de3085e2661a2" target="_top" xlink:title="Identical to buffers_to_ostream() but returns an std::string instead of writing to a given ostream.">
<polygon fill="white" stroke="black" points="318,-325.5 318,-351.5 404,-351.5 404,-325.5 318,-325.5"/>
<text text-anchor="start" x="326" y="-341.1" font-family="Helvetica,sans-Serif" font-size="8.00">flow::util::buffers</text>
<text text-anchor="middle" x="361" y="-332.1" font-family="Helvetica,sans-Serif" font-size="8.00">_dump_string</text>
</a>
</g>
</g>
<!-- Node2&#45;&gt;Node3 -->
<g id="edge2" class="edge">
<title>Node2&#45;&gt;Node3</title>
<path fill="none" stroke="midnightblue" d="M259.74,-309.56C275.08,-313.99 292.33,-318.97 308.14,-323.53"/>
<polygon fill="midnightblue" stroke="midnightblue" points="307.19,-326.9 317.77,-326.31 309.13,-320.17 307.19,-326.9"/>
</g>
<!-- Node6 -->
<g id="node6" class="node">
<title>Node6</title>
<g id="a_node6"><a xlink:href="classflow_1_1log_1_1Log__context.html#af4db395042b065b00398cd59845dcb4d" target="_top" xlink:title="Returns the stored Logger pointer, particularly as many FLOW_LOG_*() macros expect.">
<polygon fill="white" stroke="black" points="756,-154.5 756,-180.5 863,-180.5 863,-154.5 756,-154.5"/>
<text text-anchor="start" x="764" y="-170.1" font-family="Helvetica,sans-Serif" font-size="8.00">flow::log::Log_context</text>
<text text-anchor="middle" x="809.5" y="-161.1" font-family="Helvetica,sans-Serif" font-size="8.00">::get_logger</text>
</a>
</g>
</g>
<!-- Node2&#45;&gt;Node6 -->
<g id="edge5" class="edge">
<title>Node2&#45;&gt;Node6</title>
<path fill="none" stroke="midnightblue" d="M270.93,-301.8C387.31,-311.55 649.01,-327.12 720,-277.5 754.64,-253.29 726.25,-219.51 756,-189.5 757.07,-188.43 758.19,-187.4 759.37,-186.42"/>
<polygon fill="midnightblue" stroke="midnightblue" points="761.49,-189.21 767.72,-180.65 757.51,-183.45 761.49,-189.21"/>
</g>
<!-- Node4 -->
<g id="node4" class="node">
<title>Node4</title>
<g id="a_node4"><a xlink:href="namespaceflow_1_1util.html#aa132928b364caefca5c3821e019924bf" target="_top" xlink:title="Writes a multi&#45; or single&#45;line string representation of the provided binary data to an output stream,...">
<polygon fill="white" stroke="black" points="468.5,-325.5 468.5,-351.5 554.5,-351.5 554.5,-325.5 468.5,-325.5"/>
<text text-anchor="start" x="476.5" y="-341.1" font-family="Helvetica,sans-Serif" font-size="8.00">flow::util::buffers</text>
<text text-anchor="middle" x="511.5" y="-332.1" font-family="Helvetica,sans-Serif" font-size="8.00">_to_ostream</text>
</a>
</g>
</g>
<!-- Node3&#45;&gt;Node4 -->
<g id="edge3" class="edge">
<title>Node3&#45;&gt;Node4</title>
<path fill="none" stroke="midnightblue" d="M404.16,-338.5C421,-338.5 440.58,-338.5 458.3,-338.5"/>
<polygon fill="midnightblue" stroke="midnightblue" points="458.49,-342 468.49,-338.5 458.49,-335 458.49,-342"/>
</g>
<!-- Node5 -->
<g id="node5" class="node">
<title>Node5</title>
<g id="a_node5"><a xlink:href="classflow_1_1util_1_1String__ostream.html#a7e64b069ae0e221952068c13fdc0f080" target="_top" xlink:title="Access to stream that will write to owned string.">
<polygon fill="white" stroke="black" points="470.5,-370.5 470.5,-396.5 552.5,-396.5 552.5,-370.5 470.5,-370.5"/>
<text text-anchor="start" x="478.5" y="-386.1" font-family="Helvetica,sans-Serif" font-size="8.00">flow::util::String</text>
<text text-anchor="middle" x="511.5" y="-377.1" font-family="Helvetica,sans-Serif" font-size="8.00">_ostream::os</text>
</a>
</g>
</g>
<!-- Node3&#45;&gt;Node5 -->
<g id="edge4" class="edge">
<title>Node3&#45;&gt;Node5</title>
<path fill="none" stroke="midnightblue" d="M404.16,-351.27C421.75,-356.61 442.31,-362.84 460.65,-368.39"/>
<polygon fill="midnightblue" stroke="midnightblue" points="459.7,-371.76 470.28,-371.31 461.73,-365.06 459.7,-371.76"/>
</g>
<!-- Node8 -->
<g id="node8" class="node">
<title>Node8</title>
<g id="a_node8"><a xlink:href="classflow_1_1net__flow_1_1Node.html#a109a118ca312e94686595ea08dac7ad0" target="_top" xlink:title="Helper method that checks whether the given Peer_socket or Server_socket is CLOSED; if so,...">
<polygon fill="white" stroke="black" points="310.5,-127.5 310.5,-153.5 411.5,-153.5 411.5,-127.5 310.5,-127.5"/>
<text text-anchor="start" x="318.5" y="-143.1" font-family="Helvetica,sans-Serif" font-size="8.00">flow::net_flow::Node</text>
<text text-anchor="middle" x="361" y="-134.1" font-family="Helvetica,sans-Serif" font-size="8.00">::ensure_sock_open</text>
</a>
</g>
</g>
<!-- Node7&#45;&gt;Node8 -->
<g id="edge7" class="edge">
<title>Node7&#45;&gt;Node8</title>
<path fill="none" stroke="midnightblue" d="M256.58,-172.48C272.65,-167.52 291.16,-161.79 308.04,-156.57"/>
<polygon fill="midnightblue" stroke="midnightblue" points="309.24,-159.86 317.76,-153.56 307.17,-153.18 309.24,-159.86"/>
</g>
<!-- Node9 -->
<g id="node9" class="node">
<title>Node9</title>
<g id="a_node9"><a xlink:href="classflow_1_1net__flow_1_1Peer__socket.html#a5003c554807f5b5b58989ad58be48d42" target="_top" xlink:title="Constructs object; initializes most values to well&#45;defined (0, empty, etc.) but not necessarily meani...">
<polygon fill="white" stroke="black" points="310,-222.5 310,-248.5 412,-248.5 412,-222.5 310,-222.5"/>
<text text-anchor="start" x="318" y="-238.1" font-family="Helvetica,sans-Serif" font-size="8.00">flow::net_flow::Peer</text>
<text text-anchor="middle" x="361" y="-229.1" font-family="Helvetica,sans-Serif" font-size="8.00">_socket::Peer_socket</text>
</a>
</g>
</g>
<!-- Node7&#45;&gt;Node9 -->
<g id="edge8" class="edge">
<title>Node7&#45;&gt;Node9</title>
<path fill="none" stroke="midnightblue" d="M252.35,-198.51C270.72,-204.82 292.97,-212.47 312.47,-219.17"/>
<polygon fill="midnightblue" stroke="midnightblue" points="311.49,-222.53 322.09,-222.47 313.77,-215.91 311.49,-222.53"/>
</g>
<!-- Node12 -->
<g id="node12" class="node">
<title>Node12</title>
<g id="a_node12"><a xlink:href="classflow_1_1net__flow_1_1Node.html#aa19d1f49638ef8ce8883e7477a06d3fc" target="_top" xlink:title="Implementation of non&#45;blocking sock&#45;&gt;send() for socket sock in all cases except when sock&#45;&gt;state() ==...">
<polygon fill="white" stroke="black" points="310.5,-172.5 310.5,-198.5 411.5,-198.5 411.5,-172.5 310.5,-172.5"/>
<text text-anchor="start" x="318.5" y="-188.1" font-family="Helvetica,sans-Serif" font-size="8.00">flow::net_flow::Node</text>
<text text-anchor="middle" x="361" y="-179.1" font-family="Helvetica,sans-Serif" font-size="8.00">::send</text>
</a>
</g>
</g>
<!-- Node7&#45;&gt;Node12 -->
<g id="edge11" class="edge">
<title>Node7&#45;&gt;Node12</title>
<path fill="none" stroke="midnightblue" d="M274.1,-185.5C282.79,-185.5 291.73,-185.5 300.42,-185.5"/>
<polygon fill="midnightblue" stroke="midnightblue" points="300.47,-189 310.47,-185.5 300.47,-182 300.47,-189"/>
</g>
<!-- Node50 -->
<g id="node17" class="node">
<title>Node50</title>
<g id="a_node17"><a xlink:href="classflow_1_1net__flow_1_1Node.html#a2a4dc3d8e294bbc8423e111f52e414ae" target="_top" xlink:title="Implementation of core blocking transfer methods, namely Peer_socket::sync_send(),...">
<polygon fill="white" stroke="black" points="310.5,-72.5 310.5,-98.5 411.5,-98.5 411.5,-72.5 310.5,-72.5"/>
<text text-anchor="start" x="318.5" y="-88.1" font-family="Helvetica,sans-Serif" font-size="8.00">flow::net_flow::Node</text>
<text text-anchor="middle" x="361" y="-79.1" font-family="Helvetica,sans-Serif" font-size="8.00">::sync_op</text>
</a>
</g>
</g>
<!-- Node7&#45;&gt;Node50 -->
<g id="edge18" class="edge">
<title>Node7&#45;&gt;Node50</title>
<path fill="none" stroke="midnightblue" d="M232.27,-172.45C251.31,-158.56 282.51,-136.07 310,-117.5 316.46,-113.14 323.46,-108.56 330.13,-104.28"/>
<polygon fill="midnightblue" stroke="midnightblue" points="332.38,-106.99 338.93,-98.66 328.62,-101.09 332.38,-106.99"/>
</g>
<!-- Node10 -->
<g id="node10" class="node">
<title>Node10</title>
<g id="a_node10"><a xlink:href="classflow_1_1net__flow_1_1Peer__socket.html#ad94e37c8cca01f801f13e9e0e0bc857d" target="_top" xlink:title="Copies this socket&#39;s option set and returns that copy.">
<polygon fill="white" stroke="black" points="463,-241.5 463,-267.5 560,-267.5 560,-241.5 463,-241.5"/>
<text text-anchor="start" x="471" y="-257.1" font-family="Helvetica,sans-Serif" font-size="8.00">flow::net_flow::Peer</text>
<text text-anchor="middle" x="511.5" y="-248.1" font-family="Helvetica,sans-Serif" font-size="8.00">_socket::options</text>
</a>
</g>
</g>
<!-- Node9&#45;&gt;Node10 -->
<g id="edge9" class="edge">
<title>Node9&#45;&gt;Node10</title>
<path fill="none" stroke="midnightblue" d="M412.28,-241.93C425.28,-243.6 439.39,-245.4 452.75,-247.11"/>
<polygon fill="midnightblue" stroke="midnightblue" points="452.42,-250.6 462.79,-248.4 453.31,-243.65 452.42,-250.6"/>
</g>
<!-- Node11 -->
<g id="node11" class="node">
<title>Node11</title>
<g id="a_node11"><a xlink:href="classflow_1_1net__flow_1_1Peer__socket.html#accf6d724ed1f145716ae3d4567f582f3" target="_top" xlink:title="Analogous to Node::opt() but for per&#45;socket options.">
<polygon fill="white" stroke="black" points="617,-241.5 617,-267.5 714,-267.5 714,-241.5 617,-241.5"/>
<text text-anchor="start" x="625" y="-257.1" font-family="Helvetica,sans-Serif" font-size="8.00">flow::net_flow::Peer</text>
<text text-anchor="middle" x="665.5" y="-248.1" font-family="Helvetica,sans-Serif" font-size="8.00">_socket::opt</text>
</a>
</g>
</g>
<!-- Node10&#45;&gt;Node11 -->
<g id="edge10" class="edge">
<title>Node10&#45;&gt;Node11</title>
<path fill="none" stroke="midnightblue" d="M560.18,-254.5C574.89,-254.5 591.26,-254.5 606.58,-254.5"/>
<polygon fill="midnightblue" stroke="midnightblue" points="606.99,-258 616.99,-254.5 606.99,-251 606.99,-258"/>
</g>
<!-- Node13 -->
<g id="node13" class="node">
<title>Node13</title>
<g id="a_node13"><a xlink:href="classflow_1_1net__flow_1_1Node.html#aae148cec361b59237996a4b30c6624b5" target="_top" xlink:title="Returns true if and only if the Node is operating.">
<polygon fill="white" stroke="black" points="461,-112.5 461,-138.5 562,-138.5 562,-112.5 461,-112.5"/>
<text text-anchor="start" x="469" y="-128.1" font-family="Helvetica,sans-Serif" font-size="8.00">flow::net_flow::Node</text>
<text text-anchor="middle" x="511.5" y="-119.1" font-family="Helvetica,sans-Serif" font-size="8.00">::running</text>
</a>
</g>
</g>
<!-- Node12&#45;&gt;Node13 -->
<g id="edge12" class="edge">
<title>Node12&#45;&gt;Node13</title>
<path fill="none" stroke="midnightblue" d="M390.04,-172.45C406.74,-164.85 428.42,-155.26 448,-147.5 452.69,-145.64 457.61,-143.77 462.54,-141.95"/>
<polygon fill="midnightblue" stroke="midnightblue" points="463.78,-145.23 471.98,-138.53 461.39,-138.65 463.78,-145.23"/>
</g>
<!-- Node14 -->
<g id="node14" class="node">
<title>Node14</title>
<g id="a_node14"><a xlink:href="classflow_1_1net__flow_1_1Node.html#a2565b7c0bd82cad86eb168b62f8ffd9d" target="_top" xlink:title="Helper placed by send() onto W to invoke send_worker() but ensures that the socket has not entered so...">
<polygon fill="white" stroke="black" points="448,-157.5 448,-183.5 575,-183.5 575,-157.5 448,-157.5"/>
<text text-anchor="start" x="456" y="-173.1" font-family="Helvetica,sans-Serif" font-size="8.00">flow::net_flow::Node</text>
<text text-anchor="middle" x="511.5" y="-164.1" font-family="Helvetica,sans-Serif" font-size="8.00">::send_worker_check_state</text>
</a>
</g>
</g>
<!-- Node12&#45;&gt;Node14 -->
<g id="edge13" class="edge">
<title>Node12&#45;&gt;Node14</title>
<path fill="none" stroke="midnightblue" d="M411.86,-180.46C420.16,-179.63 428.91,-178.74 437.64,-177.86"/>
<polygon fill="midnightblue" stroke="midnightblue" points="438.25,-181.32 447.85,-176.83 437.55,-174.35 438.25,-181.32"/>
</g>
<!-- Node46 -->
<g id="node16" class="node">
<title>Node46</title>
<g id="a_node16"><a xlink:href="classflow_1_1net__flow_1_1Node.html#a382b607fa2e482886f2fd75edc36b8b7" target="_top" xlink:title="Return true if and only if there are enough data either in Peer_socket::m_snd_rexmit_q of sock (if re...">
<polygon fill="white" stroke="black" points="759,-199.5 759,-225.5 860,-225.5 860,-199.5 759,-199.5"/>
<text text-anchor="start" x="767" y="-215.1" font-family="Helvetica,sans-Serif" font-size="8.00">flow::net_flow::Node</text>
<text text-anchor="middle" x="809.5" y="-206.1" font-family="Helvetica,sans-Serif" font-size="8.00">::snd_deqable</text>
</a>
</g>
</g>
<!-- Node12&#45;&gt;Node46 -->
<g id="edge17" class="edge">
<title>Node12&#45;&gt;Node46</title>
<path fill="none" stroke="midnightblue" d="M411.55,-189.75C423.48,-190.72 436.19,-191.69 448,-192.5 553.8,-199.74 677.2,-206.15 748.74,-209.66"/>
<polygon fill="midnightblue" stroke="midnightblue" points="748.75,-213.16 758.91,-210.15 749.09,-206.17 748.75,-213.16"/>
</g>
<!-- Node15 -->
<g id="node15" class="node">
<title>Node15</title>
<g id="a_node15"><a xlink:href="classflow_1_1net__flow_1_1Node.html#a10a92f11a2c9f218cdd9a55f282e79b1" target="_top" xlink:title="Thread W implemention of send(): synchronously or asynchronously send the contents of sock&#45;&gt;m_snd_buf...">
<polygon fill="white" stroke="red" points="615,-157.5 615,-183.5 716,-183.5 716,-157.5 615,-157.5"/>
<text text-anchor="start" x="623" y="-173.1" font-family="Helvetica,sans-Serif" font-size="8.00">flow::net_flow::Node</text>
<text text-anchor="middle" x="665.5" y="-164.1" font-family="Helvetica,sans-Serif" font-size="8.00">::send_worker</text>
</a>
</g>
</g>
<!-- Node14&#45;&gt;Node15 -->
<g id="edge14" class="edge">
<title>Node14&#45;&gt;Node15</title>
<path fill="none" stroke="midnightblue" d="M575.2,-170.5C585.03,-170.5 595.17,-170.5 604.93,-170.5"/>
<polygon fill="midnightblue" stroke="midnightblue" points="604.94,-174 614.94,-170.5 604.94,-167 604.94,-174"/>
</g>
<!-- Node15&#45;&gt;Node6 -->
<g id="edge15" class="edge">
<title>Node15&#45;&gt;Node6</title>
<path fill="none" stroke="midnightblue" d="M716.16,-169.45C725.66,-169.25 735.72,-169.04 745.57,-168.83"/>
<polygon fill="midnightblue" stroke="midnightblue" points="745.8,-172.33 755.73,-168.61 745.65,-165.33 745.8,-172.33"/>
</g>
<!-- Node15&#45;&gt;Node46 -->
<g id="edge16" class="edge">
<title>Node15&#45;&gt;Node46</title>
<path fill="none" stroke="midnightblue" d="M710.65,-183.56C724.54,-187.67 740.04,-192.25 754.54,-196.54"/>
<polygon fill="midnightblue" stroke="midnightblue" points="753.79,-199.97 764.38,-199.45 755.78,-193.26 753.79,-199.97"/>
</g>
<!-- Node50&#45;&gt;Node13 -->
<g id="edge23" class="edge">
<title>Node50&#45;&gt;Node13</title>
<path fill="none" stroke="midnightblue" d="M410.62,-98.6C423.9,-102.17 438.42,-106.08 452.17,-109.79"/>
<polygon fill="midnightblue" stroke="midnightblue" points="451.45,-113.22 462.02,-112.44 453.27,-106.46 451.45,-113.22"/>
</g>
<!-- Node51 -->
<g id="node18" class="node">
<title>Node51</title>
<g id="a_node18"><a xlink:href="classflow_1_1net__flow_1_1Node.html#ad100464cf0126dbbad39bde1c90a774f" target="_top" xlink:title="Creates a new Event_set in Event_set::State::S_INACTIVE state with no sockets/events stored; returns ...">
<polygon fill="white" stroke="black" points="461,-22.5 461,-48.5 562,-48.5 562,-22.5 461,-22.5"/>
<text text-anchor="start" x="469" y="-38.1" font-family="Helvetica,sans-Serif" font-size="8.00">flow::net_flow::Node</text>
<text text-anchor="middle" x="511.5" y="-29.1" font-family="Helvetica,sans-Serif" font-size="8.00">::event_set_create</text>
</a>
</g>
</g>
<!-- Node50&#45;&gt;Node51 -->
<g id="edge19" class="edge">
<title>Node50&#45;&gt;Node51</title>
<path fill="none" stroke="midnightblue" d="M400.63,-72.49C419.46,-66.15 442.3,-58.46 462.27,-51.74"/>
<polygon fill="midnightblue" stroke="midnightblue" points="463.45,-55.04 471.81,-48.53 461.21,-48.4 463.45,-55.04"/>
</g>
<!-- Node56 -->
<g id="node21" class="node">
<title>Node56</title>
<g id="a_node21"><a xlink:href="namespaceflow_1_1util.html#a09a032f8e1e77a3afc0b7df115a773e1" target="_top" xlink:title="Provides a way to execute arbitrary (cleanup) code at the exit of the current block.">
<polygon fill="white" stroke="black" points="459.5,-67.5 459.5,-93.5 563.5,-93.5 563.5,-67.5 459.5,-67.5"/>
<text text-anchor="start" x="467.5" y="-83.1" font-family="Helvetica,sans-Serif" font-size="8.00">flow::util::setup_auto</text>
<text text-anchor="middle" x="511.5" y="-74.1" font-family="Helvetica,sans-Serif" font-size="8.00">_cleanup</text>
</a>
</g>
</g>
<!-- Node50&#45;&gt;Node56 -->
<g id="edge24" class="edge">
<title>Node50&#45;&gt;Node56</title>
<path fill="none" stroke="midnightblue" d="M411.86,-83.82C423.78,-83.42 436.63,-82.99 449,-82.57"/>
<polygon fill="midnightblue" stroke="midnightblue" points="449.37,-86.06 459.25,-82.23 449.14,-79.06 449.37,-86.06"/>
</g>
<!-- Node51&#45;&gt;Node6 -->
<g id="edge22" class="edge">
<title>Node51&#45;&gt;Node6</title>
<path fill="none" stroke="midnightblue" d="M554.07,-48.62C561.17,-51.29 568.38,-54.27 575,-57.5 592.07,-65.82 594.26,-71.54 611,-80.5 662.52,-108.1 724.59,-134.36 765.22,-150.68"/>
<polygon fill="midnightblue" stroke="midnightblue" points="763.97,-153.95 774.56,-154.4 766.57,-147.45 763.97,-153.95"/>
</g>
<!-- Node52 -->
<g id="node19" class="node">
<title>Node52</title>
<g id="a_node19"><a xlink:href="namespaceflow_1_1async.html#a24567271e97a67d3cae6bd8bf8dc63c4" target="_top" xlink:title="An extension of boost.asio&#39;s post() and dispatch() free function templates, this free function templa...">
<polygon fill="white" stroke="red" points="611,-45.5 611,-71.5 720,-71.5 720,-45.5 611,-45.5"/>
<text text-anchor="start" x="619" y="-61.1" font-family="Helvetica,sans-Serif" font-size="8.00">flow::async::asio_exec</text>
<text text-anchor="middle" x="665.5" y="-52.1" font-family="Helvetica,sans-Serif" font-size="8.00">_ctx_post</text>
</a>
</g>
</g>
<!-- Node51&#45;&gt;Node52 -->
<g id="edge20" class="edge">
<title>Node51&#45;&gt;Node52</title>
<path fill="none" stroke="midnightblue" d="M562.27,-43.03C574.57,-44.89 587.91,-46.91 600.77,-48.86"/>
<polygon fill="midnightblue" stroke="midnightblue" points="600.54,-52.36 610.95,-50.4 601.59,-45.44 600.54,-52.36"/>
</g>
<!-- Node55 -->
<g id="node20" class="node">
<title>Node55</title>
<g id="a_node20"><a xlink:href="classflow_1_1net__flow_1_1Event__set.html#a7b8e6cf7046b6905015301a203cd88f5" target="_top" xlink:title="Constructs object; initializes all values to well&#45;defined but possibly meaningless values (0,...">
<polygon fill="white" stroke="black" points="614.5,-0.5 614.5,-26.5 716.5,-26.5 716.5,-0.5 614.5,-0.5"/>
<text text-anchor="start" x="622.5" y="-16.1" font-family="Helvetica,sans-Serif" font-size="8.00">flow::net_flow::Event</text>
<text text-anchor="middle" x="665.5" y="-7.1" font-family="Helvetica,sans-Serif" font-size="8.00">_set::Event_set</text>
</a>
</g>
</g>
<!-- Node51&#45;&gt;Node55 -->
<g id="edge21" class="edge">
<title>Node51&#45;&gt;Node55</title>
<path fill="none" stroke="midnightblue" d="M562.27,-28.3C575.72,-26.35 590.41,-24.22 604.36,-22.2"/>
<polygon fill="midnightblue" stroke="midnightblue" points="604.96,-25.65 614.36,-20.76 603.96,-18.73 604.96,-25.65"/>
</g>
</g>
</svg>
