<?xml version="1.0" encoding="UTF-8" standalone="no"?>
<!DOCTYPE svg PUBLIC "-//W3C//DTD SVG 1.1//EN"
 "http://www.w3.org/Graphics/SVG/1.1/DTD/svg11.dtd">
<!-- Generated by graphviz version 2.43.0 (0)
 -->
<!-- Title: flow::cfg::Option_set::parse_config_file Pages: 1 -->
<svg width="506pt" height="72pt"
 viewBox="0.00 0.00 506.00 71.50" xmlns="http://www.w3.org/2000/svg" xmlns:xlink="http://www.w3.org/1999/xlink">
<g id="graph0" class="graph" transform="scale(1 1) rotate(0) translate(4 67.5)">
<title>flow::cfg::Option_set::parse_config_file</title>
<polygon fill="white" stroke="transparent" points="-4,4 -4,-67.5 502,-67.5 502,4 -4,4"/>
<!-- Node1 -->
<g id="node1" class="node">
<title>Node1</title>
<g id="a_node1"><a xlink:title="Enters into (from CANONICAL state) or continues in PARSING state by parsing the config source in the ...">
<polygon fill="#bfbfbf" stroke="black" points="0,-20.5 0,-46.5 101,-46.5 101,-20.5 0,-20.5"/>
<text text-anchor="start" x="8" y="-36.1" font-family="Helvetica,sans-Serif" font-size="8.00">flow::cfg::Option_set</text>
<text text-anchor="middle" x="50.5" y="-27.1" font-family="Helvetica,sans-Serif" font-size="8.00">::parse_config_file</text>
</a>
</g>
</g>
<!-- Node2 -->
<g id="node2" class="node">
<title>Node2</title>
<g id="a_node2"><a xlink:href="namespaceflow_1_1util.html#a03984e29450abf9cf287c501d6c8f866" target="_top" xlink:title="Returns true if and only if the given key is present at least once in the given associative container...">
<polygon fill="white" stroke="black" points="137,-46 137,-63 236,-63 236,-46 137,-46"/>
<text text-anchor="middle" x="186.5" y="-52.6" font-family="Helvetica,sans-Serif" font-size="8.00">flow::util::key_exists</text>
</a>
</g>
</g>
<!-- Node1&#45;&gt;Node2 -->
<g id="edge1" class="edge">
<title>Node1&#45;&gt;Node2</title>
<path fill="none" stroke="midnightblue" d="M101.02,-41.26C109.38,-42.57 118.13,-43.94 126.69,-45.28"/>
<polygon fill="midnightblue" stroke="midnightblue" points="126.21,-48.75 136.63,-46.84 127.3,-41.84 126.21,-48.75"/>
</g>
<!-- Node3 -->
<g id="node3" class="node">
<title>Node3</title>
<g id="a_node3"><a xlink:href="namespaceflow_1_1util.html#acd8a77acb1c38ee462ca4fb213a3f164" target="_top" xlink:title="Equivalent to ostream_op_to_string() but returns a new string by value instead of writing to the call...">
<polygon fill="white" stroke="black" points="140.5,-0.5 140.5,-26.5 232.5,-26.5 232.5,-0.5 140.5,-0.5"/>
<text text-anchor="start" x="148.5" y="-16.1" font-family="Helvetica,sans-Serif" font-size="8.00">flow::util::ostream</text>
<text text-anchor="middle" x="186.5" y="-7.1" font-family="Helvetica,sans-Serif" font-size="8.00">_op_string</text>
</a>
</g>
</g>
<!-- Node1&#45;&gt;Node3 -->
<g id="edge2" class="edge">
<title>Node1&#45;&gt;Node3</title>
<path fill="none" stroke="midnightblue" d="M101.02,-26.11C110.53,-24.69 120.56,-23.19 130.24,-21.75"/>
<polygon fill="midnightblue" stroke="midnightblue" points="130.8,-25.2 140.18,-20.26 129.77,-18.28 130.8,-25.2"/>
</g>
<!-- Node4 -->
<g id="node4" class="node">
<title>Node4</title>
<g id="a_node4"><a xlink:href="namespaceflow_1_1util.html#aa079e37d8ddc1b8f76b792e377dd80bd" target="_top" xlink:title="Writes to the specified string, as if the given arguments were each passed, via &lt;&lt; in sequence,...">
<polygon fill="white" stroke="black" points="272,-0.5 272,-26.5 364,-26.5 364,-0.5 272,-0.5"/>
<text text-anchor="start" x="280" y="-16.1" font-family="Helvetica,sans-Serif" font-size="8.00">flow::util::ostream</text>
<text text-anchor="middle" x="318" y="-7.1" font-family="Helvetica,sans-Serif" font-size="8.00">_op_to_string</text>
</a>
</g>
</g>
<!-- Node3&#45;&gt;Node4 -->
<g id="edge3" class="edge">
<title>Node3&#45;&gt;Node4</title>
<path fill="none" stroke="midnightblue" d="M232.79,-13.5C242.11,-13.5 252.03,-13.5 261.66,-13.5"/>
<polygon fill="midnightblue" stroke="midnightblue" points="261.95,-17 271.95,-13.5 261.95,-10 261.95,-17"/>
</g>
<!-- Node5 -->
<g id="node5" class="node">
<title>Node5</title>
<g id="a_node5"><a xlink:href="namespaceflow_1_1util.html#a1bf7064869bb90466477e426b466f7d2" target="_top" xlink:title="Function template that simply outputs arguments 2+ via &lt;&lt; to the given ostream, in the order given.">
<polygon fill="white" stroke="black" points="400,-0.5 400,-26.5 498,-26.5 498,-0.5 400,-0.5"/>
<text text-anchor="start" x="408" y="-16.1" font-family="Helvetica,sans-Serif" font-size="8.00">flow::util::feed_args</text>
<text text-anchor="middle" x="449" y="-7.1" font-family="Helvetica,sans-Serif" font-size="8.00">_to_ostream</text>
</a>
</g>
</g>
<!-- Node4&#45;&gt;Node5 -->
<g id="edge4" class="edge">
<title>Node4&#45;&gt;Node5</title>
<path fill="none" stroke="midnightblue" d="M364.12,-13.5C372.28,-13.5 380.9,-13.5 389.38,-13.5"/>
<polygon fill="midnightblue" stroke="midnightblue" points="389.62,-17 399.62,-13.5 389.62,-10 389.62,-17"/>
</g>
</g>
</svg>
