<?xml version="1.0" encoding="UTF-8" standalone="no"?>
<!DOCTYPE svg PUBLIC "-//W3C//DTD SVG 1.1//EN"
 "http://www.w3.org/Graphics/SVG/1.1/DTD/svg11.dtd">
<!-- Generated by graphviz version 2.43.0 (0)
 -->
<!-- Title: flow::net_flow::Node::listen Pages: 1 -->
<svg width="733pt" height="334pt"
 viewBox="0.00 0.00 733.00 333.50" xmlns="http://www.w3.org/2000/svg" xmlns:xlink="http://www.w3.org/1999/xlink">
<g id="graph0" class="graph" transform="scale(1 1) rotate(0) translate(4 329.5)">
<title>flow::net_flow::Node::listen</title>
<polygon fill="white" stroke="transparent" points="-4,4 -4,-329.5 729,-329.5 729,4 -4,4"/>
<!-- Node1 -->
<g id="node1" class="node">
<title>Node1</title>
<g id="a_node1"><a xlink:title="Sets up a server on the given local Flow port and returns Server_socket which can be used to accept s...">
<polygon fill="#bfbfbf" stroke="black" points="0,-153.5 0,-179.5 101,-179.5 101,-153.5 0,-153.5"/>
<text text-anchor="start" x="8" y="-169.1" font-family="Helvetica,sans-Serif" font-size="8.00">flow::net_flow::Node</text>
<text text-anchor="middle" x="50.5" y="-160.1" font-family="Helvetica,sans-Serif" font-size="8.00">::listen</text>
</a>
</g>
</g>
<!-- Node1&#45;&gt;Node1 -->
<g id="edge5" class="edge">
<title>Node1&#45;&gt;Node1</title>
<path fill="none" stroke="midnightblue" d="M26.81,-179.77C19.64,-188.96 27.53,-198 50.5,-198 64.5,-198 72.9,-194.64 75.7,-189.94"/>
<polygon fill="midnightblue" stroke="midnightblue" points="79.12,-189.15 74.19,-179.77 72.19,-190.18 79.12,-189.15"/>
</g>
<!-- Node2 -->
<g id="node2" class="node">
<title>Node2</title>
<g id="a_node2"><a xlink:href="namespaceflow_1_1async.html#a24567271e97a67d3cae6bd8bf8dc63c4" target="_top" xlink:title="An extension of boost.asio&#39;s post() and dispatch() free function templates, this free function templa...">
<polygon fill="white" stroke="black" points="137,-262.5 137,-288.5 246,-288.5 246,-262.5 137,-262.5"/>
<text text-anchor="start" x="145" y="-278.1" font-family="Helvetica,sans-Serif" font-size="8.00">flow::async::asio_exec</text>
<text text-anchor="middle" x="191.5" y="-269.1" font-family="Helvetica,sans-Serif" font-size="8.00">_ctx_post</text>
</a>
</g>
</g>
<!-- Node1&#45;&gt;Node2 -->
<g id="edge1" class="edge">
<title>Node1&#45;&gt;Node2</title>
<path fill="none" stroke="midnightblue" d="M68.27,-179.65C92.48,-198.63 137.4,-233.86 165.53,-255.92"/>
<polygon fill="midnightblue" stroke="midnightblue" points="163.65,-258.89 173.67,-262.31 167.96,-253.38 163.65,-258.89"/>
</g>
<!-- Node5 -->
<g id="node5" class="node">
<title>Node5</title>
<g id="a_node5"><a xlink:href="classflow_1_1log_1_1Log__context.html#af4db395042b065b00398cd59845dcb4d" target="_top" xlink:title="Returns the stored Logger pointer, particularly as many FLOW_LOG_*() macros expect.">
<polygon fill="white" stroke="black" points="138,-176.5 138,-202.5 245,-202.5 245,-176.5 138,-176.5"/>
<text text-anchor="start" x="146" y="-192.1" font-family="Helvetica,sans-Serif" font-size="8.00">flow::log::Log_context</text>
<text text-anchor="middle" x="191.5" y="-183.1" font-family="Helvetica,sans-Serif" font-size="8.00">::get_logger</text>
</a>
</g>
</g>
<!-- Node1&#45;&gt;Node5 -->
<g id="edge4" class="edge">
<title>Node1&#45;&gt;Node5</title>
<path fill="none" stroke="midnightblue" d="M101.29,-174.74C109.89,-176.16 118.93,-177.66 127.83,-179.13"/>
<polygon fill="midnightblue" stroke="midnightblue" points="127.33,-182.6 137.77,-180.77 128.48,-175.69 127.33,-182.6"/>
</g>
<!-- Node6 -->
<g id="node6" class="node">
<title>Node6</title>
<g id="a_node6"><a xlink:href="classflow_1_1net__flow_1_1Node.html#aba411df8746d5fd4db2d28df3a016f5e" target="_top" xlink:title="Thread W implementation of listen().">
<polygon fill="white" stroke="black" points="141,-131.5 141,-157.5 242,-157.5 242,-131.5 141,-131.5"/>
<text text-anchor="start" x="149" y="-147.1" font-family="Helvetica,sans-Serif" font-size="8.00">flow::net_flow::Node</text>
<text text-anchor="middle" x="191.5" y="-138.1" font-family="Helvetica,sans-Serif" font-size="8.00">::listen_worker</text>
</a>
</g>
</g>
<!-- Node1&#45;&gt;Node6 -->
<g id="edge6" class="edge">
<title>Node1&#45;&gt;Node6</title>
<path fill="none" stroke="midnightblue" d="M101.29,-158.62C110.77,-157.12 120.79,-155.53 130.55,-153.99"/>
<polygon fill="midnightblue" stroke="midnightblue" points="131.26,-157.42 140.59,-152.4 130.17,-150.51 131.26,-157.42"/>
</g>
<!-- Node19 -->
<g id="node19" class="node">
<title>Node19</title>
<g id="a_node19"><a xlink:href="classflow_1_1net__flow_1_1Node.html#aae148cec361b59237996a4b30c6624b5" target="_top" xlink:title="Returns true if and only if the Node is operating.">
<polygon fill="white" stroke="black" points="141,-86.5 141,-112.5 242,-112.5 242,-86.5 141,-86.5"/>
<text text-anchor="start" x="149" y="-102.1" font-family="Helvetica,sans-Serif" font-size="8.00">flow::net_flow::Node</text>
<text text-anchor="middle" x="191.5" y="-93.1" font-family="Helvetica,sans-Serif" font-size="8.00">::running</text>
</a>
</g>
</g>
<!-- Node1&#45;&gt;Node19 -->
<g id="edge21" class="edge">
<title>Node1&#45;&gt;Node19</title>
<path fill="none" stroke="midnightblue" d="M74.79,-153.48C91.81,-144.15 115.57,-131.52 137,-121.5 140.58,-119.83 144.33,-118.15 148.1,-116.5"/>
<polygon fill="midnightblue" stroke="midnightblue" points="149.64,-119.65 157.47,-112.51 146.9,-113.21 149.64,-119.65"/>
</g>
<!-- Node3 -->
<g id="node3" class="node">
<title>Node3</title>
<g id="a_node3"><a xlink:href="namespaceflow_1_1async.html#a4cce43f39672e80cba5512103c53ae60" target="_top" xlink:title="Returns the 0&#45;based processor logical (not hardware) core index of the core executing the calling thr...">
<polygon fill="white" stroke="black" points="288.5,-308 288.5,-325 388.5,-325 388.5,-308 288.5,-308"/>
<text text-anchor="middle" x="338.5" y="-314.6" font-family="Helvetica,sans-Serif" font-size="8.00">flow::async::cpu_idx</text>
</a>
</g>
</g>
<!-- Node2&#45;&gt;Node3 -->
<g id="edge2" class="edge">
<title>Node2&#45;&gt;Node3</title>
<path fill="none" stroke="midnightblue" d="M238.78,-288.59C257.66,-293.92 279.28,-300.04 297.47,-305.18"/>
<polygon fill="midnightblue" stroke="midnightblue" points="296.61,-308.57 307.18,-307.93 298.51,-301.84 296.61,-308.57"/>
</g>
<!-- Node4 -->
<g id="node4" class="node">
<title>Node4</title>
<g id="a_node4"><a xlink:href="classflow_1_1log_1_1Logger.html#ac8a2e7a33fe3fbc0c29ead62ed98c022" target="_top" xlink:title="Given attributes of a hypothetical message that would be logged, return true if that message should b...">
<polygon fill="white" stroke="black" points="292.5,-262.5 292.5,-288.5 384.5,-288.5 384.5,-262.5 292.5,-262.5"/>
<text text-anchor="start" x="300.5" y="-278.1" font-family="Helvetica,sans-Serif" font-size="8.00">flow::log::Logger::</text>
<text text-anchor="middle" x="338.5" y="-269.1" font-family="Helvetica,sans-Serif" font-size="8.00">should_log</text>
</a>
</g>
</g>
<!-- Node2&#45;&gt;Node4 -->
<g id="edge3" class="edge">
<title>Node2&#45;&gt;Node4</title>
<path fill="none" stroke="midnightblue" d="M246.08,-275.5C257.81,-275.5 270.25,-275.5 282.05,-275.5"/>
<polygon fill="midnightblue" stroke="midnightblue" points="282.23,-279 292.23,-275.5 282.23,-272 282.23,-279"/>
</g>
<!-- Node7 -->
<g id="node7" class="node">
<title>Node7</title>
<g id="a_node7"><a xlink:href="namespaceflow_1_1util.html#a03984e29450abf9cf287c501d6c8f866" target="_top" xlink:title="Returns true if and only if the given key is present at least once in the given associative container...">
<polygon fill="white" stroke="black" points="289,-136 289,-153 388,-153 388,-136 289,-136"/>
<text text-anchor="middle" x="338.5" y="-142.6" font-family="Helvetica,sans-Serif" font-size="8.00">flow::util::key_exists</text>
</a>
</g>
</g>
<!-- Node6&#45;&gt;Node7 -->
<g id="edge7" class="edge">
<title>Node6&#45;&gt;Node7</title>
<path fill="none" stroke="midnightblue" d="M242.4,-144.5C254.18,-144.5 266.84,-144.5 278.96,-144.5"/>
<polygon fill="midnightblue" stroke="midnightblue" points="278.98,-148 288.98,-144.5 278.98,-141 278.98,-148"/>
</g>
<!-- Node8 -->
<g id="node8" class="node">
<title>Node8</title>
<g id="a_node8"><a xlink:href="classflow_1_1net__flow_1_1Port__space.html#a1168841ecd09d3187f9803eac2b8b703" target="_top" xlink:title="Reserve the specified service port, or reserve_ephemeral_port() if the specified port is S_PORT_ANY.">
<polygon fill="white" stroke="black" points="287.5,-90.5 287.5,-116.5 389.5,-116.5 389.5,-90.5 287.5,-90.5"/>
<text text-anchor="start" x="295.5" y="-106.1" font-family="Helvetica,sans-Serif" font-size="8.00">flow::net_flow::Port</text>
<text text-anchor="middle" x="338.5" y="-97.1" font-family="Helvetica,sans-Serif" font-size="8.00">_space::reserve_port</text>
</a>
</g>
</g>
<!-- Node6&#45;&gt;Node8 -->
<g id="edge8" class="edge">
<title>Node6&#45;&gt;Node8</title>
<path fill="none" stroke="midnightblue" d="M238.78,-131.41C252.25,-127.61 267.12,-123.4 281.14,-119.44"/>
<polygon fill="midnightblue" stroke="midnightblue" points="282.49,-122.69 291.16,-116.6 280.59,-115.95 282.49,-122.69"/>
</g>
<!-- Node13 -->
<g id="node13" class="node">
<title>Node13</title>
<g id="a_node13"><a xlink:href="classflow_1_1net__flow_1_1Port__space.html#a9fe1be917ff7584ff587b5da5967127a" target="_top" xlink:title="Return a previously reserved port (of any type).">
<polygon fill="white" stroke="black" points="290.5,-45.5 290.5,-71.5 386.5,-71.5 386.5,-45.5 290.5,-45.5"/>
<text text-anchor="start" x="298.5" y="-61.1" font-family="Helvetica,sans-Serif" font-size="8.00">flow::net_flow::Port</text>
<text text-anchor="middle" x="338.5" y="-52.1" font-family="Helvetica,sans-Serif" font-size="8.00">_space::return_port</text>
</a>
</g>
</g>
<!-- Node6&#45;&gt;Node13 -->
<g id="edge13" class="edge">
<title>Node6&#45;&gt;Node13</title>
<path fill="none" stroke="midnightblue" d="M229.09,-131.38C234.99,-128.54 240.85,-125.24 246,-121.5 265.62,-107.25 262.18,-94.47 282,-80.5 284.11,-79.01 286.34,-77.6 288.64,-76.28"/>
<polygon fill="midnightblue" stroke="midnightblue" points="290.51,-79.25 297.78,-71.54 287.29,-73.03 290.51,-79.25"/>
</g>
<!-- Node14 -->
<g id="node14" class="node">
<title>Node14</title>
<g id="a_node14"><a xlink:href="classflow_1_1net__flow_1_1Node.html#a0a91542fce634cf6a749c71f225b105a" target="_top" xlink:title="Internal factory used for ALL Server_socket objects created by this Node (including subclasses).">
<polygon fill="white" stroke="black" points="288,-0.5 288,-26.5 389,-26.5 389,-0.5 288,-0.5"/>
<text text-anchor="start" x="296" y="-16.1" font-family="Helvetica,sans-Serif" font-size="8.00">flow::net_flow::Node</text>
<text text-anchor="middle" x="338.5" y="-7.1" font-family="Helvetica,sans-Serif" font-size="8.00">::serv_create</text>
</a>
</g>
</g>
<!-- Node6&#45;&gt;Node14 -->
<g id="edge16" class="edge">
<title>Node6&#45;&gt;Node14</title>
<path fill="none" stroke="midnightblue" d="M232.69,-131.38C237.56,-128.64 242.16,-125.38 246,-121.5 275.16,-92.06 252.42,-64.52 282,-35.5 283.11,-34.41 284.28,-33.37 285.5,-32.39"/>
<polygon fill="midnightblue" stroke="midnightblue" points="287.81,-35.05 294.16,-26.57 283.9,-29.24 287.81,-35.05"/>
</g>
<!-- Node15 -->
<g id="node15" class="node">
<title>Node15</title>
<g id="a_node15"><a xlink:href="classflow_1_1net__flow_1_1Node.html#a0bac29a091e1026e5b4f0b5d84a710c7" target="_top" xlink:title="Sets Server_socket::m_state.">
<polygon fill="white" stroke="black" points="288,-217.5 288,-243.5 389,-243.5 389,-217.5 288,-217.5"/>
<text text-anchor="start" x="296" y="-233.1" font-family="Helvetica,sans-Serif" font-size="8.00">flow::net_flow::Node</text>
<text text-anchor="middle" x="338.5" y="-224.1" font-family="Helvetica,sans-Serif" font-size="8.00">::serv_set_state</text>
</a>
</g>
</g>
<!-- Node6&#45;&gt;Node15 -->
<g id="edge17" class="edge">
<title>Node6&#45;&gt;Node15</title>
<path fill="none" stroke="midnightblue" d="M229.09,-157.62C234.99,-160.46 240.85,-163.76 246,-167.5 265.62,-181.75 262.18,-194.53 282,-208.5 284.11,-209.99 286.34,-211.4 288.64,-212.72"/>
<polygon fill="midnightblue" stroke="midnightblue" points="287.29,-215.97 297.78,-217.46 290.51,-209.75 287.29,-215.97"/>
</g>
<!-- Node16 -->
<g id="node16" class="node">
<title>Node16</title>
<g id="a_node16"><a xlink:href="classflow_1_1net__flow_1_1Node.html#a446ee7115c70cbcd48e3897d32fc0276" target="_top" xlink:title="Analogous to validate_options() but checks per&#45;socket options instead of per&#45;Node options.">
<polygon fill="white" stroke="black" points="282,-172.5 282,-198.5 395,-198.5 395,-172.5 282,-172.5"/>
<text text-anchor="start" x="290" y="-188.1" font-family="Helvetica,sans-Serif" font-size="8.00">flow::net_flow::Node</text>
<text text-anchor="middle" x="338.5" y="-179.1" font-family="Helvetica,sans-Serif" font-size="8.00">::sock_validate_options</text>
</a>
</g>
</g>
<!-- Node6&#45;&gt;Node16 -->
<g id="edge18" class="edge">
<title>Node6&#45;&gt;Node16</title>
<path fill="none" stroke="midnightblue" d="M238.78,-157.59C252.25,-161.39 267.12,-165.6 281.14,-169.56"/>
<polygon fill="midnightblue" stroke="midnightblue" points="280.59,-173.05 291.16,-172.4 282.49,-166.31 280.59,-173.05"/>
</g>
<!-- Node9 -->
<g id="node9" class="node">
<title>Node9</title>
<g id="a_node9"><a xlink:href="classflow_1_1net__flow_1_1Port__space.html#ac43e4303aac2bde697b99bf03901ec85" target="_top" xlink:title="Returns true if and only if the given port is a service port (as opposed to ephemeral or S_PORT_ANY).">
<polygon fill="white" stroke="black" points="450.5,-54.5 450.5,-80.5 561.5,-80.5 561.5,-54.5 450.5,-54.5"/>
<text text-anchor="start" x="458.5" y="-70.1" font-family="Helvetica,sans-Serif" font-size="8.00">flow::net_flow::Port</text>
<text text-anchor="middle" x="506" y="-61.1" font-family="Helvetica,sans-Serif" font-size="8.00">_space::is_service_port</text>
</a>
</g>
</g>
<!-- Node8&#45;&gt;Node9 -->
<g id="edge9" class="edge">
<title>Node8&#45;&gt;Node9</title>
<path fill="none" stroke="midnightblue" d="M389.6,-92.6C405.67,-89.11 423.69,-85.19 440.63,-81.5"/>
<polygon fill="midnightblue" stroke="midnightblue" points="441.43,-84.91 450.45,-79.37 439.94,-78.07 441.43,-84.91"/>
</g>
<!-- Node11 -->
<g id="node11" class="node">
<title>Node11</title>
<g id="a_node11"><a xlink:href="classflow_1_1net__flow_1_1Port__space.html#a65dbe99c7c4433e6c090f26c92ab3f78" target="_top" xlink:title="Reserve a randomly chosen available ephemeral port.">
<polygon fill="white" stroke="black" points="431,-99.5 431,-125.5 581,-125.5 581,-99.5 431,-99.5"/>
<text text-anchor="start" x="439" y="-115.1" font-family="Helvetica,sans-Serif" font-size="8.00">flow::net_flow::Port</text>
<text text-anchor="middle" x="506" y="-106.1" font-family="Helvetica,sans-Serif" font-size="8.00">_space::reserve_ephemeral_port</text>
</a>
</g>
</g>
<!-- Node8&#45;&gt;Node11 -->
<g id="edge11" class="edge">
<title>Node8&#45;&gt;Node11</title>
<path fill="none" stroke="midnightblue" d="M389.6,-106.22C399.48,-106.76 410.1,-107.34 420.75,-107.92"/>
<polygon fill="midnightblue" stroke="midnightblue" points="420.77,-111.42 430.95,-108.47 421.15,-104.43 420.77,-111.42"/>
</g>
<!-- Node10 -->
<g id="node10" class="node">
<title>Node10</title>
<g id="a_node10"><a xlink:href="namespaceflow_1_1util.html#a024ddda9acb2b66f2a1b35cdb0c016aa" target="_top" xlink:title="Returns true if and only if the given value is within the given range, given as a [low,...">
<polygon fill="white" stroke="black" points="623,-31.5 623,-57.5 719,-57.5 719,-31.5 623,-31.5"/>
<text text-anchor="start" x="631" y="-47.1" font-family="Helvetica,sans-Serif" font-size="8.00">flow::util::in_closed</text>
<text text-anchor="middle" x="671" y="-38.1" font-family="Helvetica,sans-Serif" font-size="8.00">_open_range</text>
</a>
</g>
</g>
<!-- Node9&#45;&gt;Node10 -->
<g id="edge10" class="edge">
<title>Node9&#45;&gt;Node10</title>
<path fill="none" stroke="midnightblue" d="M561.73,-59.78C578.12,-57.46 596.14,-54.92 612.69,-52.59"/>
<polygon fill="midnightblue" stroke="midnightblue" points="613.36,-56.03 622.78,-51.16 612.39,-49.1 613.36,-56.03"/>
</g>
<!-- Node12 -->
<g id="node12" class="node">
<title>Node12</title>
<g id="a_node12"><a xlink:href="classflow_1_1net__flow_1_1Port__space.html#ad5a6a34a24c95364bb8348e5030d955b" target="_top" xlink:title="Helper method that, given a reference to a bit set representing available ports (1 available,...">
<polygon fill="white" stroke="black" points="617,-95 617,-130 725,-130 725,-95 617,-95"/>
<text text-anchor="start" x="625" y="-119.6" font-family="Helvetica,sans-Serif" font-size="8.00">flow::net_flow::Port</text>
<text text-anchor="start" x="625" y="-110.6" font-family="Helvetica,sans-Serif" font-size="8.00">_space::find_available</text>
<text text-anchor="middle" x="671" y="-101.6" font-family="Helvetica,sans-Serif" font-size="8.00">_port_bit_idx</text>
</a>
</g>
</g>
<!-- Node11&#45;&gt;Node12 -->
<g id="edge12" class="edge">
<title>Node11&#45;&gt;Node12</title>
<path fill="none" stroke="midnightblue" d="M581.35,-112.5C589.73,-112.5 598.21,-112.5 606.44,-112.5"/>
<polygon fill="midnightblue" stroke="midnightblue" points="606.7,-116 616.7,-112.5 606.7,-109 606.7,-116"/>
</g>
<!-- Node13&#45;&gt;Node9 -->
<g id="edge15" class="edge">
<title>Node13&#45;&gt;Node9</title>
<path fill="none" stroke="midnightblue" d="M386.93,-61.08C403.45,-61.98 422.3,-63 440,-63.97"/>
<polygon fill="midnightblue" stroke="midnightblue" points="440.09,-67.48 450.27,-64.52 440.47,-60.49 440.09,-67.48"/>
</g>
<!-- Node13&#45;&gt;Node10 -->
<g id="edge14" class="edge">
<title>Node13&#45;&gt;Node10</title>
<path fill="none" stroke="midnightblue" d="M386.83,-49.86C400.99,-47.65 416.58,-45.6 431,-44.5 492.87,-39.79 564,-40.59 612.47,-42.06"/>
<polygon fill="midnightblue" stroke="midnightblue" points="612.65,-45.57 622.76,-42.39 612.88,-38.57 612.65,-45.57"/>
</g>
<!-- Node17 -->
<g id="node17" class="node">
<title>Node17</title>
<g id="a_node17"><a xlink:href="namespaceflow_1_1util.html#ab10bc9e8bef148f875aa743fe0852743" target="_top" xlink:title="Returns true if and only if the given value is within the given range, inclusive.">
<polygon fill="white" stroke="black" points="458,-162.5 458,-188.5 554,-188.5 554,-162.5 458,-162.5"/>
<text text-anchor="start" x="466" y="-178.1" font-family="Helvetica,sans-Serif" font-size="8.00">flow::util::in_closed</text>
<text text-anchor="middle" x="506" y="-169.1" font-family="Helvetica,sans-Serif" font-size="8.00">_range</text>
</a>
</g>
</g>
<!-- Node16&#45;&gt;Node17 -->
<g id="edge19" class="edge">
<title>Node16&#45;&gt;Node17</title>
<path fill="none" stroke="midnightblue" d="M395.07,-182.14C411.94,-181.12 430.52,-180 447.51,-178.97"/>
<polygon fill="midnightblue" stroke="midnightblue" points="448.1,-182.44 457.87,-178.35 447.67,-175.46 448.1,-182.44"/>
</g>
<!-- Node18 -->
<g id="node18" class="node">
<title>Node18</title>
<g id="a_node18"><a xlink:href="namespaceflow_1_1util.html#a8ae762ea4f743a98a73953d7f9ec2164" target="_top" xlink:title="Returns true if and only if the given value is within the given range, given as a (low,...">
<polygon fill="white" stroke="black" points="461,-207.5 461,-233.5 551,-233.5 551,-207.5 461,-207.5"/>
<text text-anchor="start" x="469" y="-223.1" font-family="Helvetica,sans-Serif" font-size="8.00">flow::util::in_open</text>
<text text-anchor="middle" x="506" y="-214.1" font-family="Helvetica,sans-Serif" font-size="8.00">_closed_range</text>
</a>
</g>
</g>
<!-- Node16&#45;&gt;Node18 -->
<g id="edge20" class="edge">
<title>Node16&#45;&gt;Node18</title>
<path fill="none" stroke="midnightblue" d="M395.07,-197.25C412.97,-201.04 432.77,-205.23 450.59,-208.99"/>
<polygon fill="midnightblue" stroke="midnightblue" points="450.31,-212.51 460.82,-211.16 451.76,-205.66 450.31,-212.51"/>
</g>
</g>
</svg>
