<?xml version="1.0" encoding="UTF-8" standalone="no"?>
<!DOCTYPE svg PUBLIC "-//W3C//DTD SVG 1.1//EN"
 "http://www.w3.org/Graphics/SVG/1.1/DTD/svg11.dtd">
<!-- Generated by graphviz version 2.43.0 (0)
 -->
<!-- Title: flow::perf::Checkpointing_timer::now Pages: 1 -->
<svg width="293pt" height="143pt"
 viewBox="0.00 0.00 293.00 143.00" xmlns="http://www.w3.org/2000/svg" xmlns:xlink="http://www.w3.org/1999/xlink">
<g id="graph0" class="graph" transform="scale(1 1) rotate(0) translate(4 139)">
<title>flow::perf::Checkpointing_timer::now</title>
<polygon fill="white" stroke="transparent" points="-4,4 -4,-139 289,-139 289,4 -4,4"/>
<!-- Node1 -->
<g id="node1" class="node">
<title>Node1</title>
<g id="a_node1"><a xlink:title="Based on the passed in which_clocks argument, the current time is returned for the clock types enable...">
<polygon fill="#bfbfbf" stroke="black" points="0,-45.5 0,-71.5 119,-71.5 119,-45.5 0,-45.5"/>
<text text-anchor="start" x="8" y="-61.1" font-family="Helvetica,sans-Serif" font-size="8.00">flow::perf::Checkpointing</text>
<text text-anchor="middle" x="59.5" y="-52.1" font-family="Helvetica,sans-Serif" font-size="8.00">_timer::now</text>
</a>
</g>
</g>
<!-- Node2 -->
<g id="node2" class="node">
<title>Node2</title>
<g id="a_node2"><a xlink:href="classflow_1_1perf_1_1Checkpointing__timer.html#a3b73f2812c2bf6a27ef2becc13859d73" target="_top" xlink:title="Sample all currently enabled Clock_types&#39; clocks and return those values, each of which is a time sta...">
<polygon fill="white" stroke="black" points="160.5,-90.5 160.5,-116.5 279.5,-116.5 279.5,-90.5 160.5,-90.5"/>
<text text-anchor="start" x="168.5" y="-106.1" font-family="Helvetica,sans-Serif" font-size="8.00">flow::perf::Checkpointing</text>
<text text-anchor="middle" x="220" y="-97.1" font-family="Helvetica,sans-Serif" font-size="8.00">_timer::now</text>
</a>
</g>
</g>
<!-- Node1&#45;&gt;Node2 -->
<g id="edge1" class="edge">
<title>Node1&#45;&gt;Node2</title>
<path fill="none" stroke="midnightblue" d="M106.34,-71.52C124.09,-76.55 144.58,-82.37 163.17,-87.65"/>
<polygon fill="midnightblue" stroke="midnightblue" points="162.41,-91.07 172.98,-90.44 164.32,-84.34 162.41,-91.07"/>
</g>
<!-- Node3 -->
<g id="node3" class="node">
<title>Node3</title>
<g id="a_node3"><a xlink:href="classflow_1_1perf_1_1Checkpointing__timer.html#a82e717d5b1f6df56dc70b26c7da100f3" target="_top" xlink:title="Returns individual Time_pt value returnable by now() various overloads: either the user time or syste...">
<polygon fill="white" stroke="black" points="160.5,-45.5 160.5,-71.5 279.5,-71.5 279.5,-45.5 160.5,-45.5"/>
<text text-anchor="start" x="168.5" y="-61.1" font-family="Helvetica,sans-Serif" font-size="8.00">flow::perf::Checkpointing</text>
<text text-anchor="middle" x="220" y="-52.1" font-family="Helvetica,sans-Serif" font-size="8.00">_timer::now_cpu_lo_res</text>
</a>
</g>
</g>
<!-- Node1&#45;&gt;Node3 -->
<g id="edge3" class="edge">
<title>Node1&#45;&gt;Node3</title>
<path fill="none" stroke="midnightblue" d="M119.07,-58.5C129.19,-58.5 139.79,-58.5 150.15,-58.5"/>
<polygon fill="midnightblue" stroke="midnightblue" points="150.41,-62 160.41,-58.5 150.41,-55 150.41,-62"/>
</g>
<!-- Node4 -->
<g id="node4" class="node">
<title>Node4</title>
<g id="a_node4"><a xlink:href="classflow_1_1perf_1_1Checkpointing__timer.html#a7c799f400ceddd5ad5529fa66f026fd0" target="_top" xlink:title="Returns the current Cpu_split_clock time, essentially as a combo struct containing raw (integer) coun...">
<polygon fill="white" stroke="black" points="155,-0.5 155,-26.5 285,-26.5 285,-0.5 155,-0.5"/>
<text text-anchor="start" x="163" y="-16.1" font-family="Helvetica,sans-Serif" font-size="8.00">flow::perf::Checkpointing</text>
<text text-anchor="middle" x="220" y="-7.1" font-family="Helvetica,sans-Serif" font-size="8.00">_timer::now_cpu_lo_res_raw</text>
</a>
</g>
</g>
<!-- Node1&#45;&gt;Node4 -->
<g id="edge4" class="edge">
<title>Node1&#45;&gt;Node4</title>
<path fill="none" stroke="midnightblue" d="M106.34,-45.48C124.09,-40.45 144.58,-34.63 163.17,-29.35"/>
<polygon fill="midnightblue" stroke="midnightblue" points="164.32,-32.66 172.98,-26.56 162.41,-25.93 164.32,-32.66"/>
</g>
<!-- Node2&#45;&gt;Node2 -->
<g id="edge2" class="edge">
<title>Node2&#45;&gt;Node2</title>
<path fill="none" stroke="midnightblue" d="M192.93,-116.77C184.73,-125.96 193.75,-135 220,-135 236,-135 245.6,-131.64 248.8,-126.94"/>
<polygon fill="midnightblue" stroke="midnightblue" points="252.2,-126.04 247.07,-116.77 245.29,-127.22 252.2,-126.04"/>
</g>
</g>
</svg>
