<?xml version="1.0" encoding="UTF-8" standalone="no"?>
<!DOCTYPE svg PUBLIC "-//W3C//DTD SVG 1.1//EN"
 "http://www.w3.org/Graphics/SVG/1.1/DTD/svg11.dtd">
<!-- Generated by graphviz version 2.43.0 (0)
 -->
<!-- Title: flow::net_flow::Congestion_control_classic Pages: 1 -->
<svg width="1087pt" height="434pt"
 viewBox="0.00 0.00 1087.00 434.35" xmlns="http://www.w3.org/2000/svg" xmlns:xlink="http://www.w3.org/1999/xlink">
<g id="graph0" class="graph" transform="scale(1 1) rotate(0) translate(4 430.35)">
<title>flow::net_flow::Congestion_control_classic</title>
<polygon fill="white" stroke="transparent" points="-4,4 -4,-430.35 1083,-430.35 1083,4 -4,4"/>
<!-- Node1 -->
<g id="node1" class="node">
<title>Node1</title>
<g id="a_node1"><a xlink:title="Classic congestion control, based on Reno (TCP RFC 5681), with congestion avoidance,...">
<polygon fill="#bfbfbf" stroke="black" points="954,-193.35 954,-219.35 1079,-219.35 1079,-193.35 954,-193.35"/>
<text text-anchor="start" x="962" y="-208.95" font-family="Helvetica,sans-Serif" font-size="8.00">flow::net_flow::Congestion</text>
<text text-anchor="middle" x="1016.5" y="-199.95" font-family="Helvetica,sans-Serif" font-size="8.00">_control_classic</text>
</a>
</g>
</g>
<!-- Node2 -->
<g id="node2" class="node">
<title>Node2</title>
<g id="a_node2"><a xlink:href="classflow_1_1net__flow_1_1Congestion__control__strategy.html" target="_top" xlink:title="The abstract interface for a per&#45;socket module that determines the socket&#39;s congestion control behavi...">
<polygon fill="white" stroke="black" points="729,-250.35 729,-276.35 854,-276.35 854,-250.35 729,-250.35"/>
<text text-anchor="start" x="737" y="-265.95" font-family="Helvetica,sans-Serif" font-size="8.00">flow::net_flow::Congestion</text>
<text text-anchor="middle" x="791.5" y="-256.95" font-family="Helvetica,sans-Serif" font-size="8.00">_control_strategy</text>
</a>
</g>
</g>
<!-- Node2&#45;&gt;Node1 -->
<g id="edge1" class="edge">
<title>Node2&#45;&gt;Node1</title>
<path fill="none" stroke="midnightblue" d="M853.43,-247.78C888.25,-238.88 931.42,-227.84 964.45,-219.4"/>
<polygon fill="midnightblue" stroke="midnightblue" points="852.2,-244.48 843.38,-250.35 853.94,-251.26 852.2,-244.48"/>
</g>
<!-- Node3 -->
<g id="node3" class="node">
<title>Node3</title>
<g id="a_node3"><a xlink:href="classflow_1_1util_1_1Null__interface.html" target="_top" xlink:title="An empty interface, consisting of nothing but a default virtual destructor, intended as a boiler&#45;plat...">
<polygon fill="white" stroke="black" points="0,-408.85 0,-425.85 114,-425.85 114,-408.85 0,-408.85"/>
<text text-anchor="middle" x="57" y="-415.45" font-family="Helvetica,sans-Serif" font-size="8.00">flow::util::Null_interface</text>
</a>
</g>
</g>
<!-- Node3&#45;&gt;Node2 -->
<g id="edge2" class="edge">
<title>Node3&#45;&gt;Node2</title>
<path fill="none" stroke="midnightblue" d="M124.12,-414.33C160.54,-412.02 206.46,-408.05 247,-401.35 437.42,-369.9 658.86,-304.4 749.07,-276.45"/>
<polygon fill="midnightblue" stroke="midnightblue" points="123.88,-410.83 114.11,-414.94 124.3,-417.82 123.88,-410.83"/>
</g>
<!-- Node5 -->
<g id="node5" class="node">
<title>Node5</title>
<g id="a_node5"><a xlink:href="classflow_1_1log_1_1Logger.html" target="_top" xlink:title="Interface that the user should implement, passing the implementing Logger into logging classes (Flow&#39;...">
<polygon fill="white" stroke="black" points="274.5,-336.85 274.5,-353.85 360.5,-353.85 360.5,-336.85 274.5,-336.85"/>
<text text-anchor="middle" x="317.5" y="-343.45" font-family="Helvetica,sans-Serif" font-size="8.00">flow::log::Logger</text>
</a>
</g>
</g>
<!-- Node3&#45;&gt;Node5 -->
<g id="edge5" class="edge">
<title>Node3&#45;&gt;Node5</title>
<path fill="none" stroke="midnightblue" d="M113.44,-406.79C151.44,-398.99 202.76,-387.32 247,-373.35 264.49,-367.83 283.8,-359.89 297.61,-353.88"/>
<polygon fill="midnightblue" stroke="midnightblue" points="112.7,-403.38 103.59,-408.79 114.09,-410.24 112.7,-403.38"/>
</g>
<!-- Node4 -->
<g id="node4" class="node">
<title>Node4</title>
<g id="a_node4"><a xlink:href="classflow_1_1log_1_1Log__context.html" target="_top" xlink:title="Convenience class that simply stores a Logger and/or Component passed into a constructor; and returns...">
<polygon fill="white" stroke="black" points="469,-182.85 469,-199.85 576,-199.85 576,-182.85 469,-182.85"/>
<text text-anchor="middle" x="522.5" y="-189.45" font-family="Helvetica,sans-Serif" font-size="8.00">flow::log::Log_context</text>
</a>
</g>
</g>
<!-- Node4&#45;&gt;Node2 -->
<g id="edge3" class="edge">
<title>Node4&#45;&gt;Node2</title>
<path fill="none" stroke="midnightblue" d="M586.46,-191.28C623.63,-192.97 671.07,-198.18 711,-212.35 735.26,-220.96 759.67,-238.19 774.91,-250.23"/>
<polygon fill="midnightblue" stroke="midnightblue" points="586.38,-187.78 576.26,-190.89 586.12,-194.77 586.38,-187.78"/>
</g>
<!-- Node15 -->
<g id="node13" class="node">
<title>Node15</title>
<g id="a_node13"><a xlink:href="classflow_1_1net__flow_1_1Congestion__control__classic__data.html" target="_top" xlink:title="Utility class for use by Congestion_control_strategy implementations that implements congestion windo...">
<polygon fill="white" stroke="black" points="729,-136.35 729,-162.35 854,-162.35 854,-136.35 729,-136.35"/>
<text text-anchor="start" x="737" y="-151.95" font-family="Helvetica,sans-Serif" font-size="8.00">flow::net_flow::Congestion</text>
<text text-anchor="middle" x="791.5" y="-142.95" font-family="Helvetica,sans-Serif" font-size="8.00">_control_classic_data</text>
</a>
</g>
</g>
<!-- Node4&#45;&gt;Node15 -->
<g id="edge15" class="edge">
<title>Node4&#45;&gt;Node15</title>
<path fill="none" stroke="midnightblue" d="M586.32,-181.47C629.37,-174.7 686.2,-165.76 728.97,-159.03"/>
<polygon fill="midnightblue" stroke="midnightblue" points="585.59,-178.04 576.25,-183.05 586.67,-184.96 585.59,-178.04"/>
</g>
<!-- Node5&#45;&gt;Node4 -->
<g id="edge4" class="edge">
<title>Node5&#45;&gt;Node4</title>
<path fill="none" stroke="#9a32cd" stroke-dasharray="5,2" d="M332.78,-329.19C357.66,-301.88 411.62,-246.24 467,-212.35 475.22,-207.32 484.84,-203.14 493.7,-199.86"/>
<polygon fill="#9a32cd" stroke="#9a32cd" points="330.11,-326.93 326.02,-336.71 335.31,-331.61 330.11,-326.93"/>
<text text-anchor="middle" x="418.5" y="-274.95" font-family="Helvetica,sans-Serif" font-size="8.00"> m_logger</text>
</g>
<!-- Node6 -->
<g id="node6" class="node">
<title>Node6</title>
<g id="a_node6"><a xlink:href="classflow_1_1util_1_1Unique__id__holder.html" target="_top" xlink:title="Each object of this class stores (at construction) and returns (on demand) a numeric ID unique from a...">
<polygon fill="white" stroke="red" points="13.5,-361.35 13.5,-387.35 100.5,-387.35 100.5,-361.35 13.5,-361.35"/>
<text text-anchor="start" x="21.5" y="-376.95" font-family="Helvetica,sans-Serif" font-size="8.00">flow::util::Unique</text>
<text text-anchor="middle" x="57" y="-367.95" font-family="Helvetica,sans-Serif" font-size="8.00">_id_holder</text>
</a>
</g>
</g>
<!-- Node6&#45;&gt;Node5 -->
<g id="edge6" class="edge">
<title>Node6&#45;&gt;Node5</title>
<path fill="none" stroke="midnightblue" d="M111.08,-368.51C148.96,-364.33 201.12,-358.54 247,-353.35 255.81,-352.35 265.25,-351.28 274.24,-350.24"/>
<polygon fill="midnightblue" stroke="midnightblue" points="110.35,-365.07 100.79,-369.64 111.11,-372.03 110.35,-365.07"/>
</g>
<!-- Node9 -->
<g id="node7" class="node">
<title>Node9</title>
<g id="a_node7"><a xlink:title=" ">
<polygon fill="white" stroke="#bfbfbf" points="7.5,-278.85 7.5,-295.85 106.5,-295.85 106.5,-278.85 7.5,-278.85"/>
<text text-anchor="middle" x="57" y="-285.45" font-family="Helvetica,sans-Serif" font-size="8.00">boost::noncopyable</text>
</a>
</g>
</g>
<!-- Node9&#45;&gt;Node2 -->
<g id="edge12" class="edge">
<title>Node9&#45;&gt;Node2</title>
<path fill="none" stroke="#8b1a1a" d="M117.07,-286.67C231.67,-285.13 492.16,-280.62 711,-269.35 716.81,-269.05 722.85,-268.69 728.89,-268.29"/>
<polygon fill="#8b1a1a" stroke="#8b1a1a" points="116.72,-283.17 106.77,-286.8 116.82,-290.17 116.72,-283.17"/>
</g>
<!-- Node9&#45;&gt;Node5 -->
<g id="edge7" class="edge">
<title>Node9&#45;&gt;Node5</title>
<path fill="none" stroke="#8b1a1a" d="M106.58,-298.04C144.77,-306.47 199.3,-318.56 247,-329.35 257.63,-331.75 269.16,-334.4 279.72,-336.83"/>
<polygon fill="#8b1a1a" stroke="#8b1a1a" points="107.27,-294.61 96.75,-295.87 105.76,-301.44 107.27,-294.61"/>
</g>
<!-- Node9&#45;&gt;Node15 -->
<g id="edge16" class="edge">
<title>Node9&#45;&gt;Node15</title>
<path fill="none" stroke="#8b1a1a" d="M83.75,-274.07C146.93,-242.3 315.55,-162.58 467,-135.35 515.55,-126.62 528.69,-133.73 578,-135.35 628.81,-137.02 686.34,-140.94 728.72,-144.2"/>
<polygon fill="#8b1a1a" stroke="#8b1a1a" points="81.87,-271.09 74.53,-278.74 85.03,-277.34 81.87,-271.09"/>
</g>
<!-- Node10 -->
<g id="node8" class="node">
<title>Node10</title>
<g id="a_node8"><a xlink:title=" ">
<polygon fill="white" stroke="#bfbfbf" points="10,-316.35 10,-342.35 104,-342.35 104,-316.35 10,-316.35"/>
<text text-anchor="start" x="18" y="-331.95" font-family="Helvetica,sans-Serif" font-size="8.00">thread_specific_ptr</text>
<text text-anchor="middle" x="57" y="-322.95" font-family="Helvetica,sans-Serif" font-size="8.00">&lt; std::string &gt;</text>
</a>
</g>
</g>
<!-- Node10&#45;&gt;Node5 -->
<g id="edge8" class="edge">
<title>Node10&#45;&gt;Node5</title>
<path fill="none" stroke="#9a32cd" stroke-dasharray="5,2" d="M114.46,-332.85C162.54,-335.82 230.57,-340.03 274.11,-342.73"/>
<polygon fill="#9a32cd" stroke="#9a32cd" points="114.41,-329.34 104.21,-332.21 113.98,-336.32 114.41,-329.34"/>
<text text-anchor="middle" x="189.5" y="-342.95" font-family="Helvetica,sans-Serif" font-size="8.00"> s_this_thread_nickname_ptr</text>
</g>
<!-- Node11 -->
<g id="node9" class="node">
<title>Node11</title>
<g id="a_node9"><a xlink:href="classflow_1_1log_1_1Component.html" target="_top" xlink:title="A light&#45;weight class, each object storing a component payload encoding an enum value from enum type o...">
<polygon fill="white" stroke="black" points="265,-70.85 265,-87.85 370,-87.85 370,-70.85 265,-70.85"/>
<text text-anchor="middle" x="317.5" y="-77.45" font-family="Helvetica,sans-Serif" font-size="8.00">flow::log::Component</text>
</a>
</g>
</g>
<!-- Node11&#45;&gt;Node4 -->
<g id="edge9" class="edge">
<title>Node11&#45;&gt;Node4</title>
<path fill="none" stroke="#9a32cd" stroke-dasharray="5,2" d="M338.84,-93.81C366.76,-113.22 418.99,-147.97 467,-171.35 475.88,-175.68 485.95,-179.62 494.99,-182.84"/>
<polygon fill="#9a32cd" stroke="#9a32cd" points="340.54,-90.73 330.34,-87.85 336.52,-96.46 340.54,-90.73"/>
<text text-anchor="middle" x="418.5" y="-163.95" font-family="Helvetica,sans-Serif" font-size="8.00"> m_component</text>
</g>
<!-- Node12 -->
<g id="node10" class="node">
<title>Node12</title>
<g id="a_node10"><a xlink:title=" ">
<polygon fill="white" stroke="#bfbfbf" points="14.5,-36.85 14.5,-53.85 99.5,-53.85 99.5,-36.85 14.5,-36.85"/>
<text text-anchor="middle" x="57" y="-43.45" font-family="Helvetica,sans-Serif" font-size="8.00">type_info const *</text>
</a>
</g>
</g>
<!-- Node12&#45;&gt;Node11 -->
<g id="edge10" class="edge">
<title>Node12&#45;&gt;Node11</title>
<path fill="none" stroke="#9a32cd" stroke-dasharray="5,2" d="M110.06,-50.63C148.08,-54.68 200.83,-60.68 247,-67.35 254.15,-68.38 261.7,-69.58 269.08,-70.8"/>
<polygon fill="#9a32cd" stroke="#9a32cd" points="110.06,-47.11 99.75,-49.54 109.33,-54.07 110.06,-47.11"/>
<text text-anchor="middle" x="189.5" y="-69.95" font-family="Helvetica,sans-Serif" font-size="8.00"> m_payload_type_or_null</text>
</g>
<!-- Node13 -->
<g id="node11" class="node">
<title>Node13</title>
<g id="a_node11"><a xlink:title=" ">
<polygon fill="white" stroke="#bfbfbf" points="23,-72.85 23,-89.85 91,-89.85 91,-72.85 23,-72.85"/>
<text text-anchor="middle" x="57" y="-79.45" font-family="Helvetica,sans-Serif" font-size="8.00">unsigned int</text>
</a>
</g>
</g>
<!-- Node13&#45;&gt;Node11 -->
<g id="edge11" class="edge">
<title>Node13&#45;&gt;Node11</title>
<path fill="none" stroke="#9a32cd" stroke-dasharray="5,2" d="M101.05,-81.02C146.14,-80.67 216.95,-80.12 264.98,-79.75"/>
<polygon fill="#9a32cd" stroke="#9a32cd" points="100.97,-77.52 91,-81.1 101.03,-84.52 100.97,-77.52"/>
<text text-anchor="start" x="143" y="-92.95" font-family="Helvetica,sans-Serif" font-size="8.00"> m_payload_enum_raw</text>
<text text-anchor="middle" x="189.5" y="-83.95" font-family="Helvetica,sans-Serif" font-size="8.00">_value</text>
</g>
<!-- Node14 -->
<g id="node12" class="node">
<title>Node14</title>
<g id="a_node12"><a xlink:title=" ">
<polygon fill="white" stroke="#bfbfbf" points="467,-221.85 467,-256.85 578,-256.85 578,-221.85 467,-221.85"/>
<text text-anchor="start" x="475" y="-246.45" font-family="Helvetica,sans-Serif" font-size="8.00">weak_ptr&lt; Peer_socket</text>
<text text-anchor="start" x="475" y="-237.45" font-family="Helvetica,sans-Serif" font-size="8.00">::Const_ptr::element</text>
<text text-anchor="middle" x="522.5" y="-228.45" font-family="Helvetica,sans-Serif" font-size="8.00">_type &gt;</text>
</a>
</g>
</g>
<!-- Node14&#45;&gt;Node2 -->
<g id="edge13" class="edge">
<title>Node14&#45;&gt;Node2</title>
<path fill="none" stroke="#9a32cd" stroke-dasharray="5,2" d="M588.2,-245.17C630.99,-249.01 686.75,-254.03 728.9,-257.81"/>
<polygon fill="#9a32cd" stroke="#9a32cd" points="588.45,-241.67 578.18,-244.27 587.82,-248.65 588.45,-241.67"/>
<text text-anchor="middle" x="653.5" y="-258.95" font-family="Helvetica,sans-Serif" font-size="8.00"> m_sock</text>
</g>
<!-- Node14&#45;&gt;Node15 -->
<g id="edge18" class="edge">
<title>Node14&#45;&gt;Node15</title>
<path fill="none" stroke="#9a32cd" stroke-dasharray="5,2" d="M588.34,-223.16C624.8,-213.44 670.9,-200.12 711,-185.35 729.06,-178.7 748.76,-169.79 764.04,-162.5"/>
<polygon fill="#9a32cd" stroke="#9a32cd" points="587.1,-219.87 578.32,-225.8 588.89,-226.64 587.1,-219.87"/>
<text text-anchor="middle" x="653.5" y="-222.95" font-family="Helvetica,sans-Serif" font-size="8.00"> m_sock</text>
</g>
<!-- Node15&#45;&gt;Node1 -->
<g id="edge14" class="edge">
<title>Node15&#45;&gt;Node1</title>
<path fill="none" stroke="#9a32cd" stroke-dasharray="5,2" d="M853.43,-164.93C888.25,-173.83 931.42,-184.86 964.45,-193.3"/>
<polygon fill="#9a32cd" stroke="#9a32cd" points="853.94,-161.44 843.38,-162.36 852.2,-168.22 853.94,-161.44"/>
<text text-anchor="middle" x="904" y="-187.95" font-family="Helvetica,sans-Serif" font-size="8.00"> m_classic_data</text>
</g>
<!-- Node16 -->
<g id="node14" class="node">
<title>Node16</title>
<g id="a_node14"><a xlink:title=" ">
<polygon fill="white" stroke="#bfbfbf" points="478,-70.85 478,-87.85 567,-87.85 567,-70.85 478,-70.85"/>
<text text-anchor="middle" x="522.5" y="-77.45" font-family="Helvetica,sans-Serif" font-size="8.00">static const size_t</text>
</a>
</g>
</g>
<!-- Node16&#45;&gt;Node15 -->
<g id="edge17" class="edge">
<title>Node16&#45;&gt;Node15</title>
<path fill="none" stroke="#9a32cd" stroke-dasharray="5,2" d="M577.04,-71.78C615.52,-68.46 667.99,-68.36 711,-84.35 739.57,-94.98 765.45,-120.41 779.48,-136.13"/>
<polygon fill="#9a32cd" stroke="#9a32cd" points="576.69,-68.29 567.07,-72.73 577.36,-75.26 576.69,-68.29"/>
<text text-anchor="start" x="596" y="-95.95" font-family="Helvetica,sans-Serif" font-size="8.00"> S_MAX_SLOW_START_CWND</text>
<text text-anchor="middle" x="653.5" y="-86.95" font-family="Helvetica,sans-Serif" font-size="8.00">_INCREMENT_BLOCKS</text>
</g>
<!-- Node17 -->
<g id="node15" class="node">
<title>Node17</title>
<g id="a_node15"><a xlink:title=" ">
<polygon fill="white" stroke="#bfbfbf" points="502.5,-4.85 502.5,-21.85 542.5,-21.85 542.5,-4.85 502.5,-4.85"/>
<text text-anchor="middle" x="522.5" y="-11.45" font-family="Helvetica,sans-Serif" font-size="8.00">size_t</text>
</a>
</g>
</g>
<!-- Node17&#45;&gt;Node15 -->
<g id="edge19" class="edge">
<title>Node17&#45;&gt;Node15</title>
<path fill="none" stroke="#9a32cd" stroke-dasharray="5,2" d="M552.82,-6.67C591.83,0.55 661.63,7.5 711,-21.35 755.49,-47.35 778.59,-109.13 786.87,-136.23"/>
<polygon fill="#9a32cd" stroke="#9a32cd" points="551.8,-3.3 542.67,-8.68 553.16,-10.17 551.8,-3.3"/>
<text text-anchor="start" x="608" y="-59.95" font-family="Helvetica,sans-Serif" font-size="8.00"> m_acked_bytes_since</text>
<text text-anchor="middle" x="653.5" y="-50.95" font-family="Helvetica,sans-Serif" font-size="8.00">_window_update</text>
<text text-anchor="middle" x="653.5" y="-41.95" font-family="Helvetica,sans-Serif" font-size="8.00">m_cong_wnd_bytes</text>
<text text-anchor="start" x="608" y="-32.95" font-family="Helvetica,sans-Serif" font-size="8.00">m_slow_start_thresh</text>
<text text-anchor="middle" x="653.5" y="-23.95" font-family="Helvetica,sans-Serif" font-size="8.00">_bytes</text>
</g>
<!-- Node18 -->
<g id="node16" class="node">
<title>Node18</title>
<g id="a_node16"><a xlink:title=" ">
<polygon fill="white" stroke="#bfbfbf" points="490,-144.85 490,-161.85 555,-161.85 555,-144.85 490,-144.85"/>
<text text-anchor="middle" x="522.5" y="-151.45" font-family="Helvetica,sans-Serif" font-size="8.00">const size_t</text>
</a>
</g>
</g>
<!-- Node18&#45;&gt;Node15 -->
<g id="edge20" class="edge">
<title>Node18&#45;&gt;Node15</title>
<path fill="none" stroke="#9a32cd" stroke-dasharray="5,2" d="M565.41,-151.36C575.43,-150.95 586.09,-150.58 596,-150.35 640.39,-149.32 690.5,-149.08 728.74,-149.1"/>
<polygon fill="#9a32cd" stroke="#9a32cd" points="565.1,-147.87 555.25,-151.79 565.39,-154.86 565.1,-147.87"/>
<text text-anchor="middle" x="653.5" y="-152.95" font-family="Helvetica,sans-Serif" font-size="8.00"> m_init_cong_wnd_bytes</text>
</g>
</g>
</svg>
