<?xml version="1.0" encoding="UTF-8" standalone="no"?>
<!DOCTYPE svg PUBLIC "-//W3C//DTD SVG 1.1//EN"
 "http://www.w3.org/Graphics/SVG/1.1/DTD/svg11.dtd">
<!-- Generated by graphviz version 2.43.0 (0)
 -->
<!-- Title: flow::net_flow::Node::async_sock_low_lvl_packet_send Pages: 1 -->
<svg width="1393pt" height="593pt"
 viewBox="0.00 0.00 1393.00 592.92" xmlns="http://www.w3.org/2000/svg" xmlns:xlink="http://www.w3.org/1999/xlink">
<g id="graph0" class="graph" transform="scale(1 1) rotate(0) translate(4 588.92)">
<title>flow::net_flow::Node::async_sock_low_lvl_packet_send</title>
<polygon fill="white" stroke="transparent" points="-4,4 -4,-588.92 1389,-588.92 1389,4 -4,4"/>
<!-- Node1 -->
<g id="node1" class="node">
<title>Node1</title>
<g id="a_node1"><a xlink:title="async_low_lvl_packet_send_impl() wrapper to call when packet is to be sent to the remote side of the ...">
<polygon fill="#bfbfbf" stroke="black" points="1284,-20.5 1284,-55.5 1385,-55.5 1385,-20.5 1284,-20.5"/>
<text text-anchor="start" x="1292" y="-45.1" font-family="Helvetica,sans-Serif" font-size="8.00">flow::net_flow::Node</text>
<text text-anchor="start" x="1292" y="-36.1" font-family="Helvetica,sans-Serif" font-size="8.00">::async_sock_low_lvl</text>
<text text-anchor="middle" x="1334.5" y="-27.1" font-family="Helvetica,sans-Serif" font-size="8.00">_packet_send</text>
</a>
</g>
</g>
<!-- Node2 -->
<g id="node2" class="node">
<title>Node2</title>
<g id="a_node2"><a xlink:href="classflow_1_1net__flow_1_1Node.html#a31edf238c1b21a409ea807c66c1b22f0" target="_top" xlink:title="Begins the process of asynchronously sending the given low&#45;level packet to the remote Node specified ...">
<polygon fill="white" stroke="black" points="1147,-219.5 1147,-254.5 1248,-254.5 1248,-219.5 1147,-219.5"/>
<text text-anchor="start" x="1155" y="-244.1" font-family="Helvetica,sans-Serif" font-size="8.00">flow::net_flow::Node</text>
<text text-anchor="start" x="1155" y="-235.1" font-family="Helvetica,sans-Serif" font-size="8.00">::async_sock_low_lvl</text>
<text text-anchor="middle" x="1197.5" y="-226.1" font-family="Helvetica,sans-Serif" font-size="8.00">_packet_send_paced</text>
</a>
</g>
</g>
<!-- Node1&#45;&gt;Node2 -->
<g id="edge1" class="edge">
<title>Node1&#45;&gt;Node2</title>
<path fill="none" stroke="midnightblue" d="M1315.81,-64.08C1287.88,-105.25 1234.3,-184.23 1210.45,-219.38"/>
<polygon fill="midnightblue" stroke="midnightblue" points="1318.8,-65.9 1321.52,-55.66 1313.01,-61.97 1318.8,-65.9"/>
</g>
<!-- Node40 -->
<g id="node20" class="node">
<title>Node40</title>
<g id="a_node20"><a xlink:href="classflow_1_1net__flow_1_1Node.html#aaf0acf9de5f151727a43acce180a5e49" target="_top" xlink:title="async_sock_low_lvl_packet_send_paced() pacing helper: Given that we are currently in the pacing time ...">
<polygon fill="white" stroke="black" points="487,-128 487,-154 605,-154 605,-128 487,-128"/>
<text text-anchor="start" x="495" y="-143.6" font-family="Helvetica,sans-Serif" font-size="8.00">flow::net_flow::Node</text>
<text text-anchor="middle" x="546" y="-134.6" font-family="Helvetica,sans-Serif" font-size="8.00">::sock_pacing_process_q</text>
</a>
</g>
</g>
<!-- Node1&#45;&gt;Node40 -->
<g id="edge31" class="edge">
<title>Node1&#45;&gt;Node40</title>
<path fill="none" stroke="midnightblue" d="M1273.7,-38C1217.7,-38 1131.68,-38 1057,-38 1057,-38 1057,-38 889,-38 776.34,-38 748.26,-57.55 642,-95 616.59,-103.95 589.04,-117.79 570.18,-127.95"/>
<polygon fill="midnightblue" stroke="midnightblue" points="1273.8,-41.5 1283.8,-38 1273.8,-34.5 1273.8,-41.5"/>
</g>
<!-- Node41 -->
<g id="node21" class="node">
<title>Node41</title>
<g id="a_node21"><a xlink:href="classflow_1_1net__flow_1_1Node.html#a62e1f8e6da36d7cd3ad905924aea376c" target="_top" xlink:title="async_sock_low_lvl_packet_send_paced() pacing helper: Handles a DATA or ACK packet that was just pass...">
<polygon fill="white" stroke="black" points="298,-63 298,-89 450,-89 450,-63 298,-63"/>
<text text-anchor="start" x="306" y="-78.6" font-family="Helvetica,sans-Serif" font-size="8.00">flow::net_flow::Node</text>
<text text-anchor="middle" x="374" y="-69.6" font-family="Helvetica,sans-Serif" font-size="8.00">::sock_pacing_new_packet_ready</text>
</a>
</g>
</g>
<!-- Node1&#45;&gt;Node41 -->
<g id="edge30" class="edge">
<title>Node1&#45;&gt;Node41</title>
<path fill="none" stroke="midnightblue" d="M1273.77,-24.99C1217.99,-13.99 1132.27,0 1057,0 1057,0 1057,0 709.5,0 597.24,0 468.94,-41.21 409.09,-62.94"/>
<polygon fill="midnightblue" stroke="midnightblue" points="1273.34,-28.48 1283.83,-27.01 1274.71,-21.61 1273.34,-28.48"/>
</g>
<!-- Node3 -->
<g id="node3" class="node">
<title>Node3</title>
<g id="a_node3"><a xlink:href="classflow_1_1net__flow_1_1Node.html#aa5f7c019665d9dd91af0ad6431f8f97d" target="_top" xlink:title="Similar to async_sock_low_lvl_packet_send_paced() except it also calls close_connection_immediately(s...">
<polygon fill="white" stroke="black" points="1001,-365 1001,-409 1111,-409 1111,-365 1001,-365"/>
<text text-anchor="start" x="1009" y="-398.6" font-family="Helvetica,sans-Serif" font-size="8.00">flow::net_flow::Node</text>
<text text-anchor="start" x="1009" y="-389.6" font-family="Helvetica,sans-Serif" font-size="8.00">::async_sock_low_lvl</text>
<text text-anchor="start" x="1009" y="-380.6" font-family="Helvetica,sans-Serif" font-size="8.00">_packet_send_or_close</text>
<text text-anchor="middle" x="1056" y="-371.6" font-family="Helvetica,sans-Serif" font-size="8.00">_immediately</text>
</a>
</g>
</g>
<!-- Node2&#45;&gt;Node3 -->
<g id="edge2" class="edge">
<title>Node2&#45;&gt;Node3</title>
<path fill="none" stroke="midnightblue" d="M1173.17,-262.09C1146.49,-290.78 1103.22,-337.31 1077.69,-364.75"/>
<polygon fill="midnightblue" stroke="midnightblue" points="1175.98,-264.21 1180.22,-254.5 1170.85,-259.44 1175.98,-264.21"/>
</g>
<!-- Node27 -->
<g id="node11" class="node">
<title>Node27</title>
<g id="a_node11"><a xlink:href="classflow_1_1net__flow_1_1Node.html#ad03aa88df3d1d3981454ee3356e868c1" target="_top" xlink:title="Sends an RST to the other side of the given socket asynchronously when possible.">
<polygon fill="white" stroke="black" points="1005.5,-219.5 1005.5,-254.5 1106.5,-254.5 1106.5,-219.5 1005.5,-219.5"/>
<text text-anchor="start" x="1013.5" y="-244.1" font-family="Helvetica,sans-Serif" font-size="8.00">flow::net_flow::Node</text>
<text text-anchor="start" x="1013.5" y="-235.1" font-family="Helvetica,sans-Serif" font-size="8.00">::async_sock_low_lvl</text>
<text text-anchor="middle" x="1056" y="-226.1" font-family="Helvetica,sans-Serif" font-size="8.00">_rst_send</text>
</a>
</g>
</g>
<!-- Node2&#45;&gt;Node27 -->
<g id="edge11" class="edge">
<title>Node2&#45;&gt;Node27</title>
<path fill="none" stroke="midnightblue" d="M1136.7,-237C1126.76,-237 1116.55,-237 1106.89,-237"/>
<polygon fill="midnightblue" stroke="midnightblue" points="1136.92,-240.5 1146.92,-237 1136.92,-233.5 1136.92,-240.5"/>
</g>
<!-- Node42 -->
<g id="node22" class="node">
<title>Node42</title>
<g id="a_node22"><a xlink:href="classflow_1_1net__flow_1_1Node.html#aaaf5c3b5e6b9f9f1658b60907b36a498" target="_top" xlink:title="Handles a just&#45;deserialized, just&#45;demultiplexed low&#45;level SYN packet delivered to the given server so...">
<polygon fill="white" stroke="black" points="486,-435.5 486,-470.5 606,-470.5 606,-435.5 486,-435.5"/>
<text text-anchor="start" x="494" y="-460.1" font-family="Helvetica,sans-Serif" font-size="8.00">flow::net_flow::Node</text>
<text text-anchor="start" x="494" y="-451.1" font-family="Helvetica,sans-Serif" font-size="8.00">::handle_syn_to_listening</text>
<text text-anchor="middle" x="546" y="-442.1" font-family="Helvetica,sans-Serif" font-size="8.00">_server</text>
</a>
</g>
</g>
<!-- Node2&#45;&gt;Node42 -->
<g id="edge28" class="edge">
<title>Node2&#45;&gt;Node42</title>
<path fill="none" stroke="midnightblue" d="M1187.72,-264.41C1164.47,-331.43 1094.07,-501.75 965,-552 831.02,-604.16 774.16,-590.63 642,-534 608.93,-519.83 578.8,-489.98 561.71,-470.74"/>
<polygon fill="midnightblue" stroke="midnightblue" points="1191.16,-265.17 1191.05,-254.58 1184.53,-262.93 1191.16,-265.17"/>
</g>
<!-- Node4 -->
<g id="node4" class="node">
<title>Node4</title>
<g id="a_node4"><a xlink:href="classflow_1_1net__flow_1_1Node.html#a81e50276d0b162f6577adc690e0ef9e0" target="_top" xlink:title="Sends a low&#45;level ACK packet, with all accumulated in Peer_socket::m_rcv_pending_acks of sock individ...">
<polygon fill="white" stroke="black" points="830.5,-299 830.5,-325 949.5,-325 949.5,-299 830.5,-299"/>
<text text-anchor="start" x="838.5" y="-314.6" font-family="Helvetica,sans-Serif" font-size="8.00">flow::net_flow::Node</text>
<text text-anchor="middle" x="890" y="-305.6" font-family="Helvetica,sans-Serif" font-size="8.00">::async_low_lvl_ack_send</text>
</a>
</g>
</g>
<!-- Node3&#45;&gt;Node4 -->
<g id="edge3" class="edge">
<title>Node3&#45;&gt;Node4</title>
<path fill="none" stroke="midnightblue" d="M1012.1,-359.61C997.52,-351.01 980.88,-341.95 965,-335 956.62,-331.33 947.47,-327.99 938.55,-325.06"/>
<polygon fill="midnightblue" stroke="midnightblue" points="1010.52,-362.74 1020.9,-364.89 1014.12,-356.74 1010.52,-362.74"/>
</g>
<!-- Node5 -->
<g id="node5" class="node">
<title>Node5</title>
<g id="a_node5"><a xlink:href="classflow_1_1net__flow_1_1Node.html#acaf55766783893827061fd85cab2634f" target="_top" xlink:title="Helper to create, fully fill out, and asynchronously send via async_sock_low_lvl_packet_send_or_close...">
<polygon fill="white" stroke="black" points="815,-444.5 815,-479.5 965,-479.5 965,-444.5 815,-444.5"/>
<text text-anchor="start" x="823" y="-469.1" font-family="Helvetica,sans-Serif" font-size="8.00">flow::net_flow::Node</text>
<text text-anchor="start" x="823" y="-460.1" font-family="Helvetica,sans-Serif" font-size="8.00">::async_low_lvl_syn_ack</text>
<text text-anchor="middle" x="890" y="-451.1" font-family="Helvetica,sans-Serif" font-size="8.00">_ack_send_or_close_immediately</text>
</a>
</g>
</g>
<!-- Node3&#45;&gt;Node5 -->
<g id="edge4" class="edge">
<title>Node3&#45;&gt;Node5</title>
<path fill="none" stroke="midnightblue" d="M1006.24,-413.81C993.02,-420.71 978.59,-427.91 965,-434 956.98,-437.6 948.34,-441.15 939.9,-444.44"/>
<polygon fill="midnightblue" stroke="midnightblue" points="1007.97,-416.86 1015.18,-409.1 1004.71,-410.67 1007.97,-416.86"/>
</g>
<!-- Node6 -->
<g id="node6" class="node">
<title>Node6</title>
<g id="a_node6"><a xlink:href="classflow_1_1net__flow_1_1Node.html#a192d4b95b9f8a5c3d08b1e5486eb6f78" target="_top" xlink:title="receive_wnd_updated() helper that continues rcv_wnd recovery: that is, sends unsolicited ACK with a r...">
<polygon fill="white" stroke="black" points="829,-499 829,-525 951,-525 951,-499 829,-499"/>
<text text-anchor="start" x="837" y="-514.6" font-family="Helvetica,sans-Serif" font-size="8.00">flow::net_flow::Node</text>
<text text-anchor="middle" x="890" y="-505.6" font-family="Helvetica,sans-Serif" font-size="8.00">::async_rcv_wnd_recovery</text>
</a>
</g>
</g>
<!-- Node3&#45;&gt;Node6 -->
<g id="edge5" class="edge">
<title>Node3&#45;&gt;Node6</title>
<path fill="none" stroke="midnightblue" d="M1034.97,-417.62C1018.64,-440.33 993.65,-470.45 965,-489 959.01,-492.88 952.34,-496.13 945.51,-498.86"/>
<polygon fill="midnightblue" stroke="midnightblue" points="1037.91,-419.52 1040.79,-409.32 1032.18,-415.5 1037.91,-419.52"/>
</g>
<!-- Node16 -->
<g id="node8" class="node">
<title>Node16</title>
<g id="a_node8"><a xlink:href="classflow_1_1net__flow_1_1Node.html#addd654cb6b1ccff34ddccbe5226be8f0" target="_top" xlink:title="Handles the triggering of the retransmit timer wait set up by setup_connection_timers(); it will re&#45;s...">
<polygon fill="white" stroke="black" points="825.5,-344.5 825.5,-379.5 954.5,-379.5 954.5,-344.5 825.5,-344.5"/>
<text text-anchor="start" x="833.5" y="-369.1" font-family="Helvetica,sans-Serif" font-size="8.00">flow::net_flow::Node</text>
<text text-anchor="start" x="833.5" y="-360.1" font-family="Helvetica,sans-Serif" font-size="8.00">::handle_connection_rexmit</text>
<text text-anchor="middle" x="890" y="-351.1" font-family="Helvetica,sans-Serif" font-size="8.00">_timer_event</text>
</a>
</g>
</g>
<!-- Node3&#45;&gt;Node16 -->
<g id="edge8" class="edge">
<title>Node3&#45;&gt;Node16</title>
<path fill="none" stroke="midnightblue" d="M990.64,-377.19C978.85,-375.39 966.55,-373.52 954.78,-371.72"/>
<polygon fill="midnightblue" stroke="midnightblue" points="990.43,-380.7 1000.85,-378.74 991.49,-373.78 990.43,-380.7"/>
</g>
<!-- Node17 -->
<g id="node9" class="node">
<title>Node17</title>
<g id="a_node9"><a xlink:href="classflow_1_1net__flow_1_1Node.html#a10a92f11a2c9f218cdd9a55f282e79b1" target="_top" xlink:title="Thread W implemention of send(): synchronously or asynchronously send the contents of sock&#45;&gt;m_snd_buf...">
<polygon fill="white" stroke="black" points="839.5,-399 839.5,-425 940.5,-425 940.5,-399 839.5,-399"/>
<text text-anchor="start" x="847.5" y="-414.6" font-family="Helvetica,sans-Serif" font-size="8.00">flow::net_flow::Node</text>
<text text-anchor="middle" x="890" y="-405.6" font-family="Helvetica,sans-Serif" font-size="8.00">::send_worker</text>
</a>
</g>
</g>
<!-- Node3&#45;&gt;Node17 -->
<g id="edge9" class="edge">
<title>Node3&#45;&gt;Node17</title>
<path fill="none" stroke="midnightblue" d="M990.66,-396.81C974.04,-399.34 956.4,-402.03 940.66,-404.43"/>
<polygon fill="midnightblue" stroke="midnightblue" points="991.49,-400.22 1000.85,-395.26 990.43,-393.3 991.49,-400.22"/>
</g>
<!-- Node6&#45;&gt;Node6 -->
<g id="edge6" class="edge">
<title>Node6&#45;&gt;Node6</title>
<path fill="none" stroke="midnightblue" d="M920.12,-535.08C917.06,-539.97 907.02,-543.5 890,-543.5 862.77,-543.5 853.4,-534.46 861.91,-525.27"/>
<polygon fill="midnightblue" stroke="midnightblue" points="923.54,-534.35 918.09,-525.27 916.69,-535.77 923.54,-534.35"/>
</g>
<!-- Node7 -->
<g id="node7" class="node">
<title>Node7</title>
<g id="a_node7"><a xlink:href="classflow_1_1net__flow_1_1Node.html#a08cf95363b26c0c676979437e34db357" target="_top" xlink:title="Placed by receive() onto W if it has dequeued data from Receive buffer and given it to the user,...">
<polygon fill="white" stroke="red" points="654.5,-499 654.5,-525 766.5,-525 766.5,-499 654.5,-499"/>
<text text-anchor="start" x="662.5" y="-514.6" font-family="Helvetica,sans-Serif" font-size="8.00">flow::net_flow::Node</text>
<text text-anchor="middle" x="710.5" y="-505.6" font-family="Helvetica,sans-Serif" font-size="8.00">::receive_wnd_updated</text>
</a>
</g>
</g>
<!-- Node6&#45;&gt;Node7 -->
<g id="edge7" class="edge">
<title>Node6&#45;&gt;Node7</title>
<path fill="none" stroke="midnightblue" d="M818.85,-512C801.54,-512 783.24,-512 766.75,-512"/>
<polygon fill="midnightblue" stroke="midnightblue" points="818.91,-515.5 828.91,-512 818.91,-508.5 818.91,-515.5"/>
</g>
<!-- Node18 -->
<g id="node10" class="node">
<title>Node18</title>
<g id="a_node10"><a xlink:href="classflow_1_1net__flow_1_1Node.html#a2565b7c0bd82cad86eb168b62f8ffd9d" target="_top" xlink:title="Helper placed by send() onto W to invoke send_worker() but ensures that the socket has not entered so...">
<polygon fill="white" stroke="red" points="647,-399 647,-425 774,-425 774,-399 647,-399"/>
<text text-anchor="start" x="655" y="-414.6" font-family="Helvetica,sans-Serif" font-size="8.00">flow::net_flow::Node</text>
<text text-anchor="middle" x="710.5" y="-405.6" font-family="Helvetica,sans-Serif" font-size="8.00">::send_worker_check_state</text>
</a>
</g>
</g>
<!-- Node17&#45;&gt;Node18 -->
<g id="edge10" class="edge">
<title>Node17&#45;&gt;Node18</title>
<path fill="none" stroke="midnightblue" d="M828.9,-412C811.22,-412 791.84,-412 774.02,-412"/>
<polygon fill="midnightblue" stroke="midnightblue" points="829.08,-415.5 839.08,-412 829.08,-408.5 829.08,-415.5"/>
</g>
<!-- Node28 -->
<g id="node12" class="node">
<title>Node28</title>
<g id="a_node12"><a xlink:href="classflow_1_1net__flow_1_1Node.html#a1699dfdaf3e5ebe1b1d715a9c306d116" target="_top" xlink:title="Handles a just&#45;received, not&#45;yet&#45;deserialized low&#45;level packet.">
<polygon fill="white" stroke="black" points="323.5,-276 323.5,-302 424.5,-302 424.5,-276 323.5,-276"/>
<text text-anchor="start" x="331.5" y="-291.6" font-family="Helvetica,sans-Serif" font-size="8.00">flow::net_flow::Node</text>
<text text-anchor="middle" x="374" y="-282.6" font-family="Helvetica,sans-Serif" font-size="8.00">::handle_incoming</text>
</a>
</g>
</g>
<!-- Node27&#45;&gt;Node28 -->
<g id="edge12" class="edge">
<title>Node27&#45;&gt;Node28</title>
<path fill="none" stroke="midnightblue" d="M995.42,-245.06C939.6,-252.33 853.79,-262.82 779,-269 651.45,-279.54 500.75,-285.21 424.51,-287.6"/>
<polygon fill="midnightblue" stroke="midnightblue" points="996.03,-248.51 1005.49,-243.74 995.12,-241.57 996.03,-248.51"/>
</g>
<!-- Node34 -->
<g id="node15" class="node">
<title>Node34</title>
<g id="a_node15"><a xlink:href="classflow_1_1net__flow_1_1Node.html#afe70a0c32695e417e7a09e0ba773f151" target="_top" xlink:title="Asynchronously send RST to the other side of the given socket and close_connection_immediately().">
<polygon fill="white" stroke="black" points="826,-187.5 826,-222.5 954,-222.5 954,-187.5 826,-187.5"/>
<text text-anchor="start" x="834" y="-212.1" font-family="Helvetica,sans-Serif" font-size="8.00">flow::net_flow::Node</text>
<text text-anchor="start" x="834" y="-203.1" font-family="Helvetica,sans-Serif" font-size="8.00">::rst_and_close_connection</text>
<text text-anchor="middle" x="890" y="-194.1" font-family="Helvetica,sans-Serif" font-size="8.00">_immediately</text>
</a>
</g>
</g>
<!-- Node27&#45;&gt;Node34 -->
<g id="edge17" class="edge">
<title>Node27&#45;&gt;Node34</title>
<path fill="none" stroke="midnightblue" d="M995.31,-225.35C981.92,-222.74 967.67,-219.96 954.15,-217.32"/>
<polygon fill="midnightblue" stroke="midnightblue" points="994.86,-228.83 1005.35,-227.31 996.2,-221.96 994.86,-228.83"/>
</g>
<!-- Node29 -->
<g id="node13" class="node">
<title>Node29</title>
<g id="a_node13"><a xlink:href="classflow_1_1net__flow_1_1Node.html#a4368247d07e930bdd07ab8d2425c6de8" target="_top" xlink:title="Sets up handle_incoming(packet_data, low_lvl_remote_endpoint) to be called asynchronously after a spe...">
<polygon fill="white" stroke="black" points="149,-248.5 149,-283.5 262,-283.5 262,-248.5 149,-248.5"/>
<text text-anchor="start" x="157" y="-273.1" font-family="Helvetica,sans-Serif" font-size="8.00">flow::net_flow::Node</text>
<text text-anchor="start" x="157" y="-264.1" font-family="Helvetica,sans-Serif" font-size="8.00">::async_wait_latency</text>
<text text-anchor="middle" x="205.5" y="-255.1" font-family="Helvetica,sans-Serif" font-size="8.00">_then_handle_incoming</text>
</a>
</g>
</g>
<!-- Node28&#45;&gt;Node29 -->
<g id="edge13" class="edge">
<title>Node28&#45;&gt;Node29</title>
<path fill="none" stroke="midnightblue" d="M313.33,-280.76C296.68,-278.46 278.65,-275.97 262.23,-273.7"/>
<polygon fill="midnightblue" stroke="midnightblue" points="313.11,-284.26 323.5,-282.16 314.07,-277.33 313.11,-284.26"/>
</g>
<!-- Node30 -->
<g id="node14" class="node">
<title>Node30</title>
<g id="a_node14"><a xlink:href="classflow_1_1net__flow_1_1Node.html#a90ecbad1ff3a8d2fe4b3ad1c474f7513" target="_top" xlink:title="Helper for low_lvl_recv_and_handle() that calls handle_incoming() on the not&#45;yet&#45;deserialized low&#45;lev...">
<polygon fill="white" stroke="red" points="0,-271.5 0,-306.5 113,-306.5 113,-271.5 0,-271.5"/>
<text text-anchor="start" x="8" y="-296.1" font-family="Helvetica,sans-Serif" font-size="8.00">flow::net_flow::Node</text>
<text text-anchor="start" x="8" y="-287.1" font-family="Helvetica,sans-Serif" font-size="8.00">::handle_incoming_with</text>
<text text-anchor="middle" x="56.5" y="-278.1" font-family="Helvetica,sans-Serif" font-size="8.00">_simulation</text>
</a>
</g>
</g>
<!-- Node28&#45;&gt;Node30 -->
<g id="edge16" class="edge">
<title>Node28&#45;&gt;Node30</title>
<path fill="none" stroke="midnightblue" d="M313.17,-291.55C296.6,-292.15 278.61,-292.7 262,-293 211.79,-293.9 199.21,-294.1 149,-293 137.4,-292.75 124.97,-292.31 113.13,-291.82"/>
<polygon fill="midnightblue" stroke="midnightblue" points="313.42,-295.04 323.28,-291.17 313.16,-288.05 313.42,-295.04"/>
</g>
<!-- Node29&#45;&gt;Node30 -->
<g id="edge14" class="edge">
<title>Node29&#45;&gt;Node30</title>
<path fill="none" stroke="midnightblue" d="M138.92,-276.26C130.32,-277.61 121.57,-278.98 113.15,-280.29"/>
<polygon fill="midnightblue" stroke="midnightblue" points="139.59,-279.7 148.93,-274.7 138.5,-272.78 139.59,-279.7"/>
</g>
<!-- Node30&#45;&gt;Node30 -->
<g id="edge15" class="edge">
<title>Node30&#45;&gt;Node30</title>
<path fill="none" stroke="midnightblue" d="M82.27,-317.1C78.65,-321.77 70.06,-325 56.5,-325 34.24,-325 25.37,-316.31 29.89,-306.78"/>
<polygon fill="midnightblue" stroke="midnightblue" points="85.79,-317.03 83.11,-306.78 78.81,-316.47 85.79,-317.03"/>
</g>
<!-- Node35 -->
<g id="node16" class="node">
<title>Node35</title>
<g id="a_node16"><a xlink:href="classflow_1_1net__flow_1_1Node.html#a6461124e5bc3e59083e172e26029e632" target="_top" xlink:title="Implementation of non&#45;blocking sock&#45;&gt;close_abruptly() for socket sock in all cases except when sock&#45;&gt;...">
<polygon fill="white" stroke="red" points="660,-105 660,-131 761,-131 761,-105 660,-105"/>
<text text-anchor="start" x="668" y="-120.6" font-family="Helvetica,sans-Serif" font-size="8.00">flow::net_flow::Node</text>
<text text-anchor="middle" x="710.5" y="-111.6" font-family="Helvetica,sans-Serif" font-size="8.00">::close_abruptly</text>
</a>
</g>
</g>
<!-- Node34&#45;&gt;Node35 -->
<g id="edge18" class="edge">
<title>Node34&#45;&gt;Node35</title>
<path fill="none" stroke="midnightblue" d="M854.14,-181.74C833.02,-168.32 805.18,-151.83 779,-140 771.81,-136.75 764,-133.75 756.32,-131.08"/>
<polygon fill="midnightblue" stroke="midnightblue" points="852.45,-184.81 862.76,-187.27 856.24,-178.92 852.45,-184.81"/>
</g>
<!-- Node37 -->
<g id="node17" class="node">
<title>Node37</title>
<g id="a_node17"><a xlink:href="classflow_1_1net__flow_1_1Node.html#a29d02f9e302c7b06288ff1c644fa8d65" target="_top" xlink:title="Handles a just&#45;deserialized, just&#45;demultiplexed low&#45;level SYN_ACK_ACK packet delivered to the given p...">
<polygon fill="white" stroke="black" points="493.5,-225.5 493.5,-260.5 598.5,-260.5 598.5,-225.5 493.5,-225.5"/>
<text text-anchor="start" x="501.5" y="-250.1" font-family="Helvetica,sans-Serif" font-size="8.00">flow::net_flow::Node</text>
<text text-anchor="start" x="501.5" y="-241.1" font-family="Helvetica,sans-Serif" font-size="8.00">::handle_syn_ack_ack</text>
<text text-anchor="middle" x="546" y="-232.1" font-family="Helvetica,sans-Serif" font-size="8.00">_to_syn_rcvd</text>
</a>
</g>
</g>
<!-- Node34&#45;&gt;Node37 -->
<g id="edge19" class="edge">
<title>Node34&#45;&gt;Node37</title>
<path fill="none" stroke="midnightblue" d="M815.59,-208.32C766.33,-211.12 700.07,-215.99 642,-224 627.84,-225.95 612.61,-228.7 598.58,-231.51"/>
<polygon fill="midnightblue" stroke="midnightblue" points="816.04,-211.8 825.83,-207.76 815.66,-204.81 816.04,-211.8"/>
</g>
<!-- Node38 -->
<g id="node18" class="node">
<title>Node38</title>
<g id="a_node18"><a xlink:href="classflow_1_1net__flow_1_1Node.html#ab427ebc124a6233ae48a7562662a6e81" target="_top" xlink:title="Creates a new Drop Timer and saves it to sock&#45;&gt;m_snd_drop_timer.">
<polygon fill="white" stroke="black" points="660,-234 660,-260 761,-260 761,-234 660,-234"/>
<text text-anchor="start" x="668" y="-249.6" font-family="Helvetica,sans-Serif" font-size="8.00">flow::net_flow::Node</text>
<text text-anchor="middle" x="710.5" y="-240.6" font-family="Helvetica,sans-Serif" font-size="8.00">::setup_drop_timer</text>
</a>
</g>
</g>
<!-- Node34&#45;&gt;Node38 -->
<g id="edge21" class="edge">
<title>Node34&#45;&gt;Node38</title>
<path fill="none" stroke="midnightblue" d="M816.09,-222.25C797.65,-226.61 778.27,-231.2 761.27,-235.22"/>
<polygon fill="midnightblue" stroke="midnightblue" points="817,-225.63 825.92,-219.93 815.38,-218.82 817,-225.63"/>
</g>
<!-- Node39 -->
<g id="node19" class="node">
<title>Node39</title>
<g id="a_node19"><a xlink:href="classflow_1_1net__flow_1_1Node.html#a3fd57a0d025a78cbeccfd8a15a983575" target="_top" xlink:title="async_sock_low_lvl_packet_send_paced() pacing helper: If sock_pacing_process_q() ran out of the last ...">
<polygon fill="white" stroke="black" points="642,-150 642,-176 779,-176 779,-150 642,-150"/>
<text text-anchor="start" x="650" y="-165.6" font-family="Helvetica,sans-Serif" font-size="8.00">flow::net_flow::Node</text>
<text text-anchor="middle" x="710.5" y="-156.6" font-family="Helvetica,sans-Serif" font-size="8.00">::sock_pacing_time_slice_end</text>
</a>
</g>
</g>
<!-- Node34&#45;&gt;Node39 -->
<g id="edge23" class="edge">
<title>Node34&#45;&gt;Node39</title>
<path fill="none" stroke="midnightblue" d="M815.82,-187.68C799.4,-183.8 782.25,-179.74 766.72,-176.07"/>
<polygon fill="midnightblue" stroke="midnightblue" points="815.38,-191.18 825.92,-190.07 817,-184.37 815.38,-191.18"/>
</g>
<!-- Node37&#45;&gt;Node28 -->
<g id="edge20" class="edge">
<title>Node37&#45;&gt;Node28</title>
<path fill="none" stroke="midnightblue" d="M483.22,-259.72C463.42,-265.07 441.8,-270.92 423.13,-275.98"/>
<polygon fill="midnightblue" stroke="midnightblue" points="484.33,-263.04 493.07,-257.05 482.5,-256.28 484.33,-263.04"/>
</g>
<!-- Node38&#45;&gt;Node37 -->
<g id="edge22" class="edge">
<title>Node38&#45;&gt;Node37</title>
<path fill="none" stroke="midnightblue" d="M649.63,-245.53C632.87,-245.11 614.81,-244.67 598.58,-244.27"/>
<polygon fill="midnightblue" stroke="midnightblue" points="649.78,-249.03 659.86,-245.78 649.95,-242.03 649.78,-249.03"/>
</g>
<!-- Node39&#45;&gt;Node40 -->
<g id="edge24" class="edge">
<title>Node39&#45;&gt;Node40</title>
<path fill="none" stroke="midnightblue" d="M649.14,-148.28C634.76,-146.05 619.45,-143.99 605.17,-142.37"/>
<polygon fill="midnightblue" stroke="midnightblue" points="648.99,-151.8 659.42,-149.93 650.1,-144.89 648.99,-151.8"/>
</g>
<!-- Node40&#45;&gt;Node39 -->
<g id="edge27" class="edge">
<title>Node40&#45;&gt;Node39</title>
<path fill="none" stroke="midnightblue" d="M606.63,-155.61C618.13,-157.4 630.26,-159.08 642,-160.52"/>
<polygon fill="midnightblue" stroke="midnightblue" points="607.13,-152.14 596.7,-154 606.02,-159.05 607.13,-152.14"/>
</g>
<!-- Node40&#45;&gt;Node41 -->
<g id="edge25" class="edge">
<title>Node40&#45;&gt;Node41</title>
<path fill="none" stroke="midnightblue" d="M501.21,-124.26C472.52,-113.29 435.56,-99.15 409.06,-89.02"/>
<polygon fill="midnightblue" stroke="midnightblue" points="500.01,-127.54 510.6,-127.85 502.51,-121.01 500.01,-127.54"/>
</g>
<!-- Node41&#45;&gt;Node2 -->
<g id="edge26" class="edge">
<title>Node41&#45;&gt;Node2</title>
<path fill="none" stroke="midnightblue" d="M460.23,-76C527.83,-76 624.71,-76 709.5,-76 891,-76 891,-76 891,-76 1013,-76 1134.09,-177.74 1178.62,-219.46"/>
<polygon fill="midnightblue" stroke="midnightblue" points="460.06,-72.5 450.06,-76 460.06,-79.5 460.06,-72.5"/>
</g>
<!-- Node42&#45;&gt;Node28 -->
<g id="edge29" class="edge">
<title>Node42&#45;&gt;Node28</title>
<path fill="none" stroke="midnightblue" d="M519.49,-428.39C482.99,-393.18 417.14,-329.65 388.7,-302.21"/>
<polygon fill="midnightblue" stroke="midnightblue" points="517.18,-431.03 526.81,-435.45 522.04,-425.99 517.18,-431.03"/>
</g>
</g>
</svg>
