<?xml version="1.0" encoding="UTF-8" standalone="no"?>
<!DOCTYPE svg PUBLIC "-//W3C//DTD SVG 1.1//EN"
 "http://www.w3.org/Graphics/SVG/1.1/DTD/svg11.dtd">
<!-- Generated by graphviz version 2.43.0 (0)
 -->
<!-- Title: flow::net_flow::Node::sock_log_detail Pages: 1 -->
<svg width="1253pt" height="517pt"
 viewBox="0.00 0.00 1253.00 516.59" xmlns="http://www.w3.org/2000/svg" xmlns:xlink="http://www.w3.org/1999/xlink">
<g id="graph0" class="graph" transform="scale(1 1) rotate(0) translate(4 512.59)">
<title>flow::net_flow::Node::sock_log_detail</title>
<polygon fill="white" stroke="transparent" points="-4,4 -4,-512.59 1249,-512.59 1249,4 -4,4"/>
<!-- Node1 -->
<g id="node1" class="node">
<title>Node1</title>
<g id="a_node1"><a xlink:title="Logs a verbose state report for the given socket.">
<polygon fill="#bfbfbf" stroke="black" points="1144,-140.34 1144,-166.34 1245,-166.34 1245,-140.34 1144,-140.34"/>
<text text-anchor="start" x="1152" y="-155.94" font-family="Helvetica,sans-Serif" font-size="8.00">flow::net_flow::Node</text>
<text text-anchor="middle" x="1194.5" y="-146.94" font-family="Helvetica,sans-Serif" font-size="8.00">::sock_log_detail</text>
</a>
</g>
</g>
<!-- Node2 -->
<g id="node2" class="node">
<title>Node2</title>
<g id="a_node2"><a xlink:href="classflow_1_1net__flow_1_1Node.html#ade49e7bc7202a0adf33fec2d93d1b177" target="_top" xlink:title="A thread W method that handles the transition of the given socket from OPEN (any sub&#45;state) to CLOSED...">
<polygon fill="white" stroke="black" points="954,-183.34 954,-209.34 1102,-209.34 1102,-183.34 954,-183.34"/>
<text text-anchor="start" x="962" y="-198.94" font-family="Helvetica,sans-Serif" font-size="8.00">flow::net_flow::Node</text>
<text text-anchor="middle" x="1028" y="-189.94" font-family="Helvetica,sans-Serif" font-size="8.00">::close_connection_immediately</text>
</a>
</g>
</g>
<!-- Node1&#45;&gt;Node2 -->
<g id="edge1" class="edge">
<title>Node1&#45;&gt;Node2</title>
<path fill="none" stroke="midnightblue" d="M1133.87,-168.93C1115.84,-173.64 1096.24,-178.77 1078.92,-183.3"/>
<polygon fill="midnightblue" stroke="midnightblue" points="1134.91,-172.28 1143.7,-166.36 1133.14,-165.51 1134.91,-172.28"/>
</g>
<!-- Node45 -->
<g id="node24" class="node">
<title>Node45</title>
<g id="a_node24"><a xlink:href="classflow_1_1net__flow_1_1Node.html#aee8466d9c810da5edea443d665b24dcb" target="_top" xlink:title="Performs low&#45;priority tasks that should be run on an infrequent, regular basis, such as stat logging ...">
<polygon fill="white" stroke="black" points="948,-109.34 948,-135.34 1108,-135.34 1108,-109.34 948,-109.34"/>
<text text-anchor="start" x="956" y="-124.94" font-family="Helvetica,sans-Serif" font-size="8.00">flow::net_flow::Node</text>
<text text-anchor="middle" x="1028" y="-115.94" font-family="Helvetica,sans-Serif" font-size="8.00">::perform_regular_infrequent_tasks</text>
</a>
</g>
</g>
<!-- Node1&#45;&gt;Node45 -->
<g id="edge31" class="edge">
<title>Node1&#45;&gt;Node45</title>
<path fill="none" stroke="midnightblue" d="M1133.71,-142.08C1122.13,-139.89 1109.91,-137.59 1098.06,-135.36"/>
<polygon fill="midnightblue" stroke="midnightblue" points="1133.22,-145.55 1143.7,-143.96 1134.52,-138.67 1133.22,-145.55"/>
</g>
<!-- Node3 -->
<g id="node3" class="node">
<title>Node3</title>
<g id="a_node3"><a xlink:href="classflow_1_1net__flow_1_1Node.html#aa5f7c019665d9dd91af0ad6431f8f97d" target="_top" xlink:title="Similar to async_sock_low_lvl_packet_send_paced() except it also calls close_connection_immediately(s...">
<polygon fill="white" stroke="black" points="793,-186.34 793,-230.34 903,-230.34 903,-186.34 793,-186.34"/>
<text text-anchor="start" x="801" y="-219.94" font-family="Helvetica,sans-Serif" font-size="8.00">flow::net_flow::Node</text>
<text text-anchor="start" x="801" y="-210.94" font-family="Helvetica,sans-Serif" font-size="8.00">::async_sock_low_lvl</text>
<text text-anchor="start" x="801" y="-201.94" font-family="Helvetica,sans-Serif" font-size="8.00">_packet_send_or_close</text>
<text text-anchor="middle" x="848" y="-192.94" font-family="Helvetica,sans-Serif" font-size="8.00">_immediately</text>
</a>
</g>
</g>
<!-- Node2&#45;&gt;Node3 -->
<g id="edge2" class="edge">
<title>Node2&#45;&gt;Node3</title>
<path fill="none" stroke="midnightblue" d="M943.81,-201.95C929.99,-202.88 915.97,-203.83 903.11,-204.7"/>
<polygon fill="midnightblue" stroke="midnightblue" points="944.09,-205.44 953.83,-201.28 943.62,-198.46 944.09,-205.44"/>
</g>
<!-- Node27 -->
<g id="node12" class="node">
<title>Node27</title>
<g id="a_node12"><a xlink:href="classflow_1_1net__flow_1_1Node.html#a1699dfdaf3e5ebe1b1d715a9c306d116" target="_top" xlink:title="Handles a just&#45;received, not&#45;yet&#45;deserialized low&#45;level packet.">
<polygon fill="white" stroke="black" points="298,-408.34 298,-434.34 399,-434.34 399,-408.34 298,-408.34"/>
<text text-anchor="start" x="306" y="-423.94" font-family="Helvetica,sans-Serif" font-size="8.00">flow::net_flow::Node</text>
<text text-anchor="middle" x="348.5" y="-414.94" font-family="Helvetica,sans-Serif" font-size="8.00">::handle_incoming</text>
</a>
</g>
</g>
<!-- Node2&#45;&gt;Node27 -->
<g id="edge12" class="edge">
<title>Node2&#45;&gt;Node27</title>
<path fill="none" stroke="midnightblue" d="M1018.77,-218.94C1003.28,-258.78 966.41,-342.24 912,-394.34 852.56,-451.27 827.91,-460.66 748,-480.34 612.93,-513.61 567.81,-521.72 435,-480.34 406.24,-471.39 378.62,-449.01 362.89,-434.53"/>
<polygon fill="midnightblue" stroke="midnightblue" points="1022.04,-220.16 1022.32,-209.57 1015.5,-217.68 1022.04,-220.16"/>
</g>
<!-- Node33 -->
<g id="node15" class="node">
<title>Node33</title>
<g id="a_node15"><a xlink:href="classflow_1_1net__flow_1_1Node.html#ad608f9bbe76426f4fbf4bf5af908e4e0" target="_top" xlink:title="Placed by receive() onto W during a graceful close, after the Receive buffer had been emptied by the ...">
<polygon fill="white" stroke="black" points="787.5,-131.84 787.5,-166.84 908.5,-166.84 908.5,-131.84 787.5,-131.84"/>
<text text-anchor="start" x="795.5" y="-156.44" font-family="Helvetica,sans-Serif" font-size="8.00">flow::net_flow::Node</text>
<text text-anchor="start" x="795.5" y="-147.44" font-family="Helvetica,sans-Serif" font-size="8.00">::receive_emptied_rcv</text>
<text text-anchor="middle" x="848" y="-138.44" font-family="Helvetica,sans-Serif" font-size="8.00">_buf_while_disconnecting</text>
</a>
</g>
</g>
<!-- Node2&#45;&gt;Node33 -->
<g id="edge17" class="edge">
<title>Node2&#45;&gt;Node33</title>
<path fill="none" stroke="midnightblue" d="M967.71,-180.69C948.74,-175.68 927.75,-170.14 908.75,-165.12"/>
<polygon fill="midnightblue" stroke="midnightblue" points="966.85,-184.08 977.42,-183.25 968.64,-177.32 966.85,-184.08"/>
</g>
<!-- Node34 -->
<g id="node16" class="node">
<title>Node34</title>
<g id="a_node16"><a xlink:href="classflow_1_1net__flow_1_1Node.html#afe70a0c32695e417e7a09e0ba773f151" target="_top" xlink:title="Asynchronously send RST to the other side of the given socket and close_connection_immediately().">
<polygon fill="white" stroke="black" points="784,-349.84 784,-384.84 912,-384.84 912,-349.84 784,-349.84"/>
<text text-anchor="start" x="792" y="-374.44" font-family="Helvetica,sans-Serif" font-size="8.00">flow::net_flow::Node</text>
<text text-anchor="start" x="792" y="-365.44" font-family="Helvetica,sans-Serif" font-size="8.00">::rst_and_close_connection</text>
<text text-anchor="middle" x="848" y="-356.44" font-family="Helvetica,sans-Serif" font-size="8.00">_immediately</text>
</a>
</g>
</g>
<!-- Node2&#45;&gt;Node34 -->
<g id="edge19" class="edge">
<title>Node2&#45;&gt;Node34</title>
<path fill="none" stroke="midnightblue" d="M1005.99,-216.53C970.85,-250.29 900.74,-317.64 867.41,-349.66"/>
<polygon fill="midnightblue" stroke="midnightblue" points="1008.54,-218.93 1013.33,-209.48 1003.69,-213.88 1008.54,-218.93"/>
</g>
<!-- Node32 -->
<g id="node23" class="node">
<title>Node32</title>
<g id="a_node23"><a xlink:href="classflow_1_1net__flow_1_1Node.html#a5b056ed753b832458f44f537acfe86d7" target="_top" xlink:title="Worker thread W (main event loop) body.">
<polygon fill="white" stroke="black" points="797.5,-86.34 797.5,-112.34 898.5,-112.34 898.5,-86.34 797.5,-86.34"/>
<text text-anchor="start" x="805.5" y="-101.94" font-family="Helvetica,sans-Serif" font-size="8.00">flow::net_flow::Node</text>
<text text-anchor="middle" x="848" y="-92.94" font-family="Helvetica,sans-Serif" font-size="8.00">::worker_run</text>
</a>
</g>
</g>
<!-- Node2&#45;&gt;Node32 -->
<g id="edge30" class="edge">
<title>Node2&#45;&gt;Node32</title>
<path fill="none" stroke="midnightblue" d="M978.03,-179.18C967.66,-174.5 957.1,-168.87 948,-162.34 928.56,-148.4 931.82,-135.73 912,-122.34 906.31,-118.5 899.89,-115.21 893.39,-112.41"/>
<polygon fill="midnightblue" stroke="midnightblue" points="976.89,-182.5 987.46,-183.22 979.64,-176.07 976.89,-182.5"/>
</g>
<!-- Node4 -->
<g id="node4" class="node">
<title>Node4</title>
<g id="a_node4"><a xlink:href="classflow_1_1net__flow_1_1Node.html#a81e50276d0b162f6577adc690e0ef9e0" target="_top" xlink:title="Sends a low&#45;level ACK packet, with all accumulated in Peer_socket::m_rcv_pending_acks of sock individ...">
<polygon fill="white" stroke="black" points="613.5,-170.34 613.5,-196.34 732.5,-196.34 732.5,-170.34 613.5,-170.34"/>
<text text-anchor="start" x="621.5" y="-185.94" font-family="Helvetica,sans-Serif" font-size="8.00">flow::net_flow::Node</text>
<text text-anchor="middle" x="673" y="-176.94" font-family="Helvetica,sans-Serif" font-size="8.00">::async_low_lvl_ack_send</text>
</a>
</g>
</g>
<!-- Node3&#45;&gt;Node4 -->
<g id="edge3" class="edge">
<title>Node3&#45;&gt;Node4</title>
<path fill="none" stroke="midnightblue" d="M782.68,-199.05C766.26,-196.68 748.69,-194.14 732.57,-191.81"/>
<polygon fill="midnightblue" stroke="midnightblue" points="782.34,-202.54 792.74,-200.5 783.34,-195.61 782.34,-202.54"/>
</g>
<!-- Node5 -->
<g id="node5" class="node">
<title>Node5</title>
<g id="a_node5"><a xlink:href="classflow_1_1net__flow_1_1Node.html#acaf55766783893827061fd85cab2634f" target="_top" xlink:title="Helper to create, fully fill out, and asynchronously send via async_sock_low_lvl_packet_send_or_close...">
<polygon fill="white" stroke="black" points="598,-115.84 598,-150.84 748,-150.84 748,-115.84 598,-115.84"/>
<text text-anchor="start" x="606" y="-140.44" font-family="Helvetica,sans-Serif" font-size="8.00">flow::net_flow::Node</text>
<text text-anchor="start" x="606" y="-131.44" font-family="Helvetica,sans-Serif" font-size="8.00">::async_low_lvl_syn_ack</text>
<text text-anchor="middle" x="673" y="-122.44" font-family="Helvetica,sans-Serif" font-size="8.00">_ack_send_or_close_immediately</text>
</a>
</g>
</g>
<!-- Node3&#45;&gt;Node5 -->
<g id="edge4" class="edge">
<title>Node3&#45;&gt;Node5</title>
<path fill="none" stroke="midnightblue" d="M794.51,-181.67C779.62,-174.44 763.29,-166.82 748,-160.34 740.44,-157.14 732.37,-153.96 724.42,-150.96"/>
<polygon fill="midnightblue" stroke="midnightblue" points="793.06,-184.85 803.58,-186.11 796.14,-178.57 793.06,-184.85"/>
</g>
<!-- Node6 -->
<g id="node6" class="node">
<title>Node6</title>
<g id="a_node6"><a xlink:href="classflow_1_1net__flow_1_1Node.html#a192d4b95b9f8a5c3d08b1e5486eb6f78" target="_top" xlink:title="receive_wnd_updated() helper that continues rcv_wnd recovery: that is, sends unsolicited ACK with a r...">
<polygon fill="white" stroke="black" points="612,-52.34 612,-78.34 734,-78.34 734,-52.34 612,-52.34"/>
<text text-anchor="start" x="620" y="-67.94" font-family="Helvetica,sans-Serif" font-size="8.00">flow::net_flow::Node</text>
<text text-anchor="middle" x="673" y="-58.94" font-family="Helvetica,sans-Serif" font-size="8.00">::async_rcv_wnd_recovery</text>
</a>
</g>
</g>
<!-- Node3&#45;&gt;Node6 -->
<g id="edge5" class="edge">
<title>Node3&#45;&gt;Node6</title>
<path fill="none" stroke="midnightblue" d="M787.93,-179.98C786.57,-178.8 785.26,-177.59 784,-176.34 759.2,-151.67 772.35,-131.46 748,-106.34 736.55,-94.53 720.95,-85.21 707.03,-78.46"/>
<polygon fill="midnightblue" stroke="midnightblue" points="786.11,-182.99 796.19,-186.26 790.35,-177.42 786.11,-182.99"/>
</g>
<!-- Node16 -->
<g id="node9" class="node">
<title>Node16</title>
<g id="a_node9"><a xlink:href="classflow_1_1net__flow_1_1Node.html#addd654cb6b1ccff34ddccbe5226be8f0" target="_top" xlink:title="Handles the triggering of the retransmit timer wait set up by setup_connection_timers(); it will re&#45;s...">
<polygon fill="white" stroke="black" points="608.5,-215.84 608.5,-250.84 737.5,-250.84 737.5,-215.84 608.5,-215.84"/>
<text text-anchor="start" x="616.5" y="-240.44" font-family="Helvetica,sans-Serif" font-size="8.00">flow::net_flow::Node</text>
<text text-anchor="start" x="616.5" y="-231.44" font-family="Helvetica,sans-Serif" font-size="8.00">::handle_connection_rexmit</text>
<text text-anchor="middle" x="673" y="-222.44" font-family="Helvetica,sans-Serif" font-size="8.00">_timer_event</text>
</a>
</g>
</g>
<!-- Node3&#45;&gt;Node16 -->
<g id="edge9" class="edge">
<title>Node3&#45;&gt;Node16</title>
<path fill="none" stroke="midnightblue" d="M782.73,-217.63C768.04,-219.75 752.43,-222.01 737.76,-224.13"/>
<polygon fill="midnightblue" stroke="midnightblue" points="783.34,-221.08 792.74,-216.19 782.34,-214.15 783.34,-221.08"/>
</g>
<!-- Node17 -->
<g id="node10" class="node">
<title>Node17</title>
<g id="a_node10"><a xlink:href="classflow_1_1net__flow_1_1Node.html#a10a92f11a2c9f218cdd9a55f282e79b1" target="_top" xlink:title="Thread W implemention of send(): synchronously or asynchronously send the contents of sock&#45;&gt;m_snd_buf...">
<polygon fill="white" stroke="black" points="622.5,-270.34 622.5,-296.34 723.5,-296.34 723.5,-270.34 622.5,-270.34"/>
<text text-anchor="start" x="630.5" y="-285.94" font-family="Helvetica,sans-Serif" font-size="8.00">flow::net_flow::Node</text>
<text text-anchor="middle" x="673" y="-276.94" font-family="Helvetica,sans-Serif" font-size="8.00">::send_worker</text>
</a>
</g>
</g>
<!-- Node3&#45;&gt;Node17 -->
<g id="edge10" class="edge">
<title>Node3&#45;&gt;Node17</title>
<path fill="none" stroke="midnightblue" d="M799.57,-235.5C783.5,-244.1 765.24,-253.21 748,-260.34 739.3,-263.95 729.82,-267.3 720.65,-270.27"/>
<polygon fill="midnightblue" stroke="midnightblue" points="801.64,-238.36 808.76,-230.52 798.3,-232.21 801.64,-238.36"/>
</g>
<!-- Node6&#45;&gt;Node6 -->
<g id="edge6" class="edge">
<title>Node6&#45;&gt;Node6</title>
<path fill="none" stroke="midnightblue" d="M704.57,-88.42C701.37,-93.31 690.84,-96.84 673,-96.84 644.45,-96.84 634.64,-87.8 643.56,-78.62"/>
<polygon fill="midnightblue" stroke="midnightblue" points="707.98,-87.64 702.44,-78.62 701.14,-89.13 707.98,-87.64"/>
</g>
<!-- Node7 -->
<g id="node7" class="node">
<title>Node7</title>
<g id="a_node7"><a xlink:href="classflow_1_1net__flow_1_1Node.html#a08cf95363b26c0c676979437e34db357" target="_top" xlink:title="Placed by receive() onto W if it has dequeued data from Receive buffer and given it to the user,...">
<polygon fill="white" stroke="black" points="442.5,-52.34 442.5,-78.34 554.5,-78.34 554.5,-52.34 442.5,-52.34"/>
<text text-anchor="start" x="450.5" y="-67.94" font-family="Helvetica,sans-Serif" font-size="8.00">flow::net_flow::Node</text>
<text text-anchor="middle" x="498.5" y="-58.94" font-family="Helvetica,sans-Serif" font-size="8.00">::receive_wnd_updated</text>
</a>
</g>
</g>
<!-- Node6&#45;&gt;Node7 -->
<g id="edge7" class="edge">
<title>Node6&#45;&gt;Node7</title>
<path fill="none" stroke="midnightblue" d="M601.52,-65.34C585.88,-65.34 569.52,-65.34 554.6,-65.34"/>
<polygon fill="midnightblue" stroke="midnightblue" points="601.67,-68.84 611.67,-65.34 601.67,-61.84 601.67,-68.84"/>
</g>
<!-- Node8 -->
<g id="node8" class="node">
<title>Node8</title>
<g id="a_node8"><a xlink:href="classflow_1_1net__flow_1_1Node.html#addbb96858fd7b3c9ddd7c6fe8078809c" target="_top" xlink:title="Implementation of non&#45;blocking sock&#45;&gt;receive() for socket sock in all cases except when sock&#45;&gt;state()...">
<polygon fill="white" stroke="red" points="298,-31.34 298,-57.34 399,-57.34 399,-31.34 298,-31.34"/>
<text text-anchor="start" x="306" y="-46.94" font-family="Helvetica,sans-Serif" font-size="8.00">flow::net_flow::Node</text>
<text text-anchor="middle" x="348.5" y="-37.94" font-family="Helvetica,sans-Serif" font-size="8.00">::receive</text>
</a>
</g>
</g>
<!-- Node7&#45;&gt;Node8 -->
<g id="edge8" class="edge">
<title>Node7&#45;&gt;Node8</title>
<path fill="none" stroke="midnightblue" d="M432.32,-56.1C421.24,-54.52 409.89,-52.91 399.28,-51.41"/>
<polygon fill="midnightblue" stroke="midnightblue" points="432,-59.59 442.39,-57.52 432.98,-52.65 432,-59.59"/>
</g>
<!-- Node18 -->
<g id="node11" class="node">
<title>Node18</title>
<g id="a_node11"><a xlink:href="classflow_1_1net__flow_1_1Node.html#a2565b7c0bd82cad86eb168b62f8ffd9d" target="_top" xlink:title="Helper placed by send() onto W to invoke send_worker() but ensures that the socket has not entered so...">
<polygon fill="white" stroke="red" points="435,-270.34 435,-296.34 562,-296.34 562,-270.34 435,-270.34"/>
<text text-anchor="start" x="443" y="-285.94" font-family="Helvetica,sans-Serif" font-size="8.00">flow::net_flow::Node</text>
<text text-anchor="middle" x="498.5" y="-276.94" font-family="Helvetica,sans-Serif" font-size="8.00">::send_worker_check_state</text>
</a>
</g>
</g>
<!-- Node17&#45;&gt;Node18 -->
<g id="edge11" class="edge">
<title>Node17&#45;&gt;Node18</title>
<path fill="none" stroke="midnightblue" d="M611.78,-283.34C595.73,-283.34 578.36,-283.34 562.18,-283.34"/>
<polygon fill="midnightblue" stroke="midnightblue" points="612.11,-286.84 622.11,-283.34 612.11,-279.84 612.11,-286.84"/>
</g>
<!-- Node28 -->
<g id="node13" class="node">
<title>Node28</title>
<g id="a_node13"><a xlink:href="classflow_1_1net__flow_1_1Node.html#a4368247d07e930bdd07ab8d2425c6de8" target="_top" xlink:title="Sets up handle_incoming(packet_data, low_lvl_remote_endpoint) to be called asynchronously after a spe...">
<polygon fill="white" stroke="black" points="149,-426.84 149,-461.84 262,-461.84 262,-426.84 149,-426.84"/>
<text text-anchor="start" x="157" y="-451.44" font-family="Helvetica,sans-Serif" font-size="8.00">flow::net_flow::Node</text>
<text text-anchor="start" x="157" y="-442.44" font-family="Helvetica,sans-Serif" font-size="8.00">::async_wait_latency</text>
<text text-anchor="middle" x="205.5" y="-433.44" font-family="Helvetica,sans-Serif" font-size="8.00">_then_handle_incoming</text>
</a>
</g>
</g>
<!-- Node27&#45;&gt;Node28 -->
<g id="edge13" class="edge">
<title>Node27&#45;&gt;Node28</title>
<path fill="none" stroke="midnightblue" d="M287.86,-431.07C279.29,-432.47 270.49,-433.91 262.01,-435.29"/>
<polygon fill="midnightblue" stroke="midnightblue" points="288.48,-434.52 297.79,-429.45 287.36,-427.61 288.48,-434.52"/>
</g>
<!-- Node29 -->
<g id="node14" class="node">
<title>Node29</title>
<g id="a_node14"><a xlink:href="classflow_1_1net__flow_1_1Node.html#a90ecbad1ff3a8d2fe4b3ad1c474f7513" target="_top" xlink:title="Helper for low_lvl_recv_and_handle() that calls handle_incoming() on the not&#45;yet&#45;deserialized low&#45;lev...">
<polygon fill="white" stroke="red" points="0,-403.84 0,-438.84 113,-438.84 113,-403.84 0,-403.84"/>
<text text-anchor="start" x="8" y="-428.44" font-family="Helvetica,sans-Serif" font-size="8.00">flow::net_flow::Node</text>
<text text-anchor="start" x="8" y="-419.44" font-family="Helvetica,sans-Serif" font-size="8.00">::handle_incoming_with</text>
<text text-anchor="middle" x="56.5" y="-410.44" font-family="Helvetica,sans-Serif" font-size="8.00">_simulation</text>
</a>
</g>
</g>
<!-- Node27&#45;&gt;Node29 -->
<g id="edge16" class="edge">
<title>Node27&#45;&gt;Node29</title>
<path fill="none" stroke="midnightblue" d="M287.75,-418.19C279.11,-417.84 270.33,-417.54 262,-417.34 211.79,-416.17 199.21,-416.25 149,-417.34 137.4,-417.6 124.97,-418.03 113.13,-418.52"/>
<polygon fill="midnightblue" stroke="midnightblue" points="287.64,-421.69 297.78,-418.62 287.94,-414.7 287.64,-421.69"/>
</g>
<!-- Node28&#45;&gt;Node29 -->
<g id="edge14" class="edge">
<title>Node28&#45;&gt;Node29</title>
<path fill="none" stroke="midnightblue" d="M138.92,-434.08C130.32,-432.74 121.57,-431.37 113.15,-430.05"/>
<polygon fill="midnightblue" stroke="midnightblue" points="138.5,-437.56 148.93,-435.65 139.59,-430.65 138.5,-437.56"/>
</g>
<!-- Node29&#45;&gt;Node29 -->
<g id="edge15" class="edge">
<title>Node29&#45;&gt;Node29</title>
<path fill="none" stroke="midnightblue" d="M82.27,-449.44C78.65,-454.12 70.06,-457.34 56.5,-457.34 34.24,-457.34 25.37,-448.66 29.89,-439.13"/>
<polygon fill="midnightblue" stroke="midnightblue" points="85.79,-449.37 83.11,-439.13 78.81,-448.81 85.79,-449.37"/>
</g>
<!-- Node33&#45;&gt;Node8 -->
<g id="edge18" class="edge">
<title>Node33&#45;&gt;Node8</title>
<path fill="none" stroke="midnightblue" d="M789.17,-125.92C787.36,-124.48 785.62,-122.95 784,-121.34 756.59,-94.19 780.45,-63.22 748,-42.34 635.12,30.27 464.47,-8.32 388.44,-31.27"/>
<polygon fill="midnightblue" stroke="midnightblue" points="787.37,-128.93 797.58,-131.75 791.35,-123.18 787.37,-128.93"/>
</g>
<!-- Node35 -->
<g id="node17" class="node">
<title>Node35</title>
<g id="a_node17"><a xlink:href="classflow_1_1net__flow_1_1Node.html#a6461124e5bc3e59083e172e26029e632" target="_top" xlink:title="Implementation of non&#45;blocking sock&#45;&gt;close_abruptly() for socket sock in all cases except when sock&#45;&gt;...">
<polygon fill="white" stroke="black" points="622.5,-399.34 622.5,-425.34 723.5,-425.34 723.5,-399.34 622.5,-399.34"/>
<text text-anchor="start" x="630.5" y="-414.94" font-family="Helvetica,sans-Serif" font-size="8.00">flow::net_flow::Node</text>
<text text-anchor="middle" x="673" y="-405.94" font-family="Helvetica,sans-Serif" font-size="8.00">::close_abruptly</text>
</a>
</g>
</g>
<!-- Node34&#45;&gt;Node35 -->
<g id="edge20" class="edge">
<title>Node34&#45;&gt;Node35</title>
<path fill="none" stroke="midnightblue" d="M773.71,-386.41C756.82,-390.8 739.23,-395.38 723.61,-399.44"/>
<polygon fill="midnightblue" stroke="midnightblue" points="774.77,-389.75 783.56,-383.85 773,-382.98 774.77,-389.75"/>
</g>
<!-- Node37 -->
<g id="node19" class="node">
<title>Node37</title>
<g id="a_node19"><a xlink:href="classflow_1_1net__flow_1_1Node.html#a29d02f9e302c7b06288ff1c644fa8d65" target="_top" xlink:title="Handles a just&#45;deserialized, just&#45;demultiplexed low&#45;level SYN_ACK_ACK packet delivered to the given p...">
<polygon fill="white" stroke="black" points="446,-326.84 446,-361.84 551,-361.84 551,-326.84 446,-326.84"/>
<text text-anchor="start" x="454" y="-351.44" font-family="Helvetica,sans-Serif" font-size="8.00">flow::net_flow::Node</text>
<text text-anchor="start" x="454" y="-342.44" font-family="Helvetica,sans-Serif" font-size="8.00">::handle_syn_ack_ack</text>
<text text-anchor="middle" x="498.5" y="-333.44" font-family="Helvetica,sans-Serif" font-size="8.00">_to_syn_rcvd</text>
</a>
</g>
</g>
<!-- Node34&#45;&gt;Node37 -->
<g id="edge23" class="edge">
<title>Node34&#45;&gt;Node37</title>
<path fill="none" stroke="midnightblue" d="M774.17,-348.45C765.4,-346.76 756.53,-345.32 748,-344.34 680.28,-336.58 601.49,-338.4 551.1,-340.93"/>
<polygon fill="midnightblue" stroke="midnightblue" points="773.5,-351.88 784,-350.45 774.9,-345.02 773.5,-351.88"/>
</g>
<!-- Node38 -->
<g id="node20" class="node">
<title>Node38</title>
<g id="a_node20"><a xlink:href="classflow_1_1net__flow_1_1Node.html#ab427ebc124a6233ae48a7562662a6e81" target="_top" xlink:title="Creates a new Drop Timer and saves it to sock&#45;&gt;m_snd_drop_timer.">
<polygon fill="white" stroke="black" points="622.5,-354.34 622.5,-380.34 723.5,-380.34 723.5,-354.34 622.5,-354.34"/>
<text text-anchor="start" x="630.5" y="-369.94" font-family="Helvetica,sans-Serif" font-size="8.00">flow::net_flow::Node</text>
<text text-anchor="middle" x="673" y="-360.94" font-family="Helvetica,sans-Serif" font-size="8.00">::setup_drop_timer</text>
</a>
</g>
</g>
<!-- Node34&#45;&gt;Node38 -->
<g id="edge25" class="edge">
<title>Node34&#45;&gt;Node38</title>
<path fill="none" stroke="midnightblue" d="M773.24,-367.34C756.49,-367.34 739.08,-367.34 723.61,-367.34"/>
<polygon fill="midnightblue" stroke="midnightblue" points="773.56,-370.84 783.56,-367.34 773.56,-363.84 773.56,-370.84"/>
</g>
<!-- Node39 -->
<g id="node21" class="node">
<title>Node39</title>
<g id="a_node21"><a xlink:href="classflow_1_1net__flow_1_1Node.html#a3fd57a0d025a78cbeccfd8a15a983575" target="_top" xlink:title="async_sock_low_lvl_packet_send_paced() pacing helper: If sock_pacing_process_q() ran out of the last ...">
<polygon fill="white" stroke="black" points="604.5,-444.34 604.5,-470.34 741.5,-470.34 741.5,-444.34 604.5,-444.34"/>
<text text-anchor="start" x="612.5" y="-459.94" font-family="Helvetica,sans-Serif" font-size="8.00">flow::net_flow::Node</text>
<text text-anchor="middle" x="673" y="-450.94" font-family="Helvetica,sans-Serif" font-size="8.00">::sock_pacing_time_slice_end</text>
</a>
</g>
</g>
<!-- Node34&#45;&gt;Node39 -->
<g id="edge27" class="edge">
<title>Node34&#45;&gt;Node39</title>
<path fill="none" stroke="midnightblue" d="M817.48,-391.27C798.54,-405.67 772.91,-423.45 748,-435.34 740.98,-438.69 733.35,-441.65 725.74,-444.23"/>
<polygon fill="midnightblue" stroke="midnightblue" points="819.65,-394.02 825.42,-385.13 815.37,-388.48 819.65,-394.02"/>
</g>
<!-- Node36 -->
<g id="node18" class="node">
<title>Node36</title>
<g id="a_node18"><a xlink:href="classflow_1_1net__flow_1_1Peer__socket.html#a9ab710704237f912eb219f9b8d574afc" target="_top" xlink:title="Acts as if fatal error error::Code::S_USER_CLOSED_ABRUPTLY has been discovered on the connection.">
<polygon fill="white" stroke="black" points="442,-381.34 442,-407.34 555,-407.34 555,-381.34 442,-381.34"/>
<text text-anchor="start" x="450" y="-396.94" font-family="Helvetica,sans-Serif" font-size="8.00">flow::net_flow::Peer</text>
<text text-anchor="middle" x="498.5" y="-387.94" font-family="Helvetica,sans-Serif" font-size="8.00">_socket::close_abruptly</text>
</a>
</g>
</g>
<!-- Node35&#45;&gt;Node36 -->
<g id="edge21" class="edge">
<title>Node35&#45;&gt;Node36</title>
<path fill="none" stroke="midnightblue" d="M612.03,-406.09C593.52,-404.16 573.23,-402.04 555.03,-400.14"/>
<polygon fill="midnightblue" stroke="midnightblue" points="611.8,-409.58 622.11,-407.14 612.52,-402.62 611.8,-409.58"/>
</g>
<!-- Node36&#45;&gt;Node36 -->
<g id="edge22" class="edge">
<title>Node36&#45;&gt;Node36</title>
<path fill="none" stroke="midnightblue" d="M525.5,-417.78C522.5,-422.49 513.5,-425.84 498.5,-425.84 473.89,-425.84 465.43,-416.8 473.12,-407.62"/>
<polygon fill="midnightblue" stroke="midnightblue" points="528.91,-416.94 523.88,-407.62 521.99,-418.04 528.91,-416.94"/>
</g>
<!-- Node37&#45;&gt;Node27 -->
<g id="edge24" class="edge">
<title>Node37&#45;&gt;Node27</title>
<path fill="none" stroke="midnightblue" d="M445.71,-366.13C442.06,-367.85 438.46,-369.59 435,-371.34 412.29,-382.84 387.26,-397.75 370.19,-408.29"/>
<polygon fill="midnightblue" stroke="midnightblue" points="447.19,-369.31 454.82,-361.96 444.27,-362.94 447.19,-369.31"/>
</g>
<!-- Node38&#45;&gt;Node37 -->
<g id="edge26" class="edge">
<title>Node38&#45;&gt;Node37</title>
<path fill="none" stroke="midnightblue" d="M611.94,-359.34C592.11,-356.69 570.23,-353.77 551.08,-351.22"/>
<polygon fill="midnightblue" stroke="midnightblue" points="611.73,-362.84 622.11,-360.69 612.66,-355.9 611.73,-362.84"/>
</g>
<!-- Node40 -->
<g id="node22" class="node">
<title>Node40</title>
<g id="a_node22"><a xlink:href="classflow_1_1net__flow_1_1Node.html#aaf0acf9de5f151727a43acce180a5e49" target="_top" xlink:title="async_sock_low_lvl_packet_send_paced() pacing helper: Given that we are currently in the pacing time ...">
<polygon fill="white" stroke="red" points="439.5,-444.34 439.5,-470.34 557.5,-470.34 557.5,-444.34 439.5,-444.34"/>
<text text-anchor="start" x="447.5" y="-459.94" font-family="Helvetica,sans-Serif" font-size="8.00">flow::net_flow::Node</text>
<text text-anchor="middle" x="498.5" y="-450.94" font-family="Helvetica,sans-Serif" font-size="8.00">::sock_pacing_process_q</text>
</a>
</g>
</g>
<!-- Node39&#45;&gt;Node40 -->
<g id="edge28" class="edge">
<title>Node39&#45;&gt;Node40</title>
<path fill="none" stroke="midnightblue" d="M594.12,-450.62C581.9,-450.54 569.45,-450.64 557.77,-450.92"/>
<polygon fill="midnightblue" stroke="midnightblue" points="594.28,-454.12 604.32,-450.74 594.36,-447.12 594.28,-454.12"/>
</g>
<!-- Node40&#45;&gt;Node39 -->
<g id="edge29" class="edge">
<title>Node40&#45;&gt;Node39</title>
<path fill="none" stroke="midnightblue" d="M568.1,-463.97C580.02,-464.14 592.42,-464.14 604.32,-463.95"/>
<polygon fill="midnightblue" stroke="midnightblue" points="567.83,-460.46 557.77,-463.77 567.7,-467.46 567.83,-460.46"/>
</g>
<!-- Node45&#45;&gt;Node32 -->
<g id="edge33" class="edge">
<title>Node45&#45;&gt;Node32</title>
<path fill="none" stroke="midnightblue" d="M937.67,-110.8C924.28,-109.07 910.89,-107.34 898.73,-105.77"/>
<polygon fill="midnightblue" stroke="midnightblue" points="937.52,-114.31 947.89,-112.12 938.42,-107.37 937.52,-114.31"/>
</g>
<!-- Node45&#45;&gt;Node45 -->
<g id="edge32" class="edge">
<title>Node45&#45;&gt;Node45</title>
<path fill="none" stroke="midnightblue" d="M1058.12,-145.42C1055.06,-150.31 1045.02,-153.84 1028,-153.84 1000.77,-153.84 991.4,-144.8 999.91,-135.62"/>
<polygon fill="midnightblue" stroke="midnightblue" points="1061.54,-144.7 1056.09,-135.62 1054.69,-146.12 1061.54,-144.7"/>
</g>
</g>
</svg>
