<?xml version="1.0" encoding="UTF-8" standalone="no"?>
<!DOCTYPE svg PUBLIC "-//W3C//DTD SVG 1.1//EN"
 "http://www.w3.org/Graphics/SVG/1.1/DTD/svg11.dtd">
<!-- Generated by graphviz version 2.43.0 (0)
 -->
<!-- Title: flow::net_flow::Node::interrupt_all_waits_worker Pages: 1 -->
<svg width="252pt" height="44pt"
 viewBox="0.00 0.00 252.00 44.00" xmlns="http://www.w3.org/2000/svg" xmlns:xlink="http://www.w3.org/1999/xlink">
<g id="graph0" class="graph" transform="scale(1 1) rotate(0) translate(4 40)">
<title>flow::net_flow::Node::interrupt_all_waits_worker</title>
<polygon fill="white" stroke="transparent" points="-4,4 -4,-40 248,-40 248,4 -4,4"/>
<!-- Node1 -->
<g id="node1" class="node">
<title>Node1</title>
<g id="a_node1"><a xlink:title="Thread W implementation of interrupt_all_waits().">
<polygon fill="#bfbfbf" stroke="black" points="0,-0.5 0,-35.5 101,-35.5 101,-0.5 0,-0.5"/>
<text text-anchor="start" x="8" y="-25.1" font-family="Helvetica,sans-Serif" font-size="8.00">flow::net_flow::Node</text>
<text text-anchor="start" x="8" y="-16.1" font-family="Helvetica,sans-Serif" font-size="8.00">::interrupt_all_waits</text>
<text text-anchor="middle" x="50.5" y="-7.1" font-family="Helvetica,sans-Serif" font-size="8.00">_worker</text>
</a>
</g>
</g>
<!-- Node2 -->
<g id="node2" class="node">
<title>Node2</title>
<g id="a_node2"><a xlink:href="classflow_1_1net__flow_1_1Event__set.html#a0edced1cb69b2cad299ee32e652ccea7" target="_top" xlink:title="Helper that clears each Sockets set inside an Ev_type_to_socks_map.">
<polygon fill="white" stroke="black" points="137,-0.5 137,-35.5 244,-35.5 244,-0.5 137,-0.5"/>
<text text-anchor="start" x="145" y="-25.1" font-family="Helvetica,sans-Serif" font-size="8.00">flow::net_flow::Event</text>
<text text-anchor="start" x="145" y="-16.1" font-family="Helvetica,sans-Serif" font-size="8.00">_set::clear_ev_type_to</text>
<text text-anchor="middle" x="190.5" y="-7.1" font-family="Helvetica,sans-Serif" font-size="8.00">_socks_map</text>
</a>
</g>
</g>
<!-- Node1&#45;&gt;Node2 -->
<g id="edge1" class="edge">
<title>Node1&#45;&gt;Node2</title>
<path fill="none" stroke="midnightblue" d="M101.32,-18C109.55,-18 118.18,-18 126.69,-18"/>
<polygon fill="midnightblue" stroke="midnightblue" points="126.96,-21.5 136.96,-18 126.96,-14.5 126.96,-21.5"/>
</g>
</g>
</svg>
