<?xml version="1.0" encoding="UTF-8" standalone="no"?>
<!DOCTYPE svg PUBLIC "-//W3C//DTD SVG 1.1//EN"
 "http://www.w3.org/Graphics/SVG/1.1/DTD/svg11.dtd">
<!-- Generated by graphviz version 2.43.0 (0)
 -->
<!-- Title: flow::net_flow::Node::handle_syn_to_listening_server Pages: 1 -->
<svg width="1311pt" height="1034pt"
 viewBox="0.00 0.00 1311.00 1033.50" xmlns="http://www.w3.org/2000/svg" xmlns:xlink="http://www.w3.org/1999/xlink">
<g id="graph0" class="graph" transform="scale(1 1) rotate(0) translate(4 1029.5)">
<title>flow::net_flow::Node::handle_syn_to_listening_server</title>
<polygon fill="white" stroke="transparent" points="-4,4 -4,-1029.5 1307,-1029.5 1307,4 -4,4"/>
<!-- Node1 -->
<g id="node1" class="node">
<title>Node1</title>
<g id="a_node1"><a xlink:title="Handles a just&#45;deserialized, just&#45;demultiplexed low&#45;level SYN packet delivered to the given server so...">
<polygon fill="#bfbfbf" stroke="black" points="0,-370 0,-405 120,-405 120,-370 0,-370"/>
<text text-anchor="start" x="8" y="-394.6" font-family="Helvetica,sans-Serif" font-size="8.00">flow::net_flow::Node</text>
<text text-anchor="start" x="8" y="-385.6" font-family="Helvetica,sans-Serif" font-size="8.00">::handle_syn_to_listening</text>
<text text-anchor="middle" x="60" y="-376.6" font-family="Helvetica,sans-Serif" font-size="8.00">_server</text>
</a>
</g>
</g>
<!-- Node2 -->
<g id="node2" class="node">
<title>Node2</title>
<g id="a_node2"><a xlink:href="classflow_1_1net__flow_1_1Node.html#a74a6a82a1390a76e985593969fb47184" target="_top" xlink:title="Sends an RST to the given UDP endpoint in response to the given incoming low&#45;level packet that came f...">
<polygon fill="white" stroke="black" points="533,-946 533,-981 647,-981 647,-946 533,-946"/>
<text text-anchor="start" x="541" y="-970.6" font-family="Helvetica,sans-Serif" font-size="8.00">flow::net_flow::Node</text>
<text text-anchor="start" x="541" y="-961.6" font-family="Helvetica,sans-Serif" font-size="8.00">::async_no_sock_low_lvl</text>
<text text-anchor="middle" x="590" y="-952.6" font-family="Helvetica,sans-Serif" font-size="8.00">_rst_send</text>
</a>
</g>
</g>
<!-- Node1&#45;&gt;Node2 -->
<g id="edge1" class="edge">
<title>Node1&#45;&gt;Node2</title>
<path fill="none" stroke="midnightblue" d="M62.01,-405.08C66.84,-483.05 90.15,-796.77 156,-864.5 252.73,-963.99 427.41,-972.53 522.66,-968.82"/>
<polygon fill="midnightblue" stroke="midnightblue" points="522.92,-972.31 532.75,-968.37 522.61,-965.32 522.92,-972.31"/>
</g>
<!-- Node7 -->
<g id="node6" class="node">
<title>Node7</title>
<g id="a_node6"><a xlink:href="classflow_1_1log_1_1Log__context.html#af4db395042b065b00398cd59845dcb4d" target="_top" xlink:title="Returns the stored Logger pointer, particularly as many FLOW_LOG_*() macros expect.">
<polygon fill="white" stroke="black" points="1196,-893.5 1196,-919.5 1303,-919.5 1303,-893.5 1196,-893.5"/>
<text text-anchor="start" x="1204" y="-909.1" font-family="Helvetica,sans-Serif" font-size="8.00">flow::log::Log_context</text>
<text text-anchor="middle" x="1249.5" y="-900.1" font-family="Helvetica,sans-Serif" font-size="8.00">::get_logger</text>
</a>
</g>
</g>
<!-- Node1&#45;&gt;Node7 -->
<g id="edge27" class="edge">
<title>Node1&#45;&gt;Node7</title>
<path fill="none" stroke="midnightblue" d="M61.93,-405.08C66.63,-487.61 90.12,-836.13 156,-918.5 232.51,-1014.17 287.5,-1025.5 410,-1025.5 410,-1025.5 410,-1025.5 936,-1025.5 1037.82,-1025.5 1068.04,-1021.2 1160,-977.5 1186.3,-965 1211.73,-943.27 1228.53,-927.13"/>
<polygon fill="midnightblue" stroke="midnightblue" points="1231.38,-929.23 1236.05,-919.72 1226.47,-924.24 1231.38,-929.23"/>
</g>
<!-- Node10 -->
<g id="node9" class="node">
<title>Node10</title>
<g id="a_node9"><a xlink:href="classflow_1_1net__flow_1_1Node.html#af1c4623729d0a061200a386f7a651926" target="_top" xlink:title="Begins the process of asynchronously sending the given low&#45;level packet to the remote Node specified ...">
<polygon fill="white" stroke="black" points="177,-820 177,-855 278,-855 278,-820 177,-820"/>
<text text-anchor="start" x="185" y="-844.6" font-family="Helvetica,sans-Serif" font-size="8.00">flow::net_flow::Node</text>
<text text-anchor="start" x="185" y="-835.6" font-family="Helvetica,sans-Serif" font-size="8.00">::async_sock_low_lvl</text>
<text text-anchor="middle" x="227.5" y="-826.6" font-family="Helvetica,sans-Serif" font-size="8.00">_packet_send_paced</text>
</a>
</g>
</g>
<!-- Node1&#45;&gt;Node10 -->
<g id="edge10" class="edge">
<title>Node1&#45;&gt;Node10</title>
<path fill="none" stroke="midnightblue" d="M65.67,-405.03C78.29,-451.67 114.89,-582.44 156,-687.5 173.24,-731.56 197.42,-780.89 212.51,-810.56"/>
<polygon fill="midnightblue" stroke="midnightblue" points="209.58,-812.52 217.25,-819.83 215.81,-809.33 209.58,-812.52"/>
</g>
<!-- Node16 -->
<g id="node15" class="node">
<title>Node16</title>
<g id="a_node15"><a xlink:href="classflow_1_1util_1_1Shared__ptr__alias__holder.html#a520b351b1463e585e278c8c7241b8fc8" target="_top" xlink:title="Identical to ptr_cast() but adds const&#45;ness (immutability) to the pointed&#45;to type.">
<polygon fill="white" stroke="black" points="159.5,-523.5 159.5,-567.5 295.5,-567.5 295.5,-523.5 159.5,-523.5"/>
<text text-anchor="start" x="167.5" y="-557.1" font-family="Helvetica,sans-Serif" font-size="8.00">flow::util::Shared</text>
<text text-anchor="start" x="167.5" y="-548.1" font-family="Helvetica,sans-Serif" font-size="8.00">_ptr_alias_holder&lt; boost</text>
<text text-anchor="start" x="167.5" y="-539.1" font-family="Helvetica,sans-Serif" font-size="8.00">::shared_ptr&lt; Low_lvl_packet</text>
<text text-anchor="middle" x="227.5" y="-530.1" font-family="Helvetica,sans-Serif" font-size="8.00"> &gt; &gt;::const_ptr_cast</text>
</a>
</g>
</g>
<!-- Node1&#45;&gt;Node16 -->
<g id="edge22" class="edge">
<title>Node1&#45;&gt;Node16</title>
<path fill="none" stroke="midnightblue" d="M70.47,-405.18C85.49,-431.79 117.09,-482.33 156,-513.5 157.97,-515.08 160.04,-516.6 162.17,-518.06"/>
<polygon fill="midnightblue" stroke="midnightblue" points="160.34,-521.05 170.67,-523.41 164.07,-515.12 160.34,-521.05"/>
</g>
<!-- Node17 -->
<g id="node16" class="node">
<title>Node17</title>
<g id="a_node16"><a xlink:href="classflow_1_1net__flow_1_1Congestion__control__selector.html#a52eee18d41c3f9cc7d6c48b766a7919f" target="_top" xlink:title="Factory method that, given an enum identifying the desired strategy, allocates the appropriate Conges...">
<polygon fill="white" stroke="black" points="165,-469 165,-504 290,-504 290,-469 165,-469"/>
<text text-anchor="start" x="173" y="-493.6" font-family="Helvetica,sans-Serif" font-size="8.00">flow::net_flow::Congestion</text>
<text text-anchor="start" x="173" y="-484.6" font-family="Helvetica,sans-Serif" font-size="8.00">_control_selector::create</text>
<text text-anchor="middle" x="227.5" y="-475.6" font-family="Helvetica,sans-Serif" font-size="8.00">_strategy</text>
</a>
</g>
</g>
<!-- Node1&#45;&gt;Node17 -->
<g id="edge23" class="edge">
<title>Node1&#45;&gt;Node17</title>
<path fill="none" stroke="midnightblue" d="M80.6,-405C99.05,-420.81 127.96,-443.92 156,-459.5 159.23,-461.29 162.59,-463.02 166.04,-464.67"/>
<polygon fill="midnightblue" stroke="midnightblue" points="164.72,-467.91 175.27,-468.86 167.61,-461.54 164.72,-467.91"/>
</g>
<!-- Node18 -->
<g id="node17" class="node">
<title>Node18</title>
<g id="a_node17"><a xlink:href="classflow_1_1net__flow_1_1Node.html#a6bcd840049c57150cdaa5c59d22c488b" target="_top" xlink:title="Like create_syn() but for SYN_ACK.">
<polygon fill="white" stroke="black" points="884.5,-602.5 884.5,-628.5 985.5,-628.5 985.5,-602.5 884.5,-602.5"/>
<text text-anchor="start" x="892.5" y="-618.1" font-family="Helvetica,sans-Serif" font-size="8.00">flow::net_flow::Node</text>
<text text-anchor="middle" x="935" y="-609.1" font-family="Helvetica,sans-Serif" font-size="8.00">::create_syn_ack</text>
</a>
</g>
</g>
<!-- Node1&#45;&gt;Node18 -->
<g id="edge24" class="edge">
<title>Node1&#45;&gt;Node18</title>
<path fill="none" stroke="midnightblue" d="M63.83,-405.27C71.09,-444.25 94.34,-536.92 156,-576.5 171.49,-586.44 468.62,-587.61 487,-588.5 625.8,-595.21 788.68,-605.71 874.35,-611.44"/>
<polygon fill="midnightblue" stroke="midnightblue" points="874.2,-614.94 884.41,-612.11 874.67,-607.95 874.2,-614.94"/>
</g>
<!-- Node19 -->
<g id="node18" class="node">
<title>Node19</title>
<g id="a_node18"><a xlink:href="classflow_1_1net__flow_1_1Sequence__number_1_1Generator.html#a06f094532f4be6ab3b69d27ea39b2d4d" target="_top" xlink:title="Returns an initial sequence number (ISN) for use in a new connection.">
<polygon fill="white" stroke="black" points="156,-415 156,-450 299,-450 299,-415 156,-415"/>
<text text-anchor="start" x="164" y="-439.6" font-family="Helvetica,sans-Serif" font-size="8.00">flow::net_flow::Sequence</text>
<text text-anchor="start" x="164" y="-430.6" font-family="Helvetica,sans-Serif" font-size="8.00">_number::Generator::generate</text>
<text text-anchor="middle" x="227.5" y="-421.6" font-family="Helvetica,sans-Serif" font-size="8.00">_init_seq_num</text>
</a>
</g>
</g>
<!-- Node1&#45;&gt;Node19 -->
<g id="edge26" class="edge">
<title>Node1&#45;&gt;Node19</title>
<path fill="none" stroke="midnightblue" d="M120.28,-403.62C130.65,-406.44 141.55,-409.4 152.26,-412.32"/>
<polygon fill="midnightblue" stroke="midnightblue" points="151.46,-415.72 162.03,-414.97 153.3,-408.97 151.46,-415.72"/>
</g>
<!-- Node20 -->
<g id="node19" class="node">
<title>Node20</title>
<g id="a_node19"><a xlink:href="namespaceflow_1_1util.html#a03984e29450abf9cf287c501d6c8f866" target="_top" xlink:title="Returns true if and only if the given key is present at least once in the given associative container...">
<polygon fill="white" stroke="black" points="178,-379 178,-396 277,-396 277,-379 178,-379"/>
<text text-anchor="middle" x="227.5" y="-385.6" font-family="Helvetica,sans-Serif" font-size="8.00">flow::util::key_exists</text>
</a>
</g>
</g>
<!-- Node1&#45;&gt;Node20 -->
<g id="edge28" class="edge">
<title>Node1&#45;&gt;Node20</title>
<path fill="none" stroke="midnightblue" d="M120.28,-387.5C135.66,-387.5 152.21,-387.5 167.56,-387.5"/>
<polygon fill="midnightblue" stroke="midnightblue" points="167.97,-391 177.97,-387.5 167.97,-384 167.97,-391"/>
</g>
<!-- Node21 -->
<g id="node20" class="node">
<title>Node21</title>
<g id="a_node20"><a xlink:href="classflow_1_1util_1_1Shared__ptr__alias__holder.html#a55a247bb8fb2ec94b7cbfdd56be65a81" target="_top" xlink:title="Provides syntactic&#45;sugary way to perform a static_pointer_cast&lt;&gt; from a compatible smart pointer type...">
<polygon fill="white" stroke="black" points="159.5,-315.5 159.5,-359.5 295.5,-359.5 295.5,-315.5 159.5,-315.5"/>
<text text-anchor="start" x="167.5" y="-349.1" font-family="Helvetica,sans-Serif" font-size="8.00">flow::util::Shared</text>
<text text-anchor="start" x="167.5" y="-340.1" font-family="Helvetica,sans-Serif" font-size="8.00">_ptr_alias_holder&lt; boost</text>
<text text-anchor="start" x="167.5" y="-331.1" font-family="Helvetica,sans-Serif" font-size="8.00">::shared_ptr&lt; Low_lvl_packet</text>
<text text-anchor="middle" x="227.5" y="-322.1" font-family="Helvetica,sans-Serif" font-size="8.00"> &gt; &gt;::ptr_cast</text>
</a>
</g>
</g>
<!-- Node1&#45;&gt;Node21 -->
<g id="edge29" class="edge">
<title>Node1&#45;&gt;Node21</title>
<path fill="none" stroke="midnightblue" d="M119.35,-369.87C129.15,-366.91 139.46,-363.8 149.64,-360.72"/>
<polygon fill="midnightblue" stroke="midnightblue" points="150.79,-364.03 159.35,-357.79 148.76,-357.33 150.79,-364.03"/>
</g>
<!-- Node22 -->
<g id="node21" class="node">
<title>Node22</title>
<g id="a_node21"><a xlink:href="classflow_1_1net__flow_1_1Node.html#a0379c897bdb3e4eddeb759547be78261" target="_top" xlink:title="Records a new (just received SYN) peer socket from the given server socket.">
<polygon fill="white" stroke="black" points="172.5,-270.5 172.5,-296.5 282.5,-296.5 282.5,-270.5 172.5,-270.5"/>
<text text-anchor="start" x="180.5" y="-286.1" font-family="Helvetica,sans-Serif" font-size="8.00">flow::net_flow::Node</text>
<text text-anchor="middle" x="227.5" y="-277.1" font-family="Helvetica,sans-Serif" font-size="8.00">::serv_peer_socket_init</text>
</a>
</g>
</g>
<!-- Node1&#45;&gt;Node22 -->
<g id="edge30" class="edge">
<title>Node1&#45;&gt;Node22</title>
<path fill="none" stroke="midnightblue" d="M77.21,-369.73C94.93,-351.28 124.96,-322.75 156,-305.5 159.27,-303.68 162.72,-301.99 166.25,-300.42"/>
<polygon fill="midnightblue" stroke="midnightblue" points="167.82,-303.56 175.76,-296.55 165.18,-297.08 167.82,-303.56"/>
</g>
<!-- Node23 -->
<g id="node22" class="node">
<title>Node23</title>
<g id="a_node22"><a xlink:href="classflow_1_1net__flow_1_1Sequence__number.html#ad70753a4a64f89692a5166cfd9d23261" target="_top" xlink:title="Updates the full set of metadata (used at least for convenient convention&#45;based logging but not actua...">
<polygon fill="white" stroke="black" points="167.5,-225.5 167.5,-251.5 287.5,-251.5 287.5,-225.5 167.5,-225.5"/>
<text text-anchor="start" x="175.5" y="-241.1" font-family="Helvetica,sans-Serif" font-size="8.00">flow::net_flow::Sequence</text>
<text text-anchor="middle" x="227.5" y="-232.1" font-family="Helvetica,sans-Serif" font-size="8.00">_number::set_metadata</text>
</a>
</g>
</g>
<!-- Node1&#45;&gt;Node23 -->
<g id="edge31" class="edge">
<title>Node1&#45;&gt;Node23</title>
<path fill="none" stroke="midnightblue" d="M69.5,-369.95C83.65,-342.56 114.63,-289.75 156,-260.5 158.23,-258.92 160.58,-257.46 163,-256.09"/>
<polygon fill="midnightblue" stroke="midnightblue" points="164.69,-259.17 172.09,-251.59 161.58,-252.89 164.69,-259.17"/>
</g>
<!-- Node24 -->
<g id="node23" class="node">
<title>Node24</title>
<g id="a_node23"><a xlink:href="classflow_1_1net__flow_1_1Node.html#ac1485c07049d4bee70ad4ef2fc07bf12" target="_top" xlink:title="Assuming we&#39;ve just sent SYN or SYN_ACK, sets up an asynchronous scheduled task to fire within some a...">
<polygon fill="white" stroke="black" points="165,-652.5 165,-678.5 290,-678.5 290,-652.5 165,-652.5"/>
<text text-anchor="start" x="173" y="-668.1" font-family="Helvetica,sans-Serif" font-size="8.00">flow::net_flow::Node</text>
<text text-anchor="middle" x="227.5" y="-659.1" font-family="Helvetica,sans-Serif" font-size="8.00">::setup_connection_timers</text>
</a>
</g>
</g>
<!-- Node1&#45;&gt;Node24 -->
<g id="edge32" class="edge">
<title>Node1&#45;&gt;Node24</title>
<path fill="none" stroke="midnightblue" d="M65.28,-405.27C75.57,-445.2 104.7,-543.78 156,-610.5 166.87,-624.63 182.17,-637.15 195.75,-646.67"/>
<polygon fill="midnightblue" stroke="midnightblue" points="194.1,-649.78 204.35,-652.47 198.02,-643.98 194.1,-649.78"/>
</g>
<!-- Node30 -->
<g id="node29" class="node">
<title>Node30</title>
<g id="a_node29"><a xlink:href="classflow_1_1net__flow_1_1Node.html#a6daaa6a5a7d0b7e5a2266dd9db400c01" target="_top" xlink:title="Internal factory used for ALL Peer_socket objects created by this Node (including subclasses).">
<polygon fill="white" stroke="black" points="177,-180.5 177,-206.5 278,-206.5 278,-180.5 177,-180.5"/>
<text text-anchor="start" x="185" y="-196.1" font-family="Helvetica,sans-Serif" font-size="8.00">flow::net_flow::Node</text>
<text text-anchor="middle" x="227.5" y="-187.1" font-family="Helvetica,sans-Serif" font-size="8.00">::sock_create</text>
</a>
</g>
</g>
<!-- Node1&#45;&gt;Node30 -->
<g id="edge39" class="edge">
<title>Node1&#45;&gt;Node30</title>
<path fill="none" stroke="midnightblue" d="M65.91,-369.75C76.46,-334.94 104.59,-257.44 156,-215.5 159.5,-212.64 163.38,-210.15 167.46,-207.99"/>
<polygon fill="midnightblue" stroke="midnightblue" points="169.04,-211.11 176.65,-203.74 166.1,-204.76 169.04,-211.11"/>
</g>
<!-- Node31 -->
<g id="node30" class="node">
<title>Node31</title>
<g id="a_node30"><a xlink:href="classflow_1_1net__flow_1_1Node.html#ac397d3fd163f1456b7bb370a3cff951c" target="_top" xlink:title="Computes and returns the currently correct rcv_wnd value; that is the amount of space free in Receive...">
<polygon fill="white" stroke="black" points="177,-135.5 177,-161.5 278,-161.5 278,-135.5 177,-135.5"/>
<text text-anchor="start" x="185" y="-151.1" font-family="Helvetica,sans-Serif" font-size="8.00">flow::net_flow::Node</text>
<text text-anchor="middle" x="227.5" y="-142.1" font-family="Helvetica,sans-Serif" font-size="8.00">::sock_rcv_wnd</text>
</a>
</g>
</g>
<!-- Node1&#45;&gt;Node31 -->
<g id="edge40" class="edge">
<title>Node1&#45;&gt;Node31</title>
<path fill="none" stroke="midnightblue" d="M63.69,-369.7C70.86,-328.48 94.27,-225.78 156,-170.5 159.57,-167.3 163.61,-164.57 167.89,-162.23"/>
<polygon fill="midnightblue" stroke="midnightblue" points="169.4,-165.39 176.97,-157.97 166.43,-159.05 169.4,-165.39"/>
</g>
<!-- Node32 -->
<g id="node31" class="node">
<title>Node32</title>
<g id="a_node31"><a xlink:href="classflow_1_1net__flow_1_1Node.html#aa1d9656e9e1480021c87530ec6dbebbe" target="_top" xlink:title="Sets internal state of given socket to the given state and logs a TRACE message about it.">
<polygon fill="white" stroke="black" points="177,-90.5 177,-116.5 278,-116.5 278,-90.5 177,-90.5"/>
<text text-anchor="start" x="185" y="-106.1" font-family="Helvetica,sans-Serif" font-size="8.00">flow::net_flow::Node</text>
<text text-anchor="middle" x="227.5" y="-97.1" font-family="Helvetica,sans-Serif" font-size="8.00">::sock_set_int_state</text>
</a>
</g>
</g>
<!-- Node1&#45;&gt;Node32 -->
<g id="edge41" class="edge">
<title>Node1&#45;&gt;Node32</title>
<path fill="none" stroke="midnightblue" d="M62.15,-369.98C66.17,-323.29 83.59,-194.7 156,-125.5 159.38,-122.27 163.22,-119.52 167.33,-117.17"/>
<polygon fill="midnightblue" stroke="midnightblue" points="169.19,-120.15 176.67,-112.64 166.14,-113.86 169.19,-120.15"/>
</g>
<!-- Node33 -->
<g id="node32" class="node">
<title>Node33</title>
<g id="a_node32"><a xlink:href="classflow_1_1net__flow_1_1Node.html#ad502e0a992a79b71af42a9cdc20a4280" target="_top" xlink:title="Sets Peer_socket::m_state and Peer_socket::m_open_sub_state.">
<polygon fill="white" stroke="black" points="177,-45.5 177,-71.5 278,-71.5 278,-45.5 177,-45.5"/>
<text text-anchor="start" x="185" y="-61.1" font-family="Helvetica,sans-Serif" font-size="8.00">flow::net_flow::Node</text>
<text text-anchor="middle" x="227.5" y="-52.1" font-family="Helvetica,sans-Serif" font-size="8.00">::sock_set_state</text>
</a>
</g>
</g>
<!-- Node1&#45;&gt;Node33 -->
<g id="edge42" class="edge">
<title>Node1&#45;&gt;Node33</title>
<path fill="none" stroke="midnightblue" d="M61.08,-369.73C62.28,-317.62 73.05,-163.64 156,-80.5 159.44,-77.05 163.41,-74.14 167.68,-71.69"/>
<polygon fill="midnightblue" stroke="midnightblue" points="169.33,-74.78 176.8,-67.26 166.27,-68.48 169.33,-74.78"/>
</g>
<!-- Node34 -->
<g id="node33" class="node">
<title>Node34</title>
<g id="a_node33"><a xlink:href="classflow_1_1net__flow_1_1Node.html#a99836ffb51eaefa4d2cc21770461cd97" target="_top" xlink:title="Constructs the socket pair (connection ID) for the given socket.">
<polygon fill="white" stroke="black" points="177,-0.5 177,-26.5 278,-26.5 278,-0.5 177,-0.5"/>
<text text-anchor="start" x="185" y="-16.1" font-family="Helvetica,sans-Serif" font-size="8.00">flow::net_flow::Node</text>
<text text-anchor="middle" x="227.5" y="-7.1" font-family="Helvetica,sans-Serif" font-size="8.00">::socket_id</text>
</a>
</g>
</g>
<!-- Node1&#45;&gt;Node34 -->
<g id="edge43" class="edge">
<title>Node1&#45;&gt;Node34</title>
<path fill="none" stroke="midnightblue" d="M60.24,-369.67C58.82,-312.67 62.32,-132.9 156,-35.5 159.43,-31.93 163.43,-28.94 167.75,-26.43"/>
<polygon fill="midnightblue" stroke="midnightblue" points="169.52,-29.46 176.98,-21.93 166.45,-23.17 169.52,-29.46"/>
</g>
<!-- Node3 -->
<g id="node3" class="node">
<title>Node3</title>
<g id="a_node3"><a xlink:href="classflow_1_1net__flow_1_1Node.html#a08a5752bf3848f31abbe753be47c1fcf" target="_top" xlink:title="async_low_lvl_packet_send_impl() wrapper to call when packet is to be sent to the remote side of the ...">
<polygon fill="white" stroke="black" points="704.5,-924 704.5,-959 818.5,-959 818.5,-924 704.5,-924"/>
<text text-anchor="start" x="712.5" y="-948.6" font-family="Helvetica,sans-Serif" font-size="8.00">flow::net_flow::Node</text>
<text text-anchor="start" x="712.5" y="-939.6" font-family="Helvetica,sans-Serif" font-size="8.00">::async_no_sock_low_lvl</text>
<text text-anchor="middle" x="761.5" y="-930.6" font-family="Helvetica,sans-Serif" font-size="8.00">_packet_send</text>
</a>
</g>
</g>
<!-- Node2&#45;&gt;Node3 -->
<g id="edge2" class="edge">
<title>Node2&#45;&gt;Node3</title>
<path fill="none" stroke="midnightblue" d="M647.44,-956.17C662.45,-954.23 678.8,-952.1 694.28,-950.09"/>
<polygon fill="midnightblue" stroke="midnightblue" points="694.84,-953.55 704.31,-948.79 693.94,-946.61 694.84,-953.55"/>
</g>
<!-- Node2&#45;&gt;Node7 -->
<g id="edge9" class="edge">
<title>Node2&#45;&gt;Node7</title>
<path fill="none" stroke="midnightblue" d="M647.18,-971.25C750.75,-983.62 977.82,-1001.72 1160,-952.5 1181.44,-946.71 1203.61,-935.17 1220.4,-925.11"/>
<polygon fill="midnightblue" stroke="midnightblue" points="1222.46,-927.94 1229.13,-919.71 1218.78,-921.99 1222.46,-927.94"/>
</g>
<!-- Node4 -->
<g id="node4" class="node">
<title>Node4</title>
<g id="a_node4"><a xlink:href="classflow_1_1net__flow_1_1Node.html#a9f302fe63e36f72931e1a759b0aaaed4" target="_top" xlink:title="Takes given low&#45;level packet structure, serializes it, and initiates asynchronous send of these data ...">
<polygon fill="white" stroke="black" points="880.5,-870 880.5,-905 989.5,-905 989.5,-870 880.5,-870"/>
<text text-anchor="start" x="888.5" y="-894.6" font-family="Helvetica,sans-Serif" font-size="8.00">flow::net_flow::Node</text>
<text text-anchor="start" x="888.5" y="-885.6" font-family="Helvetica,sans-Serif" font-size="8.00">::async_low_lvl_packet</text>
<text text-anchor="middle" x="935" y="-876.6" font-family="Helvetica,sans-Serif" font-size="8.00">_send_impl</text>
</a>
</g>
</g>
<!-- Node3&#45;&gt;Node4 -->
<g id="edge3" class="edge">
<title>Node3&#45;&gt;Node4</title>
<path fill="none" stroke="midnightblue" d="M818.18,-923.97C834.86,-918.72 853.28,-912.92 870.42,-907.52"/>
<polygon fill="midnightblue" stroke="midnightblue" points="871.86,-910.73 880.35,-904.39 869.76,-904.06 871.86,-910.73"/>
</g>
<!-- Node5 -->
<g id="node5" class="node">
<title>Node5</title>
<g id="a_node5"><a xlink:href="classflow_1_1net__flow_1_1Node.html#a0055a25892990585561e69ceb02214d5" target="_top" xlink:title="Completion handler for async_low_lvl_packet_send_impl(); called when the packet is either successfull...">
<polygon fill="white" stroke="red" points="1048.5,-871.5 1048.5,-897.5 1151.5,-897.5 1151.5,-871.5 1048.5,-871.5"/>
<text text-anchor="start" x="1056.5" y="-887.1" font-family="Helvetica,sans-Serif" font-size="8.00">flow::net_flow::Node</text>
<text text-anchor="middle" x="1100" y="-878.1" font-family="Helvetica,sans-Serif" font-size="8.00">::low_lvl_packet_sent</text>
</a>
</g>
</g>
<!-- Node4&#45;&gt;Node5 -->
<g id="edge4" class="edge">
<title>Node4&#45;&gt;Node5</title>
<path fill="none" stroke="midnightblue" d="M989.82,-886.51C1005.27,-886.23 1022.21,-885.91 1038.05,-885.62"/>
<polygon fill="midnightblue" stroke="midnightblue" points="1038.34,-889.12 1048.27,-885.43 1038.21,-882.12 1038.34,-889.12"/>
</g>
<!-- Node8 -->
<g id="node7" class="node">
<title>Node8</title>
<g id="a_node7"><a xlink:href="classflow_1_1net__flow_1_1Node.html#a2983d0d8a4d4eb5c3402f63f68ef44d8" target="_top" xlink:title="Performs important book&#45;keeping based on the event &quot;DATA packet was sent to destination....">
<polygon fill="white" stroke="red" points="1040.5,-916.5 1040.5,-942.5 1159.5,-942.5 1159.5,-916.5 1040.5,-916.5"/>
<text text-anchor="start" x="1048.5" y="-932.1" font-family="Helvetica,sans-Serif" font-size="8.00">flow::net_flow::Node</text>
<text text-anchor="middle" x="1100" y="-923.1" font-family="Helvetica,sans-Serif" font-size="8.00">::mark_data_packet_sent</text>
</a>
</g>
</g>
<!-- Node4&#45;&gt;Node8 -->
<g id="edge6" class="edge">
<title>Node4&#45;&gt;Node8</title>
<path fill="none" stroke="midnightblue" d="M989.82,-901.37C1005.49,-905.41 1022.7,-909.84 1038.74,-913.97"/>
<polygon fill="midnightblue" stroke="midnightblue" points="1037.99,-917.39 1048.55,-916.5 1039.74,-910.61 1037.99,-917.39"/>
</g>
<!-- Node9 -->
<g id="node8" class="node">
<title>Node9</title>
<g id="a_node8"><a xlink:href="classflow_1_1net__flow_1_1Node.html#a43c42121d48a55a43a48e3a84bd10595" target="_top" xlink:title="Obtain a copy of the value of a given option in a thread&#45;safe manner.">
<polygon fill="white" stroke="black" points="1040,-831 1040,-848 1160,-848 1160,-831 1040,-831"/>
<text text-anchor="middle" x="1100" y="-837.6" font-family="Helvetica,sans-Serif" font-size="8.00">flow::net_flow::Node::opt</text>
</a>
</g>
</g>
<!-- Node4&#45;&gt;Node9 -->
<g id="edge8" class="edge">
<title>Node4&#45;&gt;Node9</title>
<path fill="none" stroke="midnightblue" d="M989.82,-871.65C1012.77,-864.89 1039.05,-857.15 1060.07,-850.96"/>
<polygon fill="midnightblue" stroke="midnightblue" points="1061.33,-854.24 1069.93,-848.06 1059.35,-847.53 1061.33,-854.24"/>
</g>
<!-- Node5&#45;&gt;Node7 -->
<g id="edge5" class="edge">
<title>Node5&#45;&gt;Node7</title>
<path fill="none" stroke="midnightblue" d="M1151.76,-892.07C1162.78,-893.72 1174.57,-895.47 1185.98,-897.17"/>
<polygon fill="midnightblue" stroke="midnightblue" points="1185.48,-900.64 1195.89,-898.65 1186.51,-893.72 1185.48,-900.64"/>
</g>
<!-- Node8&#45;&gt;Node7 -->
<g id="edge7" class="edge">
<title>Node8&#45;&gt;Node7</title>
<path fill="none" stroke="midnightblue" d="M1159.72,-920.34C1168.27,-919.01 1177.09,-917.63 1185.72,-916.29"/>
<polygon fill="midnightblue" stroke="midnightblue" points="1186.37,-919.73 1195.71,-914.73 1185.29,-912.81 1186.37,-919.73"/>
</g>
<!-- Node11 -->
<g id="node10" class="node">
<title>Node11</title>
<g id="a_node10"><a xlink:href="classflow_1_1net__flow_1_1Node.html#a0db2bb587e0407077b11368df075f0ff" target="_top" xlink:title="async_low_lvl_packet_send_impl() wrapper to call when packet is to be sent to the remote side of the ...">
<polygon fill="white" stroke="black" points="711,-870 711,-905 812,-905 812,-870 711,-870"/>
<text text-anchor="start" x="719" y="-894.6" font-family="Helvetica,sans-Serif" font-size="8.00">flow::net_flow::Node</text>
<text text-anchor="start" x="719" y="-885.6" font-family="Helvetica,sans-Serif" font-size="8.00">::async_sock_low_lvl</text>
<text text-anchor="middle" x="761.5" y="-876.6" font-family="Helvetica,sans-Serif" font-size="8.00">_packet_send</text>
</a>
</g>
</g>
<!-- Node10&#45;&gt;Node11 -->
<g id="edge11" class="edge">
<title>Node10&#45;&gt;Node11</title>
<path fill="none" stroke="midnightblue" d="M278.19,-848.64C296.04,-852.42 316.37,-856.44 335,-859.5 418.07,-873.14 439.04,-876.5 523,-882.5 583.36,-886.82 652.55,-887.83 700.62,-887.9"/>
<polygon fill="midnightblue" stroke="midnightblue" points="700.85,-891.4 710.85,-887.91 700.85,-884.4 700.85,-891.4"/>
</g>
<!-- Node12 -->
<g id="node11" class="node">
<title>Node12</title>
<g id="a_node11"><a xlink:href="classflow_1_1net__flow_1_1Node.html#a0556af278dc07a43f109fbd74ac64d5e" target="_top" xlink:title="async_sock_low_lvl_packet_send_paced() pacing helper: Handles a DATA or ACK packet that was just pass...">
<polygon fill="white" stroke="black" points="335,-824.5 335,-850.5 487,-850.5 487,-824.5 335,-824.5"/>
<text text-anchor="start" x="343" y="-840.1" font-family="Helvetica,sans-Serif" font-size="8.00">flow::net_flow::Node</text>
<text text-anchor="middle" x="411" y="-831.1" font-family="Helvetica,sans-Serif" font-size="8.00">::sock_pacing_new_packet_ready</text>
</a>
</g>
</g>
<!-- Node10&#45;&gt;Node12 -->
<g id="edge13" class="edge">
<title>Node10&#45;&gt;Node12</title>
<path fill="none" stroke="midnightblue" d="M278.1,-837.5C292.47,-837.5 308.6,-837.5 324.51,-837.5"/>
<polygon fill="midnightblue" stroke="midnightblue" points="324.92,-841 334.92,-837.5 324.92,-834 324.92,-841"/>
</g>
<!-- Node11&#45;&gt;Node4 -->
<g id="edge12" class="edge">
<title>Node11&#45;&gt;Node4</title>
<path fill="none" stroke="midnightblue" d="M812.1,-887.5C830.22,-887.5 850.96,-887.5 870.14,-887.5"/>
<polygon fill="midnightblue" stroke="midnightblue" points="870.31,-891 880.31,-887.5 870.31,-884 870.31,-891"/>
</g>
<!-- Node12&#45;&gt;Node11 -->
<g id="edge14" class="edge">
<title>Node12&#45;&gt;Node11</title>
<path fill="none" stroke="midnightblue" d="M473.2,-850.52C489.35,-853.71 506.8,-856.94 523,-859.5 583.18,-869 652.4,-876.8 700.52,-881.74"/>
<polygon fill="midnightblue" stroke="midnightblue" points="700.46,-885.25 710.76,-882.78 701.17,-878.29 700.46,-885.25"/>
</g>
<!-- Node13 -->
<g id="node12" class="node">
<title>Node13</title>
<g id="a_node12"><a xlink:href="classflow_1_1net__flow_1_1Node.html#afb88dafa8ec5c1b412de86dfdccd9c8f" target="_top" xlink:title="async_sock_low_lvl_packet_send_paced() pacing helper: Resets the socket&#39;s Send_pacing_data structure ...">
<polygon fill="white" stroke="black" points="866,-824.5 866,-850.5 1004,-850.5 1004,-824.5 866,-824.5"/>
<text text-anchor="start" x="874" y="-840.1" font-family="Helvetica,sans-Serif" font-size="8.00">flow::net_flow::Node</text>
<text text-anchor="middle" x="935" y="-831.1" font-family="Helvetica,sans-Serif" font-size="8.00">::sock_pacing_new_time_slice</text>
</a>
</g>
</g>
<!-- Node12&#45;&gt;Node13 -->
<g id="edge15" class="edge">
<title>Node12&#45;&gt;Node13</title>
<path fill="none" stroke="midnightblue" d="M463.89,-824.46C482.41,-820.42 503.52,-816.5 523,-814.5 658.73,-800.59 694.36,-799.68 830,-814.5 844.86,-816.12 860.71,-819.02 875.44,-822.21"/>
<polygon fill="midnightblue" stroke="midnightblue" points="874.9,-825.68 885.43,-824.46 876.44,-818.85 874.9,-825.68"/>
</g>
<!-- Node14 -->
<g id="node13" class="node">
<title>Node14</title>
<g id="a_node13"><a xlink:href="classflow_1_1net__flow_1_1Node.html#a73cfaa8e5ed7fe845f759a30423a9cbf" target="_top" xlink:title="async_sock_low_lvl_packet_send_paced() pacing helper: Given that we are currently in the pacing time ...">
<polygon fill="white" stroke="black" points="531,-824.5 531,-850.5 649,-850.5 649,-824.5 531,-824.5"/>
<text text-anchor="start" x="539" y="-840.1" font-family="Helvetica,sans-Serif" font-size="8.00">flow::net_flow::Node</text>
<text text-anchor="middle" x="590" y="-831.1" font-family="Helvetica,sans-Serif" font-size="8.00">::sock_pacing_process_q</text>
</a>
</g>
</g>
<!-- Node12&#45;&gt;Node14 -->
<g id="edge17" class="edge">
<title>Node12&#45;&gt;Node14</title>
<path fill="none" stroke="midnightblue" d="M487.06,-837.5C498.13,-837.5 509.49,-837.5 520.41,-837.5"/>
<polygon fill="midnightblue" stroke="midnightblue" points="520.74,-841 530.74,-837.5 520.74,-834 520.74,-841"/>
</g>
<!-- Node13&#45;&gt;Node9 -->
<g id="edge16" class="edge">
<title>Node13&#45;&gt;Node9</title>
<path fill="none" stroke="midnightblue" d="M1004.18,-838.34C1012.62,-838.44 1021.25,-838.55 1029.7,-838.65"/>
<polygon fill="midnightblue" stroke="midnightblue" points="1029.85,-842.15 1039.89,-838.77 1029.94,-835.15 1029.85,-842.15"/>
</g>
<!-- Node14&#45;&gt;Node11 -->
<g id="edge18" class="edge">
<title>Node14&#45;&gt;Node11</title>
<path fill="none" stroke="midnightblue" d="M635.09,-850.51C655.25,-856.45 679.43,-863.59 701.16,-870"/>
<polygon fill="midnightblue" stroke="midnightblue" points="700.37,-873.41 710.95,-872.88 702.35,-866.7 700.37,-873.41"/>
</g>
<!-- Node15 -->
<g id="node14" class="node">
<title>Node15</title>
<g id="a_node14"><a xlink:href="classflow_1_1net__flow_1_1Node.html#a3fd57a0d025a78cbeccfd8a15a983575" target="_top" xlink:title="async_sock_low_lvl_packet_send_paced() pacing helper: If sock_pacing_process_q() ran out of the last ...">
<polygon fill="white" stroke="black" points="693,-824.5 693,-850.5 830,-850.5 830,-824.5 693,-824.5"/>
<text text-anchor="start" x="701" y="-840.1" font-family="Helvetica,sans-Serif" font-size="8.00">flow::net_flow::Node</text>
<text text-anchor="middle" x="761.5" y="-831.1" font-family="Helvetica,sans-Serif" font-size="8.00">::sock_pacing_time_slice_end</text>
</a>
</g>
</g>
<!-- Node14&#45;&gt;Node15 -->
<g id="edge19" class="edge">
<title>Node14&#45;&gt;Node15</title>
<path fill="none" stroke="midnightblue" d="M649.33,-831.05C660.04,-830.8 671.37,-830.71 682.54,-830.77"/>
<polygon fill="midnightblue" stroke="midnightblue" points="682.69,-834.27 692.73,-830.87 682.76,-827.27 682.69,-834.27"/>
</g>
<!-- Node15&#45;&gt;Node13 -->
<g id="edge20" class="edge">
<title>Node15&#45;&gt;Node13</title>
<path fill="none" stroke="midnightblue" d="M830.28,-837.5C838.6,-837.5 847.16,-837.5 855.62,-837.5"/>
<polygon fill="midnightblue" stroke="midnightblue" points="855.87,-841 865.87,-837.5 855.87,-834 855.87,-841"/>
</g>
<!-- Node15&#45;&gt;Node14 -->
<g id="edge21" class="edge">
<title>Node15&#45;&gt;Node14</title>
<path fill="none" stroke="midnightblue" d="M692.73,-844.13C681.84,-844.29 670.56,-844.29 659.65,-844.14"/>
<polygon fill="midnightblue" stroke="midnightblue" points="659.4,-840.64 649.33,-843.95 659.27,-847.63 659.4,-840.64"/>
</g>
<!-- Node18&#45;&gt;Node7 -->
<g id="edge25" class="edge">
<title>Node18&#45;&gt;Node7</title>
<path fill="none" stroke="midnightblue" d="M985.74,-619.91C1035.64,-626.83 1111.81,-644.49 1160,-689.5 1217.42,-743.14 1238.57,-839.35 1245.5,-883.37"/>
<polygon fill="midnightblue" stroke="midnightblue" points="1242.05,-883.99 1246.97,-893.38 1248.98,-882.98 1242.05,-883.99"/>
</g>
<!-- Node24&#45;&gt;Node7 -->
<g id="edge33" class="edge">
<title>Node24&#45;&gt;Node7</title>
<path fill="none" stroke="midnightblue" d="M284.63,-678.55C300.81,-681.92 318.54,-685.23 335,-687.5 702.98,-738.29 839.18,-634.24 1160,-821.5 1188.69,-838.25 1215.26,-866.13 1231.65,-885.36"/>
<polygon fill="midnightblue" stroke="midnightblue" points="1229.15,-887.83 1238.24,-893.27 1234.53,-883.35 1229.15,-887.83"/>
</g>
<!-- Node25 -->
<g id="node24" class="node">
<title>Node25</title>
<g id="a_node24"><a xlink:href="namespaceflow_1_1util.html#a74d4a66fb00055be4e1bd6ee98e04667" target="_top" xlink:title="Schedule the given function to execute in a certain amount of time: A handy wrapper around Timer (asi...">
<polygon fill="white" stroke="black" points="363.5,-736.5 363.5,-762.5 458.5,-762.5 458.5,-736.5 363.5,-736.5"/>
<text text-anchor="start" x="371.5" y="-752.1" font-family="Helvetica,sans-Serif" font-size="8.00">flow::util::schedule</text>
<text text-anchor="middle" x="411" y="-743.1" font-family="Helvetica,sans-Serif" font-size="8.00">_task_from_now</text>
</a>
</g>
</g>
<!-- Node24&#45;&gt;Node25 -->
<g id="edge34" class="edge">
<title>Node24&#45;&gt;Node25</title>
<path fill="none" stroke="midnightblue" d="M251.35,-678.6C272.64,-690.54 305.44,-708.28 335,-721.5 343.85,-725.46 353.45,-729.34 362.73,-732.89"/>
<polygon fill="midnightblue" stroke="midnightblue" points="361.64,-736.22 372.24,-736.46 364.11,-729.67 361.64,-736.22"/>
</g>
<!-- Node28 -->
<g id="node27" class="node">
<title>Node28</title>
<g id="a_node27"><a xlink:href="namespaceflow_1_1util.html#a79a0f182b38898771d669475d3e963a4" target="_top" xlink:title="Returns whether a previously scheduled (by schedule_task_from_now() or similar) task has already fire...">
<polygon fill="white" stroke="black" points="360.5,-652.5 360.5,-678.5 461.5,-678.5 461.5,-652.5 360.5,-652.5"/>
<text text-anchor="start" x="368.5" y="-668.1" font-family="Helvetica,sans-Serif" font-size="8.00">flow::util::scheduled</text>
<text text-anchor="middle" x="411" y="-659.1" font-family="Helvetica,sans-Serif" font-size="8.00">_task_fired</text>
</a>
</g>
</g>
<!-- Node24&#45;&gt;Node28 -->
<g id="edge37" class="edge">
<title>Node24&#45;&gt;Node28</title>
<path fill="none" stroke="midnightblue" d="M290.2,-665.5C309.63,-665.5 331.04,-665.5 350.32,-665.5"/>
<polygon fill="midnightblue" stroke="midnightblue" points="350.49,-669 360.49,-665.5 350.49,-662 350.49,-669"/>
</g>
<!-- Node29 -->
<g id="node28" class="node">
<title>Node29</title>
<g id="a_node28"><a xlink:href="namespaceflow_1_1util.html#a9a0812b36dc401a3b2ac5e60e2a070d0" target="_top" xlink:title="Returns how long remains until a previously scheduled (by schedule_task_from_now() or similar) task f...">
<polygon fill="white" stroke="black" points="359.5,-598 359.5,-633 462.5,-633 462.5,-598 359.5,-598"/>
<text text-anchor="start" x="367.5" y="-622.6" font-family="Helvetica,sans-Serif" font-size="8.00">flow::util::scheduled</text>
<text text-anchor="start" x="367.5" y="-613.6" font-family="Helvetica,sans-Serif" font-size="8.00">_task_fires_from_now</text>
<text text-anchor="middle" x="411" y="-604.6" font-family="Helvetica,sans-Serif" font-size="8.00">_or_canceled</text>
</a>
</g>
</g>
<!-- Node24&#45;&gt;Node29 -->
<g id="edge38" class="edge">
<title>Node24&#45;&gt;Node29</title>
<path fill="none" stroke="midnightblue" d="M275.71,-652.49C298.24,-646.29 325.45,-638.79 349.48,-632.17"/>
<polygon fill="midnightblue" stroke="midnightblue" points="350.49,-635.52 359.2,-629.49 348.63,-628.77 350.49,-635.52"/>
</g>
<!-- Node26 -->
<g id="node25" class="node">
<title>Node26</title>
<g id="a_node25"><a xlink:href="classflow_1_1util_1_1Unique__id__holder.html#a50489177a7731618ca130468c3872748" target="_top" xlink:title="Short&#45;hand for Unique_id_holder().unique_id(); useful when all you want is the unique integer itself.">
<polygon fill="white" stroke="black" points="523,-736.5 523,-762.5 657,-762.5 657,-736.5 523,-736.5"/>
<text text-anchor="start" x="531" y="-752.1" font-family="Helvetica,sans-Serif" font-size="8.00">flow::util::Unique</text>
<text text-anchor="middle" x="590" y="-743.1" font-family="Helvetica,sans-Serif" font-size="8.00">_id_holder::create_unique_id</text>
</a>
</g>
</g>
<!-- Node25&#45;&gt;Node26 -->
<g id="edge35" class="edge">
<title>Node25&#45;&gt;Node26</title>
<path fill="none" stroke="midnightblue" d="M458.5,-749.5C475.1,-749.5 494.25,-749.5 512.69,-749.5"/>
<polygon fill="midnightblue" stroke="midnightblue" points="512.84,-753 522.84,-749.5 512.84,-746 512.84,-753"/>
</g>
<!-- Node27 -->
<g id="node26" class="node">
<title>Node27</title>
<g id="a_node26"><a xlink:href="classflow_1_1util_1_1Unique__id__holder.html#a90705293787069f52372638d5450ef52" target="_top" xlink:title="Thread&#45;safely construct an ID whose value is different from any other object of this class,...">
<polygon fill="white" stroke="black" points="709.5,-732 709.5,-767 813.5,-767 813.5,-732 709.5,-732"/>
<text text-anchor="start" x="717.5" y="-756.6" font-family="Helvetica,sans-Serif" font-size="8.00">flow::util::Unique</text>
<text text-anchor="start" x="717.5" y="-747.6" font-family="Helvetica,sans-Serif" font-size="8.00">_id_holder::Unique_id</text>
<text text-anchor="middle" x="761.5" y="-738.6" font-family="Helvetica,sans-Serif" font-size="8.00">_holder</text>
</a>
</g>
</g>
<!-- Node26&#45;&gt;Node27 -->
<g id="edge36" class="edge">
<title>Node26&#45;&gt;Node27</title>
<path fill="none" stroke="midnightblue" d="M657.02,-749.5C670.87,-749.5 685.42,-749.5 699.1,-749.5"/>
<polygon fill="midnightblue" stroke="midnightblue" points="699.36,-753 709.36,-749.5 699.36,-746 699.36,-753"/>
</g>
</g>
</svg>
