<?xml version="1.0" encoding="UTF-8" standalone="no"?>
<!DOCTYPE svg PUBLIC "-//W3C//DTD SVG 1.1//EN"
 "http://www.w3.org/Graphics/SVG/1.1/DTD/svg11.dtd">
<!-- Generated by graphviz version 2.43.0 (0)
 -->
<!-- Title: flow::perf::Checkpointing_timer Pages: 1 -->
<svg width="1141pt" height="414pt"
 viewBox="0.00 0.00 1141.00 414.00" xmlns="http://www.w3.org/2000/svg" xmlns:xlink="http://www.w3.org/1999/xlink">
<g id="graph0" class="graph" transform="scale(1 1) rotate(0) translate(4 410)">
<title>flow::perf::Checkpointing_timer</title>
<polygon fill="white" stroke="transparent" points="-4,4 -4,-410 1137,-410 1137,4 -4,4"/>
<!-- Node1 -->
<g id="node1" class="node">
<title>Node1</title>
<g id="a_node1"><a xlink:title="The central class in the perf Flow module, this efficiently times the user&#39;s operation,...">
<polygon fill="#bfbfbf" stroke="black" points="1014,-80 1014,-106 1133,-106 1133,-80 1014,-80"/>
<text text-anchor="start" x="1022" y="-95.6" font-family="Helvetica,sans-Serif" font-size="8.00">flow::perf::Checkpointing</text>
<text text-anchor="middle" x="1073.5" y="-86.6" font-family="Helvetica,sans-Serif" font-size="8.00">_timer</text>
</a>
</g>
</g>
<!-- Node2 -->
<g id="node2" class="node">
<title>Node2</title>
<g id="a_node2"><a xlink:href="classflow_1_1log_1_1Log__context.html" target="_top" xlink:title="Convenience class that simply stores a Logger and/or Component passed into a constructor; and returns...">
<polygon fill="white" stroke="black" points="766,-203.5 766,-220.5 873,-220.5 873,-203.5 766,-203.5"/>
<text text-anchor="middle" x="819.5" y="-210.1" font-family="Helvetica,sans-Serif" font-size="8.00">flow::log::Log_context</text>
</a>
</g>
</g>
<!-- Node2&#45;&gt;Node1 -->
<g id="edge1" class="edge">
<title>Node2&#45;&gt;Node1</title>
<path fill="none" stroke="midnightblue" d="M852.79,-199.87C888.44,-186.14 947.25,-162.48 996,-138 1015.42,-128.25 1036.65,-115.59 1051.81,-106.18"/>
<polygon fill="midnightblue" stroke="midnightblue" points="851.46,-196.63 843.37,-203.48 853.96,-203.17 851.46,-196.63"/>
</g>
<!-- Node3 -->
<g id="node3" class="node">
<title>Node3</title>
<g id="a_node3"><a xlink:href="classflow_1_1log_1_1Logger.html" target="_top" xlink:title="Interface that the user should implement, passing the implementing Logger into logging classes (Flow&#39;...">
<polygon fill="white" stroke="black" points="565.5,-306.5 565.5,-323.5 651.5,-323.5 651.5,-306.5 565.5,-306.5"/>
<text text-anchor="middle" x="608.5" y="-313.1" font-family="Helvetica,sans-Serif" font-size="8.00">flow::log::Logger</text>
</a>
</g>
</g>
<!-- Node3&#45;&gt;Node2 -->
<g id="edge2" class="edge">
<title>Node3&#45;&gt;Node2</title>
<path fill="none" stroke="#9a32cd" stroke-dasharray="5,2" d="M636.07,-301.9C679.56,-280.47 764.75,-238.49 801.24,-220.51"/>
<polygon fill="#9a32cd" stroke="#9a32cd" points="634.38,-298.84 626.96,-306.4 637.48,-305.11 634.38,-298.84"/>
<text text-anchor="middle" x="716.5" y="-277.6" font-family="Helvetica,sans-Serif" font-size="8.00"> m_logger</text>
</g>
<!-- Node4 -->
<g id="node4" class="node">
<title>Node4</title>
<g id="a_node4"><a xlink:href="classflow_1_1util_1_1Null__interface.html" target="_top" xlink:title="An empty interface, consisting of nothing but a default virtual destructor, intended as a boiler&#45;plat...">
<polygon fill="white" stroke="black" points="284,-388.5 284,-405.5 398,-405.5 398,-388.5 284,-388.5"/>
<text text-anchor="middle" x="341" y="-395.1" font-family="Helvetica,sans-Serif" font-size="8.00">flow::util::Null_interface</text>
</a>
</g>
</g>
<!-- Node4&#45;&gt;Node3 -->
<g id="edge3" class="edge">
<title>Node4&#45;&gt;Node3</title>
<path fill="none" stroke="midnightblue" d="M398.07,-386.44C436.14,-378.53 487.3,-366.42 531,-351 552.73,-343.33 576.58,-331.53 591.78,-323.55"/>
<polygon fill="midnightblue" stroke="midnightblue" points="397.29,-383.03 388.2,-388.46 398.69,-389.89 397.29,-383.03"/>
</g>
<!-- Node5 -->
<g id="node5" class="node">
<title>Node5</title>
<g id="a_node5"><a xlink:href="classflow_1_1util_1_1Unique__id__holder.html" target="_top" xlink:title="Each object of this class stores (at construction) and returns (on demand) a numeric ID unique from a...">
<polygon fill="white" stroke="black" points="297.5,-343 297.5,-369 384.5,-369 384.5,-343 297.5,-343"/>
<text text-anchor="start" x="305.5" y="-358.6" font-family="Helvetica,sans-Serif" font-size="8.00">flow::util::Unique</text>
<text text-anchor="middle" x="341" y="-349.6" font-family="Helvetica,sans-Serif" font-size="8.00">_id_holder</text>
</a>
</g>
</g>
<!-- Node5&#45;&gt;Node3 -->
<g id="edge4" class="edge">
<title>Node5&#45;&gt;Node3</title>
<path fill="none" stroke="midnightblue" d="M395.16,-348.97C433.08,-343.82 485.25,-336.45 531,-329 542.19,-327.18 554.28,-325.04 565.46,-323"/>
<polygon fill="midnightblue" stroke="midnightblue" points="394.3,-345.56 384.86,-350.36 395.24,-352.49 394.3,-345.56"/>
</g>
<!-- Node6 -->
<g id="node6" class="node">
<title>Node6</title>
<g id="a_node6"><a xlink:title=" ">
<polygon fill="white" stroke="#bfbfbf" points="0,-347.5 0,-364.5 50,-364.5 50,-347.5 0,-347.5"/>
<text text-anchor="middle" x="25" y="-354.1" font-family="Helvetica,sans-Serif" font-size="8.00">uint64_t</text>
</a>
</g>
</g>
<!-- Node6&#45;&gt;Node5 -->
<g id="edge5" class="edge">
<title>Node6&#45;&gt;Node5</title>
<path fill="none" stroke="#9a32cd" stroke-dasharray="5,2" d="M60.61,-359.56C63.11,-359.73 65.59,-359.89 68,-360 74.22,-360.3 75.78,-360.02 82,-360 163.78,-359.78 184.24,-360.88 266,-359 276.15,-358.77 287.09,-358.39 297.36,-357.98"/>
<polygon fill="#9a32cd" stroke="#9a32cd" points="60.65,-356.05 50.4,-358.72 60.08,-363.03 60.65,-356.05"/>
<text text-anchor="middle" x="153.5" y="-362.6" font-family="Helvetica,sans-Serif" font-size="8.00"> m_id</text>
</g>
<!-- Node7 -->
<g id="node7" class="node">
<title>Node7</title>
<g id="a_node7"><a xlink:title=" ">
<polygon fill="white" stroke="black" points="106,-324.5 106,-341.5 201,-341.5 201,-324.5 106,-324.5"/>
<text text-anchor="middle" x="153.5" y="-331.1" font-family="Helvetica,sans-Serif" font-size="8.00">std::atomic&lt; id_t &gt;</text>
</a>
</g>
</g>
<!-- Node6&#45;&gt;Node7 -->
<g id="edge7" class="edge">
<title>Node6&#45;&gt;Node7</title>
<path fill="none" stroke="#9a32cd" stroke-dasharray="5,2" d="M60.3,-349.76C74.36,-347.21 90.84,-344.21 105.95,-341.46"/>
<polygon fill="#9a32cd" stroke="#9a32cd" points="59.3,-346.39 50.09,-351.62 60.56,-353.27 59.3,-346.39"/>
<text text-anchor="middle" x="75" y="-349.6" font-family="Helvetica,sans-Serif" font-size="8.00"> ptr</text>
</g>
<!-- Node7&#45;&gt;Node5 -->
<g id="edge6" class="edge">
<title>Node7&#45;&gt;Node5</title>
<path fill="none" stroke="#9a32cd" stroke-dasharray="5,2" d="M211.27,-340.04C238.99,-343.48 271.78,-347.54 297.33,-350.71"/>
<polygon fill="#9a32cd" stroke="#9a32cd" points="211.66,-336.56 201.31,-338.8 210.8,-343.51 211.66,-336.56"/>
<text text-anchor="middle" x="245.5" y="-348.6" font-family="Helvetica,sans-Serif" font-size="8.00"> s_last_id</text>
</g>
<!-- Node8 -->
<g id="node8" class="node">
<title>Node8</title>
<g id="a_node8"><a xlink:title=" ">
<polygon fill="white" stroke="#bfbfbf" points="291.5,-306.5 291.5,-323.5 390.5,-323.5 390.5,-306.5 291.5,-306.5"/>
<text text-anchor="middle" x="341" y="-313.1" font-family="Helvetica,sans-Serif" font-size="8.00">boost::noncopyable</text>
</a>
</g>
</g>
<!-- Node8&#45;&gt;Node3 -->
<g id="edge8" class="edge">
<title>Node8&#45;&gt;Node3</title>
<path fill="none" stroke="#8b1a1a" d="M401,-315C450.8,-315 520.88,-315 565.24,-315"/>
<polygon fill="#8b1a1a" stroke="#8b1a1a" points="400.7,-311.5 390.7,-315 400.7,-318.5 400.7,-311.5"/>
</g>
<!-- Node9 -->
<g id="node9" class="node">
<title>Node9</title>
<g id="a_node9"><a xlink:title=" ">
<polygon fill="white" stroke="#bfbfbf" points="294,-261 294,-287 388,-287 388,-261 294,-261"/>
<text text-anchor="start" x="302" y="-276.6" font-family="Helvetica,sans-Serif" font-size="8.00">thread_specific_ptr</text>
<text text-anchor="middle" x="341" y="-267.6" font-family="Helvetica,sans-Serif" font-size="8.00">&lt; std::string &gt;</text>
</a>
</g>
</g>
<!-- Node9&#45;&gt;Node3 -->
<g id="edge9" class="edge">
<title>Node9&#45;&gt;Node3</title>
<path fill="none" stroke="#9a32cd" stroke-dasharray="5,2" d="M398.5,-282.05C436.09,-287.48 486.53,-294.93 531,-302 542.18,-303.78 554.25,-305.79 565.44,-307.69"/>
<polygon fill="#9a32cd" stroke="#9a32cd" points="398.65,-278.54 388.26,-280.57 397.66,-285.46 398.65,-278.54"/>
<text text-anchor="middle" x="473.5" y="-304.6" font-family="Helvetica,sans-Serif" font-size="8.00"> s_this_thread_nickname_ptr</text>
</g>
<!-- Node10 -->
<g id="node10" class="node">
<title>Node10</title>
<g id="a_node10"><a xlink:href="classflow_1_1log_1_1Component.html" target="_top" xlink:title="A light&#45;weight class, each object storing a component payload encoding an enum value from enum type o...">
<polygon fill="white" stroke="black" points="556,-203.5 556,-220.5 661,-220.5 661,-203.5 556,-203.5"/>
<text text-anchor="middle" x="608.5" y="-210.1" font-family="Helvetica,sans-Serif" font-size="8.00">flow::log::Component</text>
</a>
</g>
</g>
<!-- Node10&#45;&gt;Node2 -->
<g id="edge10" class="edge">
<title>Node10&#45;&gt;Node2</title>
<path fill="none" stroke="#9a32cd" stroke-dasharray="5,2" d="M671.54,-212C701.59,-212 737.29,-212 765.98,-212"/>
<polygon fill="#9a32cd" stroke="#9a32cd" points="671.16,-208.5 661.16,-212 671.16,-215.5 671.16,-208.5"/>
<text text-anchor="middle" x="716.5" y="-214.6" font-family="Helvetica,sans-Serif" font-size="8.00"> m_component</text>
</g>
<!-- Node11 -->
<g id="node11" class="node">
<title>Node11</title>
<g id="a_node11"><a xlink:title=" ">
<polygon fill="white" stroke="#bfbfbf" points="298.5,-224.5 298.5,-241.5 383.5,-241.5 383.5,-224.5 298.5,-224.5"/>
<text text-anchor="middle" x="341" y="-231.1" font-family="Helvetica,sans-Serif" font-size="8.00">type_info const *</text>
</a>
</g>
</g>
<!-- Node11&#45;&gt;Node10 -->
<g id="edge11" class="edge">
<title>Node11&#45;&gt;Node10</title>
<path fill="none" stroke="#9a32cd" stroke-dasharray="5,2" d="M394.01,-228.89C440.84,-225.18 509.27,-219.77 555.96,-216.08"/>
<polygon fill="#9a32cd" stroke="#9a32cd" points="393.47,-225.42 383.78,-229.7 394.02,-232.4 393.47,-225.42"/>
<text text-anchor="middle" x="473.5" y="-228.6" font-family="Helvetica,sans-Serif" font-size="8.00"> m_payload_type_or_null</text>
</g>
<!-- Node12 -->
<g id="node12" class="node">
<title>Node12</title>
<g id="a_node12"><a xlink:title=" ">
<polygon fill="white" stroke="#bfbfbf" points="307,-183.5 307,-200.5 375,-200.5 375,-183.5 307,-183.5"/>
<text text-anchor="middle" x="341" y="-190.1" font-family="Helvetica,sans-Serif" font-size="8.00">unsigned int</text>
</a>
</g>
</g>
<!-- Node12&#45;&gt;Node10 -->
<g id="edge12" class="edge">
<title>Node12&#45;&gt;Node10</title>
<path fill="none" stroke="#9a32cd" stroke-dasharray="5,2" d="M385.58,-189.3C424.01,-187.62 481.45,-186.81 531,-193 547.43,-195.05 565.42,-199.41 579.82,-203.44"/>
<polygon fill="#9a32cd" stroke="#9a32cd" points="385.09,-185.82 375.27,-189.8 385.43,-192.82 385.09,-185.82"/>
<text text-anchor="start" x="427" y="-204.6" font-family="Helvetica,sans-Serif" font-size="8.00"> m_payload_enum_raw</text>
<text text-anchor="middle" x="473.5" y="-195.6" font-family="Helvetica,sans-Serif" font-size="8.00">_value</text>
</g>
<!-- Node13 -->
<g id="node13" class="node">
<title>Node13</title>
<g id="a_node13"><a xlink:title=" ">
<polygon fill="white" stroke="black" points="311.5,-91.5 311.5,-108.5 370.5,-108.5 370.5,-91.5 311.5,-91.5"/>
<text text-anchor="middle" x="341" y="-98.1" font-family="Helvetica,sans-Serif" font-size="8.00">std::string</text>
</a>
</g>
</g>
<!-- Node13&#45;&gt;Node1 -->
<g id="edge13" class="edge">
<title>Node13&#45;&gt;Node1</title>
<path fill="none" stroke="#9a32cd" stroke-dasharray="5,2" d="M380.87,-99.63C501.5,-98.47 870.02,-94.94 1014,-93.56"/>
<polygon fill="#9a32cd" stroke="#9a32cd" points="380.6,-96.13 370.64,-99.73 380.67,-103.13 380.6,-96.13"/>
<text text-anchor="middle" x="716.5" y="-98.6" font-family="Helvetica,sans-Serif" font-size="8.00"> m_name</text>
</g>
<!-- Node20 -->
<g id="node20" class="node">
<title>Node20</title>
<g id="a_node20"><a xlink:href="structflow_1_1perf_1_1Checkpointing__timer_1_1Checkpoint.html" target="_top" xlink:title="The entirety of the information recorded with each Checkpointing_timer::checkpoint() call; it contain...">
<polygon fill="white" stroke="black" points="549,-126 549,-152 668,-152 668,-126 549,-126"/>
<text text-anchor="start" x="557" y="-141.6" font-family="Helvetica,sans-Serif" font-size="8.00">flow::perf::Checkpointing</text>
<text text-anchor="middle" x="608.5" y="-132.6" font-family="Helvetica,sans-Serif" font-size="8.00">_timer::Checkpoint</text>
</a>
</g>
</g>
<!-- Node13&#45;&gt;Node20 -->
<g id="edge21" class="edge">
<title>Node13&#45;&gt;Node20</title>
<path fill="none" stroke="#9a32cd" stroke-dasharray="5,2" d="M380.72,-105.69C424.91,-112.18 497.68,-122.87 548.84,-130.38"/>
<polygon fill="#9a32cd" stroke="#9a32cd" points="381.07,-102.2 370.67,-104.21 380.05,-109.13 381.07,-102.2"/>
<text text-anchor="middle" x="473.5" y="-129.6" font-family="Helvetica,sans-Serif" font-size="8.00"> m_name</text>
</g>
<!-- Node14 -->
<g id="node14" class="node">
<title>Node14</title>
<g id="a_node14"><a xlink:title=" ">
<polygon fill="white" stroke="black" points="108,-87 108,-113 199,-113 199,-87 108,-87"/>
<text text-anchor="start" x="116" y="-102.6" font-family="Helvetica,sans-Serif" font-size="8.00">std::basic_string&lt;</text>
<text text-anchor="middle" x="153.5" y="-93.6" font-family="Helvetica,sans-Serif" font-size="8.00"> Char &gt;</text>
</a>
</g>
</g>
<!-- Node14&#45;&gt;Node13 -->
<g id="edge14" class="edge">
<title>Node14&#45;&gt;Node13</title>
<path fill="none" stroke="midnightblue" d="M209.51,-100C242.96,-100 284.31,-100 311.38,-100"/>
<polygon fill="midnightblue" stroke="midnightblue" points="209.4,-96.5 199.4,-100 209.4,-103.5 209.4,-96.5"/>
</g>
<!-- Node15 -->
<g id="node15" class="node">
<title>Node15</title>
<g id="a_node15"><a xlink:title=" ">
<polygon fill="white" stroke="black" points="773.5,-47.5 773.5,-64.5 865.5,-64.5 865.5,-47.5 773.5,-47.5"/>
<text text-anchor="middle" x="819.5" y="-54.1" font-family="Helvetica,sans-Serif" font-size="8.00">std::bitset&lt; Bits &gt;</text>
</a>
</g>
</g>
<!-- Node15&#45;&gt;Node1 -->
<g id="edge15" class="edge">
<title>Node15&#45;&gt;Node1</title>
<path fill="none" stroke="#9a32cd" stroke-dasharray="5,2" d="M875.98,-57.41C910.71,-59.04 956.25,-62.53 996,-70 1008.81,-72.41 1022.53,-76.15 1034.76,-79.92"/>
<polygon fill="#9a32cd" stroke="#9a32cd" points="875.71,-53.9 865.57,-56.97 875.41,-60.89 875.71,-53.9"/>
<text text-anchor="middle" x="944" y="-72.6" font-family="Helvetica,sans-Serif" font-size="8.00"> m_which_clocks</text>
</g>
<!-- Node16 -->
<g id="node16" class="node">
<title>Node16</title>
<g id="a_node16"><a xlink:href="structflow_1_1perf_1_1Time__pt__set.html" target="_top" xlink:title="Convenience wrapper around an array&lt;Time_pt, N&gt;, which stores a time point for each of the N possible...">
<polygon fill="white" stroke="black" points="765,-9.5 765,-26.5 874,-26.5 874,-9.5 765,-9.5"/>
<text text-anchor="middle" x="819.5" y="-16.1" font-family="Helvetica,sans-Serif" font-size="8.00">flow::perf::Time_pt_set</text>
</a>
</g>
</g>
<!-- Node16&#45;&gt;Node1 -->
<g id="edge16" class="edge">
<title>Node16&#45;&gt;Node1</title>
<path fill="none" stroke="#9a32cd" stroke-dasharray="5,2" d="M884.38,-16.44C918.53,-17.59 960.69,-22.25 996,-36 1021.16,-45.79 1045.29,-66.22 1059.51,-79.78"/>
<polygon fill="#9a32cd" stroke="#9a32cd" points="884.14,-12.93 874.05,-16.19 883.97,-19.93 884.14,-12.93"/>
<text text-anchor="middle" x="944" y="-47.6" font-family="Helvetica,sans-Serif" font-size="8.00"> m_last_checkpoint_when</text>
<text text-anchor="middle" x="944" y="-38.6" font-family="Helvetica,sans-Serif" font-size="8.00">m_start_when</text>
</g>
<!-- Node17 -->
<g id="node17" class="node">
<title>Node17</title>
<g id="a_node17"><a xlink:title=" ">
<polygon fill="white" stroke="black" points="555,-0.5 555,-35.5 662,-35.5 662,-0.5 555,-0.5"/>
<text text-anchor="start" x="563" y="-25.1" font-family="Helvetica,sans-Serif" font-size="8.00">std::array&lt; Time_pt,</text>
<text text-anchor="start" x="563" y="-16.1" font-family="Helvetica,sans-Serif" font-size="8.00"> std::size_t(Clock_type</text>
<text text-anchor="middle" x="608.5" y="-7.1" font-family="Helvetica,sans-Serif" font-size="8.00">::S_END_SENTINEL)&gt;</text>
</a>
</g>
</g>
<!-- Node17&#45;&gt;Node16 -->
<g id="edge17" class="edge">
<title>Node17&#45;&gt;Node16</title>
<path fill="none" stroke="#9a32cd" stroke-dasharray="5,2" d="M672.41,-18C701.83,-18 736.5,-18 764.69,-18"/>
<polygon fill="#9a32cd" stroke="#9a32cd" points="672.24,-14.5 662.24,-18 672.24,-21.5 672.24,-14.5"/>
<text text-anchor="middle" x="716.5" y="-20.6" font-family="Helvetica,sans-Serif" font-size="8.00"> m_values</text>
</g>
<!-- Node18 -->
<g id="node18" class="node">
<title>Node18</title>
<g id="a_node18"><a xlink:title=" ">
<polygon fill="white" stroke="#bfbfbf" points="317,-9.5 317,-26.5 365,-26.5 365,-9.5 317,-9.5"/>
<text text-anchor="middle" x="341" y="-16.1" font-family="Helvetica,sans-Serif" font-size="8.00">Time_pt</text>
</a>
</g>
</g>
<!-- Node18&#45;&gt;Node17 -->
<g id="edge18" class="edge">
<title>Node18&#45;&gt;Node17</title>
<path fill="none" stroke="#9a32cd" stroke-dasharray="5,2" d="M375.23,-18C420.37,-18 501.56,-18 555,-18"/>
<polygon fill="#9a32cd" stroke="#9a32cd" points="375.1,-14.5 365.1,-18 375.1,-21.5 375.1,-14.5"/>
<text text-anchor="middle" x="473.5" y="-20.6" font-family="Helvetica,sans-Serif" font-size="8.00"> elements</text>
</g>
<!-- Node19 -->
<g id="node19" class="node">
<title>Node19</title>
<g id="a_node19"><a xlink:title=" ">
<polygon fill="white" stroke="black" points="768.5,-121.5 768.5,-156.5 870.5,-156.5 870.5,-121.5 768.5,-121.5"/>
<text text-anchor="start" x="776.5" y="-146.1" font-family="Helvetica,sans-Serif" font-size="8.00">std::vector&lt; flow::</text>
<text text-anchor="start" x="776.5" y="-137.1" font-family="Helvetica,sans-Serif" font-size="8.00">perf::Checkpointing</text>
<text text-anchor="middle" x="819.5" y="-128.1" font-family="Helvetica,sans-Serif" font-size="8.00">_timer::Checkpoint &gt;</text>
</a>
</g>
</g>
<!-- Node19&#45;&gt;Node1 -->
<g id="edge19" class="edge">
<title>Node19&#45;&gt;Node1</title>
<path fill="none" stroke="#9a32cd" stroke-dasharray="5,2" d="M881,-127.98C914.83,-121.81 957.76,-113.99 996,-107 1001.71,-105.96 1007.66,-104.87 1013.61,-103.78"/>
<polygon fill="#9a32cd" stroke="#9a32cd" points="880.02,-124.6 870.81,-129.84 881.27,-131.49 880.02,-124.6"/>
<text text-anchor="middle" x="944" y="-127.6" font-family="Helvetica,sans-Serif" font-size="8.00"> m_checkpoints</text>
</g>
<!-- Node20&#45;&gt;Node19 -->
<g id="edge20" class="edge">
<title>Node20&#45;&gt;Node19</title>
<path fill="none" stroke="#9a32cd" stroke-dasharray="5,2" d="M678.46,-139C707.8,-139 741.38,-139 768.31,-139"/>
<polygon fill="#9a32cd" stroke="#9a32cd" points="678.27,-135.5 668.27,-139 678.27,-142.5 678.27,-135.5"/>
<text text-anchor="middle" x="716.5" y="-141.6" font-family="Helvetica,sans-Serif" font-size="8.00"> elements</text>
</g>
<!-- Node21 -->
<g id="node21" class="node">
<title>Node21</title>
<g id="a_node21"><a xlink:href="structflow_1_1perf_1_1Duration__set.html" target="_top" xlink:title="Convenience wrapper around an array&lt;Duration, N&gt;, which stores a duration for each of the N possible ...">
<polygon fill="white" stroke="black" points="284.5,-147.5 284.5,-164.5 397.5,-164.5 397.5,-147.5 284.5,-147.5"/>
<text text-anchor="middle" x="341" y="-154.1" font-family="Helvetica,sans-Serif" font-size="8.00">flow::perf::Duration_set</text>
</a>
</g>
</g>
<!-- Node21&#45;&gt;Node20 -->
<g id="edge22" class="edge">
<title>Node21&#45;&gt;Node20</title>
<path fill="none" stroke="#9a32cd" stroke-dasharray="5,2" d="M407.78,-151.79C450.98,-149.02 506.99,-145.44 548.69,-142.77"/>
<polygon fill="#9a32cd" stroke="#9a32cd" points="407.41,-148.3 397.66,-152.44 407.86,-155.29 407.41,-148.3"/>
<text text-anchor="middle" x="473.5" y="-152.6" font-family="Helvetica,sans-Serif" font-size="8.00"> m_since_last</text>
</g>
<!-- Node22 -->
<g id="node22" class="node">
<title>Node22</title>
<g id="a_node22"><a xlink:title=" ">
<polygon fill="white" stroke="orangered" points="100,-138.5 100,-173.5 207,-173.5 207,-138.5 100,-138.5"/>
<text text-anchor="start" x="108" y="-163.1" font-family="Helvetica,sans-Serif" font-size="8.00">std::array&lt; Duration,</text>
<text text-anchor="start" x="108" y="-154.1" font-family="Helvetica,sans-Serif" font-size="8.00"> std::size_t(Clock_type</text>
<text text-anchor="middle" x="153.5" y="-145.1" font-family="Helvetica,sans-Serif" font-size="8.00">::S_END_SENTINEL)&gt;</text>
</a>
</g>
</g>
<!-- Node22&#45;&gt;Node21 -->
<g id="edge23" class="edge">
<title>Node22&#45;&gt;Node21</title>
<path fill="none" stroke="#9a32cd" stroke-dasharray="5,2" d="M217.27,-156C239,-156 263.18,-156 284.29,-156"/>
<polygon fill="#9a32cd" stroke="#9a32cd" points="217.16,-152.5 207.16,-156 217.16,-159.5 217.16,-152.5"/>
<text text-anchor="middle" x="245.5" y="-158.6" font-family="Helvetica,sans-Serif" font-size="8.00"> m_values</text>
</g>
</g>
</svg>
