<?xml version="1.0" encoding="UTF-8" standalone="no"?>
<!DOCTYPE svg PUBLIC "-//W3C//DTD SVG 1.1//EN"
 "http://www.w3.org/Graphics/SVG/1.1/DTD/svg11.dtd">
<!-- Generated by graphviz version 2.43.0 (0)
 -->
<!-- Title: flow::log::Log_context_mt::get_log_component Pages: 1 -->
<svg width="268pt" height="35pt"
 viewBox="0.00 0.00 268.00 35.00" xmlns="http://www.w3.org/2000/svg" xmlns:xlink="http://www.w3.org/1999/xlink">
<g id="graph0" class="graph" transform="scale(1 1) rotate(0) translate(4 31)">
<title>flow::log::Log_context_mt::get_log_component</title>
<polygon fill="white" stroke="transparent" points="-4,4 -4,-31 264,-31 264,4 -4,4"/>
<!-- Node1 -->
<g id="node1" class="node">
<title>Node1</title>
<g id="a_node1"><a xlink:title="Identical to Log_context API.">
<polygon fill="#bfbfbf" stroke="black" points="0,-0.5 0,-26.5 117,-26.5 117,-0.5 0,-0.5"/>
<text text-anchor="start" x="8" y="-16.1" font-family="Helvetica,sans-Serif" font-size="8.00">flow::log::Log_context</text>
<text text-anchor="middle" x="58.5" y="-7.1" font-family="Helvetica,sans-Serif" font-size="8.00">_mt::get_log_component</text>
</a>
</g>
</g>
<!-- Node2 -->
<g id="node2" class="node">
<title>Node2</title>
<g id="a_node2"><a xlink:href="classflow_1_1log_1_1Log__context.html#a8a5fef42dc2cedf3c0d1a6e83beb2948" target="_top" xlink:title="Returns reference to the stored Component object, particularly as many FLOW_LOG_*() macros expect.">
<polygon fill="white" stroke="black" points="153,-0.5 153,-26.5 260,-26.5 260,-0.5 153,-0.5"/>
<text text-anchor="start" x="161" y="-16.1" font-family="Helvetica,sans-Serif" font-size="8.00">flow::log::Log_context</text>
<text text-anchor="middle" x="206.5" y="-7.1" font-family="Helvetica,sans-Serif" font-size="8.00">::get_log_component</text>
</a>
</g>
</g>
<!-- Node1&#45;&gt;Node2 -->
<g id="edge1" class="edge">
<title>Node1&#45;&gt;Node2</title>
<path fill="none" stroke="midnightblue" d="M117.2,-13.5C125.59,-13.5 134.26,-13.5 142.74,-13.5"/>
<polygon fill="midnightblue" stroke="midnightblue" points="142.96,-17 152.96,-13.5 142.96,-10 142.96,-17"/>
</g>
</g>
</svg>
