<?xml version="1.0" encoding="UTF-8" standalone="no"?>
<!DOCTYPE svg PUBLIC "-//W3C//DTD SVG 1.1//EN"
 "http://www.w3.org/Graphics/SVG/1.1/DTD/svg11.dtd">
<!-- Generated by graphviz version 2.43.0 (0)
 -->
<!-- Title: flow::async::Segregated_thread_task_loop::start Pages: 1 -->
<svg width="746pt" height="300pt"
 viewBox="0.00 0.00 746.00 300.48" xmlns="http://www.w3.org/2000/svg" xmlns:xlink="http://www.w3.org/1999/xlink">
<g id="graph0" class="graph" transform="scale(1 1) rotate(0) translate(4 296.48)">
<title>flow::async::Segregated_thread_task_loop::start</title>
<polygon fill="white" stroke="transparent" points="-4,4 -4,-296.48 742,-296.48 742,4 -4,4"/>
<!-- Node1 -->
<g id="node1" class="node">
<title>Node1</title>
<g id="a_node1"><a xlink:title="Implements superclass API.">
<polygon fill="#bfbfbf" stroke="black" points="0,-134.5 0,-160.5 117,-160.5 117,-134.5 0,-134.5"/>
<text text-anchor="start" x="8" y="-150.1" font-family="Helvetica,sans-Serif" font-size="8.00">flow::async::Segregated</text>
<text text-anchor="middle" x="58.5" y="-141.1" font-family="Helvetica,sans-Serif" font-size="8.00">_thread_task_loop::start</text>
</a>
</g>
</g>
<!-- Node2 -->
<g id="node2" class="node">
<title>Node2</title>
<g id="a_node2"><a xlink:href="classflow_1_1log_1_1Log__context.html#af4db395042b065b00398cd59845dcb4d" target="_top" xlink:title="Returns the stored Logger pointer, particularly as many FLOW_LOG_*() macros expect.">
<polygon fill="white" stroke="black" points="497,-261.5 497,-287.5 604,-287.5 604,-261.5 497,-261.5"/>
<text text-anchor="start" x="505" y="-277.1" font-family="Helvetica,sans-Serif" font-size="8.00">flow::log::Log_context</text>
<text text-anchor="middle" x="550.5" y="-268.1" font-family="Helvetica,sans-Serif" font-size="8.00">::get_logger</text>
</a>
</g>
</g>
<!-- Node1&#45;&gt;Node2 -->
<g id="edge1" class="edge">
<title>Node1&#45;&gt;Node2</title>
<path fill="none" stroke="midnightblue" d="M68.01,-160.83C82.57,-182.44 114.47,-224.8 153,-245.5 259.11,-302.52 404.84,-295.27 486.84,-284.88"/>
<polygon fill="midnightblue" stroke="midnightblue" points="487.55,-288.32 497,-283.54 486.63,-281.38 487.55,-288.32"/>
</g>
<!-- Node3 -->
<g id="node3" class="node">
<title>Node3</title>
<g id="a_node3"><a xlink:href="classflow_1_1async_1_1Segregated__thread__task__loop.html#a28d7c70f0d3147ba48a10afa84ef98c1" target="_top" xlink:title="Implements superclass API.">
<polygon fill="white" stroke="black" points="153,-109.5 153,-135.5 290,-135.5 290,-109.5 153,-109.5"/>
<text text-anchor="start" x="161" y="-125.1" font-family="Helvetica,sans-Serif" font-size="8.00">flow::async::Segregated</text>
<text text-anchor="middle" x="221.5" y="-116.1" font-family="Helvetica,sans-Serif" font-size="8.00">_thread_task_loop::n_threads</text>
</a>
</g>
</g>
<!-- Node1&#45;&gt;Node3 -->
<g id="edge2" class="edge">
<title>Node1&#45;&gt;Node3</title>
<path fill="none" stroke="midnightblue" d="M117.17,-138.55C125.47,-137.26 134.13,-135.91 142.74,-134.57"/>
<polygon fill="midnightblue" stroke="midnightblue" points="143.46,-138 152.8,-133.01 142.39,-131.09 143.46,-138"/>
</g>
<!-- Node4 -->
<g id="node4" class="node">
<title>Node4</title>
<g id="a_node4"><a xlink:href="namespaceflow_1_1async.html#a02afaeea759dfc180890e376db79530e" target="_top" xlink:title="Assuming the same situation as documented for optimal_worker_thread_count_per_pool(),...">
<polygon fill="white" stroke="black" points="164,-64.5 164,-90.5 279,-90.5 279,-64.5 164,-64.5"/>
<text text-anchor="start" x="172" y="-80.1" font-family="Helvetica,sans-Serif" font-size="8.00">flow::async::optimize</text>
<text text-anchor="middle" x="221.5" y="-71.1" font-family="Helvetica,sans-Serif" font-size="8.00">_pinning_in_thread_pool</text>
</a>
</g>
</g>
<!-- Node1&#45;&gt;Node4 -->
<g id="edge3" class="edge">
<title>Node1&#45;&gt;Node4</title>
<path fill="none" stroke="midnightblue" d="M83.29,-134.4C101.94,-124.41 128.71,-110.69 153,-100.5 158.34,-98.26 163.98,-96.07 169.63,-93.99"/>
<polygon fill="midnightblue" stroke="midnightblue" points="170.88,-97.26 179.11,-90.6 168.52,-90.67 170.88,-97.26"/>
</g>
<!-- Node6 -->
<g id="node6" class="node">
<title>Node6</title>
<g id="a_node6"><a xlink:href="namespaceflow_1_1util.html#a685b86585da2fa5186f51854e7ae1561" target="_top" xlink:title="Equivalent to ostream_op_to_string() but returns a new string by value instead of writing to the call...">
<polygon fill="white" stroke="black" points="347.5,-22.5 347.5,-48.5 439.5,-48.5 439.5,-22.5 347.5,-22.5"/>
<text text-anchor="start" x="355.5" y="-38.1" font-family="Helvetica,sans-Serif" font-size="8.00">flow::util::ostream</text>
<text text-anchor="middle" x="393.5" y="-29.1" font-family="Helvetica,sans-Serif" font-size="8.00">_op_string</text>
</a>
</g>
</g>
<!-- Node1&#45;&gt;Node6 -->
<g id="edge10" class="edge">
<title>Node1&#45;&gt;Node6</title>
<path fill="none" stroke="midnightblue" d="M67.97,-134.43C82.48,-113.32 114.31,-72.29 153,-54.5 211.68,-27.52 286.99,-26.23 337.34,-29.42"/>
<polygon fill="midnightblue" stroke="midnightblue" points="337.16,-32.91 347.38,-30.13 337.66,-25.93 337.16,-32.91"/>
</g>
<!-- Node10 -->
<g id="node10" class="node">
<title>Node10</title>
<g id="a_node10"><a xlink:href="classflow_1_1async_1_1Segregated__thread__task__loop.html#a9ae5be313170da86f361f8bf987b40b4" target="_top" xlink:title="Implements superclass API.">
<polygon fill="white" stroke="black" points="163,-209.5 163,-235.5 280,-235.5 280,-209.5 163,-209.5"/>
<text text-anchor="start" x="171" y="-225.1" font-family="Helvetica,sans-Serif" font-size="8.00">flow::async::Segregated</text>
<text text-anchor="middle" x="221.5" y="-216.1" font-family="Helvetica,sans-Serif" font-size="8.00">_thread_task_loop::post</text>
</a>
</g>
</g>
<!-- Node1&#45;&gt;Node10 -->
<g id="edge11" class="edge">
<title>Node1&#45;&gt;Node10</title>
<path fill="none" stroke="midnightblue" d="M80.48,-160.6C99.07,-171.86 127.2,-188.04 153,-199.5 158.02,-201.73 163.33,-203.88 168.67,-205.91"/>
<polygon fill="midnightblue" stroke="midnightblue" points="167.69,-209.27 178.28,-209.42 170.09,-202.7 167.69,-209.27"/>
</g>
<!-- Node14 -->
<g id="node14" class="node">
<title>Node14</title>
<g id="a_node14"><a xlink:href="classflow_1_1async_1_1Segregated__thread__task__loop.html#a5723cb843a014e8b77fa401cb93f241a" target="_top" xlink:title="See superclass API.">
<polygon fill="white" stroke="black" points="163,-155 163,-190 280,-190 280,-155 163,-155"/>
<text text-anchor="start" x="171" y="-179.6" font-family="Helvetica,sans-Serif" font-size="8.00">flow::async::Segregated</text>
<text text-anchor="start" x="171" y="-170.6" font-family="Helvetica,sans-Serif" font-size="8.00">_thread_task_loop::task</text>
<text text-anchor="middle" x="221.5" y="-161.6" font-family="Helvetica,sans-Serif" font-size="8.00">_engine</text>
</a>
</g>
</g>
<!-- Node1&#45;&gt;Node14 -->
<g id="edge16" class="edge">
<title>Node1&#45;&gt;Node14</title>
<path fill="none" stroke="midnightblue" d="M117.17,-156.45C128.8,-158.26 141.13,-160.17 153.06,-162.03"/>
<polygon fill="midnightblue" stroke="midnightblue" points="152.54,-165.49 162.96,-163.57 153.62,-158.57 152.54,-165.49"/>
</g>
<!-- Node5 -->
<g id="node5" class="node">
<title>Node5</title>
<g id="a_node5"><a xlink:href="namespaceflow_1_1async.html#ac2f32e9fc685e2e9013900b100321fff" target="_top" xlink:title="Assuming a planned thread pool will be receiving ~symmetrical load, and its UX&#45;affecting (in particul...">
<polygon fill="white" stroke="black" points="340.5,-68 340.5,-103 446.5,-103 446.5,-68 340.5,-68"/>
<text text-anchor="start" x="348.5" y="-92.6" font-family="Helvetica,sans-Serif" font-size="8.00">flow::async::optimal</text>
<text text-anchor="start" x="348.5" y="-83.6" font-family="Helvetica,sans-Serif" font-size="8.00">_worker_thread_count</text>
<text text-anchor="middle" x="393.5" y="-74.6" font-family="Helvetica,sans-Serif" font-size="8.00">_per_pool</text>
</a>
</g>
</g>
<!-- Node4&#45;&gt;Node5 -->
<g id="edge4" class="edge">
<title>Node4&#45;&gt;Node5</title>
<path fill="none" stroke="midnightblue" d="M279.11,-80.16C295.5,-80.94 313.49,-81.78 330.22,-82.57"/>
<polygon fill="midnightblue" stroke="midnightblue" points="330.29,-86.08 340.44,-83.05 330.62,-79.08 330.29,-86.08"/>
</g>
<!-- Node4&#45;&gt;Node6 -->
<g id="edge5" class="edge">
<title>Node4&#45;&gt;Node6</title>
<path fill="none" stroke="midnightblue" d="M275.36,-64.44C295.12,-59.56 317.6,-54.01 337.54,-49.08"/>
<polygon fill="midnightblue" stroke="midnightblue" points="338.54,-52.44 347.41,-46.64 336.86,-45.64 338.54,-52.44"/>
</g>
<!-- Node7 -->
<g id="node7" class="node">
<title>Node7</title>
<g id="a_node7"><a xlink:href="namespaceflow_1_1util.html#a8afd30c50bcd670d45442df49d1da484" target="_top" xlink:title="Writes to the specified string, as if the given arguments were each passed, via &lt;&lt; in sequence,...">
<polygon fill="white" stroke="black" points="504.5,-22.5 504.5,-48.5 596.5,-48.5 596.5,-22.5 504.5,-22.5"/>
<text text-anchor="start" x="512.5" y="-38.1" font-family="Helvetica,sans-Serif" font-size="8.00">flow::util::ostream</text>
<text text-anchor="middle" x="550.5" y="-29.1" font-family="Helvetica,sans-Serif" font-size="8.00">_op_to_string</text>
</a>
</g>
</g>
<!-- Node6&#45;&gt;Node7 -->
<g id="edge6" class="edge">
<title>Node6&#45;&gt;Node7</title>
<path fill="none" stroke="midnightblue" d="M439.75,-35.5C456.86,-35.5 476.52,-35.5 494.44,-35.5"/>
<polygon fill="midnightblue" stroke="midnightblue" points="494.46,-39 504.46,-35.5 494.46,-32 494.46,-39"/>
</g>
<!-- Node8 -->
<g id="node8" class="node">
<title>Node8</title>
<g id="a_node8"><a xlink:href="namespaceflow_1_1util.html#af92e6183c2071f4166d4b5a91f50d70c" target="_top" xlink:title="&quot;Induction step&quot; version of variadic function template that simply outputs arguments 2+ via &lt;&lt; to the...">
<polygon fill="white" stroke="black" points="640,-45.5 640,-71.5 738,-71.5 738,-45.5 640,-45.5"/>
<text text-anchor="start" x="648" y="-61.1" font-family="Helvetica,sans-Serif" font-size="8.00">flow::util::feed_args</text>
<text text-anchor="middle" x="689" y="-52.1" font-family="Helvetica,sans-Serif" font-size="8.00">_to_ostream</text>
</a>
</g>
</g>
<!-- Node7&#45;&gt;Node8 -->
<g id="edge7" class="edge">
<title>Node7&#45;&gt;Node8</title>
<path fill="none" stroke="midnightblue" d="M596.57,-43.09C607.16,-44.88 618.58,-46.8 629.65,-48.67"/>
<polygon fill="midnightblue" stroke="midnightblue" points="629.25,-52.15 639.69,-50.36 630.41,-45.25 629.25,-52.15"/>
</g>
<!-- Node9 -->
<g id="node9" class="node">
<title>Node9</title>
<g id="a_node9"><a xlink:href="classflow_1_1util_1_1String__ostream.html#a7e64b069ae0e221952068c13fdc0f080" target="_top" xlink:title="Access to stream that will write to owned string.">
<polygon fill="white" stroke="black" points="648,-0.5 648,-26.5 730,-26.5 730,-0.5 648,-0.5"/>
<text text-anchor="start" x="656" y="-16.1" font-family="Helvetica,sans-Serif" font-size="8.00">flow::util::String</text>
<text text-anchor="middle" x="689" y="-7.1" font-family="Helvetica,sans-Serif" font-size="8.00">_ostream::os</text>
</a>
</g>
</g>
<!-- Node7&#45;&gt;Node9 -->
<g id="edge9" class="edge">
<title>Node7&#45;&gt;Node9</title>
<path fill="none" stroke="midnightblue" d="M596.57,-28.24C609.69,-26.12 624.11,-23.8 637.54,-21.63"/>
<polygon fill="midnightblue" stroke="midnightblue" points="638.26,-25.06 647.57,-20.02 637.14,-18.15 638.26,-25.06"/>
</g>
<!-- Node8&#45;&gt;Node8 -->
<g id="edge8" class="edge">
<title>Node8&#45;&gt;Node8</title>
<path fill="none" stroke="midnightblue" d="M665.65,-71.77C658.58,-80.96 666.36,-90 689,-90 702.8,-90 711.08,-86.64 713.84,-81.94"/>
<polygon fill="midnightblue" stroke="midnightblue" points="717.26,-81.16 712.35,-71.77 710.33,-82.17 717.26,-81.16"/>
</g>
<!-- Node11 -->
<g id="node11" class="node">
<title>Node11</title>
<g id="a_node11"><a xlink:href="classflow_1_1async_1_1Segregated__thread__task__loop.html#a4c42c76a9d3f2926bb5545065d69783e" target="_top" xlink:title="Implements superclass API.">
<polygon fill="white" stroke="black" points="335,-186 335,-221 452,-221 452,-186 335,-186"/>
<text text-anchor="start" x="343" y="-210.6" font-family="Helvetica,sans-Serif" font-size="8.00">flow::async::Segregated</text>
<text text-anchor="start" x="343" y="-201.6" font-family="Helvetica,sans-Serif" font-size="8.00">_thread_task_loop::per</text>
<text text-anchor="middle" x="393.5" y="-192.6" font-family="Helvetica,sans-Serif" font-size="8.00">_thread_ops</text>
</a>
</g>
</g>
<!-- Node10&#45;&gt;Node11 -->
<g id="edge12" class="edge">
<title>Node10&#45;&gt;Node11</title>
<path fill="none" stroke="midnightblue" d="M280.05,-216.07C294.38,-214.47 309.86,-212.74 324.63,-211.09"/>
<polygon fill="midnightblue" stroke="midnightblue" points="325.17,-214.55 334.72,-209.96 324.39,-207.59 325.17,-214.55"/>
</g>
<!-- Node12 -->
<g id="node12" class="node">
<title>Node12</title>
<g id="a_node12"><a xlink:href="classflow_1_1async_1_1Segregated__thread__task__loop.html#a68b14a36def5972a6b65f70630fe11ef" target="_top" xlink:title="Helper performing the core post(Task_engine&amp;) (or similar) call on behalf of the various post() overl...">
<polygon fill="white" stroke="black" points="326,-240.5 326,-266.5 461,-266.5 461,-240.5 326,-240.5"/>
<text text-anchor="start" x="334" y="-256.1" font-family="Helvetica,sans-Serif" font-size="8.00">flow::async::Segregated</text>
<text text-anchor="middle" x="393.5" y="-247.1" font-family="Helvetica,sans-Serif" font-size="8.00">_thread_task_loop::post_impl</text>
</a>
</g>
</g>
<!-- Node10&#45;&gt;Node12 -->
<g id="edge13" class="edge">
<title>Node10&#45;&gt;Node12</title>
<path fill="none" stroke="midnightblue" d="M280.05,-233C291.57,-235.09 303.83,-237.33 315.87,-239.53"/>
<polygon fill="midnightblue" stroke="midnightblue" points="315.45,-243.01 325.91,-241.36 316.7,-236.12 315.45,-243.01"/>
</g>
<!-- Node13 -->
<g id="node13" class="node">
<title>Node13</title>
<g id="a_node13"><a xlink:href="classflow_1_1async_1_1Op__list.html#ad0929efa574298c96c13845a6e020d7d" target="_top" xlink:title="Returns a randomly selected index from range [O, size()).">
<polygon fill="white" stroke="black" points="345.5,-140.5 345.5,-166.5 441.5,-166.5 441.5,-140.5 345.5,-140.5"/>
<text text-anchor="start" x="353.5" y="-156.1" font-family="Helvetica,sans-Serif" font-size="8.00">flow::async::Op_list</text>
<text text-anchor="middle" x="393.5" y="-147.1" font-family="Helvetica,sans-Serif" font-size="8.00">::random_idx</text>
</a>
</g>
</g>
<!-- Node10&#45;&gt;Node13 -->
<g id="edge15" class="edge">
<title>Node10&#45;&gt;Node13</title>
<path fill="none" stroke="midnightblue" d="M265.97,-209.41C274.1,-206.48 282.41,-203.15 290,-199.5 307.11,-191.27 308.91,-184.77 326,-176.5 330.62,-174.26 335.52,-172.14 340.48,-170.15"/>
<polygon fill="midnightblue" stroke="midnightblue" points="341.94,-173.34 350.03,-166.51 339.44,-166.8 341.94,-173.34"/>
</g>
<!-- Node12&#45;&gt;Node2 -->
<g id="edge14" class="edge">
<title>Node12&#45;&gt;Node2</title>
<path fill="none" stroke="midnightblue" d="M461.13,-262.53C469.65,-263.68 478.35,-264.86 486.8,-266"/>
<polygon fill="midnightblue" stroke="midnightblue" points="486.58,-269.51 496.96,-267.38 487.52,-262.57 486.58,-269.51"/>
</g>
<!-- Node14&#45;&gt;Node11 -->
<g id="edge17" class="edge">
<title>Node14&#45;&gt;Node11</title>
<path fill="none" stroke="midnightblue" d="M280.05,-183C294.38,-185.61 309.86,-188.43 324.63,-191.12"/>
<polygon fill="midnightblue" stroke="midnightblue" points="324.25,-194.61 334.72,-192.96 325.51,-187.73 324.25,-194.61"/>
</g>
<!-- Node14&#45;&gt;Node13 -->
<g id="edge18" class="edge">
<title>Node14&#45;&gt;Node13</title>
<path fill="none" stroke="midnightblue" d="M280.05,-166.07C297.85,-164.08 317.44,-161.89 335.22,-159.9"/>
<polygon fill="midnightblue" stroke="midnightblue" points="335.9,-163.35 345.45,-158.76 335.12,-156.39 335.9,-163.35"/>
</g>
</g>
</svg>
