<?xml version="1.0" encoding="UTF-8" standalone="no"?>
<!DOCTYPE svg PUBLIC "-//W3C//DTD SVG 1.1//EN"
 "http://www.w3.org/Graphics/SVG/1.1/DTD/svg11.dtd">
<!-- Generated by graphviz version 2.43.0 (0)
 -->
<!-- Title: flow::net_flow::Node::sock_data_to_rcv_buf_unless_overflow Pages: 1 -->
<svg width="296pt" height="234pt"
 viewBox="0.00 0.00 296.00 233.50" xmlns="http://www.w3.org/2000/svg" xmlns:xlink="http://www.w3.org/1999/xlink">
<g id="graph0" class="graph" transform="scale(1 1) rotate(0) translate(4 229.5)">
<title>flow::net_flow::Node::sock_data_to_rcv_buf_unless_overflow</title>
<polygon fill="white" stroke="transparent" points="-4,4 -4,-229.5 292,-229.5 292,4 -4,4"/>
<!-- Node1 -->
<g id="node1" class="node">
<title>Node1</title>
<g id="a_node1"><a xlink:title="Helper for handle_data_to_established() that aims to pass the payload of the given DATA packet to the...">
<polygon fill="#bfbfbf" stroke="black" points="0,-99 0,-134 109,-134 109,-99 0,-99"/>
<text text-anchor="start" x="8" y="-123.6" font-family="Helvetica,sans-Serif" font-size="8.00">flow::net_flow::Node</text>
<text text-anchor="start" x="8" y="-114.6" font-family="Helvetica,sans-Serif" font-size="8.00">::sock_data_to_rcv_buf</text>
<text text-anchor="middle" x="54.5" y="-105.6" font-family="Helvetica,sans-Serif" font-size="8.00">_unless_overflow</text>
</a>
</g>
</g>
<!-- Node2 -->
<g id="node2" class="node">
<title>Node2</title>
<g id="a_node2"><a xlink:href="classflow_1_1net__flow_1_1Peer__socket__receive__stats__accumulator.html#ac2753b3e8e3932593fed431771b1df80" target="_top" xlink:title="Indicates the Receive buffer was enqueued with data from network (so its data_size() increased).">
<polygon fill="white" stroke="black" points="157,-190 157,-225 276,-225 276,-190 157,-190"/>
<text text-anchor="start" x="165" y="-214.6" font-family="Helvetica,sans-Serif" font-size="8.00">flow::net_flow::Peer</text>
<text text-anchor="start" x="165" y="-205.6" font-family="Helvetica,sans-Serif" font-size="8.00">_socket_receive_stats</text>
<text text-anchor="middle" x="216.5" y="-196.6" font-family="Helvetica,sans-Serif" font-size="8.00">_accumulator::buffer_fed</text>
</a>
</g>
</g>
<!-- Node1&#45;&gt;Node2 -->
<g id="edge1" class="edge">
<title>Node1&#45;&gt;Node2</title>
<path fill="none" stroke="midnightblue" d="M76.91,-134.2C94.43,-148.08 120.27,-167.2 145,-180.5 148.31,-182.28 151.77,-184 155.29,-185.65"/>
<polygon fill="midnightblue" stroke="midnightblue" points="154.17,-188.99 164.73,-189.86 157.02,-182.59 154.17,-188.99"/>
</g>
<!-- Node3 -->
<g id="node3" class="node">
<title>Node3</title>
<g id="a_node3"><a xlink:href="classflow_1_1net__flow_1_1Peer__socket__receive__stats__accumulator.html#a20f2fe00c0874f075fade075bb82e234" target="_top" xlink:title="Indicates good_data_packet(), and these data are not dropped (so either delivered into Receive buffer...">
<polygon fill="white" stroke="black" points="156,-126.5 156,-170.5 277,-170.5 277,-126.5 156,-126.5"/>
<text text-anchor="start" x="164" y="-160.1" font-family="Helvetica,sans-Serif" font-size="8.00">flow::net_flow::Peer</text>
<text text-anchor="start" x="164" y="-151.1" font-family="Helvetica,sans-Serif" font-size="8.00">_socket_receive_stats</text>
<text text-anchor="start" x="164" y="-142.1" font-family="Helvetica,sans-Serif" font-size="8.00">_accumulator::good_data</text>
<text text-anchor="middle" x="216.5" y="-133.1" font-family="Helvetica,sans-Serif" font-size="8.00">_accepted_packet</text>
</a>
</g>
</g>
<!-- Node1&#45;&gt;Node3 -->
<g id="edge2" class="edge">
<title>Node1&#45;&gt;Node3</title>
<path fill="none" stroke="midnightblue" d="M109.22,-127.24C120.93,-129.59 133.47,-132.09 145.7,-134.54"/>
<polygon fill="midnightblue" stroke="midnightblue" points="145.37,-138.04 155.86,-136.57 146.74,-131.18 145.37,-138.04"/>
</g>
<!-- Node4 -->
<g id="node4" class="node">
<title>Node4</title>
<g id="a_node4"><a xlink:href="classflow_1_1net__flow_1_1Peer__socket__receive__stats__accumulator.html#a5cc77830ee793725a5bbc1e7660fb230" target="_top" xlink:title="Indicates good_data_accepted_packet(), and these data are delivered into Receive buffer (either immed...">
<polygon fill="white" stroke="black" points="156,-63.5 156,-107.5 277,-107.5 277,-63.5 156,-63.5"/>
<text text-anchor="start" x="164" y="-97.1" font-family="Helvetica,sans-Serif" font-size="8.00">flow::net_flow::Peer</text>
<text text-anchor="start" x="164" y="-88.1" font-family="Helvetica,sans-Serif" font-size="8.00">_socket_receive_stats</text>
<text text-anchor="start" x="164" y="-79.1" font-family="Helvetica,sans-Serif" font-size="8.00">_accumulator::good_data</text>
<text text-anchor="middle" x="216.5" y="-70.1" font-family="Helvetica,sans-Serif" font-size="8.00">_delivered_packet</text>
</a>
</g>
</g>
<!-- Node1&#45;&gt;Node4 -->
<g id="edge3" class="edge">
<title>Node1&#45;&gt;Node4</title>
<path fill="none" stroke="midnightblue" d="M109.22,-106.09C120.93,-103.82 133.47,-101.39 145.7,-99.02"/>
<polygon fill="midnightblue" stroke="midnightblue" points="146.71,-102.39 155.86,-97.05 145.38,-95.52 146.71,-102.39"/>
</g>
<!-- Node5 -->
<g id="node5" class="node">
<title>Node5</title>
<g id="a_node5"><a xlink:href="classflow_1_1net__flow_1_1Peer__socket__receive__stats__accumulator.html#aede48ce8c717e5e8f69accc4d8608613" target="_top" xlink:title="Indicates good_data_packet(), but these data are dropped due to insufficient Receive buffer space.">
<polygon fill="white" stroke="black" points="145,-0.5 145,-44.5 288,-44.5 288,-0.5 145,-0.5"/>
<text text-anchor="start" x="153" y="-34.1" font-family="Helvetica,sans-Serif" font-size="8.00">flow::net_flow::Peer</text>
<text text-anchor="start" x="153" y="-25.1" font-family="Helvetica,sans-Serif" font-size="8.00">_socket_receive_stats</text>
<text text-anchor="start" x="153" y="-16.1" font-family="Helvetica,sans-Serif" font-size="8.00">_accumulator::good_data</text>
<text text-anchor="middle" x="216.5" y="-7.1" font-family="Helvetica,sans-Serif" font-size="8.00">_dropped_buf_overflow_packet</text>
</a>
</g>
</g>
<!-- Node1&#45;&gt;Node5 -->
<g id="edge4" class="edge">
<title>Node1&#45;&gt;Node5</title>
<path fill="none" stroke="midnightblue" d="M78.31,-98.99C95.97,-85.87 121.32,-67.93 145,-54.5 148.23,-52.67 151.58,-50.86 155,-49.09"/>
<polygon fill="midnightblue" stroke="midnightblue" points="156.76,-52.12 164.13,-44.51 153.62,-45.86 156.76,-52.12"/>
</g>
</g>
</svg>
