<?xml version="1.0" encoding="UTF-8" standalone="no"?>
<!DOCTYPE svg PUBLIC "-//W3C//DTD SVG 1.1//EN"
 "http://www.w3.org/Graphics/SVG/1.1/DTD/svg11.dtd">
<!-- Generated by graphviz version 2.43.0 (0)
 -->
<!-- Title: flow::log::Async_file_logger::log_flush_and_reopen Pages: 1 -->
<svg width="560pt" height="44pt"
 viewBox="0.00 0.00 560.00 44.00" xmlns="http://www.w3.org/2000/svg" xmlns:xlink="http://www.w3.org/1999/xlink">
<g id="graph0" class="graph" transform="scale(1 1) rotate(0) translate(4 40)">
<title>flow::log::Async_file_logger::log_flush_and_reopen</title>
<polygon fill="white" stroke="transparent" points="-4,4 -4,-40 556,-40 556,4 -4,4"/>
<!-- Node1 -->
<g id="node1" class="node">
<title>Node1</title>
<g id="a_node1"><a xlink:title="Causes the log at the file&#45;system path to be flushed/closed (if needed) and re&#45;opened; this will happ...">
<polygon fill="#bfbfbf" stroke="black" points="0,-0.5 0,-35.5 109,-35.5 109,-0.5 0,-0.5"/>
<text text-anchor="start" x="8" y="-25.1" font-family="Helvetica,sans-Serif" font-size="8.00">flow::log::Async_file</text>
<text text-anchor="start" x="8" y="-16.1" font-family="Helvetica,sans-Serif" font-size="8.00">_logger::log_flush_and</text>
<text text-anchor="middle" x="54.5" y="-7.1" font-family="Helvetica,sans-Serif" font-size="8.00">_reopen</text>
</a>
</g>
</g>
<!-- Node2 -->
<g id="node2" class="node">
<title>Node2</title>
<g id="a_node2"><a xlink:href="classflow_1_1async_1_1Single__thread__task__loop.html#adaf7dbd5fbd6ee7c886daabc7a6ad0ae" target="_top" xlink:title="Cause the given Task (function) to execute within the worker thread as soon as the thread is free of ...">
<polygon fill="white" stroke="black" points="145,-5 145,-31 259,-31 259,-5 145,-5"/>
<text text-anchor="start" x="153" y="-20.6" font-family="Helvetica,sans-Serif" font-size="8.00">flow::async::Single</text>
<text text-anchor="middle" x="202" y="-11.6" font-family="Helvetica,sans-Serif" font-size="8.00">_thread_task_loop::post</text>
</a>
</g>
</g>
<!-- Node1&#45;&gt;Node2 -->
<g id="edge1" class="edge">
<title>Node1&#45;&gt;Node2</title>
<path fill="none" stroke="midnightblue" d="M109.27,-18C117.44,-18 125.95,-18 134.36,-18"/>
<polygon fill="midnightblue" stroke="midnightblue" points="134.53,-21.5 144.53,-18 134.53,-14.5 134.53,-21.5"/>
</g>
<!-- Node3 -->
<g id="node3" class="node">
<title>Node3</title>
<g id="a_node3"><a xlink:href="classflow_1_1async_1_1Cross__thread__task__loop.html#ab785edcaa745fb859aaef4743478ea07" target="_top" xlink:title="Implements superclass API.">
<polygon fill="white" stroke="black" points="295,-5 295,-31 409,-31 409,-5 295,-5"/>
<text text-anchor="start" x="303" y="-20.6" font-family="Helvetica,sans-Serif" font-size="8.00">flow::async::Cross</text>
<text text-anchor="middle" x="352" y="-11.6" font-family="Helvetica,sans-Serif" font-size="8.00">_thread_task_loop::post</text>
</a>
</g>
</g>
<!-- Node2&#45;&gt;Node3 -->
<g id="edge2" class="edge">
<title>Node2&#45;&gt;Node3</title>
<path fill="none" stroke="midnightblue" d="M259.37,-18C267.62,-18 276.18,-18 284.6,-18"/>
<polygon fill="midnightblue" stroke="midnightblue" points="284.78,-21.5 294.78,-18 284.78,-14.5 284.78,-21.5"/>
</g>
<!-- Node4 -->
<g id="node4" class="node">
<title>Node4</title>
<g id="a_node4"><a xlink:href="classflow_1_1log_1_1Log__context.html#af4db395042b065b00398cd59845dcb4d" target="_top" xlink:title="Returns the stored Logger pointer, particularly as many FLOW_LOG_*() macros expect.">
<polygon fill="white" stroke="black" points="445,-5 445,-31 552,-31 552,-5 445,-5"/>
<text text-anchor="start" x="453" y="-20.6" font-family="Helvetica,sans-Serif" font-size="8.00">flow::log::Log_context</text>
<text text-anchor="middle" x="498.5" y="-11.6" font-family="Helvetica,sans-Serif" font-size="8.00">::get_logger</text>
</a>
</g>
</g>
<!-- Node3&#45;&gt;Node4 -->
<g id="edge3" class="edge">
<title>Node3&#45;&gt;Node4</title>
<path fill="none" stroke="midnightblue" d="M409.28,-18C417.62,-18 426.26,-18 434.72,-18"/>
<polygon fill="midnightblue" stroke="midnightblue" points="434.92,-21.5 444.92,-18 434.92,-14.5 434.92,-21.5"/>
</g>
</g>
</svg>
