<?xml version="1.0" encoding="UTF-8" standalone="no"?>
<!DOCTYPE svg PUBLIC "-//W3C//DTD SVG 1.1//EN"
 "http://www.w3.org/Graphics/SVG/1.1/DTD/svg11.dtd">
<!-- Generated by graphviz version 2.43.0 (0)
 -->
<!-- Title: flow::net_flow::Node::send_worker_check_state Pages: 1 -->
<svg width="1098pt" height="692pt"
 viewBox="0.00 0.00 1098.00 691.50" xmlns="http://www.w3.org/2000/svg" xmlns:xlink="http://www.w3.org/1999/xlink">
<g id="graph0" class="graph" transform="scale(1 1) rotate(0) translate(4 687.5)">
<title>flow::net_flow::Node::send_worker_check_state</title>
<polygon fill="white" stroke="transparent" points="-4,4 -4,-687.5 1094,-687.5 1094,4 -4,4"/>
<!-- Node1 -->
<g id="node1" class="node">
<title>Node1</title>
<g id="a_node1"><a xlink:title="Helper placed by send() onto W to invoke send_worker() but ensures that the socket has not entered so...">
<polygon fill="#bfbfbf" stroke="black" points="0,-295.5 0,-321.5 127,-321.5 127,-295.5 0,-295.5"/>
<text text-anchor="start" x="8" y="-311.1" font-family="Helvetica,sans-Serif" font-size="8.00">flow::net_flow::Node</text>
<text text-anchor="middle" x="63.5" y="-302.1" font-family="Helvetica,sans-Serif" font-size="8.00">::send_worker_check_state</text>
</a>
</g>
</g>
<!-- Node2 -->
<g id="node2" class="node">
<title>Node2</title>
<g id="a_node2"><a xlink:href="classflow_1_1net__flow_1_1Node.html#a10a92f11a2c9f218cdd9a55f282e79b1" target="_top" xlink:title="Thread W implemention of send(): synchronously or asynchronously send the contents of sock&#45;&gt;m_snd_buf...">
<polygon fill="white" stroke="black" points="163,-295.5 163,-321.5 264,-321.5 264,-295.5 163,-295.5"/>
<text text-anchor="start" x="171" y="-311.1" font-family="Helvetica,sans-Serif" font-size="8.00">flow::net_flow::Node</text>
<text text-anchor="middle" x="213.5" y="-302.1" font-family="Helvetica,sans-Serif" font-size="8.00">::send_worker</text>
</a>
</g>
</g>
<!-- Node1&#45;&gt;Node2 -->
<g id="edge1" class="edge">
<title>Node1&#45;&gt;Node2</title>
<path fill="none" stroke="midnightblue" d="M127.27,-308.5C135.67,-308.5 144.27,-308.5 152.62,-308.5"/>
<polygon fill="midnightblue" stroke="midnightblue" points="152.65,-312 162.65,-308.5 152.65,-305 152.65,-312"/>
</g>
<!-- Node3 -->
<g id="node3" class="node">
<title>Node3</title>
<g id="a_node3"><a xlink:href="classflow_1_1net__flow_1_1Node.html#a80d58cfa8fad00a116a38f76ccb2b868" target="_top" xlink:title="Assuming *seq_num points to the start of data.m_data, increments *seq_num to point to the datum just ...">
<polygon fill="white" stroke="black" points="322.5,-638.5 322.5,-664.5 423.5,-664.5 423.5,-638.5 322.5,-638.5"/>
<text text-anchor="start" x="330.5" y="-654.1" font-family="Helvetica,sans-Serif" font-size="8.00">flow::net_flow::Node</text>
<text text-anchor="middle" x="373" y="-645.1" font-family="Helvetica,sans-Serif" font-size="8.00">::advance_seq_num</text>
</a>
</g>
</g>
<!-- Node2&#45;&gt;Node3 -->
<g id="edge2" class="edge">
<title>Node2&#45;&gt;Node3</title>
<path fill="none" stroke="midnightblue" d="M213.88,-321.56C212.32,-369.51 213.52,-537.75 300,-628.5 303.79,-632.48 308.27,-635.77 313.11,-638.49"/>
<polygon fill="midnightblue" stroke="midnightblue" points="311.6,-641.65 322.13,-642.81 314.62,-635.34 311.6,-641.65"/>
</g>
<!-- Node4 -->
<g id="node4" class="node">
<title>Node4</title>
<g id="a_node4"><a xlink:href="classflow_1_1net__flow_1_1Node.html#af1c4623729d0a061200a386f7a651926" target="_top" xlink:title="Begins the process of asynchronously sending the given low&#45;level packet to the remote Node specified ...">
<polygon fill="white" stroke="black" points="322.5,-584 322.5,-619 423.5,-619 423.5,-584 322.5,-584"/>
<text text-anchor="start" x="330.5" y="-608.6" font-family="Helvetica,sans-Serif" font-size="8.00">flow::net_flow::Node</text>
<text text-anchor="start" x="330.5" y="-599.6" font-family="Helvetica,sans-Serif" font-size="8.00">::async_sock_low_lvl</text>
<text text-anchor="middle" x="373" y="-590.6" font-family="Helvetica,sans-Serif" font-size="8.00">_packet_send_paced</text>
</a>
</g>
</g>
<!-- Node2&#45;&gt;Node4 -->
<g id="edge4" class="edge">
<title>Node2&#45;&gt;Node4</title>
<path fill="none" stroke="midnightblue" d="M216.15,-321.51C221.63,-360.34 242.3,-477.4 300,-552.5 307.63,-562.43 317.86,-571.06 328.2,-578.2"/>
<polygon fill="midnightblue" stroke="midnightblue" points="326.58,-581.32 336.87,-583.84 330.39,-575.45 326.58,-581.32"/>
</g>
<!-- Node16 -->
<g id="node10" class="node">
<title>Node16</title>
<g id="a_node10"><a xlink:href="classflow_1_1net__flow_1_1Node.html#a7395ac534047f06629962ad19b3fa657" target="_top" xlink:title="Answers the perennial question of congestion and flow control: assuming there is a DATA packet to sen...">
<polygon fill="white" stroke="black" points="322.5,-516.5 322.5,-542.5 423.5,-542.5 423.5,-516.5 322.5,-516.5"/>
<text text-anchor="start" x="330.5" y="-532.1" font-family="Helvetica,sans-Serif" font-size="8.00">flow::net_flow::Node</text>
<text text-anchor="middle" x="373" y="-523.1" font-family="Helvetica,sans-Serif" font-size="8.00">::can_send</text>
</a>
</g>
</g>
<!-- Node2&#45;&gt;Node16 -->
<g id="edge12" class="edge">
<title>Node2&#45;&gt;Node16</title>
<path fill="none" stroke="midnightblue" d="M216.29,-321.61C221.81,-357.03 241.9,-455.42 300,-507.5 303.86,-510.96 308.24,-513.87 312.9,-516.32"/>
<polygon fill="midnightblue" stroke="midnightblue" points="311.58,-519.57 322.13,-520.5 314.47,-513.19 311.58,-519.57"/>
</g>
<!-- Node17 -->
<g id="node11" class="node">
<title>Node17</title>
<g id="a_node11"><a xlink:href="classflow_1_1net__flow_1_1Socket__buffer.html#a8fe3fe5f6a33cfd8fb84eb2607fbc05b" target="_top" xlink:title="Consumes (removes from the front of the internal byte buffer and returns them to the caller) a byte s...">
<polygon fill="white" stroke="black" points="307.5,-471.5 307.5,-497.5 438.5,-497.5 438.5,-471.5 307.5,-471.5"/>
<text text-anchor="start" x="315.5" y="-487.1" font-family="Helvetica,sans-Serif" font-size="8.00">flow::net_flow::Socket</text>
<text text-anchor="middle" x="373" y="-478.1" font-family="Helvetica,sans-Serif" font-size="8.00">_buffer::consume_buf_move</text>
</a>
</g>
</g>
<!-- Node2&#45;&gt;Node17 -->
<g id="edge13" class="edge">
<title>Node2&#45;&gt;Node17</title>
<path fill="none" stroke="midnightblue" d="M223.58,-321.6C238.53,-342.81 269.67,-385.6 300,-418.5 315.23,-435.02 333.97,-452.11 348.52,-464.76"/>
<polygon fill="midnightblue" stroke="midnightblue" points="346.26,-467.44 356.12,-471.3 350.82,-462.13 346.26,-467.44"/>
</g>
<!-- Node22 -->
<g id="node16" class="node">
<title>Node22</title>
<g id="a_node16"><a xlink:href="classflow_1_1net__flow_1_1Socket__buffer.html#af21cd24bba62da1d16a8fc4f9b8e37fd" target="_top" xlink:title="The total number of bytes of application&#45;layer data stored in this object.">
<polygon fill="white" stroke="black" points="319.5,-382.5 319.5,-408.5 426.5,-408.5 426.5,-382.5 319.5,-382.5"/>
<text text-anchor="start" x="327.5" y="-398.1" font-family="Helvetica,sans-Serif" font-size="8.00">flow::net_flow::Socket</text>
<text text-anchor="middle" x="373" y="-389.1" font-family="Helvetica,sans-Serif" font-size="8.00">_buffer::data_size</text>
</a>
</g>
</g>
<!-- Node2&#45;&gt;Node22 -->
<g id="edge19" class="edge">
<title>Node2&#45;&gt;Node22</title>
<path fill="none" stroke="midnightblue" d="M228.56,-321.72C244.68,-336.25 272.45,-359.39 300,-373.5 303.73,-375.41 307.66,-377.19 311.67,-378.83"/>
<polygon fill="midnightblue" stroke="midnightblue" points="310.55,-382.15 321.14,-382.44 313.04,-375.61 310.55,-382.15"/>
</g>
<!-- Node23 -->
<g id="node17" class="node">
<title>Node23</title>
<g id="a_node17"><a xlink:href="classflow_1_1net__flow_1_1Node.html#a8a4ddf81ddbeab1f740940c4cc0d3625" target="_top" xlink:title="For each WAITING Event_set within the Node: checks for any events that hold, and if any do hold,...">
<polygon fill="white" stroke="black" points="309,-337.5 309,-363.5 437,-363.5 437,-337.5 309,-337.5"/>
<text text-anchor="start" x="317" y="-353.1" font-family="Helvetica,sans-Serif" font-size="8.00">flow::net_flow::Node</text>
<text text-anchor="middle" x="373" y="-344.1" font-family="Helvetica,sans-Serif" font-size="8.00">::event_set_all_check_delta</text>
</a>
</g>
</g>
<!-- Node2&#45;&gt;Node23 -->
<g id="edge20" class="edge">
<title>Node2&#45;&gt;Node23</title>
<path fill="none" stroke="midnightblue" d="M263.47,-321.56C279.17,-325.75 296.73,-330.43 313.07,-334.79"/>
<polygon fill="midnightblue" stroke="midnightblue" points="312.5,-338.25 323.06,-337.45 314.3,-331.49 312.5,-338.25"/>
</g>
<!-- Node9 -->
<g id="node28" class="node">
<title>Node9</title>
<g id="a_node28"><a xlink:href="classflow_1_1log_1_1Log__context.html#af4db395042b065b00398cd59845dcb4d" target="_top" xlink:title="Returns the stored Logger pointer, particularly as many FLOW_LOG_*() macros expect.">
<polygon fill="white" stroke="black" points="504.5,-100.5 504.5,-126.5 611.5,-126.5 611.5,-100.5 504.5,-100.5"/>
<text text-anchor="start" x="512.5" y="-116.1" font-family="Helvetica,sans-Serif" font-size="8.00">flow::log::Log_context</text>
<text text-anchor="middle" x="558" y="-107.1" font-family="Helvetica,sans-Serif" font-size="8.00">::get_logger</text>
</a>
</g>
</g>
<!-- Node2&#45;&gt;Node9 -->
<g id="edge33" class="edge">
<title>Node2&#45;&gt;Node9</title>
<path fill="none" stroke="midnightblue" d="M264.24,-319.78C315.95,-328.36 396.19,-332.39 446,-289.5 498.94,-243.92 434.27,-187.51 482,-136.5 485.78,-132.46 490.25,-129.12 495.09,-126.37"/>
<polygon fill="midnightblue" stroke="midnightblue" points="496.66,-129.5 504.15,-122.01 493.62,-123.19 496.66,-129.5"/>
</g>
<!-- Node35 -->
<g id="node29" class="node">
<title>Node35</title>
<g id="a_node29"><a xlink:href="classflow_1_1util_1_1Shared__ptr__alias__holder.html#a55a247bb8fb2ec94b7cbfdd56be65a81" target="_top" xlink:title="Provides syntactic&#45;sugary way to perform a static_pointer_cast&lt;&gt; from a compatible smart pointer type...">
<polygon fill="white" stroke="black" points="305,-235.5 305,-279.5 441,-279.5 441,-235.5 305,-235.5"/>
<text text-anchor="start" x="313" y="-269.1" font-family="Helvetica,sans-Serif" font-size="8.00">flow::util::Shared</text>
<text text-anchor="start" x="313" y="-260.1" font-family="Helvetica,sans-Serif" font-size="8.00">_ptr_alias_holder&lt; boost</text>
<text text-anchor="start" x="313" y="-251.1" font-family="Helvetica,sans-Serif" font-size="8.00">::shared_ptr&lt; Low_lvl_packet</text>
<text text-anchor="middle" x="373" y="-242.1" font-family="Helvetica,sans-Serif" font-size="8.00"> &gt; &gt;::ptr_cast</text>
</a>
</g>
</g>
<!-- Node2&#45;&gt;Node35 -->
<g id="edge34" class="edge">
<title>Node2&#45;&gt;Node35</title>
<path fill="none" stroke="midnightblue" d="M254.65,-295.5C267.09,-291.47 281.24,-286.89 295.3,-282.34"/>
<polygon fill="midnightblue" stroke="midnightblue" points="296.56,-285.61 305,-279.2 294.41,-278.95 296.56,-285.61"/>
</g>
<!-- Node36 -->
<g id="node30" class="node">
<title>Node36</title>
<g id="a_node30"><a xlink:href="classflow_1_1net__flow_1_1Node.html#a70d124ba678e2ab72f8c6d28140ca137" target="_top" xlink:title="Return true if and only if there is enough free space in Peer_socket::m_snd_buf of sock to enqueue an...">
<polygon fill="white" stroke="black" points="322.5,-190.5 322.5,-216.5 423.5,-216.5 423.5,-190.5 322.5,-190.5"/>
<text text-anchor="start" x="330.5" y="-206.1" font-family="Helvetica,sans-Serif" font-size="8.00">flow::net_flow::Node</text>
<text text-anchor="middle" x="373" y="-197.1" font-family="Helvetica,sans-Serif" font-size="8.00">::snd_buf_enqable</text>
</a>
</g>
</g>
<!-- Node2&#45;&gt;Node36 -->
<g id="edge35" class="edge">
<title>Node2&#45;&gt;Node36</title>
<path fill="none" stroke="midnightblue" d="M224.96,-295.21C239.82,-277.19 268.72,-245.12 300,-226.5 304.08,-224.07 308.45,-221.87 312.95,-219.87"/>
<polygon fill="midnightblue" stroke="midnightblue" points="314.34,-223.09 322.29,-216.08 311.71,-216.6 314.34,-223.09"/>
</g>
<!-- Node37 -->
<g id="node31" class="node">
<title>Node37</title>
<g id="a_node31"><a xlink:href="classflow_1_1net__flow_1_1Node.html#a382b607fa2e482886f2fd75edc36b8b7" target="_top" xlink:title="Return true if and only if there are enough data either in Peer_socket::m_snd_rexmit_q of sock (if re...">
<polygon fill="white" stroke="black" points="322.5,-145.5 322.5,-171.5 423.5,-171.5 423.5,-145.5 322.5,-145.5"/>
<text text-anchor="start" x="330.5" y="-161.1" font-family="Helvetica,sans-Serif" font-size="8.00">flow::net_flow::Node</text>
<text text-anchor="middle" x="373" y="-152.1" font-family="Helvetica,sans-Serif" font-size="8.00">::snd_deqable</text>
</a>
</g>
</g>
<!-- Node2&#45;&gt;Node37 -->
<g id="edge36" class="edge">
<title>Node2&#45;&gt;Node37</title>
<path fill="none" stroke="midnightblue" d="M219.86,-295.21C230.92,-269.42 258.76,-212.45 300,-181.5 303.93,-178.55 308.24,-175.98 312.75,-173.73"/>
<polygon fill="midnightblue" stroke="midnightblue" points="314.48,-176.79 322.21,-169.55 311.65,-170.39 314.48,-176.79"/>
</g>
<!-- Node38 -->
<g id="node32" class="node">
<title>Node38</title>
<g id="a_node32"><a xlink:href="classflow_1_1net__flow_1_1Node.html#a52a3e10ef08b93daf87ea5f0f1e87062" target="_top" xlink:title="Adds a new packet struct (presumably representing packet to be sent shortly) to the &quot;scoreboard&quot; (Pee...">
<polygon fill="white" stroke="black" points="309,-100.5 309,-126.5 437,-126.5 437,-100.5 309,-100.5"/>
<text text-anchor="start" x="317" y="-116.1" font-family="Helvetica,sans-Serif" font-size="8.00">flow::net_flow::Node</text>
<text text-anchor="middle" x="373" y="-107.1" font-family="Helvetica,sans-Serif" font-size="8.00">::snd_flying_pkts_push_one</text>
</a>
</g>
</g>
<!-- Node2&#45;&gt;Node38 -->
<g id="edge37" class="edge">
<title>Node2&#45;&gt;Node38</title>
<path fill="none" stroke="midnightblue" d="M217.37,-295.11C224.97,-262.91 248.63,-180.59 300,-136.5 302,-134.78 304.14,-133.19 306.37,-131.72"/>
<polygon fill="midnightblue" stroke="midnightblue" points="308.41,-134.58 315.39,-126.6 304.96,-128.49 308.41,-134.58"/>
</g>
<!-- Node39 -->
<g id="node34" class="node">
<title>Node39</title>
<g id="a_node34"><a xlink:href="classflow_1_1net__flow_1_1Node.html#a837d37e6eb06fb6df4666bac327d20f8" target="_top" xlink:title="Obtain the sequence number for the datum just past the last (latest) In&#45;flight (i....">
<polygon fill="white" stroke="black" points="321,-46 321,-81 425,-81 425,-46 321,-46"/>
<text text-anchor="start" x="329" y="-70.6" font-family="Helvetica,sans-Serif" font-size="8.00">flow::net_flow::Node</text>
<text text-anchor="start" x="329" y="-61.6" font-family="Helvetica,sans-Serif" font-size="8.00">::snd_past_last_flying</text>
<text text-anchor="middle" x="373" y="-52.6" font-family="Helvetica,sans-Serif" font-size="8.00">_datum_seq_num</text>
</a>
</g>
</g>
<!-- Node2&#45;&gt;Node39 -->
<g id="edge40" class="edge">
<title>Node2&#45;&gt;Node39</title>
<path fill="none" stroke="midnightblue" d="M215.93,-295.45C220.7,-258.21 239.33,-150.27 300,-90.5 303.5,-87.05 307.48,-84.04 311.74,-81.4"/>
<polygon fill="midnightblue" stroke="midnightblue" points="313.65,-84.34 320.78,-76.51 310.32,-78.19 313.65,-84.34"/>
</g>
<!-- Node40 -->
<g id="node35" class="node">
<title>Node40</title>
<g id="a_node35"><a xlink:href="classflow_1_1net__flow_1_1Node.html#a479dfcb7944cb6571af51f1feed2656d" target="_top" xlink:title="Returns the &quot;order number&quot; to use for Peer_socket::Sent_packet::Sent_when structure corresponding to ...">
<polygon fill="white" stroke="black" points="300,-0.5 300,-26.5 446,-26.5 446,-0.5 300,-0.5"/>
<text text-anchor="start" x="308" y="-16.1" font-family="Helvetica,sans-Serif" font-size="8.00">flow::net_flow::Node</text>
<text text-anchor="middle" x="373" y="-7.1" font-family="Helvetica,sans-Serif" font-size="8.00">::sock_get_new_snd_order_num</text>
</a>
</g>
</g>
<!-- Node2&#45;&gt;Node40 -->
<g id="edge41" class="edge">
<title>Node2&#45;&gt;Node40</title>
<path fill="none" stroke="midnightblue" d="M214.61,-295.31C215.69,-251.86 225.1,-111.75 300,-36.5 301.46,-35.04 303.01,-33.66 304.64,-32.38"/>
<polygon fill="midnightblue" stroke="midnightblue" points="306.9,-35.08 313.33,-26.66 303.05,-29.23 306.9,-35.08"/>
</g>
<!-- Node3&#45;&gt;Node3 -->
<g id="edge3" class="edge">
<title>Node3&#45;&gt;Node3</title>
<path fill="none" stroke="midnightblue" d="M346.27,-664.77C338.17,-673.96 347.08,-683 373,-683 388.8,-683 398.28,-679.64 401.44,-674.94"/>
<polygon fill="midnightblue" stroke="midnightblue" points="404.84,-674.05 399.73,-664.77 397.93,-675.21 404.84,-674.05"/>
</g>
<!-- Node5 -->
<g id="node5" class="node">
<title>Node5</title>
<g id="a_node5"><a xlink:href="classflow_1_1net__flow_1_1Node.html#a0db2bb587e0407077b11368df075f0ff" target="_top" xlink:title="async_low_lvl_packet_send_impl() wrapper to call when packet is to be sent to the remote side of the ...">
<polygon fill="white" stroke="black" points="844,-648 844,-683 945,-683 945,-648 844,-648"/>
<text text-anchor="start" x="852" y="-672.6" font-family="Helvetica,sans-Serif" font-size="8.00">flow::net_flow::Node</text>
<text text-anchor="start" x="852" y="-663.6" font-family="Helvetica,sans-Serif" font-size="8.00">::async_sock_low_lvl</text>
<text text-anchor="middle" x="894.5" y="-654.6" font-family="Helvetica,sans-Serif" font-size="8.00">_packet_send</text>
</a>
</g>
</g>
<!-- Node4&#45;&gt;Node5 -->
<g id="edge5" class="edge">
<title>Node4&#45;&gt;Node5</title>
<path fill="none" stroke="midnightblue" d="M420.67,-619.1C429.14,-622.45 437.87,-626 446,-629.5 462.26,-636.49 464.96,-641.72 482,-646.5 603.34,-680.55 752.6,-676.73 833.86,-671.04"/>
<polygon fill="midnightblue" stroke="midnightblue" points="834.19,-674.52 843.9,-670.3 833.68,-667.54 834.19,-674.52"/>
</g>
<!-- Node12 -->
<g id="node7" class="node">
<title>Node12</title>
<g id="a_node7"><a xlink:href="classflow_1_1net__flow_1_1Node.html#a0556af278dc07a43f109fbd74ac64d5e" target="_top" xlink:title="async_sock_low_lvl_packet_send_paced() pacing helper: Handles a DATA or ACK packet that was just pass...">
<polygon fill="white" stroke="black" points="482,-610.5 482,-636.5 634,-636.5 634,-610.5 482,-610.5"/>
<text text-anchor="start" x="490" y="-626.1" font-family="Helvetica,sans-Serif" font-size="8.00">flow::net_flow::Node</text>
<text text-anchor="middle" x="558" y="-617.1" font-family="Helvetica,sans-Serif" font-size="8.00">::sock_pacing_new_packet_ready</text>
</a>
</g>
</g>
<!-- Node4&#45;&gt;Node12 -->
<g id="edge7" class="edge">
<title>Node4&#45;&gt;Node12</title>
<path fill="none" stroke="midnightblue" d="M423.52,-607.45C438.42,-609.25 455.22,-611.26 471.75,-613.25"/>
<polygon fill="midnightblue" stroke="midnightblue" points="471.64,-616.76 481.98,-614.48 472.47,-609.81 471.64,-616.76"/>
</g>
<!-- Node6 -->
<g id="node6" class="node">
<title>Node6</title>
<g id="a_node6"><a xlink:href="classflow_1_1net__flow_1_1Node.html#a9f302fe63e36f72931e1a759b0aaaed4" target="_top" xlink:title="Takes given low&#45;level packet structure, serializes it, and initiates asynchronous send of these data ...">
<polygon fill="white" stroke="red" points="981,-648 981,-683 1090,-683 1090,-648 981,-648"/>
<text text-anchor="start" x="989" y="-672.6" font-family="Helvetica,sans-Serif" font-size="8.00">flow::net_flow::Node</text>
<text text-anchor="start" x="989" y="-663.6" font-family="Helvetica,sans-Serif" font-size="8.00">::async_low_lvl_packet</text>
<text text-anchor="middle" x="1035.5" y="-654.6" font-family="Helvetica,sans-Serif" font-size="8.00">_send_impl</text>
</a>
</g>
</g>
<!-- Node5&#45;&gt;Node6 -->
<g id="edge6" class="edge">
<title>Node5&#45;&gt;Node6</title>
<path fill="none" stroke="midnightblue" d="M945.29,-665.5C953.49,-665.5 962.08,-665.5 970.57,-665.5"/>
<polygon fill="midnightblue" stroke="midnightblue" points="970.82,-669 980.82,-665.5 970.82,-662 970.82,-669"/>
</g>
<!-- Node12&#45;&gt;Node5 -->
<g id="edge8" class="edge">
<title>Node12&#45;&gt;Node5</title>
<path fill="none" stroke="midnightblue" d="M615.24,-636.51C632.71,-640.19 652.08,-643.89 670,-646.5 725.06,-654.51 788.27,-659.5 833.39,-662.34"/>
<polygon fill="midnightblue" stroke="midnightblue" points="833.4,-665.85 843.59,-662.97 833.83,-658.86 833.4,-665.85"/>
</g>
<!-- Node13 -->
<g id="node8" class="node">
<title>Node13</title>
<g id="a_node8"><a xlink:href="classflow_1_1net__flow_1_1Node.html#afb88dafa8ec5c1b412de86dfdccd9c8f" target="_top" xlink:title="async_sock_low_lvl_packet_send_paced() pacing helper: Resets the socket&#39;s Send_pacing_data structure ...">
<polygon fill="white" stroke="red" points="670,-610.5 670,-636.5 808,-636.5 808,-610.5 670,-610.5"/>
<text text-anchor="start" x="678" y="-626.1" font-family="Helvetica,sans-Serif" font-size="8.00">flow::net_flow::Node</text>
<text text-anchor="middle" x="739" y="-617.1" font-family="Helvetica,sans-Serif" font-size="8.00">::sock_pacing_new_time_slice</text>
</a>
</g>
</g>
<!-- Node12&#45;&gt;Node13 -->
<g id="edge9" class="edge">
<title>Node12&#45;&gt;Node13</title>
<path fill="none" stroke="midnightblue" d="M634.13,-623.5C642.57,-623.5 651.18,-623.5 659.65,-623.5"/>
<polygon fill="midnightblue" stroke="midnightblue" points="659.9,-627 669.9,-623.5 659.9,-620 659.9,-627"/>
</g>
<!-- Node14 -->
<g id="node9" class="node">
<title>Node14</title>
<g id="a_node9"><a xlink:href="classflow_1_1net__flow_1_1Node.html#a73cfaa8e5ed7fe845f759a30423a9cbf" target="_top" xlink:title="async_sock_low_lvl_packet_send_paced() pacing helper: Given that we are currently in the pacing time ...">
<polygon fill="white" stroke="red" points="680,-565.5 680,-591.5 798,-591.5 798,-565.5 680,-565.5"/>
<text text-anchor="start" x="688" y="-581.1" font-family="Helvetica,sans-Serif" font-size="8.00">flow::net_flow::Node</text>
<text text-anchor="middle" x="739" y="-572.1" font-family="Helvetica,sans-Serif" font-size="8.00">::sock_pacing_process_q</text>
</a>
</g>
</g>
<!-- Node12&#45;&gt;Node14 -->
<g id="edge10" class="edge">
<title>Node12&#45;&gt;Node14</title>
<path fill="none" stroke="midnightblue" d="M610.77,-610.48C631.19,-605.35 654.8,-599.42 676.11,-594.06"/>
<polygon fill="midnightblue" stroke="midnightblue" points="677.19,-597.4 686.03,-591.56 675.48,-590.61 677.19,-597.4"/>
</g>
<!-- Node14&#45;&gt;Node5 -->
<g id="edge11" class="edge">
<title>Node14&#45;&gt;Node5</title>
<path fill="none" stroke="midnightblue" d="M785.1,-591.51C792.92,-594.39 800.83,-597.73 808,-601.5 828.68,-612.38 849.72,-628.06 865.75,-641.18"/>
<polygon fill="midnightblue" stroke="midnightblue" points="863.73,-644.05 873.65,-647.76 868.21,-638.67 863.73,-644.05"/>
</g>
<!-- Node18 -->
<g id="node12" class="node">
<title>Node18</title>
<g id="a_node12"><a xlink:href="namespaceflow_1_1util.html#a16357344c21456b86b7de3085e2661a2" target="_top" xlink:title="Identical to buffers_to_ostream() but returns an std::string instead of writing to a given ostream.">
<polygon fill="white" stroke="black" points="696,-520.5 696,-546.5 782,-546.5 782,-520.5 696,-520.5"/>
<text text-anchor="start" x="704" y="-536.1" font-family="Helvetica,sans-Serif" font-size="8.00">flow::util::buffers</text>
<text text-anchor="middle" x="739" y="-527.1" font-family="Helvetica,sans-Serif" font-size="8.00">_dump_string</text>
</a>
</g>
</g>
<!-- Node17&#45;&gt;Node18 -->
<g id="edge14" class="edge">
<title>Node17&#45;&gt;Node18</title>
<path fill="none" stroke="midnightblue" d="M429.06,-497.66C435.09,-500.36 440.88,-503.61 446,-507.5 469.25,-525.19 456.3,-548.61 482,-562.5 541.43,-594.63 567.07,-571.66 634,-562.5 652.78,-559.93 672.96,-554.86 690.5,-549.67"/>
<polygon fill="midnightblue" stroke="midnightblue" points="691.94,-552.89 700.49,-546.62 689.9,-546.2 691.94,-552.89"/>
</g>
<!-- Node21 -->
<g id="node15" class="node">
<title>Node21</title>
<g id="a_node15"><a xlink:href="classflow_1_1net__flow_1_1Socket__buffer.html#af60133c1d6825246b54f10f26810cd88" target="_top" xlink:title="Consumes (removes from the front of the internal byte buffer and returns them to the caller) a byte s...">
<polygon fill="white" stroke="black" points="491.5,-526.5 491.5,-552.5 624.5,-552.5 624.5,-526.5 491.5,-526.5"/>
<text text-anchor="start" x="499.5" y="-542.1" font-family="Helvetica,sans-Serif" font-size="8.00">flow::net_flow::Socket</text>
<text text-anchor="middle" x="558" y="-533.1" font-family="Helvetica,sans-Serif" font-size="8.00">_buffer::consume_bufs_copy</text>
</a>
</g>
</g>
<!-- Node17&#45;&gt;Node21 -->
<g id="edge17" class="edge">
<title>Node17&#45;&gt;Node21</title>
<path fill="none" stroke="midnightblue" d="M417.37,-497.53C443.26,-505.31 476.33,-515.25 503.79,-523.51"/>
<polygon fill="midnightblue" stroke="midnightblue" points="503.04,-526.94 513.63,-526.46 505.06,-520.23 503.04,-526.94"/>
</g>
<!-- Node19 -->
<g id="node13" class="node">
<title>Node19</title>
<g id="a_node13"><a xlink:href="namespaceflow_1_1util.html#aa132928b364caefca5c3821e019924bf" target="_top" xlink:title="Writes a multi&#45; or single&#45;line string representation of the provided binary data to an output stream,...">
<polygon fill="white" stroke="black" points="851.5,-520.5 851.5,-546.5 937.5,-546.5 937.5,-520.5 851.5,-520.5"/>
<text text-anchor="start" x="859.5" y="-536.1" font-family="Helvetica,sans-Serif" font-size="8.00">flow::util::buffers</text>
<text text-anchor="middle" x="894.5" y="-527.1" font-family="Helvetica,sans-Serif" font-size="8.00">_to_ostream</text>
</a>
</g>
</g>
<!-- Node18&#45;&gt;Node19 -->
<g id="edge15" class="edge">
<title>Node18&#45;&gt;Node19</title>
<path fill="none" stroke="midnightblue" d="M782.35,-533.5C800.55,-533.5 822.01,-533.5 841.2,-533.5"/>
<polygon fill="midnightblue" stroke="midnightblue" points="841.29,-537 851.29,-533.5 841.29,-530 841.29,-537"/>
</g>
<!-- Node20 -->
<g id="node14" class="node">
<title>Node20</title>
<g id="a_node14"><a xlink:href="classflow_1_1util_1_1String__ostream.html#a7e64b069ae0e221952068c13fdc0f080" target="_top" xlink:title="Access to stream that will write to owned string.">
<polygon fill="white" stroke="black" points="853.5,-399.5 853.5,-425.5 935.5,-425.5 935.5,-399.5 853.5,-399.5"/>
<text text-anchor="start" x="861.5" y="-415.1" font-family="Helvetica,sans-Serif" font-size="8.00">flow::util::String</text>
<text text-anchor="middle" x="894.5" y="-406.1" font-family="Helvetica,sans-Serif" font-size="8.00">_ostream::os</text>
</a>
</g>
</g>
<!-- Node18&#45;&gt;Node20 -->
<g id="edge16" class="edge">
<title>Node18&#45;&gt;Node20</title>
<path fill="none" stroke="midnightblue" d="M756.72,-520.32C783.82,-498.95 837.49,-456.65 868.94,-431.86"/>
<polygon fill="midnightblue" stroke="midnightblue" points="871.11,-434.6 876.8,-425.66 866.78,-429.11 871.11,-434.6"/>
</g>
<!-- Node21&#45;&gt;Node18 -->
<g id="edge18" class="edge">
<title>Node21&#45;&gt;Node18</title>
<path fill="none" stroke="midnightblue" d="M624.64,-537.3C644.77,-536.63 666.63,-535.89 685.74,-535.25"/>
<polygon fill="midnightblue" stroke="midnightblue" points="685.88,-538.75 695.75,-534.92 685.64,-531.75 685.88,-538.75"/>
</g>
<!-- Node24 -->
<g id="node18" class="node">
<title>Node24</title>
<g id="a_node18"><a xlink:href="classflow_1_1net__flow_1_1Event__set.html#a0edced1cb69b2cad299ee32e652ccea7" target="_top" xlink:title="Helper that clears each Sockets set inside an Ev_type_to_socks_map.">
<polygon fill="white" stroke="black" points="504.5,-472 504.5,-507 611.5,-507 611.5,-472 504.5,-472"/>
<text text-anchor="start" x="512.5" y="-496.6" font-family="Helvetica,sans-Serif" font-size="8.00">flow::net_flow::Event</text>
<text text-anchor="start" x="512.5" y="-487.6" font-family="Helvetica,sans-Serif" font-size="8.00">_set::clear_ev_type_to</text>
<text text-anchor="middle" x="558" y="-478.6" font-family="Helvetica,sans-Serif" font-size="8.00">_socks_map</text>
</a>
</g>
</g>
<!-- Node23&#45;&gt;Node24 -->
<g id="edge21" class="edge">
<title>Node23&#45;&gt;Node24</title>
<path fill="none" stroke="midnightblue" d="M431.64,-363.62C436.86,-366.32 441.77,-369.57 446,-373.5 477.28,-402.52 451.25,-432.92 482,-462.5 485.99,-466.34 490.56,-469.63 495.44,-472.47"/>
<polygon fill="midnightblue" stroke="midnightblue" points="493.99,-475.66 504.49,-477.08 497.17,-469.42 493.99,-475.66"/>
</g>
<!-- Node25 -->
<g id="node19" class="node">
<title>Node25</title>
<g id="a_node19"><a xlink:href="classflow_1_1util_1_1Linked__hash__set.html#a048a8d78c4ae3bc45c8bcede6b0e2dc6" target="_top" xlink:title="Returns true if and only if container is empty.">
<polygon fill="white" stroke="black" points="513.5,-426.5 513.5,-452.5 602.5,-452.5 602.5,-426.5 513.5,-426.5"/>
<text text-anchor="start" x="521.5" y="-442.1" font-family="Helvetica,sans-Serif" font-size="8.00">flow::util::Linked</text>
<text text-anchor="middle" x="558" y="-433.1" font-family="Helvetica,sans-Serif" font-size="8.00">_hash_set::empty</text>
</a>
</g>
</g>
<!-- Node23&#45;&gt;Node25 -->
<g id="edge22" class="edge">
<title>Node23&#45;&gt;Node25</title>
<path fill="none" stroke="midnightblue" d="M427.13,-363.64C433.76,-366.36 440.23,-369.62 446,-373.5 466.69,-387.4 461.23,-402.72 482,-416.5 488.62,-420.89 496.12,-424.48 503.76,-427.4"/>
<polygon fill="midnightblue" stroke="midnightblue" points="502.85,-430.79 513.45,-430.75 505.14,-424.17 502.85,-430.79"/>
</g>
<!-- Node26 -->
<g id="node20" class="node">
<title>Node26</title>
<g id="a_node20"><a xlink:href="classflow_1_1net__flow_1_1Event__set.html#aed9505b886c78169fe35b527f4e01855" target="_top" xlink:title="Functional helper that checks whether a given pair in an Ev_type_to_socks_map contains an empty set o...">
<polygon fill="white" stroke="black" points="503,-372 503,-407 613,-407 613,-372 503,-372"/>
<text text-anchor="start" x="511" y="-396.6" font-family="Helvetica,sans-Serif" font-size="8.00">flow::net_flow::Event</text>
<text text-anchor="start" x="511" y="-387.6" font-family="Helvetica,sans-Serif" font-size="8.00">_set::ev_type_to_socks</text>
<text text-anchor="middle" x="558" y="-378.6" font-family="Helvetica,sans-Serif" font-size="8.00">_map_entry_is_empty</text>
</a>
</g>
</g>
<!-- Node23&#45;&gt;Node26 -->
<g id="edge23" class="edge">
<title>Node23&#45;&gt;Node26</title>
<path fill="none" stroke="midnightblue" d="M435.19,-363.54C453.77,-367.5 474.24,-371.86 493,-375.86"/>
<polygon fill="midnightblue" stroke="midnightblue" points="492.42,-379.32 502.93,-377.98 493.88,-372.47 492.42,-379.32"/>
</g>
<!-- Node27 -->
<g id="node21" class="node">
<title>Node27</title>
<g id="a_node21"><a xlink:href="classflow_1_1net__flow_1_1Event__set.html#a19e241ae4dfe1ea54de6027052bc2135" target="_top" xlink:title="Helper that returns a loggable string summarizing the sizes of the socket sets, by type,...">
<polygon fill="white" stroke="black" points="503,-318 503,-353 613,-353 613,-318 503,-318"/>
<text text-anchor="start" x="511" y="-342.6" font-family="Helvetica,sans-Serif" font-size="8.00">flow::net_flow::Event</text>
<text text-anchor="start" x="511" y="-333.6" font-family="Helvetica,sans-Serif" font-size="8.00">_set::ev_type_to_socks</text>
<text text-anchor="middle" x="558" y="-324.6" font-family="Helvetica,sans-Serif" font-size="8.00">_map_sizes_to_str</text>
</a>
</g>
</g>
<!-- Node23&#45;&gt;Node27 -->
<g id="edge24" class="edge">
<title>Node23&#45;&gt;Node27</title>
<path fill="none" stroke="midnightblue" d="M437.23,-345.32C455.19,-343.84 474.77,-342.24 492.78,-340.76"/>
<polygon fill="midnightblue" stroke="midnightblue" points="493.22,-344.24 502.9,-339.93 492.65,-337.26 493.22,-344.24"/>
</g>
<!-- Node31 -->
<g id="node24" class="node">
<title>Node31</title>
<g id="a_node24"><a xlink:href="classflow_1_1util_1_1Linked__hash__set.html#a517b9b0ac9d6ab2c56e27ba380f87180" target="_top" xlink:title="Attempts to insert the given key into the set.">
<polygon fill="white" stroke="black" points="515,-272.5 515,-298.5 601,-298.5 601,-272.5 515,-272.5"/>
<text text-anchor="start" x="523" y="-288.1" font-family="Helvetica,sans-Serif" font-size="8.00">flow::util::Linked</text>
<text text-anchor="middle" x="558" y="-279.1" font-family="Helvetica,sans-Serif" font-size="8.00">_hash_set::insert</text>
</a>
</g>
</g>
<!-- Node23&#45;&gt;Node31 -->
<g id="edge28" class="edge">
<title>Node23&#45;&gt;Node31</title>
<path fill="none" stroke="midnightblue" d="M407.48,-337.48C439.11,-325.17 481.76,-308.58 482,-308.5 489.42,-305.92 497.3,-303.34 505.06,-300.89"/>
<polygon fill="midnightblue" stroke="midnightblue" points="506.27,-304.17 514.78,-297.86 504.19,-297.49 506.27,-304.17"/>
</g>
<!-- Node32 -->
<g id="node25" class="node">
<title>Node32</title>
<g id="a_node25"><a xlink:href="namespaceflow_1_1util.html#a03984e29450abf9cf287c501d6c8f866" target="_top" xlink:title="Returns true if and only if the given key is present at least once in the given associative container...">
<polygon fill="white" stroke="black" points="508.5,-236 508.5,-253 607.5,-253 607.5,-236 508.5,-236"/>
<text text-anchor="middle" x="558" y="-242.6" font-family="Helvetica,sans-Serif" font-size="8.00">flow::util::key_exists</text>
</a>
</g>
</g>
<!-- Node23&#45;&gt;Node32 -->
<g id="edge29" class="edge">
<title>Node23&#45;&gt;Node32</title>
<path fill="none" stroke="midnightblue" d="M421.02,-337.34C429.91,-333.49 438.7,-328.61 446,-322.5 469.56,-302.78 457.28,-281.73 482,-263.5 487.04,-259.78 492.72,-256.79 498.66,-254.38"/>
<polygon fill="midnightblue" stroke="midnightblue" points="499.86,-257.67 508.13,-251.06 497.54,-251.07 499.86,-257.67"/>
</g>
<!-- Node33 -->
<g id="node26" class="node">
<title>Node33</title>
<g id="a_node26"><a xlink:href="classflow_1_1util_1_1Linked__hash__set.html#ad2ce3ff8f57696dcb230f419775ab865" target="_top" xlink:title="Returns number of elements stored.">
<polygon fill="white" stroke="black" points="515.5,-190.5 515.5,-216.5 600.5,-216.5 600.5,-190.5 515.5,-190.5"/>
<text text-anchor="start" x="523.5" y="-206.1" font-family="Helvetica,sans-Serif" font-size="8.00">flow::util::Linked</text>
<text text-anchor="middle" x="558" y="-197.1" font-family="Helvetica,sans-Serif" font-size="8.00">_hash_set::size</text>
</a>
</g>
</g>
<!-- Node23&#45;&gt;Node33 -->
<g id="edge30" class="edge">
<title>Node23&#45;&gt;Node33</title>
<path fill="none" stroke="midnightblue" d="M424.2,-337.36C432.22,-333.56 439.87,-328.7 446,-322.5 478.03,-290.08 448.81,-257.72 482,-226.5 488.7,-220.2 497.09,-215.62 505.81,-212.29"/>
<polygon fill="midnightblue" stroke="midnightblue" points="506.93,-215.61 515.33,-209.15 504.74,-208.96 506.93,-215.61"/>
</g>
<!-- Node34 -->
<g id="node27" class="node">
<title>Node34</title>
<g id="a_node27"><a xlink:href="classflow_1_1net__flow_1_1Event__set.html#ae04c117b15179ba37a94f6836c63497b" target="_top" xlink:title="Helper that returns a loggable string representing the socket stored in the given boost::any that sto...">
<polygon fill="white" stroke="black" points="500,-145.5 500,-171.5 616,-171.5 616,-145.5 500,-145.5"/>
<text text-anchor="start" x="508" y="-161.1" font-family="Helvetica,sans-Serif" font-size="8.00">flow::net_flow::Event</text>
<text text-anchor="middle" x="558" y="-152.1" font-family="Helvetica,sans-Serif" font-size="8.00">_set::sock_as_any_to_str</text>
</a>
</g>
</g>
<!-- Node23&#45;&gt;Node34 -->
<g id="edge31" class="edge">
<title>Node23&#45;&gt;Node34</title>
<path fill="none" stroke="midnightblue" d="M425.88,-337.36C433.42,-333.58 440.49,-328.72 446,-322.5 488.89,-274.09 437.37,-228.31 482,-181.5 484.65,-178.72 487.62,-176.28 490.81,-174.13"/>
<polygon fill="midnightblue" stroke="midnightblue" points="492.73,-177.07 499.71,-169.1 489.28,-170.97 492.73,-177.07"/>
</g>
<!-- Node28 -->
<g id="node22" class="node">
<title>Node28</title>
<g id="a_node22"><a xlink:href="namespaceflow_1_1util.html#a8afd30c50bcd670d45442df49d1da484" target="_top" xlink:title="Writes to the specified string, as if the given arguments were each passed, via &lt;&lt; in sequence,...">
<polygon fill="white" stroke="red" points="693,-300.5 693,-326.5 785,-326.5 785,-300.5 693,-300.5"/>
<text text-anchor="start" x="701" y="-316.1" font-family="Helvetica,sans-Serif" font-size="8.00">flow::util::ostream</text>
<text text-anchor="middle" x="739" y="-307.1" font-family="Helvetica,sans-Serif" font-size="8.00">_op_to_string</text>
</a>
</g>
</g>
<!-- Node27&#45;&gt;Node28 -->
<g id="edge25" class="edge">
<title>Node27&#45;&gt;Node28</title>
<path fill="none" stroke="midnightblue" d="M613.19,-328.84C635.13,-326.14 660.45,-323.03 682.52,-320.32"/>
<polygon fill="midnightblue" stroke="midnightblue" points="683.23,-323.76 692.73,-319.06 682.38,-316.81 683.23,-323.76"/>
</g>
<!-- Node30 -->
<g id="node23" class="node">
<title>Node30</title>
<g id="a_node23"><a xlink:href="classflow_1_1util_1_1Linked__hash__map.html#aba0949de5032e8dd6d75a48bcac9b060" target="_top" xlink:title="Returns number of elements stored.">
<polygon fill="white" stroke="black" points="696.5,-345.5 696.5,-371.5 781.5,-371.5 781.5,-345.5 696.5,-345.5"/>
<text text-anchor="start" x="704.5" y="-361.1" font-family="Helvetica,sans-Serif" font-size="8.00">flow::util::Linked</text>
<text text-anchor="middle" x="739" y="-352.1" font-family="Helvetica,sans-Serif" font-size="8.00">_hash_map::size</text>
</a>
</g>
</g>
<!-- Node27&#45;&gt;Node30 -->
<g id="edge27" class="edge">
<title>Node27&#45;&gt;Node30</title>
<path fill="none" stroke="midnightblue" d="M613.19,-342.46C636.3,-345.43 663.16,-348.88 686.02,-351.82"/>
<polygon fill="midnightblue" stroke="midnightblue" points="685.85,-355.33 696.22,-353.13 686.74,-348.39 685.85,-355.33"/>
</g>
<!-- Node28&#45;&gt;Node20 -->
<g id="edge26" class="edge">
<title>Node28&#45;&gt;Node20</title>
<path fill="none" stroke="midnightblue" d="M785.02,-325.87C792.92,-328.84 800.89,-332.37 808,-336.5 833.68,-351.42 858.53,-374.84 874.76,-391.74"/>
<polygon fill="midnightblue" stroke="midnightblue" points="872.6,-394.56 882,-399.45 877.7,-389.76 872.6,-394.56"/>
</g>
<!-- Node34&#45;&gt;Node28 -->
<g id="edge32" class="edge">
<title>Node34&#45;&gt;Node28</title>
<path fill="none" stroke="midnightblue" d="M615.23,-171.57C621.85,-174.3 628.27,-177.58 634,-181.5 676.39,-210.53 709.67,-262.08 726.32,-291.43"/>
<polygon fill="midnightblue" stroke="midnightblue" points="723.41,-293.41 731.31,-300.47 729.54,-290.03 723.41,-293.41"/>
</g>
<!-- Node38&#45;&gt;Node9 -->
<g id="edge39" class="edge">
<title>Node38&#45;&gt;Node9</title>
<path fill="none" stroke="midnightblue" d="M437.23,-113.5C455.71,-113.5 475.9,-113.5 494.34,-113.5"/>
<polygon fill="midnightblue" stroke="midnightblue" points="494.39,-117 504.39,-113.5 494.39,-110 494.39,-117"/>
</g>
<!-- Node8 -->
<g id="node33" class="node">
<title>Node8</title>
<g id="a_node33"><a xlink:href="classflow_1_1log_1_1Log__context.html#a8a5fef42dc2cedf3c0d1a6e83beb2948" target="_top" xlink:title="Returns reference to the stored Component object, particularly as many FLOW_LOG_*() macros expect.">
<polygon fill="white" stroke="black" points="504.5,-55.5 504.5,-81.5 611.5,-81.5 611.5,-55.5 504.5,-55.5"/>
<text text-anchor="start" x="512.5" y="-71.1" font-family="Helvetica,sans-Serif" font-size="8.00">flow::log::Log_context</text>
<text text-anchor="middle" x="558" y="-62.1" font-family="Helvetica,sans-Serif" font-size="8.00">::get_log_component</text>
</a>
</g>
</g>
<!-- Node38&#45;&gt;Node8 -->
<g id="edge38" class="edge">
<title>Node38&#45;&gt;Node8</title>
<path fill="none" stroke="midnightblue" d="M426.93,-100.48C447.99,-95.31 472.37,-89.31 494.31,-83.92"/>
<polygon fill="midnightblue" stroke="midnightblue" points="495.31,-87.27 504.19,-81.49 493.64,-80.48 495.31,-87.27"/>
</g>
</g>
</svg>
