<?xml version="1.0" encoding="UTF-8" standalone="no"?>
<!DOCTYPE svg PUBLIC "-//W3C//DTD SVG 1.1//EN"
 "http://www.w3.org/Graphics/SVG/1.1/DTD/svg11.dtd">
<!-- Generated by graphviz version 2.43.0 (0)
 -->
<!-- Title: flow::util::Linked_hash_map::find Pages: 1 -->
<svg width="239pt" height="80pt"
 viewBox="0.00 0.00 239.00 80.00" xmlns="http://www.w3.org/2000/svg" xmlns:xlink="http://www.w3.org/1999/xlink">
<g id="graph0" class="graph" transform="scale(1 1) rotate(0) translate(4 76)">
<title>flow::util::Linked_hash_map::find</title>
<polygon fill="white" stroke="transparent" points="-4,4 -4,-76 235,-76 235,4 -4,4"/>
<!-- Node1 -->
<g id="node1" class="node">
<title>Node1</title>
<g id="a_node1"><a xlink:title="Attempts to find value at the given key in the map.">
<polygon fill="#bfbfbf" stroke="black" points="146,-22.5 146,-48.5 231,-48.5 231,-22.5 146,-22.5"/>
<text text-anchor="start" x="154" y="-38.1" font-family="Helvetica,sans-Serif" font-size="8.00">flow::util::Linked</text>
<text text-anchor="middle" x="188.5" y="-29.1" font-family="Helvetica,sans-Serif" font-size="8.00">_hash_map::find</text>
</a>
</g>
</g>
<!-- Node1&#45;&gt;Node1 -->
<g id="edge2" class="edge">
<title>Node1&#45;&gt;Node1</title>
<path fill="none" stroke="midnightblue" d="M212.26,-58.94C209.62,-63.64 201.7,-67 188.5,-67 166.84,-67 159.4,-57.96 166.17,-48.77"/>
<polygon fill="midnightblue" stroke="midnightblue" points="215.69,-58.19 210.83,-48.77 208.75,-59.16 215.69,-58.19"/>
</g>
<!-- Node2 -->
<g id="node2" class="node">
<title>Node2</title>
<g id="a_node2"><a xlink:href="classflow_1_1util_1_1Linked__hash__map.html#ad3e9ea0a2c3675577b4582b6a7f59312" target="_top" xlink:title="Erases the element with the given key, if it exists.">
<polygon fill="white" stroke="black" points="9,-45.5 9,-71.5 101,-71.5 101,-45.5 9,-45.5"/>
<text text-anchor="start" x="17" y="-61.1" font-family="Helvetica,sans-Serif" font-size="8.00">flow::util::Linked</text>
<text text-anchor="middle" x="55" y="-52.1" font-family="Helvetica,sans-Serif" font-size="8.00">_hash_map::erase</text>
</a>
</g>
</g>
<!-- Node1&#45;&gt;Node2 -->
<g id="edge1" class="edge">
<title>Node1&#45;&gt;Node2</title>
<path fill="none" stroke="midnightblue" d="M135.7,-44.56C124.38,-46.54 112.49,-48.62 101.44,-50.55"/>
<polygon fill="midnightblue" stroke="midnightblue" points="136.65,-47.95 145.89,-42.78 135.44,-41.05 136.65,-47.95"/>
</g>
<!-- Node3 -->
<g id="node3" class="node">
<title>Node3</title>
<g id="a_node3"><a xlink:href="classflow_1_1util_1_1Linked__hash__map.html#ae8766bd2c286c40e1036cf3836558d55" target="_top" xlink:title="Identical to the other overload, except that (if key not already present in *this) the key is moved,...">
<polygon fill="white" stroke="black" points="0,-0.5 0,-26.5 110,-26.5 110,-0.5 0,-0.5"/>
<text text-anchor="start" x="8" y="-16.1" font-family="Helvetica,sans-Serif" font-size="8.00">flow::util::Linked</text>
<text text-anchor="middle" x="55" y="-7.1" font-family="Helvetica,sans-Serif" font-size="8.00">_hash_map::operator[]</text>
</a>
</g>
</g>
<!-- Node1&#45;&gt;Node3 -->
<g id="edge3" class="edge">
<title>Node1&#45;&gt;Node3</title>
<path fill="none" stroke="midnightblue" d="M135.87,-26.86C127.49,-25.46 118.78,-24 110.34,-22.59"/>
<polygon fill="midnightblue" stroke="midnightblue" points="135.45,-30.34 145.89,-28.54 136.61,-23.44 135.45,-30.34"/>
</g>
</g>
</svg>
