<?xml version="1.0" encoding="UTF-8" standalone="no"?>
<!DOCTYPE svg PUBLIC "-//W3C//DTD SVG 1.1//EN"
 "http://www.w3.org/Graphics/SVG/1.1/DTD/svg11.dtd">
<!-- Generated by graphviz version 2.43.0 (0)
 -->
<!-- Title: flow::net_flow::Event_set::close Pages: 1 -->
<svg width="531pt" height="119pt"
 viewBox="0.00 0.00 531.00 118.50" xmlns="http://www.w3.org/2000/svg" xmlns:xlink="http://www.w3.org/1999/xlink">
<g id="graph0" class="graph" transform="scale(1 1) rotate(0) translate(4 114.5)">
<title>flow::net_flow::Event_set::close</title>
<polygon fill="white" stroke="transparent" points="-4,4 -4,-114.5 527,-114.5 527,4 -4,4"/>
<!-- Node1 -->
<g id="node1" class="node">
<title>Node1</title>
<g id="a_node1"><a xlink:title="Clears all stored resources (any desired events, result events, and any handler saved by async_wait()...">
<polygon fill="#bfbfbf" stroke="black" points="0,-22.5 0,-48.5 102,-48.5 102,-22.5 0,-22.5"/>
<text text-anchor="start" x="8" y="-38.1" font-family="Helvetica,sans-Serif" font-size="8.00">flow::net_flow::Event</text>
<text text-anchor="middle" x="51" y="-29.1" font-family="Helvetica,sans-Serif" font-size="8.00">_set::close</text>
</a>
</g>
</g>
<!-- Node1&#45;&gt;Node1 -->
<g id="edge1" class="edge">
<title>Node1&#45;&gt;Node1</title>
<path fill="none" stroke="midnightblue" d="M27.65,-48.77C20.58,-57.96 28.36,-67 51,-67 64.8,-67 73.08,-63.64 75.84,-58.94"/>
<polygon fill="midnightblue" stroke="midnightblue" points="79.26,-58.16 74.35,-48.77 72.33,-59.17 79.26,-58.16"/>
</g>
<!-- Node2 -->
<g id="node2" class="node">
<title>Node2</title>
<g id="a_node2"><a xlink:href="classflow_1_1net__flow_1_1Node.html#a44ee0d42d38f3b98d032dee1549f8c4c" target="_top" xlink:title="Implementation of Event_set::close() when Event_set::state() != Event_set::State::S_CLOSED for event_...">
<polygon fill="white" stroke="black" points="139.5,-45.5 139.5,-71.5 240.5,-71.5 240.5,-45.5 139.5,-45.5"/>
<text text-anchor="start" x="147.5" y="-61.1" font-family="Helvetica,sans-Serif" font-size="8.00">flow::net_flow::Node</text>
<text text-anchor="middle" x="190" y="-52.1" font-family="Helvetica,sans-Serif" font-size="8.00">::event_set_close</text>
</a>
</g>
</g>
<!-- Node1&#45;&gt;Node2 -->
<g id="edge2" class="edge">
<title>Node1&#45;&gt;Node2</title>
<path fill="none" stroke="midnightblue" d="M102.24,-43.93C111,-45.41 120.2,-46.95 129.19,-48.46"/>
<polygon fill="midnightblue" stroke="midnightblue" points="128.79,-51.94 139.23,-50.14 129.95,-45.04 128.79,-51.94"/>
</g>
<!-- Node7 -->
<g id="node7" class="node">
<title>Node7</title>
<g id="a_node7"><a xlink:href="namespaceflow_1_1error.html#a48afa7f8c2e100acd461365dfb00a114" target="_top" xlink:title="Equivalent of exec_and_throw_on_error() for operations with void return type.">
<polygon fill="white" stroke="black" points="138,-0.5 138,-26.5 242,-26.5 242,-0.5 138,-0.5"/>
<text text-anchor="start" x="146" y="-16.1" font-family="Helvetica,sans-Serif" font-size="8.00">flow::error::exec_void</text>
<text text-anchor="middle" x="190" y="-7.1" font-family="Helvetica,sans-Serif" font-size="8.00">_and_throw_on_error</text>
</a>
</g>
</g>
<!-- Node1&#45;&gt;Node7 -->
<g id="edge7" class="edge">
<title>Node1&#45;&gt;Node7</title>
<path fill="none" stroke="midnightblue" d="M102.24,-27.43C110.58,-26.09 119.31,-24.69 127.89,-23.31"/>
<polygon fill="midnightblue" stroke="midnightblue" points="128.53,-26.75 137.85,-21.71 127.42,-19.84 128.53,-26.75"/>
</g>
<!-- Node3 -->
<g id="node3" class="node">
<title>Node3</title>
<g id="a_node3"><a xlink:href="namespaceflow_1_1async.html#a24567271e97a67d3cae6bd8bf8dc63c4" target="_top" xlink:title="An extension of boost.asio&#39;s post() and dispatch() free function templates, this free function templa...">
<polygon fill="white" stroke="black" points="278,-68.5 278,-94.5 387,-94.5 387,-68.5 278,-68.5"/>
<text text-anchor="start" x="286" y="-84.1" font-family="Helvetica,sans-Serif" font-size="8.00">flow::async::asio_exec</text>
<text text-anchor="middle" x="332.5" y="-75.1" font-family="Helvetica,sans-Serif" font-size="8.00">_ctx_post</text>
</a>
</g>
</g>
<!-- Node2&#45;&gt;Node3 -->
<g id="edge3" class="edge">
<title>Node2&#45;&gt;Node3</title>
<path fill="none" stroke="midnightblue" d="M240.54,-66.61C249.26,-68.04 258.45,-69.54 267.51,-71.02"/>
<polygon fill="midnightblue" stroke="midnightblue" points="267.2,-74.52 277.64,-72.68 268.33,-67.61 267.2,-74.52"/>
</g>
<!-- Node6 -->
<g id="node6" class="node">
<title>Node6</title>
<g id="a_node6"><a xlink:href="classflow_1_1log_1_1Log__context.html#af4db395042b065b00398cd59845dcb4d" target="_top" xlink:title="Returns the stored Logger pointer, particularly as many FLOW_LOG_*() macros expect.">
<polygon fill="white" stroke="black" points="279,-23.5 279,-49.5 386,-49.5 386,-23.5 279,-23.5"/>
<text text-anchor="start" x="287" y="-39.1" font-family="Helvetica,sans-Serif" font-size="8.00">flow::log::Log_context</text>
<text text-anchor="middle" x="332.5" y="-30.1" font-family="Helvetica,sans-Serif" font-size="8.00">::get_logger</text>
</a>
</g>
</g>
<!-- Node2&#45;&gt;Node6 -->
<g id="edge6" class="edge">
<title>Node2&#45;&gt;Node6</title>
<path fill="none" stroke="midnightblue" d="M240.54,-50.74C249.59,-49.33 259.14,-47.83 268.52,-46.36"/>
<polygon fill="midnightblue" stroke="midnightblue" points="269.26,-49.79 278.6,-44.78 268.18,-42.87 269.26,-49.79"/>
</g>
<!-- Node4 -->
<g id="node4" class="node">
<title>Node4</title>
<g id="a_node4"><a xlink:href="namespaceflow_1_1async.html#a4cce43f39672e80cba5512103c53ae60" target="_top" xlink:title="Returns the 0&#45;based processor logical (not hardware) core index of the core executing the calling thr...">
<polygon fill="white" stroke="black" points="423,-93 423,-110 523,-110 523,-93 423,-93"/>
<text text-anchor="middle" x="473" y="-99.6" font-family="Helvetica,sans-Serif" font-size="8.00">flow::async::cpu_idx</text>
</a>
</g>
</g>
<!-- Node3&#45;&gt;Node4 -->
<g id="edge4" class="edge">
<title>Node3&#45;&gt;Node4</title>
<path fill="none" stroke="midnightblue" d="M387.05,-89.23C395.47,-90.45 404.23,-91.71 412.77,-92.95"/>
<polygon fill="midnightblue" stroke="midnightblue" points="412.28,-96.41 422.67,-94.38 413.28,-89.48 412.28,-96.41"/>
</g>
<!-- Node5 -->
<g id="node5" class="node">
<title>Node5</title>
<g id="a_node5"><a xlink:href="classflow_1_1log_1_1Logger.html#ac8a2e7a33fe3fbc0c29ead62ed98c022" target="_top" xlink:title="Given attributes of a hypothetical message that would be logged, return true if that message should b...">
<polygon fill="white" stroke="black" points="427,-47.5 427,-73.5 519,-73.5 519,-47.5 427,-47.5"/>
<text text-anchor="start" x="435" y="-63.1" font-family="Helvetica,sans-Serif" font-size="8.00">flow::log::Logger::</text>
<text text-anchor="middle" x="473" y="-54.1" font-family="Helvetica,sans-Serif" font-size="8.00">should_log</text>
</a>
</g>
</g>
<!-- Node3&#45;&gt;Node5 -->
<g id="edge5" class="edge">
<title>Node3&#45;&gt;Node5</title>
<path fill="none" stroke="midnightblue" d="M387.05,-73.38C396.77,-71.91 406.92,-70.37 416.68,-68.89"/>
<polygon fill="midnightblue" stroke="midnightblue" points="417.33,-72.33 426.69,-67.37 416.28,-65.41 417.33,-72.33"/>
</g>
</g>
</svg>
