<?xml version="1.0" encoding="UTF-8" standalone="no"?>
<!DOCTYPE svg PUBLIC "-//W3C//DTD SVG 1.1//EN"
 "http://www.w3.org/Graphics/SVG/1.1/DTD/svg11.dtd">
<!-- Generated by graphviz version 2.43.0 (0)
 -->
<!-- Title: flow::net_flow::Node::sock_pacing_time_slice_end Pages: 1 -->
<svg width="774pt" height="126pt"
 viewBox="0.00 0.00 774.00 126.00" xmlns="http://www.w3.org/2000/svg" xmlns:xlink="http://www.w3.org/1999/xlink">
<g id="graph0" class="graph" transform="scale(1 1) rotate(0) translate(4 122)">
<title>flow::net_flow::Node::sock_pacing_time_slice_end</title>
<polygon fill="white" stroke="transparent" points="-4,4 -4,-122 770,-122 770,4 -4,4"/>
<!-- Node1 -->
<g id="node1" class="node">
<title>Node1</title>
<g id="a_node1"><a xlink:title="async_sock_low_lvl_packet_send_paced() pacing helper: If sock_pacing_process_q() ran out of the last ...">
<polygon fill="#bfbfbf" stroke="black" points="0,-45.5 0,-71.5 137,-71.5 137,-45.5 0,-45.5"/>
<text text-anchor="start" x="8" y="-61.1" font-family="Helvetica,sans-Serif" font-size="8.00">flow::net_flow::Node</text>
<text text-anchor="middle" x="68.5" y="-52.1" font-family="Helvetica,sans-Serif" font-size="8.00">::sock_pacing_time_slice_end</text>
</a>
</g>
</g>
<!-- Node2 -->
<g id="node2" class="node">
<title>Node2</title>
<g id="a_node2"><a xlink:href="classflow_1_1net__flow_1_1Node.html#afb88dafa8ec5c1b412de86dfdccd9c8f" target="_top" xlink:title="async_sock_low_lvl_packet_send_paced() pacing helper: Resets the socket&#39;s Send_pacing_data structure ...">
<polygon fill="white" stroke="black" points="327,-91.5 327,-117.5 465,-117.5 465,-91.5 327,-91.5"/>
<text text-anchor="start" x="335" y="-107.1" font-family="Helvetica,sans-Serif" font-size="8.00">flow::net_flow::Node</text>
<text text-anchor="middle" x="396" y="-98.1" font-family="Helvetica,sans-Serif" font-size="8.00">::sock_pacing_new_time_slice</text>
</a>
</g>
</g>
<!-- Node1&#45;&gt;Node2 -->
<g id="edge1" class="edge">
<title>Node1&#45;&gt;Node2</title>
<path fill="none" stroke="midnightblue" d="M125.71,-71.53C140.99,-74.78 157.58,-78.03 173,-80.5 220.49,-88.09 274.08,-93.96 316.72,-98"/>
<polygon fill="midnightblue" stroke="midnightblue" points="316.47,-101.49 326.75,-98.93 317.12,-94.52 316.47,-101.49"/>
</g>
<!-- Node4 -->
<g id="node4" class="node">
<title>Node4</title>
<g id="a_node4"><a xlink:href="classflow_1_1net__flow_1_1Node.html#a73cfaa8e5ed7fe845f759a30423a9cbf" target="_top" xlink:title="async_sock_low_lvl_packet_send_paced() pacing helper: Given that we are currently in the pacing time ...">
<polygon fill="white" stroke="black" points="173,-45.5 173,-71.5 291,-71.5 291,-45.5 173,-45.5"/>
<text text-anchor="start" x="181" y="-61.1" font-family="Helvetica,sans-Serif" font-size="8.00">flow::net_flow::Node</text>
<text text-anchor="middle" x="232" y="-52.1" font-family="Helvetica,sans-Serif" font-size="8.00">::sock_pacing_process_q</text>
</a>
</g>
</g>
<!-- Node1&#45;&gt;Node4 -->
<g id="edge3" class="edge">
<title>Node1&#45;&gt;Node4</title>
<path fill="none" stroke="midnightblue" d="M137.05,-51.83C145.53,-51.73 154.21,-51.72 162.71,-51.82"/>
<polygon fill="midnightblue" stroke="midnightblue" points="162.89,-55.33 172.94,-51.99 163,-48.33 162.89,-55.33"/>
</g>
<!-- Node3 -->
<g id="node3" class="node">
<title>Node3</title>
<g id="a_node3"><a xlink:href="classflow_1_1net__flow_1_1Node.html#a43c42121d48a55a43a48e3a84bd10595" target="_top" xlink:title="Obtain a copy of the value of a given option in a thread&#45;safe manner.">
<polygon fill="white" stroke="black" points="646,-93 646,-110 766,-110 766,-93 646,-93"/>
<text text-anchor="middle" x="706" y="-99.6" font-family="Helvetica,sans-Serif" font-size="8.00">flow::net_flow::Node::opt</text>
</a>
</g>
</g>
<!-- Node2&#45;&gt;Node3 -->
<g id="edge2" class="edge">
<title>Node2&#45;&gt;Node3</title>
<path fill="none" stroke="midnightblue" d="M465.36,-103.83C516.01,-103.34 584.79,-102.67 635.67,-102.18"/>
<polygon fill="midnightblue" stroke="midnightblue" points="635.95,-105.67 645.92,-102.08 635.89,-98.67 635.95,-105.67"/>
</g>
<!-- Node4&#45;&gt;Node1 -->
<g id="edge9" class="edge">
<title>Node4&#45;&gt;Node1</title>
<path fill="none" stroke="midnightblue" d="M172.94,-65.01C164.58,-65.19 155.86,-65.27 147.19,-65.25"/>
<polygon fill="midnightblue" stroke="midnightblue" points="147.08,-61.74 137.05,-65.17 147.03,-68.74 147.08,-61.74"/>
</g>
<!-- Node5 -->
<g id="node5" class="node">
<title>Node5</title>
<g id="a_node5"><a xlink:href="classflow_1_1net__flow_1_1Node.html#a0db2bb587e0407077b11368df075f0ff" target="_top" xlink:title="async_low_lvl_packet_send_impl() wrapper to call when packet is to be sent to the remote side of the ...">
<polygon fill="white" stroke="black" points="345.5,-37 345.5,-72 446.5,-72 446.5,-37 345.5,-37"/>
<text text-anchor="start" x="353.5" y="-61.6" font-family="Helvetica,sans-Serif" font-size="8.00">flow::net_flow::Node</text>
<text text-anchor="start" x="353.5" y="-52.6" font-family="Helvetica,sans-Serif" font-size="8.00">::async_sock_low_lvl</text>
<text text-anchor="middle" x="396" y="-43.6" font-family="Helvetica,sans-Serif" font-size="8.00">_packet_send</text>
</a>
</g>
</g>
<!-- Node4&#45;&gt;Node5 -->
<g id="edge4" class="edge">
<title>Node4&#45;&gt;Node5</title>
<path fill="none" stroke="midnightblue" d="M291.03,-57.07C305.35,-56.71 320.71,-56.33 335.12,-55.98"/>
<polygon fill="midnightblue" stroke="midnightblue" points="335.5,-59.47 345.41,-55.72 335.32,-52.47 335.5,-59.47"/>
</g>
<!-- Node6 -->
<g id="node6" class="node">
<title>Node6</title>
<g id="a_node6"><a xlink:href="classflow_1_1net__flow_1_1Node.html#a9f302fe63e36f72931e1a759b0aaaed4" target="_top" xlink:title="Takes given low&#45;level packet structure, serializes it, and initiates asynchronous send of these data ...">
<polygon fill="white" stroke="black" points="501,-39 501,-74 610,-74 610,-39 501,-39"/>
<text text-anchor="start" x="509" y="-63.6" font-family="Helvetica,sans-Serif" font-size="8.00">flow::net_flow::Node</text>
<text text-anchor="start" x="509" y="-54.6" font-family="Helvetica,sans-Serif" font-size="8.00">::async_low_lvl_packet</text>
<text text-anchor="middle" x="555.5" y="-45.6" font-family="Helvetica,sans-Serif" font-size="8.00">_send_impl</text>
</a>
</g>
</g>
<!-- Node5&#45;&gt;Node6 -->
<g id="edge5" class="edge">
<title>Node5&#45;&gt;Node6</title>
<path fill="none" stroke="midnightblue" d="M446.83,-55.13C460.82,-55.31 476.22,-55.51 490.89,-55.69"/>
<polygon fill="midnightblue" stroke="midnightblue" points="490.86,-59.19 500.9,-55.82 490.95,-52.19 490.86,-59.19"/>
</g>
<!-- Node6&#45;&gt;Node3 -->
<g id="edge8" class="edge">
<title>Node6&#45;&gt;Node3</title>
<path fill="none" stroke="midnightblue" d="M610.11,-72.75C629,-78.47 649.83,-84.78 667.14,-90.03"/>
<polygon fill="midnightblue" stroke="midnightblue" points="666.31,-93.43 676.89,-92.98 668.34,-86.73 666.31,-93.43"/>
</g>
<!-- Node7 -->
<g id="node7" class="node">
<title>Node7</title>
<g id="a_node7"><a xlink:href="classflow_1_1net__flow_1_1Node.html#a0055a25892990585561e69ceb02214d5" target="_top" xlink:title="Completion handler for async_low_lvl_packet_send_impl(); called when the packet is either successfull...">
<polygon fill="white" stroke="red" points="654.5,-45.5 654.5,-71.5 757.5,-71.5 757.5,-45.5 654.5,-45.5"/>
<text text-anchor="start" x="662.5" y="-61.1" font-family="Helvetica,sans-Serif" font-size="8.00">flow::net_flow::Node</text>
<text text-anchor="middle" x="706" y="-52.1" font-family="Helvetica,sans-Serif" font-size="8.00">::low_lvl_packet_sent</text>
</a>
</g>
</g>
<!-- Node6&#45;&gt;Node7 -->
<g id="edge6" class="edge">
<title>Node6&#45;&gt;Node7</title>
<path fill="none" stroke="midnightblue" d="M610.11,-57.22C621.18,-57.37 632.91,-57.53 644.21,-57.68"/>
<polygon fill="midnightblue" stroke="midnightblue" points="644.39,-61.18 654.44,-57.82 644.49,-54.18 644.39,-61.18"/>
</g>
<!-- Node10 -->
<g id="node8" class="node">
<title>Node10</title>
<g id="a_node8"><a xlink:href="classflow_1_1net__flow_1_1Node.html#a2983d0d8a4d4eb5c3402f63f68ef44d8" target="_top" xlink:title="Performs important book&#45;keeping based on the event &quot;DATA packet was sent to destination....">
<polygon fill="white" stroke="red" points="646.5,-0.5 646.5,-26.5 765.5,-26.5 765.5,-0.5 646.5,-0.5"/>
<text text-anchor="start" x="654.5" y="-16.1" font-family="Helvetica,sans-Serif" font-size="8.00">flow::net_flow::Node</text>
<text text-anchor="middle" x="706" y="-7.1" font-family="Helvetica,sans-Serif" font-size="8.00">::mark_data_packet_sent</text>
</a>
</g>
</g>
<!-- Node6&#45;&gt;Node10 -->
<g id="edge7" class="edge">
<title>Node6&#45;&gt;Node10</title>
<path fill="none" stroke="midnightblue" d="M610.11,-40.98C623.09,-37.22 636.98,-33.2 650.01,-29.42"/>
<polygon fill="midnightblue" stroke="midnightblue" points="651.16,-32.73 659.79,-26.59 649.21,-26.01 651.16,-32.73"/>
</g>
</g>
</svg>
