<?xml version="1.0" encoding="UTF-8" standalone="no"?>
<!DOCTYPE svg PUBLIC "-//W3C//DTD SVG 1.1//EN"
 "http://www.w3.org/Graphics/SVG/1.1/DTD/svg11.dtd">
<!-- Generated by graphviz version 2.43.0 (0)
 -->
<!-- Title: flow::util::Basic_blob::share_after_split_left Pages: 1 -->
<svg width="243pt" height="35pt"
 viewBox="0.00 0.00 243.00 35.00" xmlns="http://www.w3.org/2000/svg" xmlns:xlink="http://www.w3.org/1999/xlink">
<g id="graph0" class="graph" transform="scale(1 1) rotate(0) translate(4 31)">
<title>flow::util::Basic_blob::share_after_split_left</title>
<polygon fill="white" stroke="transparent" points="-4,4 -4,-31 239,-31 239,4 -4,4"/>
<!-- Node1 -->
<g id="node1" class="node">
<title>Node1</title>
<g id="a_node1"><a xlink:title="Applicable to !zero() blobs, this shifts this&#45;&gt;begin() by size to the right without changing end(); a...">
<polygon fill="#bfbfbf" stroke="black" points="0,-0.5 0,-26.5 107,-26.5 107,-0.5 0,-0.5"/>
<text text-anchor="start" x="8" y="-16.1" font-family="Helvetica,sans-Serif" font-size="8.00">flow::util::Basic_blob</text>
<text text-anchor="middle" x="53.5" y="-7.1" font-family="Helvetica,sans-Serif" font-size="8.00">::share_after_split_left</text>
</a>
</g>
</g>
<!-- Node2 -->
<g id="node2" class="node">
<title>Node2</title>
<g id="a_node2"><a xlink:href="classflow_1_1log_1_1Logger.html#ac8a2e7a33fe3fbc0c29ead62ed98c022" target="_top" xlink:title="Given attributes of a hypothetical message that would be logged, return true if that message should b...">
<polygon fill="white" stroke="black" points="143,-0.5 143,-26.5 235,-26.5 235,-0.5 143,-0.5"/>
<text text-anchor="start" x="151" y="-16.1" font-family="Helvetica,sans-Serif" font-size="8.00">flow::log::Logger::</text>
<text text-anchor="middle" x="189" y="-7.1" font-family="Helvetica,sans-Serif" font-size="8.00">should_log</text>
</a>
</g>
</g>
<!-- Node1&#45;&gt;Node2 -->
<g id="edge1" class="edge">
<title>Node1&#45;&gt;Node2</title>
<path fill="none" stroke="midnightblue" d="M107.26,-13.5C115.66,-13.5 124.36,-13.5 132.81,-13.5"/>
<polygon fill="midnightblue" stroke="midnightblue" points="132.95,-17 142.95,-13.5 132.95,-10 132.95,-17"/>
</g>
</g>
</svg>
