<?xml version="1.0" encoding="UTF-8" standalone="no"?>
<!DOCTYPE svg PUBLIC "-//W3C//DTD SVG 1.1//EN"
 "http://www.w3.org/Graphics/SVG/1.1/DTD/svg11.dtd">
<!-- Generated by graphviz version 2.43.0 (0)
 -->
<!-- Title: flow::net_flow::Event_set::sync_wait Pages: 1 -->
<svg width="734pt" height="265pt"
 viewBox="0.00 0.00 734.00 264.50" xmlns="http://www.w3.org/2000/svg" xmlns:xlink="http://www.w3.org/1999/xlink">
<g id="graph0" class="graph" transform="scale(1 1) rotate(0) translate(4 260.5)">
<title>flow::net_flow::Event_set::sync_wait</title>
<polygon fill="white" stroke="transparent" points="-4,4 -4,-260.5 730,-260.5 730,4 -4,4"/>
<!-- Node1 -->
<g id="node1" class="node">
<title>Node1</title>
<g id="a_node1"><a xlink:title="Same as the other sync_wait() but will stop waiting if the timeout given as argument expires.">
<polygon fill="#bfbfbf" stroke="black" points="0,-161.5 0,-187.5 102,-187.5 102,-161.5 0,-161.5"/>
<text text-anchor="start" x="8" y="-177.1" font-family="Helvetica,sans-Serif" font-size="8.00">flow::net_flow::Event</text>
<text text-anchor="middle" x="51" y="-168.1" font-family="Helvetica,sans-Serif" font-size="8.00">_set::sync_wait</text>
</a>
</g>
</g>
<!-- Node2 -->
<g id="node2" class="node">
<title>Node2</title>
<g id="a_node2"><a xlink:href="namespaceflow_1_1util.html#aa60d3ba517b5f5cf408faa92d269256a" target="_top" xlink:title="Helper that takes a non&#45;negative duration of arbitrary precision/period and converts it to Fine_durat...">
<polygon fill="white" stroke="black" points="138,-184.5 138,-210.5 263,-210.5 263,-184.5 138,-184.5"/>
<text text-anchor="start" x="146" y="-200.1" font-family="Helvetica,sans-Serif" font-size="8.00">flow::util::chrono</text>
<text text-anchor="middle" x="200.5" y="-191.1" font-family="Helvetica,sans-Serif" font-size="8.00">_duration_to_fine_duration</text>
</a>
</g>
</g>
<!-- Node1&#45;&gt;Node2 -->
<g id="edge1" class="edge">
<title>Node1&#45;&gt;Node2</title>
<path fill="none" stroke="midnightblue" d="M102.35,-182.35C110.57,-183.63 119.22,-184.98 127.83,-186.32"/>
<polygon fill="midnightblue" stroke="midnightblue" points="127.47,-189.81 137.89,-187.89 128.55,-182.89 127.47,-189.81"/>
</g>
<!-- Node3 -->
<g id="node3" class="node">
<title>Node3</title>
<g id="a_node3"><a xlink:href="classflow_1_1net__flow_1_1Event__set.html#a13a17c404f0ce43da5fec53a550da9be" target="_top" xlink:title="Same as the public sync_wait(max_wait) but uses a Fine_clock&#45;based Fine_duration non&#45;template type fo...">
<polygon fill="white" stroke="black" points="149.5,-139.5 149.5,-165.5 251.5,-165.5 251.5,-139.5 149.5,-139.5"/>
<text text-anchor="start" x="157.5" y="-155.1" font-family="Helvetica,sans-Serif" font-size="8.00">flow::net_flow::Event</text>
<text text-anchor="middle" x="200.5" y="-146.1" font-family="Helvetica,sans-Serif" font-size="8.00">_set::sync_wait_impl</text>
</a>
</g>
</g>
<!-- Node1&#45;&gt;Node3 -->
<g id="edge2" class="edge">
<title>Node1&#45;&gt;Node3</title>
<path fill="none" stroke="midnightblue" d="M102.35,-166.99C114.22,-165.22 126.98,-163.32 139.24,-161.49"/>
<polygon fill="midnightblue" stroke="midnightblue" points="140,-164.91 149.38,-159.98 138.97,-157.99 140,-164.91"/>
</g>
<!-- Node4 -->
<g id="node4" class="node">
<title>Node4</title>
<g id="a_node4"><a xlink:href="classflow_1_1net__flow_1_1Event__set.html#a43dfb881ab3a9488a6a60dd83ad21c85" target="_top" xlink:title="Moves object to State::S_WAITING state, saves the given handler to be executed later (in a different,...">
<polygon fill="white" stroke="black" points="303,-171.5 303,-197.5 405,-197.5 405,-171.5 303,-171.5"/>
<text text-anchor="start" x="311" y="-187.1" font-family="Helvetica,sans-Serif" font-size="8.00">flow::net_flow::Event</text>
<text text-anchor="middle" x="354" y="-178.1" font-family="Helvetica,sans-Serif" font-size="8.00">_set::async_wait</text>
</a>
</g>
</g>
<!-- Node3&#45;&gt;Node4 -->
<g id="edge3" class="edge">
<title>Node3&#45;&gt;Node4</title>
<path fill="none" stroke="midnightblue" d="M251.53,-163.07C264.77,-165.86 279.21,-168.91 292.93,-171.81"/>
<polygon fill="midnightblue" stroke="midnightblue" points="292.26,-175.25 302.77,-173.89 293.71,-168.4 292.26,-175.25"/>
</g>
<!-- Node5 -->
<g id="node5" class="node">
<title>Node5</title>
<g id="a_node5"><a xlink:href="classflow_1_1net__flow_1_1Event__set.html#aed9505b886c78169fe35b527f4e01855" target="_top" xlink:title="Functional helper that checks whether a given pair in an Ev_type_to_socks_map contains an empty set o...">
<polygon fill="white" stroke="black" points="454.5,-221 454.5,-256 564.5,-256 564.5,-221 454.5,-221"/>
<text text-anchor="start" x="462.5" y="-245.6" font-family="Helvetica,sans-Serif" font-size="8.00">flow::net_flow::Event</text>
<text text-anchor="start" x="462.5" y="-236.6" font-family="Helvetica,sans-Serif" font-size="8.00">_set::ev_type_to_socks</text>
<text text-anchor="middle" x="509.5" y="-227.6" font-family="Helvetica,sans-Serif" font-size="8.00">_map_entry_is_empty</text>
</a>
</g>
</g>
<!-- Node3&#45;&gt;Node5 -->
<g id="edge10" class="edge">
<title>Node3&#45;&gt;Node5</title>
<path fill="none" stroke="midnightblue" d="M246.17,-165.58C252.13,-168.34 257.93,-171.62 263,-175.5 284.76,-192.12 275.03,-212.27 299,-225.5 343.01,-249.79 400.42,-251.68 444.01,-248.25"/>
<polygon fill="midnightblue" stroke="midnightblue" points="444.56,-251.72 454.21,-247.34 443.94,-244.75 444.56,-251.72"/>
</g>
<!-- Node8 -->
<g id="node8" class="node">
<title>Node8</title>
<g id="a_node8"><a xlink:href="classflow_1_1net__flow_1_1Event__set.html#a3122100c044da08495fac737998f60db" target="_top" xlink:title="Moves object from State::S_WAITING to State::S_INACTIVE, and forgets any handler saved by async_wait(...">
<polygon fill="white" stroke="black" points="299,-108.5 299,-134.5 409,-134.5 409,-108.5 299,-108.5"/>
<text text-anchor="start" x="307" y="-124.1" font-family="Helvetica,sans-Serif" font-size="8.00">flow::net_flow::Event</text>
<text text-anchor="middle" x="354" y="-115.1" font-family="Helvetica,sans-Serif" font-size="8.00">_set::async_wait_finish</text>
</a>
</g>
</g>
<!-- Node3&#45;&gt;Node8 -->
<g id="edge8" class="edge">
<title>Node3&#45;&gt;Node8</title>
<path fill="none" stroke="midnightblue" d="M251.53,-142.26C263.5,-139.81 276.44,-137.17 288.94,-134.61"/>
<polygon fill="midnightblue" stroke="midnightblue" points="289.76,-138.01 298.85,-132.58 288.35,-131.16 289.76,-138.01"/>
</g>
<!-- Node9 -->
<g id="node9" class="node">
<title>Node9</title>
<g id="a_node9"><a xlink:href="classflow_1_1net__flow_1_1Event__set.html#a412214de6a4f3a1ff1e86ddb1975f47b" target="_top" xlink:title="Checks for all previously described events that currently hold, saves them for retrieval via emit_res...">
<polygon fill="white" stroke="black" points="303,-45.5 303,-71.5 405,-71.5 405,-45.5 303,-45.5"/>
<text text-anchor="start" x="311" y="-61.1" font-family="Helvetica,sans-Serif" font-size="8.00">flow::net_flow::Event</text>
<text text-anchor="middle" x="354" y="-52.1" font-family="Helvetica,sans-Serif" font-size="8.00">_set::poll</text>
</a>
</g>
</g>
<!-- Node3&#45;&gt;Node9 -->
<g id="edge11" class="edge">
<title>Node3&#45;&gt;Node9</title>
<path fill="none" stroke="midnightblue" d="M222.57,-139.43C248.65,-123.25 293.26,-95.57 322.93,-77.16"/>
<polygon fill="midnightblue" stroke="midnightblue" points="324.97,-80.01 331.63,-71.76 321.28,-74.06 324.97,-80.01"/>
</g>
<!-- Node4&#45;&gt;Node4 -->
<g id="edge4" class="edge">
<title>Node4&#45;&gt;Node4</title>
<path fill="none" stroke="midnightblue" d="M328.28,-197.77C320.49,-206.96 329.06,-216 354,-216 369.2,-216 378.32,-212.64 381.36,-207.94"/>
<polygon fill="midnightblue" stroke="midnightblue" points="384.77,-207.09 379.72,-197.77 377.85,-208.2 384.77,-207.09"/>
</g>
<!-- Node4&#45;&gt;Node5 -->
<g id="edge5" class="edge">
<title>Node4&#45;&gt;Node5</title>
<path fill="none" stroke="midnightblue" d="M392.16,-197.57C409.24,-203.58 429.92,-210.86 449.08,-217.6"/>
<polygon fill="midnightblue" stroke="midnightblue" points="448.04,-220.94 458.63,-220.96 450.36,-214.34 448.04,-220.94"/>
</g>
<!-- Node6 -->
<g id="node6" class="node">
<title>Node6</title>
<g id="a_node6"><a xlink:href="classflow_1_1net__flow_1_1Node.html#aa18a14a4749f34d07c71bb2a1214d65f" target="_top" xlink:title="Implementation of Event_set::async_wait() when Event_set::state() == Event_set::State::S_INACTIVE.">
<polygon fill="white" stroke="black" points="454,-155.5 454,-181.5 565,-181.5 565,-155.5 454,-155.5"/>
<text text-anchor="start" x="462" y="-171.1" font-family="Helvetica,sans-Serif" font-size="8.00">flow::net_flow::Node</text>
<text text-anchor="middle" x="509.5" y="-162.1" font-family="Helvetica,sans-Serif" font-size="8.00">::event_set_async_wait</text>
</a>
</g>
</g>
<!-- Node4&#45;&gt;Node6 -->
<g id="edge6" class="edge">
<title>Node4&#45;&gt;Node6</title>
<path fill="none" stroke="midnightblue" d="M405.26,-179.26C417.54,-177.98 430.85,-176.59 443.71,-175.25"/>
<polygon fill="midnightblue" stroke="midnightblue" points="444.31,-178.71 453.89,-174.19 443.58,-171.75 444.31,-178.71"/>
</g>
<!-- Node7 -->
<g id="node7" class="node">
<title>Node7</title>
<g id="a_node7"><a xlink:href="classflow_1_1net__flow_1_1Event__set.html#a0edced1cb69b2cad299ee32e652ccea7" target="_top" xlink:title="Helper that clears each Sockets set inside an Ev_type_to_socks_map.">
<polygon fill="white" stroke="black" points="614.5,-146 614.5,-181 721.5,-181 721.5,-146 614.5,-146"/>
<text text-anchor="start" x="622.5" y="-170.6" font-family="Helvetica,sans-Serif" font-size="8.00">flow::net_flow::Event</text>
<text text-anchor="start" x="622.5" y="-161.6" font-family="Helvetica,sans-Serif" font-size="8.00">_set::clear_ev_type_to</text>
<text text-anchor="middle" x="668" y="-152.6" font-family="Helvetica,sans-Serif" font-size="8.00">_socks_map</text>
</a>
</g>
</g>
<!-- Node6&#45;&gt;Node7 -->
<g id="edge7" class="edge">
<title>Node6&#45;&gt;Node7</title>
<path fill="none" stroke="midnightblue" d="M565.24,-166.75C577.82,-166.35 591.31,-165.92 604.21,-165.51"/>
<polygon fill="midnightblue" stroke="midnightblue" points="604.52,-169 614.4,-165.18 604.29,-162 604.52,-169"/>
</g>
<!-- Node8&#45;&gt;Node8 -->
<g id="edge9" class="edge">
<title>Node8&#45;&gt;Node8</title>
<path fill="none" stroke="midnightblue" d="M328.28,-134.77C320.49,-143.96 329.06,-153 354,-153 369.2,-153 378.32,-149.64 381.36,-144.94"/>
<polygon fill="midnightblue" stroke="midnightblue" points="384.77,-144.09 379.72,-134.77 377.85,-145.2 384.77,-144.09"/>
</g>
<!-- Node9&#45;&gt;Node7 -->
<g id="edge12" class="edge">
<title>Node9&#45;&gt;Node7</title>
<path fill="none" stroke="midnightblue" d="M393.88,-71.59C446.84,-89.41 542.21,-121.51 605.07,-142.66"/>
<polygon fill="midnightblue" stroke="midnightblue" points="604.28,-146.08 614.87,-145.96 606.51,-139.45 604.28,-146.08"/>
</g>
<!-- Node9&#45;&gt;Node9 -->
<g id="edge17" class="edge">
<title>Node9&#45;&gt;Node9</title>
<path fill="none" stroke="midnightblue" d="M328.28,-71.77C320.49,-80.96 329.06,-90 354,-90 369.2,-90 378.32,-86.64 381.36,-81.94"/>
<polygon fill="midnightblue" stroke="midnightblue" points="384.77,-81.09 379.72,-71.77 377.85,-82.2 384.77,-81.09"/>
</g>
<!-- Node10 -->
<g id="node10" class="node">
<title>Node10</title>
<g id="a_node10"><a xlink:href="classflow_1_1net__flow_1_1Node.html#a2195fb7d86acfaf340b3e7e59e7e10e8" target="_top" xlink:title="Checks each desired (Event_set::m_want) event in event_set; any that holds true is saved into event_s...">
<polygon fill="white" stroke="black" points="445,-45.5 445,-71.5 574,-71.5 574,-45.5 445,-45.5"/>
<text text-anchor="start" x="453" y="-61.1" font-family="Helvetica,sans-Serif" font-size="8.00">flow::net_flow::Node</text>
<text text-anchor="middle" x="509.5" y="-52.1" font-family="Helvetica,sans-Serif" font-size="8.00">::event_set_check_baseline</text>
</a>
</g>
</g>
<!-- Node9&#45;&gt;Node10 -->
<g id="edge13" class="edge">
<title>Node9&#45;&gt;Node10</title>
<path fill="none" stroke="midnightblue" d="M405.26,-58.5C414.77,-58.5 424.9,-58.5 434.95,-58.5"/>
<polygon fill="midnightblue" stroke="midnightblue" points="434.95,-62 444.95,-58.5 434.95,-55 434.95,-62"/>
</g>
<!-- Node11 -->
<g id="node11" class="node">
<title>Node11</title>
<g id="a_node11"><a xlink:href="classflow_1_1util_1_1Linked__hash__set.html#a048a8d78c4ae3bc45c8bcede6b0e2dc6" target="_top" xlink:title="Returns true if and only if container is empty.">
<polygon fill="white" stroke="black" points="623.5,-90.5 623.5,-116.5 712.5,-116.5 712.5,-90.5 623.5,-90.5"/>
<text text-anchor="start" x="631.5" y="-106.1" font-family="Helvetica,sans-Serif" font-size="8.00">flow::util::Linked</text>
<text text-anchor="middle" x="668" y="-97.1" font-family="Helvetica,sans-Serif" font-size="8.00">_hash_set::empty</text>
</a>
</g>
</g>
<!-- Node10&#45;&gt;Node11 -->
<g id="edge14" class="edge">
<title>Node10&#45;&gt;Node11</title>
<path fill="none" stroke="midnightblue" d="M555.77,-71.52C573.91,-76.73 594.95,-82.78 613.81,-88.21"/>
<polygon fill="midnightblue" stroke="midnightblue" points="612.87,-91.58 623.45,-90.98 614.81,-84.85 612.87,-91.58"/>
</g>
<!-- Node12 -->
<g id="node12" class="node">
<title>Node12</title>
<g id="a_node12"><a xlink:href="classflow_1_1util_1_1Linked__hash__set.html#a517b9b0ac9d6ab2c56e27ba380f87180" target="_top" xlink:title="Attempts to insert the given key into the set.">
<polygon fill="white" stroke="black" points="625,-45.5 625,-71.5 711,-71.5 711,-45.5 625,-45.5"/>
<text text-anchor="start" x="633" y="-61.1" font-family="Helvetica,sans-Serif" font-size="8.00">flow::util::Linked</text>
<text text-anchor="middle" x="668" y="-52.1" font-family="Helvetica,sans-Serif" font-size="8.00">_hash_set::insert</text>
</a>
</g>
</g>
<!-- Node10&#45;&gt;Node12 -->
<g id="edge15" class="edge">
<title>Node10&#45;&gt;Node12</title>
<path fill="none" stroke="midnightblue" d="M574.15,-58.5C587.64,-58.5 601.73,-58.5 614.74,-58.5"/>
<polygon fill="midnightblue" stroke="midnightblue" points="614.91,-62 624.91,-58.5 614.91,-55 614.91,-62"/>
</g>
<!-- Node13 -->
<g id="node13" class="node">
<title>Node13</title>
<g id="a_node13"><a xlink:href="classflow_1_1net__flow_1_1Event__set.html#ae04c117b15179ba37a94f6836c63497b" target="_top" xlink:title="Helper that returns a loggable string representing the socket stored in the given boost::any that sto...">
<polygon fill="white" stroke="red" points="610,-0.5 610,-26.5 726,-26.5 726,-0.5 610,-0.5"/>
<text text-anchor="start" x="618" y="-16.1" font-family="Helvetica,sans-Serif" font-size="8.00">flow::net_flow::Event</text>
<text text-anchor="middle" x="668" y="-7.1" font-family="Helvetica,sans-Serif" font-size="8.00">_set::sock_as_any_to_str</text>
</a>
</g>
</g>
<!-- Node10&#45;&gt;Node13 -->
<g id="edge16" class="edge">
<title>Node10&#45;&gt;Node13</title>
<path fill="none" stroke="midnightblue" d="M555.77,-45.48C573.29,-40.45 593.51,-34.63 611.87,-29.35"/>
<polygon fill="midnightblue" stroke="midnightblue" points="612.92,-32.69 621.56,-26.56 610.99,-25.96 612.92,-32.69"/>
</g>
</g>
</svg>
