<?xml version="1.0" encoding="UTF-8" standalone="no"?>
<!DOCTYPE svg PUBLIC "-//W3C//DTD SVG 1.1//EN"
 "http://www.w3.org/Graphics/SVG/1.1/DTD/svg11.dtd">
<!-- Generated by graphviz version 2.43.0 (0)
 -->
<!-- Title: flow::net_flow::Node::sock_pacing_process_q Pages: 1 -->
<svg width="772pt" height="127pt"
 viewBox="0.00 0.00 772.00 127.00" xmlns="http://www.w3.org/2000/svg" xmlns:xlink="http://www.w3.org/1999/xlink">
<g id="graph0" class="graph" transform="scale(1 1) rotate(0) translate(4 123)">
<title>flow::net_flow::Node::sock_pacing_process_q</title>
<polygon fill="white" stroke="transparent" points="-4,4 -4,-123 768,-123 768,4 -4,4"/>
<!-- Node1 -->
<g id="node1" class="node">
<title>Node1</title>
<g id="a_node1"><a xlink:title="async_sock_low_lvl_packet_send_paced() pacing helper: Given that we are currently in the pacing time ...">
<polygon fill="#bfbfbf" stroke="black" points="0,-0.5 0,-26.5 118,-26.5 118,-0.5 0,-0.5"/>
<text text-anchor="start" x="8" y="-16.1" font-family="Helvetica,sans-Serif" font-size="8.00">flow::net_flow::Node</text>
<text text-anchor="middle" x="59" y="-7.1" font-family="Helvetica,sans-Serif" font-size="8.00">::sock_pacing_process_q</text>
</a>
</g>
</g>
<!-- Node2 -->
<g id="node2" class="node">
<title>Node2</title>
<g id="a_node2"><a xlink:href="classflow_1_1net__flow_1_1Node.html#a0db2bb587e0407077b11368df075f0ff" target="_top" xlink:title="async_low_lvl_packet_send_impl() wrapper to call when packet is to be sent to the remote side of the ...">
<polygon fill="white" stroke="black" points="172,-46 172,-81 273,-81 273,-46 172,-46"/>
<text text-anchor="start" x="180" y="-70.6" font-family="Helvetica,sans-Serif" font-size="8.00">flow::net_flow::Node</text>
<text text-anchor="start" x="180" y="-61.6" font-family="Helvetica,sans-Serif" font-size="8.00">::async_sock_low_lvl</text>
<text text-anchor="middle" x="222.5" y="-52.6" font-family="Helvetica,sans-Serif" font-size="8.00">_packet_send</text>
</a>
</g>
</g>
<!-- Node1&#45;&gt;Node2 -->
<g id="edge1" class="edge">
<title>Node1&#45;&gt;Node2</title>
<path fill="none" stroke="midnightblue" d="M102.01,-26.51C120.4,-32.2 142.31,-38.98 162.31,-45.18"/>
<polygon fill="midnightblue" stroke="midnightblue" points="161.37,-48.55 171.95,-48.16 163.44,-41.86 161.37,-48.55"/>
</g>
<!-- Node9 -->
<g id="node9" class="node">
<title>Node9</title>
<g id="a_node9"><a xlink:href="classflow_1_1net__flow_1_1Node.html#a3fd57a0d025a78cbeccfd8a15a983575" target="_top" xlink:title="async_sock_low_lvl_packet_send_paced() pacing helper: If sock_pacing_process_q() ran out of the last ...">
<polygon fill="white" stroke="black" points="154,-0.5 154,-26.5 291,-26.5 291,-0.5 154,-0.5"/>
<text text-anchor="start" x="162" y="-16.1" font-family="Helvetica,sans-Serif" font-size="8.00">flow::net_flow::Node</text>
<text text-anchor="middle" x="222.5" y="-7.1" font-family="Helvetica,sans-Serif" font-size="8.00">::sock_pacing_time_slice_end</text>
</a>
</g>
</g>
<!-- Node1&#45;&gt;Node9 -->
<g id="edge10" class="edge">
<title>Node1&#45;&gt;Node9</title>
<path fill="none" stroke="midnightblue" d="M118.31,-6.99C126.62,-6.81 135.27,-6.73 143.88,-6.75"/>
<polygon fill="midnightblue" stroke="midnightblue" points="143.92,-10.25 153.95,-6.83 143.97,-3.25 143.92,-10.25"/>
</g>
<!-- Node3 -->
<g id="node3" class="node">
<title>Node3</title>
<g id="a_node3"><a xlink:href="classflow_1_1net__flow_1_1Node.html#a9f302fe63e36f72931e1a759b0aaaed4" target="_top" xlink:title="Takes given low&#45;level packet structure, serializes it, and initiates asynchronous send of these data ...">
<polygon fill="white" stroke="black" points="341.5,-46 341.5,-81 450.5,-81 450.5,-46 341.5,-46"/>
<text text-anchor="start" x="349.5" y="-70.6" font-family="Helvetica,sans-Serif" font-size="8.00">flow::net_flow::Node</text>
<text text-anchor="start" x="349.5" y="-61.6" font-family="Helvetica,sans-Serif" font-size="8.00">::async_low_lvl_packet</text>
<text text-anchor="middle" x="396" y="-52.6" font-family="Helvetica,sans-Serif" font-size="8.00">_send_impl</text>
</a>
</g>
</g>
<!-- Node2&#45;&gt;Node3 -->
<g id="edge2" class="edge">
<title>Node2&#45;&gt;Node3</title>
<path fill="none" stroke="midnightblue" d="M273.1,-63.5C291.22,-63.5 311.96,-63.5 331.14,-63.5"/>
<polygon fill="midnightblue" stroke="midnightblue" points="331.31,-67 341.31,-63.5 331.31,-60 331.31,-67"/>
</g>
<!-- Node4 -->
<g id="node4" class="node">
<title>Node4</title>
<g id="a_node4"><a xlink:href="classflow_1_1net__flow_1_1Node.html#a0055a25892990585561e69ceb02214d5" target="_top" xlink:title="Completion handler for async_low_lvl_packet_send_impl(); called when the packet is either successfull...">
<polygon fill="white" stroke="black" points="509.5,-92.5 509.5,-118.5 612.5,-118.5 612.5,-92.5 509.5,-92.5"/>
<text text-anchor="start" x="517.5" y="-108.1" font-family="Helvetica,sans-Serif" font-size="8.00">flow::net_flow::Node</text>
<text text-anchor="middle" x="561" y="-99.1" font-family="Helvetica,sans-Serif" font-size="8.00">::low_lvl_packet_sent</text>
</a>
</g>
</g>
<!-- Node3&#45;&gt;Node4 -->
<g id="edge3" class="edge">
<title>Node3&#45;&gt;Node4</title>
<path fill="none" stroke="midnightblue" d="M450.82,-77.37C466.49,-81.41 483.7,-85.84 499.74,-89.97"/>
<polygon fill="midnightblue" stroke="midnightblue" points="498.99,-93.39 509.55,-92.5 500.74,-86.61 498.99,-93.39"/>
</g>
<!-- Node7 -->
<g id="node7" class="node">
<title>Node7</title>
<g id="a_node7"><a xlink:href="classflow_1_1net__flow_1_1Node.html#a2983d0d8a4d4eb5c3402f63f68ef44d8" target="_top" xlink:title="Performs important book&#45;keeping based on the event &quot;DATA packet was sent to destination....">
<polygon fill="white" stroke="black" points="501.5,-47.5 501.5,-73.5 620.5,-73.5 620.5,-47.5 501.5,-47.5"/>
<text text-anchor="start" x="509.5" y="-63.1" font-family="Helvetica,sans-Serif" font-size="8.00">flow::net_flow::Node</text>
<text text-anchor="middle" x="561" y="-54.1" font-family="Helvetica,sans-Serif" font-size="8.00">::mark_data_packet_sent</text>
</a>
</g>
</g>
<!-- Node3&#45;&gt;Node7 -->
<g id="edge6" class="edge">
<title>Node3&#45;&gt;Node7</title>
<path fill="none" stroke="midnightblue" d="M450.82,-62.51C463.76,-62.27 477.74,-62.01 491.25,-61.77"/>
<polygon fill="midnightblue" stroke="midnightblue" points="491.53,-65.26 501.46,-61.58 491.4,-58.26 491.53,-65.26"/>
</g>
<!-- Node8 -->
<g id="node8" class="node">
<title>Node8</title>
<g id="a_node8"><a xlink:href="classflow_1_1net__flow_1_1Node.html#a43c42121d48a55a43a48e3a84bd10595" target="_top" xlink:title="Obtain a copy of the value of a given option in a thread&#45;safe manner.">
<polygon fill="white" stroke="black" points="501,-9 501,-26 621,-26 621,-9 501,-9"/>
<text text-anchor="middle" x="561" y="-15.6" font-family="Helvetica,sans-Serif" font-size="8.00">flow::net_flow::Node::opt</text>
</a>
</g>
</g>
<!-- Node3&#45;&gt;Node8 -->
<g id="edge9" class="edge">
<title>Node3&#45;&gt;Node8</title>
<path fill="none" stroke="midnightblue" d="M450.82,-48.31C473.3,-41.97 498.96,-34.73 519.75,-28.86"/>
<polygon fill="midnightblue" stroke="midnightblue" points="520.86,-32.18 529.53,-26.1 518.96,-25.45 520.86,-32.18"/>
</g>
<!-- Node5 -->
<g id="node5" class="node">
<title>Node5</title>
<g id="a_node5"><a xlink:href="classflow_1_1log_1_1Log__context.html#a8a5fef42dc2cedf3c0d1a6e83beb2948" target="_top" xlink:title="Returns reference to the stored Component object, particularly as many FLOW_LOG_*() macros expect.">
<polygon fill="white" stroke="black" points="657,-92.5 657,-118.5 764,-118.5 764,-92.5 657,-92.5"/>
<text text-anchor="start" x="665" y="-108.1" font-family="Helvetica,sans-Serif" font-size="8.00">flow::log::Log_context</text>
<text text-anchor="middle" x="710.5" y="-99.1" font-family="Helvetica,sans-Serif" font-size="8.00">::get_log_component</text>
</a>
</g>
</g>
<!-- Node4&#45;&gt;Node5 -->
<g id="edge4" class="edge">
<title>Node4&#45;&gt;Node5</title>
<path fill="none" stroke="midnightblue" d="M612.76,-105.5C623.67,-105.5 635.33,-105.5 646.63,-105.5"/>
<polygon fill="midnightblue" stroke="midnightblue" points="646.89,-109 656.89,-105.5 646.89,-102 646.89,-109"/>
</g>
<!-- Node6 -->
<g id="node6" class="node">
<title>Node6</title>
<g id="a_node6"><a xlink:href="classflow_1_1log_1_1Log__context.html#af4db395042b065b00398cd59845dcb4d" target="_top" xlink:title="Returns the stored Logger pointer, particularly as many FLOW_LOG_*() macros expect.">
<polygon fill="white" stroke="black" points="657,-47.5 657,-73.5 764,-73.5 764,-47.5 657,-47.5"/>
<text text-anchor="start" x="665" y="-63.1" font-family="Helvetica,sans-Serif" font-size="8.00">flow::log::Log_context</text>
<text text-anchor="middle" x="710.5" y="-54.1" font-family="Helvetica,sans-Serif" font-size="8.00">::get_logger</text>
</a>
</g>
</g>
<!-- Node4&#45;&gt;Node6 -->
<g id="edge5" class="edge">
<title>Node4&#45;&gt;Node6</title>
<path fill="none" stroke="midnightblue" d="M604.66,-92.48C620.95,-87.52 639.71,-81.79 656.82,-76.57"/>
<polygon fill="midnightblue" stroke="midnightblue" points="658.13,-79.83 666.68,-73.56 656.09,-73.13 658.13,-79.83"/>
</g>
<!-- Node7&#45;&gt;Node5 -->
<g id="edge7" class="edge">
<title>Node7&#45;&gt;Node5</title>
<path fill="none" stroke="midnightblue" d="M604.66,-73.52C620.95,-78.48 639.71,-84.21 656.82,-89.43"/>
<polygon fill="midnightblue" stroke="midnightblue" points="656.09,-92.87 666.68,-92.44 658.13,-86.17 656.09,-92.87"/>
</g>
<!-- Node7&#45;&gt;Node6 -->
<g id="edge8" class="edge">
<title>Node7&#45;&gt;Node6</title>
<path fill="none" stroke="midnightblue" d="M620.72,-60.5C629.17,-60.5 637.9,-60.5 646.43,-60.5"/>
<polygon fill="midnightblue" stroke="midnightblue" points="646.71,-64 656.71,-60.5 646.71,-57 646.71,-64"/>
</g>
<!-- Node9&#45;&gt;Node1 -->
<g id="edge13" class="edge">
<title>Node9&#45;&gt;Node1</title>
<path fill="none" stroke="midnightblue" d="M153.95,-20.17C145.53,-20.27 136.91,-20.28 128.48,-20.18"/>
<polygon fill="midnightblue" stroke="midnightblue" points="128.36,-16.68 118.31,-20.01 128.25,-23.68 128.36,-16.68"/>
</g>
<!-- Node10 -->
<g id="node10" class="node">
<title>Node10</title>
<g id="a_node10"><a xlink:href="classflow_1_1net__flow_1_1Node.html#afb88dafa8ec5c1b412de86dfdccd9c8f" target="_top" xlink:title="async_sock_low_lvl_packet_send_paced() pacing helper: Resets the socket&#39;s Send_pacing_data structure ...">
<polygon fill="white" stroke="black" points="327,-0.5 327,-26.5 465,-26.5 465,-0.5 327,-0.5"/>
<text text-anchor="start" x="335" y="-16.1" font-family="Helvetica,sans-Serif" font-size="8.00">flow::net_flow::Node</text>
<text text-anchor="middle" x="396" y="-7.1" font-family="Helvetica,sans-Serif" font-size="8.00">::sock_pacing_new_time_slice</text>
</a>
</g>
</g>
<!-- Node9&#45;&gt;Node10 -->
<g id="edge11" class="edge">
<title>Node9&#45;&gt;Node10</title>
<path fill="none" stroke="midnightblue" d="M291.28,-13.5C299.6,-13.5 308.16,-13.5 316.62,-13.5"/>
<polygon fill="midnightblue" stroke="midnightblue" points="316.87,-17 326.87,-13.5 316.87,-10 316.87,-17"/>
</g>
<!-- Node10&#45;&gt;Node8 -->
<g id="edge12" class="edge">
<title>Node10&#45;&gt;Node8</title>
<path fill="none" stroke="midnightblue" d="M465.18,-15.17C473.62,-15.38 482.25,-15.59 490.7,-15.8"/>
<polygon fill="midnightblue" stroke="midnightblue" points="490.81,-19.3 500.89,-16.05 490.98,-12.31 490.81,-19.3"/>
</g>
</g>
</svg>
