<?xml version="1.0" encoding="UTF-8" standalone="no"?>
<!DOCTYPE svg PUBLIC "-//W3C//DTD SVG 1.1//EN"
 "http://www.w3.org/Graphics/SVG/1.1/DTD/svg11.dtd">
<!-- Generated by graphviz version 2.43.0 (0)
 -->
<!-- Title: flow::util::Blob_with_log_context&lt; S_SHARING_ALLOWED &gt; Pages: 1 -->
<svg width="1181pt" height="508pt"
 viewBox="0.00 0.00 1181.00 508.00" xmlns="http://www.w3.org/2000/svg" xmlns:xlink="http://www.w3.org/1999/xlink">
<g id="graph0" class="graph" transform="scale(1 1) rotate(0) translate(4 504)">
<title>flow::util::Blob_with_log_context&lt; S_SHARING_ALLOWED &gt;</title>
<polygon fill="white" stroke="transparent" points="-4,4 -4,-504 1177,-504 1177,4 -4,4"/>
<!-- Node1 -->
<g id="node1" class="node">
<title>Node1</title>
<g id="a_node1"><a xlink:title="Basic_blob that works in regular heap (and is itself placed in heap or stack) and memorizes a log::Lo...">
<polygon fill="#bfbfbf" stroke="black" points="1052,-194.5 1052,-229.5 1173,-229.5 1173,-194.5 1052,-194.5"/>
<text text-anchor="start" x="1060" y="-219.1" font-family="Helvetica,sans-Serif" font-size="8.00">flow::util::Blob_with</text>
<text text-anchor="start" x="1060" y="-210.1" font-family="Helvetica,sans-Serif" font-size="8.00">_log_context&lt; S_SHARING</text>
<text text-anchor="middle" x="1112.5" y="-201.1" font-family="Helvetica,sans-Serif" font-size="8.00">_ALLOWED &gt;</text>
</a>
</g>
</g>
<!-- Node2 -->
<g id="node2" class="node">
<title>Node2</title>
<g id="a_node2"><a xlink:href="classflow_1_1log_1_1Log__context.html" target="_top" xlink:title="Convenience class that simply stores a Logger and/or Component passed into a constructor; and returns...">
<polygon fill="white" stroke="black" points="834.5,-319.5 834.5,-336.5 941.5,-336.5 941.5,-319.5 834.5,-319.5"/>
<text text-anchor="middle" x="888" y="-326.1" font-family="Helvetica,sans-Serif" font-size="8.00">flow::log::Log_context</text>
</a>
</g>
</g>
<!-- Node2&#45;&gt;Node1 -->
<g id="edge1" class="edge">
<title>Node2&#45;&gt;Node1</title>
<path fill="none" stroke="midnightblue" d="M914.24,-314.84C954.38,-293.91 1032.81,-253.02 1077.74,-229.6"/>
<polygon fill="midnightblue" stroke="midnightblue" points="912.61,-311.74 905.36,-319.47 915.85,-317.95 912.61,-311.74"/>
</g>
<!-- Node3 -->
<g id="node3" class="node">
<title>Node3</title>
<g id="a_node3"><a xlink:href="classflow_1_1log_1_1Logger.html" target="_top" xlink:title="Interface that the user should implement, passing the implementing Logger into logging classes (Flow&#39;...">
<polygon fill="white" stroke="black" points="573.5,-400.5 573.5,-417.5 659.5,-417.5 659.5,-400.5 573.5,-400.5"/>
<text text-anchor="middle" x="616.5" y="-407.1" font-family="Helvetica,sans-Serif" font-size="8.00">flow::log::Logger</text>
</a>
</g>
</g>
<!-- Node3&#45;&gt;Node2 -->
<g id="edge2" class="edge">
<title>Node3&#45;&gt;Node2</title>
<path fill="none" stroke="#9a32cd" stroke-dasharray="5,2" d="M655.5,-397.58C710.2,-381.14 809.9,-351.17 858.64,-336.52"/>
<polygon fill="#9a32cd" stroke="#9a32cd" points="654.4,-394.25 645.83,-400.48 656.42,-400.96 654.4,-394.25"/>
<text text-anchor="middle" x="760.5" y="-380.6" font-family="Helvetica,sans-Serif" font-size="8.00"> m_logger</text>
</g>
<!-- Node4 -->
<g id="node4" class="node">
<title>Node4</title>
<g id="a_node4"><a xlink:href="classflow_1_1util_1_1Null__interface.html" target="_top" xlink:title="An empty interface, consisting of nothing but a default virtual destructor, intended as a boiler&#45;plat...">
<polygon fill="white" stroke="black" points="268,-482.5 268,-499.5 382,-499.5 382,-482.5 268,-482.5"/>
<text text-anchor="middle" x="325" y="-489.1" font-family="Helvetica,sans-Serif" font-size="8.00">flow::util::Null_interface</text>
</a>
</g>
</g>
<!-- Node4&#45;&gt;Node3 -->
<g id="edge3" class="edge">
<title>Node4&#45;&gt;Node3</title>
<path fill="none" stroke="midnightblue" d="M376.4,-480.25C414.7,-471.72 468.53,-458.94 515,-445 542.52,-436.75 573.55,-425.29 593.76,-417.54"/>
<polygon fill="midnightblue" stroke="midnightblue" points="375.53,-476.86 366.52,-482.43 377.04,-483.69 375.53,-476.86"/>
</g>
<!-- Node5 -->
<g id="node5" class="node">
<title>Node5</title>
<g id="a_node5"><a xlink:href="classflow_1_1util_1_1Unique__id__holder.html" target="_top" xlink:title="Each object of this class stores (at construction) and returns (on demand) a numeric ID unique from a...">
<polygon fill="white" stroke="black" points="281.5,-437 281.5,-463 368.5,-463 368.5,-437 281.5,-437"/>
<text text-anchor="start" x="289.5" y="-452.6" font-family="Helvetica,sans-Serif" font-size="8.00">flow::util::Unique</text>
<text text-anchor="middle" x="325" y="-443.6" font-family="Helvetica,sans-Serif" font-size="8.00">_id_holder</text>
</a>
</g>
</g>
<!-- Node5&#45;&gt;Node3 -->
<g id="edge4" class="edge">
<title>Node5&#45;&gt;Node3</title>
<path fill="none" stroke="midnightblue" d="M378.76,-442.53C434.57,-434.62 521.54,-422.31 573.08,-415.01"/>
<polygon fill="midnightblue" stroke="midnightblue" points="378.13,-439.08 368.72,-443.95 379.11,-446.01 378.13,-439.08"/>
</g>
<!-- Node6 -->
<g id="node6" class="node">
<title>Node6</title>
<g id="a_node6"><a xlink:title=" ">
<polygon fill="white" stroke="#bfbfbf" points="0,-436.5 0,-453.5 50,-453.5 50,-436.5 0,-436.5"/>
<text text-anchor="middle" x="25" y="-443.1" font-family="Helvetica,sans-Serif" font-size="8.00">uint64_t</text>
</a>
</g>
</g>
<!-- Node6&#45;&gt;Node5 -->
<g id="edge5" class="edge">
<title>Node6&#45;&gt;Node5</title>
<path fill="none" stroke="#9a32cd" stroke-dasharray="5,2" d="M60.61,-448.54C63.11,-448.72 65.59,-448.88 68,-449 143.01,-452.82 230.55,-452.03 281.39,-451.06"/>
<polygon fill="#9a32cd" stroke="#9a32cd" points="60.66,-445.03 50.4,-447.69 60.08,-452.01 60.66,-445.03"/>
<text text-anchor="middle" x="147.5" y="-453.6" font-family="Helvetica,sans-Serif" font-size="8.00"> m_id</text>
</g>
<!-- Node7 -->
<g id="node7" class="node">
<title>Node7</title>
<g id="a_node7"><a xlink:title=" ">
<polygon fill="white" stroke="black" points="100,-413.5 100,-430.5 195,-430.5 195,-413.5 100,-413.5"/>
<text text-anchor="middle" x="147.5" y="-420.1" font-family="Helvetica,sans-Serif" font-size="8.00">std::atomic&lt; id_t &gt;</text>
</a>
</g>
</g>
<!-- Node6&#45;&gt;Node7 -->
<g id="edge7" class="edge">
<title>Node6&#45;&gt;Node7</title>
<path fill="none" stroke="#9a32cd" stroke-dasharray="5,2" d="M60.04,-438.5C73.06,-436.02 88.11,-433.14 101.97,-430.5"/>
<polygon fill="#9a32cd" stroke="#9a32cd" points="59.26,-435.09 50.1,-440.4 60.57,-441.96 59.26,-435.09"/>
<text text-anchor="middle" x="75" y="-438.6" font-family="Helvetica,sans-Serif" font-size="8.00"> ptr</text>
</g>
<!-- Node7&#45;&gt;Node5 -->
<g id="edge6" class="edge">
<title>Node7&#45;&gt;Node5</title>
<path fill="none" stroke="#9a32cd" stroke-dasharray="5,2" d="M205.08,-431.03C229.87,-434.98 258.48,-439.55 281.43,-443.21"/>
<polygon fill="#9a32cd" stroke="#9a32cd" points="205.5,-427.55 195.07,-429.43 204.39,-434.46 205.5,-427.55"/>
<text text-anchor="middle" x="231.5" y="-439.6" font-family="Helvetica,sans-Serif" font-size="8.00"> s_last_id</text>
</g>
<!-- Node8 -->
<g id="node8" class="node">
<title>Node8</title>
<g id="a_node8"><a xlink:title=" ">
<polygon fill="white" stroke="#bfbfbf" points="275.5,-400.5 275.5,-417.5 374.5,-417.5 374.5,-400.5 275.5,-400.5"/>
<text text-anchor="middle" x="325" y="-407.1" font-family="Helvetica,sans-Serif" font-size="8.00">boost::noncopyable</text>
</a>
</g>
</g>
<!-- Node8&#45;&gt;Node3 -->
<g id="edge8" class="edge">
<title>Node8&#45;&gt;Node3</title>
<path fill="none" stroke="#8b1a1a" d="M384.89,-409C440.79,-409 523.44,-409 573.12,-409"/>
<polygon fill="#8b1a1a" stroke="#8b1a1a" points="384.78,-405.5 374.78,-409 384.78,-412.5 384.78,-405.5"/>
</g>
<!-- Node9 -->
<g id="node9" class="node">
<title>Node9</title>
<g id="a_node9"><a xlink:title=" ">
<polygon fill="white" stroke="#bfbfbf" points="278,-355 278,-381 372,-381 372,-355 278,-355"/>
<text text-anchor="start" x="286" y="-370.6" font-family="Helvetica,sans-Serif" font-size="8.00">thread_specific_ptr</text>
<text text-anchor="middle" x="325" y="-361.6" font-family="Helvetica,sans-Serif" font-size="8.00">&lt; std::string &gt;</text>
</a>
</g>
</g>
<!-- Node9&#45;&gt;Node3 -->
<g id="edge9" class="edge">
<title>Node9&#45;&gt;Node3</title>
<path fill="none" stroke="#9a32cd" stroke-dasharray="5,2" d="M382.29,-375.97C438.24,-383.9 522.79,-395.87 573.24,-403.01"/>
<polygon fill="#9a32cd" stroke="#9a32cd" points="382.58,-372.48 372.19,-374.54 381.6,-379.41 382.58,-372.48"/>
<text text-anchor="middle" x="457.5" y="-396.6" font-family="Helvetica,sans-Serif" font-size="8.00"> s_this_thread_nickname_ptr</text>
</g>
<!-- Node10 -->
<g id="node10" class="node">
<title>Node10</title>
<g id="a_node10"><a xlink:href="classflow_1_1log_1_1Component.html" target="_top" xlink:title="A light&#45;weight class, each object storing a component payload encoding an enum value from enum type o...">
<polygon fill="white" stroke="black" points="564,-318.5 564,-335.5 669,-335.5 669,-318.5 564,-318.5"/>
<text text-anchor="middle" x="616.5" y="-325.1" font-family="Helvetica,sans-Serif" font-size="8.00">flow::log::Component</text>
</a>
</g>
</g>
<!-- Node10&#45;&gt;Node2 -->
<g id="edge10" class="edge">
<title>Node10&#45;&gt;Node2</title>
<path fill="none" stroke="#9a32cd" stroke-dasharray="5,2" d="M679.16,-327.23C725.97,-327.4 789.66,-327.64 834.15,-327.8"/>
<polygon fill="#9a32cd" stroke="#9a32cd" points="679.16,-323.73 669.14,-327.19 679.13,-330.73 679.16,-323.73"/>
<text text-anchor="middle" x="760.5" y="-329.6" font-family="Helvetica,sans-Serif" font-size="8.00"> m_component</text>
</g>
<!-- Node11 -->
<g id="node11" class="node">
<title>Node11</title>
<g id="a_node11"><a xlink:title=" ">
<polygon fill="white" stroke="#bfbfbf" points="282.5,-318.5 282.5,-335.5 367.5,-335.5 367.5,-318.5 282.5,-318.5"/>
<text text-anchor="middle" x="325" y="-325.1" font-family="Helvetica,sans-Serif" font-size="8.00">type_info const *</text>
</a>
</g>
</g>
<!-- Node11&#45;&gt;Node10 -->
<g id="edge11" class="edge">
<title>Node11&#45;&gt;Node10</title>
<path fill="none" stroke="#9a32cd" stroke-dasharray="5,2" d="M377.92,-327C430.53,-327 511.46,-327 563.95,-327"/>
<polygon fill="#9a32cd" stroke="#9a32cd" points="377.79,-323.5 367.79,-327 377.79,-330.5 377.79,-323.5"/>
<text text-anchor="middle" x="457.5" y="-329.6" font-family="Helvetica,sans-Serif" font-size="8.00"> m_payload_type_or_null</text>
</g>
<!-- Node12 -->
<g id="node12" class="node">
<title>Node12</title>
<g id="a_node12"><a xlink:title=" ">
<polygon fill="white" stroke="#bfbfbf" points="291,-277.5 291,-294.5 359,-294.5 359,-277.5 291,-277.5"/>
<text text-anchor="middle" x="325" y="-284.1" font-family="Helvetica,sans-Serif" font-size="8.00">unsigned int</text>
</a>
</g>
</g>
<!-- Node12&#45;&gt;Node10 -->
<g id="edge12" class="edge">
<title>Node12&#45;&gt;Node10</title>
<path fill="none" stroke="#9a32cd" stroke-dasharray="5,2" d="M369.58,-288.95C408,-291.89 465.43,-297.11 515,-305 537.23,-308.54 561.92,-313.92 581.27,-318.48"/>
<polygon fill="#9a32cd" stroke="#9a32cd" points="369.5,-285.43 359.27,-288.18 368.98,-292.41 369.5,-285.43"/>
<text text-anchor="start" x="411" y="-316.6" font-family="Helvetica,sans-Serif" font-size="8.00"> m_payload_enum_raw</text>
<text text-anchor="middle" x="457.5" y="-307.6" font-family="Helvetica,sans-Serif" font-size="8.00">_value</text>
</g>
<!-- Node13 -->
<g id="node13" class="node">
<title>Node13</title>
<g id="a_node13"><a xlink:href="classflow_1_1util_1_1Basic__blob.html" target="_top" xlink:title=" ">
<polygon fill="white" stroke="black" points="821,-194.5 821,-229.5 955,-229.5 955,-194.5 821,-194.5"/>
<text text-anchor="start" x="829" y="-219.1" font-family="Helvetica,sans-Serif" font-size="8.00">flow::util::Basic_blob</text>
<text text-anchor="start" x="829" y="-210.1" font-family="Helvetica,sans-Serif" font-size="8.00">&lt; std::allocator&lt; uint8</text>
<text text-anchor="middle" x="888" y="-201.1" font-family="Helvetica,sans-Serif" font-size="8.00">_t &gt;, S_SHARING_ALLOWED &gt;</text>
</a>
</g>
</g>
<!-- Node13&#45;&gt;Node1 -->
<g id="edge13" class="edge">
<title>Node13&#45;&gt;Node1</title>
<path fill="none" stroke="midnightblue" d="M965.38,-212C993.59,-212 1025.13,-212 1051.66,-212"/>
<polygon fill="midnightblue" stroke="midnightblue" points="965.15,-208.5 955.15,-212 965.15,-215.5 965.15,-208.5"/>
</g>
<!-- Node14 -->
<g id="node14" class="node">
<title>Node14</title>
<g id="a_node14"><a xlink:href="classbool.html" target="_top" xlink:title=" ">
<polygon fill="white" stroke="#bfbfbf" points="599,-280.5 599,-297.5 634,-297.5 634,-280.5 599,-280.5"/>
<text text-anchor="middle" x="616.5" y="-287.1" font-family="Helvetica,sans-Serif" font-size="8.00">bool</text>
</a>
</g>
</g>
<!-- Node14&#45;&gt;Node13 -->
<g id="edge14" class="edge">
<title>Node14&#45;&gt;Node13</title>
<path fill="none" stroke="#9a32cd" stroke-dasharray="5,2" d="M644.51,-285.21C681.06,-279.66 748.01,-267.98 803,-250 819.73,-244.53 837.6,-236.74 852.53,-229.64"/>
<polygon fill="#9a32cd" stroke="#9a32cd" points="643.57,-281.81 634.19,-286.74 644.6,-288.74 643.57,-281.81"/>
<text text-anchor="middle" x="760.5" y="-282.6" font-family="Helvetica,sans-Serif" font-size="8.00"> S_IS_VANILLA_ALLOC</text>
<text text-anchor="middle" x="760.5" y="-273.6" font-family="Helvetica,sans-Serif" font-size="8.00">S_SHARING</text>
</g>
<!-- Node15 -->
<g id="node15" class="node">
<title>Node15</title>
<g id="a_node15"><a xlink:title=" ">
<polygon fill="white" stroke="#bfbfbf" points="555.5,-244.5 555.5,-261.5 677.5,-261.5 677.5,-244.5 555.5,-244.5"/>
<text text-anchor="middle" x="616.5" y="-251.1" font-family="Helvetica,sans-Serif" font-size="8.00">static constexpr size_type</text>
</a>
</g>
</g>
<!-- Node15&#45;&gt;Node13 -->
<g id="edge15" class="edge">
<title>Node15&#45;&gt;Node13</title>
<path fill="none" stroke="#9a32cd" stroke-dasharray="5,2" d="M684.51,-242.95C719.78,-237.64 763.73,-231 803,-225 808.84,-224.11 814.9,-223.18 820.97,-222.24"/>
<polygon fill="#9a32cd" stroke="#9a32cd" points="683.71,-239.53 674.34,-244.48 684.75,-246.45 683.71,-239.53"/>
<text text-anchor="middle" x="760.5" y="-239.6" font-family="Helvetica,sans-Serif" font-size="8.00"> S_UNCHANGED</text>
</g>
<!-- Node16 -->
<g id="node16" class="node">
<title>Node16</title>
<g id="a_node16"><a xlink:title=" ">
<polygon fill="white" stroke="#bfbfbf" points="565.5,-199 565.5,-225 667.5,-225 667.5,-199 565.5,-199"/>
<text text-anchor="start" x="573.5" y="-214.6" font-family="Helvetica,sans-Serif" font-size="8.00">static constexpr Flow</text>
<text text-anchor="middle" x="616.5" y="-205.6" font-family="Helvetica,sans-Serif" font-size="8.00">_log_component</text>
</a>
</g>
</g>
<!-- Node16&#45;&gt;Node13 -->
<g id="edge16" class="edge">
<title>Node16&#45;&gt;Node13</title>
<path fill="none" stroke="#9a32cd" stroke-dasharray="5,2" d="M677.76,-212C720.27,-212 777.19,-212 820.93,-212"/>
<polygon fill="#9a32cd" stroke="#9a32cd" points="677.56,-208.5 667.56,-212 677.56,-215.5 677.56,-208.5"/>
<text text-anchor="middle" x="760.5" y="-214.6" font-family="Helvetica,sans-Serif" font-size="8.00"> S_LOG_COMPONENT</text>
</g>
<!-- Node17 -->
<g id="node17" class="node">
<title>Node17</title>
<g id="a_node17"><a xlink:title=" ">
<polygon fill="white" stroke="black" points="558,-162.5 558,-179.5 675,-179.5 675,-162.5 558,-162.5"/>
<text text-anchor="middle" x="616.5" y="-169.1" font-family="Helvetica,sans-Serif" font-size="8.00">std::allocator&lt; uint8_t &gt;</text>
</a>
</g>
</g>
<!-- Node17&#45;&gt;Node13 -->
<g id="edge17" class="edge">
<title>Node17&#45;&gt;Node13</title>
<path fill="none" stroke="#9a32cd" stroke-dasharray="5,2" d="M684.51,-181.05C719.78,-186.36 763.73,-193 803,-199 808.84,-199.89 814.9,-200.82 820.97,-201.76"/>
<polygon fill="#9a32cd" stroke="#9a32cd" points="684.75,-177.55 674.34,-179.52 683.71,-184.47 684.75,-177.55"/>
<text text-anchor="middle" x="760.5" y="-201.6" font-family="Helvetica,sans-Serif" font-size="8.00"> m_alloc_raw</text>
</g>
<!-- Node18 -->
<g id="node18" class="node">
<title>Node18</title>
<g id="a_node18"><a xlink:title=" ">
<polygon fill="white" stroke="#bfbfbf" points="303,-162.5 303,-179.5 347,-179.5 347,-162.5 303,-162.5"/>
<text text-anchor="middle" x="325" y="-169.1" font-family="Helvetica,sans-Serif" font-size="8.00">uint8_t</text>
</a>
</g>
</g>
<!-- Node18&#45;&gt;Node17 -->
<g id="edge18" class="edge">
<title>Node18&#45;&gt;Node17</title>
<path fill="none" stroke="#9a32cd" stroke-dasharray="5,2" d="M357.37,-171C405.29,-171 497.52,-171 557.76,-171"/>
<polygon fill="#9a32cd" stroke="#9a32cd" points="357.29,-167.5 347.29,-171 357.29,-174.5 357.29,-167.5"/>
<text text-anchor="middle" x="457.5" y="-173.6" font-family="Helvetica,sans-Serif" font-size="8.00"> elements</text>
</g>
<!-- Node19 -->
<g id="node19" class="node">
<title>Node19</title>
<g id="a_node19"><a xlink:title=" ">
<polygon fill="white" stroke="#bfbfbf" points="533,-36.5 533,-143.5 700,-143.5 700,-36.5 533,-36.5"/>
<text text-anchor="start" x="541" y="-133.1" font-family="Helvetica,sans-Serif" font-size="8.00">conditional_t&lt; S_IS</text>
<text text-anchor="start" x="541" y="-124.1" font-family="Helvetica,sans-Serif" font-size="8.00">_VANILLA_ALLOC, std</text>
<text text-anchor="start" x="541" y="-115.1" font-family="Helvetica,sans-Serif" font-size="8.00">::conditional_t&lt; S_SHARING,</text>
<text text-anchor="start" x="541" y="-106.1" font-family="Helvetica,sans-Serif" font-size="8.00"> boost::shared_ptr&lt; value</text>
<text text-anchor="start" x="541" y="-97.1" font-family="Helvetica,sans-Serif" font-size="8.00">_type[]&gt;, boost::movelib::</text>
<text text-anchor="start" x="541" y="-88.1" font-family="Helvetica,sans-Serif" font-size="8.00">unique_ptr&lt; value_type[]&gt; &gt;</text>
<text text-anchor="start" x="541" y="-79.1" font-family="Helvetica,sans-Serif" font-size="8.00">, std::conditional_t&lt; S_SHARING,</text>
<text text-anchor="start" x="541" y="-70.1" font-family="Helvetica,sans-Serif" font-size="8.00"> boost::interprocess::shared_ptr</text>
<text text-anchor="start" x="541" y="-61.1" font-family="Helvetica,sans-Serif" font-size="8.00">&lt; value_type, Allocator_raw, Deleter</text>
<text text-anchor="start" x="541" y="-52.1" font-family="Helvetica,sans-Serif" font-size="8.00">_raw &gt;, boost::movelib::unique_ptr&lt;</text>
<text text-anchor="middle" x="616.5" y="-43.1" font-family="Helvetica,sans-Serif" font-size="8.00"> value_type, Deleter_raw &gt; &gt; &gt;</text>
</a>
</g>
</g>
<!-- Node19&#45;&gt;Node13 -->
<g id="edge19" class="edge">
<title>Node19&#45;&gt;Node13</title>
<path fill="none" stroke="#9a32cd" stroke-dasharray="5,2" d="M709.53,-128.98C739.69,-142.47 773.13,-158.19 803,-174 811.29,-178.39 812.63,-180.77 821,-185 827.52,-188.3 834.54,-191.51 841.48,-194.5"/>
<polygon fill="#9a32cd" stroke="#9a32cd" points="710.84,-125.73 700.28,-124.87 707.99,-132.13 710.84,-125.73"/>
<text text-anchor="middle" x="760.5" y="-176.6" font-family="Helvetica,sans-Serif" font-size="8.00"> m_buf_ptr</text>
</g>
<!-- Node20 -->
<g id="node20" class="node">
<title>Node20</title>
<g id="a_node20"><a xlink:title=" ">
<polygon fill="white" stroke="#bfbfbf" points="596.5,-0.5 596.5,-17.5 636.5,-17.5 636.5,-0.5 596.5,-0.5"/>
<text text-anchor="middle" x="616.5" y="-7.1" font-family="Helvetica,sans-Serif" font-size="8.00">size_t</text>
</a>
</g>
</g>
<!-- Node20&#45;&gt;Node13 -->
<g id="edge20" class="edge">
<title>Node20&#45;&gt;Node13</title>
<path fill="none" stroke="#9a32cd" stroke-dasharray="5,2" d="M646.59,-12.25C662.84,-14.82 683.15,-19.31 700,-27 751.99,-50.74 771.98,-56 803,-104 823.02,-134.97 797.23,-156.81 821,-185 824.03,-188.6 827.62,-191.72 831.53,-194.43"/>
<polygon fill="#9a32cd" stroke="#9a32cd" points="646.97,-8.77 636.57,-10.83 645.98,-15.7 646.97,-8.77"/>
<text text-anchor="middle" x="760.5" y="-124.6" font-family="Helvetica,sans-Serif" font-size="8.00"> m_capacity</text>
<text text-anchor="middle" x="760.5" y="-115.6" font-family="Helvetica,sans-Serif" font-size="8.00">m_size</text>
<text text-anchor="middle" x="760.5" y="-106.6" font-family="Helvetica,sans-Serif" font-size="8.00">m_start</text>
</g>
<!-- Node21 -->
<g id="node21" class="node">
<title>Node21</title>
<g id="a_node21"><a xlink:title=" ">
<polygon fill="white" stroke="#bfbfbf" points="837,-158.5 837,-175.5 939,-175.5 939,-158.5 837,-158.5"/>
<text text-anchor="middle" x="888" y="-165.1" font-family="Helvetica,sans-Serif" font-size="8.00">static constexpr auto</text>
</a>
</g>
</g>
<!-- Node21&#45;&gt;Node1 -->
<g id="edge21" class="edge">
<title>Node21&#45;&gt;Node1</title>
<path fill="none" stroke="#9a32cd" stroke-dasharray="5,2" d="M949.41,-174.94C975.56,-178.8 1006.42,-183.92 1034,-190 1040.01,-191.32 1046.24,-192.84 1052.45,-194.45"/>
<polygon fill="#9a32cd" stroke="#9a32cd" points="949.67,-171.44 939.27,-173.47 948.67,-178.37 949.67,-171.44"/>
<text text-anchor="middle" x="1003.5" y="-201.6" font-family="Helvetica,sans-Serif" font-size="8.00"> S_SHARING</text>
<text text-anchor="middle" x="1003.5" y="-192.6" font-family="Helvetica,sans-Serif" font-size="8.00">S_UNCHANGED</text>
</g>
</g>
</svg>
