<?xml version="1.0" encoding="UTF-8" standalone="no"?>
<!DOCTYPE svg PUBLIC "-//W3C//DTD SVG 1.1//EN"
 "http://www.w3.org/Graphics/SVG/1.1/DTD/svg11.dtd">
<!-- Generated by graphviz version 2.43.0 (0)
 -->
<!-- Title: flow::async::Timed_concurrent_task_loop_impl&lt; Time_accumulator &gt; Pages: 1 -->
<svg width="544pt" height="149pt"
 viewBox="0.00 0.00 544.00 148.50" xmlns="http://www.w3.org/2000/svg" xmlns:xlink="http://www.w3.org/1999/xlink">
<g id="graph0" class="graph" transform="scale(1 1) rotate(0) translate(4 144.5)">
<title>flow::async::Timed_concurrent_task_loop_impl&lt; Time_accumulator &gt;</title>
<polygon fill="white" stroke="transparent" points="-4,4 -4,-144.5 540,-144.5 540,4 -4,4"/>
<!-- Node1 -->
<g id="node1" class="node">
<title>Node1</title>
<g id="a_node1"><a xlink:title="Decorator of a Concurrent_task_loop with same or greater lifetime that accumulates time elapsed in an...">
<polygon fill="#bfbfbf" stroke="black" points="406,-61.5 406,-96.5 536,-96.5 536,-61.5 406,-61.5"/>
<text text-anchor="start" x="414" y="-86.1" font-family="Helvetica,sans-Serif" font-size="8.00">flow::async::Timed</text>
<text text-anchor="start" x="414" y="-77.1" font-family="Helvetica,sans-Serif" font-size="8.00">_concurrent_task_loop</text>
<text text-anchor="middle" x="471" y="-68.1" font-family="Helvetica,sans-Serif" font-size="8.00">_impl&lt; Time_accumulator &gt;</text>
</a>
</g>
</g>
<!-- Node2 -->
<g id="node2" class="node">
<title>Node2</title>
<g id="a_node2"><a xlink:href="classflow_1_1async_1_1Concurrent__task__loop.html" target="_top" xlink:title="The core flow::async interface, providing an optionally multi&#45;threaded thread pool onto which runnabl...">
<polygon fill="white" stroke="black" points="160,-114 160,-140 274,-140 274,-114 160,-114"/>
<text text-anchor="start" x="168" y="-129.6" font-family="Helvetica,sans-Serif" font-size="8.00">flow::async::Concurrent</text>
<text text-anchor="middle" x="217" y="-120.6" font-family="Helvetica,sans-Serif" font-size="8.00">_task_loop</text>
</a>
</g>
</g>
<!-- Node2&#45;&gt;Node1 -->
<g id="edge1" class="edge">
<title>Node2&#45;&gt;Node1</title>
<path fill="none" stroke="midnightblue" d="M284.1,-131.3C315.98,-131.7 354.47,-129.72 388,-121 407.51,-115.93 427.67,-105.68 443.13,-96.57"/>
<polygon fill="midnightblue" stroke="midnightblue" points="284.07,-127.8 274,-131.09 283.93,-134.8 284.07,-127.8"/>
</g>
<!-- Node2&#45;&gt;Node1 -->
<g id="edge4" class="edge">
<title>Node2&#45;&gt;Node1</title>
<path fill="none" stroke="#9a32cd" stroke-dasharray="5,2" d="M284.09,-114.41C321.72,-107.24 368.65,-98.31 405.94,-91.2"/>
<polygon fill="#9a32cd" stroke="#9a32cd" points="283.41,-110.98 274.24,-116.29 284.72,-117.85 283.41,-110.98"/>
<text text-anchor="middle" x="344.5" y="-112.6" font-family="Helvetica,sans-Serif" font-size="8.00"> m_loop</text>
</g>
<!-- Node3 -->
<g id="node3" class="node">
<title>Node3</title>
<g id="a_node3"><a xlink:href="classflow_1_1util_1_1Null__interface.html" target="_top" xlink:title="An empty interface, consisting of nothing but a default virtual destructor, intended as a boiler&#45;plat...">
<polygon fill="white" stroke="black" points="0,-118.5 0,-135.5 114,-135.5 114,-118.5 0,-118.5"/>
<text text-anchor="middle" x="57" y="-125.1" font-family="Helvetica,sans-Serif" font-size="8.00">flow::util::Null_interface</text>
</a>
</g>
</g>
<!-- Node3&#45;&gt;Node2 -->
<g id="edge2" class="edge">
<title>Node3&#45;&gt;Node2</title>
<path fill="none" stroke="midnightblue" d="M124.37,-127C136.15,-127 148.3,-127 159.77,-127"/>
<polygon fill="midnightblue" stroke="midnightblue" points="124.15,-123.5 114.15,-127 124.15,-130.5 124.15,-123.5"/>
</g>
<!-- Node4 -->
<g id="node4" class="node">
<title>Node4</title>
<g id="a_node4"><a xlink:title=" ">
<polygon fill="white" stroke="#bfbfbf" points="187,-72.5 187,-89.5 247,-89.5 247,-72.5 187,-72.5"/>
<text text-anchor="middle" x="217" y="-79.1" font-family="Helvetica,sans-Serif" font-size="8.00">Clock_type</text>
</a>
</g>
</g>
<!-- Node4&#45;&gt;Node1 -->
<g id="edge3" class="edge">
<title>Node4&#45;&gt;Node1</title>
<path fill="none" stroke="#9a32cd" stroke-dasharray="5,2" d="M257.34,-80.48C271.15,-80.31 286.76,-80.13 301,-80 335.62,-79.69 374.23,-79.45 405.8,-79.29"/>
<polygon fill="#9a32cd" stroke="#9a32cd" points="257.15,-76.98 247.19,-80.6 257.24,-83.98 257.15,-76.98"/>
<text text-anchor="middle" x="344.5" y="-82.6" font-family="Helvetica,sans-Serif" font-size="8.00"> m_clock_type</text>
</g>
<!-- Node5 -->
<g id="node5" class="node">
<title>Node5</title>
<g id="a_node5"><a xlink:href="classflow_1_1Function.html" target="_top" xlink:title=" ">
<polygon fill="white" stroke="#bfbfbf" points="151,-36.5 151,-53.5 283,-53.5 283,-36.5 151,-36.5"/>
<text text-anchor="middle" x="217" y="-43.1" font-family="Helvetica,sans-Serif" font-size="8.00">flow::Function&lt; Signature &gt;</text>
</a>
</g>
</g>
<!-- Node5&#45;&gt;Node1 -->
<g id="edge5" class="edge">
<title>Node5&#45;&gt;Node1</title>
<path fill="none" stroke="#9a32cd" stroke-dasharray="5,2" d="M293.26,-54.47C322.81,-58.26 357.01,-62.73 388,-67 393.7,-67.79 399.62,-68.62 405.56,-69.47"/>
<polygon fill="#9a32cd" stroke="#9a32cd" points="293.38,-50.95 283.02,-53.16 292.49,-57.9 293.38,-50.95"/>
<text text-anchor="middle" x="344.5" y="-69.6" font-family="Helvetica,sans-Serif" font-size="8.00"> m_exchanger_func</text>
</g>
<!-- Node6 -->
<g id="node6" class="node">
<title>Node6</title>
<g id="a_node6"><a xlink:title=" ">
<polygon fill="white" stroke="#bfbfbf" points="171.5,-0.5 171.5,-17.5 262.5,-17.5 262.5,-0.5 171.5,-0.5"/>
<text text-anchor="middle" x="217" y="-7.1" font-family="Helvetica,sans-Serif" font-size="8.00">Time_accumulator</text>
</a>
</g>
</g>
<!-- Node6&#45;&gt;Node1 -->
<g id="edge6" class="edge">
<title>Node6&#45;&gt;Node1</title>
<path fill="none" stroke="#9a32cd" stroke-dasharray="5,2" d="M272.8,-16.87C306.49,-22.46 350.28,-31.1 388,-43 403.57,-47.91 420.16,-54.85 434.32,-61.33"/>
<polygon fill="#9a32cd" stroke="#9a32cd" points="273.12,-13.37 262.69,-15.23 272,-20.28 273.12,-13.37"/>
<text text-anchor="middle" x="344.5" y="-45.6" font-family="Helvetica,sans-Serif" font-size="8.00"> m_time_accumulator</text>
</g>
</g>
</svg>
