<?xml version="1.0" encoding="UTF-8" standalone="no"?>
<!DOCTYPE svg PUBLIC "-//W3C//DTD SVG 1.1//EN"
 "http://www.w3.org/Graphics/SVG/1.1/DTD/svg11.dtd">
<!-- Generated by graphviz version 2.43.0 (0)
 -->
<!-- Title: flow::net_flow::Node::snd_flying_pkts_erase_one Pages: 1 -->
<svg width="282pt" height="80pt"
 viewBox="0.00 0.00 282.00 80.00" xmlns="http://www.w3.org/2000/svg" xmlns:xlink="http://www.w3.org/1999/xlink">
<g id="graph0" class="graph" transform="scale(1 1) rotate(0) translate(4 76)">
<title>flow::net_flow::Node::snd_flying_pkts_erase_one</title>
<polygon fill="white" stroke="transparent" points="-4,4 -4,-76 278,-76 278,4 -4,4"/>
<!-- Node1 -->
<g id="node1" class="node">
<title>Node1</title>
<g id="a_node1"><a xlink:title="Erases (for example if considered Acknowledged or Dropped) a packet struct from the &quot;scoreboard&quot; (Pee...">
<polygon fill="#bfbfbf" stroke="black" points="0,-22.5 0,-48.5 131,-48.5 131,-22.5 0,-22.5"/>
<text text-anchor="start" x="8" y="-38.1" font-family="Helvetica,sans-Serif" font-size="8.00">flow::net_flow::Node</text>
<text text-anchor="middle" x="65.5" y="-29.1" font-family="Helvetica,sans-Serif" font-size="8.00">::snd_flying_pkts_erase_one</text>
</a>
</g>
</g>
<!-- Node2 -->
<g id="node2" class="node">
<title>Node2</title>
<g id="a_node2"><a xlink:href="classflow_1_1log_1_1Log__context.html#a8a5fef42dc2cedf3c0d1a6e83beb2948" target="_top" xlink:title="Returns reference to the stored Component object, particularly as many FLOW_LOG_*() macros expect.">
<polygon fill="white" stroke="black" points="167,-45.5 167,-71.5 274,-71.5 274,-45.5 167,-45.5"/>
<text text-anchor="start" x="175" y="-61.1" font-family="Helvetica,sans-Serif" font-size="8.00">flow::log::Log_context</text>
<text text-anchor="middle" x="220.5" y="-52.1" font-family="Helvetica,sans-Serif" font-size="8.00">::get_log_component</text>
</a>
</g>
</g>
<!-- Node1&#45;&gt;Node2 -->
<g id="edge1" class="edge">
<title>Node1&#45;&gt;Node2</title>
<path fill="none" stroke="midnightblue" d="M131.39,-45.25C139.72,-46.51 148.25,-47.79 156.56,-49.04"/>
<polygon fill="midnightblue" stroke="midnightblue" points="156.14,-52.51 166.55,-50.54 157.18,-45.59 156.14,-52.51"/>
</g>
<!-- Node3 -->
<g id="node3" class="node">
<title>Node3</title>
<g id="a_node3"><a xlink:href="classflow_1_1log_1_1Log__context.html#af4db395042b065b00398cd59845dcb4d" target="_top" xlink:title="Returns the stored Logger pointer, particularly as many FLOW_LOG_*() macros expect.">
<polygon fill="white" stroke="black" points="167,-0.5 167,-26.5 274,-26.5 274,-0.5 167,-0.5"/>
<text text-anchor="start" x="175" y="-16.1" font-family="Helvetica,sans-Serif" font-size="8.00">flow::log::Log_context</text>
<text text-anchor="middle" x="220.5" y="-7.1" font-family="Helvetica,sans-Serif" font-size="8.00">::get_logger</text>
</a>
</g>
</g>
<!-- Node1&#45;&gt;Node3 -->
<g id="edge2" class="edge">
<title>Node1&#45;&gt;Node3</title>
<path fill="none" stroke="midnightblue" d="M131.39,-26.17C139.72,-24.97 148.25,-23.75 156.56,-22.55"/>
<polygon fill="midnightblue" stroke="midnightblue" points="157.15,-26 166.55,-21.11 156.16,-19.07 157.15,-26"/>
</g>
</g>
</svg>
