<?xml version="1.0" encoding="UTF-8" standalone="no"?>
<!DOCTYPE svg PUBLIC "-//W3C//DTD SVG 1.1//EN"
 "http://www.w3.org/Graphics/SVG/1.1/DTD/svg11.dtd">
<!-- Generated by graphviz version 2.43.0 (0)
 -->
<!-- Title: flow::net_flow::asio::Peer_socket::handler_func Pages: 1 -->
<svg width="276pt" height="44pt"
 viewBox="0.00 0.00 276.00 44.00" xmlns="http://www.w3.org/2000/svg" xmlns:xlink="http://www.w3.org/1999/xlink">
<g id="graph0" class="graph" transform="scale(1 1) rotate(0) translate(4 40)">
<title>flow::net_flow::asio::Peer_socket::handler_func</title>
<polygon fill="white" stroke="transparent" points="-4,4 -4,-40 272,-40 272,4 -4,4"/>
<!-- Node1 -->
<g id="node1" class="node">
<title>Node1</title>
<g id="a_node1"><a xlink:title="Returns a functor that essentially performs post() on_result onto *async_task_engine() in a way suita...">
<polygon fill="#bfbfbf" stroke="black" points="0,-5 0,-31 131,-31 131,-5 0,-5"/>
<text text-anchor="start" x="8" y="-20.6" font-family="Helvetica,sans-Serif" font-size="8.00">flow::net_flow::asio</text>
<text text-anchor="middle" x="65.5" y="-11.6" font-family="Helvetica,sans-Serif" font-size="8.00">::Peer_socket::handler_func</text>
</a>
</g>
</g>
<!-- Node2 -->
<g id="node2" class="node">
<title>Node2</title>
<g id="a_node2"><a xlink:href="classflow_1_1net__flow_1_1asio_1_1Peer__socket.html#a1c63aaece6a9b056688a35405f064c70" target="_top" xlink:title="Pointer (possibly null) for the flow::util::Task_engine used by any coming async_*() I/O calls.">
<polygon fill="white" stroke="black" points="167,-0.5 167,-35.5 268,-35.5 268,-0.5 167,-0.5"/>
<text text-anchor="start" x="175" y="-25.1" font-family="Helvetica,sans-Serif" font-size="8.00">flow::net_flow::asio</text>
<text text-anchor="start" x="175" y="-16.1" font-family="Helvetica,sans-Serif" font-size="8.00">::Peer_socket::async</text>
<text text-anchor="middle" x="217.5" y="-7.1" font-family="Helvetica,sans-Serif" font-size="8.00">_task_engine</text>
</a>
</g>
</g>
<!-- Node1&#45;&gt;Node2 -->
<g id="edge1" class="edge">
<title>Node1&#45;&gt;Node2</title>
<path fill="none" stroke="midnightblue" d="M131.42,-18C139.86,-18 148.48,-18 156.83,-18"/>
<polygon fill="midnightblue" stroke="midnightblue" points="156.86,-21.5 166.86,-18 156.86,-14.5 156.86,-21.5"/>
</g>
</g>
</svg>
