<?xml version="1.0" encoding="UTF-8" standalone="no"?>
<!DOCTYPE svg PUBLIC "-//W3C//DTD SVG 1.1//EN"
 "http://www.w3.org/Graphics/SVG/1.1/DTD/svg11.dtd">
<!-- Generated by graphviz version 2.43.0 (0)
 -->
<!-- Title: flow::net_flow::Peer_socket::sync_send Pages: 1 -->
<svg width="728pt" height="287pt"
 viewBox="0.00 0.00 728.00 286.50" xmlns="http://www.w3.org/2000/svg" xmlns:xlink="http://www.w3.org/1999/xlink">
<g id="graph0" class="graph" transform="scale(1 1) rotate(0) translate(4 282.5)">
<title>flow::net_flow::Peer_socket::sync_send</title>
<polygon fill="white" stroke="transparent" points="-4,4 -4,-282.5 724,-282.5 724,4 -4,4"/>
<!-- Node1 -->
<g id="node1" class="node">
<title>Node1</title>
<g id="a_node1"><a xlink:title="sync_send() operating in null_buffers mode, wherein – if Writable state is reached – the actual data ...">
<polygon fill="#bfbfbf" stroke="black" points="0,-211.5 0,-237.5 97,-237.5 97,-211.5 0,-211.5"/>
<text text-anchor="start" x="8" y="-227.1" font-family="Helvetica,sans-Serif" font-size="8.00">flow::net_flow::Peer</text>
<text text-anchor="middle" x="48.5" y="-218.1" font-family="Helvetica,sans-Serif" font-size="8.00">_socket::sync_send</text>
</a>
</g>
</g>
<!-- Node2 -->
<g id="node2" class="node">
<title>Node2</title>
<g id="a_node2"><a xlink:href="namespaceflow_1_1util.html#a5488415feb5570a6551892a7bdfeeec4" target="_top" xlink:title="Helper that takes a non&#45;negative duration of arbitrary precision/period and converts it to Fine_durat...">
<polygon fill="white" stroke="black" points="142.5,-243 142.5,-278 252.5,-278 252.5,-243 142.5,-243"/>
<text text-anchor="start" x="150.5" y="-267.6" font-family="Helvetica,sans-Serif" font-size="8.00">flow::util::chrono</text>
<text text-anchor="start" x="150.5" y="-258.6" font-family="Helvetica,sans-Serif" font-size="8.00">_duration_from_now_to</text>
<text text-anchor="middle" x="197.5" y="-249.6" font-family="Helvetica,sans-Serif" font-size="8.00">_fine_time_pt</text>
</a>
</g>
</g>
<!-- Node1&#45;&gt;Node2 -->
<g id="edge1" class="edge">
<title>Node1&#45;&gt;Node2</title>
<path fill="none" stroke="midnightblue" d="M97.23,-236.19C108.49,-238.95 120.68,-241.93 132.54,-244.84"/>
<polygon fill="midnightblue" stroke="midnightblue" points="131.84,-248.27 142.39,-247.25 133.51,-241.47 131.84,-248.27"/>
</g>
<!-- Node3 -->
<g id="node3" class="node">
<title>Node3</title>
<g id="a_node3"><a xlink:href="classflow_1_1net__flow_1_1Peer__socket.html#a15ba1d4af6d4e3fcab9534a307c00595" target="_top" xlink:title="Helper similar to sync_send_impl() but for the null_buffers versions of sync_send().">
<polygon fill="white" stroke="black" points="133,-171 133,-206 262,-206 262,-171 133,-171"/>
<text text-anchor="start" x="141" y="-195.6" font-family="Helvetica,sans-Serif" font-size="8.00">flow::net_flow::Peer</text>
<text text-anchor="start" x="141" y="-186.6" font-family="Helvetica,sans-Serif" font-size="8.00">_socket::sync_send_reactor</text>
<text text-anchor="middle" x="197.5" y="-177.6" font-family="Helvetica,sans-Serif" font-size="8.00">_pattern_impl</text>
</a>
</g>
</g>
<!-- Node1&#45;&gt;Node3 -->
<g id="edge2" class="edge">
<title>Node1&#45;&gt;Node3</title>
<path fill="none" stroke="midnightblue" d="M97.23,-212.81C105.51,-210.78 114.29,-208.63 123.08,-206.48"/>
<polygon fill="midnightblue" stroke="midnightblue" points="124.08,-209.84 132.97,-204.06 122.42,-203.04 124.08,-209.84"/>
</g>
<!-- Node3&#45;&gt;Node3 -->
<g id="edge16" class="edge">
<title>Node3&#45;&gt;Node3</title>
<path fill="none" stroke="midnightblue" d="M170.89,-206.28C166.37,-215.81 175.24,-224.5 197.5,-224.5 211.06,-224.5 219.65,-221.27 223.27,-216.6"/>
<polygon fill="midnightblue" stroke="midnightblue" points="226.79,-216.53 224.11,-206.28 219.81,-215.97 226.79,-216.53"/>
</g>
<!-- Node4 -->
<g id="node4" class="node">
<title>Node4</title>
<g id="a_node4"><a xlink:href="classflow_1_1net__flow_1_1Peer__socket.html#a34e2c7dfb5596269a6f86a716015f1a6" target="_top" xlink:title="This is to sync_send() as node_send() is to send().">
<polygon fill="white" stroke="black" points="298,-175.5 298,-201.5 419,-201.5 419,-175.5 298,-175.5"/>
<text text-anchor="start" x="306" y="-191.1" font-family="Helvetica,sans-Serif" font-size="8.00">flow::net_flow::Peer</text>
<text text-anchor="middle" x="358.5" y="-182.1" font-family="Helvetica,sans-Serif" font-size="8.00">_socket::node_sync_send</text>
</a>
</g>
</g>
<!-- Node3&#45;&gt;Node4 -->
<g id="edge3" class="edge">
<title>Node3&#45;&gt;Node4</title>
<path fill="none" stroke="midnightblue" d="M262.26,-188.5C270.61,-188.5 279.2,-188.5 287.65,-188.5"/>
<polygon fill="midnightblue" stroke="midnightblue" points="287.86,-192 297.86,-188.5 287.86,-185 287.86,-192"/>
</g>
<!-- Node5 -->
<g id="node5" class="node">
<title>Node5</title>
<g id="a_node5"><a xlink:href="classflow_1_1net__flow_1_1Node.html#a109a118ca312e94686595ea08dac7ad0" target="_top" xlink:title="Helper method that checks whether the given Peer_socket or Server_socket is CLOSED; if so,...">
<polygon fill="white" stroke="black" points="455.5,-243.5 455.5,-269.5 556.5,-269.5 556.5,-243.5 455.5,-243.5"/>
<text text-anchor="start" x="463.5" y="-259.1" font-family="Helvetica,sans-Serif" font-size="8.00">flow::net_flow::Node</text>
<text text-anchor="middle" x="506" y="-250.1" font-family="Helvetica,sans-Serif" font-size="8.00">::ensure_sock_open</text>
</a>
</g>
</g>
<!-- Node4&#45;&gt;Node5 -->
<g id="edge4" class="edge">
<title>Node4&#45;&gt;Node5</title>
<path fill="none" stroke="midnightblue" d="M386.14,-201.63C405.23,-210.97 431.6,-223.72 455,-234.5 458.39,-236.06 461.91,-237.66 465.45,-239.25"/>
<polygon fill="midnightblue" stroke="midnightblue" points="464.22,-242.53 474.78,-243.4 467.07,-236.14 464.22,-242.53"/>
</g>
<!-- Node6 -->
<g id="node6" class="node">
<title>Node6</title>
<g id="a_node6"><a xlink:href="classflow_1_1net__flow_1_1Peer__socket.html#a5003c554807f5b5b58989ad58be48d42" target="_top" xlink:title="Constructs object; initializes most values to well&#45;defined (0, empty, etc.) but not necessarily meani...">
<polygon fill="white" stroke="black" points="455,-198.5 455,-224.5 557,-224.5 557,-198.5 455,-198.5"/>
<text text-anchor="start" x="463" y="-214.1" font-family="Helvetica,sans-Serif" font-size="8.00">flow::net_flow::Peer</text>
<text text-anchor="middle" x="506" y="-205.1" font-family="Helvetica,sans-Serif" font-size="8.00">_socket::Peer_socket</text>
</a>
</g>
</g>
<!-- Node4&#45;&gt;Node6 -->
<g id="edge5" class="edge">
<title>Node4&#45;&gt;Node6</title>
<path fill="none" stroke="midnightblue" d="M419.1,-197.92C427.47,-199.24 436.08,-200.61 444.47,-201.93"/>
<polygon fill="midnightblue" stroke="midnightblue" points="444.13,-205.42 454.55,-203.53 445.22,-198.51 444.13,-205.42"/>
</g>
<!-- Node9 -->
<g id="node8" class="node">
<title>Node9</title>
<g id="a_node8"><a xlink:href="classflow_1_1net__flow_1_1Node.html#aa19d1f49638ef8ce8883e7477a06d3fc" target="_top" xlink:title="Implementation of non&#45;blocking sock&#45;&gt;send() for socket sock in all cases except when sock&#45;&gt;state() ==...">
<polygon fill="white" stroke="black" points="455.5,-153.5 455.5,-179.5 556.5,-179.5 556.5,-153.5 455.5,-153.5"/>
<text text-anchor="start" x="463.5" y="-169.1" font-family="Helvetica,sans-Serif" font-size="8.00">flow::net_flow::Node</text>
<text text-anchor="middle" x="506" y="-160.1" font-family="Helvetica,sans-Serif" font-size="8.00">::send</text>
</a>
</g>
</g>
<!-- Node4&#45;&gt;Node9 -->
<g id="edge7" class="edge">
<title>Node4&#45;&gt;Node9</title>
<path fill="none" stroke="midnightblue" d="M419.1,-179.49C427.79,-178.17 436.73,-176.82 445.42,-175.51"/>
<polygon fill="midnightblue" stroke="midnightblue" points="446.1,-178.95 455.47,-173.99 445.05,-172.02 446.1,-178.95"/>
</g>
<!-- Node74 -->
<g id="node12" class="node">
<title>Node74</title>
<g id="a_node12"><a xlink:href="classflow_1_1net__flow_1_1Node.html#a2a4dc3d8e294bbc8423e111f52e414ae" target="_top" xlink:title="Implementation of core blocking transfer methods, namely Peer_socket::sync_send(),...">
<polygon fill="white" stroke="black" points="455.5,-77.5 455.5,-103.5 556.5,-103.5 556.5,-77.5 455.5,-77.5"/>
<text text-anchor="start" x="463.5" y="-93.1" font-family="Helvetica,sans-Serif" font-size="8.00">flow::net_flow::Node</text>
<text text-anchor="middle" x="506" y="-84.1" font-family="Helvetica,sans-Serif" font-size="8.00">::sync_op</text>
</a>
</g>
</g>
<!-- Node4&#45;&gt;Node74 -->
<g id="edge11" class="edge">
<title>Node4&#45;&gt;Node74</title>
<path fill="none" stroke="midnightblue" d="M378.82,-175.49C404.04,-158.5 448.35,-128.65 477.19,-109.23"/>
<polygon fill="midnightblue" stroke="midnightblue" points="479.26,-112.06 485.6,-103.57 475.35,-106.25 479.26,-112.06"/>
</g>
<!-- Node7 -->
<g id="node7" class="node">
<title>Node7</title>
<g id="a_node7"><a xlink:href="classflow_1_1net__flow_1_1Peer__socket.html#ad94e37c8cca01f801f13e9e0e0bc857d" target="_top" xlink:title="Copies this socket&#39;s option set and returns that copy.">
<polygon fill="white" stroke="red" points="608,-243.5 608,-269.5 705,-269.5 705,-243.5 608,-243.5"/>
<text text-anchor="start" x="616" y="-259.1" font-family="Helvetica,sans-Serif" font-size="8.00">flow::net_flow::Peer</text>
<text text-anchor="middle" x="656.5" y="-250.1" font-family="Helvetica,sans-Serif" font-size="8.00">_socket::options</text>
</a>
</g>
</g>
<!-- Node6&#45;&gt;Node7 -->
<g id="edge6" class="edge">
<title>Node6&#45;&gt;Node7</title>
<path fill="none" stroke="midnightblue" d="M549.95,-224.52C566.35,-229.48 585.24,-235.21 602.47,-240.43"/>
<polygon fill="midnightblue" stroke="midnightblue" points="601.8,-243.88 612.39,-243.44 603.83,-237.19 601.8,-243.88"/>
</g>
<!-- Node10 -->
<g id="node9" class="node">
<title>Node10</title>
<g id="a_node9"><a xlink:href="classflow_1_1net__flow_1_1Node.html#aae148cec361b59237996a4b30c6624b5" target="_top" xlink:title="Returns true if and only if the Node is operating.">
<polygon fill="white" stroke="black" points="606,-108.5 606,-134.5 707,-134.5 707,-108.5 606,-108.5"/>
<text text-anchor="start" x="614" y="-124.1" font-family="Helvetica,sans-Serif" font-size="8.00">flow::net_flow::Node</text>
<text text-anchor="middle" x="656.5" y="-115.1" font-family="Helvetica,sans-Serif" font-size="8.00">::running</text>
</a>
</g>
</g>
<!-- Node9&#45;&gt;Node10 -->
<g id="edge8" class="edge">
<title>Node9&#45;&gt;Node10</title>
<path fill="none" stroke="midnightblue" d="M549.95,-153.48C566.35,-148.52 585.24,-142.79 602.47,-137.57"/>
<polygon fill="midnightblue" stroke="midnightblue" points="603.83,-140.81 612.39,-134.56 601.8,-134.12 603.83,-140.81"/>
</g>
<!-- Node11 -->
<g id="node10" class="node">
<title>Node11</title>
<g id="a_node10"><a xlink:href="classflow_1_1net__flow_1_1Node.html#a2565b7c0bd82cad86eb168b62f8ffd9d" target="_top" xlink:title="Helper placed by send() onto W to invoke send_worker() but ensures that the socket has not entered so...">
<polygon fill="white" stroke="red" points="593,-198.5 593,-224.5 720,-224.5 720,-198.5 593,-198.5"/>
<text text-anchor="start" x="601" y="-214.1" font-family="Helvetica,sans-Serif" font-size="8.00">flow::net_flow::Node</text>
<text text-anchor="middle" x="656.5" y="-205.1" font-family="Helvetica,sans-Serif" font-size="8.00">::send_worker_check_state</text>
</a>
</g>
</g>
<!-- Node9&#45;&gt;Node11 -->
<g id="edge9" class="edge">
<title>Node9&#45;&gt;Node11</title>
<path fill="none" stroke="midnightblue" d="M549.95,-179.52C566.35,-184.48 585.24,-190.21 602.47,-195.43"/>
<polygon fill="midnightblue" stroke="midnightblue" points="601.8,-198.88 612.39,-198.44 603.83,-192.19 601.8,-198.88"/>
</g>
<!-- Node70 -->
<g id="node11" class="node">
<title>Node70</title>
<g id="a_node11"><a xlink:href="classflow_1_1net__flow_1_1Node.html#a382b607fa2e482886f2fd75edc36b8b7" target="_top" xlink:title="Return true if and only if there are enough data either in Peer_socket::m_snd_rexmit_q of sock (if re...">
<polygon fill="white" stroke="black" points="606,-153.5 606,-179.5 707,-179.5 707,-153.5 606,-153.5"/>
<text text-anchor="start" x="614" y="-169.1" font-family="Helvetica,sans-Serif" font-size="8.00">flow::net_flow::Node</text>
<text text-anchor="middle" x="656.5" y="-160.1" font-family="Helvetica,sans-Serif" font-size="8.00">::snd_deqable</text>
</a>
</g>
</g>
<!-- Node9&#45;&gt;Node70 -->
<g id="edge10" class="edge">
<title>Node9&#45;&gt;Node70</title>
<path fill="none" stroke="midnightblue" d="M556.86,-166.5C569.29,-166.5 582.75,-166.5 595.61,-166.5"/>
<polygon fill="midnightblue" stroke="midnightblue" points="595.77,-170 605.77,-166.5 595.77,-163 595.77,-170"/>
</g>
<!-- Node74&#45;&gt;Node10 -->
<g id="edge14" class="edge">
<title>Node74&#45;&gt;Node10</title>
<path fill="none" stroke="midnightblue" d="M556.86,-100.91C569.29,-103.5 582.75,-106.31 595.61,-109"/>
<polygon fill="midnightblue" stroke="midnightblue" points="595.27,-112.5 605.77,-111.12 596.7,-105.65 595.27,-112.5"/>
</g>
<!-- Node75 -->
<g id="node13" class="node">
<title>Node75</title>
<g id="a_node13"><a xlink:href="classflow_1_1net__flow_1_1Node.html#ad100464cf0126dbbad39bde1c90a774f" target="_top" xlink:title="Creates a new Event_set in Event_set::State::S_INACTIVE state with no sockets/events stored; returns ...">
<polygon fill="white" stroke="red" points="606,-45.5 606,-71.5 707,-71.5 707,-45.5 606,-45.5"/>
<text text-anchor="start" x="614" y="-61.1" font-family="Helvetica,sans-Serif" font-size="8.00">flow::net_flow::Node</text>
<text text-anchor="middle" x="656.5" y="-52.1" font-family="Helvetica,sans-Serif" font-size="8.00">::event_set_create</text>
</a>
</g>
</g>
<!-- Node74&#45;&gt;Node75 -->
<g id="edge12" class="edge">
<title>Node74&#45;&gt;Node75</title>
<path fill="none" stroke="midnightblue" d="M556.86,-79.76C569.29,-77.08 582.75,-74.18 595.61,-71.4"/>
<polygon fill="midnightblue" stroke="midnightblue" points="596.73,-74.74 605.77,-69.22 595.26,-67.9 596.73,-74.74"/>
</g>
<!-- Node80 -->
<g id="node14" class="node">
<title>Node80</title>
<g id="a_node14"><a xlink:href="namespaceflow_1_1util.html#a09a032f8e1e77a3afc0b7df115a773e1" target="_top" xlink:title="Provides a way to execute arbitrary (cleanup) code at the exit of the current block.">
<polygon fill="white" stroke="black" points="604.5,-0.5 604.5,-26.5 708.5,-26.5 708.5,-0.5 604.5,-0.5"/>
<text text-anchor="start" x="612.5" y="-16.1" font-family="Helvetica,sans-Serif" font-size="8.00">flow::util::setup_auto</text>
<text text-anchor="middle" x="656.5" y="-7.1" font-family="Helvetica,sans-Serif" font-size="8.00">_cleanup</text>
</a>
</g>
</g>
<!-- Node74&#45;&gt;Node80 -->
<g id="edge15" class="edge">
<title>Node74&#45;&gt;Node80</title>
<path fill="none" stroke="midnightblue" d="M525.47,-77.32C542.46,-65.58 568.63,-48.47 593,-36.5 597.37,-34.35 602,-32.29 606.68,-30.34"/>
<polygon fill="midnightblue" stroke="midnightblue" points="608.31,-33.46 616.3,-26.5 605.71,-26.95 608.31,-33.46"/>
</g>
<!-- Node75&#45;&gt;Node75 -->
<g id="edge13" class="edge">
<title>Node75&#45;&gt;Node75</title>
<path fill="none" stroke="midnightblue" d="M631.12,-71.77C623.43,-80.96 631.89,-90 656.5,-90 671.5,-90 680.5,-86.64 683.5,-81.94"/>
<polygon fill="midnightblue" stroke="midnightblue" points="686.91,-81.1 681.88,-71.77 679.99,-82.2 686.91,-81.1"/>
</g>
</g>
</svg>
