<?xml version="1.0" encoding="UTF-8" standalone="no"?>
<!DOCTYPE svg PUBLIC "-//W3C//DTD SVG 1.1//EN"
 "http://www.w3.org/Graphics/SVG/1.1/DTD/svg11.dtd">
<!-- Generated by graphviz version 2.43.0 (0)
 -->
<!-- Title: flow::async::Cross_thread_task_loop::start Pages: 1 -->
<svg width="679pt" height="243pt"
 viewBox="0.00 0.00 679.00 242.79" xmlns="http://www.w3.org/2000/svg" xmlns:xlink="http://www.w3.org/1999/xlink">
<g id="graph0" class="graph" transform="scale(1 1) rotate(0) translate(4 238.79)">
<title>flow::async::Cross_thread_task_loop::start</title>
<polygon fill="white" stroke="transparent" points="-4,4 -4,-238.79 675,-238.79 675,4 -4,4"/>
<!-- Node1 -->
<g id="node1" class="node">
<title>Node1</title>
<g id="a_node1"><a xlink:title="Implements superclass API.">
<polygon fill="#bfbfbf" stroke="black" points="0,-133.5 0,-159.5 115,-159.5 115,-133.5 0,-133.5"/>
<text text-anchor="start" x="8" y="-149.1" font-family="Helvetica,sans-Serif" font-size="8.00">flow::async::Cross</text>
<text text-anchor="middle" x="57.5" y="-140.1" font-family="Helvetica,sans-Serif" font-size="8.00">_thread_task_loop::start</text>
</a>
</g>
</g>
<!-- Node2 -->
<g id="node2" class="node">
<title>Node2</title>
<g id="a_node2"><a xlink:href="classflow_1_1log_1_1Log__context.html#af4db395042b065b00398cd59845dcb4d" target="_top" xlink:title="Returns the stored Logger pointer, particularly as many FLOW_LOG_*() macros expect.">
<polygon fill="white" stroke="black" points="302,-198.5 302,-224.5 409,-224.5 409,-198.5 302,-198.5"/>
<text text-anchor="start" x="310" y="-214.1" font-family="Helvetica,sans-Serif" font-size="8.00">flow::log::Log_context</text>
<text text-anchor="middle" x="355.5" y="-205.1" font-family="Helvetica,sans-Serif" font-size="8.00">::get_logger</text>
</a>
</g>
</g>
<!-- Node1&#45;&gt;Node2 -->
<g id="edge1" class="edge">
<title>Node1&#45;&gt;Node2</title>
<path fill="none" stroke="midnightblue" d="M69.03,-159.75C84.62,-178.2 115.83,-210.78 151,-223.5 198.35,-240.63 255.92,-235.01 297.73,-226.64"/>
<polygon fill="midnightblue" stroke="midnightblue" points="298.68,-230.02 307.73,-224.53 297.23,-223.17 298.68,-230.02"/>
</g>
<!-- Node3 -->
<g id="node3" class="node">
<title>Node3</title>
<g id="a_node3"><a xlink:href="classflow_1_1async_1_1Cross__thread__task__loop.html#a5c9a3da291fa961bb4d8c4be13c39bb8" target="_top" xlink:title="Implements superclass API.">
<polygon fill="white" stroke="black" points="158,-179 158,-214 259,-214 259,-179 158,-179"/>
<text text-anchor="start" x="166" y="-203.6" font-family="Helvetica,sans-Serif" font-size="8.00">flow::async::Cross</text>
<text text-anchor="start" x="166" y="-194.6" font-family="Helvetica,sans-Serif" font-size="8.00">_thread_task_loop::n</text>
<text text-anchor="middle" x="208.5" y="-185.6" font-family="Helvetica,sans-Serif" font-size="8.00">_threads</text>
</a>
</g>
</g>
<!-- Node1&#45;&gt;Node3 -->
<g id="edge2" class="edge">
<title>Node1&#45;&gt;Node3</title>
<path fill="none" stroke="midnightblue" d="M97.26,-159.51C112.76,-164.71 130.96,-170.81 148.05,-176.55"/>
<polygon fill="midnightblue" stroke="midnightblue" points="147.37,-180.01 157.97,-179.88 149.6,-173.38 147.37,-180.01"/>
</g>
<!-- Node4 -->
<g id="node4" class="node">
<title>Node4</title>
<g id="a_node4"><a xlink:href="namespaceflow_1_1async.html#a3e200db7e5375de21d2568004a85dcad" target="_top" xlink:title="Assuming the same situation as documented for optimal_worker_thread_count_per_pool(),...">
<polygon fill="white" stroke="black" points="151,-70.5 151,-96.5 266,-96.5 266,-70.5 151,-70.5"/>
<text text-anchor="start" x="159" y="-86.1" font-family="Helvetica,sans-Serif" font-size="8.00">flow::async::optimize</text>
<text text-anchor="middle" x="208.5" y="-77.1" font-family="Helvetica,sans-Serif" font-size="8.00">_pinning_in_thread_pool</text>
</a>
</g>
</g>
<!-- Node1&#45;&gt;Node4 -->
<g id="edge3" class="edge">
<title>Node1&#45;&gt;Node4</title>
<path fill="none" stroke="midnightblue" d="M89.37,-133.45C111.95,-123.9 142.78,-110.87 167.28,-100.51"/>
<polygon fill="midnightblue" stroke="midnightblue" points="168.82,-103.66 176.67,-96.54 166.09,-97.21 168.82,-103.66"/>
</g>
<!-- Node7 -->
<g id="node7" class="node">
<title>Node7</title>
<g id="a_node7"><a xlink:href="namespaceflow_1_1util.html#a685b86585da2fa5186f51854e7ae1561" target="_top" xlink:title="Equivalent to ostream_op_to_string() but returns a new string by value instead of writing to the call...">
<polygon fill="white" stroke="black" points="309.5,-22.5 309.5,-48.5 401.5,-48.5 401.5,-22.5 309.5,-22.5"/>
<text text-anchor="start" x="317.5" y="-38.1" font-family="Helvetica,sans-Serif" font-size="8.00">flow::util::ostream</text>
<text text-anchor="middle" x="355.5" y="-29.1" font-family="Helvetica,sans-Serif" font-size="8.00">_op_string</text>
</a>
</g>
</g>
<!-- Node1&#45;&gt;Node7 -->
<g id="edge12" class="edge">
<title>Node1&#45;&gt;Node7</title>
<path fill="none" stroke="midnightblue" d="M68.15,-133.32C83.33,-113.7 114.82,-77.34 151,-60.5 197.81,-38.71 256.9,-33.59 299.33,-33.24"/>
<polygon fill="midnightblue" stroke="midnightblue" points="299.47,-36.74 309.47,-33.24 299.47,-29.74 299.47,-36.74"/>
</g>
<!-- Node11 -->
<g id="node11" class="node">
<title>Node11</title>
<g id="a_node11"><a xlink:href="classflow_1_1async_1_1Cross__thread__task__loop.html#ab785edcaa745fb859aaef4743478ea07" target="_top" xlink:title="Implements superclass API.">
<polygon fill="white" stroke="black" points="151.5,-133.5 151.5,-159.5 265.5,-159.5 265.5,-133.5 151.5,-133.5"/>
<text text-anchor="start" x="159.5" y="-149.1" font-family="Helvetica,sans-Serif" font-size="8.00">flow::async::Cross</text>
<text text-anchor="middle" x="208.5" y="-140.1" font-family="Helvetica,sans-Serif" font-size="8.00">_thread_task_loop::post</text>
</a>
</g>
</g>
<!-- Node1&#45;&gt;Node11 -->
<g id="edge13" class="edge">
<title>Node1&#45;&gt;Node11</title>
<path fill="none" stroke="midnightblue" d="M115.26,-146.5C123.77,-146.5 132.61,-146.5 141.3,-146.5"/>
<polygon fill="midnightblue" stroke="midnightblue" points="141.4,-150 151.4,-146.5 141.4,-143 141.4,-150"/>
</g>
<!-- Node4&#45;&gt;Node4 -->
<g id="edge6" class="edge">
<title>Node4&#45;&gt;Node4</title>
<path fill="none" stroke="midnightblue" d="M183.8,-96.77C176.31,-105.96 184.55,-115 208.5,-115 223.1,-115 231.86,-111.64 234.78,-106.94"/>
<polygon fill="midnightblue" stroke="midnightblue" points="238.19,-106.12 233.2,-96.77 231.27,-107.19 238.19,-106.12"/>
</g>
<!-- Node5 -->
<g id="node5" class="node">
<title>Node5</title>
<g id="a_node5"><a xlink:href="namespaceflow_1_1error.html#a48afa7f8c2e100acd461365dfb00a114" target="_top" xlink:title="Equivalent of exec_and_throw_on_error() for operations with void return type.">
<polygon fill="white" stroke="black" points="303.5,-122.5 303.5,-148.5 407.5,-148.5 407.5,-122.5 303.5,-122.5"/>
<text text-anchor="start" x="311.5" y="-138.1" font-family="Helvetica,sans-Serif" font-size="8.00">flow::error::exec_void</text>
<text text-anchor="middle" x="355.5" y="-129.1" font-family="Helvetica,sans-Serif" font-size="8.00">_and_throw_on_error</text>
</a>
</g>
</g>
<!-- Node4&#45;&gt;Node5 -->
<g id="edge4" class="edge">
<title>Node4&#45;&gt;Node5</title>
<path fill="none" stroke="midnightblue" d="M246.09,-96.62C265.05,-103.42 288.4,-111.79 308.56,-119.03"/>
<polygon fill="midnightblue" stroke="midnightblue" points="307.58,-122.39 318.17,-122.47 309.94,-115.8 307.58,-122.39"/>
</g>
<!-- Node6 -->
<g id="node6" class="node">
<title>Node6</title>
<g id="a_node6"><a xlink:href="namespaceflow_1_1async.html#adab04f47b40b92fffbe12bc33fadd223" target="_top" xlink:title="Assuming a planned thread pool will be receiving ~symmetrical load, and its UX&#45;affecting (in particul...">
<polygon fill="white" stroke="black" points="302.5,-68 302.5,-103 408.5,-103 408.5,-68 302.5,-68"/>
<text text-anchor="start" x="310.5" y="-92.6" font-family="Helvetica,sans-Serif" font-size="8.00">flow::async::optimal</text>
<text text-anchor="start" x="310.5" y="-83.6" font-family="Helvetica,sans-Serif" font-size="8.00">_worker_thread_count</text>
<text text-anchor="middle" x="355.5" y="-74.6" font-family="Helvetica,sans-Serif" font-size="8.00">_per_pool</text>
</a>
</g>
</g>
<!-- Node4&#45;&gt;Node6 -->
<g id="edge5" class="edge">
<title>Node4&#45;&gt;Node6</title>
<path fill="none" stroke="midnightblue" d="M266.39,-84.28C274.95,-84.4 283.8,-84.52 292.46,-84.64"/>
<polygon fill="midnightblue" stroke="midnightblue" points="292.45,-88.14 302.5,-84.78 292.54,-81.15 292.45,-88.14"/>
</g>
<!-- Node4&#45;&gt;Node7 -->
<g id="edge7" class="edge">
<title>Node4&#45;&gt;Node7</title>
<path fill="none" stroke="midnightblue" d="M249.12,-70.38C266.54,-64.62 287.16,-57.79 305.53,-51.71"/>
<polygon fill="midnightblue" stroke="midnightblue" points="306.78,-54.98 315.18,-48.52 304.58,-48.34 306.78,-54.98"/>
</g>
<!-- Node8 -->
<g id="node8" class="node">
<title>Node8</title>
<g id="a_node8"><a xlink:href="namespaceflow_1_1util.html#a8afd30c50bcd670d45442df49d1da484" target="_top" xlink:title="Writes to the specified string, as if the given arguments were each passed, via &lt;&lt; in sequence,...">
<polygon fill="white" stroke="black" points="445,-22.5 445,-48.5 537,-48.5 537,-22.5 445,-22.5"/>
<text text-anchor="start" x="453" y="-38.1" font-family="Helvetica,sans-Serif" font-size="8.00">flow::util::ostream</text>
<text text-anchor="middle" x="491" y="-29.1" font-family="Helvetica,sans-Serif" font-size="8.00">_op_to_string</text>
</a>
</g>
</g>
<!-- Node7&#45;&gt;Node8 -->
<g id="edge8" class="edge">
<title>Node7&#45;&gt;Node8</title>
<path fill="none" stroke="midnightblue" d="M401.7,-35.5C412.24,-35.5 423.6,-35.5 434.53,-35.5"/>
<polygon fill="midnightblue" stroke="midnightblue" points="434.85,-39 444.85,-35.5 434.85,-32 434.85,-39"/>
</g>
<!-- Node9 -->
<g id="node9" class="node">
<title>Node9</title>
<g id="a_node9"><a xlink:href="namespaceflow_1_1util.html#af92e6183c2071f4166d4b5a91f50d70c" target="_top" xlink:title="&quot;Induction step&quot; version of variadic function template that simply outputs arguments 2+ via &lt;&lt; to the...">
<polygon fill="white" stroke="black" points="573,-45.5 573,-71.5 671,-71.5 671,-45.5 573,-45.5"/>
<text text-anchor="start" x="581" y="-61.1" font-family="Helvetica,sans-Serif" font-size="8.00">flow::util::feed_args</text>
<text text-anchor="middle" x="622" y="-52.1" font-family="Helvetica,sans-Serif" font-size="8.00">_to_ostream</text>
</a>
</g>
</g>
<!-- Node8&#45;&gt;Node9 -->
<g id="edge9" class="edge">
<title>Node8&#45;&gt;Node9</title>
<path fill="none" stroke="midnightblue" d="M537.12,-43.54C545.37,-45.02 554.09,-46.57 562.66,-48.1"/>
<polygon fill="midnightblue" stroke="midnightblue" points="562.16,-51.56 572.62,-49.87 563.38,-44.67 562.16,-51.56"/>
</g>
<!-- Node10 -->
<g id="node10" class="node">
<title>Node10</title>
<g id="a_node10"><a xlink:href="classflow_1_1util_1_1String__ostream.html#a7e64b069ae0e221952068c13fdc0f080" target="_top" xlink:title="Access to stream that will write to owned string.">
<polygon fill="white" stroke="black" points="581,-0.5 581,-26.5 663,-26.5 663,-0.5 581,-0.5"/>
<text text-anchor="start" x="589" y="-16.1" font-family="Helvetica,sans-Serif" font-size="8.00">flow::util::String</text>
<text text-anchor="middle" x="622" y="-7.1" font-family="Helvetica,sans-Serif" font-size="8.00">_ostream::os</text>
</a>
</g>
</g>
<!-- Node8&#45;&gt;Node10 -->
<g id="edge11" class="edge">
<title>Node8&#45;&gt;Node10</title>
<path fill="none" stroke="midnightblue" d="M537.12,-27.81C548.02,-25.95 559.74,-23.95 570.86,-22.05"/>
<polygon fill="midnightblue" stroke="midnightblue" points="571.59,-25.48 580.86,-20.35 570.41,-18.58 571.59,-25.48"/>
</g>
<!-- Node9&#45;&gt;Node9 -->
<g id="edge10" class="edge">
<title>Node9&#45;&gt;Node9</title>
<path fill="none" stroke="midnightblue" d="M600.01,-71.77C593.34,-80.96 600.67,-90 622,-90 635,-90 642.8,-86.64 645.4,-81.94"/>
<polygon fill="midnightblue" stroke="midnightblue" points="648.83,-81.2 643.99,-71.77 641.89,-82.16 648.83,-81.2"/>
</g>
<!-- Node11&#45;&gt;Node2 -->
<g id="edge14" class="edge">
<title>Node11&#45;&gt;Node2</title>
<path fill="none" stroke="midnightblue" d="M242.5,-159.57C250.24,-162.73 258.44,-166.17 266,-169.5 283.56,-177.24 302.84,-186.31 318.91,-194.05"/>
<polygon fill="midnightblue" stroke="midnightblue" points="317.43,-197.22 327.96,-198.42 320.48,-190.92 317.43,-197.22"/>
</g>
</g>
</svg>
