<?xml version="1.0" encoding="UTF-8" standalone="no"?>
<!DOCTYPE svg PUBLIC "-//W3C//DTD SVG 1.1//EN"
 "http://www.w3.org/Graphics/SVG/1.1/DTD/svg11.dtd">
<!-- Generated by graphviz version 2.43.0 (0)
 -->
<!-- Title: flow::async::Segregated_thread_task_loop::schedule_at Pages: 1 -->
<svg width="837pt" height="230pt"
 viewBox="0.00 0.00 837.00 229.50" xmlns="http://www.w3.org/2000/svg" xmlns:xlink="http://www.w3.org/1999/xlink">
<g id="graph0" class="graph" transform="scale(1 1) rotate(0) translate(4 225.5)">
<title>flow::async::Segregated_thread_task_loop::schedule_at</title>
<polygon fill="white" stroke="transparent" points="-4,4 -4,-225.5 833,-225.5 833,4 -4,4"/>
<!-- Node1 -->
<g id="node1" class="node">
<title>Node1</title>
<g id="a_node1"><a xlink:title="See superclass API.">
<polygon fill="#bfbfbf" stroke="black" points="0,-140.5 0,-166.5 146,-166.5 146,-140.5 0,-140.5"/>
<text text-anchor="start" x="8" y="-156.1" font-family="Helvetica,sans-Serif" font-size="8.00">flow::async::Segregated</text>
<text text-anchor="middle" x="73" y="-147.1" font-family="Helvetica,sans-Serif" font-size="8.00">_thread_task_loop::schedule_at</text>
</a>
</g>
</g>
<!-- Node2 -->
<g id="node2" class="node">
<title>Node2</title>
<g id="a_node2"><a xlink:href="classflow_1_1async_1_1Segregated__thread__task__loop.html#a4cb5a3192dad0ef7d5a228b18d11900a" target="_top" xlink:title="Implements superclass API.">
<polygon fill="white" stroke="black" points="182,-136 182,-171 316,-171 316,-136 182,-136"/>
<text text-anchor="start" x="190" y="-160.6" font-family="Helvetica,sans-Serif" font-size="8.00">flow::async::Segregated</text>
<text text-anchor="start" x="190" y="-151.6" font-family="Helvetica,sans-Serif" font-size="8.00">_thread_task_loop::schedule</text>
<text text-anchor="middle" x="249" y="-142.6" font-family="Helvetica,sans-Serif" font-size="8.00">_from_now</text>
</a>
</g>
</g>
<!-- Node1&#45;&gt;Node2 -->
<g id="edge1" class="edge">
<title>Node1&#45;&gt;Node2</title>
<path fill="none" stroke="midnightblue" d="M146.03,-153.5C154.47,-153.5 163.11,-153.5 171.6,-153.5"/>
<polygon fill="midnightblue" stroke="midnightblue" points="171.88,-157 181.88,-153.5 171.88,-150 171.88,-157"/>
</g>
<!-- Node3 -->
<g id="node3" class="node">
<title>Node3</title>
<g id="a_node3"><a xlink:href="classflow_1_1async_1_1Segregated__thread__task__loop.html#a4c42c76a9d3f2926bb5545065d69783e" target="_top" xlink:title="Implements superclass API.">
<polygon fill="white" stroke="black" points="360.5,-186 360.5,-221 477.5,-221 477.5,-186 360.5,-186"/>
<text text-anchor="start" x="368.5" y="-210.6" font-family="Helvetica,sans-Serif" font-size="8.00">flow::async::Segregated</text>
<text text-anchor="start" x="368.5" y="-201.6" font-family="Helvetica,sans-Serif" font-size="8.00">_thread_task_loop::per</text>
<text text-anchor="middle" x="419" y="-192.6" font-family="Helvetica,sans-Serif" font-size="8.00">_thread_ops</text>
</a>
</g>
</g>
<!-- Node2&#45;&gt;Node3 -->
<g id="edge2" class="edge">
<title>Node2&#45;&gt;Node3</title>
<path fill="none" stroke="midnightblue" d="M309.23,-171.13C322.61,-175.11 336.91,-179.37 350.6,-183.44"/>
<polygon fill="midnightblue" stroke="midnightblue" points="349.85,-186.87 360.43,-186.37 351.85,-180.16 349.85,-186.87"/>
</g>
<!-- Node4 -->
<g id="node4" class="node">
<title>Node4</title>
<g id="a_node4"><a xlink:href="classflow_1_1async_1_1Op__list.html#ad0929efa574298c96c13845a6e020d7d" target="_top" xlink:title="Returns a randomly selected index from range [O, size()).">
<polygon fill="white" stroke="black" points="371,-140.5 371,-166.5 467,-166.5 467,-140.5 371,-140.5"/>
<text text-anchor="start" x="379" y="-156.1" font-family="Helvetica,sans-Serif" font-size="8.00">flow::async::Op_list</text>
<text text-anchor="middle" x="419" y="-147.1" font-family="Helvetica,sans-Serif" font-size="8.00">::random_idx</text>
</a>
</g>
</g>
<!-- Node2&#45;&gt;Node4 -->
<g id="edge3" class="edge">
<title>Node2&#45;&gt;Node4</title>
<path fill="none" stroke="midnightblue" d="M316.4,-153.5C331.08,-153.5 346.52,-153.5 360.81,-153.5"/>
<polygon fill="midnightblue" stroke="midnightblue" points="360.98,-157 370.98,-153.5 360.98,-150 360.98,-157"/>
</g>
<!-- Node5 -->
<g id="node5" class="node">
<title>Node5</title>
<g id="a_node5"><a xlink:href="classflow_1_1async_1_1Segregated__thread__task__loop.html#a8fbd7b964d140c770eac1f71e52bcf1c" target="_top" xlink:title="Helper performing the core util::schedule_task_from_now() call on behalf of the various schedule_from...">
<polygon fill="white" stroke="black" points="352,-86 352,-121 486,-121 486,-86 352,-86"/>
<text text-anchor="start" x="360" y="-110.6" font-family="Helvetica,sans-Serif" font-size="8.00">flow::async::Segregated</text>
<text text-anchor="start" x="360" y="-101.6" font-family="Helvetica,sans-Serif" font-size="8.00">_thread_task_loop::schedule</text>
<text text-anchor="middle" x="419" y="-92.6" font-family="Helvetica,sans-Serif" font-size="8.00">_from_now_impl</text>
</a>
</g>
</g>
<!-- Node2&#45;&gt;Node5 -->
<g id="edge4" class="edge">
<title>Node2&#45;&gt;Node5</title>
<path fill="none" stroke="midnightblue" d="M309.23,-135.87C322.23,-132 336.1,-127.88 349.43,-123.91"/>
<polygon fill="midnightblue" stroke="midnightblue" points="350.44,-127.26 359.02,-121.05 348.44,-120.55 350.44,-127.26"/>
</g>
<!-- Node6 -->
<g id="node6" class="node">
<title>Node6</title>
<g id="a_node6"><a xlink:href="namespaceflow_1_1async.html#a4cce43f39672e80cba5512103c53ae60" target="_top" xlink:title="Returns the 0&#45;based processor logical (not hardware) core index of the core executing the calling thr...">
<polygon fill="white" stroke="black" points="540.5,-181 540.5,-198 640.5,-198 640.5,-181 540.5,-181"/>
<text text-anchor="middle" x="590.5" y="-187.6" font-family="Helvetica,sans-Serif" font-size="8.00">flow::async::cpu_idx</text>
</a>
</g>
</g>
<!-- Node5&#45;&gt;Node6 -->
<g id="edge5" class="edge">
<title>Node5&#45;&gt;Node6</title>
<path fill="none" stroke="midnightblue" d="M468.55,-121.17C474.65,-124.22 480.63,-127.67 486,-131.5 505.47,-145.39 501.6,-159.01 522,-171.5 525.61,-173.71 529.48,-175.65 533.49,-177.35"/>
<polygon fill="midnightblue" stroke="midnightblue" points="532.42,-180.69 543.01,-180.92 534.87,-174.13 532.42,-180.69"/>
</g>
<!-- Node7 -->
<g id="node7" class="node">
<title>Node7</title>
<g id="a_node7"><a xlink:href="classflow_1_1log_1_1Log__context.html#a8a5fef42dc2cedf3c0d1a6e83beb2948" target="_top" xlink:title="Returns reference to the stored Component object, particularly as many FLOW_LOG_*() macros expect.">
<polygon fill="white" stroke="black" points="537,-135.5 537,-161.5 644,-161.5 644,-135.5 537,-135.5"/>
<text text-anchor="start" x="545" y="-151.1" font-family="Helvetica,sans-Serif" font-size="8.00">flow::log::Log_context</text>
<text text-anchor="middle" x="590.5" y="-142.1" font-family="Helvetica,sans-Serif" font-size="8.00">::get_log_component</text>
</a>
</g>
</g>
<!-- Node5&#45;&gt;Node7 -->
<g id="edge6" class="edge">
<title>Node5&#45;&gt;Node7</title>
<path fill="none" stroke="midnightblue" d="M486.02,-121.03C500.75,-124.94 516.27,-129.06 530.68,-132.88"/>
<polygon fill="midnightblue" stroke="midnightblue" points="529.9,-136.3 540.46,-135.48 531.69,-129.53 529.9,-136.3"/>
</g>
<!-- Node8 -->
<g id="node8" class="node">
<title>Node8</title>
<g id="a_node8"><a xlink:href="classflow_1_1log_1_1Log__context.html#af4db395042b065b00398cd59845dcb4d" target="_top" xlink:title="Returns the stored Logger pointer, particularly as many FLOW_LOG_*() macros expect.">
<polygon fill="white" stroke="black" points="537,-90.5 537,-116.5 644,-116.5 644,-90.5 537,-90.5"/>
<text text-anchor="start" x="545" y="-106.1" font-family="Helvetica,sans-Serif" font-size="8.00">flow::log::Log_context</text>
<text text-anchor="middle" x="590.5" y="-97.1" font-family="Helvetica,sans-Serif" font-size="8.00">::get_logger</text>
</a>
</g>
</g>
<!-- Node5&#45;&gt;Node8 -->
<g id="edge7" class="edge">
<title>Node5&#45;&gt;Node8</title>
<path fill="none" stroke="midnightblue" d="M486.02,-103.5C499.29,-103.5 513.22,-103.5 526.39,-103.5"/>
<polygon fill="midnightblue" stroke="midnightblue" points="526.77,-107 536.77,-103.5 526.77,-100 526.77,-107"/>
</g>
<!-- Node9 -->
<g id="node9" class="node">
<title>Node9</title>
<g id="a_node9"><a xlink:href="classflow_1_1async_1_1Segregated__thread__task__loop.html#a28d7c70f0d3147ba48a10afa84ef98c1" target="_top" xlink:title="Implements superclass API.">
<polygon fill="white" stroke="black" points="522,-45.5 522,-71.5 659,-71.5 659,-45.5 522,-45.5"/>
<text text-anchor="start" x="530" y="-61.1" font-family="Helvetica,sans-Serif" font-size="8.00">flow::async::Segregated</text>
<text text-anchor="middle" x="590.5" y="-52.1" font-family="Helvetica,sans-Serif" font-size="8.00">_thread_task_loop::n_threads</text>
</a>
</g>
</g>
<!-- Node5&#45;&gt;Node9 -->
<g id="edge8" class="edge">
<title>Node5&#45;&gt;Node9</title>
<path fill="none" stroke="midnightblue" d="M486.02,-85.97C500.75,-82.06 516.27,-77.94 530.68,-74.12"/>
<polygon fill="midnightblue" stroke="midnightblue" points="531.69,-77.47 540.46,-71.52 529.9,-70.7 531.69,-77.47"/>
</g>
<!-- Node10 -->
<g id="node10" class="node">
<title>Node10</title>
<g id="a_node10"><a xlink:href="namespaceflow_1_1util.html#a74d4a66fb00055be4e1bd6ee98e04667" target="_top" xlink:title="Schedule the given function to execute in a certain amount of time: A handy wrapper around Timer (asi...">
<polygon fill="white" stroke="black" points="543,-0.5 543,-26.5 638,-26.5 638,-0.5 543,-0.5"/>
<text text-anchor="start" x="551" y="-16.1" font-family="Helvetica,sans-Serif" font-size="8.00">flow::util::schedule</text>
<text text-anchor="middle" x="590.5" y="-7.1" font-family="Helvetica,sans-Serif" font-size="8.00">_task_from_now</text>
</a>
</g>
</g>
<!-- Node5&#45;&gt;Node10 -->
<g id="edge9" class="edge">
<title>Node5&#45;&gt;Node10</title>
<path fill="none" stroke="midnightblue" d="M443.3,-85.73C463.34,-71.06 493.45,-50.46 522,-36.5 526.61,-34.25 531.49,-32.12 536.45,-30.14"/>
<polygon fill="midnightblue" stroke="midnightblue" points="537.89,-33.33 545.99,-26.51 535.4,-26.79 537.89,-33.33"/>
</g>
<!-- Node11 -->
<g id="node11" class="node">
<title>Node11</title>
<g id="a_node11"><a xlink:href="classflow_1_1util_1_1Unique__id__holder.html#a50489177a7731618ca130468c3872748" target="_top" xlink:title="Short&#45;hand for Unique_id_holder().unique_id(); useful when all you want is the unique integer itself.">
<polygon fill="white" stroke="red" points="695,-0.5 695,-26.5 829,-26.5 829,-0.5 695,-0.5"/>
<text text-anchor="start" x="703" y="-16.1" font-family="Helvetica,sans-Serif" font-size="8.00">flow::util::Unique</text>
<text text-anchor="middle" x="762" y="-7.1" font-family="Helvetica,sans-Serif" font-size="8.00">_id_holder::create_unique_id</text>
</a>
</g>
</g>
<!-- Node10&#45;&gt;Node11 -->
<g id="edge10" class="edge">
<title>Node10&#45;&gt;Node11</title>
<path fill="none" stroke="midnightblue" d="M638.27,-13.5C652.57,-13.5 668.7,-13.5 684.45,-13.5"/>
<polygon fill="midnightblue" stroke="midnightblue" points="684.72,-17 694.72,-13.5 684.72,-10 684.72,-17"/>
</g>
</g>
</svg>
