<?xml version="1.0" encoding="UTF-8" standalone="no"?>
<!DOCTYPE svg PUBLIC "-//W3C//DTD SVG 1.1//EN"
 "http://www.w3.org/Graphics/SVG/1.1/DTD/svg11.dtd">
<!-- Generated by graphviz version 2.43.0 (0)
 -->
<!-- Title: flow::util::Duration_units_beautified Pages: 1 -->
<svg width="123pt" height="98pt"
 viewBox="0.00 0.00 123.00 98.00" xmlns="http://www.w3.org/2000/svg" xmlns:xlink="http://www.w3.org/1999/xlink">
<g id="graph0" class="graph" transform="scale(1 1) rotate(0) translate(4 94)">
<title>flow::util::Duration_units_beautified</title>
<polygon fill="white" stroke="transparent" points="-4,4 -4,-94 119,-94 119,4 -4,4"/>
<!-- Node1 -->
<g id="node1" class="node">
<title>Node1</title>
<g id="a_node1"><a xlink:title="Internally used class that enables some of the activities of beautify_chrono_ostream() API.">
<polygon fill="#bfbfbf" stroke="black" points="11,-0.5 11,-26.5 104,-26.5 104,-0.5 11,-0.5"/>
<text text-anchor="start" x="19" y="-16.1" font-family="Helvetica,sans-Serif" font-size="8.00">flow::util::Duration</text>
<text text-anchor="middle" x="57.5" y="-7.1" font-family="Helvetica,sans-Serif" font-size="8.00">_units_beautified</text>
</a>
</g>
</g>
<!-- Node2 -->
<g id="node2" class="node">
<title>Node2</title>
<g id="a_node2"><a xlink:href="classboost_1_1chrono_1_1duration__units__default.html" target="_top" xlink:title=" ">
<polygon fill="white" stroke="#bfbfbf" points="0,-63.5 0,-89.5 115,-89.5 115,-63.5 0,-63.5"/>
<text text-anchor="start" x="8" y="-79.1" font-family="Helvetica,sans-Serif" font-size="8.00">boost::chrono::duration</text>
<text text-anchor="middle" x="57.5" y="-70.1" font-family="Helvetica,sans-Serif" font-size="8.00">_units_default&lt; char &gt;</text>
</a>
</g>
</g>
<!-- Node2&#45;&gt;Node1 -->
<g id="edge1" class="edge">
<title>Node2&#45;&gt;Node1</title>
<path fill="none" stroke="midnightblue" d="M57.5,-53.19C57.5,-44.18 57.5,-34.12 57.5,-26.53"/>
<polygon fill="midnightblue" stroke="midnightblue" points="54,-53.45 57.5,-63.45 61,-53.45 54,-53.45"/>
</g>
</g>
</svg>
