<?xml version="1.0" encoding="UTF-8" standalone="no"?>
<!DOCTYPE svg PUBLIC "-//W3C//DTD SVG 1.1//EN"
 "http://www.w3.org/Graphics/SVG/1.1/DTD/svg11.dtd">
<!-- Generated by graphviz version 2.43.0 (0)
 -->
<!-- Title: flow::net_flow::Node::snd_buf_enqable Pages: 1 -->
<svg width="703pt" height="103pt"
 viewBox="0.00 0.00 703.00 103.00" xmlns="http://www.w3.org/2000/svg" xmlns:xlink="http://www.w3.org/1999/xlink">
<g id="graph0" class="graph" transform="scale(1 1) rotate(0) translate(4 99)">
<title>flow::net_flow::Node::snd_buf_enqable</title>
<polygon fill="white" stroke="transparent" points="-4,4 -4,-99 699,-99 699,4 -4,4"/>
<!-- Node1 -->
<g id="node1" class="node">
<title>Node1</title>
<g id="a_node1"><a xlink:title="Return true if and only if there is enough free space in Peer_socket::m_snd_buf of sock to enqueue an...">
<polygon fill="#bfbfbf" stroke="black" points="594,-22.5 594,-48.5 695,-48.5 695,-22.5 594,-22.5"/>
<text text-anchor="start" x="602" y="-38.1" font-family="Helvetica,sans-Serif" font-size="8.00">flow::net_flow::Node</text>
<text text-anchor="middle" x="644.5" y="-29.1" font-family="Helvetica,sans-Serif" font-size="8.00">::snd_buf_enqable</text>
</a>
</g>
</g>
<!-- Node2 -->
<g id="node2" class="node">
<title>Node2</title>
<g id="a_node2"><a xlink:href="classflow_1_1net__flow_1_1Node.html#a10a92f11a2c9f218cdd9a55f282e79b1" target="_top" xlink:title="Thread W implemention of send(): synchronously or asynchronously send the contents of sock&#45;&gt;m_snd_buf...">
<polygon fill="white" stroke="black" points="457,-45.5 457,-71.5 558,-71.5 558,-45.5 457,-45.5"/>
<text text-anchor="start" x="465" y="-61.1" font-family="Helvetica,sans-Serif" font-size="8.00">flow::net_flow::Node</text>
<text text-anchor="middle" x="507.5" y="-52.1" font-family="Helvetica,sans-Serif" font-size="8.00">::send_worker</text>
</a>
</g>
</g>
<!-- Node1&#45;&gt;Node2 -->
<g id="edge1" class="edge">
<title>Node1&#45;&gt;Node2</title>
<path fill="none" stroke="midnightblue" d="M584.07,-45.62C575.52,-47.08 566.79,-48.57 558.45,-49.99"/>
<polygon fill="midnightblue" stroke="midnightblue" points="584.73,-49.06 594,-43.93 583.55,-42.16 584.73,-49.06"/>
</g>
<!-- Node12 -->
<g id="node7" class="node">
<title>Node12</title>
<g id="a_node7"><a xlink:href="classflow_1_1net__flow_1_1Node.html#a0756fc7301d0cfa66f19e681a9c60c06" target="_top" xlink:title="Returns true if and only if calling sock&#45;&gt;send() with at least some arguments would return either non...">
<polygon fill="white" stroke="black" points="457,-0.5 457,-26.5 558,-26.5 558,-0.5 457,-0.5"/>
<text text-anchor="start" x="465" y="-16.1" font-family="Helvetica,sans-Serif" font-size="8.00">flow::net_flow::Node</text>
<text text-anchor="middle" x="507.5" y="-7.1" font-family="Helvetica,sans-Serif" font-size="8.00">::sock_is_writable</text>
</a>
</g>
</g>
<!-- Node1&#45;&gt;Node12 -->
<g id="edge6" class="edge">
<title>Node1&#45;&gt;Node12</title>
<path fill="none" stroke="midnightblue" d="M584.07,-25.82C575.52,-24.42 566.79,-23 558.45,-21.64"/>
<polygon fill="midnightblue" stroke="midnightblue" points="583.56,-29.28 594,-27.43 584.69,-22.37 583.56,-29.28"/>
</g>
<!-- Node3 -->
<g id="node3" class="node">
<title>Node3</title>
<g id="a_node3"><a xlink:href="classflow_1_1net__flow_1_1Node.html#a2565b7c0bd82cad86eb168b62f8ffd9d" target="_top" xlink:title="Helper placed by send() onto W to invoke send_worker() but ensures that the socket has not entered so...">
<polygon fill="white" stroke="black" points="294,-45.5 294,-71.5 421,-71.5 421,-45.5 294,-45.5"/>
<text text-anchor="start" x="302" y="-61.1" font-family="Helvetica,sans-Serif" font-size="8.00">flow::net_flow::Node</text>
<text text-anchor="middle" x="357.5" y="-52.1" font-family="Helvetica,sans-Serif" font-size="8.00">::send_worker_check_state</text>
</a>
</g>
</g>
<!-- Node2&#45;&gt;Node3 -->
<g id="edge2" class="edge">
<title>Node2&#45;&gt;Node3</title>
<path fill="none" stroke="midnightblue" d="M446.72,-58.5C438.31,-58.5 429.66,-58.5 421.2,-58.5"/>
<polygon fill="midnightblue" stroke="midnightblue" points="446.81,-62 456.81,-58.5 446.81,-55 446.81,-62"/>
</g>
<!-- Node4 -->
<g id="node4" class="node">
<title>Node4</title>
<g id="a_node4"><a xlink:href="classflow_1_1net__flow_1_1Node.html#aa19d1f49638ef8ce8883e7477a06d3fc" target="_top" xlink:title="Implementation of non&#45;blocking sock&#45;&gt;send() for socket sock in all cases except when sock&#45;&gt;state() ==...">
<polygon fill="white" stroke="black" points="157,-45.5 157,-71.5 258,-71.5 258,-45.5 157,-45.5"/>
<text text-anchor="start" x="165" y="-61.1" font-family="Helvetica,sans-Serif" font-size="8.00">flow::net_flow::Node</text>
<text text-anchor="middle" x="207.5" y="-52.1" font-family="Helvetica,sans-Serif" font-size="8.00">::send</text>
</a>
</g>
</g>
<!-- Node3&#45;&gt;Node4 -->
<g id="edge3" class="edge">
<title>Node3&#45;&gt;Node4</title>
<path fill="none" stroke="midnightblue" d="M283.7,-58.5C275.12,-58.5 266.51,-58.5 258.35,-58.5"/>
<polygon fill="midnightblue" stroke="midnightblue" points="283.73,-62 293.73,-58.5 283.73,-55 283.73,-62"/>
</g>
<!-- Node5 -->
<g id="node5" class="node">
<title>Node5</title>
<g id="a_node5"><a xlink:href="classflow_1_1net__flow_1_1Peer__socket.html#a83ba2b4c39555afad67932ea6ed39bbe" target="_top" xlink:title="Non&#45;template helper for template send() that forwards the send() logic to Node::send().">
<polygon fill="white" stroke="red" points="11.5,-68.5 11.5,-94.5 109.5,-94.5 109.5,-68.5 11.5,-68.5"/>
<text text-anchor="start" x="19.5" y="-84.1" font-family="Helvetica,sans-Serif" font-size="8.00">flow::net_flow::Peer</text>
<text text-anchor="middle" x="60.5" y="-75.1" font-family="Helvetica,sans-Serif" font-size="8.00">_socket::node_send</text>
</a>
</g>
</g>
<!-- Node4&#45;&gt;Node5 -->
<g id="edge4" class="edge">
<title>Node4&#45;&gt;Node5</title>
<path fill="none" stroke="midnightblue" d="M146.42,-68.03C134.13,-69.98 121.34,-72.01 109.53,-73.88"/>
<polygon fill="midnightblue" stroke="midnightblue" points="147.27,-71.44 156.6,-66.42 146.17,-64.53 147.27,-71.44"/>
</g>
<!-- Node7 -->
<g id="node6" class="node">
<title>Node7</title>
<g id="a_node6"><a xlink:href="classflow_1_1net__flow_1_1Peer__socket.html#a34e2c7dfb5596269a6f86a716015f1a6" target="_top" xlink:title="This is to sync_send() as node_send() is to send().">
<polygon fill="white" stroke="red" points="0,-23.5 0,-49.5 121,-49.5 121,-23.5 0,-23.5"/>
<text text-anchor="start" x="8" y="-39.1" font-family="Helvetica,sans-Serif" font-size="8.00">flow::net_flow::Peer</text>
<text text-anchor="middle" x="60.5" y="-30.1" font-family="Helvetica,sans-Serif" font-size="8.00">_socket::node_sync_send</text>
</a>
</g>
</g>
<!-- Node4&#45;&gt;Node7 -->
<g id="edge5" class="edge">
<title>Node4&#45;&gt;Node7</title>
<path fill="none" stroke="midnightblue" d="M146.55,-49.4C138.19,-48.14 129.6,-46.83 121.25,-45.57"/>
<polygon fill="midnightblue" stroke="midnightblue" points="146.19,-52.89 156.6,-50.93 147.24,-45.97 146.19,-52.89"/>
</g>
</g>
</svg>
