<?xml version="1.0" encoding="UTF-8" standalone="no"?>
<!DOCTYPE svg PUBLIC "-//W3C//DTD SVG 1.1//EN"
 "http://www.w3.org/Graphics/SVG/1.1/DTD/svg11.dtd">
<!-- Generated by graphviz version 2.43.0 (0)
 -->
<!-- Title: flow::net_flow::Peer_socket::close_abruptly Pages: 1 -->
<svg width="928pt" height="692pt"
 viewBox="0.00 0.00 928.00 691.50" xmlns="http://www.w3.org/2000/svg" xmlns:xlink="http://www.w3.org/1999/xlink">
<g id="graph0" class="graph" transform="scale(1 1) rotate(0) translate(4 687.5)">
<title>flow::net_flow::Peer_socket::close_abruptly</title>
<polygon fill="white" stroke="transparent" points="-4,4 -4,-687.5 924,-687.5 924,4 -4,4"/>
<!-- Node1 -->
<g id="node1" class="node">
<title>Node1</title>
<g id="a_node1"><a xlink:title="Acts as if fatal error error::Code::S_USER_CLOSED_ABRUPTLY has been discovered on the connection.">
<polygon fill="#bfbfbf" stroke="black" points="0,-196.5 0,-222.5 113,-222.5 113,-196.5 0,-196.5"/>
<text text-anchor="start" x="8" y="-212.1" font-family="Helvetica,sans-Serif" font-size="8.00">flow::net_flow::Peer</text>
<text text-anchor="middle" x="56.5" y="-203.1" font-family="Helvetica,sans-Serif" font-size="8.00">_socket::close_abruptly</text>
</a>
</g>
</g>
<!-- Node1&#45;&gt;Node1 -->
<g id="edge1" class="edge">
<title>Node1&#45;&gt;Node1</title>
<path fill="none" stroke="midnightblue" d="M32.14,-222.77C24.75,-231.96 32.88,-241 56.5,-241 70.9,-241 79.54,-237.64 82.42,-232.94"/>
<polygon fill="midnightblue" stroke="midnightblue" points="85.83,-232.13 80.86,-222.77 78.91,-233.18 85.83,-232.13"/>
</g>
<!-- Node2 -->
<g id="node2" class="node">
<title>Node2</title>
<g id="a_node2"><a xlink:href="classflow_1_1net__flow_1_1Node.html#a6461124e5bc3e59083e172e26029e632" target="_top" xlink:title="Implementation of non&#45;blocking sock&#45;&gt;close_abruptly() for socket sock in all cases except when sock&#45;&gt;...">
<polygon fill="white" stroke="black" points="150.5,-241.5 150.5,-267.5 251.5,-267.5 251.5,-241.5 150.5,-241.5"/>
<text text-anchor="start" x="158.5" y="-257.1" font-family="Helvetica,sans-Serif" font-size="8.00">flow::net_flow::Node</text>
<text text-anchor="middle" x="201" y="-248.1" font-family="Helvetica,sans-Serif" font-size="8.00">::close_abruptly</text>
</a>
</g>
</g>
<!-- Node1&#45;&gt;Node2 -->
<g id="edge2" class="edge">
<title>Node1&#45;&gt;Node2</title>
<path fill="none" stroke="midnightblue" d="M98.72,-222.52C114.24,-227.42 132.08,-233.05 148.43,-238.22"/>
<polygon fill="midnightblue" stroke="midnightblue" points="147.79,-241.68 158.38,-241.36 149.9,-235.01 147.79,-241.68"/>
</g>
<!-- Node55 -->
<g id="node23" class="node">
<title>Node55</title>
<g id="a_node23"><a xlink:href="classflow_1_1net__flow_1_1Node.html#a109a118ca312e94686595ea08dac7ad0" target="_top" xlink:title="Helper method that checks whether the given Peer_socket or Server_socket is CLOSED; if so,...">
<polygon fill="white" stroke="black" points="150.5,-196.5 150.5,-222.5 251.5,-222.5 251.5,-196.5 150.5,-196.5"/>
<text text-anchor="start" x="158.5" y="-212.1" font-family="Helvetica,sans-Serif" font-size="8.00">flow::net_flow::Node</text>
<text text-anchor="middle" x="201" y="-203.1" font-family="Helvetica,sans-Serif" font-size="8.00">::ensure_sock_open</text>
</a>
</g>
</g>
<!-- Node1&#45;&gt;Node55 -->
<g id="edge28" class="edge">
<title>Node1&#45;&gt;Node55</title>
<path fill="none" stroke="midnightblue" d="M113,-209.5C121.97,-209.5 131.3,-209.5 140.36,-209.5"/>
<polygon fill="midnightblue" stroke="midnightblue" points="140.45,-213 150.45,-209.5 140.45,-206 140.45,-213"/>
</g>
<!-- Node56 -->
<g id="node24" class="node">
<title>Node56</title>
<g id="a_node24"><a xlink:href="namespaceflow_1_1error.html#a48afa7f8c2e100acd461365dfb00a114" target="_top" xlink:title="Equivalent of exec_and_throw_on_error() for operations with void return type.">
<polygon fill="white" stroke="black" points="149,-151.5 149,-177.5 253,-177.5 253,-151.5 149,-151.5"/>
<text text-anchor="start" x="157" y="-167.1" font-family="Helvetica,sans-Serif" font-size="8.00">flow::error::exec_void</text>
<text text-anchor="middle" x="201" y="-158.1" font-family="Helvetica,sans-Serif" font-size="8.00">_and_throw_on_error</text>
</a>
</g>
</g>
<!-- Node1&#45;&gt;Node56 -->
<g id="edge29" class="edge">
<title>Node1&#45;&gt;Node56</title>
<path fill="none" stroke="midnightblue" d="M98.72,-196.48C114.24,-191.58 132.08,-185.95 148.43,-180.78"/>
<polygon fill="midnightblue" stroke="midnightblue" points="149.9,-183.99 158.38,-177.64 147.79,-177.32 149.9,-183.99"/>
</g>
<!-- Node3 -->
<g id="node3" class="node">
<title>Node3</title>
<g id="a_node3"><a xlink:href="namespaceflow_1_1async.html#a24567271e97a67d3cae6bd8bf8dc63c4" target="_top" xlink:title="An extension of boost.asio&#39;s post() and dispatch() free function templates, this free function templa...">
<polygon fill="white" stroke="black" points="298.5,-620.5 298.5,-646.5 407.5,-646.5 407.5,-620.5 298.5,-620.5"/>
<text text-anchor="start" x="306.5" y="-636.1" font-family="Helvetica,sans-Serif" font-size="8.00">flow::async::asio_exec</text>
<text text-anchor="middle" x="353" y="-627.1" font-family="Helvetica,sans-Serif" font-size="8.00">_ctx_post</text>
</a>
</g>
</g>
<!-- Node2&#45;&gt;Node3 -->
<g id="edge3" class="edge">
<title>Node2&#45;&gt;Node3</title>
<path fill="none" stroke="midnightblue" d="M201.39,-267.77C199.8,-318.17 200.66,-500.14 289,-605.5 292.1,-609.2 295.8,-612.43 299.82,-615.25"/>
<polygon fill="midnightblue" stroke="midnightblue" points="298.07,-618.28 308.43,-620.47 301.69,-612.3 298.07,-618.28"/>
</g>
<!-- Node6 -->
<g id="node6" class="node">
<title>Node6</title>
<g id="a_node6"><a xlink:href="classflow_1_1log_1_1Log__context.html#af4db395042b065b00398cd59845dcb4d" target="_top" xlink:title="Returns the stored Logger pointer, particularly as many FLOW_LOG_*() macros expect.">
<polygon fill="white" stroke="black" points="811.5,-540.5 811.5,-566.5 918.5,-566.5 918.5,-540.5 811.5,-540.5"/>
<text text-anchor="start" x="819.5" y="-556.1" font-family="Helvetica,sans-Serif" font-size="8.00">flow::log::Log_context</text>
<text text-anchor="middle" x="865" y="-547.1" font-family="Helvetica,sans-Serif" font-size="8.00">::get_logger</text>
</a>
</g>
</g>
<!-- Node2&#45;&gt;Node6 -->
<g id="edge6" class="edge">
<title>Node2&#45;&gt;Node6</title>
<path fill="none" stroke="midnightblue" d="M209.11,-267.81C234.73,-314.22 327.42,-469.63 453,-534.5 564.75,-592.23 717.23,-579.53 801.53,-565.98"/>
<polygon fill="midnightblue" stroke="midnightblue" points="802.18,-569.42 811.47,-564.32 801.03,-562.51 802.18,-569.42"/>
</g>
<!-- Node7 -->
<g id="node7" class="node">
<title>Node7</title>
<g id="a_node7"><a xlink:href="classflow_1_1net__flow_1_1Node.html#afe70a0c32695e417e7a09e0ba773f151" target="_top" xlink:title="Asynchronously send RST to the other side of the given socket and close_connection_immediately().">
<polygon fill="white" stroke="black" points="289,-237 289,-272 417,-272 417,-237 289,-237"/>
<text text-anchor="start" x="297" y="-261.6" font-family="Helvetica,sans-Serif" font-size="8.00">flow::net_flow::Node</text>
<text text-anchor="start" x="297" y="-252.6" font-family="Helvetica,sans-Serif" font-size="8.00">::rst_and_close_connection</text>
<text text-anchor="middle" x="353" y="-243.6" font-family="Helvetica,sans-Serif" font-size="8.00">_immediately</text>
</a>
</g>
</g>
<!-- Node2&#45;&gt;Node7 -->
<g id="edge7" class="edge">
<title>Node2&#45;&gt;Node7</title>
<path fill="none" stroke="midnightblue" d="M251.53,-254.5C260.3,-254.5 269.61,-254.5 278.87,-254.5"/>
<polygon fill="midnightblue" stroke="midnightblue" points="278.88,-258 288.88,-254.5 278.88,-251 278.88,-258"/>
</g>
<!-- Node20 -->
<g id="node21" class="node">
<title>Node20</title>
<g id="a_node21"><a xlink:href="classflow_1_1net__flow_1_1Node.html#a99836ffb51eaefa4d2cc21770461cd97" target="_top" xlink:title="Constructs the socket pair (connection ID) for the given socket.">
<polygon fill="white" stroke="black" points="655,-0.5 655,-26.5 756,-26.5 756,-0.5 655,-0.5"/>
<text text-anchor="start" x="663" y="-16.1" font-family="Helvetica,sans-Serif" font-size="8.00">flow::net_flow::Node</text>
<text text-anchor="middle" x="705.5" y="-7.1" font-family="Helvetica,sans-Serif" font-size="8.00">::socket_id</text>
</a>
</g>
</g>
<!-- Node2&#45;&gt;Node20 -->
<g id="edge27" class="edge">
<title>Node2&#45;&gt;Node20</title>
<path fill="none" stroke="midnightblue" d="M232.81,-241.39C239.49,-238.5 246.49,-235.43 253,-232.5 326.42,-199.44 345.18,-191.91 417,-155.5 516.34,-105.14 534.73,-79.61 637,-35.5 641.44,-33.59 646.09,-31.74 650.8,-29.99"/>
<polygon fill="midnightblue" stroke="midnightblue" points="652.25,-33.2 660.49,-26.54 649.9,-26.6 652.25,-33.2"/>
</g>
<!-- Node54 -->
<g id="node22" class="node">
<title>Node54</title>
<g id="a_node22"><a xlink:href="classflow_1_1net__flow_1_1Node.html#aae148cec361b59237996a4b30c6624b5" target="_top" xlink:title="Returns true if and only if the Node is operating.">
<polygon fill="white" stroke="black" points="302.5,-119.5 302.5,-145.5 403.5,-145.5 403.5,-119.5 302.5,-119.5"/>
<text text-anchor="start" x="310.5" y="-135.1" font-family="Helvetica,sans-Serif" font-size="8.00">flow::net_flow::Node</text>
<text text-anchor="middle" x="353" y="-126.1" font-family="Helvetica,sans-Serif" font-size="8.00">::running</text>
</a>
</g>
</g>
<!-- Node2&#45;&gt;Node54 -->
<g id="edge26" class="edge">
<title>Node2&#45;&gt;Node54</title>
<path fill="none" stroke="midnightblue" d="M240.6,-241.42C245.09,-238.9 249.36,-235.94 253,-232.5 279,-207.93 263.13,-185.22 289,-160.5 293,-156.68 297.61,-153.32 302.49,-150.39"/>
<polygon fill="midnightblue" stroke="midnightblue" points="304.31,-153.38 311.46,-145.56 300.99,-147.21 304.31,-153.38"/>
</g>
<!-- Node4 -->
<g id="node4" class="node">
<title>Node4</title>
<g id="a_node4"><a xlink:href="namespaceflow_1_1async.html#a4cce43f39672e80cba5512103c53ae60" target="_top" xlink:title="Returns the 0&#45;based processor logical (not hardware) core index of the core executing the calling thr...">
<polygon fill="white" stroke="black" points="477,-666 477,-683 577,-683 577,-666 477,-666"/>
<text text-anchor="middle" x="527" y="-672.6" font-family="Helvetica,sans-Serif" font-size="8.00">flow::async::cpu_idx</text>
</a>
</g>
</g>
<!-- Node3&#45;&gt;Node4 -->
<g id="edge4" class="edge">
<title>Node3&#45;&gt;Node4</title>
<path fill="none" stroke="midnightblue" d="M407.95,-646.36C431.19,-651.9 458.07,-658.31 480.31,-663.61"/>
<polygon fill="midnightblue" stroke="midnightblue" points="479.63,-667.04 490.17,-665.96 481.25,-660.23 479.63,-667.04"/>
</g>
<!-- Node5 -->
<g id="node5" class="node">
<title>Node5</title>
<g id="a_node5"><a xlink:href="classflow_1_1log_1_1Logger.html#ac8a2e7a33fe3fbc0c29ead62ed98c022" target="_top" xlink:title="Given attributes of a hypothetical message that would be logged, return true if that message should b...">
<polygon fill="white" stroke="black" points="481,-620.5 481,-646.5 573,-646.5 573,-620.5 481,-620.5"/>
<text text-anchor="start" x="489" y="-636.1" font-family="Helvetica,sans-Serif" font-size="8.00">flow::log::Logger::</text>
<text text-anchor="middle" x="527" y="-627.1" font-family="Helvetica,sans-Serif" font-size="8.00">should_log</text>
</a>
</g>
</g>
<!-- Node3&#45;&gt;Node5 -->
<g id="edge5" class="edge">
<title>Node3&#45;&gt;Node5</title>
<path fill="none" stroke="midnightblue" d="M407.95,-633.5C427.92,-633.5 450.57,-633.5 470.66,-633.5"/>
<polygon fill="midnightblue" stroke="midnightblue" points="470.91,-637 480.91,-633.5 470.91,-630 470.91,-637"/>
</g>
<!-- Node8 -->
<g id="node8" class="node">
<title>Node8</title>
<g id="a_node8"><a xlink:href="classflow_1_1net__flow_1_1Node.html#ad03aa88df3d1d3981454ee3356e868c1" target="_top" xlink:title="Sends an RST to the other side of the given socket asynchronously when possible.">
<polygon fill="white" stroke="black" points="476.5,-490 476.5,-525 577.5,-525 577.5,-490 476.5,-490"/>
<text text-anchor="start" x="484.5" y="-514.6" font-family="Helvetica,sans-Serif" font-size="8.00">flow::net_flow::Node</text>
<text text-anchor="start" x="484.5" y="-505.6" font-family="Helvetica,sans-Serif" font-size="8.00">::async_sock_low_lvl</text>
<text text-anchor="middle" x="527" y="-496.6" font-family="Helvetica,sans-Serif" font-size="8.00">_rst_send</text>
</a>
</g>
</g>
<!-- Node7&#45;&gt;Node8 -->
<g id="edge8" class="edge">
<title>Node7&#45;&gt;Node8</title>
<path fill="none" stroke="midnightblue" d="M366.09,-272.29C395.95,-316.2 473.25,-429.91 508.28,-481.44"/>
<polygon fill="midnightblue" stroke="midnightblue" points="505.4,-483.43 513.92,-489.73 511.19,-479.49 505.4,-483.43"/>
</g>
<!-- Node21 -->
<g id="node10" class="node">
<title>Node21</title>
<g id="a_node10"><a xlink:href="classflow_1_1net__flow_1_1Node.html#ade49e7bc7202a0adf33fec2d93d1b177" target="_top" xlink:title="A thread W method that handles the transition of the given socket from OPEN (any sub&#45;state) to CLOSED...">
<polygon fill="white" stroke="black" points="453,-241.5 453,-267.5 601,-267.5 601,-241.5 453,-241.5"/>
<text text-anchor="start" x="461" y="-257.1" font-family="Helvetica,sans-Serif" font-size="8.00">flow::net_flow::Node</text>
<text text-anchor="middle" x="527" y="-248.1" font-family="Helvetica,sans-Serif" font-size="8.00">::close_connection_immediately</text>
</a>
</g>
</g>
<!-- Node7&#45;&gt;Node21 -->
<g id="edge11" class="edge">
<title>Node7&#45;&gt;Node21</title>
<path fill="none" stroke="midnightblue" d="M417.07,-254.5C425.41,-254.5 434.06,-254.5 442.67,-254.5"/>
<polygon fill="midnightblue" stroke="midnightblue" points="442.74,-258 452.74,-254.5 442.74,-251 442.74,-258"/>
</g>
<!-- Node7&#45;&gt;Node20 -->
<g id="edge25" class="edge">
<title>Node7&#45;&gt;Node20</title>
<path fill="none" stroke="midnightblue" d="M417.3,-239.3C488.29,-221.99 594.45,-195.25 601,-188.5 649.65,-138.37 589.72,-86.93 637,-35.5 639.61,-32.66 642.6,-30.18 645.83,-28.02"/>
<polygon fill="midnightblue" stroke="midnightblue" points="647.8,-30.93 654.85,-23.02 644.4,-24.81 647.8,-30.93"/>
</g>
<!-- Node8&#45;&gt;Node6 -->
<g id="edge10" class="edge">
<title>Node8&#45;&gt;Node6</title>
<path fill="none" stroke="midnightblue" d="M577.58,-521.55C596.09,-526.33 617.38,-531.27 637,-534.5 692.14,-543.58 755.58,-548.42 801.35,-550.94"/>
<polygon fill="midnightblue" stroke="midnightblue" points="801.24,-554.44 811.42,-551.48 801.61,-547.45 801.24,-554.44"/>
</g>
<!-- Node9 -->
<g id="node9" class="node">
<title>Node9</title>
<g id="a_node9"><a xlink:href="classflow_1_1net__flow_1_1Node.html#a31edf238c1b21a409ea807c66c1b22f0" target="_top" xlink:title="Begins the process of asynchronously sending the given low&#45;level packet to the remote Node specified ...">
<polygon fill="white" stroke="red" points="655,-490 655,-525 756,-525 756,-490 655,-490"/>
<text text-anchor="start" x="663" y="-514.6" font-family="Helvetica,sans-Serif" font-size="8.00">flow::net_flow::Node</text>
<text text-anchor="start" x="663" y="-505.6" font-family="Helvetica,sans-Serif" font-size="8.00">::async_sock_low_lvl</text>
<text text-anchor="middle" x="705.5" y="-496.6" font-family="Helvetica,sans-Serif" font-size="8.00">_packet_send_paced</text>
</a>
</g>
</g>
<!-- Node8&#45;&gt;Node9 -->
<g id="edge9" class="edge">
<title>Node8&#45;&gt;Node9</title>
<path fill="none" stroke="midnightblue" d="M577.63,-507.5C598.5,-507.5 622.94,-507.5 644.78,-507.5"/>
<polygon fill="midnightblue" stroke="midnightblue" points="644.93,-511 654.93,-507.5 644.93,-504 644.93,-511"/>
</g>
<!-- Node22 -->
<g id="node11" class="node">
<title>Node22</title>
<g id="a_node11"><a xlink:href="classflow_1_1net__flow_1_1Node.html#a3f9cf4d7160b3e27b3b0131fc4507ce7" target="_top" xlink:title="Cancel any timers and scheduled tasks active in the given socket.">
<polygon fill="white" stroke="red" points="655,-444.5 655,-470.5 756,-470.5 756,-444.5 655,-444.5"/>
<text text-anchor="start" x="663" y="-460.1" font-family="Helvetica,sans-Serif" font-size="8.00">flow::net_flow::Node</text>
<text text-anchor="middle" x="705.5" y="-451.1" font-family="Helvetica,sans-Serif" font-size="8.00">::cancel_timers</text>
</a>
</g>
</g>
<!-- Node21&#45;&gt;Node22 -->
<g id="edge12" class="edge">
<title>Node21&#45;&gt;Node22</title>
<path fill="none" stroke="midnightblue" d="M532.25,-267.62C543.65,-300.78 578.15,-388.69 637,-435.5 639.74,-437.68 642.69,-439.64 645.79,-441.41"/>
<polygon fill="midnightblue" stroke="midnightblue" points="644.31,-444.58 654.82,-445.91 647.43,-438.32 644.31,-444.58"/>
</g>
<!-- Node24 -->
<g id="node12" class="node">
<title>Node24</title>
<g id="a_node12"><a xlink:href="classflow_1_1net__flow_1_1Node.html#a8a4ddf81ddbeab1f740940c4cc0d3625" target="_top" xlink:title="For each WAITING Event_set within the Node: checks for any events that hold, and if any do hold,...">
<polygon fill="white" stroke="red" points="641.5,-399.5 641.5,-425.5 769.5,-425.5 769.5,-399.5 641.5,-399.5"/>
<text text-anchor="start" x="649.5" y="-415.1" font-family="Helvetica,sans-Serif" font-size="8.00">flow::net_flow::Node</text>
<text text-anchor="middle" x="705.5" y="-406.1" font-family="Helvetica,sans-Serif" font-size="8.00">::event_set_all_check_delta</text>
</a>
</g>
</g>
<!-- Node21&#45;&gt;Node24 -->
<g id="edge14" class="edge">
<title>Node21&#45;&gt;Node24</title>
<path fill="none" stroke="midnightblue" d="M535.12,-267.85C550.24,-294.97 588.22,-356.76 637,-390.5 639.38,-392.14 641.88,-393.67 644.48,-395.09"/>
<polygon fill="midnightblue" stroke="midnightblue" points="643.04,-398.28 653.56,-399.5 646.1,-391.98 643.04,-398.28"/>
</g>
<!-- Node37 -->
<g id="node13" class="node">
<title>Node37</title>
<g id="a_node13"><a xlink:href="classflow_1_1util_1_1Linked__hash__map.html#aae7a4a3047c90f0ab26ae1a4ec7b9963" target="_top" xlink:title="Attempts to insert the given key/mapped&#45;value pair into the map.">
<polygon fill="white" stroke="black" points="659.5,-354.5 659.5,-380.5 751.5,-380.5 751.5,-354.5 659.5,-354.5"/>
<text text-anchor="start" x="667.5" y="-370.1" font-family="Helvetica,sans-Serif" font-size="8.00">flow::util::Linked</text>
<text text-anchor="middle" x="705.5" y="-361.1" font-family="Helvetica,sans-Serif" font-size="8.00">_hash_map::insert</text>
</a>
</g>
</g>
<!-- Node21&#45;&gt;Node37 -->
<g id="edge15" class="edge">
<title>Node21&#45;&gt;Node37</title>
<path fill="none" stroke="midnightblue" d="M540.53,-267.79C559.64,-287.35 597.96,-323.9 637,-345.5 640.99,-347.71 645.24,-349.74 649.58,-351.59"/>
<polygon fill="midnightblue" stroke="midnightblue" points="648.61,-354.97 659.19,-355.38 651.17,-348.46 648.61,-354.97"/>
</g>
<!-- Node38 -->
<g id="node14" class="node">
<title>Node38</title>
<g id="a_node14"><a xlink:href="classflow_1_1net__flow_1_1Port__space.html#a9fe1be917ff7584ff587b5da5967127a" target="_top" xlink:title="Return a previously reserved port (of any type).">
<polygon fill="white" stroke="red" points="657.5,-309.5 657.5,-335.5 753.5,-335.5 753.5,-309.5 657.5,-309.5"/>
<text text-anchor="start" x="665.5" y="-325.1" font-family="Helvetica,sans-Serif" font-size="8.00">flow::net_flow::Port</text>
<text text-anchor="middle" x="705.5" y="-316.1" font-family="Helvetica,sans-Serif" font-size="8.00">_space::return_port</text>
</a>
</g>
</g>
<!-- Node21&#45;&gt;Node38 -->
<g id="edge16" class="edge">
<title>Node21&#45;&gt;Node38</title>
<path fill="none" stroke="midnightblue" d="M557.34,-267.67C579.13,-277.26 609.67,-290.3 637,-300.5 642.12,-302.41 647.5,-304.32 652.89,-306.17"/>
<polygon fill="midnightblue" stroke="midnightblue" points="651.95,-309.55 662.54,-309.43 654.18,-302.92 651.95,-309.55"/>
</g>
<!-- Node41 -->
<g id="node15" class="node">
<title>Node41</title>
<g id="a_node15"><a xlink:href="classflow_1_1net__flow_1_1Node.html#a8a6c02bf520a16df4028bd3c88732a8d" target="_top" xlink:title="Records that a Server_socket&#45;contained (i.e., currently un&#45;established, or established but not yet ac...">
<polygon fill="white" stroke="black" points="643.5,-264.5 643.5,-290.5 767.5,-290.5 767.5,-264.5 643.5,-264.5"/>
<text text-anchor="start" x="651.5" y="-280.1" font-family="Helvetica,sans-Serif" font-size="8.00">flow::net_flow::Node</text>
<text text-anchor="middle" x="705.5" y="-271.1" font-family="Helvetica,sans-Serif" font-size="8.00">::serv_peer_socket_closed</text>
</a>
</g>
</g>
<!-- Node21&#45;&gt;Node41 -->
<g id="edge17" class="edge">
<title>Node21&#45;&gt;Node41</title>
<path fill="none" stroke="midnightblue" d="M601.06,-264.02C611.7,-265.41 622.64,-266.83 633.24,-268.21"/>
<polygon fill="midnightblue" stroke="midnightblue" points="632.91,-271.7 643.28,-269.52 633.81,-264.76 632.91,-271.7"/>
</g>
<!-- Node42 -->
<g id="node16" class="node">
<title>Node42</title>
<g id="a_node16"><a xlink:href="classflow_1_1net__flow_1_1Node.html#ade529b5452c9fe363ae468346e662ceb" target="_top" xlink:title="While in S_OPEN+S_DISCONNECTING state (i.e., after beginning a graceful close with sock_disconnect_de...">
<polygon fill="white" stroke="red" points="637,-219.5 637,-245.5 774,-245.5 774,-219.5 637,-219.5"/>
<text text-anchor="start" x="645" y="-235.1" font-family="Helvetica,sans-Serif" font-size="8.00">flow::net_flow::Node</text>
<text text-anchor="middle" x="705.5" y="-226.1" font-family="Helvetica,sans-Serif" font-size="8.00">::sock_disconnect_completed</text>
</a>
</g>
</g>
<!-- Node21&#45;&gt;Node42 -->
<g id="edge18" class="edge">
<title>Node21&#45;&gt;Node42</title>
<path fill="none" stroke="midnightblue" d="M601.06,-245.39C609.58,-244.33 618.3,-243.24 626.88,-242.18"/>
<polygon fill="midnightblue" stroke="midnightblue" points="627.38,-245.64 636.87,-240.93 626.51,-238.69 627.38,-245.64"/>
</g>
<!-- Node45 -->
<g id="node17" class="node">
<title>Node45</title>
<g id="a_node17"><a xlink:href="classflow_1_1net__flow_1_1Node.html#ada9357f6ce9d5fc249b1cc176afdc471" target="_top" xlink:title="Records that thread W shows underlying connection is broken (graceful termination,...">
<polygon fill="white" stroke="red" points="640,-174.5 640,-200.5 771,-200.5 771,-174.5 640,-174.5"/>
<text text-anchor="start" x="648" y="-190.1" font-family="Helvetica,sans-Serif" font-size="8.00">flow::net_flow::Node</text>
<text text-anchor="middle" x="705.5" y="-181.1" font-family="Helvetica,sans-Serif" font-size="8.00">::sock_disconnect_detected</text>
</a>
</g>
</g>
<!-- Node21&#45;&gt;Node45 -->
<g id="edge19" class="edge">
<title>Node21&#45;&gt;Node45</title>
<path fill="none" stroke="midnightblue" d="M563.05,-241.48C575.13,-236.88 588.71,-231.58 601,-226.5 617.18,-219.81 620.7,-216.89 637,-210.5 642.75,-208.25 648.82,-206 654.87,-203.84"/>
<polygon fill="midnightblue" stroke="midnightblue" points="656.03,-207.14 664.31,-200.53 653.71,-200.54 656.03,-207.14"/>
</g>
<!-- Node46 -->
<g id="node18" class="node">
<title>Node46</title>
<g id="a_node18"><a xlink:href="classflow_1_1net__flow_1_1Node.html#a2336fae98b318ab73e7268e9a242bf09" target="_top" xlink:title="Given a Peer_socket, copies all stats info (as available via Peer_socket::info()) from various struct...">
<polygon fill="white" stroke="red" points="810,-111.5 810,-137.5 920,-137.5 920,-111.5 810,-111.5"/>
<text text-anchor="start" x="818" y="-127.1" font-family="Helvetica,sans-Serif" font-size="8.00">flow::net_flow::Node</text>
<text text-anchor="middle" x="865" y="-118.1" font-family="Helvetica,sans-Serif" font-size="8.00">::sock_load_info_struct</text>
</a>
</g>
</g>
<!-- Node21&#45;&gt;Node46 -->
<g id="edge20" class="edge">
<title>Node21&#45;&gt;Node46</title>
<path fill="none" stroke="midnightblue" d="M576.12,-241.35C585,-237.51 593.74,-232.64 601,-226.5 625.04,-206.17 611.16,-183.49 637,-165.5 662.77,-147.56 742.16,-136.21 799.8,-130.11"/>
<polygon fill="midnightblue" stroke="midnightblue" points="800.35,-133.58 809.94,-129.07 799.63,-126.61 800.35,-133.58"/>
</g>
<!-- Node48 -->
<g id="node19" class="node">
<title>Node48</title>
<g id="a_node19"><a xlink:href="classflow_1_1net__flow_1_1Node.html#a755c329b9e0f2b8edb2e5b900bd2a337" target="_top" xlink:title="Logs a verbose state report for the given socket.">
<polygon fill="white" stroke="red" points="655,-90.5 655,-116.5 756,-116.5 756,-90.5 655,-90.5"/>
<text text-anchor="start" x="663" y="-106.1" font-family="Helvetica,sans-Serif" font-size="8.00">flow::net_flow::Node</text>
<text text-anchor="middle" x="705.5" y="-97.1" font-family="Helvetica,sans-Serif" font-size="8.00">::sock_log_detail</text>
</a>
</g>
</g>
<!-- Node21&#45;&gt;Node48 -->
<g id="edge21" class="edge">
<title>Node21&#45;&gt;Node48</title>
<path fill="none" stroke="midnightblue" d="M578.87,-241.44C587,-237.63 594.77,-232.75 601,-226.5 632.86,-194.51 605.57,-163.92 637,-131.5 640.66,-127.73 644.9,-124.44 649.44,-121.58"/>
<polygon fill="midnightblue" stroke="midnightblue" points="651.41,-124.5 658.47,-116.6 648.03,-118.37 651.41,-124.5"/>
</g>
<!-- Node53 -->
<g id="node20" class="node">
<title>Node53</title>
<g id="a_node20"><a xlink:href="classflow_1_1net__flow_1_1Node.html#aa1d9656e9e1480021c87530ec6dbebbe" target="_top" xlink:title="Sets internal state of given socket to the given state and logs a TRACE message about it.">
<polygon fill="white" stroke="black" points="655,-45.5 655,-71.5 756,-71.5 756,-45.5 655,-45.5"/>
<text text-anchor="start" x="663" y="-61.1" font-family="Helvetica,sans-Serif" font-size="8.00">flow::net_flow::Node</text>
<text text-anchor="middle" x="705.5" y="-52.1" font-family="Helvetica,sans-Serif" font-size="8.00">::sock_set_int_state</text>
</a>
</g>
</g>
<!-- Node21&#45;&gt;Node53 -->
<g id="edge23" class="edge">
<title>Node21&#45;&gt;Node53</title>
<path fill="none" stroke="midnightblue" d="M581,-241.32C588.51,-237.55 595.52,-232.71 601,-226.5 645.23,-176.39 591.51,-129.46 637,-80.5 639.63,-77.67 642.63,-75.2 645.86,-73.05"/>
<polygon fill="midnightblue" stroke="midnightblue" points="647.83,-75.96 654.9,-68.07 644.45,-69.84 647.83,-75.96"/>
</g>
<!-- Node21&#45;&gt;Node20 -->
<g id="edge24" class="edge">
<title>Node21&#45;&gt;Node20</title>
<path fill="none" stroke="midnightblue" d="M581.67,-241.39C589,-237.61 595.78,-232.75 601,-226.5 656.35,-160.18 579.97,-100.39 637,-35.5 639.67,-32.46 642.76,-29.84 646.13,-27.58"/>
<polygon fill="midnightblue" stroke="midnightblue" points="647.93,-30.59 654.97,-22.67 644.53,-24.47 647.93,-30.59"/>
</g>
<!-- Node22&#45;&gt;Node6 -->
<g id="edge13" class="edge">
<title>Node22&#45;&gt;Node6</title>
<path fill="none" stroke="midnightblue" d="M752.11,-470.57C759.62,-473.42 767.17,-476.73 774,-480.5 800.26,-495.02 826.47,-517.4 843.78,-533.55"/>
<polygon fill="midnightblue" stroke="midnightblue" points="841.41,-536.13 851.07,-540.49 846.24,-531.06 841.41,-536.13"/>
</g>
<!-- Node48&#45;&gt;Node46 -->
<g id="edge22" class="edge">
<title>Node48&#45;&gt;Node46</title>
<path fill="none" stroke="midnightblue" d="M756.33,-110.14C770.17,-111.99 785.4,-114.02 799.93,-115.96"/>
<polygon fill="midnightblue" stroke="midnightblue" points="799.48,-119.43 809.85,-117.28 800.4,-112.49 799.48,-119.43"/>
</g>
</g>
</svg>
