<?xml version="1.0" encoding="UTF-8" standalone="no"?>
<!DOCTYPE svg PUBLIC "-//W3C//DTD SVG 1.1//EN"
 "http://www.w3.org/Graphics/SVG/1.1/DTD/svg11.dtd">
<!-- Generated by graphviz version 2.43.0 (0)
 -->
<!-- Title: flow::async::Cross_thread_task_loop::stop Pages: 1 -->
<svg width="277pt" height="90pt"
 viewBox="0.00 0.00 277.00 89.50" xmlns="http://www.w3.org/2000/svg" xmlns:xlink="http://www.w3.org/1999/xlink">
<g id="graph0" class="graph" transform="scale(1 1) rotate(0) translate(4 85.5)">
<title>flow::async::Cross_thread_task_loop::stop</title>
<polygon fill="white" stroke="transparent" points="-4,4 -4,-85.5 273,-85.5 273,4 -4,4"/>
<!-- Node1 -->
<g id="node1" class="node">
<title>Node1</title>
<g id="a_node1"><a xlink:title="Implements superclass API.">
<polygon fill="#bfbfbf" stroke="black" points="155,-30 155,-56 269,-56 269,-30 155,-30"/>
<text text-anchor="start" x="163" y="-45.6" font-family="Helvetica,sans-Serif" font-size="8.00">flow::async::Cross</text>
<text text-anchor="middle" x="212" y="-36.6" font-family="Helvetica,sans-Serif" font-size="8.00">_thread_task_loop::stop</text>
</a>
</g>
</g>
<!-- Node2 -->
<g id="node2" class="node">
<title>Node2</title>
<g id="a_node2"><a xlink:href="classflow_1_1async_1_1Single__thread__task__loop.html#aad1053b2d86401d34fd3658630064135" target="_top" xlink:title="Waits for the ongoing task/completion handler – if one is running – to return; then prevents any furt...">
<polygon fill="white" stroke="black" points="2.5,-55 2.5,-81 116.5,-81 116.5,-55 2.5,-55"/>
<text text-anchor="start" x="10.5" y="-70.6" font-family="Helvetica,sans-Serif" font-size="8.00">flow::async::Single</text>
<text text-anchor="middle" x="59.5" y="-61.6" font-family="Helvetica,sans-Serif" font-size="8.00">_thread_task_loop::stop</text>
</a>
</g>
</g>
<!-- Node1&#45;&gt;Node2 -->
<g id="edge1" class="edge">
<title>Node1&#45;&gt;Node2</title>
<path fill="none" stroke="midnightblue" d="M144.84,-53.99C135.41,-55.56 125.79,-57.15 116.59,-58.68"/>
<polygon fill="midnightblue" stroke="midnightblue" points="145.67,-57.4 154.96,-52.31 144.52,-50.5 145.67,-57.4"/>
</g>
<!-- Node3 -->
<g id="node3" class="node">
<title>Node3</title>
<g id="a_node3"><a xlink:href="classflow_1_1async_1_1Cross__thread__task__loop.html#a1bdaa64396435066a41857e3c5f6c6cb" target="_top" xlink:title="See superclass destructor.">
<polygon fill="white" stroke="black" points="0,-0.5 0,-35.5 119,-35.5 119,-0.5 0,-0.5"/>
<text text-anchor="start" x="8" y="-25.1" font-family="Helvetica,sans-Serif" font-size="8.00">flow::async::Cross</text>
<text text-anchor="start" x="8" y="-16.1" font-family="Helvetica,sans-Serif" font-size="8.00">_thread_task_loop::</text>
<text text-anchor="middle" x="59.5" y="-7.1" font-family="Helvetica,sans-Serif" font-size="8.00">~Cross_thread_task_loop</text>
</a>
</g>
</g>
<!-- Node1&#45;&gt;Node3 -->
<g id="edge2" class="edge">
<title>Node1&#45;&gt;Node3</title>
<path fill="none" stroke="midnightblue" d="M144.96,-32.03C136.35,-30.6 127.58,-29.14 119.1,-27.73"/>
<polygon fill="midnightblue" stroke="midnightblue" points="144.52,-35.5 154.96,-33.69 145.67,-28.6 144.52,-35.5"/>
</g>
</g>
</svg>
