<?xml version="1.0" encoding="UTF-8" standalone="no"?>
<!DOCTYPE svg PUBLIC "-//W3C//DTD SVG 1.1//EN"
 "http://www.w3.org/Graphics/SVG/1.1/DTD/svg11.dtd">
<!-- Generated by graphviz version 2.43.0 (0)
 -->
<!-- Title: flow::async::Single_thread_task_loop::stop Pages: 1 -->
<svg width="272pt" height="35pt"
 viewBox="0.00 0.00 272.00 35.00" xmlns="http://www.w3.org/2000/svg" xmlns:xlink="http://www.w3.org/1999/xlink">
<g id="graph0" class="graph" transform="scale(1 1) rotate(0) translate(4 31)">
<title>flow::async::Single_thread_task_loop::stop</title>
<polygon fill="white" stroke="transparent" points="-4,4 -4,-31 268,-31 268,4 -4,4"/>
<!-- Node1 -->
<g id="node1" class="node">
<title>Node1</title>
<g id="a_node1"><a xlink:title="Waits for the ongoing task/completion handler – if one is running – to return; then prevents any furt...">
<polygon fill="#bfbfbf" stroke="black" points="0,-0.5 0,-26.5 114,-26.5 114,-0.5 0,-0.5"/>
<text text-anchor="start" x="8" y="-16.1" font-family="Helvetica,sans-Serif" font-size="8.00">flow::async::Single</text>
<text text-anchor="middle" x="57" y="-7.1" font-family="Helvetica,sans-Serif" font-size="8.00">_thread_task_loop::stop</text>
</a>
</g>
</g>
<!-- Node2 -->
<g id="node2" class="node">
<title>Node2</title>
<g id="a_node2"><a xlink:href="classflow_1_1async_1_1Cross__thread__task__loop.html#aa0f53f269524b701b23237766f79df2d" target="_top" xlink:title="Implements superclass API.">
<polygon fill="white" stroke="black" points="150,-0.5 150,-26.5 264,-26.5 264,-0.5 150,-0.5"/>
<text text-anchor="start" x="158" y="-16.1" font-family="Helvetica,sans-Serif" font-size="8.00">flow::async::Cross</text>
<text text-anchor="middle" x="207" y="-7.1" font-family="Helvetica,sans-Serif" font-size="8.00">_thread_task_loop::stop</text>
</a>
</g>
</g>
<!-- Node1&#45;&gt;Node2 -->
<g id="edge1" class="edge">
<title>Node1&#45;&gt;Node2</title>
<path fill="none" stroke="midnightblue" d="M114.37,-13.5C122.62,-13.5 131.18,-13.5 139.6,-13.5"/>
<polygon fill="midnightblue" stroke="midnightblue" points="139.78,-17 149.78,-13.5 139.78,-10 139.78,-17"/>
</g>
</g>
</svg>
