<?xml version="1.0" encoding="UTF-8" standalone="no"?>
<!DOCTYPE svg PUBLIC "-//W3C//DTD SVG 1.1//EN"
 "http://www.w3.org/Graphics/SVG/1.1/DTD/svg11.dtd">
<!-- Generated by graphviz version 2.43.0 (0)
 -->
<!-- Title: flow::net_flow::Congestion_control_classic_with_bandwidth_est::on_drop_timeout Pages: 1 -->
<svg width="894pt" height="225pt"
 viewBox="0.00 0.00 894.00 225.00" xmlns="http://www.w3.org/2000/svg" xmlns:xlink="http://www.w3.org/1999/xlink">
<g id="graph0" class="graph" transform="scale(1 1) rotate(0) translate(4 221)">
<title>flow::net_flow::Congestion_control_classic_with_bandwidth_est::on_drop_timeout</title>
<polygon fill="white" stroke="transparent" points="-4,4 -4,-221 890,-221 890,4 -4,4"/>
<!-- Node1 -->
<g id="node1" class="node">
<title>Node1</title>
<g id="a_node1"><a xlink:title="Implements Congestion_control_strategy::on_drop_timeout() API.">
<polygon fill="#bfbfbf" stroke="black" points="0,-135.5 0,-170.5 149,-170.5 149,-135.5 0,-135.5"/>
<text text-anchor="start" x="8" y="-160.1" font-family="Helvetica,sans-Serif" font-size="8.00">flow::net_flow::Congestion</text>
<text text-anchor="start" x="8" y="-151.1" font-family="Helvetica,sans-Serif" font-size="8.00">_control_classic_with_bandwidth</text>
<text text-anchor="middle" x="74.5" y="-142.1" font-family="Helvetica,sans-Serif" font-size="8.00">_est::on_drop_timeout</text>
</a>
</g>
</g>
<!-- Node2 -->
<g id="node2" class="node">
<title>Node2</title>
<g id="a_node2"><a xlink:href="classflow_1_1net__flow_1_1Congestion__control__classic__with__bandwidth__est.html#a9650086c28de7e9ed9fdaecaf9f183a6" target="_top" xlink:title="Returns the best bandwidth/latency&#45;based guess for what the current window (pipe) size should be.">
<polygon fill="white" stroke="black" points="185,-181.5 185,-216.5 371,-216.5 371,-181.5 185,-181.5"/>
<text text-anchor="start" x="193" y="-206.1" font-family="Helvetica,sans-Serif" font-size="8.00">flow::net_flow::Congestion</text>
<text text-anchor="start" x="193" y="-197.1" font-family="Helvetica,sans-Serif" font-size="8.00">_control_classic_with_bandwidth</text>
<text text-anchor="middle" x="278" y="-188.1" font-family="Helvetica,sans-Serif" font-size="8.00">_est::congestion_window_adjusted_bytes</text>
</a>
</g>
</g>
<!-- Node1&#45;&gt;Node2 -->
<g id="edge1" class="edge">
<title>Node1&#45;&gt;Node2</title>
<path fill="none" stroke="midnightblue" d="M149.1,-169.8C162.49,-172.86 176.57,-176.07 190.3,-179.21"/>
<polygon fill="midnightblue" stroke="midnightblue" points="189.68,-182.66 200.21,-181.47 191.24,-175.83 189.68,-182.66"/>
</g>
<!-- Node3 -->
<g id="node3" class="node">
<title>Node3</title>
<g id="a_node3"><a xlink:href="classflow_1_1net__flow_1_1Congestion__control__strategy.html#a3e9786f9e5f170ca23135a2a815bc3f4" target="_top" xlink:title="Utility for subclasses that returns a handle to the containing Peer_socket.">
<polygon fill="white" stroke="black" points="407,-179 407,-205 532,-205 532,-179 407,-179"/>
<text text-anchor="start" x="415" y="-194.6" font-family="Helvetica,sans-Serif" font-size="8.00">flow::net_flow::Congestion</text>
<text text-anchor="middle" x="469.5" y="-185.6" font-family="Helvetica,sans-Serif" font-size="8.00">_control_strategy::socket</text>
</a>
</g>
</g>
<!-- Node1&#45;&gt;Node3 -->
<g id="edge13" class="edge">
<title>Node1&#45;&gt;Node3</title>
<path fill="none" stroke="midnightblue" d="M149.25,-154.92C209.2,-157.15 295.85,-161.92 371,-172 380.95,-173.33 391.42,-175.09 401.64,-177.02"/>
<polygon fill="midnightblue" stroke="midnightblue" points="401.27,-180.51 411.76,-178.98 402.61,-173.64 401.27,-180.51"/>
</g>
<!-- Node4 -->
<g id="node4" class="node">
<title>Node4</title>
<g id="a_node4"><a xlink:href="classflow_1_1net__flow_1_1Congestion__control__classic__data.html#a63316b5d9e9a27816b09bb52c464b588" target="_top" xlink:title="Adjust state, including CWND and SSTHRESH, assuming a Drop Timeout just occurred.">
<polygon fill="white" stroke="black" points="215.5,-89.5 215.5,-124.5 340.5,-124.5 340.5,-89.5 215.5,-89.5"/>
<text text-anchor="start" x="223.5" y="-114.1" font-family="Helvetica,sans-Serif" font-size="8.00">flow::net_flow::Congestion</text>
<text text-anchor="start" x="223.5" y="-105.1" font-family="Helvetica,sans-Serif" font-size="8.00">_control_classic_data::on</text>
<text text-anchor="middle" x="278" y="-96.1" font-family="Helvetica,sans-Serif" font-size="8.00">_drop_timeout</text>
</a>
</g>
</g>
<!-- Node1&#45;&gt;Node4 -->
<g id="edge3" class="edge">
<title>Node1&#45;&gt;Node4</title>
<path fill="none" stroke="midnightblue" d="M149.1,-136.2C167.41,-132.02 187.01,-127.54 205.23,-123.38"/>
<polygon fill="midnightblue" stroke="midnightblue" points="206.22,-126.75 215.19,-121.11 204.66,-119.92 206.22,-126.75"/>
</g>
<!-- Node2&#45;&gt;Node3 -->
<g id="edge2" class="edge">
<title>Node2&#45;&gt;Node3</title>
<path fill="none" stroke="midnightblue" d="M371.25,-195.59C379.82,-195.28 388.41,-194.96 396.75,-194.65"/>
<polygon fill="midnightblue" stroke="midnightblue" points="396.91,-198.15 406.78,-194.28 396.66,-191.15 396.91,-198.15"/>
</g>
<!-- Node5 -->
<g id="node5" class="node">
<title>Node5</title>
<g id="a_node5"><a xlink:href="classflow_1_1net__flow_1_1Congestion__control__classic__data.html#a79e85a67e583b74cc414524d53650892" target="_top" xlink:title="Sets internally stored SSHTRESH and CWND to the given values; appropriately resets internal state so ...">
<polygon fill="white" stroke="black" points="407,-68.5 407,-103.5 532,-103.5 532,-68.5 407,-68.5"/>
<text text-anchor="start" x="415" y="-93.1" font-family="Helvetica,sans-Serif" font-size="8.00">flow::net_flow::Congestion</text>
<text text-anchor="start" x="415" y="-84.1" font-family="Helvetica,sans-Serif" font-size="8.00">_control_classic_data::on</text>
<text text-anchor="middle" x="469.5" y="-75.1" font-family="Helvetica,sans-Serif" font-size="8.00">_congestion_event</text>
</a>
</g>
</g>
<!-- Node4&#45;&gt;Node5 -->
<g id="edge4" class="edge">
<title>Node4&#45;&gt;Node5</title>
<path fill="none" stroke="midnightblue" d="M340.53,-100.18C358.49,-98.19 378.28,-96 396.81,-93.94"/>
<polygon fill="midnightblue" stroke="midnightblue" points="397.41,-97.4 406.96,-92.82 396.63,-90.44 397.41,-97.4"/>
</g>
<!-- Node7 -->
<g id="node7" class="node">
<title>Node7</title>
<g id="a_node7"><a xlink:href="classflow_1_1net__flow_1_1Congestion__control__classic__data.html#a842fd11c65c3be53ce3d81a7f050f7d7" target="_top" xlink:title="Analogous to Congestion_control_strategy::socket().">
<polygon fill="white" stroke="black" points="750,-85 750,-111 886,-111 886,-85 750,-85"/>
<text text-anchor="start" x="758" y="-100.6" font-family="Helvetica,sans-Serif" font-size="8.00">flow::net_flow::Congestion</text>
<text text-anchor="middle" x="818" y="-91.6" font-family="Helvetica,sans-Serif" font-size="8.00">_control_classic_data::socket</text>
</a>
</g>
</g>
<!-- Node4&#45;&gt;Node7 -->
<g id="edge12" class="edge">
<title>Node4&#45;&gt;Node7</title>
<path fill="none" stroke="midnightblue" d="M340.52,-116.06C425.05,-127.04 581.69,-142.05 714,-125 731.46,-122.75 750.18,-118.44 766.82,-113.91"/>
<polygon fill="midnightblue" stroke="midnightblue" points="768.19,-117.16 776.87,-111.08 766.3,-110.42 768.19,-117.16"/>
</g>
<!-- Node6 -->
<g id="node6" class="node">
<title>Node6</title>
<g id="a_node6"><a xlink:href="classflow_1_1net__flow_1_1Congestion__control__classic__data.html#a7b798f3211fd2214477355b95e2d10d2" target="_top" xlink:title="If congestion_window_at_limit(), sets CWND to the limit value.">
<polygon fill="white" stroke="black" points="574,-80.5 574,-115.5 708,-115.5 708,-80.5 574,-80.5"/>
<text text-anchor="start" x="582" y="-105.1" font-family="Helvetica,sans-Serif" font-size="8.00">flow::net_flow::Congestion</text>
<text text-anchor="start" x="582" y="-96.1" font-family="Helvetica,sans-Serif" font-size="8.00">_control_classic_data::clamp</text>
<text text-anchor="middle" x="641" y="-87.1" font-family="Helvetica,sans-Serif" font-size="8.00">_congestion_window</text>
</a>
</g>
</g>
<!-- Node5&#45;&gt;Node6 -->
<g id="edge5" class="edge">
<title>Node5&#45;&gt;Node6</title>
<path fill="none" stroke="midnightblue" d="M532.17,-90.37C542.43,-91.09 553.18,-91.85 563.74,-92.6"/>
<polygon fill="midnightblue" stroke="midnightblue" points="563.58,-96.1 573.8,-93.31 564.07,-89.12 563.58,-96.1"/>
</g>
<!-- Node8 -->
<g id="node8" class="node">
<title>Node8</title>
<g id="a_node8"><a xlink:href="classflow_1_1net__flow_1_1Congestion__control__classic__data.html#aecb03f208c177ec3cbce5242f19efee0" target="_top" xlink:title="Return true if and only if CWND &lt; SSTHRESH.">
<polygon fill="white" stroke="black" points="755.5,-0.5 755.5,-35.5 880.5,-35.5 880.5,-0.5 755.5,-0.5"/>
<text text-anchor="start" x="763.5" y="-25.1" font-family="Helvetica,sans-Serif" font-size="8.00">flow::net_flow::Congestion</text>
<text text-anchor="start" x="763.5" y="-16.1" font-family="Helvetica,sans-Serif" font-size="8.00">_control_classic_data::in</text>
<text text-anchor="middle" x="818" y="-7.1" font-family="Helvetica,sans-Serif" font-size="8.00">_slow_start</text>
</a>
</g>
</g>
<!-- Node5&#45;&gt;Node8 -->
<g id="edge7" class="edge">
<title>Node5&#45;&gt;Node8</title>
<path fill="none" stroke="midnightblue" d="M491.32,-68.33C510.02,-53.64 538.95,-33.78 568,-25 625.8,-7.53 694.63,-7.03 745.25,-10.19"/>
<polygon fill="midnightblue" stroke="midnightblue" points="745.23,-13.7 755.45,-10.89 745.71,-6.72 745.23,-13.7"/>
</g>
<!-- Node9 -->
<g id="node9" class="node">
<title>Node9</title>
<g id="a_node9"><a xlink:href="classflow_1_1net__flow_1_1Congestion__control__classic__data.html#a092ddd8d1f700b426a5f9e0184af004f" target="_top" xlink:title="Logs, in a TRACE message, all internal state values.">
<polygon fill="white" stroke="black" points="568,-35 568,-61 714,-61 714,-35 568,-35"/>
<text text-anchor="start" x="576" y="-50.6" font-family="Helvetica,sans-Serif" font-size="8.00">flow::net_flow::Congestion</text>
<text text-anchor="middle" x="641" y="-41.6" font-family="Helvetica,sans-Serif" font-size="8.00">_control_classic_data::log_state</text>
</a>
</g>
</g>
<!-- Node5&#45;&gt;Node9 -->
<g id="edge9" class="edge">
<title>Node5&#45;&gt;Node9</title>
<path fill="none" stroke="midnightblue" d="M532.17,-72.17C545.07,-69.28 558.74,-66.22 571.86,-63.28"/>
<polygon fill="midnightblue" stroke="midnightblue" points="572.77,-66.66 581.76,-61.06 571.24,-59.83 572.77,-66.66"/>
</g>
<!-- Node6&#45;&gt;Node7 -->
<g id="edge6" class="edge">
<title>Node6&#45;&gt;Node7</title>
<path fill="none" stroke="midnightblue" d="M708.16,-98C718.5,-98 729.27,-98 739.83,-98"/>
<polygon fill="midnightblue" stroke="midnightblue" points="739.87,-101.5 749.87,-98 739.87,-94.5 739.87,-101.5"/>
</g>
<!-- Node8&#45;&gt;Node8 -->
<g id="edge8" class="edge">
<title>Node8&#45;&gt;Node8</title>
<path fill="none" stroke="midnightblue" d="M786.36,-35.78C780.99,-45.31 791.53,-54 818,-54 834.13,-54 844.35,-50.77 848.65,-46.1"/>
<polygon fill="midnightblue" stroke="midnightblue" points="852.17,-46.07 849.64,-35.78 845.2,-45.4 852.17,-46.07"/>
</g>
<!-- Node9&#45;&gt;Node7 -->
<g id="edge11" class="edge">
<title>Node9&#45;&gt;Node7</title>
<path fill="none" stroke="midnightblue" d="M687.52,-61.01C710.22,-67.49 737.86,-75.39 761.76,-82.22"/>
<polygon fill="midnightblue" stroke="midnightblue" points="760.83,-85.59 771.4,-84.97 762.75,-78.86 760.83,-85.59"/>
</g>
<!-- Node9&#45;&gt;Node8 -->
<g id="edge10" class="edge">
<title>Node9&#45;&gt;Node8</title>
<path fill="none" stroke="midnightblue" d="M714.19,-35.62C724.43,-33.87 734.96,-32.06 745.19,-30.31"/>
<polygon fill="midnightblue" stroke="midnightblue" points="746.03,-33.72 755.3,-28.58 744.85,-26.82 746.03,-33.72"/>
</g>
</g>
</svg>
