<?xml version="1.0" encoding="UTF-8" standalone="no"?>
<!DOCTYPE svg PUBLIC "-//W3C//DTD SVG 1.1//EN"
 "http://www.w3.org/Graphics/SVG/1.1/DTD/svg11.dtd">
<!-- Generated by graphviz version 2.43.0 (0)
 -->
<!-- Title: flow::net_flow::Node::accept Pages: 1 -->
<svg width="411pt" height="116pt"
 viewBox="0.00 0.00 411.00 116.00" xmlns="http://www.w3.org/2000/svg" xmlns:xlink="http://www.w3.org/1999/xlink">
<g id="graph0" class="graph" transform="scale(1 1) rotate(0) translate(4 112)">
<title>flow::net_flow::Node::accept</title>
<polygon fill="white" stroke="transparent" points="-4,4 -4,-112 407,-112 407,4 -4,4"/>
<!-- Node1 -->
<g id="node1" class="node">
<title>Node1</title>
<g id="a_node1"><a xlink:title="Implementation of non&#45;blocking serv&#45;&gt;accept() for server socket serv in all cases except when serv&#45;&gt;s...">
<polygon fill="#bfbfbf" stroke="black" points="302,-31.5 302,-57.5 403,-57.5 403,-31.5 302,-31.5"/>
<text text-anchor="start" x="310" y="-47.1" font-family="Helvetica,sans-Serif" font-size="8.00">flow::net_flow::Node</text>
<text text-anchor="middle" x="352.5" y="-38.1" font-family="Helvetica,sans-Serif" font-size="8.00">::accept</text>
</a>
</g>
</g>
<!-- Node2 -->
<g id="node2" class="node">
<title>Node2</title>
<g id="a_node2"><a xlink:href="classflow_1_1net__flow_1_1Server__socket.html#aeea8554e23c8d743ca4956c772adbf24" target="_top" xlink:title="Non&#45;blocking accept: obtain socket for the least recently established not&#45;yet&#45;obtained peer connectio...">
<polygon fill="white" stroke="black" points="151,-63.5 151,-89.5 256,-89.5 256,-63.5 151,-63.5"/>
<text text-anchor="start" x="159" y="-79.1" font-family="Helvetica,sans-Serif" font-size="8.00">flow::net_flow::Server</text>
<text text-anchor="middle" x="203.5" y="-70.1" font-family="Helvetica,sans-Serif" font-size="8.00">_socket::accept</text>
</a>
</g>
</g>
<!-- Node1&#45;&gt;Node2 -->
<g id="edge1" class="edge">
<title>Node1&#45;&gt;Node2</title>
<path fill="none" stroke="midnightblue" d="M291.94,-57.47C280.1,-60.04 267.77,-62.73 256.22,-65.24"/>
<polygon fill="midnightblue" stroke="midnightblue" points="292.71,-60.88 301.73,-55.33 291.22,-54.04 292.71,-60.88"/>
</g>
<!-- Node3 -->
<g id="node3" class="node">
<title>Node3</title>
<g id="a_node3"><a xlink:href="classflow_1_1net__flow_1_1Server__socket.html#a7f374375e95e008cfe0326ecfb27cf3b" target="_top" xlink:title="Same as sync_accept() but uses a Fine_clock&#45;based Fine_duration non&#45;template type for implementation ...">
<polygon fill="white" stroke="black" points="141,-0.5 141,-26.5 266,-26.5 266,-0.5 141,-0.5"/>
<text text-anchor="start" x="149" y="-16.1" font-family="Helvetica,sans-Serif" font-size="8.00">flow::net_flow::Server</text>
<text text-anchor="middle" x="203.5" y="-7.1" font-family="Helvetica,sans-Serif" font-size="8.00">_socket::sync_accept_impl</text>
</a>
</g>
</g>
<!-- Node1&#45;&gt;Node3 -->
<g id="edge3" class="edge">
<title>Node1&#45;&gt;Node3</title>
<path fill="none" stroke="midnightblue" d="M291.93,-31.94C283.45,-30.15 274.72,-28.31 266.21,-26.51"/>
<polygon fill="midnightblue" stroke="midnightblue" points="291.23,-35.37 301.73,-34 292.67,-28.52 291.23,-35.37"/>
</g>
<!-- Node2&#45;&gt;Node2 -->
<g id="edge2" class="edge">
<title>Node2&#45;&gt;Node2</title>
<path fill="none" stroke="midnightblue" d="M230.14,-99.94C227.18,-104.64 218.3,-108 203.5,-108 179.22,-108 170.87,-98.96 178.46,-89.77"/>
<polygon fill="midnightblue" stroke="midnightblue" points="233.55,-99.11 228.54,-89.77 226.63,-100.19 233.55,-99.11"/>
</g>
<!-- Node3&#45;&gt;Node3 -->
<g id="edge5" class="edge">
<title>Node3&#45;&gt;Node3</title>
<path fill="none" stroke="midnightblue" d="M230.14,-36.94C227.18,-41.64 218.3,-45 203.5,-45 179.22,-45 170.87,-35.96 178.46,-26.77"/>
<polygon fill="midnightblue" stroke="midnightblue" points="233.55,-36.11 228.54,-26.77 226.63,-37.19 233.55,-36.11"/>
</g>
<!-- Node4 -->
<g id="node4" class="node">
<title>Node4</title>
<g id="a_node4"><a xlink:href="classflow_1_1net__flow_1_1Server__socket.html#a5bbf25d3921f6b9cbba463ef5a93d1e4" target="_top" xlink:title="Equivalent to sync_accept(duration::max(), reactor_pattern, err_code); i.e., sync_accept() with no us...">
<polygon fill="white" stroke="black" points="0,-0.5 0,-26.5 105,-26.5 105,-0.5 0,-0.5"/>
<text text-anchor="start" x="8" y="-16.1" font-family="Helvetica,sans-Serif" font-size="8.00">flow::net_flow::Server</text>
<text text-anchor="middle" x="52.5" y="-7.1" font-family="Helvetica,sans-Serif" font-size="8.00">_socket::sync_accept</text>
</a>
</g>
</g>
<!-- Node3&#45;&gt;Node4 -->
<g id="edge4" class="edge">
<title>Node3&#45;&gt;Node4</title>
<path fill="none" stroke="midnightblue" d="M130.54,-13.5C121.93,-13.5 113.28,-13.5 105.03,-13.5"/>
<polygon fill="midnightblue" stroke="midnightblue" points="130.61,-17 140.61,-13.5 130.6,-10 130.61,-17"/>
</g>
</g>
</svg>
