<?xml version="1.0" encoding="UTF-8" standalone="no"?>
<!DOCTYPE svg PUBLIC "-//W3C//DTD SVG 1.1//EN"
 "http://www.w3.org/Graphics/SVG/1.1/DTD/svg11.dtd">
<!-- Generated by graphviz version 2.43.0 (0)
 -->
<!-- Title: flow::net_flow::Node::low_lvl_packet_sent Pages: 1 -->
<svg width="254pt" height="80pt"
 viewBox="0.00 0.00 254.00 80.00" xmlns="http://www.w3.org/2000/svg" xmlns:xlink="http://www.w3.org/1999/xlink">
<g id="graph0" class="graph" transform="scale(1 1) rotate(0) translate(4 76)">
<title>flow::net_flow::Node::low_lvl_packet_sent</title>
<polygon fill="white" stroke="transparent" points="-4,4 -4,-76 250,-76 250,4 -4,4"/>
<!-- Node1 -->
<g id="node1" class="node">
<title>Node1</title>
<g id="a_node1"><a xlink:title="Completion handler for async_low_lvl_packet_send_impl(); called when the packet is either successfull...">
<polygon fill="#bfbfbf" stroke="black" points="0,-22.5 0,-48.5 103,-48.5 103,-22.5 0,-22.5"/>
<text text-anchor="start" x="8" y="-38.1" font-family="Helvetica,sans-Serif" font-size="8.00">flow::net_flow::Node</text>
<text text-anchor="middle" x="51.5" y="-29.1" font-family="Helvetica,sans-Serif" font-size="8.00">::low_lvl_packet_sent</text>
</a>
</g>
</g>
<!-- Node2 -->
<g id="node2" class="node">
<title>Node2</title>
<g id="a_node2"><a xlink:href="classflow_1_1log_1_1Log__context.html#a8a5fef42dc2cedf3c0d1a6e83beb2948" target="_top" xlink:title="Returns reference to the stored Component object, particularly as many FLOW_LOG_*() macros expect.">
<polygon fill="white" stroke="black" points="139,-45.5 139,-71.5 246,-71.5 246,-45.5 139,-45.5"/>
<text text-anchor="start" x="147" y="-61.1" font-family="Helvetica,sans-Serif" font-size="8.00">flow::log::Log_context</text>
<text text-anchor="middle" x="192.5" y="-52.1" font-family="Helvetica,sans-Serif" font-size="8.00">::get_log_component</text>
</a>
</g>
</g>
<!-- Node1&#45;&gt;Node2 -->
<g id="edge1" class="edge">
<title>Node1&#45;&gt;Node2</title>
<path fill="none" stroke="midnightblue" d="M103.08,-43.87C111.44,-45.25 120.21,-46.7 128.83,-48.13"/>
<polygon fill="midnightblue" stroke="midnightblue" points="128.42,-51.61 138.86,-49.79 129.56,-44.7 128.42,-51.61"/>
</g>
<!-- Node3 -->
<g id="node3" class="node">
<title>Node3</title>
<g id="a_node3"><a xlink:href="classflow_1_1log_1_1Log__context.html#af4db395042b065b00398cd59845dcb4d" target="_top" xlink:title="Returns the stored Logger pointer, particularly as many FLOW_LOG_*() macros expect.">
<polygon fill="white" stroke="black" points="139,-0.5 139,-26.5 246,-26.5 246,-0.5 139,-0.5"/>
<text text-anchor="start" x="147" y="-16.1" font-family="Helvetica,sans-Serif" font-size="8.00">flow::log::Log_context</text>
<text text-anchor="middle" x="192.5" y="-7.1" font-family="Helvetica,sans-Serif" font-size="8.00">::get_logger</text>
</a>
</g>
</g>
<!-- Node1&#45;&gt;Node3 -->
<g id="edge2" class="edge">
<title>Node1&#45;&gt;Node3</title>
<path fill="none" stroke="midnightblue" d="M103.08,-27.5C111.44,-26.17 120.21,-24.78 128.83,-23.42"/>
<polygon fill="midnightblue" stroke="midnightblue" points="129.53,-26.85 138.86,-21.83 128.43,-19.94 129.53,-26.85"/>
</g>
</g>
</svg>
