<?xml version="1.0" encoding="UTF-8" standalone="no"?>
<!DOCTYPE svg PUBLIC "-//W3C//DTD SVG 1.1//EN"
 "http://www.w3.org/Graphics/SVG/1.1/DTD/svg11.dtd">
<!-- Generated by graphviz version 2.43.0 (0)
 -->
<!-- Title: flow::net_flow::Congestion_control_strategy Pages: 1 -->
<svg width="484pt" height="98pt"
 viewBox="0.00 0.00 484.00 98.00" xmlns="http://www.w3.org/2000/svg" xmlns:xlink="http://www.w3.org/1999/xlink">
<g id="graph0" class="graph" transform="scale(1 1) rotate(0) translate(4 94)">
<title>flow::net_flow::Congestion_control_strategy</title>
<polygon fill="white" stroke="transparent" points="-4,4 -4,-94 480,-94 480,4 -4,4"/>
<!-- Node1 -->
<g id="node1" class="node">
<title>Node1</title>
<g id="a_node1"><a xlink:title="The abstract interface for a per&#45;socket module that determines the socket&#39;s congestion control behavi...">
<polygon fill="#bfbfbf" stroke="black" points="150,-32 150,-58 275,-58 275,-32 150,-32"/>
<text text-anchor="start" x="158" y="-47.6" font-family="Helvetica,sans-Serif" font-size="8.00">flow::net_flow::Congestion</text>
<text text-anchor="middle" x="212.5" y="-38.6" font-family="Helvetica,sans-Serif" font-size="8.00">_control_strategy</text>
</a>
</g>
</g>
<!-- Node5 -->
<g id="node5" class="node">
<title>Node5</title>
<g id="a_node5"><a xlink:href="classflow_1_1net__flow_1_1Congestion__control__classic.html" target="_top" xlink:title="Classic congestion control, based on Reno (TCP RFC 5681), with congestion avoidance,...">
<polygon fill="white" stroke="black" points="331,-55 331,-81 456,-81 456,-55 331,-55"/>
<text text-anchor="start" x="339" y="-70.6" font-family="Helvetica,sans-Serif" font-size="8.00">flow::net_flow::Congestion</text>
<text text-anchor="middle" x="393.5" y="-61.6" font-family="Helvetica,sans-Serif" font-size="8.00">_control_classic</text>
</a>
</g>
</g>
<!-- Node1&#45;&gt;Node5 -->
<g id="edge4" class="edge">
<title>Node1&#45;&gt;Node5</title>
<path fill="none" stroke="midnightblue" d="M285.38,-54.24C300.42,-56.17 316.15,-58.19 330.78,-60.07"/>
<polygon fill="midnightblue" stroke="midnightblue" points="285.47,-50.72 275.1,-52.92 284.57,-57.66 285.47,-50.72"/>
</g>
<!-- Node6 -->
<g id="node6" class="node">
<title>Node6</title>
<g id="a_node6"><a xlink:href="classflow_1_1net__flow_1_1Congestion__control__classic__with__bandwidth__est.html" target="_top" xlink:title="Classic congestion control but with backoff to bandwidth estimate&#45;based pipe size.">
<polygon fill="white" stroke="black" points="311,-10 311,-36 476,-36 476,-10 311,-10"/>
<text text-anchor="start" x="319" y="-25.6" font-family="Helvetica,sans-Serif" font-size="8.00">flow::net_flow::Congestion</text>
<text text-anchor="middle" x="393.5" y="-16.6" font-family="Helvetica,sans-Serif" font-size="8.00">_control_classic_with_bandwidth_est</text>
</a>
</g>
</g>
<!-- Node1&#45;&gt;Node6 -->
<g id="edge5" class="edge">
<title>Node1&#45;&gt;Node6</title>
<path fill="none" stroke="midnightblue" d="M285.25,-36.18C293.68,-35.15 302.32,-34.08 310.87,-33.03"/>
<polygon fill="midnightblue" stroke="midnightblue" points="284.6,-32.74 275.1,-37.43 285.45,-39.68 284.6,-32.74"/>
</g>
<!-- Node2 -->
<g id="node2" class="node">
<title>Node2</title>
<g id="a_node2"><a xlink:href="classflow_1_1util_1_1Null__interface.html" target="_top" xlink:title="An empty interface, consisting of nothing but a default virtual destructor, intended as a boiler&#45;plat...">
<polygon fill="white" stroke="black" points="0,-72.5 0,-89.5 114,-89.5 114,-72.5 0,-72.5"/>
<text text-anchor="middle" x="57" y="-79.1" font-family="Helvetica,sans-Serif" font-size="8.00">flow::util::Null_interface</text>
</a>
</g>
</g>
<!-- Node2&#45;&gt;Node1 -->
<g id="edge1" class="edge">
<title>Node2&#45;&gt;Node1</title>
<path fill="none" stroke="midnightblue" d="M104.19,-70.17C120.45,-66.35 138.91,-62.03 155.87,-58.05"/>
<polygon fill="midnightblue" stroke="midnightblue" points="103.31,-66.78 94.38,-72.47 104.91,-73.59 103.31,-66.78"/>
</g>
<!-- Node3 -->
<g id="node3" class="node">
<title>Node3</title>
<g id="a_node3"><a xlink:href="classflow_1_1log_1_1Log__context.html" target="_top" xlink:title="Convenience class that simply stores a Logger and/or Component passed into a constructor; and returns...">
<polygon fill="white" stroke="black" points="3.5,-36.5 3.5,-53.5 110.5,-53.5 110.5,-36.5 3.5,-36.5"/>
<text text-anchor="middle" x="57" y="-43.1" font-family="Helvetica,sans-Serif" font-size="8.00">flow::log::Log_context</text>
</a>
</g>
</g>
<!-- Node3&#45;&gt;Node1 -->
<g id="edge2" class="edge">
<title>Node3&#45;&gt;Node1</title>
<path fill="none" stroke="midnightblue" d="M121.02,-45C130.54,-45 140.36,-45 149.86,-45"/>
<polygon fill="midnightblue" stroke="midnightblue" points="120.83,-41.5 110.83,-45 120.83,-48.5 120.83,-41.5"/>
</g>
<!-- Node4 -->
<g id="node4" class="node">
<title>Node4</title>
<g id="a_node4"><a xlink:title=" ">
<polygon fill="white" stroke="#bfbfbf" points="7.5,-0.5 7.5,-17.5 106.5,-17.5 106.5,-0.5 7.5,-0.5"/>
<text text-anchor="middle" x="57" y="-7.1" font-family="Helvetica,sans-Serif" font-size="8.00">boost::noncopyable</text>
</a>
</g>
</g>
<!-- Node4&#45;&gt;Node1 -->
<g id="edge3" class="edge">
<title>Node4&#45;&gt;Node1</title>
<path fill="none" stroke="#8b1a1a" d="M104.19,-19.83C120.45,-23.65 138.91,-27.97 155.87,-31.95"/>
<polygon fill="#8b1a1a" stroke="#8b1a1a" points="104.91,-16.41 94.38,-17.53 103.31,-23.22 104.91,-16.41"/>
</g>
</g>
</svg>
