<?xml version="1.0" encoding="UTF-8" standalone="no"?>
<!DOCTYPE svg PUBLIC "-//W3C//DTD SVG 1.1//EN"
 "http://www.w3.org/Graphics/SVG/1.1/DTD/svg11.dtd">
<!-- Generated by graphviz version 2.43.0 (0)
 -->
<!-- Title: flow::util::String_ostream::os Pages: 1 -->
<svg width="750pt" height="173pt"
 viewBox="0.00 0.00 750.00 173.00" xmlns="http://www.w3.org/2000/svg" xmlns:xlink="http://www.w3.org/1999/xlink">
<g id="graph0" class="graph" transform="scale(1 1) rotate(0) translate(4 169)">
<title>flow::util::String_ostream::os</title>
<polygon fill="white" stroke="transparent" points="-4,4 -4,-169 746,-169 746,4 -4,4"/>
<!-- Node1 -->
<g id="node1" class="node">
<title>Node1</title>
<g id="a_node1"><a xlink:title="Access to stream that will write to owned string.">
<polygon fill="#bfbfbf" stroke="black" points="660,-55 660,-81 742,-81 742,-55 660,-55"/>
<text text-anchor="start" x="668" y="-70.6" font-family="Helvetica,sans-Serif" font-size="8.00">flow::util::String</text>
<text text-anchor="middle" x="701" y="-61.6" font-family="Helvetica,sans-Serif" font-size="8.00">_ostream::os</text>
</a>
</g>
</g>
<!-- Node2 -->
<g id="node2" class="node">
<title>Node2</title>
<g id="a_node2"><a xlink:href="classflow_1_1log_1_1Thread__local__string__appender.html#a64383811f529af676dde0028f61831f7" target="_top" xlink:title="Same as fresh_appender_ostream() but does not clear the result string, enabling piecemeal writing to ...">
<polygon fill="white" stroke="black" points="476.5,-104.5 476.5,-139.5 609.5,-139.5 609.5,-104.5 476.5,-104.5"/>
<text text-anchor="start" x="484.5" y="-129.1" font-family="Helvetica,sans-Serif" font-size="8.00">flow::log::Thread_local</text>
<text text-anchor="start" x="484.5" y="-120.1" font-family="Helvetica,sans-Serif" font-size="8.00">_string_appender::appender</text>
<text text-anchor="middle" x="543" y="-111.1" font-family="Helvetica,sans-Serif" font-size="8.00">_ostream</text>
</a>
</g>
</g>
<!-- Node1&#45;&gt;Node2 -->
<g id="edge1" class="edge">
<title>Node1&#45;&gt;Node2</title>
<path fill="none" stroke="midnightblue" d="M654.02,-84.47C644.13,-87.97 633.72,-91.63 624,-95 615.14,-98.07 605.7,-101.29 596.54,-104.4"/>
<polygon fill="midnightblue" stroke="midnightblue" points="655.45,-87.67 663.7,-81.03 653.11,-81.08 655.45,-87.67"/>
</g>
<!-- Node9 -->
<g id="node8" class="node">
<title>Node9</title>
<g id="a_node8"><a xlink:href="classflow_1_1log_1_1Thread__local__string__appender.html#a2ac7b443898adf1696d0f24f87481520" target="_top" xlink:title="Saves the formatting state of the ostream returned by appender_ostream() and sets that same ostream t...">
<polygon fill="white" stroke="black" points="462,-50.5 462,-85.5 624,-85.5 624,-50.5 462,-50.5"/>
<text text-anchor="start" x="470" y="-75.1" font-family="Helvetica,sans-Serif" font-size="8.00">flow::log::Thread_local</text>
<text text-anchor="start" x="470" y="-66.1" font-family="Helvetica,sans-Serif" font-size="8.00">_string_appender::save</text>
<text text-anchor="middle" x="543" y="-57.1" font-family="Helvetica,sans-Serif" font-size="8.00">_formatting_state_and_restore_prev</text>
</a>
</g>
</g>
<!-- Node1&#45;&gt;Node9 -->
<g id="edge7" class="edge">
<title>Node1&#45;&gt;Node9</title>
<path fill="none" stroke="midnightblue" d="M649.7,-68C641.48,-68 632.79,-68 624.06,-68"/>
<polygon fill="midnightblue" stroke="midnightblue" points="649.83,-71.5 659.83,-68 649.83,-64.5 649.83,-71.5"/>
</g>
<!-- Node10 -->
<g id="node9" class="node">
<title>Node10</title>
<g id="a_node9"><a xlink:href="classflow_1_1cfg_1_1Option__set__base.html#a74619d5264f549f99b8187f38be3c838" target="_top" xlink:title="Returns a function that wraps a Value&#45;&gt;Boolean validator function, as passed to declare_option_for_pa...">
<polygon fill="white" stroke="black" points="474.5,-5 474.5,-31 611.5,-31 611.5,-5 474.5,-5"/>
<text text-anchor="start" x="482.5" y="-20.6" font-family="Helvetica,sans-Serif" font-size="8.00">flow::cfg::Option_set</text>
<text text-anchor="middle" x="543" y="-11.6" font-family="Helvetica,sans-Serif" font-size="8.00">_base::throw_on_invalid_func</text>
</a>
</g>
</g>
<!-- Node1&#45;&gt;Node10 -->
<g id="edge8" class="edge">
<title>Node1&#45;&gt;Node10</title>
<path fill="none" stroke="midnightblue" d="M655.06,-51.52C644.88,-47.93 634.1,-44.24 624,-41 613.4,-37.6 601.95,-34.16 591.1,-31.02"/>
<polygon fill="midnightblue" stroke="midnightblue" points="653.99,-54.85 664.58,-54.91 656.33,-48.26 653.99,-54.85"/>
</g>
<!-- Node3 -->
<g id="node3" class="node">
<title>Node3</title>
<g id="a_node3"><a xlink:href="classflow_1_1log_1_1Thread__local__string__appender.html#af8808ca3accc5384a627bb806de4e4b1" target="_top" xlink:title="Clears the internally stored string (accessible for reading via target_contents()),...">
<polygon fill="white" stroke="black" points="312,-129.5 312,-164.5 426,-164.5 426,-129.5 312,-129.5"/>
<text text-anchor="start" x="320" y="-154.1" font-family="Helvetica,sans-Serif" font-size="8.00">flow::log::Thread_local</text>
<text text-anchor="start" x="320" y="-145.1" font-family="Helvetica,sans-Serif" font-size="8.00">_string_appender::fresh</text>
<text text-anchor="middle" x="369" y="-136.1" font-family="Helvetica,sans-Serif" font-size="8.00">_appender_ostream</text>
</a>
</g>
</g>
<!-- Node2&#45;&gt;Node3 -->
<g id="edge2" class="edge">
<title>Node2&#45;&gt;Node3</title>
<path fill="none" stroke="midnightblue" d="M466.25,-133.01C452.75,-134.97 438.9,-136.99 426.07,-138.85"/>
<polygon fill="midnightblue" stroke="midnightblue" points="467.09,-136.42 476.48,-131.52 466.08,-129.5 467.09,-136.42"/>
</g>
<!-- Node4 -->
<g id="node4" class="node">
<title>Node4</title>
<g id="a_node4"><a xlink:href="classflow_1_1log_1_1Logger.html#ad6ead44c19a7b15111b2f77656a2ea31" target="_top" xlink:title="Returns the stream dedicated to the executing thread and this Logger, so that the caller can apply st...">
<polygon fill="white" stroke="black" points="319,-84 319,-110 419,-110 419,-84 319,-84"/>
<text text-anchor="start" x="327" y="-99.6" font-family="Helvetica,sans-Serif" font-size="8.00">flow::log::Logger::</text>
<text text-anchor="middle" x="369" y="-90.6" font-family="Helvetica,sans-Serif" font-size="8.00">this_thread_ostream</text>
</a>
</g>
</g>
<!-- Node2&#45;&gt;Node4 -->
<g id="edge3" class="edge">
<title>Node2&#45;&gt;Node4</title>
<path fill="none" stroke="midnightblue" d="M466.54,-111.03C450.43,-108.69 433.82,-106.28 419.01,-104.12"/>
<polygon fill="midnightblue" stroke="midnightblue" points="466.08,-114.5 476.48,-112.48 467.09,-107.58 466.08,-114.5"/>
</g>
<!-- Node5 -->
<g id="node5" class="node">
<title>Node5</title>
<g id="a_node5"><a xlink:href="namespaceflow_1_1log.html#aaaaa1dcbf7c8dc99aceb2b6c217187fc" target="_top" xlink:title="Sets certain chrono&#45;related formatting on the given Logger in the current thread that results in a co...">
<polygon fill="white" stroke="black" points="178,-79.5 178,-114.5 276,-114.5 276,-79.5 178,-79.5"/>
<text text-anchor="start" x="186" y="-104.1" font-family="Helvetica,sans-Serif" font-size="8.00">flow::log::beautify</text>
<text text-anchor="start" x="186" y="-95.1" font-family="Helvetica,sans-Serif" font-size="8.00">_chrono_logger_this</text>
<text text-anchor="middle" x="227" y="-86.1" font-family="Helvetica,sans-Serif" font-size="8.00">_thread</text>
</a>
</g>
</g>
<!-- Node4&#45;&gt;Node5 -->
<g id="edge4" class="edge">
<title>Node4&#45;&gt;Node5</title>
<path fill="none" stroke="midnightblue" d="M308.52,-97C297.82,-97 286.78,-97 276.44,-97"/>
<polygon fill="midnightblue" stroke="midnightblue" points="308.64,-100.5 318.64,-97 308.64,-93.5 308.64,-100.5"/>
</g>
<!-- Node6 -->
<g id="node6" class="node">
<title>Node6</title>
<g id="a_node6"><a xlink:href="classflow_1_1async_1_1Task__qing__thread.html#a42a3f066c30c8016fd4b82eafa870d42" target="_top" xlink:title="Constructs object, immediately spawning new (worker) thread, memorizing a ref&#45;counted reference to th...">
<polygon fill="white" stroke="black" points="9,-107 9,-133 133,-133 133,-107 9,-107"/>
<text text-anchor="start" x="17" y="-122.6" font-family="Helvetica,sans-Serif" font-size="8.00">flow::async::Task_qing</text>
<text text-anchor="middle" x="71" y="-113.6" font-family="Helvetica,sans-Serif" font-size="8.00">_thread::Task_qing_thread</text>
</a>
</g>
</g>
<!-- Node5&#45;&gt;Node6 -->
<g id="edge5" class="edge">
<title>Node5&#45;&gt;Node6</title>
<path fill="none" stroke="midnightblue" d="M167.55,-105.73C156.31,-107.41 144.5,-109.17 133.17,-110.86"/>
<polygon fill="midnightblue" stroke="midnightblue" points="168.32,-109.15 177.7,-104.21 167.29,-102.23 168.32,-109.15"/>
</g>
<!-- Node7 -->
<g id="node7" class="node">
<title>Node7</title>
<g id="a_node7"><a xlink:href="classflow_1_1net__flow_1_1Node.html#a11780a79ed759f6d78d30ff2c77469f2" target="_top" xlink:title="Helper to invoke for each thread in which this Node executes, whether or not it starts that thread,...">
<polygon fill="white" stroke="red" points="0,-62 0,-88 142,-88 142,-62 0,-62"/>
<text text-anchor="start" x="8" y="-77.6" font-family="Helvetica,sans-Serif" font-size="8.00">flow::net_flow::Node</text>
<text text-anchor="middle" x="71" y="-68.6" font-family="Helvetica,sans-Serif" font-size="8.00">::this_thread_init_logger_setup</text>
</a>
</g>
</g>
<!-- Node5&#45;&gt;Node7 -->
<g id="edge6" class="edge">
<title>Node5&#45;&gt;Node7</title>
<path fill="none" stroke="midnightblue" d="M167.69,-88.67C159.34,-87.48 150.68,-86.24 142.13,-85.02"/>
<polygon fill="midnightblue" stroke="midnightblue" points="167.3,-92.15 177.7,-90.1 168.29,-85.22 167.3,-92.15"/>
</g>
<!-- Node11 -->
<g id="node10" class="node">
<title>Node11</title>
<g id="a_node10"><a xlink:href="classflow_1_1cfg_1_1Option__set__base.html#ab79c61f62032b238cb25e132ce1e1d43" target="_top" xlink:title="Internal&#45;through&#45;macro helper function; the user shall not call this directly but only through FLOW_C...">
<polygon fill="white" stroke="black" points="313,-0.5 313,-35.5 425,-35.5 425,-0.5 313,-0.5"/>
<text text-anchor="start" x="321" y="-25.1" font-family="Helvetica,sans-Serif" font-size="8.00">flow::cfg::Option_set</text>
<text text-anchor="start" x="321" y="-16.1" font-family="Helvetica,sans-Serif" font-size="8.00">_base::validate_parsed</text>
<text text-anchor="middle" x="369" y="-7.1" font-family="Helvetica,sans-Serif" font-size="8.00">_option</text>
</a>
</g>
</g>
<!-- Node10&#45;&gt;Node11 -->
<g id="edge9" class="edge">
<title>Node10&#45;&gt;Node11</title>
<path fill="none" stroke="midnightblue" d="M463.64,-18C450.61,-18 437.35,-18 425.05,-18"/>
<polygon fill="midnightblue" stroke="midnightblue" points="464.02,-21.5 474.02,-18 464.02,-14.5 464.02,-21.5"/>
</g>
</g>
</svg>
