<?xml version="1.0" encoding="UTF-8" standalone="no"?>
<!DOCTYPE svg PUBLIC "-//W3C//DTD SVG 1.1//EN"
 "http://www.w3.org/Graphics/SVG/1.1/DTD/svg11.dtd">
<!-- Generated by graphviz version 2.43.0 (0)
 -->
<!-- Title: flow::net_flow::Node::event_set_check_baseline Pages: 1 -->
<svg width="551pt" height="53pt"
 viewBox="0.00 0.00 551.00 53.00" xmlns="http://www.w3.org/2000/svg" xmlns:xlink="http://www.w3.org/1999/xlink">
<g id="graph0" class="graph" transform="scale(1 1) rotate(0) translate(4 49)">
<title>flow::net_flow::Node::event_set_check_baseline</title>
<polygon fill="white" stroke="transparent" points="-4,4 -4,-49 547,-49 547,4 -4,4"/>
<!-- Node1 -->
<g id="node1" class="node">
<title>Node1</title>
<g id="a_node1"><a xlink:title="Checks each desired (Event_set::m_want) event in event_set; any that holds true is saved into event_s...">
<polygon fill="#bfbfbf" stroke="black" points="414,-0.5 414,-26.5 543,-26.5 543,-0.5 414,-0.5"/>
<text text-anchor="start" x="422" y="-16.1" font-family="Helvetica,sans-Serif" font-size="8.00">flow::net_flow::Node</text>
<text text-anchor="middle" x="478.5" y="-7.1" font-family="Helvetica,sans-Serif" font-size="8.00">::event_set_check_baseline</text>
</a>
</g>
</g>
<!-- Node2 -->
<g id="node2" class="node">
<title>Node2</title>
<g id="a_node2"><a xlink:href="classflow_1_1net__flow_1_1Event__set.html#a412214de6a4f3a1ff1e86ddb1975f47b" target="_top" xlink:title="Checks for all previously described events that currently hold, saves them for retrieval via emit_res...">
<polygon fill="white" stroke="black" points="276,-0.5 276,-26.5 378,-26.5 378,-0.5 276,-0.5"/>
<text text-anchor="start" x="284" y="-16.1" font-family="Helvetica,sans-Serif" font-size="8.00">flow::net_flow::Event</text>
<text text-anchor="middle" x="327" y="-7.1" font-family="Helvetica,sans-Serif" font-size="8.00">_set::poll</text>
</a>
</g>
</g>
<!-- Node1&#45;&gt;Node2 -->
<g id="edge1" class="edge">
<title>Node1&#45;&gt;Node2</title>
<path fill="none" stroke="midnightblue" d="M403.56,-13.5C394.92,-13.5 386.27,-13.5 378.06,-13.5"/>
<polygon fill="midnightblue" stroke="midnightblue" points="403.66,-17 413.66,-13.5 403.66,-10 403.66,-17"/>
</g>
<!-- Node2&#45;&gt;Node2 -->
<g id="edge2" class="edge">
<title>Node2&#45;&gt;Node2</title>
<path fill="none" stroke="midnightblue" d="M351.84,-36.94C349.08,-41.64 340.8,-45 327,-45 304.36,-45 296.58,-35.96 303.65,-26.77"/>
<polygon fill="midnightblue" stroke="midnightblue" points="355.26,-36.16 350.35,-26.77 348.33,-37.17 355.26,-36.16"/>
</g>
<!-- Node3 -->
<g id="node3" class="node">
<title>Node3</title>
<g id="a_node3"><a xlink:href="classflow_1_1net__flow_1_1Event__set.html#a13a17c404f0ce43da5fec53a550da9be" target="_top" xlink:title="Same as the public sync_wait(max_wait) but uses a Fine_clock&#45;based Fine_duration non&#45;template type fo...">
<polygon fill="white" stroke="black" points="138,-0.5 138,-26.5 240,-26.5 240,-0.5 138,-0.5"/>
<text text-anchor="start" x="146" y="-16.1" font-family="Helvetica,sans-Serif" font-size="8.00">flow::net_flow::Event</text>
<text text-anchor="middle" x="189" y="-7.1" font-family="Helvetica,sans-Serif" font-size="8.00">_set::sync_wait_impl</text>
</a>
</g>
</g>
<!-- Node2&#45;&gt;Node3 -->
<g id="edge3" class="edge">
<title>Node2&#45;&gt;Node3</title>
<path fill="none" stroke="midnightblue" d="M265.49,-13.5C256.99,-13.5 248.33,-13.5 240.05,-13.5"/>
<polygon fill="midnightblue" stroke="midnightblue" points="265.75,-17 275.75,-13.5 265.74,-10 265.75,-17"/>
</g>
<!-- Node4 -->
<g id="node4" class="node">
<title>Node4</title>
<g id="a_node4"><a xlink:href="classflow_1_1net__flow_1_1Event__set.html#a7272a3b8975ff72edd3db3f777e930f1" target="_top" xlink:title="Same as the other sync_wait() but will stop waiting if the timeout given as argument expires.">
<polygon fill="white" stroke="black" points="0,-0.5 0,-26.5 102,-26.5 102,-0.5 0,-0.5"/>
<text text-anchor="start" x="8" y="-16.1" font-family="Helvetica,sans-Serif" font-size="8.00">flow::net_flow::Event</text>
<text text-anchor="middle" x="51" y="-7.1" font-family="Helvetica,sans-Serif" font-size="8.00">_set::sync_wait</text>
</a>
</g>
</g>
<!-- Node3&#45;&gt;Node4 -->
<g id="edge4" class="edge">
<title>Node3&#45;&gt;Node4</title>
<path fill="none" stroke="midnightblue" d="M127.49,-13.5C118.99,-13.5 110.33,-13.5 102.05,-13.5"/>
<polygon fill="midnightblue" stroke="midnightblue" points="127.75,-17 137.75,-13.5 127.74,-10 127.75,-17"/>
</g>
</g>
</svg>
