<?xml version="1.0" encoding="UTF-8" standalone="no"?>
<!DOCTYPE svg PUBLIC "-//W3C//DTD SVG 1.1//EN"
 "http://www.w3.org/Graphics/SVG/1.1/DTD/svg11.dtd">
<!-- Generated by graphviz version 2.43.0 (0)
 -->
<!-- Title: flow::net_flow::Peer_socket::sync_send Pages: 1 -->
<svg width="238pt" height="35pt"
 viewBox="0.00 0.00 238.00 35.00" xmlns="http://www.w3.org/2000/svg" xmlns:xlink="http://www.w3.org/1999/xlink">
<g id="graph0" class="graph" transform="scale(1 1) rotate(0) translate(4 31)">
<title>flow::net_flow::Peer_socket::sync_send</title>
<polygon fill="white" stroke="transparent" points="-4,4 -4,-31 234,-31 234,4 -4,4"/>
<!-- Node1 -->
<g id="node1" class="node">
<title>Node1</title>
<g id="a_node1"><a xlink:title="Blocking (synchronous) version of send().">
<polygon fill="#bfbfbf" stroke="black" points="133,-0.5 133,-26.5 230,-26.5 230,-0.5 133,-0.5"/>
<text text-anchor="start" x="141" y="-16.1" font-family="Helvetica,sans-Serif" font-size="8.00">flow::net_flow::Peer</text>
<text text-anchor="middle" x="181.5" y="-7.1" font-family="Helvetica,sans-Serif" font-size="8.00">_socket::sync_send</text>
</a>
</g>
</g>
<!-- Node2 -->
<g id="node2" class="node">
<title>Node2</title>
<g id="a_node2"><a xlink:href="classflow_1_1net__flow_1_1Peer__socket.html#a94f1e498fdd2349075ee5bcd7906d308" target="_top" xlink:title="Equivalent to sync_send(nullptr, duration::max(), err_code); i.e., sync_send(nullptr_t) with no timeo...">
<polygon fill="white" stroke="black" points="0,-0.5 0,-26.5 97,-26.5 97,-0.5 0,-0.5"/>
<text text-anchor="start" x="8" y="-16.1" font-family="Helvetica,sans-Serif" font-size="8.00">flow::net_flow::Peer</text>
<text text-anchor="middle" x="48.5" y="-7.1" font-family="Helvetica,sans-Serif" font-size="8.00">_socket::sync_send</text>
</a>
</g>
</g>
<!-- Node1&#45;&gt;Node2 -->
<g id="edge1" class="edge">
<title>Node1&#45;&gt;Node2</title>
<path fill="none" stroke="midnightblue" d="M122.65,-13.5C114.2,-13.5 105.57,-13.5 97.35,-13.5"/>
<polygon fill="midnightblue" stroke="midnightblue" points="122.84,-17 132.84,-13.5 122.84,-10 122.84,-17"/>
</g>
</g>
</svg>
