<?xml version="1.0" encoding="UTF-8" standalone="no"?>
<!DOCTYPE svg PUBLIC "-//W3C//DTD SVG 1.1//EN"
 "http://www.w3.org/Graphics/SVG/1.1/DTD/svg11.dtd">
<!-- Generated by graphviz version 2.43.0 (0)
 -->
<!-- Title: flow::net_flow::Congestion_control_classic_data::socket Pages: 1 -->
<svg width="896pt" height="352pt"
 viewBox="0.00 0.00 896.00 351.50" xmlns="http://www.w3.org/2000/svg" xmlns:xlink="http://www.w3.org/1999/xlink">
<g id="graph0" class="graph" transform="scale(1 1) rotate(0) translate(4 347.5)">
<title>flow::net_flow::Congestion_control_classic_data::socket</title>
<polygon fill="white" stroke="transparent" points="-4,4 -4,-347.5 892,-347.5 892,4 -4,4"/>
<!-- Node1 -->
<g id="node1" class="node">
<title>Node1</title>
<g id="a_node1"><a xlink:title="Analogous to Congestion_control_strategy::socket().">
<polygon fill="#bfbfbf" stroke="black" points="752,-178 752,-204 888,-204 888,-178 752,-178"/>
<text text-anchor="start" x="760" y="-193.6" font-family="Helvetica,sans-Serif" font-size="8.00">flow::net_flow::Congestion</text>
<text text-anchor="middle" x="820" y="-184.6" font-family="Helvetica,sans-Serif" font-size="8.00">_control_classic_data::socket</text>
</a>
</g>
</g>
<!-- Node2 -->
<g id="node2" class="node">
<title>Node2</title>
<g id="a_node2"><a xlink:href="classflow_1_1net__flow_1_1Congestion__control__classic__data.html#a7b798f3211fd2214477355b95e2d10d2" target="_top" xlink:title="If congestion_window_at_limit(), sets CWND to the limit value.">
<polygon fill="white" stroke="black" points="571.5,-198.5 571.5,-233.5 705.5,-233.5 705.5,-198.5 571.5,-198.5"/>
<text text-anchor="start" x="579.5" y="-223.1" font-family="Helvetica,sans-Serif" font-size="8.00">flow::net_flow::Congestion</text>
<text text-anchor="start" x="579.5" y="-214.1" font-family="Helvetica,sans-Serif" font-size="8.00">_control_classic_data::clamp</text>
<text text-anchor="middle" x="638.5" y="-205.1" font-family="Helvetica,sans-Serif" font-size="8.00">_congestion_window</text>
</a>
</g>
</g>
<!-- Node1&#45;&gt;Node2 -->
<g id="edge1" class="edge">
<title>Node1&#45;&gt;Node2</title>
<path fill="none" stroke="midnightblue" d="M741.86,-201.74C729.79,-203.42 717.41,-205.15 705.62,-206.79"/>
<polygon fill="midnightblue" stroke="midnightblue" points="742.48,-205.19 751.91,-200.34 741.52,-198.26 742.48,-205.19"/>
</g>
<!-- Node3 -->
<g id="node3" class="node">
<title>Node3</title>
<g id="a_node3"><a xlink:href="classflow_1_1net__flow_1_1Congestion__control__classic__data.html#ab3e34468efdf4d9e5b29eceb1fe84665" target="_top" xlink:title="Adjusts state, including potentially CWND, based on either &quot;congestion avoidance&quot; or &quot;slow start&quot; alg...">
<polygon fill="white" stroke="black" points="376.5,-265 376.5,-291 518.5,-291 518.5,-265 376.5,-265"/>
<text text-anchor="start" x="384.5" y="-280.6" font-family="Helvetica,sans-Serif" font-size="8.00">flow::net_flow::Congestion</text>
<text text-anchor="middle" x="447.5" y="-271.6" font-family="Helvetica,sans-Serif" font-size="8.00">_control_classic_data::on_acks</text>
</a>
</g>
</g>
<!-- Node1&#45;&gt;Node3 -->
<g id="edge20" class="edge">
<title>Node1&#45;&gt;Node3</title>
<path fill="none" stroke="midnightblue" d="M805.57,-213.05C788.46,-238.79 756.21,-280.01 716,-297 639.45,-329.35 539.6,-307.35 486.16,-291.07"/>
<polygon fill="midnightblue" stroke="midnightblue" points="808.71,-214.64 811.18,-204.34 802.83,-210.85 808.71,-214.64"/>
</g>
<!-- Node7 -->
<g id="node7" class="node">
<title>Node7</title>
<g id="a_node7"><a xlink:href="classflow_1_1net__flow_1_1Congestion__control__classic__data.html#a63316b5d9e9a27816b09bb52c464b588" target="_top" xlink:title="Adjust state, including CWND and SSTHRESH, assuming a Drop Timeout just occurred.">
<polygon fill="white" stroke="black" points="197,-108.5 197,-143.5 322,-143.5 322,-108.5 197,-108.5"/>
<text text-anchor="start" x="205" y="-133.1" font-family="Helvetica,sans-Serif" font-size="8.00">flow::net_flow::Congestion</text>
<text text-anchor="start" x="205" y="-124.1" font-family="Helvetica,sans-Serif" font-size="8.00">_control_classic_data::on</text>
<text text-anchor="middle" x="259.5" y="-115.1" font-family="Helvetica,sans-Serif" font-size="8.00">_drop_timeout</text>
</a>
</g>
</g>
<!-- Node1&#45;&gt;Node7 -->
<g id="edge21" class="edge">
<title>Node1&#45;&gt;Node7</title>
<path fill="none" stroke="midnightblue" d="M788.09,-173.12C768.19,-162.59 741.4,-150.15 716,-144 578.51,-110.7 410.95,-115.13 322.34,-120.83"/>
<polygon fill="midnightblue" stroke="midnightblue" points="786.53,-176.26 796.99,-177.95 789.87,-170.11 786.53,-176.26"/>
</g>
<!-- Node10 -->
<g id="node10" class="node">
<title>Node10</title>
<g id="a_node10"><a xlink:href="classflow_1_1net__flow_1_1Congestion__control__classic__data.html#afbe0609319f117e90074e1241abbba5c" target="_top" xlink:title="Adjust state, namely CWND, assuming an Idle Timeout just occurred.">
<polygon fill="white" stroke="black" points="197,-54.5 197,-89.5 322,-89.5 322,-54.5 197,-54.5"/>
<text text-anchor="start" x="205" y="-79.1" font-family="Helvetica,sans-Serif" font-size="8.00">flow::net_flow::Congestion</text>
<text text-anchor="start" x="205" y="-70.1" font-family="Helvetica,sans-Serif" font-size="8.00">_control_classic_data::on</text>
<text text-anchor="middle" x="259.5" y="-61.1" font-family="Helvetica,sans-Serif" font-size="8.00">_idle_timeout</text>
</a>
</g>
</g>
<!-- Node1&#45;&gt;Node10 -->
<g id="edge22" class="edge">
<title>Node1&#45;&gt;Node10</title>
<path fill="none" stroke="midnightblue" d="M798.35,-171.05C778.83,-153.53 747.87,-129.02 716,-117 582.36,-66.58 411.82,-64.78 322.09,-68.18"/>
<polygon fill="midnightblue" stroke="midnightblue" points="796,-173.65 805.73,-177.84 800.74,-168.5 796,-173.65"/>
</g>
<!-- Node15 -->
<g id="node15" class="node">
<title>Node15</title>
<g id="a_node15"><a xlink:href="classflow_1_1net__flow_1_1Congestion__control__classic__data.html#a9c6cac4d5409855f5e39f4411d787ad9" target="_top" xlink:title="Returns true if and only if the stored CWND is &gt;= a certain constant maximum value.">
<polygon fill="white" stroke="black" points="561,-252.5 561,-287.5 716,-287.5 716,-252.5 561,-252.5"/>
<text text-anchor="start" x="569" y="-277.1" font-family="Helvetica,sans-Serif" font-size="8.00">flow::net_flow::Congestion</text>
<text text-anchor="start" x="569" y="-268.1" font-family="Helvetica,sans-Serif" font-size="8.00">_control_classic_data::congestion</text>
<text text-anchor="middle" x="638.5" y="-259.1" font-family="Helvetica,sans-Serif" font-size="8.00">_window_at_limit</text>
</a>
</g>
</g>
<!-- Node1&#45;&gt;Node15 -->
<g id="edge14" class="edge">
<title>Node1&#45;&gt;Node15</title>
<path fill="none" stroke="midnightblue" d="M786.28,-208.87C766.28,-219.46 740.02,-232.75 716,-243 708.36,-246.26 700.17,-249.45 692.11,-252.44"/>
<polygon fill="midnightblue" stroke="midnightblue" points="788.1,-211.87 795.27,-204.08 784.8,-205.7 788.1,-211.87"/>
</g>
<!-- Node16 -->
<g id="node16" class="node">
<title>Node16</title>
<g id="a_node16"><a xlink:href="classflow_1_1net__flow_1_1Congestion__control__classic__data.html#a092ddd8d1f700b426a5f9e0184af004f" target="_top" xlink:title="Logs, in a TRACE message, all internal state values.">
<polygon fill="white" stroke="black" points="565.5,-153 565.5,-179 711.5,-179 711.5,-153 565.5,-153"/>
<text text-anchor="start" x="573.5" y="-168.6" font-family="Helvetica,sans-Serif" font-size="8.00">flow::net_flow::Congestion</text>
<text text-anchor="middle" x="638.5" y="-159.6" font-family="Helvetica,sans-Serif" font-size="8.00">_control_classic_data::log_state</text>
</a>
</g>
</g>
<!-- Node1&#45;&gt;Node16 -->
<g id="edge16" class="edge">
<title>Node1&#45;&gt;Node16</title>
<path fill="none" stroke="midnightblue" d="M741.94,-180.27C731.88,-178.87 721.6,-177.43 711.62,-176.04"/>
<polygon fill="midnightblue" stroke="midnightblue" points="741.52,-183.74 751.91,-181.66 742.48,-176.81 741.52,-183.74"/>
</g>
<!-- Node2&#45;&gt;Node3 -->
<g id="edge2" class="edge">
<title>Node2&#45;&gt;Node3</title>
<path fill="none" stroke="midnightblue" d="M574.25,-236.75C545.83,-246.07 513.18,-256.78 488.27,-264.96"/>
<polygon fill="midnightblue" stroke="midnightblue" points="575.69,-239.96 584.1,-233.52 573.51,-233.31 575.69,-239.96"/>
</g>
<!-- Node6 -->
<g id="node6" class="node">
<title>Node6</title>
<g id="a_node6"><a xlink:href="classflow_1_1net__flow_1_1Congestion__control__classic__data.html#a79e85a67e583b74cc414524d53650892" target="_top" xlink:title="Sets internally stored SSHTRESH and CWND to the given values; appropriately resets internal state so ...">
<polygon fill="white" stroke="black" points="385,-198.5 385,-233.5 510,-233.5 510,-198.5 385,-198.5"/>
<text text-anchor="start" x="393" y="-223.1" font-family="Helvetica,sans-Serif" font-size="8.00">flow::net_flow::Congestion</text>
<text text-anchor="start" x="393" y="-214.1" font-family="Helvetica,sans-Serif" font-size="8.00">_control_classic_data::on</text>
<text text-anchor="middle" x="447.5" y="-205.1" font-family="Helvetica,sans-Serif" font-size="8.00">_congestion_event</text>
</a>
</g>
</g>
<!-- Node2&#45;&gt;Node6 -->
<g id="edge5" class="edge">
<title>Node2&#45;&gt;Node6</title>
<path fill="none" stroke="midnightblue" d="M560.99,-216C544.07,-216 526.36,-216 510.13,-216"/>
<polygon fill="midnightblue" stroke="midnightblue" points="561.4,-219.5 571.4,-216 561.4,-212.5 561.4,-219.5"/>
</g>
<!-- Node4 -->
<g id="node4" class="node">
<title>Node4</title>
<g id="a_node4"><a xlink:href="classflow_1_1net__flow_1_1Congestion__control__classic.html#a34b8ef88093f082df7a935bbebfae2f3" target="_top" xlink:title="Implements Congestion_control_strategy::on_acks() API.">
<polygon fill="white" stroke="black" points="197,-317 197,-343 322,-343 322,-317 197,-317"/>
<text text-anchor="start" x="205" y="-332.6" font-family="Helvetica,sans-Serif" font-size="8.00">flow::net_flow::Congestion</text>
<text text-anchor="middle" x="259.5" y="-323.6" font-family="Helvetica,sans-Serif" font-size="8.00">_control_classic::on_acks</text>
</a>
</g>
</g>
<!-- Node3&#45;&gt;Node4 -->
<g id="edge3" class="edge">
<title>Node3&#45;&gt;Node4</title>
<path fill="none" stroke="midnightblue" d="M389.67,-293.89C363.22,-301.28 332.14,-309.97 307.1,-316.97"/>
<polygon fill="midnightblue" stroke="midnightblue" points="390.88,-297.19 399.56,-291.12 388.99,-290.44 390.88,-297.19"/>
</g>
<!-- Node5 -->
<g id="node5" class="node">
<title>Node5</title>
<g id="a_node5"><a xlink:href="classflow_1_1net__flow_1_1Congestion__control__classic__with__bandwidth__est.html#a83ee8438d6033c26a6af03b9dd173dc3" target="_top" xlink:title="Implements Congestion_control_strategy::on_acks() API.">
<polygon fill="white" stroke="black" points="185,-262.5 185,-297.5 334,-297.5 334,-262.5 185,-262.5"/>
<text text-anchor="start" x="193" y="-287.1" font-family="Helvetica,sans-Serif" font-size="8.00">flow::net_flow::Congestion</text>
<text text-anchor="start" x="193" y="-278.1" font-family="Helvetica,sans-Serif" font-size="8.00">_control_classic_with_bandwidth</text>
<text text-anchor="middle" x="259.5" y="-269.1" font-family="Helvetica,sans-Serif" font-size="8.00">_est::on_acks</text>
</a>
</g>
</g>
<!-- Node3&#45;&gt;Node5 -->
<g id="edge4" class="edge">
<title>Node3&#45;&gt;Node5</title>
<path fill="none" stroke="midnightblue" d="M366.31,-278.86C355.65,-278.98 344.76,-279.09 334.21,-279.21"/>
<polygon fill="midnightblue" stroke="midnightblue" points="366.48,-282.36 376.45,-278.75 366.41,-275.36 366.48,-282.36"/>
</g>
<!-- Node6&#45;&gt;Node7 -->
<g id="edge6" class="edge">
<title>Node6&#45;&gt;Node7</title>
<path fill="none" stroke="midnightblue" d="M378.74,-194.01C375.73,-192.43 372.8,-190.76 370,-189 350.86,-176.94 353.07,-165.19 334,-153 328.5,-149.49 322.48,-146.34 316.33,-143.55"/>
<polygon fill="midnightblue" stroke="midnightblue" points="377.46,-197.27 387.99,-198.45 380.49,-190.96 377.46,-197.27"/>
</g>
<!-- Node6&#45;&gt;Node10 -->
<g id="edge9" class="edge">
<title>Node6&#45;&gt;Node10</title>
<path fill="none" stroke="midnightblue" d="M376.1,-194.14C373.96,-192.55 371.91,-190.83 370,-189 338.92,-159.17 364.89,-129.03 334,-99 330.3,-95.4 326.07,-92.27 321.56,-89.56"/>
<polygon fill="midnightblue" stroke="midnightblue" points="374.52,-197.28 384.83,-199.74 378.3,-191.39 374.52,-197.28"/>
</g>
<!-- Node13 -->
<g id="node13" class="node">
<title>Node13</title>
<g id="a_node13"><a xlink:href="classflow_1_1net__flow_1_1Congestion__control__classic.html#af2340e68dbdbb8d6065ae487b05074be" target="_top" xlink:title="Implements Congestion_control_strategy::on_loss_event() API.">
<polygon fill="white" stroke="black" points="187.5,-217 187.5,-243 331.5,-243 331.5,-217 187.5,-217"/>
<text text-anchor="start" x="195.5" y="-232.6" font-family="Helvetica,sans-Serif" font-size="8.00">flow::net_flow::Congestion</text>
<text text-anchor="middle" x="259.5" y="-223.6" font-family="Helvetica,sans-Serif" font-size="8.00">_control_classic::on_loss_event</text>
</a>
</g>
</g>
<!-- Node6&#45;&gt;Node13 -->
<g id="edge12" class="edge">
<title>Node6&#45;&gt;Node13</title>
<path fill="none" stroke="midnightblue" d="M374.69,-221.41C360.57,-222.47 345.77,-223.58 331.67,-224.64"/>
<polygon fill="midnightblue" stroke="midnightblue" points="375.11,-224.88 384.82,-220.64 374.59,-217.9 375.11,-224.88"/>
</g>
<!-- Node14 -->
<g id="node14" class="node">
<title>Node14</title>
<g id="a_node14"><a xlink:href="classflow_1_1net__flow_1_1Congestion__control__classic__with__bandwidth__est.html#a942ce2561d6d2bbbb8faa8160a772416" target="_top" xlink:title="Implements Congestion_control_strategy::on_loss_event() API.">
<polygon fill="white" stroke="black" points="185,-162.5 185,-197.5 334,-197.5 334,-162.5 185,-162.5"/>
<text text-anchor="start" x="193" y="-187.1" font-family="Helvetica,sans-Serif" font-size="8.00">flow::net_flow::Congestion</text>
<text text-anchor="start" x="193" y="-178.1" font-family="Helvetica,sans-Serif" font-size="8.00">_control_classic_with_bandwidth</text>
<text text-anchor="middle" x="259.5" y="-169.1" font-family="Helvetica,sans-Serif" font-size="8.00">_est::on_loss_event</text>
</a>
</g>
</g>
<!-- Node6&#45;&gt;Node14 -->
<g id="edge13" class="edge">
<title>Node6&#45;&gt;Node14</title>
<path fill="none" stroke="midnightblue" d="M374.81,-202.12C361.52,-199.55 347.63,-196.86 334.29,-194.28"/>
<polygon fill="midnightblue" stroke="midnightblue" points="374.34,-205.6 384.82,-204.06 375.67,-198.73 374.34,-205.6"/>
</g>
<!-- Node8 -->
<g id="node8" class="node">
<title>Node8</title>
<g id="a_node8"><a xlink:href="classflow_1_1net__flow_1_1Congestion__control__classic.html#a59148ce4dafea4063b6992b9670909dc" target="_top" xlink:title="Implements Congestion_control_strategy::on_drop_timeout() API.">
<polygon fill="white" stroke="black" points="12,-162.5 12,-197.5 137,-197.5 137,-162.5 12,-162.5"/>
<text text-anchor="start" x="20" y="-187.1" font-family="Helvetica,sans-Serif" font-size="8.00">flow::net_flow::Congestion</text>
<text text-anchor="start" x="20" y="-178.1" font-family="Helvetica,sans-Serif" font-size="8.00">_control_classic::on_drop</text>
<text text-anchor="middle" x="74.5" y="-169.1" font-family="Helvetica,sans-Serif" font-size="8.00">_timeout</text>
</a>
</g>
</g>
<!-- Node7&#45;&gt;Node8 -->
<g id="edge7" class="edge">
<title>Node7&#45;&gt;Node8</title>
<path fill="none" stroke="midnightblue" d="M189.29,-146.42C171.39,-151.71 152.28,-157.34 134.93,-162.46"/>
<polygon fill="midnightblue" stroke="midnightblue" points="190.48,-149.72 199.09,-143.53 188.5,-143.01 190.48,-149.72"/>
</g>
<!-- Node9 -->
<g id="node9" class="node">
<title>Node9</title>
<g id="a_node9"><a xlink:href="classflow_1_1net__flow_1_1Congestion__control__classic__with__bandwidth__est.html#a3358f8b8700d5427a5163f2f480b2e8d" target="_top" xlink:title="Implements Congestion_control_strategy::on_drop_timeout() API.">
<polygon fill="white" stroke="black" points="0,-108.5 0,-143.5 149,-143.5 149,-108.5 0,-108.5"/>
<text text-anchor="start" x="8" y="-133.1" font-family="Helvetica,sans-Serif" font-size="8.00">flow::net_flow::Congestion</text>
<text text-anchor="start" x="8" y="-124.1" font-family="Helvetica,sans-Serif" font-size="8.00">_control_classic_with_bandwidth</text>
<text text-anchor="middle" x="74.5" y="-115.1" font-family="Helvetica,sans-Serif" font-size="8.00">_est::on_drop_timeout</text>
</a>
</g>
</g>
<!-- Node7&#45;&gt;Node9 -->
<g id="edge8" class="edge">
<title>Node7&#45;&gt;Node9</title>
<path fill="none" stroke="midnightblue" d="M186.63,-126C174.37,-126 161.6,-126 149.29,-126"/>
<polygon fill="midnightblue" stroke="midnightblue" points="186.8,-129.5 196.8,-126 186.8,-122.5 186.8,-129.5"/>
</g>
<!-- Node11 -->
<g id="node11" class="node">
<title>Node11</title>
<g id="a_node11"><a xlink:href="classflow_1_1net__flow_1_1Congestion__control__classic.html#a588baa530b660a3437d3a39d68b16404" target="_top" xlink:title="Implements Congestion_control_strategy::on_idle_timeout() API.">
<polygon fill="white" stroke="black" points="12,-54.5 12,-89.5 137,-89.5 137,-54.5 12,-54.5"/>
<text text-anchor="start" x="20" y="-79.1" font-family="Helvetica,sans-Serif" font-size="8.00">flow::net_flow::Congestion</text>
<text text-anchor="start" x="20" y="-70.1" font-family="Helvetica,sans-Serif" font-size="8.00">_control_classic::on_idle</text>
<text text-anchor="middle" x="74.5" y="-61.1" font-family="Helvetica,sans-Serif" font-size="8.00">_timeout</text>
</a>
</g>
</g>
<!-- Node10&#45;&gt;Node11 -->
<g id="edge10" class="edge">
<title>Node10&#45;&gt;Node11</title>
<path fill="none" stroke="midnightblue" d="M186.75,-72C170.39,-72 153.14,-72 137.24,-72"/>
<polygon fill="midnightblue" stroke="midnightblue" points="186.8,-75.5 196.8,-72 186.8,-68.5 186.8,-75.5"/>
</g>
<!-- Node12 -->
<g id="node12" class="node">
<title>Node12</title>
<g id="a_node12"><a xlink:href="classflow_1_1net__flow_1_1Congestion__control__classic__with__bandwidth__est.html#a461064f1ff0303cded61131df593599a" target="_top" xlink:title="Implements Congestion_control_strategy::on_idle_timeout() API.">
<polygon fill="white" stroke="black" points="0,-0.5 0,-35.5 149,-35.5 149,-0.5 0,-0.5"/>
<text text-anchor="start" x="8" y="-25.1" font-family="Helvetica,sans-Serif" font-size="8.00">flow::net_flow::Congestion</text>
<text text-anchor="start" x="8" y="-16.1" font-family="Helvetica,sans-Serif" font-size="8.00">_control_classic_with_bandwidth</text>
<text text-anchor="middle" x="74.5" y="-7.1" font-family="Helvetica,sans-Serif" font-size="8.00">_est::on_idle_timeout</text>
</a>
</g>
</g>
<!-- Node10&#45;&gt;Node12 -->
<g id="edge11" class="edge">
<title>Node10&#45;&gt;Node12</title>
<path fill="none" stroke="midnightblue" d="M189.29,-51.58C171.39,-46.29 152.28,-40.66 134.93,-35.54"/>
<polygon fill="midnightblue" stroke="midnightblue" points="188.5,-54.99 199.09,-54.47 190.48,-48.28 188.5,-54.99"/>
</g>
<!-- Node15&#45;&gt;Node3 -->
<g id="edge15" class="edge">
<title>Node15&#45;&gt;Node3</title>
<path fill="none" stroke="midnightblue" d="M550.64,-273.68C539.87,-274.13 528.97,-274.59 518.5,-275.04"/>
<polygon fill="midnightblue" stroke="midnightblue" points="551.06,-277.16 560.9,-273.24 550.76,-270.17 551.06,-277.16"/>
</g>
<!-- Node16&#45;&gt;Node3 -->
<g id="edge18" class="edge">
<title>Node16&#45;&gt;Node3</title>
<path fill="none" stroke="midnightblue" d="M569.48,-183.55C566.52,-185.21 563.67,-187.02 561,-189 537.82,-206.17 546.95,-224.29 525,-243 514.22,-252.19 500.62,-259.44 487.9,-264.9"/>
<polygon fill="midnightblue" stroke="midnightblue" points="571.23,-186.59 578.65,-179.03 568.14,-180.31 571.23,-186.59"/>
</g>
<!-- Node16&#45;&gt;Node6 -->
<g id="edge19" class="edge">
<title>Node16&#45;&gt;Node6</title>
<path fill="none" stroke="midnightblue" d="M578.59,-181.58C556.88,-187.33 532.24,-193.85 510.29,-199.65"/>
<polygon fill="midnightblue" stroke="midnightblue" points="579.56,-184.95 588.34,-179.01 577.77,-178.18 579.56,-184.95"/>
</g>
<!-- Node17 -->
<g id="node17" class="node">
<title>Node17</title>
<g id="a_node17"><a xlink:href="classflow_1_1net__flow_1_1Congestion__control__classic__data.html#a537fe6cb424b4e2591cc4673ed9ec8a1" target="_top" xlink:title="Constructs object by setting up logging and saving a pointer to the containing Peer_socket,...">
<polygon fill="white" stroke="black" points="370,-144.5 370,-179.5 525,-179.5 525,-144.5 370,-144.5"/>
<text text-anchor="start" x="378" y="-169.1" font-family="Helvetica,sans-Serif" font-size="8.00">flow::net_flow::Congestion</text>
<text text-anchor="start" x="378" y="-160.1" font-family="Helvetica,sans-Serif" font-size="8.00">_control_classic_data::Congestion</text>
<text text-anchor="middle" x="447.5" y="-151.1" font-family="Helvetica,sans-Serif" font-size="8.00">_control_classic_data</text>
</a>
</g>
</g>
<!-- Node16&#45;&gt;Node17 -->
<g id="edge17" class="edge">
<title>Node16&#45;&gt;Node17</title>
<path fill="none" stroke="midnightblue" d="M554.98,-164.25C545.06,-164.04 534.95,-163.83 525.12,-163.62"/>
<polygon fill="midnightblue" stroke="midnightblue" points="555.17,-167.76 565.24,-164.47 555.31,-160.76 555.17,-167.76"/>
</g>
</g>
</svg>
