<?xml version="1.0" encoding="UTF-8" standalone="no"?>
<!DOCTYPE svg PUBLIC "-//W3C//DTD SVG 1.1//EN"
 "http://www.w3.org/Graphics/SVG/1.1/DTD/svg11.dtd">
<!-- Generated by graphviz version 2.43.0 (0)
 -->
<!-- Title: flow::net_flow::Node::mark_data_packet_sent Pages: 1 -->
<svg width="1216pt" height="377pt"
 viewBox="0.00 0.00 1216.00 376.91" xmlns="http://www.w3.org/2000/svg" xmlns:xlink="http://www.w3.org/1999/xlink">
<g id="graph0" class="graph" transform="scale(1 1) rotate(0) translate(4 372.91)">
<title>flow::net_flow::Node::mark_data_packet_sent</title>
<polygon fill="white" stroke="transparent" points="-4,4 -4,-372.91 1212,-372.91 1212,4 -4,4"/>
<!-- Node1 -->
<g id="node1" class="node">
<title>Node1</title>
<g id="a_node1"><a xlink:title="Performs important book&#45;keeping based on the event &quot;DATA packet was sent to destination....">
<polygon fill="#bfbfbf" stroke="black" points="1089,-227.5 1089,-253.5 1208,-253.5 1208,-227.5 1089,-227.5"/>
<text text-anchor="start" x="1097" y="-243.1" font-family="Helvetica,sans-Serif" font-size="8.00">flow::net_flow::Node</text>
<text text-anchor="middle" x="1148.5" y="-234.1" font-family="Helvetica,sans-Serif" font-size="8.00">::mark_data_packet_sent</text>
</a>
</g>
</g>
<!-- Node2 -->
<g id="node2" class="node">
<title>Node2</title>
<g id="a_node2"><a xlink:href="classflow_1_1net__flow_1_1Node.html#a9f302fe63e36f72931e1a759b0aaaed4" target="_top" xlink:title="Takes given low&#45;level packet structure, serializes it, and initiates asynchronous send of these data ...">
<polygon fill="white" stroke="black" points="944,-223 944,-258 1053,-258 1053,-223 944,-223"/>
<text text-anchor="start" x="952" y="-247.6" font-family="Helvetica,sans-Serif" font-size="8.00">flow::net_flow::Node</text>
<text text-anchor="start" x="952" y="-238.6" font-family="Helvetica,sans-Serif" font-size="8.00">::async_low_lvl_packet</text>
<text text-anchor="middle" x="998.5" y="-229.6" font-family="Helvetica,sans-Serif" font-size="8.00">_send_impl</text>
</a>
</g>
</g>
<!-- Node1&#45;&gt;Node2 -->
<g id="edge1" class="edge">
<title>Node1&#45;&gt;Node2</title>
<path fill="none" stroke="midnightblue" d="M1078.41,-240.5C1070.02,-240.5 1061.54,-240.5 1053.42,-240.5"/>
<polygon fill="midnightblue" stroke="midnightblue" points="1078.58,-244 1088.58,-240.5 1078.58,-237 1078.58,-244"/>
</g>
<!-- Node3 -->
<g id="node3" class="node">
<title>Node3</title>
<g id="a_node3"><a xlink:href="classflow_1_1net__flow_1_1Node.html#a08a5752bf3848f31abbe753be47c1fcf" target="_top" xlink:title="async_low_lvl_packet_send_impl() wrapper to call when packet is to be sent to the remote side of the ...">
<polygon fill="white" stroke="black" points="794,-296 794,-331 908,-331 908,-296 794,-296"/>
<text text-anchor="start" x="802" y="-320.6" font-family="Helvetica,sans-Serif" font-size="8.00">flow::net_flow::Node</text>
<text text-anchor="start" x="802" y="-311.6" font-family="Helvetica,sans-Serif" font-size="8.00">::async_no_sock_low_lvl</text>
<text text-anchor="middle" x="851" y="-302.6" font-family="Helvetica,sans-Serif" font-size="8.00">_packet_send</text>
</a>
</g>
</g>
<!-- Node2&#45;&gt;Node3 -->
<g id="edge2" class="edge">
<title>Node2&#45;&gt;Node3</title>
<path fill="none" stroke="midnightblue" d="M953.12,-262.77C931.86,-273.43 906.77,-286.02 886.9,-295.99"/>
<polygon fill="midnightblue" stroke="midnightblue" points="954.91,-265.78 962.28,-258.17 951.77,-259.53 954.91,-265.78"/>
</g>
<!-- Node12 -->
<g id="node7" class="node">
<title>Node12</title>
<g id="a_node7"><a xlink:href="classflow_1_1net__flow_1_1Node.html#a0db2bb587e0407077b11368df075f0ff" target="_top" xlink:title="async_low_lvl_packet_send_impl() wrapper to call when packet is to be sent to the remote side of the ...">
<polygon fill="white" stroke="black" points="800.5,-196 800.5,-231 901.5,-231 901.5,-196 800.5,-196"/>
<text text-anchor="start" x="808.5" y="-220.6" font-family="Helvetica,sans-Serif" font-size="8.00">flow::net_flow::Node</text>
<text text-anchor="start" x="808.5" y="-211.6" font-family="Helvetica,sans-Serif" font-size="8.00">::async_sock_low_lvl</text>
<text text-anchor="middle" x="851" y="-202.6" font-family="Helvetica,sans-Serif" font-size="8.00">_packet_send</text>
</a>
</g>
</g>
<!-- Node2&#45;&gt;Node12 -->
<g id="edge7" class="edge">
<title>Node2&#45;&gt;Node12</title>
<path fill="none" stroke="midnightblue" d="M933.59,-228.64C922.9,-226.66 911.96,-224.63 901.69,-222.72"/>
<polygon fill="midnightblue" stroke="midnightblue" points="933.26,-232.14 943.73,-230.52 934.54,-225.26 933.26,-232.14"/>
</g>
<!-- Node4 -->
<g id="node4" class="node">
<title>Node4</title>
<g id="a_node4"><a xlink:href="classflow_1_1net__flow_1_1Node.html#a74a6a82a1390a76e985593969fb47184" target="_top" xlink:title="Sends an RST to the given UDP endpoint in response to the given incoming low&#45;level packet that came f...">
<polygon fill="white" stroke="black" points="302,-318 302,-353 416,-353 416,-318 302,-318"/>
<text text-anchor="start" x="310" y="-342.6" font-family="Helvetica,sans-Serif" font-size="8.00">flow::net_flow::Node</text>
<text text-anchor="start" x="310" y="-333.6" font-family="Helvetica,sans-Serif" font-size="8.00">::async_no_sock_low_lvl</text>
<text text-anchor="middle" x="359" y="-324.6" font-family="Helvetica,sans-Serif" font-size="8.00">_rst_send</text>
</a>
</g>
</g>
<!-- Node3&#45;&gt;Node4 -->
<g id="edge3" class="edge">
<title>Node3&#45;&gt;Node4</title>
<path fill="none" stroke="midnightblue" d="M783.8,-316.47C686.72,-320.83 507.41,-328.88 416.31,-332.97"/>
<polygon fill="midnightblue" stroke="midnightblue" points="783.96,-319.97 793.79,-316.02 783.64,-312.98 783.96,-319.97"/>
</g>
<!-- Node5 -->
<g id="node5" class="node">
<title>Node5</title>
<g id="a_node5"><a xlink:href="classflow_1_1net__flow_1_1Node.html#a1699dfdaf3e5ebe1b1d715a9c306d116" target="_top" xlink:title="Handles a just&#45;received, not&#45;yet&#45;deserialized low&#45;level packet.">
<polygon fill="white" stroke="red" points="0,-322.5 0,-348.5 101,-348.5 101,-322.5 0,-322.5"/>
<text text-anchor="start" x="8" y="-338.1" font-family="Helvetica,sans-Serif" font-size="8.00">flow::net_flow::Node</text>
<text text-anchor="middle" x="50.5" y="-329.1" font-family="Helvetica,sans-Serif" font-size="8.00">::handle_incoming</text>
</a>
</g>
</g>
<!-- Node4&#45;&gt;Node5 -->
<g id="edge4" class="edge">
<title>Node4&#45;&gt;Node5</title>
<path fill="none" stroke="midnightblue" d="M297.62,-355.87C287.19,-358.62 276.36,-361.01 266,-362.5 209.25,-370.66 193.66,-371.23 137,-362.5 119.31,-359.77 100.26,-354.05 84.64,-348.57"/>
<polygon fill="midnightblue" stroke="midnightblue" points="298.78,-359.18 307.48,-353.13 296.91,-352.44 298.78,-359.18"/>
</g>
<!-- Node11 -->
<g id="node6" class="node">
<title>Node11</title>
<g id="a_node6"><a xlink:href="classflow_1_1net__flow_1_1Node.html#aaaf5c3b5e6b9f9f1658b60907b36a498" target="_top" xlink:title="Handles a just&#45;deserialized, just&#45;demultiplexed low&#45;level SYN packet delivered to the given server so...">
<polygon fill="white" stroke="black" points="141.5,-318 141.5,-353 261.5,-353 261.5,-318 141.5,-318"/>
<text text-anchor="start" x="149.5" y="-342.6" font-family="Helvetica,sans-Serif" font-size="8.00">flow::net_flow::Node</text>
<text text-anchor="start" x="149.5" y="-333.6" font-family="Helvetica,sans-Serif" font-size="8.00">::handle_syn_to_listening</text>
<text text-anchor="middle" x="201.5" y="-324.6" font-family="Helvetica,sans-Serif" font-size="8.00">_server</text>
</a>
</g>
</g>
<!-- Node4&#45;&gt;Node11 -->
<g id="edge5" class="edge">
<title>Node4&#45;&gt;Node11</title>
<path fill="none" stroke="midnightblue" d="M291.62,-335.5C281.68,-335.5 271.48,-335.5 261.7,-335.5"/>
<polygon fill="midnightblue" stroke="midnightblue" points="291.86,-339 301.86,-335.5 291.86,-332 291.86,-339"/>
</g>
<!-- Node11&#45;&gt;Node5 -->
<g id="edge6" class="edge">
<title>Node11&#45;&gt;Node5</title>
<path fill="none" stroke="midnightblue" d="M131.1,-335.5C120.95,-335.5 110.67,-335.5 101.03,-335.5"/>
<polygon fill="midnightblue" stroke="midnightblue" points="131.18,-339 141.18,-335.5 131.18,-332 131.18,-339"/>
</g>
<!-- Node13 -->
<g id="node8" class="node">
<title>Node13</title>
<g id="a_node8"><a xlink:href="classflow_1_1net__flow_1_1Node.html#af1c4623729d0a061200a386f7a651926" target="_top" xlink:title="Begins the process of asynchronously sending the given low&#45;level packet to the remote Node specified ...">
<polygon fill="white" stroke="black" points="308.5,-173 308.5,-208 409.5,-208 409.5,-173 308.5,-173"/>
<text text-anchor="start" x="316.5" y="-197.6" font-family="Helvetica,sans-Serif" font-size="8.00">flow::net_flow::Node</text>
<text text-anchor="start" x="316.5" y="-188.6" font-family="Helvetica,sans-Serif" font-size="8.00">::async_sock_low_lvl</text>
<text text-anchor="middle" x="359" y="-179.6" font-family="Helvetica,sans-Serif" font-size="8.00">_packet_send_paced</text>
</a>
</g>
</g>
<!-- Node12&#45;&gt;Node13 -->
<g id="edge8" class="edge">
<title>Node12&#45;&gt;Node13</title>
<path fill="none" stroke="midnightblue" d="M790.27,-218.32C712.14,-223.52 571.17,-229.14 452,-213.5 438.12,-211.68 423.32,-208.53 409.73,-205.14"/>
<polygon fill="midnightblue" stroke="midnightblue" points="790.67,-221.8 800.4,-217.62 790.19,-214.82 790.67,-221.8"/>
</g>
<!-- Node43 -->
<g id="node15" class="node">
<title>Node43</title>
<g id="a_node15"><a xlink:href="classflow_1_1net__flow_1_1Node.html#a0556af278dc07a43f109fbd74ac64d5e" target="_top" xlink:title="async_sock_low_lvl_packet_send_paced() pacing helper: Handles a DATA or ACK packet that was just pass...">
<polygon fill="white" stroke="black" points="452,-177.5 452,-203.5 604,-203.5 604,-177.5 452,-177.5"/>
<text text-anchor="start" x="460" y="-193.1" font-family="Helvetica,sans-Serif" font-size="8.00">flow::net_flow::Node</text>
<text text-anchor="middle" x="528" y="-184.1" font-family="Helvetica,sans-Serif" font-size="8.00">::sock_pacing_new_packet_ready</text>
</a>
</g>
</g>
<!-- Node12&#45;&gt;Node43 -->
<g id="edge18" class="edge">
<title>Node12&#45;&gt;Node43</title>
<path fill="none" stroke="midnightblue" d="M790.01,-209.2C737.4,-205.43 660.68,-199.94 604.02,-195.88"/>
<polygon fill="midnightblue" stroke="midnightblue" points="789.97,-212.71 800.2,-209.93 790.47,-205.73 789.97,-212.71"/>
</g>
<!-- Node44 -->
<g id="node16" class="node">
<title>Node44</title>
<g id="a_node16"><a xlink:href="classflow_1_1net__flow_1_1Node.html#a73cfaa8e5ed7fe845f759a30423a9cbf" target="_top" xlink:title="async_sock_low_lvl_packet_send_paced() pacing helper: Given that we are currently in the pacing time ...">
<polygon fill="white" stroke="black" points="640,-136.5 640,-162.5 758,-162.5 758,-136.5 640,-136.5"/>
<text text-anchor="start" x="648" y="-152.1" font-family="Helvetica,sans-Serif" font-size="8.00">flow::net_flow::Node</text>
<text text-anchor="middle" x="699" y="-143.1" font-family="Helvetica,sans-Serif" font-size="8.00">::sock_pacing_process_q</text>
</a>
</g>
</g>
<!-- Node12&#45;&gt;Node44 -->
<g id="edge20" class="edge">
<title>Node12&#45;&gt;Node44</title>
<path fill="none" stroke="midnightblue" d="M799.12,-191.79C776.43,-182.11 750.45,-171.03 730.78,-162.63"/>
<polygon fill="midnightblue" stroke="midnightblue" points="798.04,-195.14 808.61,-195.84 800.79,-188.7 798.04,-195.14"/>
</g>
<!-- Node13&#45;&gt;Node11 -->
<g id="edge16" class="edge">
<title>Node13&#45;&gt;Node11</title>
<path fill="none" stroke="midnightblue" d="M342.83,-217.09C326.69,-243.35 298.98,-283.15 266,-308.5 261.44,-312 256.36,-315.14 251.11,-317.93"/>
<polygon fill="midnightblue" stroke="midnightblue" points="345.89,-218.79 348.04,-208.41 339.89,-215.18 345.89,-218.79"/>
</g>
<!-- Node14 -->
<g id="node9" class="node">
<title>Node14</title>
<g id="a_node9"><a xlink:href="classflow_1_1net__flow_1_1Node.html#a11b11abade3b70f242dbb61cddb34ad1" target="_top" xlink:title="Sends a low&#45;level ACK packet, with all accumulated in Peer_socket::m_rcv_pending_acks of sock individ...">
<polygon fill="white" stroke="black" points="142,-272.5 142,-298.5 261,-298.5 261,-272.5 142,-272.5"/>
<text text-anchor="start" x="150" y="-288.1" font-family="Helvetica,sans-Serif" font-size="8.00">flow::net_flow::Node</text>
<text text-anchor="middle" x="201.5" y="-279.1" font-family="Helvetica,sans-Serif" font-size="8.00">::async_low_lvl_ack_send</text>
</a>
</g>
</g>
<!-- Node13&#45;&gt;Node14 -->
<g id="edge9" class="edge">
<title>Node13&#45;&gt;Node14</title>
<path fill="none" stroke="midnightblue" d="M331.59,-214.86C314.02,-230.1 289.85,-249.29 266,-262.5 259.23,-266.25 251.73,-269.59 244.33,-272.49"/>
<polygon fill="midnightblue" stroke="midnightblue" points="334,-217.41 339.18,-208.17 329.37,-212.16 334,-217.41"/>
</g>
<!-- Node15 -->
<g id="node10" class="node">
<title>Node15</title>
<g id="a_node10"><a xlink:href="classflow_1_1net__flow_1_1Node.html#ae330d0f98ad34cb442d2bb251bdae460" target="_top" xlink:title="Helper to create, fully fill out, and asynchronously send via async_sock_low_lvl_packet_send_paced() ...">
<polygon fill="white" stroke="black" points="145,-218 145,-253 258,-253 258,-218 145,-218"/>
<text text-anchor="start" x="153" y="-242.6" font-family="Helvetica,sans-Serif" font-size="8.00">flow::net_flow::Node</text>
<text text-anchor="start" x="153" y="-233.6" font-family="Helvetica,sans-Serif" font-size="8.00">::async_low_lvl_syn_ack</text>
<text text-anchor="middle" x="201.5" y="-224.6" font-family="Helvetica,sans-Serif" font-size="8.00">_ack_send</text>
</a>
</g>
</g>
<!-- Node13&#45;&gt;Node15 -->
<g id="edge10" class="edge">
<title>Node13&#45;&gt;Node15</title>
<path fill="none" stroke="midnightblue" d="M298.42,-207.74C285.19,-211.57 271.21,-215.62 258.13,-219.4"/>
<polygon fill="midnightblue" stroke="midnightblue" points="299.74,-211 308.37,-204.86 297.79,-204.28 299.74,-211"/>
</g>
<!-- Node16 -->
<g id="node11" class="node">
<title>Node16</title>
<g id="a_node11"><a xlink:href="classflow_1_1net__flow_1_1Node.html#a192d4b95b9f8a5c3d08b1e5486eb6f78" target="_top" xlink:title="receive_wnd_updated() helper that continues rcv_wnd recovery: that is, sends unsolicited ACK with a r...">
<polygon fill="white" stroke="red" points="140.5,-154.5 140.5,-180.5 262.5,-180.5 262.5,-154.5 140.5,-154.5"/>
<text text-anchor="start" x="148.5" y="-170.1" font-family="Helvetica,sans-Serif" font-size="8.00">flow::net_flow::Node</text>
<text text-anchor="middle" x="201.5" y="-161.1" font-family="Helvetica,sans-Serif" font-size="8.00">::async_rcv_wnd_recovery</text>
</a>
</g>
</g>
<!-- Node13&#45;&gt;Node16 -->
<g id="edge11" class="edge">
<title>Node13&#45;&gt;Node16</title>
<path fill="none" stroke="midnightblue" d="M298.26,-181.66C286.55,-179.93 274.26,-178.11 262.54,-176.38"/>
<polygon fill="midnightblue" stroke="midnightblue" points="297.97,-185.16 308.37,-183.16 298.99,-178.23 297.97,-185.16"/>
</g>
<!-- Node26 -->
<g id="node12" class="node">
<title>Node26</title>
<g id="a_node12"><a xlink:href="classflow_1_1net__flow_1_1Node.html#ad03aa88df3d1d3981454ee3356e868c1" target="_top" xlink:title="Sends an RST to the other side of the given socket asynchronously when possible.">
<polygon fill="white" stroke="red" points="151,-100 151,-135 252,-135 252,-100 151,-100"/>
<text text-anchor="start" x="159" y="-124.6" font-family="Helvetica,sans-Serif" font-size="8.00">flow::net_flow::Node</text>
<text text-anchor="start" x="159" y="-115.6" font-family="Helvetica,sans-Serif" font-size="8.00">::async_sock_low_lvl</text>
<text text-anchor="middle" x="201.5" y="-106.6" font-family="Helvetica,sans-Serif" font-size="8.00">_rst_send</text>
</a>
</g>
</g>
<!-- Node13&#45;&gt;Node26 -->
<g id="edge13" class="edge">
<title>Node13&#45;&gt;Node26</title>
<path fill="none" stroke="midnightblue" d="M314.92,-168.27C299.58,-160.54 282.11,-151.94 266,-144.5 259.15,-141.33 251.82,-138.09 244.67,-135"/>
<polygon fill="midnightblue" stroke="midnightblue" points="313.66,-171.56 324.16,-172.96 316.82,-165.32 313.66,-171.56"/>
</g>
<!-- Node32 -->
<g id="node13" class="node">
<title>Node32</title>
<g id="a_node13"><a xlink:href="classflow_1_1net__flow_1_1Node.html#addd654cb6b1ccff34ddccbe5226be8f0" target="_top" xlink:title="Handles the triggering of the retransmit timer wait set up by setup_connection_timers(); it will re&#45;s...">
<polygon fill="white" stroke="black" points="137,-46 137,-81 266,-81 266,-46 137,-46"/>
<text text-anchor="start" x="145" y="-70.6" font-family="Helvetica,sans-Serif" font-size="8.00">flow::net_flow::Node</text>
<text text-anchor="start" x="145" y="-61.6" font-family="Helvetica,sans-Serif" font-size="8.00">::handle_connection_rexmit</text>
<text text-anchor="middle" x="201.5" y="-52.6" font-family="Helvetica,sans-Serif" font-size="8.00">_timer_event</text>
</a>
</g>
</g>
<!-- Node13&#45;&gt;Node32 -->
<g id="edge15" class="edge">
<title>Node13&#45;&gt;Node32</title>
<path fill="none" stroke="midnightblue" d="M339.24,-164.57C322.18,-142.49 295.27,-111.15 266,-90.5 261.11,-87.05 255.7,-83.91 250.17,-81.1"/>
<polygon fill="midnightblue" stroke="midnightblue" points="336.66,-166.96 345.49,-172.82 342.24,-162.74 336.66,-166.96"/>
</g>
<!-- Node33 -->
<g id="node14" class="node">
<title>Node33</title>
<g id="a_node14"><a xlink:href="classflow_1_1net__flow_1_1Node.html#a10a92f11a2c9f218cdd9a55f282e79b1" target="_top" xlink:title="Thread W implemention of send(): synchronously or asynchronously send the contents of sock&#45;&gt;m_snd_buf...">
<polygon fill="white" stroke="red" points="151,-0.5 151,-26.5 252,-26.5 252,-0.5 151,-0.5"/>
<text text-anchor="start" x="159" y="-16.1" font-family="Helvetica,sans-Serif" font-size="8.00">flow::net_flow::Node</text>
<text text-anchor="middle" x="201.5" y="-7.1" font-family="Helvetica,sans-Serif" font-size="8.00">::send_worker</text>
</a>
</g>
</g>
<!-- Node13&#45;&gt;Node33 -->
<g id="edge17" class="edge">
<title>Node13&#45;&gt;Node33</title>
<path fill="none" stroke="midnightblue" d="M348.35,-163.2C334.94,-129.02 307.54,-70.78 266,-36.5 261.3,-32.62 255.88,-29.37 250.25,-26.65"/>
<polygon fill="midnightblue" stroke="midnightblue" points="345.09,-164.47 351.91,-172.58 351.63,-161.99 345.09,-164.47"/>
</g>
<!-- Node16&#45;&gt;Node16 -->
<g id="edge12" class="edge">
<title>Node16&#45;&gt;Node16</title>
<path fill="none" stroke="midnightblue" d="M228.5,-190.94C225.5,-195.64 216.5,-199 201.5,-199 176.89,-199 168.43,-189.96 176.12,-180.77"/>
<polygon fill="midnightblue" stroke="midnightblue" points="231.91,-190.1 226.88,-180.77 224.99,-191.2 231.91,-190.1"/>
</g>
<!-- Node26&#45;&gt;Node5 -->
<g id="edge14" class="edge">
<title>Node26&#45;&gt;Node5</title>
<path fill="none" stroke="midnightblue" d="M142.32,-139.86C140.45,-141.32 138.67,-142.86 137,-144.5 83.58,-196.92 60.77,-288.65 53.9,-322.49"/>
<polygon fill="midnightblue" stroke="midnightblue" points="144.64,-142.52 150.99,-134.03 140.74,-136.71 144.64,-142.52"/>
</g>
<!-- Node43&#45;&gt;Node13 -->
<g id="edge19" class="edge">
<title>Node43&#45;&gt;Node13</title>
<path fill="none" stroke="midnightblue" d="M441.79,-190.5C430.87,-190.5 420,-190.5 409.9,-190.5"/>
<polygon fill="midnightblue" stroke="midnightblue" points="441.81,-194 451.81,-190.5 441.81,-187 441.81,-194"/>
</g>
<!-- Node44&#45;&gt;Node43 -->
<g id="edge21" class="edge">
<title>Node44&#45;&gt;Node43</title>
<path fill="none" stroke="midnightblue" d="M634.23,-164.97C617.25,-169.09 599.09,-173.5 582.71,-177.47"/>
<polygon fill="midnightblue" stroke="midnightblue" points="635.17,-168.34 644.06,-162.59 633.52,-161.54 635.17,-168.34"/>
</g>
<!-- Node45 -->
<g id="node17" class="node">
<title>Node45</title>
<g id="a_node17"><a xlink:href="classflow_1_1net__flow_1_1Node.html#a3fd57a0d025a78cbeccfd8a15a983575" target="_top" xlink:title="async_sock_low_lvl_packet_send_paced() pacing helper: If sock_pacing_process_q() ran out of the last ...">
<polygon fill="white" stroke="black" points="459.5,-132.5 459.5,-158.5 596.5,-158.5 596.5,-132.5 459.5,-132.5"/>
<text text-anchor="start" x="467.5" y="-148.1" font-family="Helvetica,sans-Serif" font-size="8.00">flow::net_flow::Node</text>
<text text-anchor="middle" x="528" y="-139.1" font-family="Helvetica,sans-Serif" font-size="8.00">::sock_pacing_time_slice_end</text>
</a>
</g>
</g>
<!-- Node44&#45;&gt;Node45 -->
<g id="edge22" class="edge">
<title>Node44&#45;&gt;Node45</title>
<path fill="none" stroke="midnightblue" d="M629.55,-141.24C618.67,-140.83 607.43,-140.57 596.57,-140.47"/>
<polygon fill="midnightblue" stroke="midnightblue" points="629.7,-144.75 639.84,-141.67 630,-137.75 629.7,-144.75"/>
</g>
<!-- Node45&#45;&gt;Node44 -->
<g id="edge23" class="edge">
<title>Node45&#45;&gt;Node44</title>
<path fill="none" stroke="midnightblue" d="M606.73,-154.07C617.87,-154.4 629.17,-154.57 639.84,-154.57"/>
<polygon fill="midnightblue" stroke="midnightblue" points="606.68,-150.57 596.57,-153.73 606.45,-157.56 606.68,-150.57"/>
</g>
</g>
</svg>
