<?xml version="1.0" encoding="UTF-8" standalone="no"?>
<!DOCTYPE svg PUBLIC "-//W3C//DTD SVG 1.1//EN"
 "http://www.w3.org/Graphics/SVG/1.1/DTD/svg11.dtd">
<!-- Generated by graphviz version 2.43.0 (0)
 -->
<!-- Title: flow::util::Container_traits&lt; util::Linked_hash_map&lt; K, V &gt; &gt; Pages: 1 -->
<svg width="172pt" height="143pt"
 viewBox="0.00 0.00 172.00 143.00" xmlns="http://www.w3.org/2000/svg" xmlns:xlink="http://www.w3.org/1999/xlink">
<g id="graph0" class="graph" transform="scale(1 1) rotate(0) translate(4 139)">
<title>flow::util::Container_traits&lt; util::Linked_hash_map&lt; K, V &gt; &gt;</title>
<polygon fill="white" stroke="transparent" points="-4,4 -4,-139 168,-139 168,4 -4,4"/>
<!-- Node1 -->
<g id="node1" class="node">
<title>Node1</title>
<g id="a_node1"><a xlink:title="Traits of flow::util::Linked_hash_map.">
<polygon fill="#bfbfbf" stroke="black" points="0,-0.5 0,-35.5 104,-35.5 104,-0.5 0,-0.5"/>
<text text-anchor="start" x="8" y="-25.1" font-family="Helvetica,sans-Serif" font-size="8.00">flow::util::Container</text>
<text text-anchor="start" x="8" y="-16.1" font-family="Helvetica,sans-Serif" font-size="8.00">_traits&lt; util::Linked</text>
<text text-anchor="middle" x="52" y="-7.1" font-family="Helvetica,sans-Serif" font-size="8.00">_hash_map&lt; K, V &gt; &gt;</text>
</a>
</g>
</g>
<!-- Node2 -->
<g id="node2" class="node">
<title>Node2</title>
<g id="a_node2"><a xlink:href="classbool.html" target="_top" xlink:title=" ">
<polygon fill="white" stroke="#bfbfbf" points="34.5,-117.5 34.5,-134.5 69.5,-134.5 69.5,-117.5 34.5,-117.5"/>
<text text-anchor="middle" x="52" y="-124.1" font-family="Helvetica,sans-Serif" font-size="8.00">bool</text>
</a>
</g>
</g>
<!-- Node2&#45;&gt;Node1 -->
<g id="edge1" class="edge">
<title>Node2&#45;&gt;Node1</title>
<path fill="none" stroke="#9a32cd" stroke-dasharray="5,2" d="M52,-107.23C52,-87.31 52,-55.23 52,-35.73"/>
<polygon fill="#9a32cd" stroke="#9a32cd" points="48.5,-107.38 52,-117.38 55.5,-107.38 48.5,-107.38"/>
<text text-anchor="start" x="52" y="-92.6" font-family="Helvetica,sans-Serif" font-size="8.00"> S_CHANGE_INVALIDATES</text>
<text text-anchor="middle" x="108" y="-83.6" font-family="Helvetica,sans-Serif" font-size="8.00">_ITERATORS</text>
<text text-anchor="middle" x="108" y="-74.6" font-family="Helvetica,sans-Serif" font-size="8.00">S_CONSTANT_TIME_INSERT</text>
<text text-anchor="middle" x="108" y="-65.6" font-family="Helvetica,sans-Serif" font-size="8.00">S_CONSTANT_TIME_SEARCH</text>
<text text-anchor="middle" x="108" y="-56.6" font-family="Helvetica,sans-Serif" font-size="8.00">S_SORTED</text>
</g>
</g>
</svg>
