<?xml version="1.0" encoding="UTF-8" standalone="no"?>
<!DOCTYPE svg PUBLIC "-//W3C//DTD SVG 1.1//EN"
 "http://www.w3.org/Graphics/SVG/1.1/DTD/svg11.dtd">
<!-- Generated by graphviz version 2.43.0 (0)
 -->
<!-- Title: flow::util::String_ostream Pages: 1 -->
<svg width="498pt" height="162pt"
 viewBox="0.00 0.00 498.00 162.00" xmlns="http://www.w3.org/2000/svg" xmlns:xlink="http://www.w3.org/1999/xlink">
<g id="graph0" class="graph" transform="scale(1 1) rotate(0) translate(4 158)">
<title>flow::util::String_ostream</title>
<polygon fill="white" stroke="transparent" points="-4,4 -4,-158 494,-158 494,4 -4,4"/>
<!-- Node1 -->
<g id="node1" class="node">
<title>Node1</title>
<g id="a_node1"><a xlink:title="Similar to ostringstream but allows fast read&#45;only access directly into the std::string being written...">
<polygon fill="#bfbfbf" stroke="black" points="408,-75 408,-101 490,-101 490,-75 408,-75"/>
<text text-anchor="start" x="416" y="-90.6" font-family="Helvetica,sans-Serif" font-size="8.00">flow::util::String</text>
<text text-anchor="middle" x="449" y="-81.6" font-family="Helvetica,sans-Serif" font-size="8.00">_ostream</text>
</a>
</g>
</g>
<!-- Node2 -->
<g id="node2" class="node">
<title>Node2</title>
<g id="a_node2"><a xlink:title=" ">
<polygon fill="white" stroke="#bfbfbf" points="140.5,-136.5 140.5,-153.5 239.5,-153.5 239.5,-136.5 140.5,-136.5"/>
<text text-anchor="middle" x="190" y="-143.1" font-family="Helvetica,sans-Serif" font-size="8.00">boost::noncopyable</text>
</a>
</g>
</g>
<!-- Node2&#45;&gt;Node1 -->
<g id="edge1" class="edge">
<title>Node2&#45;&gt;Node1</title>
<path fill="none" stroke="#8b1a1a" d="M249.97,-145.64C290.38,-144.44 344.65,-139.55 390,-124 405.02,-118.85 420.21,-109.23 431.27,-101.23"/>
<polygon fill="#8b1a1a" stroke="#8b1a1a" points="249.66,-142.14 239.75,-145.87 249.82,-149.14 249.66,-142.14"/>
</g>
<!-- Node3 -->
<g id="node3" class="node">
<title>Node3</title>
<g id="a_node3"><a xlink:title=" ">
<polygon fill="white" stroke="black" points="160.5,-100.5 160.5,-117.5 219.5,-117.5 219.5,-100.5 160.5,-100.5"/>
<text text-anchor="middle" x="190" y="-107.1" font-family="Helvetica,sans-Serif" font-size="8.00">std::string</text>
</a>
</g>
</g>
<!-- Node3&#45;&gt;Node1 -->
<g id="edge2" class="edge">
<title>Node3&#45;&gt;Node1</title>
<path fill="none" stroke="#9a32cd" stroke-dasharray="5,2" d="M229.99,-105.81C278.01,-101.89 359.17,-95.26 407.76,-91.29"/>
<polygon fill="#9a32cd" stroke="#9a32cd" points="229.66,-102.33 219.98,-106.63 230.23,-109.31 229.66,-102.33"/>
<text text-anchor="middle" x="330" y="-113.6" font-family="Helvetica,sans-Serif" font-size="8.00"> m_own_target_str</text>
<text text-anchor="middle" x="330" y="-104.6" font-family="Helvetica,sans-Serif" font-size="8.00">m_target</text>
</g>
<!-- Node4 -->
<g id="node4" class="node">
<title>Node4</title>
<g id="a_node4"><a xlink:title=" ">
<polygon fill="white" stroke="black" points="0,-96 0,-122 91,-122 91,-96 0,-96"/>
<text text-anchor="start" x="8" y="-111.6" font-family="Helvetica,sans-Serif" font-size="8.00">std::basic_string&lt;</text>
<text text-anchor="middle" x="45.5" y="-102.6" font-family="Helvetica,sans-Serif" font-size="8.00"> Char &gt;</text>
</a>
</g>
</g>
<!-- Node4&#45;&gt;Node3 -->
<g id="edge3" class="edge">
<title>Node4&#45;&gt;Node3</title>
<path fill="none" stroke="midnightblue" d="M101.47,-109C121.49,-109 143.32,-109 160.18,-109"/>
<polygon fill="midnightblue" stroke="midnightblue" points="101.2,-105.5 91.2,-109 101.2,-112.5 101.2,-105.5"/>
</g>
<!-- Node5 -->
<g id="node5" class="node">
<title>Node5</title>
<g id="a_node5"><a xlink:title=" ">
<polygon fill="white" stroke="#bfbfbf" points="143,-55 143,-81 237,-81 237,-55 143,-55"/>
<text text-anchor="start" x="151" y="-70.6" font-family="Helvetica,sans-Serif" font-size="8.00">back_insert_device</text>
<text text-anchor="middle" x="190" y="-61.6" font-family="Helvetica,sans-Serif" font-size="8.00">&lt; std::string &gt;</text>
</a>
</g>
</g>
<!-- Node5&#45;&gt;Node1 -->
<g id="edge4" class="edge">
<title>Node5&#45;&gt;Node1</title>
<path fill="none" stroke="#9a32cd" stroke-dasharray="5,2" d="M247.15,-66.61C287.16,-66.37 342.1,-67.57 390,-74 395.85,-74.79 401.97,-75.92 407.95,-77.2"/>
<polygon fill="#9a32cd" stroke="#9a32cd" points="247.03,-63.11 237.06,-66.7 247.09,-70.11 247.03,-63.11"/>
<text text-anchor="middle" x="330" y="-76.6" font-family="Helvetica,sans-Serif" font-size="8.00"> m_target_inserter</text>
</g>
<!-- Node6 -->
<g id="node6" class="node">
<title>Node6</title>
<g id="a_node6"><a xlink:title=" ">
<polygon fill="white" stroke="#bfbfbf" points="128,-0.5 128,-35.5 252,-35.5 252,-0.5 128,-0.5"/>
<text text-anchor="start" x="136" y="-25.1" font-family="Helvetica,sans-Serif" font-size="8.00">stream&lt; boost::iostreams</text>
<text text-anchor="start" x="136" y="-16.1" font-family="Helvetica,sans-Serif" font-size="8.00">::back_insert_device&lt; std</text>
<text text-anchor="middle" x="190" y="-7.1" font-family="Helvetica,sans-Serif" font-size="8.00">::string &gt; &gt;</text>
</a>
</g>
</g>
<!-- Node6&#45;&gt;Node1 -->
<g id="edge5" class="edge">
<title>Node6&#45;&gt;Node1</title>
<path fill="none" stroke="#9a32cd" stroke-dasharray="5,2" d="M262.32,-24.1C301.01,-28.99 349.14,-37.69 390,-53 404.43,-58.41 419.28,-67.44 430.34,-74.98"/>
<polygon fill="#9a32cd" stroke="#9a32cd" points="262.53,-20.6 252.18,-22.88 261.69,-27.55 262.53,-20.6"/>
<text text-anchor="middle" x="330" y="-55.6" font-family="Helvetica,sans-Serif" font-size="8.00"> m_target_appender_ostream</text>
</g>
</g>
</svg>
