<?xml version="1.0" encoding="UTF-8" standalone="no"?>
<!DOCTYPE svg PUBLIC "-//W3C//DTD SVG 1.1//EN"
 "http://www.w3.org/Graphics/SVG/1.1/DTD/svg11.dtd">
<!-- Generated by graphviz version 2.43.0 (0)
 -->
<!-- Title: flow::net_flow::Peer_socket::node_send Pages: 1 -->
<svg width="868pt" height="633pt"
 viewBox="0.00 0.00 868.00 633.00" xmlns="http://www.w3.org/2000/svg" xmlns:xlink="http://www.w3.org/1999/xlink">
<g id="graph0" class="graph" transform="scale(1 1) rotate(0) translate(4 629)">
<title>flow::net_flow::Peer_socket::node_send</title>
<polygon fill="white" stroke="transparent" points="-4,4 -4,-629 864,-629 864,4 -4,4"/>
<!-- Node1 -->
<g id="node1" class="node">
<title>Node1</title>
<g id="a_node1"><a xlink:title="Non&#45;template helper for template send() that forwards the send() logic to Node::send().">
<polygon fill="#bfbfbf" stroke="black" points="0,-190.5 0,-216.5 98,-216.5 98,-190.5 0,-190.5"/>
<text text-anchor="start" x="8" y="-206.1" font-family="Helvetica,sans-Serif" font-size="8.00">flow::net_flow::Peer</text>
<text text-anchor="middle" x="49" y="-197.1" font-family="Helvetica,sans-Serif" font-size="8.00">_socket::node_send</text>
</a>
</g>
</g>
<!-- Node2 -->
<g id="node2" class="node">
<title>Node2</title>
<g id="a_node2"><a xlink:href="classflow_1_1net__flow_1_1Node.html#a109a118ca312e94686595ea08dac7ad0" target="_top" xlink:title="Helper method that checks whether the given Peer_socket or Server_socket is CLOSED; if so,...">
<polygon fill="white" stroke="black" points="134,-213.5 134,-239.5 235,-239.5 235,-213.5 134,-213.5"/>
<text text-anchor="start" x="142" y="-229.1" font-family="Helvetica,sans-Serif" font-size="8.00">flow::net_flow::Node</text>
<text text-anchor="middle" x="184.5" y="-220.1" font-family="Helvetica,sans-Serif" font-size="8.00">::ensure_sock_open</text>
</a>
</g>
</g>
<!-- Node1&#45;&gt;Node2 -->
<g id="edge1" class="edge">
<title>Node1&#45;&gt;Node2</title>
<path fill="none" stroke="midnightblue" d="M98.2,-211.8C106.46,-213.23 115.14,-214.72 123.67,-216.19"/>
<polygon fill="midnightblue" stroke="midnightblue" points="123.13,-219.65 133.58,-217.9 124.32,-212.75 123.13,-219.65"/>
</g>
<!-- Node3 -->
<g id="node3" class="node">
<title>Node3</title>
<g id="a_node3"><a xlink:href="classflow_1_1net__flow_1_1Node.html#aa19d1f49638ef8ce8883e7477a06d3fc" target="_top" xlink:title="Implementation of non&#45;blocking sock&#45;&gt;send() for socket sock in all cases except when sock&#45;&gt;state() ==...">
<polygon fill="white" stroke="black" points="134,-168.5 134,-194.5 235,-194.5 235,-168.5 134,-168.5"/>
<text text-anchor="start" x="142" y="-184.1" font-family="Helvetica,sans-Serif" font-size="8.00">flow::net_flow::Node</text>
<text text-anchor="middle" x="184.5" y="-175.1" font-family="Helvetica,sans-Serif" font-size="8.00">::send</text>
</a>
</g>
</g>
<!-- Node1&#45;&gt;Node3 -->
<g id="edge2" class="edge">
<title>Node1&#45;&gt;Node3</title>
<path fill="none" stroke="midnightblue" d="M98.2,-195.56C106.46,-194.2 115.14,-192.76 123.67,-191.36"/>
<polygon fill="midnightblue" stroke="midnightblue" points="124.28,-194.81 133.58,-189.73 123.14,-187.9 124.28,-194.81"/>
</g>
<!-- Node4 -->
<g id="node4" class="node">
<title>Node4</title>
<g id="a_node4"><a xlink:href="classflow_1_1net__flow_1_1Node.html#aae148cec361b59237996a4b30c6624b5" target="_top" xlink:title="Returns true if and only if the Node is operating.">
<polygon fill="white" stroke="black" points="284,-213.5 284,-239.5 385,-239.5 385,-213.5 284,-213.5"/>
<text text-anchor="start" x="292" y="-229.1" font-family="Helvetica,sans-Serif" font-size="8.00">flow::net_flow::Node</text>
<text text-anchor="middle" x="334.5" y="-220.1" font-family="Helvetica,sans-Serif" font-size="8.00">::running</text>
</a>
</g>
</g>
<!-- Node3&#45;&gt;Node4 -->
<g id="edge3" class="edge">
<title>Node3&#45;&gt;Node4</title>
<path fill="none" stroke="midnightblue" d="M228.31,-194.52C244.65,-199.48 263.48,-205.21 280.65,-210.43"/>
<polygon fill="midnightblue" stroke="midnightblue" points="279.95,-213.88 290.53,-213.44 281.98,-207.18 279.95,-213.88"/>
</g>
<!-- Node5 -->
<g id="node5" class="node">
<title>Node5</title>
<g id="a_node5"><a xlink:href="classflow_1_1net__flow_1_1Node.html#a2565b7c0bd82cad86eb168b62f8ffd9d" target="_top" xlink:title="Helper placed by send() onto W to invoke send_worker() but ensures that the socket has not entered so...">
<polygon fill="white" stroke="black" points="271,-168.5 271,-194.5 398,-194.5 398,-168.5 271,-168.5"/>
<text text-anchor="start" x="279" y="-184.1" font-family="Helvetica,sans-Serif" font-size="8.00">flow::net_flow::Node</text>
<text text-anchor="middle" x="334.5" y="-175.1" font-family="Helvetica,sans-Serif" font-size="8.00">::send_worker_check_state</text>
</a>
</g>
</g>
<!-- Node3&#45;&gt;Node5 -->
<g id="edge4" class="edge">
<title>Node3&#45;&gt;Node5</title>
<path fill="none" stroke="midnightblue" d="M235.19,-181.5C243.4,-181.5 252.06,-181.5 260.7,-181.5"/>
<polygon fill="midnightblue" stroke="midnightblue" points="260.8,-185 270.8,-181.5 260.79,-178 260.8,-185"/>
</g>
<!-- Node65 -->
<g id="node16" class="node">
<title>Node65</title>
<g id="a_node16"><a xlink:href="classflow_1_1net__flow_1_1Node.html#a382b607fa2e482886f2fd75edc36b8b7" target="_top" xlink:title="Return true if and only if there are enough data either in Peer_socket::m_snd_rexmit_q of sock (if re...">
<polygon fill="white" stroke="black" points="593.5,-0.5 593.5,-26.5 694.5,-26.5 694.5,-0.5 593.5,-0.5"/>
<text text-anchor="start" x="601.5" y="-16.1" font-family="Helvetica,sans-Serif" font-size="8.00">flow::net_flow::Node</text>
<text text-anchor="middle" x="644" y="-7.1" font-family="Helvetica,sans-Serif" font-size="8.00">::snd_deqable</text>
</a>
</g>
</g>
<!-- Node3&#45;&gt;Node65 -->
<g id="edge21" class="edge">
<title>Node3&#45;&gt;Node65</title>
<path fill="none" stroke="midnightblue" d="M217.73,-168.47C283.6,-142.03 438.61,-80.74 571,-35.5 576.84,-33.5 582.98,-31.49 589.11,-29.54"/>
<polygon fill="midnightblue" stroke="midnightblue" points="590.19,-32.87 598.68,-26.54 588.09,-26.2 590.19,-32.87"/>
</g>
<!-- Node6 -->
<g id="node6" class="node">
<title>Node6</title>
<g id="a_node6"><a xlink:href="classflow_1_1net__flow_1_1Node.html#a10a92f11a2c9f218cdd9a55f282e79b1" target="_top" xlink:title="Thread W implemention of send(): synchronously or asynchronously send the contents of sock&#45;&gt;m_snd_buf...">
<polygon fill="white" stroke="black" points="434,-269.5 434,-295.5 535,-295.5 535,-269.5 434,-269.5"/>
<text text-anchor="start" x="442" y="-285.1" font-family="Helvetica,sans-Serif" font-size="8.00">flow::net_flow::Node</text>
<text text-anchor="middle" x="484.5" y="-276.1" font-family="Helvetica,sans-Serif" font-size="8.00">::send_worker</text>
</a>
</g>
</g>
<!-- Node5&#45;&gt;Node6 -->
<g id="edge5" class="edge">
<title>Node5&#45;&gt;Node6</title>
<path fill="none" stroke="midnightblue" d="M379.9,-194.58C386.17,-197.15 392.38,-200.12 398,-203.5 424.27,-219.33 449.44,-244.15 465.58,-261.74"/>
<polygon fill="midnightblue" stroke="midnightblue" points="463.05,-264.16 472.34,-269.26 468.26,-259.48 463.05,-264.16"/>
</g>
<!-- Node7 -->
<g id="node7" class="node">
<title>Node7</title>
<g id="a_node7"><a xlink:href="classflow_1_1net__flow_1_1Node.html#a80d58cfa8fad00a116a38f76ccb2b868" target="_top" xlink:title="Assuming *seq_num points to the start of data.m_data, increments *seq_num to point to the datum just ...">
<polygon fill="white" stroke="black" points="593.5,-580.5 593.5,-606.5 694.5,-606.5 694.5,-580.5 593.5,-580.5"/>
<text text-anchor="start" x="601.5" y="-596.1" font-family="Helvetica,sans-Serif" font-size="8.00">flow::net_flow::Node</text>
<text text-anchor="middle" x="644" y="-587.1" font-family="Helvetica,sans-Serif" font-size="8.00">::advance_seq_num</text>
</a>
</g>
</g>
<!-- Node6&#45;&gt;Node7 -->
<g id="edge6" class="edge">
<title>Node6&#45;&gt;Node7</title>
<path fill="none" stroke="midnightblue" d="M485.28,-295.58C485.27,-340.67 491.44,-491.23 571,-571.5 574.76,-575.29 579.15,-578.43 583.87,-581.03"/>
<polygon fill="midnightblue" stroke="midnightblue" points="582.75,-584.37 593.29,-585.4 585.69,-578.02 582.75,-584.37"/>
</g>
<!-- Node8 -->
<g id="node8" class="node">
<title>Node8</title>
<g id="a_node8"><a xlink:href="classflow_1_1net__flow_1_1Node.html#aa5f7c019665d9dd91af0ad6431f8f97d" target="_top" xlink:title="Similar to async_sock_low_lvl_packet_send_paced() except it also calls close_connection_immediately(s...">
<polygon fill="white" stroke="red" points="589,-517.5 589,-561.5 699,-561.5 699,-517.5 589,-517.5"/>
<text text-anchor="start" x="597" y="-551.1" font-family="Helvetica,sans-Serif" font-size="8.00">flow::net_flow::Node</text>
<text text-anchor="start" x="597" y="-542.1" font-family="Helvetica,sans-Serif" font-size="8.00">::async_sock_low_lvl</text>
<text text-anchor="start" x="597" y="-533.1" font-family="Helvetica,sans-Serif" font-size="8.00">_packet_send_or_close</text>
<text text-anchor="middle" x="644" y="-524.1" font-family="Helvetica,sans-Serif" font-size="8.00">_immediately</text>
</a>
</g>
</g>
<!-- Node6&#45;&gt;Node8 -->
<g id="edge8" class="edge">
<title>Node6&#45;&gt;Node8</title>
<path fill="none" stroke="midnightblue" d="M486.89,-295.6C491.59,-333.54 510.12,-444.82 571,-508.5 573.78,-511.4 576.87,-514.05 580.17,-516.46"/>
<polygon fill="midnightblue" stroke="midnightblue" points="578.44,-519.51 588.75,-521.98 582.23,-513.62 578.44,-519.51"/>
</g>
<!-- Node57 -->
<g id="node9" class="node">
<title>Node57</title>
<g id="a_node9"><a xlink:href="classflow_1_1net__flow_1_1Node.html#a7395ac534047f06629962ad19b3fa657" target="_top" xlink:title="Answers the perennial question of congestion and flow control: assuming there is a DATA packet to sen...">
<polygon fill="white" stroke="black" points="593.5,-472.5 593.5,-498.5 694.5,-498.5 694.5,-472.5 593.5,-472.5"/>
<text text-anchor="start" x="601.5" y="-488.1" font-family="Helvetica,sans-Serif" font-size="8.00">flow::net_flow::Node</text>
<text text-anchor="middle" x="644" y="-479.1" font-family="Helvetica,sans-Serif" font-size="8.00">::can_send</text>
</a>
</g>
</g>
<!-- Node6&#45;&gt;Node57 -->
<g id="edge9" class="edge">
<title>Node6&#45;&gt;Node57</title>
<path fill="none" stroke="midnightblue" d="M487.91,-295.64C494.7,-328.87 517.11,-416.9 571,-463.5 574.92,-466.89 579.34,-469.75 584.03,-472.18"/>
<polygon fill="midnightblue" stroke="midnightblue" points="582.74,-475.43 593.3,-476.32 585.6,-469.04 582.74,-475.43"/>
</g>
<!-- Node58 -->
<g id="node10" class="node">
<title>Node58</title>
<g id="a_node10"><a xlink:href="classflow_1_1net__flow_1_1Socket__buffer.html#a8fe3fe5f6a33cfd8fb84eb2607fbc05b" target="_top" xlink:title="Consumes (removes from the front of the internal byte buffer and returns them to the caller) a byte s...">
<polygon fill="white" stroke="red" points="578.5,-427.5 578.5,-453.5 709.5,-453.5 709.5,-427.5 578.5,-427.5"/>
<text text-anchor="start" x="586.5" y="-443.1" font-family="Helvetica,sans-Serif" font-size="8.00">flow::net_flow::Socket</text>
<text text-anchor="middle" x="644" y="-434.1" font-family="Helvetica,sans-Serif" font-size="8.00">_buffer::consume_buf_move</text>
</a>
</g>
</g>
<!-- Node6&#45;&gt;Node58 -->
<g id="edge10" class="edge">
<title>Node6&#45;&gt;Node58</title>
<path fill="none" stroke="midnightblue" d="M490.08,-295.52C500.25,-322.58 527.36,-385.12 571,-418.5 572.86,-419.92 574.8,-421.25 576.82,-422.49"/>
<polygon fill="midnightblue" stroke="midnightblue" points="575.58,-425.8 586.05,-427.42 578.87,-419.62 575.58,-425.8"/>
</g>
<!-- Node62 -->
<g id="node11" class="node">
<title>Node62</title>
<g id="a_node11"><a xlink:href="classflow_1_1net__flow_1_1Socket__buffer.html#af21cd24bba62da1d16a8fc4f9b8e37fd" target="_top" xlink:title="The total number of bytes of application&#45;layer data stored in this object.">
<polygon fill="white" stroke="black" points="590.5,-382.5 590.5,-408.5 697.5,-408.5 697.5,-382.5 590.5,-382.5"/>
<text text-anchor="start" x="598.5" y="-398.1" font-family="Helvetica,sans-Serif" font-size="8.00">flow::net_flow::Socket</text>
<text text-anchor="middle" x="644" y="-389.1" font-family="Helvetica,sans-Serif" font-size="8.00">_buffer::data_size</text>
</a>
</g>
</g>
<!-- Node6&#45;&gt;Node62 -->
<g id="edge11" class="edge">
<title>Node6&#45;&gt;Node62</title>
<path fill="none" stroke="midnightblue" d="M494.4,-295.69C508.42,-315.46 537.5,-352.66 571,-373.5 574.18,-375.48 577.56,-377.29 581.04,-378.95"/>
<polygon fill="midnightblue" stroke="midnightblue" points="579.88,-382.26 590.45,-382.99 582.64,-375.83 579.88,-382.26"/>
</g>
<!-- Node26 -->
<g id="node12" class="node">
<title>Node26</title>
<g id="a_node12"><a xlink:href="classflow_1_1net__flow_1_1Node.html#a8a4ddf81ddbeab1f740940c4cc0d3625" target="_top" xlink:title="For each WAITING Event_set within the Node: checks for any events that hold, and if any do hold,...">
<polygon fill="white" stroke="red" points="580,-337.5 580,-363.5 708,-363.5 708,-337.5 580,-337.5"/>
<text text-anchor="start" x="588" y="-353.1" font-family="Helvetica,sans-Serif" font-size="8.00">flow::net_flow::Node</text>
<text text-anchor="middle" x="644" y="-344.1" font-family="Helvetica,sans-Serif" font-size="8.00">::event_set_all_check_delta</text>
</a>
</g>
</g>
<!-- Node6&#45;&gt;Node26 -->
<g id="edge12" class="edge">
<title>Node6&#45;&gt;Node26</title>
<path fill="none" stroke="midnightblue" d="M512.25,-295.57C529,-303.62 551.11,-313.99 571,-322.5 579.88,-326.3 589.46,-330.17 598.64,-333.78"/>
<polygon fill="midnightblue" stroke="midnightblue" points="597.43,-337.07 608.02,-337.44 599.97,-330.55 597.43,-337.07"/>
</g>
<!-- Node14 -->
<g id="node13" class="node">
<title>Node14</title>
<g id="a_node13"><a xlink:href="classflow_1_1log_1_1Log__context.html#af4db395042b065b00398cd59845dcb4d" target="_top" xlink:title="Returns the stored Logger pointer, particularly as many FLOW_LOG_*() macros expect.">
<polygon fill="white" stroke="black" points="753,-220.5 753,-246.5 860,-246.5 860,-220.5 753,-220.5"/>
<text text-anchor="start" x="761" y="-236.1" font-family="Helvetica,sans-Serif" font-size="8.00">flow::log::Log_context</text>
<text text-anchor="middle" x="806.5" y="-227.1" font-family="Helvetica,sans-Serif" font-size="8.00">::get_logger</text>
</a>
</g>
</g>
<!-- Node6&#45;&gt;Node14 -->
<g id="edge13" class="edge">
<title>Node6&#45;&gt;Node14</title>
<path fill="none" stroke="midnightblue" d="M535.35,-292.27C582.98,-299.64 656.3,-305.82 717,-288.5 741.29,-281.57 765.42,-265.83 782.33,-252.96"/>
<polygon fill="midnightblue" stroke="midnightblue" points="784.78,-255.48 790.48,-246.55 780.45,-249.98 784.78,-255.48"/>
</g>
<!-- Node63 -->
<g id="node14" class="node">
<title>Node63</title>
<g id="a_node14"><a xlink:href="classflow_1_1util_1_1Shared__ptr__alias__holder.html#a55a247bb8fb2ec94b7cbfdd56be65a81" target="_top" xlink:title="Provides syntactic&#45;sugary way to perform a static_pointer_cast&lt;&gt; from a compatible smart pointer type...">
<polygon fill="white" stroke="black" points="576,-235.5 576,-279.5 712,-279.5 712,-235.5 576,-235.5"/>
<text text-anchor="start" x="584" y="-269.1" font-family="Helvetica,sans-Serif" font-size="8.00">flow::util::Shared</text>
<text text-anchor="start" x="584" y="-260.1" font-family="Helvetica,sans-Serif" font-size="8.00">_ptr_alias_holder&lt; boost</text>
<text text-anchor="start" x="584" y="-251.1" font-family="Helvetica,sans-Serif" font-size="8.00">::shared_ptr&lt; Low_lvl_packet</text>
<text text-anchor="middle" x="644" y="-242.1" font-family="Helvetica,sans-Serif" font-size="8.00"> &gt; &gt;::ptr_cast</text>
</a>
</g>
</g>
<!-- Node6&#45;&gt;Node63 -->
<g id="edge14" class="edge">
<title>Node6&#45;&gt;Node63</title>
<path fill="none" stroke="midnightblue" d="M535.33,-274.59C545.1,-273.04 555.56,-271.38 565.97,-269.73"/>
<polygon fill="midnightblue" stroke="midnightblue" points="566.59,-273.17 575.92,-268.15 565.5,-266.26 566.59,-273.17"/>
</g>
<!-- Node64 -->
<g id="node15" class="node">
<title>Node64</title>
<g id="a_node15"><a xlink:href="classflow_1_1net__flow_1_1Node.html#a70d124ba678e2ab72f8c6d28140ca137" target="_top" xlink:title="Return true if and only if there is enough free space in Peer_socket::m_snd_buf of sock to enqueue an...">
<polygon fill="white" stroke="black" points="593.5,-190.5 593.5,-216.5 694.5,-216.5 694.5,-190.5 593.5,-190.5"/>
<text text-anchor="start" x="601.5" y="-206.1" font-family="Helvetica,sans-Serif" font-size="8.00">flow::net_flow::Node</text>
<text text-anchor="middle" x="644" y="-197.1" font-family="Helvetica,sans-Serif" font-size="8.00">::snd_buf_enqable</text>
</a>
</g>
</g>
<!-- Node6&#45;&gt;Node64 -->
<g id="edge15" class="edge">
<title>Node6&#45;&gt;Node64</title>
<path fill="none" stroke="midnightblue" d="M501.98,-269.38C518.59,-256.69 545.36,-237.64 571,-225.5 575.1,-223.56 579.41,-221.74 583.79,-220.05"/>
<polygon fill="midnightblue" stroke="midnightblue" points="585.27,-223.24 593.48,-216.54 582.88,-216.66 585.27,-223.24"/>
</g>
<!-- Node6&#45;&gt;Node65 -->
<g id="edge16" class="edge">
<title>Node6&#45;&gt;Node65</title>
<path fill="none" stroke="midnightblue" d="M490.87,-269.43C500.3,-246.25 520.25,-196.37 535,-153.5 552.83,-101.65 532.24,-74.28 571,-35.5 574.77,-31.73 579.17,-28.6 583.91,-26"/>
<polygon fill="midnightblue" stroke="midnightblue" points="585.73,-29.01 593.34,-21.64 582.79,-22.66 585.73,-29.01"/>
</g>
<!-- Node66 -->
<g id="node17" class="node">
<title>Node66</title>
<g id="a_node17"><a xlink:href="classflow_1_1net__flow_1_1Node.html#a52a3e10ef08b93daf87ea5f0f1e87062" target="_top" xlink:title="Adds a new packet struct (presumably representing packet to be sent shortly) to the &quot;scoreboard&quot; (Pee...">
<polygon fill="white" stroke="red" points="580,-145.5 580,-171.5 708,-171.5 708,-145.5 580,-145.5"/>
<text text-anchor="start" x="588" y="-161.1" font-family="Helvetica,sans-Serif" font-size="8.00">flow::net_flow::Node</text>
<text text-anchor="middle" x="644" y="-152.1" font-family="Helvetica,sans-Serif" font-size="8.00">::snd_flying_pkts_push_one</text>
</a>
</g>
</g>
<!-- Node6&#45;&gt;Node66 -->
<g id="edge17" class="edge">
<title>Node6&#45;&gt;Node66</title>
<path fill="none" stroke="midnightblue" d="M492.93,-269.46C505.96,-247.79 534.97,-204.36 571,-180.5 573.45,-178.88 576.03,-177.37 578.69,-175.97"/>
<polygon fill="midnightblue" stroke="midnightblue" points="580.43,-179.02 588,-171.61 577.46,-172.68 580.43,-179.02"/>
</g>
<!-- Node67 -->
<g id="node18" class="node">
<title>Node67</title>
<g id="a_node18"><a xlink:href="classflow_1_1net__flow_1_1Node.html#a837d37e6eb06fb6df4666bac327d20f8" target="_top" xlink:title="Obtain the sequence number for the datum just past the last (latest) In&#45;flight (i....">
<polygon fill="white" stroke="black" points="592,-91 592,-126 696,-126 696,-91 592,-91"/>
<text text-anchor="start" x="600" y="-115.6" font-family="Helvetica,sans-Serif" font-size="8.00">flow::net_flow::Node</text>
<text text-anchor="start" x="600" y="-106.6" font-family="Helvetica,sans-Serif" font-size="8.00">::snd_past_last_flying</text>
<text text-anchor="middle" x="644" y="-97.6" font-family="Helvetica,sans-Serif" font-size="8.00">_datum_seq_num</text>
</a>
</g>
</g>
<!-- Node6&#45;&gt;Node67 -->
<g id="edge19" class="edge">
<title>Node6&#45;&gt;Node67</title>
<path fill="none" stroke="midnightblue" d="M489.8,-269.09C499.62,-240.53 526.34,-173.22 571,-135.5 574.63,-132.43 578.65,-129.69 582.87,-127.25"/>
<polygon fill="midnightblue" stroke="midnightblue" points="584.49,-130.36 591.77,-122.66 581.28,-124.14 584.49,-130.36"/>
</g>
<!-- Node68 -->
<g id="node19" class="node">
<title>Node68</title>
<g id="a_node19"><a xlink:href="classflow_1_1net__flow_1_1Node.html#a479dfcb7944cb6571af51f1feed2656d" target="_top" xlink:title="Returns the &quot;order number&quot; to use for Peer_socket::Sent_packet::Sent_when structure corresponding to ...">
<polygon fill="white" stroke="black" points="571,-45.5 571,-71.5 717,-71.5 717,-45.5 571,-45.5"/>
<text text-anchor="start" x="579" y="-61.1" font-family="Helvetica,sans-Serif" font-size="8.00">flow::net_flow::Node</text>
<text text-anchor="middle" x="644" y="-52.1" font-family="Helvetica,sans-Serif" font-size="8.00">::sock_get_new_snd_order_num</text>
</a>
</g>
</g>
<!-- Node6&#45;&gt;Node68 -->
<g id="edge20" class="edge">
<title>Node6&#45;&gt;Node68</title>
<path fill="none" stroke="midnightblue" d="M490.33,-269.45C506.1,-227.05 555.97,-95.2 571,-81.5 572.91,-79.76 574.95,-78.15 577.09,-76.67"/>
<polygon fill="midnightblue" stroke="midnightblue" points="578.97,-79.62 585.79,-71.51 575.4,-73.6 578.97,-79.62"/>
</g>
<!-- Node7&#45;&gt;Node7 -->
<g id="edge7" class="edge">
<title>Node7&#45;&gt;Node7</title>
<path fill="none" stroke="midnightblue" d="M617.27,-606.77C609.17,-615.96 618.08,-625 644,-625 659.8,-625 669.28,-621.64 672.44,-616.94"/>
<polygon fill="midnightblue" stroke="midnightblue" points="675.84,-616.05 670.73,-606.77 668.93,-617.21 675.84,-616.05"/>
</g>
<!-- Node66&#45;&gt;Node14 -->
<g id="edge18" class="edge">
<title>Node66&#45;&gt;Node14</title>
<path fill="none" stroke="midnightblue" d="M693.62,-171.59C701.55,-174.22 709.59,-177.21 717,-180.5 738.46,-190.04 761.16,-203.71 778.2,-214.78"/>
<polygon fill="midnightblue" stroke="midnightblue" points="776.28,-217.71 786.55,-220.3 780.13,-211.87 776.28,-217.71"/>
</g>
</g>
</svg>
