<?xml version="1.0" encoding="UTF-8" standalone="no"?>
<!DOCTYPE svg PUBLIC "-//W3C//DTD SVG 1.1//EN"
 "http://www.w3.org/Graphics/SVG/1.1/DTD/svg11.dtd">
<!-- Generated by graphviz version 2.43.0 (0)
 -->
<!-- Title: flow::util::Rnd_gen_uniform_range_mt&lt; range_t &gt; Pages: 1 -->
<svg width="533pt" height="153pt"
 viewBox="0.00 0.00 533.00 153.00" xmlns="http://www.w3.org/2000/svg" xmlns:xlink="http://www.w3.org/1999/xlink">
<g id="graph0" class="graph" transform="scale(1 1) rotate(0) translate(4 149)">
<title>flow::util::Rnd_gen_uniform_range_mt&lt; range_t &gt;</title>
<polygon fill="white" stroke="transparent" points="-4,4 -4,-149 529,-149 529,4 -4,4"/>
<!-- Node1 -->
<g id="node1" class="node">
<title>Node1</title>
<g id="a_node1"><a xlink:title="Identical to Rnd_gen_uniform_range but safe for concurrent RNG given a single object.">
<polygon fill="#bfbfbf" stroke="black" points="382,-30.5 382,-56.5 525,-56.5 525,-30.5 382,-30.5"/>
<text text-anchor="start" x="390" y="-46.1" font-family="Helvetica,sans-Serif" font-size="8.00">flow::util::Rnd_gen</text>
<text text-anchor="middle" x="453.5" y="-37.1" font-family="Helvetica,sans-Serif" font-size="8.00">_uniform_range_mt&lt; range_t &gt;</text>
</a>
</g>
</g>
<!-- Node2 -->
<g id="node2" class="node">
<title>Node2</title>
<g id="a_node2"><a xlink:href="classflow_1_1util_1_1Rnd__gen__uniform__range.html" target="_top" xlink:title="Simple, non&#45;thread&#45;safe uniform&#45;range random number generator.">
<polygon fill="white" stroke="black" points="179,-59.5 179,-85.5 307,-85.5 307,-59.5 179,-59.5"/>
<text text-anchor="start" x="187" y="-75.1" font-family="Helvetica,sans-Serif" font-size="8.00">flow::util::Rnd_gen</text>
<text text-anchor="middle" x="243" y="-66.1" font-family="Helvetica,sans-Serif" font-size="8.00">_uniform_range&lt; range_t &gt;</text>
</a>
</g>
</g>
<!-- Node2&#45;&gt;Node1 -->
<g id="edge1" class="edge">
<title>Node2&#45;&gt;Node1</title>
<path fill="none" stroke="#8b1a1a" d="M317.27,-62.31C338.26,-59.39 361.11,-56.21 381.94,-53.31"/>
<polygon fill="#8b1a1a" stroke="#8b1a1a" points="316.55,-58.88 307.12,-63.72 317.51,-65.81 316.55,-58.88"/>
</g>
<!-- Node3 -->
<g id="node3" class="node">
<title>Node3</title>
<g id="a_node3"><a xlink:href="classflow_1_1util_1_1Rnd__gen__uniform__range__base.html" target="_top" xlink:title="Base class for Rnd_gen_uniform_range and Rnd_gen_uniform_range_mt for various aliases and similar,...">
<polygon fill="white" stroke="black" points="4.5,-118.5 4.5,-144.5 108.5,-144.5 108.5,-118.5 4.5,-118.5"/>
<text text-anchor="start" x="12.5" y="-134.1" font-family="Helvetica,sans-Serif" font-size="8.00">flow::util::Rnd_gen</text>
<text text-anchor="middle" x="56.5" y="-125.1" font-family="Helvetica,sans-Serif" font-size="8.00">_uniform_range_base</text>
</a>
</g>
</g>
<!-- Node3&#45;&gt;Node2 -->
<g id="edge2" class="edge">
<title>Node3&#45;&gt;Node2</title>
<path fill="none" stroke="midnightblue" d="M108.08,-115.33C137.36,-105.96 173.72,-94.33 201.17,-85.56"/>
<polygon fill="midnightblue" stroke="midnightblue" points="106.91,-112.03 98.45,-118.41 109.04,-118.69 106.91,-112.03"/>
</g>
<!-- Node4 -->
<g id="node4" class="node">
<title>Node4</title>
<g id="a_node4"><a xlink:title=" ">
<polygon fill="white" stroke="#bfbfbf" points="7,-82 7,-99 106,-99 106,-82 7,-82"/>
<text text-anchor="middle" x="56.5" y="-88.6" font-family="Helvetica,sans-Serif" font-size="8.00">boost::noncopyable</text>
</a>
</g>
</g>
<!-- Node4&#45;&gt;Node2 -->
<g id="edge3" class="edge">
<title>Node4&#45;&gt;Node2</title>
<path fill="none" stroke="#8b1a1a" d="M116.61,-84.73C136.48,-82.79 158.71,-80.63 178.88,-78.66"/>
<polygon fill="#8b1a1a" stroke="#8b1a1a" points="116.07,-81.27 106.46,-85.72 116.75,-88.24 116.07,-81.27"/>
</g>
<!-- Node5 -->
<g id="node5" class="node">
<title>Node5</title>
<g id="a_node5"><a xlink:title=" ">
<polygon fill="white" stroke="#bfbfbf" points="9,-46 9,-63 104,-63 104,-46 9,-46"/>
<text text-anchor="middle" x="56.5" y="-52.6" font-family="Helvetica,sans-Serif" font-size="8.00">Random_generator</text>
</a>
</g>
</g>
<!-- Node5&#45;&gt;Node2 -->
<g id="edge4" class="edge">
<title>Node5&#45;&gt;Node2</title>
<path fill="none" stroke="#9a32cd" stroke-dasharray="5,2" d="M114.15,-60.03C134.59,-62.02 157.77,-64.28 178.73,-66.33"/>
<polygon fill="#9a32cd" stroke="#9a32cd" points="114.35,-56.53 104.06,-59.04 113.67,-63.5 114.35,-56.53"/>
<text text-anchor="middle" x="146" y="-67.1" font-family="Helvetica,sans-Serif" font-size="8.00"> m_gen</text>
</g>
<!-- Node6 -->
<g id="node6" class="node">
<title>Node6</title>
<g id="a_node6"><a xlink:title=" ">
<polygon fill="white" stroke="#bfbfbf" points="0,-0.5 0,-26.5 113,-26.5 113,-0.5 0,-0.5"/>
<text text-anchor="start" x="8" y="-16.1" font-family="Helvetica,sans-Serif" font-size="8.00">uniform_int_distribution</text>
<text text-anchor="middle" x="56.5" y="-7.1" font-family="Helvetica,sans-Serif" font-size="8.00">&lt; range_t &gt;</text>
</a>
</g>
</g>
<!-- Node6&#45;&gt;Node2 -->
<g id="edge5" class="edge">
<title>Node6&#45;&gt;Node2</title>
<path fill="none" stroke="#9a32cd" stroke-dasharray="5,2" d="M108.08,-29.67C137.36,-39.04 173.72,-50.67 201.17,-59.44"/>
<polygon fill="#9a32cd" stroke="#9a32cd" points="109.04,-26.31 98.45,-26.59 106.91,-32.97 109.04,-26.31"/>
<text text-anchor="middle" x="146" y="-49.1" font-family="Helvetica,sans-Serif" font-size="8.00"> m_seq</text>
</g>
<!-- Node7 -->
<g id="node7" class="node">
<title>Node7</title>
<g id="a_node7"><a xlink:title=" ">
<polygon fill="white" stroke="#bfbfbf" points="222.5,-23 222.5,-40 263.5,-40 263.5,-23 222.5,-23"/>
<text text-anchor="middle" x="243" y="-29.6" font-family="Helvetica,sans-Serif" font-size="8.00">mutex</text>
</a>
</g>
</g>
<!-- Node7&#45;&gt;Node1 -->
<g id="edge6" class="edge">
<title>Node7&#45;&gt;Node1</title>
<path fill="none" stroke="#9a32cd" stroke-dasharray="5,2" d="M273.95,-33.22C302.01,-34.84 345.02,-37.31 381.79,-39.43"/>
<polygon fill="#9a32cd" stroke="#9a32cd" points="273.8,-29.71 263.62,-32.63 273.4,-36.7 273.8,-29.71"/>
<text text-anchor="middle" x="344.5" y="-41.1" font-family="Helvetica,sans-Serif" font-size="8.00"> m_mutex</text>
</g>
</g>
</svg>
