<?xml version="1.0" encoding="UTF-8" standalone="no"?>
<!DOCTYPE svg PUBLIC "-//W3C//DTD SVG 1.1//EN"
 "http://www.w3.org/Graphics/SVG/1.1/DTD/svg11.dtd">
<!-- Generated by graphviz version 2.43.0 (0)
 -->
<!-- Title: flow::net_flow::Server_socket Pages: 1 -->
<svg width="431pt" height="198pt"
 viewBox="0.00 0.00 431.00 198.00" xmlns="http://www.w3.org/2000/svg" xmlns:xlink="http://www.w3.org/1999/xlink">
<g id="graph0" class="graph" transform="scale(1 1) rotate(0) translate(4 194)">
<title>flow::net_flow::Server_socket</title>
<polygon fill="white" stroke="transparent" points="-4,4 -4,-194 427,-194 427,4 -4,4"/>
<!-- Node1 -->
<g id="node1" class="node">
<title>Node1</title>
<g id="a_node1"><a xlink:title="A server socket able to listen on a single Flow port for incoming connections and return peer sockets...">
<polygon fill="#bfbfbf" stroke="black" points="186,-73 186,-99 291,-99 291,-73 186,-73"/>
<text text-anchor="start" x="194" y="-88.6" font-family="Helvetica,sans-Serif" font-size="8.00">flow::net_flow::Server</text>
<text text-anchor="middle" x="238.5" y="-79.6" font-family="Helvetica,sans-Serif" font-size="8.00">_socket</text>
</a>
</g>
</g>
<!-- Node7 -->
<g id="node7" class="node">
<title>Node7</title>
<g id="a_node7"><a xlink:href="classflow_1_1net__flow_1_1asio_1_1Server__socket.html" target="_top" xlink:title="A net_flow::Server_socket that adds integration with boost.asio.">
<polygon fill="white" stroke="black" points="327,-73 327,-99 423,-99 423,-73 327,-73"/>
<text text-anchor="start" x="335" y="-88.6" font-family="Helvetica,sans-Serif" font-size="8.00">flow::net_flow::asio</text>
<text text-anchor="middle" x="375" y="-79.6" font-family="Helvetica,sans-Serif" font-size="8.00">::Server_socket</text>
</a>
</g>
</g>
<!-- Node1&#45;&gt;Node7 -->
<g id="edge6" class="edge">
<title>Node1&#45;&gt;Node7</title>
<path fill="none" stroke="midnightblue" d="M301.12,-86C309.71,-86 318.43,-86 326.71,-86"/>
<polygon fill="midnightblue" stroke="midnightblue" points="301.12,-82.5 291.12,-86 301.12,-89.5 301.12,-82.5"/>
</g>
<!-- Node2 -->
<g id="node2" class="node">
<title>Node2</title>
<g id="a_node2"><a xlink:href="classflow_1_1util_1_1Null__interface.html" target="_top" xlink:title="An empty interface, consisting of nothing but a default virtual destructor, intended as a boiler&#45;plat...">
<polygon fill="white" stroke="black" points="18,-172.5 18,-189.5 132,-189.5 132,-172.5 18,-172.5"/>
<text text-anchor="middle" x="75" y="-179.1" font-family="Helvetica,sans-Serif" font-size="8.00">flow::util::Null_interface</text>
</a>
</g>
</g>
<!-- Node2&#45;&gt;Node1 -->
<g id="edge1" class="edge">
<title>Node2&#45;&gt;Node1</title>
<path fill="none" stroke="midnightblue" d="M135.51,-169.26C140.53,-167.46 145.43,-165.38 150,-163 181.59,-146.55 211.1,-116.32 226.46,-99.04"/>
<polygon fill="midnightblue" stroke="midnightblue" points="134.21,-166 125.77,-172.41 136.36,-172.66 134.21,-166"/>
</g>
<!-- Node3 -->
<g id="node3" class="node">
<title>Node3</title>
<g id="a_node3"><a xlink:href="classflow_1_1util_1_1Shared__ptr__alias__holder.html" target="_top" xlink:title=" ">
<polygon fill="white" stroke="black" points="0,-118.5 0,-153.5 150,-153.5 150,-118.5 0,-118.5"/>
<text text-anchor="start" x="8" y="-143.1" font-family="Helvetica,sans-Serif" font-size="8.00">flow::util::Shared</text>
<text text-anchor="start" x="8" y="-134.1" font-family="Helvetica,sans-Serif" font-size="8.00">_ptr_alias_holder&lt; boost</text>
<text text-anchor="middle" x="75" y="-125.1" font-family="Helvetica,sans-Serif" font-size="8.00">::shared_ptr&lt; Server_socket &gt; &gt;</text>
</a>
</g>
</g>
<!-- Node3&#45;&gt;Node1 -->
<g id="edge2" class="edge">
<title>Node3&#45;&gt;Node1</title>
<path fill="none" stroke="midnightblue" d="M142.7,-115.35C160.49,-109.84 179.22,-104.04 195.28,-99.07"/>
<polygon fill="midnightblue" stroke="midnightblue" points="141.46,-112.07 132.94,-118.37 143.53,-118.76 141.46,-112.07"/>
</g>
<!-- Node4 -->
<g id="node4" class="node">
<title>Node4</title>
<g id="a_node4"><a xlink:title=" ">
<polygon fill="white" stroke="#bfbfbf" points="8.5,-73 8.5,-99 141.5,-99 141.5,-73 8.5,-73"/>
<text text-anchor="start" x="16.5" y="-88.6" font-family="Helvetica,sans-Serif" font-size="8.00">boost::enable_shared</text>
<text text-anchor="middle" x="75" y="-79.6" font-family="Helvetica,sans-Serif" font-size="8.00">_from_this&lt; Server_socket &gt;</text>
</a>
</g>
</g>
<!-- Node4&#45;&gt;Node1 -->
<g id="edge3" class="edge">
<title>Node4&#45;&gt;Node1</title>
<path fill="none" stroke="midnightblue" d="M151.74,-86C163.25,-86 174.89,-86 185.73,-86"/>
<polygon fill="midnightblue" stroke="midnightblue" points="151.69,-82.5 141.69,-86 151.69,-89.5 151.69,-82.5"/>
</g>
<!-- Node5 -->
<g id="node5" class="node">
<title>Node5</title>
<g id="a_node5"><a xlink:href="classflow_1_1log_1_1Log__context.html" target="_top" xlink:title="Convenience class that simply stores a Logger and/or Component passed into a constructor; and returns...">
<polygon fill="white" stroke="black" points="21.5,-36.5 21.5,-53.5 128.5,-53.5 128.5,-36.5 21.5,-36.5"/>
<text text-anchor="middle" x="75" y="-43.1" font-family="Helvetica,sans-Serif" font-size="8.00">flow::log::Log_context</text>
</a>
</g>
</g>
<!-- Node5&#45;&gt;Node1 -->
<g id="edge4" class="edge">
<title>Node5&#45;&gt;Node1</title>
<path fill="none" stroke="midnightblue" d="M119.58,-56.06C140.11,-61.28 164.75,-67.53 186.18,-72.97"/>
<polygon fill="midnightblue" stroke="midnightblue" points="120.41,-52.66 109.86,-53.59 118.69,-59.45 120.41,-52.66"/>
</g>
<!-- Node6 -->
<g id="node6" class="node">
<title>Node6</title>
<g id="a_node6"><a xlink:title=" ">
<polygon fill="white" stroke="#bfbfbf" points="25.5,-0.5 25.5,-17.5 124.5,-17.5 124.5,-0.5 25.5,-0.5"/>
<text text-anchor="middle" x="75" y="-7.1" font-family="Helvetica,sans-Serif" font-size="8.00">boost::noncopyable</text>
</a>
</g>
</g>
<!-- Node6&#45;&gt;Node1 -->
<g id="edge5" class="edge">
<title>Node6&#45;&gt;Node1</title>
<path fill="none" stroke="#8b1a1a" d="M131.97,-20.35C138.16,-22.27 144.29,-24.48 150,-27 177.15,-38.99 204.98,-59.43 221.75,-72.83"/>
<polygon fill="#8b1a1a" stroke="#8b1a1a" points="132.81,-16.95 122.24,-17.57 130.89,-23.68 132.81,-16.95"/>
</g>
</g>
</svg>
