<?xml version="1.0" encoding="UTF-8" standalone="no"?>
<!DOCTYPE svg PUBLIC "-//W3C//DTD SVG 1.1//EN"
 "http://www.w3.org/Graphics/SVG/1.1/DTD/svg11.dtd">
<!-- Generated by graphviz version 2.43.0 (0)
 -->
<!-- Title: flow::net_flow::Peer_socket_send_stats_accumulator Pages: 1 -->
<svg width="734pt" height="415pt"
 viewBox="0.00 0.00 734.00 415.00" xmlns="http://www.w3.org/2000/svg" xmlns:xlink="http://www.w3.org/1999/xlink">
<g id="graph0" class="graph" transform="scale(1 1) rotate(0) translate(4 411)">
<title>flow::net_flow::Peer_socket_send_stats_accumulator</title>
<polygon fill="white" stroke="transparent" points="-4,4 -4,-411 730,-411 730,4 -4,4"/>
<!-- Node1 -->
<g id="node1" class="node">
<title>Node1</title>
<g id="a_node1"><a xlink:title="A class that keeps a Peer_socket_send_stats data store, includes methods to conveniently accumulate d...">
<polygon fill="#bfbfbf" stroke="black" points="576,-153 576,-179 726,-179 726,-153 576,-153"/>
<text text-anchor="start" x="584" y="-168.6" font-family="Helvetica,sans-Serif" font-size="8.00">flow::net_flow::Peer</text>
<text text-anchor="middle" x="651" y="-159.6" font-family="Helvetica,sans-Serif" font-size="8.00">_socket_send_stats_accumulator</text>
</a>
</g>
</g>
<!-- Node2 -->
<g id="node2" class="node">
<title>Node2</title>
<g id="a_node2"><a xlink:href="classflow_1_1net__flow_1_1Peer__socket__send__stats.html" target="_top" xlink:title="A data store that keeps stats about the outgoing direction of a Peer_socket connection to another Flo...">
<polygon fill="white" stroke="black" points="441,-182 441,-208 538,-208 538,-182 441,-182"/>
<text text-anchor="start" x="449" y="-197.6" font-family="Helvetica,sans-Serif" font-size="8.00">flow::net_flow::Peer</text>
<text text-anchor="middle" x="489.5" y="-188.6" font-family="Helvetica,sans-Serif" font-size="8.00">_socket_send_stats</text>
</a>
</g>
</g>
<!-- Node2&#45;&gt;Node1 -->
<g id="edge1" class="edge">
<title>Node2&#45;&gt;Node1</title>
<path fill="none" stroke="#8b1a1a" d="M548.3,-184.49C558.04,-182.72 568.25,-180.86 578.29,-179.04"/>
<polygon fill="#8b1a1a" stroke="#8b1a1a" points="547.57,-181.07 538.36,-186.3 548.82,-187.95 547.57,-181.07"/>
</g>
<!-- Node3 -->
<g id="node3" class="node">
<title>Node3</title>
<g id="a_node3"><a xlink:title=" ">
<polygon fill="white" stroke="#bfbfbf" points="208,-389.5 208,-406.5 267,-406.5 267,-389.5 208,-389.5"/>
<text text-anchor="middle" x="237.5" y="-396.1" font-family="Helvetica,sans-Serif" font-size="8.00">time_point</text>
</a>
</g>
</g>
<!-- Node3&#45;&gt;Node2 -->
<g id="edge2" class="edge">
<title>Node3&#45;&gt;Node2</title>
<path fill="none" stroke="#9a32cd" stroke-dasharray="5,2" d="M271.52,-385.68C279.05,-382.5 286.92,-378.87 294,-375 354.8,-341.77 372.43,-334.42 422,-286 447.06,-261.53 469.59,-226.79 480.87,-208.1"/>
<polygon fill="#9a32cd" stroke="#9a32cd" points="270.18,-382.45 262.24,-389.46 272.82,-388.93 270.18,-382.45"/>
<text text-anchor="middle" x="367" y="-366.6" font-family="Helvetica,sans-Serif" font-size="8.00"> m_init_time</text>
</g>
<!-- Node4 -->
<g id="node4" class="node">
<title>Node4</title>
<g id="a_node4"><a xlink:title=" ">
<polygon fill="white" stroke="#bfbfbf" points="27,-235.5 27,-252.5 77,-252.5 77,-235.5 27,-235.5"/>
<text text-anchor="middle" x="52" y="-242.1" font-family="Helvetica,sans-Serif" font-size="8.00">uint64_t</text>
</a>
</g>
</g>
<!-- Node4&#45;&gt;Node2 -->
<g id="edge3" class="edge">
<title>Node4&#45;&gt;Node2</title>
<path fill="none" stroke="#9a32cd" stroke-dasharray="5,2" d="M87.35,-248.88C153.81,-257.04 303.84,-269.13 422,-232 439.27,-226.57 457.1,-216.36 469.94,-208.03"/>
<polygon fill="#9a32cd" stroke="#9a32cd" points="87.41,-245.36 77.05,-247.57 86.52,-252.31 87.41,-245.36"/>
<text text-anchor="middle" x="237.5" y="-350.6" font-family="Helvetica,sans-Serif" font-size="8.00"> m_drop_timeouts</text>
<text text-anchor="middle" x="237.5" y="-341.6" font-family="Helvetica,sans-Serif" font-size="8.00">m_dropped_data_count</text>
<text text-anchor="middle" x="237.5" y="-332.6" font-family="Helvetica,sans-Serif" font-size="8.00">m_dropped_data_size</text>
<text text-anchor="middle" x="237.5" y="-323.6" font-family="Helvetica,sans-Serif" font-size="8.00">m_error_acks_data_count</text>
<text text-anchor="middle" x="237.5" y="-314.6" font-family="Helvetica,sans-Serif" font-size="8.00">m_good_ack_count</text>
<text text-anchor="middle" x="237.5" y="-305.6" font-family="Helvetica,sans-Serif" font-size="8.00">m_good_ack_data_size</text>
<text text-anchor="middle" x="237.5" y="-296.6" font-family="Helvetica,sans-Serif" font-size="8.00">m_idle_timeouts</text>
<text text-anchor="middle" x="237.5" y="-287.6" font-family="Helvetica,sans-Serif" font-size="8.00">m_late_or_dupe_ack_count</text>
<text text-anchor="middle" x="237.5" y="-278.6" font-family="Helvetica,sans-Serif" font-size="8.00">m_loss_events</text>
<text text-anchor="middle" x="237.5" y="-269.6" font-family="Helvetica,sans-Serif" font-size="8.00">m_received_ack_count</text>
<text text-anchor="middle" x="237.5" y="-260.6" font-family="Helvetica,sans-Serif" font-size="8.00">...</text>
</g>
<!-- Node7 -->
<g id="node7" class="node">
<title>Node7</title>
<g id="a_node7"><a xlink:title=" ">
<polygon fill="white" stroke="black" points="188,-137 188,-163 287,-163 287,-137 188,-137"/>
<text text-anchor="start" x="196" y="-152.6" font-family="Helvetica,sans-Serif" font-size="8.00">std::map&lt; std::type</text>
<text text-anchor="middle" x="237.5" y="-143.6" font-family="Helvetica,sans-Serif" font-size="8.00">_index, uint64_t &gt;</text>
</a>
</g>
</g>
<!-- Node4&#45;&gt;Node7 -->
<g id="edge8" class="edge">
<title>Node4&#45;&gt;Node7</title>
<path fill="none" stroke="#9a32cd" stroke-dasharray="5,2" d="M76.15,-230.11C101.47,-215.17 143.46,-191.12 181,-173 188.14,-169.55 195.93,-166.13 203.36,-163.01"/>
<polygon fill="#9a32cd" stroke="#9a32cd" points="74.12,-227.25 67.31,-235.36 77.69,-233.27 74.12,-227.25"/>
<text text-anchor="middle" x="142.5" y="-205.6" font-family="Helvetica,sans-Serif" font-size="8.00"> elements</text>
</g>
<!-- Node5 -->
<g id="node5" class="node">
<title>Node5</title>
<g id="a_node5"><a xlink:href="classbool.html" target="_top" xlink:title=" ">
<polygon fill="white" stroke="#bfbfbf" points="220,-218.5 220,-235.5 255,-235.5 255,-218.5 220,-218.5"/>
<text text-anchor="middle" x="237.5" y="-225.1" font-family="Helvetica,sans-Serif" font-size="8.00">bool</text>
</a>
</g>
</g>
<!-- Node5&#45;&gt;Node2 -->
<g id="edge4" class="edge">
<title>Node5&#45;&gt;Node2</title>
<path fill="none" stroke="#9a32cd" stroke-dasharray="5,2" d="M265.33,-224.04C301.11,-220.03 366.39,-212.51 422,-205 428.13,-204.17 434.58,-203.26 440.94,-202.33"/>
<polygon fill="#9a32cd" stroke="#9a32cd" points="264.77,-220.58 255.22,-225.17 265.55,-227.54 264.77,-220.58"/>
<text text-anchor="middle" x="367" y="-221.6" font-family="Helvetica,sans-Serif" font-size="8.00"> m_rcv_wnd_exhausted</text>
</g>
<!-- Node6 -->
<g id="node6" class="node">
<title>Node6</title>
<g id="a_node6"><a xlink:title=" ">
<polygon fill="white" stroke="#bfbfbf" points="217.5,-182.5 217.5,-199.5 257.5,-199.5 257.5,-182.5 217.5,-182.5"/>
<text text-anchor="middle" x="237.5" y="-189.1" font-family="Helvetica,sans-Serif" font-size="8.00">size_t</text>
</a>
</g>
</g>
<!-- Node6&#45;&gt;Node2 -->
<g id="edge5" class="edge">
<title>Node6&#45;&gt;Node2</title>
<path fill="none" stroke="#9a32cd" stroke-dasharray="5,2" d="M267.93,-191.47C310.44,-192.15 389.52,-193.42 440.53,-194.23"/>
<polygon fill="#9a32cd" stroke="#9a32cd" points="267.76,-187.97 257.7,-191.31 267.64,-194.97 267.76,-187.97"/>
<text text-anchor="middle" x="367" y="-196.6" font-family="Helvetica,sans-Serif" font-size="8.00"> m_max_buf_data_size</text>
</g>
<!-- Node7&#45;&gt;Node2 -->
<g id="edge6" class="edge">
<title>Node7&#45;&gt;Node2</title>
<path fill="none" stroke="#9a32cd" stroke-dasharray="5,2" d="M297.72,-153.27C333.96,-156.14 381.08,-161.41 422,-171 433.71,-173.74 446.2,-177.9 457.16,-181.99"/>
<polygon fill="#9a32cd" stroke="#9a32cd" points="297.56,-149.75 287.32,-152.49 297.03,-156.73 297.56,-149.75"/>
<text text-anchor="start" x="312.5" y="-182.6" font-family="Helvetica,sans-Serif" font-size="8.00"> m_low_lvl_packet_xfer</text>
<text text-anchor="middle" x="367" y="-173.6" font-family="Helvetica,sans-Serif" font-size="8.00">_requested_count_by_type</text>
</g>
<!-- Node8 -->
<g id="node8" class="node">
<title>Node8</title>
<g id="a_node8"><a xlink:title=" ">
<polygon fill="white" stroke="#bfbfbf" points="22,-71.5 22,-88.5 82,-88.5 82,-71.5 22,-71.5"/>
<text text-anchor="middle" x="52" y="-78.1" font-family="Helvetica,sans-Serif" font-size="8.00">type_index</text>
</a>
</g>
</g>
<!-- Node8&#45;&gt;Node7 -->
<g id="edge7" class="edge">
<title>Node8&#45;&gt;Node7</title>
<path fill="none" stroke="#9a32cd" stroke-dasharray="5,2" d="M92.1,-89.93C113.37,-95.79 139.97,-103.83 163,-113 180.25,-119.87 198.94,-129.3 213.15,-136.93"/>
<polygon fill="#9a32cd" stroke="#9a32cd" points="92.99,-86.55 82.42,-87.32 91.17,-93.31 92.99,-86.55"/>
<text text-anchor="middle" x="142.5" y="-115.6" font-family="Helvetica,sans-Serif" font-size="8.00"> keys</text>
</g>
<!-- Node9 -->
<g id="node9" class="node">
<title>Node9</title>
<g id="a_node9"><a xlink:title=" ">
<polygon fill="white" stroke="black" points="188,-0.5 188,-35.5 287,-35.5 287,-0.5 188,-0.5"/>
<text text-anchor="start" x="196" y="-25.1" font-family="Helvetica,sans-Serif" font-size="8.00">std::map&lt; std::type</text>
<text text-anchor="start" x="196" y="-16.1" font-family="Helvetica,sans-Serif" font-size="8.00">_index, boost::array</text>
<text text-anchor="middle" x="237.5" y="-7.1" font-family="Helvetica,sans-Serif" font-size="8.00">&lt; uint64_t, 2 &gt; &gt;</text>
</a>
</g>
</g>
<!-- Node8&#45;&gt;Node9 -->
<g id="edge10" class="edge">
<title>Node8&#45;&gt;Node9</title>
<path fill="none" stroke="#9a32cd" stroke-dasharray="5,2" d="M88.36,-68.05C116.61,-58.51 156.52,-45.02 187.79,-34.46"/>
<polygon fill="#9a32cd" stroke="#9a32cd" points="86.87,-64.86 78.51,-71.38 89.11,-71.49 86.87,-64.86"/>
<text text-anchor="middle" x="142.5" y="-59.6" font-family="Helvetica,sans-Serif" font-size="8.00"> keys</text>
</g>
<!-- Node11 -->
<g id="node11" class="node">
<title>Node11</title>
<g id="a_node11"><a xlink:title=" ">
<polygon fill="white" stroke="black" points="181,-62.5 181,-97.5 294,-97.5 294,-62.5 181,-62.5"/>
<text text-anchor="start" x="189" y="-87.1" font-family="Helvetica,sans-Serif" font-size="8.00">std::map&lt; std::type</text>
<text text-anchor="start" x="189" y="-78.1" font-family="Helvetica,sans-Serif" font-size="8.00">_index, std::map&lt; Xfer</text>
<text text-anchor="middle" x="237.5" y="-69.1" font-family="Helvetica,sans-Serif" font-size="8.00">_op_result, uint64_t &gt; &gt;</text>
</a>
</g>
</g>
<!-- Node8&#45;&gt;Node11 -->
<g id="edge13" class="edge">
<title>Node8&#45;&gt;Node11</title>
<path fill="none" stroke="#9a32cd" stroke-dasharray="5,2" d="M92.25,-80C118.09,-80 152.31,-80 180.94,-80"/>
<polygon fill="#9a32cd" stroke="#9a32cd" points="92.08,-76.5 82.08,-80 92.08,-83.5 92.08,-76.5"/>
<text text-anchor="middle" x="142.5" y="-82.6" font-family="Helvetica,sans-Serif" font-size="8.00"> keys</text>
</g>
<!-- Node9&#45;&gt;Node2 -->
<g id="edge9" class="edge">
<title>Node9&#45;&gt;Node2</title>
<path fill="none" stroke="#9a32cd" stroke-dasharray="5,2" d="M297.15,-3.55C337.42,2.6 389.3,2.49 422,-28 469.17,-71.99 402.2,-119.74 440,-172 442.84,-175.93 446.53,-179.21 450.6,-181.94"/>
<polygon fill="#9a32cd" stroke="#9a32cd" points="296.46,-0.12 287.19,-5.24 297.63,-7.02 296.46,-0.12"/>
<text text-anchor="start" x="321" y="-57.6" font-family="Helvetica,sans-Serif" font-size="8.00"> m_low_lvl_packet_xfer</text>
<text text-anchor="middle" x="367" y="-48.6" font-family="Helvetica,sans-Serif" font-size="8.00">_called_count_by_type</text>
<text text-anchor="start" x="321" y="-39.6" font-family="Helvetica,sans-Serif" font-size="8.00">m_low_lvl_packet_xfer</text>
<text text-anchor="middle" x="367" y="-30.6" font-family="Helvetica,sans-Serif" font-size="8.00">_called_size_by_type</text>
</g>
<!-- Node10 -->
<g id="node10" class="node">
<title>Node10</title>
<g id="a_node10"><a xlink:title=" ">
<polygon fill="white" stroke="#bfbfbf" points="3,-7.5 3,-24.5 101,-24.5 101,-7.5 3,-7.5"/>
<text text-anchor="middle" x="52" y="-14.1" font-family="Helvetica,sans-Serif" font-size="8.00">array&lt; uint64_t, 2 &gt;</text>
</a>
</g>
</g>
<!-- Node10&#45;&gt;Node9 -->
<g id="edge11" class="edge">
<title>Node10&#45;&gt;Node9</title>
<path fill="none" stroke="#9a32cd" stroke-dasharray="5,2" d="M111.35,-16.48C128.04,-16.63 146.24,-16.81 163,-17 171.04,-17.09 179.57,-17.2 187.87,-17.31"/>
<polygon fill="#9a32cd" stroke="#9a32cd" points="111.22,-12.98 101.19,-16.39 111.16,-19.98 111.22,-12.98"/>
<text text-anchor="middle" x="142.5" y="-19.6" font-family="Helvetica,sans-Serif" font-size="8.00"> elements</text>
</g>
<!-- Node11&#45;&gt;Node2 -->
<g id="edge12" class="edge">
<title>Node11&#45;&gt;Node2</title>
<path fill="none" stroke="#9a32cd" stroke-dasharray="5,2" d="M304.53,-68.56C343.15,-65.76 390.37,-69.6 422,-97 447.91,-119.44 418.4,-145.38 440,-172 443.17,-175.91 447.16,-179.19 451.49,-181.94"/>
<polygon fill="#9a32cd" stroke="#9a32cd" points="304.06,-65.09 294.4,-69.46 304.67,-72.06 304.06,-65.09"/>
<text text-anchor="start" x="312" y="-144.6" font-family="Helvetica,sans-Serif" font-size="8.00"> m_low_lvl_packet_xfer</text>
<text text-anchor="start" x="312" y="-135.6" font-family="Helvetica,sans-Serif" font-size="8.00">_completed_count_by_type</text>
<text text-anchor="middle" x="367" y="-126.6" font-family="Helvetica,sans-Serif" font-size="8.00">_and_result</text>
<text text-anchor="start" x="312" y="-117.6" font-family="Helvetica,sans-Serif" font-size="8.00">m_low_lvl_packet_xfer</text>
<text text-anchor="start" x="312" y="-108.6" font-family="Helvetica,sans-Serif" font-size="8.00">_completed_size_by_type</text>
<text text-anchor="middle" x="367" y="-99.6" font-family="Helvetica,sans-Serif" font-size="8.00">_and_result</text>
</g>
<!-- Node12 -->
<g id="node12" class="node">
<title>Node12</title>
<g id="a_node12"><a xlink:title=" ">
<polygon fill="white" stroke="#bfbfbf" points="0,-131 0,-157 104,-157 104,-131 0,-131"/>
<text text-anchor="start" x="8" y="-146.6" font-family="Helvetica,sans-Serif" font-size="8.00">map&lt; Xfer_op_result,</text>
<text text-anchor="middle" x="52" y="-137.6" font-family="Helvetica,sans-Serif" font-size="8.00"> uint64_t &gt;</text>
</a>
</g>
</g>
<!-- Node12&#45;&gt;Node11 -->
<g id="edge14" class="edge">
<title>Node12&#45;&gt;Node11</title>
<path fill="none" stroke="#9a32cd" stroke-dasharray="5,2" d="M113.99,-135.42C130.21,-132.17 147.52,-127.8 163,-122 179.65,-115.76 196.98,-106.04 210.63,-97.52"/>
<polygon fill="#9a32cd" stroke="#9a32cd" points="113.23,-132 104.05,-137.31 114.53,-138.88 113.23,-132"/>
<text text-anchor="middle" x="142.5" y="-136.6" font-family="Helvetica,sans-Serif" font-size="8.00"> elements</text>
</g>
<!-- Node13 -->
<g id="node13" class="node">
<title>Node13</title>
<g id="a_node13"><a xlink:title=" ">
<polygon fill="white" stroke="#bfbfbf" points="440,-145.5 440,-162.5 539,-162.5 539,-145.5 440,-145.5"/>
<text text-anchor="middle" x="489.5" y="-152.1" font-family="Helvetica,sans-Serif" font-size="8.00">boost::noncopyable</text>
</a>
</g>
</g>
<!-- Node13&#45;&gt;Node1 -->
<g id="edge15" class="edge">
<title>Node13&#45;&gt;Node1</title>
<path fill="none" stroke="#8b1a1a" d="M549.46,-158.44C558.02,-159.08 566.92,-159.75 575.73,-160.41"/>
<polygon fill="#8b1a1a" stroke="#8b1a1a" points="549.46,-154.93 539.22,-157.67 548.93,-161.91 549.46,-154.93"/>
</g>
</g>
</svg>
