<?xml version="1.0" encoding="UTF-8" standalone="no"?>
<!DOCTYPE svg PUBLIC "-//W3C//DTD SVG 1.1//EN"
 "http://www.w3.org/Graphics/SVG/1.1/DTD/svg11.dtd">
<!-- Generated by graphviz version 2.43.0 (0)
 -->
<!-- Title: flow::net_flow::Congestion_control_classic_data::on_idle_timeout Pages: 1 -->
<svg width="318pt" height="98pt"
 viewBox="0.00 0.00 318.00 98.00" xmlns="http://www.w3.org/2000/svg" xmlns:xlink="http://www.w3.org/1999/xlink">
<g id="graph0" class="graph" transform="scale(1 1) rotate(0) translate(4 94)">
<title>flow::net_flow::Congestion_control_classic_data::on_idle_timeout</title>
<polygon fill="white" stroke="transparent" points="-4,4 -4,-94 314,-94 314,4 -4,4"/>
<!-- Node1 -->
<g id="node1" class="node">
<title>Node1</title>
<g id="a_node1"><a xlink:title="Adjust state, namely CWND, assuming an Idle Timeout just occurred.">
<polygon fill="#bfbfbf" stroke="black" points="185,-27.5 185,-62.5 310,-62.5 310,-27.5 185,-27.5"/>
<text text-anchor="start" x="193" y="-52.1" font-family="Helvetica,sans-Serif" font-size="8.00">flow::net_flow::Congestion</text>
<text text-anchor="start" x="193" y="-43.1" font-family="Helvetica,sans-Serif" font-size="8.00">_control_classic_data::on</text>
<text text-anchor="middle" x="247.5" y="-34.1" font-family="Helvetica,sans-Serif" font-size="8.00">_idle_timeout</text>
</a>
</g>
</g>
<!-- Node2 -->
<g id="node2" class="node">
<title>Node2</title>
<g id="a_node2"><a xlink:href="classflow_1_1net__flow_1_1Congestion__control__classic.html#a588baa530b660a3437d3a39d68b16404" target="_top" xlink:title="Implements Congestion_control_strategy::on_idle_timeout() API.">
<polygon fill="white" stroke="black" points="12,-54.5 12,-89.5 137,-89.5 137,-54.5 12,-54.5"/>
<text text-anchor="start" x="20" y="-79.1" font-family="Helvetica,sans-Serif" font-size="8.00">flow::net_flow::Congestion</text>
<text text-anchor="start" x="20" y="-70.1" font-family="Helvetica,sans-Serif" font-size="8.00">_control_classic::on_idle</text>
<text text-anchor="middle" x="74.5" y="-61.1" font-family="Helvetica,sans-Serif" font-size="8.00">_timeout</text>
</a>
</g>
</g>
<!-- Node1&#45;&gt;Node2 -->
<g id="edge1" class="edge">
<title>Node1&#45;&gt;Node2</title>
<path fill="none" stroke="midnightblue" d="M174.83,-56.32C162.3,-58.29 149.37,-60.34 137.14,-62.27"/>
<polygon fill="midnightblue" stroke="midnightblue" points="175.43,-59.76 184.77,-54.75 174.34,-52.85 175.43,-59.76"/>
</g>
<!-- Node3 -->
<g id="node3" class="node">
<title>Node3</title>
<g id="a_node3"><a xlink:href="classflow_1_1net__flow_1_1Congestion__control__classic__with__bandwidth__est.html#a461064f1ff0303cded61131df593599a" target="_top" xlink:title="Implements Congestion_control_strategy::on_idle_timeout() API.">
<polygon fill="white" stroke="black" points="0,-0.5 0,-35.5 149,-35.5 149,-0.5 0,-0.5"/>
<text text-anchor="start" x="8" y="-25.1" font-family="Helvetica,sans-Serif" font-size="8.00">flow::net_flow::Congestion</text>
<text text-anchor="start" x="8" y="-16.1" font-family="Helvetica,sans-Serif" font-size="8.00">_control_classic_with_bandwidth</text>
<text text-anchor="middle" x="74.5" y="-7.1" font-family="Helvetica,sans-Serif" font-size="8.00">_est::on_idle_timeout</text>
</a>
</g>
</g>
<!-- Node1&#45;&gt;Node3 -->
<g id="edge2" class="edge">
<title>Node1&#45;&gt;Node3</title>
<path fill="none" stroke="midnightblue" d="M174.87,-33.69C166.35,-32.34 157.64,-30.97 149.09,-29.62"/>
<polygon fill="midnightblue" stroke="midnightblue" points="174.34,-37.15 184.77,-35.25 175.43,-30.24 174.34,-37.15"/>
</g>
</g>
</svg>
