<?xml version="1.0" encoding="UTF-8" standalone="no"?>
<!DOCTYPE svg PUBLIC "-//W3C//DTD SVG 1.1//EN"
 "http://www.w3.org/Graphics/SVG/1.1/DTD/svg11.dtd">
<!-- Generated by graphviz version 2.43.0 (0)
 -->
<!-- Title: flow::net_flow::asio::Node::handler_func Pages: 1 -->
<svg width="276pt" height="35pt"
 viewBox="0.00 0.00 276.00 35.00" xmlns="http://www.w3.org/2000/svg" xmlns:xlink="http://www.w3.org/1999/xlink">
<g id="graph0" class="graph" transform="scale(1 1) rotate(0) translate(4 31)">
<title>flow::net_flow::asio::Node::handler_func</title>
<polygon fill="white" stroke="transparent" points="-4,4 -4,-31 272,-31 272,4 -4,4"/>
<!-- Node1 -->
<g id="node1" class="node">
<title>Node1</title>
<g id="a_node1"><a xlink:title="Returns a functor that essentially performs post() on_result onto *async_task_engine() in a way suita...">
<polygon fill="#bfbfbf" stroke="black" points="0,-0.5 0,-26.5 104,-26.5 104,-0.5 0,-0.5"/>
<text text-anchor="start" x="8" y="-16.1" font-family="Helvetica,sans-Serif" font-size="8.00">flow::net_flow::asio</text>
<text text-anchor="middle" x="52" y="-7.1" font-family="Helvetica,sans-Serif" font-size="8.00">::Node::handler_func</text>
</a>
</g>
</g>
<!-- Node2 -->
<g id="node2" class="node">
<title>Node2</title>
<g id="a_node2"><a xlink:href="classflow_1_1net__flow_1_1asio_1_1Node.html#a778ffa52a73f455142da9497ca10734d" target="_top" xlink:title="Pointer (possibly null) for the flow::util::Task_engine used by any coming async I/O calls and inheri...">
<polygon fill="white" stroke="black" points="140,-0.5 140,-26.5 268,-26.5 268,-0.5 140,-0.5"/>
<text text-anchor="start" x="148" y="-16.1" font-family="Helvetica,sans-Serif" font-size="8.00">flow::net_flow::asio</text>
<text text-anchor="middle" x="204" y="-7.1" font-family="Helvetica,sans-Serif" font-size="8.00">::Node::async_task_engine</text>
</a>
</g>
</g>
<!-- Node1&#45;&gt;Node2 -->
<g id="edge1" class="edge">
<title>Node1&#45;&gt;Node2</title>
<path fill="none" stroke="midnightblue" d="M104.2,-13.5C112.44,-13.5 121.1,-13.5 129.73,-13.5"/>
<polygon fill="midnightblue" stroke="midnightblue" points="129.82,-17 139.82,-13.5 129.82,-10 129.82,-17"/>
</g>
</g>
</svg>
