<?xml version="1.0" encoding="UTF-8" standalone="no"?>
<!DOCTYPE svg PUBLIC "-//W3C//DTD SVG 1.1//EN"
 "http://www.w3.org/Graphics/SVG/1.1/DTD/svg11.dtd">
<!-- Generated by graphviz version 2.43.0 (0)
 -->
<!-- Title: flow::async::Segregated_thread_task_loop::start Pages: 1 -->
<svg width="746pt" height="305pt"
 viewBox="0.00 0.00 746.00 304.54" xmlns="http://www.w3.org/2000/svg" xmlns:xlink="http://www.w3.org/1999/xlink">
<g id="graph0" class="graph" transform="scale(1 1) rotate(0) translate(4 300.54)">
<title>flow::async::Segregated_thread_task_loop::start</title>
<polygon fill="white" stroke="transparent" points="-4,4 -4,-300.54 742,-300.54 742,4 -4,4"/>
<!-- Node1 -->
<g id="node1" class="node">
<title>Node1</title>
<g id="a_node1"><a xlink:title="Implements superclass API.">
<polygon fill="#bfbfbf" stroke="black" points="0,-132.5 0,-158.5 117,-158.5 117,-132.5 0,-132.5"/>
<text text-anchor="start" x="8" y="-148.1" font-family="Helvetica,sans-Serif" font-size="8.00">flow::async::Segregated</text>
<text text-anchor="middle" x="58.5" y="-139.1" font-family="Helvetica,sans-Serif" font-size="8.00">_thread_task_loop::start</text>
</a>
</g>
</g>
<!-- Node2 -->
<g id="node2" class="node">
<title>Node2</title>
<g id="a_node2"><a xlink:href="classflow_1_1log_1_1Log__context.html#af4db395042b065b00398cd59845dcb4d" target="_top" xlink:title="Returns the stored Logger pointer, particularly as many FLOW_LOG_*() macros expect.">
<polygon fill="white" stroke="black" points="497,-269.5 497,-295.5 604,-295.5 604,-269.5 497,-269.5"/>
<text text-anchor="start" x="505" y="-285.1" font-family="Helvetica,sans-Serif" font-size="8.00">flow::log::Log_context</text>
<text text-anchor="middle" x="550.5" y="-276.1" font-family="Helvetica,sans-Serif" font-size="8.00">::get_logger</text>
</a>
</g>
</g>
<!-- Node1&#45;&gt;Node2 -->
<g id="edge1" class="edge">
<title>Node1&#45;&gt;Node2</title>
<path fill="none" stroke="midnightblue" d="M68.14,-158.59C82.89,-179.86 115.06,-221.74 153,-243.5 257.97,-303.71 404.65,-299.84 487,-291.35"/>
<polygon fill="midnightblue" stroke="midnightblue" points="487.4,-294.83 496.96,-290.27 486.65,-287.87 487.4,-294.83"/>
</g>
<!-- Node3 -->
<g id="node3" class="node">
<title>Node3</title>
<g id="a_node3"><a xlink:href="classflow_1_1async_1_1Segregated__thread__task__loop.html#a28d7c70f0d3147ba48a10afa84ef98c1" target="_top" xlink:title="Implements superclass API.">
<polygon fill="white" stroke="black" points="153,-107.5 153,-133.5 290,-133.5 290,-107.5 153,-107.5"/>
<text text-anchor="start" x="161" y="-123.1" font-family="Helvetica,sans-Serif" font-size="8.00">flow::async::Segregated</text>
<text text-anchor="middle" x="221.5" y="-114.1" font-family="Helvetica,sans-Serif" font-size="8.00">_thread_task_loop::n_threads</text>
</a>
</g>
</g>
<!-- Node1&#45;&gt;Node3 -->
<g id="edge2" class="edge">
<title>Node1&#45;&gt;Node3</title>
<path fill="none" stroke="midnightblue" d="M117.17,-136.55C125.47,-135.26 134.13,-133.91 142.74,-132.57"/>
<polygon fill="midnightblue" stroke="midnightblue" points="143.46,-136 152.8,-131.01 142.39,-129.09 143.46,-136"/>
</g>
<!-- Node4 -->
<g id="node4" class="node">
<title>Node4</title>
<g id="a_node4"><a xlink:href="namespaceflow_1_1async.html#a3e200db7e5375de21d2568004a85dcad" target="_top" xlink:title="Assuming the same situation as documented for optimal_worker_thread_count_per_pool(),...">
<polygon fill="white" stroke="black" points="164,-44.5 164,-70.5 279,-70.5 279,-44.5 164,-44.5"/>
<text text-anchor="start" x="172" y="-60.1" font-family="Helvetica,sans-Serif" font-size="8.00">flow::async::optimize</text>
<text text-anchor="middle" x="221.5" y="-51.1" font-family="Helvetica,sans-Serif" font-size="8.00">_pinning_in_thread_pool</text>
</a>
</g>
</g>
<!-- Node1&#45;&gt;Node4 -->
<g id="edge3" class="edge">
<title>Node1&#45;&gt;Node4</title>
<path fill="none" stroke="midnightblue" d="M83.6,-132.33C111.19,-117.25 156.53,-92.46 187.41,-75.59"/>
<polygon fill="midnightblue" stroke="midnightblue" points="189.4,-78.49 196.5,-70.62 186.04,-72.35 189.4,-78.49"/>
</g>
<!-- Node7 -->
<g id="node7" class="node">
<title>Node7</title>
<g id="a_node7"><a xlink:href="namespaceflow_1_1util.html#acd8a77acb1c38ee462ca4fb213a3f164" target="_top" xlink:title="Equivalent to ostream_op_to_string() but returns a new string by value instead of writing to the call...">
<polygon fill="white" stroke="black" points="347.5,-0.5 347.5,-26.5 439.5,-26.5 439.5,-0.5 347.5,-0.5"/>
<text text-anchor="start" x="355.5" y="-16.1" font-family="Helvetica,sans-Serif" font-size="8.00">flow::util::ostream</text>
<text text-anchor="middle" x="393.5" y="-7.1" font-family="Helvetica,sans-Serif" font-size="8.00">_op_string</text>
</a>
</g>
</g>
<!-- Node1&#45;&gt;Node7 -->
<g id="edge10" class="edge">
<title>Node1&#45;&gt;Node7</title>
<path fill="none" stroke="midnightblue" d="M66.06,-132.34C78.94,-108.09 110.07,-56.8 153,-34.5 210.52,-4.62 286.39,-3.26 337.18,-6.82"/>
<polygon fill="midnightblue" stroke="midnightblue" points="337.06,-10.32 347.31,-7.62 337.61,-3.34 337.06,-10.32"/>
</g>
<!-- Node10 -->
<g id="node10" class="node">
<title>Node10</title>
<g id="a_node10"><a xlink:href="classflow_1_1async_1_1Segregated__thread__task__loop.html#a9ae5be313170da86f361f8bf987b40b4" target="_top" xlink:title="Implements superclass API.">
<polygon fill="white" stroke="black" points="163,-207.5 163,-233.5 280,-233.5 280,-207.5 163,-207.5"/>
<text text-anchor="start" x="171" y="-223.1" font-family="Helvetica,sans-Serif" font-size="8.00">flow::async::Segregated</text>
<text text-anchor="middle" x="221.5" y="-214.1" font-family="Helvetica,sans-Serif" font-size="8.00">_thread_task_loop::post</text>
</a>
</g>
</g>
<!-- Node1&#45;&gt;Node10 -->
<g id="edge11" class="edge">
<title>Node1&#45;&gt;Node10</title>
<path fill="none" stroke="midnightblue" d="M80.48,-158.6C99.07,-169.86 127.2,-186.04 153,-197.5 158.02,-199.73 163.33,-201.88 168.67,-203.91"/>
<polygon fill="midnightblue" stroke="midnightblue" points="167.69,-207.27 178.28,-207.42 170.09,-200.7 167.69,-207.27"/>
</g>
<!-- Node14 -->
<g id="node14" class="node">
<title>Node14</title>
<g id="a_node14"><a xlink:href="classflow_1_1async_1_1Segregated__thread__task__loop.html#a5723cb843a014e8b77fa401cb93f241a" target="_top" xlink:title="See superclass API.">
<polygon fill="white" stroke="black" points="163,-153 163,-188 280,-188 280,-153 163,-153"/>
<text text-anchor="start" x="171" y="-177.6" font-family="Helvetica,sans-Serif" font-size="8.00">flow::async::Segregated</text>
<text text-anchor="start" x="171" y="-168.6" font-family="Helvetica,sans-Serif" font-size="8.00">_thread_task_loop::task</text>
<text text-anchor="middle" x="221.5" y="-159.6" font-family="Helvetica,sans-Serif" font-size="8.00">_engine</text>
</a>
</g>
</g>
<!-- Node1&#45;&gt;Node14 -->
<g id="edge16" class="edge">
<title>Node1&#45;&gt;Node14</title>
<path fill="none" stroke="midnightblue" d="M117.17,-154.45C128.8,-156.26 141.13,-158.17 153.06,-160.03"/>
<polygon fill="midnightblue" stroke="midnightblue" points="152.54,-163.49 162.96,-161.57 153.62,-156.57 152.54,-163.49"/>
</g>
<!-- Node4&#45;&gt;Node4 -->
<g id="edge6" class="edge">
<title>Node4&#45;&gt;Node4</title>
<path fill="none" stroke="midnightblue" d="M194.09,-70.77C185.79,-79.96 194.92,-89 221.5,-89 238.11,-89 247.91,-85.47 250.89,-80.58"/>
<polygon fill="midnightblue" stroke="midnightblue" points="254.32,-79.88 248.91,-70.77 247.46,-81.27 254.32,-79.88"/>
</g>
<!-- Node5 -->
<g id="node5" class="node">
<title>Node5</title>
<g id="a_node5"><a xlink:href="namespaceflow_1_1error.html#a48afa7f8c2e100acd461365dfb00a114" target="_top" xlink:title="Equivalent of exec_and_throw_on_error() for operations with void return type.">
<polygon fill="white" stroke="black" points="341.5,-45.5 341.5,-71.5 445.5,-71.5 445.5,-45.5 341.5,-45.5"/>
<text text-anchor="start" x="349.5" y="-61.1" font-family="Helvetica,sans-Serif" font-size="8.00">flow::error::exec_void</text>
<text text-anchor="middle" x="393.5" y="-52.1" font-family="Helvetica,sans-Serif" font-size="8.00">_and_throw_on_error</text>
</a>
</g>
</g>
<!-- Node4&#45;&gt;Node5 -->
<g id="edge4" class="edge">
<title>Node4&#45;&gt;Node5</title>
<path fill="none" stroke="midnightblue" d="M279.11,-57.83C295.74,-57.93 314.02,-58.04 330.95,-58.14"/>
<polygon fill="midnightblue" stroke="midnightblue" points="331.27,-61.64 341.29,-58.2 331.31,-54.64 331.27,-61.64"/>
</g>
<!-- Node6 -->
<g id="node6" class="node">
<title>Node6</title>
<g id="a_node6"><a xlink:href="namespaceflow_1_1async.html#adab04f47b40b92fffbe12bc33fadd223" target="_top" xlink:title="Assuming a planned thread pool will be receiving ~symmetrical load, and its UX&#45;affecting (in particul...">
<polygon fill="white" stroke="black" points="340.5,-91 340.5,-126 446.5,-126 446.5,-91 340.5,-91"/>
<text text-anchor="start" x="348.5" y="-115.6" font-family="Helvetica,sans-Serif" font-size="8.00">flow::async::optimal</text>
<text text-anchor="start" x="348.5" y="-106.6" font-family="Helvetica,sans-Serif" font-size="8.00">_worker_thread_count</text>
<text text-anchor="middle" x="393.5" y="-97.6" font-family="Helvetica,sans-Serif" font-size="8.00">_per_pool</text>
</a>
</g>
</g>
<!-- Node4&#45;&gt;Node6 -->
<g id="edge5" class="edge">
<title>Node4&#45;&gt;Node6</title>
<path fill="none" stroke="midnightblue" d="M265.84,-70.5C285.54,-76.41 309.22,-83.52 330.74,-89.97"/>
<polygon fill="midnightblue" stroke="midnightblue" points="329.87,-93.37 340.46,-92.89 331.88,-86.66 329.87,-93.37"/>
</g>
<!-- Node4&#45;&gt;Node7 -->
<g id="edge7" class="edge">
<title>Node4&#45;&gt;Node7</title>
<path fill="none" stroke="midnightblue" d="M273.05,-44.42C293.32,-39.17 316.73,-33.11 337.43,-27.75"/>
<polygon fill="midnightblue" stroke="midnightblue" points="338.55,-31.08 347.35,-25.18 336.8,-24.3 338.55,-31.08"/>
</g>
<!-- Node8 -->
<g id="node8" class="node">
<title>Node8</title>
<g id="a_node8"><a xlink:href="namespaceflow_1_1util.html#aa079e37d8ddc1b8f76b792e377dd80bd" target="_top" xlink:title="Writes to the specified string, as if the given arguments were each passed, via &lt;&lt; in sequence,...">
<polygon fill="white" stroke="black" points="504.5,-0.5 504.5,-26.5 596.5,-26.5 596.5,-0.5 504.5,-0.5"/>
<text text-anchor="start" x="512.5" y="-16.1" font-family="Helvetica,sans-Serif" font-size="8.00">flow::util::ostream</text>
<text text-anchor="middle" x="550.5" y="-7.1" font-family="Helvetica,sans-Serif" font-size="8.00">_op_to_string</text>
</a>
</g>
</g>
<!-- Node7&#45;&gt;Node8 -->
<g id="edge8" class="edge">
<title>Node7&#45;&gt;Node8</title>
<path fill="none" stroke="midnightblue" d="M439.75,-13.5C456.86,-13.5 476.52,-13.5 494.44,-13.5"/>
<polygon fill="midnightblue" stroke="midnightblue" points="494.46,-17 504.46,-13.5 494.46,-10 494.46,-17"/>
</g>
<!-- Node9 -->
<g id="node9" class="node">
<title>Node9</title>
<g id="a_node9"><a xlink:href="namespaceflow_1_1util.html#a1bf7064869bb90466477e426b466f7d2" target="_top" xlink:title="Function template that simply outputs arguments 2+ via &lt;&lt; to the given ostream, in the order given.">
<polygon fill="white" stroke="black" points="640,-0.5 640,-26.5 738,-26.5 738,-0.5 640,-0.5"/>
<text text-anchor="start" x="648" y="-16.1" font-family="Helvetica,sans-Serif" font-size="8.00">flow::util::feed_args</text>
<text text-anchor="middle" x="689" y="-7.1" font-family="Helvetica,sans-Serif" font-size="8.00">_to_ostream</text>
</a>
</g>
</g>
<!-- Node8&#45;&gt;Node9 -->
<g id="edge9" class="edge">
<title>Node8&#45;&gt;Node9</title>
<path fill="none" stroke="midnightblue" d="M596.57,-13.5C607.16,-13.5 618.58,-13.5 629.65,-13.5"/>
<polygon fill="midnightblue" stroke="midnightblue" points="629.69,-17 639.69,-13.5 629.69,-10 629.69,-17"/>
</g>
<!-- Node11 -->
<g id="node11" class="node">
<title>Node11</title>
<g id="a_node11"><a xlink:href="classflow_1_1async_1_1Segregated__thread__task__loop.html#a4c42c76a9d3f2926bb5545065d69783e" target="_top" xlink:title="Implements superclass API.">
<polygon fill="white" stroke="black" points="335,-149 335,-184 452,-184 452,-149 335,-149"/>
<text text-anchor="start" x="343" y="-173.6" font-family="Helvetica,sans-Serif" font-size="8.00">flow::async::Segregated</text>
<text text-anchor="start" x="343" y="-164.6" font-family="Helvetica,sans-Serif" font-size="8.00">_thread_task_loop::per</text>
<text text-anchor="middle" x="393.5" y="-155.6" font-family="Helvetica,sans-Serif" font-size="8.00">_thread_ops</text>
</a>
</g>
</g>
<!-- Node10&#45;&gt;Node11 -->
<g id="edge12" class="edge">
<title>Node10&#45;&gt;Node11</title>
<path fill="none" stroke="midnightblue" d="M263.65,-207.43C282.83,-201.34 306.1,-193.95 327.56,-187.13"/>
<polygon fill="midnightblue" stroke="midnightblue" points="328.8,-190.41 337.27,-184.04 326.68,-183.73 328.8,-190.41"/>
</g>
<!-- Node12 -->
<g id="node12" class="node">
<title>Node12</title>
<g id="a_node12"><a xlink:href="classflow_1_1async_1_1Segregated__thread__task__loop.html#a68b14a36def5972a6b65f70630fe11ef" target="_top" xlink:title="Helper performing the core post(Task_engine&amp;) (or similar) call on behalf of the various post() overl...">
<polygon fill="white" stroke="black" points="326,-248.5 326,-274.5 461,-274.5 461,-248.5 326,-248.5"/>
<text text-anchor="start" x="334" y="-264.1" font-family="Helvetica,sans-Serif" font-size="8.00">flow::async::Segregated</text>
<text text-anchor="middle" x="393.5" y="-255.1" font-family="Helvetica,sans-Serif" font-size="8.00">_thread_task_loop::post_impl</text>
</a>
</g>
</g>
<!-- Node10&#45;&gt;Node12 -->
<g id="edge13" class="edge">
<title>Node10&#45;&gt;Node12</title>
<path fill="none" stroke="midnightblue" d="M276.76,-233.59C293.25,-237.56 311.52,-241.97 328.58,-246.08"/>
<polygon fill="midnightblue" stroke="midnightblue" points="327.93,-249.53 338.47,-248.47 329.57,-242.72 327.93,-249.53"/>
</g>
<!-- Node13 -->
<g id="node13" class="node">
<title>Node13</title>
<g id="a_node13"><a xlink:href="classflow_1_1async_1_1Op__list.html#ad0929efa574298c96c13845a6e020d7d" target="_top" xlink:title="Returns a randomly selected index from range [O, size()).">
<polygon fill="white" stroke="black" points="345.5,-203.5 345.5,-229.5 441.5,-229.5 441.5,-203.5 345.5,-203.5"/>
<text text-anchor="start" x="353.5" y="-219.1" font-family="Helvetica,sans-Serif" font-size="8.00">flow::async::Op_list</text>
<text text-anchor="middle" x="393.5" y="-210.1" font-family="Helvetica,sans-Serif" font-size="8.00">::random_idx</text>
</a>
</g>
</g>
<!-- Node10&#45;&gt;Node13 -->
<g id="edge15" class="edge">
<title>Node10&#45;&gt;Node13</title>
<path fill="none" stroke="midnightblue" d="M280.05,-219.15C297.85,-218.73 317.44,-218.27 335.22,-217.85"/>
<polygon fill="midnightblue" stroke="midnightblue" points="335.53,-221.34 345.45,-217.61 335.37,-214.34 335.53,-221.34"/>
</g>
<!-- Node12&#45;&gt;Node2 -->
<g id="edge14" class="edge">
<title>Node12&#45;&gt;Node2</title>
<path fill="none" stroke="midnightblue" d="M461.13,-270.53C469.65,-271.68 478.35,-272.86 486.8,-274"/>
<polygon fill="midnightblue" stroke="midnightblue" points="486.58,-277.51 496.96,-275.38 487.52,-270.57 486.58,-277.51"/>
</g>
<!-- Node14&#45;&gt;Node11 -->
<g id="edge17" class="edge">
<title>Node14&#45;&gt;Node11</title>
<path fill="none" stroke="midnightblue" d="M280.05,-169.15C294.38,-168.81 309.86,-168.44 324.63,-168.1"/>
<polygon fill="midnightblue" stroke="midnightblue" points="324.8,-171.59 334.72,-167.86 324.64,-164.6 324.8,-171.59"/>
</g>
<!-- Node14&#45;&gt;Node13 -->
<g id="edge18" class="edge">
<title>Node14&#45;&gt;Node13</title>
<path fill="none" stroke="midnightblue" d="M280.05,-186.07C298.02,-190.93 317.81,-196.29 335.72,-201.14"/>
<polygon fill="midnightblue" stroke="midnightblue" points="334.88,-204.53 345.45,-203.77 336.71,-197.78 334.88,-204.53"/>
</g>
</g>
</svg>
