<?xml version="1.0" encoding="UTF-8" standalone="no"?>
<!DOCTYPE svg PUBLIC "-//W3C//DTD SVG 1.1//EN"
 "http://www.w3.org/Graphics/SVG/1.1/DTD/svg11.dtd">
<!-- Generated by graphviz version 2.43.0 (0)
 -->
<!-- Title: flow::net_flow::Event_set::clear Pages: 1 -->
<svg width="538pt" height="149pt"
 viewBox="0.00 0.00 538.00 149.00" xmlns="http://www.w3.org/2000/svg" xmlns:xlink="http://www.w3.org/1999/xlink">
<g id="graph0" class="graph" transform="scale(1 1) rotate(0) translate(4 145)">
<title>flow::net_flow::Event_set::clear</title>
<polygon fill="white" stroke="transparent" points="-4,4 -4,-145 534,-145 534,4 -4,4"/>
<!-- Node1 -->
<g id="node1" class="node">
<title>Node1</title>
<g id="a_node1"><a xlink:title="Forgets all sockets stored in this object in any fashion.">
<polygon fill="#bfbfbf" stroke="black" points="0,-50.5 0,-76.5 102,-76.5 102,-50.5 0,-50.5"/>
<text text-anchor="start" x="8" y="-66.1" font-family="Helvetica,sans-Serif" font-size="8.00">flow::net_flow::Event</text>
<text text-anchor="middle" x="51" y="-57.1" font-family="Helvetica,sans-Serif" font-size="8.00">_set::clear</text>
</a>
</g>
</g>
<!-- Node1&#45;&gt;Node1 -->
<g id="edge1" class="edge">
<title>Node1&#45;&gt;Node1</title>
<path fill="none" stroke="midnightblue" d="M25.28,-76.77C17.49,-85.96 26.06,-95 51,-95 66.2,-95 75.32,-91.64 78.36,-86.94"/>
<polygon fill="midnightblue" stroke="midnightblue" points="81.77,-86.09 76.72,-76.77 74.85,-87.2 81.77,-86.09"/>
</g>
<!-- Node2 -->
<g id="node2" class="node">
<title>Node2</title>
<g id="a_node2"><a xlink:href="classflow_1_1net__flow_1_1Event__set.html#a0edced1cb69b2cad299ee32e652ccea7" target="_top" xlink:title="Helper that clears each Sockets set inside an Ev_type_to_socks_map.">
<polygon fill="white" stroke="black" points="149.5,-100 149.5,-135 256.5,-135 256.5,-100 149.5,-100"/>
<text text-anchor="start" x="157.5" y="-124.6" font-family="Helvetica,sans-Serif" font-size="8.00">flow::net_flow::Event</text>
<text text-anchor="start" x="157.5" y="-115.6" font-family="Helvetica,sans-Serif" font-size="8.00">_set::clear_ev_type_to</text>
<text text-anchor="middle" x="203" y="-106.6" font-family="Helvetica,sans-Serif" font-size="8.00">_socks_map</text>
</a>
</g>
</g>
<!-- Node1&#45;&gt;Node2 -->
<g id="edge2" class="edge">
<title>Node1&#45;&gt;Node2</title>
<path fill="none" stroke="midnightblue" d="M88.31,-76.57C104.92,-82.55 125.02,-89.79 143.68,-96.5"/>
<polygon fill="midnightblue" stroke="midnightblue" points="142.68,-99.86 153.27,-99.96 145.05,-93.28 142.68,-99.86"/>
</g>
<!-- Node3 -->
<g id="node3" class="node">
<title>Node3</title>
<g id="a_node3"><a xlink:href="classflow_1_1net__flow_1_1Event__set.html#a19e241ae4dfe1ea54de6027052bc2135" target="_top" xlink:title="Helper that returns a loggable string summarizing the sizes of the socket sets, by type,...">
<polygon fill="white" stroke="black" points="148,-46 148,-81 258,-81 258,-46 148,-46"/>
<text text-anchor="start" x="156" y="-70.6" font-family="Helvetica,sans-Serif" font-size="8.00">flow::net_flow::Event</text>
<text text-anchor="start" x="156" y="-61.6" font-family="Helvetica,sans-Serif" font-size="8.00">_set::ev_type_to_socks</text>
<text text-anchor="middle" x="203" y="-52.6" font-family="Helvetica,sans-Serif" font-size="8.00">_map_sizes_to_str</text>
</a>
</g>
</g>
<!-- Node1&#45;&gt;Node3 -->
<g id="edge3" class="edge">
<title>Node1&#45;&gt;Node3</title>
<path fill="none" stroke="midnightblue" d="M102.37,-63.5C113.69,-63.5 125.85,-63.5 137.66,-63.5"/>
<polygon fill="midnightblue" stroke="midnightblue" points="137.91,-67 147.91,-63.5 137.91,-60 137.91,-67"/>
</g>
<!-- Node8 -->
<g id="node8" class="node">
<title>Node8</title>
<g id="a_node8"><a xlink:href="classflow_1_1net__flow_1_1Event__set.html#a8e16d91f81860eb2a6c971863548e466" target="_top" xlink:title="Helper that ensures the state of *this is such that one may modify the m_can and m_want socket sets.">
<polygon fill="white" stroke="black" points="138,-0.5 138,-26.5 268,-26.5 268,-0.5 138,-0.5"/>
<text text-anchor="start" x="146" y="-16.1" font-family="Helvetica,sans-Serif" font-size="8.00">flow::net_flow::Event</text>
<text text-anchor="middle" x="203" y="-7.1" font-family="Helvetica,sans-Serif" font-size="8.00">_set::ok_to_mod_socket_set</text>
</a>
</g>
</g>
<!-- Node1&#45;&gt;Node8 -->
<g id="edge9" class="edge">
<title>Node1&#45;&gt;Node8</title>
<path fill="none" stroke="midnightblue" d="M91.02,-50.49C110.04,-44.15 133.11,-36.46 153.28,-29.74"/>
<polygon fill="midnightblue" stroke="midnightblue" points="154.54,-33.01 162.92,-26.53 152.32,-26.37 154.54,-33.01"/>
</g>
<!-- Node4 -->
<g id="node4" class="node">
<title>Node4</title>
<g id="a_node4"><a xlink:href="namespaceflow_1_1util.html#a8afd30c50bcd670d45442df49d1da484" target="_top" xlink:title="Writes to the specified string, as if the given arguments were each passed, via &lt;&lt; in sequence,...">
<polygon fill="white" stroke="black" points="304,-73.5 304,-99.5 396,-99.5 396,-73.5 304,-73.5"/>
<text text-anchor="start" x="312" y="-89.1" font-family="Helvetica,sans-Serif" font-size="8.00">flow::util::ostream</text>
<text text-anchor="middle" x="350" y="-80.1" font-family="Helvetica,sans-Serif" font-size="8.00">_op_to_string</text>
</a>
</g>
</g>
<!-- Node3&#45;&gt;Node4 -->
<g id="edge4" class="edge">
<title>Node3&#45;&gt;Node4</title>
<path fill="none" stroke="midnightblue" d="M258.41,-72.13C269.97,-73.96 282.18,-75.9 293.77,-77.74"/>
<polygon fill="midnightblue" stroke="midnightblue" points="293.34,-81.21 303.77,-79.32 294.44,-74.3 293.34,-81.21"/>
</g>
<!-- Node7 -->
<g id="node7" class="node">
<title>Node7</title>
<g id="a_node7"><a xlink:href="classflow_1_1util_1_1Linked__hash__map.html#aba0949de5032e8dd6d75a48bcac9b060" target="_top" xlink:title="Returns number of elements stored.">
<polygon fill="white" stroke="black" points="307.5,-28.5 307.5,-54.5 392.5,-54.5 392.5,-28.5 307.5,-28.5"/>
<text text-anchor="start" x="315.5" y="-44.1" font-family="Helvetica,sans-Serif" font-size="8.00">flow::util::Linked</text>
<text text-anchor="middle" x="350" y="-35.1" font-family="Helvetica,sans-Serif" font-size="8.00">_hash_map::size</text>
</a>
</g>
</g>
<!-- Node3&#45;&gt;Node7 -->
<g id="edge8" class="edge">
<title>Node3&#45;&gt;Node7</title>
<path fill="none" stroke="midnightblue" d="M258.41,-55.25C271.21,-53.3 284.83,-51.24 297.5,-49.31"/>
<polygon fill="midnightblue" stroke="midnightblue" points="298.07,-52.77 307.44,-47.81 297.02,-45.85 298.07,-52.77"/>
</g>
<!-- Node5 -->
<g id="node5" class="node">
<title>Node5</title>
<g id="a_node5"><a xlink:href="namespaceflow_1_1util.html#af92e6183c2071f4166d4b5a91f50d70c" target="_top" xlink:title="&quot;Induction step&quot; version of variadic function template that simply outputs arguments 2+ via &lt;&lt; to the...">
<polygon fill="white" stroke="black" points="432,-96.5 432,-122.5 530,-122.5 530,-96.5 432,-96.5"/>
<text text-anchor="start" x="440" y="-112.1" font-family="Helvetica,sans-Serif" font-size="8.00">flow::util::feed_args</text>
<text text-anchor="middle" x="481" y="-103.1" font-family="Helvetica,sans-Serif" font-size="8.00">_to_ostream</text>
</a>
</g>
</g>
<!-- Node4&#45;&gt;Node5 -->
<g id="edge5" class="edge">
<title>Node4&#45;&gt;Node5</title>
<path fill="none" stroke="midnightblue" d="M396.12,-94.54C404.37,-96.02 413.09,-97.57 421.66,-99.1"/>
<polygon fill="midnightblue" stroke="midnightblue" points="421.16,-102.56 431.62,-100.87 422.38,-95.67 421.16,-102.56"/>
</g>
<!-- Node6 -->
<g id="node6" class="node">
<title>Node6</title>
<g id="a_node6"><a xlink:href="classflow_1_1util_1_1String__ostream.html#a7e64b069ae0e221952068c13fdc0f080" target="_top" xlink:title="Access to stream that will write to owned string.">
<polygon fill="white" stroke="black" points="440,-51.5 440,-77.5 522,-77.5 522,-51.5 440,-51.5"/>
<text text-anchor="start" x="448" y="-67.1" font-family="Helvetica,sans-Serif" font-size="8.00">flow::util::String</text>
<text text-anchor="middle" x="481" y="-58.1" font-family="Helvetica,sans-Serif" font-size="8.00">_ostream::os</text>
</a>
</g>
</g>
<!-- Node4&#45;&gt;Node6 -->
<g id="edge7" class="edge">
<title>Node4&#45;&gt;Node6</title>
<path fill="none" stroke="midnightblue" d="M396.12,-78.81C407.02,-76.95 418.74,-74.95 429.86,-73.05"/>
<polygon fill="midnightblue" stroke="midnightblue" points="430.59,-76.48 439.86,-71.35 429.41,-69.58 430.59,-76.48"/>
</g>
<!-- Node5&#45;&gt;Node5 -->
<g id="edge6" class="edge">
<title>Node5&#45;&gt;Node5</title>
<path fill="none" stroke="midnightblue" d="M459.01,-122.77C452.34,-131.96 459.67,-141 481,-141 494,-141 501.8,-137.64 504.4,-132.94"/>
<polygon fill="midnightblue" stroke="midnightblue" points="507.83,-132.2 502.99,-122.77 500.89,-133.16 507.83,-132.2"/>
</g>
</g>
</svg>
