<?xml version="1.0" encoding="UTF-8" standalone="no"?>
<!DOCTYPE svg PUBLIC "-//W3C//DTD SVG 1.1//EN"
 "http://www.w3.org/Graphics/SVG/1.1/DTD/svg11.dtd">
<!-- Generated by graphviz version 2.43.0 (0)
 -->
<!-- Title: flow::log::Config::configure_component_verbosity Pages: 1 -->
<svg width="592pt" height="125pt"
 viewBox="0.00 0.00 592.00 125.00" xmlns="http://www.w3.org/2000/svg" xmlns:xlink="http://www.w3.org/1999/xlink">
<g id="graph0" class="graph" transform="scale(1 1) rotate(0) translate(4 121)">
<title>flow::log::Config::configure_component_verbosity</title>
<polygon fill="white" stroke="transparent" points="-4,4 -4,-121 588,-121 588,4 -4,4"/>
<!-- Node1 -->
<g id="node1" class="node">
<title>Node1</title>
<g id="a_node1"><a xlink:title="Sets the per&#45;component verbosity for the given component to the given value, to be used by subsequent...">
<polygon fill="#bfbfbf" stroke="black" points="0,-18 0,-53 106,-53 106,-18 0,-18"/>
<text text-anchor="start" x="8" y="-42.6" font-family="Helvetica,sans-Serif" font-size="8.00">flow::log::Config::</text>
<text text-anchor="start" x="8" y="-33.6" font-family="Helvetica,sans-Serif" font-size="8.00">configure_component</text>
<text text-anchor="middle" x="53" y="-24.6" font-family="Helvetica,sans-Serif" font-size="8.00">_verbosity</text>
</a>
</g>
</g>
<!-- Node2 -->
<g id="node2" class="node">
<title>Node2</title>
<g id="a_node2"><a xlink:href="classflow_1_1log_1_1Config.html#af2d963a6e1e9e0fc5809764d5718e938" target="_top" xlink:title="Given a component in the form user provides it at log call sites, returns its index in the flat compo...">
<polygon fill="white" stroke="black" points="151.5,-45.5 151.5,-71.5 269.5,-71.5 269.5,-45.5 151.5,-45.5"/>
<text text-anchor="start" x="159.5" y="-61.1" font-family="Helvetica,sans-Serif" font-size="8.00">flow::log::Config::</text>
<text text-anchor="middle" x="210.5" y="-52.1" font-family="Helvetica,sans-Serif" font-size="8.00">component_to_union_idx</text>
</a>
</g>
</g>
<!-- Node1&#45;&gt;Node2 -->
<g id="edge1" class="edge">
<title>Node1&#45;&gt;Node2</title>
<path fill="none" stroke="midnightblue" d="M106.21,-43.22C117.4,-44.88 129.39,-46.65 141.09,-48.38"/>
<polygon fill="midnightblue" stroke="midnightblue" points="140.86,-51.89 151.27,-49.89 141.89,-44.96 140.86,-51.89"/>
</g>
<!-- Node7 -->
<g id="node7" class="node">
<title>Node7</title>
<g id="a_node7"><a xlink:href="classflow_1_1log_1_1Config.html#aee6877cec4b070e18a40090f080e76ca" target="_top" xlink:title="Helper that for the given flat&#45;union&#45;component&#45;index saves the given per&#45;component verbosity,...">
<polygon fill="white" stroke="black" points="142,-0.5 142,-26.5 279,-26.5 279,-0.5 142,-0.5"/>
<text text-anchor="start" x="150" y="-16.1" font-family="Helvetica,sans-Serif" font-size="8.00">flow::log::Config::</text>
<text text-anchor="middle" x="210.5" y="-7.1" font-family="Helvetica,sans-Serif" font-size="8.00">store_severity_by_component</text>
</a>
</g>
</g>
<!-- Node1&#45;&gt;Node7 -->
<g id="edge7" class="edge">
<title>Node1&#45;&gt;Node7</title>
<path fill="none" stroke="midnightblue" d="M106.21,-28.11C114.46,-26.95 123.13,-25.72 131.81,-24.49"/>
<polygon fill="midnightblue" stroke="midnightblue" points="132.55,-27.92 141.96,-23.06 131.57,-20.99 132.55,-27.92"/>
</g>
<!-- Node3 -->
<g id="node3" class="node">
<title>Node3</title>
<g id="a_node3"><a xlink:href="classflow_1_1log_1_1Component__payload__type__dict.html#afcb470076f57f851f8fff1d0322e5f66" target="_top" xlink:title="Looks up a value previously added via insert(), or indicates no such value has yet been added.">
<polygon fill="white" stroke="black" points="315,-90.5 315,-116.5 443,-116.5 443,-90.5 315,-90.5"/>
<text text-anchor="start" x="323" y="-106.1" font-family="Helvetica,sans-Serif" font-size="8.00">flow::log::Component</text>
<text text-anchor="middle" x="379" y="-97.1" font-family="Helvetica,sans-Serif" font-size="8.00">_payload_type_dict::lookup</text>
</a>
</g>
</g>
<!-- Node2&#45;&gt;Node3 -->
<g id="edge2" class="edge">
<title>Node2&#45;&gt;Node3</title>
<path fill="none" stroke="midnightblue" d="M259.66,-71.52C278.47,-76.6 300.22,-82.48 319.89,-87.79"/>
<polygon fill="midnightblue" stroke="midnightblue" points="319.09,-91.21 329.66,-90.44 320.92,-84.45 319.09,-91.21"/>
</g>
<!-- Node4 -->
<g id="node4" class="node">
<title>Node4</title>
<g id="a_node4"><a xlink:href="classflow_1_1log_1_1Component.html#a899a7d2b0c5daa8e4d666d431b9bf48e" target="_top" xlink:title="Returns the numeric value of the enum payload stored by this Component, originating in the one&#45;arg co...">
<polygon fill="white" stroke="black" points="315,-45.5 315,-71.5 443,-71.5 443,-45.5 315,-45.5"/>
<text text-anchor="start" x="323" y="-61.1" font-family="Helvetica,sans-Serif" font-size="8.00">flow::log::Component</text>
<text text-anchor="middle" x="379" y="-52.1" font-family="Helvetica,sans-Serif" font-size="8.00">::payload_enum_raw_value</text>
</a>
</g>
</g>
<!-- Node2&#45;&gt;Node4 -->
<g id="edge3" class="edge">
<title>Node2&#45;&gt;Node4</title>
<path fill="none" stroke="midnightblue" d="M269.73,-58.5C281.05,-58.5 293.04,-58.5 304.77,-58.5"/>
<polygon fill="midnightblue" stroke="midnightblue" points="304.98,-62 314.98,-58.5 304.98,-55 304.98,-62"/>
</g>
<!-- Node6 -->
<g id="node6" class="node">
<title>Node6</title>
<g id="a_node6"><a xlink:href="classflow_1_1log_1_1Component.html#a3ff8ff4d75add447b3e10ded5430833d" target="_top" xlink:title="Returns typeid(Payload), where Payload was the template param used when calling the originating one&#45;a...">
<polygon fill="white" stroke="black" points="326.5,-0.5 326.5,-26.5 431.5,-26.5 431.5,-0.5 326.5,-0.5"/>
<text text-anchor="start" x="334.5" y="-16.1" font-family="Helvetica,sans-Serif" font-size="8.00">flow::log::Component</text>
<text text-anchor="middle" x="379" y="-7.1" font-family="Helvetica,sans-Serif" font-size="8.00">::payload_type</text>
</a>
</g>
</g>
<!-- Node2&#45;&gt;Node6 -->
<g id="edge5" class="edge">
<title>Node2&#45;&gt;Node6</title>
<path fill="none" stroke="midnightblue" d="M259.66,-45.48C278.47,-40.4 300.22,-34.52 319.89,-29.21"/>
<polygon fill="midnightblue" stroke="midnightblue" points="320.92,-32.55 329.66,-26.56 319.09,-25.79 320.92,-32.55"/>
</g>
<!-- Node5 -->
<g id="node5" class="node">
<title>Node5</title>
<g id="a_node5"><a xlink:href="classflow_1_1log_1_1Component.html#a5af2f66731c407bd519a873706bd04c4" target="_top" xlink:title="Returns true if *this is as if default&#45;constructed (a null Component); false if as if constructed via...">
<polygon fill="white" stroke="black" points="479,-22.5 479,-48.5 584,-48.5 584,-22.5 479,-22.5"/>
<text text-anchor="start" x="487" y="-38.1" font-family="Helvetica,sans-Serif" font-size="8.00">flow::log::Component</text>
<text text-anchor="middle" x="531.5" y="-29.1" font-family="Helvetica,sans-Serif" font-size="8.00">::empty</text>
</a>
</g>
</g>
<!-- Node4&#45;&gt;Node5 -->
<g id="edge4" class="edge">
<title>Node4&#45;&gt;Node5</title>
<path fill="none" stroke="midnightblue" d="M443.39,-48.81C451.73,-47.54 460.27,-46.23 468.58,-44.96"/>
<polygon fill="midnightblue" stroke="midnightblue" points="469.22,-48.41 478.58,-43.43 468.17,-41.49 469.22,-48.41"/>
</g>
<!-- Node6&#45;&gt;Node5 -->
<g id="edge6" class="edge">
<title>Node6&#45;&gt;Node5</title>
<path fill="none" stroke="midnightblue" d="M431.79,-21.07C443.68,-22.81 456.44,-24.67 468.71,-26.47"/>
<polygon fill="midnightblue" stroke="midnightblue" points="468.46,-29.97 478.87,-27.95 469.48,-23.04 468.46,-29.97"/>
</g>
</g>
</svg>
