<?xml version="1.0" encoding="UTF-8" standalone="no"?>
<!DOCTYPE svg PUBLIC "-//W3C//DTD SVG 1.1//EN"
 "http://www.w3.org/Graphics/SVG/1.1/DTD/svg11.dtd">
<!-- Generated by graphviz version 2.43.0 (0)
 -->
<!-- Title: flow::net_flow::Drop_timer::end_contemporaneous_events Pages: 1 -->
<svg width="431pt" height="225pt"
 viewBox="0.00 0.00 431.00 225.00" xmlns="http://www.w3.org/2000/svg" xmlns:xlink="http://www.w3.org/1999/xlink">
<g id="graph0" class="graph" transform="scale(1 1) rotate(0) translate(4 221)">
<title>flow::net_flow::Drop_timer::end_contemporaneous_events</title>
<polygon fill="white" stroke="transparent" points="-4,4 -4,-221 427,-221 427,4 -4,4"/>
<!-- Node1 -->
<g id="node1" class="node">
<title>Node1</title>
<g id="a_node1"><a xlink:title="Finishes the group started by start start_contemporaneous_events().">
<polygon fill="#bfbfbf" stroke="black" points="0,-132 0,-167 142,-167 142,-132 0,-132"/>
<text text-anchor="start" x="8" y="-156.6" font-family="Helvetica,sans-Serif" font-size="8.00">flow::net_flow::Drop</text>
<text text-anchor="start" x="8" y="-147.6" font-family="Helvetica,sans-Serif" font-size="8.00">_timer::end_contemporaneous</text>
<text text-anchor="middle" x="71" y="-138.6" font-family="Helvetica,sans-Serif" font-size="8.00">_events</text>
</a>
</g>
</g>
<!-- Node2 -->
<g id="node2" class="node">
<title>Node2</title>
<g id="a_node2"><a xlink:href="classflow_1_1net__flow_1_1Drop__timer.html#ad655d5461aa5a6bf9a80d28e4a4fdd77" target="_top" xlink:title="Invalidates the running asynchronous wait on m_timer. Pre&#45;condition: m_timer_running.">
<polygon fill="white" stroke="black" points="178,-177.5 178,-203.5 280,-203.5 280,-177.5 178,-177.5"/>
<text text-anchor="start" x="186" y="-193.1" font-family="Helvetica,sans-Serif" font-size="8.00">flow::net_flow::Drop</text>
<text text-anchor="middle" x="229" y="-184.1" font-family="Helvetica,sans-Serif" font-size="8.00">_timer::disable_timer</text>
</a>
</g>
</g>
<!-- Node1&#45;&gt;Node2 -->
<g id="edge1" class="edge">
<title>Node1&#45;&gt;Node2</title>
<path fill="none" stroke="midnightblue" d="M138.61,-167.01C148.44,-169.59 158.53,-172.24 168.21,-174.79"/>
<polygon fill="midnightblue" stroke="midnightblue" points="167.57,-178.24 178.13,-177.39 169.35,-171.47 167.57,-178.24"/>
</g>
<!-- Node3 -->
<g id="node3" class="node">
<title>Node3</title>
<g id="a_node3"><a xlink:href="namespaceflow_1_1util.html#a03984e29450abf9cf287c501d6c8f866" target="_top" xlink:title="Returns true if and only if the given key is present at least once in the given associative container...">
<polygon fill="white" stroke="black" points="179.5,-141 179.5,-158 278.5,-158 278.5,-141 179.5,-141"/>
<text text-anchor="middle" x="229" y="-147.6" font-family="Helvetica,sans-Serif" font-size="8.00">flow::util::key_exists</text>
</a>
</g>
</g>
<!-- Node1&#45;&gt;Node3 -->
<g id="edge2" class="edge">
<title>Node1&#45;&gt;Node3</title>
<path fill="none" stroke="midnightblue" d="M142.24,-149.5C151.19,-149.5 160.28,-149.5 169.03,-149.5"/>
<polygon fill="midnightblue" stroke="midnightblue" points="169.12,-153 179.12,-149.5 169.12,-146 169.12,-153"/>
</g>
<!-- Node4 -->
<g id="node4" class="node">
<title>Node4</title>
<g id="a_node4"><a xlink:href="classflow_1_1net__flow_1_1Drop__timer.html#a4a5f0bbb91232e17e258722e4dfa237b" target="_top" xlink:title="Starts a new wait on the timer, so that is it asynchronously triggered according to the current DTO v...">
<polygon fill="white" stroke="black" points="180,-95.5 180,-121.5 278,-121.5 278,-95.5 180,-95.5"/>
<text text-anchor="start" x="188" y="-111.1" font-family="Helvetica,sans-Serif" font-size="8.00">flow::net_flow::Drop</text>
<text text-anchor="middle" x="229" y="-102.1" font-family="Helvetica,sans-Serif" font-size="8.00">_timer::start_timer</text>
</a>
</g>
</g>
<!-- Node1&#45;&gt;Node4 -->
<g id="edge3" class="edge">
<title>Node1&#45;&gt;Node4</title>
<path fill="none" stroke="midnightblue" d="M138.61,-131.99C148.92,-129.28 159.5,-126.5 169.61,-123.85"/>
<polygon fill="midnightblue" stroke="midnightblue" points="170.76,-127.16 179.54,-121.24 168.98,-120.39 170.76,-127.16"/>
</g>
<!-- Node5 -->
<g id="node5" class="node">
<title>Node5</title>
<g id="a_node5"><a xlink:href="classflow_1_1log_1_1Log__context.html#a8a5fef42dc2cedf3c0d1a6e83beb2948" target="_top" xlink:title="Returns reference to the stored Component object, particularly as many FLOW_LOG_*() macros expect.">
<polygon fill="white" stroke="black" points="316,-190.5 316,-216.5 423,-216.5 423,-190.5 316,-190.5"/>
<text text-anchor="start" x="324" y="-206.1" font-family="Helvetica,sans-Serif" font-size="8.00">flow::log::Log_context</text>
<text text-anchor="middle" x="369.5" y="-197.1" font-family="Helvetica,sans-Serif" font-size="8.00">::get_log_component</text>
</a>
</g>
</g>
<!-- Node4&#45;&gt;Node5 -->
<g id="edge4" class="edge">
<title>Node4&#45;&gt;Node5</title>
<path fill="none" stroke="midnightblue" d="M264.74,-121.62C270.14,-124.44 275.43,-127.73 280,-131.5 301.14,-148.91 294.57,-164.46 316,-181.5 317.6,-182.77 319.27,-183.98 321.01,-185.12"/>
<polygon fill="midnightblue" stroke="midnightblue" points="319.69,-188.4 330.1,-190.37 323.19,-182.34 319.69,-188.4"/>
</g>
<!-- Node6 -->
<g id="node6" class="node">
<title>Node6</title>
<g id="a_node6"><a xlink:href="classflow_1_1log_1_1Log__context.html#af4db395042b065b00398cd59845dcb4d" target="_top" xlink:title="Returns the stored Logger pointer, particularly as many FLOW_LOG_*() macros expect.">
<polygon fill="white" stroke="black" points="316,-145.5 316,-171.5 423,-171.5 423,-145.5 316,-145.5"/>
<text text-anchor="start" x="324" y="-161.1" font-family="Helvetica,sans-Serif" font-size="8.00">flow::log::Log_context</text>
<text text-anchor="middle" x="369.5" y="-152.1" font-family="Helvetica,sans-Serif" font-size="8.00">::get_logger</text>
</a>
</g>
</g>
<!-- Node4&#45;&gt;Node6 -->
<g id="edge5" class="edge">
<title>Node4&#45;&gt;Node6</title>
<path fill="none" stroke="midnightblue" d="M266.03,-121.51C283.28,-127.74 304.15,-135.27 322.53,-141.91"/>
<polygon fill="midnightblue" stroke="midnightblue" points="321.58,-145.28 332.17,-145.39 323.95,-138.7 321.58,-145.28"/>
</g>
<!-- Node7 -->
<g id="node7" class="node">
<title>Node7</title>
<g id="a_node7"><a xlink:href="classflow_1_1net__flow_1_1Drop__timer.html#aaf4f0fce1d41e16309beca40a126e2f0" target="_top" xlink:title="Called by boost.asio when the Drop Timer fires; disables timer and calls an outside action callback (...">
<polygon fill="white" stroke="black" points="319,-91 319,-126 420,-126 420,-91 319,-91"/>
<text text-anchor="start" x="327" y="-115.6" font-family="Helvetica,sans-Serif" font-size="8.00">flow::net_flow::Drop</text>
<text text-anchor="start" x="327" y="-106.6" font-family="Helvetica,sans-Serif" font-size="8.00">_timer::handle_timer</text>
<text text-anchor="middle" x="369.5" y="-97.6" font-family="Helvetica,sans-Serif" font-size="8.00">_firing</text>
</a>
</g>
</g>
<!-- Node4&#45;&gt;Node7 -->
<g id="edge6" class="edge">
<title>Node4&#45;&gt;Node7</title>
<path fill="none" stroke="midnightblue" d="M278.05,-108.5C287.9,-108.5 298.37,-108.5 308.57,-108.5"/>
<polygon fill="midnightblue" stroke="midnightblue" points="308.65,-112 318.65,-108.5 308.65,-105 308.65,-112"/>
</g>
<!-- Node8 -->
<g id="node8" class="node">
<title>Node8</title>
<g id="a_node8"><a xlink:href="classflow_1_1log_1_1Logger.html#ac8a2e7a33fe3fbc0c29ead62ed98c022" target="_top" xlink:title="Given attributes of a hypothetical message that would be logged, return true if that message should b...">
<polygon fill="white" stroke="black" points="323.5,-45.5 323.5,-71.5 415.5,-71.5 415.5,-45.5 323.5,-45.5"/>
<text text-anchor="start" x="331.5" y="-61.1" font-family="Helvetica,sans-Serif" font-size="8.00">flow::log::Logger::</text>
<text text-anchor="middle" x="369.5" y="-52.1" font-family="Helvetica,sans-Serif" font-size="8.00">should_log</text>
</a>
</g>
</g>
<!-- Node4&#45;&gt;Node8 -->
<g id="edge7" class="edge">
<title>Node4&#45;&gt;Node8</title>
<path fill="none" stroke="midnightblue" d="M266.03,-95.49C283.28,-89.26 304.15,-81.73 322.53,-75.09"/>
<polygon fill="midnightblue" stroke="midnightblue" points="323.95,-78.3 332.17,-71.61 321.58,-71.72 323.95,-78.3"/>
</g>
<!-- Node9 -->
<g id="node9" class="node">
<title>Node9</title>
<g id="a_node9"><a xlink:href="classflow_1_1net__flow_1_1Drop__timer.html#a40029643f0a6c7a2a6b20499ca4c5a67" target="_top" xlink:title="Called by boost.asio after we post it, in the event of some timer error.">
<polygon fill="white" stroke="black" points="320.5,-0.5 320.5,-26.5 418.5,-26.5 418.5,-0.5 320.5,-0.5"/>
<text text-anchor="start" x="328.5" y="-16.1" font-family="Helvetica,sans-Serif" font-size="8.00">flow::net_flow::Drop</text>
<text text-anchor="middle" x="369.5" y="-7.1" font-family="Helvetica,sans-Serif" font-size="8.00">_timer::timer_failure</text>
</a>
</g>
</g>
<!-- Node4&#45;&gt;Node9 -->
<g id="edge8" class="edge">
<title>Node4&#45;&gt;Node9</title>
<path fill="none" stroke="midnightblue" d="M243.07,-95.49C259.17,-79.97 287.87,-53.94 316,-36.5 319.01,-34.63 322.2,-32.84 325.45,-31.14"/>
<polygon fill="midnightblue" stroke="midnightblue" points="327.29,-34.14 334.73,-26.6 324.21,-27.85 327.29,-34.14"/>
</g>
</g>
</svg>
