<?xml version="1.0" encoding="UTF-8" standalone="no"?>
<!DOCTYPE svg PUBLIC "-//W3C//DTD SVG 1.1//EN"
 "http://www.w3.org/Graphics/SVG/1.1/DTD/svg11.dtd">
<!-- Generated by graphviz version 2.43.0 (0)
 -->
<!-- Title: flow::net_flow::Node::event_set_all_check_delta Pages: 1 -->
<svg width="1437pt" height="588pt"
 viewBox="0.00 0.00 1437.00 587.50" xmlns="http://www.w3.org/2000/svg" xmlns:xlink="http://www.w3.org/1999/xlink">
<g id="graph0" class="graph" transform="scale(1 1) rotate(0) translate(4 583.5)">
<title>flow::net_flow::Node::event_set_all_check_delta</title>
<polygon fill="white" stroke="transparent" points="-4,4 -4,-583.5 1433,-583.5 1433,4 -4,4"/>
<!-- Node1 -->
<g id="node1" class="node">
<title>Node1</title>
<g id="a_node1"><a xlink:title="For each WAITING Event_set within the Node: checks for any events that hold, and if any do hold,...">
<polygon fill="#bfbfbf" stroke="black" points="1301,-294 1301,-320 1429,-320 1429,-294 1301,-294"/>
<text text-anchor="start" x="1309" y="-309.6" font-family="Helvetica,sans-Serif" font-size="8.00">flow::net_flow::Node</text>
<text text-anchor="middle" x="1365" y="-300.6" font-family="Helvetica,sans-Serif" font-size="8.00">::event_set_all_check_delta</text>
</a>
</g>
</g>
<!-- Node2 -->
<g id="node2" class="node">
<title>Node2</title>
<g id="a_node2"><a xlink:href="classflow_1_1net__flow_1_1Node.html#ade49e7bc7202a0adf33fec2d93d1b177" target="_top" xlink:title="A thread W method that handles the transition of the given socket from OPEN (any sub&#45;state) to CLOSED...">
<polygon fill="white" stroke="black" points="1117,-294 1117,-320 1265,-320 1265,-294 1117,-294"/>
<text text-anchor="start" x="1125" y="-309.6" font-family="Helvetica,sans-Serif" font-size="8.00">flow::net_flow::Node</text>
<text text-anchor="middle" x="1191" y="-300.6" font-family="Helvetica,sans-Serif" font-size="8.00">::close_connection_immediately</text>
</a>
</g>
</g>
<!-- Node1&#45;&gt;Node2 -->
<g id="edge1" class="edge">
<title>Node1&#45;&gt;Node2</title>
<path fill="none" stroke="midnightblue" d="M1290.74,-307C1282.3,-307 1273.7,-307 1265.26,-307"/>
<polygon fill="midnightblue" stroke="midnightblue" points="1290.93,-310.5 1300.93,-307 1290.93,-303.5 1290.93,-310.5"/>
</g>
<!-- Node17 -->
<g id="node10" class="node">
<title>Node17</title>
<g id="a_node10"><a xlink:href="classflow_1_1net__flow_1_1Node.html#a10a92f11a2c9f218cdd9a55f282e79b1" target="_top" xlink:title="Thread W implemention of send(): synchronously or asynchronously send the contents of sock&#45;&gt;m_snd_buf...">
<polygon fill="white" stroke="black" points="791.5,-553 791.5,-579 892.5,-579 892.5,-553 791.5,-553"/>
<text text-anchor="start" x="799.5" y="-568.6" font-family="Helvetica,sans-Serif" font-size="8.00">flow::net_flow::Node</text>
<text text-anchor="middle" x="842" y="-559.6" font-family="Helvetica,sans-Serif" font-size="8.00">::send_worker</text>
</a>
</g>
</g>
<!-- Node1&#45;&gt;Node17 -->
<g id="edge38" class="edge">
<title>Node1&#45;&gt;Node17</title>
<path fill="none" stroke="midnightblue" d="M1354.3,-329.38C1339.58,-360.68 1308.63,-417.14 1265,-448 1148.71,-530.26 976.76,-555.32 892.8,-562.84"/>
<polygon fill="midnightblue" stroke="midnightblue" points="1357.54,-330.72 1358.5,-320.17 1351.17,-327.81 1357.54,-330.72"/>
</g>
<!-- Node37 -->
<g id="node20" class="node">
<title>Node37</title>
<g id="a_node20"><a xlink:href="classflow_1_1net__flow_1_1Node.html#a29d02f9e302c7b06288ff1c644fa8d65" target="_top" xlink:title="Handles a just&#45;deserialized, just&#45;demultiplexed low&#45;level SYN_ACK_ACK packet delivered to the given p...">
<polygon fill="white" stroke="black" points="615,-122.5 615,-157.5 720,-157.5 720,-122.5 615,-122.5"/>
<text text-anchor="start" x="623" y="-147.1" font-family="Helvetica,sans-Serif" font-size="8.00">flow::net_flow::Node</text>
<text text-anchor="start" x="623" y="-138.1" font-family="Helvetica,sans-Serif" font-size="8.00">::handle_syn_ack_ack</text>
<text text-anchor="middle" x="667.5" y="-129.1" font-family="Helvetica,sans-Serif" font-size="8.00">_to_syn_rcvd</text>
</a>
</g>
</g>
<!-- Node1&#45;&gt;Node37 -->
<g id="edge34" class="edge">
<title>Node1&#45;&gt;Node37</title>
<path fill="none" stroke="midnightblue" d="M1334,-288.76C1264.06,-247.43 1083.47,-147.57 917,-113 851.73,-99.45 833.07,-104.11 767,-113 751.54,-115.08 735.06,-118.92 720.1,-123.07"/>
<polygon fill="midnightblue" stroke="midnightblue" points="1332.35,-291.85 1342.74,-293.96 1335.93,-285.84 1332.35,-291.85"/>
</g>
<!-- Node45 -->
<g id="node25" class="node">
<title>Node45</title>
<g id="a_node25"><a xlink:href="classflow_1_1net__flow_1_1Node.html#adf6d71af81def2d030f0fef159c1b06d" target="_top" xlink:title="Handles the transition of the given server socket from S_LISTENING/S_CLOSING to S_CLOSED (including e...">
<polygon fill="white" stroke="black" points="1139.5,-403.5 1139.5,-438.5 1242.5,-438.5 1242.5,-403.5 1139.5,-403.5"/>
<text text-anchor="start" x="1147.5" y="-428.1" font-family="Helvetica,sans-Serif" font-size="8.00">flow::net_flow::Node</text>
<text text-anchor="start" x="1147.5" y="-419.1" font-family="Helvetica,sans-Serif" font-size="8.00">::close_empty_server</text>
<text text-anchor="middle" x="1191" y="-410.1" font-family="Helvetica,sans-Serif" font-size="8.00">_immediately</text>
</a>
</g>
</g>
<!-- Node1&#45;&gt;Node45 -->
<g id="edge32" class="edge">
<title>Node1&#45;&gt;Node45</title>
<path fill="none" stroke="midnightblue" d="M1335.67,-325.77C1303.16,-347.32 1250.24,-382.4 1218.51,-403.43"/>
<polygon fill="midnightblue" stroke="midnightblue" points="1337.87,-328.52 1344.27,-320.08 1334,-322.68 1337.87,-328.52"/>
</g>
<!-- Node46 -->
<g id="node26" class="node">
<title>Node46</title>
<g id="a_node26"><a xlink:href="classflow_1_1net__flow_1_1Node.html#a0fba26db0055a969f3869014bc5c2bfc" target="_top" xlink:title="Performs all tasks to be performed at the end of low_lvl_recv_and_handle() or async part of async_wai...">
<polygon fill="white" stroke="black" points="456,-0.5 456,-35.5 568,-35.5 568,-0.5 456,-0.5"/>
<text text-anchor="start" x="464" y="-25.1" font-family="Helvetica,sans-Serif" font-size="8.00">flow::net_flow::Node</text>
<text text-anchor="start" x="464" y="-16.1" font-family="Helvetica,sans-Serif" font-size="8.00">::perform_accumulated</text>
<text text-anchor="middle" x="512" y="-7.1" font-family="Helvetica,sans-Serif" font-size="8.00">_on_recv_tasks</text>
</a>
</g>
</g>
<!-- Node1&#45;&gt;Node46 -->
<g id="edge35" class="edge">
<title>Node1&#45;&gt;Node46</title>
<path fill="none" stroke="midnightblue" d="M1351.86,-284.85C1312.98,-217.22 1184.35,-18 1018,-18 1018,-18 1018,-18 841,-18 745.05,-18 633.31,-18 568.13,-18"/>
<polygon fill="midnightblue" stroke="midnightblue" points="1348.97,-286.85 1356.93,-293.83 1355.06,-283.4 1348.97,-286.85"/>
</g>
<!-- Node3 -->
<g id="node3" class="node">
<title>Node3</title>
<g id="a_node3"><a xlink:href="classflow_1_1net__flow_1_1Node.html#aa5f7c019665d9dd91af0ad6431f8f97d" target="_top" xlink:title="Similar to async_sock_low_lvl_packet_send_paced() except it also calls close_connection_immediately(s...">
<polygon fill="white" stroke="black" points="962,-362 962,-406 1072,-406 1072,-362 962,-362"/>
<text text-anchor="start" x="970" y="-395.6" font-family="Helvetica,sans-Serif" font-size="8.00">flow::net_flow::Node</text>
<text text-anchor="start" x="970" y="-386.6" font-family="Helvetica,sans-Serif" font-size="8.00">::async_sock_low_lvl</text>
<text text-anchor="start" x="970" y="-377.6" font-family="Helvetica,sans-Serif" font-size="8.00">_packet_send_or_close</text>
<text text-anchor="middle" x="1017" y="-368.6" font-family="Helvetica,sans-Serif" font-size="8.00">_immediately</text>
</a>
</g>
</g>
<!-- Node2&#45;&gt;Node3 -->
<g id="edge2" class="edge">
<title>Node2&#45;&gt;Node3</title>
<path fill="none" stroke="midnightblue" d="M1151.69,-324.15C1126.78,-335.3 1094.06,-349.95 1067.23,-361.96"/>
<polygon fill="midnightblue" stroke="midnightblue" points="1153.13,-327.34 1160.82,-320.06 1150.27,-320.95 1153.13,-327.34"/>
</g>
<!-- Node27 -->
<g id="node12" class="node">
<title>Node27</title>
<g id="a_node12"><a xlink:href="classflow_1_1net__flow_1_1Node.html#a1699dfdaf3e5ebe1b1d715a9c306d116" target="_top" xlink:title="Handles a just&#45;received, not&#45;yet&#45;deserialized low&#45;level packet.">
<polygon fill="white" stroke="black" points="461.5,-85 461.5,-111 562.5,-111 562.5,-85 461.5,-85"/>
<text text-anchor="start" x="469.5" y="-100.6" font-family="Helvetica,sans-Serif" font-size="8.00">flow::net_flow::Node</text>
<text text-anchor="middle" x="512" y="-91.6" font-family="Helvetica,sans-Serif" font-size="8.00">::handle_incoming</text>
</a>
</g>
</g>
<!-- Node2&#45;&gt;Node27 -->
<g id="edge12" class="edge">
<title>Node2&#45;&gt;Node27</title>
<path fill="none" stroke="midnightblue" d="M1170.37,-286.1C1140.39,-254.22 1086.1,-196.72 1081,-193 1015.51,-145.17 995.67,-132.71 917,-113 792.58,-81.83 639.92,-87.52 562.74,-93.33"/>
<polygon fill="midnightblue" stroke="midnightblue" points="1168.03,-288.71 1177.43,-293.6 1173.13,-283.92 1168.03,-288.71"/>
</g>
<!-- Node33 -->
<g id="node16" class="node">
<title>Node33</title>
<g id="a_node16"><a xlink:href="classflow_1_1net__flow_1_1Node.html#ad608f9bbe76426f4fbf4bf5af908e4e0" target="_top" xlink:title="Placed by receive() onto W during a graceful close, after the Receive buffer had been emptied by the ...">
<polygon fill="white" stroke="black" points="956.5,-289.5 956.5,-324.5 1077.5,-324.5 1077.5,-289.5 956.5,-289.5"/>
<text text-anchor="start" x="964.5" y="-314.1" font-family="Helvetica,sans-Serif" font-size="8.00">flow::net_flow::Node</text>
<text text-anchor="start" x="964.5" y="-305.1" font-family="Helvetica,sans-Serif" font-size="8.00">::receive_emptied_rcv</text>
<text text-anchor="middle" x="1017" y="-296.1" font-family="Helvetica,sans-Serif" font-size="8.00">_buf_while_disconnecting</text>
</a>
</g>
</g>
<!-- Node2&#45;&gt;Node33 -->
<g id="edge18" class="edge">
<title>Node2&#45;&gt;Node33</title>
<path fill="none" stroke="midnightblue" d="M1106.47,-307C1096.76,-307 1087.01,-307 1077.71,-307"/>
<polygon fill="midnightblue" stroke="midnightblue" points="1106.56,-310.5 1116.56,-307 1106.56,-303.5 1106.56,-310.5"/>
</g>
<!-- Node34 -->
<g id="node17" class="node">
<title>Node34</title>
<g id="a_node17"><a xlink:href="classflow_1_1net__flow_1_1Node.html#afe70a0c32695e417e7a09e0ba773f151" target="_top" xlink:title="Asynchronously send RST to the other side of the given socket and close_connection_immediately().">
<polygon fill="white" stroke="black" points="953,-202.5 953,-237.5 1081,-237.5 1081,-202.5 953,-202.5"/>
<text text-anchor="start" x="961" y="-227.1" font-family="Helvetica,sans-Serif" font-size="8.00">flow::net_flow::Node</text>
<text text-anchor="start" x="961" y="-218.1" font-family="Helvetica,sans-Serif" font-size="8.00">::rst_and_close_connection</text>
<text text-anchor="middle" x="1017" y="-209.1" font-family="Helvetica,sans-Serif" font-size="8.00">_immediately</text>
</a>
</g>
</g>
<!-- Node2&#45;&gt;Node34 -->
<g id="edge20" class="edge">
<title>Node2&#45;&gt;Node34</title>
<path fill="none" stroke="midnightblue" d="M1155.06,-289.33C1125.26,-274.25 1082.64,-252.7 1052.87,-237.64"/>
<polygon fill="midnightblue" stroke="midnightblue" points="1153.75,-292.58 1164.25,-293.98 1156.91,-286.34 1153.75,-292.58"/>
</g>
<!-- Node32 -->
<g id="node24" class="node">
<title>Node32</title>
<g id="a_node24"><a xlink:href="classflow_1_1net__flow_1_1Node.html#a5b056ed753b832458f44f537acfe86d7" target="_top" xlink:title="Worker thread W (main event loop) body.">
<polygon fill="white" stroke="black" points="966.5,-425 966.5,-451 1067.5,-451 1067.5,-425 966.5,-425"/>
<text text-anchor="start" x="974.5" y="-440.6" font-family="Helvetica,sans-Serif" font-size="8.00">flow::net_flow::Node</text>
<text text-anchor="middle" x="1017" y="-431.6" font-family="Helvetica,sans-Serif" font-size="8.00">::worker_run</text>
</a>
</g>
</g>
<!-- Node2&#45;&gt;Node32 -->
<g id="edge31" class="edge">
<title>Node2&#45;&gt;Node32</title>
<path fill="none" stroke="midnightblue" d="M1173.67,-327.94C1153.99,-351.92 1118.83,-391 1081,-415 1075,-418.81 1068.29,-422.1 1061.53,-424.92"/>
<polygon fill="midnightblue" stroke="midnightblue" points="1176.41,-330.11 1179.96,-320.13 1170.96,-325.72 1176.41,-330.11"/>
</g>
<!-- Node4 -->
<g id="node4" class="node">
<title>Node4</title>
<g id="a_node4"><a xlink:href="classflow_1_1net__flow_1_1Node.html#a81e50276d0b162f6577adc690e0ef9e0" target="_top" xlink:title="Sends a low&#45;level ACK packet, with all accumulated in Peer_socket::m_rcv_pending_acks of sock individ...">
<polygon fill="white" stroke="black" points="782.5,-390 782.5,-416 901.5,-416 901.5,-390 782.5,-390"/>
<text text-anchor="start" x="790.5" y="-405.6" font-family="Helvetica,sans-Serif" font-size="8.00">flow::net_flow::Node</text>
<text text-anchor="middle" x="842" y="-396.6" font-family="Helvetica,sans-Serif" font-size="8.00">::async_low_lvl_ack_send</text>
</a>
</g>
</g>
<!-- Node3&#45;&gt;Node4 -->
<g id="edge3" class="edge">
<title>Node3&#45;&gt;Node4</title>
<path fill="none" stroke="midnightblue" d="M951.68,-391.06C935.26,-392.87 917.69,-394.8 901.57,-396.57"/>
<polygon fill="midnightblue" stroke="midnightblue" points="952.18,-394.53 961.74,-389.96 951.41,-387.57 952.18,-394.53"/>
</g>
<!-- Node5 -->
<g id="node5" class="node">
<title>Node5</title>
<g id="a_node5"><a xlink:href="classflow_1_1net__flow_1_1Node.html#acaf55766783893827061fd85cab2634f" target="_top" xlink:title="Helper to create, fully fill out, and asynchronously send via async_sock_low_lvl_packet_send_or_close...">
<polygon fill="white" stroke="black" points="767,-335.5 767,-370.5 917,-370.5 917,-335.5 767,-335.5"/>
<text text-anchor="start" x="775" y="-360.1" font-family="Helvetica,sans-Serif" font-size="8.00">flow::net_flow::Node</text>
<text text-anchor="start" x="775" y="-351.1" font-family="Helvetica,sans-Serif" font-size="8.00">::async_low_lvl_syn_ack</text>
<text text-anchor="middle" x="842" y="-342.1" font-family="Helvetica,sans-Serif" font-size="8.00">_ack_send_or_close_immediately</text>
</a>
</g>
</g>
<!-- Node3&#45;&gt;Node5 -->
<g id="edge4" class="edge">
<title>Node3&#45;&gt;Node5</title>
<path fill="none" stroke="midnightblue" d="M951.57,-372.46C940.32,-370.44 928.53,-368.33 917.04,-366.27"/>
<polygon fill="midnightblue" stroke="midnightblue" points="951.28,-375.96 961.74,-374.28 952.51,-369.07 951.28,-375.96"/>
</g>
<!-- Node6 -->
<g id="node6" class="node">
<title>Node6</title>
<g id="a_node6"><a xlink:href="classflow_1_1net__flow_1_1Node.html#a192d4b95b9f8a5c3d08b1e5486eb6f78" target="_top" xlink:title="receive_wnd_updated() helper that continues rcv_wnd recovery: that is, sends unsolicited ACK with a r...">
<polygon fill="white" stroke="black" points="781,-490 781,-516 903,-516 903,-490 781,-490"/>
<text text-anchor="start" x="789" y="-505.6" font-family="Helvetica,sans-Serif" font-size="8.00">flow::net_flow::Node</text>
<text text-anchor="middle" x="842" y="-496.6" font-family="Helvetica,sans-Serif" font-size="8.00">::async_rcv_wnd_recovery</text>
</a>
</g>
</g>
<!-- Node3&#45;&gt;Node6 -->
<g id="edge5" class="edge">
<title>Node3&#45;&gt;Node6</title>
<path fill="none" stroke="midnightblue" d="M955.92,-412.37C954.92,-413.22 953.94,-414.1 953,-415 929.09,-437.78 942.61,-459.15 917,-480 912.2,-483.91 906.74,-487.15 901,-489.85"/>
<polygon fill="midnightblue" stroke="midnightblue" points="958.19,-415.03 964.05,-406.2 953.97,-409.46 958.19,-415.03"/>
</g>
<!-- Node16 -->
<g id="node9" class="node">
<title>Node16</title>
<g id="a_node9"><a xlink:href="classflow_1_1net__flow_1_1Node.html#addd654cb6b1ccff34ddccbe5226be8f0" target="_top" xlink:title="Handles the triggering of the retransmit timer wait set up by setup_connection_timers(); it will re&#45;s...">
<polygon fill="white" stroke="black" points="777.5,-435.5 777.5,-470.5 906.5,-470.5 906.5,-435.5 777.5,-435.5"/>
<text text-anchor="start" x="785.5" y="-460.1" font-family="Helvetica,sans-Serif" font-size="8.00">flow::net_flow::Node</text>
<text text-anchor="start" x="785.5" y="-451.1" font-family="Helvetica,sans-Serif" font-size="8.00">::handle_connection_rexmit</text>
<text text-anchor="middle" x="842" y="-442.1" font-family="Helvetica,sans-Serif" font-size="8.00">_timer_event</text>
</a>
</g>
</g>
<!-- Node3&#45;&gt;Node16 -->
<g id="edge9" class="edge">
<title>Node3&#45;&gt;Node16</title>
<path fill="none" stroke="midnightblue" d="M954.4,-409.86C942.04,-414.95 929.13,-420.2 917,-425 908.32,-428.44 899.02,-432.03 890.06,-435.44"/>
<polygon fill="midnightblue" stroke="midnightblue" points="955.81,-413.06 963.72,-406.01 953.14,-406.59 955.81,-413.06"/>
</g>
<!-- Node3&#45;&gt;Node17 -->
<g id="edge10" class="edge">
<title>Node3&#45;&gt;Node17</title>
<path fill="none" stroke="midnightblue" d="M954.85,-412.89C954.21,-413.58 953.6,-414.28 953,-415 914.98,-460.8 958.73,-501.56 917,-544 910.33,-550.79 901.66,-555.5 892.63,-558.77"/>
<polygon fill="midnightblue" stroke="midnightblue" points="957.28,-415.41 962.3,-406.08 952.56,-410.24 957.28,-415.41"/>
</g>
<!-- Node6&#45;&gt;Node6 -->
<g id="edge6" class="edge">
<title>Node6&#45;&gt;Node6</title>
<path fill="none" stroke="midnightblue" d="M873.57,-526.08C870.37,-530.97 859.84,-534.5 842,-534.5 813.45,-534.5 803.64,-525.46 812.56,-516.27"/>
<polygon fill="midnightblue" stroke="midnightblue" points="876.98,-525.3 871.44,-516.27 870.14,-526.79 876.98,-525.3"/>
</g>
<!-- Node7 -->
<g id="node7" class="node">
<title>Node7</title>
<g id="a_node7"><a xlink:href="classflow_1_1net__flow_1_1Node.html#a08cf95363b26c0c676979437e34db357" target="_top" xlink:title="Placed by receive() onto W if it has dequeued data from Receive buffer and given it to the user,...">
<polygon fill="white" stroke="black" points="611.5,-413 611.5,-439 723.5,-439 723.5,-413 611.5,-413"/>
<text text-anchor="start" x="619.5" y="-428.6" font-family="Helvetica,sans-Serif" font-size="8.00">flow::net_flow::Node</text>
<text text-anchor="middle" x="667.5" y="-419.6" font-family="Helvetica,sans-Serif" font-size="8.00">::receive_wnd_updated</text>
</a>
</g>
</g>
<!-- Node6&#45;&gt;Node7 -->
<g id="edge7" class="edge">
<title>Node6&#45;&gt;Node7</title>
<path fill="none" stroke="midnightblue" d="M784.1,-486.59C778.26,-484.53 772.47,-482.32 767,-480 739.17,-468.19 708.93,-450.88 689.4,-439.07"/>
<polygon fill="midnightblue" stroke="midnightblue" points="783.31,-490.02 793.91,-489.92 785.56,-483.39 783.31,-490.02"/>
</g>
<!-- Node8 -->
<g id="node8" class="node">
<title>Node8</title>
<g id="a_node8"><a xlink:href="classflow_1_1net__flow_1_1Node.html#addbb96858fd7b3c9ddd7c6fe8078809c" target="_top" xlink:title="Implementation of non&#45;blocking sock&#45;&gt;receive() for socket sock in all cases except when sock&#45;&gt;state()...">
<polygon fill="white" stroke="red" points="461.5,-353 461.5,-379 562.5,-379 562.5,-353 461.5,-353"/>
<text text-anchor="start" x="469.5" y="-368.6" font-family="Helvetica,sans-Serif" font-size="8.00">flow::net_flow::Node</text>
<text text-anchor="middle" x="512" y="-359.6" font-family="Helvetica,sans-Serif" font-size="8.00">::receive</text>
</a>
</g>
</g>
<!-- Node7&#45;&gt;Node8 -->
<g id="edge8" class="edge">
<title>Node7&#45;&gt;Node8</title>
<path fill="none" stroke="midnightblue" d="M623.81,-409.31C599.39,-399.77 569.2,-387.97 546.51,-379.1"/>
<polygon fill="midnightblue" stroke="midnightblue" points="622.6,-412.6 633.19,-412.98 625.15,-406.08 622.6,-412.6"/>
</g>
<!-- Node18 -->
<g id="node11" class="node">
<title>Node18</title>
<g id="a_node11"><a xlink:href="classflow_1_1net__flow_1_1Node.html#a2565b7c0bd82cad86eb168b62f8ffd9d" target="_top" xlink:title="Helper placed by send() onto W to invoke send_worker() but ensures that the socket has not entered so...">
<polygon fill="white" stroke="red" points="604,-553 604,-579 731,-579 731,-553 604,-553"/>
<text text-anchor="start" x="612" y="-568.6" font-family="Helvetica,sans-Serif" font-size="8.00">flow::net_flow::Node</text>
<text text-anchor="middle" x="667.5" y="-559.6" font-family="Helvetica,sans-Serif" font-size="8.00">::send_worker_check_state</text>
</a>
</g>
</g>
<!-- Node17&#45;&gt;Node18 -->
<g id="edge11" class="edge">
<title>Node17&#45;&gt;Node18</title>
<path fill="none" stroke="midnightblue" d="M780.78,-566C764.73,-566 747.36,-566 731.18,-566"/>
<polygon fill="midnightblue" stroke="midnightblue" points="781.11,-569.5 791.11,-566 781.11,-562.5 781.11,-569.5"/>
</g>
<!-- Node28 -->
<g id="node13" class="node">
<title>Node28</title>
<g id="a_node13"><a xlink:href="classflow_1_1net__flow_1_1Node.html#a4368247d07e930bdd07ab8d2425c6de8" target="_top" xlink:title="Sets up handle_incoming(packet_data, low_lvl_remote_endpoint) to be called asynchronously after a spe...">
<polygon fill="white" stroke="black" points="307,-38.5 307,-73.5 420,-73.5 420,-38.5 307,-38.5"/>
<text text-anchor="start" x="315" y="-63.1" font-family="Helvetica,sans-Serif" font-size="8.00">flow::net_flow::Node</text>
<text text-anchor="start" x="315" y="-54.1" font-family="Helvetica,sans-Serif" font-size="8.00">::async_wait_latency</text>
<text text-anchor="middle" x="363.5" y="-45.1" font-family="Helvetica,sans-Serif" font-size="8.00">_then_handle_incoming</text>
</a>
</g>
</g>
<!-- Node27&#45;&gt;Node28 -->
<g id="edge13" class="edge">
<title>Node27&#45;&gt;Node28</title>
<path fill="none" stroke="midnightblue" d="M455.81,-82.18C444.12,-78.83 431.78,-75.29 420.08,-71.93"/>
<polygon fill="midnightblue" stroke="midnightblue" points="454.87,-85.55 465.45,-84.94 456.8,-78.82 454.87,-85.55"/>
</g>
<!-- Node29 -->
<g id="node14" class="node">
<title>Node29</title>
<g id="a_node14"><a xlink:href="classflow_1_1net__flow_1_1Node.html#a90ecbad1ff3a8d2fe4b3ad1c474f7513" target="_top" xlink:title="Helper for low_lvl_recv_and_handle() that calls handle_incoming() on the not&#45;yet&#45;deserialized low&#45;lev...">
<polygon fill="white" stroke="black" points="158,-38.5 158,-73.5 271,-73.5 271,-38.5 158,-38.5"/>
<text text-anchor="start" x="166" y="-63.1" font-family="Helvetica,sans-Serif" font-size="8.00">flow::net_flow::Node</text>
<text text-anchor="start" x="166" y="-54.1" font-family="Helvetica,sans-Serif" font-size="8.00">::handle_incoming_with</text>
<text text-anchor="middle" x="214.5" y="-45.1" font-family="Helvetica,sans-Serif" font-size="8.00">_simulation</text>
</a>
</g>
</g>
<!-- Node27&#45;&gt;Node29 -->
<g id="edge17" class="edge">
<title>Node27&#45;&gt;Node29</title>
<path fill="none" stroke="midnightblue" d="M451.09,-96.95C410.21,-95.42 354.99,-91.74 307,-83 294.13,-80.66 280.49,-77.19 267.78,-73.51"/>
<polygon fill="midnightblue" stroke="midnightblue" points="451.04,-100.45 461.16,-97.3 451.28,-93.46 451.04,-100.45"/>
</g>
<!-- Node28&#45;&gt;Node29 -->
<g id="edge14" class="edge">
<title>Node28&#45;&gt;Node29</title>
<path fill="none" stroke="midnightblue" d="M296.92,-56C288.32,-56 279.57,-56 271.15,-56"/>
<polygon fill="midnightblue" stroke="midnightblue" points="296.93,-59.5 306.93,-56 296.93,-52.5 296.93,-59.5"/>
</g>
<!-- Node29&#45;&gt;Node29 -->
<g id="edge15" class="edge">
<title>Node29&#45;&gt;Node29</title>
<path fill="none" stroke="midnightblue" d="M240.27,-84.1C236.65,-88.77 228.06,-92 214.5,-92 192.24,-92 183.37,-83.31 187.89,-73.78"/>
<polygon fill="midnightblue" stroke="midnightblue" points="243.79,-84.03 241.11,-73.78 236.81,-83.47 243.79,-84.03"/>
</g>
<!-- Node30 -->
<g id="node15" class="node">
<title>Node30</title>
<g id="a_node15"><a xlink:href="classflow_1_1net__flow_1_1Node.html#a9909cd2b2a77c57da9e35fcef0f8a4e5" target="_top" xlink:title="Handles the pre&#45;condition that m_low_lvl_sock has a UDP packet available for reading,...">
<polygon fill="white" stroke="red" points="0,-20 0,-46 122,-46 122,-20 0,-20"/>
<text text-anchor="start" x="8" y="-35.6" font-family="Helvetica,sans-Serif" font-size="8.00">flow::net_flow::Node</text>
<text text-anchor="middle" x="61" y="-26.6" font-family="Helvetica,sans-Serif" font-size="8.00">::low_lvl_recv_and_handle</text>
</a>
</g>
</g>
<!-- Node29&#45;&gt;Node30 -->
<g id="edge16" class="edge">
<title>Node29&#45;&gt;Node30</title>
<path fill="none" stroke="midnightblue" d="M147.98,-46.05C139.39,-44.75 130.63,-43.42 122.14,-42.13"/>
<polygon fill="midnightblue" stroke="midnightblue" points="147.54,-49.53 157.95,-47.57 148.59,-42.6 147.54,-49.53"/>
</g>
<!-- Node33&#45;&gt;Node8 -->
<g id="edge19" class="edge">
<title>Node33&#45;&gt;Node8</title>
<path fill="none" stroke="midnightblue" d="M946.2,-310.83C896.2,-313.93 827.33,-318.96 767,-326 695.83,-334.31 614.06,-347.92 562.96,-356.92"/>
<polygon fill="midnightblue" stroke="midnightblue" points="946.48,-314.32 956.25,-310.21 946.06,-307.33 946.48,-314.32"/>
</g>
<!-- Node35 -->
<g id="node18" class="node">
<title>Node35</title>
<g id="a_node18"><a xlink:href="classflow_1_1net__flow_1_1Node.html#a6461124e5bc3e59083e172e26029e632" target="_top" xlink:title="Implementation of non&#45;blocking sock&#45;&gt;close_abruptly() for socket sock in all cases except when sock&#45;&gt;...">
<polygon fill="white" stroke="black" points="791.5,-207 791.5,-233 892.5,-233 892.5,-207 791.5,-207"/>
<text text-anchor="start" x="799.5" y="-222.6" font-family="Helvetica,sans-Serif" font-size="8.00">flow::net_flow::Node</text>
<text text-anchor="middle" x="842" y="-213.6" font-family="Helvetica,sans-Serif" font-size="8.00">::close_abruptly</text>
</a>
</g>
</g>
<!-- Node34&#45;&gt;Node35 -->
<g id="edge21" class="edge">
<title>Node34&#45;&gt;Node35</title>
<path fill="none" stroke="midnightblue" d="M942.24,-220C925.49,-220 908.08,-220 892.61,-220"/>
<polygon fill="midnightblue" stroke="midnightblue" points="942.56,-223.5 952.56,-220 942.56,-216.5 942.56,-223.5"/>
</g>
<!-- Node34&#45;&gt;Node37 -->
<g id="edge24" class="edge">
<title>Node34&#45;&gt;Node37</title>
<path fill="none" stroke="midnightblue" d="M943.04,-203.03C934.27,-200.99 925.43,-198.95 917,-197 849.07,-181.32 770.67,-163.36 720.39,-151.86"/>
<polygon fill="midnightblue" stroke="midnightblue" points="942.36,-206.46 952.9,-205.31 943.94,-199.64 942.36,-206.46"/>
</g>
<!-- Node38 -->
<g id="node21" class="node">
<title>Node38</title>
<g id="a_node21"><a xlink:href="classflow_1_1net__flow_1_1Node.html#ab427ebc124a6233ae48a7562662a6e81" target="_top" xlink:title="Creates a new Drop Timer and saves it to sock&#45;&gt;m_snd_drop_timer.">
<polygon fill="white" stroke="black" points="791.5,-123 791.5,-149 892.5,-149 892.5,-123 791.5,-123"/>
<text text-anchor="start" x="799.5" y="-138.6" font-family="Helvetica,sans-Serif" font-size="8.00">flow::net_flow::Node</text>
<text text-anchor="middle" x="842" y="-129.6" font-family="Helvetica,sans-Serif" font-size="8.00">::setup_drop_timer</text>
</a>
</g>
</g>
<!-- Node34&#45;&gt;Node38 -->
<g id="edge26" class="edge">
<title>Node34&#45;&gt;Node38</title>
<path fill="none" stroke="midnightblue" d="M978.98,-197.27C960.68,-186.5 938.05,-173.87 917,-164 905.43,-158.58 892.5,-153.4 880.73,-149.01"/>
<polygon fill="midnightblue" stroke="midnightblue" points="977.21,-200.29 987.59,-202.39 980.78,-194.27 977.21,-200.29"/>
</g>
<!-- Node39 -->
<g id="node22" class="node">
<title>Node39</title>
<g id="a_node22"><a xlink:href="classflow_1_1net__flow_1_1Node.html#a3fd57a0d025a78cbeccfd8a15a983575" target="_top" xlink:title="async_sock_low_lvl_packet_send_paced() pacing helper: If sock_pacing_process_q() ran out of the last ...">
<polygon fill="white" stroke="black" points="773.5,-252 773.5,-278 910.5,-278 910.5,-252 773.5,-252"/>
<text text-anchor="start" x="781.5" y="-267.6" font-family="Helvetica,sans-Serif" font-size="8.00">flow::net_flow::Node</text>
<text text-anchor="middle" x="842" y="-258.6" font-family="Helvetica,sans-Serif" font-size="8.00">::sock_pacing_time_slice_end</text>
</a>
</g>
</g>
<!-- Node34&#45;&gt;Node39 -->
<g id="edge28" class="edge">
<title>Node34&#45;&gt;Node39</title>
<path fill="none" stroke="midnightblue" d="M942.81,-239.04C926.08,-243.39 908.67,-247.92 893.16,-251.95"/>
<polygon fill="midnightblue" stroke="midnightblue" points="943.77,-242.41 952.56,-236.5 942,-235.63 943.77,-242.41"/>
</g>
<!-- Node36 -->
<g id="node19" class="node">
<title>Node36</title>
<g id="a_node19"><a xlink:href="classflow_1_1net__flow_1_1Peer__socket.html#a9ab710704237f912eb219f9b8d574afc" target="_top" xlink:title="Acts as if fatal error error::Code::S_USER_CLOSED_ABRUPTLY has been discovered on the connection.">
<polygon fill="white" stroke="black" points="611,-189 611,-215 724,-215 724,-189 611,-189"/>
<text text-anchor="start" x="619" y="-204.6" font-family="Helvetica,sans-Serif" font-size="8.00">flow::net_flow::Peer</text>
<text text-anchor="middle" x="667.5" y="-195.6" font-family="Helvetica,sans-Serif" font-size="8.00">_socket::close_abruptly</text>
</a>
</g>
</g>
<!-- Node35&#45;&gt;Node36 -->
<g id="edge22" class="edge">
<title>Node35&#45;&gt;Node36</title>
<path fill="none" stroke="midnightblue" d="M781.03,-213.74C762.52,-211.81 742.23,-209.69 724.03,-207.79"/>
<polygon fill="midnightblue" stroke="midnightblue" points="780.8,-217.24 791.11,-214.79 781.52,-210.27 780.8,-217.24"/>
</g>
<!-- Node36&#45;&gt;Node36 -->
<g id="edge23" class="edge">
<title>Node36&#45;&gt;Node36</title>
<path fill="none" stroke="midnightblue" d="M695.22,-225.44C692.14,-230.14 682.9,-233.5 667.5,-233.5 642.23,-233.5 633.55,-224.46 641.44,-215.27"/>
<polygon fill="midnightblue" stroke="midnightblue" points="698.62,-224.57 693.56,-215.27 691.71,-225.7 698.62,-224.57"/>
</g>
<!-- Node37&#45;&gt;Node27 -->
<g id="edge25" class="edge">
<title>Node37&#45;&gt;Node27</title>
<path fill="none" stroke="midnightblue" d="M605.31,-123.26C590.4,-119.18 574.68,-114.88 560.52,-111"/>
<polygon fill="midnightblue" stroke="midnightblue" points="604.39,-126.63 614.96,-125.9 606.24,-119.88 604.39,-126.63"/>
</g>
<!-- Node38&#45;&gt;Node37 -->
<g id="edge27" class="edge">
<title>Node38&#45;&gt;Node37</title>
<path fill="none" stroke="midnightblue" d="M780.94,-137.39C761.11,-137.85 739.23,-138.36 720.08,-138.8"/>
<polygon fill="midnightblue" stroke="midnightblue" points="781.19,-140.89 791.11,-137.16 781.03,-133.89 781.19,-140.89"/>
</g>
<!-- Node40 -->
<g id="node23" class="node">
<title>Node40</title>
<g id="a_node23"><a xlink:href="classflow_1_1net__flow_1_1Node.html#aaf0acf9de5f151727a43acce180a5e49" target="_top" xlink:title="async_sock_low_lvl_packet_send_paced() pacing helper: Given that we are currently in the pacing time ...">
<polygon fill="white" stroke="red" points="608.5,-252 608.5,-278 726.5,-278 726.5,-252 608.5,-252"/>
<text text-anchor="start" x="616.5" y="-267.6" font-family="Helvetica,sans-Serif" font-size="8.00">flow::net_flow::Node</text>
<text text-anchor="middle" x="667.5" y="-258.6" font-family="Helvetica,sans-Serif" font-size="8.00">::sock_pacing_process_q</text>
</a>
</g>
</g>
<!-- Node39&#45;&gt;Node40 -->
<g id="edge29" class="edge">
<title>Node39&#45;&gt;Node40</title>
<path fill="none" stroke="midnightblue" d="M763.12,-258.28C750.9,-258.2 738.45,-258.29 726.77,-258.58"/>
<polygon fill="midnightblue" stroke="midnightblue" points="763.28,-261.78 773.32,-258.39 763.36,-254.78 763.28,-261.78"/>
</g>
<!-- Node40&#45;&gt;Node39 -->
<g id="edge30" class="edge">
<title>Node40&#45;&gt;Node39</title>
<path fill="none" stroke="midnightblue" d="M737.1,-271.62C749.02,-271.8 761.42,-271.79 773.32,-271.61"/>
<polygon fill="midnightblue" stroke="midnightblue" points="736.83,-268.12 726.77,-271.42 736.7,-275.12 736.83,-268.12"/>
</g>
<!-- Node45&#45;&gt;Node32 -->
<g id="edge33" class="edge">
<title>Node45&#45;&gt;Node32</title>
<path fill="none" stroke="midnightblue" d="M1129.31,-427C1109.15,-428.99 1086.95,-431.18 1067.72,-433.09"/>
<polygon fill="midnightblue" stroke="midnightblue" points="1129.72,-430.48 1139.32,-426.01 1129.03,-423.51 1129.72,-430.48"/>
</g>
<!-- Node46&#45;&gt;Node28 -->
<g id="edge36" class="edge">
<title>Node46&#45;&gt;Node28</title>
<path fill="none" stroke="midnightblue" d="M445.79,-34.92C437.33,-37.11 428.73,-39.34 420.45,-41.49"/>
<polygon fill="midnightblue" stroke="midnightblue" points="446.81,-38.26 455.61,-32.37 445.06,-31.49 446.81,-38.26"/>
</g>
<!-- Node46&#45;&gt;Node30 -->
<g id="edge37" class="edge">
<title>Node46&#45;&gt;Node30</title>
<path fill="none" stroke="midnightblue" d="M445.85,-19.83C375.01,-21.86 258.45,-25.34 158,-29 146.41,-29.42 134.04,-29.91 122.17,-30.4"/>
<polygon fill="midnightblue" stroke="midnightblue" points="446.07,-23.32 455.96,-19.54 445.87,-16.32 446.07,-23.32"/>
</g>
</g>
</svg>
