<?xml version="1.0" encoding="UTF-8" standalone="no"?>
<!DOCTYPE svg PUBLIC "-//W3C//DTD SVG 1.1//EN"
 "http://www.w3.org/Graphics/SVG/1.1/DTD/svg11.dtd">
<!-- Generated by graphviz version 2.43.0 (0)
 -->
<!-- Title: flow::async::Segregated_thread_task_loop::post_impl Pages: 1 -->
<svg width="286pt" height="35pt"
 viewBox="0.00 0.00 286.00 35.00" xmlns="http://www.w3.org/2000/svg" xmlns:xlink="http://www.w3.org/1999/xlink">
<g id="graph0" class="graph" transform="scale(1 1) rotate(0) translate(4 31)">
<title>flow::async::Segregated_thread_task_loop::post_impl</title>
<polygon fill="white" stroke="transparent" points="-4,4 -4,-31 282,-31 282,4 -4,4"/>
<!-- Node1 -->
<g id="node1" class="node">
<title>Node1</title>
<g id="a_node1"><a xlink:title="Helper performing the core Task_engine::post() (or similar) call on behalf of the various post() over...">
<polygon fill="#bfbfbf" stroke="black" points="0,-0.5 0,-26.5 135,-26.5 135,-0.5 0,-0.5"/>
<text text-anchor="start" x="8" y="-16.1" font-family="Helvetica,sans-Serif" font-size="8.00">flow::async::Segregated</text>
<text text-anchor="middle" x="67.5" y="-7.1" font-family="Helvetica,sans-Serif" font-size="8.00">_thread_task_loop::post_impl</text>
</a>
</g>
</g>
<!-- Node2 -->
<g id="node2" class="node">
<title>Node2</title>
<g id="a_node2"><a xlink:href="classflow_1_1log_1_1Log__context.html#af4db395042b065b00398cd59845dcb4d" target="_top" xlink:title="Returns the stored Logger pointer, particularly as many FLOW_LOG_*() macros expect.">
<polygon fill="white" stroke="black" points="171,-0.5 171,-26.5 278,-26.5 278,-0.5 171,-0.5"/>
<text text-anchor="start" x="179" y="-16.1" font-family="Helvetica,sans-Serif" font-size="8.00">flow::log::Log_context</text>
<text text-anchor="middle" x="224.5" y="-7.1" font-family="Helvetica,sans-Serif" font-size="8.00">::get_logger</text>
</a>
</g>
</g>
<!-- Node1&#45;&gt;Node2 -->
<g id="edge1" class="edge">
<title>Node1&#45;&gt;Node2</title>
<path fill="none" stroke="midnightblue" d="M135.13,-13.5C143.65,-13.5 152.35,-13.5 160.8,-13.5"/>
<polygon fill="midnightblue" stroke="midnightblue" points="160.96,-17 170.96,-13.5 160.96,-10 160.96,-17"/>
</g>
</g>
</svg>
