<?xml version="1.0" encoding="UTF-8" standalone="no"?>
<!DOCTYPE svg PUBLIC "-//W3C//DTD SVG 1.1//EN"
 "http://www.w3.org/Graphics/SVG/1.1/DTD/svg11.dtd">
<!-- Generated by graphviz version 2.43.0 (0)
 -->
<!-- Title: flow::net_flow::Node::sock_set_int_state Pages: 1 -->
<svg width="1241pt" height="571pt"
 viewBox="0.00 0.00 1241.00 571.07" xmlns="http://www.w3.org/2000/svg" xmlns:xlink="http://www.w3.org/1999/xlink">
<g id="graph0" class="graph" transform="scale(1 1) rotate(0) translate(4 567.07)">
<title>flow::net_flow::Node::sock_set_int_state</title>
<polygon fill="white" stroke="transparent" points="-4,4 -4,-567.07 1237,-567.07 1237,4 -4,4"/>
<!-- Node1 -->
<g id="node1" class="node">
<title>Node1</title>
<g id="a_node1"><a xlink:title="Sets internal state of given socket to the given state and logs a TRACE message about it.">
<polygon fill="#bfbfbf" stroke="black" points="1132,-193.57 1132,-219.57 1233,-219.57 1233,-193.57 1132,-193.57"/>
<text text-anchor="start" x="1140" y="-209.17" font-family="Helvetica,sans-Serif" font-size="8.00">flow::net_flow::Node</text>
<text text-anchor="middle" x="1182.5" y="-200.17" font-family="Helvetica,sans-Serif" font-size="8.00">::sock_set_int_state</text>
</a>
</g>
</g>
<!-- Node2 -->
<g id="node2" class="node">
<title>Node2</title>
<g id="a_node2"><a xlink:href="classflow_1_1net__flow_1_1Node.html#ade49e7bc7202a0adf33fec2d93d1b177" target="_top" xlink:title="A thread W method that handles the transition of the given socket from OPEN (any sub&#45;state) to CLOSED...">
<polygon fill="white" stroke="black" points="948,-193.57 948,-219.57 1096,-219.57 1096,-193.57 948,-193.57"/>
<text text-anchor="start" x="956" y="-209.17" font-family="Helvetica,sans-Serif" font-size="8.00">flow::net_flow::Node</text>
<text text-anchor="middle" x="1022" y="-200.17" font-family="Helvetica,sans-Serif" font-size="8.00">::close_connection_immediately</text>
</a>
</g>
</g>
<!-- Node1&#45;&gt;Node2 -->
<g id="edge1" class="edge">
<title>Node1&#45;&gt;Node2</title>
<path fill="none" stroke="midnightblue" d="M1121.73,-206.57C1113.35,-206.57 1104.65,-206.57 1096.05,-206.57"/>
<polygon fill="midnightblue" stroke="midnightblue" points="1121.78,-210.07 1131.78,-206.57 1121.78,-203.07 1121.78,-210.07"/>
</g>
<!-- Node37 -->
<g id="node19" class="node">
<title>Node37</title>
<g id="a_node19"><a xlink:href="classflow_1_1net__flow_1_1Node.html#a29d02f9e302c7b06288ff1c644fa8d65" target="_top" xlink:title="Handles a just&#45;deserialized, just&#45;demultiplexed low&#45;level SYN_ACK_ACK packet delivered to the given p...">
<polygon fill="white" stroke="black" points="446,-184.07 446,-219.07 551,-219.07 551,-184.07 446,-184.07"/>
<text text-anchor="start" x="454" y="-208.67" font-family="Helvetica,sans-Serif" font-size="8.00">flow::net_flow::Node</text>
<text text-anchor="start" x="454" y="-199.67" font-family="Helvetica,sans-Serif" font-size="8.00">::handle_syn_ack_ack</text>
<text text-anchor="middle" x="498.5" y="-190.67" font-family="Helvetica,sans-Serif" font-size="8.00">_to_syn_rcvd</text>
</a>
</g>
</g>
<!-- Node1&#45;&gt;Node37 -->
<g id="edge31" class="edge">
<title>Node1&#45;&gt;Node37</title>
<path fill="none" stroke="midnightblue" d="M1131.57,-222.36C1120.01,-225.36 1107.67,-228.03 1096,-229.57 876.43,-258.59 818.4,-233.43 598,-211.57 582.78,-210.07 566.23,-208.4 551.13,-206.86"/>
<polygon fill="midnightblue" stroke="midnightblue" points="1132.76,-225.66 1141.49,-219.67 1130.93,-218.91 1132.76,-225.66"/>
</g>
<!-- Node44 -->
<g id="node24" class="node">
<title>Node44</title>
<g id="a_node24"><a xlink:href="classflow_1_1net__flow_1_1Node.html#aaaf5c3b5e6b9f9f1658b60907b36a498" target="_top" xlink:title="Handles a just&#45;deserialized, just&#45;demultiplexed low&#45;level SYN packet delivered to the given server so...">
<polygon fill="white" stroke="black" points="962,-60.07 962,-95.07 1082,-95.07 1082,-60.07 962,-60.07"/>
<text text-anchor="start" x="970" y="-84.67" font-family="Helvetica,sans-Serif" font-size="8.00">flow::net_flow::Node</text>
<text text-anchor="start" x="970" y="-75.67" font-family="Helvetica,sans-Serif" font-size="8.00">::handle_syn_to_listening</text>
<text text-anchor="middle" x="1022" y="-66.67" font-family="Helvetica,sans-Serif" font-size="8.00">_server</text>
</a>
</g>
</g>
<!-- Node1&#45;&gt;Node44 -->
<g id="edge32" class="edge">
<title>Node1&#45;&gt;Node44</title>
<path fill="none" stroke="midnightblue" d="M1157.39,-186.95C1126.69,-161.97 1074.11,-119.17 1044.64,-95.19"/>
<polygon fill="midnightblue" stroke="midnightblue" points="1155.46,-189.9 1165.43,-193.5 1159.88,-184.47 1155.46,-189.9"/>
</g>
<!-- Node3 -->
<g id="node3" class="node">
<title>Node3</title>
<g id="a_node3"><a xlink:href="classflow_1_1net__flow_1_1Node.html#aa5f7c019665d9dd91af0ad6431f8f97d" target="_top" xlink:title="Similar to async_sock_low_lvl_packet_send_paced() except it also calls close_connection_immediately(s...">
<polygon fill="white" stroke="black" points="793,-395.57 793,-439.57 903,-439.57 903,-395.57 793,-395.57"/>
<text text-anchor="start" x="801" y="-429.17" font-family="Helvetica,sans-Serif" font-size="8.00">flow::net_flow::Node</text>
<text text-anchor="start" x="801" y="-420.17" font-family="Helvetica,sans-Serif" font-size="8.00">::async_sock_low_lvl</text>
<text text-anchor="start" x="801" y="-411.17" font-family="Helvetica,sans-Serif" font-size="8.00">_packet_send_or_close</text>
<text text-anchor="middle" x="848" y="-402.17" font-family="Helvetica,sans-Serif" font-size="8.00">_immediately</text>
</a>
</g>
</g>
<!-- Node2&#45;&gt;Node3 -->
<g id="edge2" class="edge">
<title>Node2&#45;&gt;Node3</title>
<path fill="none" stroke="midnightblue" d="M1003.88,-227.58C971.2,-267.67 900.25,-354.71 866.94,-395.56"/>
<polygon fill="midnightblue" stroke="midnightblue" points="1006.64,-229.74 1010.24,-219.77 1001.21,-225.31 1006.64,-229.74"/>
</g>
<!-- Node27 -->
<g id="node12" class="node">
<title>Node27</title>
<g id="a_node12"><a xlink:href="classflow_1_1net__flow_1_1Node.html#a1699dfdaf3e5ebe1b1d715a9c306d116" target="_top" xlink:title="Handles a just&#45;received, not&#45;yet&#45;deserialized low&#45;level packet.">
<polygon fill="white" stroke="black" points="298,-23.57 298,-49.57 399,-49.57 399,-23.57 298,-23.57"/>
<text text-anchor="start" x="306" y="-39.17" font-family="Helvetica,sans-Serif" font-size="8.00">flow::net_flow::Node</text>
<text text-anchor="middle" x="348.5" y="-30.17" font-family="Helvetica,sans-Serif" font-size="8.00">::handle_incoming</text>
</a>
</g>
</g>
<!-- Node2&#45;&gt;Node27 -->
<g id="edge12" class="edge">
<title>Node2&#45;&gt;Node27</title>
<path fill="none" stroke="midnightblue" d="M996.72,-187.09C951.24,-152.04 848.68,-79.76 748,-55.57 625.26,-26.09 475.31,-28.96 399.1,-33.06"/>
<polygon fill="midnightblue" stroke="midnightblue" points="994.75,-189.99 1004.79,-193.38 999.05,-184.47 994.75,-189.99"/>
</g>
<!-- Node33 -->
<g id="node15" class="node">
<title>Node33</title>
<g id="a_node15"><a xlink:href="classflow_1_1net__flow_1_1Node.html#ad608f9bbe76426f4fbf4bf5af908e4e0" target="_top" xlink:title="Placed by receive() onto W during a graceful close, after the Receive buffer had been emptied by the ...">
<polygon fill="white" stroke="black" points="787.5,-277.07 787.5,-312.07 908.5,-312.07 908.5,-277.07 787.5,-277.07"/>
<text text-anchor="start" x="795.5" y="-301.67" font-family="Helvetica,sans-Serif" font-size="8.00">flow::net_flow::Node</text>
<text text-anchor="start" x="795.5" y="-292.67" font-family="Helvetica,sans-Serif" font-size="8.00">::receive_emptied_rcv</text>
<text text-anchor="middle" x="848" y="-283.67" font-family="Helvetica,sans-Serif" font-size="8.00">_buf_while_disconnecting</text>
</a>
</g>
</g>
<!-- Node2&#45;&gt;Node33 -->
<g id="edge17" class="edge">
<title>Node2&#45;&gt;Node33</title>
<path fill="none" stroke="midnightblue" d="M986,-224.48C955.99,-239.83 913.03,-261.82 883.24,-277.05"/>
<polygon fill="midnightblue" stroke="midnightblue" points="987.94,-227.42 995.25,-219.75 984.75,-221.19 987.94,-227.42"/>
</g>
<!-- Node34 -->
<g id="node16" class="node">
<title>Node34</title>
<g id="a_node16"><a xlink:href="classflow_1_1net__flow_1_1Node.html#afe70a0c32695e417e7a09e0ba773f151" target="_top" xlink:title="Asynchronously send RST to the other side of the given socket and close_connection_immediately().">
<polygon fill="white" stroke="black" points="784,-139.07 784,-174.07 912,-174.07 912,-139.07 784,-139.07"/>
<text text-anchor="start" x="792" y="-163.67" font-family="Helvetica,sans-Serif" font-size="8.00">flow::net_flow::Node</text>
<text text-anchor="start" x="792" y="-154.67" font-family="Helvetica,sans-Serif" font-size="8.00">::rst_and_close_connection</text>
<text text-anchor="middle" x="848" y="-145.67" font-family="Helvetica,sans-Serif" font-size="8.00">_immediately</text>
</a>
</g>
</g>
<!-- Node2&#45;&gt;Node34 -->
<g id="edge19" class="edge">
<title>Node2&#45;&gt;Node34</title>
<path fill="none" stroke="midnightblue" d="M966.42,-190.71C948.27,-185.43 927.95,-179.52 909.38,-174.13"/>
<polygon fill="midnightblue" stroke="midnightblue" points="965.68,-194.14 976.26,-193.57 967.63,-187.42 965.68,-194.14"/>
</g>
<!-- Node32 -->
<g id="node23" class="node">
<title>Node32</title>
<g id="a_node23"><a xlink:href="classflow_1_1net__flow_1_1Node.html#a5b056ed753b832458f44f537acfe86d7" target="_top" xlink:title="Worker thread W (main event loop) body.">
<polygon fill="white" stroke="black" points="797.5,-193.57 797.5,-219.57 898.5,-219.57 898.5,-193.57 797.5,-193.57"/>
<text text-anchor="start" x="805.5" y="-209.17" font-family="Helvetica,sans-Serif" font-size="8.00">flow::net_flow::Node</text>
<text text-anchor="middle" x="848" y="-200.17" font-family="Helvetica,sans-Serif" font-size="8.00">::worker_run</text>
</a>
</g>
</g>
<!-- Node2&#45;&gt;Node32 -->
<g id="edge30" class="edge">
<title>Node2&#45;&gt;Node32</title>
<path fill="none" stroke="midnightblue" d="M937.43,-206.57C924.14,-206.57 910.77,-206.57 898.59,-206.57"/>
<polygon fill="midnightblue" stroke="midnightblue" points="937.56,-210.07 947.56,-206.57 937.56,-203.07 937.56,-210.07"/>
</g>
<!-- Node4 -->
<g id="node4" class="node">
<title>Node4</title>
<g id="a_node4"><a xlink:href="classflow_1_1net__flow_1_1Node.html#a81e50276d0b162f6577adc690e0ef9e0" target="_top" xlink:title="Sends a low&#45;level ACK packet, with all accumulated in Peer_socket::m_rcv_pending_acks of sock individ...">
<polygon fill="white" stroke="black" points="613.5,-436.57 613.5,-462.57 732.5,-462.57 732.5,-436.57 613.5,-436.57"/>
<text text-anchor="start" x="621.5" y="-452.17" font-family="Helvetica,sans-Serif" font-size="8.00">flow::net_flow::Node</text>
<text text-anchor="middle" x="673" y="-443.17" font-family="Helvetica,sans-Serif" font-size="8.00">::async_low_lvl_ack_send</text>
</a>
</g>
</g>
<!-- Node3&#45;&gt;Node4 -->
<g id="edge3" class="edge">
<title>Node3&#45;&gt;Node4</title>
<path fill="none" stroke="midnightblue" d="M782.68,-429.47C766.26,-432.51 748.69,-435.76 732.57,-438.74"/>
<polygon fill="midnightblue" stroke="midnightblue" points="783.54,-432.87 792.74,-427.61 782.27,-425.99 783.54,-432.87"/>
</g>
<!-- Node5 -->
<g id="node5" class="node">
<title>Node5</title>
<g id="a_node5"><a xlink:href="classflow_1_1net__flow_1_1Node.html#acaf55766783893827061fd85cab2634f" target="_top" xlink:title="Helper to create, fully fill out, and asynchronously send via async_sock_low_lvl_packet_send_or_close...">
<polygon fill="white" stroke="black" points="598,-319.07 598,-354.07 748,-354.07 748,-319.07 598,-319.07"/>
<text text-anchor="start" x="606" y="-343.67" font-family="Helvetica,sans-Serif" font-size="8.00">flow::net_flow::Node</text>
<text text-anchor="start" x="606" y="-334.67" font-family="Helvetica,sans-Serif" font-size="8.00">::async_low_lvl_syn_ack</text>
<text text-anchor="middle" x="673" y="-325.67" font-family="Helvetica,sans-Serif" font-size="8.00">_ack_send_or_close_immediately</text>
</a>
</g>
</g>
<!-- Node3&#45;&gt;Node5 -->
<g id="edge4" class="edge">
<title>Node3&#45;&gt;Node5</title>
<path fill="none" stroke="midnightblue" d="M799.36,-390.46C783.27,-381.73 765.06,-372.33 748,-364.57 740.12,-360.99 731.64,-357.48 723.33,-354.22"/>
<polygon fill="midnightblue" stroke="midnightblue" points="798.11,-393.76 808.56,-395.49 801.47,-387.62 798.11,-393.76"/>
</g>
<!-- Node6 -->
<g id="node6" class="node">
<title>Node6</title>
<g id="a_node6"><a xlink:href="classflow_1_1net__flow_1_1Node.html#a192d4b95b9f8a5c3d08b1e5486eb6f78" target="_top" xlink:title="receive_wnd_updated() helper that continues rcv_wnd recovery: that is, sends unsolicited ACK with a r...">
<polygon fill="white" stroke="black" points="612,-373.57 612,-399.57 734,-399.57 734,-373.57 612,-373.57"/>
<text text-anchor="start" x="620" y="-389.17" font-family="Helvetica,sans-Serif" font-size="8.00">flow::net_flow::Node</text>
<text text-anchor="middle" x="673" y="-380.17" font-family="Helvetica,sans-Serif" font-size="8.00">::async_rcv_wnd_recovery</text>
</a>
</g>
</g>
<!-- Node3&#45;&gt;Node6 -->
<g id="edge5" class="edge">
<title>Node3&#45;&gt;Node6</title>
<path fill="none" stroke="midnightblue" d="M782.49,-406.02C766.64,-403.17 749.72,-400.14 734.09,-397.34"/>
<polygon fill="midnightblue" stroke="midnightblue" points="782.28,-409.53 792.74,-407.85 783.51,-402.64 782.28,-409.53"/>
</g>
<!-- Node16 -->
<g id="node9" class="node">
<title>Node16</title>
<g id="a_node9"><a xlink:href="classflow_1_1net__flow_1_1Node.html#addd654cb6b1ccff34ddccbe5226be8f0" target="_top" xlink:title="Handles the triggering of the retransmit timer wait set up by setup_connection_timers(); it will re&#45;s...">
<polygon fill="white" stroke="black" points="608.5,-482.07 608.5,-517.07 737.5,-517.07 737.5,-482.07 608.5,-482.07"/>
<text text-anchor="start" x="616.5" y="-506.67" font-family="Helvetica,sans-Serif" font-size="8.00">flow::net_flow::Node</text>
<text text-anchor="start" x="616.5" y="-497.67" font-family="Helvetica,sans-Serif" font-size="8.00">::handle_connection_rexmit</text>
<text text-anchor="middle" x="673" y="-488.67" font-family="Helvetica,sans-Serif" font-size="8.00">_timer_event</text>
</a>
</g>
</g>
<!-- Node3&#45;&gt;Node16 -->
<g id="edge9" class="edge">
<title>Node3&#45;&gt;Node16</title>
<path fill="none" stroke="midnightblue" d="M801.64,-444.74C785.06,-454.14 765.96,-464.37 748,-472.57 740.79,-475.87 733.04,-479.06 725.38,-482.02"/>
<polygon fill="midnightblue" stroke="midnightblue" points="803.64,-447.63 810.57,-439.62 800.16,-441.56 803.64,-447.63"/>
</g>
<!-- Node17 -->
<g id="node10" class="node">
<title>Node17</title>
<g id="a_node10"><a xlink:href="classflow_1_1net__flow_1_1Node.html#a10a92f11a2c9f218cdd9a55f282e79b1" target="_top" xlink:title="Thread W implemention of send(): synchronously or asynchronously send the contents of sock&#45;&gt;m_snd_buf...">
<polygon fill="white" stroke="black" points="622.5,-536.57 622.5,-562.57 723.5,-562.57 723.5,-536.57 622.5,-536.57"/>
<text text-anchor="start" x="630.5" y="-552.17" font-family="Helvetica,sans-Serif" font-size="8.00">flow::net_flow::Node</text>
<text text-anchor="middle" x="673" y="-543.17" font-family="Helvetica,sans-Serif" font-size="8.00">::send_worker</text>
</a>
</g>
</g>
<!-- Node3&#45;&gt;Node17 -->
<g id="edge10" class="edge">
<title>Node3&#45;&gt;Node17</title>
<path fill="none" stroke="midnightblue" d="M826.55,-447.86C808.54,-472.36 780.21,-506.05 748,-526.57 740.63,-531.27 732.23,-535.07 723.8,-538.12"/>
<polygon fill="midnightblue" stroke="midnightblue" points="829.48,-449.78 832.48,-439.62 823.8,-445.69 829.48,-449.78"/>
</g>
<!-- Node6&#45;&gt;Node6 -->
<g id="edge6" class="edge">
<title>Node6&#45;&gt;Node6</title>
<path fill="none" stroke="midnightblue" d="M704.57,-409.65C701.37,-414.54 690.84,-418.07 673,-418.07 644.45,-418.07 634.64,-409.03 643.56,-399.85"/>
<polygon fill="midnightblue" stroke="midnightblue" points="707.98,-408.87 702.44,-399.85 701.14,-410.36 707.98,-408.87"/>
</g>
<!-- Node7 -->
<g id="node7" class="node">
<title>Node7</title>
<g id="a_node7"><a xlink:href="classflow_1_1net__flow_1_1Node.html#a08cf95363b26c0c676979437e34db357" target="_top" xlink:title="Placed by receive() onto W if it has dequeued data from Receive buffer and given it to the user,...">
<polygon fill="white" stroke="black" points="442.5,-346.57 442.5,-372.57 554.5,-372.57 554.5,-346.57 442.5,-346.57"/>
<text text-anchor="start" x="450.5" y="-362.17" font-family="Helvetica,sans-Serif" font-size="8.00">flow::net_flow::Node</text>
<text text-anchor="middle" x="498.5" y="-353.17" font-family="Helvetica,sans-Serif" font-size="8.00">::receive_wnd_updated</text>
</a>
</g>
</g>
<!-- Node6&#45;&gt;Node7 -->
<g id="edge7" class="edge">
<title>Node6&#45;&gt;Node7</title>
<path fill="none" stroke="midnightblue" d="M601.52,-375.54C585.88,-373.09 569.52,-370.53 554.6,-368.2"/>
<polygon fill="midnightblue" stroke="midnightblue" points="601.25,-379.04 611.67,-377.13 602.33,-372.13 601.25,-379.04"/>
</g>
<!-- Node8 -->
<g id="node8" class="node">
<title>Node8</title>
<g id="a_node8"><a xlink:href="classflow_1_1net__flow_1_1Node.html#addbb96858fd7b3c9ddd7c6fe8078809c" target="_top" xlink:title="Implementation of non&#45;blocking sock&#45;&gt;receive() for socket sock in all cases except when sock&#45;&gt;state()...">
<polygon fill="white" stroke="red" points="298,-311.57 298,-337.57 399,-337.57 399,-311.57 298,-311.57"/>
<text text-anchor="start" x="306" y="-327.17" font-family="Helvetica,sans-Serif" font-size="8.00">flow::net_flow::Node</text>
<text text-anchor="middle" x="348.5" y="-318.17" font-family="Helvetica,sans-Serif" font-size="8.00">::receive</text>
</a>
</g>
</g>
<!-- Node7&#45;&gt;Node8 -->
<g id="edge8" class="edge">
<title>Node7&#45;&gt;Node8</title>
<path fill="none" stroke="midnightblue" d="M432.66,-344.24C421.47,-341.59 410,-338.88 399.28,-336.35"/>
<polygon fill="midnightblue" stroke="midnightblue" points="431.85,-347.65 442.39,-346.54 433.46,-340.83 431.85,-347.65"/>
</g>
<!-- Node18 -->
<g id="node11" class="node">
<title>Node18</title>
<g id="a_node11"><a xlink:href="classflow_1_1net__flow_1_1Node.html#a2565b7c0bd82cad86eb168b62f8ffd9d" target="_top" xlink:title="Helper placed by send() onto W to invoke send_worker() but ensures that the socket has not entered so...">
<polygon fill="white" stroke="red" points="435,-536.57 435,-562.57 562,-562.57 562,-536.57 435,-536.57"/>
<text text-anchor="start" x="443" y="-552.17" font-family="Helvetica,sans-Serif" font-size="8.00">flow::net_flow::Node</text>
<text text-anchor="middle" x="498.5" y="-543.17" font-family="Helvetica,sans-Serif" font-size="8.00">::send_worker_check_state</text>
</a>
</g>
</g>
<!-- Node17&#45;&gt;Node18 -->
<g id="edge11" class="edge">
<title>Node17&#45;&gt;Node18</title>
<path fill="none" stroke="midnightblue" d="M611.78,-549.57C595.73,-549.57 578.36,-549.57 562.18,-549.57"/>
<polygon fill="midnightblue" stroke="midnightblue" points="612.11,-553.07 622.11,-549.57 612.11,-546.07 612.11,-553.07"/>
</g>
<!-- Node28 -->
<g id="node13" class="node">
<title>Node28</title>
<g id="a_node13"><a xlink:href="classflow_1_1net__flow_1_1Node.html#a4368247d07e930bdd07ab8d2425c6de8" target="_top" xlink:title="Sets up handle_incoming(packet_data, low_lvl_remote_endpoint) to be called asynchronously after a spe...">
<polygon fill="white" stroke="black" points="149,-42.07 149,-77.07 262,-77.07 262,-42.07 149,-42.07"/>
<text text-anchor="start" x="157" y="-66.67" font-family="Helvetica,sans-Serif" font-size="8.00">flow::net_flow::Node</text>
<text text-anchor="start" x="157" y="-57.67" font-family="Helvetica,sans-Serif" font-size="8.00">::async_wait_latency</text>
<text text-anchor="middle" x="205.5" y="-48.67" font-family="Helvetica,sans-Serif" font-size="8.00">_then_handle_incoming</text>
</a>
</g>
</g>
<!-- Node27&#45;&gt;Node28 -->
<g id="edge13" class="edge">
<title>Node27&#45;&gt;Node28</title>
<path fill="none" stroke="midnightblue" d="M287.86,-46.3C279.29,-47.7 270.49,-49.14 262.01,-50.52"/>
<polygon fill="midnightblue" stroke="midnightblue" points="288.48,-49.75 297.79,-44.68 287.36,-42.84 288.48,-49.75"/>
</g>
<!-- Node29 -->
<g id="node14" class="node">
<title>Node29</title>
<g id="a_node14"><a xlink:href="classflow_1_1net__flow_1_1Node.html#a90ecbad1ff3a8d2fe4b3ad1c474f7513" target="_top" xlink:title="Helper for low_lvl_recv_and_handle() that calls handle_incoming() on the not&#45;yet&#45;deserialized low&#45;lev...">
<polygon fill="white" stroke="red" points="0,-19.07 0,-54.07 113,-54.07 113,-19.07 0,-19.07"/>
<text text-anchor="start" x="8" y="-43.67" font-family="Helvetica,sans-Serif" font-size="8.00">flow::net_flow::Node</text>
<text text-anchor="start" x="8" y="-34.67" font-family="Helvetica,sans-Serif" font-size="8.00">::handle_incoming_with</text>
<text text-anchor="middle" x="56.5" y="-25.67" font-family="Helvetica,sans-Serif" font-size="8.00">_simulation</text>
</a>
</g>
</g>
<!-- Node27&#45;&gt;Node29 -->
<g id="edge16" class="edge">
<title>Node27&#45;&gt;Node29</title>
<path fill="none" stroke="midnightblue" d="M287.75,-33.42C279.11,-33.07 270.33,-32.77 262,-32.57 211.79,-31.4 199.21,-31.48 149,-32.57 137.4,-32.83 124.97,-33.26 113.13,-33.75"/>
<polygon fill="midnightblue" stroke="midnightblue" points="287.64,-36.92 297.78,-33.86 287.94,-29.93 287.64,-36.92"/>
</g>
<!-- Node28&#45;&gt;Node29 -->
<g id="edge14" class="edge">
<title>Node28&#45;&gt;Node29</title>
<path fill="none" stroke="midnightblue" d="M138.92,-49.31C130.32,-47.97 121.57,-46.6 113.15,-45.28"/>
<polygon fill="midnightblue" stroke="midnightblue" points="138.5,-52.79 148.93,-50.88 139.59,-45.88 138.5,-52.79"/>
</g>
<!-- Node29&#45;&gt;Node29 -->
<g id="edge15" class="edge">
<title>Node29&#45;&gt;Node29</title>
<path fill="none" stroke="midnightblue" d="M82.27,-64.67C78.65,-69.35 70.06,-72.57 56.5,-72.57 34.24,-72.57 25.37,-63.89 29.89,-54.36"/>
<polygon fill="midnightblue" stroke="midnightblue" points="85.79,-64.61 83.11,-54.36 78.81,-64.04 85.79,-64.61"/>
</g>
<!-- Node33&#45;&gt;Node8 -->
<g id="edge18" class="edge">
<title>Node33&#45;&gt;Node8</title>
<path fill="none" stroke="midnightblue" d="M777.34,-298.77C727.41,-301.78 658.56,-305.92 598,-309.57 528.97,-313.74 449.16,-318.56 399.01,-321.58"/>
<polygon fill="midnightblue" stroke="midnightblue" points="777.61,-302.26 787.38,-298.16 777.19,-295.27 777.61,-302.26"/>
</g>
<!-- Node35 -->
<g id="node17" class="node">
<title>Node35</title>
<g id="a_node17"><a xlink:href="classflow_1_1net__flow_1_1Node.html#a6461124e5bc3e59083e172e26029e632" target="_top" xlink:title="Implementation of non&#45;blocking sock&#45;&gt;close_abruptly() for socket sock in all cases except when sock&#45;&gt;...">
<polygon fill="white" stroke="black" points="622.5,-110.57 622.5,-136.57 723.5,-136.57 723.5,-110.57 622.5,-110.57"/>
<text text-anchor="start" x="630.5" y="-126.17" font-family="Helvetica,sans-Serif" font-size="8.00">flow::net_flow::Node</text>
<text text-anchor="middle" x="673" y="-117.17" font-family="Helvetica,sans-Serif" font-size="8.00">::close_abruptly</text>
</a>
</g>
</g>
<!-- Node34&#45;&gt;Node35 -->
<g id="edge20" class="edge">
<title>Node34&#45;&gt;Node35</title>
<path fill="none" stroke="midnightblue" d="M773.71,-142.6C756.82,-139.37 739.23,-136.02 723.61,-133.04"/>
<polygon fill="midnightblue" stroke="midnightblue" points="773.08,-146.04 783.56,-144.47 774.4,-139.16 773.08,-146.04"/>
</g>
<!-- Node34&#45;&gt;Node37 -->
<g id="edge23" class="edge">
<title>Node34&#45;&gt;Node37</title>
<path fill="none" stroke="midnightblue" d="M796.13,-177.84C780.91,-183.3 764.01,-188.5 748,-191.57 681.01,-204.46 602.05,-205.25 551.42,-203.97"/>
<polygon fill="midnightblue" stroke="midnightblue" points="797.7,-180.99 805.86,-174.23 795.27,-174.42 797.7,-180.99"/>
</g>
<!-- Node38 -->
<g id="node20" class="node">
<title>Node38</title>
<g id="a_node20"><a xlink:href="classflow_1_1net__flow_1_1Node.html#ab427ebc124a6233ae48a7562662a6e81" target="_top" xlink:title="Creates a new Drop Timer and saves it to sock&#45;&gt;m_snd_drop_timer.">
<polygon fill="white" stroke="black" points="622.5,-155.57 622.5,-181.57 723.5,-181.57 723.5,-155.57 622.5,-155.57"/>
<text text-anchor="start" x="630.5" y="-171.17" font-family="Helvetica,sans-Serif" font-size="8.00">flow::net_flow::Node</text>
<text text-anchor="middle" x="673" y="-162.17" font-family="Helvetica,sans-Serif" font-size="8.00">::setup_drop_timer</text>
</a>
</g>
</g>
<!-- Node34&#45;&gt;Node38 -->
<g id="edge25" class="edge">
<title>Node34&#45;&gt;Node38</title>
<path fill="none" stroke="midnightblue" d="M773.24,-161.69C756.49,-162.85 739.08,-164.06 723.61,-165.13"/>
<polygon fill="midnightblue" stroke="midnightblue" points="773.83,-165.16 783.56,-160.97 773.35,-158.18 773.83,-165.16"/>
</g>
<!-- Node39 -->
<g id="node21" class="node">
<title>Node39</title>
<g id="a_node21"><a xlink:href="classflow_1_1net__flow_1_1Node.html#a3fd57a0d025a78cbeccfd8a15a983575" target="_top" xlink:title="async_sock_low_lvl_packet_send_paced() pacing helper: If sock_pacing_process_q() ran out of the last ...">
<polygon fill="white" stroke="black" points="604.5,-65.57 604.5,-91.57 741.5,-91.57 741.5,-65.57 604.5,-65.57"/>
<text text-anchor="start" x="612.5" y="-81.17" font-family="Helvetica,sans-Serif" font-size="8.00">flow::net_flow::Node</text>
<text text-anchor="middle" x="673" y="-72.17" font-family="Helvetica,sans-Serif" font-size="8.00">::sock_pacing_time_slice_end</text>
</a>
</g>
</g>
<!-- Node34&#45;&gt;Node39 -->
<g id="edge27" class="edge">
<title>Node34&#45;&gt;Node39</title>
<path fill="none" stroke="midnightblue" d="M809.68,-133.45C791.52,-122.82 769.09,-110.6 748,-101.57 739.47,-97.92 730.16,-94.57 721.11,-91.62"/>
<polygon fill="midnightblue" stroke="midnightblue" points="808.38,-136.74 818.77,-138.84 811.95,-130.72 808.38,-136.74"/>
</g>
<!-- Node36 -->
<g id="node18" class="node">
<title>Node36</title>
<g id="a_node18"><a xlink:href="classflow_1_1net__flow_1_1Peer__socket.html#a9ab710704237f912eb219f9b8d574afc" target="_top" xlink:title="Acts as if fatal error error::Code::S_USER_CLOSED_ABRUPTLY has been discovered on the connection.">
<polygon fill="white" stroke="black" points="442,-110.57 442,-136.57 555,-136.57 555,-110.57 442,-110.57"/>
<text text-anchor="start" x="450" y="-126.17" font-family="Helvetica,sans-Serif" font-size="8.00">flow::net_flow::Peer</text>
<text text-anchor="middle" x="498.5" y="-117.17" font-family="Helvetica,sans-Serif" font-size="8.00">_socket::close_abruptly</text>
</a>
</g>
</g>
<!-- Node35&#45;&gt;Node36 -->
<g id="edge21" class="edge">
<title>Node35&#45;&gt;Node36</title>
<path fill="none" stroke="midnightblue" d="M612.03,-123.57C593.52,-123.57 573.23,-123.57 555.03,-123.57"/>
<polygon fill="midnightblue" stroke="midnightblue" points="612.11,-127.07 622.11,-123.57 612.11,-120.07 612.11,-127.07"/>
</g>
<!-- Node36&#45;&gt;Node36 -->
<g id="edge22" class="edge">
<title>Node36&#45;&gt;Node36</title>
<path fill="none" stroke="midnightblue" d="M525.5,-147.01C522.5,-151.72 513.5,-155.07 498.5,-155.07 473.89,-155.07 465.43,-146.03 473.12,-136.85"/>
<polygon fill="midnightblue" stroke="midnightblue" points="528.91,-146.17 523.88,-136.85 521.99,-147.27 528.91,-146.17"/>
</g>
<!-- Node37&#45;&gt;Node27 -->
<g id="edge24" class="edge">
<title>Node37&#45;&gt;Node27</title>
<path fill="none" stroke="midnightblue" d="M452.84,-178.53C446.51,-174.32 440.35,-169.64 435,-164.57 397.75,-129.29 368.28,-74.93 355.87,-49.96"/>
<polygon fill="midnightblue" stroke="midnightblue" points="451.18,-181.62 461.51,-183.97 454.9,-175.69 451.18,-181.62"/>
</g>
<!-- Node38&#45;&gt;Node37 -->
<g id="edge26" class="edge">
<title>Node38&#45;&gt;Node37</title>
<path fill="none" stroke="midnightblue" d="M612.22,-180.01C592.31,-183.82 570.31,-188.03 551.08,-191.71"/>
<polygon fill="midnightblue" stroke="midnightblue" points="612.94,-183.44 622.11,-178.12 611.63,-176.56 612.94,-183.44"/>
</g>
<!-- Node40 -->
<g id="node22" class="node">
<title>Node40</title>
<g id="a_node22"><a xlink:href="classflow_1_1net__flow_1_1Node.html#aaf0acf9de5f151727a43acce180a5e49" target="_top" xlink:title="async_sock_low_lvl_packet_send_paced() pacing helper: Given that we are currently in the pacing time ...">
<polygon fill="white" stroke="red" points="439.5,-65.57 439.5,-91.57 557.5,-91.57 557.5,-65.57 439.5,-65.57"/>
<text text-anchor="start" x="447.5" y="-81.17" font-family="Helvetica,sans-Serif" font-size="8.00">flow::net_flow::Node</text>
<text text-anchor="middle" x="498.5" y="-72.17" font-family="Helvetica,sans-Serif" font-size="8.00">::sock_pacing_process_q</text>
</a>
</g>
</g>
<!-- Node39&#45;&gt;Node40 -->
<g id="edge28" class="edge">
<title>Node39&#45;&gt;Node40</title>
<path fill="none" stroke="midnightblue" d="M594.12,-71.85C581.9,-71.77 569.45,-71.87 557.77,-72.15"/>
<polygon fill="midnightblue" stroke="midnightblue" points="594.28,-75.35 604.32,-71.97 594.36,-68.36 594.28,-75.35"/>
</g>
<!-- Node40&#45;&gt;Node39 -->
<g id="edge29" class="edge">
<title>Node40&#45;&gt;Node39</title>
<path fill="none" stroke="midnightblue" d="M568.1,-85.2C580.02,-85.37 592.42,-85.37 604.32,-85.18"/>
<polygon fill="midnightblue" stroke="midnightblue" points="567.83,-81.69 557.77,-85 567.7,-88.69 567.83,-81.69"/>
</g>
<!-- Node44&#45;&gt;Node27 -->
<g id="edge33" class="edge">
<title>Node44&#45;&gt;Node27</title>
<path fill="none" stroke="midnightblue" d="M985.9,-54.55C965.29,-42.43 938.22,-28.82 912,-22.57 727.16,21.42 498.49,-9.52 399.29,-26.92"/>
<polygon fill="midnightblue" stroke="midnightblue" points="984.23,-57.63 994.6,-59.81 987.85,-51.64 984.23,-57.63"/>
</g>
</g>
</svg>
