<?xml version="1.0" encoding="UTF-8" standalone="no"?>
<!DOCTYPE svg PUBLIC "-//W3C//DTD SVG 1.1//EN"
 "http://www.w3.org/Graphics/SVG/1.1/DTD/svg11.dtd">
<!-- Generated by graphviz version 2.43.0 (0)
 -->
<!-- Title: flow::net_flow::Congestion_control_classic_data Pages: 1 -->
<svg width="1130pt" height="308pt"
 viewBox="0.00 0.00 1130.00 308.00" xmlns="http://www.w3.org/2000/svg" xmlns:xlink="http://www.w3.org/1999/xlink">
<g id="graph0" class="graph" transform="scale(1 1) rotate(0) translate(4 304)">
<title>flow::net_flow::Congestion_control_classic_data</title>
<polygon fill="white" stroke="transparent" points="-4,4 -4,-304 1126,-304 1126,4 -4,4"/>
<!-- Node1 -->
<g id="node1" class="node">
<title>Node1</title>
<g id="a_node1"><a xlink:title="Utility class for use by Congestion_control_strategy implementations that implements congestion windo...">
<polygon fill="#bfbfbf" stroke="black" points="997,-116 997,-142 1122,-142 1122,-116 997,-116"/>
<text text-anchor="start" x="1005" y="-131.6" font-family="Helvetica,sans-Serif" font-size="8.00">flow::net_flow::Congestion</text>
<text text-anchor="middle" x="1059.5" y="-122.6" font-family="Helvetica,sans-Serif" font-size="8.00">_control_classic_data</text>
</a>
</g>
</g>
<!-- Node2 -->
<g id="node2" class="node">
<title>Node2</title>
<g id="a_node2"><a xlink:href="classflow_1_1log_1_1Log__context.html" target="_top" xlink:title="Convenience class that simply stores a Logger and/or Component passed into a constructor; and returns...">
<polygon fill="white" stroke="black" points="737,-172.5 737,-189.5 844,-189.5 844,-172.5 737,-172.5"/>
<text text-anchor="middle" x="790.5" y="-179.1" font-family="Helvetica,sans-Serif" font-size="8.00">flow::log::Log_context</text>
</a>
</g>
</g>
<!-- Node2&#45;&gt;Node1 -->
<g id="edge1" class="edge">
<title>Node2&#45;&gt;Node1</title>
<path fill="none" stroke="midnightblue" d="M854.43,-179.21C891.21,-177.03 938.26,-172.28 979,-162 997.4,-157.36 1017.11,-149.2 1032.3,-142.16"/>
<polygon fill="midnightblue" stroke="midnightblue" points="854.14,-175.72 844.34,-179.76 854.52,-182.71 854.14,-175.72"/>
</g>
<!-- Node3 -->
<g id="node3" class="node">
<title>Node3</title>
<g id="a_node3"><a xlink:href="classflow_1_1log_1_1Logger.html" target="_top" xlink:title="Interface that the user should implement, passing the implementing Logger into logging classes (Flow&#39;...">
<polygon fill="white" stroke="black" points="542.5,-159.5 542.5,-176.5 628.5,-176.5 628.5,-159.5 542.5,-159.5"/>
<text text-anchor="middle" x="585.5" y="-166.1" font-family="Helvetica,sans-Serif" font-size="8.00">flow::log::Logger</text>
</a>
</g>
</g>
<!-- Node3&#45;&gt;Node2 -->
<g id="edge2" class="edge">
<title>Node3&#45;&gt;Node2</title>
<path fill="none" stroke="#9a32cd" stroke-dasharray="5,2" d="M638.85,-171.35C668.89,-173.28 706.51,-175.69 736.64,-177.61"/>
<polygon fill="#9a32cd" stroke="#9a32cd" points="638.77,-167.84 628.56,-170.69 638.32,-174.83 638.77,-167.84"/>
<text text-anchor="middle" x="686.5" y="-178.6" font-family="Helvetica,sans-Serif" font-size="8.00"> m_logger</text>
</g>
<!-- Node4 -->
<g id="node4" class="node">
<title>Node4</title>
<g id="a_node4"><a xlink:href="classflow_1_1util_1_1Null__interface.html" target="_top" xlink:title="An empty interface, consisting of nothing but a default virtual destructor, intended as a boiler&#45;plat...">
<polygon fill="white" stroke="black" points="268,-127.5 268,-144.5 382,-144.5 382,-127.5 268,-127.5"/>
<text text-anchor="middle" x="325" y="-134.1" font-family="Helvetica,sans-Serif" font-size="8.00">flow::util::Null_interface</text>
</a>
</g>
</g>
<!-- Node4&#45;&gt;Node3 -->
<g id="edge3" class="edge">
<title>Node4&#45;&gt;Node3</title>
<path fill="none" stroke="midnightblue" d="M392.23,-144.2C439.42,-150.04 501.46,-157.72 542.13,-162.76"/>
<polygon fill="midnightblue" stroke="midnightblue" points="392.44,-140.7 382.09,-142.94 391.58,-147.65 392.44,-140.7"/>
</g>
<!-- Node5 -->
<g id="node5" class="node">
<title>Node5</title>
<g id="a_node5"><a xlink:href="classflow_1_1util_1_1Unique__id__holder.html" target="_top" xlink:title="Each object of this class stores (at construction) and returns (on demand) a numeric ID unique from a...">
<polygon fill="white" stroke="black" points="281.5,-164 281.5,-190 368.5,-190 368.5,-164 281.5,-164"/>
<text text-anchor="start" x="289.5" y="-179.6" font-family="Helvetica,sans-Serif" font-size="8.00">flow::util::Unique</text>
<text text-anchor="middle" x="325" y="-170.6" font-family="Helvetica,sans-Serif" font-size="8.00">_id_holder</text>
</a>
</g>
</g>
<!-- Node5&#45;&gt;Node3 -->
<g id="edge4" class="edge">
<title>Node5&#45;&gt;Node3</title>
<path fill="none" stroke="midnightblue" d="M378.93,-175.16C427.19,-173.48 497.57,-171.03 542.18,-169.47"/>
<polygon fill="midnightblue" stroke="midnightblue" points="378.56,-171.67 368.69,-175.51 378.8,-178.66 378.56,-171.67"/>
</g>
<!-- Node6 -->
<g id="node6" class="node">
<title>Node6</title>
<g id="a_node6"><a xlink:title=" ">
<polygon fill="white" stroke="#bfbfbf" points="0,-163.5 0,-180.5 50,-180.5 50,-163.5 0,-163.5"/>
<text text-anchor="middle" x="25" y="-170.1" font-family="Helvetica,sans-Serif" font-size="8.00">uint64_t</text>
</a>
</g>
</g>
<!-- Node6&#45;&gt;Node5 -->
<g id="edge5" class="edge">
<title>Node6&#45;&gt;Node5</title>
<path fill="none" stroke="#9a32cd" stroke-dasharray="5,2" d="M60.61,-175.54C63.11,-175.72 65.59,-175.88 68,-176 143.01,-179.82 230.55,-179.03 281.39,-178.06"/>
<polygon fill="#9a32cd" stroke="#9a32cd" points="60.66,-172.03 50.4,-174.69 60.08,-179.01 60.66,-172.03"/>
<text text-anchor="middle" x="147.5" y="-180.6" font-family="Helvetica,sans-Serif" font-size="8.00"> m_id</text>
</g>
<!-- Node7 -->
<g id="node7" class="node">
<title>Node7</title>
<g id="a_node7"><a xlink:title=" ">
<polygon fill="white" stroke="black" points="100,-140.5 100,-157.5 195,-157.5 195,-140.5 100,-140.5"/>
<text text-anchor="middle" x="147.5" y="-147.1" font-family="Helvetica,sans-Serif" font-size="8.00">std::atomic&lt; id_t &gt;</text>
</a>
</g>
</g>
<!-- Node6&#45;&gt;Node7 -->
<g id="edge7" class="edge">
<title>Node6&#45;&gt;Node7</title>
<path fill="none" stroke="#9a32cd" stroke-dasharray="5,2" d="M60.04,-165.5C73.06,-163.02 88.11,-160.14 101.97,-157.5"/>
<polygon fill="#9a32cd" stroke="#9a32cd" points="59.26,-162.09 50.1,-167.4 60.57,-168.96 59.26,-162.09"/>
<text text-anchor="middle" x="75" y="-165.6" font-family="Helvetica,sans-Serif" font-size="8.00"> ptr</text>
</g>
<!-- Node7&#45;&gt;Node5 -->
<g id="edge6" class="edge">
<title>Node7&#45;&gt;Node5</title>
<path fill="none" stroke="#9a32cd" stroke-dasharray="5,2" d="M205.08,-158.03C229.87,-161.98 258.48,-166.55 281.43,-170.21"/>
<polygon fill="#9a32cd" stroke="#9a32cd" points="205.5,-154.55 195.07,-156.43 204.39,-161.46 205.5,-154.55"/>
<text text-anchor="middle" x="231.5" y="-166.6" font-family="Helvetica,sans-Serif" font-size="8.00"> s_last_id</text>
</g>
<!-- Node8 -->
<g id="node8" class="node">
<title>Node8</title>
<g id="a_node8"><a xlink:title=" ">
<polygon fill="white" stroke="#bfbfbf" points="275.5,-209.5 275.5,-226.5 374.5,-226.5 374.5,-209.5 275.5,-209.5"/>
<text text-anchor="middle" x="325" y="-216.1" font-family="Helvetica,sans-Serif" font-size="8.00">boost::noncopyable</text>
</a>
</g>
</g>
<!-- Node8&#45;&gt;Node1 -->
<g id="edge13" class="edge">
<title>Node8&#45;&gt;Node1</title>
<path fill="none" stroke="#8b1a1a" d="M384.96,-217.3C481.46,-215.83 679.11,-211.44 846,-199 905.32,-194.58 923.3,-204.89 979,-184 1004.3,-174.51 1029.22,-155.2 1044.23,-142.18"/>
<polygon fill="#8b1a1a" stroke="#8b1a1a" points="384.77,-213.8 374.82,-217.45 384.87,-220.8 384.77,-213.8"/>
</g>
<!-- Node8&#45;&gt;Node3 -->
<g id="edge8" class="edge">
<title>Node8&#45;&gt;Node3</title>
<path fill="none" stroke="#8b1a1a" d="M380.1,-207.54C428.34,-198.2 498,-184.73 542.25,-176.17"/>
<polygon fill="#8b1a1a" stroke="#8b1a1a" points="379.3,-204.13 370.14,-209.46 380.63,-211 379.3,-204.13"/>
</g>
<!-- Node9 -->
<g id="node9" class="node">
<title>Node9</title>
<g id="a_node9"><a xlink:title=" ">
<polygon fill="white" stroke="#bfbfbf" points="278,-82 278,-108 372,-108 372,-82 278,-82"/>
<text text-anchor="start" x="286" y="-97.6" font-family="Helvetica,sans-Serif" font-size="8.00">thread_specific_ptr</text>
<text text-anchor="middle" x="325" y="-88.6" font-family="Helvetica,sans-Serif" font-size="8.00">&lt; std::string &gt;</text>
</a>
</g>
</g>
<!-- Node9&#45;&gt;Node3 -->
<g id="edge9" class="edge">
<title>Node9&#45;&gt;Node3</title>
<path fill="none" stroke="#9a32cd" stroke-dasharray="5,2" d="M381.93,-101.69C420.14,-107.28 471.53,-116.84 515,-132 535.4,-139.12 557.27,-151.28 570.91,-159.48"/>
<polygon fill="#9a32cd" stroke="#9a32cd" points="382.41,-98.22 372.02,-100.28 381.43,-105.15 382.41,-98.22"/>
<text text-anchor="middle" x="457.5" y="-134.6" font-family="Helvetica,sans-Serif" font-size="8.00"> s_this_thread_nickname_ptr</text>
</g>
<!-- Node10 -->
<g id="node10" class="node">
<title>Node10</title>
<g id="a_node10"><a xlink:href="classflow_1_1log_1_1Component.html" target="_top" xlink:title="A light&#45;weight class, each object storing a component payload encoding an enum value from enum type o...">
<polygon fill="white" stroke="black" points="533,-246.5 533,-263.5 638,-263.5 638,-246.5 533,-246.5"/>
<text text-anchor="middle" x="585.5" y="-253.1" font-family="Helvetica,sans-Serif" font-size="8.00">flow::log::Component</text>
</a>
</g>
</g>
<!-- Node10&#45;&gt;Node2 -->
<g id="edge10" class="edge">
<title>Node10&#45;&gt;Node2</title>
<path fill="none" stroke="#9a32cd" stroke-dasharray="5,2" d="M619.76,-242.88C660.91,-227.88 729.92,-202.72 765.97,-189.58"/>
<polygon fill="#9a32cd" stroke="#9a32cd" points="618.38,-239.65 610.18,-246.37 620.78,-246.23 618.38,-239.65"/>
<text text-anchor="middle" x="686.5" y="-230.6" font-family="Helvetica,sans-Serif" font-size="8.00"> m_component</text>
</g>
<!-- Node11 -->
<g id="node11" class="node">
<title>Node11</title>
<g id="a_node11"><a xlink:title=" ">
<polygon fill="white" stroke="#bfbfbf" points="282.5,-246.5 282.5,-263.5 367.5,-263.5 367.5,-246.5 282.5,-246.5"/>
<text text-anchor="middle" x="325" y="-253.1" font-family="Helvetica,sans-Serif" font-size="8.00">type_info const *</text>
</a>
</g>
</g>
<!-- Node11&#45;&gt;Node10 -->
<g id="edge11" class="edge">
<title>Node11&#45;&gt;Node10</title>
<path fill="none" stroke="#9a32cd" stroke-dasharray="5,2" d="M377.68,-255C422.74,-255 487.76,-255 532.82,-255"/>
<polygon fill="#9a32cd" stroke="#9a32cd" points="377.53,-251.5 367.53,-255 377.53,-258.5 377.53,-251.5"/>
<text text-anchor="middle" x="457.5" y="-257.6" font-family="Helvetica,sans-Serif" font-size="8.00"> m_payload_type_or_null</text>
</g>
<!-- Node12 -->
<g id="node12" class="node">
<title>Node12</title>
<g id="a_node12"><a xlink:title=" ">
<polygon fill="white" stroke="#bfbfbf" points="291,-282.5 291,-299.5 359,-299.5 359,-282.5 291,-282.5"/>
<text text-anchor="middle" x="325" y="-289.1" font-family="Helvetica,sans-Serif" font-size="8.00">unsigned int</text>
</a>
</g>
</g>
<!-- Node12&#45;&gt;Node10 -->
<g id="edge12" class="edge">
<title>Node12&#45;&gt;Node10</title>
<path fill="none" stroke="#9a32cd" stroke-dasharray="5,2" d="M369.5,-286.5C407.88,-282.35 465.28,-275.67 515,-268 523.49,-266.69 532.54,-265.12 541.2,-263.54"/>
<polygon fill="#9a32cd" stroke="#9a32cd" points="368.78,-283.06 359.21,-287.61 369.52,-290.02 368.78,-283.06"/>
<text text-anchor="start" x="411" y="-293.6" font-family="Helvetica,sans-Serif" font-size="8.00"> m_payload_enum_raw</text>
<text text-anchor="middle" x="457.5" y="-284.6" font-family="Helvetica,sans-Serif" font-size="8.00">_value</text>
</g>
<!-- Node13 -->
<g id="node13" class="node">
<title>Node13</title>
<g id="a_node13"><a xlink:title=" ">
<polygon fill="white" stroke="#bfbfbf" points="746,-136.5 746,-153.5 835,-153.5 835,-136.5 746,-136.5"/>
<text text-anchor="middle" x="790.5" y="-143.1" font-family="Helvetica,sans-Serif" font-size="8.00">static const size_t</text>
</a>
</g>
</g>
<!-- Node13&#45;&gt;Node1 -->
<g id="edge14" class="edge">
<title>Node13&#45;&gt;Node1</title>
<path fill="none" stroke="#9a32cd" stroke-dasharray="5,2" d="M845.46,-141.77C889.23,-139.14 950.97,-135.44 996.72,-132.7"/>
<polygon fill="#9a32cd" stroke="#9a32cd" points="845.06,-138.28 835.29,-142.38 845.48,-145.27 845.06,-138.28"/>
<text text-anchor="start" x="864" y="-151.6" font-family="Helvetica,sans-Serif" font-size="8.00"> S_MAX_SLOW_START_CWND</text>
<text text-anchor="middle" x="921.5" y="-142.6" font-family="Helvetica,sans-Serif" font-size="8.00">_INCREMENT_BLOCKS</text>
</g>
<!-- Node14 -->
<g id="node14" class="node">
<title>Node14</title>
<g id="a_node14"><a xlink:title=" ">
<polygon fill="white" stroke="#bfbfbf" points="735,-82.5 735,-117.5 846,-117.5 846,-82.5 735,-82.5"/>
<text text-anchor="start" x="743" y="-107.1" font-family="Helvetica,sans-Serif" font-size="8.00">weak_ptr&lt; Peer_socket</text>
<text text-anchor="start" x="743" y="-98.1" font-family="Helvetica,sans-Serif" font-size="8.00">::Const_ptr::element</text>
<text text-anchor="middle" x="790.5" y="-89.1" font-family="Helvetica,sans-Serif" font-size="8.00">_type &gt;</text>
</a>
</g>
</g>
<!-- Node14&#45;&gt;Node1 -->
<g id="edge15" class="edge">
<title>Node14&#45;&gt;Node1</title>
<path fill="none" stroke="#9a32cd" stroke-dasharray="5,2" d="M856.2,-107.03C898.99,-111.68 954.75,-117.73 996.9,-122.31"/>
<polygon fill="#9a32cd" stroke="#9a32cd" points="856.5,-103.54 846.18,-105.94 855.74,-110.5 856.5,-103.54"/>
<text text-anchor="middle" x="921.5" y="-121.6" font-family="Helvetica,sans-Serif" font-size="8.00"> m_sock</text>
</g>
<!-- Node15 -->
<g id="node15" class="node">
<title>Node15</title>
<g id="a_node15"><a xlink:title=" ">
<polygon fill="white" stroke="#bfbfbf" points="770.5,-36.5 770.5,-53.5 810.5,-53.5 810.5,-36.5 770.5,-36.5"/>
<text text-anchor="middle" x="790.5" y="-43.1" font-family="Helvetica,sans-Serif" font-size="8.00">size_t</text>
</a>
</g>
</g>
<!-- Node15&#45;&gt;Node1 -->
<g id="edge16" class="edge">
<title>Node15&#45;&gt;Node1</title>
<path fill="none" stroke="#9a32cd" stroke-dasharray="5,2" d="M820.88,-41.6C858.97,-38.42 926.69,-36.99 979,-59 1008.49,-71.41 1034.62,-99.29 1048.33,-115.87"/>
<polygon fill="#9a32cd" stroke="#9a32cd" points="820.14,-38.15 810.51,-42.57 820.79,-45.12 820.14,-38.15"/>
<text text-anchor="start" x="876" y="-97.6" font-family="Helvetica,sans-Serif" font-size="8.00"> m_acked_bytes_since</text>
<text text-anchor="middle" x="921.5" y="-88.6" font-family="Helvetica,sans-Serif" font-size="8.00">_window_update</text>
<text text-anchor="middle" x="921.5" y="-79.6" font-family="Helvetica,sans-Serif" font-size="8.00">m_cong_wnd_bytes</text>
<text text-anchor="start" x="876" y="-70.6" font-family="Helvetica,sans-Serif" font-size="8.00">m_slow_start_thresh</text>
<text text-anchor="middle" x="921.5" y="-61.6" font-family="Helvetica,sans-Serif" font-size="8.00">_bytes</text>
</g>
<!-- Node16 -->
<g id="node16" class="node">
<title>Node16</title>
<g id="a_node16"><a xlink:title=" ">
<polygon fill="white" stroke="#bfbfbf" points="758,-0.5 758,-17.5 823,-17.5 823,-0.5 758,-0.5"/>
<text text-anchor="middle" x="790.5" y="-7.1" font-family="Helvetica,sans-Serif" font-size="8.00">const size_t</text>
</a>
</g>
</g>
<!-- Node16&#45;&gt;Node1 -->
<g id="edge17" class="edge">
<title>Node16&#45;&gt;Node1</title>
<path fill="none" stroke="#9a32cd" stroke-dasharray="5,2" d="M833.42,-3.93C873.34,-1.11 933.87,-2.22 979,-27 1016.19,-47.43 1041.8,-93.29 1052.66,-115.89"/>
<polygon fill="#9a32cd" stroke="#9a32cd" points="832.91,-0.46 823.23,-4.76 833.48,-7.43 832.91,-0.46"/>
<text text-anchor="middle" x="921.5" y="-29.6" font-family="Helvetica,sans-Serif" font-size="8.00"> m_init_cong_wnd_bytes</text>
</g>
</g>
</svg>
