<?xml version="1.0" encoding="UTF-8" standalone="no"?>
<!DOCTYPE svg PUBLIC "-//W3C//DTD SVG 1.1//EN"
 "http://www.w3.org/Graphics/SVG/1.1/DTD/svg11.dtd">
<!-- Generated by graphviz version 2.43.0 (0)
 -->
<!-- Title: flow::log::Ostream_log_msg_writer::log_past_time_stamp Pages: 1 -->
<svg width="278pt" height="108pt"
 viewBox="0.00 0.00 278.00 107.50" xmlns="http://www.w3.org/2000/svg" xmlns:xlink="http://www.w3.org/1999/xlink">
<g id="graph0" class="graph" transform="scale(1 1) rotate(0) translate(4 103.5)">
<title>flow::log::Ostream_log_msg_writer::log_past_time_stamp</title>
<polygon fill="white" stroke="transparent" points="-4,4 -4,-103.5 274,-103.5 274,4 -4,4"/>
<!-- Node1 -->
<g id="node1" class="node">
<title>Node1</title>
<g id="a_node1"><a xlink:title="Remainder of log() functionality after either do_log_with_epoch_time_stamp() or do_log_with_human_fri...">
<polygon fill="#bfbfbf" stroke="black" points="170,-34 170,-69 270,-69 270,-34 170,-34"/>
<text text-anchor="start" x="178" y="-58.6" font-family="Helvetica,sans-Serif" font-size="8.00">flow::log::Ostream</text>
<text text-anchor="start" x="178" y="-49.6" font-family="Helvetica,sans-Serif" font-size="8.00">_log_msg_writer::log</text>
<text text-anchor="middle" x="220" y="-40.6" font-family="Helvetica,sans-Serif" font-size="8.00">_past_time_stamp</text>
</a>
</g>
</g>
<!-- Node2 -->
<g id="node2" class="node">
<title>Node2</title>
<g id="a_node2"><a xlink:href="classflow_1_1log_1_1Ostream__log__msg__writer.html#ab0f5d7c5f289defcded5fa3560059411" target="_top" xlink:title="log() implementation with time stamp = seconds.microseconds since Epoch.">
<polygon fill="white" stroke="black" points="0,-64 0,-99 134,-99 134,-64 0,-64"/>
<text text-anchor="start" x="8" y="-88.6" font-family="Helvetica,sans-Serif" font-size="8.00">flow::log::Ostream</text>
<text text-anchor="start" x="8" y="-79.6" font-family="Helvetica,sans-Serif" font-size="8.00">_log_msg_writer::do</text>
<text text-anchor="middle" x="67" y="-70.6" font-family="Helvetica,sans-Serif" font-size="8.00">_log_with_epoch_time_stamp</text>
</a>
</g>
</g>
<!-- Node1&#45;&gt;Node2 -->
<g id="edge1" class="edge">
<title>Node1&#45;&gt;Node2</title>
<path fill="none" stroke="midnightblue" d="M160.12,-63.2C151.58,-64.89 142.75,-66.65 134.08,-68.37"/>
<polygon fill="midnightblue" stroke="midnightblue" points="160.85,-66.62 169.97,-61.24 159.48,-59.76 160.85,-66.62"/>
</g>
<!-- Node3 -->
<g id="node3" class="node">
<title>Node3</title>
<g id="a_node3"><a xlink:href="classflow_1_1log_1_1Ostream__log__msg__writer.html#a53d47232844dc7060ee95b4d831bbe29" target="_top" xlink:title="log() implementation with time stamp = date/time with microsecond resolution/time zone,...">
<polygon fill="white" stroke="black" points="6.5,-0.5 6.5,-44.5 127.5,-44.5 127.5,-0.5 6.5,-0.5"/>
<text text-anchor="start" x="14.5" y="-34.1" font-family="Helvetica,sans-Serif" font-size="8.00">flow::log::Ostream</text>
<text text-anchor="start" x="14.5" y="-25.1" font-family="Helvetica,sans-Serif" font-size="8.00">_log_msg_writer::do</text>
<text text-anchor="start" x="14.5" y="-16.1" font-family="Helvetica,sans-Serif" font-size="8.00">_log_with_human_friendly</text>
<text text-anchor="middle" x="67" y="-7.1" font-family="Helvetica,sans-Serif" font-size="8.00">_time_stamp</text>
</a>
</g>
</g>
<!-- Node1&#45;&gt;Node3 -->
<g id="edge2" class="edge">
<title>Node1&#45;&gt;Node3</title>
<path fill="none" stroke="midnightblue" d="M159.95,-40.16C149.32,-38.12 138.24,-35.99 127.59,-33.94"/>
<polygon fill="midnightblue" stroke="midnightblue" points="159.49,-43.64 169.97,-42.08 160.81,-36.76 159.49,-43.64"/>
</g>
</g>
</svg>
