<?xml version="1.0" encoding="UTF-8" standalone="no"?>
<!DOCTYPE svg PUBLIC "-//W3C//DTD SVG 1.1//EN"
 "http://www.w3.org/Graphics/SVG/1.1/DTD/svg11.dtd">
<!-- Generated by graphviz version 2.43.0 (0)
 -->
<!-- Title: flow::net_flow::Congestion_control_classic::congestion_window_decay Pages: 1 -->
<svg width="301pt" height="44pt"
 viewBox="0.00 0.00 301.00 44.00" xmlns="http://www.w3.org/2000/svg" xmlns:xlink="http://www.w3.org/1999/xlink">
<g id="graph0" class="graph" transform="scale(1 1) rotate(0) translate(4 40)">
<title>flow::net_flow::Congestion_control_classic::congestion_window_decay</title>
<polygon fill="white" stroke="transparent" points="-4,4 -4,-40 297,-40 297,4 -4,4"/>
<!-- Node1 -->
<g id="node1" class="node">
<title>Node1</title>
<g id="a_node1"><a xlink:title="Returns the decay (as a percentage) to apply to the congestion window upon encounterling loss.">
<polygon fill="#bfbfbf" stroke="black" points="0,-0.5 0,-35.5 132,-35.5 132,-0.5 0,-0.5"/>
<text text-anchor="start" x="8" y="-25.1" font-family="Helvetica,sans-Serif" font-size="8.00">flow::net_flow::Congestion</text>
<text text-anchor="start" x="8" y="-16.1" font-family="Helvetica,sans-Serif" font-size="8.00">_control_classic::congestion</text>
<text text-anchor="middle" x="66" y="-7.1" font-family="Helvetica,sans-Serif" font-size="8.00">_window_decay</text>
</a>
</g>
</g>
<!-- Node2 -->
<g id="node2" class="node">
<title>Node2</title>
<g id="a_node2"><a xlink:href="classflow_1_1net__flow_1_1Congestion__control__strategy.html#a3e9786f9e5f170ca23135a2a815bc3f4" target="_top" xlink:title="Utility for subclasses that returns a handle to the containing Peer_socket.">
<polygon fill="white" stroke="black" points="168,-5 168,-31 293,-31 293,-5 168,-5"/>
<text text-anchor="start" x="176" y="-20.6" font-family="Helvetica,sans-Serif" font-size="8.00">flow::net_flow::Congestion</text>
<text text-anchor="middle" x="230.5" y="-11.6" font-family="Helvetica,sans-Serif" font-size="8.00">_control_strategy::socket</text>
</a>
</g>
</g>
<!-- Node1&#45;&gt;Node2 -->
<g id="edge1" class="edge">
<title>Node1&#45;&gt;Node2</title>
<path fill="none" stroke="midnightblue" d="M132.16,-18C140.51,-18 149.09,-18 157.54,-18"/>
<polygon fill="midnightblue" stroke="midnightblue" points="157.76,-21.5 167.76,-18 157.76,-14.5 157.76,-21.5"/>
</g>
</g>
</svg>
