<?xml version="1.0" encoding="UTF-8" standalone="no"?>
<!DOCTYPE svg PUBLIC "-//W3C//DTD SVG 1.1//EN"
 "http://www.w3.org/Graphics/SVG/1.1/DTD/svg11.dtd">
<!-- Generated by graphviz version 2.43.0 (0)
 -->
<!-- Title: flow::async::Segregated_thread_task_loop::task_engine Pages: 1 -->
<svg width="278pt" height="90pt"
 viewBox="0.00 0.00 278.00 89.50" xmlns="http://www.w3.org/2000/svg" xmlns:xlink="http://www.w3.org/1999/xlink">
<g id="graph0" class="graph" transform="scale(1 1) rotate(0) translate(4 85.5)">
<title>flow::async::Segregated_thread_task_loop::task_engine</title>
<polygon fill="white" stroke="transparent" points="-4,4 -4,-85.5 274,-85.5 274,4 -4,4"/>
<!-- Node1 -->
<g id="node1" class="node">
<title>Node1</title>
<g id="a_node1"><a xlink:title="See superclass API.">
<polygon fill="#bfbfbf" stroke="black" points="0,-21 0,-56 117,-56 117,-21 0,-21"/>
<text text-anchor="start" x="8" y="-45.6" font-family="Helvetica,sans-Serif" font-size="8.00">flow::async::Segregated</text>
<text text-anchor="start" x="8" y="-36.6" font-family="Helvetica,sans-Serif" font-size="8.00">_thread_task_loop::task</text>
<text text-anchor="middle" x="58.5" y="-27.6" font-family="Helvetica,sans-Serif" font-size="8.00">_engine</text>
</a>
</g>
</g>
<!-- Node2 -->
<g id="node2" class="node">
<title>Node2</title>
<g id="a_node2"><a xlink:href="classflow_1_1async_1_1Segregated__thread__task__loop.html#a4c42c76a9d3f2926bb5545065d69783e" target="_top" xlink:title="Implements superclass API.">
<polygon fill="white" stroke="black" points="153,-46 153,-81 270,-81 270,-46 153,-46"/>
<text text-anchor="start" x="161" y="-70.6" font-family="Helvetica,sans-Serif" font-size="8.00">flow::async::Segregated</text>
<text text-anchor="start" x="161" y="-61.6" font-family="Helvetica,sans-Serif" font-size="8.00">_thread_task_loop::per</text>
<text text-anchor="middle" x="211.5" y="-52.6" font-family="Helvetica,sans-Serif" font-size="8.00">_thread_ops</text>
</a>
</g>
</g>
<!-- Node1&#45;&gt;Node2 -->
<g id="edge1" class="edge">
<title>Node1&#45;&gt;Node2</title>
<path fill="none" stroke="midnightblue" d="M117.02,-48.02C125.46,-49.42 134.23,-50.87 142.86,-52.3"/>
<polygon fill="midnightblue" stroke="midnightblue" points="142.46,-55.78 152.89,-53.96 143.6,-48.88 142.46,-55.78"/>
</g>
<!-- Node3 -->
<g id="node3" class="node">
<title>Node3</title>
<g id="a_node3"><a xlink:href="classflow_1_1async_1_1Op__list.html#ad0929efa574298c96c13845a6e020d7d" target="_top" xlink:title="Returns a randomly selected index from range [O, size()).">
<polygon fill="white" stroke="black" points="163.5,-0.5 163.5,-26.5 259.5,-26.5 259.5,-0.5 163.5,-0.5"/>
<text text-anchor="start" x="171.5" y="-16.1" font-family="Helvetica,sans-Serif" font-size="8.00">flow::async::Op_list</text>
<text text-anchor="middle" x="211.5" y="-7.1" font-family="Helvetica,sans-Serif" font-size="8.00">::random_idx</text>
</a>
</g>
</g>
<!-- Node1&#45;&gt;Node3 -->
<g id="edge2" class="edge">
<title>Node1&#45;&gt;Node3</title>
<path fill="none" stroke="midnightblue" d="M117.02,-28.98C128.88,-27.01 141.37,-24.95 153.22,-22.98"/>
<polygon fill="midnightblue" stroke="midnightblue" points="154.15,-26.38 163.44,-21.29 153,-19.47 154.15,-26.38"/>
</g>
</g>
</svg>
