<?xml version="1.0" encoding="UTF-8" standalone="no"?>
<!DOCTYPE svg PUBLIC "-//W3C//DTD SVG 1.1//EN"
 "http://www.w3.org/Graphics/SVG/1.1/DTD/svg11.dtd">
<!-- Generated by graphviz version 2.43.0 (0)
 -->
<!-- Title: flow::net_flow::Node::event_set_all_check_delta Pages: 1 -->
<svg width="1392pt" height="423pt"
 viewBox="0.00 0.00 1392.00 422.64" xmlns="http://www.w3.org/2000/svg" xmlns:xlink="http://www.w3.org/1999/xlink">
<g id="graph0" class="graph" transform="scale(1 1) rotate(0) translate(4 418.64)">
<title>flow::net_flow::Node::event_set_all_check_delta</title>
<polygon fill="white" stroke="transparent" points="-4,4 -4,-418.64 1388,-418.64 1388,4 -4,4"/>
<!-- Node1 -->
<g id="node1" class="node">
<title>Node1</title>
<g id="a_node1"><a xlink:title="For each WAITING Event_set within the Node: checks for any events that hold, and if any do hold,...">
<polygon fill="#bfbfbf" stroke="black" points="1256,-125.5 1256,-151.5 1384,-151.5 1384,-125.5 1256,-125.5"/>
<text text-anchor="start" x="1264" y="-141.1" font-family="Helvetica,sans-Serif" font-size="8.00">flow::net_flow::Node</text>
<text text-anchor="middle" x="1320" y="-132.1" font-family="Helvetica,sans-Serif" font-size="8.00">::event_set_all_check_delta</text>
</a>
</g>
</g>
<!-- Node2 -->
<g id="node2" class="node">
<title>Node2</title>
<g id="a_node2"><a xlink:href="classflow_1_1net__flow_1_1Node.html#ade49e7bc7202a0adf33fec2d93d1b177" target="_top" xlink:title="A thread W method that handles the transition of the given socket from OPEN (any sub&#45;state) to CLOSED...">
<polygon fill="white" stroke="black" points="1072,-221.5 1072,-247.5 1220,-247.5 1220,-221.5 1072,-221.5"/>
<text text-anchor="start" x="1080" y="-237.1" font-family="Helvetica,sans-Serif" font-size="8.00">flow::net_flow::Node</text>
<text text-anchor="middle" x="1146" y="-228.1" font-family="Helvetica,sans-Serif" font-size="8.00">::close_connection_immediately</text>
</a>
</g>
</g>
<!-- Node1&#45;&gt;Node2 -->
<g id="edge1" class="edge">
<title>Node1&#45;&gt;Node2</title>
<path fill="none" stroke="midnightblue" d="M1296.76,-158.27C1277.57,-174.47 1248.52,-197 1220,-211.5 1212.54,-215.29 1204.33,-218.61 1196.19,-221.46"/>
<polygon fill="midnightblue" stroke="midnightblue" points="1299.29,-160.71 1304.59,-151.54 1294.73,-155.4 1299.29,-160.71"/>
</g>
<!-- Node21 -->
<g id="node14" class="node">
<title>Node21</title>
<g id="a_node14"><a xlink:href="classflow_1_1net__flow_1_1Node.html#a29d02f9e302c7b06288ff1c644fa8d65" target="_top" xlink:title="Handles a just&#45;deserialized, just&#45;demultiplexed low&#45;level SYN_ACK_ACK packet delivered to the given p...">
<polygon fill="white" stroke="black" points="617,-163 617,-198 722,-198 722,-163 617,-163"/>
<text text-anchor="start" x="625" y="-187.6" font-family="Helvetica,sans-Serif" font-size="8.00">flow::net_flow::Node</text>
<text text-anchor="start" x="625" y="-178.6" font-family="Helvetica,sans-Serif" font-size="8.00">::handle_syn_ack_ack</text>
<text text-anchor="middle" x="669.5" y="-169.6" font-family="Helvetica,sans-Serif" font-size="8.00">_to_syn_rcvd</text>
</a>
</g>
</g>
<!-- Node1&#45;&gt;Node21 -->
<g id="edge23" class="edge">
<title>Node1&#45;&gt;Node21</title>
<path fill="none" stroke="midnightblue" d="M1245.62,-137.02C1140.17,-135.84 939.87,-137.11 771,-158.5 754.96,-160.53 737.71,-163.88 722.09,-167.35"/>
<polygon fill="midnightblue" stroke="midnightblue" points="1245.79,-140.53 1255.83,-137.15 1245.87,-133.53 1245.79,-140.53"/>
</g>
<!-- Node23 -->
<g id="node17" class="node">
<title>Node23</title>
<g id="a_node17"><a xlink:href="classflow_1_1net__flow_1_1Node.html#adf6d71af81def2d030f0fef159c1b06d" target="_top" xlink:title="Handles the transition of the given server socket from S_LISTENING/S_CLOSING to S_CLOSED (including e...">
<polygon fill="white" stroke="black" points="1094.5,-167 1094.5,-202 1197.5,-202 1197.5,-167 1094.5,-167"/>
<text text-anchor="start" x="1102.5" y="-191.6" font-family="Helvetica,sans-Serif" font-size="8.00">flow::net_flow::Node</text>
<text text-anchor="start" x="1102.5" y="-182.6" font-family="Helvetica,sans-Serif" font-size="8.00">::close_empty_server</text>
<text text-anchor="middle" x="1146" y="-173.6" font-family="Helvetica,sans-Serif" font-size="8.00">_immediately</text>
</a>
</g>
</g>
<!-- Node1&#45;&gt;Node23 -->
<g id="edge21" class="edge">
<title>Node1&#45;&gt;Node23</title>
<path fill="none" stroke="midnightblue" d="M1260.39,-154.18C1240.04,-159.62 1217.41,-165.67 1197.75,-170.93"/>
<polygon fill="midnightblue" stroke="midnightblue" points="1261.42,-157.52 1270.17,-151.56 1259.61,-150.76 1261.42,-157.52"/>
</g>
<!-- Node24 -->
<g id="node18" class="node">
<title>Node24</title>
<g id="a_node18"><a xlink:href="classflow_1_1net__flow_1_1Node.html#a0fba26db0055a969f3869014bc5c2bfc" target="_top" xlink:title="Performs all tasks to be performed at the end of low_lvl_recv_and_handle() or async part of async_wai...">
<polygon fill="white" stroke="black" points="456,-83 456,-118 568,-118 568,-83 456,-83"/>
<text text-anchor="start" x="464" y="-107.6" font-family="Helvetica,sans-Serif" font-size="8.00">flow::net_flow::Node</text>
<text text-anchor="start" x="464" y="-98.6" font-family="Helvetica,sans-Serif" font-size="8.00">::perform_accumulated</text>
<text text-anchor="middle" x="512" y="-89.6" font-family="Helvetica,sans-Serif" font-size="8.00">_on_recv_tasks</text>
</a>
</g>
</g>
<!-- Node1&#45;&gt;Node24 -->
<g id="edge24" class="edge">
<title>Node1&#45;&gt;Node24</title>
<path fill="none" stroke="midnightblue" d="M1245.75,-125.75C1175.89,-114.71 1067.6,-100.5 973,-100.5 973,-100.5 973,-100.5 820.5,-100.5 732.28,-100.5 629.82,-100.5 568.27,-100.5"/>
<polygon fill="midnightblue" stroke="midnightblue" points="1245.35,-129.23 1255.78,-127.36 1246.45,-122.32 1245.35,-129.23"/>
</g>
<!-- Node25 -->
<g id="node19" class="node">
<title>Node25</title>
<g id="a_node19"><a xlink:href="classflow_1_1net__flow_1_1Node.html#a10a92f11a2c9f218cdd9a55f282e79b1" target="_top" xlink:title="Thread W implemention of send(): synchronously or asynchronously send the contents of sock&#45;&gt;m_snd_buf...">
<polygon fill="white" stroke="black" points="1095.5,-45.5 1095.5,-71.5 1196.5,-71.5 1196.5,-45.5 1095.5,-45.5"/>
<text text-anchor="start" x="1103.5" y="-61.1" font-family="Helvetica,sans-Serif" font-size="8.00">flow::net_flow::Node</text>
<text text-anchor="middle" x="1146" y="-52.1" font-family="Helvetica,sans-Serif" font-size="8.00">::send_worker</text>
</a>
</g>
</g>
<!-- Node1&#45;&gt;Node25 -->
<g id="edge27" class="edge">
<title>Node1&#45;&gt;Node25</title>
<path fill="none" stroke="midnightblue" d="M1286.88,-120.41C1267.74,-109.93 1242.8,-96.82 1220,-86.5 1208.38,-81.24 1195.45,-76.07 1183.74,-71.63"/>
<polygon fill="midnightblue" stroke="midnightblue" points="1285.34,-123.55 1295.78,-125.31 1288.72,-117.42 1285.34,-123.55"/>
</g>
<!-- Node3 -->
<g id="node3" class="node">
<title>Node3</title>
<g id="a_node3"><a xlink:href="classflow_1_1net__flow_1_1Node.html#a1699dfdaf3e5ebe1b1d715a9c306d116" target="_top" xlink:title="Handles a just&#45;received, not&#45;yet&#45;deserialized low&#45;level packet.">
<polygon fill="white" stroke="black" points="461.5,-173.5 461.5,-199.5 562.5,-199.5 562.5,-173.5 461.5,-173.5"/>
<text text-anchor="start" x="469.5" y="-189.1" font-family="Helvetica,sans-Serif" font-size="8.00">flow::net_flow::Node</text>
<text text-anchor="middle" x="512" y="-180.1" font-family="Helvetica,sans-Serif" font-size="8.00">::handle_incoming</text>
</a>
</g>
</g>
<!-- Node2&#45;&gt;Node3 -->
<g id="edge2" class="edge">
<title>Node2&#45;&gt;Node3</title>
<path fill="none" stroke="midnightblue" d="M1127.34,-255.34C1107.54,-277.13 1073.28,-310.37 1036,-326.5 859.21,-403 768.66,-461.47 604,-361.5 543.7,-324.89 521.52,-233.88 515.16,-199.73"/>
<polygon fill="midnightblue" stroke="midnightblue" points="1130.18,-257.41 1134.2,-247.61 1124.95,-252.77 1130.18,-257.41"/>
</g>
<!-- Node9 -->
<g id="node7" class="node">
<title>Node9</title>
<g id="a_node7"><a xlink:href="classflow_1_1net__flow_1_1Node.html#ad608f9bbe76426f4fbf4bf5af908e4e0" target="_top" xlink:title="Placed by receive() onto W during a graceful close, after the Receive buffer had been emptied by the ...">
<polygon fill="white" stroke="black" points="911.5,-282 911.5,-317 1032.5,-317 1032.5,-282 911.5,-282"/>
<text text-anchor="start" x="919.5" y="-306.6" font-family="Helvetica,sans-Serif" font-size="8.00">flow::net_flow::Node</text>
<text text-anchor="start" x="919.5" y="-297.6" font-family="Helvetica,sans-Serif" font-size="8.00">::receive_emptied_rcv</text>
<text text-anchor="middle" x="972" y="-288.6" font-family="Helvetica,sans-Serif" font-size="8.00">_buf_while_disconnecting</text>
</a>
</g>
</g>
<!-- Node2&#45;&gt;Node9 -->
<g id="edge8" class="edge">
<title>Node2&#45;&gt;Node9</title>
<path fill="none" stroke="midnightblue" d="M1100.63,-251.27C1075.74,-260.67 1044.72,-272.4 1019.5,-281.93"/>
<polygon fill="midnightblue" stroke="midnightblue" points="1102.08,-254.46 1110.19,-247.65 1099.6,-247.91 1102.08,-254.46"/>
</g>
<!-- Node18 -->
<g id="node11" class="node">
<title>Node18</title>
<g id="a_node11"><a xlink:href="classflow_1_1net__flow_1_1Node.html#afe70a0c32695e417e7a09e0ba773f151" target="_top" xlink:title="Asynchronously send RST to the other side of the given socket and close_connection_immediately().">
<polygon fill="white" stroke="black" points="908,-217 908,-252 1036,-252 1036,-217 908,-217"/>
<text text-anchor="start" x="916" y="-241.6" font-family="Helvetica,sans-Serif" font-size="8.00">flow::net_flow::Node</text>
<text text-anchor="start" x="916" y="-232.6" font-family="Helvetica,sans-Serif" font-size="8.00">::rst_and_close_connection</text>
<text text-anchor="middle" x="972" y="-223.6" font-family="Helvetica,sans-Serif" font-size="8.00">_immediately</text>
</a>
</g>
</g>
<!-- Node2&#45;&gt;Node18 -->
<g id="edge12" class="edge">
<title>Node2&#45;&gt;Node18</title>
<path fill="none" stroke="midnightblue" d="M1061.28,-234.5C1052.83,-234.5 1044.35,-234.5 1036.17,-234.5"/>
<polygon fill="midnightblue" stroke="midnightblue" points="1061.56,-238 1071.56,-234.5 1061.56,-231 1061.56,-238"/>
</g>
<!-- Node8 -->
<g id="node16" class="node">
<title>Node8</title>
<g id="a_node16"><a xlink:href="classflow_1_1net__flow_1_1Node.html#a5b056ed753b832458f44f537acfe86d7" target="_top" xlink:title="Worker thread W (main event loop) body.">
<polygon fill="white" stroke="black" points="921.5,-171.5 921.5,-197.5 1022.5,-197.5 1022.5,-171.5 921.5,-171.5"/>
<text text-anchor="start" x="929.5" y="-187.1" font-family="Helvetica,sans-Serif" font-size="8.00">flow::net_flow::Node</text>
<text text-anchor="middle" x="972" y="-178.1" font-family="Helvetica,sans-Serif" font-size="8.00">::worker_run</text>
</a>
</g>
</g>
<!-- Node2&#45;&gt;Node8 -->
<g id="edge20" class="edge">
<title>Node2&#45;&gt;Node8</title>
<path fill="none" stroke="midnightblue" d="M1090.47,-218.65C1067.06,-211.84 1040.04,-203.99 1017.82,-197.53"/>
<polygon fill="midnightblue" stroke="midnightblue" points="1089.68,-222.06 1100.26,-221.49 1091.63,-215.34 1089.68,-222.06"/>
</g>
<!-- Node4 -->
<g id="node4" class="node">
<title>Node4</title>
<g id="a_node4"><a xlink:href="classflow_1_1net__flow_1_1Node.html#a4368247d07e930bdd07ab8d2425c6de8" target="_top" xlink:title="Sets up handle_incoming(packet_data, low_lvl_remote_endpoint) to be called asynchronously after a spe...">
<polygon fill="white" stroke="black" points="307,-126 307,-161 420,-161 420,-126 307,-126"/>
<text text-anchor="start" x="315" y="-150.6" font-family="Helvetica,sans-Serif" font-size="8.00">flow::net_flow::Node</text>
<text text-anchor="start" x="315" y="-141.6" font-family="Helvetica,sans-Serif" font-size="8.00">::async_wait_latency</text>
<text text-anchor="middle" x="363.5" y="-132.6" font-family="Helvetica,sans-Serif" font-size="8.00">_then_handle_incoming</text>
</a>
</g>
</g>
<!-- Node3&#45;&gt;Node4 -->
<g id="edge3" class="edge">
<title>Node3&#45;&gt;Node4</title>
<path fill="none" stroke="midnightblue" d="M456.8,-170.59C444.83,-167.08 432.14,-163.35 420.12,-159.82"/>
<polygon fill="midnightblue" stroke="midnightblue" points="456.07,-174.02 466.65,-173.48 458.04,-167.31 456.07,-174.02"/>
</g>
<!-- Node5 -->
<g id="node5" class="node">
<title>Node5</title>
<g id="a_node5"><a xlink:href="classflow_1_1net__flow_1_1Node.html#a90ecbad1ff3a8d2fe4b3ad1c474f7513" target="_top" xlink:title="Helper for low_lvl_recv_and_handle() that calls handle_incoming() on the not&#45;yet&#45;deserialized low&#45;lev...">
<polygon fill="white" stroke="black" points="158,-126 158,-161 271,-161 271,-126 158,-126"/>
<text text-anchor="start" x="166" y="-150.6" font-family="Helvetica,sans-Serif" font-size="8.00">flow::net_flow::Node</text>
<text text-anchor="start" x="166" y="-141.6" font-family="Helvetica,sans-Serif" font-size="8.00">::handle_incoming_with</text>
<text text-anchor="middle" x="214.5" y="-132.6" font-family="Helvetica,sans-Serif" font-size="8.00">_simulation</text>
</a>
</g>
</g>
<!-- Node3&#45;&gt;Node5 -->
<g id="edge7" class="edge">
<title>Node3&#45;&gt;Node5</title>
<path fill="none" stroke="midnightblue" d="M451.09,-185.09C410.21,-183.32 354.99,-179.36 307,-170.5 294.3,-168.15 280.84,-164.73 268.27,-161.11"/>
<polygon fill="midnightblue" stroke="midnightblue" points="451.02,-188.59 461.16,-185.49 451.31,-181.59 451.02,-188.59"/>
</g>
<!-- Node4&#45;&gt;Node5 -->
<g id="edge4" class="edge">
<title>Node4&#45;&gt;Node5</title>
<path fill="none" stroke="midnightblue" d="M296.92,-143.5C288.32,-143.5 279.57,-143.5 271.15,-143.5"/>
<polygon fill="midnightblue" stroke="midnightblue" points="296.93,-147 306.93,-143.5 296.93,-140 296.93,-147"/>
</g>
<!-- Node5&#45;&gt;Node5 -->
<g id="edge5" class="edge">
<title>Node5&#45;&gt;Node5</title>
<path fill="none" stroke="midnightblue" d="M240.27,-171.6C236.65,-176.27 228.06,-179.5 214.5,-179.5 192.24,-179.5 183.37,-170.81 187.89,-161.28"/>
<polygon fill="midnightblue" stroke="midnightblue" points="243.79,-171.53 241.11,-161.28 236.81,-170.97 243.79,-171.53"/>
</g>
<!-- Node6 -->
<g id="node6" class="node">
<title>Node6</title>
<g id="a_node6"><a xlink:href="classflow_1_1net__flow_1_1Node.html#a9909cd2b2a77c57da9e35fcef0f8a4e5" target="_top" xlink:title="Handles the pre&#45;condition that m_low_lvl_sock has a UDP packet available for reading,...">
<polygon fill="white" stroke="red" points="0,-107.5 0,-133.5 122,-133.5 122,-107.5 0,-107.5"/>
<text text-anchor="start" x="8" y="-123.1" font-family="Helvetica,sans-Serif" font-size="8.00">flow::net_flow::Node</text>
<text text-anchor="middle" x="61" y="-114.1" font-family="Helvetica,sans-Serif" font-size="8.00">::low_lvl_recv_and_handle</text>
</a>
</g>
</g>
<!-- Node5&#45;&gt;Node6 -->
<g id="edge6" class="edge">
<title>Node5&#45;&gt;Node6</title>
<path fill="none" stroke="midnightblue" d="M147.98,-133.55C139.39,-132.25 130.63,-130.92 122.14,-129.63"/>
<polygon fill="midnightblue" stroke="midnightblue" points="147.54,-137.03 157.95,-135.07 148.59,-130.1 147.54,-137.03"/>
</g>
<!-- Node10 -->
<g id="node8" class="node">
<title>Node10</title>
<g id="a_node8"><a xlink:href="classflow_1_1net__flow_1_1Node.html#addbb96858fd7b3c9ddd7c6fe8078809c" target="_top" xlink:title="Implementation of non&#45;blocking sock&#45;&gt;receive() for socket sock in all cases except when sock&#45;&gt;state()...">
<polygon fill="white" stroke="black" points="771,-296.5 771,-322.5 872,-322.5 872,-296.5 771,-296.5"/>
<text text-anchor="start" x="779" y="-312.1" font-family="Helvetica,sans-Serif" font-size="8.00">flow::net_flow::Node</text>
<text text-anchor="middle" x="821.5" y="-303.1" font-family="Helvetica,sans-Serif" font-size="8.00">::receive</text>
</a>
</g>
</g>
<!-- Node9&#45;&gt;Node10 -->
<g id="edge9" class="edge">
<title>Node9&#45;&gt;Node10</title>
<path fill="none" stroke="midnightblue" d="M901.25,-304.2C891.39,-304.86 881.42,-305.53 872.05,-306.16"/>
<polygon fill="midnightblue" stroke="midnightblue" points="901.71,-307.67 911.46,-303.51 901.24,-300.69 901.71,-307.67"/>
</g>
<!-- Node11 -->
<g id="node9" class="node">
<title>Node11</title>
<g id="a_node9"><a xlink:href="classflow_1_1net__flow_1_1Peer__socket.html#af3ac1b0b3c9b1c3a5ec246148595c657" target="_top" xlink:title="Non&#45;template helper for template receive() that forwards the receive() logic to Node::receive().">
<polygon fill="white" stroke="red" points="615.5,-325.5 615.5,-351.5 723.5,-351.5 723.5,-325.5 615.5,-325.5"/>
<text text-anchor="start" x="623.5" y="-341.1" font-family="Helvetica,sans-Serif" font-size="8.00">flow::net_flow::Peer</text>
<text text-anchor="middle" x="669.5" y="-332.1" font-family="Helvetica,sans-Serif" font-size="8.00">_socket::node_receive</text>
</a>
</g>
</g>
<!-- Node10&#45;&gt;Node11 -->
<g id="edge10" class="edge">
<title>Node10&#45;&gt;Node11</title>
<path fill="none" stroke="midnightblue" d="M760.8,-321.04C748.51,-323.42 735.64,-325.91 723.59,-328.24"/>
<polygon fill="midnightblue" stroke="midnightblue" points="761.81,-324.41 770.97,-319.08 760.49,-317.54 761.81,-324.41"/>
</g>
<!-- Node13 -->
<g id="node10" class="node">
<title>Node13</title>
<g id="a_node10"><a xlink:href="classflow_1_1net__flow_1_1Peer__socket.html#a8abde92d5189bf2a058fe8741789f814" target="_top" xlink:title="This is to sync_receive() as node_receive() is to receive().">
<polygon fill="white" stroke="red" points="604,-280.5 604,-306.5 735,-306.5 735,-280.5 604,-280.5"/>
<text text-anchor="start" x="612" y="-296.1" font-family="Helvetica,sans-Serif" font-size="8.00">flow::net_flow::Peer</text>
<text text-anchor="middle" x="669.5" y="-287.1" font-family="Helvetica,sans-Serif" font-size="8.00">_socket::node_sync_receive</text>
</a>
</g>
</g>
<!-- Node10&#45;&gt;Node13 -->
<g id="edge11" class="edge">
<title>Node10&#45;&gt;Node13</title>
<path fill="none" stroke="midnightblue" d="M760.86,-303.14C752.43,-302.24 743.74,-301.31 735.23,-300.4"/>
<polygon fill="midnightblue" stroke="midnightblue" points="760.65,-306.64 770.97,-304.22 761.4,-299.68 760.65,-306.64"/>
</g>
<!-- Node19 -->
<g id="node12" class="node">
<title>Node19</title>
<g id="a_node12"><a xlink:href="classflow_1_1net__flow_1_1Node.html#a6461124e5bc3e59083e172e26029e632" target="_top" xlink:title="Implementation of non&#45;blocking sock&#45;&gt;close_abruptly() for socket sock in all cases except when sock&#45;&gt;...">
<polygon fill="white" stroke="black" points="771,-251.5 771,-277.5 872,-277.5 872,-251.5 771,-251.5"/>
<text text-anchor="start" x="779" y="-267.1" font-family="Helvetica,sans-Serif" font-size="8.00">flow::net_flow::Node</text>
<text text-anchor="middle" x="821.5" y="-258.1" font-family="Helvetica,sans-Serif" font-size="8.00">::close_abruptly</text>
</a>
</g>
</g>
<!-- Node18&#45;&gt;Node19 -->
<g id="edge13" class="edge">
<title>Node18&#45;&gt;Node19</title>
<path fill="none" stroke="midnightblue" d="M897.55,-249.34C888.97,-251.07 880.38,-252.81 872.23,-254.45"/>
<polygon fill="midnightblue" stroke="midnightblue" points="898.48,-252.72 907.59,-247.31 897.1,-245.86 898.48,-252.72"/>
</g>
<!-- Node18&#45;&gt;Node21 -->
<g id="edge16" class="edge">
<title>Node18&#45;&gt;Node21</title>
<path fill="none" stroke="midnightblue" d="M897.8,-224.43C859.85,-218.89 812.81,-211.51 771,-203.5 755.09,-200.45 737.87,-196.68 722.25,-193.09"/>
<polygon fill="midnightblue" stroke="midnightblue" points="897.35,-227.9 907.75,-225.87 898.35,-220.97 897.35,-227.9"/>
</g>
<!-- Node22 -->
<g id="node15" class="node">
<title>Node22</title>
<g id="a_node15"><a xlink:href="classflow_1_1net__flow_1_1Node.html#ab427ebc124a6233ae48a7562662a6e81" target="_top" xlink:title="Creates a new Drop Timer and saves it to sock&#45;&gt;m_snd_drop_timer.">
<polygon fill="white" stroke="black" points="771,-167.5 771,-193.5 872,-193.5 872,-167.5 771,-167.5"/>
<text text-anchor="start" x="779" y="-183.1" font-family="Helvetica,sans-Serif" font-size="8.00">flow::net_flow::Node</text>
<text text-anchor="middle" x="821.5" y="-174.1" font-family="Helvetica,sans-Serif" font-size="8.00">::setup_drop_timer</text>
</a>
</g>
</g>
<!-- Node18&#45;&gt;Node22 -->
<g id="edge18" class="edge">
<title>Node18&#45;&gt;Node22</title>
<path fill="none" stroke="midnightblue" d="M913.33,-213.53C894.94,-206.84 875.13,-199.64 858.71,-193.67"/>
<polygon fill="midnightblue" stroke="midnightblue" points="912.19,-216.84 922.79,-216.97 914.58,-210.26 912.19,-216.84"/>
</g>
<!-- Node20 -->
<g id="node13" class="node">
<title>Node20</title>
<g id="a_node13"><a xlink:href="classflow_1_1net__flow_1_1Peer__socket.html#a1812e852957c43ccca8712d63c6e3de7" target="_top" xlink:title="Acts as if fatal error error::Code::S_USER_CLOSED_ABRUPTLY has been discovered on the connection.">
<polygon fill="white" stroke="black" points="613,-217.5 613,-243.5 726,-243.5 726,-217.5 613,-217.5"/>
<text text-anchor="start" x="621" y="-233.1" font-family="Helvetica,sans-Serif" font-size="8.00">flow::net_flow::Peer</text>
<text text-anchor="middle" x="669.5" y="-224.1" font-family="Helvetica,sans-Serif" font-size="8.00">_socket::close_abruptly</text>
</a>
</g>
</g>
<!-- Node19&#45;&gt;Node20 -->
<g id="edge14" class="edge">
<title>Node19&#45;&gt;Node20</title>
<path fill="none" stroke="midnightblue" d="M761.04,-251.02C749.55,-248.42 737.56,-245.7 726.2,-243.13"/>
<polygon fill="midnightblue" stroke="midnightblue" points="760.44,-254.48 770.97,-253.27 761.99,-247.65 760.44,-254.48"/>
</g>
<!-- Node20&#45;&gt;Node20 -->
<g id="edge15" class="edge">
<title>Node20&#45;&gt;Node20</title>
<path fill="none" stroke="midnightblue" d="M696.86,-253.94C693.82,-258.64 684.7,-262 669.5,-262 644.56,-262 635.99,-252.96 643.78,-243.77"/>
<polygon fill="midnightblue" stroke="midnightblue" points="700.27,-253.09 695.22,-243.77 693.35,-254.2 700.27,-253.09"/>
</g>
<!-- Node21&#45;&gt;Node3 -->
<g id="edge17" class="edge">
<title>Node21&#45;&gt;Node3</title>
<path fill="none" stroke="midnightblue" d="M606.33,-182.9C591.83,-183.46 576.58,-184.05 562.71,-184.58"/>
<polygon fill="midnightblue" stroke="midnightblue" points="606.86,-186.38 616.72,-182.5 606.59,-179.39 606.86,-186.38"/>
</g>
<!-- Node22&#45;&gt;Node21 -->
<g id="edge19" class="edge">
<title>Node22&#45;&gt;Node21</title>
<path fill="none" stroke="midnightblue" d="M760.84,-180.5C748,-180.5 734.53,-180.5 722.04,-180.5"/>
<polygon fill="midnightblue" stroke="midnightblue" points="760.97,-184 770.97,-180.5 760.97,-177 760.97,-184"/>
</g>
<!-- Node23&#45;&gt;Node8 -->
<g id="edge22" class="edge">
<title>Node23&#45;&gt;Node8</title>
<path fill="none" stroke="midnightblue" d="M1084.31,-184.5C1064.15,-184.5 1041.95,-184.5 1022.72,-184.5"/>
<polygon fill="midnightblue" stroke="midnightblue" points="1084.32,-188 1094.32,-184.5 1084.32,-181 1084.32,-188"/>
</g>
<!-- Node24&#45;&gt;Node4 -->
<g id="edge25" class="edge">
<title>Node24&#45;&gt;Node4</title>
<path fill="none" stroke="midnightblue" d="M445.79,-119.64C437.33,-122.12 428.73,-124.65 420.45,-127.08"/>
<polygon fill="midnightblue" stroke="midnightblue" points="447.01,-122.93 455.61,-116.76 445.03,-116.21 447.01,-122.93"/>
</g>
<!-- Node24&#45;&gt;Node6 -->
<g id="edge26" class="edge">
<title>Node24&#45;&gt;Node6</title>
<path fill="none" stroke="midnightblue" d="M445.95,-103.4C359.1,-107.27 206.45,-114.07 122.16,-117.82"/>
<polygon fill="midnightblue" stroke="midnightblue" points="446.11,-106.89 455.94,-102.95 445.8,-99.9 446.11,-106.89"/>
</g>
<!-- Node26 -->
<g id="node20" class="node">
<title>Node26</title>
<g id="a_node20"><a xlink:href="classflow_1_1net__flow_1_1Node.html#a2565b7c0bd82cad86eb168b62f8ffd9d" target="_top" xlink:title="Helper placed by send() onto W to invoke send_worker() but ensures that the socket has not entered so...">
<polygon fill="white" stroke="black" points="908.5,-45.5 908.5,-71.5 1035.5,-71.5 1035.5,-45.5 908.5,-45.5"/>
<text text-anchor="start" x="916.5" y="-61.1" font-family="Helvetica,sans-Serif" font-size="8.00">flow::net_flow::Node</text>
<text text-anchor="middle" x="972" y="-52.1" font-family="Helvetica,sans-Serif" font-size="8.00">::send_worker_check_state</text>
</a>
</g>
</g>
<!-- Node25&#45;&gt;Node26 -->
<g id="edge28" class="edge">
<title>Node25&#45;&gt;Node26</title>
<path fill="none" stroke="midnightblue" d="M1085.01,-58.5C1069.1,-58.5 1051.87,-58.5 1035.81,-58.5"/>
<polygon fill="midnightblue" stroke="midnightblue" points="1085.25,-62 1095.25,-58.5 1085.25,-55 1085.25,-62"/>
</g>
<!-- Node27 -->
<g id="node21" class="node">
<title>Node27</title>
<g id="a_node21"><a xlink:href="classflow_1_1net__flow_1_1Node.html#aa19d1f49638ef8ce8883e7477a06d3fc" target="_top" xlink:title="Implementation of non&#45;blocking sock&#45;&gt;send() for socket sock in all cases except when sock&#45;&gt;state() ==...">
<polygon fill="white" stroke="black" points="771,-45.5 771,-71.5 872,-71.5 872,-45.5 771,-45.5"/>
<text text-anchor="start" x="779" y="-61.1" font-family="Helvetica,sans-Serif" font-size="8.00">flow::net_flow::Node</text>
<text text-anchor="middle" x="821.5" y="-52.1" font-family="Helvetica,sans-Serif" font-size="8.00">::send</text>
</a>
</g>
</g>
<!-- Node26&#45;&gt;Node27 -->
<g id="edge29" class="edge">
<title>Node26&#45;&gt;Node27</title>
<path fill="none" stroke="midnightblue" d="M898.22,-58.5C889.46,-58.5 880.68,-58.5 872.35,-58.5"/>
<polygon fill="midnightblue" stroke="midnightblue" points="898.45,-62 908.45,-58.5 898.45,-55 898.45,-62"/>
</g>
<!-- Node28 -->
<g id="node22" class="node">
<title>Node28</title>
<g id="a_node22"><a xlink:href="classflow_1_1net__flow_1_1Peer__socket.html#a83ba2b4c39555afad67932ea6ed39bbe" target="_top" xlink:title="Non&#45;template helper for template send() that forwards the send() logic to Node::send().">
<polygon fill="white" stroke="red" points="620.5,-45.5 620.5,-71.5 718.5,-71.5 718.5,-45.5 620.5,-45.5"/>
<text text-anchor="start" x="628.5" y="-61.1" font-family="Helvetica,sans-Serif" font-size="8.00">flow::net_flow::Peer</text>
<text text-anchor="middle" x="669.5" y="-52.1" font-family="Helvetica,sans-Serif" font-size="8.00">_socket::node_send</text>
</a>
</g>
</g>
<!-- Node27&#45;&gt;Node28 -->
<g id="edge30" class="edge">
<title>Node27&#45;&gt;Node28</title>
<path fill="none" stroke="midnightblue" d="M760.93,-58.5C746.91,-58.5 732.15,-58.5 718.7,-58.5"/>
<polygon fill="midnightblue" stroke="midnightblue" points="760.97,-62 770.97,-58.5 760.97,-55 760.97,-62"/>
</g>
<!-- Node30 -->
<g id="node23" class="node">
<title>Node30</title>
<g id="a_node23"><a xlink:href="classflow_1_1net__flow_1_1Peer__socket.html#a34e2c7dfb5596269a6f86a716015f1a6" target="_top" xlink:title="This is to sync_send() as node_send() is to send().">
<polygon fill="white" stroke="red" points="609,-0.5 609,-26.5 730,-26.5 730,-0.5 609,-0.5"/>
<text text-anchor="start" x="617" y="-16.1" font-family="Helvetica,sans-Serif" font-size="8.00">flow::net_flow::Peer</text>
<text text-anchor="middle" x="669.5" y="-7.1" font-family="Helvetica,sans-Serif" font-size="8.00">_socket::node_sync_send</text>
</a>
</g>
</g>
<!-- Node27&#45;&gt;Node30 -->
<g id="edge31" class="edge">
<title>Node27&#45;&gt;Node30</title>
<path fill="none" stroke="midnightblue" d="M767.1,-42.48C749.71,-37.26 730.63,-31.54 714.05,-26.56"/>
<polygon fill="midnightblue" stroke="midnightblue" points="766.53,-45.96 777.11,-45.48 768.54,-39.26 766.53,-45.96"/>
</g>
</g>
</svg>
