<?xml version="1.0" encoding="UTF-8" standalone="no"?>
<!DOCTYPE svg PUBLIC "-//W3C//DTD SVG 1.1//EN"
 "http://www.w3.org/Graphics/SVG/1.1/DTD/svg11.dtd">
<!-- Generated by graphviz version 2.43.0 (0)
 -->
<!-- Title: flow::log::Ostream_log_msg_writer::log Pages: 1 -->
<svg width="256pt" height="80pt"
 viewBox="0.00 0.00 256.00 80.00" xmlns="http://www.w3.org/2000/svg" xmlns:xlink="http://www.w3.org/1999/xlink">
<g id="graph0" class="graph" transform="scale(1 1) rotate(0) translate(4 76)">
<title>flow::log::Ostream_log_msg_writer::log</title>
<polygon fill="white" stroke="transparent" points="-4,4 -4,-76 252,-76 252,4 -4,4"/>
<!-- Node1 -->
<g id="node1" class="node">
<title>Node1</title>
<g id="a_node1"><a xlink:title="Logs to the wrapped ostream the given message and associated metadata like severity and time stamp; p...">
<polygon fill="#bfbfbf" stroke="black" points="148,-22.5 148,-48.5 248,-48.5 248,-22.5 148,-22.5"/>
<text text-anchor="start" x="156" y="-38.1" font-family="Helvetica,sans-Serif" font-size="8.00">flow::log::Ostream</text>
<text text-anchor="middle" x="198" y="-29.1" font-family="Helvetica,sans-Serif" font-size="8.00">_log_msg_writer::log</text>
</a>
</g>
</g>
<!-- Node2 -->
<g id="node2" class="node">
<title>Node2</title>
<g id="a_node2"><a xlink:href="classflow_1_1log_1_1Buffer__logger.html#a2e95b58eabbd6632f2856097a74921ec" target="_top" xlink:title="Implements interface method by synchronously logging the message and some subset of the metadata in a...">
<polygon fill="white" stroke="black" points="0,-45.5 0,-71.5 112,-71.5 112,-45.5 0,-45.5"/>
<text text-anchor="start" x="8" y="-61.1" font-family="Helvetica,sans-Serif" font-size="8.00">flow::log::Buffer_logger</text>
<text text-anchor="middle" x="56" y="-52.1" font-family="Helvetica,sans-Serif" font-size="8.00">::do_log</text>
</a>
</g>
</g>
<!-- Node1&#45;&gt;Node2 -->
<g id="edge1" class="edge">
<title>Node1&#45;&gt;Node2</title>
<path fill="none" stroke="midnightblue" d="M137.5,-45.27C129.08,-46.66 120.45,-48.08 112.11,-49.45"/>
<polygon fill="midnightblue" stroke="midnightblue" points="138.34,-48.68 147.64,-43.61 137.21,-41.78 138.34,-48.68"/>
</g>
<!-- Node3 -->
<g id="node3" class="node">
<title>Node3</title>
<g id="a_node3"><a xlink:href="classflow_1_1log_1_1Serial__file__logger.html#a2604031c07cbb4753bd3563d519a0872" target="_top" xlink:title="Implements interface method by synchronously logging the message and some subset of the metadata in a...">
<polygon fill="white" stroke="black" points="7,-0.5 7,-26.5 105,-26.5 105,-0.5 7,-0.5"/>
<text text-anchor="start" x="15" y="-16.1" font-family="Helvetica,sans-Serif" font-size="8.00">flow::log::Serial_file</text>
<text text-anchor="middle" x="56" y="-7.1" font-family="Helvetica,sans-Serif" font-size="8.00">_logger::do_log</text>
</a>
</g>
</g>
<!-- Node1&#45;&gt;Node3 -->
<g id="edge2" class="edge">
<title>Node1&#45;&gt;Node3</title>
<path fill="none" stroke="midnightblue" d="M137.52,-26.15C126.82,-24.47 115.78,-22.74 105.44,-21.11"/>
<polygon fill="midnightblue" stroke="midnightblue" points="137.22,-29.65 147.64,-27.74 138.31,-22.73 137.22,-29.65"/>
</g>
</g>
</svg>
