<?xml version="1.0" encoding="UTF-8" standalone="no"?>
<!DOCTYPE svg PUBLIC "-//W3C//DTD SVG 1.1//EN"
 "http://www.w3.org/Graphics/SVG/1.1/DTD/svg11.dtd">
<!-- Generated by graphviz version 2.43.0 (0)
 -->
<!-- Title: flow::net_flow::Node::async_sock_low_lvl_packet_send_paced Pages: 1 -->
<svg width="1097pt" height="200pt"
 viewBox="0.00 0.00 1097.00 200.00" xmlns="http://www.w3.org/2000/svg" xmlns:xlink="http://www.w3.org/1999/xlink">
<g id="graph0" class="graph" transform="scale(1 1) rotate(0) translate(4 196)">
<title>flow::net_flow::Node::async_sock_low_lvl_packet_send_paced</title>
<polygon fill="white" stroke="transparent" points="-4,4 -4,-196 1093,-196 1093,4 -4,4"/>
<!-- Node1 -->
<g id="node1" class="node">
<title>Node1</title>
<g id="a_node1"><a xlink:title="Begins the process of asynchronously sending the given low&#45;level packet to the remote Node specified ...">
<polygon fill="#bfbfbf" stroke="black" points="0,-107 0,-142 101,-142 101,-107 0,-107"/>
<text text-anchor="start" x="8" y="-131.6" font-family="Helvetica,sans-Serif" font-size="8.00">flow::net_flow::Node</text>
<text text-anchor="start" x="8" y="-122.6" font-family="Helvetica,sans-Serif" font-size="8.00">::async_sock_low_lvl</text>
<text text-anchor="middle" x="50.5" y="-113.6" font-family="Helvetica,sans-Serif" font-size="8.00">_packet_send_paced</text>
</a>
</g>
</g>
<!-- Node2 -->
<g id="node2" class="node">
<title>Node2</title>
<g id="a_node2"><a xlink:href="classflow_1_1net__flow_1_1Node.html#a0db2bb587e0407077b11368df075f0ff" target="_top" xlink:title="async_low_lvl_packet_send_impl() wrapper to call when packet is to be sent to the remote side of the ...">
<polygon fill="white" stroke="black" points="497,-117 497,-152 598,-152 598,-117 497,-117"/>
<text text-anchor="start" x="505" y="-141.6" font-family="Helvetica,sans-Serif" font-size="8.00">flow::net_flow::Node</text>
<text text-anchor="start" x="505" y="-132.6" font-family="Helvetica,sans-Serif" font-size="8.00">::async_sock_low_lvl</text>
<text text-anchor="middle" x="547.5" y="-123.6" font-family="Helvetica,sans-Serif" font-size="8.00">_packet_send</text>
</a>
</g>
</g>
<!-- Node1&#45;&gt;Node2 -->
<g id="edge1" class="edge">
<title>Node1&#45;&gt;Node2</title>
<path fill="none" stroke="midnightblue" d="M101.4,-126.26C156.22,-128.13 246.87,-131 325,-132.5 379.75,-133.55 442.13,-134.05 486.71,-134.29"/>
<polygon fill="midnightblue" stroke="midnightblue" points="486.77,-137.79 496.79,-134.34 486.81,-130.79 486.77,-137.79"/>
</g>
<!-- Node9 -->
<g id="node9" class="node">
<title>Node9</title>
<g id="a_node9"><a xlink:href="classflow_1_1net__flow_1_1Node.html#a62e1f8e6da36d7cd3ad905924aea376c" target="_top" xlink:title="async_sock_low_lvl_packet_send_paced() pacing helper: Handles a DATA or ACK packet that was just pass...">
<polygon fill="white" stroke="black" points="137,-90.5 137,-116.5 289,-116.5 289,-90.5 137,-90.5"/>
<text text-anchor="start" x="145" y="-106.1" font-family="Helvetica,sans-Serif" font-size="8.00">flow::net_flow::Node</text>
<text text-anchor="middle" x="213" y="-97.1" font-family="Helvetica,sans-Serif" font-size="8.00">::sock_pacing_new_packet_ready</text>
</a>
</g>
</g>
<!-- Node1&#45;&gt;Node9 -->
<g id="edge10" class="edge">
<title>Node1&#45;&gt;Node9</title>
<path fill="none" stroke="midnightblue" d="M101.4,-117.97C109.47,-116.91 118.02,-115.8 126.65,-114.67"/>
<polygon fill="midnightblue" stroke="midnightblue" points="127.33,-118.11 136.79,-113.34 126.42,-111.17 127.33,-118.11"/>
</g>
<!-- Node3 -->
<g id="node3" class="node">
<title>Node3</title>
<g id="a_node3"><a xlink:href="classflow_1_1net__flow_1_1Node.html#a9f302fe63e36f72931e1a759b0aaaed4" target="_top" xlink:title="Takes given low&#45;level packet structure, serializes it, and initiates asynchronous send of these data ...">
<polygon fill="white" stroke="black" points="666.5,-119 666.5,-154 775.5,-154 775.5,-119 666.5,-119"/>
<text text-anchor="start" x="674.5" y="-143.6" font-family="Helvetica,sans-Serif" font-size="8.00">flow::net_flow::Node</text>
<text text-anchor="start" x="674.5" y="-134.6" font-family="Helvetica,sans-Serif" font-size="8.00">::async_low_lvl_packet</text>
<text text-anchor="middle" x="721" y="-125.6" font-family="Helvetica,sans-Serif" font-size="8.00">_send_impl</text>
</a>
</g>
</g>
<!-- Node2&#45;&gt;Node3 -->
<g id="edge2" class="edge">
<title>Node2&#45;&gt;Node3</title>
<path fill="none" stroke="midnightblue" d="M598.1,-135.08C616.22,-135.29 636.96,-135.53 656.14,-135.76"/>
<polygon fill="midnightblue" stroke="midnightblue" points="656.27,-139.26 666.31,-135.87 656.35,-132.26 656.27,-139.26"/>
</g>
<!-- Node4 -->
<g id="node4" class="node">
<title>Node4</title>
<g id="a_node4"><a xlink:href="classflow_1_1net__flow_1_1Node.html#a0055a25892990585561e69ceb02214d5" target="_top" xlink:title="Completion handler for async_low_lvl_packet_send_impl(); called when the packet is either successfull...">
<polygon fill="white" stroke="black" points="834.5,-120.5 834.5,-146.5 937.5,-146.5 937.5,-120.5 834.5,-120.5"/>
<text text-anchor="start" x="842.5" y="-136.1" font-family="Helvetica,sans-Serif" font-size="8.00">flow::net_flow::Node</text>
<text text-anchor="middle" x="886" y="-127.1" font-family="Helvetica,sans-Serif" font-size="8.00">::low_lvl_packet_sent</text>
</a>
</g>
</g>
<!-- Node3&#45;&gt;Node4 -->
<g id="edge3" class="edge">
<title>Node3&#45;&gt;Node4</title>
<path fill="none" stroke="midnightblue" d="M775.82,-135.51C791.27,-135.23 808.21,-134.91 824.05,-134.62"/>
<polygon fill="midnightblue" stroke="midnightblue" points="824.34,-138.12 834.27,-134.43 824.21,-131.12 824.34,-138.12"/>
</g>
<!-- Node7 -->
<g id="node7" class="node">
<title>Node7</title>
<g id="a_node7"><a xlink:href="classflow_1_1net__flow_1_1Node.html#a2983d0d8a4d4eb5c3402f63f68ef44d8" target="_top" xlink:title="Performs important book&#45;keeping based on the event &quot;DATA packet was sent to destination....">
<polygon fill="white" stroke="black" points="826.5,-165.5 826.5,-191.5 945.5,-191.5 945.5,-165.5 826.5,-165.5"/>
<text text-anchor="start" x="834.5" y="-181.1" font-family="Helvetica,sans-Serif" font-size="8.00">flow::net_flow::Node</text>
<text text-anchor="middle" x="886" y="-172.1" font-family="Helvetica,sans-Serif" font-size="8.00">::mark_data_packet_sent</text>
</a>
</g>
</g>
<!-- Node3&#45;&gt;Node7 -->
<g id="edge6" class="edge">
<title>Node3&#45;&gt;Node7</title>
<path fill="none" stroke="midnightblue" d="M775.82,-150.37C791.49,-154.41 808.7,-158.84 824.74,-162.97"/>
<polygon fill="midnightblue" stroke="midnightblue" points="823.99,-166.39 834.55,-165.5 825.74,-159.61 823.99,-166.39"/>
</g>
<!-- Node8 -->
<g id="node8" class="node">
<title>Node8</title>
<g id="a_node8"><a xlink:href="classflow_1_1net__flow_1_1Node.html#a43c42121d48a55a43a48e3a84bd10595" target="_top" xlink:title="Obtain a copy of the value of a given option in a thread&#45;safe manner.">
<polygon fill="white" stroke="black" points="826,-80 826,-97 946,-97 946,-80 826,-80"/>
<text text-anchor="middle" x="886" y="-86.6" font-family="Helvetica,sans-Serif" font-size="8.00">flow::net_flow::Node::opt</text>
</a>
</g>
</g>
<!-- Node3&#45;&gt;Node8 -->
<g id="edge9" class="edge">
<title>Node3&#45;&gt;Node8</title>
<path fill="none" stroke="midnightblue" d="M775.82,-120.65C798.77,-113.89 825.05,-106.15 846.07,-99.96"/>
<polygon fill="midnightblue" stroke="midnightblue" points="847.33,-103.24 855.93,-97.06 845.35,-96.53 847.33,-103.24"/>
</g>
<!-- Node5 -->
<g id="node5" class="node">
<title>Node5</title>
<g id="a_node5"><a xlink:href="classflow_1_1log_1_1Log__context.html#a8a5fef42dc2cedf3c0d1a6e83beb2948" target="_top" xlink:title="Returns reference to the stored Component object, particularly as many FLOW_LOG_*() macros expect.">
<polygon fill="white" stroke="black" points="982,-165.5 982,-191.5 1089,-191.5 1089,-165.5 982,-165.5"/>
<text text-anchor="start" x="990" y="-181.1" font-family="Helvetica,sans-Serif" font-size="8.00">flow::log::Log_context</text>
<text text-anchor="middle" x="1035.5" y="-172.1" font-family="Helvetica,sans-Serif" font-size="8.00">::get_log_component</text>
</a>
</g>
</g>
<!-- Node4&#45;&gt;Node5 -->
<g id="edge4" class="edge">
<title>Node4&#45;&gt;Node5</title>
<path fill="none" stroke="midnightblue" d="M929.66,-146.52C945.95,-151.48 964.71,-157.21 981.82,-162.43"/>
<polygon fill="midnightblue" stroke="midnightblue" points="981.09,-165.87 991.68,-165.44 983.13,-159.17 981.09,-165.87"/>
</g>
<!-- Node6 -->
<g id="node6" class="node">
<title>Node6</title>
<g id="a_node6"><a xlink:href="classflow_1_1log_1_1Log__context.html#af4db395042b065b00398cd59845dcb4d" target="_top" xlink:title="Returns the stored Logger pointer, particularly as many FLOW_LOG_*() macros expect.">
<polygon fill="white" stroke="black" points="982,-120.5 982,-146.5 1089,-146.5 1089,-120.5 982,-120.5"/>
<text text-anchor="start" x="990" y="-136.1" font-family="Helvetica,sans-Serif" font-size="8.00">flow::log::Log_context</text>
<text text-anchor="middle" x="1035.5" y="-127.1" font-family="Helvetica,sans-Serif" font-size="8.00">::get_logger</text>
</a>
</g>
</g>
<!-- Node4&#45;&gt;Node6 -->
<g id="edge5" class="edge">
<title>Node4&#45;&gt;Node6</title>
<path fill="none" stroke="midnightblue" d="M937.76,-133.5C948.67,-133.5 960.33,-133.5 971.63,-133.5"/>
<polygon fill="midnightblue" stroke="midnightblue" points="971.89,-137 981.89,-133.5 971.89,-130 971.89,-137"/>
</g>
<!-- Node7&#45;&gt;Node5 -->
<g id="edge7" class="edge">
<title>Node7&#45;&gt;Node5</title>
<path fill="none" stroke="midnightblue" d="M945.72,-178.5C954.17,-178.5 962.9,-178.5 971.43,-178.5"/>
<polygon fill="midnightblue" stroke="midnightblue" points="971.71,-182 981.71,-178.5 971.71,-175 971.71,-182"/>
</g>
<!-- Node7&#45;&gt;Node6 -->
<g id="edge8" class="edge">
<title>Node7&#45;&gt;Node6</title>
<path fill="none" stroke="midnightblue" d="M929.66,-165.48C945.95,-160.52 964.71,-154.79 981.82,-149.57"/>
<polygon fill="midnightblue" stroke="midnightblue" points="983.13,-152.83 991.68,-146.56 981.09,-146.13 983.13,-152.83"/>
</g>
<!-- Node9&#45;&gt;Node2 -->
<g id="edge11" class="edge">
<title>Node9&#45;&gt;Node2</title>
<path fill="none" stroke="midnightblue" d="M289.03,-110.5C348.9,-116.08 431.62,-123.79 486.98,-128.95"/>
<polygon fill="midnightblue" stroke="midnightblue" points="486.71,-132.44 496.99,-129.88 487.36,-125.47 486.71,-132.44"/>
</g>
<!-- Node10 -->
<g id="node10" class="node">
<title>Node10</title>
<g id="a_node10"><a xlink:href="classflow_1_1net__flow_1_1Node.html#afb88dafa8ec5c1b412de86dfdccd9c8f" target="_top" xlink:title="async_sock_low_lvl_packet_send_paced() pacing helper: Resets the socket&#39;s Send_pacing_data structure ...">
<polygon fill="white" stroke="black" points="652,-73.5 652,-99.5 790,-99.5 790,-73.5 652,-73.5"/>
<text text-anchor="start" x="660" y="-89.1" font-family="Helvetica,sans-Serif" font-size="8.00">flow::net_flow::Node</text>
<text text-anchor="middle" x="721" y="-80.1" font-family="Helvetica,sans-Serif" font-size="8.00">::sock_pacing_new_time_slice</text>
</a>
</g>
</g>
<!-- Node9&#45;&gt;Node10 -->
<g id="edge12" class="edge">
<title>Node9&#45;&gt;Node10</title>
<path fill="none" stroke="midnightblue" d="M289.21,-100.97C383.77,-97.8 545.34,-92.37 641.45,-89.14"/>
<polygon fill="midnightblue" stroke="midnightblue" points="641.81,-92.63 651.69,-88.8 641.58,-85.63 641.81,-92.63"/>
</g>
<!-- Node11 -->
<g id="node11" class="node">
<title>Node11</title>
<g id="a_node11"><a xlink:href="classflow_1_1net__flow_1_1Node.html#aaf0acf9de5f151727a43acce180a5e49" target="_top" xlink:title="async_sock_low_lvl_packet_send_paced() pacing helper: Given that we are currently in the pacing time ...">
<polygon fill="white" stroke="black" points="325,-31.5 325,-57.5 443,-57.5 443,-31.5 325,-31.5"/>
<text text-anchor="start" x="333" y="-47.1" font-family="Helvetica,sans-Serif" font-size="8.00">flow::net_flow::Node</text>
<text text-anchor="middle" x="384" y="-38.1" font-family="Helvetica,sans-Serif" font-size="8.00">::sock_pacing_process_q</text>
</a>
</g>
</g>
<!-- Node9&#45;&gt;Node11 -->
<g id="edge14" class="edge">
<title>Node9&#45;&gt;Node11</title>
<path fill="none" stroke="midnightblue" d="M251.51,-90.41C276.45,-81.7 309.4,-70.19 336.08,-60.88"/>
<polygon fill="midnightblue" stroke="midnightblue" points="337.31,-64.16 345.6,-57.56 335,-57.55 337.31,-64.16"/>
</g>
<!-- Node10&#45;&gt;Node8 -->
<g id="edge13" class="edge">
<title>Node10&#45;&gt;Node8</title>
<path fill="none" stroke="midnightblue" d="M790.18,-87.34C798.62,-87.44 807.25,-87.55 815.7,-87.65"/>
<polygon fill="midnightblue" stroke="midnightblue" points="815.85,-91.15 825.89,-87.77 815.94,-84.15 815.85,-91.15"/>
</g>
<!-- Node11&#45;&gt;Node2 -->
<g id="edge15" class="edge">
<title>Node11&#45;&gt;Node2</title>
<path fill="none" stroke="midnightblue" d="M408.48,-57.59C434.04,-71.83 475.37,-94.86 506.15,-112.02"/>
<polygon fill="midnightblue" stroke="midnightblue" points="504.49,-115.1 514.93,-116.91 507.9,-108.98 504.49,-115.1"/>
</g>
<!-- Node12 -->
<g id="node12" class="node">
<title>Node12</title>
<g id="a_node12"><a xlink:href="classflow_1_1net__flow_1_1Node.html#a3fd57a0d025a78cbeccfd8a15a983575" target="_top" xlink:title="async_sock_low_lvl_packet_send_paced() pacing helper: If sock_pacing_process_q() ran out of the last ...">
<polygon fill="white" stroke="black" points="479,-31.5 479,-57.5 616,-57.5 616,-31.5 479,-31.5"/>
<text text-anchor="start" x="487" y="-47.1" font-family="Helvetica,sans-Serif" font-size="8.00">flow::net_flow::Node</text>
<text text-anchor="middle" x="547.5" y="-38.1" font-family="Helvetica,sans-Serif" font-size="8.00">::sock_pacing_time_slice_end</text>
</a>
</g>
</g>
<!-- Node11&#45;&gt;Node12 -->
<g id="edge16" class="edge">
<title>Node11&#45;&gt;Node12</title>
<path fill="none" stroke="midnightblue" d="M443.31,-37.99C451.62,-37.81 460.27,-37.73 468.88,-37.75"/>
<polygon fill="midnightblue" stroke="midnightblue" points="468.92,-41.25 478.95,-37.83 468.97,-34.25 468.92,-41.25"/>
</g>
<!-- Node12&#45;&gt;Node10 -->
<g id="edge19" class="edge">
<title>Node12&#45;&gt;Node10</title>
<path fill="none" stroke="midnightblue" d="M601.82,-57.56C619.25,-61.83 638.76,-66.61 656.84,-71.03"/>
<polygon fill="midnightblue" stroke="midnightblue" points="656.16,-74.47 666.71,-73.45 657.83,-67.67 656.16,-74.47"/>
</g>
<!-- Node12&#45;&gt;Node11 -->
<g id="edge20" class="edge">
<title>Node12&#45;&gt;Node11</title>
<path fill="none" stroke="midnightblue" d="M478.95,-51.17C470.53,-51.27 461.91,-51.28 453.48,-51.18"/>
<polygon fill="midnightblue" stroke="midnightblue" points="453.36,-47.68 443.31,-51.01 453.25,-54.68 453.36,-47.68"/>
</g>
<!-- Node13 -->
<g id="node13" class="node">
<title>Node13</title>
<g id="a_node13"><a xlink:href="classflow_1_1net__flow_1_1Node.html#afe70a0c32695e417e7a09e0ba773f151" target="_top" xlink:title="Asynchronously send RST to the other side of the given socket and close_connection_immediately().">
<polygon fill="white" stroke="red" points="657,-19 657,-54 785,-54 785,-19 657,-19"/>
<text text-anchor="start" x="665" y="-43.6" font-family="Helvetica,sans-Serif" font-size="8.00">flow::net_flow::Node</text>
<text text-anchor="start" x="665" y="-34.6" font-family="Helvetica,sans-Serif" font-size="8.00">::rst_and_close_connection</text>
<text text-anchor="middle" x="721" y="-25.6" font-family="Helvetica,sans-Serif" font-size="8.00">_immediately</text>
</a>
</g>
</g>
<!-- Node12&#45;&gt;Node13 -->
<g id="edge17" class="edge">
<title>Node12&#45;&gt;Node13</title>
<path fill="none" stroke="midnightblue" d="M616.28,-41.34C626.32,-40.87 636.71,-40.39 646.85,-39.91"/>
<polygon fill="midnightblue" stroke="midnightblue" points="647.07,-43.41 656.9,-39.44 646.74,-36.41 647.07,-43.41"/>
</g>
<!-- Node48 -->
<g id="node14" class="node">
<title>Node48</title>
<g id="a_node14"><a xlink:href="classflow_1_1net__flow_1_1Node.html#a99836ffb51eaefa4d2cc21770461cd97" target="_top" xlink:title="Constructs the socket pair (connection ID) for the given socket.">
<polygon fill="white" stroke="black" points="835.5,-0.5 835.5,-26.5 936.5,-26.5 936.5,-0.5 835.5,-0.5"/>
<text text-anchor="start" x="843.5" y="-16.1" font-family="Helvetica,sans-Serif" font-size="8.00">flow::net_flow::Node</text>
<text text-anchor="middle" x="886" y="-7.1" font-family="Helvetica,sans-Serif" font-size="8.00">::socket_id</text>
</a>
</g>
</g>
<!-- Node12&#45;&gt;Node48 -->
<g id="edge21" class="edge">
<title>Node12&#45;&gt;Node48</title>
<path fill="none" stroke="midnightblue" d="M578.63,-31.4C598.93,-23.3 626.55,-13.69 652,-9.5 710.21,0.08 777.69,-2.55 825,-6.59"/>
<polygon fill="midnightblue" stroke="midnightblue" points="824.81,-10.09 835.08,-7.5 825.43,-3.12 824.81,-10.09"/>
</g>
<!-- Node13&#45;&gt;Node48 -->
<g id="edge18" class="edge">
<title>Node13&#45;&gt;Node48</title>
<path fill="none" stroke="midnightblue" d="M785.02,-27.61C798.17,-25.75 811.99,-23.8 825.03,-21.96"/>
<polygon fill="midnightblue" stroke="midnightblue" points="825.87,-25.38 835.28,-20.52 824.89,-18.45 825.87,-25.38"/>
</g>
</g>
</svg>
