<?xml version="1.0" encoding="UTF-8" standalone="no"?>
<!DOCTYPE svg PUBLIC "-//W3C//DTD SVG 1.1//EN"
 "http://www.w3.org/Graphics/SVG/1.1/DTD/svg11.dtd">
<!-- Generated by graphviz version 2.43.0 (0)
 -->
<!-- Title: flow::net_flow::Node::async_no_sock_low_lvl_rst_send Pages: 1 -->
<svg width="716pt" height="154pt"
 viewBox="0.00 0.00 716.00 153.68" xmlns="http://www.w3.org/2000/svg" xmlns:xlink="http://www.w3.org/1999/xlink">
<g id="graph0" class="graph" transform="scale(1 1) rotate(0) translate(4 149.68)">
<title>flow::net_flow::Node::async_no_sock_low_lvl_rst_send</title>
<polygon fill="white" stroke="transparent" points="-4,4 -4,-149.68 712,-149.68 712,4 -4,4"/>
<!-- Node1 -->
<g id="node1" class="node">
<title>Node1</title>
<g id="a_node1"><a xlink:title="Sends an RST to the given UDP endpoint in response to the given incoming low&#45;level packet that came f...">
<polygon fill="#bfbfbf" stroke="black" points="0,-14.68 0,-49.68 114,-49.68 114,-14.68 0,-14.68"/>
<text text-anchor="start" x="8" y="-39.28" font-family="Helvetica,sans-Serif" font-size="8.00">flow::net_flow::Node</text>
<text text-anchor="start" x="8" y="-30.28" font-family="Helvetica,sans-Serif" font-size="8.00">::async_no_sock_low_lvl</text>
<text text-anchor="middle" x="57" y="-21.28" font-family="Helvetica,sans-Serif" font-size="8.00">_rst_send</text>
</a>
</g>
</g>
<!-- Node2 -->
<g id="node2" class="node">
<title>Node2</title>
<g id="a_node2"><a xlink:href="classflow_1_1net__flow_1_1Node.html#a08a5752bf3848f31abbe753be47c1fcf" target="_top" xlink:title="async_low_lvl_packet_send_impl() wrapper to call when packet is to be sent to the remote side of the ...">
<polygon fill="white" stroke="black" points="150,-37.68 150,-72.68 264,-72.68 264,-37.68 150,-37.68"/>
<text text-anchor="start" x="158" y="-62.28" font-family="Helvetica,sans-Serif" font-size="8.00">flow::net_flow::Node</text>
<text text-anchor="start" x="158" y="-53.28" font-family="Helvetica,sans-Serif" font-size="8.00">::async_no_sock_low_lvl</text>
<text text-anchor="middle" x="207" y="-44.28" font-family="Helvetica,sans-Serif" font-size="8.00">_packet_send</text>
</a>
</g>
</g>
<!-- Node1&#45;&gt;Node2 -->
<g id="edge1" class="edge">
<title>Node1&#45;&gt;Node2</title>
<path fill="none" stroke="midnightblue" d="M114.37,-40.94C122.71,-42.24 131.37,-43.58 139.88,-44.9"/>
<polygon fill="midnightblue" stroke="midnightblue" points="139.36,-48.37 149.78,-46.44 140.44,-41.45 139.36,-48.37"/>
</g>
<!-- Node6 -->
<g id="node6" class="node">
<title>Node6</title>
<g id="a_node6"><a xlink:href="classflow_1_1log_1_1Log__context.html#af4db395042b065b00398cd59845dcb4d" target="_top" xlink:title="Returns the stored Logger pointer, particularly as many FLOW_LOG_*() macros expect.">
<polygon fill="white" stroke="black" points="601,-74.18 601,-100.18 708,-100.18 708,-74.18 601,-74.18"/>
<text text-anchor="start" x="609" y="-89.78" font-family="Helvetica,sans-Serif" font-size="8.00">flow::log::Log_context</text>
<text text-anchor="middle" x="654.5" y="-80.78" font-family="Helvetica,sans-Serif" font-size="8.00">::get_logger</text>
</a>
</g>
</g>
<!-- Node1&#45;&gt;Node6 -->
<g id="edge10" class="edge">
<title>Node1&#45;&gt;Node6</title>
<path fill="none" stroke="midnightblue" d="M114.31,-21.07C209.55,-4.6 407.46,19.52 565,-28.18 590.36,-35.86 615.1,-53.47 631.95,-67.47"/>
<polygon fill="midnightblue" stroke="midnightblue" points="629.68,-70.13 639.55,-73.99 634.24,-64.82 629.68,-70.13"/>
</g>
<!-- Node3 -->
<g id="node3" class="node">
<title>Node3</title>
<g id="a_node3"><a xlink:href="classflow_1_1net__flow_1_1Node.html#a9f302fe63e36f72931e1a759b0aaaed4" target="_top" xlink:title="Takes given low&#45;level packet structure, serializes it, and initiates asynchronous send of these data ...">
<polygon fill="white" stroke="black" points="300,-53.68 300,-88.68 409,-88.68 409,-53.68 300,-53.68"/>
<text text-anchor="start" x="308" y="-78.28" font-family="Helvetica,sans-Serif" font-size="8.00">flow::net_flow::Node</text>
<text text-anchor="start" x="308" y="-69.28" font-family="Helvetica,sans-Serif" font-size="8.00">::async_low_lvl_packet</text>
<text text-anchor="middle" x="354.5" y="-60.28" font-family="Helvetica,sans-Serif" font-size="8.00">_send_impl</text>
</a>
</g>
</g>
<!-- Node2&#45;&gt;Node3 -->
<g id="edge2" class="edge">
<title>Node2&#45;&gt;Node3</title>
<path fill="none" stroke="midnightblue" d="M264.25,-61.37C272.55,-62.28 281.16,-63.22 289.6,-64.15"/>
<polygon fill="midnightblue" stroke="midnightblue" points="289.46,-67.66 299.78,-65.27 290.23,-60.7 289.46,-67.66"/>
</g>
<!-- Node4 -->
<g id="node4" class="node">
<title>Node4</title>
<g id="a_node4"><a xlink:href="classflow_1_1net__flow_1_1Node.html#a0055a25892990585561e69ceb02214d5" target="_top" xlink:title="Completion handler for async_low_lvl_packet_send_impl(); called when the packet is either successfull...">
<polygon fill="white" stroke="black" points="453.5,-119.18 453.5,-145.18 556.5,-145.18 556.5,-119.18 453.5,-119.18"/>
<text text-anchor="start" x="461.5" y="-134.78" font-family="Helvetica,sans-Serif" font-size="8.00">flow::net_flow::Node</text>
<text text-anchor="middle" x="505" y="-125.78" font-family="Helvetica,sans-Serif" font-size="8.00">::low_lvl_packet_sent</text>
</a>
</g>
</g>
<!-- Node3&#45;&gt;Node4 -->
<g id="edge3" class="edge">
<title>Node3&#45;&gt;Node4</title>
<path fill="none" stroke="midnightblue" d="M394.52,-88.73C410.13,-95.61 428.34,-103.45 445,-110.18 449.39,-111.95 453.99,-113.76 458.6,-115.53"/>
<polygon fill="midnightblue" stroke="midnightblue" points="457.41,-118.83 468,-119.11 459.9,-112.28 457.41,-118.83"/>
</g>
<!-- Node7 -->
<g id="node7" class="node">
<title>Node7</title>
<g id="a_node7"><a xlink:href="classflow_1_1net__flow_1_1Node.html#a2983d0d8a4d4eb5c3402f63f68ef44d8" target="_top" xlink:title="Performs important book&#45;keeping based on the event &quot;DATA packet was sent to destination....">
<polygon fill="white" stroke="black" points="445.5,-74.18 445.5,-100.18 564.5,-100.18 564.5,-74.18 445.5,-74.18"/>
<text text-anchor="start" x="453.5" y="-89.78" font-family="Helvetica,sans-Serif" font-size="8.00">flow::net_flow::Node</text>
<text text-anchor="middle" x="505" y="-80.78" font-family="Helvetica,sans-Serif" font-size="8.00">::mark_data_packet_sent</text>
</a>
</g>
</g>
<!-- Node3&#45;&gt;Node7 -->
<g id="edge6" class="edge">
<title>Node3&#45;&gt;Node7</title>
<path fill="none" stroke="midnightblue" d="M409.11,-76.96C417.59,-77.87 426.46,-78.83 435.23,-79.77"/>
<polygon fill="midnightblue" stroke="midnightblue" points="435.12,-83.28 445.44,-80.87 435.87,-76.32 435.12,-83.28"/>
</g>
<!-- Node8 -->
<g id="node8" class="node">
<title>Node8</title>
<g id="a_node8"><a xlink:href="classflow_1_1net__flow_1_1Node.html#a43c42121d48a55a43a48e3a84bd10595" target="_top" xlink:title="Obtain a copy of the value of a given option in a thread&#45;safe manner.">
<polygon fill="white" stroke="black" points="445,-37.68 445,-54.68 565,-54.68 565,-37.68 445,-37.68"/>
<text text-anchor="middle" x="505" y="-44.28" font-family="Helvetica,sans-Serif" font-size="8.00">flow::net_flow::Node::opt</text>
</a>
</g>
</g>
<!-- Node3&#45;&gt;Node8 -->
<g id="edge9" class="edge">
<title>Node3&#45;&gt;Node8</title>
<path fill="none" stroke="midnightblue" d="M409.11,-62.15C420.29,-60.27 432.15,-58.28 443.56,-56.36"/>
<polygon fill="midnightblue" stroke="midnightblue" points="444.16,-59.8 453.44,-54.69 443,-52.9 444.16,-59.8"/>
</g>
<!-- Node5 -->
<g id="node5" class="node">
<title>Node5</title>
<g id="a_node5"><a xlink:href="classflow_1_1log_1_1Log__context.html#a8a5fef42dc2cedf3c0d1a6e83beb2948" target="_top" xlink:title="Returns reference to the stored Component object, particularly as many FLOW_LOG_*() macros expect.">
<polygon fill="white" stroke="black" points="601,-119.18 601,-145.18 708,-145.18 708,-119.18 601,-119.18"/>
<text text-anchor="start" x="609" y="-134.78" font-family="Helvetica,sans-Serif" font-size="8.00">flow::log::Log_context</text>
<text text-anchor="middle" x="654.5" y="-125.78" font-family="Helvetica,sans-Serif" font-size="8.00">::get_log_component</text>
</a>
</g>
</g>
<!-- Node4&#45;&gt;Node5 -->
<g id="edge4" class="edge">
<title>Node4&#45;&gt;Node5</title>
<path fill="none" stroke="midnightblue" d="M556.76,-132.18C567.67,-132.18 579.33,-132.18 590.63,-132.18"/>
<polygon fill="midnightblue" stroke="midnightblue" points="590.89,-135.68 600.89,-132.18 590.89,-128.68 590.89,-135.68"/>
</g>
<!-- Node4&#45;&gt;Node6 -->
<g id="edge5" class="edge">
<title>Node4&#45;&gt;Node6</title>
<path fill="none" stroke="midnightblue" d="M548.66,-119.16C564.95,-114.2 583.71,-108.47 600.82,-103.25"/>
<polygon fill="midnightblue" stroke="midnightblue" points="602.13,-106.51 610.68,-100.24 600.09,-99.82 602.13,-106.51"/>
</g>
<!-- Node7&#45;&gt;Node5 -->
<g id="edge7" class="edge">
<title>Node7&#45;&gt;Node5</title>
<path fill="none" stroke="midnightblue" d="M548.66,-100.2C564.95,-105.16 583.71,-110.89 600.82,-116.11"/>
<polygon fill="midnightblue" stroke="midnightblue" points="600.09,-119.55 610.68,-119.12 602.13,-112.85 600.09,-119.55"/>
</g>
<!-- Node7&#45;&gt;Node6 -->
<g id="edge8" class="edge">
<title>Node7&#45;&gt;Node6</title>
<path fill="none" stroke="midnightblue" d="M564.72,-87.18C573.17,-87.18 581.9,-87.18 590.43,-87.18"/>
<polygon fill="midnightblue" stroke="midnightblue" points="590.71,-90.68 600.71,-87.18 590.71,-83.68 590.71,-90.68"/>
</g>
</g>
</svg>
