<?xml version="1.0" encoding="UTF-8" standalone="no"?>
<!DOCTYPE svg PUBLIC "-//W3C//DTD SVG 1.1//EN"
 "http://www.w3.org/Graphics/SVG/1.1/DTD/svg11.dtd">
<!-- Generated by graphviz version 2.43.0 (0)
 -->
<!-- Title: flow::log::Async_file_logger::mem_cost Pages: 1 -->
<svg width="510pt" height="53pt"
 viewBox="0.00 0.00 510.00 53.00" xmlns="http://www.w3.org/2000/svg" xmlns:xlink="http://www.w3.org/1999/xlink">
<g id="graph0" class="graph" transform="scale(1 1) rotate(0) translate(4 49)">
<title>flow::log::Async_file_logger::mem_cost</title>
<polygon fill="white" stroke="transparent" points="-4,4 -4,-49 506,-49 506,4 -4,4"/>
<!-- Node1 -->
<g id="node1" class="node">
<title>Node1</title>
<g id="a_node1"><a xlink:title="How much do_log() issuing the supplied Log_request shall contribute to m_pending_logs_sz.">
<polygon fill="#bfbfbf" stroke="black" points="0,-0.5 0,-26.5 98,-26.5 98,-0.5 0,-0.5"/>
<text text-anchor="start" x="8" y="-16.1" font-family="Helvetica,sans-Serif" font-size="8.00">flow::log::Async_file</text>
<text text-anchor="middle" x="49" y="-7.1" font-family="Helvetica,sans-Serif" font-size="8.00">_logger::mem_cost</text>
</a>
</g>
</g>
<!-- Node2 -->
<g id="node2" class="node">
<title>Node2</title>
<g id="a_node2"><a xlink:href="classflow_1_1log_1_1Async__file__logger.html#a9eff13fef045d9dd58a34d207ff6521e" target="_top" xlink:title="Estimate of memory footprint of the given value, including memory allocated on its behalf – but exclu...">
<polygon fill="white" stroke="black" points="134,-0.5 134,-26.5 232,-26.5 232,-0.5 134,-0.5"/>
<text text-anchor="start" x="142" y="-16.1" font-family="Helvetica,sans-Serif" font-size="8.00">flow::log::Async_file</text>
<text text-anchor="middle" x="183" y="-7.1" font-family="Helvetica,sans-Serif" font-size="8.00">_logger::deep_size</text>
</a>
</g>
</g>
<!-- Node1&#45;&gt;Node2 -->
<g id="edge1" class="edge">
<title>Node1&#45;&gt;Node2</title>
<path fill="none" stroke="midnightblue" d="M98.03,-13.5C106.31,-13.5 115,-13.5 123.52,-13.5"/>
<polygon fill="midnightblue" stroke="midnightblue" points="123.79,-17 133.79,-13.5 123.79,-10 123.79,-17"/>
</g>
<!-- Node2&#45;&gt;Node2 -->
<g id="edge2" class="edge">
<title>Node2&#45;&gt;Node2</title>
<path fill="none" stroke="midnightblue" d="M160.33,-26.77C153.46,-35.96 161.02,-45 183,-45 196.4,-45 204.44,-41.64 207.12,-36.94"/>
<polygon fill="midnightblue" stroke="midnightblue" points="210.55,-36.18 205.67,-26.77 203.61,-37.16 210.55,-36.18"/>
</g>
<!-- Node3 -->
<g id="node3" class="node">
<title>Node3</title>
<g id="a_node3"><a xlink:href="namespaceflow_1_1log.html#a267187e63c6355704f547d794c776747" target="_top" xlink:title="Estimate of memory footprint of the given value, including memory allocated on its behalf – but exclu...">
<polygon fill="white" stroke="black" points="268,-5 268,-22 367,-22 367,-5 268,-5"/>
<text text-anchor="middle" x="317.5" y="-11.6" font-family="Helvetica,sans-Serif" font-size="8.00">flow::log::deep_size</text>
</a>
</g>
</g>
<!-- Node2&#45;&gt;Node3 -->
<g id="edge3" class="edge">
<title>Node2&#45;&gt;Node3</title>
<path fill="none" stroke="midnightblue" d="M232.21,-13.5C240.42,-13.5 249.02,-13.5 257.47,-13.5"/>
<polygon fill="midnightblue" stroke="midnightblue" points="257.66,-17 267.66,-13.5 257.66,-10 257.66,-17"/>
</g>
<!-- Node3&#45;&gt;Node3 -->
<g id="edge4" class="edge">
<title>Node3&#45;&gt;Node3</title>
<path fill="none" stroke="midnightblue" d="M297.9,-22.07C286.36,-30.79 292.9,-40.5 317.5,-40.5 334.03,-40.5 342.4,-36.12 342.62,-30.6"/>
<polygon fill="midnightblue" stroke="midnightblue" points="345.48,-28.57 337.1,-22.07 339.6,-32.37 345.48,-28.57"/>
</g>
<!-- Node4 -->
<g id="node4" class="node">
<title>Node4</title>
<g id="a_node4"><a xlink:href="namespaceflow_1_1util.html#a418b56a178c07100eef78da5c9d6ee7a" target="_top" xlink:title="Estimate of memory footprint of the given value, including memory allocated on its behalf – but exclu...">
<polygon fill="white" stroke="black" points="403,-5 403,-22 502,-22 502,-5 403,-5"/>
<text text-anchor="middle" x="452.5" y="-11.6" font-family="Helvetica,sans-Serif" font-size="8.00">flow::util::deep_size</text>
</a>
</g>
</g>
<!-- Node3&#45;&gt;Node4 -->
<g id="edge5" class="edge">
<title>Node3&#45;&gt;Node4</title>
<path fill="none" stroke="midnightblue" d="M367.27,-13.5C375.49,-13.5 384.1,-13.5 392.55,-13.5"/>
<polygon fill="midnightblue" stroke="midnightblue" points="392.74,-17 402.74,-13.5 392.74,-10 392.74,-17"/>
</g>
</g>
</svg>
