<?xml version="1.0" encoding="UTF-8" standalone="no"?>
<!DOCTYPE svg PUBLIC "-//W3C//DTD SVG 1.1//EN"
 "http://www.w3.org/Graphics/SVG/1.1/DTD/svg11.dtd">
<!-- Generated by graphviz version 2.43.0 (0)
 -->
<!-- Title: flow::log::Logger::should_log Pages: 1 -->
<svg width="794pt" height="869pt"
 viewBox="0.00 0.00 794.00 869.00" xmlns="http://www.w3.org/2000/svg" xmlns:xlink="http://www.w3.org/1999/xlink">
<g id="graph0" class="graph" transform="scale(1 1) rotate(0) translate(4 865)">
<title>flow::log::Logger::should_log</title>
<polygon fill="white" stroke="transparent" points="-4,4 -4,-865 790,-865 790,4 -4,4"/>
<!-- Node1 -->
<g id="node1" class="node">
<title>Node1</title>
<g id="a_node1"><a xlink:title="Given attributes of a hypothetical message that would be logged, return true if that message should b...">
<polygon fill="#bfbfbf" stroke="black" points="694,-270.5 694,-296.5 786,-296.5 786,-270.5 694,-270.5"/>
<text text-anchor="start" x="702" y="-286.1" font-family="Helvetica,sans-Serif" font-size="8.00">flow::log::Logger::</text>
<text text-anchor="middle" x="740" y="-277.1" font-family="Helvetica,sans-Serif" font-size="8.00">should_log</text>
</a>
</g>
</g>
<!-- Node2 -->
<g id="node2" class="node">
<title>Node2</title>
<g id="a_node2"><a xlink:href="namespaceflow_1_1async.html#a24567271e97a67d3cae6bd8bf8dc63c4" target="_top" xlink:title="An extension of boost.asio&#39;s post() and dispatch() free function templates, this free function templa...">
<polygon fill="white" stroke="black" points="531,-663.5 531,-689.5 640,-689.5 640,-663.5 531,-663.5"/>
<text text-anchor="start" x="539" y="-679.1" font-family="Helvetica,sans-Serif" font-size="8.00">flow::async::asio_exec</text>
<text text-anchor="middle" x="585.5" y="-670.1" font-family="Helvetica,sans-Serif" font-size="8.00">_ctx_post</text>
</a>
</g>
</g>
<!-- Node1&#45;&gt;Node2 -->
<g id="edge1" class="edge">
<title>Node1&#45;&gt;Node2</title>
<path fill="none" stroke="midnightblue" d="M733.3,-306.49C721.64,-352.18 693.18,-457.28 658,-541.5 638.58,-588 608.6,-639.84 594.43,-663.48"/>
<polygon fill="midnightblue" stroke="midnightblue" points="736.72,-307.24 735.77,-296.69 729.93,-305.52 736.72,-307.24"/>
</g>
<!-- Node29 -->
<g id="node20" class="node">
<title>Node29</title>
<g id="a_node20"><a xlink:href="classflow_1_1perf_1_1Checkpointing__timer.html#aa9940d8e87883f9985ba18939f833db9" target="_top" xlink:title="Constructs a new timer and immediately begins measuring time, in that the next checkpoint() call will...">
<polygon fill="white" stroke="black" points="520,-505.5 520,-531.5 651,-531.5 651,-505.5 520,-505.5"/>
<text text-anchor="start" x="528" y="-521.1" font-family="Helvetica,sans-Serif" font-size="8.00">flow::perf::Checkpointing</text>
<text text-anchor="middle" x="585.5" y="-512.1" font-family="Helvetica,sans-Serif" font-size="8.00">_timer::Checkpointing_timer</text>
</a>
</g>
</g>
<!-- Node1&#45;&gt;Node29 -->
<g id="edge24" class="edge">
<title>Node1&#45;&gt;Node29</title>
<path fill="none" stroke="midnightblue" d="M736.66,-306.69C731.07,-349.98 712.99,-443.39 658,-495.5 653.84,-499.45 648.99,-502.72 643.82,-505.42"/>
<polygon fill="midnightblue" stroke="midnightblue" points="740.16,-306.93 737.86,-296.59 733.21,-306.11 740.16,-306.93"/>
</g>
<!-- Node31 -->
<g id="node22" class="node">
<title>Node31</title>
<g id="a_node22"><a xlink:href="structflow_1_1net__flow_1_1Low__lvl__packet.html#a186d7dae0c4b4402aed22a25d595ed30" target="_top" xlink:title="Constructs packet on the heap with values determined by the given raw binary data as presumably recei...">
<polygon fill="white" stroke="black" points="529.5,-451 529.5,-486 641.5,-486 641.5,-451 529.5,-451"/>
<text text-anchor="start" x="537.5" y="-475.6" font-family="Helvetica,sans-Serif" font-size="8.00">flow::net_flow::Low</text>
<text text-anchor="start" x="537.5" y="-466.6" font-family="Helvetica,sans-Serif" font-size="8.00">_lvl_packet::create</text>
<text text-anchor="middle" x="585.5" y="-457.6" font-family="Helvetica,sans-Serif" font-size="8.00">_from_raw_data_packet</text>
</a>
</g>
</g>
<!-- Node1&#45;&gt;Node31 -->
<g id="edge26" class="edge">
<title>Node1&#45;&gt;Node31</title>
<path fill="none" stroke="midnightblue" d="M732.99,-306.46C722.97,-340.48 699.7,-404.26 658,-441.5 653.15,-445.83 647.54,-449.49 641.63,-452.58"/>
<polygon fill="midnightblue" stroke="midnightblue" points="736.45,-307.1 735.79,-296.53 729.71,-305.21 736.45,-307.1"/>
</g>
<!-- Node38 -->
<g id="node26" class="node">
<title>Node38</title>
<g id="a_node26"><a xlink:href="classflow_1_1util_1_1Basic__blob.html#a9113cfc8160e93a0e0fa45de8058b858" target="_top" xlink:title="Copies src buffer directly onto equally sized area within *this at location dest; *this must have suf...">
<polygon fill="white" stroke="black" points="535,-405.5 535,-431.5 636,-431.5 636,-405.5 535,-405.5"/>
<text text-anchor="start" x="543" y="-421.1" font-family="Helvetica,sans-Serif" font-size="8.00">flow::util::Basic_blob</text>
<text text-anchor="middle" x="585.5" y="-412.1" font-family="Helvetica,sans-Serif" font-size="8.00">::emplace_copy</text>
</a>
</g>
</g>
<!-- Node1&#45;&gt;Node38 -->
<g id="edge32" class="edge">
<title>Node1&#45;&gt;Node38</title>
<path fill="none" stroke="midnightblue" d="M728.47,-306.1C715.44,-331.68 690.86,-372.85 658,-396.5 651.46,-401.2 643.9,-404.92 636.19,-407.85"/>
<polygon fill="midnightblue" stroke="midnightblue" points="731.77,-307.34 733.05,-296.82 725.49,-304.24 731.77,-307.34"/>
</g>
<!-- Node39 -->
<g id="node27" class="node">
<title>Node39</title>
<g id="a_node27"><a xlink:href="classflow_1_1util_1_1Basic__blob.html#acf4d5acf2bdde5e602dd2f9d305adebf" target="_top" xlink:title="Guarantees post&#45;condition zero() == true by dropping *this ownership of the allocated internal buffer...">
<polygon fill="white" stroke="black" points="535,-360.5 535,-386.5 636,-386.5 636,-360.5 535,-360.5"/>
<text text-anchor="start" x="543" y="-376.1" font-family="Helvetica,sans-Serif" font-size="8.00">flow::util::Basic_blob</text>
<text text-anchor="middle" x="585.5" y="-367.1" font-family="Helvetica,sans-Serif" font-size="8.00">::make_zero</text>
</a>
</g>
</g>
<!-- Node1&#45;&gt;Node39 -->
<g id="edge33" class="edge">
<title>Node1&#45;&gt;Node39</title>
<path fill="none" stroke="midnightblue" d="M719.36,-303.93C703.92,-318.95 681.21,-338.87 658,-351.5 651.16,-355.23 643.59,-358.41 636.02,-361.11"/>
<polygon fill="midnightblue" stroke="midnightblue" points="722.12,-306.12 726.74,-296.58 717.18,-301.16 722.12,-306.12"/>
</g>
<!-- Node40 -->
<g id="node28" class="node">
<title>Node40</title>
<g id="a_node28"><a xlink:href="classflow_1_1util_1_1Basic__blob.html#aaa7bc2f80b4e46a18f04911954e2b3e7" target="_top" xlink:title="Ensures that an internal buffer of at least capacity elements is allocated and owned; disallows growi...">
<polygon fill="white" stroke="black" points="535,-315.5 535,-341.5 636,-341.5 636,-315.5 535,-315.5"/>
<text text-anchor="start" x="543" y="-331.1" font-family="Helvetica,sans-Serif" font-size="8.00">flow::util::Basic_blob</text>
<text text-anchor="middle" x="585.5" y="-322.1" font-family="Helvetica,sans-Serif" font-size="8.00">::reserve</text>
</a>
</g>
</g>
<!-- Node1&#45;&gt;Node40 -->
<g id="edge34" class="edge">
<title>Node1&#45;&gt;Node40</title>
<path fill="none" stroke="midnightblue" d="M685.21,-299.37C667.4,-304.63 647.79,-310.42 630.77,-315.44"/>
<polygon fill="midnightblue" stroke="midnightblue" points="686.29,-302.7 694.89,-296.52 684.31,-295.99 686.29,-302.7"/>
</g>
<!-- Node41 -->
<g id="node29" class="node">
<title>Node41</title>
<g id="a_node29"><a xlink:href="classflow_1_1util_1_1Basic__blob.html#a0044410b7d1f541978a309f02b2739d3" target="_top" xlink:title="Applicable to !zero() blobs, this returns an identical Basic_blob that shares (co&#45;owns) *this allocat...">
<polygon fill="white" stroke="black" points="535,-270.5 535,-296.5 636,-296.5 636,-270.5 535,-270.5"/>
<text text-anchor="start" x="543" y="-286.1" font-family="Helvetica,sans-Serif" font-size="8.00">flow::util::Basic_blob</text>
<text text-anchor="middle" x="585.5" y="-277.1" font-family="Helvetica,sans-Serif" font-size="8.00">::share</text>
</a>
</g>
</g>
<!-- Node1&#45;&gt;Node41 -->
<g id="edge35" class="edge">
<title>Node1&#45;&gt;Node41</title>
<path fill="none" stroke="midnightblue" d="M683.22,-283.5C667.83,-283.5 651.22,-283.5 636.2,-283.5"/>
<polygon fill="midnightblue" stroke="midnightblue" points="683.66,-287 693.66,-283.5 683.66,-280 683.66,-287"/>
</g>
<!-- Node42 -->
<g id="node30" class="node">
<title>Node42</title>
<g id="a_node30"><a xlink:href="classflow_1_1util_1_1Basic__blob.html#a92215c61d9e3ca83bdbfa6b078b72dc9" target="_top" xlink:title="Impl of share_after_split_equally() but capable of emitting not just *this type (Basic_blob&lt;....">
<polygon fill="white" stroke="black" points="513,-225.5 513,-251.5 658,-251.5 658,-225.5 513,-225.5"/>
<text text-anchor="start" x="521" y="-241.1" font-family="Helvetica,sans-Serif" font-size="8.00">flow::util::Basic_blob</text>
<text text-anchor="middle" x="585.5" y="-232.1" font-family="Helvetica,sans-Serif" font-size="8.00">::share_after_split_equally_impl</text>
</a>
</g>
</g>
<!-- Node1&#45;&gt;Node42 -->
<g id="edge36" class="edge">
<title>Node1&#45;&gt;Node42</title>
<path fill="none" stroke="midnightblue" d="M685.21,-267.63C667.4,-262.37 647.79,-256.58 630.77,-251.56"/>
<polygon fill="midnightblue" stroke="midnightblue" points="684.31,-271.01 694.89,-270.48 686.29,-264.3 684.31,-271.01"/>
</g>
<!-- Node43 -->
<g id="node31" class="node">
<title>Node43</title>
<g id="a_node31"><a xlink:href="classflow_1_1util_1_1Basic__blob.html#a6c0635640d16084eb975a9fb97f96aab" target="_top" xlink:title="Applicable to !zero() blobs, this shifts this&#45;&gt;begin() by size to the right without changing end(); a...">
<polygon fill="white" stroke="black" points="532,-180.5 532,-206.5 639,-206.5 639,-180.5 532,-180.5"/>
<text text-anchor="start" x="540" y="-196.1" font-family="Helvetica,sans-Serif" font-size="8.00">flow::util::Basic_blob</text>
<text text-anchor="middle" x="585.5" y="-187.1" font-family="Helvetica,sans-Serif" font-size="8.00">::share_after_split_left</text>
</a>
</g>
</g>
<!-- Node1&#45;&gt;Node43 -->
<g id="edge37" class="edge">
<title>Node1&#45;&gt;Node43</title>
<path fill="none" stroke="midnightblue" d="M718.99,-263.21C703.5,-248.49 680.9,-229.04 658,-216.5 651.02,-212.68 643.31,-209.37 635.61,-206.55"/>
<polygon fill="midnightblue" stroke="midnightblue" points="716.79,-265.95 726.4,-270.41 721.67,-260.93 716.79,-265.95"/>
</g>
<!-- Node44 -->
<g id="node32" class="node">
<title>Node44</title>
<g id="a_node32"><a xlink:href="classflow_1_1util_1_1Basic__blob.html#aedd12dc6003934e156e3dc100e7c193e" target="_top" xlink:title="Identical to share_after_split_left(), except this&#45;&gt;end() shifts by size to the left (instead of this...">
<polygon fill="white" stroke="black" points="529,-135.5 529,-161.5 642,-161.5 642,-135.5 529,-135.5"/>
<text text-anchor="start" x="537" y="-151.1" font-family="Helvetica,sans-Serif" font-size="8.00">flow::util::Basic_blob</text>
<text text-anchor="middle" x="585.5" y="-142.1" font-family="Helvetica,sans-Serif" font-size="8.00">::share_after_split_right</text>
</a>
</g>
</g>
<!-- Node1&#45;&gt;Node44 -->
<g id="edge38" class="edge">
<title>Node1&#45;&gt;Node44</title>
<path fill="none" stroke="midnightblue" d="M728.37,-261.17C715.23,-235.89 690.57,-195.15 658,-171.5 652.62,-167.59 646.54,-164.33 640.26,-161.61"/>
<polygon fill="midnightblue" stroke="midnightblue" points="725.36,-262.98 732.98,-270.35 731.62,-259.84 725.36,-262.98"/>
</g>
<!-- Node45 -->
<g id="node33" class="node">
<title>Node45</title>
<g id="a_node33"><a xlink:href="classflow_1_1net__flow_1_1Drop__timer.html#a4a5f0bbb91232e17e258722e4dfa237b" target="_top" xlink:title="Starts a new wait on the timer, so that is it asynchronously triggered according to the current DTO v...">
<polygon fill="white" stroke="black" points="536.5,-90.5 536.5,-116.5 634.5,-116.5 634.5,-90.5 536.5,-90.5"/>
<text text-anchor="start" x="544.5" y="-106.1" font-family="Helvetica,sans-Serif" font-size="8.00">flow::net_flow::Drop</text>
<text text-anchor="middle" x="585.5" y="-97.1" font-family="Helvetica,sans-Serif" font-size="8.00">_timer::start_timer</text>
</a>
</g>
</g>
<!-- Node1&#45;&gt;Node45 -->
<g id="edge39" class="edge">
<title>Node1&#45;&gt;Node45</title>
<path fill="none" stroke="midnightblue" d="M733.18,-260.42C723.4,-226.27 700.44,-162.46 658,-126.5 651.23,-120.77 643.02,-116.46 634.6,-113.22"/>
<polygon fill="midnightblue" stroke="midnightblue" points="729.9,-261.67 735.9,-270.39 736.65,-259.82 729.9,-261.67"/>
</g>
<!-- Node47 -->
<g id="node35" class="node">
<title>Node47</title>
<g id="a_node35"><a xlink:href="classflow_1_1util_1_1Basic__blob.html#aa2484d717fde243f6118ac4b0312df87" target="_top" xlink:title="The opposite of emplace_copy() in every way, copying a sub&#45;blob onto a target memory area.">
<polygon fill="white" stroke="black" points="535,-45.5 535,-71.5 636,-71.5 636,-45.5 535,-45.5"/>
<text text-anchor="start" x="543" y="-61.1" font-family="Helvetica,sans-Serif" font-size="8.00">flow::util::Basic_blob</text>
<text text-anchor="middle" x="585.5" y="-52.1" font-family="Helvetica,sans-Serif" font-size="8.00">::sub_copy</text>
</a>
</g>
</g>
<!-- Node1&#45;&gt;Node47 -->
<g id="edge41" class="edge">
<title>Node1&#45;&gt;Node47</title>
<path fill="none" stroke="midnightblue" d="M736.14,-260.22C729.79,-218.45 710.64,-130.58 658,-81.5 651.8,-75.72 644.14,-71.39 636.16,-68.15"/>
<polygon fill="midnightblue" stroke="midnightblue" points="732.7,-260.84 737.55,-270.25 739.63,-259.86 732.7,-260.84"/>
</g>
<!-- Node48 -->
<g id="node36" class="node">
<title>Node48</title>
<g id="a_node36"><a xlink:href="classflow_1_1util_1_1Basic__blob.html#adc0bb760b5f2f36147d128e2e5fbe95f" target="_top" xlink:title="The body of swap(), except for the part that swaps (or decides not to swap) m_alloc_raw.">
<polygon fill="white" stroke="black" points="535,-0.5 535,-26.5 636,-26.5 636,-0.5 535,-0.5"/>
<text text-anchor="start" x="543" y="-16.1" font-family="Helvetica,sans-Serif" font-size="8.00">flow::util::Basic_blob</text>
<text text-anchor="middle" x="585.5" y="-7.1" font-family="Helvetica,sans-Serif" font-size="8.00">::swap_impl</text>
</a>
</g>
</g>
<!-- Node1&#45;&gt;Node48 -->
<g id="edge42" class="edge">
<title>Node1&#45;&gt;Node48</title>
<path fill="none" stroke="midnightblue" d="M738.22,-260.13C735.32,-211.36 721.68,-98.1 658,-35.5 651.89,-29.49 644.17,-25.12 636.09,-21.94"/>
<polygon fill="midnightblue" stroke="midnightblue" points="734.74,-260.48 738.72,-270.3 741.73,-260.14 734.74,-260.48"/>
</g>
<!-- Node3 -->
<g id="node3" class="node">
<title>Node3</title>
<g id="a_node3"><a xlink:href="classflow_1_1net__flow_1_1Node.html#a6461124e5bc3e59083e172e26029e632" target="_top" xlink:title="Implementation of non&#45;blocking sock&#45;&gt;close_abruptly() for socket sock in all cases except when sock&#45;&gt;...">
<polygon fill="white" stroke="black" points="355.5,-816.5 355.5,-842.5 456.5,-842.5 456.5,-816.5 355.5,-816.5"/>
<text text-anchor="start" x="363.5" y="-832.1" font-family="Helvetica,sans-Serif" font-size="8.00">flow::net_flow::Node</text>
<text text-anchor="middle" x="406" y="-823.1" font-family="Helvetica,sans-Serif" font-size="8.00">::close_abruptly</text>
</a>
</g>
</g>
<!-- Node2&#45;&gt;Node3 -->
<g id="edge2" class="edge">
<title>Node2&#45;&gt;Node3</title>
<path fill="none" stroke="midnightblue" d="M570.18,-697.78C551.43,-724.32 516.27,-769.7 477,-798.5 467.25,-805.65 455.58,-811.64 444.6,-816.38"/>
<polygon fill="midnightblue" stroke="midnightblue" points="573.07,-699.76 575.9,-689.55 567.32,-695.77 573.07,-699.76"/>
</g>
<!-- Node5 -->
<g id="node5" class="node">
<title>Node5</title>
<g id="a_node5"><a xlink:href="classflow_1_1net__flow_1_1Node.html#ae9a0e5492b9ea005cc12c20c8e7cec9a" target="_top" xlink:title="Same as connect() but sends, as part of the connection handshake, the user&#45;supplied metadata,...">
<polygon fill="white" stroke="black" points="346,-762.5 346,-788.5 466,-788.5 466,-762.5 346,-762.5"/>
<text text-anchor="start" x="354" y="-778.1" font-family="Helvetica,sans-Serif" font-size="8.00">flow::net_flow::Node</text>
<text text-anchor="middle" x="406" y="-769.1" font-family="Helvetica,sans-Serif" font-size="8.00">::connect_with_metadata</text>
</a>
</g>
</g>
<!-- Node2&#45;&gt;Node5 -->
<g id="edge5" class="edge">
<title>Node2&#45;&gt;Node5</title>
<path fill="none" stroke="midnightblue" d="M557.05,-695.45C535.72,-709.78 505.12,-729.48 477,-744.5 464.92,-750.95 451.23,-757.23 439.18,-762.43"/>
<polygon fill="midnightblue" stroke="midnightblue" points="559.27,-698.17 565.59,-689.66 555.35,-692.37 559.27,-698.17"/>
</g>
<!-- Node9 -->
<g id="node9" class="node">
<title>Node9</title>
<g id="a_node9"><a xlink:href="classflow_1_1net__flow_1_1Node.html#a44ee0d42d38f3b98d032dee1549f8c4c" target="_top" xlink:title="Implementation of Event_set::close() when Event_set::state() != Event_set::State::S_CLOSED for event_...">
<polygon fill="white" stroke="black" points="355.5,-708.5 355.5,-734.5 456.5,-734.5 456.5,-708.5 355.5,-708.5"/>
<text text-anchor="start" x="363.5" y="-724.1" font-family="Helvetica,sans-Serif" font-size="8.00">flow::net_flow::Node</text>
<text text-anchor="middle" x="406" y="-715.1" font-family="Helvetica,sans-Serif" font-size="8.00">::event_set_close</text>
</a>
</g>
</g>
<!-- Node2&#45;&gt;Node9 -->
<g id="edge9" class="edge">
<title>Node2&#45;&gt;Node9</title>
<path fill="none" stroke="midnightblue" d="M523.36,-692C501.6,-697.52 477.38,-703.66 456.7,-708.9"/>
<polygon fill="midnightblue" stroke="midnightblue" points="524.33,-695.37 533.16,-689.52 522.61,-688.58 524.33,-695.37"/>
</g>
<!-- Node11 -->
<g id="node11" class="node">
<title>Node11</title>
<g id="a_node11"><a xlink:href="classflow_1_1net__flow_1_1Node.html#ad100464cf0126dbbad39bde1c90a774f" target="_top" xlink:title="Creates a new Event_set in Event_set::State::S_INACTIVE state with no sockets/events stored; returns ...">
<polygon fill="white" stroke="black" points="355.5,-663.5 355.5,-689.5 456.5,-689.5 456.5,-663.5 355.5,-663.5"/>
<text text-anchor="start" x="363.5" y="-679.1" font-family="Helvetica,sans-Serif" font-size="8.00">flow::net_flow::Node</text>
<text text-anchor="middle" x="406" y="-670.1" font-family="Helvetica,sans-Serif" font-size="8.00">::event_set_create</text>
</a>
</g>
</g>
<!-- Node2&#45;&gt;Node11 -->
<g id="edge12" class="edge">
<title>Node2&#45;&gt;Node11</title>
<path fill="none" stroke="midnightblue" d="M520.61,-676.5C499.55,-676.5 476.45,-676.5 456.62,-676.5"/>
<polygon fill="midnightblue" stroke="midnightblue" points="520.76,-680 530.76,-676.5 520.76,-673 520.76,-680"/>
</g>
<!-- Node26 -->
<g id="node17" class="node">
<title>Node26</title>
<g id="a_node17"><a xlink:href="classflow_1_1net__flow_1_1Node.html#a3c2cd6a6c328a2d5381308258d35d95d" target="_top" xlink:title="Sets up a server on the given local Flow port and returns Server_socket which can be used to accept s...">
<polygon fill="white" stroke="black" points="355.5,-600.5 355.5,-626.5 456.5,-626.5 456.5,-600.5 355.5,-600.5"/>
<text text-anchor="start" x="363.5" y="-616.1" font-family="Helvetica,sans-Serif" font-size="8.00">flow::net_flow::Node</text>
<text text-anchor="middle" x="406" y="-607.1" font-family="Helvetica,sans-Serif" font-size="8.00">::listen</text>
</a>
</g>
</g>
<!-- Node2&#45;&gt;Node26 -->
<g id="edge20" class="edge">
<title>Node2&#45;&gt;Node26</title>
<path fill="none" stroke="midnightblue" d="M538.08,-660.02C508.64,-649.57 471.09,-636.25 443.73,-626.54"/>
<polygon fill="midnightblue" stroke="midnightblue" points="537.13,-663.4 547.72,-663.45 539.47,-656.8 537.13,-663.4"/>
</g>
<!-- Node27 -->
<g id="node18" class="node">
<title>Node27</title>
<g id="a_node18"><a xlink:href="classflow_1_1net__flow_1_1Node.html#a07ad769737db60dd637365010b80f4f3" target="_top" xlink:title="Implementation of sock&#45;&gt;info() for socket sock in all cases except when sock&#45;&gt;state() == Peer_socket:...">
<polygon fill="white" stroke="black" points="355.5,-555.5 355.5,-581.5 456.5,-581.5 456.5,-555.5 355.5,-555.5"/>
<text text-anchor="start" x="363.5" y="-571.1" font-family="Helvetica,sans-Serif" font-size="8.00">flow::net_flow::Node</text>
<text text-anchor="middle" x="406" y="-562.1" font-family="Helvetica,sans-Serif" font-size="8.00">::sock_info</text>
</a>
</g>
</g>
<!-- Node2&#45;&gt;Node27 -->
<g id="edge22" class="edge">
<title>Node2&#45;&gt;Node27</title>
<path fill="none" stroke="midnightblue" d="M563.52,-656.18C542.94,-637.2 509.93,-609.2 477,-591.5 469.9,-587.68 462.06,-584.35 454.27,-581.5"/>
<polygon fill="midnightblue" stroke="midnightblue" points="561.34,-658.94 571.03,-663.22 566.13,-653.83 561.34,-658.94"/>
</g>
<!-- Node4 -->
<g id="node4" class="node">
<title>Node4</title>
<g id="a_node4"><a xlink:href="classflow_1_1net__flow_1_1Peer__socket.html#a9ab710704237f912eb219f9b8d574afc" target="_top" xlink:title="Acts as if fatal error error::Code::S_USER_CLOSED_ABRUPTLY has been discovered on the connection.">
<polygon fill="white" stroke="black" points="176.5,-816.5 176.5,-842.5 289.5,-842.5 289.5,-816.5 176.5,-816.5"/>
<text text-anchor="start" x="184.5" y="-832.1" font-family="Helvetica,sans-Serif" font-size="8.00">flow::net_flow::Peer</text>
<text text-anchor="middle" x="233" y="-823.1" font-family="Helvetica,sans-Serif" font-size="8.00">_socket::close_abruptly</text>
</a>
</g>
</g>
<!-- Node3&#45;&gt;Node4 -->
<g id="edge3" class="edge">
<title>Node3&#45;&gt;Node4</title>
<path fill="none" stroke="midnightblue" d="M345,-829.5C327.01,-829.5 307.37,-829.5 289.68,-829.5"/>
<polygon fill="midnightblue" stroke="midnightblue" points="345.08,-833 355.08,-829.5 345.08,-826 345.08,-833"/>
</g>
<!-- Node4&#45;&gt;Node4 -->
<g id="edge4" class="edge">
<title>Node4&#45;&gt;Node4</title>
<path fill="none" stroke="midnightblue" d="M263.12,-852.58C260.06,-857.47 250.02,-861 233,-861 205.77,-861 196.4,-851.96 204.91,-842.77"/>
<polygon fill="midnightblue" stroke="midnightblue" points="266.54,-851.85 261.09,-842.77 259.69,-853.27 266.54,-851.85"/>
</g>
<!-- Node6 -->
<g id="node6" class="node">
<title>Node6</title>
<g id="a_node6"><a xlink:href="classflow_1_1net__flow_1_1asio_1_1Node.html#aecac8b38cd35267b1af57e2443a55ea0" target="_top" xlink:title="Implementation core of async_connect*() that gets rid of templated or missing arguments thereof.">
<polygon fill="white" stroke="black" points="167,-771.5 167,-797.5 299,-797.5 299,-771.5 167,-771.5"/>
<text text-anchor="start" x="175" y="-787.1" font-family="Helvetica,sans-Serif" font-size="8.00">flow::net_flow::asio</text>
<text text-anchor="middle" x="233" y="-778.1" font-family="Helvetica,sans-Serif" font-size="8.00">::Node::async_connect_impl</text>
</a>
</g>
</g>
<!-- Node5&#45;&gt;Node6 -->
<g id="edge6" class="edge">
<title>Node5&#45;&gt;Node6</title>
<path fill="none" stroke="midnightblue" d="M335.65,-779.15C323.56,-779.79 311.03,-780.45 299.06,-781.08"/>
<polygon fill="midnightblue" stroke="midnightblue" points="335.87,-782.64 345.67,-778.62 335.5,-775.65 335.87,-782.64"/>
</g>
<!-- Node7 -->
<g id="node7" class="node">
<title>Node7</title>
<g id="a_node7"><a xlink:href="classflow_1_1net__flow_1_1asio_1_1Node.html#a97d21b9a18651cd234589f3b0b6d2971" target="_top" xlink:title="The boost.asio asynchronous version of sync_connect(), performing any necessary wait and connection i...">
<polygon fill="white" stroke="black" points="10,-796.5 10,-822.5 121,-822.5 121,-796.5 10,-796.5"/>
<text text-anchor="start" x="18" y="-812.1" font-family="Helvetica,sans-Serif" font-size="8.00">flow::net_flow::asio</text>
<text text-anchor="middle" x="65.5" y="-803.1" font-family="Helvetica,sans-Serif" font-size="8.00">::Node::async_connect</text>
</a>
</g>
</g>
<!-- Node6&#45;&gt;Node7 -->
<g id="edge7" class="edge">
<title>Node6&#45;&gt;Node7</title>
<path fill="none" stroke="midnightblue" d="M156.59,-795.89C144.61,-797.7 132.42,-799.54 121.04,-801.26"/>
<polygon fill="midnightblue" stroke="midnightblue" points="157.22,-799.34 166.59,-794.38 156.18,-792.41 157.22,-799.34"/>
</g>
<!-- Node8 -->
<g id="node8" class="node">
<title>Node8</title>
<g id="a_node8"><a xlink:href="classflow_1_1net__flow_1_1asio_1_1Node.html#af8ae97d499f6de21140b89218e52fc4c" target="_top" xlink:title="A combination of async_connect() and connect_with_metadata() (asynchronously blocking connect,...">
<polygon fill="white" stroke="black" points="10,-742 10,-777 121,-777 121,-742 10,-742"/>
<text text-anchor="start" x="18" y="-766.6" font-family="Helvetica,sans-Serif" font-size="8.00">flow::net_flow::asio</text>
<text text-anchor="start" x="18" y="-757.6" font-family="Helvetica,sans-Serif" font-size="8.00">::Node::async_connect</text>
<text text-anchor="middle" x="65.5" y="-748.6" font-family="Helvetica,sans-Serif" font-size="8.00">_with_metadata</text>
</a>
</g>
</g>
<!-- Node6&#45;&gt;Node8 -->
<g id="edge8" class="edge">
<title>Node6&#45;&gt;Node8</title>
<path fill="none" stroke="midnightblue" d="M156.59,-773.11C144.61,-771.3 132.42,-769.46 121.04,-767.74"/>
<polygon fill="midnightblue" stroke="midnightblue" points="156.18,-776.59 166.59,-774.62 157.22,-769.66 156.18,-776.59"/>
</g>
<!-- Node10 -->
<g id="node10" class="node">
<title>Node10</title>
<g id="a_node10"><a xlink:href="classflow_1_1net__flow_1_1Event__set.html#a9ae292072a84d07c867536e3de3b878e" target="_top" xlink:title="Clears all stored resources (any desired events, result events, and any handler saved by async_wait()...">
<polygon fill="white" stroke="black" points="182,-708.5 182,-734.5 284,-734.5 284,-708.5 182,-708.5"/>
<text text-anchor="start" x="190" y="-724.1" font-family="Helvetica,sans-Serif" font-size="8.00">flow::net_flow::Event</text>
<text text-anchor="middle" x="233" y="-715.1" font-family="Helvetica,sans-Serif" font-size="8.00">_set::close</text>
</a>
</g>
</g>
<!-- Node9&#45;&gt;Node10 -->
<g id="edge10" class="edge">
<title>Node9&#45;&gt;Node10</title>
<path fill="none" stroke="midnightblue" d="M344.93,-721.5C325.11,-721.5 303.29,-721.5 284.28,-721.5"/>
<polygon fill="midnightblue" stroke="midnightblue" points="345.08,-725 355.08,-721.5 345.08,-718 345.08,-725"/>
</g>
<!-- Node10&#45;&gt;Node10 -->
<g id="edge11" class="edge">
<title>Node10&#45;&gt;Node10</title>
<path fill="none" stroke="midnightblue" d="M263.12,-744.58C260.06,-749.47 250.02,-753 233,-753 205.77,-753 196.4,-743.96 204.91,-734.77"/>
<polygon fill="midnightblue" stroke="midnightblue" points="266.54,-743.85 261.09,-734.77 259.69,-745.27 266.54,-743.85"/>
</g>
<!-- Node12 -->
<g id="node12" class="node">
<title>Node12</title>
<g id="a_node12"><a xlink:href="classflow_1_1net__flow_1_1asio_1_1Node.html#a0cf22e56b3c091645154719eeb49ff4a" target="_top" xlink:title="Implementation of core asynchronous transfer methods, namely asio::Peer_socket::async_send(),...">
<polygon fill="white" stroke="black" points="185,-645.5 185,-671.5 281,-671.5 281,-645.5 185,-645.5"/>
<text text-anchor="start" x="193" y="-661.1" font-family="Helvetica,sans-Serif" font-size="8.00">flow::net_flow::asio</text>
<text text-anchor="middle" x="233" y="-652.1" font-family="Helvetica,sans-Serif" font-size="8.00">::Node::async_op</text>
</a>
</g>
</g>
<!-- Node11&#45;&gt;Node12 -->
<g id="edge13" class="edge">
<title>Node11&#45;&gt;Node12</title>
<path fill="none" stroke="midnightblue" d="M344.99,-670.18C324.02,-667.98 300.81,-665.53 281.05,-663.45"/>
<polygon fill="midnightblue" stroke="midnightblue" points="344.77,-673.68 355.08,-671.25 345.5,-666.72 344.77,-673.68"/>
</g>
<!-- Node13 -->
<g id="node13" class="node">
<title>Node13</title>
<g id="a_node13"><a xlink:href="classflow_1_1net__flow_1_1Node.html#a2a4dc3d8e294bbc8423e111f52e414ae" target="_top" xlink:title="Implementation of core blocking transfer methods, namely Peer_socket::sync_send(),...">
<polygon fill="white" stroke="black" points="182.5,-600.5 182.5,-626.5 283.5,-626.5 283.5,-600.5 182.5,-600.5"/>
<text text-anchor="start" x="190.5" y="-616.1" font-family="Helvetica,sans-Serif" font-size="8.00">flow::net_flow::Node</text>
<text text-anchor="middle" x="233" y="-607.1" font-family="Helvetica,sans-Serif" font-size="8.00">::sync_op</text>
</a>
</g>
</g>
<!-- Node11&#45;&gt;Node13 -->
<g id="edge15" class="edge">
<title>Node11&#45;&gt;Node13</title>
<path fill="none" stroke="midnightblue" d="M349.99,-660.13C344.89,-658.34 339.82,-656.45 335,-654.5 318.41,-647.8 315.46,-643.5 299,-636.5 290.85,-633.04 281.98,-629.65 273.48,-626.59"/>
<polygon fill="midnightblue" stroke="midnightblue" points="349.22,-663.56 359.81,-663.46 351.47,-656.93 349.22,-663.56"/>
</g>
<!-- Node12&#45;&gt;Node12 -->
<g id="edge14" class="edge">
<title>Node12&#45;&gt;Node12</title>
<path fill="none" stroke="midnightblue" d="M263.12,-681.58C260.06,-686.47 250.02,-690 233,-690 205.77,-690 196.4,-680.96 204.91,-671.77"/>
<polygon fill="midnightblue" stroke="midnightblue" points="266.54,-680.85 261.09,-671.77 259.69,-682.27 266.54,-680.85"/>
</g>
<!-- Node14 -->
<g id="node14" class="node">
<title>Node14</title>
<g id="a_node14"><a xlink:href="classflow_1_1net__flow_1_1Peer__socket.html#a8abde92d5189bf2a058fe8741789f814" target="_top" xlink:title="This is to sync_receive() as node_receive() is to receive().">
<polygon fill="white" stroke="red" points="0,-645.5 0,-671.5 131,-671.5 131,-645.5 0,-645.5"/>
<text text-anchor="start" x="8" y="-661.1" font-family="Helvetica,sans-Serif" font-size="8.00">flow::net_flow::Peer</text>
<text text-anchor="middle" x="65.5" y="-652.1" font-family="Helvetica,sans-Serif" font-size="8.00">_socket::node_sync_receive</text>
</a>
</g>
</g>
<!-- Node13&#45;&gt;Node14 -->
<g id="edge16" class="edge">
<title>Node13&#45;&gt;Node14</title>
<path fill="none" stroke="midnightblue" d="M174.43,-629.15C154.88,-634.47 133.27,-640.35 114.55,-645.44"/>
<polygon fill="midnightblue" stroke="midnightblue" points="175.4,-632.52 184.13,-626.52 173.56,-625.76 175.4,-632.52"/>
</g>
<!-- Node19 -->
<g id="node15" class="node">
<title>Node19</title>
<g id="a_node15"><a xlink:href="classflow_1_1net__flow_1_1Peer__socket.html#a34e2c7dfb5596269a6f86a716015f1a6" target="_top" xlink:title="This is to sync_send() as node_send() is to send().">
<polygon fill="white" stroke="red" points="5,-600.5 5,-626.5 126,-626.5 126,-600.5 5,-600.5"/>
<text text-anchor="start" x="13" y="-616.1" font-family="Helvetica,sans-Serif" font-size="8.00">flow::net_flow::Peer</text>
<text text-anchor="middle" x="65.5" y="-607.1" font-family="Helvetica,sans-Serif" font-size="8.00">_socket::node_sync_send</text>
</a>
</g>
</g>
<!-- Node13&#45;&gt;Node19 -->
<g id="edge17" class="edge">
<title>Node13&#45;&gt;Node19</title>
<path fill="none" stroke="midnightblue" d="M172.15,-613.5C157.14,-613.5 141.04,-613.5 126.05,-613.5"/>
<polygon fill="midnightblue" stroke="midnightblue" points="172.34,-617 182.34,-613.5 172.34,-610 172.34,-617"/>
</g>
<!-- Node24 -->
<g id="node16" class="node">
<title>Node24</title>
<g id="a_node16"><a xlink:href="classflow_1_1net__flow_1_1Server__socket.html#a7f374375e95e008cfe0326ecfb27cf3b" target="_top" xlink:title="Same as sync_accept() but uses a Fine_clock&#45;based Fine_duration non&#45;template type for implementation ...">
<polygon fill="white" stroke="red" points="3,-537.5 3,-563.5 128,-563.5 128,-537.5 3,-537.5"/>
<text text-anchor="start" x="11" y="-553.1" font-family="Helvetica,sans-Serif" font-size="8.00">flow::net_flow::Server</text>
<text text-anchor="middle" x="65.5" y="-544.1" font-family="Helvetica,sans-Serif" font-size="8.00">_socket::sync_accept_impl</text>
</a>
</g>
</g>
<!-- Node13&#45;&gt;Node24 -->
<g id="edge18" class="edge">
<title>Node13&#45;&gt;Node24</title>
<path fill="none" stroke="midnightblue" d="M182.16,-596.98C177.03,-595.17 171.9,-593.33 167,-591.5 143.34,-582.68 116.91,-571.86 97.1,-563.55"/>
<polygon fill="midnightblue" stroke="midnightblue" points="181.39,-600.42 191.99,-600.39 183.69,-593.8 181.39,-600.42"/>
</g>
<!-- Node24&#45;&gt;Node24 -->
<g id="edge19" class="edge">
<title>Node24&#45;&gt;Node24</title>
<path fill="none" stroke="midnightblue" d="M95.62,-573.58C92.56,-578.47 82.52,-582 65.5,-582 38.27,-582 28.9,-572.96 37.41,-563.77"/>
<polygon fill="midnightblue" stroke="midnightblue" points="99.04,-572.85 93.59,-563.77 92.19,-574.27 99.04,-572.85"/>
</g>
<!-- Node26&#45;&gt;Node26 -->
<g id="edge21" class="edge">
<title>Node26&#45;&gt;Node26</title>
<path fill="none" stroke="midnightblue" d="M437.21,-636.58C434.04,-641.47 423.64,-645 406,-645 377.78,-645 368.08,-635.96 376.9,-626.77"/>
<polygon fill="midnightblue" stroke="midnightblue" points="440.62,-635.81 435.1,-626.77 433.78,-637.28 440.62,-635.81"/>
</g>
<!-- Node28 -->
<g id="node19" class="node">
<title>Node28</title>
<g id="a_node19"><a xlink:href="classflow_1_1net__flow_1_1Peer__socket.html#aad81cc16fc6f0d353fdc1379e1dd4712" target="_top" xlink:title="Returns a structure containing the most up&#45;to&#45;date stats about this connection.">
<polygon fill="white" stroke="black" points="184.5,-555.5 184.5,-581.5 281.5,-581.5 281.5,-555.5 184.5,-555.5"/>
<text text-anchor="start" x="192.5" y="-571.1" font-family="Helvetica,sans-Serif" font-size="8.00">flow::net_flow::Peer</text>
<text text-anchor="middle" x="233" y="-562.1" font-family="Helvetica,sans-Serif" font-size="8.00">_socket::info</text>
</a>
</g>
</g>
<!-- Node27&#45;&gt;Node28 -->
<g id="edge23" class="edge">
<title>Node27&#45;&gt;Node28</title>
<path fill="none" stroke="midnightblue" d="M345.08,-568.5C324.29,-568.5 301.29,-568.5 281.63,-568.5"/>
<polygon fill="midnightblue" stroke="midnightblue" points="345.08,-572 355.08,-568.5 345.08,-565 345.08,-572"/>
</g>
<!-- Node30 -->
<g id="node21" class="node">
<title>Node30</title>
<g id="a_node21"><a xlink:href="classflow_1_1perf_1_1Checkpointing__timer_1_1Aggregator.html#acbacf3b4842b77f542082e7a186f1434" target="_top" xlink:title="Provides programmatic access to the aggregation result that would be logged by log_aggregated_results...">
<polygon fill="white" stroke="black" points="343.5,-501 343.5,-536 468.5,-536 468.5,-501 343.5,-501"/>
<text text-anchor="start" x="351.5" y="-525.6" font-family="Helvetica,sans-Serif" font-size="8.00">flow::perf::Checkpointing</text>
<text text-anchor="start" x="351.5" y="-516.6" font-family="Helvetica,sans-Serif" font-size="8.00">_timer::Aggregator::create</text>
<text text-anchor="middle" x="406" y="-507.6" font-family="Helvetica,sans-Serif" font-size="8.00">_aggregated_result</text>
</a>
</g>
</g>
<!-- Node29&#45;&gt;Node30 -->
<g id="edge25" class="edge">
<title>Node29&#45;&gt;Node30</title>
<path fill="none" stroke="midnightblue" d="M509.58,-518.5C495.91,-518.5 481.8,-518.5 468.58,-518.5"/>
<polygon fill="midnightblue" stroke="midnightblue" points="509.92,-522 519.92,-518.5 509.92,-515 509.92,-522"/>
</g>
<!-- Node32 -->
<g id="node23" class="node">
<title>Node32</title>
<g id="a_node23"><a xlink:href="classflow_1_1net__flow_1_1Node.html#a1699dfdaf3e5ebe1b1d715a9c306d116" target="_top" xlink:title="Handles a just&#45;received, not&#45;yet&#45;deserialized low&#45;level packet.">
<polygon fill="white" stroke="black" points="355.5,-455.5 355.5,-481.5 456.5,-481.5 456.5,-455.5 355.5,-455.5"/>
<text text-anchor="start" x="363.5" y="-471.1" font-family="Helvetica,sans-Serif" font-size="8.00">flow::net_flow::Node</text>
<text text-anchor="middle" x="406" y="-462.1" font-family="Helvetica,sans-Serif" font-size="8.00">::handle_incoming</text>
</a>
</g>
</g>
<!-- Node31&#45;&gt;Node32 -->
<g id="edge27" class="edge">
<title>Node31&#45;&gt;Node32</title>
<path fill="none" stroke="midnightblue" d="M519.05,-468.5C498.45,-468.5 476.05,-468.5 456.73,-468.5"/>
<polygon fill="midnightblue" stroke="midnightblue" points="519.31,-472 529.31,-468.5 519.31,-465 519.31,-472"/>
</g>
<!-- Node33 -->
<g id="node24" class="node">
<title>Node33</title>
<g id="a_node24"><a xlink:href="classflow_1_1net__flow_1_1Node.html#a4368247d07e930bdd07ab8d2425c6de8" target="_top" xlink:title="Sets up handle_incoming(packet_data, low_lvl_remote_endpoint) to be called asynchronously after a spe...">
<polygon fill="white" stroke="black" points="176.5,-481 176.5,-516 289.5,-516 289.5,-481 176.5,-481"/>
<text text-anchor="start" x="184.5" y="-505.6" font-family="Helvetica,sans-Serif" font-size="8.00">flow::net_flow::Node</text>
<text text-anchor="start" x="184.5" y="-496.6" font-family="Helvetica,sans-Serif" font-size="8.00">::async_wait_latency</text>
<text text-anchor="middle" x="233" y="-487.6" font-family="Helvetica,sans-Serif" font-size="8.00">_then_handle_incoming</text>
</a>
</g>
</g>
<!-- Node32&#45;&gt;Node33 -->
<g id="edge28" class="edge">
<title>Node32&#45;&gt;Node33</title>
<path fill="none" stroke="midnightblue" d="M345,-479.03C327.01,-482.18 307.37,-485.63 289.68,-488.73"/>
<polygon fill="midnightblue" stroke="midnightblue" points="345.84,-482.43 355.08,-477.26 344.63,-475.54 345.84,-482.43"/>
</g>
<!-- Node34 -->
<g id="node25" class="node">
<title>Node34</title>
<g id="a_node25"><a xlink:href="classflow_1_1net__flow_1_1Node.html#a90ecbad1ff3a8d2fe4b3ad1c474f7513" target="_top" xlink:title="Helper for low_lvl_recv_and_handle() that calls handle_incoming() on the not&#45;yet&#45;deserialized low&#45;lev...">
<polygon fill="white" stroke="red" points="9,-450 9,-485 122,-485 122,-450 9,-450"/>
<text text-anchor="start" x="17" y="-474.6" font-family="Helvetica,sans-Serif" font-size="8.00">flow::net_flow::Node</text>
<text text-anchor="start" x="17" y="-465.6" font-family="Helvetica,sans-Serif" font-size="8.00">::handle_incoming_with</text>
<text text-anchor="middle" x="65.5" y="-456.6" font-family="Helvetica,sans-Serif" font-size="8.00">_simulation</text>
</a>
</g>
</g>
<!-- Node32&#45;&gt;Node34 -->
<g id="edge31" class="edge">
<title>Node32&#45;&gt;Node34</title>
<path fill="none" stroke="midnightblue" d="M345.23,-468.32C282.16,-468.14 183.58,-467.85 122.13,-467.66"/>
<polygon fill="midnightblue" stroke="midnightblue" points="345.41,-471.82 355.42,-468.35 345.43,-464.82 345.41,-471.82"/>
</g>
<!-- Node33&#45;&gt;Node34 -->
<g id="edge29" class="edge">
<title>Node33&#45;&gt;Node34</title>
<path fill="none" stroke="midnightblue" d="M166.44,-486.22C151.8,-483.48 136.4,-480.59 122.2,-477.93"/>
<polygon fill="midnightblue" stroke="midnightblue" points="165.96,-489.69 176.43,-488.09 167.25,-482.81 165.96,-489.69"/>
</g>
<!-- Node34&#45;&gt;Node34 -->
<g id="edge30" class="edge">
<title>Node34&#45;&gt;Node34</title>
<path fill="none" stroke="midnightblue" d="M94.41,-495.6C90.35,-500.27 80.71,-503.5 65.5,-503.5 40.54,-503.5 30.59,-494.81 35.66,-485.28"/>
<polygon fill="midnightblue" stroke="midnightblue" points="97.93,-495.56 95.34,-485.28 90.96,-494.93 97.93,-495.56"/>
</g>
<!-- Node46 -->
<g id="node34" class="node">
<title>Node46</title>
<g id="a_node34"><a xlink:href="classflow_1_1net__flow_1_1Drop__timer.html#a45d4cf2dfecc2cd5c35f452cd7c8d05d" target="_top" xlink:title="Finishes the group started by start start_contemporaneous_events().">
<polygon fill="white" stroke="black" points="335,-86 335,-121 477,-121 477,-86 335,-86"/>
<text text-anchor="start" x="343" y="-110.6" font-family="Helvetica,sans-Serif" font-size="8.00">flow::net_flow::Drop</text>
<text text-anchor="start" x="343" y="-101.6" font-family="Helvetica,sans-Serif" font-size="8.00">_timer::end_contemporaneous</text>
<text text-anchor="middle" x="406" y="-92.6" font-family="Helvetica,sans-Serif" font-size="8.00">_events</text>
</a>
</g>
</g>
<!-- Node45&#45;&gt;Node46 -->
<g id="edge40" class="edge">
<title>Node45&#45;&gt;Node46</title>
<path fill="none" stroke="midnightblue" d="M526.35,-103.5C510.61,-103.5 493.4,-103.5 477.07,-103.5"/>
<polygon fill="midnightblue" stroke="midnightblue" points="526.47,-107 536.47,-103.5 526.47,-100 526.47,-107"/>
</g>
<!-- Node49 -->
<g id="node37" class="node">
<title>Node49</title>
<g id="a_node37"><a xlink:href="classflow_1_1util_1_1Basic__blob.html#a477ff0db26f79989d75da4dbe4bf4982" target="_top" xlink:title="Move constructor, constructing a blob exactly internally equal to pre&#45;call moved_src,...">
<polygon fill="white" stroke="black" points="355.5,-0.5 355.5,-26.5 456.5,-26.5 456.5,-0.5 355.5,-0.5"/>
<text text-anchor="start" x="363.5" y="-16.1" font-family="Helvetica,sans-Serif" font-size="8.00">flow::util::Basic_blob</text>
<text text-anchor="middle" x="406" y="-7.1" font-family="Helvetica,sans-Serif" font-size="8.00">::Basic_blob</text>
</a>
</g>
</g>
<!-- Node48&#45;&gt;Node49 -->
<g id="edge43" class="edge">
<title>Node48&#45;&gt;Node49</title>
<path fill="none" stroke="midnightblue" d="M524.33,-13.5C502.26,-13.5 477.57,-13.5 456.54,-13.5"/>
<polygon fill="midnightblue" stroke="midnightblue" points="524.58,-17 534.58,-13.5 524.58,-10 524.58,-17"/>
</g>
</g>
</svg>
