<?xml version="1.0" encoding="UTF-8" standalone="no"?>
<!DOCTYPE svg PUBLIC "-//W3C//DTD SVG 1.1//EN"
 "http://www.w3.org/Graphics/SVG/1.1/DTD/svg11.dtd">
<!-- Generated by graphviz version 2.43.0 (0)
 -->
<!-- Title: flow::async::Single_thread_task_loop::start Pages: 1 -->
<svg width="696pt" height="221pt"
 viewBox="0.00 0.00 696.00 220.79" xmlns="http://www.w3.org/2000/svg" xmlns:xlink="http://www.w3.org/1999/xlink">
<g id="graph0" class="graph" transform="scale(1 1) rotate(0) translate(4 216.79)">
<title>flow::async::Single_thread_task_loop::start</title>
<polygon fill="white" stroke="transparent" points="-4,4 -4,-216.79 692,-216.79 692,4 -4,4"/>
<!-- Node1 -->
<g id="node1" class="node">
<title>Node1</title>
<g id="a_node1"><a xlink:title="Starts the 1 thread in the thread pool; any queued post()ed (and similar) tasks may begin executing i...">
<polygon fill="#bfbfbf" stroke="black" points="0,-111.5 0,-137.5 115,-137.5 115,-111.5 0,-111.5"/>
<text text-anchor="start" x="8" y="-127.1" font-family="Helvetica,sans-Serif" font-size="8.00">flow::async::Single</text>
<text text-anchor="middle" x="57.5" y="-118.1" font-family="Helvetica,sans-Serif" font-size="8.00">_thread_task_loop::start</text>
</a>
</g>
</g>
<!-- Node2 -->
<g id="node2" class="node">
<title>Node2</title>
<g id="a_node2"><a xlink:href="classflow_1_1async_1_1Cross__thread__task__loop.html#a5705e34163dec8463a30361bdb2fa83f" target="_top" xlink:title="Implements superclass API.">
<polygon fill="white" stroke="black" points="151,-111.5 151,-137.5 266,-137.5 266,-111.5 151,-111.5"/>
<text text-anchor="start" x="159" y="-127.1" font-family="Helvetica,sans-Serif" font-size="8.00">flow::async::Cross</text>
<text text-anchor="middle" x="208.5" y="-118.1" font-family="Helvetica,sans-Serif" font-size="8.00">_thread_task_loop::start</text>
</a>
</g>
</g>
<!-- Node1&#45;&gt;Node2 -->
<g id="edge1" class="edge">
<title>Node1&#45;&gt;Node2</title>
<path fill="none" stroke="midnightblue" d="M115.26,-124.5C123.56,-124.5 132.17,-124.5 140.65,-124.5"/>
<polygon fill="midnightblue" stroke="midnightblue" points="140.9,-128 150.9,-124.5 140.9,-121 140.9,-128"/>
</g>
<!-- Node3 -->
<g id="node3" class="node">
<title>Node3</title>
<g id="a_node3"><a xlink:href="classflow_1_1log_1_1Log__context.html#af4db395042b065b00398cd59845dcb4d" target="_top" xlink:title="Returns the stored Logger pointer, particularly as many FLOW_LOG_*() macros expect.">
<polygon fill="white" stroke="black" points="453,-176.5 453,-202.5 560,-202.5 560,-176.5 453,-176.5"/>
<text text-anchor="start" x="461" y="-192.1" font-family="Helvetica,sans-Serif" font-size="8.00">flow::log::Log_context</text>
<text text-anchor="middle" x="506.5" y="-183.1" font-family="Helvetica,sans-Serif" font-size="8.00">::get_logger</text>
</a>
</g>
</g>
<!-- Node2&#45;&gt;Node3 -->
<g id="edge2" class="edge">
<title>Node2&#45;&gt;Node3</title>
<path fill="none" stroke="midnightblue" d="M220.03,-137.75C235.62,-156.2 266.83,-188.78 302,-201.5 349.35,-218.63 406.92,-213.01 448.73,-204.64"/>
<polygon fill="midnightblue" stroke="midnightblue" points="449.68,-208.02 458.73,-202.53 448.23,-201.17 449.68,-208.02"/>
</g>
<!-- Node4 -->
<g id="node4" class="node">
<title>Node4</title>
<g id="a_node4"><a xlink:href="classflow_1_1async_1_1Cross__thread__task__loop.html#a5c9a3da291fa961bb4d8c4be13c39bb8" target="_top" xlink:title="Implements superclass API.">
<polygon fill="white" stroke="black" points="309,-157 309,-192 410,-192 410,-157 309,-157"/>
<text text-anchor="start" x="317" y="-181.6" font-family="Helvetica,sans-Serif" font-size="8.00">flow::async::Cross</text>
<text text-anchor="start" x="317" y="-172.6" font-family="Helvetica,sans-Serif" font-size="8.00">_thread_task_loop::n</text>
<text text-anchor="middle" x="359.5" y="-163.6" font-family="Helvetica,sans-Serif" font-size="8.00">_threads</text>
</a>
</g>
</g>
<!-- Node2&#45;&gt;Node4 -->
<g id="edge3" class="edge">
<title>Node2&#45;&gt;Node4</title>
<path fill="none" stroke="midnightblue" d="M248.26,-137.51C263.76,-142.71 281.96,-148.81 299.05,-154.55"/>
<polygon fill="midnightblue" stroke="midnightblue" points="298.37,-158.01 308.97,-157.88 300.6,-151.38 298.37,-158.01"/>
</g>
<!-- Node5 -->
<g id="node5" class="node">
<title>Node5</title>
<g id="a_node5"><a xlink:href="namespaceflow_1_1async.html#a3e200db7e5375de21d2568004a85dcad" target="_top" xlink:title="Assuming the same situation as documented for optimal_worker_thread_count_per_pool(),...">
<polygon fill="white" stroke="black" points="302,-48.5 302,-74.5 417,-74.5 417,-48.5 302,-48.5"/>
<text text-anchor="start" x="310" y="-64.1" font-family="Helvetica,sans-Serif" font-size="8.00">flow::async::optimize</text>
<text text-anchor="middle" x="359.5" y="-55.1" font-family="Helvetica,sans-Serif" font-size="8.00">_pinning_in_thread_pool</text>
</a>
</g>
</g>
<!-- Node2&#45;&gt;Node5 -->
<g id="edge4" class="edge">
<title>Node2&#45;&gt;Node5</title>
<path fill="none" stroke="midnightblue" d="M240.37,-111.45C262.95,-101.9 293.78,-88.87 318.28,-78.51"/>
<polygon fill="midnightblue" stroke="midnightblue" points="319.82,-81.66 327.67,-74.54 317.09,-75.21 319.82,-81.66"/>
</g>
<!-- Node8 -->
<g id="node8" class="node">
<title>Node8</title>
<g id="a_node8"><a xlink:href="namespaceflow_1_1util.html#a685b86585da2fa5186f51854e7ae1561" target="_top" xlink:title="Equivalent to ostream_op_to_string() but returns a new string by value instead of writing to the call...">
<polygon fill="white" stroke="black" points="460.5,-0.5 460.5,-26.5 552.5,-26.5 552.5,-0.5 460.5,-0.5"/>
<text text-anchor="start" x="468.5" y="-16.1" font-family="Helvetica,sans-Serif" font-size="8.00">flow::util::ostream</text>
<text text-anchor="middle" x="506.5" y="-7.1" font-family="Helvetica,sans-Serif" font-size="8.00">_op_string</text>
</a>
</g>
</g>
<!-- Node2&#45;&gt;Node8 -->
<g id="edge10" class="edge">
<title>Node2&#45;&gt;Node8</title>
<path fill="none" stroke="midnightblue" d="M219.15,-111.32C234.33,-91.7 265.82,-55.34 302,-38.5 348.81,-16.71 407.9,-11.59 450.33,-11.24"/>
<polygon fill="midnightblue" stroke="midnightblue" points="450.47,-14.74 460.47,-11.24 450.47,-7.74 450.47,-14.74"/>
</g>
<!-- Node12 -->
<g id="node10" class="node">
<title>Node12</title>
<g id="a_node10"><a xlink:href="classflow_1_1async_1_1Cross__thread__task__loop.html#ab785edcaa745fb859aaef4743478ea07" target="_top" xlink:title="Implements superclass API.">
<polygon fill="white" stroke="black" points="302.5,-111.5 302.5,-137.5 416.5,-137.5 416.5,-111.5 302.5,-111.5"/>
<text text-anchor="start" x="310.5" y="-127.1" font-family="Helvetica,sans-Serif" font-size="8.00">flow::async::Cross</text>
<text text-anchor="middle" x="359.5" y="-118.1" font-family="Helvetica,sans-Serif" font-size="8.00">_thread_task_loop::post</text>
</a>
</g>
</g>
<!-- Node2&#45;&gt;Node12 -->
<g id="edge11" class="edge">
<title>Node2&#45;&gt;Node12</title>
<path fill="none" stroke="midnightblue" d="M266.26,-124.5C274.77,-124.5 283.61,-124.5 292.3,-124.5"/>
<polygon fill="midnightblue" stroke="midnightblue" points="292.4,-128 302.4,-124.5 292.4,-121 292.4,-128"/>
</g>
<!-- Node5&#45;&gt;Node5 -->
<g id="edge7" class="edge">
<title>Node5&#45;&gt;Node5</title>
<path fill="none" stroke="midnightblue" d="M334.8,-74.77C327.31,-83.96 335.55,-93 359.5,-93 374.1,-93 382.86,-89.64 385.78,-84.94"/>
<polygon fill="midnightblue" stroke="midnightblue" points="389.19,-84.12 384.2,-74.77 382.27,-85.19 389.19,-84.12"/>
</g>
<!-- Node6 -->
<g id="node6" class="node">
<title>Node6</title>
<g id="a_node6"><a xlink:href="namespaceflow_1_1error.html#a48afa7f8c2e100acd461365dfb00a114" target="_top" xlink:title="Equivalent of exec_and_throw_on_error() for operations with void return type.">
<polygon fill="white" stroke="black" points="454.5,-100.5 454.5,-126.5 558.5,-126.5 558.5,-100.5 454.5,-100.5"/>
<text text-anchor="start" x="462.5" y="-116.1" font-family="Helvetica,sans-Serif" font-size="8.00">flow::error::exec_void</text>
<text text-anchor="middle" x="506.5" y="-107.1" font-family="Helvetica,sans-Serif" font-size="8.00">_and_throw_on_error</text>
</a>
</g>
</g>
<!-- Node5&#45;&gt;Node6 -->
<g id="edge5" class="edge">
<title>Node5&#45;&gt;Node6</title>
<path fill="none" stroke="midnightblue" d="M397.09,-74.62C416.05,-81.42 439.4,-89.79 459.56,-97.03"/>
<polygon fill="midnightblue" stroke="midnightblue" points="458.58,-100.39 469.17,-100.47 460.94,-93.8 458.58,-100.39"/>
</g>
<!-- Node7 -->
<g id="node7" class="node">
<title>Node7</title>
<g id="a_node7"><a xlink:href="namespaceflow_1_1async.html#adab04f47b40b92fffbe12bc33fadd223" target="_top" xlink:title="Assuming a planned thread pool will be receiving ~symmetrical load, and its UX&#45;affecting (in particul...">
<polygon fill="white" stroke="black" points="453.5,-46 453.5,-81 559.5,-81 559.5,-46 453.5,-46"/>
<text text-anchor="start" x="461.5" y="-70.6" font-family="Helvetica,sans-Serif" font-size="8.00">flow::async::optimal</text>
<text text-anchor="start" x="461.5" y="-61.6" font-family="Helvetica,sans-Serif" font-size="8.00">_worker_thread_count</text>
<text text-anchor="middle" x="506.5" y="-52.6" font-family="Helvetica,sans-Serif" font-size="8.00">_per_pool</text>
</a>
</g>
</g>
<!-- Node5&#45;&gt;Node7 -->
<g id="edge6" class="edge">
<title>Node5&#45;&gt;Node7</title>
<path fill="none" stroke="midnightblue" d="M417.39,-62.28C425.95,-62.4 434.8,-62.52 443.46,-62.64"/>
<polygon fill="midnightblue" stroke="midnightblue" points="443.45,-66.14 453.5,-62.78 443.54,-59.15 443.45,-66.14"/>
</g>
<!-- Node5&#45;&gt;Node8 -->
<g id="edge8" class="edge">
<title>Node5&#45;&gt;Node8</title>
<path fill="none" stroke="midnightblue" d="M400.12,-48.38C417.54,-42.62 438.16,-35.79 456.53,-29.71"/>
<polygon fill="midnightblue" stroke="midnightblue" points="457.78,-32.98 466.18,-26.52 455.58,-26.34 457.78,-32.98"/>
</g>
<!-- Node9 -->
<g id="node9" class="node">
<title>Node9</title>
<g id="a_node9"><a xlink:href="namespaceflow_1_1util.html#a8afd30c50bcd670d45442df49d1da484" target="_top" xlink:title="Writes to the specified string, as if the given arguments were each passed, via &lt;&lt; in sequence,...">
<polygon fill="white" stroke="red" points="596,-0.5 596,-26.5 688,-26.5 688,-0.5 596,-0.5"/>
<text text-anchor="start" x="604" y="-16.1" font-family="Helvetica,sans-Serif" font-size="8.00">flow::util::ostream</text>
<text text-anchor="middle" x="642" y="-7.1" font-family="Helvetica,sans-Serif" font-size="8.00">_op_to_string</text>
</a>
</g>
</g>
<!-- Node8&#45;&gt;Node9 -->
<g id="edge9" class="edge">
<title>Node8&#45;&gt;Node9</title>
<path fill="none" stroke="midnightblue" d="M552.7,-13.5C563.24,-13.5 574.6,-13.5 585.53,-13.5"/>
<polygon fill="midnightblue" stroke="midnightblue" points="585.85,-17 595.85,-13.5 585.85,-10 585.85,-17"/>
</g>
<!-- Node12&#45;&gt;Node3 -->
<g id="edge12" class="edge">
<title>Node12&#45;&gt;Node3</title>
<path fill="none" stroke="midnightblue" d="M393.5,-137.57C401.24,-140.73 409.44,-144.17 417,-147.5 434.56,-155.24 453.84,-164.31 469.91,-172.05"/>
<polygon fill="midnightblue" stroke="midnightblue" points="468.43,-175.22 478.96,-176.42 471.48,-168.92 468.43,-175.22"/>
</g>
</g>
</svg>
