<?xml version="1.0" encoding="UTF-8" standalone="no"?>
<!DOCTYPE svg PUBLIC "-//W3C//DTD SVG 1.1//EN"
 "http://www.w3.org/Graphics/SVG/1.1/DTD/svg11.dtd">
<!-- Generated by graphviz version 2.43.0 (0)
 -->
<!-- Title: flow::perf::Checkpointing_timer::Aggregator Pages: 1 -->
<svg width="1076pt" height="226pt"
 viewBox="0.00 0.00 1076.00 225.50" xmlns="http://www.w3.org/2000/svg" xmlns:xlink="http://www.w3.org/1999/xlink">
<g id="graph0" class="graph" transform="scale(1 1) rotate(0) translate(4 221.5)">
<title>flow::perf::Checkpointing_timer::Aggregator</title>
<polygon fill="white" stroke="transparent" points="-4,4 -4,-221.5 1072,-221.5 1072,4 -4,4"/>
<!-- Node1 -->
<g id="node1" class="node">
<title>Node1</title>
<g id="a_node1"><a xlink:title="This companion/inner class of Checkpointing_timer provides aggregation of results from many Checkpoin...">
<polygon fill="#bfbfbf" stroke="black" points="949,-64.5 949,-90.5 1068,-90.5 1068,-64.5 949,-64.5"/>
<text text-anchor="start" x="957" y="-80.1" font-family="Helvetica,sans-Serif" font-size="8.00">flow::perf::Checkpointing</text>
<text text-anchor="middle" x="1008.5" y="-71.1" font-family="Helvetica,sans-Serif" font-size="8.00">_timer::Aggregator</text>
</a>
</g>
</g>
<!-- Node2 -->
<g id="node2" class="node">
<title>Node2</title>
<g id="a_node2"><a xlink:href="classflow_1_1log_1_1Log__context.html" target="_top" xlink:title="Convenience class that simply stores a Logger and/or Component passed into a constructor; and returns...">
<polygon fill="white" stroke="black" points="755.5,-85 755.5,-102 862.5,-102 862.5,-85 755.5,-85"/>
<text text-anchor="middle" x="809" y="-91.6" font-family="Helvetica,sans-Serif" font-size="8.00">flow::log::Log_context</text>
</a>
</g>
</g>
<!-- Node2&#45;&gt;Node1 -->
<g id="edge1" class="edge">
<title>Node2&#45;&gt;Node1</title>
<path fill="none" stroke="midnightblue" d="M872.86,-88.41C897.16,-86.44 924.81,-84.2 948.72,-82.26"/>
<polygon fill="midnightblue" stroke="midnightblue" points="872.35,-84.94 862.67,-89.23 872.92,-91.91 872.35,-84.94"/>
</g>
<!-- Node3 -->
<g id="node3" class="node">
<title>Node3</title>
<g id="a_node3"><a xlink:href="classflow_1_1log_1_1Logger.html" target="_top" xlink:title="Interface that the user should implement, passing the implementing Logger into logging classes (Flow&#39;...">
<polygon fill="white" stroke="black" points="547.5,-85 547.5,-102 633.5,-102 633.5,-85 547.5,-85"/>
<text text-anchor="middle" x="590.5" y="-91.6" font-family="Helvetica,sans-Serif" font-size="8.00">flow::log::Logger</text>
</a>
</g>
</g>
<!-- Node3&#45;&gt;Node2 -->
<g id="edge2" class="edge">
<title>Node3&#45;&gt;Node2</title>
<path fill="none" stroke="#9a32cd" stroke-dasharray="5,2" d="M643.66,-93.5C677.5,-93.5 721.45,-93.5 755.39,-93.5"/>
<polygon fill="#9a32cd" stroke="#9a32cd" points="643.5,-90 633.5,-93.5 643.5,-97 643.5,-90"/>
<text text-anchor="middle" x="696.5" y="-96.1" font-family="Helvetica,sans-Serif" font-size="8.00"> m_logger</text>
</g>
<!-- Node4 -->
<g id="node4" class="node">
<title>Node4</title>
<g id="a_node4"><a xlink:href="classflow_1_1util_1_1Null__interface.html" target="_top" xlink:title="An empty interface, consisting of nothing but a default virtual destructor, intended as a boiler&#45;plat...">
<polygon fill="white" stroke="black" points="268,-46 268,-63 382,-63 382,-46 268,-46"/>
<text text-anchor="middle" x="325" y="-52.6" font-family="Helvetica,sans-Serif" font-size="8.00">flow::util::Null_interface</text>
</a>
</g>
</g>
<!-- Node4&#45;&gt;Node3 -->
<g id="edge3" class="edge">
<title>Node4&#45;&gt;Node3</title>
<path fill="none" stroke="midnightblue" d="M392.32,-64.32C440.92,-71.51 505.45,-81.06 547.22,-87.24"/>
<polygon fill="midnightblue" stroke="midnightblue" points="392.61,-60.82 382.2,-62.82 391.58,-67.75 392.61,-60.82"/>
</g>
<!-- Node5 -->
<g id="node5" class="node">
<title>Node5</title>
<g id="a_node5"><a xlink:href="classflow_1_1util_1_1Unique__id__holder.html" target="_top" xlink:title="Each object of this class stores (at construction) and returns (on demand) a numeric ID unique from a...">
<polygon fill="white" stroke="black" points="281.5,-82.5 281.5,-108.5 368.5,-108.5 368.5,-82.5 281.5,-82.5"/>
<text text-anchor="start" x="289.5" y="-98.1" font-family="Helvetica,sans-Serif" font-size="8.00">flow::util::Unique</text>
<text text-anchor="middle" x="325" y="-89.1" font-family="Helvetica,sans-Serif" font-size="8.00">_id_holder</text>
</a>
</g>
</g>
<!-- Node5&#45;&gt;Node3 -->
<g id="edge4" class="edge">
<title>Node5&#45;&gt;Node3</title>
<path fill="none" stroke="midnightblue" d="M378.83,-95.1C428.41,-94.72 501.6,-94.17 547.37,-93.82"/>
<polygon fill="midnightblue" stroke="midnightblue" points="378.6,-91.6 368.63,-95.18 378.65,-98.6 378.6,-91.6"/>
</g>
<!-- Node6 -->
<g id="node6" class="node">
<title>Node6</title>
<g id="a_node6"><a xlink:title=" ">
<polygon fill="white" stroke="#bfbfbf" points="0,-82 0,-99 50,-99 50,-82 0,-82"/>
<text text-anchor="middle" x="25" y="-88.6" font-family="Helvetica,sans-Serif" font-size="8.00">uint64_t</text>
</a>
</g>
</g>
<!-- Node6&#45;&gt;Node5 -->
<g id="edge5" class="edge">
<title>Node6&#45;&gt;Node5</title>
<path fill="none" stroke="#9a32cd" stroke-dasharray="5,2" d="M60.61,-94.04C63.11,-94.22 65.59,-94.38 68,-94.5 143.01,-98.32 230.55,-97.53 281.39,-96.56"/>
<polygon fill="#9a32cd" stroke="#9a32cd" points="60.66,-90.53 50.4,-93.19 60.08,-97.51 60.66,-90.53"/>
<text text-anchor="middle" x="147.5" y="-99.1" font-family="Helvetica,sans-Serif" font-size="8.00"> m_id</text>
</g>
<!-- Node7 -->
<g id="node7" class="node">
<title>Node7</title>
<g id="a_node7"><a xlink:title=" ">
<polygon fill="white" stroke="black" points="100,-59 100,-76 195,-76 195,-59 100,-59"/>
<text text-anchor="middle" x="147.5" y="-65.6" font-family="Helvetica,sans-Serif" font-size="8.00">std::atomic&lt; id_t &gt;</text>
</a>
</g>
</g>
<!-- Node6&#45;&gt;Node7 -->
<g id="edge7" class="edge">
<title>Node6&#45;&gt;Node7</title>
<path fill="none" stroke="#9a32cd" stroke-dasharray="5,2" d="M60.04,-84C73.06,-81.52 88.11,-78.64 101.97,-76"/>
<polygon fill="#9a32cd" stroke="#9a32cd" points="59.26,-80.59 50.1,-85.9 60.57,-87.46 59.26,-80.59"/>
<text text-anchor="middle" x="75" y="-84.1" font-family="Helvetica,sans-Serif" font-size="8.00"> ptr</text>
</g>
<!-- Node7&#45;&gt;Node5 -->
<g id="edge6" class="edge">
<title>Node7&#45;&gt;Node5</title>
<path fill="none" stroke="#9a32cd" stroke-dasharray="5,2" d="M205.08,-76.53C229.87,-80.48 258.48,-85.05 281.43,-88.71"/>
<polygon fill="#9a32cd" stroke="#9a32cd" points="205.5,-73.05 195.07,-74.93 204.39,-79.96 205.5,-73.05"/>
<text text-anchor="middle" x="231.5" y="-85.1" font-family="Helvetica,sans-Serif" font-size="8.00"> s_last_id</text>
</g>
<!-- Node8 -->
<g id="node8" class="node">
<title>Node8</title>
<g id="a_node8"><a xlink:title=" ">
<polygon fill="white" stroke="#bfbfbf" points="275.5,-128 275.5,-145 374.5,-145 374.5,-128 275.5,-128"/>
<text text-anchor="middle" x="325" y="-134.6" font-family="Helvetica,sans-Serif" font-size="8.00">boost::noncopyable</text>
</a>
</g>
</g>
<!-- Node8&#45;&gt;Node1 -->
<g id="edge13" class="edge">
<title>Node8&#45;&gt;Node1</title>
<path fill="none" stroke="#8b1a1a" d="M384.76,-136.86C485.21,-136.78 696.26,-133.68 873,-111.5 905.02,-107.48 940.37,-98.35 966.79,-90.57"/>
<polygon fill="#8b1a1a" stroke="#8b1a1a" points="384.51,-133.36 374.51,-136.85 384.51,-140.36 384.51,-133.36"/>
</g>
<!-- Node8&#45;&gt;Node3 -->
<g id="edge8" class="edge">
<title>Node8&#45;&gt;Node3</title>
<path fill="none" stroke="#8b1a1a" d="M384.53,-126.95C433.83,-118.9 503.18,-107.59 547.23,-100.4"/>
<polygon fill="#8b1a1a" stroke="#8b1a1a" points="383.94,-123.5 374.64,-128.56 385.07,-130.41 383.94,-123.5"/>
</g>
<!-- Node9 -->
<g id="node9" class="node">
<title>Node9</title>
<g id="a_node9"><a xlink:title=" ">
<polygon fill="white" stroke="#bfbfbf" points="278,-0.5 278,-26.5 372,-26.5 372,-0.5 278,-0.5"/>
<text text-anchor="start" x="286" y="-16.1" font-family="Helvetica,sans-Serif" font-size="8.00">thread_specific_ptr</text>
<text text-anchor="middle" x="325" y="-7.1" font-family="Helvetica,sans-Serif" font-size="8.00">&lt; std::string &gt;</text>
</a>
</g>
</g>
<!-- Node9&#45;&gt;Node3 -->
<g id="edge9" class="edge">
<title>Node9&#45;&gt;Node3</title>
<path fill="none" stroke="#9a32cd" stroke-dasharray="5,2" d="M382.06,-14.98C421.79,-18.33 474.93,-27.65 515,-52.5 526.03,-59.34 522.34,-68.09 533,-75.5 538.66,-79.44 545.23,-82.55 551.84,-84.99"/>
<polygon fill="#9a32cd" stroke="#9a32cd" points="382.24,-11.49 372.01,-14.24 381.72,-18.47 382.24,-11.49"/>
<text text-anchor="middle" x="457.5" y="-55.1" font-family="Helvetica,sans-Serif" font-size="8.00"> s_this_thread_nickname_ptr</text>
</g>
<!-- Node10 -->
<g id="node10" class="node">
<title>Node10</title>
<g id="a_node10"><a xlink:href="classflow_1_1log_1_1Component.html" target="_top" xlink:title="A light&#45;weight class, each object storing a component payload encoding an enum value from enum type o...">
<polygon fill="white" stroke="black" points="538,-165 538,-182 643,-182 643,-165 538,-165"/>
<text text-anchor="middle" x="590.5" y="-171.6" font-family="Helvetica,sans-Serif" font-size="8.00">flow::log::Component</text>
</a>
</g>
</g>
<!-- Node10&#45;&gt;Node2 -->
<g id="edge10" class="edge">
<title>Node10&#45;&gt;Node2</title>
<path fill="none" stroke="#9a32cd" stroke-dasharray="5,2" d="M624.08,-161.46C668.21,-145.16 745.92,-116.44 784.67,-102.12"/>
<polygon fill="#9a32cd" stroke="#9a32cd" points="622.84,-158.19 614.67,-164.94 625.26,-164.76 622.84,-158.19"/>
<text text-anchor="middle" x="696.5" y="-147.1" font-family="Helvetica,sans-Serif" font-size="8.00"> m_component</text>
</g>
<!-- Node11 -->
<g id="node11" class="node">
<title>Node11</title>
<g id="a_node11"><a xlink:title=" ">
<polygon fill="white" stroke="#bfbfbf" points="282.5,-164 282.5,-181 367.5,-181 367.5,-164 282.5,-164"/>
<text text-anchor="middle" x="325" y="-170.6" font-family="Helvetica,sans-Serif" font-size="8.00">type_info const *</text>
</a>
</g>
</g>
<!-- Node11&#45;&gt;Node10 -->
<g id="edge11" class="edge">
<title>Node11&#45;&gt;Node10</title>
<path fill="none" stroke="#9a32cd" stroke-dasharray="5,2" d="M377.89,-172.7C424.24,-172.87 491.76,-173.13 537.99,-173.3"/>
<polygon fill="#9a32cd" stroke="#9a32cd" points="377.77,-169.2 367.75,-172.66 377.74,-176.2 377.77,-169.2"/>
<text text-anchor="middle" x="457.5" y="-175.1" font-family="Helvetica,sans-Serif" font-size="8.00"> m_payload_type_or_null</text>
</g>
<!-- Node12 -->
<g id="node12" class="node">
<title>Node12</title>
<g id="a_node12"><a xlink:title=" ">
<polygon fill="white" stroke="#bfbfbf" points="291,-200 291,-217 359,-217 359,-200 291,-200"/>
<text text-anchor="middle" x="325" y="-206.6" font-family="Helvetica,sans-Serif" font-size="8.00">unsigned int</text>
</a>
</g>
</g>
<!-- Node12&#45;&gt;Node10 -->
<g id="edge12" class="edge">
<title>Node12&#45;&gt;Node10</title>
<path fill="none" stroke="#9a32cd" stroke-dasharray="5,2" d="M369.46,-203.69C407.81,-199.34 465.19,-192.54 515,-185.5 522.52,-184.44 530.46,-183.24 538.24,-182.02"/>
<polygon fill="#9a32cd" stroke="#9a32cd" points="368.71,-200.26 359.17,-204.86 369.5,-207.21 368.71,-200.26"/>
<text text-anchor="start" x="411" y="-211.1" font-family="Helvetica,sans-Serif" font-size="8.00"> m_payload_enum_raw</text>
<text text-anchor="middle" x="457.5" y="-202.1" font-family="Helvetica,sans-Serif" font-size="8.00">_value</text>
</g>
<!-- Node13 -->
<g id="node13" class="node">
<title>Node13</title>
<g id="a_node13"><a xlink:title=" ">
<polygon fill="white" stroke="black" points="779.5,-48 779.5,-65 838.5,-65 838.5,-48 779.5,-48"/>
<text text-anchor="middle" x="809" y="-54.6" font-family="Helvetica,sans-Serif" font-size="8.00">std::string</text>
</a>
</g>
</g>
<!-- Node13&#45;&gt;Node1 -->
<g id="edge14" class="edge">
<title>Node13&#45;&gt;Node1</title>
<path fill="none" stroke="#9a32cd" stroke-dasharray="5,2" d="M848.72,-60.62C877.26,-63.65 916.6,-67.83 948.98,-71.28"/>
<polygon fill="#9a32cd" stroke="#9a32cd" points="849.03,-57.13 838.72,-59.55 848.29,-64.09 849.03,-57.13"/>
<text text-anchor="middle" x="911" y="-71.1" font-family="Helvetica,sans-Serif" font-size="8.00"> m_name</text>
</g>
<!-- Node14 -->
<g id="node14" class="node">
<title>Node14</title>
<g id="a_node14"><a xlink:title=" ">
<polygon fill="white" stroke="black" points="545,-39.5 545,-65.5 636,-65.5 636,-39.5 545,-39.5"/>
<text text-anchor="start" x="553" y="-55.1" font-family="Helvetica,sans-Serif" font-size="8.00">std::basic_string&lt;</text>
<text text-anchor="middle" x="590.5" y="-46.1" font-family="Helvetica,sans-Serif" font-size="8.00"> Char &gt;</text>
</a>
</g>
</g>
<!-- Node14&#45;&gt;Node13 -->
<g id="edge15" class="edge">
<title>Node14&#45;&gt;Node13</title>
<path fill="none" stroke="midnightblue" d="M646.25,-53.51C688.6,-54.29 745.53,-55.35 779.33,-55.97"/>
<polygon fill="midnightblue" stroke="midnightblue" points="646.16,-50.01 636.1,-53.32 646.03,-57.01 646.16,-50.01"/>
</g>
<!-- Node15 -->
<g id="node15" class="node">
<title>Node15</title>
<g id="a_node15"><a xlink:title=" ">
<polygon fill="white" stroke="black" points="745,-0.5 745,-26.5 873,-26.5 873,-0.5 745,-0.5"/>
<text text-anchor="start" x="753" y="-16.1" font-family="Helvetica,sans-Serif" font-size="8.00">std::vector&lt; Checkpointing</text>
<text text-anchor="middle" x="809" y="-7.1" font-family="Helvetica,sans-Serif" font-size="8.00">_timer_ptr &gt;</text>
</a>
</g>
</g>
<!-- Node15&#45;&gt;Node1 -->
<g id="edge16" class="edge">
<title>Node15&#45;&gt;Node1</title>
<path fill="none" stroke="#9a32cd" stroke-dasharray="5,2" d="M861.92,-29.51C883.35,-36.2 908.4,-44.11 931,-51.5 943.67,-55.64 957.47,-60.29 969.82,-64.5"/>
<polygon fill="#9a32cd" stroke="#9a32cd" points="862.94,-26.17 852.36,-26.54 860.86,-32.85 862.94,-26.17"/>
<text text-anchor="middle" x="911" y="-54.1" font-family="Helvetica,sans-Serif" font-size="8.00"> m_timers</text>
</g>
<!-- Node16 -->
<g id="node16" class="node">
<title>Node16</title>
<g id="a_node16"><a xlink:title=" ">
<polygon fill="white" stroke="#bfbfbf" points="533,-3 533,-20 648,-20 648,-3 533,-3"/>
<text text-anchor="middle" x="590.5" y="-9.6" font-family="Helvetica,sans-Serif" font-size="8.00">Checkpointing_timer_ptr</text>
</a>
</g>
</g>
<!-- Node16&#45;&gt;Node15 -->
<g id="edge17" class="edge">
<title>Node16&#45;&gt;Node15</title>
<path fill="none" stroke="#9a32cd" stroke-dasharray="5,2" d="M658.43,-12.12C685.98,-12.37 717.73,-12.67 744.86,-12.92"/>
<polygon fill="#9a32cd" stroke="#9a32cd" points="658.13,-8.62 648.1,-12.02 658.07,-15.62 658.13,-8.62"/>
<text text-anchor="middle" x="696.5" y="-16.1" font-family="Helvetica,sans-Serif" font-size="8.00"> elements</text>
</g>
</g>
</svg>
