<?xml version="1.0" encoding="UTF-8" standalone="no"?>
<!DOCTYPE svg PUBLIC "-//W3C//DTD SVG 1.1//EN"
 "http://www.w3.org/Graphics/SVG/1.1/DTD/svg11.dtd">
<!-- Generated by graphviz version 2.43.0 (0)
 -->
<!-- Title: flow::net_flow::Node::async_sock_low_lvl_packet_send_paced Pages: 1 -->
<svg width="1097pt" height="151pt"
 viewBox="0.00 0.00 1097.00 151.07" xmlns="http://www.w3.org/2000/svg" xmlns:xlink="http://www.w3.org/1999/xlink">
<g id="graph0" class="graph" transform="scale(1 1) rotate(0) translate(4 147.07)">
<title>flow::net_flow::Node::async_sock_low_lvl_packet_send_paced</title>
<polygon fill="white" stroke="transparent" points="-4,4 -4,-147.07 1093,-147.07 1093,4 -4,4"/>
<!-- Node1 -->
<g id="node1" class="node">
<title>Node1</title>
<g id="a_node1"><a xlink:title="Begins the process of asynchronously sending the given low&#45;level packet to the remote Node specified ...">
<polygon fill="#bfbfbf" stroke="black" points="0,-60.07 0,-95.07 101,-95.07 101,-60.07 0,-60.07"/>
<text text-anchor="start" x="8" y="-84.67" font-family="Helvetica,sans-Serif" font-size="8.00">flow::net_flow::Node</text>
<text text-anchor="start" x="8" y="-75.67" font-family="Helvetica,sans-Serif" font-size="8.00">::async_sock_low_lvl</text>
<text text-anchor="middle" x="50.5" y="-66.67" font-family="Helvetica,sans-Serif" font-size="8.00">_packet_send_paced</text>
</a>
</g>
</g>
<!-- Node2 -->
<g id="node2" class="node">
<title>Node2</title>
<g id="a_node2"><a xlink:href="classflow_1_1net__flow_1_1Node.html#a0db2bb587e0407077b11368df075f0ff" target="_top" xlink:title="async_low_lvl_packet_send_impl() wrapper to call when packet is to be sent to the remote side of the ...">
<polygon fill="white" stroke="black" points="497,-70.07 497,-105.07 598,-105.07 598,-70.07 497,-70.07"/>
<text text-anchor="start" x="505" y="-94.67" font-family="Helvetica,sans-Serif" font-size="8.00">flow::net_flow::Node</text>
<text text-anchor="start" x="505" y="-85.67" font-family="Helvetica,sans-Serif" font-size="8.00">::async_sock_low_lvl</text>
<text text-anchor="middle" x="547.5" y="-76.67" font-family="Helvetica,sans-Serif" font-size="8.00">_packet_send</text>
</a>
</g>
</g>
<!-- Node1&#45;&gt;Node2 -->
<g id="edge1" class="edge">
<title>Node1&#45;&gt;Node2</title>
<path fill="none" stroke="midnightblue" d="M101.4,-79.64C156.21,-81.81 246.86,-85.11 325,-86.57 379.75,-87.59 442.13,-87.79 486.71,-87.76"/>
<polygon fill="midnightblue" stroke="midnightblue" points="486.8,-91.26 496.79,-87.75 486.79,-84.26 486.8,-91.26"/>
</g>
<!-- Node9 -->
<g id="node9" class="node">
<title>Node9</title>
<g id="a_node9"><a xlink:href="classflow_1_1net__flow_1_1Node.html#a0556af278dc07a43f109fbd74ac64d5e" target="_top" xlink:title="async_sock_low_lvl_packet_send_paced() pacing helper: Handles a DATA or ACK packet that was just pass...">
<polygon fill="white" stroke="black" points="137,-43.57 137,-69.57 289,-69.57 289,-43.57 137,-43.57"/>
<text text-anchor="start" x="145" y="-59.17" font-family="Helvetica,sans-Serif" font-size="8.00">flow::net_flow::Node</text>
<text text-anchor="middle" x="213" y="-50.17" font-family="Helvetica,sans-Serif" font-size="8.00">::sock_pacing_new_packet_ready</text>
</a>
</g>
</g>
<!-- Node1&#45;&gt;Node9 -->
<g id="edge10" class="edge">
<title>Node1&#45;&gt;Node9</title>
<path fill="none" stroke="midnightblue" d="M101.4,-71.04C109.47,-69.98 118.02,-68.86 126.65,-67.74"/>
<polygon fill="midnightblue" stroke="midnightblue" points="127.33,-71.18 136.79,-66.41 126.42,-64.24 127.33,-71.18"/>
</g>
<!-- Node3 -->
<g id="node3" class="node">
<title>Node3</title>
<g id="a_node3"><a xlink:href="classflow_1_1net__flow_1_1Node.html#a9f302fe63e36f72931e1a759b0aaaed4" target="_top" xlink:title="Takes given low&#45;level packet structure, serializes it, and initiates asynchronous send of these data ...">
<polygon fill="white" stroke="black" points="666.5,-70.07 666.5,-105.07 775.5,-105.07 775.5,-70.07 666.5,-70.07"/>
<text text-anchor="start" x="674.5" y="-94.67" font-family="Helvetica,sans-Serif" font-size="8.00">flow::net_flow::Node</text>
<text text-anchor="start" x="674.5" y="-85.67" font-family="Helvetica,sans-Serif" font-size="8.00">::async_low_lvl_packet</text>
<text text-anchor="middle" x="721" y="-76.67" font-family="Helvetica,sans-Serif" font-size="8.00">_send_impl</text>
</a>
</g>
</g>
<!-- Node2&#45;&gt;Node3 -->
<g id="edge2" class="edge">
<title>Node2&#45;&gt;Node3</title>
<path fill="none" stroke="midnightblue" d="M598.1,-87.57C616.22,-87.57 636.96,-87.57 656.14,-87.57"/>
<polygon fill="midnightblue" stroke="midnightblue" points="656.31,-91.07 666.31,-87.57 656.31,-84.07 656.31,-91.07"/>
</g>
<!-- Node4 -->
<g id="node4" class="node">
<title>Node4</title>
<g id="a_node4"><a xlink:href="classflow_1_1net__flow_1_1Node.html#a0055a25892990585561e69ceb02214d5" target="_top" xlink:title="Completion handler for async_low_lvl_packet_send_impl(); called when the packet is either successfull...">
<polygon fill="white" stroke="black" points="834.5,-116.57 834.5,-142.57 937.5,-142.57 937.5,-116.57 834.5,-116.57"/>
<text text-anchor="start" x="842.5" y="-132.17" font-family="Helvetica,sans-Serif" font-size="8.00">flow::net_flow::Node</text>
<text text-anchor="middle" x="886" y="-123.17" font-family="Helvetica,sans-Serif" font-size="8.00">::low_lvl_packet_sent</text>
</a>
</g>
</g>
<!-- Node3&#45;&gt;Node4 -->
<g id="edge3" class="edge">
<title>Node3&#45;&gt;Node4</title>
<path fill="none" stroke="midnightblue" d="M775.82,-101.44C791.49,-105.47 808.7,-109.91 824.74,-114.04"/>
<polygon fill="midnightblue" stroke="midnightblue" points="823.99,-117.46 834.55,-116.57 825.74,-110.68 823.99,-117.46"/>
</g>
<!-- Node7 -->
<g id="node7" class="node">
<title>Node7</title>
<g id="a_node7"><a xlink:href="classflow_1_1net__flow_1_1Node.html#a2983d0d8a4d4eb5c3402f63f68ef44d8" target="_top" xlink:title="Performs important book&#45;keeping based on the event &quot;DATA packet was sent to destination....">
<polygon fill="white" stroke="black" points="826.5,-71.57 826.5,-97.57 945.5,-97.57 945.5,-71.57 826.5,-71.57"/>
<text text-anchor="start" x="834.5" y="-87.17" font-family="Helvetica,sans-Serif" font-size="8.00">flow::net_flow::Node</text>
<text text-anchor="middle" x="886" y="-78.17" font-family="Helvetica,sans-Serif" font-size="8.00">::mark_data_packet_sent</text>
</a>
</g>
</g>
<!-- Node3&#45;&gt;Node7 -->
<g id="edge6" class="edge">
<title>Node3&#45;&gt;Node7</title>
<path fill="none" stroke="midnightblue" d="M775.82,-86.58C788.76,-86.34 802.74,-86.08 816.25,-85.83"/>
<polygon fill="midnightblue" stroke="midnightblue" points="816.53,-89.33 826.46,-85.65 816.4,-82.33 816.53,-89.33"/>
</g>
<!-- Node8 -->
<g id="node8" class="node">
<title>Node8</title>
<g id="a_node8"><a xlink:href="classflow_1_1net__flow_1_1Node.html#a43c42121d48a55a43a48e3a84bd10595" target="_top" xlink:title="Obtain a copy of the value of a given option in a thread&#45;safe manner.">
<polygon fill="white" stroke="black" points="826,-33.07 826,-50.07 946,-50.07 946,-33.07 826,-33.07"/>
<text text-anchor="middle" x="886" y="-39.67" font-family="Helvetica,sans-Serif" font-size="8.00">flow::net_flow::Node::opt</text>
</a>
</g>
</g>
<!-- Node3&#45;&gt;Node8 -->
<g id="edge9" class="edge">
<title>Node3&#45;&gt;Node8</title>
<path fill="none" stroke="midnightblue" d="M775.82,-72.38C798.3,-66.04 823.96,-58.8 844.75,-52.93"/>
<polygon fill="midnightblue" stroke="midnightblue" points="845.86,-56.25 854.53,-50.17 843.96,-49.51 845.86,-56.25"/>
</g>
<!-- Node5 -->
<g id="node5" class="node">
<title>Node5</title>
<g id="a_node5"><a xlink:href="classflow_1_1log_1_1Log__context.html#a8a5fef42dc2cedf3c0d1a6e83beb2948" target="_top" xlink:title="Returns reference to the stored Component object, particularly as many FLOW_LOG_*() macros expect.">
<polygon fill="white" stroke="black" points="982,-116.57 982,-142.57 1089,-142.57 1089,-116.57 982,-116.57"/>
<text text-anchor="start" x="990" y="-132.17" font-family="Helvetica,sans-Serif" font-size="8.00">flow::log::Log_context</text>
<text text-anchor="middle" x="1035.5" y="-123.17" font-family="Helvetica,sans-Serif" font-size="8.00">::get_log_component</text>
</a>
</g>
</g>
<!-- Node4&#45;&gt;Node5 -->
<g id="edge4" class="edge">
<title>Node4&#45;&gt;Node5</title>
<path fill="none" stroke="midnightblue" d="M937.76,-129.57C948.67,-129.57 960.33,-129.57 971.63,-129.57"/>
<polygon fill="midnightblue" stroke="midnightblue" points="971.89,-133.07 981.89,-129.57 971.89,-126.07 971.89,-133.07"/>
</g>
<!-- Node6 -->
<g id="node6" class="node">
<title>Node6</title>
<g id="a_node6"><a xlink:href="classflow_1_1log_1_1Log__context.html#af4db395042b065b00398cd59845dcb4d" target="_top" xlink:title="Returns the stored Logger pointer, particularly as many FLOW_LOG_*() macros expect.">
<polygon fill="white" stroke="black" points="982,-71.57 982,-97.57 1089,-97.57 1089,-71.57 982,-71.57"/>
<text text-anchor="start" x="990" y="-87.17" font-family="Helvetica,sans-Serif" font-size="8.00">flow::log::Log_context</text>
<text text-anchor="middle" x="1035.5" y="-78.17" font-family="Helvetica,sans-Serif" font-size="8.00">::get_logger</text>
</a>
</g>
</g>
<!-- Node4&#45;&gt;Node6 -->
<g id="edge5" class="edge">
<title>Node4&#45;&gt;Node6</title>
<path fill="none" stroke="midnightblue" d="M929.66,-116.55C945.95,-111.58 964.71,-105.86 981.82,-100.64"/>
<polygon fill="midnightblue" stroke="midnightblue" points="983.13,-103.9 991.68,-97.63 981.09,-97.2 983.13,-103.9"/>
</g>
<!-- Node7&#45;&gt;Node5 -->
<g id="edge7" class="edge">
<title>Node7&#45;&gt;Node5</title>
<path fill="none" stroke="midnightblue" d="M929.66,-97.58C945.95,-102.55 964.71,-108.28 981.82,-113.5"/>
<polygon fill="midnightblue" stroke="midnightblue" points="981.09,-116.93 991.68,-116.5 983.13,-110.24 981.09,-116.93"/>
</g>
<!-- Node7&#45;&gt;Node6 -->
<g id="edge8" class="edge">
<title>Node7&#45;&gt;Node6</title>
<path fill="none" stroke="midnightblue" d="M945.72,-84.57C954.17,-84.57 962.9,-84.57 971.43,-84.57"/>
<polygon fill="midnightblue" stroke="midnightblue" points="971.71,-88.07 981.71,-84.57 971.71,-81.07 971.71,-88.07"/>
</g>
<!-- Node9&#45;&gt;Node2 -->
<g id="edge11" class="edge">
<title>Node9&#45;&gt;Node2</title>
<path fill="none" stroke="midnightblue" d="M289.03,-63.56C348.9,-69.14 431.62,-76.86 486.98,-82.02"/>
<polygon fill="midnightblue" stroke="midnightblue" points="486.71,-85.51 496.99,-82.95 487.36,-78.54 486.71,-85.51"/>
</g>
<!-- Node10 -->
<g id="node10" class="node">
<title>Node10</title>
<g id="a_node10"><a xlink:href="classflow_1_1net__flow_1_1Node.html#afb88dafa8ec5c1b412de86dfdccd9c8f" target="_top" xlink:title="async_sock_low_lvl_packet_send_paced() pacing helper: Resets the socket&#39;s Send_pacing_data structure ...">
<polygon fill="white" stroke="black" points="652,-24.57 652,-50.57 790,-50.57 790,-24.57 652,-24.57"/>
<text text-anchor="start" x="660" y="-40.17" font-family="Helvetica,sans-Serif" font-size="8.00">flow::net_flow::Node</text>
<text text-anchor="middle" x="721" y="-31.17" font-family="Helvetica,sans-Serif" font-size="8.00">::sock_pacing_new_time_slice</text>
</a>
</g>
</g>
<!-- Node9&#45;&gt;Node10 -->
<g id="edge12" class="edge">
<title>Node9&#45;&gt;Node10</title>
<path fill="none" stroke="midnightblue" d="M240.58,-43.38C262.59,-33.23 295,-20.05 325,-14.57 452.22,8.7 487.43,-0.52 616,-14.57 630.86,-16.19 646.71,-19.08 661.44,-22.28"/>
<polygon fill="midnightblue" stroke="midnightblue" points="660.9,-25.75 671.43,-24.53 662.44,-18.92 660.9,-25.75"/>
</g>
<!-- Node11 -->
<g id="node11" class="node">
<title>Node11</title>
<g id="a_node11"><a xlink:href="classflow_1_1net__flow_1_1Node.html#a73cfaa8e5ed7fe845f759a30423a9cbf" target="_top" xlink:title="async_sock_low_lvl_packet_send_paced() pacing helper: Given that we are currently in the pacing time ...">
<polygon fill="white" stroke="black" points="325,-24.57 325,-50.57 443,-50.57 443,-24.57 325,-24.57"/>
<text text-anchor="start" x="333" y="-40.17" font-family="Helvetica,sans-Serif" font-size="8.00">flow::net_flow::Node</text>
<text text-anchor="middle" x="384" y="-31.17" font-family="Helvetica,sans-Serif" font-size="8.00">::sock_pacing_process_q</text>
</a>
</g>
</g>
<!-- Node9&#45;&gt;Node11 -->
<g id="edge14" class="edge">
<title>Node9&#45;&gt;Node11</title>
<path fill="none" stroke="midnightblue" d="M289.11,-48.12C297.63,-47.17 306.29,-46.19 314.72,-45.24"/>
<polygon fill="midnightblue" stroke="midnightblue" points="315.32,-48.7 324.86,-44.1 314.53,-41.74 315.32,-48.7"/>
</g>
<!-- Node10&#45;&gt;Node8 -->
<g id="edge13" class="edge">
<title>Node10&#45;&gt;Node8</title>
<path fill="none" stroke="midnightblue" d="M790.18,-39.24C798.62,-39.45 807.25,-39.66 815.7,-39.87"/>
<polygon fill="midnightblue" stroke="midnightblue" points="815.81,-43.37 825.89,-40.12 815.98,-36.37 815.81,-43.37"/>
</g>
<!-- Node11&#45;&gt;Node2 -->
<g id="edge15" class="edge">
<title>Node11&#45;&gt;Node2</title>
<path fill="none" stroke="midnightblue" d="M427.01,-50.57C445.4,-56.27 467.31,-63.05 487.31,-69.24"/>
<polygon fill="midnightblue" stroke="midnightblue" points="486.37,-72.61 496.95,-72.23 488.44,-65.93 486.37,-72.61"/>
</g>
<!-- Node12 -->
<g id="node12" class="node">
<title>Node12</title>
<g id="a_node12"><a xlink:href="classflow_1_1net__flow_1_1Node.html#a3fd57a0d025a78cbeccfd8a15a983575" target="_top" xlink:title="async_sock_low_lvl_packet_send_paced() pacing helper: If sock_pacing_process_q() ran out of the last ...">
<polygon fill="white" stroke="black" points="479,-24.57 479,-50.57 616,-50.57 616,-24.57 479,-24.57"/>
<text text-anchor="start" x="487" y="-40.17" font-family="Helvetica,sans-Serif" font-size="8.00">flow::net_flow::Node</text>
<text text-anchor="middle" x="547.5" y="-31.17" font-family="Helvetica,sans-Serif" font-size="8.00">::sock_pacing_time_slice_end</text>
</a>
</g>
</g>
<!-- Node11&#45;&gt;Node12 -->
<g id="edge16" class="edge">
<title>Node11&#45;&gt;Node12</title>
<path fill="none" stroke="midnightblue" d="M443.31,-31.06C451.62,-30.88 460.27,-30.8 468.88,-30.82"/>
<polygon fill="midnightblue" stroke="midnightblue" points="468.92,-34.32 478.95,-30.9 468.97,-27.32 468.92,-34.32"/>
</g>
<!-- Node12&#45;&gt;Node10 -->
<g id="edge17" class="edge">
<title>Node12&#45;&gt;Node10</title>
<path fill="none" stroke="midnightblue" d="M616.28,-37.57C624.6,-37.57 633.16,-37.57 641.62,-37.57"/>
<polygon fill="midnightblue" stroke="midnightblue" points="641.87,-41.07 651.87,-37.57 641.87,-34.07 641.87,-41.07"/>
</g>
<!-- Node12&#45;&gt;Node11 -->
<g id="edge18" class="edge">
<title>Node12&#45;&gt;Node11</title>
<path fill="none" stroke="midnightblue" d="M478.95,-44.24C470.53,-44.34 461.91,-44.34 453.48,-44.25"/>
<polygon fill="midnightblue" stroke="midnightblue" points="453.36,-40.75 443.31,-44.08 453.25,-47.74 453.36,-40.75"/>
</g>
</g>
</svg>
