<?xml version="1.0" encoding="UTF-8" standalone="no"?>
<!DOCTYPE svg PUBLIC "-//W3C//DTD SVG 1.1//EN"
 "http://www.w3.org/Graphics/SVG/1.1/DTD/svg11.dtd">
<!-- Generated by graphviz version 2.43.0 (0)
 -->
<!-- Title: flow::net_flow::Event_set::ev_type_to_socks_map_sizes_to_str Pages: 1 -->
<svg width="380pt" height="98pt"
 viewBox="0.00 0.00 380.00 98.00" xmlns="http://www.w3.org/2000/svg" xmlns:xlink="http://www.w3.org/1999/xlink">
<g id="graph0" class="graph" transform="scale(1 1) rotate(0) translate(4 94)">
<title>flow::net_flow::Event_set::ev_type_to_socks_map_sizes_to_str</title>
<polygon fill="white" stroke="transparent" points="-4,4 -4,-94 376,-94 376,4 -4,4"/>
<!-- Node1 -->
<g id="node1" class="node">
<title>Node1</title>
<g id="a_node1"><a xlink:title="Helper that returns a loggable string summarizing the sizes of the socket sets, by type,...">
<polygon fill="#bfbfbf" stroke="black" points="0,-27 0,-62 110,-62 110,-27 0,-27"/>
<text text-anchor="start" x="8" y="-51.6" font-family="Helvetica,sans-Serif" font-size="8.00">flow::net_flow::Event</text>
<text text-anchor="start" x="8" y="-42.6" font-family="Helvetica,sans-Serif" font-size="8.00">_set::ev_type_to_socks</text>
<text text-anchor="middle" x="55" y="-33.6" font-family="Helvetica,sans-Serif" font-size="8.00">_map_sizes_to_str</text>
</a>
</g>
</g>
<!-- Node2 -->
<g id="node2" class="node">
<title>Node2</title>
<g id="a_node2"><a xlink:href="namespaceflow_1_1util.html#aa079e37d8ddc1b8f76b792e377dd80bd" target="_top" xlink:title="Writes to the specified string, as if the given arguments were each passed, via &lt;&lt; in sequence,...">
<polygon fill="white" stroke="black" points="146,-63.5 146,-89.5 238,-89.5 238,-63.5 146,-63.5"/>
<text text-anchor="start" x="154" y="-79.1" font-family="Helvetica,sans-Serif" font-size="8.00">flow::util::ostream</text>
<text text-anchor="middle" x="192" y="-70.1" font-family="Helvetica,sans-Serif" font-size="8.00">_op_to_string</text>
</a>
</g>
</g>
<!-- Node1&#45;&gt;Node2 -->
<g id="edge1" class="edge">
<title>Node1&#45;&gt;Node2</title>
<path fill="none" stroke="midnightblue" d="M110.13,-57.33C118.67,-59.36 127.51,-61.45 136.07,-63.48"/>
<polygon fill="midnightblue" stroke="midnightblue" points="135.42,-66.92 145.96,-65.82 137.03,-60.11 135.42,-66.92"/>
</g>
<!-- Node4 -->
<g id="node4" class="node">
<title>Node4</title>
<g id="a_node4"><a xlink:href="classflow_1_1util_1_1Linked__hash__map.html#a97ea7121aa85856c9d977777f6c7c510" target="_top" xlink:title="Returns number of elements stored.">
<polygon fill="white" stroke="black" points="149.5,-0.5 149.5,-26.5 234.5,-26.5 234.5,-0.5 149.5,-0.5"/>
<text text-anchor="start" x="157.5" y="-16.1" font-family="Helvetica,sans-Serif" font-size="8.00">flow::util::Linked</text>
<text text-anchor="middle" x="192" y="-7.1" font-family="Helvetica,sans-Serif" font-size="8.00">_hash_map::size</text>
</a>
</g>
</g>
<!-- Node1&#45;&gt;Node4 -->
<g id="edge3" class="edge">
<title>Node1&#45;&gt;Node4</title>
<path fill="none" stroke="midnightblue" d="M110.13,-32.07C119.82,-29.84 129.9,-27.53 139.51,-25.32"/>
<polygon fill="midnightblue" stroke="midnightblue" points="140.36,-28.72 149.33,-23.07 138.8,-21.9 140.36,-28.72"/>
</g>
<!-- Node3 -->
<g id="node3" class="node">
<title>Node3</title>
<g id="a_node3"><a xlink:href="namespaceflow_1_1util.html#a1bf7064869bb90466477e426b466f7d2" target="_top" xlink:title="Function template that simply outputs arguments 2+ via &lt;&lt; to the given ostream, in the order given.">
<polygon fill="white" stroke="black" points="274,-63.5 274,-89.5 372,-89.5 372,-63.5 274,-63.5"/>
<text text-anchor="start" x="282" y="-79.1" font-family="Helvetica,sans-Serif" font-size="8.00">flow::util::feed_args</text>
<text text-anchor="middle" x="323" y="-70.1" font-family="Helvetica,sans-Serif" font-size="8.00">_to_ostream</text>
</a>
</g>
</g>
<!-- Node2&#45;&gt;Node3 -->
<g id="edge2" class="edge">
<title>Node2&#45;&gt;Node3</title>
<path fill="none" stroke="midnightblue" d="M238.12,-76.5C246.28,-76.5 254.9,-76.5 263.38,-76.5"/>
<polygon fill="midnightblue" stroke="midnightblue" points="263.62,-80 273.62,-76.5 263.62,-73 263.62,-80"/>
</g>
<!-- Node4&#45;&gt;Node4 -->
<g id="edge4" class="edge">
<title>Node4&#45;&gt;Node4</title>
<path fill="none" stroke="midnightblue" d="M170.01,-26.77C163.34,-35.96 170.67,-45 192,-45 205,-45 212.8,-41.64 215.4,-36.94"/>
<polygon fill="midnightblue" stroke="midnightblue" points="218.83,-36.2 213.99,-26.77 211.89,-37.16 218.83,-36.2"/>
</g>
</g>
</svg>
