<?xml version="1.0" encoding="UTF-8" standalone="no"?>
<!DOCTYPE svg PUBLIC "-//W3C//DTD SVG 1.1//EN"
 "http://www.w3.org/Graphics/SVG/1.1/DTD/svg11.dtd">
<!-- Generated by graphviz version 2.43.0 (0)
 -->
<!-- Title: flow::async::Task_qing_thread::~Task_qing_thread Pages: 1 -->
<svg width="284pt" height="35pt"
 viewBox="0.00 0.00 284.00 35.00" xmlns="http://www.w3.org/2000/svg" xmlns:xlink="http://www.w3.org/1999/xlink">
<g id="graph0" class="graph" transform="scale(1 1) rotate(0) translate(4 31)">
<title>flow::async::Task_qing_thread::~Task_qing_thread</title>
<polygon fill="white" stroke="transparent" points="-4,4 -4,-31 280,-31 280,4 -4,4"/>
<!-- Node1 -->
<g id="node1" class="node">
<title>Node1</title>
<g id="a_node1"><a xlink:title="stop(), followed by forgetting the Task_engine returned by task_engine(); the latter action may destr...">
<polygon fill="#bfbfbf" stroke="black" points="0,-0.5 0,-26.5 131,-26.5 131,-0.5 0,-0.5"/>
<text text-anchor="start" x="8" y="-16.1" font-family="Helvetica,sans-Serif" font-size="8.00">flow::async::Task_qing</text>
<text text-anchor="middle" x="65.5" y="-7.1" font-family="Helvetica,sans-Serif" font-size="8.00">_thread::~Task_qing_thread</text>
</a>
</g>
</g>
<!-- Node2 -->
<g id="node2" class="node">
<title>Node2</title>
<g id="a_node2"><a xlink:href="classflow_1_1async_1_1Task__qing__thread.html#a6515b9f5240cea26b78e27ea99964ade" target="_top" xlink:title="Blocks the calling thread until the constructor&#45;started thread has finished; if the underlying Task_e...">
<polygon fill="white" stroke="black" points="167,-0.5 167,-26.5 276,-26.5 276,-0.5 167,-0.5"/>
<text text-anchor="start" x="175" y="-16.1" font-family="Helvetica,sans-Serif" font-size="8.00">flow::async::Task_qing</text>
<text text-anchor="middle" x="221.5" y="-7.1" font-family="Helvetica,sans-Serif" font-size="8.00">_thread::stop</text>
</a>
</g>
</g>
<!-- Node1&#45;&gt;Node2 -->
<g id="edge1" class="edge">
<title>Node1&#45;&gt;Node2</title>
<path fill="none" stroke="midnightblue" d="M131.36,-13.5C139.78,-13.5 148.39,-13.5 156.79,-13.5"/>
<polygon fill="midnightblue" stroke="midnightblue" points="156.9,-17 166.89,-13.5 156.89,-10 156.9,-17"/>
</g>
</g>
</svg>
