<?xml version="1.0" encoding="UTF-8" standalone="no"?>
<!DOCTYPE svg PUBLIC "-//W3C//DTD SVG 1.1//EN"
 "http://www.w3.org/Graphics/SVG/1.1/DTD/svg11.dtd">
<!-- Generated by graphviz version 2.43.0 (0)
 -->
<!-- Title: flow::cfg::Static_config_manager&lt; Value_set &gt; Pages: 1 -->
<svg width="1021pt" height="501pt"
 viewBox="0.00 0.00 1021.00 501.00" xmlns="http://www.w3.org/2000/svg" xmlns:xlink="http://www.w3.org/1999/xlink">
<g id="graph0" class="graph" transform="scale(1 1) rotate(0) translate(4 497)">
<title>flow::cfg::Static_config_manager&lt; Value_set &gt;</title>
<polygon fill="white" stroke="transparent" points="-4,4 -4,-497 1017,-497 1017,4 -4,4"/>
<!-- Node1 -->
<g id="node1" class="node">
<title>Node1</title>
<g id="a_node1"><a xlink:title="A Config_manager&#45;related adapter&#45;style class that manages a simple config setup involving a single (t...">
<polygon fill="#bfbfbf" stroke="black" points="899,-160 899,-186 1013,-186 1013,-160 899,-160"/>
<text text-anchor="start" x="907" y="-175.6" font-family="Helvetica,sans-Serif" font-size="8.00">flow::cfg::Static_config</text>
<text text-anchor="middle" x="956" y="-166.6" font-family="Helvetica,sans-Serif" font-size="8.00">_manager&lt; Value_set &gt;</text>
</a>
</g>
</g>
<!-- Node2 -->
<g id="node2" class="node">
<title>Node2</title>
<g id="a_node2"><a xlink:href="classflow_1_1cfg_1_1Config__manager.html" target="_top" xlink:title=" ">
<polygon fill="white" stroke="black" points="725,-160 725,-186 862,-186 862,-160 725,-160"/>
<text text-anchor="start" x="733" y="-175.6" font-family="Helvetica,sans-Serif" font-size="8.00">flow::cfg::Config_manager</text>
<text text-anchor="middle" x="793.5" y="-166.6" font-family="Helvetica,sans-Serif" font-size="8.00">&lt; Value_set, Null_value_set &gt;</text>
</a>
</g>
</g>
<!-- Node2&#45;&gt;Node1 -->
<g id="edge1" class="edge">
<title>Node2&#45;&gt;Node1</title>
<path fill="none" stroke="#8b1a1a" d="M872.15,-173C881.08,-173 890.06,-173 898.63,-173"/>
<polygon fill="#8b1a1a" stroke="#8b1a1a" points="872.1,-169.5 862.1,-173 872.1,-176.5 872.1,-169.5"/>
</g>
<!-- Node3 -->
<g id="node3" class="node">
<title>Node3</title>
<g id="a_node3"><a xlink:href="classflow_1_1log_1_1Log__context.html" target="_top" xlink:title="Convenience class that simply stores a Logger and/or Component passed into a constructor; and returns...">
<polygon fill="white" stroke="black" points="476,-327.5 476,-344.5 583,-344.5 583,-327.5 476,-327.5"/>
<text text-anchor="middle" x="529.5" y="-334.1" font-family="Helvetica,sans-Serif" font-size="8.00">flow::log::Log_context</text>
</a>
</g>
</g>
<!-- Node3&#45;&gt;Node2 -->
<g id="edge2" class="edge">
<title>Node3&#45;&gt;Node2</title>
<path fill="none" stroke="midnightblue" d="M593.55,-344.32C629.42,-345.87 673.69,-342.16 707,-321 757.35,-289.02 781.34,-216.02 789.33,-186.13"/>
<polygon fill="midnightblue" stroke="midnightblue" points="593.38,-340.8 583.19,-343.71 592.97,-347.79 593.38,-340.8"/>
</g>
<!-- Node4 -->
<g id="node4" class="node">
<title>Node4</title>
<g id="a_node4"><a xlink:href="classflow_1_1log_1_1Logger.html" target="_top" xlink:title="Interface that the user should implement, passing the implementing Logger into logging classes (Flow&#39;...">
<polygon fill="white" stroke="black" points="274.5,-393.5 274.5,-410.5 360.5,-410.5 360.5,-393.5 274.5,-393.5"/>
<text text-anchor="middle" x="317.5" y="-400.1" font-family="Helvetica,sans-Serif" font-size="8.00">flow::log::Logger</text>
</a>
</g>
</g>
<!-- Node4&#45;&gt;Node3 -->
<g id="edge3" class="edge">
<title>Node4&#45;&gt;Node3</title>
<path fill="none" stroke="#9a32cd" stroke-dasharray="5,2" d="M355.75,-390.29C397.52,-377.17 464.26,-356.19 501.37,-344.53"/>
<polygon fill="#9a32cd" stroke="#9a32cd" points="354.44,-387.03 345.95,-393.37 356.54,-393.71 354.44,-387.03"/>
<text text-anchor="middle" x="418.5" y="-380.6" font-family="Helvetica,sans-Serif" font-size="8.00"> m_logger</text>
</g>
<!-- Node5 -->
<g id="node5" class="node">
<title>Node5</title>
<g id="a_node5"><a xlink:href="classflow_1_1util_1_1Null__interface.html" target="_top" xlink:title="An empty interface, consisting of nothing but a default virtual destructor, intended as a boiler&#45;plat...">
<polygon fill="white" stroke="black" points="0,-475.5 0,-492.5 114,-492.5 114,-475.5 0,-475.5"/>
<text text-anchor="middle" x="57" y="-482.1" font-family="Helvetica,sans-Serif" font-size="8.00">flow::util::Null_interface</text>
</a>
</g>
</g>
<!-- Node5&#45;&gt;Node4 -->
<g id="edge4" class="edge">
<title>Node5&#45;&gt;Node4</title>
<path fill="none" stroke="midnightblue" d="M116.58,-473.51C154.47,-465.82 204.47,-453.93 247,-438 266.98,-430.52 288.59,-418.67 302.32,-410.63"/>
<polygon fill="midnightblue" stroke="midnightblue" points="115.85,-470.09 106.73,-475.48 117.22,-476.95 115.85,-470.09"/>
</g>
<!-- Node6 -->
<g id="node6" class="node">
<title>Node6</title>
<g id="a_node6"><a xlink:href="classflow_1_1util_1_1Unique__id__holder.html" target="_top" xlink:title="Each object of this class stores (at construction) and returns (on demand) a numeric ID unique from a...">
<polygon fill="white" stroke="red" points="13.5,-430 13.5,-456 100.5,-456 100.5,-430 13.5,-430"/>
<text text-anchor="start" x="21.5" y="-445.6" font-family="Helvetica,sans-Serif" font-size="8.00">flow::util::Unique</text>
<text text-anchor="middle" x="57" y="-436.6" font-family="Helvetica,sans-Serif" font-size="8.00">_id_holder</text>
</a>
</g>
</g>
<!-- Node6&#45;&gt;Node4 -->
<g id="edge5" class="edge">
<title>Node6&#45;&gt;Node4</title>
<path fill="none" stroke="midnightblue" d="M110.83,-436.27C148.8,-431.24 201.17,-423.88 247,-416 256.46,-414.37 266.61,-412.44 276.15,-410.53"/>
<polygon fill="midnightblue" stroke="midnightblue" points="109.98,-432.85 100.52,-437.63 110.89,-439.79 109.98,-432.85"/>
</g>
<!-- Node9 -->
<g id="node7" class="node">
<title>Node9</title>
<g id="a_node7"><a xlink:title=" ">
<polygon fill="white" stroke="#bfbfbf" points="7.5,-393.5 7.5,-410.5 106.5,-410.5 106.5,-393.5 7.5,-393.5"/>
<text text-anchor="middle" x="57" y="-400.1" font-family="Helvetica,sans-Serif" font-size="8.00">boost::noncopyable</text>
</a>
</g>
</g>
<!-- Node9&#45;&gt;Node4 -->
<g id="edge6" class="edge">
<title>Node9&#45;&gt;Node4</title>
<path fill="none" stroke="#8b1a1a" d="M116.85,-402C164.77,-402 231.26,-402 274.09,-402"/>
<polygon fill="#8b1a1a" stroke="#8b1a1a" points="116.62,-398.5 106.62,-402 116.62,-405.5 116.62,-398.5"/>
</g>
<!-- Node10 -->
<g id="node8" class="node">
<title>Node10</title>
<g id="a_node8"><a xlink:title=" ">
<polygon fill="white" stroke="#bfbfbf" points="10,-348 10,-374 104,-374 104,-348 10,-348"/>
<text text-anchor="start" x="18" y="-363.6" font-family="Helvetica,sans-Serif" font-size="8.00">thread_specific_ptr</text>
<text text-anchor="middle" x="57" y="-354.6" font-family="Helvetica,sans-Serif" font-size="8.00">&lt; std::string &gt;</text>
</a>
</g>
</g>
<!-- Node10&#45;&gt;Node4 -->
<g id="edge7" class="edge">
<title>Node10&#45;&gt;Node4</title>
<path fill="none" stroke="#9a32cd" stroke-dasharray="5,2" d="M114.54,-368.81C152.14,-374.14 202.59,-381.56 247,-389 255.84,-390.48 265.29,-392.17 274.28,-393.84"/>
<polygon fill="#9a32cd" stroke="#9a32cd" points="114.68,-365.29 104.29,-367.36 113.7,-372.22 114.68,-365.29"/>
<text text-anchor="middle" x="189.5" y="-391.6" font-family="Helvetica,sans-Serif" font-size="8.00"> s_this_thread_nickname_ptr</text>
</g>
<!-- Node11 -->
<g id="node9" class="node">
<title>Node11</title>
<g id="a_node9"><a xlink:href="classflow_1_1log_1_1Component.html" target="_top" xlink:title="A light&#45;weight class, each object storing a component payload encoding an enum value from enum type o...">
<polygon fill="white" stroke="black" points="265,-311.5 265,-328.5 370,-328.5 370,-311.5 265,-311.5"/>
<text text-anchor="middle" x="317.5" y="-318.1" font-family="Helvetica,sans-Serif" font-size="8.00">flow::log::Component</text>
</a>
</g>
</g>
<!-- Node11&#45;&gt;Node3 -->
<g id="edge8" class="edge">
<title>Node11&#45;&gt;Node3</title>
<path fill="none" stroke="#9a32cd" stroke-dasharray="5,2" d="M380.21,-324.7C410.62,-327.02 446.9,-329.78 475.96,-332"/>
<polygon fill="#9a32cd" stroke="#9a32cd" points="380.38,-321.2 370.14,-323.93 379.85,-328.18 380.38,-321.2"/>
<text text-anchor="middle" x="418.5" y="-331.6" font-family="Helvetica,sans-Serif" font-size="8.00"> m_component</text>
</g>
<!-- Node12 -->
<g id="node10" class="node">
<title>Node12</title>
<g id="a_node10"><a xlink:title=" ">
<polygon fill="white" stroke="#bfbfbf" points="14.5,-311.5 14.5,-328.5 99.5,-328.5 99.5,-311.5 14.5,-311.5"/>
<text text-anchor="middle" x="57" y="-318.1" font-family="Helvetica,sans-Serif" font-size="8.00">type_info const *</text>
</a>
</g>
</g>
<!-- Node12&#45;&gt;Node11 -->
<g id="edge9" class="edge">
<title>Node12&#45;&gt;Node11</title>
<path fill="none" stroke="#9a32cd" stroke-dasharray="5,2" d="M109.68,-320C154.74,-320 219.76,-320 264.82,-320"/>
<polygon fill="#9a32cd" stroke="#9a32cd" points="109.53,-316.5 99.53,-320 109.53,-323.5 109.53,-316.5"/>
<text text-anchor="middle" x="189.5" y="-322.6" font-family="Helvetica,sans-Serif" font-size="8.00"> m_payload_type_or_null</text>
</g>
<!-- Node13 -->
<g id="node11" class="node">
<title>Node13</title>
<g id="a_node11"><a xlink:title=" ">
<polygon fill="white" stroke="#bfbfbf" points="23,-270.5 23,-287.5 91,-287.5 91,-270.5 23,-270.5"/>
<text text-anchor="middle" x="57" y="-277.1" font-family="Helvetica,sans-Serif" font-size="8.00">unsigned int</text>
</a>
</g>
</g>
<!-- Node13&#45;&gt;Node11 -->
<g id="edge10" class="edge">
<title>Node13&#45;&gt;Node11</title>
<path fill="none" stroke="#9a32cd" stroke-dasharray="5,2" d="M101.43,-280.82C139.99,-283.03 197.7,-287.83 247,-298 262.87,-301.27 280.24,-306.77 293.65,-311.45"/>
<polygon fill="#9a32cd" stroke="#9a32cd" points="101.26,-277.3 91.09,-280.26 100.89,-284.29 101.26,-277.3"/>
<text text-anchor="start" x="143" y="-309.6" font-family="Helvetica,sans-Serif" font-size="8.00"> m_payload_enum_raw</text>
<text text-anchor="middle" x="189.5" y="-300.6" font-family="Helvetica,sans-Serif" font-size="8.00">_value</text>
</g>
<!-- Node14 -->
<g id="node12" class="node">
<title>Node14</title>
<g id="a_node12"><a xlink:title=" ">
<polygon fill="white" stroke="#bfbfbf" points="476,-291.5 476,-308.5 583,-308.5 583,-291.5 476,-291.5"/>
<text text-anchor="middle" x="529.5" y="-298.1" font-family="Helvetica,sans-Serif" font-size="8.00">static constexpr size_t</text>
</a>
</g>
</g>
<!-- Node14&#45;&gt;Node2 -->
<g id="edge11" class="edge">
<title>Node14&#45;&gt;Node2</title>
<path fill="none" stroke="#9a32cd" stroke-dasharray="5,2" d="M593.15,-292.57C635.74,-286.71 687.72,-277.75 707,-267 742.64,-247.12 771.42,-206.88 784.64,-186.09"/>
<polygon fill="#9a32cd" stroke="#9a32cd" points="592.56,-289.11 583.11,-293.91 593.49,-296.05 592.56,-289.11"/>
<text text-anchor="middle" x="658.5" y="-310.6" font-family="Helvetica,sans-Serif" font-size="8.00"> S_N_D_VALUE_SETS</text>
<text text-anchor="middle" x="658.5" y="-301.6" font-family="Helvetica,sans-Serif" font-size="8.00">S_N_S_VALUE_SETS</text>
<text text-anchor="middle" x="658.5" y="-292.6" font-family="Helvetica,sans-Serif" font-size="8.00">S_N_VALUE_SETS</text>
</g>
<!-- Node15 -->
<g id="node13" class="node">
<title>Node15</title>
<g id="a_node13"><a xlink:title=" ">
<polygon fill="white" stroke="black" points="500,-255.5 500,-272.5 559,-272.5 559,-255.5 500,-255.5"/>
<text text-anchor="middle" x="529.5" y="-262.1" font-family="Helvetica,sans-Serif" font-size="8.00">std::string</text>
</a>
</g>
</g>
<!-- Node15&#45;&gt;Node2 -->
<g id="edge12" class="edge">
<title>Node15&#45;&gt;Node2</title>
<path fill="none" stroke="#9a32cd" stroke-dasharray="5,2" d="M569.54,-260.59C606.15,-256.41 661.86,-247.44 707,-229 733.28,-218.26 760.11,-199.07 776.54,-186.19"/>
<polygon fill="#9a32cd" stroke="#9a32cd" points="568.85,-257.15 559.28,-261.7 569.6,-264.11 568.85,-257.15"/>
<text text-anchor="middle" x="658.5" y="-256.6" font-family="Helvetica,sans-Serif" font-size="8.00"> m_nickname</text>
</g>
<!-- Node16 -->
<g id="node14" class="node">
<title>Node16</title>
<g id="a_node14"><a xlink:title=" ">
<polygon fill="white" stroke="black" points="272,-251 272,-277 363,-277 363,-251 272,-251"/>
<text text-anchor="start" x="280" y="-266.6" font-family="Helvetica,sans-Serif" font-size="8.00">std::basic_string&lt;</text>
<text text-anchor="middle" x="317.5" y="-257.6" font-family="Helvetica,sans-Serif" font-size="8.00"> Char &gt;</text>
</a>
</g>
</g>
<!-- Node16&#45;&gt;Node15 -->
<g id="edge13" class="edge">
<title>Node16&#45;&gt;Node15</title>
<path fill="none" stroke="midnightblue" d="M373.04,-264C413.59,-264 467.31,-264 499.82,-264"/>
<polygon fill="midnightblue" stroke="midnightblue" points="373.04,-260.5 363.04,-264 373.04,-267.5 373.04,-260.5"/>
</g>
<!-- Node17 -->
<g id="node15" class="node">
<title>Node17</title>
<g id="a_node15"><a xlink:title=" ">
<polygon fill="white" stroke="#bfbfbf" points="485,-210 485,-236 574,-236 574,-210 485,-210"/>
<text text-anchor="start" x="493" y="-225.6" font-family="Helvetica,sans-Serif" font-size="8.00">array&lt; Void_ptr, S</text>
<text text-anchor="middle" x="529.5" y="-216.6" font-family="Helvetica,sans-Serif" font-size="8.00">_N_VALUE_SETS &gt;</text>
</a>
</g>
</g>
<!-- Node17&#45;&gt;Node2 -->
<g id="edge14" class="edge">
<title>Node17&#45;&gt;Node2</title>
<path fill="none" stroke="#9a32cd" stroke-dasharray="5,2" d="M584.13,-219.02C619.35,-215.74 666.27,-210.12 707,-201 723.92,-197.21 742.24,-191.45 757.57,-186.13"/>
<polygon fill="#9a32cd" stroke="#9a32cd" points="583.71,-215.54 574.06,-219.92 584.33,-222.51 583.71,-215.54"/>
<text text-anchor="middle" x="658.5" y="-218.6" font-family="Helvetica,sans-Serif" font-size="8.00"> m_s_d_opt_sets</text>
</g>
<!-- Node18 -->
<g id="node16" class="node">
<title>Node18</title>
<g id="a_node16"><a xlink:title=" ">
<polygon fill="white" stroke="#bfbfbf" points="480,-165 480,-191 579,-191 579,-165 480,-165"/>
<text text-anchor="start" x="488" y="-180.6" font-family="Helvetica,sans-Serif" font-size="8.00">array&lt; Void_ptr, S</text>
<text text-anchor="middle" x="529.5" y="-171.6" font-family="Helvetica,sans-Serif" font-size="8.00">_N_D_VALUE_SETS &gt;</text>
</a>
</g>
</g>
<!-- Node18&#45;&gt;Node2 -->
<g id="edge15" class="edge">
<title>Node18&#45;&gt;Node2</title>
<path fill="none" stroke="#9a32cd" stroke-dasharray="5,2" d="M589.37,-174.74C596.32,-174.45 603.32,-174.19 610,-174 648.01,-172.94 690.48,-172.65 724.89,-172.65"/>
<polygon fill="#9a32cd" stroke="#9a32cd" points="589.09,-171.25 579.26,-175.2 589.41,-178.24 589.09,-171.25"/>
<text text-anchor="start" x="616" y="-194.6" font-family="Helvetica,sans-Serif" font-size="8.00"> m_d_baseline_value</text>
<text text-anchor="middle" x="658.5" y="-185.6" font-family="Helvetica,sans-Serif" font-size="8.00">_sets</text>
<text text-anchor="middle" x="658.5" y="-176.6" font-family="Helvetica,sans-Serif" font-size="8.00">m_d_value_sets</text>
</g>
<!-- Node19 -->
<g id="node17" class="node">
<title>Node19</title>
<g id="a_node17"><a xlink:title=" ">
<polygon fill="white" stroke="#bfbfbf" points="509,-128.5 509,-145.5 550,-145.5 550,-128.5 509,-128.5"/>
<text text-anchor="middle" x="529.5" y="-135.1" font-family="Helvetica,sans-Serif" font-size="8.00">mutex</text>
</a>
</g>
</g>
<!-- Node19&#45;&gt;Node2 -->
<g id="edge16" class="edge">
<title>Node19&#45;&gt;Node2</title>
<path fill="none" stroke="#9a32cd" stroke-dasharray="5,2" d="M560.18,-140.35C595.29,-144.39 655.48,-151.57 707,-159 712.81,-159.84 718.83,-160.74 724.86,-161.68"/>
<polygon fill="#9a32cd" stroke="#9a32cd" points="560.45,-136.86 550.12,-139.2 559.66,-143.81 560.45,-136.86"/>
<text text-anchor="middle" x="658.5" y="-161.6" font-family="Helvetica,sans-Serif" font-size="8.00"> m_d_value_sets_mutex</text>
</g>
<!-- Node20 -->
<g id="node18" class="node">
<title>Node20</title>
<g id="a_node18"><a xlink:title=" ">
<polygon fill="white" stroke="#bfbfbf" points="467,-74.5 467,-109.5 592,-109.5 592,-74.5 467,-74.5"/>
<text text-anchor="start" x="475" y="-99.1" font-family="Helvetica,sans-Serif" font-size="8.00">array&lt; std::list&lt; flow</text>
<text text-anchor="start" x="475" y="-90.1" font-family="Helvetica,sans-Serif" font-size="8.00">::Function &gt;, S_N_D_VALUE</text>
<text text-anchor="middle" x="529.5" y="-81.1" font-family="Helvetica,sans-Serif" font-size="8.00">_SETS &gt;</text>
</a>
</g>
</g>
<!-- Node20&#45;&gt;Node2 -->
<g id="edge17" class="edge">
<title>Node20&#45;&gt;Node2</title>
<path fill="none" stroke="#9a32cd" stroke-dasharray="5,2" d="M602.23,-99.36C634.87,-104.13 673.59,-111.81 707,-124 731.59,-132.97 757.33,-148.72 774.06,-159.94"/>
<polygon fill="#9a32cd" stroke="#9a32cd" points="602.69,-95.89 592.3,-97.97 601.72,-102.82 602.69,-95.89"/>
<text text-anchor="start" x="610" y="-135.6" font-family="Helvetica,sans-Serif" font-size="8.00"> m_on_dynamic_change</text>
<text text-anchor="middle" x="658.5" y="-126.6" font-family="Helvetica,sans-Serif" font-size="8.00">_funcs</text>
</g>
<!-- Node21 -->
<g id="node19" class="node">
<title>Node21</title>
<g id="a_node19"><a xlink:href="classbool.html" target="_top" xlink:title=" ">
<polygon fill="white" stroke="#bfbfbf" points="512,-38.5 512,-55.5 547,-55.5 547,-38.5 512,-38.5"/>
<text text-anchor="middle" x="529.5" y="-45.1" font-family="Helvetica,sans-Serif" font-size="8.00">bool</text>
</a>
</g>
</g>
<!-- Node21&#45;&gt;Node2 -->
<g id="edge18" class="edge">
<title>Node21&#45;&gt;Node2</title>
<path fill="none" stroke="#9a32cd" stroke-dasharray="5,2" d="M557.38,-48.44C593.48,-51.37 658.67,-60.25 707,-87 740.34,-105.46 769.28,-140.8 783.37,-159.93"/>
<polygon fill="#9a32cd" stroke="#9a32cd" points="557.38,-44.93 547.16,-47.71 556.88,-51.91 557.38,-44.93"/>
<text text-anchor="middle" x="658.5" y="-89.6" font-family="Helvetica,sans-Serif" font-size="8.00"> m_dynamic_values_set</text>
</g>
<!-- Node22 -->
<g id="node20" class="node">
<title>Node22</title>
<g id="a_node20"><a xlink:title=" ">
<polygon fill="white" stroke="#bfbfbf" points="495.5,-0.5 495.5,-17.5 563.5,-17.5 563.5,-0.5 495.5,-0.5"/>
<text text-anchor="middle" x="529.5" y="-7.1" font-family="Helvetica,sans-Serif" font-size="8.00">Update_type</text>
</a>
</g>
</g>
<!-- Node22&#45;&gt;Node2 -->
<g id="edge19" class="edge">
<title>Node22&#45;&gt;Node2</title>
<path fill="none" stroke="#9a32cd" stroke-dasharray="5,2" d="M573.91,-5.28C612.01,-4.18 667.37,-8.03 707,-34 754.16,-64.9 779.67,-131.75 788.69,-159.99"/>
<polygon fill="#9a32cd" stroke="#9a32cd" points="573.5,-1.8 563.65,-5.71 573.79,-8.79 573.5,-1.8"/>
<text text-anchor="start" x="617" y="-45.6" font-family="Helvetica,sans-Serif" font-size="8.00"> m_multi_src_update</text>
<text text-anchor="middle" x="658.5" y="-36.6" font-family="Helvetica,sans-Serif" font-size="8.00">_in_progress</text>
</g>
</g>
</svg>
