<?xml version="1.0" encoding="UTF-8" standalone="no"?>
<!DOCTYPE svg PUBLIC "-//W3C//DTD SVG 1.1//EN"
 "http://www.w3.org/Graphics/SVG/1.1/DTD/svg11.dtd">
<!-- Generated by graphviz version 2.43.0 (0)
 -->
<!-- Title: flow::log::Thread_local_string_appender::target_contents Pages: 1 -->
<svg width="244pt" height="44pt"
 viewBox="0.00 0.00 244.00 44.00" xmlns="http://www.w3.org/2000/svg" xmlns:xlink="http://www.w3.org/1999/xlink">
<g id="graph0" class="graph" transform="scale(1 1) rotate(0) translate(4 40)">
<title>flow::log::Thread_local_string_appender::target_contents</title>
<polygon fill="white" stroke="transparent" points="-4,4 -4,-40 240,-40 240,4 -4,4"/>
<!-- Node1 -->
<g id="node1" class="node">
<title>Node1</title>
<g id="a_node1"><a xlink:title="Read&#45;only accessor for the contents of the string, as written to it since the last fresh_appender_ost...">
<polygon fill="#bfbfbf" stroke="black" points="0,-0.5 0,-35.5 118,-35.5 118,-0.5 0,-0.5"/>
<text text-anchor="start" x="8" y="-25.1" font-family="Helvetica,sans-Serif" font-size="8.00">flow::log::Thread_local</text>
<text text-anchor="start" x="8" y="-16.1" font-family="Helvetica,sans-Serif" font-size="8.00">_string_appender::target</text>
<text text-anchor="middle" x="59" y="-7.1" font-family="Helvetica,sans-Serif" font-size="8.00">_contents</text>
</a>
</g>
</g>
<!-- Node2 -->
<g id="node2" class="node">
<title>Node2</title>
<g id="a_node2"><a xlink:href="classflow_1_1util_1_1String__ostream.html#aa7682e71a5e96955a52643e63bf97ad0" target="_top" xlink:title="Read&#45;only access to the string being wrapped.">
<polygon fill="white" stroke="black" points="154,-5 154,-31 236,-31 236,-5 154,-5"/>
<text text-anchor="start" x="162" y="-20.6" font-family="Helvetica,sans-Serif" font-size="8.00">flow::util::String</text>
<text text-anchor="middle" x="195" y="-11.6" font-family="Helvetica,sans-Serif" font-size="8.00">_ostream::str</text>
</a>
</g>
</g>
<!-- Node1&#45;&gt;Node2 -->
<g id="edge1" class="edge">
<title>Node1&#45;&gt;Node2</title>
<path fill="none" stroke="midnightblue" d="M118.38,-18C126.81,-18 135.43,-18 143.68,-18"/>
<polygon fill="midnightblue" stroke="midnightblue" points="143.91,-21.5 153.91,-18 143.91,-14.5 143.91,-21.5"/>
</g>
</g>
</svg>
