<?xml version="1.0" encoding="UTF-8" standalone="no"?>
<!DOCTYPE svg PUBLIC "-//W3C//DTD SVG 1.1//EN"
 "http://www.w3.org/Graphics/SVG/1.1/DTD/svg11.dtd">
<!-- Generated by graphviz version 2.43.0 (0)
 -->
<!-- Title: flow::net_flow::Node::sock_categorize_data_to_established Pages: 1 -->
<svg width="274pt" height="53pt"
 viewBox="0.00 0.00 274.00 53.00" xmlns="http://www.w3.org/2000/svg" xmlns:xlink="http://www.w3.org/1999/xlink">
<g id="graph0" class="graph" transform="scale(1 1) rotate(0) translate(4 49)">
<title>flow::net_flow::Node::sock_categorize_data_to_established</title>
<polygon fill="white" stroke="transparent" points="-4,4 -4,-49 270,-49 270,4 -4,4"/>
<!-- Node1 -->
<g id="node1" class="node">
<title>Node1</title>
<g id="a_node1"><a xlink:title="Helper for handle_data_to_established() that categorizes the DATA packet received as either illegal; ...">
<polygon fill="#bfbfbf" stroke="black" points="0,-5 0,-40 111,-40 111,-5 0,-5"/>
<text text-anchor="start" x="8" y="-29.6" font-family="Helvetica,sans-Serif" font-size="8.00">flow::net_flow::Node</text>
<text text-anchor="start" x="8" y="-20.6" font-family="Helvetica,sans-Serif" font-size="8.00">::sock_categorize_data</text>
<text text-anchor="middle" x="55.5" y="-11.6" font-family="Helvetica,sans-Serif" font-size="8.00">_to_established</text>
</a>
</g>
</g>
<!-- Node2 -->
<g id="node2" class="node">
<title>Node2</title>
<g id="a_node2"><a xlink:href="classflow_1_1net__flow_1_1Peer__socket__receive__stats__accumulator.html#ab45ad2bb462371067b09ae4f97935a78" target="_top" xlink:title="Indicates total_data_packet(), but there is some error about the sequence numbers so that they are no...">
<polygon fill="white" stroke="black" points="147,-0.5 147,-44.5 266,-44.5 266,-0.5 147,-0.5"/>
<text text-anchor="start" x="155" y="-34.1" font-family="Helvetica,sans-Serif" font-size="8.00">flow::net_flow::Peer</text>
<text text-anchor="start" x="155" y="-25.1" font-family="Helvetica,sans-Serif" font-size="8.00">_socket_receive_stats</text>
<text text-anchor="start" x="155" y="-16.1" font-family="Helvetica,sans-Serif" font-size="8.00">_accumulator::error_data</text>
<text text-anchor="middle" x="206.5" y="-7.1" font-family="Helvetica,sans-Serif" font-size="8.00">_packet</text>
</a>
</g>
</g>
<!-- Node1&#45;&gt;Node2 -->
<g id="edge1" class="edge">
<title>Node1&#45;&gt;Node2</title>
<path fill="none" stroke="midnightblue" d="M111.14,-22.5C119.49,-22.5 128.21,-22.5 136.82,-22.5"/>
<polygon fill="midnightblue" stroke="midnightblue" points="136.86,-26 146.86,-22.5 136.86,-19 136.86,-26"/>
</g>
</g>
</svg>
