<?xml version="1.0" encoding="UTF-8" standalone="no"?>
<!DOCTYPE svg PUBLIC "-//W3C//DTD SVG 1.1//EN"
 "http://www.w3.org/Graphics/SVG/1.1/DTD/svg11.dtd">
<!-- Generated by graphviz version 2.43.0 (0)
 -->
<!-- Title: flow::util::Container_traits&lt; std::set&lt; T &gt; &gt; Pages: 1 -->
<svg width="177pt" height="134pt"
 viewBox="0.00 0.00 177.00 134.00" xmlns="http://www.w3.org/2000/svg" xmlns:xlink="http://www.w3.org/1999/xlink">
<g id="graph0" class="graph" transform="scale(1 1) rotate(0) translate(4 130)">
<title>flow::util::Container_traits&lt; std::set&lt; T &gt; &gt;</title>
<polygon fill="white" stroke="transparent" points="-4,4 -4,-130 173,-130 173,4 -4,4"/>
<!-- Node1 -->
<g id="node1" class="node">
<title>Node1</title>
<g id="a_node1"><a xlink:title="Traits of std::set.">
<polygon fill="#bfbfbf" stroke="black" points="0,-0.5 0,-26.5 114,-26.5 114,-0.5 0,-0.5"/>
<text text-anchor="start" x="8" y="-16.1" font-family="Helvetica,sans-Serif" font-size="8.00">flow::util::Container</text>
<text text-anchor="middle" x="57" y="-7.1" font-family="Helvetica,sans-Serif" font-size="8.00">_traits&lt; std::set&lt; T &gt; &gt;</text>
</a>
</g>
</g>
<!-- Node2 -->
<g id="node2" class="node">
<title>Node2</title>
<g id="a_node2"><a xlink:href="classbool.html" target="_top" xlink:title=" ">
<polygon fill="white" stroke="#bfbfbf" points="39.5,-108.5 39.5,-125.5 74.5,-125.5 74.5,-108.5 39.5,-108.5"/>
<text text-anchor="middle" x="57" y="-115.1" font-family="Helvetica,sans-Serif" font-size="8.00">bool</text>
</a>
</g>
</g>
<!-- Node2&#45;&gt;Node1 -->
<g id="edge1" class="edge">
<title>Node2&#45;&gt;Node1</title>
<path fill="none" stroke="#9a32cd" stroke-dasharray="5,2" d="M57,-98.17C57,-77.57 57,-44.25 57,-26.51"/>
<polygon fill="#9a32cd" stroke="#9a32cd" points="53.5,-98.37 57,-108.37 60.5,-98.37 53.5,-98.37"/>
<text text-anchor="start" x="57" y="-83.6" font-family="Helvetica,sans-Serif" font-size="8.00"> S_CHANGE_INVALIDATES</text>
<text text-anchor="middle" x="113" y="-74.6" font-family="Helvetica,sans-Serif" font-size="8.00">_ITERATORS</text>
<text text-anchor="middle" x="113" y="-65.6" font-family="Helvetica,sans-Serif" font-size="8.00">S_CONSTANT_TIME_INSERT</text>
<text text-anchor="middle" x="113" y="-56.6" font-family="Helvetica,sans-Serif" font-size="8.00">S_CONSTANT_TIME_SEARCH</text>
<text text-anchor="middle" x="113" y="-47.6" font-family="Helvetica,sans-Serif" font-size="8.00">S_SORTED</text>
</g>
</g>
</svg>
