<?xml version="1.0" encoding="UTF-8" standalone="no"?>
<!DOCTYPE svg PUBLIC "-//W3C//DTD SVG 1.1//EN"
 "http://www.w3.org/Graphics/SVG/1.1/DTD/svg11.dtd">
<!-- Generated by graphviz version 2.43.0 (0)
 -->
<!-- Title: flow::net_flow::Node::sync_connect Pages: 1 -->
<svg width="589pt" height="80pt"
 viewBox="0.00 0.00 589.00 80.00" xmlns="http://www.w3.org/2000/svg" xmlns:xlink="http://www.w3.org/1999/xlink">
<g id="graph0" class="graph" transform="scale(1 1) rotate(0) translate(4 76)">
<title>flow::net_flow::Node::sync_connect</title>
<polygon fill="white" stroke="transparent" points="-4,4 -4,-76 585,-76 585,4 -4,4"/>
<!-- Node1 -->
<g id="node1" class="node">
<title>Node1</title>
<g id="a_node1"><a xlink:title="The blocking (synchronous) version of connect().">
<polygon fill="#bfbfbf" stroke="black" points="0,-22.5 0,-48.5 101,-48.5 101,-22.5 0,-22.5"/>
<text text-anchor="start" x="8" y="-38.1" font-family="Helvetica,sans-Serif" font-size="8.00">flow::net_flow::Node</text>
<text text-anchor="middle" x="50.5" y="-29.1" font-family="Helvetica,sans-Serif" font-size="8.00">::sync_connect</text>
</a>
</g>
</g>
<!-- Node2 -->
<g id="node2" class="node">
<title>Node2</title>
<g id="a_node2"><a xlink:href="classflow_1_1net__flow_1_1Node.html#a0f28017130b120b9ceaff481d06c86e4" target="_top" xlink:title="A combination of sync_connect() and connect_with_metadata() (blocking connect, with supplied metadata...">
<polygon fill="white" stroke="black" points="137,-22.5 137,-48.5 280,-48.5 280,-22.5 137,-22.5"/>
<text text-anchor="start" x="145" y="-38.1" font-family="Helvetica,sans-Serif" font-size="8.00">flow::net_flow::Node</text>
<text text-anchor="middle" x="208.5" y="-29.1" font-family="Helvetica,sans-Serif" font-size="8.00">::sync_connect_with_metadata</text>
</a>
</g>
</g>
<!-- Node1&#45;&gt;Node2 -->
<g id="edge1" class="edge">
<title>Node1&#45;&gt;Node2</title>
<path fill="none" stroke="midnightblue" d="M101.29,-35.5C109.43,-35.5 118.04,-35.5 126.7,-35.5"/>
<polygon fill="midnightblue" stroke="midnightblue" points="126.86,-39 136.86,-35.5 126.86,-32 126.86,-39"/>
</g>
<!-- Node3 -->
<g id="node3" class="node">
<title>Node3</title>
<g id="a_node3"><a xlink:href="namespaceflow_1_1util.html#aa60d3ba517b5f5cf408faa92d269256a" target="_top" xlink:title="Helper that takes a non&#45;negative duration of arbitrary precision/period and converts it to Fine_durat...">
<polygon fill="white" stroke="black" points="316,-45.5 316,-71.5 441,-71.5 441,-45.5 316,-45.5"/>
<text text-anchor="start" x="324" y="-61.1" font-family="Helvetica,sans-Serif" font-size="8.00">flow::util::chrono</text>
<text text-anchor="middle" x="378.5" y="-52.1" font-family="Helvetica,sans-Serif" font-size="8.00">_duration_to_fine_duration</text>
</a>
</g>
</g>
<!-- Node2&#45;&gt;Node3 -->
<g id="edge2" class="edge">
<title>Node2&#45;&gt;Node3</title>
<path fill="none" stroke="midnightblue" d="M280.26,-45.19C288.68,-46.34 297.27,-47.52 305.7,-48.67"/>
<polygon fill="midnightblue" stroke="midnightblue" points="305.5,-52.17 315.88,-50.06 306.45,-45.24 305.5,-52.17"/>
</g>
<!-- Node4 -->
<g id="node4" class="node">
<title>Node4</title>
<g id="a_node4"><a xlink:href="classflow_1_1net__flow_1_1Node.html#a49e2786f5d1eeb068a828902a631a39a" target="_top" xlink:title="Implementation core of sync_connect*() that gets rid of templated or missing arguments thereof.">
<polygon fill="white" stroke="black" points="328,-0.5 328,-26.5 429,-26.5 429,-0.5 328,-0.5"/>
<text text-anchor="start" x="336" y="-16.1" font-family="Helvetica,sans-Serif" font-size="8.00">flow::net_flow::Node</text>
<text text-anchor="middle" x="378.5" y="-7.1" font-family="Helvetica,sans-Serif" font-size="8.00">::sync_connect_impl</text>
</a>
</g>
</g>
<!-- Node2&#45;&gt;Node4 -->
<g id="edge3" class="edge">
<title>Node2&#45;&gt;Node4</title>
<path fill="none" stroke="midnightblue" d="M280.26,-26.23C292.8,-24.59 305.74,-22.9 317.94,-21.3"/>
<polygon fill="midnightblue" stroke="midnightblue" points="318.51,-24.75 327.98,-19.99 317.61,-17.81 318.51,-24.75"/>
</g>
<!-- Node5 -->
<g id="node5" class="node">
<title>Node5</title>
<g id="a_node5"><a xlink:href="namespaceflow_1_1util.html#a09a032f8e1e77a3afc0b7df115a773e1" target="_top" xlink:title="Provides a way to execute arbitrary (cleanup) code at the exit of the current block.">
<polygon fill="white" stroke="black" points="477,-0.5 477,-26.5 581,-26.5 581,-0.5 477,-0.5"/>
<text text-anchor="start" x="485" y="-16.1" font-family="Helvetica,sans-Serif" font-size="8.00">flow::util::setup_auto</text>
<text text-anchor="middle" x="529" y="-7.1" font-family="Helvetica,sans-Serif" font-size="8.00">_cleanup</text>
</a>
</g>
</g>
<!-- Node4&#45;&gt;Node5 -->
<g id="edge4" class="edge">
<title>Node4&#45;&gt;Node5</title>
<path fill="none" stroke="midnightblue" d="M429.36,-13.5C441.28,-13.5 454.13,-13.5 466.5,-13.5"/>
<polygon fill="midnightblue" stroke="midnightblue" points="466.75,-17 476.75,-13.5 466.75,-10 466.75,-17"/>
</g>
</g>
</svg>
