<?xml version="1.0" encoding="UTF-8" standalone="no"?>
<!DOCTYPE svg PUBLIC "-//W3C//DTD SVG 1.1//EN"
 "http://www.w3.org/Graphics/SVG/1.1/DTD/svg11.dtd">
<!-- Generated by graphviz version 2.43.0 (0)
 -->
<!-- Title: flow::util::Linked_hash_map&lt; Key, Mapped, Hash, Pred &gt; Pages: 1 -->
<svg width="233pt" height="179pt"
 viewBox="0.00 0.00 233.00 179.00" xmlns="http://www.w3.org/2000/svg" xmlns:xlink="http://www.w3.org/1999/xlink">
<g id="graph0" class="graph" transform="scale(1 1) rotate(0) translate(4 175)">
<title>flow::util::Linked_hash_map&lt; Key, Mapped, Hash, Pred &gt;</title>
<polygon fill="white" stroke="transparent" points="-4,4 -4,-175 229,-175 229,4 -4,4"/>
<!-- Node1 -->
<g id="node1" class="node">
<title>Node1</title>
<g id="a_node1"><a xlink:title="An object of this class is a map that combines the lookup speed of a boost::unordered_map&lt;&gt; and order...">
<polygon fill="#bfbfbf" stroke="black" points="36.5,-0.5 36.5,-35.5 161.5,-35.5 161.5,-0.5 36.5,-0.5"/>
<text text-anchor="start" x="44.5" y="-25.1" font-family="Helvetica,sans-Serif" font-size="8.00">flow::util::Linked</text>
<text text-anchor="start" x="44.5" y="-16.1" font-family="Helvetica,sans-Serif" font-size="8.00">_hash_map&lt; Key, Mapped,</text>
<text text-anchor="middle" x="99" y="-7.1" font-family="Helvetica,sans-Serif" font-size="8.00"> Hash, Pred &gt;</text>
</a>
</g>
</g>
<!-- Node2 -->
<g id="node2" class="node">
<title>Node2</title>
<g id="a_node2"><a xlink:title=" ">
<polygon fill="white" stroke="black" points="0,-86 0,-103 88,-103 88,-86 0,-86"/>
<text text-anchor="middle" x="44" y="-92.6" font-family="Helvetica,sans-Serif" font-size="8.00">std::list&lt; Value &gt;</text>
</a>
</g>
</g>
<!-- Node2&#45;&gt;Node1 -->
<g id="edge1" class="edge">
<title>Node2&#45;&gt;Node1</title>
<path fill="none" stroke="#9a32cd" stroke-dasharray="5,2" d="M55.85,-77.44C64.94,-65.13 77.45,-48.19 86.66,-35.71"/>
<polygon fill="#9a32cd" stroke="#9a32cd" points="52.8,-75.68 49.68,-85.81 58.43,-79.84 52.8,-75.68"/>
<text text-anchor="middle" x="100" y="-56.6" font-family="Helvetica,sans-Serif" font-size="8.00"> m_value_list</text>
</g>
<!-- Node3 -->
<g id="node3" class="node">
<title>Node3</title>
<g id="a_node3"><a xlink:title=" ">
<polygon fill="white" stroke="#bfbfbf" points="24.5,-153.5 24.5,-170.5 63.5,-170.5 63.5,-153.5 24.5,-153.5"/>
<text text-anchor="middle" x="44" y="-160.1" font-family="Helvetica,sans-Serif" font-size="8.00">Value</text>
</a>
</g>
</g>
<!-- Node3&#45;&gt;Node2 -->
<g id="edge2" class="edge">
<title>Node3&#45;&gt;Node2</title>
<path fill="none" stroke="#9a32cd" stroke-dasharray="5,2" d="M44,-143.36C44,-130.31 44,-113.16 44,-103.33"/>
<polygon fill="#9a32cd" stroke="#9a32cd" points="40.5,-143.49 44,-153.49 47.5,-143.49 40.5,-143.49"/>
<text text-anchor="middle" x="64.5" y="-128.6" font-family="Helvetica,sans-Serif" font-size="8.00"> elements</text>
</g>
<!-- Node4 -->
<g id="node4" class="node">
<title>Node4</title>
<g id="a_node4"><a xlink:title=" ">
<polygon fill="white" stroke="#bfbfbf" points="106.5,-81.5 106.5,-107.5 201.5,-107.5 201.5,-81.5 106.5,-81.5"/>
<text text-anchor="start" x="114.5" y="-97.1" font-family="Helvetica,sans-Serif" font-size="8.00">unique_ptr&lt; Key_to</text>
<text text-anchor="middle" x="154" y="-88.1" font-family="Helvetica,sans-Serif" font-size="8.00">_value_iter_map &gt;</text>
</a>
</g>
</g>
<!-- Node4&#45;&gt;Node1 -->
<g id="edge3" class="edge">
<title>Node4&#45;&gt;Node1</title>
<path fill="none" stroke="#9a32cd" stroke-dasharray="5,2" d="M142.13,-72.39C138.45,-66.31 134.25,-59.76 130,-54 125.38,-47.73 119.86,-41.24 114.77,-35.58"/>
<polygon fill="#9a32cd" stroke="#9a32cd" points="139.32,-74.53 147.39,-81.39 145.36,-70.99 139.32,-74.53"/>
<text text-anchor="middle" x="180" y="-56.6" font-family="Helvetica,sans-Serif" font-size="8.00"> m_keys_into_list_map</text>
</g>
</g>
</svg>
