<?xml version="1.0" encoding="UTF-8" standalone="no"?>
<!DOCTYPE svg PUBLIC "-//W3C//DTD SVG 1.1//EN"
 "http://www.w3.org/Graphics/SVG/1.1/DTD/svg11.dtd">
<!-- Generated by graphviz version 2.43.0 (0)
 -->
<!-- Title: flow::net_flow::Node::this_thread_init_logger_setup Pages: 1 -->
<svg width="742pt" height="254pt"
 viewBox="0.00 0.00 742.00 253.50" xmlns="http://www.w3.org/2000/svg" xmlns:xlink="http://www.w3.org/1999/xlink">
<g id="graph0" class="graph" transform="scale(1 1) rotate(0) translate(4 249.5)">
<title>flow::net_flow::Node::this_thread_init_logger_setup</title>
<polygon fill="white" stroke="transparent" points="-4,4 -4,-249.5 738,-249.5 738,4 -4,4"/>
<!-- Node1 -->
<g id="node1" class="node">
<title>Node1</title>
<g id="a_node1"><a xlink:title="Helper to invoke for each thread in which this Node executes, whether or not it starts that thread,...">
<polygon fill="#bfbfbf" stroke="black" points="0,-60.5 0,-86.5 142,-86.5 142,-60.5 0,-60.5"/>
<text text-anchor="start" x="8" y="-76.1" font-family="Helvetica,sans-Serif" font-size="8.00">flow::net_flow::Node</text>
<text text-anchor="middle" x="71" y="-67.1" font-family="Helvetica,sans-Serif" font-size="8.00">::this_thread_init_logger_setup</text>
</a>
</g>
</g>
<!-- Node2 -->
<g id="node2" class="node">
<title>Node2</title>
<g id="a_node2"><a xlink:href="namespaceflow_1_1log.html#aaaaa1dcbf7c8dc99aceb2b6c217187fc" target="_top" xlink:title="Sets certain chrono&#45;related formatting on the given Logger in the current thread that results in a co...">
<polygon fill="white" stroke="black" points="182.5,-131 182.5,-166 280.5,-166 280.5,-131 182.5,-131"/>
<text text-anchor="start" x="190.5" y="-155.6" font-family="Helvetica,sans-Serif" font-size="8.00">flow::log::beautify</text>
<text text-anchor="start" x="190.5" y="-146.6" font-family="Helvetica,sans-Serif" font-size="8.00">_chrono_logger_this</text>
<text text-anchor="middle" x="231.5" y="-137.6" font-family="Helvetica,sans-Serif" font-size="8.00">_thread</text>
</a>
</g>
</g>
<!-- Node1&#45;&gt;Node2 -->
<g id="edge1" class="edge">
<title>Node1&#45;&gt;Node2</title>
<path fill="none" stroke="midnightblue" d="M99.61,-86.56C122.96,-97.61 156.9,-113.67 184.36,-126.67"/>
<polygon fill="midnightblue" stroke="midnightblue" points="182.87,-129.83 193.41,-130.95 185.87,-123.51 182.87,-129.83"/>
</g>
<!-- Node10 -->
<g id="node10" class="node">
<title>Node10</title>
<g id="a_node10"><a xlink:href="classflow_1_1log_1_1Log__context.html#af4db395042b065b00398cd59845dcb4d" target="_top" xlink:title="Returns the stored Logger pointer, particularly as many FLOW_LOG_*() macros expect.">
<polygon fill="white" stroke="black" points="178,-15.5 178,-41.5 285,-41.5 285,-15.5 178,-15.5"/>
<text text-anchor="start" x="186" y="-31.1" font-family="Helvetica,sans-Serif" font-size="8.00">flow::log::Log_context</text>
<text text-anchor="middle" x="231.5" y="-22.1" font-family="Helvetica,sans-Serif" font-size="8.00">::get_logger</text>
</a>
</g>
</g>
<!-- Node1&#45;&gt;Node10 -->
<g id="edge9" class="edge">
<title>Node1&#45;&gt;Node10</title>
<path fill="none" stroke="midnightblue" d="M117.84,-60.48C135.59,-55.45 156.08,-49.63 174.67,-44.35"/>
<polygon fill="midnightblue" stroke="midnightblue" points="175.82,-47.66 184.48,-41.56 173.91,-40.93 175.82,-47.66"/>
</g>
<!-- Node11 -->
<g id="node11" class="node">
<title>Node11</title>
<g id="a_node11"><a xlink:href="namespaceflow_1_1util.html#a8afd30c50bcd670d45442df49d1da484" target="_top" xlink:title="Writes to the specified string, as if the given arguments were each passed, via &lt;&lt; in sequence,...">
<polygon fill="white" stroke="black" points="185.5,-60.5 185.5,-86.5 277.5,-86.5 277.5,-60.5 185.5,-60.5"/>
<text text-anchor="start" x="193.5" y="-76.1" font-family="Helvetica,sans-Serif" font-size="8.00">flow::util::ostream</text>
<text text-anchor="middle" x="231.5" y="-67.1" font-family="Helvetica,sans-Serif" font-size="8.00">_op_to_string</text>
</a>
</g>
</g>
<!-- Node1&#45;&gt;Node11 -->
<g id="edge10" class="edge">
<title>Node1&#45;&gt;Node11</title>
<path fill="none" stroke="midnightblue" d="M142.44,-73.5C153.36,-73.5 164.5,-73.5 175.02,-73.5"/>
<polygon fill="midnightblue" stroke="midnightblue" points="175.31,-77 185.31,-73.5 175.31,-70 175.31,-77"/>
</g>
<!-- Node3 -->
<g id="node3" class="node">
<title>Node3</title>
<g id="a_node3"><a xlink:href="namespaceflow_1_1util.html#a0955a29930075ac1fe393896c089b911" target="_top" xlink:title="Sets certain chrono&#45;related formatting on the given ostream that results in a consistent,...">
<polygon fill="white" stroke="black" points="325,-197.5 325,-223.5 417,-223.5 417,-197.5 325,-197.5"/>
<text text-anchor="start" x="333" y="-213.1" font-family="Helvetica,sans-Serif" font-size="8.00">flow::util::beautify</text>
<text text-anchor="middle" x="371" y="-204.1" font-family="Helvetica,sans-Serif" font-size="8.00">_chrono_ostream</text>
</a>
</g>
</g>
<!-- Node2&#45;&gt;Node3 -->
<g id="edge2" class="edge">
<title>Node2&#45;&gt;Node3</title>
<path fill="none" stroke="midnightblue" d="M271.53,-166.1C290.42,-174.61 313,-184.8 331.78,-193.26"/>
<polygon fill="midnightblue" stroke="midnightblue" points="330.37,-196.47 340.93,-197.39 333.25,-190.09 330.37,-196.47"/>
</g>
<!-- Node5 -->
<g id="node5" class="node">
<title>Node5</title>
<g id="a_node5"><a xlink:href="classflow_1_1log_1_1Logger.html#ad6ead44c19a7b15111b2f77656a2ea31" target="_top" xlink:title="Returns the stream dedicated to the executing thread and this Logger, so that the caller can apply st...">
<polygon fill="white" stroke="black" points="321,-135.5 321,-161.5 421,-161.5 421,-135.5 321,-135.5"/>
<text text-anchor="start" x="329" y="-151.1" font-family="Helvetica,sans-Serif" font-size="8.00">flow::log::Logger::</text>
<text text-anchor="middle" x="371" y="-142.1" font-family="Helvetica,sans-Serif" font-size="8.00">this_thread_ostream</text>
</a>
</g>
</g>
<!-- Node2&#45;&gt;Node5 -->
<g id="edge4" class="edge">
<title>Node2&#45;&gt;Node5</title>
<path fill="none" stroke="midnightblue" d="M280.59,-148.5C290.25,-148.5 300.5,-148.5 310.49,-148.5"/>
<polygon fill="midnightblue" stroke="midnightblue" points="310.77,-152 320.77,-148.5 310.77,-145 310.77,-152"/>
</g>
<!-- Node4 -->
<g id="node4" class="node">
<title>Node4</title>
<g id="a_node4"><a xlink:href="classflow_1_1util_1_1Duration__units__beautified.html#aa689f853f75e06263d6875ae5824a4c6" target="_top" xlink:title="Returns a reference to a locale that – if imbued onto an ostream – equals std::locale::classic except...">
<polygon fill="white" stroke="black" points="458.5,-210 458.5,-245 592.5,-245 592.5,-210 458.5,-210"/>
<text text-anchor="start" x="466.5" y="-234.6" font-family="Helvetica,sans-Serif" font-size="8.00">flow::util::Duration</text>
<text text-anchor="start" x="466.5" y="-225.6" font-family="Helvetica,sans-Serif" font-size="8.00">_units_beautified::beautified</text>
<text text-anchor="middle" x="525.5" y="-216.6" font-family="Helvetica,sans-Serif" font-size="8.00">_locale</text>
</a>
</g>
</g>
<!-- Node3&#45;&gt;Node4 -->
<g id="edge3" class="edge">
<title>Node3&#45;&gt;Node4</title>
<path fill="none" stroke="midnightblue" d="M417.34,-215.55C427.12,-216.64 437.72,-217.83 448.32,-219.01"/>
<polygon fill="midnightblue" stroke="midnightblue" points="448.12,-222.51 458.45,-220.14 448.9,-215.55 448.12,-222.51"/>
</g>
<!-- Node6 -->
<g id="node6" class="node">
<title>Node6</title>
<g id="a_node6"><a xlink:href="classflow_1_1log_1_1Thread__local__string__appender.html#a64383811f529af676dde0028f61831f7" target="_top" xlink:title="Same as fresh_appender_ostream() but does not clear the result string, enabling piecemeal writing to ...">
<polygon fill="white" stroke="black" points="459,-102 459,-137 592,-137 592,-102 459,-102"/>
<text text-anchor="start" x="467" y="-126.6" font-family="Helvetica,sans-Serif" font-size="8.00">flow::log::Thread_local</text>
<text text-anchor="start" x="467" y="-117.6" font-family="Helvetica,sans-Serif" font-size="8.00">_string_appender::appender</text>
<text text-anchor="middle" x="525.5" y="-108.6" font-family="Helvetica,sans-Serif" font-size="8.00">_ostream</text>
</a>
</g>
</g>
<!-- Node5&#45;&gt;Node6 -->
<g id="edge5" class="edge">
<title>Node5&#45;&gt;Node6</title>
<path fill="none" stroke="midnightblue" d="M421.09,-139.16C430.01,-137.47 439.5,-135.66 448.97,-133.86"/>
<polygon fill="midnightblue" stroke="midnightblue" points="449.64,-137.3 458.81,-131.99 448.34,-130.42 449.64,-137.3"/>
</g>
<!-- Node8 -->
<g id="node8" class="node">
<title>Node8</title>
<g id="a_node8"><a xlink:href="classflow_1_1log_1_1Thread__local__string__appender.html#a4c67bd1c2f1ccc58288df86abda02d88" target="_top" xlink:title="Returns a pointer to the exactly one Thread_local_string_appender object that is accessible from the ...">
<polygon fill="white" stroke="black" points="457,-156 457,-191 594,-191 594,-156 457,-156"/>
<text text-anchor="start" x="465" y="-180.6" font-family="Helvetica,sans-Serif" font-size="8.00">flow::log::Thread_local</text>
<text text-anchor="start" x="465" y="-171.6" font-family="Helvetica,sans-Serif" font-size="8.00">_string_appender::get</text>
<text text-anchor="middle" x="525.5" y="-162.6" font-family="Helvetica,sans-Serif" font-size="8.00">_this_thread_string_appender</text>
</a>
</g>
</g>
<!-- Node5&#45;&gt;Node8 -->
<g id="edge7" class="edge">
<title>Node5&#45;&gt;Node8</title>
<path fill="none" stroke="midnightblue" d="M421.09,-156.55C429.38,-157.91 438.16,-159.35 446.96,-160.79"/>
<polygon fill="midnightblue" stroke="midnightblue" points="446.45,-164.25 456.88,-162.42 447.58,-157.34 446.45,-164.25"/>
</g>
<!-- Node7 -->
<g id="node7" class="node">
<title>Node7</title>
<g id="a_node7"><a xlink:href="classflow_1_1util_1_1String__ostream.html#a7e64b069ae0e221952068c13fdc0f080" target="_top" xlink:title="Access to stream that will write to owned string.">
<polygon fill="white" stroke="black" points="641,-83.5 641,-109.5 723,-109.5 723,-83.5 641,-83.5"/>
<text text-anchor="start" x="649" y="-99.1" font-family="Helvetica,sans-Serif" font-size="8.00">flow::util::String</text>
<text text-anchor="middle" x="682" y="-90.1" font-family="Helvetica,sans-Serif" font-size="8.00">_ostream::os</text>
</a>
</g>
</g>
<!-- Node6&#45;&gt;Node7 -->
<g id="edge6" class="edge">
<title>Node6&#45;&gt;Node7</title>
<path fill="none" stroke="midnightblue" d="M592.02,-109.75C605,-107.81 618.43,-105.81 630.8,-103.97"/>
<polygon fill="midnightblue" stroke="midnightblue" points="631.54,-107.4 640.91,-102.47 630.51,-100.48 631.54,-107.4"/>
</g>
<!-- Node9 -->
<g id="node9" class="node">
<title>Node9</title>
<g id="a_node9"><a xlink:href="classflow_1_1util_1_1Unique__id__holder.html#a24742b697933e623df30056aebbebfae" target="_top" xlink:title="Raw unique ID identifying this object as well as any object of a derived type.">
<polygon fill="white" stroke="black" points="630,-160.5 630,-186.5 734,-186.5 734,-160.5 630,-160.5"/>
<text text-anchor="start" x="638" y="-176.1" font-family="Helvetica,sans-Serif" font-size="8.00">flow::util::Unique</text>
<text text-anchor="middle" x="682" y="-167.1" font-family="Helvetica,sans-Serif" font-size="8.00">_id_holder::unique_id</text>
</a>
</g>
</g>
<!-- Node8&#45;&gt;Node9 -->
<g id="edge8" class="edge">
<title>Node8&#45;&gt;Node9</title>
<path fill="none" stroke="midnightblue" d="M594.27,-173.5C602.59,-173.5 611.06,-173.5 619.29,-173.5"/>
<polygon fill="midnightblue" stroke="midnightblue" points="619.55,-177 629.55,-173.5 619.55,-170 619.55,-177"/>
</g>
<!-- Node11&#45;&gt;Node7 -->
<g id="edge13" class="edge">
<title>Node11&#45;&gt;Node7</title>
<path fill="none" stroke="midnightblue" d="M277.56,-75.81C361.85,-80.13 542.81,-89.41 630.85,-93.93"/>
<polygon fill="midnightblue" stroke="midnightblue" points="630.69,-97.42 640.85,-94.44 631.05,-90.43 630.69,-97.42"/>
</g>
<!-- Node12 -->
<g id="node12" class="node">
<title>Node12</title>
<g id="a_node12"><a xlink:href="namespaceflow_1_1util.html#af92e6183c2071f4166d4b5a91f50d70c" target="_top" xlink:title="&quot;Induction step&quot; version of variadic function template that simply outputs arguments 2+ via &lt;&lt; to the...">
<polygon fill="white" stroke="black" points="322,-0.5 322,-26.5 420,-26.5 420,-0.5 322,-0.5"/>
<text text-anchor="start" x="330" y="-16.1" font-family="Helvetica,sans-Serif" font-size="8.00">flow::util::feed_args</text>
<text text-anchor="middle" x="371" y="-7.1" font-family="Helvetica,sans-Serif" font-size="8.00">_to_ostream</text>
</a>
</g>
</g>
<!-- Node11&#45;&gt;Node12 -->
<g id="edge11" class="edge">
<title>Node11&#45;&gt;Node12</title>
<path fill="none" stroke="midnightblue" d="M262.34,-60.48C282.29,-51.77 308.76,-40.22 330.46,-30.75"/>
<polygon fill="midnightblue" stroke="midnightblue" points="331.98,-33.91 339.75,-26.7 329.18,-27.49 331.98,-33.91"/>
</g>
<!-- Node12&#45;&gt;Node12 -->
<g id="edge12" class="edge">
<title>Node12&#45;&gt;Node12</title>
<path fill="none" stroke="midnightblue" d="M347.65,-26.77C340.58,-35.96 348.36,-45 371,-45 384.8,-45 393.08,-41.64 395.84,-36.94"/>
<polygon fill="midnightblue" stroke="midnightblue" points="399.26,-36.16 394.35,-26.77 392.33,-37.17 399.26,-36.16"/>
</g>
</g>
</svg>
