<?xml version="1.0" encoding="UTF-8" standalone="no"?>
<!DOCTYPE svg PUBLIC "-//W3C//DTD SVG 1.1//EN"
 "http://www.w3.org/Graphics/SVG/1.1/DTD/svg11.dtd">
<!-- Generated by graphviz version 2.43.0 (0)
 -->
<!-- Title: flow::net_flow::asio::Server_socket::async_accept Pages: 1 -->
<svg width="427pt" height="225pt"
 viewBox="0.00 0.00 427.00 224.50" xmlns="http://www.w3.org/2000/svg" xmlns:xlink="http://www.w3.org/1999/xlink">
<g id="graph0" class="graph" transform="scale(1 1) rotate(0) translate(4 220.5)">
<title>flow::net_flow::asio::Server_socket::async_accept</title>
<polygon fill="white" stroke="transparent" points="-4,4 -4,-220.5 423,-220.5 423,4 -4,4"/>
<!-- Node1 -->
<g id="node1" class="node">
<title>Node1</title>
<g id="a_node1"><a xlink:title="boost.asio&#45;style asynchronous version that essentially performs net_flow::Server_socket::sync_accept(...">
<polygon fill="#bfbfbf" stroke="black" points="0,-68.5 0,-103.5 110,-103.5 110,-68.5 0,-68.5"/>
<text text-anchor="start" x="8" y="-93.1" font-family="Helvetica,sans-Serif" font-size="8.00">flow::net_flow::asio</text>
<text text-anchor="start" x="8" y="-84.1" font-family="Helvetica,sans-Serif" font-size="8.00">::Server_socket::async</text>
<text text-anchor="middle" x="55" y="-75.1" font-family="Helvetica,sans-Serif" font-size="8.00">_accept</text>
</a>
</g>
</g>
<!-- Node2 -->
<g id="node2" class="node">
<title>Node2</title>
<g id="a_node2"><a xlink:href="classflow_1_1net__flow_1_1asio_1_1Server__socket.html#a01233841b5cde6b22a2ae2481c14c51b" target="_top" xlink:title="De&#45;templated implementation of all async_accept() methods.">
<polygon fill="white" stroke="black" points="146,-95.5 146,-130.5 256,-130.5 256,-95.5 146,-95.5"/>
<text text-anchor="start" x="154" y="-120.1" font-family="Helvetica,sans-Serif" font-size="8.00">flow::net_flow::asio</text>
<text text-anchor="start" x="154" y="-111.1" font-family="Helvetica,sans-Serif" font-size="8.00">::Server_socket::async</text>
<text text-anchor="middle" x="201" y="-102.1" font-family="Helvetica,sans-Serif" font-size="8.00">_accept_impl</text>
</a>
</g>
</g>
<!-- Node1&#45;&gt;Node2 -->
<g id="edge1" class="edge">
<title>Node1&#45;&gt;Node2</title>
<path fill="none" stroke="midnightblue" d="M110.03,-96.13C118.4,-97.7 127.13,-99.34 135.7,-100.94"/>
<polygon fill="midnightblue" stroke="midnightblue" points="135.19,-104.41 145.67,-102.81 136.48,-97.53 135.19,-104.41"/>
</g>
<!-- Node8 -->
<g id="node8" class="node">
<title>Node8</title>
<g id="a_node8"><a xlink:href="namespaceflow_1_1util.html#a5488415feb5570a6551892a7bdfeeec4" target="_top" xlink:title="Helper that takes a non&#45;negative duration of arbitrary precision/period and converts it to Fine_durat...">
<polygon fill="white" stroke="black" points="146,-41.5 146,-76.5 256,-76.5 256,-41.5 146,-41.5"/>
<text text-anchor="start" x="154" y="-66.1" font-family="Helvetica,sans-Serif" font-size="8.00">flow::util::chrono</text>
<text text-anchor="start" x="154" y="-57.1" font-family="Helvetica,sans-Serif" font-size="8.00">_duration_from_now_to</text>
<text text-anchor="middle" x="201" y="-48.1" font-family="Helvetica,sans-Serif" font-size="8.00">_fine_time_pt</text>
</a>
</g>
</g>
<!-- Node1&#45;&gt;Node8 -->
<g id="edge7" class="edge">
<title>Node1&#45;&gt;Node8</title>
<path fill="none" stroke="midnightblue" d="M110.03,-75.87C118.4,-74.3 127.13,-72.66 135.7,-71.06"/>
<polygon fill="midnightblue" stroke="midnightblue" points="136.48,-74.47 145.67,-69.19 135.19,-67.59 136.48,-74.47"/>
</g>
<!-- Node3 -->
<g id="node3" class="node">
<title>Node3</title>
<g id="a_node3"><a xlink:href="classflow_1_1net__flow_1_1asio_1_1Peer__socket.html#a0744682e2dc9118b4da3f00bc5267bec" target="_top" xlink:title="Convenience method that polymorphically casts from net_flow::Peer_socket::Ptr to subclass pointer net...">
<polygon fill="white" stroke="black" points="307.5,-190 307.5,-216 403.5,-216 403.5,-190 307.5,-190"/>
<text text-anchor="start" x="315.5" y="-205.6" font-family="Helvetica,sans-Serif" font-size="8.00">flow::net_flow::asio</text>
<text text-anchor="middle" x="355.5" y="-196.6" font-family="Helvetica,sans-Serif" font-size="8.00">::Peer_socket::cast</text>
</a>
</g>
</g>
<!-- Node2&#45;&gt;Node3 -->
<g id="edge2" class="edge">
<title>Node2&#45;&gt;Node3</title>
<path fill="none" stroke="midnightblue" d="M221.51,-130.58C238.96,-145.59 265.77,-166.92 292,-181 295.28,-182.76 298.74,-184.43 302.27,-186"/>
<polygon fill="midnightblue" stroke="midnightblue" points="301.14,-189.32 311.72,-189.93 303.82,-182.86 301.14,-189.32"/>
</g>
<!-- Node4 -->
<g id="node4" class="node">
<title>Node4</title>
<g id="a_node4"><a xlink:href="classflow_1_1net__flow_1_1asio_1_1Server__socket.html#a5f28c0b6770b68994aa95ae5df50afc2" target="_top" xlink:title="Convenience method that polymorphically casts from net_flow::Server_socket::Ptr to subclass pointer n...">
<polygon fill="white" stroke="black" points="304,-145 304,-171 407,-171 407,-145 304,-145"/>
<text text-anchor="start" x="312" y="-160.6" font-family="Helvetica,sans-Serif" font-size="8.00">flow::net_flow::asio</text>
<text text-anchor="middle" x="355.5" y="-151.6" font-family="Helvetica,sans-Serif" font-size="8.00">::Server_socket::cast</text>
</a>
</g>
</g>
<!-- Node2&#45;&gt;Node4 -->
<g id="edge3" class="edge">
<title>Node2&#45;&gt;Node4</title>
<path fill="none" stroke="midnightblue" d="M256.2,-128.99C270.52,-133.22 285.99,-137.78 300.32,-142.01"/>
<polygon fill="midnightblue" stroke="midnightblue" points="299.45,-145.4 310.03,-144.88 301.43,-138.69 299.45,-145.4"/>
</g>
<!-- Node5 -->
<g id="node5" class="node">
<title>Node5</title>
<g id="a_node5"><a xlink:href="classflow_1_1net__flow_1_1Server__socket.html#a6ba400221e347613c0d101b19602a3a2" target="_top" xlink:title="The error code that perviously caused state() to become State::S_CLOSED, or success code if state is ...">
<polygon fill="white" stroke="black" points="292,-100 292,-126 419,-126 419,-100 292,-100"/>
<text text-anchor="start" x="300" y="-115.6" font-family="Helvetica,sans-Serif" font-size="8.00">flow::net_flow::Server</text>
<text text-anchor="middle" x="355.5" y="-106.6" font-family="Helvetica,sans-Serif" font-size="8.00">_socket::disconnect_cause</text>
</a>
</g>
</g>
<!-- Node2&#45;&gt;Node5 -->
<g id="edge4" class="edge">
<title>Node2&#45;&gt;Node5</title>
<path fill="none" stroke="midnightblue" d="M256.2,-113C264.5,-113 273.19,-113 281.82,-113"/>
<polygon fill="midnightblue" stroke="midnightblue" points="281.89,-116.5 291.89,-113 281.89,-109.5 281.89,-116.5"/>
</g>
<!-- Node6 -->
<g id="node6" class="node">
<title>Node6</title>
<g id="a_node6"><a xlink:href="classflow_1_1net__flow_1_1Server__socket.html#ae22e94978d59dfe23559a254349670bd" target="_top" xlink:title="Node that produced this Server_socket.">
<polygon fill="white" stroke="black" points="303,-55 303,-81 408,-81 408,-55 303,-55"/>
<text text-anchor="start" x="311" y="-70.6" font-family="Helvetica,sans-Serif" font-size="8.00">flow::net_flow::Server</text>
<text text-anchor="middle" x="355.5" y="-61.6" font-family="Helvetica,sans-Serif" font-size="8.00">_socket::node</text>
</a>
</g>
</g>
<!-- Node2&#45;&gt;Node6 -->
<g id="edge5" class="edge">
<title>Node2&#45;&gt;Node6</title>
<path fill="none" stroke="midnightblue" d="M256.2,-97.01C270.52,-92.78 285.99,-88.22 300.32,-83.99"/>
<polygon fill="midnightblue" stroke="midnightblue" points="301.43,-87.31 310.03,-81.12 299.45,-80.6 301.43,-87.31"/>
</g>
<!-- Node7 -->
<g id="node7" class="node">
<title>Node7</title>
<g id="a_node7"><a xlink:href="classflow_1_1net__flow_1_1asio_1_1Server__socket.html#a201bb6012ddffe83f9a1a3daf5e78645" target="_top" xlink:title="Constructs object.">
<polygon fill="white" stroke="black" points="299.5,-0.5 299.5,-35.5 411.5,-35.5 411.5,-0.5 299.5,-0.5"/>
<text text-anchor="start" x="307.5" y="-25.1" font-family="Helvetica,sans-Serif" font-size="8.00">flow::net_flow::asio</text>
<text text-anchor="start" x="307.5" y="-16.1" font-family="Helvetica,sans-Serif" font-size="8.00">::Server_socket::Server</text>
<text text-anchor="middle" x="355.5" y="-7.1" font-family="Helvetica,sans-Serif" font-size="8.00">_socket</text>
</a>
</g>
</g>
<!-- Node2&#45;&gt;Node7 -->
<g id="edge6" class="edge">
<title>Node2&#45;&gt;Node7</title>
<path fill="none" stroke="midnightblue" d="M241.72,-95.39C246.71,-92.54 251.6,-89.39 256,-86 275.2,-71.19 272.39,-59.27 292,-45 294.09,-43.48 296.28,-42.02 298.54,-40.63"/>
<polygon fill="midnightblue" stroke="midnightblue" points="300.52,-43.52 307.5,-35.56 297.08,-37.43 300.52,-43.52"/>
</g>
</g>
</svg>
