<?xml version="1.0" encoding="UTF-8" standalone="no"?>
<!DOCTYPE svg PUBLIC "-//W3C//DTD SVG 1.1//EN"
 "http://www.w3.org/Graphics/SVG/1.1/DTD/svg11.dtd">
<!-- Generated by graphviz version 2.43.0 (0)
 -->
<!-- Title: flow::util::Container_traits&lt; boost::unordered_set&lt; T &gt; &gt; Pages: 1 -->
<svg width="181pt" height="143pt"
 viewBox="0.00 0.00 181.00 143.00" xmlns="http://www.w3.org/2000/svg" xmlns:xlink="http://www.w3.org/1999/xlink">
<g id="graph0" class="graph" transform="scale(1 1) rotate(0) translate(4 139)">
<title>flow::util::Container_traits&lt; boost::unordered_set&lt; T &gt; &gt;</title>
<polygon fill="white" stroke="transparent" points="-4,4 -4,-139 177,-139 177,4 -4,4"/>
<!-- Node1 -->
<g id="node1" class="node">
<title>Node1</title>
<g id="a_node1"><a xlink:title="Traits of boost::unordered_set.">
<polygon fill="#bfbfbf" stroke="black" points="0,-0.5 0,-35.5 122,-35.5 122,-0.5 0,-0.5"/>
<text text-anchor="start" x="8" y="-25.1" font-family="Helvetica,sans-Serif" font-size="8.00">flow::util::Container</text>
<text text-anchor="start" x="8" y="-16.1" font-family="Helvetica,sans-Serif" font-size="8.00">_traits&lt; boost::unordered</text>
<text text-anchor="middle" x="61" y="-7.1" font-family="Helvetica,sans-Serif" font-size="8.00">_set&lt; T &gt; &gt;</text>
</a>
</g>
</g>
<!-- Node2 -->
<g id="node2" class="node">
<title>Node2</title>
<g id="a_node2"><a xlink:href="classbool.html" target="_top" xlink:title=" ">
<polygon fill="white" stroke="#bfbfbf" points="43.5,-117.5 43.5,-134.5 78.5,-134.5 78.5,-117.5 43.5,-117.5"/>
<text text-anchor="middle" x="61" y="-124.1" font-family="Helvetica,sans-Serif" font-size="8.00">bool</text>
</a>
</g>
</g>
<!-- Node2&#45;&gt;Node1 -->
<g id="edge1" class="edge">
<title>Node2&#45;&gt;Node1</title>
<path fill="none" stroke="#9a32cd" stroke-dasharray="5,2" d="M61,-107.23C61,-87.31 61,-55.23 61,-35.73"/>
<polygon fill="#9a32cd" stroke="#9a32cd" points="57.5,-107.38 61,-117.38 64.5,-107.38 57.5,-107.38"/>
<text text-anchor="start" x="61" y="-92.6" font-family="Helvetica,sans-Serif" font-size="8.00"> S_CHANGE_INVALIDATES</text>
<text text-anchor="middle" x="117" y="-83.6" font-family="Helvetica,sans-Serif" font-size="8.00">_ITERATORS</text>
<text text-anchor="middle" x="117" y="-74.6" font-family="Helvetica,sans-Serif" font-size="8.00">S_CONSTANT_TIME_INSERT</text>
<text text-anchor="middle" x="117" y="-65.6" font-family="Helvetica,sans-Serif" font-size="8.00">S_CONSTANT_TIME_SEARCH</text>
<text text-anchor="middle" x="117" y="-56.6" font-family="Helvetica,sans-Serif" font-size="8.00">S_SORTED</text>
</g>
</g>
</svg>
