<?xml version="1.0" encoding="UTF-8" standalone="no"?>
<!DOCTYPE svg PUBLIC "-//W3C//DTD SVG 1.1//EN"
 "http://www.w3.org/Graphics/SVG/1.1/DTD/svg11.dtd">
<!-- Generated by graphviz version 2.43.0 (0)
 -->
<!-- Title: flow::net_flow::Send_bandwidth_estimator::socket Pages: 1 -->
<svg width="258pt" height="44pt"
 viewBox="0.00 0.00 258.00 44.00" xmlns="http://www.w3.org/2000/svg" xmlns:xlink="http://www.w3.org/1999/xlink">
<g id="graph0" class="graph" transform="scale(1 1) rotate(0) translate(4 40)">
<title>flow::net_flow::Send_bandwidth_estimator::socket</title>
<polygon fill="white" stroke="transparent" points="-4,4 -4,-40 254,-40 254,4 -4,4"/>
<!-- Node1 -->
<g id="node1" class="node">
<title>Node1</title>
<g id="a_node1"><a xlink:title="Utility that returns a handle to the containing Peer_socket.">
<polygon fill="#bfbfbf" stroke="black" points="143,-0.5 143,-35.5 250,-35.5 250,-0.5 143,-0.5"/>
<text text-anchor="start" x="151" y="-25.1" font-family="Helvetica,sans-Serif" font-size="8.00">flow::net_flow::Send</text>
<text text-anchor="start" x="151" y="-16.1" font-family="Helvetica,sans-Serif" font-size="8.00">_bandwidth_estimator</text>
<text text-anchor="middle" x="196.5" y="-7.1" font-family="Helvetica,sans-Serif" font-size="8.00">::socket</text>
</a>
</g>
</g>
<!-- Node2 -->
<g id="node2" class="node">
<title>Node2</title>
<g id="a_node2"><a xlink:href="classflow_1_1net__flow_1_1Send__bandwidth__estimator.html#afe271b3d4c8cb73d06048a41871c795e" target="_top" xlink:title="Informs the bandwidth estimator strategy that 1 or more previously sent packets whose status was In&#45;f...">
<polygon fill="white" stroke="black" points="0,-0.5 0,-35.5 107,-35.5 107,-0.5 0,-0.5"/>
<text text-anchor="start" x="8" y="-25.1" font-family="Helvetica,sans-Serif" font-size="8.00">flow::net_flow::Send</text>
<text text-anchor="start" x="8" y="-16.1" font-family="Helvetica,sans-Serif" font-size="8.00">_bandwidth_estimator</text>
<text text-anchor="middle" x="53.5" y="-7.1" font-family="Helvetica,sans-Serif" font-size="8.00">::on_acks</text>
</a>
</g>
</g>
<!-- Node1&#45;&gt;Node2 -->
<g id="edge1" class="edge">
<title>Node1&#45;&gt;Node2</title>
<path fill="none" stroke="midnightblue" d="M132.95,-18C124.3,-18 115.49,-18 107.05,-18"/>
<polygon fill="midnightblue" stroke="midnightblue" points="133,-21.5 143,-18 133,-14.5 133,-21.5"/>
</g>
</g>
</svg>
