<?xml version="1.0" encoding="UTF-8" standalone="no"?>
<!DOCTYPE svg PUBLIC "-//W3C//DTD SVG 1.1//EN"
 "http://www.w3.org/Graphics/SVG/1.1/DTD/svg11.dtd">
<!-- Generated by graphviz version 2.43.0 (0)
 -->
<!-- Title: flow::net_flow::Congestion_control_classic_data::congestion_window_at_limit Pages: 1 -->
<svg width="526pt" height="90pt"
 viewBox="0.00 0.00 526.00 89.50" xmlns="http://www.w3.org/2000/svg" xmlns:xlink="http://www.w3.org/1999/xlink">
<g id="graph0" class="graph" transform="scale(1 1) rotate(0) translate(4 85.5)">
<title>flow::net_flow::Congestion_control_classic_data::congestion_window_at_limit</title>
<polygon fill="white" stroke="transparent" points="-4,4 -4,-85.5 522,-85.5 522,4 -4,4"/>
<!-- Node1 -->
<g id="node1" class="node">
<title>Node1</title>
<g id="a_node1"><a xlink:title="Returns true if and only if the stored CWND is &gt;= a certain constant maximum value.">
<polygon fill="#bfbfbf" stroke="black" points="363,-25.5 363,-60.5 518,-60.5 518,-25.5 363,-25.5"/>
<text text-anchor="start" x="371" y="-50.1" font-family="Helvetica,sans-Serif" font-size="8.00">flow::net_flow::Congestion</text>
<text text-anchor="start" x="371" y="-41.1" font-family="Helvetica,sans-Serif" font-size="8.00">_control_classic_data::congestion</text>
<text text-anchor="middle" x="440.5" y="-32.1" font-family="Helvetica,sans-Serif" font-size="8.00">_window_at_limit</text>
</a>
</g>
</g>
<!-- Node2 -->
<g id="node2" class="node">
<title>Node2</title>
<g id="a_node2"><a xlink:href="classflow_1_1net__flow_1_1Congestion__control__classic__data.html#ab3e34468efdf4d9e5b29eceb1fe84665" target="_top" xlink:title="Adjusts state, including potentially CWND, based on either &quot;congestion avoidance&quot; or &quot;slow start&quot; alg...">
<polygon fill="white" stroke="black" points="185,-30 185,-56 327,-56 327,-30 185,-30"/>
<text text-anchor="start" x="193" y="-45.6" font-family="Helvetica,sans-Serif" font-size="8.00">flow::net_flow::Congestion</text>
<text text-anchor="middle" x="256" y="-36.6" font-family="Helvetica,sans-Serif" font-size="8.00">_control_classic_data::on_acks</text>
</a>
</g>
</g>
<!-- Node1&#45;&gt;Node2 -->
<g id="edge1" class="edge">
<title>Node1&#45;&gt;Node2</title>
<path fill="none" stroke="midnightblue" d="M352.79,-43C344.15,-43 335.45,-43 327.01,-43"/>
<polygon fill="midnightblue" stroke="midnightblue" points="352.9,-46.5 362.9,-43 352.9,-39.5 352.9,-46.5"/>
</g>
<!-- Node3 -->
<g id="node3" class="node">
<title>Node3</title>
<g id="a_node3"><a xlink:href="classflow_1_1net__flow_1_1Congestion__control__classic.html#a34b8ef88093f082df7a935bbebfae2f3" target="_top" xlink:title="Implements Congestion_control_strategy::on_acks() API.">
<polygon fill="white" stroke="black" points="12,-55 12,-81 137,-81 137,-55 12,-55"/>
<text text-anchor="start" x="20" y="-70.6" font-family="Helvetica,sans-Serif" font-size="8.00">flow::net_flow::Congestion</text>
<text text-anchor="middle" x="74.5" y="-61.6" font-family="Helvetica,sans-Serif" font-size="8.00">_control_classic::on_acks</text>
</a>
</g>
</g>
<!-- Node2&#45;&gt;Node3 -->
<g id="edge2" class="edge">
<title>Node2&#45;&gt;Node3</title>
<path fill="none" stroke="midnightblue" d="M174.78,-54.17C162.16,-55.93 149.28,-57.72 137.16,-59.41"/>
<polygon fill="midnightblue" stroke="midnightblue" points="175.41,-57.62 184.83,-52.77 174.44,-50.69 175.41,-57.62"/>
</g>
<!-- Node4 -->
<g id="node4" class="node">
<title>Node4</title>
<g id="a_node4"><a xlink:href="classflow_1_1net__flow_1_1Congestion__control__classic__with__bandwidth__est.html#a83ee8438d6033c26a6af03b9dd173dc3" target="_top" xlink:title="Implements Congestion_control_strategy::on_acks() API.">
<polygon fill="white" stroke="black" points="0,-0.5 0,-35.5 149,-35.5 149,-0.5 0,-0.5"/>
<text text-anchor="start" x="8" y="-25.1" font-family="Helvetica,sans-Serif" font-size="8.00">flow::net_flow::Congestion</text>
<text text-anchor="start" x="8" y="-16.1" font-family="Helvetica,sans-Serif" font-size="8.00">_control_classic_with_bandwidth</text>
<text text-anchor="middle" x="74.5" y="-7.1" font-family="Helvetica,sans-Serif" font-size="8.00">_est::on_acks</text>
</a>
</g>
</g>
<!-- Node2&#45;&gt;Node4 -->
<g id="edge3" class="edge">
<title>Node2&#45;&gt;Node4</title>
<path fill="none" stroke="midnightblue" d="M174.86,-31.84C166.31,-30.65 157.65,-29.44 149.17,-28.26"/>
<polygon fill="midnightblue" stroke="midnightblue" points="174.44,-35.31 184.83,-33.23 175.41,-28.38 174.44,-35.31"/>
</g>
</g>
</svg>
