<?xml version="1.0" encoding="UTF-8" standalone="no"?>
<!DOCTYPE svg PUBLIC "-//W3C//DTD SVG 1.1//EN"
 "http://www.w3.org/Graphics/SVG/1.1/DTD/svg11.dtd">
<!-- Generated by graphviz version 2.43.0 (0)
 -->
<!-- Title: flow::log::Buffer_logger Pages: 1 -->
<svg width="1363pt" height="799pt"
 viewBox="0.00 0.00 1363.00 799.00" xmlns="http://www.w3.org/2000/svg" xmlns:xlink="http://www.w3.org/1999/xlink">
<g id="graph0" class="graph" transform="scale(1 1) rotate(0) translate(4 795)">
<title>flow::log::Buffer_logger</title>
<polygon fill="white" stroke="transparent" points="-4,4 -4,-795 1359,-795 1359,4 -4,4"/>
<!-- Node1 -->
<g id="node1" class="node">
<title>Node1</title>
<g id="a_node1"><a xlink:title="An implementation of Logger that logs messages to an internal std::string buffer and provides read&#45;on...">
<polygon fill="#bfbfbf" stroke="black" points="1243,-459.5 1243,-476.5 1355,-476.5 1355,-459.5 1243,-459.5"/>
<text text-anchor="middle" x="1299" y="-466.1" font-family="Helvetica,sans-Serif" font-size="8.00">flow::log::Buffer_logger</text>
</a>
</g>
</g>
<!-- Node2 -->
<g id="node2" class="node">
<title>Node2</title>
<g id="a_node2"><a xlink:href="classflow_1_1log_1_1Logger.html" target="_top" xlink:title="Interface that the user should implement, passing the implementing Logger into logging classes (Flow&#39;...">
<polygon fill="white" stroke="black" points="1063,-687.5 1063,-704.5 1149,-704.5 1149,-687.5 1063,-687.5"/>
<text text-anchor="middle" x="1106" y="-694.1" font-family="Helvetica,sans-Serif" font-size="8.00">flow::log::Logger</text>
</a>
</g>
</g>
<!-- Node2&#45;&gt;Node1 -->
<g id="edge1" class="edge">
<title>Node2&#45;&gt;Node1</title>
<path fill="none" stroke="midnightblue" d="M1120.89,-679.42C1158.67,-634.32 1262.36,-510.54 1290.74,-476.67"/>
<polygon fill="midnightblue" stroke="midnightblue" points="1117.99,-677.43 1114.25,-687.34 1123.36,-681.92 1117.99,-677.43"/>
</g>
<!-- Node3 -->
<g id="node3" class="node">
<title>Node3</title>
<g id="a_node3"><a xlink:href="classflow_1_1util_1_1Null__interface.html" target="_top" xlink:title="An empty interface, consisting of nothing but a default virtual destructor, intended as a boiler&#45;plat...">
<polygon fill="white" stroke="black" points="759,-773.5 759,-790.5 873,-790.5 873,-773.5 759,-773.5"/>
<text text-anchor="middle" x="816" y="-780.1" font-family="Helvetica,sans-Serif" font-size="8.00">flow::util::Null_interface</text>
</a>
</g>
</g>
<!-- Node3&#45;&gt;Node2 -->
<g id="edge2" class="edge">
<title>Node3&#45;&gt;Node2</title>
<path fill="none" stroke="midnightblue" d="M883.47,-772.66C929.1,-764.95 990.5,-751.98 1042,-732 1060.56,-724.8 1080.21,-712.78 1092.53,-704.62"/>
<polygon fill="midnightblue" stroke="midnightblue" points="882.7,-769.24 873.4,-774.32 883.83,-776.15 882.7,-769.24"/>
</g>
<!-- Node4 -->
<g id="node4" class="node">
<title>Node4</title>
<g id="a_node4"><a xlink:href="classflow_1_1util_1_1Unique__id__holder.html" target="_top" xlink:title="Each object of this class stores (at construction) and returns (on demand) a numeric ID unique from a...">
<polygon fill="white" stroke="black" points="772.5,-728 772.5,-754 859.5,-754 859.5,-728 772.5,-728"/>
<text text-anchor="start" x="780.5" y="-743.6" font-family="Helvetica,sans-Serif" font-size="8.00">flow::util::Unique</text>
<text text-anchor="middle" x="816" y="-734.6" font-family="Helvetica,sans-Serif" font-size="8.00">_id_holder</text>
</a>
</g>
</g>
<!-- Node4&#45;&gt;Node2 -->
<g id="edge3" class="edge">
<title>Node4&#45;&gt;Node2</title>
<path fill="none" stroke="midnightblue" d="M869.81,-734.43C915.5,-728.53 983.28,-719.22 1042,-709 1049.59,-707.68 1057.67,-706.12 1065.42,-704.56"/>
<polygon fill="midnightblue" stroke="midnightblue" points="869.31,-730.97 859.84,-735.71 870.2,-737.91 869.31,-730.97"/>
</g>
<!-- Node5 -->
<g id="node5" class="node">
<title>Node5</title>
<g id="a_node5"><a xlink:title=" ">
<polygon fill="white" stroke="#bfbfbf" points="232.5,-730.5 232.5,-747.5 282.5,-747.5 282.5,-730.5 232.5,-730.5"/>
<text text-anchor="middle" x="257.5" y="-737.1" font-family="Helvetica,sans-Serif" font-size="8.00">uint64_t</text>
</a>
</g>
</g>
<!-- Node5&#45;&gt;Node4 -->
<g id="edge4" class="edge">
<title>Node5&#45;&gt;Node4</title>
<path fill="none" stroke="#9a32cd" stroke-dasharray="5,2" d="M292.9,-737.14C326.75,-735.41 379.92,-732.96 426,-732 489.54,-730.67 505.46,-730.84 569,-732 640.36,-733.3 723.3,-736.74 772.35,-738.97"/>
<polygon fill="#9a32cd" stroke="#9a32cd" points="292.43,-733.66 282.62,-737.68 292.79,-740.65 292.43,-733.66"/>
<text text-anchor="middle" x="497.5" y="-734.6" font-family="Helvetica,sans-Serif" font-size="8.00"> m_id</text>
</g>
<!-- Node6 -->
<g id="node6" class="node">
<title>Node6</title>
<g id="a_node6"><a xlink:title=" ">
<polygon fill="white" stroke="black" points="450,-750.5 450,-767.5 545,-767.5 545,-750.5 450,-750.5"/>
<text text-anchor="middle" x="497.5" y="-757.1" font-family="Helvetica,sans-Serif" font-size="8.00">std::atomic&lt; id_t &gt;</text>
</a>
</g>
</g>
<!-- Node5&#45;&gt;Node6 -->
<g id="edge6" class="edge">
<title>Node5&#45;&gt;Node6</title>
<path fill="none" stroke="#9a32cd" stroke-dasharray="5,2" d="M292.74,-741.88C334.05,-745.35 403.69,-751.2 449.88,-755.08"/>
<polygon fill="#9a32cd" stroke="#9a32cd" points="292.89,-738.38 282.63,-741.03 292.3,-745.35 292.89,-738.38"/>
<text text-anchor="middle" x="369.5" y="-754.6" font-family="Helvetica,sans-Serif" font-size="8.00"> ptr</text>
</g>
<!-- Node6&#45;&gt;Node4 -->
<g id="edge5" class="edge">
<title>Node6&#45;&gt;Node4</title>
<path fill="none" stroke="#9a32cd" stroke-dasharray="5,2" d="M555.25,-755.77C617.52,-752.23 716.06,-746.63 772.17,-743.44"/>
<polygon fill="#9a32cd" stroke="#9a32cd" points="554.99,-752.28 545.2,-756.34 555.38,-759.27 554.99,-752.28"/>
<text text-anchor="middle" x="648.5" y="-756.6" font-family="Helvetica,sans-Serif" font-size="8.00"> s_last_id</text>
</g>
<!-- Node7 -->
<g id="node7" class="node">
<title>Node7</title>
<g id="a_node7"><a xlink:title=" ">
<polygon fill="white" stroke="#bfbfbf" points="766.5,-547.5 766.5,-564.5 865.5,-564.5 865.5,-547.5 766.5,-547.5"/>
<text text-anchor="middle" x="816" y="-554.1" font-family="Helvetica,sans-Serif" font-size="8.00">boost::noncopyable</text>
</a>
</g>
</g>
<!-- Node7&#45;&gt;Node2 -->
<g id="edge7" class="edge">
<title>Node7&#45;&gt;Node2</title>
<path fill="none" stroke="#8b1a1a" d="M875.79,-564.51C937.76,-573.87 1028.31,-588.8 1042,-598 1075.57,-620.57 1095.14,-667.69 1102.09,-687.22"/>
<polygon fill="#8b1a1a" stroke="#8b1a1a" points="876.13,-561.02 865.72,-563 875.1,-567.94 876.13,-561.02"/>
</g>
<!-- Node20 -->
<g id="node20" class="node">
<title>Node20</title>
<g id="a_node20"><a xlink:href="classflow_1_1util_1_1String__ostream.html" target="_top" xlink:title="Similar to ostringstream but allows fast read&#45;only access directly into the std::string being written...">
<polygon fill="white" stroke="black" points="1065,-546 1065,-572 1147,-572 1147,-546 1065,-546"/>
<text text-anchor="start" x="1073" y="-561.6" font-family="Helvetica,sans-Serif" font-size="8.00">flow::util::String</text>
<text text-anchor="middle" x="1106" y="-552.6" font-family="Helvetica,sans-Serif" font-size="8.00">_ostream</text>
</a>
</g>
</g>
<!-- Node7&#45;&gt;Node20 -->
<g id="edge22" class="edge">
<title>Node7&#45;&gt;Node20</title>
<path fill="none" stroke="#8b1a1a" d="M875.71,-556.61C932,-557.2 1015.48,-558.07 1064.65,-558.58"/>
<polygon fill="#8b1a1a" stroke="#8b1a1a" points="875.57,-553.11 865.53,-556.51 875.49,-560.11 875.57,-553.11"/>
</g>
<!-- Node25 -->
<g id="node25" class="node">
<title>Node25</title>
<g id="a_node25"><a xlink:href="classflow_1_1log_1_1Ostream__log__msg__writer.html" target="_top" xlink:title="Utility class, each object of which wraps a given ostream and outputs discrete messages to it adorned...">
<polygon fill="white" stroke="black" points="1060,-307 1060,-333 1152,-333 1152,-307 1060,-307"/>
<text text-anchor="start" x="1068" y="-322.6" font-family="Helvetica,sans-Serif" font-size="8.00">flow::log::Ostream</text>
<text text-anchor="middle" x="1106" y="-313.6" font-family="Helvetica,sans-Serif" font-size="8.00">_log_msg_writer</text>
</a>
</g>
</g>
<!-- Node7&#45;&gt;Node25 -->
<g id="edge28" class="edge">
<title>Node7&#45;&gt;Node25</title>
<path fill="none" stroke="#8b1a1a" d="M875.93,-553.81C934.34,-550.4 1018.42,-541.77 1042,-520 1066.87,-497.04 1050.29,-478.43 1060,-446 1072.52,-404.16 1090.92,-355.82 1099.81,-333.09"/>
<polygon fill="#8b1a1a" stroke="#8b1a1a" points="875.5,-550.33 865.7,-554.37 875.88,-557.32 875.5,-550.33"/>
</g>
<!-- Node8 -->
<g id="node8" class="node">
<title>Node8</title>
<g id="a_node8"><a xlink:title=" ">
<polygon fill="white" stroke="#bfbfbf" points="769,-683 769,-709 863,-709 863,-683 769,-683"/>
<text text-anchor="start" x="777" y="-698.6" font-family="Helvetica,sans-Serif" font-size="8.00">thread_specific_ptr</text>
<text text-anchor="middle" x="816" y="-689.6" font-family="Helvetica,sans-Serif" font-size="8.00">&lt; std::string &gt;</text>
</a>
</g>
</g>
<!-- Node8&#45;&gt;Node2 -->
<g id="edge8" class="edge">
<title>Node8&#45;&gt;Node2</title>
<path fill="none" stroke="#9a32cd" stroke-dasharray="5,2" d="M873.3,-696C928.83,-696 1012.46,-696 1062.6,-696"/>
<polygon fill="#9a32cd" stroke="#9a32cd" points="873.27,-692.5 863.27,-696 873.27,-699.5 873.27,-692.5"/>
<text text-anchor="middle" x="982" y="-698.6" font-family="Helvetica,sans-Serif" font-size="8.00"> s_this_thread_nickname_ptr</text>
</g>
<!-- Node9 -->
<g id="node9" class="node">
<title>Node9</title>
<g id="a_node9"><a xlink:href="classflow_1_1log_1_1Config.html" target="_top" xlink:title="Class used to configure the filtering and logging behavior of Loggers; its use in your custom Loggers...">
<polygon fill="white" stroke="black" points="774,-460.5 774,-477.5 858,-477.5 858,-460.5 774,-460.5"/>
<text text-anchor="middle" x="816" y="-467.1" font-family="Helvetica,sans-Serif" font-size="8.00">flow::log::Config</text>
</a>
</g>
</g>
<!-- Node9&#45;&gt;Node1 -->
<g id="edge9" class="edge">
<title>Node9&#45;&gt;Node1</title>
<path fill="none" stroke="#9a32cd" stroke-dasharray="5,2" d="M868.1,-468.89C959.23,-468.7 1149.04,-468.31 1242.94,-468.11"/>
<polygon fill="#9a32cd" stroke="#9a32cd" points="868,-465.39 858.01,-468.91 868.02,-472.39 868,-465.39"/>
<text text-anchor="middle" x="1106" y="-471.6" font-family="Helvetica,sans-Serif" font-size="8.00"> m_config</text>
</g>
<!-- Node9&#45;&gt;Node25 -->
<g id="edge34" class="edge">
<title>Node9&#45;&gt;Node25</title>
<path fill="none" stroke="#9a32cd" stroke-dasharray="5,2" d="M868.5,-459.39C880.23,-456.91 892.6,-454.07 904,-451 912.14,-448.81 913.84,-447.13 922,-445 974.54,-431.27 997.29,-452.82 1042,-422 1074.22,-399.79 1093.09,-355.19 1100.85,-333.07"/>
<polygon fill="#9a32cd" stroke="#9a32cd" points="867.48,-456.03 858.39,-461.47 868.89,-462.88 867.48,-456.03"/>
<text text-anchor="middle" x="982" y="-447.6" font-family="Helvetica,sans-Serif" font-size="8.00"> m_config</text>
</g>
<!-- Node10 -->
<g id="node10" class="node">
<title>Node10</title>
<g id="a_node10"><a xlink:title=" ">
<polygon fill="white" stroke="#bfbfbf" points="457,-337.5 457,-354.5 538,-354.5 538,-337.5 457,-337.5"/>
<text text-anchor="middle" x="497.5" y="-344.1" font-family="Helvetica,sans-Serif" font-size="8.00">static const Sev</text>
</a>
</g>
</g>
<!-- Node10&#45;&gt;Node9 -->
<g id="edge10" class="edge">
<title>Node10&#45;&gt;Node9</title>
<path fill="none" stroke="#9a32cd" stroke-dasharray="5,2" d="M548.33,-336.73C595.86,-330.96 666.49,-330.86 710,-370 737.42,-394.66 701.73,-425.11 728,-451 739.97,-462.8 757.52,-467.82 773.73,-469.68"/>
<polygon fill="#9a32cd" stroke="#9a32cd" points="547.7,-333.28 538.26,-338.08 548.63,-340.22 547.7,-333.28"/>
<text text-anchor="start" x="600.5" y="-381.6" font-family="Helvetica,sans-Serif" font-size="8.00"> S_MOST_VERBOSE_SEV</text>
<text text-anchor="middle" x="648.5" y="-372.6" font-family="Helvetica,sans-Serif" font-size="8.00">_DEFAULT</text>
</g>
<!-- Node11 -->
<g id="node11" class="node">
<title>Node11</title>
<g id="a_node11"><a xlink:href="classbool.html" target="_top" xlink:title=" ">
<polygon fill="white" stroke="#bfbfbf" points="480,-298.5 480,-315.5 515,-315.5 515,-298.5 480,-298.5"/>
<text text-anchor="middle" x="497.5" y="-305.1" font-family="Helvetica,sans-Serif" font-size="8.00">bool</text>
</a>
</g>
</g>
<!-- Node11&#45;&gt;Node9 -->
<g id="edge11" class="edge">
<title>Node11&#45;&gt;Node9</title>
<path fill="none" stroke="#9a32cd" stroke-dasharray="5,2" d="M525.22,-303.52C575.96,-297.56 683.55,-288.19 710,-312 756.3,-353.67 685.64,-405.33 728,-451 739.54,-463.44 757.22,-468.51 773.64,-470.25"/>
<polygon fill="#9a32cd" stroke="#9a32cd" points="524.53,-300.08 515.02,-304.77 525.37,-307.03 524.53,-300.08"/>
<text text-anchor="start" x="600.5" y="-323.6" font-family="Helvetica,sans-Serif" font-size="8.00"> m_use_human_friendly</text>
<text text-anchor="middle" x="648.5" y="-314.6" font-family="Helvetica,sans-Serif" font-size="8.00">_time_stamps</text>
</g>
<!-- Node12 -->
<g id="node12" class="node">
<title>Node12</title>
<g id="a_node12"><a xlink:href="classflow_1_1log_1_1Component__payload__type__dict.html" target="_top" xlink:title=" ">
<polygon fill="white" stroke="black" points="426,-564.5 426,-617.5 569,-617.5 569,-564.5 426,-564.5"/>
<text text-anchor="start" x="434" y="-607.1" font-family="Helvetica,sans-Serif" font-size="8.00">flow::log::Component</text>
<text text-anchor="start" x="434" y="-598.1" font-family="Helvetica,sans-Serif" font-size="8.00">_payload_type_dict&lt; value</text>
<text text-anchor="start" x="434" y="-589.1" font-family="Helvetica,sans-Serif" font-size="8.00">_for_exposition&lt; Component</text>
<text text-anchor="start" x="434" y="-580.1" font-family="Helvetica,sans-Serif" font-size="8.00">_config &gt;, value_for_exposition</text>
<text text-anchor="middle" x="497.5" y="-571.1" font-family="Helvetica,sans-Serif" font-size="8.00">&lt; Component_config &gt; &gt;</text>
</a>
</g>
</g>
<!-- Node12&#45;&gt;Node9 -->
<g id="edge12" class="edge">
<title>Node12&#45;&gt;Node9</title>
<path fill="none" stroke="#9a32cd" stroke-dasharray="5,2" d="M579.17,-590.14C622.55,-585.66 674.31,-573.29 710,-542 727.13,-526.98 711.27,-509.46 728,-494 740.47,-482.48 757.9,-476.23 773.89,-472.86"/>
<polygon fill="#9a32cd" stroke="#9a32cd" points="578.83,-586.66 569.19,-591.05 579.47,-593.63 578.83,-586.66"/>
<text text-anchor="start" x="601" y="-601.6" font-family="Helvetica,sans-Serif" font-size="8.00"> m_component_cfgs_by</text>
<text text-anchor="middle" x="648.5" y="-592.6" font-family="Helvetica,sans-Serif" font-size="8.00">_payload_type</text>
</g>
<!-- Node13 -->
<g id="node13" class="node">
<title>Node13</title>
<g id="a_node13"><a xlink:href="classvalue__for__exposition_3_01Component__config_01_4.html" target="_top" xlink:title=" ">
<polygon fill="white" stroke="#bfbfbf" points="202,-578 202,-604 313,-604 313,-578 202,-578"/>
<text text-anchor="start" x="210" y="-593.6" font-family="Helvetica,sans-Serif" font-size="8.00">value_for_exposition</text>
<text text-anchor="middle" x="257.5" y="-584.6" font-family="Helvetica,sans-Serif" font-size="8.00">&lt; Component_config &gt;</text>
</a>
</g>
</g>
<!-- Node13&#45;&gt;Node12 -->
<g id="edge13" class="edge">
<title>Node13&#45;&gt;Node12</title>
<path fill="none" stroke="#9a32cd" stroke-dasharray="5,2" d="M323.18,-591C354.96,-591 393.33,-591 425.88,-591"/>
<polygon fill="#9a32cd" stroke="#9a32cd" points="323.1,-587.5 313.1,-591 323.1,-594.5 323.1,-587.5"/>
<text text-anchor="middle" x="369.5" y="-602.6" font-family="Helvetica,sans-Serif" font-size="8.00"> m_dict_by_type</text>
<text text-anchor="middle" x="369.5" y="-593.6" font-family="Helvetica,sans-Serif" font-size="8.00">m_dict_by_type_ptr</text>
</g>
<!-- Node14 -->
<g id="node14" class="node">
<title>Node14</title>
<g id="a_node14"><a xlink:href="classflow_1_1log_1_1Config_1_1Atomic__raw__sev.html" target="_top" xlink:title="Trivial wrapper of atomic&lt;raw_sev_t&gt; which adds a couple of things to make it possible to construct,...">
<polygon fill="white" stroke="black" points="212.5,-497 212.5,-523 302.5,-523 302.5,-497 212.5,-497"/>
<text text-anchor="start" x="220.5" y="-512.6" font-family="Helvetica,sans-Serif" font-size="8.00">flow::log::Config::</text>
<text text-anchor="middle" x="257.5" y="-503.6" font-family="Helvetica,sans-Serif" font-size="8.00">Atomic_raw_sev</text>
</a>
</g>
</g>
<!-- Node14&#45;&gt;Node9 -->
<g id="edge14" class="edge">
<title>Node14&#45;&gt;Node9</title>
<path fill="none" stroke="#9a32cd" stroke-dasharray="5,2" d="M312.89,-506.08C397.72,-499.95 566.67,-487.7 710,-477 731.06,-475.43 754.49,-473.65 773.86,-472.16"/>
<polygon fill="#9a32cd" stroke="#9a32cd" points="312.45,-502.6 302.72,-506.81 312.95,-509.58 312.45,-502.6"/>
<text text-anchor="middle" x="497.5" y="-500.6" font-family="Helvetica,sans-Serif" font-size="8.00"> m_verbosity_default</text>
</g>
<!-- Node17 -->
<g id="node17" class="node">
<title>Node17</title>
<g id="a_node17"><a xlink:title=" ">
<polygon fill="white" stroke="black" points="448.5,-519 448.5,-545 546.5,-545 546.5,-519 448.5,-519"/>
<text text-anchor="start" x="456.5" y="-534.6" font-family="Helvetica,sans-Serif" font-size="8.00">std::vector&lt; Atomic</text>
<text text-anchor="middle" x="497.5" y="-525.6" font-family="Helvetica,sans-Serif" font-size="8.00">_raw_sev &gt;</text>
</a>
</g>
</g>
<!-- Node14&#45;&gt;Node17 -->
<g id="edge18" class="edge">
<title>Node14&#45;&gt;Node17</title>
<path fill="none" stroke="#9a32cd" stroke-dasharray="5,2" d="M312.77,-515.02C353.64,-518.79 409.16,-523.93 448.44,-527.56"/>
<polygon fill="#9a32cd" stroke="#9a32cd" points="312.99,-511.52 302.71,-514.09 312.34,-518.49 312.99,-511.52"/>
<text text-anchor="middle" x="369.5" y="-526.6" font-family="Helvetica,sans-Serif" font-size="8.00"> elements</text>
</g>
<!-- Node15 -->
<g id="node15" class="node">
<title>Node15</title>
<g id="a_node15"><a xlink:title=" ">
<polygon fill="white" stroke="black" points="79,-501.5 79,-518.5 165,-518.5 165,-501.5 79,-501.5"/>
<text text-anchor="middle" x="122" y="-508.1" font-family="Helvetica,sans-Serif" font-size="8.00">std::atomic&lt; T &gt;</text>
</a>
</g>
</g>
<!-- Node15&#45;&gt;Node14 -->
<g id="edge15" class="edge">
<title>Node15&#45;&gt;Node14</title>
<path fill="none" stroke="midnightblue" d="M175.3,-510C187.52,-510 200.41,-510 212.23,-510"/>
<polygon fill="midnightblue" stroke="midnightblue" points="175.24,-506.5 165.24,-510 175.24,-513.5 175.24,-506.5"/>
</g>
<!-- Node16 -->
<g id="node16" class="node">
<title>Node16</title>
<g id="a_node16"><a xlink:title=" ">
<polygon fill="white" stroke="#bfbfbf" points="0,-501.5 0,-518.5 29,-518.5 29,-501.5 0,-501.5"/>
<text text-anchor="middle" x="14.5" y="-508.1" font-family="Helvetica,sans-Serif" font-size="8.00">T</text>
</a>
</g>
</g>
<!-- Node16&#45;&gt;Node15 -->
<g id="edge16" class="edge">
<title>Node16&#45;&gt;Node15</title>
<path fill="none" stroke="#9a32cd" stroke-dasharray="5,2" d="M39.53,-510C51.19,-510 65.54,-510 78.94,-510"/>
<polygon fill="#9a32cd" stroke="#9a32cd" points="39.29,-506.5 29.29,-510 39.29,-513.5 39.29,-506.5"/>
<text text-anchor="middle" x="54" y="-512.6" font-family="Helvetica,sans-Serif" font-size="8.00"> ptr</text>
</g>
<!-- Node17&#45;&gt;Node9 -->
<g id="edge17" class="edge">
<title>Node17&#45;&gt;Node9</title>
<path fill="none" stroke="#9a32cd" stroke-dasharray="5,2" d="M556.94,-531.1C600.28,-528.87 660.21,-522.49 710,-505 718.85,-501.89 719.42,-497.77 728,-494 743.54,-487.17 761.45,-481.65 776.97,-477.56"/>
<polygon fill="#9a32cd" stroke="#9a32cd" points="556.69,-527.6 546.86,-531.55 557.01,-534.6 556.69,-527.6"/>
<text text-anchor="middle" x="648.5" y="-531.6" font-family="Helvetica,sans-Serif" font-size="8.00"> m_verbosities_by_component</text>
</g>
<!-- Node18 -->
<g id="node18" class="node">
<title>Node18</title>
<g id="a_node18"><a xlink:title=" ">
<polygon fill="white" stroke="#bfbfbf" points="429,-428 429,-454 566,-454 566,-428 429,-428"/>
<text text-anchor="start" x="437" y="-443.6" font-family="Helvetica,sans-Serif" font-size="8.00">unordered_map&lt; component</text>
<text text-anchor="middle" x="497.5" y="-434.6" font-family="Helvetica,sans-Serif" font-size="8.00">_union_idx_t, std::string &gt;</text>
</a>
</g>
</g>
<!-- Node18&#45;&gt;Node9 -->
<g id="edge19" class="edge">
<title>Node18&#45;&gt;Node9</title>
<path fill="none" stroke="#9a32cd" stroke-dasharray="5,2" d="M576.35,-447.44C616.31,-450.79 665.77,-455.01 710,-459 731.06,-460.9 754.49,-463.12 773.87,-464.99"/>
<polygon fill="#9a32cd" stroke="#9a32cd" points="576.4,-443.93 566.14,-446.58 575.82,-450.9 576.4,-443.93"/>
<text text-anchor="start" x="595.5" y="-470.6" font-family="Helvetica,sans-Serif" font-size="8.00"> m_component_names_by</text>
<text text-anchor="middle" x="648.5" y="-461.6" font-family="Helvetica,sans-Serif" font-size="8.00">_union_idx</text>
</g>
<!-- Node19 -->
<g id="node19" class="node">
<title>Node19</title>
<g id="a_node19"><a xlink:title=" ">
<polygon fill="white" stroke="#bfbfbf" points="446,-373.5 446,-408.5 549,-408.5 549,-373.5 446,-373.5"/>
<text text-anchor="start" x="454" y="-398.1" font-family="Helvetica,sans-Serif" font-size="8.00">unordered_map&lt; std</text>
<text text-anchor="start" x="454" y="-389.1" font-family="Helvetica,sans-Serif" font-size="8.00">::string, component</text>
<text text-anchor="middle" x="497.5" y="-380.1" font-family="Helvetica,sans-Serif" font-size="8.00">_union_idx_t &gt;</text>
</a>
</g>
</g>
<!-- Node19&#45;&gt;Node9 -->
<g id="edge20" class="edge">
<title>Node19&#45;&gt;Node9</title>
<path fill="none" stroke="#9a32cd" stroke-dasharray="5,2" d="M559.29,-389.64C603.98,-391.29 664.58,-399.28 710,-427 721.38,-433.95 716.74,-443.85 728,-451 741.54,-459.6 758.44,-464.18 773.73,-466.59"/>
<polygon fill="#9a32cd" stroke="#9a32cd" points="559.25,-386.13 549.15,-389.36 559.05,-393.13 559.25,-386.13"/>
<text text-anchor="start" x="594.5" y="-438.6" font-family="Helvetica,sans-Serif" font-size="8.00"> m_component_union_idxs</text>
<text text-anchor="middle" x="648.5" y="-429.6" font-family="Helvetica,sans-Serif" font-size="8.00">_by_name</text>
</g>
<!-- Node20&#45;&gt;Node1 -->
<g id="edge21" class="edge">
<title>Node20&#45;&gt;Node1</title>
<path fill="none" stroke="#9a32cd" stroke-dasharray="5,2" d="M1143.46,-541.63C1184.36,-522.14 1249.01,-491.34 1280.12,-476.52"/>
<polygon fill="#9a32cd" stroke="#9a32cd" points="1141.89,-538.5 1134.37,-545.96 1144.9,-544.82 1141.89,-538.5"/>
<text text-anchor="middle" x="1197.5" y="-529.6" font-family="Helvetica,sans-Serif" font-size="8.00"> m_os</text>
</g>
<!-- Node21 -->
<g id="node21" class="node">
<title>Node21</title>
<g id="a_node21"><a xlink:title=" ">
<polygon fill="white" stroke="black" points="786.5,-503.5 786.5,-520.5 845.5,-520.5 845.5,-503.5 786.5,-503.5"/>
<text text-anchor="middle" x="816" y="-510.1" font-family="Helvetica,sans-Serif" font-size="8.00">std::string</text>
</a>
</g>
</g>
<!-- Node21&#45;&gt;Node20 -->
<g id="edge23" class="edge">
<title>Node21&#45;&gt;Node20</title>
<path fill="none" stroke="#9a32cd" stroke-dasharray="5,2" d="M856.04,-513.28C901.3,-515.43 977.88,-521.11 1042,-536 1052.66,-538.48 1063.99,-542.23 1074.05,-546"/>
<polygon fill="#9a32cd" stroke="#9a32cd" points="855.93,-509.77 845.79,-512.83 855.62,-516.77 855.93,-509.77"/>
<text text-anchor="middle" x="982" y="-547.6" font-family="Helvetica,sans-Serif" font-size="8.00"> m_own_target_str</text>
<text text-anchor="middle" x="982" y="-538.6" font-family="Helvetica,sans-Serif" font-size="8.00">m_target</text>
</g>
<!-- Node22 -->
<g id="node22" class="node">
<title>Node22</title>
<g id="a_node22"><a xlink:title=" ">
<polygon fill="white" stroke="black" points="452,-637 452,-663 543,-663 543,-637 452,-637"/>
<text text-anchor="start" x="460" y="-652.6" font-family="Helvetica,sans-Serif" font-size="8.00">std::basic_string&lt;</text>
<text text-anchor="middle" x="497.5" y="-643.6" font-family="Helvetica,sans-Serif" font-size="8.00"> Char &gt;</text>
</a>
</g>
</g>
<!-- Node22&#45;&gt;Node21 -->
<g id="edge24" class="edge">
<title>Node22&#45;&gt;Node21</title>
<path fill="none" stroke="midnightblue" d="M553.24,-655.48C600.78,-657.07 668.36,-651.18 710,-612 734.65,-588.8 704.69,-562.55 728,-538 742.98,-522.22 767.09,-515.9 786.13,-513.42"/>
<polygon fill="midnightblue" stroke="midnightblue" points="553.26,-651.98 543.11,-655.02 552.94,-658.97 553.26,-651.98"/>
</g>
<!-- Node23 -->
<g id="node23" class="node">
<title>Node23</title>
<g id="a_node23"><a xlink:title=" ">
<polygon fill="white" stroke="#bfbfbf" points="769,-638 769,-664 863,-664 863,-638 769,-638"/>
<text text-anchor="start" x="777" y="-653.6" font-family="Helvetica,sans-Serif" font-size="8.00">back_insert_device</text>
<text text-anchor="middle" x="816" y="-644.6" font-family="Helvetica,sans-Serif" font-size="8.00">&lt; std::string &gt;</text>
</a>
</g>
</g>
<!-- Node23&#45;&gt;Node20 -->
<g id="edge25" class="edge">
<title>Node23&#45;&gt;Node20</title>
<path fill="none" stroke="#9a32cd" stroke-dasharray="5,2" d="M873.33,-644.83C919.99,-638.31 987.27,-625.57 1042,-602 1059.51,-594.46 1077.26,-581.79 1089.43,-572.16"/>
<polygon fill="#9a32cd" stroke="#9a32cd" points="872.85,-641.37 863.41,-646.17 873.79,-648.3 872.85,-641.37"/>
<text text-anchor="middle" x="982" y="-639.6" font-family="Helvetica,sans-Serif" font-size="8.00"> m_target_inserter</text>
</g>
<!-- Node24 -->
<g id="node24" class="node">
<title>Node24</title>
<g id="a_node24"><a xlink:title=" ">
<polygon fill="white" stroke="#bfbfbf" points="754,-583.5 754,-618.5 878,-618.5 878,-583.5 754,-583.5"/>
<text text-anchor="start" x="762" y="-608.1" font-family="Helvetica,sans-Serif" font-size="8.00">stream&lt; boost::iostreams</text>
<text text-anchor="start" x="762" y="-599.1" font-family="Helvetica,sans-Serif" font-size="8.00">::back_insert_device&lt; std</text>
<text text-anchor="middle" x="816" y="-590.1" font-family="Helvetica,sans-Serif" font-size="8.00">::string &gt; &gt;</text>
</a>
</g>
</g>
<!-- Node24&#45;&gt;Node20 -->
<g id="edge26" class="edge">
<title>Node24&#45;&gt;Node20</title>
<path fill="none" stroke="#9a32cd" stroke-dasharray="5,2" d="M888.4,-593.19C932.74,-587.99 990.83,-580.57 1042,-572 1049.38,-570.76 1057.21,-569.29 1064.75,-567.77"/>
<polygon fill="#9a32cd" stroke="#9a32cd" points="887.83,-589.73 878.3,-594.36 888.64,-596.69 887.83,-589.73"/>
<text text-anchor="middle" x="982" y="-591.6" font-family="Helvetica,sans-Serif" font-size="8.00"> m_target_appender_ostream</text>
</g>
<!-- Node25&#45;&gt;Node1 -->
<g id="edge27" class="edge">
<title>Node25&#45;&gt;Node1</title>
<path fill="none" stroke="#9a32cd" stroke-dasharray="5,2" d="M1132.01,-339.38C1173.97,-371.9 1256.91,-436.16 1286.87,-459.38"/>
<polygon fill="#9a32cd" stroke="#9a32cd" points="1134,-336.49 1123.95,-333.13 1129.71,-342.03 1134,-336.49"/>
<text text-anchor="middle" x="1197.5" y="-410.6" font-family="Helvetica,sans-Serif" font-size="8.00"> m_os_writer</text>
</g>
<!-- Node26 -->
<g id="node26" class="node">
<title>Node26</title>
<g id="a_node26"><a xlink:title=" ">
<polygon fill="white" stroke="black" points="758,-307 758,-333 874,-333 874,-307 758,-307"/>
<text text-anchor="start" x="766" y="-322.6" font-family="Helvetica,sans-Serif" font-size="8.00">std::vector&lt; flow::</text>
<text text-anchor="middle" x="816" y="-313.6" font-family="Helvetica,sans-Serif" font-size="8.00">util::Basic_string_view &gt;</text>
</a>
</g>
</g>
<!-- Node26&#45;&gt;Node25 -->
<g id="edge29" class="edge">
<title>Node26&#45;&gt;Node25</title>
<path fill="none" stroke="#9a32cd" stroke-dasharray="5,2" d="M884.41,-320C938.38,-320 1012.6,-320 1059.69,-320"/>
<polygon fill="#9a32cd" stroke="#9a32cd" points="884.24,-316.5 874.24,-320 884.24,-323.5 884.24,-316.5"/>
<text text-anchor="middle" x="982" y="-322.6" font-family="Helvetica,sans-Serif" font-size="8.00"> S_SEV_STRS</text>
</g>
<!-- Node27 -->
<g id="node27" class="node">
<title>Node27</title>
<g id="a_node27"><a xlink:href="classflow_1_1util_1_1Basic__string__view.html" target="_top" xlink:title="Essentially alias for a C++17&#45;conforming string&#45;view class template, which is a very lightweight std:...">
<polygon fill="white" stroke="black" points="444,-240 444,-266 551,-266 551,-240 444,-240"/>
<text text-anchor="start" x="452" y="-255.6" font-family="Helvetica,sans-Serif" font-size="8.00">flow::util::Basic_string</text>
<text text-anchor="middle" x="497.5" y="-246.6" font-family="Helvetica,sans-Serif" font-size="8.00">_view&lt; Ch, Traits &gt;</text>
</a>
</g>
</g>
<!-- Node27&#45;&gt;Node25 -->
<g id="edge33" class="edge">
<title>Node27&#45;&gt;Node25</title>
<path fill="none" stroke="#9a32cd" stroke-dasharray="5,2" d="M560.96,-238.04C641.25,-221.22 784.56,-199.4 904,-225 969.75,-239.09 981.89,-256.87 1042,-287 1050.18,-291.1 1051.92,-292.69 1060,-297 1066.04,-300.22 1072.58,-303.61 1078.75,-306.77"/>
<polygon fill="#9a32cd" stroke="#9a32cd" points="560.06,-234.65 551.01,-240.17 561.52,-241.5 560.06,-234.65"/>
<text text-anchor="start" x="758.5" y="-254.6" font-family="Helvetica,sans-Serif" font-size="8.00"> S_HUMAN_FRIENDLY_TIME</text>
<text text-anchor="middle" x="816" y="-245.6" font-family="Helvetica,sans-Serif" font-size="8.00">_STAMP_MIN_SZ_TEMPLATE</text>
<text text-anchor="start" x="758.5" y="-236.6" font-family="Helvetica,sans-Serif" font-size="8.00">S_HUMAN_FRIENDLY_TIME</text>
<text text-anchor="middle" x="816" y="-227.6" font-family="Helvetica,sans-Serif" font-size="8.00">_STAMP_REST_SZ_TEMPLATE</text>
</g>
<!-- Node27&#45;&gt;Node26 -->
<g id="edge30" class="edge">
<title>Node27&#45;&gt;Node26</title>
<path fill="none" stroke="#9a32cd" stroke-dasharray="5,2" d="M561.17,-248.03C605.22,-247.26 664.23,-251.87 710,-276 720.87,-281.73 717.59,-290.47 728,-297 737,-302.65 747.36,-306.92 757.71,-310.14"/>
<polygon fill="#9a32cd" stroke="#9a32cd" points="561.06,-244.53 551.16,-248.31 561.25,-251.53 561.06,-244.53"/>
<text text-anchor="middle" x="648.5" y="-278.6" font-family="Helvetica,sans-Serif" font-size="8.00"> elements</text>
</g>
<!-- Node28 -->
<g id="node28" class="node">
<title>Node28</title>
<g id="a_node28"><a xlink:title=" ">
<polygon fill="white" stroke="black" points="204,-240 204,-266 311,-266 311,-240 204,-240"/>
<text text-anchor="start" x="212" y="-255.6" font-family="Helvetica,sans-Serif" font-size="8.00">std::basic_string_view</text>
<text text-anchor="middle" x="257.5" y="-246.6" font-family="Helvetica,sans-Serif" font-size="8.00">&lt; Char &gt;</text>
</a>
</g>
</g>
<!-- Node28&#45;&gt;Node27 -->
<g id="edge31" class="edge">
<title>Node28&#45;&gt;Node27</title>
<path fill="none" stroke="midnightblue" d="M321.49,-253C359.58,-253 407.6,-253 443.7,-253"/>
<polygon fill="midnightblue" stroke="midnightblue" points="321.02,-249.5 311.02,-253 321.02,-256.5 321.02,-249.5"/>
</g>
<!-- Node29 -->
<g id="node29" class="node">
<title>Node29</title>
<g id="a_node29"><a xlink:title=" ">
<polygon fill="white" stroke="#bfbfbf" points="786.5,-424.5 786.5,-441.5 845.5,-441.5 845.5,-424.5 786.5,-424.5"/>
<text text-anchor="middle" x="816" y="-431.1" font-family="Helvetica,sans-Serif" font-size="8.00">time_point</text>
</a>
</g>
</g>
<!-- Node29&#45;&gt;Node25 -->
<g id="edge32" class="edge">
<title>Node29&#45;&gt;Node25</title>
<path fill="none" stroke="#9a32cd" stroke-dasharray="5,2" d="M855.84,-425.92C870.96,-422.92 888.38,-419.15 904,-415 966.35,-398.44 985.17,-400.53 1042,-370 1060.7,-359.95 1079.4,-344.21 1091.51,-333.08"/>
<polygon fill="#9a32cd" stroke="#9a32cd" points="854.94,-422.53 845.79,-427.88 856.28,-429.4 854.94,-422.53"/>
<text text-anchor="middle" x="982" y="-412.6" font-family="Helvetica,sans-Serif" font-size="8.00"> S_POSIX_EPOCH</text>
</g>
<!-- Node30 -->
<g id="node30" class="node">
<title>Node30</title>
<g id="a_node30"><a xlink:href="classflow_1_1Function.html" target="_top" xlink:title=" ">
<polygon fill="white" stroke="#bfbfbf" points="750.5,-352.5 750.5,-405.5 881.5,-405.5 881.5,-352.5 750.5,-352.5"/>
<text text-anchor="start" x="758.5" y="-395.1" font-family="Helvetica,sans-Serif" font-size="8.00">flow::Function&lt; void</text>
<text text-anchor="start" x="758.5" y="-386.1" font-family="Helvetica,sans-Serif" font-size="8.00">(flow::log::Ostream_log</text>
<text text-anchor="start" x="758.5" y="-377.1" font-family="Helvetica,sans-Serif" font-size="8.00">_msg_writer *, const flow</text>
<text text-anchor="start" x="758.5" y="-368.1" font-family="Helvetica,sans-Serif" font-size="8.00">::log::Msg_metadata &amp;, flow</text>
<text text-anchor="middle" x="816" y="-359.1" font-family="Helvetica,sans-Serif" font-size="8.00">::util::Basic_string_view)&gt;</text>
</a>
</g>
</g>
<!-- Node30&#45;&gt;Node25 -->
<g id="edge35" class="edge">
<title>Node30&#45;&gt;Node25</title>
<path fill="none" stroke="#9a32cd" stroke-dasharray="5,2" d="M891.5,-363.8C935.33,-354.86 991.82,-343.31 1042,-333 1047.8,-331.81 1053.9,-330.55 1059.92,-329.31"/>
<polygon fill="#9a32cd" stroke="#9a32cd" points="890.6,-360.42 881.5,-365.85 892,-367.27 890.6,-360.42"/>
<text text-anchor="middle" x="982" y="-359.6" font-family="Helvetica,sans-Serif" font-size="8.00"> m_do_log_func</text>
</g>
<!-- Node31 -->
<g id="node31" class="node">
<title>Node31</title>
<g id="a_node31"><a xlink:title=" ">
<polygon fill="white" stroke="black" points="781.5,-72.5 781.5,-89.5 850.5,-89.5 850.5,-72.5 781.5,-72.5"/>
<text text-anchor="middle" x="816" y="-79.1" font-family="Helvetica,sans-Serif" font-size="8.00">std::ostream</text>
</a>
</g>
</g>
<!-- Node31&#45;&gt;Node25 -->
<g id="edge36" class="edge">
<title>Node31&#45;&gt;Node25</title>
<path fill="none" stroke="#9a32cd" stroke-dasharray="5,2" d="M860.62,-77.3C918.73,-73.4 1017.13,-70.79 1042,-95 1074.29,-126.44 1034.79,-259.64 1060,-297 1062.65,-300.93 1066.18,-304.22 1070.11,-306.97"/>
<polygon fill="#9a32cd" stroke="#9a32cd" points="860.34,-73.81 850.61,-78.01 860.83,-80.79 860.34,-73.81"/>
<text text-anchor="middle" x="982" y="-97.6" font-family="Helvetica,sans-Serif" font-size="8.00"> m_os</text>
</g>
<!-- Node32 -->
<g id="node32" class="node">
<title>Node32</title>
<g id="a_node32"><a xlink:title=" ">
<polygon fill="white" stroke="black" points="450,-68 450,-94 545,-94 545,-68 450,-68"/>
<text text-anchor="start" x="458" y="-83.6" font-family="Helvetica,sans-Serif" font-size="8.00">std::basic_ostream</text>
<text text-anchor="middle" x="497.5" y="-74.6" font-family="Helvetica,sans-Serif" font-size="8.00">&lt; Char &gt;</text>
</a>
</g>
</g>
<!-- Node32&#45;&gt;Node31 -->
<g id="edge37" class="edge">
<title>Node32&#45;&gt;Node31</title>
<path fill="none" stroke="midnightblue" d="M555.4,-81C621.19,-81 727.32,-81 781.24,-81"/>
<polygon fill="midnightblue" stroke="midnightblue" points="555.2,-77.5 545.2,-81 555.2,-84.5 555.2,-77.5"/>
</g>
<!-- Node33 -->
<g id="node33" class="node">
<title>Node33</title>
<g id="a_node33"><a xlink:title=" ">
<polygon fill="white" stroke="red" points="202.5,-72.5 202.5,-89.5 312.5,-89.5 312.5,-72.5 202.5,-72.5"/>
<text text-anchor="middle" x="257.5" y="-79.1" font-family="Helvetica,sans-Serif" font-size="8.00">std::basic_ios&lt; Char &gt;</text>
</a>
</g>
</g>
<!-- Node33&#45;&gt;Node32 -->
<g id="edge38" class="edge">
<title>Node33&#45;&gt;Node32</title>
<path fill="none" stroke="midnightblue" d="M322.73,-81C362.88,-81 413.65,-81 449.94,-81"/>
<polygon fill="midnightblue" stroke="midnightblue" points="322.51,-77.5 312.51,-81 322.51,-84.5 322.51,-77.5"/>
</g>
<!-- Node35 -->
<g id="node34" class="node">
<title>Node35</title>
<g id="a_node34"><a xlink:title=" ">
<polygon fill="white" stroke="#bfbfbf" points="782,-270.5 782,-287.5 850,-287.5 850,-270.5 782,-270.5"/>
<text text-anchor="middle" x="816" y="-277.1" font-family="Helvetica,sans-Serif" font-size="8.00">ios_all_saver</text>
</a>
</g>
</g>
<!-- Node35&#45;&gt;Node25 -->
<g id="edge39" class="edge">
<title>Node35&#45;&gt;Node25</title>
<path fill="none" stroke="#9a32cd" stroke-dasharray="5,2" d="M860.37,-283.36C905.79,-288.17 979.13,-296.62 1042,-307 1047.84,-307.96 1053.96,-309.09 1060,-310.26"/>
<polygon fill="#9a32cd" stroke="#9a32cd" points="860.6,-279.86 850.29,-282.3 859.87,-286.83 860.6,-279.86"/>
<text text-anchor="middle" x="982" y="-309.6" font-family="Helvetica,sans-Serif" font-size="8.00"> m_clean_os_state</text>
</g>
<!-- Node36 -->
<g id="node35" class="node">
<title>Node36</title>
<g id="a_node35"><a xlink:title=" ">
<polygon fill="white" stroke="black" points="728,-0.5 728,-53.5 904,-53.5 904,-0.5 728,-0.5"/>
<text text-anchor="start" x="736" y="-43.1" font-family="Helvetica,sans-Serif" font-size="8.00">std::array&lt; char, S</text>
<text text-anchor="start" x="736" y="-34.1" font-family="Helvetica,sans-Serif" font-size="8.00">_HUMAN_FRIENDLY_TIME</text>
<text text-anchor="start" x="736" y="-25.1" font-family="Helvetica,sans-Serif" font-size="8.00">_STAMP_MIN_SZ_TEMPLATE.size</text>
<text text-anchor="start" x="736" y="-16.1" font-family="Helvetica,sans-Serif" font-size="8.00">()+S_HUMAN_FRIENDLY_TIME</text>
<text text-anchor="middle" x="816" y="-7.1" font-family="Helvetica,sans-Serif" font-size="8.00">_STAMP_REST_SZ_TEMPLATE.size()+1 &gt;</text>
</a>
</g>
</g>
<!-- Node36&#45;&gt;Node25 -->
<g id="edge40" class="edge">
<title>Node36&#45;&gt;Node25</title>
<path fill="none" stroke="#9a32cd" stroke-dasharray="5,2" d="M914.31,-12.34C959.3,-11.34 1009.79,-19.43 1042,-53 1079.64,-92.23 1029.93,-251.7 1060,-297 1062.52,-300.8 1065.88,-304.01 1069.62,-306.7"/>
<polygon fill="#9a32cd" stroke="#9a32cd" points="914.06,-8.85 904.2,-12.72 914.33,-15.84 914.06,-8.85"/>
<text text-anchor="start" x="934" y="-64.6" font-family="Helvetica,sans-Serif" font-size="8.00"> m_last_human_friendly</text>
<text text-anchor="middle" x="982" y="-55.6" font-family="Helvetica,sans-Serif" font-size="8.00">_time_stamp_str</text>
</g>
<!-- Node37 -->
<g id="node36" class="node">
<title>Node37</title>
<g id="a_node36"><a xlink:title=" ">
<polygon fill="white" stroke="#bfbfbf" points="480,-18.5 480,-35.5 515,-35.5 515,-18.5 480,-18.5"/>
<text text-anchor="middle" x="497.5" y="-25.1" font-family="Helvetica,sans-Serif" font-size="8.00">char</text>
</a>
</g>
</g>
<!-- Node37&#45;&gt;Node36 -->
<g id="edge41" class="edge">
<title>Node37&#45;&gt;Node36</title>
<path fill="none" stroke="#9a32cd" stroke-dasharray="5,2" d="M525.28,-27C569.49,-27 659.62,-27 727.67,-27"/>
<polygon fill="#9a32cd" stroke="#9a32cd" points="525.07,-23.5 515.07,-27 525.07,-30.5 525.07,-23.5"/>
<text text-anchor="middle" x="648.5" y="-29.6" font-family="Helvetica,sans-Serif" font-size="8.00"> elements</text>
</g>
<!-- Node38 -->
<g id="node37" class="node">
<title>Node38</title>
<g id="a_node37"><a xlink:title=" ">
<polygon fill="white" stroke="#bfbfbf" points="796,-162.5 796,-179.5 836,-179.5 836,-162.5 796,-162.5"/>
<text text-anchor="middle" x="816" y="-169.1" font-family="Helvetica,sans-Serif" font-size="8.00">size_t</text>
</a>
</g>
</g>
<!-- Node38&#45;&gt;Node25 -->
<g id="edge42" class="edge">
<title>Node38&#45;&gt;Node25</title>
<path fill="none" stroke="#9a32cd" stroke-dasharray="5,2" d="M846.38,-168.35C900.74,-164.13 1014.05,-158.72 1042,-184 1079.72,-218.11 1030.12,-255.85 1060,-297 1062.78,-300.83 1066.4,-304.07 1070.36,-306.8"/>
<polygon fill="#9a32cd" stroke="#9a32cd" points="846.01,-164.87 836.33,-169.17 846.58,-171.84 846.01,-164.87"/>
<text text-anchor="start" x="934" y="-195.6" font-family="Helvetica,sans-Serif" font-size="8.00"> m_last_human_friendly</text>
<text text-anchor="middle" x="982" y="-186.6" font-family="Helvetica,sans-Serif" font-size="8.00">_time_stamp_str_sz</text>
</g>
<!-- Node39 -->
<g id="node38" class="node">
<title>Node39</title>
<g id="a_node38"><a xlink:title=" ">
<polygon fill="white" stroke="#bfbfbf" points="752,-108.5 752,-143.5 880,-143.5 880,-108.5 752,-108.5"/>
<text text-anchor="start" x="760" y="-133.1" font-family="Helvetica,sans-Serif" font-size="8.00">time_point&lt; std::chrono</text>
<text text-anchor="start" x="760" y="-124.1" font-family="Helvetica,sans-Serif" font-size="8.00">::system_clock, std::chrono</text>
<text text-anchor="middle" x="816" y="-115.1" font-family="Helvetica,sans-Serif" font-size="8.00">::seconds &gt;</text>
</a>
</g>
</g>
<!-- Node39&#45;&gt;Node25 -->
<g id="edge43" class="edge">
<title>Node39&#45;&gt;Node25</title>
<path fill="none" stroke="#9a32cd" stroke-dasharray="5,2" d="M890.24,-109.8C939.61,-103.52 1002.67,-105.25 1042,-143 1066.86,-166.86 1040.34,-268.71 1060,-297 1062.7,-300.89 1066.27,-304.16 1070.21,-306.91"/>
<polygon fill="#9a32cd" stroke="#9a32cd" points="889.66,-106.35 880.25,-111.2 890.64,-113.28 889.66,-106.35"/>
<text text-anchor="start" x="930" y="-154.6" font-family="Helvetica,sans-Serif" font-size="8.00"> m_cached_rounded_time</text>
<text text-anchor="middle" x="982" y="-145.6" font-family="Helvetica,sans-Serif" font-size="8.00">_stamp</text>
</g>
<!-- Node40 -->
<g id="node39" class="node">
<title>Node40</title>
<g id="a_node39"><a xlink:title=" ">
<polygon fill="white" stroke="#bfbfbf" points="1085.5,-270.5 1085.5,-287.5 1126.5,-287.5 1126.5,-270.5 1085.5,-270.5"/>
<text text-anchor="middle" x="1106" y="-277.1" font-family="Helvetica,sans-Serif" font-size="8.00">mutex</text>
</a>
</g>
</g>
<!-- Node40&#45;&gt;Node1 -->
<g id="edge44" class="edge">
<title>Node40&#45;&gt;Node1</title>
<path fill="none" stroke="#9a32cd" stroke-dasharray="5,2" d="M1136.37,-289.11C1141.72,-291.4 1147.15,-294.05 1152,-297 1188.62,-319.26 1196.53,-327.97 1225,-360 1254.92,-393.66 1282.43,-440.25 1293.2,-459.33"/>
<polygon fill="#9a32cd" stroke="#9a32cd" points="1137.53,-285.8 1126.94,-285.36 1134.94,-292.31 1137.53,-285.8"/>
<text text-anchor="middle" x="1197.5" y="-362.6" font-family="Helvetica,sans-Serif" font-size="8.00"> m_log_mutex</text>
</g>
</g>
</svg>
