<?xml version="1.0" encoding="UTF-8" standalone="no"?>
<!DOCTYPE svg PUBLIC "-//W3C//DTD SVG 1.1//EN"
 "http://www.w3.org/Graphics/SVG/1.1/DTD/svg11.dtd">
<!-- Generated by graphviz version 2.43.0 (0)
 -->
<!-- Title: flow::async::Segregated_thread_task_loop::n_threads Pages: 1 -->
<svg width="677pt" height="144pt"
 viewBox="0.00 0.00 677.00 143.50" xmlns="http://www.w3.org/2000/svg" xmlns:xlink="http://www.w3.org/1999/xlink">
<g id="graph0" class="graph" transform="scale(1 1) rotate(0) translate(4 139.5)">
<title>flow::async::Segregated_thread_task_loop::n_threads</title>
<polygon fill="white" stroke="transparent" points="-4,4 -4,-139.5 673,-139.5 673,4 -4,4"/>
<!-- Node1 -->
<g id="node1" class="node">
<title>Node1</title>
<g id="a_node1"><a xlink:title="Implements superclass API.">
<polygon fill="#bfbfbf" stroke="black" points="532,-50.5 532,-76.5 669,-76.5 669,-50.5 532,-50.5"/>
<text text-anchor="start" x="540" y="-66.1" font-family="Helvetica,sans-Serif" font-size="8.00">flow::async::Segregated</text>
<text text-anchor="middle" x="600.5" y="-57.1" font-family="Helvetica,sans-Serif" font-size="8.00">_thread_task_loop::n_threads</text>
</a>
</g>
</g>
<!-- Node2 -->
<g id="node2" class="node">
<title>Node2</title>
<g id="a_node2"><a xlink:href="classflow_1_1async_1_1Segregated__thread__task__loop.html#a8fbd7b964d140c770eac1f71e52bcf1c" target="_top" xlink:title="Helper performing the core util::schedule_task_from_now() call on behalf of the various schedule_from...">
<polygon fill="white" stroke="black" points="357,-100 357,-135 491,-135 491,-100 357,-100"/>
<text text-anchor="start" x="365" y="-124.6" font-family="Helvetica,sans-Serif" font-size="8.00">flow::async::Segregated</text>
<text text-anchor="start" x="365" y="-115.6" font-family="Helvetica,sans-Serif" font-size="8.00">_thread_task_loop::schedule</text>
<text text-anchor="middle" x="424" y="-106.6" font-family="Helvetica,sans-Serif" font-size="8.00">_from_now_impl</text>
</a>
</g>
</g>
<!-- Node1&#45;&gt;Node2 -->
<g id="edge1" class="edge">
<title>Node1&#45;&gt;Node2</title>
<path fill="none" stroke="midnightblue" d="M547.66,-79.54C526.9,-85.97 502.91,-93.39 481.69,-99.96"/>
<polygon fill="midnightblue" stroke="midnightblue" points="548.74,-82.87 557.26,-76.57 546.67,-76.18 548.74,-82.87"/>
</g>
<!-- Node5 -->
<g id="node5" class="node">
<title>Node5</title>
<g id="a_node5"><a xlink:href="classflow_1_1async_1_1Segregated__thread__task__loop.html#a224eeb57edd6e218f984dcbe603b68d3" target="_top" xlink:title="Constructs object, making it available for post() and similar work, but without starting any threads ...">
<polygon fill="white" stroke="black" points="352,-46 352,-81 496,-81 496,-46 352,-46"/>
<text text-anchor="start" x="360" y="-70.6" font-family="Helvetica,sans-Serif" font-size="8.00">flow::async::Segregated</text>
<text text-anchor="start" x="360" y="-61.6" font-family="Helvetica,sans-Serif" font-size="8.00">_thread_task_loop::Segregated</text>
<text text-anchor="middle" x="424" y="-52.6" font-family="Helvetica,sans-Serif" font-size="8.00">_thread_task_loop</text>
</a>
</g>
</g>
<!-- Node1&#45;&gt;Node5 -->
<g id="edge4" class="edge">
<title>Node1&#45;&gt;Node5</title>
<path fill="none" stroke="midnightblue" d="M521.39,-63.5C513.02,-63.5 504.53,-63.5 496.24,-63.5"/>
<polygon fill="midnightblue" stroke="midnightblue" points="521.53,-67 531.53,-63.5 521.53,-60 521.53,-67"/>
</g>
<!-- Node6 -->
<g id="node6" class="node">
<title>Node6</title>
<g id="a_node6"><a xlink:href="classflow_1_1async_1_1Segregated__thread__task__loop.html#af19377b924d1598a3ad59f0fba89bfee" target="_top" xlink:title="Implements superclass API.">
<polygon fill="white" stroke="black" points="365.5,-0.5 365.5,-26.5 482.5,-26.5 482.5,-0.5 365.5,-0.5"/>
<text text-anchor="start" x="373.5" y="-16.1" font-family="Helvetica,sans-Serif" font-size="8.00">flow::async::Segregated</text>
<text text-anchor="middle" x="424" y="-7.1" font-family="Helvetica,sans-Serif" font-size="8.00">_thread_task_loop::start</text>
</a>
</g>
</g>
<!-- Node1&#45;&gt;Node6 -->
<g id="edge5" class="edge">
<title>Node1&#45;&gt;Node6</title>
<path fill="none" stroke="midnightblue" d="M544.18,-47.65C520.42,-40.84 493.01,-32.99 470.47,-26.53"/>
<polygon fill="midnightblue" stroke="midnightblue" points="543.53,-51.1 554.11,-50.49 545.46,-44.37 543.53,-51.1"/>
</g>
<!-- Node3 -->
<g id="node3" class="node">
<title>Node3</title>
<g id="a_node3"><a xlink:href="classflow_1_1async_1_1Segregated__thread__task__loop.html#a4cb5a3192dad0ef7d5a228b18d11900a" target="_top" xlink:title="Implements superclass API.">
<polygon fill="white" stroke="black" points="182,-100 182,-135 316,-135 316,-100 182,-100"/>
<text text-anchor="start" x="190" y="-124.6" font-family="Helvetica,sans-Serif" font-size="8.00">flow::async::Segregated</text>
<text text-anchor="start" x="190" y="-115.6" font-family="Helvetica,sans-Serif" font-size="8.00">_thread_task_loop::schedule</text>
<text text-anchor="middle" x="249" y="-106.6" font-family="Helvetica,sans-Serif" font-size="8.00">_from_now</text>
</a>
</g>
</g>
<!-- Node2&#45;&gt;Node3 -->
<g id="edge2" class="edge">
<title>Node2&#45;&gt;Node3</title>
<path fill="none" stroke="midnightblue" d="M346.57,-117.5C336.45,-117.5 326.14,-117.5 316.21,-117.5"/>
<polygon fill="midnightblue" stroke="midnightblue" points="346.61,-121 356.61,-117.5 346.61,-114 346.61,-121"/>
</g>
<!-- Node4 -->
<g id="node4" class="node">
<title>Node4</title>
<g id="a_node4"><a xlink:href="classflow_1_1async_1_1Segregated__thread__task__loop.html#aec44a292a4f2800f40f67bfc4bf19367" target="_top" xlink:title="Implements superclass API.">
<polygon fill="white" stroke="black" points="0,-104.5 0,-130.5 146,-130.5 146,-104.5 0,-104.5"/>
<text text-anchor="start" x="8" y="-120.1" font-family="Helvetica,sans-Serif" font-size="8.00">flow::async::Segregated</text>
<text text-anchor="middle" x="73" y="-111.1" font-family="Helvetica,sans-Serif" font-size="8.00">_thread_task_loop::schedule_at</text>
</a>
</g>
</g>
<!-- Node3&#45;&gt;Node4 -->
<g id="edge3" class="edge">
<title>Node3&#45;&gt;Node4</title>
<path fill="none" stroke="midnightblue" d="M171.53,-117.5C163.11,-117.5 154.55,-117.5 146.18,-117.5"/>
<polygon fill="midnightblue" stroke="midnightblue" points="171.72,-121 181.72,-117.5 171.72,-114 171.72,-121"/>
</g>
</g>
</svg>
