<?xml version="1.0" encoding="UTF-8" standalone="no"?>
<!DOCTYPE svg PUBLIC "-//W3C//DTD SVG 1.1//EN"
 "http://www.w3.org/Graphics/SVG/1.1/DTD/svg11.dtd">
<!-- Generated by graphviz version 2.43.0 (0)
 -->
<!-- Title: flow::util::Duration_units_beautified::beautified_locale Pages: 1 -->
<svg width="719pt" height="80pt"
 viewBox="0.00 0.00 719.00 80.00" xmlns="http://www.w3.org/2000/svg" xmlns:xlink="http://www.w3.org/1999/xlink">
<g id="graph0" class="graph" transform="scale(1 1) rotate(0) translate(4 76)">
<title>flow::util::Duration_units_beautified::beautified_locale</title>
<polygon fill="white" stroke="transparent" points="-4,4 -4,-76 715,-76 715,4 -4,4"/>
<!-- Node1 -->
<g id="node1" class="node">
<title>Node1</title>
<g id="a_node1"><a xlink:title="Returns a reference to a locale that – if imbued onto an ostream – equals std::locale::classic except...">
<polygon fill="#bfbfbf" stroke="black" points="577,-18 577,-53 711,-53 711,-18 577,-18"/>
<text text-anchor="start" x="585" y="-42.6" font-family="Helvetica,sans-Serif" font-size="8.00">flow::util::Duration</text>
<text text-anchor="start" x="585" y="-33.6" font-family="Helvetica,sans-Serif" font-size="8.00">_units_beautified::beautified</text>
<text text-anchor="middle" x="644" y="-24.6" font-family="Helvetica,sans-Serif" font-size="8.00">_locale</text>
</a>
</g>
</g>
<!-- Node2 -->
<g id="node2" class="node">
<title>Node2</title>
<g id="a_node2"><a xlink:href="namespaceflow_1_1util.html#a0955a29930075ac1fe393896c089b911" target="_top" xlink:title="Sets certain chrono&#45;related formatting on the given ostream that results in a consistent,...">
<polygon fill="white" stroke="black" points="449,-22.5 449,-48.5 541,-48.5 541,-22.5 449,-22.5"/>
<text text-anchor="start" x="457" y="-38.1" font-family="Helvetica,sans-Serif" font-size="8.00">flow::util::beautify</text>
<text text-anchor="middle" x="495" y="-29.1" font-family="Helvetica,sans-Serif" font-size="8.00">_chrono_ostream</text>
</a>
</g>
</g>
<!-- Node1&#45;&gt;Node2 -->
<g id="edge1" class="edge">
<title>Node1&#45;&gt;Node2</title>
<path fill="none" stroke="midnightblue" d="M566.62,-35.5C557.93,-35.5 549.3,-35.5 541.21,-35.5"/>
<polygon fill="midnightblue" stroke="midnightblue" points="566.81,-39 576.81,-35.5 566.81,-32 566.81,-39"/>
</g>
<!-- Node3 -->
<g id="node3" class="node">
<title>Node3</title>
<g id="a_node3"><a xlink:href="namespaceflow_1_1log.html#aaaaa1dcbf7c8dc99aceb2b6c217187fc" target="_top" xlink:title="Sets certain chrono&#45;related formatting on the given Logger in the current thread that results in a co...">
<polygon fill="white" stroke="black" points="315,-18 315,-53 413,-53 413,-18 315,-18"/>
<text text-anchor="start" x="323" y="-42.6" font-family="Helvetica,sans-Serif" font-size="8.00">flow::log::beautify</text>
<text text-anchor="start" x="323" y="-33.6" font-family="Helvetica,sans-Serif" font-size="8.00">_chrono_logger_this</text>
<text text-anchor="middle" x="364" y="-24.6" font-family="Helvetica,sans-Serif" font-size="8.00">_thread</text>
</a>
</g>
</g>
<!-- Node2&#45;&gt;Node3 -->
<g id="edge2" class="edge">
<title>Node2&#45;&gt;Node3</title>
<path fill="none" stroke="midnightblue" d="M438.74,-35.5C430.31,-35.5 421.66,-35.5 413.38,-35.5"/>
<polygon fill="midnightblue" stroke="midnightblue" points="438.88,-39 448.88,-35.5 438.88,-32 438.88,-39"/>
</g>
<!-- Node4 -->
<g id="node4" class="node">
<title>Node4</title>
<g id="a_node4"><a xlink:href="classflow_1_1async_1_1Task__qing__thread.html#a42a3f066c30c8016fd4b82eafa870d42" target="_top" xlink:title="Constructs object, immediately spawning new (worker) thread, memorizing a ref&#45;counted reference to th...">
<polygon fill="white" stroke="black" points="146,-45.5 146,-71.5 270,-71.5 270,-45.5 146,-45.5"/>
<text text-anchor="start" x="154" y="-61.1" font-family="Helvetica,sans-Serif" font-size="8.00">flow::async::Task_qing</text>
<text text-anchor="middle" x="208" y="-52.1" font-family="Helvetica,sans-Serif" font-size="8.00">_thread::Task_qing_thread</text>
</a>
</g>
</g>
<!-- Node3&#45;&gt;Node4 -->
<g id="edge3" class="edge">
<title>Node3&#45;&gt;Node4</title>
<path fill="none" stroke="midnightblue" d="M304.55,-44.23C293.31,-45.91 281.5,-47.67 270.17,-49.36"/>
<polygon fill="midnightblue" stroke="midnightblue" points="305.32,-47.65 314.7,-42.71 304.29,-40.73 305.32,-47.65"/>
</g>
<!-- Node5 -->
<g id="node5" class="node">
<title>Node5</title>
<g id="a_node5"><a xlink:href="classflow_1_1net__flow_1_1Node.html#a11780a79ed759f6d78d30ff2c77469f2" target="_top" xlink:title="Helper to invoke for each thread in which this Node executes, whether or not it starts that thread,...">
<polygon fill="white" stroke="black" points="137,-0.5 137,-26.5 279,-26.5 279,-0.5 137,-0.5"/>
<text text-anchor="start" x="145" y="-16.1" font-family="Helvetica,sans-Serif" font-size="8.00">flow::net_flow::Node</text>
<text text-anchor="middle" x="208" y="-7.1" font-family="Helvetica,sans-Serif" font-size="8.00">::this_thread_init_logger_setup</text>
</a>
</g>
</g>
<!-- Node3&#45;&gt;Node5 -->
<g id="edge4" class="edge">
<title>Node3&#45;&gt;Node5</title>
<path fill="none" stroke="midnightblue" d="M304.69,-27.17C296.34,-25.98 287.68,-24.74 279.13,-23.52"/>
<polygon fill="midnightblue" stroke="midnightblue" points="304.3,-30.65 314.7,-28.6 305.29,-23.72 304.3,-30.65"/>
</g>
<!-- Node6 -->
<g id="node6" class="node">
<title>Node6</title>
<g id="a_node6"><a xlink:href="classflow_1_1net__flow_1_1Node.html#a5b056ed753b832458f44f537acfe86d7" target="_top" xlink:title="Worker thread W (main event loop) body.">
<polygon fill="white" stroke="black" points="0,-0.5 0,-26.5 101,-26.5 101,-0.5 0,-0.5"/>
<text text-anchor="start" x="8" y="-16.1" font-family="Helvetica,sans-Serif" font-size="8.00">flow::net_flow::Node</text>
<text text-anchor="middle" x="50.5" y="-7.1" font-family="Helvetica,sans-Serif" font-size="8.00">::worker_run</text>
</a>
</g>
</g>
<!-- Node5&#45;&gt;Node6 -->
<g id="edge5" class="edge">
<title>Node5&#45;&gt;Node6</title>
<path fill="none" stroke="midnightblue" d="M126.75,-13.5C118.02,-13.5 109.34,-13.5 101.14,-13.5"/>
<polygon fill="midnightblue" stroke="midnightblue" points="126.98,-17 136.98,-13.5 126.98,-10 126.98,-17"/>
</g>
</g>
</svg>
