<?xml version="1.0" encoding="UTF-8" standalone="no"?>
<!DOCTYPE svg PUBLIC "-//W3C//DTD SVG 1.1//EN"
 "http://www.w3.org/Graphics/SVG/1.1/DTD/svg11.dtd">
<!-- Generated by graphviz version 2.43.0 (0)
 -->
<!-- Title: flow::net_flow::Event_set::events_detected Pages: 1 -->
<svg width="523pt" height="125pt"
 viewBox="0.00 0.00 523.00 124.50" xmlns="http://www.w3.org/2000/svg" xmlns:xlink="http://www.w3.org/1999/xlink">
<g id="graph0" class="graph" transform="scale(1 1) rotate(0) translate(4 120.5)">
<title>flow::net_flow::Event_set::events_detected</title>
<polygon fill="white" stroke="transparent" points="-4,4 -4,-120.5 519,-120.5 519,4 -4,4"/>
<!-- Node1 -->
<g id="node1" class="node">
<title>Node1</title>
<g id="a_node1"><a xlink:title="Returns true if and only if the last wait, if any, detected at least one event.">
<polygon fill="#bfbfbf" stroke="black" points="0,-58.5 0,-84.5 107,-84.5 107,-58.5 0,-58.5"/>
<text text-anchor="start" x="8" y="-74.1" font-family="Helvetica,sans-Serif" font-size="8.00">flow::net_flow::Event</text>
<text text-anchor="middle" x="53.5" y="-65.1" font-family="Helvetica,sans-Serif" font-size="8.00">_set::events_detected</text>
</a>
</g>
</g>
<!-- Node1&#45;&gt;Node1 -->
<g id="edge7" class="edge">
<title>Node1&#45;&gt;Node1</title>
<path fill="none" stroke="midnightblue" d="M29.14,-84.77C21.75,-93.96 29.88,-103 53.5,-103 67.9,-103 76.54,-99.64 79.42,-94.94"/>
<polygon fill="midnightblue" stroke="midnightblue" points="82.83,-94.13 77.86,-84.77 75.91,-95.18 82.83,-94.13"/>
</g>
<!-- Node2 -->
<g id="node2" class="node">
<title>Node2</title>
<g id="a_node2"><a xlink:href="classflow_1_1net__flow_1_1Event__set.html#aed9505b886c78169fe35b527f4e01855" target="_top" xlink:title="Functional helper that checks whether a given pair in an Ev_type_to_socks_map contains an empty set o...">
<polygon fill="white" stroke="black" points="143,-81 143,-116 253,-116 253,-81 143,-81"/>
<text text-anchor="start" x="151" y="-105.6" font-family="Helvetica,sans-Serif" font-size="8.00">flow::net_flow::Event</text>
<text text-anchor="start" x="151" y="-96.6" font-family="Helvetica,sans-Serif" font-size="8.00">_set::ev_type_to_socks</text>
<text text-anchor="middle" x="198" y="-87.6" font-family="Helvetica,sans-Serif" font-size="8.00">_map_entry_is_empty</text>
</a>
</g>
</g>
<!-- Node1&#45;&gt;Node2 -->
<g id="edge1" class="edge">
<title>Node1&#45;&gt;Node2</title>
<path fill="none" stroke="midnightblue" d="M107.16,-81.48C115.48,-83.05 124.16,-84.7 132.71,-86.32"/>
<polygon fill="midnightblue" stroke="midnightblue" points="132.18,-89.78 142.65,-88.2 133.48,-82.9 132.18,-89.78"/>
</g>
<!-- Node3 -->
<g id="node3" class="node">
<title>Node3</title>
<g id="a_node3"><a xlink:href="classflow_1_1net__flow_1_1Event__set.html#a19e241ae4dfe1ea54de6027052bc2135" target="_top" xlink:title="Helper that returns a loggable string summarizing the sizes of the socket sets, by type,...">
<polygon fill="white" stroke="black" points="143,-27 143,-62 253,-62 253,-27 143,-27"/>
<text text-anchor="start" x="151" y="-51.6" font-family="Helvetica,sans-Serif" font-size="8.00">flow::net_flow::Event</text>
<text text-anchor="start" x="151" y="-42.6" font-family="Helvetica,sans-Serif" font-size="8.00">_set::ev_type_to_socks</text>
<text text-anchor="middle" x="198" y="-33.6" font-family="Helvetica,sans-Serif" font-size="8.00">_map_sizes_to_str</text>
</a>
</g>
</g>
<!-- Node1&#45;&gt;Node3 -->
<g id="edge2" class="edge">
<title>Node1&#45;&gt;Node3</title>
<path fill="none" stroke="midnightblue" d="M107.16,-61.52C115.48,-59.95 124.16,-58.3 132.71,-56.68"/>
<polygon fill="midnightblue" stroke="midnightblue" points="133.48,-60.1 142.65,-54.8 132.18,-53.22 133.48,-60.1"/>
</g>
<!-- Node4 -->
<g id="node4" class="node">
<title>Node4</title>
<g id="a_node4"><a xlink:href="namespaceflow_1_1util.html#aa079e37d8ddc1b8f76b792e377dd80bd" target="_top" xlink:title="Writes to the specified string, as if the given arguments were each passed, via &lt;&lt; in sequence,...">
<polygon fill="white" stroke="black" points="289,-63.5 289,-89.5 381,-89.5 381,-63.5 289,-63.5"/>
<text text-anchor="start" x="297" y="-79.1" font-family="Helvetica,sans-Serif" font-size="8.00">flow::util::ostream</text>
<text text-anchor="middle" x="335" y="-70.1" font-family="Helvetica,sans-Serif" font-size="8.00">_op_to_string</text>
</a>
</g>
</g>
<!-- Node3&#45;&gt;Node4 -->
<g id="edge3" class="edge">
<title>Node3&#45;&gt;Node4</title>
<path fill="none" stroke="midnightblue" d="M253.13,-57.33C261.67,-59.36 270.51,-61.45 279.07,-63.48"/>
<polygon fill="midnightblue" stroke="midnightblue" points="278.42,-66.92 288.96,-65.82 280.03,-60.11 278.42,-66.92"/>
</g>
<!-- Node6 -->
<g id="node6" class="node">
<title>Node6</title>
<g id="a_node6"><a xlink:href="classflow_1_1util_1_1Linked__hash__map.html#a97ea7121aa85856c9d977777f6c7c510" target="_top" xlink:title="Returns number of elements stored.">
<polygon fill="white" stroke="black" points="292.5,-0.5 292.5,-26.5 377.5,-26.5 377.5,-0.5 292.5,-0.5"/>
<text text-anchor="start" x="300.5" y="-16.1" font-family="Helvetica,sans-Serif" font-size="8.00">flow::util::Linked</text>
<text text-anchor="middle" x="335" y="-7.1" font-family="Helvetica,sans-Serif" font-size="8.00">_hash_map::size</text>
</a>
</g>
</g>
<!-- Node3&#45;&gt;Node6 -->
<g id="edge5" class="edge">
<title>Node3&#45;&gt;Node6</title>
<path fill="none" stroke="midnightblue" d="M253.13,-32.07C262.82,-29.84 272.9,-27.53 282.51,-25.32"/>
<polygon fill="midnightblue" stroke="midnightblue" points="283.36,-28.72 292.33,-23.07 281.8,-21.9 283.36,-28.72"/>
</g>
<!-- Node5 -->
<g id="node5" class="node">
<title>Node5</title>
<g id="a_node5"><a xlink:href="namespaceflow_1_1util.html#a1bf7064869bb90466477e426b466f7d2" target="_top" xlink:title="Function template that simply outputs arguments 2+ via &lt;&lt; to the given ostream, in the order given.">
<polygon fill="white" stroke="black" points="417,-63.5 417,-89.5 515,-89.5 515,-63.5 417,-63.5"/>
<text text-anchor="start" x="425" y="-79.1" font-family="Helvetica,sans-Serif" font-size="8.00">flow::util::feed_args</text>
<text text-anchor="middle" x="466" y="-70.1" font-family="Helvetica,sans-Serif" font-size="8.00">_to_ostream</text>
</a>
</g>
</g>
<!-- Node4&#45;&gt;Node5 -->
<g id="edge4" class="edge">
<title>Node4&#45;&gt;Node5</title>
<path fill="none" stroke="midnightblue" d="M381.12,-76.5C389.28,-76.5 397.9,-76.5 406.38,-76.5"/>
<polygon fill="midnightblue" stroke="midnightblue" points="406.62,-80 416.62,-76.5 406.62,-73 406.62,-80"/>
</g>
<!-- Node6&#45;&gt;Node6 -->
<g id="edge6" class="edge">
<title>Node6&#45;&gt;Node6</title>
<path fill="none" stroke="midnightblue" d="M313.01,-26.77C306.34,-35.96 313.67,-45 335,-45 348,-45 355.8,-41.64 358.4,-36.94"/>
<polygon fill="midnightblue" stroke="midnightblue" points="361.83,-36.2 356.99,-26.77 354.89,-37.16 361.83,-36.2"/>
</g>
</g>
</svg>
