<?xml version="1.0" encoding="UTF-8" standalone="no"?>
<!DOCTYPE svg PUBLIC "-//W3C//DTD SVG 1.1//EN"
 "http://www.w3.org/Graphics/SVG/1.1/DTD/svg11.dtd">
<!-- Generated by graphviz version 2.43.0 (0)
 -->
<!-- Title: flow::net_flow::Drop_timer::start_timer Pages: 1 -->
<svg width="249pt" height="180pt"
 viewBox="0.00 0.00 249.00 180.00" xmlns="http://www.w3.org/2000/svg" xmlns:xlink="http://www.w3.org/1999/xlink">
<g id="graph0" class="graph" transform="scale(1 1) rotate(0) translate(4 176)">
<title>flow::net_flow::Drop_timer::start_timer</title>
<polygon fill="white" stroke="transparent" points="-4,4 -4,-176 245,-176 245,4 -4,4"/>
<!-- Node1 -->
<g id="node1" class="node">
<title>Node1</title>
<g id="a_node1"><a xlink:title="Starts a new wait on the timer, so that is it asynchronously triggered according to the current DTO v...">
<polygon fill="#bfbfbf" stroke="black" points="0,-75.5 0,-101.5 98,-101.5 98,-75.5 0,-75.5"/>
<text text-anchor="start" x="8" y="-91.1" font-family="Helvetica,sans-Serif" font-size="8.00">flow::net_flow::Drop</text>
<text text-anchor="middle" x="49" y="-82.1" font-family="Helvetica,sans-Serif" font-size="8.00">_timer::start_timer</text>
</a>
</g>
</g>
<!-- Node2 -->
<g id="node2" class="node">
<title>Node2</title>
<g id="a_node2"><a xlink:href="classflow_1_1log_1_1Log__context.html#a8a5fef42dc2cedf3c0d1a6e83beb2948" target="_top" xlink:title="Returns reference to the stored Component object, particularly as many FLOW_LOG_*() macros expect.">
<polygon fill="white" stroke="black" points="134,-145.5 134,-171.5 241,-171.5 241,-145.5 134,-145.5"/>
<text text-anchor="start" x="142" y="-161.1" font-family="Helvetica,sans-Serif" font-size="8.00">flow::log::Log_context</text>
<text text-anchor="middle" x="187.5" y="-152.1" font-family="Helvetica,sans-Serif" font-size="8.00">::get_log_component</text>
</a>
</g>
</g>
<!-- Node1&#45;&gt;Node2 -->
<g id="edge1" class="edge">
<title>Node1&#45;&gt;Node2</title>
<path fill="none" stroke="midnightblue" d="M71.36,-101.67C88.11,-111.76 112.16,-125.73 134,-136.5 137.34,-138.15 140.84,-139.79 144.38,-141.39"/>
<polygon fill="midnightblue" stroke="midnightblue" points="143.17,-144.68 153.73,-145.5 145.99,-138.27 143.17,-144.68"/>
</g>
<!-- Node3 -->
<g id="node3" class="node">
<title>Node3</title>
<g id="a_node3"><a xlink:href="classflow_1_1log_1_1Log__context.html#af4db395042b065b00398cd59845dcb4d" target="_top" xlink:title="Returns the stored Logger pointer, particularly as many FLOW_LOG_*() macros expect.">
<polygon fill="white" stroke="black" points="134,-100.5 134,-126.5 241,-126.5 241,-100.5 134,-100.5"/>
<text text-anchor="start" x="142" y="-116.1" font-family="Helvetica,sans-Serif" font-size="8.00">flow::log::Log_context</text>
<text text-anchor="middle" x="187.5" y="-107.1" font-family="Helvetica,sans-Serif" font-size="8.00">::get_logger</text>
</a>
</g>
</g>
<!-- Node1&#45;&gt;Node3 -->
<g id="edge2" class="edge">
<title>Node1&#45;&gt;Node3</title>
<path fill="none" stroke="midnightblue" d="M98.12,-97.31C106.4,-98.83 115.11,-100.42 123.7,-102"/>
<polygon fill="midnightblue" stroke="midnightblue" points="123.24,-105.47 133.7,-103.83 124.5,-98.59 123.24,-105.47"/>
</g>
<!-- Node4 -->
<g id="node4" class="node">
<title>Node4</title>
<g id="a_node4"><a xlink:href="classflow_1_1net__flow_1_1Drop__timer.html#aaf4f0fce1d41e16309beca40a126e2f0" target="_top" xlink:title="Called by boost.asio when the Drop Timer fires; disables timer and calls an outside action callback (...">
<polygon fill="white" stroke="black" points="137,-46 137,-81 238,-81 238,-46 137,-46"/>
<text text-anchor="start" x="145" y="-70.6" font-family="Helvetica,sans-Serif" font-size="8.00">flow::net_flow::Drop</text>
<text text-anchor="start" x="145" y="-61.6" font-family="Helvetica,sans-Serif" font-size="8.00">_timer::handle_timer</text>
<text text-anchor="middle" x="187.5" y="-52.6" font-family="Helvetica,sans-Serif" font-size="8.00">_firing</text>
</a>
</g>
</g>
<!-- Node1&#45;&gt;Node4 -->
<g id="edge3" class="edge">
<title>Node1&#45;&gt;Node4</title>
<path fill="none" stroke="midnightblue" d="M98.12,-79.69C107.47,-77.97 117.36,-76.16 127.02,-74.39"/>
<polygon fill="midnightblue" stroke="midnightblue" points="127.76,-77.82 136.96,-72.57 126.5,-70.93 127.76,-77.82"/>
</g>
<!-- Node5 -->
<g id="node5" class="node">
<title>Node5</title>
<g id="a_node5"><a xlink:href="classflow_1_1log_1_1Logger.html#ac8a2e7a33fe3fbc0c29ead62ed98c022" target="_top" xlink:title="Given attributes of a hypothetical message that would be logged, return true if that message should b...">
<polygon fill="white" stroke="black" points="141.5,-0.5 141.5,-26.5 233.5,-26.5 233.5,-0.5 141.5,-0.5"/>
<text text-anchor="start" x="149.5" y="-16.1" font-family="Helvetica,sans-Serif" font-size="8.00">flow::log::Logger::</text>
<text text-anchor="middle" x="187.5" y="-7.1" font-family="Helvetica,sans-Serif" font-size="8.00">should_log</text>
</a>
</g>
</g>
<!-- Node1&#45;&gt;Node5 -->
<g id="edge4" class="edge">
<title>Node1&#45;&gt;Node5</title>
<path fill="none" stroke="midnightblue" d="M69.56,-75.29C86.3,-64.26 111.22,-48.46 134,-36.5 137.72,-34.55 141.63,-32.61 145.59,-30.75"/>
<polygon fill="midnightblue" stroke="midnightblue" points="147.15,-33.88 154.79,-26.53 144.24,-27.51 147.15,-33.88"/>
</g>
</g>
</svg>
