<?xml version="1.0" encoding="UTF-8" standalone="no"?>
<!DOCTYPE svg PUBLIC "-//W3C//DTD SVG 1.1//EN"
 "http://www.w3.org/Graphics/SVG/1.1/DTD/svg11.dtd">
<!-- Generated by graphviz version 2.43.0 (0)
 -->
<!-- Title: flow::net_flow::Peer_socket::sync_send Pages: 1 -->
<svg width="859pt" height="407pt"
 viewBox="0.00 0.00 859.00 407.00" xmlns="http://www.w3.org/2000/svg" xmlns:xlink="http://www.w3.org/1999/xlink">
<g id="graph0" class="graph" transform="scale(1 1) rotate(0) translate(4 403)">
<title>flow::net_flow::Peer_socket::sync_send</title>
<polygon fill="white" stroke="transparent" points="-4,4 -4,-403 855,-403 855,4 -4,4"/>
<!-- Node1 -->
<g id="node1" class="node">
<title>Node1</title>
<g id="a_node1"><a xlink:title="Equivalent to sync_send(data, duration::max(), err_code); i.e., sync_send() with no timeout.">
<polygon fill="#bfbfbf" stroke="black" points="0,-241.5 0,-267.5 97,-267.5 97,-241.5 0,-241.5"/>
<text text-anchor="start" x="8" y="-257.1" font-family="Helvetica,sans-Serif" font-size="8.00">flow::net_flow::Peer</text>
<text text-anchor="middle" x="48.5" y="-248.1" font-family="Helvetica,sans-Serif" font-size="8.00">_socket::sync_send</text>
</a>
</g>
</g>
<!-- Node2 -->
<g id="node2" class="node">
<title>Node2</title>
<g id="a_node2"><a xlink:href="classflow_1_1net__flow_1_1Peer__socket.html#a3f1a802024549a59978a53343b09a86d" target="_top" xlink:title="Same as sync_send() but uses a Fine_clock&#45;based Fine_duration non&#45;template type for implementation co...">
<polygon fill="white" stroke="black" points="133,-241.5 133,-267.5 250,-267.5 250,-241.5 133,-241.5"/>
<text text-anchor="start" x="141" y="-257.1" font-family="Helvetica,sans-Serif" font-size="8.00">flow::net_flow::Peer</text>
<text text-anchor="middle" x="191.5" y="-248.1" font-family="Helvetica,sans-Serif" font-size="8.00">_socket::sync_send_impl</text>
</a>
</g>
</g>
<!-- Node1&#45;&gt;Node2 -->
<g id="edge1" class="edge">
<title>Node1&#45;&gt;Node2</title>
<path fill="none" stroke="midnightblue" d="M97.24,-254.5C105.3,-254.5 113.81,-254.5 122.28,-254.5"/>
<polygon fill="midnightblue" stroke="midnightblue" points="122.55,-258 132.55,-254.5 122.55,-251 122.55,-258"/>
</g>
<!-- Node3 -->
<g id="node3" class="node">
<title>Node3</title>
<g id="a_node3"><a xlink:href="classflow_1_1net__flow_1_1Socket__buffer.html#a69a0c514df820c36e7109fb1fcf78522" target="_top" xlink:title="Feeds (adds to the back of the byte buffer) the contents of the byte stream composed of the bytes in ...">
<polygon fill="white" stroke="black" points="289.5,-285.5 289.5,-311.5 403.5,-311.5 403.5,-285.5 289.5,-285.5"/>
<text text-anchor="start" x="297.5" y="-301.1" font-family="Helvetica,sans-Serif" font-size="8.00">flow::net_flow::Socket</text>
<text text-anchor="middle" x="346.5" y="-292.1" font-family="Helvetica,sans-Serif" font-size="8.00">_buffer::feed_bufs_copy</text>
</a>
</g>
</g>
<!-- Node2&#45;&gt;Node3 -->
<g id="edge2" class="edge">
<title>Node2&#45;&gt;Node3</title>
<path fill="none" stroke="midnightblue" d="M237.99,-267.58C254.41,-272.3 273.13,-277.69 290.29,-282.62"/>
<polygon fill="midnightblue" stroke="midnightblue" points="289.61,-286.07 300.18,-285.47 291.54,-279.34 289.61,-286.07"/>
</g>
<!-- Node8 -->
<g id="node8" class="node">
<title>Node8</title>
<g id="a_node8"><a xlink:href="classflow_1_1net__flow_1_1Peer__socket.html#a34e2c7dfb5596269a6f86a716015f1a6" target="_top" xlink:title="This is to sync_send() as node_send() is to send().">
<polygon fill="white" stroke="black" points="286,-198.5 286,-224.5 407,-224.5 407,-198.5 286,-198.5"/>
<text text-anchor="start" x="294" y="-214.1" font-family="Helvetica,sans-Serif" font-size="8.00">flow::net_flow::Peer</text>
<text text-anchor="middle" x="346.5" y="-205.1" font-family="Helvetica,sans-Serif" font-size="8.00">_socket::node_sync_send</text>
</a>
</g>
</g>
<!-- Node2&#45;&gt;Node8 -->
<g id="edge7" class="edge">
<title>Node2&#45;&gt;Node8</title>
<path fill="none" stroke="midnightblue" d="M238.82,-241.48C254.63,-237.04 272.48,-232.02 288.99,-227.38"/>
<polygon fill="midnightblue" stroke="midnightblue" points="290.39,-230.62 299.07,-224.55 288.5,-223.88 290.39,-230.62"/>
</g>
<!-- Node4 -->
<g id="node4" class="node">
<title>Node4</title>
<g id="a_node4"><a xlink:href="namespaceflow_1_1util.html#a16357344c21456b86b7de3085e2661a2" target="_top" xlink:title="Identical to buffers_to_ostream() but returns an std::string instead of writing to a given ostream.">
<polygon fill="white" stroke="black" points="451,-327.5 451,-353.5 537,-353.5 537,-327.5 451,-327.5"/>
<text text-anchor="start" x="459" y="-343.1" font-family="Helvetica,sans-Serif" font-size="8.00">flow::util::buffers</text>
<text text-anchor="middle" x="494" y="-334.1" font-family="Helvetica,sans-Serif" font-size="8.00">_dump_string</text>
</a>
</g>
</g>
<!-- Node3&#45;&gt;Node4 -->
<g id="edge3" class="edge">
<title>Node3&#45;&gt;Node4</title>
<path fill="none" stroke="midnightblue" d="M392.74,-311.56C408.08,-315.99 425.33,-320.97 441.14,-325.53"/>
<polygon fill="midnightblue" stroke="midnightblue" points="440.19,-328.9 450.77,-328.31 442.13,-322.17 440.19,-328.9"/>
</g>
<!-- Node7 -->
<g id="node7" class="node">
<title>Node7</title>
<g id="a_node7"><a xlink:href="classflow_1_1log_1_1Log__context.html#af4db395042b065b00398cd59845dcb4d" target="_top" xlink:title="Returns the stored Logger pointer, particularly as many FLOW_LOG_*() macros expect.">
<polygon fill="white" stroke="black" points="744,-165.5 744,-191.5 851,-191.5 851,-165.5 744,-165.5"/>
<text text-anchor="start" x="752" y="-181.1" font-family="Helvetica,sans-Serif" font-size="8.00">flow::log::Log_context</text>
<text text-anchor="middle" x="797.5" y="-172.1" font-family="Helvetica,sans-Serif" font-size="8.00">::get_logger</text>
</a>
</g>
</g>
<!-- Node3&#45;&gt;Node7 -->
<g id="edge6" class="edge">
<title>Node3&#45;&gt;Node7</title>
<path fill="none" stroke="midnightblue" d="M403.62,-308.43C477.48,-318.72 609.47,-327.33 708,-279.5 742.99,-262.51 769.97,-224.76 784.51,-200.53"/>
<polygon fill="midnightblue" stroke="midnightblue" points="787.65,-202.09 789.63,-191.68 781.59,-198.58 787.65,-202.09"/>
</g>
<!-- Node5 -->
<g id="node5" class="node">
<title>Node5</title>
<g id="a_node5"><a xlink:href="namespaceflow_1_1util.html#aa132928b364caefca5c3821e019924bf" target="_top" xlink:title="Writes a multi&#45; or single&#45;line string representation of the provided binary data to an output stream,...">
<polygon fill="white" stroke="black" points="601.5,-372.5 601.5,-398.5 687.5,-398.5 687.5,-372.5 601.5,-372.5"/>
<text text-anchor="start" x="609.5" y="-388.1" font-family="Helvetica,sans-Serif" font-size="8.00">flow::util::buffers</text>
<text text-anchor="middle" x="644.5" y="-379.1" font-family="Helvetica,sans-Serif" font-size="8.00">_to_ostream</text>
</a>
</g>
</g>
<!-- Node4&#45;&gt;Node5 -->
<g id="edge4" class="edge">
<title>Node4&#45;&gt;Node5</title>
<path fill="none" stroke="midnightblue" d="M537.16,-353.27C554.16,-358.43 573.94,-364.42 591.8,-369.83"/>
<polygon fill="midnightblue" stroke="midnightblue" points="590.91,-373.22 601.49,-372.77 592.94,-366.52 590.91,-373.22"/>
</g>
<!-- Node6 -->
<g id="node6" class="node">
<title>Node6</title>
<g id="a_node6"><a xlink:href="classflow_1_1util_1_1String__ostream.html#a7e64b069ae0e221952068c13fdc0f080" target="_top" xlink:title="Access to stream that will write to owned string.">
<polygon fill="white" stroke="black" points="603.5,-327.5 603.5,-353.5 685.5,-353.5 685.5,-327.5 603.5,-327.5"/>
<text text-anchor="start" x="611.5" y="-343.1" font-family="Helvetica,sans-Serif" font-size="8.00">flow::util::String</text>
<text text-anchor="middle" x="644.5" y="-334.1" font-family="Helvetica,sans-Serif" font-size="8.00">_ostream::os</text>
</a>
</g>
</g>
<!-- Node4&#45;&gt;Node6 -->
<g id="edge5" class="edge">
<title>Node4&#45;&gt;Node6</title>
<path fill="none" stroke="midnightblue" d="M537.16,-340.5C554.58,-340.5 574.93,-340.5 593.14,-340.5"/>
<polygon fill="midnightblue" stroke="midnightblue" points="593.28,-344 603.28,-340.5 593.28,-337 593.28,-344"/>
</g>
<!-- Node9 -->
<g id="node9" class="node">
<title>Node9</title>
<g id="a_node9"><a xlink:href="classflow_1_1net__flow_1_1Node.html#a109a118ca312e94686595ea08dac7ad0" target="_top" xlink:title="Helper method that checks whether the given Peer_socket or Server_socket is CLOSED; if so,...">
<polygon fill="white" stroke="black" points="443.5,-243.5 443.5,-269.5 544.5,-269.5 544.5,-243.5 443.5,-243.5"/>
<text text-anchor="start" x="451.5" y="-259.1" font-family="Helvetica,sans-Serif" font-size="8.00">flow::net_flow::Node</text>
<text text-anchor="middle" x="494" y="-250.1" font-family="Helvetica,sans-Serif" font-size="8.00">::ensure_sock_open</text>
</a>
</g>
</g>
<!-- Node8&#45;&gt;Node9 -->
<g id="edge8" class="edge">
<title>Node8&#45;&gt;Node9</title>
<path fill="none" stroke="midnightblue" d="M389.58,-224.52C405.65,-229.48 424.16,-235.21 441.04,-240.43"/>
<polygon fill="midnightblue" stroke="midnightblue" points="440.17,-243.82 450.76,-243.44 442.24,-237.14 440.17,-243.82"/>
</g>
<!-- Node10 -->
<g id="node10" class="node">
<title>Node10</title>
<g id="a_node10"><a xlink:href="classflow_1_1net__flow_1_1Peer__socket.html#a5003c554807f5b5b58989ad58be48d42" target="_top" xlink:title="Constructs object; initializes most values to well&#45;defined (0, empty, etc.) but not necessarily meani...">
<polygon fill="white" stroke="black" points="443,-198.5 443,-224.5 545,-224.5 545,-198.5 443,-198.5"/>
<text text-anchor="start" x="451" y="-214.1" font-family="Helvetica,sans-Serif" font-size="8.00">flow::net_flow::Peer</text>
<text text-anchor="middle" x="494" y="-205.1" font-family="Helvetica,sans-Serif" font-size="8.00">_socket::Peer_socket</text>
</a>
</g>
</g>
<!-- Node8&#45;&gt;Node10 -->
<g id="edge9" class="edge">
<title>Node8&#45;&gt;Node10</title>
<path fill="none" stroke="midnightblue" d="M407.1,-211.5C415.47,-211.5 424.08,-211.5 432.47,-211.5"/>
<polygon fill="midnightblue" stroke="midnightblue" points="432.55,-215 442.55,-211.5 432.55,-208 432.55,-215"/>
</g>
<!-- Node13 -->
<g id="node12" class="node">
<title>Node13</title>
<g id="a_node12"><a xlink:href="classflow_1_1net__flow_1_1Node.html#aa19d1f49638ef8ce8883e7477a06d3fc" target="_top" xlink:title="Implementation of non&#45;blocking sock&#45;&gt;send() for socket sock in all cases except when sock&#45;&gt;state() ==...">
<polygon fill="white" stroke="black" points="443.5,-153.5 443.5,-179.5 544.5,-179.5 544.5,-153.5 443.5,-153.5"/>
<text text-anchor="start" x="451.5" y="-169.1" font-family="Helvetica,sans-Serif" font-size="8.00">flow::net_flow::Node</text>
<text text-anchor="middle" x="494" y="-160.1" font-family="Helvetica,sans-Serif" font-size="8.00">::send</text>
</a>
</g>
</g>
<!-- Node8&#45;&gt;Node13 -->
<g id="edge11" class="edge">
<title>Node8&#45;&gt;Node13</title>
<path fill="none" stroke="midnightblue" d="M389.58,-198.48C405.65,-193.52 424.16,-187.79 441.04,-182.57"/>
<polygon fill="midnightblue" stroke="midnightblue" points="442.24,-185.86 450.76,-179.56 440.17,-179.18 442.24,-185.86"/>
</g>
<!-- Node74 -->
<g id="node16" class="node">
<title>Node74</title>
<g id="a_node16"><a xlink:href="classflow_1_1net__flow_1_1Node.html#a2a4dc3d8e294bbc8423e111f52e414ae" target="_top" xlink:title="Implementation of core blocking transfer methods, namely Peer_socket::sync_send(),...">
<polygon fill="white" stroke="black" points="443.5,-77.5 443.5,-103.5 544.5,-103.5 544.5,-77.5 443.5,-77.5"/>
<text text-anchor="start" x="451.5" y="-93.1" font-family="Helvetica,sans-Serif" font-size="8.00">flow::net_flow::Node</text>
<text text-anchor="middle" x="494" y="-84.1" font-family="Helvetica,sans-Serif" font-size="8.00">::sync_op</text>
</a>
</g>
</g>
<!-- Node8&#45;&gt;Node74 -->
<g id="edge15" class="edge">
<title>Node8&#45;&gt;Node74</title>
<path fill="none" stroke="midnightblue" d="M363.35,-198.32C388.93,-177.05 439.47,-135.01 469.34,-110.18"/>
<polygon fill="midnightblue" stroke="midnightblue" points="471.72,-112.75 477.17,-103.66 467.24,-107.37 471.72,-112.75"/>
</g>
<!-- Node11 -->
<g id="node11" class="node">
<title>Node11</title>
<g id="a_node11"><a xlink:href="classflow_1_1net__flow_1_1Peer__socket.html#ad94e37c8cca01f801f13e9e0e0bc857d" target="_top" xlink:title="Copies this socket&#39;s option set and returns that copy.">
<polygon fill="white" stroke="red" points="596,-243.5 596,-269.5 693,-269.5 693,-243.5 596,-243.5"/>
<text text-anchor="start" x="604" y="-259.1" font-family="Helvetica,sans-Serif" font-size="8.00">flow::net_flow::Peer</text>
<text text-anchor="middle" x="644.5" y="-250.1" font-family="Helvetica,sans-Serif" font-size="8.00">_socket::options</text>
</a>
</g>
</g>
<!-- Node10&#45;&gt;Node11 -->
<g id="edge10" class="edge">
<title>Node10&#45;&gt;Node11</title>
<path fill="none" stroke="midnightblue" d="M537.95,-224.52C554.35,-229.48 573.24,-235.21 590.47,-240.43"/>
<polygon fill="midnightblue" stroke="midnightblue" points="589.8,-243.88 600.39,-243.44 591.83,-237.19 589.8,-243.88"/>
</g>
<!-- Node14 -->
<g id="node13" class="node">
<title>Node14</title>
<g id="a_node13"><a xlink:href="classflow_1_1net__flow_1_1Node.html#aae148cec361b59237996a4b30c6624b5" target="_top" xlink:title="Returns true if and only if the Node is operating.">
<polygon fill="white" stroke="black" points="594,-108.5 594,-134.5 695,-134.5 695,-108.5 594,-108.5"/>
<text text-anchor="start" x="602" y="-124.1" font-family="Helvetica,sans-Serif" font-size="8.00">flow::net_flow::Node</text>
<text text-anchor="middle" x="644.5" y="-115.1" font-family="Helvetica,sans-Serif" font-size="8.00">::running</text>
</a>
</g>
</g>
<!-- Node13&#45;&gt;Node14 -->
<g id="edge12" class="edge">
<title>Node13&#45;&gt;Node14</title>
<path fill="none" stroke="midnightblue" d="M537.95,-153.48C554.35,-148.52 573.24,-142.79 590.47,-137.57"/>
<polygon fill="midnightblue" stroke="midnightblue" points="591.83,-140.81 600.39,-134.56 589.8,-134.12 591.83,-140.81"/>
</g>
<!-- Node15 -->
<g id="node14" class="node">
<title>Node15</title>
<g id="a_node14"><a xlink:href="classflow_1_1net__flow_1_1Node.html#a2565b7c0bd82cad86eb168b62f8ffd9d" target="_top" xlink:title="Helper placed by send() onto W to invoke send_worker() but ensures that the socket has not entered so...">
<polygon fill="white" stroke="red" points="581,-198.5 581,-224.5 708,-224.5 708,-198.5 581,-198.5"/>
<text text-anchor="start" x="589" y="-214.1" font-family="Helvetica,sans-Serif" font-size="8.00">flow::net_flow::Node</text>
<text text-anchor="middle" x="644.5" y="-205.1" font-family="Helvetica,sans-Serif" font-size="8.00">::send_worker_check_state</text>
</a>
</g>
</g>
<!-- Node13&#45;&gt;Node15 -->
<g id="edge13" class="edge">
<title>Node13&#45;&gt;Node15</title>
<path fill="none" stroke="midnightblue" d="M537.95,-179.52C554.35,-184.48 573.24,-190.21 590.47,-195.43"/>
<polygon fill="midnightblue" stroke="midnightblue" points="589.8,-198.88 600.39,-198.44 591.83,-192.19 589.8,-198.88"/>
</g>
<!-- Node70 -->
<g id="node15" class="node">
<title>Node70</title>
<g id="a_node15"><a xlink:href="classflow_1_1net__flow_1_1Node.html#a382b607fa2e482886f2fd75edc36b8b7" target="_top" xlink:title="Return true if and only if there are enough data either in Peer_socket::m_snd_rexmit_q of sock (if re...">
<polygon fill="white" stroke="black" points="594,-153.5 594,-179.5 695,-179.5 695,-153.5 594,-153.5"/>
<text text-anchor="start" x="602" y="-169.1" font-family="Helvetica,sans-Serif" font-size="8.00">flow::net_flow::Node</text>
<text text-anchor="middle" x="644.5" y="-160.1" font-family="Helvetica,sans-Serif" font-size="8.00">::snd_deqable</text>
</a>
</g>
</g>
<!-- Node13&#45;&gt;Node70 -->
<g id="edge14" class="edge">
<title>Node13&#45;&gt;Node70</title>
<path fill="none" stroke="midnightblue" d="M544.86,-166.5C557.29,-166.5 570.75,-166.5 583.61,-166.5"/>
<polygon fill="midnightblue" stroke="midnightblue" points="583.77,-170 593.77,-166.5 583.77,-163 583.77,-170"/>
</g>
<!-- Node74&#45;&gt;Node14 -->
<g id="edge19" class="edge">
<title>Node74&#45;&gt;Node14</title>
<path fill="none" stroke="midnightblue" d="M544.86,-100.91C557.29,-103.5 570.75,-106.31 583.61,-109"/>
<polygon fill="midnightblue" stroke="midnightblue" points="583.27,-112.5 593.77,-111.12 584.7,-105.65 583.27,-112.5"/>
</g>
<!-- Node75 -->
<g id="node17" class="node">
<title>Node75</title>
<g id="a_node17"><a xlink:href="classflow_1_1net__flow_1_1Node.html#ad100464cf0126dbbad39bde1c90a774f" target="_top" xlink:title="Creates a new Event_set in Event_set::State::S_INACTIVE state with no sockets/events stored; returns ...">
<polygon fill="white" stroke="red" points="594,-45.5 594,-71.5 695,-71.5 695,-45.5 594,-45.5"/>
<text text-anchor="start" x="602" y="-61.1" font-family="Helvetica,sans-Serif" font-size="8.00">flow::net_flow::Node</text>
<text text-anchor="middle" x="644.5" y="-52.1" font-family="Helvetica,sans-Serif" font-size="8.00">::event_set_create</text>
</a>
</g>
</g>
<!-- Node74&#45;&gt;Node75 -->
<g id="edge16" class="edge">
<title>Node74&#45;&gt;Node75</title>
<path fill="none" stroke="midnightblue" d="M544.86,-79.76C557.29,-77.08 570.75,-74.18 583.61,-71.4"/>
<polygon fill="midnightblue" stroke="midnightblue" points="584.73,-74.74 593.77,-69.22 583.26,-67.9 584.73,-74.74"/>
</g>
<!-- Node80 -->
<g id="node18" class="node">
<title>Node80</title>
<g id="a_node18"><a xlink:href="namespaceflow_1_1util.html#a09a032f8e1e77a3afc0b7df115a773e1" target="_top" xlink:title="Provides a way to execute arbitrary (cleanup) code at the exit of the current block.">
<polygon fill="white" stroke="black" points="592.5,-0.5 592.5,-26.5 696.5,-26.5 696.5,-0.5 592.5,-0.5"/>
<text text-anchor="start" x="600.5" y="-16.1" font-family="Helvetica,sans-Serif" font-size="8.00">flow::util::setup_auto</text>
<text text-anchor="middle" x="644.5" y="-7.1" font-family="Helvetica,sans-Serif" font-size="8.00">_cleanup</text>
</a>
</g>
</g>
<!-- Node74&#45;&gt;Node80 -->
<g id="edge20" class="edge">
<title>Node74&#45;&gt;Node80</title>
<path fill="none" stroke="midnightblue" d="M512.74,-77.43C529.65,-65.39 556.15,-47.62 581,-35.5 584.72,-33.68 588.63,-31.95 592.61,-30.3"/>
<polygon fill="midnightblue" stroke="midnightblue" points="593.91,-33.54 601.93,-26.62 591.35,-27.03 593.91,-33.54"/>
</g>
<!-- Node75&#45;&gt;Node7 -->
<g id="edge18" class="edge">
<title>Node75&#45;&gt;Node7</title>
<path fill="none" stroke="midnightblue" d="M667.79,-71.53C680,-78.96 695.2,-88.73 708,-98.5 732.55,-117.25 758.54,-141.31 775.95,-158.12"/>
<polygon fill="midnightblue" stroke="midnightblue" points="773.71,-160.82 783.31,-165.3 778.59,-155.81 773.71,-160.82"/>
</g>
<!-- Node75&#45;&gt;Node75 -->
<g id="edge17" class="edge">
<title>Node75&#45;&gt;Node75</title>
<path fill="none" stroke="midnightblue" d="M619.12,-71.77C611.43,-80.96 619.89,-90 644.5,-90 659.5,-90 668.5,-86.64 671.5,-81.94"/>
<polygon fill="midnightblue" stroke="midnightblue" points="674.91,-81.1 669.88,-71.77 667.99,-82.2 674.91,-81.1"/>
</g>
</g>
</svg>
