<?xml version="1.0" encoding="UTF-8" standalone="no"?>
<!DOCTYPE svg PUBLIC "-//W3C//DTD SVG 1.1//EN"
 "http://www.w3.org/Graphics/SVG/1.1/DTD/svg11.dtd">
<!-- Generated by graphviz version 2.43.0 (0)
 -->
<!-- Title: flow::net_flow::Event_set::sync_wait_impl Pages: 1 -->
<svg width="248pt" height="35pt"
 viewBox="0.00 0.00 248.00 35.00" xmlns="http://www.w3.org/2000/svg" xmlns:xlink="http://www.w3.org/1999/xlink">
<g id="graph0" class="graph" transform="scale(1 1) rotate(0) translate(4 31)">
<title>flow::net_flow::Event_set::sync_wait_impl</title>
<polygon fill="white" stroke="transparent" points="-4,4 -4,-31 244,-31 244,4 -4,4"/>
<!-- Node1 -->
<g id="node1" class="node">
<title>Node1</title>
<g id="a_node1"><a xlink:title="Same as the public sync_wait(max_wait) but uses a Fine_clock&#45;based Fine_duration non&#45;template type fo...">
<polygon fill="#bfbfbf" stroke="black" points="138,-0.5 138,-26.5 240,-26.5 240,-0.5 138,-0.5"/>
<text text-anchor="start" x="146" y="-16.1" font-family="Helvetica,sans-Serif" font-size="8.00">flow::net_flow::Event</text>
<text text-anchor="middle" x="189" y="-7.1" font-family="Helvetica,sans-Serif" font-size="8.00">_set::sync_wait_impl</text>
</a>
</g>
</g>
<!-- Node2 -->
<g id="node2" class="node">
<title>Node2</title>
<g id="a_node2"><a xlink:href="classflow_1_1net__flow_1_1Event__set.html#ae7c950b1663a58bb4de6d8b48a2fc9a1" target="_top" xlink:title="Same as the other sync_wait() but will stop waiting if the timeout given as argument expires.">
<polygon fill="white" stroke="black" points="0,-0.5 0,-26.5 102,-26.5 102,-0.5 0,-0.5"/>
<text text-anchor="start" x="8" y="-16.1" font-family="Helvetica,sans-Serif" font-size="8.00">flow::net_flow::Event</text>
<text text-anchor="middle" x="51" y="-7.1" font-family="Helvetica,sans-Serif" font-size="8.00">_set::sync_wait</text>
</a>
</g>
</g>
<!-- Node1&#45;&gt;Node2 -->
<g id="edge1" class="edge">
<title>Node1&#45;&gt;Node2</title>
<path fill="none" stroke="midnightblue" d="M127.49,-13.5C118.99,-13.5 110.33,-13.5 102.05,-13.5"/>
<polygon fill="midnightblue" stroke="midnightblue" points="127.75,-17 137.75,-13.5 127.74,-10 127.75,-17"/>
</g>
</g>
</svg>
