<?xml version="1.0" encoding="UTF-8" standalone="no"?>
<!DOCTYPE svg PUBLIC "-//W3C//DTD SVG 1.1//EN"
 "http://www.w3.org/Graphics/SVG/1.1/DTD/svg11.dtd">
<!-- Generated by graphviz version 2.43.0 (0)
 -->
<!-- Title: flow::log::Component::Component Pages: 1 -->
<svg width="254pt" height="80pt"
 viewBox="0.00 0.00 254.00 80.00" xmlns="http://www.w3.org/2000/svg" xmlns:xlink="http://www.w3.org/1999/xlink">
<g id="graph0" class="graph" transform="scale(1 1) rotate(0) translate(4 76)">
<title>flow::log::Component::Component</title>
<polygon fill="white" stroke="transparent" points="-4,4 -4,-76 250,-76 250,4 -4,4"/>
<!-- Node1 -->
<g id="node1" class="node">
<title>Node1</title>
<g id="a_node1"><a xlink:title="Constructs a Component with the given payload of arbitrary type, so long as that type is an enum clas...">
<polygon fill="#bfbfbf" stroke="black" points="0,-22.5 0,-48.5 105,-48.5 105,-22.5 0,-22.5"/>
<text text-anchor="start" x="8" y="-38.1" font-family="Helvetica,sans-Serif" font-size="8.00">flow::log::Component</text>
<text text-anchor="middle" x="52.5" y="-29.1" font-family="Helvetica,sans-Serif" font-size="8.00">::Component</text>
</a>
</g>
</g>
<!-- Node2 -->
<g id="node2" class="node">
<title>Node2</title>
<g id="a_node2"><a xlink:href="classflow_1_1log_1_1Component.html#a146ce02cc7422b3a3bca07533536450e" target="_top" xlink:title="Overwrites *this with a copy of src.">
<polygon fill="white" stroke="black" points="141,-45.5 141,-71.5 246,-71.5 246,-45.5 141,-45.5"/>
<text text-anchor="start" x="149" y="-61.1" font-family="Helvetica,sans-Serif" font-size="8.00">flow::log::Component</text>
<text text-anchor="middle" x="193.5" y="-52.1" font-family="Helvetica,sans-Serif" font-size="8.00">::operator=</text>
</a>
</g>
</g>
<!-- Node1&#45;&gt;Node2 -->
<g id="edge1" class="edge">
<title>Node1&#45;&gt;Node2</title>
<path fill="none" stroke="midnightblue" d="M105.26,-44.06C113.58,-45.44 122.27,-46.88 130.79,-48.29"/>
<polygon fill="midnightblue" stroke="midnightblue" points="130.26,-51.75 140.7,-49.93 131.4,-44.84 130.26,-51.75"/>
</g>
<!-- Node3 -->
<g id="node3" class="node">
<title>Node3</title>
<g id="a_node3"><a xlink:href="classflow_1_1log_1_1Component.html#a656f5868adbd8c58c493981fe1764699" target="_top" xlink:title="Returns reference to immutable payload stored in *this; undefined behavior if empty() == true.">
<polygon fill="white" stroke="black" points="141,-0.5 141,-26.5 246,-26.5 246,-0.5 141,-0.5"/>
<text text-anchor="start" x="149" y="-16.1" font-family="Helvetica,sans-Serif" font-size="8.00">flow::log::Component</text>
<text text-anchor="middle" x="193.5" y="-7.1" font-family="Helvetica,sans-Serif" font-size="8.00">::payload</text>
</a>
</g>
</g>
<!-- Node1&#45;&gt;Node3 -->
<g id="edge2" class="edge">
<title>Node1&#45;&gt;Node3</title>
<path fill="none" stroke="midnightblue" d="M105.26,-27.31C113.58,-25.99 122.27,-24.62 130.79,-23.27"/>
<polygon fill="midnightblue" stroke="midnightblue" points="131.37,-26.72 140.7,-21.7 130.27,-19.81 131.37,-26.72"/>
</g>
</g>
</svg>
