<?xml version="1.0" encoding="UTF-8" standalone="no"?>
<!DOCTYPE svg PUBLIC "-//W3C//DTD SVG 1.1//EN"
 "http://www.w3.org/Graphics/SVG/1.1/DTD/svg11.dtd">
<!-- Generated by graphviz version 2.43.0 (0)
 -->
<!-- Title: util Pages: 1 -->
<svg width="150pt" height="148pt"
 viewBox="0.00 0.00 150.00 148.00" xmlns="http://www.w3.org/2000/svg" xmlns:xlink="http://www.w3.org/1999/xlink">
<g id="graph0" class="graph" transform="scale(1 1) rotate(0) translate(4 144)">
<title>util</title>
<polygon fill="white" stroke="transparent" points="-4,4 -4,-144 146,-144 146,4 -4,4"/>
<g id="clust1" class="cluster">
<title>clusterdir_23ec12649285f9fabf3a6b7380226c28</title>
<g id="a_clust1"><a xlink:href="dir_23ec12649285f9fabf3a6b7380226c28.html" target="_top">
<polygon fill="#edf0f7" stroke="#404040" stroke-width="2" points="8,-8 8,-132 78,-132 78,-8 8,-8"/>
</a>
</g>
</g>
<!-- dir_23ec12649285f9fabf3a6b7380226c28 -->
<g id="node1" class="node">
<title>dir_23ec12649285f9fabf3a6b7380226c28</title>
<text text-anchor="middle" x="43" y="-104.1" font-family="Helvetica,sans-Serif" font-size="8.00">util</text>
</g>
<!-- dir_076e4717ccf31a1bda117b982e8d440f -->
<g id="node2" class="node">
<title>dir_076e4717ccf31a1bda117b982e8d440f</title>
<g id="a_node2"><a xlink:href="dir_076e4717ccf31a1bda117b982e8d440f.html" target="_top" xlink:title="detail">
<polygon fill="#a2b4d6" stroke="#404040" points="70,-52 16,-52 16,-16 70,-16 70,-52"/>
<text text-anchor="middle" x="43" y="-32.1" font-family="Helvetica,sans-Serif" font-size="8.00">detail</text>
</a>
</g>
</g>
<!-- dir_23ec12649285f9fabf3a6b7380226c28&#45;&gt;dir_076e4717ccf31a1bda117b982e8d440f -->
<g id="edge1" class="edge">
<title>dir_23ec12649285f9fabf3a6b7380226c28&#45;&gt;dir_076e4717ccf31a1bda117b982e8d440f</title>
<path fill="none" stroke="black" d="M43,-87.7C43,-79.98 43,-70.71 43,-62.11"/>
<polygon fill="black" stroke="black" points="46.5,-62.1 43,-52.1 39.5,-62.1 46.5,-62.1"/>
<g id="a_edge1&#45;headlabel"><a xlink:href="dir_000019_000009.html" target="_top" xlink:title="5">
<text text-anchor="middle" x="49.34" y="-63.8" font-family="Helvetica,sans-Serif" font-size="8.00">5</text>
</a>
</g>
</g>
<!-- dir_9381a7bbd03577d6d8720c7f35c94ffa -->
<g id="node3" class="node">
<title>dir_9381a7bbd03577d6d8720c7f35c94ffa</title>
<g id="a_node3"><a xlink:href="dir_9381a7bbd03577d6d8720c7f35c94ffa.html" target="_top" xlink:title="log">
<polygon fill="none" stroke="red" points="142,-52 88,-52 88,-16 142,-16 142,-52"/>
<text text-anchor="middle" x="115" y="-32.1" font-family="Helvetica,sans-Serif" font-size="8.00">log</text>
</a>
</g>
</g>
<!-- dir_23ec12649285f9fabf3a6b7380226c28&#45;&gt;dir_9381a7bbd03577d6d8720c7f35c94ffa -->
<g id="edge2" class="edge">
<title>dir_23ec12649285f9fabf3a6b7380226c28&#45;&gt;dir_9381a7bbd03577d6d8720c7f35c94ffa</title>
<path fill="none" stroke="black" d="M60.8,-87.7C69.6,-79.14 80.38,-68.66 90,-59.3"/>
<polygon fill="black" stroke="black" points="92.68,-61.58 97.41,-52.1 87.8,-56.57 92.68,-61.58"/>
<g id="a_edge2&#45;headlabel"><a xlink:href="dir_000019_000013.html" target="_top" xlink:title="5">
<text text-anchor="middle" x="92.08" y="-64.23" font-family="Helvetica,sans-Serif" font-size="8.00">5</text>
</a>
</g>
</g>
</g>
</svg>
