<?xml version="1.0" encoding="UTF-8" standalone="no"?>
<!DOCTYPE svg PUBLIC "-//W3C//DTD SVG 1.1//EN"
 "http://www.w3.org/Graphics/SVG/1.1/DTD/svg11.dtd">
<!-- Generated by graphviz version 2.43.0 (0)
 -->
<!-- Title: net_flow/detail Pages: 1 -->
<svg width="268pt" height="301pt"
 viewBox="0.00 0.00 268.00 301.00" xmlns="http://www.w3.org/2000/svg" xmlns:xlink="http://www.w3.org/1999/xlink">
<g id="graph0" class="graph" transform="scale(1 1) rotate(0) translate(4 297)">
<title>net_flow/detail</title>
<polygon fill="white" stroke="transparent" points="-4,4 -4,-297 264,-297 264,4 -4,4"/>
<g id="clust1" class="cluster">
<title>clusterdir_460afd45d0ec637b1427e0e06a6fbcf7</title>
<g id="a_clust1"><a xlink:href="dir_460afd45d0ec637b1427e0e06a6fbcf7.html" target="_top" xlink:title="net_flow">
<polygon fill="#edf0f7" stroke="#404040" stroke-dasharray="5,2" points="8,-56 8,-285 158,-285 158,-56 8,-56"/>
<text text-anchor="middle" x="83" y="-274.6" font-family="Helvetica,sans-Serif" font-size="8.00">net_flow</text>
</a>
</g>
</g>
<g id="clust2" class="cluster">
<title>clusterdir_6dd0f5e913f2b13fdf6025047ac045ce</title>
<g id="a_clust2"><a xlink:href="dir_6dd0f5e913f2b13fdf6025047ac045ce.html" target="_top">
<polygon fill="#edf0f7" stroke="#404040" stroke-width="2" points="16,-64 16,-260 86,-260 86,-64 16,-64"/>
</a>
</g>
</g>
<!-- dir_aee2b3c67924e0eefa590b781c13db02 -->
<g id="node1" class="node">
<title>dir_aee2b3c67924e0eefa590b781c13db02</title>
<g id="a_node1"><a xlink:href="dir_aee2b3c67924e0eefa590b781c13db02.html" target="_top" xlink:title="error">
<polygon fill="#a2b4d6" stroke="#404040" points="150,-180 96,-180 96,-144 150,-144 150,-180"/>
<text text-anchor="middle" x="123" y="-160.1" font-family="Helvetica,sans-Serif" font-size="8.00">error</text>
</a>
</g>
</g>
<!-- dir_6dd0f5e913f2b13fdf6025047ac045ce -->
<g id="node2" class="node">
<title>dir_6dd0f5e913f2b13fdf6025047ac045ce</title>
<text text-anchor="middle" x="51" y="-232.1" font-family="Helvetica,sans-Serif" font-size="8.00">detail</text>
</g>
<!-- dir_6dd0f5e913f2b13fdf6025047ac045ce&#45;&gt;dir_aee2b3c67924e0eefa590b781c13db02 -->
<g id="edge4" class="edge">
<title>dir_6dd0f5e913f2b13fdf6025047ac045ce&#45;&gt;dir_aee2b3c67924e0eefa590b781c13db02</title>
<path fill="none" stroke="black" d="M68.8,-215.7C77.6,-207.14 88.38,-196.66 98,-187.3"/>
<polygon fill="black" stroke="black" points="100.68,-189.58 105.41,-180.1 95.8,-184.57 100.68,-189.58"/>
<g id="a_edge4&#45;headlabel"><a xlink:href="dir_000008_000012.html" target="_top" xlink:title="1">
<text text-anchor="middle" x="100.08" y="-192.23" font-family="Helvetica,sans-Serif" font-size="8.00">1</text>
</a>
</g>
</g>
<!-- dir_2e2c6296987b56cb51feb2e618f819df -->
<g id="node3" class="node">
<title>dir_2e2c6296987b56cb51feb2e618f819df</title>
<g id="a_node3"><a xlink:href="dir_2e2c6296987b56cb51feb2e618f819df.html" target="_top" xlink:title="cong_ctl">
<polygon fill="#a2b4d6" stroke="#404040" points="78,-180 24,-180 24,-144 78,-144 78,-180"/>
<text text-anchor="middle" x="51" y="-160.1" font-family="Helvetica,sans-Serif" font-size="8.00">cong_ctl</text>
</a>
</g>
</g>
<!-- dir_6dd0f5e913f2b13fdf6025047ac045ce&#45;&gt;dir_2e2c6296987b56cb51feb2e618f819df -->
<g id="edge2" class="edge">
<title>dir_6dd0f5e913f2b13fdf6025047ac045ce&#45;&gt;dir_2e2c6296987b56cb51feb2e618f819df</title>
<path fill="none" stroke="black" d="M51,-215.7C51,-207.98 51,-198.71 51,-190.11"/>
<polygon fill="black" stroke="black" points="54.5,-190.1 51,-180.1 47.5,-190.1 54.5,-190.1"/>
<g id="a_edge2&#45;headlabel"><a xlink:href="dir_000008_000003.html" target="_top" xlink:title="2">
<text text-anchor="middle" x="57.34" y="-191.8" font-family="Helvetica,sans-Serif" font-size="8.00">2</text>
</a>
</g>
</g>
<!-- dir_23ec12649285f9fabf3a6b7380226c28 -->
<g id="node5" class="node">
<title>dir_23ec12649285f9fabf3a6b7380226c28</title>
<g id="a_node5"><a xlink:href="dir_23ec12649285f9fabf3a6b7380226c28.html" target="_top" xlink:title="util">
<polygon fill="none" stroke="red" points="141,-36 87,-36 87,0 141,0 141,-36"/>
<text text-anchor="middle" x="114" y="-16.1" font-family="Helvetica,sans-Serif" font-size="8.00">util</text>
</a>
</g>
</g>
<!-- dir_6dd0f5e913f2b13fdf6025047ac045ce&#45;&gt;dir_23ec12649285f9fabf3a6b7380226c28 -->
<g id="edge1" class="edge">
<title>dir_6dd0f5e913f2b13fdf6025047ac045ce&#45;&gt;dir_23ec12649285f9fabf3a6b7380226c28</title>
<path fill="none" stroke="black" d="M78.43,-228.42C104.97,-222.38 143.77,-208.9 162,-180 189.14,-136.97 157.02,-77.84 133.79,-44.52"/>
<polygon fill="black" stroke="black" points="136.51,-42.31 127.82,-36.24 130.82,-46.4 136.51,-42.31"/>
<g id="a_edge1&#45;headlabel"><a xlink:href="dir_000008_000019.html" target="_top" xlink:title="14">
<text text-anchor="middle" x="140.91" y="-41.67" font-family="Helvetica,sans-Serif" font-size="8.00">14</text>
</a>
</g>
</g>
<!-- dir_9381a7bbd03577d6d8720c7f35c94ffa -->
<g id="node6" class="node">
<title>dir_9381a7bbd03577d6d8720c7f35c94ffa</title>
<g id="a_node6"><a xlink:href="dir_9381a7bbd03577d6d8720c7f35c94ffa.html" target="_top" xlink:title="log">
<polygon fill="none" stroke="red" points="260,-180 206,-180 206,-144 260,-144 260,-180"/>
<text text-anchor="middle" x="233" y="-160.1" font-family="Helvetica,sans-Serif" font-size="8.00">log</text>
</a>
</g>
</g>
<!-- dir_6dd0f5e913f2b13fdf6025047ac045ce&#45;&gt;dir_9381a7bbd03577d6d8720c7f35c94ffa -->
<g id="edge3" class="edge">
<title>dir_6dd0f5e913f2b13fdf6025047ac045ce&#45;&gt;dir_9381a7bbd03577d6d8720c7f35c94ffa</title>
<path fill="none" stroke="black" d="M78.13,-223.11C106.6,-212.66 152.6,-195.57 192,-180 193.39,-179.45 194.8,-178.89 196.23,-178.32"/>
<polygon fill="black" stroke="black" points="197.76,-181.47 205.7,-174.47 195.12,-174.99 197.76,-181.47"/>
<g id="a_edge3&#45;headlabel"><a xlink:href="dir_000008_000013.html" target="_top" xlink:title="5">
<text text-anchor="middle" x="195.5" y="-183.56" font-family="Helvetica,sans-Serif" font-size="8.00">5</text>
</a>
</g>
</g>
<!-- dir_9d19ee70020ba699428208fa42b853e3 -->
<g id="node4" class="node">
<title>dir_9d19ee70020ba699428208fa42b853e3</title>
<g id="a_node4"><a xlink:href="dir_9d19ee70020ba699428208fa42b853e3.html" target="_top" xlink:title="stats">
<polygon fill="#a2b4d6" stroke="#404040" points="78,-108 24,-108 24,-72 78,-72 78,-108"/>
<text text-anchor="middle" x="51" y="-88.1" font-family="Helvetica,sans-Serif" font-size="8.00">stats</text>
</a>
</g>
</g>
<!-- dir_2e2c6296987b56cb51feb2e618f819df&#45;&gt;dir_9d19ee70020ba699428208fa42b853e3 -->
<g id="edge5" class="edge">
<title>dir_2e2c6296987b56cb51feb2e618f819df&#45;&gt;dir_9d19ee70020ba699428208fa42b853e3</title>
<path fill="none" stroke="black" d="M51,-143.7C51,-135.98 51,-126.71 51,-118.11"/>
<polygon fill="black" stroke="black" points="54.5,-118.1 51,-108.1 47.5,-118.1 54.5,-118.1"/>
<g id="a_edge5&#45;headlabel"><a xlink:href="dir_000003_000018.html" target="_top" xlink:title="1">
<text text-anchor="middle" x="57.34" y="-119.8" font-family="Helvetica,sans-Serif" font-size="8.00">1</text>
</a>
</g>
</g>
<!-- dir_9d19ee70020ba699428208fa42b853e3&#45;&gt;dir_23ec12649285f9fabf3a6b7380226c28 -->
<g id="edge6" class="edge">
<title>dir_9d19ee70020ba699428208fa42b853e3&#45;&gt;dir_23ec12649285f9fabf3a6b7380226c28</title>
<path fill="none" stroke="black" d="M66.57,-71.7C74.2,-63.22 83.52,-52.86 91.88,-43.58"/>
<polygon fill="black" stroke="black" points="94.52,-45.88 98.61,-36.1 89.31,-41.2 94.52,-45.88"/>
<g id="a_edge6&#45;headlabel"><a xlink:href="dir_000018_000019.html" target="_top" xlink:title="1">
<text text-anchor="middle" x="94.22" y="-48.55" font-family="Helvetica,sans-Serif" font-size="8.00">1</text>
</a>
</g>
</g>
</g>
</svg>
