<?xml version="1.0" encoding="UTF-8" standalone="no"?>
<!DOCTYPE svg PUBLIC "-//W3C//DTD SVG 1.1//EN"
 "http://www.w3.org/Graphics/SVG/1.1/DTD/svg11.dtd">
<!-- Generated by graphviz version 2.43.0 (0)
 -->
<!-- Title: perf Pages: 1 -->
<svg width="134pt" height="116pt"
 viewBox="0.00 0.00 134.00 116.00" xmlns="http://www.w3.org/2000/svg" xmlns:xlink="http://www.w3.org/1999/xlink">
<g id="graph0" class="graph" transform="scale(1 1) rotate(0) translate(4 112)">
<title>perf</title>
<polygon fill="white" stroke="transparent" points="-4,4 -4,-112 130,-112 130,4 -4,4"/>
<!-- dir_c3b46db8887e8285e98d946e3c1c617e -->
<g id="node1" class="node">
<title>dir_c3b46db8887e8285e98d946e3c1c617e</title>
<g id="a_node1"><a xlink:href="dir_c3b46db8887e8285e98d946e3c1c617e.html" target="_top" xlink:title="perf">
<polygon fill="#edf0f7" stroke="#404040" stroke-width="2" points="90,-108 36,-108 36,-72 90,-72 90,-108"/>
<text text-anchor="middle" x="63" y="-88.1" font-family="Helvetica,sans-Serif" font-size="8.00">perf</text>
</a>
</g>
</g>
<!-- dir_23ec12649285f9fabf3a6b7380226c28 -->
<g id="node2" class="node">
<title>dir_23ec12649285f9fabf3a6b7380226c28</title>
<g id="a_node2"><a xlink:href="dir_23ec12649285f9fabf3a6b7380226c28.html" target="_top" xlink:title="util">
<polygon fill="none" stroke="red" points="54,-36 0,-36 0,0 54,0 54,-36"/>
<text text-anchor="middle" x="27" y="-16.1" font-family="Helvetica,sans-Serif" font-size="8.00">util</text>
</a>
</g>
</g>
<!-- dir_c3b46db8887e8285e98d946e3c1c617e&#45;&gt;dir_23ec12649285f9fabf3a6b7380226c28 -->
<g id="edge1" class="edge">
<title>dir_c3b46db8887e8285e98d946e3c1c617e&#45;&gt;dir_23ec12649285f9fabf3a6b7380226c28</title>
<path fill="none" stroke="black" d="M54.1,-71.7C50,-63.73 45.05,-54.1 40.51,-45.26"/>
<polygon fill="black" stroke="black" points="43.48,-43.4 35.8,-36.1 37.26,-46.6 43.48,-43.4"/>
<g id="a_edge1&#45;headlabel"><a xlink:href="dir_000017_000019.html" target="_top" xlink:title="2">
<text text-anchor="middle" x="47.65" y="-43.39" font-family="Helvetica,sans-Serif" font-size="8.00">2</text>
</a>
</g>
</g>
<!-- dir_9381a7bbd03577d6d8720c7f35c94ffa -->
<g id="node3" class="node">
<title>dir_9381a7bbd03577d6d8720c7f35c94ffa</title>
<g id="a_node3"><a xlink:href="dir_9381a7bbd03577d6d8720c7f35c94ffa.html" target="_top" xlink:title="log">
<polygon fill="none" stroke="red" points="126,-36 72,-36 72,0 126,0 126,-36"/>
<text text-anchor="middle" x="99" y="-16.1" font-family="Helvetica,sans-Serif" font-size="8.00">log</text>
</a>
</g>
</g>
<!-- dir_c3b46db8887e8285e98d946e3c1c617e&#45;&gt;dir_9381a7bbd03577d6d8720c7f35c94ffa -->
<g id="edge2" class="edge">
<title>dir_c3b46db8887e8285e98d946e3c1c617e&#45;&gt;dir_9381a7bbd03577d6d8720c7f35c94ffa</title>
<path fill="none" stroke="black" d="M71.9,-71.7C76,-63.73 80.95,-54.1 85.49,-45.26"/>
<polygon fill="black" stroke="black" points="88.74,-46.6 90.2,-36.1 82.52,-43.4 88.74,-46.6"/>
<g id="a_edge2&#45;headlabel"><a xlink:href="dir_000017_000013.html" target="_top" xlink:title="1">
<text text-anchor="middle" x="89.62" y="-49.19" font-family="Helvetica,sans-Serif" font-size="8.00">1</text>
</a>
</g>
</g>
</g>
</svg>
