<?xml version="1.0" encoding="UTF-8" standalone="no"?>
<!DOCTYPE svg PUBLIC "-//W3C//DTD SVG 1.1//EN"
 "http://www.w3.org/Graphics/SVG/1.1/DTD/svg11.dtd">
<!-- Generated by graphviz version 2.43.0 (0)
 -->
<!-- Title: Graphical Class Hierarchy Pages: 1 -->
<svg width="258pt" height="35pt"
 viewBox="0.00 0.00 258.00 35.00" xmlns="http://www.w3.org/2000/svg" xmlns:xlink="http://www.w3.org/1999/xlink">
<g id="graph0" class="graph" transform="scale(1 1) rotate(0) translate(4 31)">
<title>Graphical Class Hierarchy</title>
<polygon fill="white" stroke="transparent" points="-4,4 -4,-31 254,-31 254,4 -4,4"/>
<!-- Node0 -->
<g id="node1" class="node">
<title>Node0</title>
<g id="a_node1"><a xlink:title=" ">
<polygon fill="white" stroke="#bfbfbf" points="0,-0.5 0,-26.5 107,-26.5 107,-0.5 0,-0.5"/>
<text text-anchor="start" x="8" y="-16.1" font-family="Helvetica,sans-Serif" font-size="8.00">std::basic_string_view</text>
<text text-anchor="middle" x="53.5" y="-7.1" font-family="Helvetica,sans-Serif" font-size="8.00">&lt; Char &gt;</text>
</a>
</g>
</g>
<!-- Node1 -->
<g id="node2" class="node">
<title>Node1</title>
<g id="a_node2"><a xlink:href="classflow_1_1util_1_1Basic__string__view.html" target="_top" xlink:title="Essentially alias for a C++17&#45;conforming string&#45;view class template, which is a very lightweight std:...">
<polygon fill="white" stroke="black" points="143,-0.5 143,-26.5 250,-26.5 250,-0.5 143,-0.5"/>
<text text-anchor="start" x="151" y="-16.1" font-family="Helvetica,sans-Serif" font-size="8.00">flow::util::Basic_string</text>
<text text-anchor="middle" x="196.5" y="-7.1" font-family="Helvetica,sans-Serif" font-size="8.00">_view&lt; Ch, Traits &gt;</text>
</a>
</g>
</g>
<!-- Node0&#45;&gt;Node1 -->
<g id="edge1" class="edge">
<title>Node0&#45;&gt;Node1</title>
<path fill="none" stroke="midnightblue" d="M117.05,-13.5C125.7,-13.5 134.51,-13.5 142.95,-13.5"/>
<polygon fill="midnightblue" stroke="midnightblue" points="117,-10 107,-13.5 117,-17 117,-10"/>
</g>
</g>
</svg>
