<?xml version="1.0" encoding="UTF-8" standalone="no"?>
<!DOCTYPE svg PUBLIC "-//W3C//DTD SVG 1.1//EN"
 "http://www.w3.org/Graphics/SVG/1.1/DTD/svg11.dtd">
<!-- Generated by graphviz version 2.43.0 (0)
 -->
<!-- Title: Graphical Class Hierarchy Pages: 1 -->
<svg width="252pt" height="35pt"
 viewBox="0.00 0.00 252.00 35.00" xmlns="http://www.w3.org/2000/svg" xmlns:xlink="http://www.w3.org/1999/xlink">
<g id="graph0" class="graph" transform="scale(1 1) rotate(0) translate(4 31)">
<title>Graphical Class Hierarchy</title>
<polygon fill="white" stroke="transparent" points="-4,4 -4,-31 248,-31 248,4 -4,4"/>
<!-- Node0 -->
<g id="node1" class="node">
<title>Node0</title>
<g id="a_node1"><a xlink:href="classboost_1_1chrono_1_1duration__units__default.html" target="_top" xlink:title=" ">
<polygon fill="white" stroke="black" points="0,-0.5 0,-26.5 115,-26.5 115,-0.5 0,-0.5"/>
<text text-anchor="start" x="8" y="-16.1" font-family="Helvetica,sans-Serif" font-size="8.00">boost::chrono::duration</text>
<text text-anchor="middle" x="57.5" y="-7.1" font-family="Helvetica,sans-Serif" font-size="8.00">_units_default</text>
</a>
</g>
</g>
<!-- Node1 -->
<g id="node2" class="node">
<title>Node1</title>
<g id="a_node2"><a xlink:href="classflow_1_1util_1_1Duration__units__beautified.html" target="_top" xlink:title="Internally used class that enables some of the activities of beautify_chrono_ostream() API.">
<polygon fill="white" stroke="black" points="151,-0.5 151,-26.5 244,-26.5 244,-0.5 151,-0.5"/>
<text text-anchor="start" x="159" y="-16.1" font-family="Helvetica,sans-Serif" font-size="8.00">flow::util::Duration</text>
<text text-anchor="middle" x="197.5" y="-7.1" font-family="Helvetica,sans-Serif" font-size="8.00">_units_beautified</text>
</a>
</g>
</g>
<!-- Node0&#45;&gt;Node1 -->
<g id="edge1" class="edge">
<title>Node0&#45;&gt;Node1</title>
<path fill="none" stroke="midnightblue" d="M125.17,-13.5C133.85,-13.5 142.58,-13.5 150.81,-13.5"/>
<polygon fill="midnightblue" stroke="midnightblue" points="125.03,-10 115.03,-13.5 125.03,-17 125.03,-10"/>
</g>
</g>
</svg>
