<?xml version="1.0" encoding="UTF-8" standalone="no"?>
<!DOCTYPE svg PUBLIC "-//W3C//DTD SVG 1.1//EN"
 "http://www.w3.org/Graphics/SVG/1.1/DTD/svg11.dtd">
<!-- Generated by graphviz version 2.43.0 (0)
 -->
<!-- Title: flow::util::ostream_op_string Pages: 1 -->
<svg width="598pt" height="546pt"
 viewBox="0.00 0.00 598.00 546.00" xmlns="http://www.w3.org/2000/svg" xmlns:xlink="http://www.w3.org/1999/xlink">
<g id="graph0" class="graph" transform="scale(1 1) rotate(0) translate(4 542)">
<title>flow::util::ostream_op_string</title>
<polygon fill="white" stroke="transparent" points="-4,4 -4,-542 594,-542 594,4 -4,4"/>
<!-- Node1 -->
<g id="node1" class="node">
<title>Node1</title>
<g id="a_node1"><a xlink:title="Equivalent to ostream_op_to_string() but returns a new string by value instead of writing to the call...">
<polygon fill="#bfbfbf" stroke="black" points="498,-256.5 498,-282.5 590,-282.5 590,-256.5 498,-256.5"/>
<text text-anchor="start" x="506" y="-272.1" font-family="Helvetica,sans-Serif" font-size="8.00">flow::util::ostream</text>
<text text-anchor="middle" x="544" y="-263.1" font-family="Helvetica,sans-Serif" font-size="8.00">_op_string</text>
</a>
</g>
</g>
<!-- Node2 -->
<g id="node2" class="node">
<title>Node2</title>
<g id="a_node2"><a xlink:href="classflow_1_1log_1_1Verbosity__config.html#a3a64ac2ee6eaf09fc9de6199916d0388" target="_top" xlink:title="Applies *this to to the given log::Config.">
<polygon fill="white" stroke="black" points="329,-511.5 329,-537.5 445,-537.5 445,-511.5 329,-511.5"/>
<text text-anchor="start" x="337" y="-527.1" font-family="Helvetica,sans-Serif" font-size="8.00">flow::log::Verbosity</text>
<text text-anchor="middle" x="387" y="-518.1" font-family="Helvetica,sans-Serif" font-size="8.00">_config::apply_to_config</text>
</a>
</g>
</g>
<!-- Node1&#45;&gt;Node2 -->
<g id="edge1" class="edge">
<title>Node1&#45;&gt;Node2</title>
<path fill="none" stroke="midnightblue" d="M541.73,-292.48C537.9,-338.95 522.63,-444.57 462,-502.5 457.15,-507.13 451.38,-510.79 445.22,-513.68"/>
<polygon fill="midnightblue" stroke="midnightblue" points="545.22,-292.73 542.45,-282.5 538.24,-292.22 545.22,-292.73"/>
</g>
<!-- Node3 -->
<g id="node3" class="node">
<title>Node3</title>
<g id="a_node3"><a xlink:href="classflow_1_1perf_1_1Checkpointing__timer.html#aa9940d8e87883f9985ba18939f833db9" target="_top" xlink:title="Constructs a new timer and immediately begins measuring time, in that the next checkpoint() call will...">
<polygon fill="white" stroke="black" points="321.5,-466.5 321.5,-492.5 452.5,-492.5 452.5,-466.5 321.5,-466.5"/>
<text text-anchor="start" x="329.5" y="-482.1" font-family="Helvetica,sans-Serif" font-size="8.00">flow::perf::Checkpointing</text>
<text text-anchor="middle" x="387" y="-473.1" font-family="Helvetica,sans-Serif" font-size="8.00">_timer::Checkpointing_timer</text>
</a>
</g>
</g>
<!-- Node1&#45;&gt;Node3 -->
<g id="edge2" class="edge">
<title>Node1&#45;&gt;Node3</title>
<path fill="none" stroke="midnightblue" d="M539.5,-292.67C532.28,-332.28 512.02,-413.05 462,-457.5 458.09,-460.97 453.66,-463.9 448.95,-466.36"/>
<polygon fill="midnightblue" stroke="midnightblue" points="542.97,-293.09 541.2,-282.65 536.07,-291.92 542.97,-293.09"/>
</g>
<!-- Node5 -->
<g id="node5" class="node">
<title>Node5</title>
<g id="a_node5"><a xlink:href="classflow_1_1cfg_1_1Config__manager.html#ad59bfabf66e01922542629bae77508ad" target="_top" xlink:title="Constructs a Config_manager ready to read initial config via apply_*() and other setup methods; and f...">
<polygon fill="white" stroke="black" points="324.5,-421.5 324.5,-447.5 449.5,-447.5 449.5,-421.5 324.5,-421.5"/>
<text text-anchor="start" x="332.5" y="-437.1" font-family="Helvetica,sans-Serif" font-size="8.00">flow::cfg::Config_manager</text>
<text text-anchor="middle" x="387" y="-428.1" font-family="Helvetica,sans-Serif" font-size="8.00">::Config_manager</text>
</a>
</g>
</g>
<!-- Node1&#45;&gt;Node5 -->
<g id="edge4" class="edge">
<title>Node1&#45;&gt;Node5</title>
<path fill="none" stroke="midnightblue" d="M534.98,-292.45C523.36,-322.59 499.07,-375.32 462,-406.5 454.64,-412.69 445.77,-417.59 436.77,-421.44"/>
<polygon fill="midnightblue" stroke="midnightblue" points="538.37,-293.4 538.57,-282.8 531.8,-290.96 538.37,-293.4"/>
</g>
<!-- Node6 -->
<g id="node6" class="node">
<title>Node6</title>
<g id="a_node6"><a xlink:href="namespaceflow_1_1async.html#a3e200db7e5375de21d2568004a85dcad" target="_top" xlink:title="Assuming the same situation as documented for optimal_worker_thread_count_per_pool(),...">
<polygon fill="white" stroke="black" points="329.5,-319.5 329.5,-345.5 444.5,-345.5 444.5,-319.5 329.5,-319.5"/>
<text text-anchor="start" x="337.5" y="-335.1" font-family="Helvetica,sans-Serif" font-size="8.00">flow::async::optimize</text>
<text text-anchor="middle" x="387" y="-326.1" font-family="Helvetica,sans-Serif" font-size="8.00">_pinning_in_thread_pool</text>
</a>
</g>
</g>
<!-- Node1&#45;&gt;Node6 -->
<g id="edge5" class="edge">
<title>Node1&#45;&gt;Node6</title>
<path fill="none" stroke="midnightblue" d="M504.16,-286.71C490.85,-292.5 475.83,-298.9 462,-304.5 449.52,-309.55 435.75,-314.84 423.51,-319.44"/>
<polygon fill="midnightblue" stroke="midnightblue" points="505.75,-289.84 513.51,-282.63 502.95,-283.42 505.75,-289.84"/>
</g>
<!-- Node7 -->
<g id="node7" class="node">
<title>Node7</title>
<g id="a_node7"><a xlink:href="classflow_1_1async_1_1Segregated__thread__task__loop.html#a55fcb2e9f5410174c69cb1b9053a6ffd" target="_top" xlink:title="Implements superclass API.">
<polygon fill="white" stroke="black" points="155,-362.5 155,-388.5 272,-388.5 272,-362.5 155,-362.5"/>
<text text-anchor="start" x="163" y="-378.1" font-family="Helvetica,sans-Serif" font-size="8.00">flow::async::Segregated</text>
<text text-anchor="middle" x="213.5" y="-369.1" font-family="Helvetica,sans-Serif" font-size="8.00">_thread_task_loop::start</text>
</a>
</g>
</g>
<!-- Node1&#45;&gt;Node7 -->
<g id="edge13" class="edge">
<title>Node1&#45;&gt;Node7</title>
<path fill="none" stroke="midnightblue" d="M533.03,-292C520.51,-317.13 496.42,-356.51 462,-373.5 402.18,-403.03 323.89,-397.48 271.53,-388.54"/>
<polygon fill="midnightblue" stroke="midnightblue" points="536.26,-293.37 537.4,-282.84 529.94,-290.36 536.26,-293.37"/>
</g>
<!-- Node8 -->
<g id="node8" class="node">
<title>Node8</title>
<g id="a_node8"><a xlink:href="classflow_1_1async_1_1Cross__thread__task__loop.html#a5705e34163dec8463a30361bdb2fa83f" target="_top" xlink:title="Implements superclass API.">
<polygon fill="white" stroke="black" points="156,-300.5 156,-326.5 271,-326.5 271,-300.5 156,-300.5"/>
<text text-anchor="start" x="164" y="-316.1" font-family="Helvetica,sans-Serif" font-size="8.00">flow::async::Cross</text>
<text text-anchor="middle" x="213.5" y="-307.1" font-family="Helvetica,sans-Serif" font-size="8.00">_thread_task_loop::start</text>
</a>
</g>
</g>
<!-- Node1&#45;&gt;Node8 -->
<g id="edge14" class="edge">
<title>Node1&#45;&gt;Node8</title>
<path fill="none" stroke="midnightblue" d="M487.6,-276.92C427.44,-284.98 331.86,-297.78 271.2,-305.91"/>
<polygon fill="midnightblue" stroke="midnightblue" points="488.22,-280.37 497.67,-275.57 487.29,-273.43 488.22,-280.37"/>
</g>
<!-- Node10 -->
<g id="node10" class="node">
<title>Node10</title>
<g id="a_node10"><a xlink:href="classflow_1_1log_1_1Verbosity__config.html#afaf5a5fb1d9e56946403072eadaa3c10" target="_top" xlink:title="Deserializes *this from a standard input stream.">
<polygon fill="white" stroke="black" points="339.5,-235.5 339.5,-261.5 434.5,-261.5 434.5,-235.5 339.5,-235.5"/>
<text text-anchor="start" x="347.5" y="-251.1" font-family="Helvetica,sans-Serif" font-size="8.00">flow::log::Verbosity</text>
<text text-anchor="middle" x="387" y="-242.1" font-family="Helvetica,sans-Serif" font-size="8.00">_config::parse</text>
</a>
</g>
</g>
<!-- Node1&#45;&gt;Node10 -->
<g id="edge10" class="edge">
<title>Node1&#45;&gt;Node10</title>
<path fill="none" stroke="midnightblue" d="M487.74,-262.01C470.37,-259.66 451.37,-257.08 434.65,-254.82"/>
<polygon fill="midnightblue" stroke="midnightblue" points="487.37,-265.5 497.75,-263.37 488.31,-258.56 487.37,-265.5"/>
</g>
<!-- Node12 -->
<g id="node12" class="node">
<title>Node12</title>
<g id="a_node12"><a xlink:href="classflow_1_1cfg_1_1Option__set.html#a4ca1b50ec692a98865e4afde76d04128" target="_top" xlink:title="Enters into (from CANONICAL state) or continues in PARSING state by parsing the config source in the ...">
<polygon fill="white" stroke="black" points="336.5,-190.5 336.5,-216.5 437.5,-216.5 437.5,-190.5 336.5,-190.5"/>
<text text-anchor="start" x="344.5" y="-206.1" font-family="Helvetica,sans-Serif" font-size="8.00">flow::cfg::Option_set</text>
<text text-anchor="middle" x="387" y="-197.1" font-family="Helvetica,sans-Serif" font-size="8.00">::parse_config_file</text>
</a>
</g>
</g>
<!-- Node1&#45;&gt;Node12 -->
<g id="edge12" class="edge">
<title>Node1&#45;&gt;Node12</title>
<path fill="none" stroke="midnightblue" d="M513.13,-251.33C498.15,-242.72 479.5,-232.76 462,-225.5 454.08,-222.21 445.49,-219.19 437.07,-216.52"/>
<polygon fill="midnightblue" stroke="midnightblue" points="511.54,-254.45 521.94,-256.48 515.07,-248.41 511.54,-254.45"/>
</g>
<!-- Node13 -->
<g id="node13" class="node">
<title>Node13</title>
<g id="a_node13"><a xlink:href="classflow_1_1log_1_1Logger.html#a5600c71ccaa294650c7d34b596d90bf5" target="_top" xlink:title="Sets or unsets the current thread&#39;s logging&#45;worthy string name; optionally sets the OS thread name (s...">
<polygon fill="white" stroke="black" points="331.5,-136 331.5,-171 442.5,-171 442.5,-136 331.5,-136"/>
<text text-anchor="start" x="339.5" y="-160.6" font-family="Helvetica,sans-Serif" font-size="8.00">flow::log::Logger::</text>
<text text-anchor="start" x="339.5" y="-151.6" font-family="Helvetica,sans-Serif" font-size="8.00">this_thread_set_logged</text>
<text text-anchor="middle" x="387" y="-142.6" font-family="Helvetica,sans-Serif" font-size="8.00">_nickname</text>
</a>
</g>
</g>
<!-- Node1&#45;&gt;Node13 -->
<g id="edge15" class="edge">
<title>Node1&#45;&gt;Node13</title>
<path fill="none" stroke="midnightblue" d="M528.43,-248.32C513.74,-228.36 489.35,-198.86 462,-180.5 456.1,-176.54 449.54,-173.07 442.83,-170.06"/>
<polygon fill="midnightblue" stroke="midnightblue" points="525.62,-250.41 534.3,-256.49 531.31,-246.32 525.62,-250.41"/>
</g>
<!-- Node14 -->
<g id="node14" class="node">
<title>Node14</title>
<g id="a_node14"><a xlink:href="namespaceboost_1_1filesystem.html#a5fa05fd030711d6d8c76139467b13256" target="_top" xlink:title="ADL&#45;based overload of boost.program_options validate() to allow for empty boost::filesystem::path val...">
<polygon fill="white" stroke="black" points="340,-90.5 340,-116.5 434,-116.5 434,-90.5 340,-90.5"/>
<text text-anchor="start" x="348" y="-106.1" font-family="Helvetica,sans-Serif" font-size="8.00">boost::filesystem::</text>
<text text-anchor="middle" x="387" y="-97.1" font-family="Helvetica,sans-Serif" font-size="8.00">validate</text>
</a>
</g>
</g>
<!-- Node1&#45;&gt;Node14 -->
<g id="edge16" class="edge">
<title>Node1&#45;&gt;Node14</title>
<path fill="none" stroke="midnightblue" d="M536.02,-246.58C525.23,-214.99 501.52,-158.35 462,-126.5 453.93,-120 444.03,-115.33 434.11,-111.97"/>
<polygon fill="midnightblue" stroke="midnightblue" points="532.75,-247.85 539.18,-256.26 539.4,-245.67 532.75,-247.85"/>
</g>
<!-- Node15 -->
<g id="node15" class="node">
<title>Node15</title>
<g id="a_node15"><a xlink:href="namespaceflow_1_1cfg.html#aafaf432a612183beab72175831aaa960" target="_top" xlink:title="Similar to value_set_member_id_to_opt_name() but used by FLOW_CFG_OPTION_SET_DECLARE_OPTION_KEYED() i...">
<polygon fill="white" stroke="black" points="312,-45.5 312,-71.5 462,-71.5 462,-45.5 312,-45.5"/>
<text text-anchor="start" x="320" y="-61.1" font-family="Helvetica,sans-Serif" font-size="8.00">flow::cfg::value_set</text>
<text text-anchor="middle" x="387" y="-52.1" font-family="Helvetica,sans-Serif" font-size="8.00">_member_id_to_opt_name_keyed</text>
</a>
</g>
</g>
<!-- Node1&#45;&gt;Node15 -->
<g id="edge17" class="edge">
<title>Node1&#45;&gt;Node15</title>
<path fill="none" stroke="midnightblue" d="M539.54,-246.21C532.38,-206.39 512.21,-125.2 462,-80.5 458.1,-77.02 453.66,-74.1 448.96,-71.63"/>
<polygon fill="midnightblue" stroke="midnightblue" points="536.12,-247 541.22,-256.28 543.02,-245.84 536.12,-247"/>
</g>
<!-- Node16 -->
<g id="node16" class="node">
<title>Node16</title>
<g id="a_node16"><a xlink:href="namespaceflow_1_1cfg.html#ac3782f31b7c020d7b08e250e89198ad4" target="_top" xlink:title="Overload that serializes a value of chrono&#45;based duration including Fine_duration – which is recommen...">
<polygon fill="white" stroke="black" points="341,-0.5 341,-26.5 433,-26.5 433,-0.5 341,-0.5"/>
<text text-anchor="start" x="349" y="-16.1" font-family="Helvetica,sans-Serif" font-size="8.00">flow::cfg::value_to</text>
<text text-anchor="middle" x="387" y="-7.1" font-family="Helvetica,sans-Serif" font-size="8.00">_ostream</text>
</a>
</g>
</g>
<!-- Node1&#45;&gt;Node16 -->
<g id="edge18" class="edge">
<title>Node1&#45;&gt;Node16</title>
<path fill="none" stroke="midnightblue" d="M541.76,-246.42C537.99,-199.76 522.82,-93.69 462,-35.5 454.06,-27.9 443.61,-22.91 433.08,-19.64"/>
<polygon fill="midnightblue" stroke="midnightblue" points="538.27,-246.71 542.46,-256.44 545.25,-246.22 538.27,-246.71"/>
</g>
<!-- Node4 -->
<g id="node4" class="node">
<title>Node4</title>
<g id="a_node4"><a xlink:href="classflow_1_1perf_1_1Checkpointing__timer_1_1Aggregator.html#acbacf3b4842b77f542082e7a186f1434" target="_top" xlink:title="Provides programmatic access to the aggregation result that would be logged by log_aggregated_results...">
<polygon fill="white" stroke="black" points="151,-462 151,-497 276,-497 276,-462 151,-462"/>
<text text-anchor="start" x="159" y="-486.6" font-family="Helvetica,sans-Serif" font-size="8.00">flow::perf::Checkpointing</text>
<text text-anchor="start" x="159" y="-477.6" font-family="Helvetica,sans-Serif" font-size="8.00">_timer::Aggregator::create</text>
<text text-anchor="middle" x="213.5" y="-468.6" font-family="Helvetica,sans-Serif" font-size="8.00">_aggregated_result</text>
</a>
</g>
</g>
<!-- Node3&#45;&gt;Node4 -->
<g id="edge3" class="edge">
<title>Node3&#45;&gt;Node4</title>
<path fill="none" stroke="midnightblue" d="M310.99,-479.5C299.31,-479.5 287.36,-479.5 276.03,-479.5"/>
<polygon fill="midnightblue" stroke="midnightblue" points="311.16,-483 321.16,-479.5 311.16,-476 311.16,-483"/>
</g>
<!-- Node6&#45;&gt;Node6 -->
<g id="edge6" class="edge">
<title>Node6&#45;&gt;Node6</title>
<path fill="none" stroke="midnightblue" d="M415.08,-355.94C411.96,-360.64 402.6,-364 387,-364 361.41,-364 352.61,-354.96 360.61,-345.77"/>
<polygon fill="midnightblue" stroke="midnightblue" points="418.48,-355.06 413.39,-345.77 411.57,-356.21 418.48,-355.06"/>
</g>
<!-- Node6&#45;&gt;Node7 -->
<g id="edge7" class="edge">
<title>Node6&#45;&gt;Node7</title>
<path fill="none" stroke="midnightblue" d="M324.35,-347.96C305.41,-352.71 284.77,-357.88 266.54,-362.45"/>
<polygon fill="midnightblue" stroke="midnightblue" points="325.23,-351.35 334.08,-345.52 323.53,-344.56 325.23,-351.35"/>
</g>
<!-- Node6&#45;&gt;Node8 -->
<g id="edge8" class="edge">
<title>Node6&#45;&gt;Node8</title>
<path fill="none" stroke="midnightblue" d="M319.09,-325.09C303.22,-323.33 286.43,-321.47 271.07,-319.77"/>
<polygon fill="midnightblue" stroke="midnightblue" points="319.04,-328.6 329.37,-326.23 319.82,-321.65 319.04,-328.6"/>
</g>
<!-- Node9 -->
<g id="node9" class="node">
<title>Node9</title>
<g id="a_node9"><a xlink:href="classflow_1_1async_1_1Single__thread__task__loop.html#a0886e7f19d0c8b19f74851578802a5e5" target="_top" xlink:title="Starts the 1 thread in the thread pool; any queued post()ed (and similar) tasks may begin executing i...">
<polygon fill="white" stroke="black" points="0,-300.5 0,-326.5 115,-326.5 115,-300.5 0,-300.5"/>
<text text-anchor="start" x="8" y="-316.1" font-family="Helvetica,sans-Serif" font-size="8.00">flow::async::Single</text>
<text text-anchor="middle" x="57.5" y="-307.1" font-family="Helvetica,sans-Serif" font-size="8.00">_thread_task_loop::start</text>
</a>
</g>
</g>
<!-- Node8&#45;&gt;Node9 -->
<g id="edge9" class="edge">
<title>Node8&#45;&gt;Node9</title>
<path fill="none" stroke="midnightblue" d="M145.57,-313.5C135.43,-313.5 125.06,-313.5 115.17,-313.5"/>
<polygon fill="midnightblue" stroke="midnightblue" points="145.59,-317 155.59,-313.5 145.59,-310 145.59,-317"/>
</g>
<!-- Node11 -->
<g id="node11" class="node">
<title>Node11</title>
<g id="a_node11"><a xlink:href="classflow_1_1log_1_1Verbosity__config.html#ab7770a6970cce952c422c27f0bf57d8d" target="_top" xlink:title="Deserializes a Verbosity_config from a standard input stream by invoking val.parse(is).">
<polygon fill="white" stroke="black" points="163,-235.5 163,-261.5 264,-261.5 264,-235.5 163,-235.5"/>
<text text-anchor="start" x="171" y="-251.1" font-family="Helvetica,sans-Serif" font-size="8.00">flow::log::Verbosity</text>
<text text-anchor="middle" x="213.5" y="-242.1" font-family="Helvetica,sans-Serif" font-size="8.00">_config::operator&gt;&gt;</text>
</a>
</g>
</g>
<!-- Node10&#45;&gt;Node11 -->
<g id="edge11" class="edge">
<title>Node10&#45;&gt;Node11</title>
<path fill="none" stroke="midnightblue" d="M329.04,-248.5C308,-248.5 284.34,-248.5 264,-248.5"/>
<polygon fill="midnightblue" stroke="midnightblue" points="329.14,-252 339.14,-248.5 329.14,-245 329.14,-252"/>
</g>
</g>
</svg>
