<?xml version="1.0" encoding="UTF-8" standalone="no"?>
<!DOCTYPE svg PUBLIC "-//W3C//DTD SVG 1.1//EN"
 "http://www.w3.org/Graphics/SVG/1.1/DTD/svg11.dtd">
<!-- Generated by graphviz version 2.43.0 (0)
 -->
<!-- Title: flow::perf::timed_handler Pages: 1 -->
<svg width="440pt" height="53pt"
 viewBox="0.00 0.00 440.00 53.00" xmlns="http://www.w3.org/2000/svg" xmlns:xlink="http://www.w3.org/1999/xlink">
<g id="graph0" class="graph" transform="scale(1 1) rotate(0) translate(4 49)">
<title>flow::perf::timed_handler</title>
<polygon fill="white" stroke="transparent" points="-4,4 -4,-49 436,-49 436,4 -4,4"/>
<!-- Node1 -->
<g id="node1" class="node">
<title>Node1</title>
<g id="a_node1"><a xlink:title="Identical to timed_function() but suitable for boost.asio&#45;targeted handler functions.">
<polygon fill="#bfbfbf" stroke="black" points="0,-5 0,-22 119,-22 119,-5 0,-5"/>
<text text-anchor="middle" x="59.5" y="-11.6" font-family="Helvetica,sans-Serif" font-size="8.00">flow::perf::timed_handler</text>
</a>
</g>
</g>
<!-- Node2 -->
<g id="node2" class="node">
<title>Node2</title>
<g id="a_node2"><a xlink:href="namespaceflow_1_1perf.html#a0dee22ec7bf250bbbf556a7e15c1f784" target="_top" xlink:title="Constructs a closure that times and executes void&#45;returning function(), adding the elapsed time with ...">
<polygon fill="white" stroke="black" points="155,-5 155,-22 277,-22 277,-5 155,-5"/>
<text text-anchor="middle" x="216" y="-11.6" font-family="Helvetica,sans-Serif" font-size="8.00">flow::perf::timed_function</text>
</a>
</g>
</g>
<!-- Node1&#45;&gt;Node2 -->
<g id="edge1" class="edge">
<title>Node1&#45;&gt;Node2</title>
<path fill="none" stroke="midnightblue" d="M119.35,-13.5C127.6,-13.5 136.14,-13.5 144.57,-13.5"/>
<polygon fill="midnightblue" stroke="midnightblue" points="144.78,-17 154.78,-13.5 144.78,-10 144.78,-17"/>
</g>
<!-- Node3 -->
<g id="node3" class="node">
<title>Node3</title>
<g id="a_node3"><a xlink:href="classflow_1_1perf_1_1Checkpointing__timer.html#a3b73f2812c2bf6a27ef2becc13859d73" target="_top" xlink:title="Sample all currently enabled Clock_types&#39; clocks and return those values, each of which is a time sta...">
<polygon fill="white" stroke="black" points="313,-0.5 313,-26.5 432,-26.5 432,-0.5 313,-0.5"/>
<text text-anchor="start" x="321" y="-16.1" font-family="Helvetica,sans-Serif" font-size="8.00">flow::perf::Checkpointing</text>
<text text-anchor="middle" x="372.5" y="-7.1" font-family="Helvetica,sans-Serif" font-size="8.00">_timer::now</text>
</a>
</g>
</g>
<!-- Node2&#45;&gt;Node3 -->
<g id="edge2" class="edge">
<title>Node2&#45;&gt;Node3</title>
<path fill="none" stroke="midnightblue" d="M277.18,-13.5C285.49,-13.5 294.08,-13.5 302.54,-13.5"/>
<polygon fill="midnightblue" stroke="midnightblue" points="302.76,-17 312.76,-13.5 302.76,-10 302.76,-17"/>
</g>
<!-- Node3&#45;&gt;Node3 -->
<g id="edge3" class="edge">
<title>Node3&#45;&gt;Node3</title>
<path fill="none" stroke="midnightblue" d="M346.11,-26.77C338.11,-35.96 346.91,-45 372.5,-45 388.1,-45 397.46,-41.64 400.58,-36.94"/>
<polygon fill="midnightblue" stroke="midnightblue" points="403.98,-36.06 398.89,-26.77 397.07,-37.21 403.98,-36.06"/>
</g>
</g>
</svg>
