<?xml version="1.0" encoding="UTF-8" standalone="no"?>
<!DOCTYPE svg PUBLIC "-//W3C//DTD SVG 1.1//EN"
 "http://www.w3.org/Graphics/SVG/1.1/DTD/svg11.dtd">
<!-- Generated by graphviz version 2.43.0 (0)
 -->
<!-- Title: flow::async::reset_thread_pinning Pages: 1 -->
<svg width="238pt" height="53pt"
 viewBox="0.00 0.00 238.00 53.00" xmlns="http://www.w3.org/2000/svg" xmlns:xlink="http://www.w3.org/1999/xlink">
<g id="graph0" class="graph" transform="scale(1 1) rotate(0) translate(4 49)">
<title>flow::async::reset_thread_pinning</title>
<polygon fill="white" stroke="transparent" points="-4,4 -4,-49 234,-49 234,4 -4,4"/>
<!-- Node1 -->
<g id="node1" class="node">
<title>Node1</title>
<g id="a_node1"><a xlink:title="Resets the processor&#45;affinity of the given thread – or calling thread – to be managed as the OS deems...">
<polygon fill="#bfbfbf" stroke="black" points="0,-0.5 0,-26.5 90,-26.5 90,-0.5 0,-0.5"/>
<text text-anchor="start" x="8" y="-16.1" font-family="Helvetica,sans-Serif" font-size="8.00">flow::async::reset</text>
<text text-anchor="middle" x="45" y="-7.1" font-family="Helvetica,sans-Serif" font-size="8.00">_thread_pinning</text>
</a>
</g>
</g>
<!-- Node1&#45;&gt;Node1 -->
<g id="edge2" class="edge">
<title>Node1&#45;&gt;Node1</title>
<path fill="none" stroke="midnightblue" d="M22.67,-26.77C15.9,-35.96 23.34,-45 45,-45 58.2,-45 66.12,-41.64 68.76,-36.94"/>
<polygon fill="midnightblue" stroke="midnightblue" points="72.19,-36.19 67.33,-26.77 65.25,-37.16 72.19,-36.19"/>
</g>
<!-- Node2 -->
<g id="node2" class="node">
<title>Node2</title>
<g id="a_node2"><a xlink:href="namespaceflow_1_1error.html#a48afa7f8c2e100acd461365dfb00a114" target="_top" xlink:title="Equivalent of exec_and_throw_on_error() for operations with void return type.">
<polygon fill="white" stroke="black" points="126,-0.5 126,-26.5 230,-26.5 230,-0.5 126,-0.5"/>
<text text-anchor="start" x="134" y="-16.1" font-family="Helvetica,sans-Serif" font-size="8.00">flow::error::exec_void</text>
<text text-anchor="middle" x="178" y="-7.1" font-family="Helvetica,sans-Serif" font-size="8.00">_and_throw_on_error</text>
</a>
</g>
</g>
<!-- Node1&#45;&gt;Node2 -->
<g id="edge1" class="edge">
<title>Node1&#45;&gt;Node2</title>
<path fill="none" stroke="midnightblue" d="M90.35,-13.5C98.57,-13.5 107.28,-13.5 115.89,-13.5"/>
<polygon fill="midnightblue" stroke="midnightblue" points="115.92,-17 125.92,-13.5 115.92,-10 115.92,-17"/>
</g>
</g>
</svg>
