<?xml version="1.0" encoding="UTF-8" standalone="no"?>
<!DOCTYPE svg PUBLIC "-//W3C//DTD SVG 1.1//EN"
 "http://www.w3.org/Graphics/SVG/1.1/DTD/svg11.dtd">
<!-- Generated by graphviz version 2.43.0 (0)
 -->
<!-- Title: flow::util::chrono_duration_from_now_to_fine_time_pt Pages: 1 -->
<svg width="421pt" height="279pt"
 viewBox="0.00 0.00 421.00 278.50" xmlns="http://www.w3.org/2000/svg" xmlns:xlink="http://www.w3.org/1999/xlink">
<g id="graph0" class="graph" transform="scale(1 1) rotate(0) translate(4 274.5)">
<title>flow::util::chrono_duration_from_now_to_fine_time_pt</title>
<polygon fill="white" stroke="transparent" points="-4,4 -4,-274.5 417,-274.5 417,4 -4,4"/>
<!-- Node1 -->
<g id="node1" class="node">
<title>Node1</title>
<g id="a_node1"><a xlink:title="Helper that takes a non&#45;negative duration of arbitrary precision/period and converts it to Fine_durat...">
<polygon fill="#bfbfbf" stroke="black" points="303,-108 303,-143 413,-143 413,-108 303,-108"/>
<text text-anchor="start" x="311" y="-132.6" font-family="Helvetica,sans-Serif" font-size="8.00">flow::util::chrono</text>
<text text-anchor="start" x="311" y="-123.6" font-family="Helvetica,sans-Serif" font-size="8.00">_duration_from_now_to</text>
<text text-anchor="middle" x="358" y="-114.6" font-family="Helvetica,sans-Serif" font-size="8.00">_fine_time_pt</text>
</a>
</g>
</g>
<!-- Node2 -->
<g id="node2" class="node">
<title>Node2</title>
<g id="a_node2"><a xlink:href="classflow_1_1net__flow_1_1asio_1_1Server__socket.html#a8f374618b5d754321ac288cd6f1f50ea" target="_top" xlink:title="boost.asio&#45;style asynchronous version that essentially performs net_flow::Server_socket::sync_accept(...">
<polygon fill="white" stroke="black" points="149.5,-235 149.5,-270 259.5,-270 259.5,-235 149.5,-235"/>
<text text-anchor="start" x="157.5" y="-259.6" font-family="Helvetica,sans-Serif" font-size="8.00">flow::net_flow::asio</text>
<text text-anchor="start" x="157.5" y="-250.6" font-family="Helvetica,sans-Serif" font-size="8.00">::Server_socket::async</text>
<text text-anchor="middle" x="204.5" y="-241.6" font-family="Helvetica,sans-Serif" font-size="8.00">_accept</text>
</a>
</g>
</g>
<!-- Node1&#45;&gt;Node2 -->
<g id="edge1" class="edge">
<title>Node1&#45;&gt;Node2</title>
<path fill="none" stroke="midnightblue" d="M338.7,-151.37C322.05,-173.41 295.74,-204.72 267,-225.5 262.18,-228.98 256.84,-232.15 251.38,-234.99"/>
<polygon fill="midnightblue" stroke="midnightblue" points="341.67,-153.25 344.81,-143.13 336.04,-149.09 341.67,-153.25"/>
</g>
<!-- Node3 -->
<g id="node3" class="node">
<title>Node3</title>
<g id="a_node3"><a xlink:href="classflow_1_1net__flow_1_1asio_1_1Peer__socket.html#a98186f8257f1f7b49dbbbc13c0dda7fe" target="_top" xlink:title="boost.asio&#45;style asynchronous version that essentially performs non&#45;nullptr_t net_flow::Peer_socket::...">
<polygon fill="white" stroke="black" points="154,-181 154,-216 255,-216 255,-181 154,-181"/>
<text text-anchor="start" x="162" y="-205.6" font-family="Helvetica,sans-Serif" font-size="8.00">flow::net_flow::asio</text>
<text text-anchor="start" x="162" y="-196.6" font-family="Helvetica,sans-Serif" font-size="8.00">::Peer_socket::async</text>
<text text-anchor="middle" x="204.5" y="-187.6" font-family="Helvetica,sans-Serif" font-size="8.00">_receive</text>
</a>
</g>
</g>
<!-- Node1&#45;&gt;Node3 -->
<g id="edge2" class="edge">
<title>Node1&#45;&gt;Node3</title>
<path fill="none" stroke="midnightblue" d="M314.85,-147.69C299.84,-155.42 282.75,-164.02 267,-171.5 260.36,-174.65 253.27,-177.88 246.34,-180.97"/>
<polygon fill="midnightblue" stroke="midnightblue" points="316.62,-150.71 323.89,-143.01 313.4,-144.5 316.62,-150.71"/>
</g>
<!-- Node4 -->
<g id="node4" class="node">
<title>Node4</title>
<g id="a_node4"><a xlink:href="classflow_1_1net__flow_1_1asio_1_1Peer__socket.html#a33adc635f29071b10ea59802405d9b6c" target="_top" xlink:title="boost.asio&#45;style asynchronous version that essentially performs non&#45;nullptr_t net_flow::Peer_socket::...">
<polygon fill="white" stroke="black" points="142,-135.5 142,-161.5 267,-161.5 267,-135.5 142,-135.5"/>
<text text-anchor="start" x="150" y="-151.1" font-family="Helvetica,sans-Serif" font-size="8.00">flow::net_flow::asio</text>
<text text-anchor="middle" x="204.5" y="-142.1" font-family="Helvetica,sans-Serif" font-size="8.00">::Peer_socket::async_send</text>
</a>
</g>
</g>
<!-- Node1&#45;&gt;Node4 -->
<g id="edge3" class="edge">
<title>Node1&#45;&gt;Node4</title>
<path fill="none" stroke="midnightblue" d="M292.84,-135.24C284.32,-136.53 275.59,-137.86 267.11,-139.15"/>
<polygon fill="midnightblue" stroke="midnightblue" points="293.37,-138.7 302.73,-133.74 292.32,-131.78 293.37,-138.7"/>
</g>
<!-- Node5 -->
<g id="node5" class="node">
<title>Node5</title>
<g id="a_node5"><a xlink:href="classflow_1_1net__flow_1_1Server__socket.html#a6bd0680839499e709e041651106e72c8" target="_top" xlink:title="Blocking (synchronous) version of accept().">
<polygon fill="white" stroke="black" points="152,-90.5 152,-116.5 257,-116.5 257,-90.5 152,-90.5"/>
<text text-anchor="start" x="160" y="-106.1" font-family="Helvetica,sans-Serif" font-size="8.00">flow::net_flow::Server</text>
<text text-anchor="middle" x="204.5" y="-97.1" font-family="Helvetica,sans-Serif" font-size="8.00">_socket::sync_accept</text>
</a>
</g>
</g>
<!-- Node1&#45;&gt;Node5 -->
<g id="edge4" class="edge">
<title>Node1&#45;&gt;Node5</title>
<path fill="none" stroke="midnightblue" d="M292.84,-116.18C280.91,-114.45 268.6,-112.66 257.11,-110.99"/>
<polygon fill="midnightblue" stroke="midnightblue" points="292.33,-119.65 302.73,-117.62 293.34,-112.72 292.33,-119.65"/>
</g>
<!-- Node6 -->
<g id="node6" class="node">
<title>Node6</title>
<g id="a_node6"><a xlink:href="classflow_1_1net__flow_1_1Peer__socket.html#a70f940bd624603790512c2e0e420a4f7" target="_top" xlink:title="Blocking (synchronous) version of receive().">
<polygon fill="white" stroke="black" points="151.5,-45.5 151.5,-71.5 257.5,-71.5 257.5,-45.5 151.5,-45.5"/>
<text text-anchor="start" x="159.5" y="-61.1" font-family="Helvetica,sans-Serif" font-size="8.00">flow::net_flow::Peer</text>
<text text-anchor="middle" x="204.5" y="-52.1" font-family="Helvetica,sans-Serif" font-size="8.00">_socket::sync_receive</text>
</a>
</g>
</g>
<!-- Node1&#45;&gt;Node6 -->
<g id="edge5" class="edge">
<title>Node1&#45;&gt;Node6</title>
<path fill="none" stroke="midnightblue" d="M313.81,-103.33C299.1,-96.07 282.46,-88.15 267,-81.5 259.04,-78.08 250.39,-74.66 242.15,-71.54"/>
<polygon fill="midnightblue" stroke="midnightblue" points="312.66,-106.67 323.17,-108 315.78,-100.41 312.66,-106.67"/>
</g>
<!-- Node8 -->
<g id="node8" class="node">
<title>Node8</title>
<g id="a_node8"><a xlink:href="classflow_1_1net__flow_1_1Peer__socket.html#a71b0a749147867aeadf7dad892d75ba1" target="_top" xlink:title="Blocking (synchronous) version of send().">
<polygon fill="white" stroke="black" points="156,-0.5 156,-26.5 253,-26.5 253,-0.5 156,-0.5"/>
<text text-anchor="start" x="164" y="-16.1" font-family="Helvetica,sans-Serif" font-size="8.00">flow::net_flow::Peer</text>
<text text-anchor="middle" x="204.5" y="-7.1" font-family="Helvetica,sans-Serif" font-size="8.00">_socket::sync_send</text>
</a>
</g>
</g>
<!-- Node1&#45;&gt;Node8 -->
<g id="edge7" class="edge">
<title>Node1&#45;&gt;Node8</title>
<path fill="none" stroke="midnightblue" d="M337.1,-100.16C320.27,-80.22 294.57,-52.95 267,-35.5 261.63,-32.1 255.67,-29.14 249.64,-26.58"/>
<polygon fill="midnightblue" stroke="midnightblue" points="334.46,-102.47 343.53,-107.95 339.86,-98.01 334.46,-102.47"/>
</g>
<!-- Node7 -->
<g id="node7" class="node">
<title>Node7</title>
<g id="a_node7"><a xlink:href="classflow_1_1net__flow_1_1Peer__socket.html#a0bbb93117b012e4c47e2b1e6bc9df5b8" target="_top" xlink:title="Equivalent to sync_receive(nullptr, duration::max(), err_code); i.e., sync_receive(nullptr_t) with no...">
<polygon fill="white" stroke="black" points="0,-45.5 0,-71.5 106,-71.5 106,-45.5 0,-45.5"/>
<text text-anchor="start" x="8" y="-61.1" font-family="Helvetica,sans-Serif" font-size="8.00">flow::net_flow::Peer</text>
<text text-anchor="middle" x="53" y="-52.1" font-family="Helvetica,sans-Serif" font-size="8.00">_socket::sync_receive</text>
</a>
</g>
</g>
<!-- Node6&#45;&gt;Node7 -->
<g id="edge6" class="edge">
<title>Node6&#45;&gt;Node7</title>
<path fill="none" stroke="midnightblue" d="M141.09,-58.5C129.41,-58.5 117.32,-58.5 106.01,-58.5"/>
<polygon fill="midnightblue" stroke="midnightblue" points="141.21,-62 151.21,-58.5 141.21,-55 141.21,-62"/>
</g>
<!-- Node9 -->
<g id="node9" class="node">
<title>Node9</title>
<g id="a_node9"><a xlink:href="classflow_1_1net__flow_1_1Peer__socket.html#ad9340cd92f2e6f96fbe572633295a291" target="_top" xlink:title="Equivalent to sync_send(nullptr, duration::max(), err_code); i.e., sync_send(nullptr_t) with no timeo...">
<polygon fill="white" stroke="black" points="4.5,-0.5 4.5,-26.5 101.5,-26.5 101.5,-0.5 4.5,-0.5"/>
<text text-anchor="start" x="12.5" y="-16.1" font-family="Helvetica,sans-Serif" font-size="8.00">flow::net_flow::Peer</text>
<text text-anchor="middle" x="53" y="-7.1" font-family="Helvetica,sans-Serif" font-size="8.00">_socket::sync_send</text>
</a>
</g>
</g>
<!-- Node8&#45;&gt;Node9 -->
<g id="edge8" class="edge">
<title>Node8&#45;&gt;Node9</title>
<path fill="none" stroke="midnightblue" d="M145.4,-13.5C130.87,-13.5 115.46,-13.5 101.52,-13.5"/>
<polygon fill="midnightblue" stroke="midnightblue" points="145.79,-17 155.79,-13.5 145.79,-10 145.79,-17"/>
</g>
</g>
</svg>
