<?xml version="1.0" encoding="UTF-8" standalone="no"?>
<!DOCTYPE svg PUBLIC "-//W3C//DTD SVG 1.1//EN"
 "http://www.w3.org/Graphics/SVG/1.1/DTD/svg11.dtd">
<!-- Generated by graphviz version 2.43.0 (0)
 -->
<!-- Title: flow::async::optimize_pinning_in_thread_pool Pages: 1 -->
<svg width="527pt" height="112pt"
 viewBox="0.00 0.00 527.00 111.50" xmlns="http://www.w3.org/2000/svg" xmlns:xlink="http://www.w3.org/1999/xlink">
<g id="graph0" class="graph" transform="scale(1 1) rotate(0) translate(4 107.5)">
<title>flow::async::optimize_pinning_in_thread_pool</title>
<polygon fill="white" stroke="transparent" points="-4,4 -4,-107.5 523,-107.5 523,4 -4,4"/>
<!-- Node1 -->
<g id="node1" class="node">
<title>Node1</title>
<g id="a_node1"><a xlink:title="Assuming the same situation as documented for optimal_worker_thread_count_per_pool(),...">
<polygon fill="#bfbfbf" stroke="black" points="0,-47.5 0,-73.5 115,-73.5 115,-47.5 0,-47.5"/>
<text text-anchor="start" x="8" y="-63.1" font-family="Helvetica,sans-Serif" font-size="8.00">flow::async::optimize</text>
<text text-anchor="middle" x="57.5" y="-54.1" font-family="Helvetica,sans-Serif" font-size="8.00">_pinning_in_thread_pool</text>
</a>
</g>
</g>
<!-- Node2 -->
<g id="node2" class="node">
<title>Node2</title>
<g id="a_node2"><a xlink:href="namespaceflow_1_1async.html#ac2f32e9fc685e2e9013900b100321fff" target="_top" xlink:title="Assuming a planned thread pool will be receiving ~symmetrical load, and its UX&#45;affecting (in particul...">
<polygon fill="white" stroke="black" points="151,-68 151,-103 257,-103 257,-68 151,-68"/>
<text text-anchor="start" x="159" y="-92.6" font-family="Helvetica,sans-Serif" font-size="8.00">flow::async::optimal</text>
<text text-anchor="start" x="159" y="-83.6" font-family="Helvetica,sans-Serif" font-size="8.00">_worker_thread_count</text>
<text text-anchor="middle" x="204" y="-74.6" font-family="Helvetica,sans-Serif" font-size="8.00">_per_pool</text>
</a>
</g>
</g>
<!-- Node1&#45;&gt;Node2 -->
<g id="edge1" class="edge">
<title>Node1&#45;&gt;Node2</title>
<path fill="none" stroke="midnightblue" d="M115.2,-70.31C123.61,-71.76 132.31,-73.27 140.83,-74.74"/>
<polygon fill="midnightblue" stroke="midnightblue" points="140.26,-78.2 150.71,-76.45 141.45,-71.3 140.26,-78.2"/>
</g>
<!-- Node3 -->
<g id="node3" class="node">
<title>Node3</title>
<g id="a_node3"><a xlink:href="namespaceflow_1_1util.html#a685b86585da2fa5186f51854e7ae1561" target="_top" xlink:title="Equivalent to ostream_op_to_string() but returns a new string by value instead of writing to the call...">
<polygon fill="white" stroke="black" points="158,-22.5 158,-48.5 250,-48.5 250,-22.5 158,-22.5"/>
<text text-anchor="start" x="166" y="-38.1" font-family="Helvetica,sans-Serif" font-size="8.00">flow::util::ostream</text>
<text text-anchor="middle" x="204" y="-29.1" font-family="Helvetica,sans-Serif" font-size="8.00">_op_string</text>
</a>
</g>
</g>
<!-- Node1&#45;&gt;Node3 -->
<g id="edge2" class="edge">
<title>Node1&#45;&gt;Node3</title>
<path fill="none" stroke="midnightblue" d="M115.2,-50.69C125.86,-48.85 137,-46.92 147.63,-45.08"/>
<polygon fill="midnightblue" stroke="midnightblue" points="148.36,-48.5 157.62,-43.35 147.17,-41.61 148.36,-48.5"/>
</g>
<!-- Node4 -->
<g id="node4" class="node">
<title>Node4</title>
<g id="a_node4"><a xlink:href="namespaceflow_1_1util.html#a8afd30c50bcd670d45442df49d1da484" target="_top" xlink:title="Writes to the specified string, as if the given arguments were each passed, via &lt;&lt; in sequence,...">
<polygon fill="white" stroke="black" points="293,-22.5 293,-48.5 385,-48.5 385,-22.5 293,-22.5"/>
<text text-anchor="start" x="301" y="-38.1" font-family="Helvetica,sans-Serif" font-size="8.00">flow::util::ostream</text>
<text text-anchor="middle" x="339" y="-29.1" font-family="Helvetica,sans-Serif" font-size="8.00">_op_to_string</text>
</a>
</g>
</g>
<!-- Node3&#45;&gt;Node4 -->
<g id="edge3" class="edge">
<title>Node3&#45;&gt;Node4</title>
<path fill="none" stroke="midnightblue" d="M250.03,-35.5C260.42,-35.5 271.6,-35.5 282.38,-35.5"/>
<polygon fill="midnightblue" stroke="midnightblue" points="282.57,-39 292.57,-35.5 282.57,-32 282.57,-39"/>
</g>
<!-- Node5 -->
<g id="node5" class="node">
<title>Node5</title>
<g id="a_node5"><a xlink:href="namespaceflow_1_1util.html#af92e6183c2071f4166d4b5a91f50d70c" target="_top" xlink:title="&quot;Induction step&quot; version of variadic function template that simply outputs arguments 2+ via &lt;&lt; to the...">
<polygon fill="white" stroke="black" points="421,-45.5 421,-71.5 519,-71.5 519,-45.5 421,-45.5"/>
<text text-anchor="start" x="429" y="-61.1" font-family="Helvetica,sans-Serif" font-size="8.00">flow::util::feed_args</text>
<text text-anchor="middle" x="470" y="-52.1" font-family="Helvetica,sans-Serif" font-size="8.00">_to_ostream</text>
</a>
</g>
</g>
<!-- Node4&#45;&gt;Node5 -->
<g id="edge4" class="edge">
<title>Node4&#45;&gt;Node5</title>
<path fill="none" stroke="midnightblue" d="M385.12,-43.54C393.37,-45.02 402.09,-46.57 410.66,-48.1"/>
<polygon fill="midnightblue" stroke="midnightblue" points="410.16,-51.56 420.62,-49.87 411.38,-44.67 410.16,-51.56"/>
</g>
<!-- Node6 -->
<g id="node6" class="node">
<title>Node6</title>
<g id="a_node6"><a xlink:href="classflow_1_1util_1_1String__ostream.html#a7e64b069ae0e221952068c13fdc0f080" target="_top" xlink:title="Access to stream that will write to owned string.">
<polygon fill="white" stroke="black" points="429,-0.5 429,-26.5 511,-26.5 511,-0.5 429,-0.5"/>
<text text-anchor="start" x="437" y="-16.1" font-family="Helvetica,sans-Serif" font-size="8.00">flow::util::String</text>
<text text-anchor="middle" x="470" y="-7.1" font-family="Helvetica,sans-Serif" font-size="8.00">_ostream::os</text>
</a>
</g>
</g>
<!-- Node4&#45;&gt;Node6 -->
<g id="edge6" class="edge">
<title>Node4&#45;&gt;Node6</title>
<path fill="none" stroke="midnightblue" d="M385.12,-27.81C396.02,-25.95 407.74,-23.95 418.86,-22.05"/>
<polygon fill="midnightblue" stroke="midnightblue" points="419.59,-25.48 428.86,-20.35 418.41,-18.58 419.59,-25.48"/>
</g>
<!-- Node5&#45;&gt;Node5 -->
<g id="edge5" class="edge">
<title>Node5&#45;&gt;Node5</title>
<path fill="none" stroke="midnightblue" d="M448.01,-71.77C441.34,-80.96 448.67,-90 470,-90 483,-90 490.8,-86.64 493.4,-81.94"/>
<polygon fill="midnightblue" stroke="midnightblue" points="496.83,-81.2 491.99,-71.77 489.89,-82.16 496.83,-81.2"/>
</g>
</g>
</svg>
