<?xml version="1.0" encoding="UTF-8" standalone="no"?>
<!DOCTYPE svg PUBLIC "-//W3C//DTD SVG 1.1//EN"
 "http://www.w3.org/Graphics/SVG/1.1/DTD/svg11.dtd">
<!-- Generated by graphviz version 2.43.0 (0)
 -->
<!-- Title: boost::filesystem::validate Pages: 1 -->
<svg width="492pt" height="98pt"
 viewBox="0.00 0.00 492.00 98.00" xmlns="http://www.w3.org/2000/svg" xmlns:xlink="http://www.w3.org/1999/xlink">
<g id="graph0" class="graph" transform="scale(1 1) rotate(0) translate(4 94)">
<title>boost::filesystem::validate</title>
<polygon fill="white" stroke="transparent" points="-4,4 -4,-94 488,-94 488,4 -4,4"/>
<!-- Node1 -->
<g id="node1" class="node">
<title>Node1</title>
<g id="a_node1"><a xlink:title="ADL&#45;based overload of boost.program_options validate() to allow for empty boost::filesystem::path val...">
<polygon fill="#bfbfbf" stroke="black" points="0,-22.5 0,-48.5 94,-48.5 94,-22.5 0,-22.5"/>
<text text-anchor="start" x="8" y="-38.1" font-family="Helvetica,sans-Serif" font-size="8.00">boost::filesystem::</text>
<text text-anchor="middle" x="47" y="-29.1" font-family="Helvetica,sans-Serif" font-size="8.00">validate</text>
</a>
</g>
</g>
<!-- Node2 -->
<g id="node2" class="node">
<title>Node2</title>
<g id="a_node2"><a xlink:href="namespaceflow_1_1util.html#a685b86585da2fa5186f51854e7ae1561" target="_top" xlink:title="Equivalent to ostream_op_to_string() but returns a new string by value instead of writing to the call...">
<polygon fill="white" stroke="black" points="130,-22.5 130,-48.5 222,-48.5 222,-22.5 130,-22.5"/>
<text text-anchor="start" x="138" y="-38.1" font-family="Helvetica,sans-Serif" font-size="8.00">flow::util::ostream</text>
<text text-anchor="middle" x="176" y="-29.1" font-family="Helvetica,sans-Serif" font-size="8.00">_op_string</text>
</a>
</g>
</g>
<!-- Node1&#45;&gt;Node2 -->
<g id="edge1" class="edge">
<title>Node1&#45;&gt;Node2</title>
<path fill="none" stroke="midnightblue" d="M94.21,-35.5C102.48,-35.5 111.17,-35.5 119.67,-35.5"/>
<polygon fill="midnightblue" stroke="midnightblue" points="119.89,-39 129.89,-35.5 119.89,-32 119.89,-39"/>
</g>
<!-- Node3 -->
<g id="node3" class="node">
<title>Node3</title>
<g id="a_node3"><a xlink:href="namespaceflow_1_1util.html#a8afd30c50bcd670d45442df49d1da484" target="_top" xlink:title="Writes to the specified string, as if the given arguments were each passed, via &lt;&lt; in sequence,...">
<polygon fill="white" stroke="black" points="258,-22.5 258,-48.5 350,-48.5 350,-22.5 258,-22.5"/>
<text text-anchor="start" x="266" y="-38.1" font-family="Helvetica,sans-Serif" font-size="8.00">flow::util::ostream</text>
<text text-anchor="middle" x="304" y="-29.1" font-family="Helvetica,sans-Serif" font-size="8.00">_op_to_string</text>
</a>
</g>
</g>
<!-- Node2&#45;&gt;Node3 -->
<g id="edge2" class="edge">
<title>Node2&#45;&gt;Node3</title>
<path fill="none" stroke="midnightblue" d="M222.13,-35.5C230.37,-35.5 239.04,-35.5 247.53,-35.5"/>
<polygon fill="midnightblue" stroke="midnightblue" points="247.76,-39 257.76,-35.5 247.76,-32 247.76,-39"/>
</g>
<!-- Node4 -->
<g id="node4" class="node">
<title>Node4</title>
<g id="a_node4"><a xlink:href="namespaceflow_1_1util.html#af92e6183c2071f4166d4b5a91f50d70c" target="_top" xlink:title="&quot;Induction step&quot; version of variadic function template that simply outputs arguments 2+ via &lt;&lt; to the...">
<polygon fill="white" stroke="black" points="386,-45.5 386,-71.5 484,-71.5 484,-45.5 386,-45.5"/>
<text text-anchor="start" x="394" y="-61.1" font-family="Helvetica,sans-Serif" font-size="8.00">flow::util::feed_args</text>
<text text-anchor="middle" x="435" y="-52.1" font-family="Helvetica,sans-Serif" font-size="8.00">_to_ostream</text>
</a>
</g>
</g>
<!-- Node3&#45;&gt;Node4 -->
<g id="edge3" class="edge">
<title>Node3&#45;&gt;Node4</title>
<path fill="none" stroke="midnightblue" d="M350.12,-43.54C358.37,-45.02 367.09,-46.57 375.66,-48.1"/>
<polygon fill="midnightblue" stroke="midnightblue" points="375.16,-51.56 385.62,-49.87 376.38,-44.67 375.16,-51.56"/>
</g>
<!-- Node5 -->
<g id="node5" class="node">
<title>Node5</title>
<g id="a_node5"><a xlink:href="classflow_1_1util_1_1String__ostream.html#a7e64b069ae0e221952068c13fdc0f080" target="_top" xlink:title="Access to stream that will write to owned string.">
<polygon fill="white" stroke="black" points="394,-0.5 394,-26.5 476,-26.5 476,-0.5 394,-0.5"/>
<text text-anchor="start" x="402" y="-16.1" font-family="Helvetica,sans-Serif" font-size="8.00">flow::util::String</text>
<text text-anchor="middle" x="435" y="-7.1" font-family="Helvetica,sans-Serif" font-size="8.00">_ostream::os</text>
</a>
</g>
</g>
<!-- Node3&#45;&gt;Node5 -->
<g id="edge5" class="edge">
<title>Node3&#45;&gt;Node5</title>
<path fill="none" stroke="midnightblue" d="M350.12,-27.81C361.02,-25.95 372.74,-23.95 383.86,-22.05"/>
<polygon fill="midnightblue" stroke="midnightblue" points="384.59,-25.48 393.86,-20.35 383.41,-18.58 384.59,-25.48"/>
</g>
<!-- Node4&#45;&gt;Node4 -->
<g id="edge4" class="edge">
<title>Node4&#45;&gt;Node4</title>
<path fill="none" stroke="midnightblue" d="M413.01,-71.77C406.34,-80.96 413.67,-90 435,-90 448,-90 455.8,-86.64 458.4,-81.94"/>
<polygon fill="midnightblue" stroke="midnightblue" points="461.83,-81.2 456.99,-71.77 454.89,-82.16 461.83,-81.2"/>
</g>
</g>
</svg>
