<?xml version="1.0" encoding="UTF-8" standalone="no"?>
<!DOCTYPE svg PUBLIC "-//W3C//DTD SVG 1.1//EN"
 "http://www.w3.org/Graphics/SVG/1.1/DTD/svg11.dtd">
<!-- Generated by graphviz version 2.43.0 (0)
 -->
<!-- Title: flow::util::in_open_open_range Pages: 1 -->
<svg width="262pt" height="35pt"
 viewBox="0.00 0.00 262.00 35.00" xmlns="http://www.w3.org/2000/svg" xmlns:xlink="http://www.w3.org/1999/xlink">
<g id="graph0" class="graph" transform="scale(1 1) rotate(0) translate(4 31)">
<title>flow::util::in_open_open_range</title>
<polygon fill="white" stroke="transparent" points="-4,4 -4,-31 258,-31 258,4 -4,4"/>
<!-- Node1 -->
<g id="node1" class="node">
<title>Node1</title>
<g id="a_node1"><a xlink:title="Returns true if and only if the given value is within the given range, given as a (low,...">
<polygon fill="#bfbfbf" stroke="black" points="164,-0.5 164,-26.5 254,-26.5 254,-0.5 164,-0.5"/>
<text text-anchor="start" x="172" y="-16.1" font-family="Helvetica,sans-Serif" font-size="8.00">flow::util::in_open</text>
<text text-anchor="middle" x="209" y="-7.1" font-family="Helvetica,sans-Serif" font-size="8.00">_open_range</text>
</a>
</g>
</g>
<!-- Node2 -->
<g id="node2" class="node">
<title>Node2</title>
<g id="a_node2"><a xlink:href="classflow_1_1net__flow_1_1Node.html#a055ee380cf87f83c06d7380821c4679e" target="_top" xlink:title="Helper of perform_accumulated_on_recv_tasks() that categorizes the given accumulated individual ackno...">
<polygon fill="white" stroke="black" points="0,-0.5 0,-26.5 128,-26.5 128,-0.5 0,-0.5"/>
<text text-anchor="start" x="8" y="-16.1" font-family="Helvetica,sans-Serif" font-size="8.00">flow::net_flow::Node</text>
<text text-anchor="middle" x="64" y="-7.1" font-family="Helvetica,sans-Serif" font-size="8.00">::categorize_individual_ack</text>
</a>
</g>
</g>
<!-- Node1&#45;&gt;Node2 -->
<g id="edge1" class="edge">
<title>Node1&#45;&gt;Node2</title>
<path fill="none" stroke="midnightblue" d="M153.87,-13.5C145.46,-13.5 136.7,-13.5 128.11,-13.5"/>
<polygon fill="midnightblue" stroke="midnightblue" points="153.93,-17 163.93,-13.5 153.93,-10 153.93,-17"/>
</g>
</g>
</svg>
