<?xml version="1.0" encoding="UTF-8" standalone="no"?>
<!DOCTYPE svg PUBLIC "-//W3C//DTD SVG 1.1//EN"
 "http://www.w3.org/Graphics/SVG/1.1/DTD/svg11.dtd">
<!-- Generated by graphviz version 2.43.0 (0)
 -->
<!-- Title: flow::cfg::value_set_member_id_to_opt_name_keyed Pages: 1 -->
<svg width="578pt" height="121pt"
 viewBox="0.00 0.00 578.00 121.00" xmlns="http://www.w3.org/2000/svg" xmlns:xlink="http://www.w3.org/1999/xlink">
<g id="graph0" class="graph" transform="scale(1 1) rotate(0) translate(4 117)">
<title>flow::cfg::value_set_member_id_to_opt_name_keyed</title>
<polygon fill="white" stroke="transparent" points="-4,4 -4,-117 574,-117 574,4 -4,4"/>
<!-- Node1 -->
<g id="node1" class="node">
<title>Node1</title>
<g id="a_node1"><a xlink:title="Similar to value_set_member_id_to_opt_name() but used by FLOW_CFG_OPTION_SET_DECLARE_OPTION_KEYED() i...">
<polygon fill="#bfbfbf" stroke="black" points="0,-22.5 0,-48.5 150,-48.5 150,-22.5 0,-22.5"/>
<text text-anchor="start" x="8" y="-38.1" font-family="Helvetica,sans-Serif" font-size="8.00">flow::cfg::value_set</text>
<text text-anchor="middle" x="75" y="-29.1" font-family="Helvetica,sans-Serif" font-size="8.00">_member_id_to_opt_name_keyed</text>
</a>
</g>
</g>
<!-- Node2 -->
<g id="node2" class="node">
<title>Node2</title>
<g id="a_node2"><a xlink:href="namespaceflow_1_1util.html#a685b86585da2fa5186f51854e7ae1561" target="_top" xlink:title="Equivalent to ostream_op_to_string() but returns a new string by value instead of writing to the call...">
<polygon fill="white" stroke="black" points="201,-45.5 201,-71.5 293,-71.5 293,-45.5 201,-45.5"/>
<text text-anchor="start" x="209" y="-61.1" font-family="Helvetica,sans-Serif" font-size="8.00">flow::util::ostream</text>
<text text-anchor="middle" x="247" y="-52.1" font-family="Helvetica,sans-Serif" font-size="8.00">_op_string</text>
</a>
</g>
</g>
<!-- Node1&#45;&gt;Node2 -->
<g id="edge1" class="edge">
<title>Node1&#45;&gt;Node2</title>
<path fill="none" stroke="midnightblue" d="M150.07,-45.52C163.63,-47.36 177.56,-49.24 190.46,-50.99"/>
<polygon fill="midnightblue" stroke="midnightblue" points="190.18,-54.48 200.55,-52.35 191.11,-47.54 190.18,-54.48"/>
</g>
<!-- Node6 -->
<g id="node6" class="node">
<title>Node6</title>
<g id="a_node6"><a xlink:href="namespaceflow_1_1cfg.html#a696eee859b6e3f0fc0b6473a1d2836b0" target="_top" xlink:title="Utility, used by FLOW_CFG_OPTION_SET_DECLARE_OPTION() internally but made available as a public API i...">
<polygon fill="white" stroke="black" points="186,-0.5 186,-26.5 308,-26.5 308,-0.5 186,-0.5"/>
<text text-anchor="start" x="194" y="-16.1" font-family="Helvetica,sans-Serif" font-size="8.00">flow::cfg::value_set</text>
<text text-anchor="middle" x="247" y="-7.1" font-family="Helvetica,sans-Serif" font-size="8.00">_member_id_to_opt_name</text>
</a>
</g>
</g>
<!-- Node1&#45;&gt;Node6 -->
<g id="edge6" class="edge">
<title>Node1&#45;&gt;Node6</title>
<path fill="none" stroke="midnightblue" d="M150.07,-25.91C158.69,-24.8 167.46,-23.66 176.02,-22.56"/>
<polygon fill="midnightblue" stroke="midnightblue" points="176.48,-26.03 185.95,-21.27 175.58,-19.08 176.48,-26.03"/>
</g>
<!-- Node3 -->
<g id="node3" class="node">
<title>Node3</title>
<g id="a_node3"><a xlink:href="namespaceflow_1_1util.html#a8afd30c50bcd670d45442df49d1da484" target="_top" xlink:title="Writes to the specified string, as if the given arguments were each passed, via &lt;&lt; in sequence,...">
<polygon fill="white" stroke="black" points="344,-45.5 344,-71.5 436,-71.5 436,-45.5 344,-45.5"/>
<text text-anchor="start" x="352" y="-61.1" font-family="Helvetica,sans-Serif" font-size="8.00">flow::util::ostream</text>
<text text-anchor="middle" x="390" y="-52.1" font-family="Helvetica,sans-Serif" font-size="8.00">_op_to_string</text>
</a>
</g>
</g>
<!-- Node2&#45;&gt;Node3 -->
<g id="edge2" class="edge">
<title>Node2&#45;&gt;Node3</title>
<path fill="none" stroke="midnightblue" d="M293,-58.5C305.97,-58.5 320.28,-58.5 333.8,-58.5"/>
<polygon fill="midnightblue" stroke="midnightblue" points="333.94,-62 343.94,-58.5 333.94,-55 333.94,-62"/>
</g>
<!-- Node4 -->
<g id="node4" class="node">
<title>Node4</title>
<g id="a_node4"><a xlink:href="namespaceflow_1_1util.html#af92e6183c2071f4166d4b5a91f50d70c" target="_top" xlink:title="&quot;Induction step&quot; version of variadic function template that simply outputs arguments 2+ via &lt;&lt; to the...">
<polygon fill="white" stroke="black" points="472,-68.5 472,-94.5 570,-94.5 570,-68.5 472,-68.5"/>
<text text-anchor="start" x="480" y="-84.1" font-family="Helvetica,sans-Serif" font-size="8.00">flow::util::feed_args</text>
<text text-anchor="middle" x="521" y="-75.1" font-family="Helvetica,sans-Serif" font-size="8.00">_to_ostream</text>
</a>
</g>
</g>
<!-- Node3&#45;&gt;Node4 -->
<g id="edge3" class="edge">
<title>Node3&#45;&gt;Node4</title>
<path fill="none" stroke="midnightblue" d="M436.12,-66.54C444.37,-68.02 453.09,-69.57 461.66,-71.1"/>
<polygon fill="midnightblue" stroke="midnightblue" points="461.16,-74.56 471.62,-72.87 462.38,-67.67 461.16,-74.56"/>
</g>
<!-- Node5 -->
<g id="node5" class="node">
<title>Node5</title>
<g id="a_node5"><a xlink:href="classflow_1_1util_1_1String__ostream.html#a7e64b069ae0e221952068c13fdc0f080" target="_top" xlink:title="Access to stream that will write to owned string.">
<polygon fill="white" stroke="black" points="480,-23.5 480,-49.5 562,-49.5 562,-23.5 480,-23.5"/>
<text text-anchor="start" x="488" y="-39.1" font-family="Helvetica,sans-Serif" font-size="8.00">flow::util::String</text>
<text text-anchor="middle" x="521" y="-30.1" font-family="Helvetica,sans-Serif" font-size="8.00">_ostream::os</text>
</a>
</g>
</g>
<!-- Node3&#45;&gt;Node5 -->
<g id="edge5" class="edge">
<title>Node3&#45;&gt;Node5</title>
<path fill="none" stroke="midnightblue" d="M436.12,-50.81C447.02,-48.95 458.74,-46.95 469.86,-45.05"/>
<polygon fill="midnightblue" stroke="midnightblue" points="470.59,-48.48 479.86,-43.35 469.41,-41.58 470.59,-48.48"/>
</g>
<!-- Node4&#45;&gt;Node4 -->
<g id="edge4" class="edge">
<title>Node4&#45;&gt;Node4</title>
<path fill="none" stroke="midnightblue" d="M499.01,-94.77C492.34,-103.96 499.67,-113 521,-113 534,-113 541.8,-109.64 544.4,-104.94"/>
<polygon fill="midnightblue" stroke="midnightblue" points="547.83,-104.2 542.99,-94.77 540.89,-105.16 547.83,-104.2"/>
</g>
</g>
</svg>
