<?xml version="1.0" encoding="UTF-8" standalone="no"?>
<!DOCTYPE svg PUBLIC "-//W3C//DTD SVG 1.1//EN"
 "http://www.w3.org/Graphics/SVG/1.1/DTD/svg11.dtd">
<!-- Generated by graphviz version 2.43.0 (0)
 -->
<!-- Title: flow::util::key_exists Pages: 1 -->
<svg width="1530pt" height="567pt"
 viewBox="0.00 0.00 1530.00 566.50" xmlns="http://www.w3.org/2000/svg" xmlns:xlink="http://www.w3.org/1999/xlink">
<g id="graph0" class="graph" transform="scale(1 1) rotate(0) translate(4 562.5)">
<title>flow::util::key_exists</title>
<polygon fill="white" stroke="transparent" points="-4,4 -4,-562.5 1526,-562.5 1526,4 -4,4"/>
<!-- Node1 -->
<g id="node1" class="node">
<title>Node1</title>
<g id="a_node1"><a xlink:title="Returns true if and only if the given key is present at least once in the given associative container...">
<polygon fill="#bfbfbf" stroke="black" points="1423,-301 1423,-318 1522,-318 1522,-301 1423,-301"/>
<text text-anchor="middle" x="1472.5" y="-307.6" font-family="Helvetica,sans-Serif" font-size="8.00">flow::util::key_exists</text>
</a>
</g>
</g>
<!-- Node2 -->
<g id="node2" class="node">
<title>Node2</title>
<g id="a_node2"><a xlink:href="classflow_1_1cfg_1_1Option__set.html#aa1f780bfd3a5ff07ade1e36785e28f49" target="_top" xlink:title="In PARSING state enters CANONICAL state, finalizing values() from values_candidate().">
<polygon fill="white" stroke="black" points="1256.5,-527.5 1256.5,-553.5 1375.5,-553.5 1375.5,-527.5 1256.5,-527.5"/>
<text text-anchor="start" x="1264.5" y="-543.1" font-family="Helvetica,sans-Serif" font-size="8.00">flow::cfg::Option_set</text>
<text text-anchor="middle" x="1316" y="-534.1" font-family="Helvetica,sans-Serif" font-size="8.00">::canonicalize_candidate</text>
</a>
</g>
</g>
<!-- Node1&#45;&gt;Node2 -->
<g id="edge1" class="edge">
<title>Node1&#45;&gt;Node2</title>
<path fill="none" stroke="midnightblue" d="M1469.29,-328.21C1463.51,-368.84 1444.18,-465.71 1387,-518.5 1383.26,-521.96 1378.97,-524.87 1374.41,-527.33"/>
<polygon fill="midnightblue" stroke="midnightblue" points="1472.79,-328.49 1470.61,-318.12 1465.85,-327.59 1472.79,-328.49"/>
</g>
<!-- Node4 -->
<g id="node4" class="node">
<title>Node4</title>
<g id="a_node4"><a xlink:href="classflow_1_1net__flow_1_1Node.html#ac619d1a96cc62d223f990ee6a3c909ff" target="_top" xlink:title="Thread W implementation of connect().">
<polygon fill="white" stroke="black" points="1265.5,-482.5 1265.5,-508.5 1366.5,-508.5 1366.5,-482.5 1265.5,-482.5"/>
<text text-anchor="start" x="1273.5" y="-498.1" font-family="Helvetica,sans-Serif" font-size="8.00">flow::net_flow::Node</text>
<text text-anchor="middle" x="1316" y="-489.1" font-family="Helvetica,sans-Serif" font-size="8.00">::connect_worker</text>
</a>
</g>
</g>
<!-- Node1&#45;&gt;Node4 -->
<g id="edge3" class="edge">
<title>Node1&#45;&gt;Node4</title>
<path fill="none" stroke="midnightblue" d="M1466.94,-327.86C1457.68,-361.46 1433.46,-432.97 1387,-472.5 1381.06,-477.56 1373.97,-481.51 1366.63,-484.6"/>
<polygon fill="midnightblue" stroke="midnightblue" points="1470.37,-328.59 1469.53,-318.03 1463.6,-326.81 1470.37,-328.59"/>
</g>
<!-- Node5 -->
<g id="node5" class="node">
<title>Node5</title>
<g id="a_node5"><a xlink:href="classflow_1_1net__flow_1_1Drop__timer.html#a45d4cf2dfecc2cd5c35f452cd7c8d05d" target="_top" xlink:title="Finishes the group started by start start_contemporaneous_events().">
<polygon fill="white" stroke="black" points="1245,-428 1245,-463 1387,-463 1387,-428 1245,-428"/>
<text text-anchor="start" x="1253" y="-452.6" font-family="Helvetica,sans-Serif" font-size="8.00">flow::net_flow::Drop</text>
<text text-anchor="start" x="1253" y="-443.6" font-family="Helvetica,sans-Serif" font-size="8.00">_timer::end_contemporaneous</text>
<text text-anchor="middle" x="1316" y="-434.6" font-family="Helvetica,sans-Serif" font-size="8.00">_events</text>
</a>
</g>
</g>
<!-- Node1&#45;&gt;Node5 -->
<g id="edge4" class="edge">
<title>Node1&#45;&gt;Node5</title>
<path fill="none" stroke="midnightblue" d="M1461.14,-326.66C1446.86,-349.13 1419.2,-388.58 1387,-413.5 1379.92,-418.98 1371.75,-423.78 1363.55,-427.89"/>
<polygon fill="midnightblue" stroke="midnightblue" points="1464.12,-328.51 1466.42,-318.16 1458.17,-324.81 1464.12,-328.51"/>
</g>
<!-- Node6 -->
<g id="node6" class="node">
<title>Node6</title>
<g id="a_node6"><a xlink:href="classflow_1_1net__flow_1_1Node.html#a8a4ddf81ddbeab1f740940c4cc0d3625" target="_top" xlink:title="For each WAITING Event_set within the Node: checks for any events that hold, and if any do hold,...">
<polygon fill="white" stroke="black" points="1252,-319.5 1252,-345.5 1380,-345.5 1380,-319.5 1252,-319.5"/>
<text text-anchor="start" x="1260" y="-335.1" font-family="Helvetica,sans-Serif" font-size="8.00">flow::net_flow::Node</text>
<text text-anchor="middle" x="1316" y="-326.1" font-family="Helvetica,sans-Serif" font-size="8.00">::event_set_all_check_delta</text>
</a>
</g>
</g>
<!-- Node1&#45;&gt;Node6 -->
<g id="edge5" class="edge">
<title>Node1&#45;&gt;Node6</title>
<path fill="none" stroke="midnightblue" d="M1412.58,-318.27C1401.92,-319.86 1390.77,-321.52 1380.01,-323.12"/>
<polygon fill="midnightblue" stroke="midnightblue" points="1413.24,-321.71 1422.62,-316.78 1412.21,-314.79 1413.24,-321.71"/>
</g>
<!-- Node40 -->
<g id="node24" class="node">
<title>Node40</title>
<g id="a_node24"><a xlink:href="classflow_1_1net__flow_1_1Node.html#aaaf5c3b5e6b9f9f1658b60907b36a498" target="_top" xlink:title="Handles a just&#45;deserialized, just&#45;demultiplexed low&#45;level SYN packet delivered to the given server so...">
<polygon fill="white" stroke="black" points="604,-371 604,-406 724,-406 724,-371 604,-371"/>
<text text-anchor="start" x="612" y="-395.6" font-family="Helvetica,sans-Serif" font-size="8.00">flow::net_flow::Node</text>
<text text-anchor="start" x="612" y="-386.6" font-family="Helvetica,sans-Serif" font-size="8.00">::handle_syn_to_listening</text>
<text text-anchor="middle" x="664" y="-377.6" font-family="Helvetica,sans-Serif" font-size="8.00">_server</text>
</a>
</g>
</g>
<!-- Node1&#45;&gt;Node40 -->
<g id="edge31" class="edge">
<title>Node1&#45;&gt;Node40</title>
<path fill="none" stroke="midnightblue" d="M1449.72,-323.64C1433.12,-333.84 1409.39,-347.21 1387,-355.5 1311.13,-383.57 1289.45,-385.01 1209,-393.5 1033.59,-412.01 824.61,-400.86 724.38,-393.46"/>
<polygon fill="midnightblue" stroke="midnightblue" points="1451.99,-326.35 1458.6,-318.07 1448.27,-320.42 1451.99,-326.35"/>
</g>
<!-- Node41 -->
<g id="node25" class="node">
<title>Node41</title>
<g id="a_node25"><a xlink:href="classflow_1_1log_1_1Config.html#a146a60d96256dbaed4f5f0e7dcd8f529" target="_top" xlink:title="Registers the string names of each member of the enum class Component_payload earlier registered via ...">
<polygon fill="white" stroke="black" points="1260.5,-274.5 1260.5,-300.5 1371.5,-300.5 1371.5,-274.5 1260.5,-274.5"/>
<text text-anchor="start" x="1268.5" y="-290.1" font-family="Helvetica,sans-Serif" font-size="8.00">flow::log::Config::</text>
<text text-anchor="middle" x="1316" y="-281.1" font-family="Helvetica,sans-Serif" font-size="8.00">init_component_names</text>
</a>
</g>
</g>
<!-- Node1&#45;&gt;Node41 -->
<g id="edge33" class="edge">
<title>Node1&#45;&gt;Node41</title>
<path fill="none" stroke="midnightblue" d="M1412.55,-301.11C1399.14,-299.2 1384.96,-297.18 1371.74,-295.3"/>
<polygon fill="midnightblue" stroke="midnightblue" points="1412.22,-304.59 1422.62,-302.54 1413.21,-297.66 1412.22,-304.59"/>
</g>
<!-- Node42 -->
<g id="node26" class="node">
<title>Node42</title>
<g id="a_node26"><a xlink:href="classflow_1_1log_1_1Config.html#a116df84f1735ade2c4b9b265c4bdd36a" target="_top" xlink:title="Registers a generically&#45;typed enum class that represents the full set of the calling module&#39;s possibl...">
<polygon fill="white" stroke="black" points="1256.5,-220 1256.5,-255 1375.5,-255 1375.5,-220 1256.5,-220"/>
<text text-anchor="start" x="1264.5" y="-244.6" font-family="Helvetica,sans-Serif" font-size="8.00">flow::log::Config::</text>
<text text-anchor="start" x="1264.5" y="-235.6" font-family="Helvetica,sans-Serif" font-size="8.00">init_component_to_union</text>
<text text-anchor="middle" x="1316" y="-226.6" font-family="Helvetica,sans-Serif" font-size="8.00">_idx_mapping</text>
</a>
</g>
</g>
<!-- Node1&#45;&gt;Node42 -->
<g id="edge34" class="edge">
<title>Node1&#45;&gt;Node42</title>
<path fill="none" stroke="midnightblue" d="M1447.76,-295.86C1431.04,-286.5 1407.98,-274.09 1387,-264.5 1379.89,-261.25 1372.27,-258.04 1364.77,-255.03"/>
<polygon fill="midnightblue" stroke="midnightblue" points="1446.39,-299.11 1456.82,-300.98 1449.83,-293.01 1446.39,-299.11"/>
</g>
<!-- Node43 -->
<g id="node27" class="node">
<title>Node43</title>
<g id="a_node27"><a xlink:href="classflow_1_1net__flow_1_1Node.html#aba411df8746d5fd4db2d28df3a016f5e" target="_top" xlink:title="Thread W implementation of listen().">
<polygon fill="white" stroke="black" points="1265.5,-174.5 1265.5,-200.5 1366.5,-200.5 1366.5,-174.5 1265.5,-174.5"/>
<text text-anchor="start" x="1273.5" y="-190.1" font-family="Helvetica,sans-Serif" font-size="8.00">flow::net_flow::Node</text>
<text text-anchor="middle" x="1316" y="-181.1" font-family="Helvetica,sans-Serif" font-size="8.00">::listen_worker</text>
</a>
</g>
</g>
<!-- Node1&#45;&gt;Node43 -->
<g id="edge35" class="edge">
<title>Node1&#45;&gt;Node43</title>
<path fill="none" stroke="midnightblue" d="M1461.15,-292.36C1447.02,-270.36 1419.69,-232.43 1387,-210.5 1380.84,-206.37 1373.88,-202.93 1366.79,-200.08"/>
<polygon fill="midnightblue" stroke="midnightblue" points="1458.26,-294.35 1466.53,-300.97 1464.2,-290.64 1458.26,-294.35"/>
</g>
<!-- Node45 -->
<g id="node29" class="node">
<title>Node45</title>
<g id="a_node29"><a xlink:href="classflow_1_1net__flow_1_1Drop__timer.html#a477fd69a6978cc228b8e80611aa234ba" target="_top" xlink:title="Indicates that a packet for which on_packet_in_flight() was called has just been validly acked.">
<polygon fill="white" stroke="black" points="1267,-129.5 1267,-155.5 1365,-155.5 1365,-129.5 1267,-129.5"/>
<text text-anchor="start" x="1275" y="-145.1" font-family="Helvetica,sans-Serif" font-size="8.00">flow::net_flow::Drop</text>
<text text-anchor="middle" x="1316" y="-136.1" font-family="Helvetica,sans-Serif" font-size="8.00">_timer::on_ack</text>
</a>
</g>
</g>
<!-- Node1&#45;&gt;Node45 -->
<g id="edge38" class="edge">
<title>Node1&#45;&gt;Node45</title>
<path fill="none" stroke="midnightblue" d="M1465.68,-291C1455.05,-260.22 1429.58,-198.5 1387,-164.5 1380.63,-159.41 1373.07,-155.49 1365.31,-152.48"/>
<polygon fill="midnightblue" stroke="midnightblue" points="1462.47,-292.44 1468.93,-300.84 1469.11,-290.24 1462.47,-292.44"/>
</g>
<!-- Node46 -->
<g id="node30" class="node">
<title>Node46</title>
<g id="a_node30"><a xlink:href="classflow_1_1cfg_1_1Option__set.html#a4ca1b50ec692a98865e4afde76d04128" target="_top" xlink:title="Enters into (from CANONICAL state) or continues in PARSING state by parsing the config source in the ...">
<polygon fill="white" stroke="black" points="1265.5,-84.5 1265.5,-110.5 1366.5,-110.5 1366.5,-84.5 1265.5,-84.5"/>
<text text-anchor="start" x="1273.5" y="-100.1" font-family="Helvetica,sans-Serif" font-size="8.00">flow::cfg::Option_set</text>
<text text-anchor="middle" x="1316" y="-91.1" font-family="Helvetica,sans-Serif" font-size="8.00">::parse_config_file</text>
</a>
</g>
</g>
<!-- Node1&#45;&gt;Node46 -->
<g id="edge39" class="edge">
<title>Node1&#45;&gt;Node46</title>
<path fill="none" stroke="midnightblue" d="M1468.42,-290.7C1461.23,-252.73 1439.73,-166.54 1387,-119.5 1381.11,-114.24 1373.96,-110.24 1366.52,-107.2"/>
<polygon fill="midnightblue" stroke="midnightblue" points="1465.03,-291.6 1470.22,-300.84 1471.92,-290.38 1465.03,-291.6"/>
</g>
<!-- Node3 -->
<g id="node3" class="node">
<title>Node3</title>
<g id="a_node3"><a xlink:href="classflow_1_1cfg_1_1Config__manager.html#a2c9f7e2dd8973d5ff191eee1c2394cae" target="_top" xlink:title="Helper that executes opt_set&#45;&gt;canonicalize_candidate() or opt_set&#45;&gt;reject_candidate().">
<polygon fill="white" stroke="black" points="1072.5,-523 1072.5,-558 1197.5,-558 1197.5,-523 1072.5,-523"/>
<text text-anchor="start" x="1080.5" y="-547.6" font-family="Helvetica,sans-Serif" font-size="8.00">flow::cfg::Config_manager</text>
<text text-anchor="start" x="1080.5" y="-538.6" font-family="Helvetica,sans-Serif" font-size="8.00">::option_set_canonicalize</text>
<text text-anchor="middle" x="1135" y="-529.6" font-family="Helvetica,sans-Serif" font-size="8.00">_or_reject</text>
</a>
</g>
</g>
<!-- Node2&#45;&gt;Node3 -->
<g id="edge2" class="edge">
<title>Node2&#45;&gt;Node3</title>
<path fill="none" stroke="midnightblue" d="M1246.04,-540.5C1230.06,-540.5 1213.15,-540.5 1197.51,-540.5"/>
<polygon fill="midnightblue" stroke="midnightblue" points="1246.39,-544 1256.39,-540.5 1246.39,-537 1246.39,-544"/>
</g>
<!-- Node7 -->
<g id="node7" class="node">
<title>Node7</title>
<g id="a_node7"><a xlink:href="classflow_1_1net__flow_1_1Node.html#ade49e7bc7202a0adf33fec2d93d1b177" target="_top" xlink:title="A thread W method that handles the transition of the given socket from OPEN (any sub&#45;state) to CLOSED...">
<polygon fill="white" stroke="black" points="1061,-257.5 1061,-283.5 1209,-283.5 1209,-257.5 1061,-257.5"/>
<text text-anchor="start" x="1069" y="-273.1" font-family="Helvetica,sans-Serif" font-size="8.00">flow::net_flow::Node</text>
<text text-anchor="middle" x="1135" y="-264.1" font-family="Helvetica,sans-Serif" font-size="8.00">::close_connection_immediately</text>
</a>
</g>
</g>
<!-- Node6&#45;&gt;Node7 -->
<g id="edge6" class="edge">
<title>Node6&#45;&gt;Node7</title>
<path fill="none" stroke="midnightblue" d="M1263.27,-316.16C1257.08,-314.01 1250.87,-311.76 1245,-309.5 1228.66,-303.2 1225.38,-299.7 1209,-293.5 1199.8,-290.02 1189.82,-286.63 1180.28,-283.57"/>
<polygon fill="midnightblue" stroke="midnightblue" points="1262.34,-319.54 1272.93,-319.44 1264.59,-312.91 1262.34,-319.54"/>
</g>
<!-- Node26 -->
<g id="node16" class="node">
<title>Node26</title>
<g id="a_node16"><a xlink:href="classflow_1_1net__flow_1_1Node.html#a29d02f9e302c7b06288ff1c644fa8d65" target="_top" xlink:title="Handles a just&#45;deserialized, just&#45;demultiplexed low&#45;level SYN_ACK_ACK packet delivered to the given p...">
<polygon fill="white" stroke="black" points="611.5,-212 611.5,-247 716.5,-247 716.5,-212 611.5,-212"/>
<text text-anchor="start" x="619.5" y="-236.6" font-family="Helvetica,sans-Serif" font-size="8.00">flow::net_flow::Node</text>
<text text-anchor="start" x="619.5" y="-227.6" font-family="Helvetica,sans-Serif" font-size="8.00">::handle_syn_ack_ack</text>
<text text-anchor="middle" x="664" y="-218.6" font-family="Helvetica,sans-Serif" font-size="8.00">_to_syn_rcvd</text>
</a>
</g>
</g>
<!-- Node6&#45;&gt;Node26 -->
<g id="edge24" class="edge">
<title>Node6&#45;&gt;Node26</title>
<path fill="none" stroke="midnightblue" d="M1252.26,-314.62C1249.72,-313.05 1247.28,-311.35 1245,-309.5 1220.25,-289.44 1231.66,-269.9 1209,-247.5 1142.19,-181.46 1114.83,-170.97 1025,-143.5 912.24,-109.02 868.47,-84.25 760,-130.5 721.22,-147.04 690.65,-188.03 675.48,-211.76"/>
<polygon fill="midnightblue" stroke="midnightblue" points="1250.8,-317.81 1261.26,-319.45 1254.1,-311.64 1250.8,-317.81"/>
</g>
<!-- Node28 -->
<g id="node19" class="node">
<title>Node28</title>
<g id="a_node19"><a xlink:href="classflow_1_1net__flow_1_1Node.html#adf6d71af81def2d030f0fef159c1b06d" target="_top" xlink:title="Handles the transition of the given server socket from S_LISTENING/S_CLOSING to S_CLOSED (including e...">
<polygon fill="white" stroke="black" points="1083.5,-303 1083.5,-338 1186.5,-338 1186.5,-303 1083.5,-303"/>
<text text-anchor="start" x="1091.5" y="-327.6" font-family="Helvetica,sans-Serif" font-size="8.00">flow::net_flow::Node</text>
<text text-anchor="start" x="1091.5" y="-318.6" font-family="Helvetica,sans-Serif" font-size="8.00">::close_empty_server</text>
<text text-anchor="middle" x="1135" y="-309.6" font-family="Helvetica,sans-Serif" font-size="8.00">_immediately</text>
</a>
</g>
</g>
<!-- Node6&#45;&gt;Node28 -->
<g id="edge22" class="edge">
<title>Node6&#45;&gt;Node28</title>
<path fill="none" stroke="midnightblue" d="M1241.75,-327.59C1223.28,-326.35 1203.85,-325.05 1186.76,-323.9"/>
<polygon fill="midnightblue" stroke="midnightblue" points="1241.68,-331.09 1251.89,-328.27 1242.15,-324.11 1241.68,-331.09"/>
</g>
<!-- Node29 -->
<g id="node20" class="node">
<title>Node29</title>
<g id="a_node20"><a xlink:href="classflow_1_1net__flow_1_1Node.html#a0fba26db0055a969f3869014bc5c2bfc" target="_top" xlink:title="Performs all tasks to be performed at the end of low_lvl_recv_and_handle() or async part of async_wai...">
<polygon fill="white" stroke="black" points="456,-182 456,-217 568,-217 568,-182 456,-182"/>
<text text-anchor="start" x="464" y="-206.6" font-family="Helvetica,sans-Serif" font-size="8.00">flow::net_flow::Node</text>
<text text-anchor="start" x="464" y="-197.6" font-family="Helvetica,sans-Serif" font-size="8.00">::perform_accumulated</text>
<text text-anchor="middle" x="512" y="-188.6" font-family="Helvetica,sans-Serif" font-size="8.00">_on_recv_tasks</text>
</a>
</g>
</g>
<!-- Node6&#45;&gt;Node29 -->
<g id="edge25" class="edge">
<title>Node6&#45;&gt;Node29</title>
<path fill="none" stroke="midnightblue" d="M1249.35,-313.69C1247.81,-312.38 1246.36,-310.99 1245,-309.5 1196.51,-256.25 1257.8,-204.47 1209,-151.5 1131,-66.83 1077.12,-73.5 962,-73.5 962,-73.5 962,-73.5 809.5,-73.5 699.88,-73.5 584.31,-147.36 536.16,-181.98"/>
<polygon fill="midnightblue" stroke="midnightblue" points="1247.42,-316.61 1257.62,-319.48 1251.44,-310.88 1247.42,-316.61"/>
</g>
<!-- Node30 -->
<g id="node21" class="node">
<title>Node30</title>
<g id="a_node21"><a xlink:href="classflow_1_1net__flow_1_1Node.html#a10a92f11a2c9f218cdd9a55f282e79b1" target="_top" xlink:title="Thread W implemention of send(): synchronously or asynchronously send the contents of sock&#45;&gt;m_snd_buf...">
<polygon fill="white" stroke="black" points="1084.5,-357.5 1084.5,-383.5 1185.5,-383.5 1185.5,-357.5 1084.5,-357.5"/>
<text text-anchor="start" x="1092.5" y="-373.1" font-family="Helvetica,sans-Serif" font-size="8.00">flow::net_flow::Node</text>
<text text-anchor="middle" x="1135" y="-364.1" font-family="Helvetica,sans-Serif" font-size="8.00">::send_worker</text>
</a>
</g>
</g>
<!-- Node6&#45;&gt;Node30 -->
<g id="edge28" class="edge">
<title>Node6&#45;&gt;Node30</title>
<path fill="none" stroke="midnightblue" d="M1243.63,-347.65C1224.22,-351.77 1203.63,-356.14 1185.71,-359.95"/>
<polygon fill="midnightblue" stroke="midnightblue" points="1244.59,-351.02 1253.65,-345.52 1243.14,-344.18 1244.59,-351.02"/>
</g>
<!-- Node8 -->
<g id="node8" class="node">
<title>Node8</title>
<g id="a_node8"><a xlink:href="classflow_1_1net__flow_1_1Node.html#a1699dfdaf3e5ebe1b1d715a9c306d116" target="_top" xlink:title="Handles a just&#45;received, not&#45;yet&#45;deserialized low&#45;level packet.">
<polygon fill="white" stroke="black" points="461.5,-278.5 461.5,-304.5 562.5,-304.5 562.5,-278.5 461.5,-278.5"/>
<text text-anchor="start" x="469.5" y="-294.1" font-family="Helvetica,sans-Serif" font-size="8.00">flow::net_flow::Node</text>
<text text-anchor="middle" x="512" y="-285.1" font-family="Helvetica,sans-Serif" font-size="8.00">::handle_incoming</text>
</a>
</g>
</g>
<!-- Node7&#45;&gt;Node8 -->
<g id="edge7" class="edge">
<title>Node7&#45;&gt;Node8</title>
<path fill="none" stroke="midnightblue" d="M1050.51,-274.56C996.47,-277.09 924.58,-280.28 861,-282.5 754.7,-286.21 630.08,-289.07 562.57,-290.5"/>
<polygon fill="midnightblue" stroke="midnightblue" points="1050.9,-278.05 1060.73,-274.08 1050.57,-271.05 1050.9,-278.05"/>
</g>
<!-- Node14 -->
<g id="node12" class="node">
<title>Node14</title>
<g id="a_node12"><a xlink:href="classflow_1_1net__flow_1_1Node.html#ad608f9bbe76426f4fbf4bf5af908e4e0" target="_top" xlink:title="Placed by receive() onto W during a graceful close, after the Receive buffer had been emptied by the ...">
<polygon fill="white" stroke="black" points="900.5,-153 900.5,-188 1021.5,-188 1021.5,-153 900.5,-153"/>
<text text-anchor="start" x="908.5" y="-177.6" font-family="Helvetica,sans-Serif" font-size="8.00">flow::net_flow::Node</text>
<text text-anchor="start" x="908.5" y="-168.6" font-family="Helvetica,sans-Serif" font-size="8.00">::receive_emptied_rcv</text>
<text text-anchor="middle" x="961" y="-159.6" font-family="Helvetica,sans-Serif" font-size="8.00">_buf_while_disconnecting</text>
</a>
</g>
</g>
<!-- Node7&#45;&gt;Node14 -->
<g id="edge13" class="edge">
<title>Node7&#45;&gt;Node14</title>
<path fill="none" stroke="midnightblue" d="M1102.74,-252.33C1071.36,-234.08 1023.35,-206.17 992.31,-188.12"/>
<polygon fill="midnightblue" stroke="midnightblue" points="1101.11,-255.43 1111.51,-257.43 1104.63,-249.37 1101.11,-255.43"/>
</g>
<!-- Node23 -->
<g id="node14" class="node">
<title>Node23</title>
<g id="a_node14"><a xlink:href="classflow_1_1net__flow_1_1Node.html#afe70a0c32695e417e7a09e0ba773f151" target="_top" xlink:title="Asynchronously send RST to the other side of the given socket and close_connection_immediately().">
<polygon fill="white" stroke="black" points="897,-220 897,-255 1025,-255 1025,-220 897,-220"/>
<text text-anchor="start" x="905" y="-244.6" font-family="Helvetica,sans-Serif" font-size="8.00">flow::net_flow::Node</text>
<text text-anchor="start" x="905" y="-235.6" font-family="Helvetica,sans-Serif" font-size="8.00">::rst_and_close_connection</text>
<text text-anchor="middle" x="961" y="-226.6" font-family="Helvetica,sans-Serif" font-size="8.00">_immediately</text>
</a>
</g>
</g>
<!-- Node7&#45;&gt;Node23 -->
<g id="edge15" class="edge">
<title>Node7&#45;&gt;Node23</title>
<path fill="none" stroke="midnightblue" d="M1056.11,-255.56C1045.7,-253.56 1035.12,-251.53 1025.01,-249.59"/>
<polygon fill="midnightblue" stroke="midnightblue" points="1055.54,-259.01 1066.02,-257.46 1056.86,-252.14 1055.54,-259.01"/>
</g>
<!-- Node13 -->
<g id="node18" class="node">
<title>Node13</title>
<g id="a_node18"><a xlink:href="classflow_1_1net__flow_1_1Node.html#a5b056ed753b832458f44f537acfe86d7" target="_top" xlink:title="Worker thread W (main event loop) body.">
<polygon fill="white" stroke="black" points="910.5,-312.5 910.5,-338.5 1011.5,-338.5 1011.5,-312.5 910.5,-312.5"/>
<text text-anchor="start" x="918.5" y="-328.1" font-family="Helvetica,sans-Serif" font-size="8.00">flow::net_flow::Node</text>
<text text-anchor="middle" x="961" y="-319.1" font-family="Helvetica,sans-Serif" font-size="8.00">::worker_run</text>
</a>
</g>
</g>
<!-- Node7&#45;&gt;Node13 -->
<g id="edge21" class="edge">
<title>Node7&#45;&gt;Node13</title>
<path fill="none" stroke="midnightblue" d="M1082.54,-286.66C1075.3,-288.95 1067.96,-291.28 1061,-293.5 1041.73,-299.65 1020.37,-306.54 1002.44,-312.35"/>
<polygon fill="midnightblue" stroke="midnightblue" points="1083.81,-289.93 1092.29,-283.58 1081.7,-283.26 1083.81,-289.93"/>
</g>
<!-- Node9 -->
<g id="node9" class="node">
<title>Node9</title>
<g id="a_node9"><a xlink:href="classflow_1_1net__flow_1_1Node.html#a4368247d07e930bdd07ab8d2425c6de8" target="_top" xlink:title="Sets up handle_incoming(packet_data, low_lvl_remote_endpoint) to be called asynchronously after a spe...">
<polygon fill="white" stroke="black" points="307,-228 307,-263 420,-263 420,-228 307,-228"/>
<text text-anchor="start" x="315" y="-252.6" font-family="Helvetica,sans-Serif" font-size="8.00">flow::net_flow::Node</text>
<text text-anchor="start" x="315" y="-243.6" font-family="Helvetica,sans-Serif" font-size="8.00">::async_wait_latency</text>
<text text-anchor="middle" x="363.5" y="-234.6" font-family="Helvetica,sans-Serif" font-size="8.00">_then_handle_incoming</text>
</a>
</g>
</g>
<!-- Node8&#45;&gt;Node9 -->
<g id="edge8" class="edge">
<title>Node8&#45;&gt;Node9</title>
<path fill="none" stroke="midnightblue" d="M459.83,-275.43C447,-271.41 433.18,-267.07 420.15,-262.97"/>
<polygon fill="midnightblue" stroke="midnightblue" points="458.82,-278.78 469.41,-278.44 460.92,-272.11 458.82,-278.78"/>
</g>
<!-- Node10 -->
<g id="node10" class="node">
<title>Node10</title>
<g id="a_node10"><a xlink:href="classflow_1_1net__flow_1_1Node.html#a90ecbad1ff3a8d2fe4b3ad1c474f7513" target="_top" xlink:title="Helper for low_lvl_recv_and_handle() that calls handle_incoming() on the not&#45;yet&#45;deserialized low&#45;lev...">
<polygon fill="white" stroke="black" points="158,-228 158,-263 271,-263 271,-228 158,-228"/>
<text text-anchor="start" x="166" y="-252.6" font-family="Helvetica,sans-Serif" font-size="8.00">flow::net_flow::Node</text>
<text text-anchor="start" x="166" y="-243.6" font-family="Helvetica,sans-Serif" font-size="8.00">::handle_incoming_with</text>
<text text-anchor="middle" x="214.5" y="-234.6" font-family="Helvetica,sans-Serif" font-size="8.00">_simulation</text>
</a>
</g>
</g>
<!-- Node8&#45;&gt;Node10 -->
<g id="edge12" class="edge">
<title>Node8&#45;&gt;Node10</title>
<path fill="none" stroke="midnightblue" d="M451.08,-288.98C410.2,-286.52 354.98,-281.72 307,-272.5 294.48,-270.09 281.21,-266.69 268.78,-263.11"/>
<polygon fill="midnightblue" stroke="midnightblue" points="450.97,-292.48 461.15,-289.56 451.37,-285.49 450.97,-292.48"/>
</g>
<!-- Node9&#45;&gt;Node10 -->
<g id="edge9" class="edge">
<title>Node9&#45;&gt;Node10</title>
<path fill="none" stroke="midnightblue" d="M296.92,-245.5C288.32,-245.5 279.57,-245.5 271.15,-245.5"/>
<polygon fill="midnightblue" stroke="midnightblue" points="296.93,-249 306.93,-245.5 296.93,-242 296.93,-249"/>
</g>
<!-- Node10&#45;&gt;Node10 -->
<g id="edge10" class="edge">
<title>Node10&#45;&gt;Node10</title>
<path fill="none" stroke="midnightblue" d="M240.27,-273.6C236.65,-278.27 228.06,-281.5 214.5,-281.5 192.24,-281.5 183.37,-272.81 187.89,-263.28"/>
<polygon fill="midnightblue" stroke="midnightblue" points="243.79,-273.53 241.11,-263.28 236.81,-272.97 243.79,-273.53"/>
</g>
<!-- Node11 -->
<g id="node11" class="node">
<title>Node11</title>
<g id="a_node11"><a xlink:href="classflow_1_1net__flow_1_1Node.html#a9909cd2b2a77c57da9e35fcef0f8a4e5" target="_top" xlink:title="Handles the pre&#45;condition that m_low_lvl_sock has a UDP packet available for reading,...">
<polygon fill="white" stroke="red" points="0,-209.5 0,-235.5 122,-235.5 122,-209.5 0,-209.5"/>
<text text-anchor="start" x="8" y="-225.1" font-family="Helvetica,sans-Serif" font-size="8.00">flow::net_flow::Node</text>
<text text-anchor="middle" x="61" y="-216.1" font-family="Helvetica,sans-Serif" font-size="8.00">::low_lvl_recv_and_handle</text>
</a>
</g>
</g>
<!-- Node10&#45;&gt;Node11 -->
<g id="edge11" class="edge">
<title>Node10&#45;&gt;Node11</title>
<path fill="none" stroke="midnightblue" d="M147.98,-235.55C139.39,-234.25 130.63,-232.92 122.14,-231.63"/>
<polygon fill="midnightblue" stroke="midnightblue" points="147.54,-239.03 157.95,-237.07 148.59,-232.1 147.54,-239.03"/>
</g>
<!-- Node15 -->
<g id="node13" class="node">
<title>Node15</title>
<g id="a_node13"><a xlink:href="classflow_1_1net__flow_1_1Node.html#addbb96858fd7b3c9ddd7c6fe8078809c" target="_top" xlink:title="Implementation of non&#45;blocking sock&#45;&gt;receive() for socket sock in all cases except when sock&#45;&gt;state()...">
<polygon fill="white" stroke="red" points="760,-140.5 760,-166.5 861,-166.5 861,-140.5 760,-140.5"/>
<text text-anchor="start" x="768" y="-156.1" font-family="Helvetica,sans-Serif" font-size="8.00">flow::net_flow::Node</text>
<text text-anchor="middle" x="810.5" y="-147.1" font-family="Helvetica,sans-Serif" font-size="8.00">::receive</text>
</a>
</g>
</g>
<!-- Node14&#45;&gt;Node15 -->
<g id="edge14" class="edge">
<title>Node14&#45;&gt;Node15</title>
<path fill="none" stroke="midnightblue" d="M890.25,-162.51C880.39,-161.39 870.42,-160.25 861.05,-159.17"/>
<polygon fill="midnightblue" stroke="midnightblue" points="890.12,-166.02 900.46,-163.68 890.92,-159.07 890.12,-166.02"/>
</g>
<!-- Node24 -->
<g id="node15" class="node">
<title>Node24</title>
<g id="a_node15"><a xlink:href="classflow_1_1net__flow_1_1Node.html#a6461124e5bc3e59083e172e26029e632" target="_top" xlink:title="Implementation of non&#45;blocking sock&#45;&gt;close_abruptly() for socket sock in all cases except when sock&#45;&gt;...">
<polygon fill="white" stroke="red" points="760,-230.5 760,-256.5 861,-256.5 861,-230.5 760,-230.5"/>
<text text-anchor="start" x="768" y="-246.1" font-family="Helvetica,sans-Serif" font-size="8.00">flow::net_flow::Node</text>
<text text-anchor="middle" x="810.5" y="-237.1" font-family="Helvetica,sans-Serif" font-size="8.00">::close_abruptly</text>
</a>
</g>
</g>
<!-- Node23&#45;&gt;Node24 -->
<g id="edge16" class="edge">
<title>Node23&#45;&gt;Node24</title>
<path fill="none" stroke="midnightblue" d="M886.55,-240.47C877.97,-240.81 869.38,-241.16 861.23,-241.49"/>
<polygon fill="midnightblue" stroke="midnightblue" points="886.74,-243.96 896.59,-240.06 886.46,-236.97 886.74,-243.96"/>
</g>
<!-- Node23&#45;&gt;Node26 -->
<g id="edge17" class="edge">
<title>Node23&#45;&gt;Node26</title>
<path fill="none" stroke="midnightblue" d="M898.47,-257.72C886.19,-260.96 873.29,-263.8 861,-265.5 816.54,-271.67 804.15,-273.59 760,-265.5 740.22,-261.88 719.22,-254.34 702.01,-247.1"/>
<polygon fill="midnightblue" stroke="midnightblue" points="899.45,-261.08 908.17,-255.06 897.6,-254.33 899.45,-261.08"/>
</g>
<!-- Node27 -->
<g id="node17" class="node">
<title>Node27</title>
<g id="a_node17"><a xlink:href="classflow_1_1net__flow_1_1Node.html#ab427ebc124a6233ae48a7562662a6e81" target="_top" xlink:title="Creates a new Drop Timer and saves it to sock&#45;&gt;m_snd_drop_timer.">
<polygon fill="white" stroke="black" points="760,-185.5 760,-211.5 861,-211.5 861,-185.5 760,-185.5"/>
<text text-anchor="start" x="768" y="-201.1" font-family="Helvetica,sans-Serif" font-size="8.00">flow::net_flow::Node</text>
<text text-anchor="middle" x="810.5" y="-192.1" font-family="Helvetica,sans-Serif" font-size="8.00">::setup_drop_timer</text>
</a>
</g>
</g>
<!-- Node23&#45;&gt;Node27 -->
<g id="edge19" class="edge">
<title>Node23&#45;&gt;Node27</title>
<path fill="none" stroke="midnightblue" d="M886.83,-218.28C878.16,-216.01 869.47,-213.72 861.23,-211.56"/>
<polygon fill="midnightblue" stroke="midnightblue" points="886.03,-221.69 896.59,-220.85 887.81,-214.92 886.03,-221.69"/>
</g>
<!-- Node26&#45;&gt;Node8 -->
<g id="edge18" class="edge">
<title>Node26&#45;&gt;Node8</title>
<path fill="none" stroke="midnightblue" d="M611.15,-250.93C589.06,-260.06 563.99,-270.43 544.71,-278.39"/>
<polygon fill="midnightblue" stroke="midnightblue" points="612.51,-254.16 620.42,-247.1 609.84,-247.69 612.51,-254.16"/>
</g>
<!-- Node27&#45;&gt;Node26 -->
<g id="edge20" class="edge">
<title>Node27&#45;&gt;Node26</title>
<path fill="none" stroke="midnightblue" d="M749.84,-211.3C738.87,-213.65 727.5,-216.09 716.79,-218.39"/>
<polygon fill="midnightblue" stroke="midnightblue" points="750.73,-214.69 759.77,-209.17 749.26,-207.84 750.73,-214.69"/>
</g>
<!-- Node28&#45;&gt;Node13 -->
<g id="edge23" class="edge">
<title>Node28&#45;&gt;Node13</title>
<path fill="none" stroke="midnightblue" d="M1073.31,-322.26C1053.15,-322.85 1030.95,-323.5 1011.72,-324.05"/>
<polygon fill="midnightblue" stroke="midnightblue" points="1073.43,-325.76 1083.32,-321.97 1073.23,-318.77 1073.43,-325.76"/>
</g>
<!-- Node29&#45;&gt;Node9 -->
<g id="edge26" class="edge">
<title>Node29&#45;&gt;Node9</title>
<path fill="none" stroke="midnightblue" d="M446.06,-219.89C437.52,-222.57 428.82,-225.3 420.45,-227.93"/>
<polygon fill="midnightblue" stroke="midnightblue" points="447.12,-223.23 455.61,-216.89 445.03,-216.55 447.12,-223.23"/>
</g>
<!-- Node29&#45;&gt;Node11 -->
<g id="edge27" class="edge">
<title>Node29&#45;&gt;Node11</title>
<path fill="none" stroke="midnightblue" d="M445.95,-202.83C359.1,-207.28 206.45,-215.1 122.16,-219.42"/>
<polygon fill="midnightblue" stroke="midnightblue" points="446.14,-206.33 455.94,-202.32 445.78,-199.34 446.14,-206.33"/>
</g>
<!-- Node31 -->
<g id="node22" class="node">
<title>Node31</title>
<g id="a_node22"><a xlink:href="classflow_1_1net__flow_1_1Node.html#a2565b7c0bd82cad86eb168b62f8ffd9d" target="_top" xlink:title="Helper placed by send() onto W to invoke send_worker() but ensures that the socket has not entered so...">
<polygon fill="white" stroke="black" points="897.5,-357.5 897.5,-383.5 1024.5,-383.5 1024.5,-357.5 897.5,-357.5"/>
<text text-anchor="start" x="905.5" y="-373.1" font-family="Helvetica,sans-Serif" font-size="8.00">flow::net_flow::Node</text>
<text text-anchor="middle" x="961" y="-364.1" font-family="Helvetica,sans-Serif" font-size="8.00">::send_worker_check_state</text>
</a>
</g>
</g>
<!-- Node30&#45;&gt;Node31 -->
<g id="edge29" class="edge">
<title>Node30&#45;&gt;Node31</title>
<path fill="none" stroke="midnightblue" d="M1074.01,-370.5C1058.1,-370.5 1040.87,-370.5 1024.81,-370.5"/>
<polygon fill="midnightblue" stroke="midnightblue" points="1074.25,-374 1084.25,-370.5 1074.25,-367 1074.25,-374"/>
</g>
<!-- Node32 -->
<g id="node23" class="node">
<title>Node32</title>
<g id="a_node23"><a xlink:href="classflow_1_1net__flow_1_1Node.html#aa19d1f49638ef8ce8883e7477a06d3fc" target="_top" xlink:title="Implementation of non&#45;blocking sock&#45;&gt;send() for socket sock in all cases except when sock&#45;&gt;state() ==...">
<polygon fill="white" stroke="red" points="760,-357.5 760,-383.5 861,-383.5 861,-357.5 760,-357.5"/>
<text text-anchor="start" x="768" y="-373.1" font-family="Helvetica,sans-Serif" font-size="8.00">flow::net_flow::Node</text>
<text text-anchor="middle" x="810.5" y="-364.1" font-family="Helvetica,sans-Serif" font-size="8.00">::send</text>
</a>
</g>
</g>
<!-- Node31&#45;&gt;Node32 -->
<g id="edge30" class="edge">
<title>Node31&#45;&gt;Node32</title>
<path fill="none" stroke="midnightblue" d="M887.22,-370.5C878.46,-370.5 869.68,-370.5 861.35,-370.5"/>
<polygon fill="midnightblue" stroke="midnightblue" points="887.45,-374 897.45,-370.5 887.45,-367 887.45,-374"/>
</g>
<!-- Node40&#45;&gt;Node8 -->
<g id="edge32" class="edge">
<title>Node40&#45;&gt;Node8</title>
<path fill="none" stroke="midnightblue" d="M627.11,-365.29C597.74,-346.3 557.25,-320.12 533.24,-304.59"/>
<polygon fill="midnightblue" stroke="midnightblue" points="625.54,-368.44 635.84,-370.93 629.34,-362.56 625.54,-368.44"/>
</g>
<!-- Node44 -->
<g id="node28" class="node">
<title>Node44</title>
<g id="a_node28"><a xlink:href="classflow_1_1net__flow_1_1Node.html#a3c2cd6a6c328a2d5381308258d35d95d" target="_top" xlink:title="Sets up a server on the given local Flow port and returns Server_socket which can be used to accept s...">
<polygon fill="white" stroke="black" points="1084.5,-0.5 1084.5,-26.5 1185.5,-26.5 1185.5,-0.5 1084.5,-0.5"/>
<text text-anchor="start" x="1092.5" y="-16.1" font-family="Helvetica,sans-Serif" font-size="8.00">flow::net_flow::Node</text>
<text text-anchor="middle" x="1135" y="-7.1" font-family="Helvetica,sans-Serif" font-size="8.00">::listen</text>
</a>
</g>
</g>
<!-- Node43&#45;&gt;Node44 -->
<g id="edge36" class="edge">
<title>Node43&#45;&gt;Node44</title>
<path fill="none" stroke="midnightblue" d="M1256.17,-172.99C1252.1,-170.58 1248.32,-167.77 1245,-164.5 1209.89,-129.84 1239.61,-98.19 1209,-59.5 1197.75,-45.29 1180.83,-34.23 1166.11,-26.53"/>
<polygon fill="midnightblue" stroke="midnightblue" points="1254.91,-176.27 1265.41,-177.65 1258.06,-170.02 1254.91,-176.27"/>
</g>
<!-- Node44&#45;&gt;Node44 -->
<g id="edge37" class="edge">
<title>Node44&#45;&gt;Node44</title>
<path fill="none" stroke="midnightblue" d="M1166.57,-36.58C1163.37,-41.47 1152.84,-45 1135,-45 1106.45,-45 1096.64,-35.96 1105.56,-26.77"/>
<polygon fill="midnightblue" stroke="midnightblue" points="1169.98,-35.8 1164.44,-26.77 1163.14,-37.29 1169.98,-35.8"/>
</g>
</g>
</svg>
