<?xml version="1.0" encoding="UTF-8" standalone="no"?>
<!DOCTYPE svg PUBLIC "-//W3C//DTD SVG 1.1//EN"
 "http://www.w3.org/Graphics/SVG/1.1/DTD/svg11.dtd">
<!-- Generated by graphviz version 2.43.0 (0)
 -->
<!-- Title: flow::util::schedule_task_from_now Pages: 1 -->
<svg width="1432pt" height="511pt"
 viewBox="0.00 0.00 1432.00 510.50" xmlns="http://www.w3.org/2000/svg" xmlns:xlink="http://www.w3.org/1999/xlink">
<g id="graph0" class="graph" transform="scale(1 1) rotate(0) translate(4 506.5)">
<title>flow::util::schedule_task_from_now</title>
<polygon fill="white" stroke="transparent" points="-4,4 -4,-506.5 1428,-506.5 1428,4 -4,4"/>
<!-- Node1 -->
<g id="node1" class="node">
<title>Node1</title>
<g id="a_node1"><a xlink:title="Schedule the given function to execute in a certain amount of time: A handy wrapper around Timer (asi...">
<polygon fill="#bfbfbf" stroke="black" points="1329,-313 1329,-339 1424,-339 1424,-313 1329,-313"/>
<text text-anchor="start" x="1337" y="-328.6" font-family="Helvetica,sans-Serif" font-size="8.00">flow::util::schedule</text>
<text text-anchor="middle" x="1376.5" y="-319.6" font-family="Helvetica,sans-Serif" font-size="8.00">_task_from_now</text>
</a>
</g>
</g>
<!-- Node2 -->
<g id="node2" class="node">
<title>Node2</title>
<g id="a_node2"><a xlink:href="classflow_1_1net__flow_1_1Node.html#a192d4b95b9f8a5c3d08b1e5486eb6f78" target="_top" xlink:title="receive_wnd_updated() helper that continues rcv_wnd recovery: that is, sends unsolicited ACK with a r...">
<polygon fill="white" stroke="black" points="1165,-431 1165,-457 1287,-457 1287,-431 1165,-431"/>
<text text-anchor="start" x="1173" y="-446.6" font-family="Helvetica,sans-Serif" font-size="8.00">flow::net_flow::Node</text>
<text text-anchor="middle" x="1226" y="-437.6" font-family="Helvetica,sans-Serif" font-size="8.00">::async_rcv_wnd_recovery</text>
</a>
</g>
</g>
<!-- Node1&#45;&gt;Node2 -->
<g id="edge1" class="edge">
<title>Node1&#45;&gt;Node2</title>
<path fill="none" stroke="midnightblue" d="M1360.16,-347.43C1344.99,-367.38 1320.14,-396.82 1293,-416 1284.66,-421.89 1274.9,-426.88 1265.47,-430.94"/>
<polygon fill="midnightblue" stroke="midnightblue" points="1363.08,-349.38 1366.24,-339.27 1357.46,-345.2 1363.08,-349.38"/>
</g>
<!-- Node12 -->
<g id="node7" class="node">
<title>Node12</title>
<g id="a_node7"><a xlink:href="classflow_1_1net__flow_1_1Node.html#a4368247d07e930bdd07ab8d2425c6de8" target="_top" xlink:title="Sets up handle_incoming(packet_data, low_lvl_remote_endpoint) to be called asynchronously after a spe...">
<polygon fill="white" stroke="black" points="637,-212.5 637,-247.5 750,-247.5 750,-212.5 637,-212.5"/>
<text text-anchor="start" x="645" y="-237.1" font-family="Helvetica,sans-Serif" font-size="8.00">flow::net_flow::Node</text>
<text text-anchor="start" x="645" y="-228.1" font-family="Helvetica,sans-Serif" font-size="8.00">::async_wait_latency</text>
<text text-anchor="middle" x="693.5" y="-219.1" font-family="Helvetica,sans-Serif" font-size="8.00">_then_handle_incoming</text>
</a>
</g>
</g>
<!-- Node1&#45;&gt;Node12 -->
<g id="edge7" class="edge">
<title>Node1&#45;&gt;Node12</title>
<path fill="none" stroke="midnightblue" d="M1318.79,-327.17C1241.15,-327.89 1097.63,-326.08 977,-307 894.53,-293.96 801.59,-265.95 745.57,-247.56"/>
<polygon fill="midnightblue" stroke="midnightblue" points="1318.88,-330.67 1328.84,-327.06 1318.8,-323.67 1318.88,-330.67"/>
</g>
<!-- Node16 -->
<g id="node11" class="node">
<title>Node16</title>
<g id="a_node11"><a xlink:href="classflow_1_1net__flow_1_1Node.html#a5b056ed753b832458f44f537acfe86d7" target="_top" xlink:title="Worker thread W (main event loop) body.">
<polygon fill="white" stroke="black" points="0,-329 0,-355 101,-355 101,-329 0,-329"/>
<text text-anchor="start" x="8" y="-344.6" font-family="Helvetica,sans-Serif" font-size="8.00">flow::net_flow::Node</text>
<text text-anchor="middle" x="50.5" y="-335.6" font-family="Helvetica,sans-Serif" font-size="8.00">::worker_run</text>
</a>
</g>
</g>
<!-- Node1&#45;&gt;Node16 -->
<g id="edge31" class="edge">
<title>Node1&#45;&gt;Node16</title>
<path fill="none" stroke="midnightblue" d="M1341.72,-343.56C1327.08,-350.53 1309.53,-358.05 1293,-363 1188.63,-394.22 1159.94,-402 1051,-402 1051,-402 1051,-402 334,-402 244.25,-402 141.89,-372.67 88.44,-355.02"/>
<polygon fill="midnightblue" stroke="midnightblue" points="1343.43,-346.62 1350.88,-339.09 1340.36,-340.33 1343.43,-346.62"/>
</g>
<!-- Node17 -->
<g id="node12" class="node">
<title>Node17</title>
<g id="a_node12"><a xlink:href="classflow_1_1net__flow_1_1Node.html#aee8466d9c810da5edea443d665b24dcb" target="_top" xlink:title="Performs low&#45;priority tasks that should be run on an infrequent, regular basis, such as stat logging ...">
<polygon fill="white" stroke="black" points="432,-329 432,-355 592,-355 592,-329 432,-329"/>
<text text-anchor="start" x="440" y="-344.6" font-family="Helvetica,sans-Serif" font-size="8.00">flow::net_flow::Node</text>
<text text-anchor="middle" x="512" y="-335.6" font-family="Helvetica,sans-Serif" font-size="8.00">::perform_regular_infrequent_tasks</text>
</a>
</g>
</g>
<!-- Node1&#45;&gt;Node17 -->
<g id="edge14" class="edge">
<title>Node1&#45;&gt;Node17</title>
<path fill="none" stroke="midnightblue" d="M1318.98,-336.67C1254.42,-347.91 1145.49,-364 1051,-364 1051,-364 1051,-364 867,-364 772.48,-364 664.04,-356.09 592.35,-349.76"/>
<polygon fill="midnightblue" stroke="midnightblue" points="1319.71,-340.09 1328.95,-334.91 1318.49,-333.2 1319.71,-340.09"/>
</g>
<!-- Node18 -->
<g id="node13" class="node">
<title>Node18</title>
<g id="a_node13"><a xlink:href="classflow_1_1async_1_1Cross__thread__task__loop.html#a1008ae4c48d32ebf835d7a7ba203e5a9" target="_top" xlink:title="Implements superclass API.">
<polygon fill="white" stroke="black" points="1159,-237.5 1159,-272.5 1293,-272.5 1293,-237.5 1159,-237.5"/>
<text text-anchor="start" x="1167" y="-262.1" font-family="Helvetica,sans-Serif" font-size="8.00">flow::async::Cross</text>
<text text-anchor="start" x="1167" y="-253.1" font-family="Helvetica,sans-Serif" font-size="8.00">_thread_task_loop::schedule</text>
<text text-anchor="middle" x="1226" y="-244.1" font-family="Helvetica,sans-Serif" font-size="8.00">_from_now</text>
</a>
</g>
</g>
<!-- Node1&#45;&gt;Node18 -->
<g id="edge17" class="edge">
<title>Node1&#45;&gt;Node18</title>
<path fill="none" stroke="midnightblue" d="M1339.21,-308.65C1316.32,-297.71 1286.85,-283.62 1263.85,-272.62"/>
<polygon fill="midnightblue" stroke="midnightblue" points="1337.73,-311.82 1348.26,-312.98 1340.75,-305.51 1337.73,-311.82"/>
</g>
<!-- Node23 -->
<g id="node18" class="node">
<title>Node23</title>
<g id="a_node18"><a xlink:href="classflow_1_1async_1_1Segregated__thread__task__loop.html#a8fbd7b964d140c770eac1f71e52bcf1c" target="_top" xlink:title="Helper performing the core util::schedule_task_from_now() call on behalf of the various schedule_from...">
<polygon fill="white" stroke="black" points="1159,-158.5 1159,-193.5 1293,-193.5 1293,-158.5 1159,-158.5"/>
<text text-anchor="start" x="1167" y="-183.1" font-family="Helvetica,sans-Serif" font-size="8.00">flow::async::Segregated</text>
<text text-anchor="start" x="1167" y="-174.1" font-family="Helvetica,sans-Serif" font-size="8.00">_thread_task_loop::schedule</text>
<text text-anchor="middle" x="1226" y="-165.1" font-family="Helvetica,sans-Serif" font-size="8.00">_from_now_impl</text>
</a>
</g>
</g>
<!-- Node1&#45;&gt;Node23 -->
<g id="edge22" class="edge">
<title>Node1&#45;&gt;Node23</title>
<path fill="none" stroke="midnightblue" d="M1359.7,-304.8C1343.88,-284.19 1318.31,-252.5 1293,-228 1280.21,-215.62 1264.62,-203.23 1251.81,-193.65"/>
<polygon fill="midnightblue" stroke="midnightblue" points="1357.02,-307.06 1365.85,-312.9 1362.59,-302.82 1357.02,-307.06"/>
</g>
<!-- Node26 -->
<g id="node21" class="node">
<title>Node26</title>
<g id="a_node21"><a xlink:href="classflow_1_1net__flow_1_1Node.html#ac1485c07049d4bee70ad4ef2fc07bf12" target="_top" xlink:title="Assuming we&#39;ve just sent SYN or SYN_ACK, sets up an asynchronous scheduled task to fire within some a...">
<polygon fill="white" stroke="black" points="1163.5,-59 1163.5,-85 1288.5,-85 1288.5,-59 1163.5,-59"/>
<text text-anchor="start" x="1171.5" y="-74.6" font-family="Helvetica,sans-Serif" font-size="8.00">flow::net_flow::Node</text>
<text text-anchor="middle" x="1226" y="-65.6" font-family="Helvetica,sans-Serif" font-size="8.00">::setup_connection_timers</text>
</a>
</g>
</g>
<!-- Node1&#45;&gt;Node26 -->
<g id="edge25" class="edge">
<title>Node1&#45;&gt;Node26</title>
<path fill="none" stroke="midnightblue" d="M1367.22,-303.27C1354.07,-268.56 1326.45,-200.91 1293,-149 1277.26,-124.58 1254.4,-99.65 1240.13,-85.01"/>
<polygon fill="midnightblue" stroke="midnightblue" points="1364.05,-304.79 1370.82,-312.93 1370.6,-302.34 1364.05,-304.79"/>
</g>
<!-- Node2&#45;&gt;Node2 -->
<g id="edge2" class="edge">
<title>Node2&#45;&gt;Node2</title>
<path fill="none" stroke="midnightblue" d="M1253,-467.44C1250,-472.14 1241,-475.5 1226,-475.5 1201.39,-475.5 1192.93,-466.46 1200.62,-457.27"/>
<polygon fill="midnightblue" stroke="midnightblue" points="1256.41,-466.6 1251.38,-457.27 1249.49,-467.7 1256.41,-466.6"/>
</g>
<!-- Node3 -->
<g id="node3" class="node">
<title>Node3</title>
<g id="a_node3"><a xlink:href="classflow_1_1net__flow_1_1Node.html#a08cf95363b26c0c676979437e34db357" target="_top" xlink:title="Placed by receive() onto W if it has dequeued data from Receive buffer and given it to the user,...">
<polygon fill="white" stroke="black" points="994,-431 994,-457 1106,-457 1106,-431 994,-431"/>
<text text-anchor="start" x="1002" y="-446.6" font-family="Helvetica,sans-Serif" font-size="8.00">flow::net_flow::Node</text>
<text text-anchor="middle" x="1050" y="-437.6" font-family="Helvetica,sans-Serif" font-size="8.00">::receive_wnd_updated</text>
</a>
</g>
</g>
<!-- Node2&#45;&gt;Node3 -->
<g id="edge3" class="edge">
<title>Node2&#45;&gt;Node3</title>
<path fill="none" stroke="midnightblue" d="M1154.21,-444C1138.14,-444 1121.31,-444 1106.02,-444"/>
<polygon fill="midnightblue" stroke="midnightblue" points="1154.63,-447.5 1164.63,-444 1154.63,-440.5 1154.63,-447.5"/>
</g>
<!-- Node4 -->
<g id="node4" class="node">
<title>Node4</title>
<g id="a_node4"><a xlink:href="classflow_1_1net__flow_1_1Node.html#addbb96858fd7b3c9ddd7c6fe8078809c" target="_top" xlink:title="Implementation of non&#45;blocking sock&#45;&gt;receive() for socket sock in all cases except when sock&#45;&gt;state()...">
<polygon fill="white" stroke="black" points="817.5,-431 817.5,-457 918.5,-457 918.5,-431 817.5,-431"/>
<text text-anchor="start" x="825.5" y="-446.6" font-family="Helvetica,sans-Serif" font-size="8.00">flow::net_flow::Node</text>
<text text-anchor="middle" x="868" y="-437.6" font-family="Helvetica,sans-Serif" font-size="8.00">::receive</text>
</a>
</g>
</g>
<!-- Node3&#45;&gt;Node4 -->
<g id="edge4" class="edge">
<title>Node3&#45;&gt;Node4</title>
<path fill="none" stroke="midnightblue" d="M983.26,-444C961.97,-444 938.72,-444 918.79,-444"/>
<polygon fill="midnightblue" stroke="midnightblue" points="983.53,-447.5 993.53,-444 983.53,-440.5 983.53,-447.5"/>
</g>
<!-- Node5 -->
<g id="node5" class="node">
<title>Node5</title>
<g id="a_node5"><a xlink:href="classflow_1_1net__flow_1_1Peer__socket.html#af3ac1b0b3c9b1c3a5ec246148595c657" target="_top" xlink:title="Non&#45;template helper for template receive() that forwards the receive() logic to Node::receive().">
<polygon fill="white" stroke="red" points="639.5,-476 639.5,-502 747.5,-502 747.5,-476 639.5,-476"/>
<text text-anchor="start" x="647.5" y="-491.6" font-family="Helvetica,sans-Serif" font-size="8.00">flow::net_flow::Peer</text>
<text text-anchor="middle" x="693.5" y="-482.6" font-family="Helvetica,sans-Serif" font-size="8.00">_socket::node_receive</text>
</a>
</g>
</g>
<!-- Node4&#45;&gt;Node5 -->
<g id="edge5" class="edge">
<title>Node4&#45;&gt;Node5</title>
<path fill="none" stroke="midnightblue" d="M807.27,-459.58C786.83,-464.91 764.18,-470.82 744.58,-475.94"/>
<polygon fill="midnightblue" stroke="midnightblue" points="808.31,-462.93 817.11,-457.02 806.55,-456.15 808.31,-462.93"/>
</g>
<!-- Node7 -->
<g id="node6" class="node">
<title>Node7</title>
<g id="a_node6"><a xlink:href="classflow_1_1net__flow_1_1Peer__socket.html#a8abde92d5189bf2a058fe8741789f814" target="_top" xlink:title="This is to sync_receive() as node_receive() is to receive().">
<polygon fill="white" stroke="red" points="628,-431 628,-457 759,-457 759,-431 628,-431"/>
<text text-anchor="start" x="636" y="-446.6" font-family="Helvetica,sans-Serif" font-size="8.00">flow::net_flow::Peer</text>
<text text-anchor="middle" x="693.5" y="-437.6" font-family="Helvetica,sans-Serif" font-size="8.00">_socket::node_sync_receive</text>
</a>
</g>
</g>
<!-- Node4&#45;&gt;Node7 -->
<g id="edge6" class="edge">
<title>Node4&#45;&gt;Node7</title>
<path fill="none" stroke="midnightblue" d="M806.67,-444C791.28,-444 774.67,-444 759.07,-444"/>
<polygon fill="midnightblue" stroke="midnightblue" points="807.11,-447.5 817.11,-444 807.11,-440.5 807.11,-447.5"/>
</g>
<!-- Node13 -->
<g id="node8" class="node">
<title>Node13</title>
<g id="a_node8"><a xlink:href="classflow_1_1net__flow_1_1Node.html#a90ecbad1ff3a8d2fe4b3ad1c474f7513" target="_top" xlink:title="Helper for low_lvl_recv_and_handle() that calls handle_incoming() on the not&#45;yet&#45;deserialized low&#45;lev...">
<polygon fill="white" stroke="black" points="455.5,-212.5 455.5,-247.5 568.5,-247.5 568.5,-212.5 455.5,-212.5"/>
<text text-anchor="start" x="463.5" y="-237.1" font-family="Helvetica,sans-Serif" font-size="8.00">flow::net_flow::Node</text>
<text text-anchor="start" x="463.5" y="-228.1" font-family="Helvetica,sans-Serif" font-size="8.00">::handle_incoming_with</text>
<text text-anchor="middle" x="512" y="-219.1" font-family="Helvetica,sans-Serif" font-size="8.00">_simulation</text>
</a>
</g>
</g>
<!-- Node12&#45;&gt;Node13 -->
<g id="edge8" class="edge">
<title>Node12&#45;&gt;Node13</title>
<path fill="none" stroke="midnightblue" d="M626.62,-230C607.63,-230 587.09,-230 568.78,-230"/>
<polygon fill="midnightblue" stroke="midnightblue" points="626.69,-233.5 636.69,-230 626.69,-226.5 626.69,-233.5"/>
</g>
<!-- Node13&#45;&gt;Node13 -->
<g id="edge9" class="edge">
<title>Node13&#45;&gt;Node13</title>
<path fill="none" stroke="midnightblue" d="M542.65,-258.1C538.35,-262.77 528.13,-266 512,-266 485.53,-266 474.99,-257.31 480.36,-247.78"/>
<polygon fill="midnightblue" stroke="midnightblue" points="546.17,-258.07 543.64,-247.78 539.2,-257.4 546.17,-258.07"/>
</g>
<!-- Node14 -->
<g id="node9" class="node">
<title>Node14</title>
<g id="a_node9"><a xlink:href="classflow_1_1net__flow_1_1Node.html#a9909cd2b2a77c57da9e35fcef0f8a4e5" target="_top" xlink:title="Handles the pre&#45;condition that m_low_lvl_sock has a UDP packet available for reading,...">
<polygon fill="white" stroke="black" points="274,-274 274,-300 396,-300 396,-274 274,-274"/>
<text text-anchor="start" x="282" y="-289.6" font-family="Helvetica,sans-Serif" font-size="8.00">flow::net_flow::Node</text>
<text text-anchor="middle" x="335" y="-280.6" font-family="Helvetica,sans-Serif" font-size="8.00">::low_lvl_recv_and_handle</text>
</a>
</g>
</g>
<!-- Node13&#45;&gt;Node14 -->
<g id="edge10" class="edge">
<title>Node13&#45;&gt;Node14</title>
<path fill="none" stroke="midnightblue" d="M447.39,-250.72C423.59,-258.47 397.24,-267.05 376.14,-273.93"/>
<polygon fill="midnightblue" stroke="midnightblue" points="448.64,-253.99 457.07,-247.57 446.47,-247.34 448.64,-253.99"/>
</g>
<!-- Node15 -->
<g id="node10" class="node">
<title>Node15</title>
<g id="a_node10"><a xlink:href="classflow_1_1net__flow_1_1Node.html#ade12d2ebbd88b62432089a3a071b9514" target="_top" xlink:title="Registers so that during the current or next m_task_engine.run(), the latter will wait for a receivab...">
<polygon fill="white" stroke="black" points="137,-274 137,-300 238,-300 238,-274 137,-274"/>
<text text-anchor="start" x="145" y="-289.6" font-family="Helvetica,sans-Serif" font-size="8.00">flow::net_flow::Node</text>
<text text-anchor="middle" x="187.5" y="-280.6" font-family="Helvetica,sans-Serif" font-size="8.00">::async_low_lvl_recv</text>
</a>
</g>
</g>
<!-- Node14&#45;&gt;Node15 -->
<g id="edge11" class="edge">
<title>Node14&#45;&gt;Node15</title>
<path fill="none" stroke="midnightblue" d="M263.86,-280.25C255.19,-280.23 246.48,-280.33 238.2,-280.56"/>
<polygon fill="midnightblue" stroke="midnightblue" points="263.95,-283.75 273.98,-280.34 264.01,-276.75 263.95,-283.75"/>
</g>
<!-- Node15&#45;&gt;Node14 -->
<g id="edge12" class="edge">
<title>Node15&#45;&gt;Node14</title>
<path fill="none" stroke="midnightblue" d="M248.37,-293.66C256.82,-293.78 265.52,-293.78 273.98,-293.66"/>
<polygon fill="midnightblue" stroke="midnightblue" points="248.28,-290.15 238.2,-293.44 248.13,-297.15 248.28,-290.15"/>
</g>
<!-- Node15&#45;&gt;Node16 -->
<g id="edge13" class="edge">
<title>Node15&#45;&gt;Node16</title>
<path fill="none" stroke="midnightblue" d="M145.14,-303.85C125.4,-311.89 102.13,-321.37 83.73,-328.87"/>
<polygon fill="midnightblue" stroke="midnightblue" points="146.57,-307.05 154.51,-300.03 143.93,-300.57 146.57,-307.05"/>
</g>
<!-- Node17&#45;&gt;Node16 -->
<g id="edge16" class="edge">
<title>Node17&#45;&gt;Node16</title>
<path fill="none" stroke="midnightblue" d="M421.51,-342C325.86,-342 177.69,-342 101.1,-342"/>
<polygon fill="midnightblue" stroke="midnightblue" points="421.75,-345.5 431.75,-342 421.75,-338.5 421.75,-345.5"/>
</g>
<!-- Node17&#45;&gt;Node17 -->
<g id="edge15" class="edge">
<title>Node17&#45;&gt;Node17</title>
<path fill="none" stroke="midnightblue" d="M543.93,-365.08C540.69,-369.97 530.05,-373.5 512,-373.5 483.12,-373.5 473.2,-364.46 482.22,-355.27"/>
<polygon fill="midnightblue" stroke="midnightblue" points="547.34,-364.29 541.78,-355.27 540.51,-365.79 547.34,-364.29"/>
</g>
<!-- Node19 -->
<g id="node14" class="node">
<title>Node19</title>
<g id="a_node14"><a xlink:href="classflow_1_1async_1_1Cross__thread__task__loop.html#aa8fb0ac1ac3dc4fb86b0a7dbec0a8686" target="_top" xlink:title="Implements superclass API.">
<polygon fill="white" stroke="black" points="977,-217 977,-243 1123,-243 1123,-217 977,-217"/>
<text text-anchor="start" x="985" y="-232.6" font-family="Helvetica,sans-Serif" font-size="8.00">flow::async::Cross</text>
<text text-anchor="middle" x="1050" y="-223.6" font-family="Helvetica,sans-Serif" font-size="8.00">_thread_task_loop::schedule_at</text>
</a>
</g>
</g>
<!-- Node18&#45;&gt;Node19 -->
<g id="edge18" class="edge">
<title>Node18&#45;&gt;Node19</title>
<path fill="none" stroke="midnightblue" d="M1148.81,-244.05C1140.3,-242.83 1131.65,-241.59 1123.18,-240.37"/>
<polygon fill="midnightblue" stroke="midnightblue" points="1148.33,-247.52 1158.72,-245.48 1149.32,-240.59 1148.33,-247.52"/>
</g>
<!-- Node21 -->
<g id="node16" class="node">
<title>Node21</title>
<g id="a_node16"><a xlink:href="classflow_1_1async_1_1Single__thread__task__loop.html#a2669021fe545a05ced370f09ce794f52" target="_top" xlink:title="Equivalent to post() but execution is scheduled for later, after the given time period passes.">
<polygon fill="white" stroke="black" points="983,-162.5 983,-197.5 1117,-197.5 1117,-162.5 983,-162.5"/>
<text text-anchor="start" x="991" y="-187.1" font-family="Helvetica,sans-Serif" font-size="8.00">flow::async::Single</text>
<text text-anchor="start" x="991" y="-178.1" font-family="Helvetica,sans-Serif" font-size="8.00">_thread_task_loop::schedule</text>
<text text-anchor="middle" x="1050" y="-169.1" font-family="Helvetica,sans-Serif" font-size="8.00">_from_now</text>
</a>
</g>
</g>
<!-- Node18&#45;&gt;Node21 -->
<g id="edge20" class="edge">
<title>Node18&#45;&gt;Node21</title>
<path fill="none" stroke="midnightblue" d="M1179.03,-233.09C1161.59,-224.97 1141.48,-215.84 1123,-208 1114.73,-204.49 1105.85,-200.9 1097.26,-197.51"/>
<polygon fill="midnightblue" stroke="midnightblue" points="1177.87,-236.42 1188.42,-237.49 1180.84,-230.08 1177.87,-236.42"/>
</g>
<!-- Node22 -->
<g id="node17" class="node">
<title>Node22</title>
<g id="a_node17"><a xlink:href="classflow_1_1async_1_1Cross__thread__task__loop.html#a414e266ad227e12d47cb25f827251698" target="_top" xlink:title="Implements superclass API.">
<polygon fill="white" stroke="black" points="983,-262.5 983,-297.5 1117,-297.5 1117,-262.5 983,-262.5"/>
<text text-anchor="start" x="991" y="-287.1" font-family="Helvetica,sans-Serif" font-size="8.00">flow::async::Cross</text>
<text text-anchor="start" x="991" y="-278.1" font-family="Helvetica,sans-Serif" font-size="8.00">_thread_task_loop::schedule</text>
<text text-anchor="middle" x="1050" y="-269.1" font-family="Helvetica,sans-Serif" font-size="8.00">_from_now</text>
</a>
</g>
</g>
<!-- Node18&#45;&gt;Node22 -->
<g id="edge21" class="edge">
<title>Node18&#45;&gt;Node22</title>
<path fill="none" stroke="midnightblue" d="M1148.71,-265.96C1138.17,-267.48 1127.42,-269.02 1117.09,-270.5"/>
<polygon fill="midnightblue" stroke="midnightblue" points="1149.32,-269.41 1158.72,-264.52 1148.33,-262.48 1149.32,-269.41"/>
</g>
<!-- Node20 -->
<g id="node15" class="node">
<title>Node20</title>
<g id="a_node15"><a xlink:href="classflow_1_1async_1_1Single__thread__task__loop.html#a0fff7cd79132c92a03e46be93f7f53b8" target="_top" xlink:title="Equivalent to schedule_from_now() except one specifies an absolute time point instead of wait duratio...">
<polygon fill="white" stroke="black" points="795,-217 795,-243 941,-243 941,-217 795,-217"/>
<text text-anchor="start" x="803" y="-232.6" font-family="Helvetica,sans-Serif" font-size="8.00">flow::async::Single</text>
<text text-anchor="middle" x="868" y="-223.6" font-family="Helvetica,sans-Serif" font-size="8.00">_thread_task_loop::schedule_at</text>
</a>
</g>
</g>
<!-- Node19&#45;&gt;Node20 -->
<g id="edge19" class="edge">
<title>Node19&#45;&gt;Node20</title>
<path fill="none" stroke="midnightblue" d="M966.56,-230C958.09,-230 949.54,-230 941.19,-230"/>
<polygon fill="midnightblue" stroke="midnightblue" points="966.82,-233.5 976.82,-230 966.82,-226.5 966.82,-233.5"/>
</g>
<!-- Node24 -->
<g id="node19" class="node">
<title>Node24</title>
<g id="a_node19"><a xlink:href="classflow_1_1async_1_1Segregated__thread__task__loop.html#a4cb5a3192dad0ef7d5a228b18d11900a" target="_top" xlink:title="Implements superclass API.">
<polygon fill="white" stroke="black" points="983,-108.5 983,-143.5 1117,-143.5 1117,-108.5 983,-108.5"/>
<text text-anchor="start" x="991" y="-133.1" font-family="Helvetica,sans-Serif" font-size="8.00">flow::async::Segregated</text>
<text text-anchor="start" x="991" y="-124.1" font-family="Helvetica,sans-Serif" font-size="8.00">_thread_task_loop::schedule</text>
<text text-anchor="middle" x="1050" y="-115.1" font-family="Helvetica,sans-Serif" font-size="8.00">_from_now</text>
</a>
</g>
</g>
<!-- Node23&#45;&gt;Node24 -->
<g id="edge23" class="edge">
<title>Node23&#45;&gt;Node24</title>
<path fill="none" stroke="midnightblue" d="M1153.71,-155.52C1139.9,-151.55 1125.54,-147.42 1112.08,-143.55"/>
<polygon fill="midnightblue" stroke="midnightblue" points="1153.08,-158.97 1163.65,-158.37 1155.01,-152.25 1153.08,-158.97"/>
</g>
<!-- Node25 -->
<g id="node20" class="node">
<title>Node25</title>
<g id="a_node20"><a xlink:href="classflow_1_1async_1_1Segregated__thread__task__loop.html#aec44a292a4f2800f40f67bfc4bf19367" target="_top" xlink:title="Implements superclass API.">
<polygon fill="white" stroke="black" points="795,-143 795,-169 941,-169 941,-143 795,-143"/>
<text text-anchor="start" x="803" y="-158.6" font-family="Helvetica,sans-Serif" font-size="8.00">flow::async::Segregated</text>
<text text-anchor="middle" x="868" y="-149.6" font-family="Helvetica,sans-Serif" font-size="8.00">_thread_task_loop::schedule_at</text>
</a>
</g>
</g>
<!-- Node24&#45;&gt;Node25 -->
<g id="edge24" class="edge">
<title>Node24&#45;&gt;Node25</title>
<path fill="none" stroke="midnightblue" d="M972.96,-138.67C962.39,-140.43 951.56,-142.24 941.06,-143.99"/>
<polygon fill="midnightblue" stroke="midnightblue" points="973.71,-142.1 983,-137 972.56,-135.19 973.71,-142.1"/>
</g>
<!-- Node27 -->
<g id="node22" class="node">
<title>Node27</title>
<g id="a_node22"><a xlink:href="classflow_1_1net__flow_1_1Node.html#addd654cb6b1ccff34ddccbe5226be8f0" target="_top" xlink:title="Handles the triggering of the retransmit timer wait set up by setup_connection_timers(); it will re&#45;s...">
<polygon fill="white" stroke="black" points="985.5,-54.5 985.5,-89.5 1114.5,-89.5 1114.5,-54.5 985.5,-54.5"/>
<text text-anchor="start" x="993.5" y="-79.1" font-family="Helvetica,sans-Serif" font-size="8.00">flow::net_flow::Node</text>
<text text-anchor="start" x="993.5" y="-70.1" font-family="Helvetica,sans-Serif" font-size="8.00">::handle_connection_rexmit</text>
<text text-anchor="middle" x="1050" y="-61.1" font-family="Helvetica,sans-Serif" font-size="8.00">_timer_event</text>
</a>
</g>
</g>
<!-- Node26&#45;&gt;Node27 -->
<g id="edge26" class="edge">
<title>Node26&#45;&gt;Node27</title>
<path fill="none" stroke="midnightblue" d="M1153.07,-72C1140.35,-72 1127.17,-72 1114.69,-72"/>
<polygon fill="midnightblue" stroke="midnightblue" points="1153.16,-75.5 1163.16,-72 1153.16,-68.5 1153.16,-75.5"/>
</g>
<!-- Node28 -->
<g id="node23" class="node">
<title>Node28</title>
<g id="a_node23"><a xlink:href="classflow_1_1net__flow_1_1Node.html#aaaf5c3b5e6b9f9f1658b60907b36a498" target="_top" xlink:title="Handles a just&#45;deserialized, just&#45;demultiplexed low&#45;level SYN packet delivered to the given server so...">
<polygon fill="white" stroke="black" points="990,-0.5 990,-35.5 1110,-35.5 1110,-0.5 990,-0.5"/>
<text text-anchor="start" x="998" y="-25.1" font-family="Helvetica,sans-Serif" font-size="8.00">flow::net_flow::Node</text>
<text text-anchor="start" x="998" y="-16.1" font-family="Helvetica,sans-Serif" font-size="8.00">::handle_syn_to_listening</text>
<text text-anchor="middle" x="1050" y="-7.1" font-family="Helvetica,sans-Serif" font-size="8.00">_server</text>
</a>
</g>
</g>
<!-- Node26&#45;&gt;Node28 -->
<g id="edge27" class="edge">
<title>Node26&#45;&gt;Node28</title>
<path fill="none" stroke="midnightblue" d="M1173.31,-55.96C1152.61,-49.53 1128.69,-42.11 1107.53,-35.54"/>
<polygon fill="midnightblue" stroke="midnightblue" points="1172.29,-59.31 1182.88,-58.93 1174.37,-52.62 1172.29,-59.31"/>
</g>
<!-- Node29 -->
<g id="node24" class="node">
<title>Node29</title>
<g id="a_node24"><a xlink:href="classflow_1_1net__flow_1_1Node.html#a1699dfdaf3e5ebe1b1d715a9c306d116" target="_top" xlink:title="Handles a just&#45;received, not&#45;yet&#45;deserialized low&#45;level packet.">
<polygon fill="white" stroke="black" points="817.5,-98 817.5,-124 918.5,-124 918.5,-98 817.5,-98"/>
<text text-anchor="start" x="825.5" y="-113.6" font-family="Helvetica,sans-Serif" font-size="8.00">flow::net_flow::Node</text>
<text text-anchor="middle" x="868" y="-104.6" font-family="Helvetica,sans-Serif" font-size="8.00">::handle_incoming</text>
</a>
</g>
</g>
<!-- Node28&#45;&gt;Node29 -->
<g id="edge28" class="edge">
<title>Node28&#45;&gt;Node29</title>
<path fill="none" stroke="midnightblue" d="M989.28,-39.38C985.08,-41.19 980.95,-43.07 977,-45 944.41,-60.89 908.97,-83.71 887.88,-97.93"/>
<polygon fill="midnightblue" stroke="midnightblue" points="990.63,-42.61 998.52,-35.53 987.94,-36.15 990.63,-42.61"/>
</g>
<!-- Node29&#45;&gt;Node12 -->
<g id="edge29" class="edge">
<title>Node29&#45;&gt;Node12</title>
<path fill="none" stroke="midnightblue" d="M807.89,-126.84C803.38,-128.95 799.03,-131.33 795,-134 774.51,-147.59 776.49,-158.72 759,-176 745.91,-188.94 730.08,-202.22 717.38,-212.37"/>
<polygon fill="midnightblue" stroke="midnightblue" points="809.46,-129.98 817.3,-122.86 806.73,-123.53 809.46,-129.98"/>
</g>
<!-- Node29&#45;&gt;Node13 -->
<g id="edge30" class="edge">
<title>Node29&#45;&gt;Node13</title>
<path fill="none" stroke="midnightblue" d="M816.22,-127.09C809.09,-129.39 801.85,-131.74 795,-134 713.84,-160.78 619.95,-192.98 563.59,-212.46"/>
<polygon fill="midnightblue" stroke="midnightblue" points="817.38,-130.39 825.84,-124 815.24,-123.73 817.38,-130.39"/>
</g>
</g>
</svg>
