<?xml version="1.0" encoding="UTF-8" standalone="no"?>
<!DOCTYPE svg PUBLIC "-//W3C//DTD SVG 1.1//EN"
 "http://www.w3.org/Graphics/SVG/1.1/DTD/svg11.dtd">
<!-- Generated by graphviz version 2.43.0 (0)
 -->
<!-- Title: flow::util::ostream_op_string Pages: 1 -->
<svg width="757pt" height="528pt"
 viewBox="0.00 0.00 757.00 528.00" xmlns="http://www.w3.org/2000/svg" xmlns:xlink="http://www.w3.org/1999/xlink">
<g id="graph0" class="graph" transform="scale(1 1) rotate(0) translate(4 524)">
<title>flow::util::ostream_op_string</title>
<polygon fill="white" stroke="transparent" points="-4,4 -4,-524 753,-524 753,4 -4,4"/>
<!-- Node1 -->
<g id="node1" class="node">
<title>Node1</title>
<g id="a_node1"><a xlink:title="Equivalent to ostream_op_to_string() but returns a new string by value instead of writing to the call...">
<polygon fill="#bfbfbf" stroke="black" points="657,-256.5 657,-282.5 749,-282.5 749,-256.5 657,-256.5"/>
<text text-anchor="start" x="665" y="-272.1" font-family="Helvetica,sans-Serif" font-size="8.00">flow::util::ostream</text>
<text text-anchor="middle" x="703" y="-263.1" font-family="Helvetica,sans-Serif" font-size="8.00">_op_string</text>
</a>
</g>
</g>
<!-- Node2 -->
<g id="node2" class="node">
<title>Node2</title>
<g id="a_node2"><a xlink:href="classflow_1_1log_1_1Verbosity__config.html#a3a64ac2ee6eaf09fc9de6199916d0388" target="_top" xlink:title="Applies *this to to the given log::Config.">
<polygon fill="white" stroke="black" points="488,-493.5 488,-519.5 604,-519.5 604,-493.5 488,-493.5"/>
<text text-anchor="start" x="496" y="-509.1" font-family="Helvetica,sans-Serif" font-size="8.00">flow::log::Verbosity</text>
<text text-anchor="middle" x="546" y="-500.1" font-family="Helvetica,sans-Serif" font-size="8.00">_config::apply_to_config</text>
</a>
</g>
</g>
<!-- Node1&#45;&gt;Node2 -->
<g id="edge1" class="edge">
<title>Node1&#45;&gt;Node2</title>
<path fill="none" stroke="midnightblue" d="M699.94,-292.53C694.79,-336.35 677.38,-432 621,-484.5 616.1,-489.07 610.28,-492.69 604.11,-495.56"/>
<polygon fill="midnightblue" stroke="midnightblue" points="703.43,-292.88 701.01,-282.57 696.47,-292.14 703.43,-292.88"/>
</g>
<!-- Node3 -->
<g id="node3" class="node">
<title>Node3</title>
<g id="a_node3"><a xlink:href="classflow_1_1perf_1_1Checkpointing__timer.html#aa9940d8e87883f9985ba18939f833db9" target="_top" xlink:title="Constructs a new timer and immediately begins measuring time, in that the next checkpoint() call will...">
<polygon fill="white" stroke="black" points="480.5,-448.5 480.5,-474.5 611.5,-474.5 611.5,-448.5 480.5,-448.5"/>
<text text-anchor="start" x="488.5" y="-464.1" font-family="Helvetica,sans-Serif" font-size="8.00">flow::perf::Checkpointing</text>
<text text-anchor="middle" x="546" y="-455.1" font-family="Helvetica,sans-Serif" font-size="8.00">_timer::Checkpointing_timer</text>
</a>
</g>
</g>
<!-- Node1&#45;&gt;Node3 -->
<g id="edge2" class="edge">
<title>Node1&#45;&gt;Node3</title>
<path fill="none" stroke="midnightblue" d="M697.23,-293.02C688.55,-329.71 666.71,-400.41 621,-439.5 616.93,-442.98 612.32,-445.92 607.44,-448.39"/>
<polygon fill="midnightblue" stroke="midnightblue" points="700.75,-293.32 699.51,-282.8 693.91,-291.79 700.75,-293.32"/>
</g>
<!-- Node5 -->
<g id="node5" class="node">
<title>Node5</title>
<g id="a_node5"><a xlink:href="classflow_1_1cfg_1_1Config__manager.html#ad59bfabf66e01922542629bae77508ad" target="_top" xlink:title="Constructs a Config_manager ready to read initial config via apply_*() and other setup methods; and f...">
<polygon fill="white" stroke="black" points="483.5,-403.5 483.5,-429.5 608.5,-429.5 608.5,-403.5 483.5,-403.5"/>
<text text-anchor="start" x="491.5" y="-419.1" font-family="Helvetica,sans-Serif" font-size="8.00">flow::cfg::Config_manager</text>
<text text-anchor="middle" x="546" y="-410.1" font-family="Helvetica,sans-Serif" font-size="8.00">::Config_manager</text>
</a>
</g>
</g>
<!-- Node1&#45;&gt;Node5 -->
<g id="edge4" class="edge">
<title>Node1&#45;&gt;Node5</title>
<path fill="none" stroke="midnightblue" d="M692.07,-291.75C679.21,-318.23 654.42,-362.16 621,-388.5 613.23,-394.62 603.98,-399.51 594.69,-403.39"/>
<polygon fill="midnightblue" stroke="midnightblue" points="695.32,-293.06 696.41,-282.52 688.99,-290.08 695.32,-293.06"/>
</g>
<!-- Node6 -->
<g id="node6" class="node">
<title>Node6</title>
<g id="a_node6"><a xlink:href="namespaceflow_1_1async.html#a02afaeea759dfc180890e376db79530e" target="_top" xlink:title="Assuming the same situation as documented for optimal_worker_thread_count_per_pool(),...">
<polygon fill="white" stroke="black" points="488.5,-319.5 488.5,-345.5 603.5,-345.5 603.5,-319.5 488.5,-319.5"/>
<text text-anchor="start" x="496.5" y="-335.1" font-family="Helvetica,sans-Serif" font-size="8.00">flow::async::optimize</text>
<text text-anchor="middle" x="546" y="-326.1" font-family="Helvetica,sans-Serif" font-size="8.00">_pinning_in_thread_pool</text>
</a>
</g>
</g>
<!-- Node1&#45;&gt;Node6 -->
<g id="edge5" class="edge">
<title>Node1&#45;&gt;Node6</title>
<path fill="none" stroke="midnightblue" d="M663.16,-286.71C649.85,-292.5 634.83,-298.9 621,-304.5 608.52,-309.55 594.75,-314.84 582.51,-319.44"/>
<polygon fill="midnightblue" stroke="midnightblue" points="664.75,-289.84 672.51,-282.63 661.95,-283.42 664.75,-289.84"/>
</g>
<!-- Node7 -->
<g id="node7" class="node">
<title>Node7</title>
<g id="a_node7"><a xlink:href="classflow_1_1async_1_1Segregated__thread__task__loop.html#a55fcb2e9f5410174c69cb1b9053a6ffd" target="_top" xlink:title="Implements superclass API.">
<polygon fill="white" stroke="black" points="314,-343.5 314,-369.5 431,-369.5 431,-343.5 314,-343.5"/>
<text text-anchor="start" x="322" y="-359.1" font-family="Helvetica,sans-Serif" font-size="8.00">flow::async::Segregated</text>
<text text-anchor="middle" x="372.5" y="-350.1" font-family="Helvetica,sans-Serif" font-size="8.00">_thread_task_loop::start</text>
</a>
</g>
</g>
<!-- Node1&#45;&gt;Node7 -->
<g id="edge13" class="edge">
<title>Node1&#45;&gt;Node7</title>
<path fill="none" stroke="midnightblue" d="M689.14,-291.09C675.3,-312 651.15,-342.41 621,-355.5 560.3,-381.86 483.07,-376.87 431.16,-368.7"/>
<polygon fill="midnightblue" stroke="midnightblue" points="692.18,-292.83 694.6,-282.51 686.28,-289.07 692.18,-292.83"/>
</g>
<!-- Node8 -->
<g id="node8" class="node">
<title>Node8</title>
<g id="a_node8"><a xlink:href="classflow_1_1async_1_1Cross__thread__task__loop.html#a5705e34163dec8463a30361bdb2fa83f" target="_top" xlink:title="Implements superclass API.">
<polygon fill="white" stroke="black" points="315,-289.5 315,-315.5 430,-315.5 430,-289.5 315,-289.5"/>
<text text-anchor="start" x="323" y="-305.1" font-family="Helvetica,sans-Serif" font-size="8.00">flow::async::Cross</text>
<text text-anchor="middle" x="372.5" y="-296.1" font-family="Helvetica,sans-Serif" font-size="8.00">_thread_task_loop::start</text>
</a>
</g>
</g>
<!-- Node1&#45;&gt;Node8 -->
<g id="edge14" class="edge">
<title>Node1&#45;&gt;Node8</title>
<path fill="none" stroke="midnightblue" d="M646.6,-275.07C586.44,-281.11 490.86,-290.71 430.2,-296.8"/>
<polygon fill="midnightblue" stroke="midnightblue" points="647.07,-278.54 656.67,-274.05 646.37,-271.57 647.07,-278.54"/>
</g>
<!-- Node11 -->
<g id="node11" class="node">
<title>Node11</title>
<g id="a_node11"><a xlink:href="classflow_1_1log_1_1Verbosity__config.html#afaf5a5fb1d9e56946403072eadaa3c10" target="_top" xlink:title="Deserializes *this from a standard input stream.">
<polygon fill="white" stroke="black" points="498.5,-235.5 498.5,-261.5 593.5,-261.5 593.5,-235.5 498.5,-235.5"/>
<text text-anchor="start" x="506.5" y="-251.1" font-family="Helvetica,sans-Serif" font-size="8.00">flow::log::Verbosity</text>
<text text-anchor="middle" x="546" y="-242.1" font-family="Helvetica,sans-Serif" font-size="8.00">_config::parse</text>
</a>
</g>
</g>
<!-- Node1&#45;&gt;Node11 -->
<g id="edge10" class="edge">
<title>Node1&#45;&gt;Node11</title>
<path fill="none" stroke="midnightblue" d="M646.74,-262.01C629.37,-259.66 610.37,-257.08 593.65,-254.82"/>
<polygon fill="midnightblue" stroke="midnightblue" points="646.37,-265.5 656.75,-263.37 647.31,-258.56 646.37,-265.5"/>
</g>
<!-- Node13 -->
<g id="node13" class="node">
<title>Node13</title>
<g id="a_node13"><a xlink:href="classflow_1_1cfg_1_1Option__set.html#a4ca1b50ec692a98865e4afde76d04128" target="_top" xlink:title="Enters into (from CANONICAL state) or continues in PARSING state by parsing the config source in the ...">
<polygon fill="white" stroke="black" points="495.5,-190.5 495.5,-216.5 596.5,-216.5 596.5,-190.5 495.5,-190.5"/>
<text text-anchor="start" x="503.5" y="-206.1" font-family="Helvetica,sans-Serif" font-size="8.00">flow::cfg::Option_set</text>
<text text-anchor="middle" x="546" y="-197.1" font-family="Helvetica,sans-Serif" font-size="8.00">::parse_config_file</text>
</a>
</g>
</g>
<!-- Node1&#45;&gt;Node13 -->
<g id="edge12" class="edge">
<title>Node1&#45;&gt;Node13</title>
<path fill="none" stroke="midnightblue" d="M672.13,-251.33C657.15,-242.72 638.5,-232.76 621,-225.5 613.08,-222.21 604.49,-219.19 596.07,-216.52"/>
<polygon fill="midnightblue" stroke="midnightblue" points="670.54,-254.45 680.94,-256.48 674.07,-248.41 670.54,-254.45"/>
</g>
<!-- Node14 -->
<g id="node14" class="node">
<title>Node14</title>
<g id="a_node14"><a xlink:href="classflow_1_1log_1_1Logger.html#a5600c71ccaa294650c7d34b596d90bf5" target="_top" xlink:title="Sets or unsets the current thread&#39;s logging&#45;worthy string name; optionally sets the OS thread name (s...">
<polygon fill="white" stroke="black" points="490.5,-136 490.5,-171 601.5,-171 601.5,-136 490.5,-136"/>
<text text-anchor="start" x="498.5" y="-160.6" font-family="Helvetica,sans-Serif" font-size="8.00">flow::log::Logger::</text>
<text text-anchor="start" x="498.5" y="-151.6" font-family="Helvetica,sans-Serif" font-size="8.00">this_thread_set_logged</text>
<text text-anchor="middle" x="546" y="-142.6" font-family="Helvetica,sans-Serif" font-size="8.00">_nickname</text>
</a>
</g>
</g>
<!-- Node1&#45;&gt;Node14 -->
<g id="edge15" class="edge">
<title>Node1&#45;&gt;Node14</title>
<path fill="none" stroke="midnightblue" d="M687.43,-248.32C672.74,-228.36 648.35,-198.86 621,-180.5 615.1,-176.54 608.54,-173.07 601.83,-170.06"/>
<polygon fill="midnightblue" stroke="midnightblue" points="684.62,-250.41 693.3,-256.49 690.31,-246.32 684.62,-250.41"/>
</g>
<!-- Node15 -->
<g id="node15" class="node">
<title>Node15</title>
<g id="a_node15"><a xlink:href="namespaceboost_1_1filesystem.html#a5fa05fd030711d6d8c76139467b13256" target="_top" xlink:title="ADL&#45;based overload of boost.program_options validate() to allow for empty boost::filesystem::path val...">
<polygon fill="white" stroke="black" points="499,-90.5 499,-116.5 593,-116.5 593,-90.5 499,-90.5"/>
<text text-anchor="start" x="507" y="-106.1" font-family="Helvetica,sans-Serif" font-size="8.00">boost::filesystem::</text>
<text text-anchor="middle" x="546" y="-97.1" font-family="Helvetica,sans-Serif" font-size="8.00">validate</text>
</a>
</g>
</g>
<!-- Node1&#45;&gt;Node15 -->
<g id="edge16" class="edge">
<title>Node1&#45;&gt;Node15</title>
<path fill="none" stroke="midnightblue" d="M695.02,-246.58C684.23,-214.99 660.52,-158.35 621,-126.5 612.93,-120 603.03,-115.33 593.11,-111.97"/>
<polygon fill="midnightblue" stroke="midnightblue" points="691.75,-247.85 698.18,-256.26 698.4,-245.67 691.75,-247.85"/>
</g>
<!-- Node16 -->
<g id="node16" class="node">
<title>Node16</title>
<g id="a_node16"><a xlink:href="namespaceflow_1_1cfg.html#aafaf432a612183beab72175831aaa960" target="_top" xlink:title="Similar to value_set_member_id_to_opt_name() but used by FLOW_CFG_OPTION_SET_DECLARE_OPTION_KEYED() i...">
<polygon fill="white" stroke="black" points="471,-45.5 471,-71.5 621,-71.5 621,-45.5 471,-45.5"/>
<text text-anchor="start" x="479" y="-61.1" font-family="Helvetica,sans-Serif" font-size="8.00">flow::cfg::value_set</text>
<text text-anchor="middle" x="546" y="-52.1" font-family="Helvetica,sans-Serif" font-size="8.00">_member_id_to_opt_name_keyed</text>
</a>
</g>
</g>
<!-- Node1&#45;&gt;Node16 -->
<g id="edge17" class="edge">
<title>Node1&#45;&gt;Node16</title>
<path fill="none" stroke="midnightblue" d="M698.54,-246.21C691.38,-206.39 671.21,-125.2 621,-80.5 617.1,-77.02 612.66,-74.1 607.96,-71.63"/>
<polygon fill="midnightblue" stroke="midnightblue" points="695.12,-247 700.22,-256.28 702.02,-245.84 695.12,-247"/>
</g>
<!-- Node17 -->
<g id="node17" class="node">
<title>Node17</title>
<g id="a_node17"><a xlink:href="namespaceflow_1_1cfg.html#ac3782f31b7c020d7b08e250e89198ad4" target="_top" xlink:title="Overload that serializes a value of chrono&#45;based duration including Fine_duration – which is recommen...">
<polygon fill="white" stroke="black" points="500,-0.5 500,-26.5 592,-26.5 592,-0.5 500,-0.5"/>
<text text-anchor="start" x="508" y="-16.1" font-family="Helvetica,sans-Serif" font-size="8.00">flow::cfg::value_to</text>
<text text-anchor="middle" x="546" y="-7.1" font-family="Helvetica,sans-Serif" font-size="8.00">_ostream</text>
</a>
</g>
</g>
<!-- Node1&#45;&gt;Node17 -->
<g id="edge18" class="edge">
<title>Node1&#45;&gt;Node17</title>
<path fill="none" stroke="midnightblue" d="M700.76,-246.42C696.99,-199.76 681.82,-93.69 621,-35.5 613.06,-27.9 602.61,-22.91 592.08,-19.64"/>
<polygon fill="midnightblue" stroke="midnightblue" points="697.27,-246.71 701.46,-256.44 704.25,-246.22 697.27,-246.71"/>
</g>
<!-- Node4 -->
<g id="node4" class="node">
<title>Node4</title>
<g id="a_node4"><a xlink:href="classflow_1_1perf_1_1Checkpointing__timer_1_1Aggregator.html#acbacf3b4842b77f542082e7a186f1434" target="_top" xlink:title="Provides programmatic access to the aggregation result that would be logged by log_aggregated_results...">
<polygon fill="white" stroke="black" points="310,-444 310,-479 435,-479 435,-444 310,-444"/>
<text text-anchor="start" x="318" y="-468.6" font-family="Helvetica,sans-Serif" font-size="8.00">flow::perf::Checkpointing</text>
<text text-anchor="start" x="318" y="-459.6" font-family="Helvetica,sans-Serif" font-size="8.00">_timer::Aggregator::create</text>
<text text-anchor="middle" x="372.5" y="-450.6" font-family="Helvetica,sans-Serif" font-size="8.00">_aggregated_result</text>
</a>
</g>
</g>
<!-- Node3&#45;&gt;Node4 -->
<g id="edge3" class="edge">
<title>Node3&#45;&gt;Node4</title>
<path fill="none" stroke="midnightblue" d="M469.99,-461.5C458.31,-461.5 446.36,-461.5 435.03,-461.5"/>
<polygon fill="midnightblue" stroke="midnightblue" points="470.16,-465 480.16,-461.5 470.16,-458 470.16,-465"/>
</g>
<!-- Node6&#45;&gt;Node7 -->
<g id="edge6" class="edge">
<title>Node6&#45;&gt;Node7</title>
<path fill="none" stroke="midnightblue" d="M478.31,-341.83C462.77,-344.01 446.36,-346.3 431.24,-348.42"/>
<polygon fill="midnightblue" stroke="midnightblue" points="478.95,-345.28 488.37,-340.43 477.98,-338.34 478.95,-345.28"/>
</g>
<!-- Node6&#45;&gt;Node8 -->
<g id="edge7" class="edge">
<title>Node6&#45;&gt;Node8</title>
<path fill="none" stroke="midnightblue" d="M478.09,-320.8C462.22,-318.02 445.43,-315.08 430.07,-312.4"/>
<polygon fill="midnightblue" stroke="midnightblue" points="477.92,-324.32 488.37,-322.59 479.12,-317.42 477.92,-324.32"/>
</g>
<!-- Node9 -->
<g id="node9" class="node">
<title>Node9</title>
<g id="a_node9"><a xlink:href="classflow_1_1async_1_1Single__thread__task__loop.html#a0886e7f19d0c8b19f74851578802a5e5" target="_top" xlink:title="Starts the 1 thread in the thread pool; any queued post()ed (and similar) tasks may begin executing i...">
<polygon fill="white" stroke="black" points="159,-289.5 159,-315.5 274,-315.5 274,-289.5 159,-289.5"/>
<text text-anchor="start" x="167" y="-305.1" font-family="Helvetica,sans-Serif" font-size="8.00">flow::async::Single</text>
<text text-anchor="middle" x="216.5" y="-296.1" font-family="Helvetica,sans-Serif" font-size="8.00">_thread_task_loop::start</text>
</a>
</g>
</g>
<!-- Node8&#45;&gt;Node9 -->
<g id="edge8" class="edge">
<title>Node8&#45;&gt;Node9</title>
<path fill="none" stroke="midnightblue" d="M304.57,-302.5C294.43,-302.5 284.06,-302.5 274.17,-302.5"/>
<polygon fill="midnightblue" stroke="midnightblue" points="304.59,-306 314.59,-302.5 304.59,-299 304.59,-306"/>
</g>
<!-- Node10 -->
<g id="node10" class="node">
<title>Node10</title>
<g id="a_node10"><a xlink:href="classflow_1_1log_1_1Async__file__logger.html#aec2b1796c81b020cacea493e21e19562" target="_top" xlink:title="Constructs logger to subsequently log to the given file&#45;system path.">
<polygon fill="white" stroke="black" points="0,-289.5 0,-315.5 123,-315.5 123,-289.5 0,-289.5"/>
<text text-anchor="start" x="8" y="-305.1" font-family="Helvetica,sans-Serif" font-size="8.00">flow::log::Async_file</text>
<text text-anchor="middle" x="61.5" y="-296.1" font-family="Helvetica,sans-Serif" font-size="8.00">_logger::Async_file_logger</text>
</a>
</g>
</g>
<!-- Node9&#45;&gt;Node10 -->
<g id="edge9" class="edge">
<title>Node9&#45;&gt;Node10</title>
<path fill="none" stroke="midnightblue" d="M148.71,-302.5C140.22,-302.5 131.56,-302.5 123.17,-302.5"/>
<polygon fill="midnightblue" stroke="midnightblue" points="148.96,-306 158.96,-302.5 148.96,-299 148.96,-306"/>
</g>
<!-- Node12 -->
<g id="node12" class="node">
<title>Node12</title>
<g id="a_node12"><a xlink:href="classflow_1_1log_1_1Verbosity__config.html#ab7770a6970cce952c422c27f0bf57d8d" target="_top" xlink:title="Deserializes a Verbosity_config from a standard input stream by invoking val.parse(is).">
<polygon fill="white" stroke="black" points="322,-235.5 322,-261.5 423,-261.5 423,-235.5 322,-235.5"/>
<text text-anchor="start" x="330" y="-251.1" font-family="Helvetica,sans-Serif" font-size="8.00">flow::log::Verbosity</text>
<text text-anchor="middle" x="372.5" y="-242.1" font-family="Helvetica,sans-Serif" font-size="8.00">_config::operator&gt;&gt;</text>
</a>
</g>
</g>
<!-- Node11&#45;&gt;Node12 -->
<g id="edge11" class="edge">
<title>Node11&#45;&gt;Node12</title>
<path fill="none" stroke="midnightblue" d="M488.04,-248.5C467,-248.5 443.34,-248.5 423,-248.5"/>
<polygon fill="midnightblue" stroke="midnightblue" points="488.14,-252 498.14,-248.5 488.14,-245 488.14,-252"/>
</g>
</g>
</svg>
