<?xml version="1.0" encoding="UTF-8" standalone="no"?>
<!DOCTYPE svg PUBLIC "-//W3C//DTD SVG 1.1//EN"
 "http://www.w3.org/Graphics/SVG/1.1/DTD/svg11.dtd">
<!-- Generated by graphviz version 2.43.0 (0)
 -->
<!-- Title: flow::util::deep_size Pages: 1 -->
<svg width="644pt" height="53pt"
 viewBox="0.00 0.00 644.00 53.00" xmlns="http://www.w3.org/2000/svg" xmlns:xlink="http://www.w3.org/1999/xlink">
<g id="graph0" class="graph" transform="scale(1 1) rotate(0) translate(4 49)">
<title>flow::util::deep_size</title>
<polygon fill="white" stroke="transparent" points="-4,4 -4,-49 640,-49 640,4 -4,4"/>
<!-- Node1 -->
<g id="node1" class="node">
<title>Node1</title>
<g id="a_node1"><a xlink:title="Estimate of memory footprint of the given value, including memory allocated on its behalf – but exclu...">
<polygon fill="#bfbfbf" stroke="black" points="537,-5 537,-22 636,-22 636,-5 537,-5"/>
<text text-anchor="middle" x="586.5" y="-11.6" font-family="Helvetica,sans-Serif" font-size="8.00">flow::util::deep_size</text>
</a>
</g>
</g>
<!-- Node2 -->
<g id="node2" class="node">
<title>Node2</title>
<g id="a_node2"><a xlink:href="namespaceflow_1_1log.html#a267187e63c6355704f547d794c776747" target="_top" xlink:title="Estimate of memory footprint of the given value, including memory allocated on its behalf – but exclu...">
<polygon fill="white" stroke="black" points="402,-5 402,-22 501,-22 501,-5 402,-5"/>
<text text-anchor="middle" x="451.5" y="-11.6" font-family="Helvetica,sans-Serif" font-size="8.00">flow::log::deep_size</text>
</a>
</g>
</g>
<!-- Node1&#45;&gt;Node2 -->
<g id="edge1" class="edge">
<title>Node1&#45;&gt;Node2</title>
<path fill="none" stroke="midnightblue" d="M526.55,-13.5C518.1,-13.5 509.49,-13.5 501.26,-13.5"/>
<polygon fill="midnightblue" stroke="midnightblue" points="526.73,-17 536.73,-13.5 526.73,-10 526.73,-17"/>
</g>
<!-- Node2&#45;&gt;Node2 -->
<g id="edge6" class="edge">
<title>Node2&#45;&gt;Node2</title>
<path fill="none" stroke="midnightblue" d="M476.62,-30.6C476.4,-36.12 468.03,-40.5 451.5,-40.5 426.9,-40.5 420.36,-30.79 431.9,-22.07"/>
<polygon fill="midnightblue" stroke="midnightblue" points="479.48,-28.57 471.1,-22.07 473.6,-32.37 479.48,-28.57"/>
</g>
<!-- Node3 -->
<g id="node3" class="node">
<title>Node3</title>
<g id="a_node3"><a xlink:href="classflow_1_1log_1_1Async__file__logger.html#a9eff13fef045d9dd58a34d207ff6521e" target="_top" xlink:title="Estimate of memory footprint of the given value, including memory allocated on its behalf – but exclu...">
<polygon fill="white" stroke="black" points="268,-0.5 268,-26.5 366,-26.5 366,-0.5 268,-0.5"/>
<text text-anchor="start" x="276" y="-16.1" font-family="Helvetica,sans-Serif" font-size="8.00">flow::log::Async_file</text>
<text text-anchor="middle" x="317" y="-7.1" font-family="Helvetica,sans-Serif" font-size="8.00">_logger::deep_size</text>
</a>
</g>
</g>
<!-- Node2&#45;&gt;Node3 -->
<g id="edge2" class="edge">
<title>Node2&#45;&gt;Node3</title>
<path fill="none" stroke="midnightblue" d="M391.64,-13.5C383.11,-13.5 374.42,-13.5 366.14,-13.5"/>
<polygon fill="midnightblue" stroke="midnightblue" points="391.91,-17 401.91,-13.5 391.91,-10 391.91,-17"/>
</g>
<!-- Node3&#45;&gt;Node3 -->
<g id="edge3" class="edge">
<title>Node3&#45;&gt;Node3</title>
<path fill="none" stroke="midnightblue" d="M341.12,-36.94C338.44,-41.64 330.4,-45 317,-45 295.02,-45 287.46,-35.96 294.33,-26.77"/>
<polygon fill="midnightblue" stroke="midnightblue" points="344.55,-36.18 339.67,-26.77 337.61,-37.16 344.55,-36.18"/>
</g>
<!-- Node4 -->
<g id="node4" class="node">
<title>Node4</title>
<g id="a_node4"><a xlink:href="classflow_1_1log_1_1Async__file__logger.html#a6d74d81cb726a30f33f4fc106e3be5b6" target="_top" xlink:title="How much do_log() issuing the supplied Log_request shall contribute to m_pending_logs_sz.">
<polygon fill="white" stroke="black" points="134,-0.5 134,-26.5 232,-26.5 232,-0.5 134,-0.5"/>
<text text-anchor="start" x="142" y="-16.1" font-family="Helvetica,sans-Serif" font-size="8.00">flow::log::Async_file</text>
<text text-anchor="middle" x="183" y="-7.1" font-family="Helvetica,sans-Serif" font-size="8.00">_logger::mem_cost</text>
</a>
</g>
</g>
<!-- Node3&#45;&gt;Node4 -->
<g id="edge4" class="edge">
<title>Node3&#45;&gt;Node4</title>
<path fill="none" stroke="midnightblue" d="M257.71,-13.5C249.19,-13.5 240.5,-13.5 232.21,-13.5"/>
<polygon fill="midnightblue" stroke="midnightblue" points="257.97,-17 267.97,-13.5 257.97,-10 257.97,-17"/>
</g>
<!-- Node5 -->
<g id="node5" class="node">
<title>Node5</title>
<g id="a_node5"><a xlink:href="classflow_1_1log_1_1Async__file__logger.html#aa557c0f55c1044161acc8fb54c115a3e" target="_top" xlink:title="Implements interface method by asynchronously logging the message and some subset of the metadata in ...">
<polygon fill="white" stroke="black" points="0,-0.5 0,-26.5 98,-26.5 98,-0.5 0,-0.5"/>
<text text-anchor="start" x="8" y="-16.1" font-family="Helvetica,sans-Serif" font-size="8.00">flow::log::Async_file</text>
<text text-anchor="middle" x="49" y="-7.1" font-family="Helvetica,sans-Serif" font-size="8.00">_logger::do_log</text>
</a>
</g>
</g>
<!-- Node4&#45;&gt;Node5 -->
<g id="edge5" class="edge">
<title>Node4&#45;&gt;Node5</title>
<path fill="none" stroke="midnightblue" d="M123.71,-13.5C115.19,-13.5 106.5,-13.5 98.21,-13.5"/>
<polygon fill="midnightblue" stroke="midnightblue" points="123.97,-17 133.97,-13.5 123.97,-10 123.97,-17"/>
</g>
</g>
</svg>
