<?xml version="1.0" encoding="UTF-8" standalone="no"?>
<!DOCTYPE svg PUBLIC "-//W3C//DTD SVG 1.1//EN"
 "http://www.w3.org/Graphics/SVG/1.1/DTD/svg11.dtd">
<!-- Generated by graphviz version 2.43.0 (0)
 -->
<!-- Title: flow::async::op_to_exec_ctx&lt; Task_engine_ptr &gt; Pages: 1 -->
<svg width="316pt" height="90pt"
 viewBox="0.00 0.00 316.00 89.50" xmlns="http://www.w3.org/2000/svg" xmlns:xlink="http://www.w3.org/1999/xlink">
<g id="graph0" class="graph" transform="scale(1 1) rotate(0) translate(4 85.5)">
<title>flow::async::op_to_exec_ctx&lt; Task_engine_ptr &gt;</title>
<polygon fill="white" stroke="transparent" points="-4,4 -4,-85.5 312,-85.5 312,4 -4,4"/>
<!-- Node1 -->
<g id="node1" class="node">
<title>Node1</title>
<g id="a_node1"><a xlink:title="Template specialization for operation that obtains the underlying execution context,...">
<polygon fill="#bfbfbf" stroke="black" points="170,-30 170,-56 308,-56 308,-30 170,-30"/>
<text text-anchor="start" x="178" y="-45.6" font-family="Helvetica,sans-Serif" font-size="8.00">flow::async::op_to</text>
<text text-anchor="middle" x="239" y="-36.6" font-family="Helvetica,sans-Serif" font-size="8.00">_exec_ctx&lt; Task_engine_ptr &gt;</text>
</a>
</g>
</g>
<!-- Node2 -->
<g id="node2" class="node">
<title>Node2</title>
<g id="a_node2"><a xlink:href="classflow_1_1async_1_1Segregated__thread__task__loop.html#a1b0703dffa2ea0a1105581e50cc17b9e" target="_top" xlink:title="Implements superclass API.">
<polygon fill="white" stroke="black" points="8.5,-55 8.5,-81 125.5,-81 125.5,-55 8.5,-55"/>
<text text-anchor="start" x="16.5" y="-70.6" font-family="Helvetica,sans-Serif" font-size="8.00">flow::async::Segregated</text>
<text text-anchor="middle" x="67" y="-61.6" font-family="Helvetica,sans-Serif" font-size="8.00">_thread_task_loop::post</text>
</a>
</g>
</g>
<!-- Node1&#45;&gt;Node2 -->
<g id="edge1" class="edge">
<title>Node1&#45;&gt;Node2</title>
<path fill="none" stroke="midnightblue" d="M159.77,-54.51C148.23,-56.2 136.54,-57.92 125.53,-59.54"/>
<polygon fill="midnightblue" stroke="midnightblue" points="160.45,-57.94 169.83,-53.02 159.43,-51.02 160.45,-57.94"/>
</g>
<!-- Node3 -->
<g id="node3" class="node">
<title>Node3</title>
<g id="a_node3"><a xlink:href="classflow_1_1async_1_1Segregated__thread__task__loop.html#a31bc0b91253d44f4ab6ee350b916d6f7" target="_top" xlink:title="Implements superclass API.">
<polygon fill="white" stroke="black" points="0,-0.5 0,-35.5 134,-35.5 134,-0.5 0,-0.5"/>
<text text-anchor="start" x="8" y="-25.1" font-family="Helvetica,sans-Serif" font-size="8.00">flow::async::Segregated</text>
<text text-anchor="start" x="8" y="-16.1" font-family="Helvetica,sans-Serif" font-size="8.00">_thread_task_loop::schedule</text>
<text text-anchor="middle" x="67" y="-7.1" font-family="Helvetica,sans-Serif" font-size="8.00">_from_now</text>
</a>
</g>
</g>
<!-- Node1&#45;&gt;Node3 -->
<g id="edge2" class="edge">
<title>Node1&#45;&gt;Node3</title>
<path fill="none" stroke="midnightblue" d="M159.85,-31.51C151.29,-30.25 142.64,-28.98 134.25,-27.74"/>
<polygon fill="midnightblue" stroke="midnightblue" points="159.43,-34.98 169.83,-32.98 160.45,-28.06 159.43,-34.98"/>
</g>
</g>
</svg>
