<?xml version="1.0" encoding="UTF-8" standalone="no"?>
<!DOCTYPE svg PUBLIC "-//W3C//DTD SVG 1.1//EN"
 "http://www.w3.org/Graphics/SVG/1.1/DTD/svg11.dtd">
<!-- Generated by graphviz version 2.43.0 (0)
 -->
<!-- Title: flow::util::swap Pages: 1 -->
<svg width="354pt" height="35pt"
 viewBox="0.00 0.00 354.00 35.00" xmlns="http://www.w3.org/2000/svg" xmlns:xlink="http://www.w3.org/1999/xlink">
<g id="graph0" class="graph" transform="scale(1 1) rotate(0) translate(4 31)">
<title>flow::util::swap</title>
<polygon fill="white" stroke="transparent" points="-4,4 -4,-31 350,-31 350,4 -4,4"/>
<!-- Node1 -->
<g id="node1" class="node">
<title>Node1</title>
<g id="a_node1"><a xlink:title="On top of the similar Basic_blob related function, logs using the stored log context of blob1.">
<polygon fill="#bfbfbf" stroke="black" points="266,-5 266,-22 346,-22 346,-5 266,-5"/>
<text text-anchor="middle" x="306" y="-11.6" font-family="Helvetica,sans-Serif" font-size="8.00">flow::util::swap</text>
</a>
</g>
</g>
<!-- Node2 -->
<g id="node2" class="node">
<title>Node2</title>
<g id="a_node2"><a xlink:href="classflow_1_1util_1_1Blob__with__log__context.html#a711ce35988b4aad671faaf10fbd6eb0d" target="_top" xlink:title="On top of the similar Basic_blob method, logs using the stored log context.">
<polygon fill="white" stroke="black" points="133,-0.5 133,-26.5 230,-26.5 230,-0.5 133,-0.5"/>
<text text-anchor="start" x="141" y="-16.1" font-family="Helvetica,sans-Serif" font-size="8.00">flow::util::Blob_with</text>
<text text-anchor="middle" x="181.5" y="-7.1" font-family="Helvetica,sans-Serif" font-size="8.00">_log_context::swap</text>
</a>
</g>
</g>
<!-- Node1&#45;&gt;Node2 -->
<g id="edge1" class="edge">
<title>Node1&#45;&gt;Node2</title>
<path fill="none" stroke="midnightblue" d="M255.82,-13.5C247.38,-13.5 238.63,-13.5 230.24,-13.5"/>
<polygon fill="midnightblue" stroke="midnightblue" points="255.9,-17 265.9,-13.5 255.9,-10 255.9,-17"/>
</g>
<!-- Node3 -->
<g id="node3" class="node">
<title>Node3</title>
<g id="a_node3"><a xlink:href="classflow_1_1util_1_1Blob__with__log__context.html#ae3835e26994f760a6324280d3a646b91" target="_top" xlink:title="On top of the similar Basic_blob related function, logs using the stored log context of blob1.">
<polygon fill="white" stroke="black" points="0,-0.5 0,-26.5 97,-26.5 97,-0.5 0,-0.5"/>
<text text-anchor="start" x="8" y="-16.1" font-family="Helvetica,sans-Serif" font-size="8.00">flow::util::Blob_with</text>
<text text-anchor="middle" x="48.5" y="-7.1" font-family="Helvetica,sans-Serif" font-size="8.00">_log_context::swap</text>
</a>
</g>
</g>
<!-- Node2&#45;&gt;Node3 -->
<g id="edge2" class="edge">
<title>Node2&#45;&gt;Node3</title>
<path fill="none" stroke="midnightblue" d="M122.65,-13.5C114.2,-13.5 105.57,-13.5 97.35,-13.5"/>
<polygon fill="midnightblue" stroke="midnightblue" points="122.84,-17 132.84,-13.5 122.84,-10 122.84,-17"/>
</g>
</g>
</svg>
