<?xml version="1.0" encoding="UTF-8" standalone="no"?>
<!DOCTYPE svg PUBLIC "-//W3C//DTD SVG 1.1//EN"
 "http://www.w3.org/Graphics/SVG/1.1/DTD/svg11.dtd">
<!-- Generated by graphviz version 2.43.0 (0)
 -->
<!-- Title: flow::async::cpu_idx Pages: 1 -->
<svg width="809pt" height="540pt"
 viewBox="0.00 0.00 809.00 539.50" xmlns="http://www.w3.org/2000/svg" xmlns:xlink="http://www.w3.org/1999/xlink">
<g id="graph0" class="graph" transform="scale(1 1) rotate(0) translate(4 535.5)">
<title>flow::async::cpu_idx</title>
<polygon fill="white" stroke="transparent" points="-4,4 -4,-535.5 805,-535.5 805,4 -4,4"/>
<!-- Node1 -->
<g id="node1" class="node">
<title>Node1</title>
<g id="a_node1"><a xlink:title="Returns the 0&#45;based processor logical (not hardware) core index of the core executing the calling thr...">
<polygon fill="#bfbfbf" stroke="black" points="701,-117.5 701,-134.5 801,-134.5 801,-117.5 701,-117.5"/>
<text text-anchor="middle" x="751" y="-124.1" font-family="Helvetica,sans-Serif" font-size="8.00">flow::async::cpu_idx</text>
</a>
</g>
</g>
<!-- Node2 -->
<g id="node2" class="node">
<title>Node2</title>
<g id="a_node2"><a xlink:href="namespaceflow_1_1async.html#a24567271e97a67d3cae6bd8bf8dc63c4" target="_top" xlink:title="An extension of boost.asio&#39;s post() and dispatch() free function templates, this free function templa...">
<polygon fill="white" stroke="black" points="543.5,-316 543.5,-342 652.5,-342 652.5,-316 543.5,-316"/>
<text text-anchor="start" x="551.5" y="-331.6" font-family="Helvetica,sans-Serif" font-size="8.00">flow::async::asio_exec</text>
<text text-anchor="middle" x="598" y="-322.6" font-family="Helvetica,sans-Serif" font-size="8.00">_ctx_post</text>
</a>
</g>
</g>
<!-- Node1&#45;&gt;Node2 -->
<g id="edge1" class="edge">
<title>Node1&#45;&gt;Node2</title>
<path fill="none" stroke="midnightblue" d="M737.3,-143.08C707.81,-182.71 635.24,-280.28 608.82,-315.8"/>
<polygon fill="midnightblue" stroke="midnightblue" points="740.35,-144.84 743.51,-134.72 734.74,-140.66 740.35,-144.84"/>
</g>
<!-- Node29 -->
<g id="node20" class="node">
<title>Node29</title>
<g id="a_node20"><a xlink:href="classflow_1_1async_1_1Cross__thread__task__loop.html#a1008ae4c48d32ebf835d7a7ba203e5a9" target="_top" xlink:title="Implements superclass API.">
<polygon fill="white" stroke="black" points="531,-108.5 531,-143.5 665,-143.5 665,-108.5 531,-108.5"/>
<text text-anchor="start" x="539" y="-133.1" font-family="Helvetica,sans-Serif" font-size="8.00">flow::async::Cross</text>
<text text-anchor="start" x="539" y="-124.1" font-family="Helvetica,sans-Serif" font-size="8.00">_thread_task_loop::schedule</text>
<text text-anchor="middle" x="598" y="-115.1" font-family="Helvetica,sans-Serif" font-size="8.00">_from_now</text>
</a>
</g>
</g>
<!-- Node1&#45;&gt;Node29 -->
<g id="edge26" class="edge">
<title>Node1&#45;&gt;Node29</title>
<path fill="none" stroke="midnightblue" d="M690.84,-126C682.39,-126 673.65,-126 665.08,-126"/>
<polygon fill="midnightblue" stroke="midnightblue" points="690.97,-129.5 700.97,-126 690.97,-122.5 690.97,-129.5"/>
</g>
<!-- Node34 -->
<g id="node25" class="node">
<title>Node34</title>
<g id="a_node25"><a xlink:href="classflow_1_1async_1_1Segregated__thread__task__loop.html#a8fbd7b964d140c770eac1f71e52bcf1c" target="_top" xlink:title="Helper performing the core util::schedule_task_from_now() call on behalf of the various schedule_from...">
<polygon fill="white" stroke="black" points="531,-27.5 531,-62.5 665,-62.5 665,-27.5 531,-27.5"/>
<text text-anchor="start" x="539" y="-52.1" font-family="Helvetica,sans-Serif" font-size="8.00">flow::async::Segregated</text>
<text text-anchor="start" x="539" y="-43.1" font-family="Helvetica,sans-Serif" font-size="8.00">_thread_task_loop::schedule</text>
<text text-anchor="middle" x="598" y="-34.1" font-family="Helvetica,sans-Serif" font-size="8.00">_from_now_impl</text>
</a>
</g>
</g>
<!-- Node1&#45;&gt;Node34 -->
<g id="edge31" class="edge">
<title>Node1&#45;&gt;Node34</title>
<path fill="none" stroke="midnightblue" d="M725.11,-112.65C699.62,-98.98 659.88,-77.66 631.83,-62.61"/>
<polygon fill="midnightblue" stroke="midnightblue" points="723.66,-115.84 734.13,-117.48 726.97,-109.67 723.66,-115.84"/>
</g>
<!-- Node3 -->
<g id="node3" class="node">
<title>Node3</title>
<g id="a_node3"><a xlink:href="classflow_1_1net__flow_1_1Node.html#a6461124e5bc3e59083e172e26029e632" target="_top" xlink:title="Implementation of non&#45;blocking sock&#45;&gt;close_abruptly() for socket sock in all cases except when sock&#45;&gt;...">
<polygon fill="white" stroke="black" points="371.5,-487 371.5,-513 472.5,-513 472.5,-487 371.5,-487"/>
<text text-anchor="start" x="379.5" y="-502.6" font-family="Helvetica,sans-Serif" font-size="8.00">flow::net_flow::Node</text>
<text text-anchor="middle" x="422" y="-493.6" font-family="Helvetica,sans-Serif" font-size="8.00">::close_abruptly</text>
</a>
</g>
</g>
<!-- Node2&#45;&gt;Node3 -->
<g id="edge2" class="edge">
<title>Node2&#45;&gt;Node3</title>
<path fill="none" stroke="midnightblue" d="M587.48,-351.58C572.55,-384.27 540.56,-444.53 495,-478 488.36,-482.87 480.63,-486.68 472.75,-489.65"/>
<polygon fill="midnightblue" stroke="midnightblue" points="590.7,-352.94 591.56,-342.38 584.31,-350.1 590.7,-352.94"/>
</g>
<!-- Node5 -->
<g id="node5" class="node">
<title>Node5</title>
<g id="a_node5"><a xlink:href="classflow_1_1net__flow_1_1Node.html#ae9a0e5492b9ea005cc12c20c8e7cec9a" target="_top" xlink:title="Same as connect() but sends, as part of the connection handshake, the user&#45;supplied metadata,...">
<polygon fill="white" stroke="black" points="362,-424 362,-450 482,-450 482,-424 362,-424"/>
<text text-anchor="start" x="370" y="-439.6" font-family="Helvetica,sans-Serif" font-size="8.00">flow::net_flow::Node</text>
<text text-anchor="middle" x="422" y="-430.6" font-family="Helvetica,sans-Serif" font-size="8.00">::connect_with_metadata</text>
</a>
</g>
</g>
<!-- Node2&#45;&gt;Node5 -->
<g id="edge5" class="edge">
<title>Node2&#45;&gt;Node5</title>
<path fill="none" stroke="midnightblue" d="M577.74,-349.46C558.47,-368.84 527.15,-397.5 495,-415 488.69,-418.44 481.76,-421.41 474.78,-423.97"/>
<polygon fill="midnightblue" stroke="midnightblue" points="580.27,-351.88 584.75,-342.28 575.26,-346.99 580.27,-351.88"/>
</g>
<!-- Node9 -->
<g id="node9" class="node">
<title>Node9</title>
<g id="a_node9"><a xlink:href="classflow_1_1net__flow_1_1Node.html#a44ee0d42d38f3b98d032dee1549f8c4c" target="_top" xlink:title="Implementation of Event_set::close() when Event_set::state() != Event_set::State::S_CLOSED for event_...">
<polygon fill="white" stroke="black" points="371.5,-379 371.5,-405 472.5,-405 472.5,-379 371.5,-379"/>
<text text-anchor="start" x="379.5" y="-394.6" font-family="Helvetica,sans-Serif" font-size="8.00">flow::net_flow::Node</text>
<text text-anchor="middle" x="422" y="-385.6" font-family="Helvetica,sans-Serif" font-size="8.00">::event_set_close</text>
</a>
</g>
</g>
<!-- Node2&#45;&gt;Node9 -->
<g id="edge10" class="edge">
<title>Node2&#45;&gt;Node9</title>
<path fill="none" stroke="midnightblue" d="M557.07,-345.97C538.37,-353.68 515.69,-362.7 495,-370 486.25,-373.09 476.81,-376.16 467.75,-378.98"/>
<polygon fill="midnightblue" stroke="midnightblue" points="558.57,-349.14 566.46,-342.07 555.89,-342.67 558.57,-349.14"/>
</g>
<!-- Node11 -->
<g id="node11" class="node">
<title>Node11</title>
<g id="a_node11"><a xlink:href="classflow_1_1net__flow_1_1Node.html#ad100464cf0126dbbad39bde1c90a774f" target="_top" xlink:title="Creates a new Event_set in Event_set::State::S_INACTIVE state with no sockets/events stored; returns ...">
<polygon fill="white" stroke="black" points="371.5,-316 371.5,-342 472.5,-342 472.5,-316 371.5,-316"/>
<text text-anchor="start" x="379.5" y="-331.6" font-family="Helvetica,sans-Serif" font-size="8.00">flow::net_flow::Node</text>
<text text-anchor="middle" x="422" y="-322.6" font-family="Helvetica,sans-Serif" font-size="8.00">::event_set_create</text>
</a>
</g>
</g>
<!-- Node2&#45;&gt;Node11 -->
<g id="edge13" class="edge">
<title>Node2&#45;&gt;Node11</title>
<path fill="none" stroke="midnightblue" d="M533.12,-329C513.15,-329 491.43,-329 472.59,-329"/>
<polygon fill="midnightblue" stroke="midnightblue" points="533.37,-332.5 543.37,-329 533.37,-325.5 533.37,-332.5"/>
</g>
<!-- Node26 -->
<g id="node17" class="node">
<title>Node26</title>
<g id="a_node17"><a xlink:href="classflow_1_1net__flow_1_1Node.html#a3c2cd6a6c328a2d5381308258d35d95d" target="_top" xlink:title="Sets up a server on the given local Flow port and returns Server_socket which can be used to accept s...">
<polygon fill="white" stroke="black" points="371.5,-253 371.5,-279 472.5,-279 472.5,-253 371.5,-253"/>
<text text-anchor="start" x="379.5" y="-268.6" font-family="Helvetica,sans-Serif" font-size="8.00">flow::net_flow::Node</text>
<text text-anchor="middle" x="422" y="-259.6" font-family="Helvetica,sans-Serif" font-size="8.00">::listen</text>
</a>
</g>
</g>
<!-- Node2&#45;&gt;Node26 -->
<g id="edge22" class="edge">
<title>Node2&#45;&gt;Node26</title>
<path fill="none" stroke="midnightblue" d="M551.49,-312.52C522.63,-302.07 485.83,-288.75 459.01,-279.04"/>
<polygon fill="midnightblue" stroke="midnightblue" points="550.35,-315.83 560.95,-315.95 552.74,-309.25 550.35,-315.83"/>
</g>
<!-- Node27 -->
<g id="node18" class="node">
<title>Node27</title>
<g id="a_node18"><a xlink:href="classflow_1_1net__flow_1_1Node.html#a07ad769737db60dd637365010b80f4f3" target="_top" xlink:title="Implementation of sock&#45;&gt;info() for socket sock in all cases except when sock&#45;&gt;state() == Peer_socket:...">
<polygon fill="white" stroke="black" points="371.5,-208 371.5,-234 472.5,-234 472.5,-208 371.5,-208"/>
<text text-anchor="start" x="379.5" y="-223.6" font-family="Helvetica,sans-Serif" font-size="8.00">flow::net_flow::Node</text>
<text text-anchor="middle" x="422" y="-214.6" font-family="Helvetica,sans-Serif" font-size="8.00">::sock_info</text>
</a>
</g>
</g>
<!-- Node2&#45;&gt;Node27 -->
<g id="edge24" class="edge">
<title>Node2&#45;&gt;Node27</title>
<path fill="none" stroke="midnightblue" d="M577.39,-308.63C558.03,-289.55 526.79,-261.45 495,-244 487.98,-240.15 480.22,-236.83 472.47,-234"/>
<polygon fill="midnightblue" stroke="midnightblue" points="575.15,-311.33 584.68,-315.94 580.1,-306.39 575.15,-311.33"/>
</g>
<!-- Node4 -->
<g id="node4" class="node">
<title>Node4</title>
<g id="a_node4"><a xlink:href="classflow_1_1net__flow_1_1Peer__socket.html#a9ab710704237f912eb219f9b8d574afc" target="_top" xlink:title="Acts as if fatal error error::Code::S_USER_CLOSED_ABRUPTLY has been discovered on the connection.">
<polygon fill="white" stroke="black" points="183.5,-487 183.5,-513 296.5,-513 296.5,-487 183.5,-487"/>
<text text-anchor="start" x="191.5" y="-502.6" font-family="Helvetica,sans-Serif" font-size="8.00">flow::net_flow::Peer</text>
<text text-anchor="middle" x="240" y="-493.6" font-family="Helvetica,sans-Serif" font-size="8.00">_socket::close_abruptly</text>
</a>
</g>
</g>
<!-- Node3&#45;&gt;Node4 -->
<g id="edge3" class="edge">
<title>Node3&#45;&gt;Node4</title>
<path fill="none" stroke="midnightblue" d="M361.3,-500C340.41,-500 317.06,-500 296.52,-500"/>
<polygon fill="midnightblue" stroke="midnightblue" points="361.34,-503.5 371.34,-500 361.34,-496.5 361.34,-503.5"/>
</g>
<!-- Node4&#45;&gt;Node4 -->
<g id="edge4" class="edge">
<title>Node4&#45;&gt;Node4</title>
<path fill="none" stroke="midnightblue" d="M271.57,-523.08C268.37,-527.97 257.84,-531.5 240,-531.5 211.45,-531.5 201.64,-522.46 210.56,-513.27"/>
<polygon fill="midnightblue" stroke="midnightblue" points="274.98,-522.3 269.44,-513.27 268.14,-523.79 274.98,-522.3"/>
</g>
<!-- Node5&#45;&gt;Node5 -->
<g id="edge9" class="edge">
<title>Node5&#45;&gt;Node5</title>
<path fill="none" stroke="midnightblue" d="M453.93,-460.08C450.69,-464.97 440.05,-468.5 422,-468.5 393.12,-468.5 383.2,-459.46 392.22,-450.27"/>
<polygon fill="midnightblue" stroke="midnightblue" points="457.34,-459.29 451.78,-450.27 450.51,-460.79 457.34,-459.29"/>
</g>
<!-- Node6 -->
<g id="node6" class="node">
<title>Node6</title>
<g id="a_node6"><a xlink:href="classflow_1_1net__flow_1_1asio_1_1Node.html#aecac8b38cd35267b1af57e2443a55ea0" target="_top" xlink:title="Implementation core of async_connect*() that gets rid of templated or missing arguments thereof.">
<polygon fill="white" stroke="black" points="174,-442 174,-468 306,-468 306,-442 174,-442"/>
<text text-anchor="start" x="182" y="-457.6" font-family="Helvetica,sans-Serif" font-size="8.00">flow::net_flow::asio</text>
<text text-anchor="middle" x="240" y="-448.6" font-family="Helvetica,sans-Serif" font-size="8.00">::Node::async_connect_impl</text>
</a>
</g>
</g>
<!-- Node5&#45;&gt;Node6 -->
<g id="edge6" class="edge">
<title>Node5&#45;&gt;Node6</title>
<path fill="none" stroke="midnightblue" d="M351.43,-443.96C336.58,-445.44 320.95,-447 306.27,-448.47"/>
<polygon fill="midnightblue" stroke="midnightblue" points="351.96,-447.42 361.56,-442.94 351.26,-440.46 351.96,-447.42"/>
</g>
<!-- Node7 -->
<g id="node7" class="node">
<title>Node7</title>
<g id="a_node7"><a xlink:href="classflow_1_1net__flow_1_1asio_1_1Node.html#a97d21b9a18651cd234589f3b0b6d2971" target="_top" xlink:title="The boost.asio asynchronous version of sync_connect(), performing any necessary wait and connection i...">
<polygon fill="white" stroke="black" points="10,-467 10,-493 121,-493 121,-467 10,-467"/>
<text text-anchor="start" x="18" y="-482.6" font-family="Helvetica,sans-Serif" font-size="8.00">flow::net_flow::asio</text>
<text text-anchor="middle" x="65.5" y="-473.6" font-family="Helvetica,sans-Serif" font-size="8.00">::Node::async_connect</text>
</a>
</g>
</g>
<!-- Node6&#45;&gt;Node7 -->
<g id="edge7" class="edge">
<title>Node6&#45;&gt;Node7</title>
<path fill="none" stroke="midnightblue" d="M163.49,-465.94C149.24,-468.01 134.58,-470.13 121.11,-472.09"/>
<polygon fill="midnightblue" stroke="midnightblue" points="164.39,-469.35 173.79,-464.45 163.39,-462.42 164.39,-469.35"/>
</g>
<!-- Node8 -->
<g id="node8" class="node">
<title>Node8</title>
<g id="a_node8"><a xlink:href="classflow_1_1net__flow_1_1asio_1_1Node.html#af8ae97d499f6de21140b89218e52fc4c" target="_top" xlink:title="A combination of async_connect() and connect_with_metadata() (asynchronously blocking connect,...">
<polygon fill="white" stroke="black" points="10,-412.5 10,-447.5 121,-447.5 121,-412.5 10,-412.5"/>
<text text-anchor="start" x="18" y="-437.1" font-family="Helvetica,sans-Serif" font-size="8.00">flow::net_flow::asio</text>
<text text-anchor="start" x="18" y="-428.1" font-family="Helvetica,sans-Serif" font-size="8.00">::Node::async_connect</text>
<text text-anchor="middle" x="65.5" y="-419.1" font-family="Helvetica,sans-Serif" font-size="8.00">_with_metadata</text>
</a>
</g>
</g>
<!-- Node6&#45;&gt;Node8 -->
<g id="edge8" class="edge">
<title>Node6&#45;&gt;Node8</title>
<path fill="none" stroke="midnightblue" d="M163.49,-444.06C149.24,-441.99 134.58,-439.87 121.11,-437.91"/>
<polygon fill="midnightblue" stroke="midnightblue" points="163.39,-447.58 173.79,-445.55 164.39,-440.65 163.39,-447.58"/>
</g>
<!-- Node10 -->
<g id="node10" class="node">
<title>Node10</title>
<g id="a_node10"><a xlink:href="classflow_1_1net__flow_1_1Event__set.html#a9ae292072a84d07c867536e3de3b878e" target="_top" xlink:title="Clears all stored resources (any desired events, result events, and any handler saved by async_wait()...">
<polygon fill="white" stroke="black" points="189,-379 189,-405 291,-405 291,-379 189,-379"/>
<text text-anchor="start" x="197" y="-394.6" font-family="Helvetica,sans-Serif" font-size="8.00">flow::net_flow::Event</text>
<text text-anchor="middle" x="240" y="-385.6" font-family="Helvetica,sans-Serif" font-size="8.00">_set::close</text>
</a>
</g>
</g>
<!-- Node9&#45;&gt;Node10 -->
<g id="edge11" class="edge">
<title>Node9&#45;&gt;Node10</title>
<path fill="none" stroke="midnightblue" d="M361.13,-392C338.43,-392 312.84,-392 291.13,-392"/>
<polygon fill="midnightblue" stroke="midnightblue" points="361.34,-395.5 371.34,-392 361.34,-388.5 361.34,-395.5"/>
</g>
<!-- Node10&#45;&gt;Node10 -->
<g id="edge12" class="edge">
<title>Node10&#45;&gt;Node10</title>
<path fill="none" stroke="midnightblue" d="M271.57,-415.08C268.37,-419.97 257.84,-423.5 240,-423.5 211.45,-423.5 201.64,-414.46 210.56,-405.27"/>
<polygon fill="midnightblue" stroke="midnightblue" points="274.98,-414.3 269.44,-405.27 268.14,-415.79 274.98,-414.3"/>
</g>
<!-- Node11&#45;&gt;Node11 -->
<g id="edge16" class="edge">
<title>Node11&#45;&gt;Node11</title>
<path fill="none" stroke="midnightblue" d="M453.93,-352.08C450.69,-356.97 440.05,-360.5 422,-360.5 393.12,-360.5 383.2,-351.46 392.22,-342.27"/>
<polygon fill="midnightblue" stroke="midnightblue" points="457.34,-351.29 451.78,-342.27 450.51,-352.79 457.34,-351.29"/>
</g>
<!-- Node12 -->
<g id="node12" class="node">
<title>Node12</title>
<g id="a_node12"><a xlink:href="classflow_1_1net__flow_1_1asio_1_1Node.html#a0cf22e56b3c091645154719eeb49ff4a" target="_top" xlink:title="Implementation of core asynchronous transfer methods, namely asio::Peer_socket::async_send(),...">
<polygon fill="white" stroke="black" points="192,-316 192,-342 288,-342 288,-316 192,-316"/>
<text text-anchor="start" x="200" y="-331.6" font-family="Helvetica,sans-Serif" font-size="8.00">flow::net_flow::asio</text>
<text text-anchor="middle" x="240" y="-322.6" font-family="Helvetica,sans-Serif" font-size="8.00">::Node::async_op</text>
</a>
</g>
</g>
<!-- Node11&#45;&gt;Node12 -->
<g id="edge14" class="edge">
<title>Node11&#45;&gt;Node12</title>
<path fill="none" stroke="midnightblue" d="M361.02,-329C337.25,-329 310.34,-329 288.02,-329"/>
<polygon fill="midnightblue" stroke="midnightblue" points="361.34,-332.5 371.34,-329 361.34,-325.5 361.34,-332.5"/>
</g>
<!-- Node13 -->
<g id="node13" class="node">
<title>Node13</title>
<g id="a_node13"><a xlink:href="classflow_1_1net__flow_1_1Node.html#a2a4dc3d8e294bbc8423e111f52e414ae" target="_top" xlink:title="Implementation of core blocking transfer methods, namely Peer_socket::sync_send(),...">
<polygon fill="white" stroke="black" points="189.5,-271 189.5,-297 290.5,-297 290.5,-271 189.5,-271"/>
<text text-anchor="start" x="197.5" y="-286.6" font-family="Helvetica,sans-Serif" font-size="8.00">flow::net_flow::Node</text>
<text text-anchor="middle" x="240" y="-277.6" font-family="Helvetica,sans-Serif" font-size="8.00">::sync_op</text>
</a>
</g>
</g>
<!-- Node11&#45;&gt;Node13 -->
<g id="edge17" class="edge">
<title>Node11&#45;&gt;Node13</title>
<path fill="none" stroke="midnightblue" d="M361.36,-314.09C338.38,-308.35 312.42,-301.85 290.5,-296.38"/>
<polygon fill="midnightblue" stroke="midnightblue" points="360.79,-317.55 371.34,-316.58 362.49,-310.76 360.79,-317.55"/>
</g>
<!-- Node12&#45;&gt;Node12 -->
<g id="edge15" class="edge">
<title>Node12&#45;&gt;Node12</title>
<path fill="none" stroke="midnightblue" d="M271.57,-352.08C268.37,-356.97 257.84,-360.5 240,-360.5 211.45,-360.5 201.64,-351.46 210.56,-342.27"/>
<polygon fill="midnightblue" stroke="midnightblue" points="274.98,-351.3 269.44,-342.27 268.14,-352.79 274.98,-351.3"/>
</g>
<!-- Node14 -->
<g id="node14" class="node">
<title>Node14</title>
<g id="a_node14"><a xlink:href="classflow_1_1net__flow_1_1Peer__socket.html#a8abde92d5189bf2a058fe8741789f814" target="_top" xlink:title="This is to sync_receive() as node_receive() is to receive().">
<polygon fill="white" stroke="red" points="0,-316 0,-342 131,-342 131,-316 0,-316"/>
<text text-anchor="start" x="8" y="-331.6" font-family="Helvetica,sans-Serif" font-size="8.00">flow::net_flow::Peer</text>
<text text-anchor="middle" x="65.5" y="-322.6" font-family="Helvetica,sans-Serif" font-size="8.00">_socket::node_sync_receive</text>
</a>
</g>
</g>
<!-- Node13&#45;&gt;Node14 -->
<g id="edge18" class="edge">
<title>Node13&#45;&gt;Node14</title>
<path fill="none" stroke="midnightblue" d="M179.27,-299.58C158.83,-304.91 136.18,-310.82 116.58,-315.94"/>
<polygon fill="midnightblue" stroke="midnightblue" points="180.31,-302.93 189.11,-297.02 178.55,-296.15 180.31,-302.93"/>
</g>
<!-- Node19 -->
<g id="node15" class="node">
<title>Node19</title>
<g id="a_node15"><a xlink:href="classflow_1_1net__flow_1_1Peer__socket.html#a34e2c7dfb5596269a6f86a716015f1a6" target="_top" xlink:title="This is to sync_send() as node_send() is to send().">
<polygon fill="white" stroke="red" points="5,-271 5,-297 126,-297 126,-271 5,-271"/>
<text text-anchor="start" x="13" y="-286.6" font-family="Helvetica,sans-Serif" font-size="8.00">flow::net_flow::Peer</text>
<text text-anchor="middle" x="65.5" y="-277.6" font-family="Helvetica,sans-Serif" font-size="8.00">_socket::node_sync_send</text>
</a>
</g>
</g>
<!-- Node13&#45;&gt;Node19 -->
<g id="edge19" class="edge">
<title>Node13&#45;&gt;Node19</title>
<path fill="none" stroke="midnightblue" d="M178.7,-284C161.63,-284 143.07,-284 126.05,-284"/>
<polygon fill="midnightblue" stroke="midnightblue" points="179.11,-287.5 189.11,-284 179.11,-280.5 179.11,-287.5"/>
</g>
<!-- Node24 -->
<g id="node16" class="node">
<title>Node24</title>
<g id="a_node16"><a xlink:href="classflow_1_1net__flow_1_1Server__socket.html#a7f374375e95e008cfe0326ecfb27cf3b" target="_top" xlink:title="Same as sync_accept() but uses a Fine_clock&#45;based Fine_duration non&#45;template type for implementation ...">
<polygon fill="white" stroke="red" points="3,-208 3,-234 128,-234 128,-208 3,-208"/>
<text text-anchor="start" x="11" y="-223.6" font-family="Helvetica,sans-Serif" font-size="8.00">flow::net_flow::Server</text>
<text text-anchor="middle" x="65.5" y="-214.6" font-family="Helvetica,sans-Serif" font-size="8.00">_socket::sync_accept_impl</text>
</a>
</g>
</g>
<!-- Node13&#45;&gt;Node24 -->
<g id="edge20" class="edge">
<title>Node13&#45;&gt;Node24</title>
<path fill="none" stroke="midnightblue" d="M193.51,-267.39C164.96,-256.96 128.67,-243.7 102.2,-234.04"/>
<polygon fill="midnightblue" stroke="midnightblue" points="192.66,-270.8 203.26,-270.95 195.07,-264.23 192.66,-270.8"/>
</g>
<!-- Node24&#45;&gt;Node24 -->
<g id="edge21" class="edge">
<title>Node24&#45;&gt;Node24</title>
<path fill="none" stroke="midnightblue" d="M97.07,-244.08C93.87,-248.97 83.34,-252.5 65.5,-252.5 36.95,-252.5 27.14,-243.46 36.06,-234.27"/>
<polygon fill="midnightblue" stroke="midnightblue" points="100.48,-243.3 94.94,-234.27 93.64,-244.79 100.48,-243.3"/>
</g>
<!-- Node26&#45;&gt;Node26 -->
<g id="edge23" class="edge">
<title>Node26&#45;&gt;Node26</title>
<path fill="none" stroke="midnightblue" d="M453.93,-289.08C450.69,-293.97 440.05,-297.5 422,-297.5 393.12,-297.5 383.2,-288.46 392.22,-279.27"/>
<polygon fill="midnightblue" stroke="midnightblue" points="457.34,-288.29 451.78,-279.27 450.51,-289.79 457.34,-288.29"/>
</g>
<!-- Node28 -->
<g id="node19" class="node">
<title>Node28</title>
<g id="a_node19"><a xlink:href="classflow_1_1net__flow_1_1Peer__socket.html#aad81cc16fc6f0d353fdc1379e1dd4712" target="_top" xlink:title="Returns a structure containing the most up&#45;to&#45;date stats about this connection.">
<polygon fill="white" stroke="black" points="191.5,-208 191.5,-234 288.5,-234 288.5,-208 191.5,-208"/>
<text text-anchor="start" x="199.5" y="-223.6" font-family="Helvetica,sans-Serif" font-size="8.00">flow::net_flow::Peer</text>
<text text-anchor="middle" x="240" y="-214.6" font-family="Helvetica,sans-Serif" font-size="8.00">_socket::info</text>
</a>
</g>
</g>
<!-- Node27&#45;&gt;Node28 -->
<g id="edge25" class="edge">
<title>Node27&#45;&gt;Node28</title>
<path fill="none" stroke="midnightblue" d="M361.1,-221C337.54,-221 310.86,-221 288.64,-221"/>
<polygon fill="midnightblue" stroke="midnightblue" points="361.34,-224.5 371.34,-221 361.34,-217.5 361.34,-224.5"/>
</g>
<!-- Node30 -->
<g id="node21" class="node">
<title>Node30</title>
<g id="a_node21"><a xlink:href="classflow_1_1async_1_1Cross__thread__task__loop.html#aa8fb0ac1ac3dc4fb86b0a7dbec0a8686" target="_top" xlink:title="Implements superclass API.">
<polygon fill="white" stroke="black" points="349,-163 349,-189 495,-189 495,-163 349,-163"/>
<text text-anchor="start" x="357" y="-178.6" font-family="Helvetica,sans-Serif" font-size="8.00">flow::async::Cross</text>
<text text-anchor="middle" x="422" y="-169.6" font-family="Helvetica,sans-Serif" font-size="8.00">_thread_task_loop::schedule_at</text>
</a>
</g>
</g>
<!-- Node29&#45;&gt;Node30 -->
<g id="edge27" class="edge">
<title>Node29&#45;&gt;Node30</title>
<path fill="none" stroke="midnightblue" d="M525.93,-146.42C506.53,-152 486.04,-157.89 468.48,-162.93"/>
<polygon fill="midnightblue" stroke="midnightblue" points="527.01,-149.75 535.65,-143.63 525.08,-143.03 527.01,-149.75"/>
</g>
<!-- Node32 -->
<g id="node23" class="node">
<title>Node32</title>
<g id="a_node23"><a xlink:href="classflow_1_1async_1_1Single__thread__task__loop.html#a2669021fe545a05ced370f09ce794f52" target="_top" xlink:title="Equivalent to post() but execution is scheduled for later, after the given time period passes.">
<polygon fill="white" stroke="black" points="355,-108.5 355,-143.5 489,-143.5 489,-108.5 355,-108.5"/>
<text text-anchor="start" x="363" y="-133.1" font-family="Helvetica,sans-Serif" font-size="8.00">flow::async::Single</text>
<text text-anchor="start" x="363" y="-124.1" font-family="Helvetica,sans-Serif" font-size="8.00">_thread_task_loop::schedule</text>
<text text-anchor="middle" x="422" y="-115.1" font-family="Helvetica,sans-Serif" font-size="8.00">_from_now</text>
</a>
</g>
</g>
<!-- Node29&#45;&gt;Node32 -->
<g id="edge29" class="edge">
<title>Node29&#45;&gt;Node32</title>
<path fill="none" stroke="midnightblue" d="M520.71,-126C510.17,-126 499.42,-126 489.09,-126"/>
<polygon fill="midnightblue" stroke="midnightblue" points="520.72,-129.5 530.72,-126 520.72,-122.5 520.72,-129.5"/>
</g>
<!-- Node33 -->
<g id="node24" class="node">
<title>Node33</title>
<g id="a_node24"><a xlink:href="classflow_1_1async_1_1Cross__thread__task__loop.html#a414e266ad227e12d47cb25f827251698" target="_top" xlink:title="Implements superclass API.">
<polygon fill="white" stroke="black" points="355,-54.5 355,-89.5 489,-89.5 489,-54.5 355,-54.5"/>
<text text-anchor="start" x="363" y="-79.1" font-family="Helvetica,sans-Serif" font-size="8.00">flow::async::Cross</text>
<text text-anchor="start" x="363" y="-70.1" font-family="Helvetica,sans-Serif" font-size="8.00">_thread_task_loop::schedule</text>
<text text-anchor="middle" x="422" y="-61.1" font-family="Helvetica,sans-Serif" font-size="8.00">_from_now</text>
</a>
</g>
</g>
<!-- Node29&#45;&gt;Node33 -->
<g id="edge30" class="edge">
<title>Node29&#45;&gt;Node33</title>
<path fill="none" stroke="midnightblue" d="M530.72,-105.43C513.84,-100.19 495.85,-94.61 479.51,-89.54"/>
<polygon fill="midnightblue" stroke="midnightblue" points="529.92,-108.85 540.51,-108.47 531.99,-102.16 529.92,-108.85"/>
</g>
<!-- Node31 -->
<g id="node22" class="node">
<title>Node31</title>
<g id="a_node22"><a xlink:href="classflow_1_1async_1_1Single__thread__task__loop.html#a0fff7cd79132c92a03e46be93f7f53b8" target="_top" xlink:title="Equivalent to schedule_from_now() except one specifies an absolute time point instead of wait duratio...">
<polygon fill="white" stroke="black" points="167,-163 167,-189 313,-189 313,-163 167,-163"/>
<text text-anchor="start" x="175" y="-178.6" font-family="Helvetica,sans-Serif" font-size="8.00">flow::async::Single</text>
<text text-anchor="middle" x="240" y="-169.6" font-family="Helvetica,sans-Serif" font-size="8.00">_thread_task_loop::schedule_at</text>
</a>
</g>
</g>
<!-- Node30&#45;&gt;Node31 -->
<g id="edge28" class="edge">
<title>Node30&#45;&gt;Node31</title>
<path fill="none" stroke="midnightblue" d="M338.56,-176C330.09,-176 321.54,-176 313.19,-176"/>
<polygon fill="midnightblue" stroke="midnightblue" points="338.82,-179.5 348.82,-176 338.82,-172.5 338.82,-179.5"/>
</g>
<!-- Node35 -->
<g id="node26" class="node">
<title>Node35</title>
<g id="a_node26"><a xlink:href="classflow_1_1async_1_1Segregated__thread__task__loop.html#a4cb5a3192dad0ef7d5a228b18d11900a" target="_top" xlink:title="Implements superclass API.">
<polygon fill="white" stroke="black" points="355,-0.5 355,-35.5 489,-35.5 489,-0.5 355,-0.5"/>
<text text-anchor="start" x="363" y="-25.1" font-family="Helvetica,sans-Serif" font-size="8.00">flow::async::Segregated</text>
<text text-anchor="start" x="363" y="-16.1" font-family="Helvetica,sans-Serif" font-size="8.00">_thread_task_loop::schedule</text>
<text text-anchor="middle" x="422" y="-7.1" font-family="Helvetica,sans-Serif" font-size="8.00">_from_now</text>
</a>
</g>
</g>
<!-- Node34&#45;&gt;Node35 -->
<g id="edge32" class="edge">
<title>Node34&#45;&gt;Node35</title>
<path fill="none" stroke="midnightblue" d="M520.71,-33.16C510.17,-31.53 499.42,-29.86 489.09,-28.26"/>
<polygon fill="midnightblue" stroke="midnightblue" points="520.3,-36.64 530.72,-34.72 521.38,-29.72 520.3,-36.64"/>
</g>
<!-- Node36 -->
<g id="node27" class="node">
<title>Node36</title>
<g id="a_node27"><a xlink:href="classflow_1_1async_1_1Segregated__thread__task__loop.html#aec44a292a4f2800f40f67bfc4bf19367" target="_top" xlink:title="Implements superclass API.">
<polygon fill="white" stroke="black" points="167,-5 167,-31 313,-31 313,-5 167,-5"/>
<text text-anchor="start" x="175" y="-20.6" font-family="Helvetica,sans-Serif" font-size="8.00">flow::async::Segregated</text>
<text text-anchor="middle" x="240" y="-11.6" font-family="Helvetica,sans-Serif" font-size="8.00">_thread_task_loop::schedule_at</text>
</a>
</g>
</g>
<!-- Node35&#45;&gt;Node36 -->
<g id="edge33" class="edge">
<title>Node35&#45;&gt;Node36</title>
<path fill="none" stroke="midnightblue" d="M344.96,-18C334.39,-18 323.56,-18 313.06,-18"/>
<polygon fill="midnightblue" stroke="midnightblue" points="345,-21.5 355,-18 345,-14.5 345,-21.5"/>
</g>
</g>
</svg>
