<?xml version="1.0" encoding="UTF-8" standalone="no"?>
<!DOCTYPE svg PUBLIC "-//W3C//DTD SVG 1.1//EN"
 "http://www.w3.org/Graphics/SVG/1.1/DTD/svg11.dtd">
<!-- Generated by graphviz version 2.43.0 (0)
 -->
<!-- Title: flow::async::reset_this_thread_pinning Pages: 1 -->
<svg width="375pt" height="53pt"
 viewBox="0.00 0.00 375.00 53.00" xmlns="http://www.w3.org/2000/svg" xmlns:xlink="http://www.w3.org/1999/xlink">
<g id="graph0" class="graph" transform="scale(1 1) rotate(0) translate(4 49)">
<title>flow::async::reset_this_thread_pinning</title>
<polygon fill="white" stroke="transparent" points="-4,4 -4,-49 371,-49 371,4 -4,4"/>
<!-- Node1 -->
<g id="node1" class="node">
<title>Node1</title>
<g id="a_node1"><a xlink:title="Resets processor&#45;affinity of the calling thread; does not log; and throws on extremely unlikely syste...">
<polygon fill="#bfbfbf" stroke="black" points="0,-0.5 0,-26.5 101,-26.5 101,-0.5 0,-0.5"/>
<text text-anchor="start" x="8" y="-16.1" font-family="Helvetica,sans-Serif" font-size="8.00">flow::async::reset</text>
<text text-anchor="middle" x="50.5" y="-7.1" font-family="Helvetica,sans-Serif" font-size="8.00">_this_thread_pinning</text>
</a>
</g>
</g>
<!-- Node2 -->
<g id="node2" class="node">
<title>Node2</title>
<g id="a_node2"><a xlink:href="namespaceflow_1_1async.html#a7fa5292ae2e7dddd11a7fe5228b1e574" target="_top" xlink:title="Resets the processor&#45;affinity of the given thread – or calling thread – to be managed as the OS deems...">
<polygon fill="white" stroke="black" points="137,-0.5 137,-26.5 227,-26.5 227,-0.5 137,-0.5"/>
<text text-anchor="start" x="145" y="-16.1" font-family="Helvetica,sans-Serif" font-size="8.00">flow::async::reset</text>
<text text-anchor="middle" x="182" y="-7.1" font-family="Helvetica,sans-Serif" font-size="8.00">_thread_pinning</text>
</a>
</g>
</g>
<!-- Node1&#45;&gt;Node2 -->
<g id="edge1" class="edge">
<title>Node1&#45;&gt;Node2</title>
<path fill="none" stroke="midnightblue" d="M101.2,-13.5C109.51,-13.5 118.18,-13.5 126.61,-13.5"/>
<polygon fill="midnightblue" stroke="midnightblue" points="126.73,-17 136.73,-13.5 126.73,-10 126.73,-17"/>
</g>
<!-- Node2&#45;&gt;Node2 -->
<g id="edge3" class="edge">
<title>Node2&#45;&gt;Node2</title>
<path fill="none" stroke="midnightblue" d="M160.01,-26.77C153.34,-35.96 160.67,-45 182,-45 195,-45 202.8,-41.64 205.4,-36.94"/>
<polygon fill="midnightblue" stroke="midnightblue" points="208.83,-36.2 203.99,-26.77 201.89,-37.16 208.83,-36.2"/>
</g>
<!-- Node3 -->
<g id="node3" class="node">
<title>Node3</title>
<g id="a_node3"><a xlink:href="namespaceflow_1_1error.html#a48afa7f8c2e100acd461365dfb00a114" target="_top" xlink:title="Equivalent of exec_and_throw_on_error() for operations with void return type.">
<polygon fill="white" stroke="black" points="263,-0.5 263,-26.5 367,-26.5 367,-0.5 263,-0.5"/>
<text text-anchor="start" x="271" y="-16.1" font-family="Helvetica,sans-Serif" font-size="8.00">flow::error::exec_void</text>
<text text-anchor="middle" x="315" y="-7.1" font-family="Helvetica,sans-Serif" font-size="8.00">_and_throw_on_error</text>
</a>
</g>
</g>
<!-- Node2&#45;&gt;Node3 -->
<g id="edge2" class="edge">
<title>Node2&#45;&gt;Node3</title>
<path fill="none" stroke="midnightblue" d="M227.35,-13.5C235.57,-13.5 244.28,-13.5 252.89,-13.5"/>
<polygon fill="midnightblue" stroke="midnightblue" points="252.92,-17 262.92,-13.5 252.92,-10 252.92,-17"/>
</g>
</g>
</svg>
