<?xml version="1.0" encoding="UTF-8" standalone="no"?>
<!DOCTYPE svg PUBLIC "-//W3C//DTD SVG 1.1//EN"
 "http://www.w3.org/Graphics/SVG/1.1/DTD/svg11.dtd">
<!-- Generated by graphviz version 2.43.0 (0)
 -->
<!-- Title: flow::cfg::value_to_ostream Pages: 1 -->
<svg width="421pt" height="194pt"
 viewBox="0.00 0.00 421.00 193.50" xmlns="http://www.w3.org/2000/svg" xmlns:xlink="http://www.w3.org/1999/xlink">
<g id="graph0" class="graph" transform="scale(1 1) rotate(0) translate(4 189.5)">
<title>flow::cfg::value_to_ostream</title>
<polygon fill="white" stroke="transparent" points="-4,4 -4,-189.5 417,-189.5 417,4 -4,4"/>
<!-- Node1 -->
<g id="node1" class="node">
<title>Node1</title>
<g id="a_node1"><a xlink:title="Serializes a value of type Value to the given ostream suitably for output in Option_set&#45;related outpu...">
<polygon fill="#bfbfbf" stroke="black" points="321,-82 321,-108 413,-108 413,-82 321,-82"/>
<text text-anchor="start" x="329" y="-97.6" font-family="Helvetica,sans-Serif" font-size="8.00">flow::cfg::value_to</text>
<text text-anchor="middle" x="367" y="-88.6" font-family="Helvetica,sans-Serif" font-size="8.00">_ostream</text>
</a>
</g>
</g>
<!-- Node2 -->
<g id="node2" class="node">
<title>Node2</title>
<g id="a_node2"><a xlink:href="classflow_1_1cfg_1_1Option__set.html#ad57de4947f2c8fd5e4663ab982e8dbce" target="_top" xlink:title="Internal&#45;through&#45;macro helper function; the user shall not call this directly but only through FLOW_C...">
<polygon fill="white" stroke="black" points="156.5,-159 156.5,-185 276.5,-185 276.5,-159 156.5,-159"/>
<text text-anchor="start" x="164.5" y="-174.6" font-family="Helvetica,sans-Serif" font-size="8.00">flow::cfg::Option_set</text>
<text text-anchor="middle" x="216.5" y="-165.6" font-family="Helvetica,sans-Serif" font-size="8.00">::declare_option_for_help</text>
</a>
</g>
</g>
<!-- Node1&#45;&gt;Node2 -->
<g id="edge1" class="edge">
<title>Node1&#45;&gt;Node2</title>
<path fill="none" stroke="midnightblue" d="M340.62,-114.42C325.15,-125.6 304.64,-139.31 285,-149 277.56,-152.67 269.39,-155.99 261.39,-158.9"/>
<polygon fill="midnightblue" stroke="midnightblue" points="343.12,-116.92 349.1,-108.17 338.97,-111.28 343.12,-116.92"/>
</g>
<!-- Node3 -->
<g id="node3" class="node">
<title>Node3</title>
<g id="a_node3"><a xlink:href="classflow_1_1cfg_1_1Option__set__base.html#a1d2f46a93337cf83f1e7b5c3f805725b" target="_top" xlink:title="Internal&#45;through&#45;macro helper function; the user shall not call this directly but only through FLOW_C...">
<polygon fill="white" stroke="black" points="163,-104.5 163,-139.5 270,-139.5 270,-104.5 163,-104.5"/>
<text text-anchor="start" x="171" y="-129.1" font-family="Helvetica,sans-Serif" font-size="8.00">flow::cfg::Option_set</text>
<text text-anchor="start" x="171" y="-120.1" font-family="Helvetica,sans-Serif" font-size="8.00">_base::declare_option</text>
<text text-anchor="middle" x="216.5" y="-111.1" font-family="Helvetica,sans-Serif" font-size="8.00">_for_output</text>
</a>
</g>
</g>
<!-- Node1&#45;&gt;Node3 -->
<g id="edge2" class="edge">
<title>Node1&#45;&gt;Node3</title>
<path fill="none" stroke="midnightblue" d="M310.69,-105.06C297.42,-107.47 283.28,-110.04 270.13,-112.43"/>
<polygon fill="midnightblue" stroke="midnightblue" points="311.43,-108.48 320.64,-103.25 310.17,-101.59 311.43,-108.48"/>
</g>
<!-- Node4 -->
<g id="node4" class="node">
<title>Node4</title>
<g id="a_node4"><a xlink:href="classflow_1_1cfg_1_1Option__set.html#aa5ecbc1b1da6efb81002f1431bdbbeaa" target="_top" xlink:title="Internal&#45;through&#45;macro helper function; the user shall not call this directly but only through FLOW_C...">
<polygon fill="white" stroke="black" points="166,-50.5 166,-85.5 267,-85.5 267,-50.5 166,-50.5"/>
<text text-anchor="start" x="174" y="-75.1" font-family="Helvetica,sans-Serif" font-size="8.00">flow::cfg::Option_set</text>
<text text-anchor="start" x="174" y="-66.1" font-family="Helvetica,sans-Serif" font-size="8.00">::declare_option_for</text>
<text text-anchor="middle" x="216.5" y="-57.1" font-family="Helvetica,sans-Serif" font-size="8.00">_parsing</text>
</a>
</g>
</g>
<!-- Node1&#45;&gt;Node4 -->
<g id="edge3" class="edge">
<title>Node1&#45;&gt;Node4</title>
<path fill="none" stroke="midnightblue" d="M310.5,-84.91C296.31,-82.33 281.13,-79.57 267.24,-77.04"/>
<polygon fill="midnightblue" stroke="midnightblue" points="310.17,-88.41 320.64,-86.75 311.43,-81.52 310.17,-88.41"/>
</g>
<!-- Node5 -->
<g id="node5" class="node">
<title>Node5</title>
<g id="a_node5"><a xlink:href="classflow_1_1cfg_1_1Option__set__base.html#a74619d5264f549f99b8187f38be3c838" target="_top" xlink:title="Returns a function that wraps a Value&#45;&gt;Boolean validator function, as passed to declare_option_for_pa...">
<polygon fill="white" stroke="black" points="148,-5 148,-31 285,-31 285,-5 148,-5"/>
<text text-anchor="start" x="156" y="-20.6" font-family="Helvetica,sans-Serif" font-size="8.00">flow::cfg::Option_set</text>
<text text-anchor="middle" x="216.5" y="-11.6" font-family="Helvetica,sans-Serif" font-size="8.00">_base::throw_on_invalid_func</text>
</a>
</g>
</g>
<!-- Node1&#45;&gt;Node5 -->
<g id="edge4" class="edge">
<title>Node1&#45;&gt;Node5</title>
<path fill="none" stroke="midnightblue" d="M340.62,-75.58C325.15,-64.4 304.64,-50.69 285,-41 277.56,-37.33 269.39,-34.01 261.39,-31.1"/>
<polygon fill="midnightblue" stroke="midnightblue" points="338.97,-78.72 349.1,-81.83 343.12,-73.08 338.97,-78.72"/>
</g>
<!-- Node6 -->
<g id="node6" class="node">
<title>Node6</title>
<g id="a_node6"><a xlink:href="classflow_1_1cfg_1_1Option__set__base.html#ab79c61f62032b238cb25e132ce1e1d43" target="_top" xlink:title="Internal&#45;through&#45;macro helper function; the user shall not call this directly but only through FLOW_C...">
<polygon fill="white" stroke="black" points="0,-0.5 0,-35.5 112,-35.5 112,-0.5 0,-0.5"/>
<text text-anchor="start" x="8" y="-25.1" font-family="Helvetica,sans-Serif" font-size="8.00">flow::cfg::Option_set</text>
<text text-anchor="start" x="8" y="-16.1" font-family="Helvetica,sans-Serif" font-size="8.00">_base::validate_parsed</text>
<text text-anchor="middle" x="56" y="-7.1" font-family="Helvetica,sans-Serif" font-size="8.00">_option</text>
</a>
</g>
</g>
<!-- Node5&#45;&gt;Node6 -->
<g id="edge5" class="edge">
<title>Node5&#45;&gt;Node6</title>
<path fill="none" stroke="midnightblue" d="M137.68,-18C129.01,-18 120.32,-18 112.02,-18"/>
<polygon fill="midnightblue" stroke="midnightblue" points="137.82,-21.5 147.82,-18 137.82,-14.5 137.82,-21.5"/>
</g>
</g>
</svg>
