<?xml version="1.0" encoding="UTF-8" standalone="no"?>
<!DOCTYPE svg PUBLIC "-//W3C//DTD SVG 1.1//EN"
 "http://www.w3.org/Graphics/SVG/1.1/DTD/svg11.dtd">
<!-- Generated by graphviz version 2.43.0 (0)
 -->
<!-- Title: flow::util::get_where_am_i_str Pages: 1 -->
<svg width="371pt" height="98pt"
 viewBox="0.00 0.00 371.00 98.00" xmlns="http://www.w3.org/2000/svg" xmlns:xlink="http://www.w3.org/1999/xlink">
<g id="graph0" class="graph" transform="scale(1 1) rotate(0) translate(4 94)">
<title>flow::util::get_where_am_i_str</title>
<polygon fill="white" stroke="transparent" points="-4,4 -4,-94 367,-94 367,4 -4,4"/>
<!-- Node1 -->
<g id="node1" class="node">
<title>Node1</title>
<g id="a_node1"><a xlink:title="Helper for FLOW_UTIL_WHERE_AM_I(), etc., that, given values for source code file name,...">
<polygon fill="#bfbfbf" stroke="black" points="0,-22.5 0,-48.5 101,-48.5 101,-22.5 0,-22.5"/>
<text text-anchor="start" x="8" y="-38.1" font-family="Helvetica,sans-Serif" font-size="8.00">flow::util::get_where</text>
<text text-anchor="middle" x="50.5" y="-29.1" font-family="Helvetica,sans-Serif" font-size="8.00">_am_i_str</text>
</a>
</g>
</g>
<!-- Node2 -->
<g id="node2" class="node">
<title>Node2</title>
<g id="a_node2"><a xlink:href="namespaceflow_1_1util.html#a8afd30c50bcd670d45442df49d1da484" target="_top" xlink:title="Writes to the specified string, as if the given arguments were each passed, via &lt;&lt; in sequence,...">
<polygon fill="white" stroke="black" points="137,-22.5 137,-48.5 229,-48.5 229,-22.5 137,-22.5"/>
<text text-anchor="start" x="145" y="-38.1" font-family="Helvetica,sans-Serif" font-size="8.00">flow::util::ostream</text>
<text text-anchor="middle" x="183" y="-29.1" font-family="Helvetica,sans-Serif" font-size="8.00">_op_to_string</text>
</a>
</g>
</g>
<!-- Node1&#45;&gt;Node2 -->
<g id="edge1" class="edge">
<title>Node1&#45;&gt;Node2</title>
<path fill="none" stroke="midnightblue" d="M101.21,-35.5C109.5,-35.5 118.16,-35.5 126.58,-35.5"/>
<polygon fill="midnightblue" stroke="midnightblue" points="126.71,-39 136.71,-35.5 126.71,-32 126.71,-39"/>
</g>
<!-- Node3 -->
<g id="node3" class="node">
<title>Node3</title>
<g id="a_node3"><a xlink:href="namespaceflow_1_1util.html#af92e6183c2071f4166d4b5a91f50d70c" target="_top" xlink:title="&quot;Induction step&quot; version of variadic function template that simply outputs arguments 2+ via &lt;&lt; to the...">
<polygon fill="white" stroke="black" points="265,-45.5 265,-71.5 363,-71.5 363,-45.5 265,-45.5"/>
<text text-anchor="start" x="273" y="-61.1" font-family="Helvetica,sans-Serif" font-size="8.00">flow::util::feed_args</text>
<text text-anchor="middle" x="314" y="-52.1" font-family="Helvetica,sans-Serif" font-size="8.00">_to_ostream</text>
</a>
</g>
</g>
<!-- Node2&#45;&gt;Node3 -->
<g id="edge2" class="edge">
<title>Node2&#45;&gt;Node3</title>
<path fill="none" stroke="midnightblue" d="M229.12,-43.54C237.37,-45.02 246.09,-46.57 254.66,-48.1"/>
<polygon fill="midnightblue" stroke="midnightblue" points="254.16,-51.56 264.62,-49.87 255.38,-44.67 254.16,-51.56"/>
</g>
<!-- Node4 -->
<g id="node4" class="node">
<title>Node4</title>
<g id="a_node4"><a xlink:href="classflow_1_1util_1_1String__ostream.html#a7e64b069ae0e221952068c13fdc0f080" target="_top" xlink:title="Access to stream that will write to owned string.">
<polygon fill="white" stroke="black" points="273,-0.5 273,-26.5 355,-26.5 355,-0.5 273,-0.5"/>
<text text-anchor="start" x="281" y="-16.1" font-family="Helvetica,sans-Serif" font-size="8.00">flow::util::String</text>
<text text-anchor="middle" x="314" y="-7.1" font-family="Helvetica,sans-Serif" font-size="8.00">_ostream::os</text>
</a>
</g>
</g>
<!-- Node2&#45;&gt;Node4 -->
<g id="edge4" class="edge">
<title>Node2&#45;&gt;Node4</title>
<path fill="none" stroke="midnightblue" d="M229.12,-27.81C240.02,-25.95 251.74,-23.95 262.86,-22.05"/>
<polygon fill="midnightblue" stroke="midnightblue" points="263.59,-25.48 272.86,-20.35 262.41,-18.58 263.59,-25.48"/>
</g>
<!-- Node3&#45;&gt;Node3 -->
<g id="edge3" class="edge">
<title>Node3&#45;&gt;Node3</title>
<path fill="none" stroke="midnightblue" d="M292.01,-71.77C285.34,-80.96 292.67,-90 314,-90 327,-90 334.8,-86.64 337.4,-81.94"/>
<polygon fill="midnightblue" stroke="midnightblue" points="340.83,-81.2 335.99,-71.77 333.89,-82.16 340.83,-81.2"/>
</g>
</g>
</svg>
