<?xml version="1.0" encoding="UTF-8" standalone="no"?>
<!DOCTYPE svg PUBLIC "-//W3C//DTD SVG 1.1//EN"
 "http://www.w3.org/Graphics/SVG/1.1/DTD/svg11.dtd">
<!-- Generated by graphviz version 2.43.0 (0)
 -->
<!-- Title: flow::util::ostream_op_string Pages: 1 -->
<svg width="362pt" height="35pt"
 viewBox="0.00 0.00 362.00 35.00" xmlns="http://www.w3.org/2000/svg" xmlns:xlink="http://www.w3.org/1999/xlink">
<g id="graph0" class="graph" transform="scale(1 1) rotate(0) translate(4 31)">
<title>flow::util::ostream_op_string</title>
<polygon fill="white" stroke="transparent" points="-4,4 -4,-31 358,-31 358,4 -4,4"/>
<!-- Node1 -->
<g id="node1" class="node">
<title>Node1</title>
<g id="a_node1"><a xlink:title="Equivalent to ostream_op_to_string() but returns a new string by value instead of writing to the call...">
<polygon fill="#bfbfbf" stroke="black" points="0,-0.5 0,-26.5 92,-26.5 92,-0.5 0,-0.5"/>
<text text-anchor="start" x="8" y="-16.1" font-family="Helvetica,sans-Serif" font-size="8.00">flow::util::ostream</text>
<text text-anchor="middle" x="46" y="-7.1" font-family="Helvetica,sans-Serif" font-size="8.00">_op_string</text>
</a>
</g>
</g>
<!-- Node2 -->
<g id="node2" class="node">
<title>Node2</title>
<g id="a_node2"><a xlink:href="namespaceflow_1_1util.html#aa079e37d8ddc1b8f76b792e377dd80bd" target="_top" xlink:title="Writes to the specified string, as if the given arguments were each passed, via &lt;&lt; in sequence,...">
<polygon fill="white" stroke="black" points="128,-0.5 128,-26.5 220,-26.5 220,-0.5 128,-0.5"/>
<text text-anchor="start" x="136" y="-16.1" font-family="Helvetica,sans-Serif" font-size="8.00">flow::util::ostream</text>
<text text-anchor="middle" x="174" y="-7.1" font-family="Helvetica,sans-Serif" font-size="8.00">_op_to_string</text>
</a>
</g>
</g>
<!-- Node1&#45;&gt;Node2 -->
<g id="edge1" class="edge">
<title>Node1&#45;&gt;Node2</title>
<path fill="none" stroke="midnightblue" d="M92.13,-13.5C100.37,-13.5 109.04,-13.5 117.53,-13.5"/>
<polygon fill="midnightblue" stroke="midnightblue" points="117.76,-17 127.76,-13.5 117.76,-10 117.76,-17"/>
</g>
<!-- Node3 -->
<g id="node3" class="node">
<title>Node3</title>
<g id="a_node3"><a xlink:href="namespaceflow_1_1util.html#a1bf7064869bb90466477e426b466f7d2" target="_top" xlink:title="Function template that simply outputs arguments 2+ via &lt;&lt; to the given ostream, in the order given.">
<polygon fill="white" stroke="black" points="256,-0.5 256,-26.5 354,-26.5 354,-0.5 256,-0.5"/>
<text text-anchor="start" x="264" y="-16.1" font-family="Helvetica,sans-Serif" font-size="8.00">flow::util::feed_args</text>
<text text-anchor="middle" x="305" y="-7.1" font-family="Helvetica,sans-Serif" font-size="8.00">_to_ostream</text>
</a>
</g>
</g>
<!-- Node2&#45;&gt;Node3 -->
<g id="edge2" class="edge">
<title>Node2&#45;&gt;Node3</title>
<path fill="none" stroke="midnightblue" d="M220.12,-13.5C228.28,-13.5 236.9,-13.5 245.38,-13.5"/>
<polygon fill="midnightblue" stroke="midnightblue" points="245.62,-17 255.62,-13.5 245.62,-10 245.62,-17"/>
</g>
</g>
</svg>
