<?xml version="1.0" encoding="UTF-8" standalone="no"?>
<!DOCTYPE svg PUBLIC "-//W3C//DTD SVG 1.1//EN"
 "http://www.w3.org/Graphics/SVG/1.1/DTD/svg11.dtd">
<!-- Generated by graphviz version 2.43.0 (0)
 -->
<!-- Title: flow::log::deep_size Pages: 1 -->
<svg width="242pt" height="44pt"
 viewBox="0.00 0.00 242.00 44.00" xmlns="http://www.w3.org/2000/svg" xmlns:xlink="http://www.w3.org/1999/xlink">
<g id="graph0" class="graph" transform="scale(1 1) rotate(0) translate(4 40)">
<title>flow::log::deep_size</title>
<polygon fill="white" stroke="transparent" points="-4,4 -4,-40 238,-40 238,4 -4,4"/>
<!-- Node1 -->
<g id="node1" class="node">
<title>Node1</title>
<g id="a_node1"><a xlink:title="Estimate of memory footprint of the given value, including memory allocated on its behalf – but exclu...">
<polygon fill="#bfbfbf" stroke="black" points="0,-0.5 0,-17.5 99,-17.5 99,-0.5 0,-0.5"/>
<text text-anchor="middle" x="49.5" y="-7.1" font-family="Helvetica,sans-Serif" font-size="8.00">flow::log::deep_size</text>
</a>
</g>
</g>
<!-- Node1&#45;&gt;Node1 -->
<g id="edge1" class="edge">
<title>Node1&#45;&gt;Node1</title>
<path fill="none" stroke="midnightblue" d="M29.9,-17.57C18.36,-26.29 24.9,-36 49.5,-36 66.03,-36 74.4,-31.62 74.62,-26.1"/>
<polygon fill="midnightblue" stroke="midnightblue" points="77.48,-24.07 69.1,-17.57 71.6,-27.87 77.48,-24.07"/>
</g>
<!-- Node2 -->
<g id="node2" class="node">
<title>Node2</title>
<g id="a_node2"><a xlink:href="namespaceflow_1_1util.html#a418b56a178c07100eef78da5c9d6ee7a" target="_top" xlink:title="Estimate of memory footprint of the given value, including memory allocated on its behalf – but exclu...">
<polygon fill="white" stroke="black" points="135,-0.5 135,-17.5 234,-17.5 234,-0.5 135,-0.5"/>
<text text-anchor="middle" x="184.5" y="-7.1" font-family="Helvetica,sans-Serif" font-size="8.00">flow::util::deep_size</text>
</a>
</g>
</g>
<!-- Node1&#45;&gt;Node2 -->
<g id="edge2" class="edge">
<title>Node1&#45;&gt;Node2</title>
<path fill="none" stroke="midnightblue" d="M99.27,-9C107.49,-9 116.1,-9 124.55,-9"/>
<polygon fill="midnightblue" stroke="midnightblue" points="124.74,-12.5 134.74,-9 124.74,-5.5 124.74,-12.5"/>
</g>
</g>
</svg>
