<?xml version="1.0" encoding="UTF-8" standalone="no"?>
<!DOCTYPE svg PUBLIC "-//W3C//DTD SVG 1.1//EN"
 "http://www.w3.org/Graphics/SVG/1.1/DTD/svg11.dtd">
<!-- Generated by graphviz version 2.43.0 (0)
 -->
<!-- Title: flow::cfg::value_to_ostream Pages: 1 -->
<svg width="490pt" height="98pt"
 viewBox="0.00 0.00 490.00 98.00" xmlns="http://www.w3.org/2000/svg" xmlns:xlink="http://www.w3.org/1999/xlink">
<g id="graph0" class="graph" transform="scale(1 1) rotate(0) translate(4 94)">
<title>flow::cfg::value_to_ostream</title>
<polygon fill="white" stroke="transparent" points="-4,4 -4,-94 486,-94 486,4 -4,4"/>
<!-- Node1 -->
<g id="node1" class="node">
<title>Node1</title>
<g id="a_node1"><a xlink:title="Overload that serializes a value of chrono&#45;based duration including Fine_duration – which is recommen...">
<polygon fill="#bfbfbf" stroke="black" points="0,-22.5 0,-48.5 92,-48.5 92,-22.5 0,-22.5"/>
<text text-anchor="start" x="8" y="-38.1" font-family="Helvetica,sans-Serif" font-size="8.00">flow::cfg::value_to</text>
<text text-anchor="middle" x="46" y="-29.1" font-family="Helvetica,sans-Serif" font-size="8.00">_ostream</text>
</a>
</g>
</g>
<!-- Node2 -->
<g id="node2" class="node">
<title>Node2</title>
<g id="a_node2"><a xlink:href="namespaceflow_1_1util.html#a685b86585da2fa5186f51854e7ae1561" target="_top" xlink:title="Equivalent to ostream_op_to_string() but returns a new string by value instead of writing to the call...">
<polygon fill="white" stroke="black" points="128,-22.5 128,-48.5 220,-48.5 220,-22.5 128,-22.5"/>
<text text-anchor="start" x="136" y="-38.1" font-family="Helvetica,sans-Serif" font-size="8.00">flow::util::ostream</text>
<text text-anchor="middle" x="174" y="-29.1" font-family="Helvetica,sans-Serif" font-size="8.00">_op_string</text>
</a>
</g>
</g>
<!-- Node1&#45;&gt;Node2 -->
<g id="edge1" class="edge">
<title>Node1&#45;&gt;Node2</title>
<path fill="none" stroke="midnightblue" d="M92.13,-35.5C100.37,-35.5 109.04,-35.5 117.53,-35.5"/>
<polygon fill="midnightblue" stroke="midnightblue" points="117.76,-39 127.76,-35.5 117.76,-32 117.76,-39"/>
</g>
<!-- Node3 -->
<g id="node3" class="node">
<title>Node3</title>
<g id="a_node3"><a xlink:href="namespaceflow_1_1util.html#a8afd30c50bcd670d45442df49d1da484" target="_top" xlink:title="Writes to the specified string, as if the given arguments were each passed, via &lt;&lt; in sequence,...">
<polygon fill="white" stroke="black" points="256,-22.5 256,-48.5 348,-48.5 348,-22.5 256,-22.5"/>
<text text-anchor="start" x="264" y="-38.1" font-family="Helvetica,sans-Serif" font-size="8.00">flow::util::ostream</text>
<text text-anchor="middle" x="302" y="-29.1" font-family="Helvetica,sans-Serif" font-size="8.00">_op_to_string</text>
</a>
</g>
</g>
<!-- Node2&#45;&gt;Node3 -->
<g id="edge2" class="edge">
<title>Node2&#45;&gt;Node3</title>
<path fill="none" stroke="midnightblue" d="M220.13,-35.5C228.37,-35.5 237.04,-35.5 245.53,-35.5"/>
<polygon fill="midnightblue" stroke="midnightblue" points="245.76,-39 255.76,-35.5 245.76,-32 245.76,-39"/>
</g>
<!-- Node4 -->
<g id="node4" class="node">
<title>Node4</title>
<g id="a_node4"><a xlink:href="namespaceflow_1_1util.html#af92e6183c2071f4166d4b5a91f50d70c" target="_top" xlink:title="&quot;Induction step&quot; version of variadic function template that simply outputs arguments 2+ via &lt;&lt; to the...">
<polygon fill="white" stroke="black" points="384,-45.5 384,-71.5 482,-71.5 482,-45.5 384,-45.5"/>
<text text-anchor="start" x="392" y="-61.1" font-family="Helvetica,sans-Serif" font-size="8.00">flow::util::feed_args</text>
<text text-anchor="middle" x="433" y="-52.1" font-family="Helvetica,sans-Serif" font-size="8.00">_to_ostream</text>
</a>
</g>
</g>
<!-- Node3&#45;&gt;Node4 -->
<g id="edge3" class="edge">
<title>Node3&#45;&gt;Node4</title>
<path fill="none" stroke="midnightblue" d="M348.12,-43.54C356.37,-45.02 365.09,-46.57 373.66,-48.1"/>
<polygon fill="midnightblue" stroke="midnightblue" points="373.16,-51.56 383.62,-49.87 374.38,-44.67 373.16,-51.56"/>
</g>
<!-- Node5 -->
<g id="node5" class="node">
<title>Node5</title>
<g id="a_node5"><a xlink:href="classflow_1_1util_1_1String__ostream.html#a7e64b069ae0e221952068c13fdc0f080" target="_top" xlink:title="Access to stream that will write to owned string.">
<polygon fill="white" stroke="black" points="392,-0.5 392,-26.5 474,-26.5 474,-0.5 392,-0.5"/>
<text text-anchor="start" x="400" y="-16.1" font-family="Helvetica,sans-Serif" font-size="8.00">flow::util::String</text>
<text text-anchor="middle" x="433" y="-7.1" font-family="Helvetica,sans-Serif" font-size="8.00">_ostream::os</text>
</a>
</g>
</g>
<!-- Node3&#45;&gt;Node5 -->
<g id="edge5" class="edge">
<title>Node3&#45;&gt;Node5</title>
<path fill="none" stroke="midnightblue" d="M348.12,-27.81C359.02,-25.95 370.74,-23.95 381.86,-22.05"/>
<polygon fill="midnightblue" stroke="midnightblue" points="382.59,-25.48 391.86,-20.35 381.41,-18.58 382.59,-25.48"/>
</g>
<!-- Node4&#45;&gt;Node4 -->
<g id="edge4" class="edge">
<title>Node4&#45;&gt;Node4</title>
<path fill="none" stroke="midnightblue" d="M411.01,-71.77C404.34,-80.96 411.67,-90 433,-90 446,-90 453.8,-86.64 456.4,-81.94"/>
<polygon fill="midnightblue" stroke="midnightblue" points="459.83,-81.2 454.99,-71.77 452.89,-82.16 459.83,-81.2"/>
</g>
</g>
</svg>
