<?xml version="1.0" encoding="UTF-8" standalone="no"?>
<!DOCTYPE svg PUBLIC "-//W3C//DTD SVG 1.1//EN"
 "http://www.w3.org/Graphics/SVG/1.1/DTD/svg11.dtd">
<!-- Generated by graphviz version 2.43.0 (0)
 -->
<!-- Title: flow::async::asio_exec_ctx_post Pages: 1 -->
<svg width="773pt" height="363pt"
 viewBox="0.00 0.00 773.00 363.00" xmlns="http://www.w3.org/2000/svg" xmlns:xlink="http://www.w3.org/1999/xlink">
<g id="graph0" class="graph" transform="scale(1 1) rotate(0) translate(4 359)">
<title>flow::async::asio_exec_ctx_post</title>
<polygon fill="white" stroke="transparent" points="-4,4 -4,-359 769,-359 769,4 -4,4"/>
<!-- Node1 -->
<g id="node1" class="node">
<title>Node1</title>
<g id="a_node1"><a xlink:title="An extension of boost.asio&#39;s post() and dispatch() free function templates, this free function templa...">
<polygon fill="#bfbfbf" stroke="black" points="656,-179.5 656,-205.5 765,-205.5 765,-179.5 656,-179.5"/>
<text text-anchor="start" x="664" y="-195.1" font-family="Helvetica,sans-Serif" font-size="8.00">flow::async::asio_exec</text>
<text text-anchor="middle" x="710.5" y="-186.1" font-family="Helvetica,sans-Serif" font-size="8.00">_ctx_post</text>
</a>
</g>
</g>
<!-- Node2 -->
<g id="node2" class="node">
<title>Node2</title>
<g id="a_node2"><a xlink:href="classflow_1_1net__flow_1_1Node.html#a6461124e5bc3e59083e172e26029e632" target="_top" xlink:title="Implementation of non&#45;blocking sock&#45;&gt;close_abruptly() for socket sock in all cases except when sock&#45;&gt;...">
<polygon fill="white" stroke="black" points="509.5,-305.5 509.5,-331.5 610.5,-331.5 610.5,-305.5 509.5,-305.5"/>
<text text-anchor="start" x="517.5" y="-321.1" font-family="Helvetica,sans-Serif" font-size="8.00">flow::net_flow::Node</text>
<text text-anchor="middle" x="560" y="-312.1" font-family="Helvetica,sans-Serif" font-size="8.00">::close_abruptly</text>
</a>
</g>
</g>
<!-- Node1&#45;&gt;Node2 -->
<g id="edge1" class="edge">
<title>Node1&#45;&gt;Node2</title>
<path fill="none" stroke="midnightblue" d="M694.43,-214.19C678.18,-236.29 650.49,-270.37 620,-292.5 613.12,-297.5 605.12,-301.82 597.28,-305.43"/>
<polygon fill="midnightblue" stroke="midnightblue" points="697.47,-215.96 700.48,-205.8 691.79,-211.87 697.47,-215.96"/>
</g>
<!-- Node4 -->
<g id="node4" class="node">
<title>Node4</title>
<g id="a_node4"><a xlink:href="classflow_1_1net__flow_1_1Node.html#a5dbd8c3b12fa035c56396a4f7263a8e6" target="_top" xlink:title="Same as connect() but sends, as part of the connection handshake, the user&#45;supplied metadata,...">
<polygon fill="white" stroke="black" points="500,-256.5 500,-282.5 620,-282.5 620,-256.5 500,-256.5"/>
<text text-anchor="start" x="508" y="-272.1" font-family="Helvetica,sans-Serif" font-size="8.00">flow::net_flow::Node</text>
<text text-anchor="middle" x="560" y="-263.1" font-family="Helvetica,sans-Serif" font-size="8.00">::connect_with_metadata</text>
</a>
</g>
</g>
<!-- Node1&#45;&gt;Node4 -->
<g id="edge4" class="edge">
<title>Node1&#45;&gt;Node4</title>
<path fill="none" stroke="midnightblue" d="M675.17,-210.3C648.04,-224.37 610.78,-243.69 586.31,-256.37"/>
<polygon fill="midnightblue" stroke="midnightblue" points="677.04,-213.27 684.31,-205.56 673.82,-207.06 677.04,-213.27"/>
</g>
<!-- Node8 -->
<g id="node8" class="node">
<title>Node8</title>
<g id="a_node8"><a xlink:href="classflow_1_1net__flow_1_1Node.html#a44ee0d42d38f3b98d032dee1549f8c4c" target="_top" xlink:title="Implementation of Event_set::close() when Event_set::state() != Event_set::State::S_CLOSED for event_...">
<polygon fill="white" stroke="black" points="509.5,-202.5 509.5,-228.5 610.5,-228.5 610.5,-202.5 509.5,-202.5"/>
<text text-anchor="start" x="517.5" y="-218.1" font-family="Helvetica,sans-Serif" font-size="8.00">flow::net_flow::Node</text>
<text text-anchor="middle" x="560" y="-209.1" font-family="Helvetica,sans-Serif" font-size="8.00">::event_set_close</text>
</a>
</g>
</g>
<!-- Node1&#45;&gt;Node8 -->
<g id="edge8" class="edge">
<title>Node1&#45;&gt;Node8</title>
<path fill="none" stroke="midnightblue" d="M645.68,-202.38C633.93,-204.2 621.83,-206.08 610.58,-207.82"/>
<polygon fill="midnightblue" stroke="midnightblue" points="646.54,-205.79 655.89,-200.8 645.47,-198.88 646.54,-205.79"/>
</g>
<!-- Node10 -->
<g id="node10" class="node">
<title>Node10</title>
<g id="a_node10"><a xlink:href="classflow_1_1net__flow_1_1Node.html#a237c603bbd4845a5fc4b0370b4979b31" target="_top" xlink:title="Creates a new Event_set in Event_set::State::S_INACTIVE state with no sockets/events stored; returns ...">
<polygon fill="white" stroke="black" points="509.5,-157.5 509.5,-183.5 610.5,-183.5 610.5,-157.5 509.5,-157.5"/>
<text text-anchor="start" x="517.5" y="-173.1" font-family="Helvetica,sans-Serif" font-size="8.00">flow::net_flow::Node</text>
<text text-anchor="middle" x="560" y="-164.1" font-family="Helvetica,sans-Serif" font-size="8.00">::event_set_create</text>
</a>
</g>
</g>
<!-- Node1&#45;&gt;Node10 -->
<g id="edge11" class="edge">
<title>Node1&#45;&gt;Node10</title>
<path fill="none" stroke="midnightblue" d="M645.68,-183.05C633.93,-181.31 621.83,-179.51 610.58,-177.84"/>
<polygon fill="midnightblue" stroke="midnightblue" points="645.48,-186.55 655.89,-184.56 646.51,-179.63 645.48,-186.55"/>
</g>
<!-- Node25 -->
<g id="node21" class="node">
<title>Node25</title>
<g id="a_node21"><a xlink:href="classflow_1_1net__flow_1_1Node.html#a9fabe79fbd1888fc7aa9eb25281e7b16" target="_top" xlink:title="Sets up a server on the given local Flow port and returns Server_socket which can be used to accept s...">
<polygon fill="white" stroke="black" points="509.5,-94.5 509.5,-120.5 610.5,-120.5 610.5,-94.5 509.5,-94.5"/>
<text text-anchor="start" x="517.5" y="-110.1" font-family="Helvetica,sans-Serif" font-size="8.00">flow::net_flow::Node</text>
<text text-anchor="middle" x="560" y="-101.1" font-family="Helvetica,sans-Serif" font-size="8.00">::listen</text>
</a>
</g>
</g>
<!-- Node1&#45;&gt;Node25 -->
<g id="edge26" class="edge">
<title>Node1&#45;&gt;Node25</title>
<path fill="none" stroke="midnightblue" d="M677.6,-174.24C649.5,-158.16 609.26,-135.12 584.15,-120.75"/>
<polygon fill="midnightblue" stroke="midnightblue" points="676.2,-177.47 686.62,-179.41 679.68,-171.4 676.2,-177.47"/>
</g>
<!-- Node26 -->
<g id="node22" class="node">
<title>Node26</title>
<g id="a_node22"><a xlink:href="classflow_1_1net__flow_1_1Node.html#a07ad769737db60dd637365010b80f4f3" target="_top" xlink:title="Implementation of sock&#45;&gt;info() for socket sock in all cases except when sock&#45;&gt;state() == Peer_socket:...">
<polygon fill="white" stroke="black" points="509.5,-49.5 509.5,-75.5 610.5,-75.5 610.5,-49.5 509.5,-49.5"/>
<text text-anchor="start" x="517.5" y="-65.1" font-family="Helvetica,sans-Serif" font-size="8.00">flow::net_flow::Node</text>
<text text-anchor="middle" x="560" y="-56.1" font-family="Helvetica,sans-Serif" font-size="8.00">::sock_info</text>
</a>
</g>
</g>
<!-- Node1&#45;&gt;Node26 -->
<g id="edge28" class="edge">
<title>Node1&#45;&gt;Node26</title>
<path fill="none" stroke="midnightblue" d="M696.19,-170.81C680.58,-146.97 652.64,-108.95 620,-85.5 614.64,-81.65 608.56,-78.34 602.38,-75.53"/>
<polygon fill="midnightblue" stroke="midnightblue" points="693.4,-172.94 701.74,-179.48 699.3,-169.17 693.4,-172.94"/>
</g>
<!-- Node3 -->
<g id="node3" class="node">
<title>Node3</title>
<g id="a_node3"><a xlink:href="classflow_1_1net__flow_1_1Peer__socket.html#a1812e852957c43ccca8712d63c6e3de7" target="_top" xlink:title="Acts as if fatal error error::Code::S_USER_CLOSED_ABRUPTLY has been discovered on the connection.">
<polygon fill="white" stroke="black" points="341.5,-310.5 341.5,-336.5 454.5,-336.5 454.5,-310.5 341.5,-310.5"/>
<text text-anchor="start" x="349.5" y="-326.1" font-family="Helvetica,sans-Serif" font-size="8.00">flow::net_flow::Peer</text>
<text text-anchor="middle" x="398" y="-317.1" font-family="Helvetica,sans-Serif" font-size="8.00">_socket::close_abruptly</text>
</a>
</g>
</g>
<!-- Node2&#45;&gt;Node3 -->
<g id="edge2" class="edge">
<title>Node2&#45;&gt;Node3</title>
<path fill="none" stroke="midnightblue" d="M498.87,-320.38C484.34,-320.83 468.88,-321.32 454.57,-321.76"/>
<polygon fill="midnightblue" stroke="midnightblue" points="499.37,-323.87 509.25,-320.05 499.15,-316.87 499.37,-323.87"/>
</g>
<!-- Node3&#45;&gt;Node3 -->
<g id="edge3" class="edge">
<title>Node3&#45;&gt;Node3</title>
<path fill="none" stroke="midnightblue" d="M427.39,-346.58C424.41,-351.47 414.61,-355 398,-355 371.42,-355 362.29,-345.96 370.59,-336.77"/>
<polygon fill="midnightblue" stroke="midnightblue" points="430.82,-345.88 425.41,-336.77 423.96,-347.27 430.82,-345.88"/>
</g>
<!-- Node5 -->
<g id="node5" class="node">
<title>Node5</title>
<g id="a_node5"><a xlink:href="classflow_1_1net__flow_1_1asio_1_1Node.html#aecac8b38cd35267b1af57e2443a55ea0" target="_top" xlink:title="Implementation core of async_connect*() that gets rid of templated or missing arguments thereof.">
<polygon fill="white" stroke="black" points="332,-265.5 332,-291.5 464,-291.5 464,-265.5 332,-265.5"/>
<text text-anchor="start" x="340" y="-281.1" font-family="Helvetica,sans-Serif" font-size="8.00">flow::net_flow::asio</text>
<text text-anchor="middle" x="398" y="-272.1" font-family="Helvetica,sans-Serif" font-size="8.00">::Node::async_connect_impl</text>
</a>
</g>
</g>
<!-- Node4&#45;&gt;Node5 -->
<g id="edge5" class="edge">
<title>Node4&#45;&gt;Node5</title>
<path fill="none" stroke="midnightblue" d="M489.63,-273.4C481.14,-273.88 472.49,-274.37 464.07,-274.84"/>
<polygon fill="midnightblue" stroke="midnightblue" points="490.09,-276.88 499.88,-272.83 489.7,-269.89 490.09,-276.88"/>
</g>
<!-- Node6 -->
<g id="node6" class="node">
<title>Node6</title>
<g id="a_node6"><a xlink:href="classflow_1_1net__flow_1_1asio_1_1Node.html#a9d722f4c2d7708a78c3e48615acd245d" target="_top" xlink:title="The boost.asio asynchronous version of sync_connect(), performing any necessary wait and connection i...">
<polygon fill="white" stroke="black" points="175,-278.5 175,-304.5 286,-304.5 286,-278.5 175,-278.5"/>
<text text-anchor="start" x="183" y="-294.1" font-family="Helvetica,sans-Serif" font-size="8.00">flow::net_flow::asio</text>
<text text-anchor="middle" x="230.5" y="-285.1" font-family="Helvetica,sans-Serif" font-size="8.00">::Node::async_connect</text>
</a>
</g>
</g>
<!-- Node5&#45;&gt;Node6 -->
<g id="edge6" class="edge">
<title>Node5&#45;&gt;Node6</title>
<path fill="none" stroke="midnightblue" d="M321.59,-284.42C309.61,-285.36 297.42,-286.32 286.04,-287.22"/>
<polygon fill="midnightblue" stroke="midnightblue" points="321.89,-287.91 331.59,-283.64 321.35,-280.93 321.89,-287.91"/>
</g>
<!-- Node7 -->
<g id="node7" class="node">
<title>Node7</title>
<g id="a_node7"><a xlink:href="classflow_1_1net__flow_1_1asio_1_1Node.html#a413bf3647485000a013b416a5b729ffb" target="_top" xlink:title="A combination of async_connect() and connect_with_metadata() (asynchronously blocking connect,...">
<polygon fill="white" stroke="black" points="175,-224 175,-259 286,-259 286,-224 175,-224"/>
<text text-anchor="start" x="183" y="-248.6" font-family="Helvetica,sans-Serif" font-size="8.00">flow::net_flow::asio</text>
<text text-anchor="start" x="183" y="-239.6" font-family="Helvetica,sans-Serif" font-size="8.00">::Node::async_connect</text>
<text text-anchor="middle" x="230.5" y="-230.6" font-family="Helvetica,sans-Serif" font-size="8.00">_with_metadata</text>
</a>
</g>
</g>
<!-- Node5&#45;&gt;Node7 -->
<g id="edge7" class="edge">
<title>Node5&#45;&gt;Node7</title>
<path fill="none" stroke="midnightblue" d="M328.52,-263.19C314.44,-260.04 299.79,-256.77 286.27,-253.75"/>
<polygon fill="midnightblue" stroke="midnightblue" points="328.13,-266.69 338.65,-265.46 329.66,-259.86 328.13,-266.69"/>
</g>
<!-- Node9 -->
<g id="node9" class="node">
<title>Node9</title>
<g id="a_node9"><a xlink:href="classflow_1_1net__flow_1_1Event__set.html#ac00ce0bdf34af4a6d3ed2d54dd641912" target="_top" xlink:title="Clears all stored resources (any desired events, result events, and any handler saved by async_wait()...">
<polygon fill="white" stroke="black" points="347,-202.5 347,-228.5 449,-228.5 449,-202.5 347,-202.5"/>
<text text-anchor="start" x="355" y="-218.1" font-family="Helvetica,sans-Serif" font-size="8.00">flow::net_flow::Event</text>
<text text-anchor="middle" x="398" y="-209.1" font-family="Helvetica,sans-Serif" font-size="8.00">_set::close</text>
</a>
</g>
</g>
<!-- Node8&#45;&gt;Node9 -->
<g id="edge9" class="edge">
<title>Node8&#45;&gt;Node9</title>
<path fill="none" stroke="midnightblue" d="M499.2,-215.5C482.76,-215.5 465.11,-215.5 449.27,-215.5"/>
<polygon fill="midnightblue" stroke="midnightblue" points="499.25,-219 509.25,-215.5 499.25,-212 499.25,-219"/>
</g>
<!-- Node9&#45;&gt;Node9 -->
<g id="edge10" class="edge">
<title>Node9&#45;&gt;Node9</title>
<path fill="none" stroke="midnightblue" d="M427.39,-238.58C424.41,-243.47 414.61,-247 398,-247 371.42,-247 362.29,-237.96 370.59,-228.77"/>
<polygon fill="midnightblue" stroke="midnightblue" points="430.82,-237.88 425.41,-228.77 423.96,-239.27 430.82,-237.88"/>
</g>
<!-- Node11 -->
<g id="node11" class="node">
<title>Node11</title>
<g id="a_node11"><a xlink:href="classflow_1_1net__flow_1_1asio_1_1Node.html#a0cf22e56b3c091645154719eeb49ff4a" target="_top" xlink:title="Implementation of core asynchronous transfer methods, namely asio::Peer_socket::async_send(),...">
<polygon fill="white" stroke="black" points="350,-139.5 350,-165.5 446,-165.5 446,-139.5 350,-139.5"/>
<text text-anchor="start" x="358" y="-155.1" font-family="Helvetica,sans-Serif" font-size="8.00">flow::net_flow::asio</text>
<text text-anchor="middle" x="398" y="-146.1" font-family="Helvetica,sans-Serif" font-size="8.00">::Node::async_op</text>
</a>
</g>
</g>
<!-- Node10&#45;&gt;Node11 -->
<g id="edge12" class="edge">
<title>Node10&#45;&gt;Node11</title>
<path fill="none" stroke="midnightblue" d="M499.15,-163.77C481.68,-161.8 462.83,-159.68 446.26,-157.82"/>
<polygon fill="midnightblue" stroke="midnightblue" points="498.92,-167.26 509.25,-164.9 499.71,-160.31 498.92,-167.26"/>
</g>
<!-- Node12 -->
<g id="node12" class="node">
<title>Node12</title>
<g id="a_node12"><a xlink:href="classflow_1_1net__flow_1_1Node.html#a2a4dc3d8e294bbc8423e111f52e414ae" target="_top" xlink:title="Implementation of core blocking transfer methods, namely Peer_socket::sync_send(),...">
<polygon fill="white" stroke="black" points="347.5,-94.5 347.5,-120.5 448.5,-120.5 448.5,-94.5 347.5,-94.5"/>
<text text-anchor="start" x="355.5" y="-110.1" font-family="Helvetica,sans-Serif" font-size="8.00">flow::net_flow::Node</text>
<text text-anchor="middle" x="398" y="-101.1" font-family="Helvetica,sans-Serif" font-size="8.00">::sync_op</text>
</a>
</g>
</g>
<!-- Node10&#45;&gt;Node12 -->
<g id="edge14" class="edge">
<title>Node10&#45;&gt;Node12</title>
<path fill="none" stroke="midnightblue" d="M512.77,-153.8C508.43,-152.07 504.11,-150.29 500,-148.5 483.6,-141.36 480.46,-137.5 464,-130.5 455.85,-127.04 446.98,-123.65 438.48,-120.59"/>
<polygon fill="midnightblue" stroke="midnightblue" points="511.66,-157.13 522.25,-157.49 514.2,-150.6 511.66,-157.13"/>
</g>
<!-- Node11&#45;&gt;Node11 -->
<g id="edge13" class="edge">
<title>Node11&#45;&gt;Node11</title>
<path fill="none" stroke="midnightblue" d="M427.39,-175.58C424.41,-180.47 414.61,-184 398,-184 371.42,-184 362.29,-174.96 370.59,-165.77"/>
<polygon fill="midnightblue" stroke="midnightblue" points="430.82,-174.88 425.41,-165.77 423.96,-176.27 430.82,-174.88"/>
</g>
<!-- Node13 -->
<g id="node13" class="node">
<title>Node13</title>
<g id="a_node13"><a xlink:href="classflow_1_1net__flow_1_1Peer__socket.html#a8abde92d5189bf2a058fe8741789f814" target="_top" xlink:title="This is to sync_receive() as node_receive() is to receive().">
<polygon fill="white" stroke="black" points="165,-168.5 165,-194.5 296,-194.5 296,-168.5 165,-168.5"/>
<text text-anchor="start" x="173" y="-184.1" font-family="Helvetica,sans-Serif" font-size="8.00">flow::net_flow::Peer</text>
<text text-anchor="middle" x="230.5" y="-175.1" font-family="Helvetica,sans-Serif" font-size="8.00">_socket::node_sync_receive</text>
</a>
</g>
</g>
<!-- Node12&#45;&gt;Node13 -->
<g id="edge15" class="edge">
<title>Node12&#45;&gt;Node13</title>
<path fill="none" stroke="midnightblue" d="M347.85,-124.13C342.46,-126.18 337.09,-128.32 332,-130.5 305.02,-142.06 275.16,-157.58 255.05,-168.46"/>
<polygon fill="midnightblue" stroke="midnightblue" points="349.34,-127.31 357.5,-120.56 346.91,-120.74 349.34,-127.31"/>
</g>
<!-- Node18 -->
<g id="node16" class="node">
<title>Node18</title>
<g id="a_node16"><a xlink:href="classflow_1_1net__flow_1_1Peer__socket.html#a34e2c7dfb5596269a6f86a716015f1a6" target="_top" xlink:title="This is to sync_send() as node_send() is to send().">
<polygon fill="white" stroke="black" points="170,-94.5 170,-120.5 291,-120.5 291,-94.5 170,-94.5"/>
<text text-anchor="start" x="178" y="-110.1" font-family="Helvetica,sans-Serif" font-size="8.00">flow::net_flow::Peer</text>
<text text-anchor="middle" x="230.5" y="-101.1" font-family="Helvetica,sans-Serif" font-size="8.00">_socket::node_sync_send</text>
</a>
</g>
</g>
<!-- Node12&#45;&gt;Node18 -->
<g id="edge19" class="edge">
<title>Node12&#45;&gt;Node18</title>
<path fill="none" stroke="midnightblue" d="M337.15,-107.5C322.14,-107.5 306.04,-107.5 291.05,-107.5"/>
<polygon fill="midnightblue" stroke="midnightblue" points="337.34,-111 347.34,-107.5 337.34,-104 337.34,-111"/>
</g>
<!-- Node23 -->
<g id="node19" class="node">
<title>Node23</title>
<g id="a_node19"><a xlink:href="classflow_1_1net__flow_1_1Server__socket.html#a7f374375e95e008cfe0326ecfb27cf3b" target="_top" xlink:title="Same as sync_accept() but uses a Fine_clock&#45;based Fine_duration non&#45;template type for implementation ...">
<polygon fill="white" stroke="black" points="168,-14.5 168,-40.5 293,-40.5 293,-14.5 168,-14.5"/>
<text text-anchor="start" x="176" y="-30.1" font-family="Helvetica,sans-Serif" font-size="8.00">flow::net_flow::Server</text>
<text text-anchor="middle" x="230.5" y="-21.1" font-family="Helvetica,sans-Serif" font-size="8.00">_socket::sync_accept_impl</text>
</a>
</g>
</g>
<!-- Node12&#45;&gt;Node23 -->
<g id="edge23" class="edge">
<title>Node12&#45;&gt;Node23</title>
<path fill="none" stroke="midnightblue" d="M344.9,-90.89C340.49,-89.18 336.14,-87.37 332,-85.5 303,-72.38 271.52,-53.36 251.66,-40.72"/>
<polygon fill="midnightblue" stroke="midnightblue" points="343.98,-94.28 354.57,-94.49 346.42,-87.72 343.98,-94.28"/>
</g>
<!-- Node14 -->
<g id="node14" class="node">
<title>Node14</title>
<g id="a_node14"><a xlink:href="classflow_1_1net__flow_1_1Peer__socket.html#ad29f61b9885b10ddc3846cdae0560518" target="_top" xlink:title="Same as sync_receive() but uses a Fine_clock&#45;based Fine_duration non&#45;template type for implementation...">
<polygon fill="white" stroke="red" points="1,-236.5 1,-262.5 128,-262.5 128,-236.5 1,-236.5"/>
<text text-anchor="start" x="9" y="-252.1" font-family="Helvetica,sans-Serif" font-size="8.00">flow::net_flow::Peer</text>
<text text-anchor="middle" x="64.5" y="-243.1" font-family="Helvetica,sans-Serif" font-size="8.00">_socket::sync_receive_impl</text>
</a>
</g>
</g>
<!-- Node13&#45;&gt;Node14 -->
<g id="edge16" class="edge">
<title>Node13&#45;&gt;Node14</title>
<path fill="none" stroke="midnightblue" d="M192.44,-198.88C173.59,-207.52 150.23,-217.92 129,-226.5 120.63,-229.88 111.55,-233.31 102.94,-236.45"/>
<polygon fill="midnightblue" stroke="midnightblue" points="193.96,-202.03 201.58,-194.67 191.03,-195.67 193.96,-202.03"/>
</g>
<!-- Node16 -->
<g id="node15" class="node">
<title>Node16</title>
<g id="a_node15"><a xlink:href="classflow_1_1net__flow_1_1Peer__socket.html#a1a2eccfa314a397c12259f414ef6798c" target="_top" xlink:title="Helper similar to sync_receive_impl() but for the nullptr_t versions of sync_receive().">
<polygon fill="white" stroke="red" points="11.5,-164 11.5,-199 117.5,-199 117.5,-164 11.5,-164"/>
<text text-anchor="start" x="19.5" y="-188.6" font-family="Helvetica,sans-Serif" font-size="8.00">flow::net_flow::Peer</text>
<text text-anchor="start" x="19.5" y="-179.6" font-family="Helvetica,sans-Serif" font-size="8.00">_socket::sync_receive</text>
<text text-anchor="middle" x="64.5" y="-170.6" font-family="Helvetica,sans-Serif" font-size="8.00">_reactor_pattern_impl</text>
</a>
</g>
</g>
<!-- Node13&#45;&gt;Node16 -->
<g id="edge17" class="edge">
<title>Node13&#45;&gt;Node16</title>
<path fill="none" stroke="midnightblue" d="M154.36,-181.5C141.98,-181.5 129.39,-181.5 117.74,-181.5"/>
<polygon fill="midnightblue" stroke="midnightblue" points="154.68,-185 164.68,-181.5 154.68,-178 154.68,-185"/>
</g>
<!-- Node16&#45;&gt;Node16 -->
<g id="edge18" class="edge">
<title>Node16&#45;&gt;Node16</title>
<path fill="none" stroke="midnightblue" d="M93.41,-209.6C89.35,-214.27 79.71,-217.5 64.5,-217.5 39.54,-217.5 29.59,-208.81 34.66,-199.28"/>
<polygon fill="midnightblue" stroke="midnightblue" points="96.93,-209.56 94.34,-199.28 89.96,-208.93 96.93,-209.56"/>
</g>
<!-- Node19 -->
<g id="node17" class="node">
<title>Node19</title>
<g id="a_node17"><a xlink:href="classflow_1_1net__flow_1_1Peer__socket.html#a3f1a802024549a59978a53343b09a86d" target="_top" xlink:title="Same as sync_send() but uses a Fine_clock&#45;based Fine_duration non&#45;template type for implementation co...">
<polygon fill="white" stroke="red" points="6,-118.5 6,-144.5 123,-144.5 123,-118.5 6,-118.5"/>
<text text-anchor="start" x="14" y="-134.1" font-family="Helvetica,sans-Serif" font-size="8.00">flow::net_flow::Peer</text>
<text text-anchor="middle" x="64.5" y="-125.1" font-family="Helvetica,sans-Serif" font-size="8.00">_socket::sync_send_impl</text>
</a>
</g>
</g>
<!-- Node18&#45;&gt;Node19 -->
<g id="edge20" class="edge">
<title>Node18&#45;&gt;Node19</title>
<path fill="none" stroke="midnightblue" d="M159.72,-117.71C147.55,-119.49 135.01,-121.33 123.21,-123.05"/>
<polygon fill="midnightblue" stroke="midnightblue" points="160.44,-121.14 169.83,-116.23 159.43,-114.22 160.44,-121.14"/>
</g>
<!-- Node21 -->
<g id="node18" class="node">
<title>Node21</title>
<g id="a_node18"><a xlink:href="classflow_1_1net__flow_1_1Peer__socket.html#a15ba1d4af6d4e3fcab9534a307c00595" target="_top" xlink:title="Helper similar to sync_send_impl() but for the nullptr_t versions of sync_send().">
<polygon fill="white" stroke="red" points="0,-46 0,-81 129,-81 129,-46 0,-46"/>
<text text-anchor="start" x="8" y="-70.6" font-family="Helvetica,sans-Serif" font-size="8.00">flow::net_flow::Peer</text>
<text text-anchor="start" x="8" y="-61.6" font-family="Helvetica,sans-Serif" font-size="8.00">_socket::sync_send_reactor</text>
<text text-anchor="middle" x="64.5" y="-52.6" font-family="Helvetica,sans-Serif" font-size="8.00">_pattern_impl</text>
</a>
</g>
</g>
<!-- Node18&#45;&gt;Node21 -->
<g id="edge21" class="edge">
<title>Node18&#45;&gt;Node21</title>
<path fill="none" stroke="midnightblue" d="M171.07,-91.82C157.52,-88.19 143.04,-84.3 129.28,-80.61"/>
<polygon fill="midnightblue" stroke="midnightblue" points="170.17,-95.21 180.74,-94.42 171.99,-88.45 170.17,-95.21"/>
</g>
<!-- Node21&#45;&gt;Node21 -->
<g id="edge22" class="edge">
<title>Node21&#45;&gt;Node21</title>
<path fill="none" stroke="midnightblue" d="M93.41,-91.6C89.35,-96.27 79.71,-99.5 64.5,-99.5 39.54,-99.5 29.59,-90.81 34.66,-81.28"/>
<polygon fill="midnightblue" stroke="midnightblue" points="96.93,-91.56 94.34,-81.28 89.96,-90.93 96.93,-91.56"/>
</g>
<!-- Node23&#45;&gt;Node23 -->
<g id="edge25" class="edge">
<title>Node23&#45;&gt;Node23</title>
<path fill="none" stroke="midnightblue" d="M260.62,-50.58C257.56,-55.47 247.52,-59 230.5,-59 203.27,-59 193.9,-49.96 202.41,-40.77"/>
<polygon fill="midnightblue" stroke="midnightblue" points="264.04,-49.85 258.59,-40.77 257.19,-51.27 264.04,-49.85"/>
</g>
<!-- Node24 -->
<g id="node20" class="node">
<title>Node24</title>
<g id="a_node20"><a xlink:href="classflow_1_1net__flow_1_1Server__socket.html#a33861b2d67ce2b534683a30192d14138" target="_top" xlink:title="Equivalent to sync_accept(duration::max(), reactor_pattern, err_code); i.e., sync_accept() with no us...">
<polygon fill="white" stroke="black" points="12,-0.5 12,-26.5 117,-26.5 117,-0.5 12,-0.5"/>
<text text-anchor="start" x="20" y="-16.1" font-family="Helvetica,sans-Serif" font-size="8.00">flow::net_flow::Server</text>
<text text-anchor="middle" x="64.5" y="-7.1" font-family="Helvetica,sans-Serif" font-size="8.00">_socket::sync_accept</text>
</a>
</g>
</g>
<!-- Node23&#45;&gt;Node24 -->
<g id="edge24" class="edge">
<title>Node23&#45;&gt;Node24</title>
<path fill="none" stroke="midnightblue" d="M157.65,-21.37C144.03,-20.2 130.03,-19.01 117.19,-17.91"/>
<polygon fill="midnightblue" stroke="midnightblue" points="157.7,-24.88 167.97,-22.25 158.3,-17.91 157.7,-24.88"/>
</g>
<!-- Node25&#45;&gt;Node25 -->
<g id="edge27" class="edge">
<title>Node25&#45;&gt;Node25</title>
<path fill="none" stroke="midnightblue" d="M587,-130.94C584,-135.64 575,-139 560,-139 535.39,-139 526.93,-129.96 534.62,-120.77"/>
<polygon fill="midnightblue" stroke="midnightblue" points="590.41,-130.1 585.38,-120.77 583.49,-131.2 590.41,-130.1"/>
</g>
<!-- Node27 -->
<g id="node23" class="node">
<title>Node27</title>
<g id="a_node23"><a xlink:href="classflow_1_1net__flow_1_1Peer__socket.html#aad81cc16fc6f0d353fdc1379e1dd4712" target="_top" xlink:title="Returns a structure containing the most up&#45;to&#45;date stats about this connection.">
<polygon fill="white" stroke="black" points="349.5,-49.5 349.5,-75.5 446.5,-75.5 446.5,-49.5 349.5,-49.5"/>
<text text-anchor="start" x="357.5" y="-65.1" font-family="Helvetica,sans-Serif" font-size="8.00">flow::net_flow::Peer</text>
<text text-anchor="middle" x="398" y="-56.1" font-family="Helvetica,sans-Serif" font-size="8.00">_socket::info</text>
</a>
</g>
</g>
<!-- Node26&#45;&gt;Node27 -->
<g id="edge29" class="edge">
<title>Node26&#45;&gt;Node27</title>
<path fill="none" stroke="midnightblue" d="M499.2,-62.5C481.81,-62.5 463.05,-62.5 446.53,-62.5"/>
<polygon fill="midnightblue" stroke="midnightblue" points="499.25,-66 509.25,-62.5 499.25,-59 499.25,-66"/>
</g>
</g>
</svg>
