<?xml version="1.0" encoding="UTF-8" standalone="no"?>
<!DOCTYPE svg PUBLIC "-//W3C//DTD SVG 1.1//EN"
 "http://www.w3.org/Graphics/SVG/1.1/DTD/svg11.dtd">
<!-- Generated by graphviz version 2.43.0 (0)
 -->
<!-- Title: flow::util::scheduled_task_fires_from_now_or_canceled Pages: 1 -->
<svg width="872pt" height="98pt"
 viewBox="0.00 0.00 872.00 98.00" xmlns="http://www.w3.org/2000/svg" xmlns:xlink="http://www.w3.org/1999/xlink">
<g id="graph0" class="graph" transform="scale(1 1) rotate(0) translate(4 94)">
<title>flow::util::scheduled_task_fires_from_now_or_canceled</title>
<polygon fill="white" stroke="transparent" points="-4,4 -4,-94 868,-94 868,4 -4,4"/>
<!-- Node1 -->
<g id="node1" class="node">
<title>Node1</title>
<g id="a_node1"><a xlink:title="Returns how long remains until a previously scheduled (by schedule_task_from_now() or similar) task f...">
<polygon fill="#bfbfbf" stroke="black" points="761,-27.5 761,-62.5 864,-62.5 864,-27.5 761,-27.5"/>
<text text-anchor="start" x="769" y="-52.1" font-family="Helvetica,sans-Serif" font-size="8.00">flow::util::scheduled</text>
<text text-anchor="start" x="769" y="-43.1" font-family="Helvetica,sans-Serif" font-size="8.00">_task_fires_from_now</text>
<text text-anchor="middle" x="812.5" y="-34.1" font-family="Helvetica,sans-Serif" font-size="8.00">_or_canceled</text>
</a>
</g>
</g>
<!-- Node2 -->
<g id="node2" class="node">
<title>Node2</title>
<g id="a_node2"><a xlink:href="classflow_1_1net__flow_1_1Node.html#ac1485c07049d4bee70ad4ef2fc07bf12" target="_top" xlink:title="Assuming we&#39;ve just sent SYN or SYN_ACK, sets up an asynchronous scheduled task to fire within some a...">
<polygon fill="white" stroke="black" points="600,-32 600,-58 725,-58 725,-32 600,-32"/>
<text text-anchor="start" x="608" y="-47.6" font-family="Helvetica,sans-Serif" font-size="8.00">flow::net_flow::Node</text>
<text text-anchor="middle" x="662.5" y="-38.6" font-family="Helvetica,sans-Serif" font-size="8.00">::setup_connection_timers</text>
</a>
</g>
</g>
<!-- Node1&#45;&gt;Node2 -->
<g id="edge1" class="edge">
<title>Node1&#45;&gt;Node2</title>
<path fill="none" stroke="midnightblue" d="M750.78,-45C742.29,-45 733.56,-45 725.05,-45"/>
<polygon fill="midnightblue" stroke="midnightblue" points="750.98,-48.5 760.98,-45 750.98,-41.5 750.98,-48.5"/>
</g>
<!-- Node3 -->
<g id="node3" class="node">
<title>Node3</title>
<g id="a_node3"><a xlink:href="classflow_1_1net__flow_1_1Node.html#addd654cb6b1ccff34ddccbe5226be8f0" target="_top" xlink:title="Handles the triggering of the retransmit timer wait set up by setup_connection_timers(); it will re&#45;s...">
<polygon fill="white" stroke="black" points="435,-54.5 435,-89.5 564,-89.5 564,-54.5 435,-54.5"/>
<text text-anchor="start" x="443" y="-79.1" font-family="Helvetica,sans-Serif" font-size="8.00">flow::net_flow::Node</text>
<text text-anchor="start" x="443" y="-70.1" font-family="Helvetica,sans-Serif" font-size="8.00">::handle_connection_rexmit</text>
<text text-anchor="middle" x="499.5" y="-61.1" font-family="Helvetica,sans-Serif" font-size="8.00">_timer_event</text>
</a>
</g>
</g>
<!-- Node2&#45;&gt;Node3 -->
<g id="edge2" class="edge">
<title>Node2&#45;&gt;Node3</title>
<path fill="none" stroke="midnightblue" d="M589.8,-57.02C581.29,-58.45 572.65,-59.9 564.25,-61.31"/>
<polygon fill="midnightblue" stroke="midnightblue" points="590.43,-60.47 599.71,-55.36 589.27,-53.56 590.43,-60.47"/>
</g>
<!-- Node4 -->
<g id="node4" class="node">
<title>Node4</title>
<g id="a_node4"><a xlink:href="classflow_1_1net__flow_1_1Node.html#aaaf5c3b5e6b9f9f1658b60907b36a498" target="_top" xlink:title="Handles a just&#45;deserialized, just&#45;demultiplexed low&#45;level SYN packet delivered to the given server so...">
<polygon fill="white" stroke="black" points="439.5,-0.5 439.5,-35.5 559.5,-35.5 559.5,-0.5 439.5,-0.5"/>
<text text-anchor="start" x="447.5" y="-25.1" font-family="Helvetica,sans-Serif" font-size="8.00">flow::net_flow::Node</text>
<text text-anchor="start" x="447.5" y="-16.1" font-family="Helvetica,sans-Serif" font-size="8.00">::handle_syn_to_listening</text>
<text text-anchor="middle" x="499.5" y="-7.1" font-family="Helvetica,sans-Serif" font-size="8.00">_server</text>
</a>
</g>
</g>
<!-- Node2&#45;&gt;Node4 -->
<g id="edge3" class="edge">
<title>Node2&#45;&gt;Node4</title>
<path fill="none" stroke="midnightblue" d="M589.76,-32.97C579.73,-31.29 569.51,-29.57 559.74,-27.93"/>
<polygon fill="midnightblue" stroke="midnightblue" points="589.27,-36.44 599.71,-34.64 590.43,-29.53 589.27,-36.44"/>
</g>
<!-- Node5 -->
<g id="node5" class="node">
<title>Node5</title>
<g id="a_node5"><a xlink:href="classflow_1_1net__flow_1_1Node.html#a1699dfdaf3e5ebe1b1d715a9c306d116" target="_top" xlink:title="Handles a just&#45;received, not&#45;yet&#45;deserialized low&#45;level packet.">
<polygon fill="white" stroke="black" points="298,-5 298,-31 399,-31 399,-5 298,-5"/>
<text text-anchor="start" x="306" y="-20.6" font-family="Helvetica,sans-Serif" font-size="8.00">flow::net_flow::Node</text>
<text text-anchor="middle" x="348.5" y="-11.6" font-family="Helvetica,sans-Serif" font-size="8.00">::handle_incoming</text>
</a>
</g>
</g>
<!-- Node4&#45;&gt;Node5 -->
<g id="edge4" class="edge">
<title>Node4&#45;&gt;Node5</title>
<path fill="none" stroke="midnightblue" d="M429.1,-18C418.95,-18 408.67,-18 399.03,-18"/>
<polygon fill="midnightblue" stroke="midnightblue" points="429.18,-21.5 439.18,-18 429.18,-14.5 429.18,-21.5"/>
</g>
<!-- Node6 -->
<g id="node6" class="node">
<title>Node6</title>
<g id="a_node6"><a xlink:href="classflow_1_1net__flow_1_1Node.html#a4368247d07e930bdd07ab8d2425c6de8" target="_top" xlink:title="Sets up handle_incoming(packet_data, low_lvl_remote_endpoint) to be called asynchronously after a spe...">
<polygon fill="white" stroke="black" points="149,-23.5 149,-58.5 262,-58.5 262,-23.5 149,-23.5"/>
<text text-anchor="start" x="157" y="-48.1" font-family="Helvetica,sans-Serif" font-size="8.00">flow::net_flow::Node</text>
<text text-anchor="start" x="157" y="-39.1" font-family="Helvetica,sans-Serif" font-size="8.00">::async_wait_latency</text>
<text text-anchor="middle" x="205.5" y="-30.1" font-family="Helvetica,sans-Serif" font-size="8.00">_then_handle_incoming</text>
</a>
</g>
</g>
<!-- Node5&#45;&gt;Node6 -->
<g id="edge5" class="edge">
<title>Node5&#45;&gt;Node6</title>
<path fill="none" stroke="midnightblue" d="M287.86,-27.73C279.29,-29.13 270.49,-30.56 262.01,-31.95"/>
<polygon fill="midnightblue" stroke="midnightblue" points="288.48,-31.17 297.79,-26.11 287.36,-24.26 288.48,-31.17"/>
</g>
<!-- Node7 -->
<g id="node7" class="node">
<title>Node7</title>
<g id="a_node7"><a xlink:href="classflow_1_1net__flow_1_1Node.html#a90ecbad1ff3a8d2fe4b3ad1c474f7513" target="_top" xlink:title="Helper for low_lvl_recv_and_handle() that calls handle_incoming() on the not&#45;yet&#45;deserialized low&#45;lev...">
<polygon fill="white" stroke="red" points="0,-0.5 0,-35.5 113,-35.5 113,-0.5 0,-0.5"/>
<text text-anchor="start" x="8" y="-25.1" font-family="Helvetica,sans-Serif" font-size="8.00">flow::net_flow::Node</text>
<text text-anchor="start" x="8" y="-16.1" font-family="Helvetica,sans-Serif" font-size="8.00">::handle_incoming_with</text>
<text text-anchor="middle" x="56.5" y="-7.1" font-family="Helvetica,sans-Serif" font-size="8.00">_simulation</text>
</a>
</g>
</g>
<!-- Node5&#45;&gt;Node7 -->
<g id="edge8" class="edge">
<title>Node5&#45;&gt;Node7</title>
<path fill="none" stroke="midnightblue" d="M287.75,-14.85C279.11,-14.5 270.33,-14.19 262,-14 211.79,-12.83 199.21,-12.9 149,-14 137.4,-14.25 124.97,-14.69 113.13,-15.18"/>
<polygon fill="midnightblue" stroke="midnightblue" points="287.64,-18.35 297.78,-15.28 287.94,-11.35 287.64,-18.35"/>
</g>
<!-- Node6&#45;&gt;Node7 -->
<g id="edge6" class="edge">
<title>Node6&#45;&gt;Node7</title>
<path fill="none" stroke="midnightblue" d="M138.92,-30.74C130.32,-29.39 121.57,-28.02 113.15,-26.71"/>
<polygon fill="midnightblue" stroke="midnightblue" points="138.5,-34.22 148.93,-32.3 139.59,-27.3 138.5,-34.22"/>
</g>
<!-- Node7&#45;&gt;Node7 -->
<g id="edge7" class="edge">
<title>Node7&#45;&gt;Node7</title>
<path fill="none" stroke="midnightblue" d="M82.27,-46.1C78.65,-50.77 70.06,-54 56.5,-54 34.24,-54 25.37,-45.31 29.89,-35.78"/>
<polygon fill="midnightblue" stroke="midnightblue" points="85.79,-46.03 83.11,-35.78 78.81,-45.47 85.79,-46.03"/>
</g>
</g>
</svg>
