<?xml version="1.0" encoding="UTF-8" standalone="no"?>
<!DOCTYPE svg PUBLIC "-//W3C//DTD SVG 1.1//EN"
 "http://www.w3.org/Graphics/SVG/1.1/DTD/svg11.dtd">
<!-- Generated by graphviz version 2.43.0 (0)
 -->
<!-- Title: flow::util::swap Pages: 1 -->
<svg width="401pt" height="431pt"
 viewBox="0.00 0.00 401.00 431.00" xmlns="http://www.w3.org/2000/svg" xmlns:xlink="http://www.w3.org/1999/xlink">
<g id="graph0" class="graph" transform="scale(1 1) rotate(0) translate(4 427)">
<title>flow::util::swap</title>
<polygon fill="white" stroke="transparent" points="-4,4 -4,-427 397,-427 397,4 -4,4"/>
<!-- Node1 -->
<g id="node1" class="node">
<title>Node1</title>
<g id="a_node1"><a xlink:title="Equivalent to blob1.swap(blob2).">
<polygon fill="#bfbfbf" stroke="black" points="313,-266 313,-283 393,-283 393,-266 313,-266"/>
<text text-anchor="middle" x="353" y="-272.6" font-family="Helvetica,sans-Serif" font-size="8.00">flow::util::swap</text>
</a>
</g>
</g>
<!-- Node2 -->
<g id="node2" class="node">
<title>Node2</title>
<g id="a_node2"><a xlink:href="classflow_1_1util_1_1Linked__hash__map.html#aa05f597ec2dcb9fd1d50ff40ca482232" target="_top" xlink:title="Overwrites this object making it equal to the given source, while the given source becomes as&#45;if defa...">
<polygon fill="white" stroke="black" points="167,-396.5 167,-422.5 277,-422.5 277,-396.5 167,-396.5"/>
<text text-anchor="start" x="175" y="-412.1" font-family="Helvetica,sans-Serif" font-size="8.00">flow::util::Linked</text>
<text text-anchor="middle" x="222" y="-403.1" font-family="Helvetica,sans-Serif" font-size="8.00">_hash_map::operator=</text>
</a>
</g>
</g>
<!-- Node1&#45;&gt;Node2 -->
<g id="edge1" class="edge">
<title>Node1&#45;&gt;Node2</title>
<path fill="none" stroke="midnightblue" d="M344.32,-292.34C332.92,-316.88 309.37,-361.01 277,-387.5 272.77,-390.96 267.92,-393.94 262.9,-396.49"/>
<polygon fill="midnightblue" stroke="midnightblue" points="347.55,-293.69 348.44,-283.13 341.16,-290.83 347.55,-293.69"/>
</g>
<!-- Node3 -->
<g id="node3" class="node">
<title>Node3</title>
<g id="a_node3"><a xlink:href="classflow_1_1util_1_1Linked__hash__set.html#add06f0744ac3838635500262c96282cd" target="_top" xlink:title="Overwrites this object making it equal to the given source, while the given source becomes as&#45;if defa...">
<polygon fill="white" stroke="black" points="169.5,-351.5 169.5,-377.5 274.5,-377.5 274.5,-351.5 169.5,-351.5"/>
<text text-anchor="start" x="177.5" y="-367.1" font-family="Helvetica,sans-Serif" font-size="8.00">flow::util::Linked</text>
<text text-anchor="middle" x="222" y="-358.1" font-family="Helvetica,sans-Serif" font-size="8.00">_hash_set::operator=</text>
</a>
</g>
</g>
<!-- Node1&#45;&gt;Node3 -->
<g id="edge2" class="edge">
<title>Node1&#45;&gt;Node3</title>
<path fill="none" stroke="midnightblue" d="M337.49,-290.57C323.25,-305.57 300.35,-327.81 277,-342.5 271.77,-345.79 265.97,-348.76 260.17,-351.38"/>
<polygon fill="midnightblue" stroke="midnightblue" points="340.21,-292.78 344.45,-283.07 335.08,-288.01 340.21,-292.78"/>
</g>
<!-- Node4 -->
<g id="node4" class="node">
<title>Node4</title>
<g id="a_node4"><a xlink:href="classflow_1_1util_1_1Basic__blob.html#a835d127753a70d8c397a1a6153cab78d" target="_top" xlink:title="Swaps the contents of this structure and other, or no&#45;op if this == &amp;other.">
<polygon fill="white" stroke="black" points="171.5,-306.5 171.5,-332.5 272.5,-332.5 272.5,-306.5 171.5,-306.5"/>
<text text-anchor="start" x="179.5" y="-322.1" font-family="Helvetica,sans-Serif" font-size="8.00">flow::util::Basic_blob</text>
<text text-anchor="middle" x="222" y="-313.1" font-family="Helvetica,sans-Serif" font-size="8.00">::swap</text>
</a>
</g>
</g>
<!-- Node1&#45;&gt;Node4 -->
<g id="edge3" class="edge">
<title>Node1&#45;&gt;Node4</title>
<path fill="none" stroke="midnightblue" d="M317.6,-286.5C300.05,-292.62 278.67,-300.08 260.68,-306.36"/>
<polygon fill="midnightblue" stroke="midnightblue" points="319.14,-289.67 327.43,-283.07 316.84,-283.06 319.14,-289.67"/>
</g>
<!-- Node6 -->
<g id="node6" class="node">
<title>Node6</title>
<g id="a_node6"><a xlink:href="classflow_1_1util_1_1Blob__with__log__context.html#a711ce35988b4aad671faaf10fbd6eb0d" target="_top" xlink:title="On top of the similar Basic_blob method, logs using the stored log context.">
<polygon fill="white" stroke="black" points="173.5,-261.5 173.5,-287.5 270.5,-287.5 270.5,-261.5 173.5,-261.5"/>
<text text-anchor="start" x="181.5" y="-277.1" font-family="Helvetica,sans-Serif" font-size="8.00">flow::util::Blob_with</text>
<text text-anchor="middle" x="222" y="-268.1" font-family="Helvetica,sans-Serif" font-size="8.00">_log_context::swap</text>
</a>
</g>
</g>
<!-- Node1&#45;&gt;Node6 -->
<g id="edge5" class="edge">
<title>Node1&#45;&gt;Node6</title>
<path fill="none" stroke="midnightblue" d="M302.65,-274.5C292.13,-274.5 281.03,-274.5 270.57,-274.5"/>
<polygon fill="midnightblue" stroke="midnightblue" points="302.95,-278 312.95,-274.5 302.95,-271 302.95,-278"/>
</g>
<!-- Node8 -->
<g id="node8" class="node">
<title>Node8</title>
<g id="a_node8"><a xlink:href="classflow_1_1util_1_1Linked__hash__map.html#a8d864e5d7aaeacd550a191b90eebd46c" target="_top" xlink:title="Swaps the contents of this structure and other.">
<polygon fill="white" stroke="black" points="177,-216.5 177,-242.5 267,-242.5 267,-216.5 177,-216.5"/>
<text text-anchor="start" x="185" y="-232.1" font-family="Helvetica,sans-Serif" font-size="8.00">flow::util::Linked</text>
<text text-anchor="middle" x="222" y="-223.1" font-family="Helvetica,sans-Serif" font-size="8.00">_hash_map::swap</text>
</a>
</g>
</g>
<!-- Node1&#45;&gt;Node8 -->
<g id="edge7" class="edge">
<title>Node1&#45;&gt;Node8</title>
<path fill="none" stroke="midnightblue" d="M317.6,-262.5C300.05,-256.38 278.67,-248.92 260.68,-242.64"/>
<polygon fill="midnightblue" stroke="midnightblue" points="316.84,-265.94 327.43,-265.93 319.14,-259.33 316.84,-265.94"/>
</g>
<!-- Node10 -->
<g id="node10" class="node">
<title>Node10</title>
<g id="a_node10"><a xlink:href="classflow_1_1util_1_1Linked__hash__set.html#a46e27b1b9b75e5dc890af26f85956190" target="_top" xlink:title="Swaps the contents of this structure and other.">
<polygon fill="white" stroke="black" points="179.5,-131.5 179.5,-157.5 264.5,-157.5 264.5,-131.5 179.5,-131.5"/>
<text text-anchor="start" x="187.5" y="-147.1" font-family="Helvetica,sans-Serif" font-size="8.00">flow::util::Linked</text>
<text text-anchor="middle" x="222" y="-138.1" font-family="Helvetica,sans-Serif" font-size="8.00">_hash_set::swap</text>
</a>
</g>
</g>
<!-- Node1&#45;&gt;Node10 -->
<g id="edge9" class="edge">
<title>Node1&#45;&gt;Node10</title>
<path fill="none" stroke="midnightblue" d="M336.44,-258.82C310.79,-232.97 260.1,-181.89 236.14,-157.74"/>
<polygon fill="midnightblue" stroke="midnightblue" points="334.01,-261.34 343.54,-265.97 338.98,-256.41 334.01,-261.34"/>
</g>
<!-- Node14 -->
<g id="node14" class="node">
<title>Node14</title>
<g id="a_node14"><a xlink:href="classflow_1_1util_1_1Basic__blob.html#a6896a4049d43d8ac828544eb942ec7af" target="_top" xlink:title="The body of swap(), except for the part that swaps (or decides not to swap) m_alloc_raw.">
<polygon fill="white" stroke="black" points="171.5,-32.5 171.5,-58.5 272.5,-58.5 272.5,-32.5 171.5,-32.5"/>
<text text-anchor="start" x="179.5" y="-48.1" font-family="Helvetica,sans-Serif" font-size="8.00">flow::util::Basic_blob</text>
<text text-anchor="middle" x="222" y="-39.1" font-family="Helvetica,sans-Serif" font-size="8.00">::swap_impl</text>
</a>
</g>
</g>
<!-- Node1&#45;&gt;Node14 -->
<g id="edge15" class="edge">
<title>Node1&#45;&gt;Node14</title>
<path fill="none" stroke="midnightblue" d="M344.16,-256.42C331.38,-227.45 304.66,-169.17 277,-122.5 263.18,-99.18 244.58,-73.73 233.21,-58.71"/>
<polygon fill="midnightblue" stroke="midnightblue" points="341.01,-257.93 348.22,-265.69 347.42,-255.12 341.01,-257.93"/>
</g>
<!-- Node5 -->
<g id="node5" class="node">
<title>Node5</title>
<g id="a_node5"><a xlink:href="classflow_1_1util_1_1Basic__blob.html#a71eaa4ab6a2673ed34fa8989c47a7bc0" target="_top" xlink:title="Equivalent to blob1.swap(blob2).">
<polygon fill="white" stroke="black" points="15,-306.5 15,-332.5 116,-332.5 116,-306.5 15,-306.5"/>
<text text-anchor="start" x="23" y="-322.1" font-family="Helvetica,sans-Serif" font-size="8.00">flow::util::Basic_blob</text>
<text text-anchor="middle" x="65.5" y="-313.1" font-family="Helvetica,sans-Serif" font-size="8.00">::swap</text>
</a>
</g>
</g>
<!-- Node4&#45;&gt;Node5 -->
<g id="edge4" class="edge">
<title>Node4&#45;&gt;Node5</title>
<path fill="none" stroke="midnightblue" d="M161.14,-319.5C146.26,-319.5 130.47,-319.5 116.14,-319.5"/>
<polygon fill="midnightblue" stroke="midnightblue" points="161.26,-323 171.26,-319.5 161.26,-316 161.26,-323"/>
</g>
<!-- Node7 -->
<g id="node7" class="node">
<title>Node7</title>
<g id="a_node7"><a xlink:href="classflow_1_1util_1_1Blob__with__log__context.html#ae3835e26994f760a6324280d3a646b91" target="_top" xlink:title="On top of the similar Basic_blob related function, logs using the stored log context of blob1.">
<polygon fill="white" stroke="black" points="17,-261.5 17,-287.5 114,-287.5 114,-261.5 17,-261.5"/>
<text text-anchor="start" x="25" y="-277.1" font-family="Helvetica,sans-Serif" font-size="8.00">flow::util::Blob_with</text>
<text text-anchor="middle" x="65.5" y="-268.1" font-family="Helvetica,sans-Serif" font-size="8.00">_log_context::swap</text>
</a>
</g>
</g>
<!-- Node6&#45;&gt;Node7 -->
<g id="edge6" class="edge">
<title>Node6&#45;&gt;Node7</title>
<path fill="none" stroke="midnightblue" d="M163.02,-274.5C146.93,-274.5 129.65,-274.5 114.22,-274.5"/>
<polygon fill="midnightblue" stroke="midnightblue" points="163.38,-278 173.38,-274.5 163.38,-271 163.38,-278"/>
</g>
<!-- Node9 -->
<g id="node9" class="node">
<title>Node9</title>
<g id="a_node9"><a xlink:href="classflow_1_1util_1_1Linked__hash__map.html#a9bec37057b3abab90a9732d293116e5b" target="_top" xlink:title="Equivalent to val1.swap(val2).">
<polygon fill="white" stroke="black" points="20.5,-216.5 20.5,-242.5 110.5,-242.5 110.5,-216.5 20.5,-216.5"/>
<text text-anchor="start" x="28.5" y="-232.1" font-family="Helvetica,sans-Serif" font-size="8.00">flow::util::Linked</text>
<text text-anchor="middle" x="65.5" y="-223.1" font-family="Helvetica,sans-Serif" font-size="8.00">_hash_map::swap</text>
</a>
</g>
</g>
<!-- Node8&#45;&gt;Node9 -->
<g id="edge8" class="edge">
<title>Node8&#45;&gt;Node9</title>
<path fill="none" stroke="midnightblue" d="M166.47,-229.5C148.14,-229.5 127.93,-229.5 110.51,-229.5"/>
<polygon fill="midnightblue" stroke="midnightblue" points="166.73,-233 176.73,-229.5 166.73,-226 166.73,-233"/>
</g>
<!-- Node11 -->
<g id="node11" class="node">
<title>Node11</title>
<g id="a_node11"><a xlink:href="classflow_1_1net__flow_1_1Event__set.html#a72b26f25a2e76e3c61b4760b59de5b25" target="_top" xlink:title="Gets the sockets that satisfy the condition of the given Event_type detected during the last wait.">
<polygon fill="white" stroke="black" points="6,-153.5 6,-179.5 125,-179.5 125,-153.5 6,-153.5"/>
<text text-anchor="start" x="14" y="-169.1" font-family="Helvetica,sans-Serif" font-size="8.00">flow::net_flow::Event</text>
<text text-anchor="middle" x="65.5" y="-160.1" font-family="Helvetica,sans-Serif" font-size="8.00">_set::emit_result_sockets</text>
</a>
</g>
</g>
<!-- Node10&#45;&gt;Node11 -->
<g id="edge10" class="edge">
<title>Node10&#45;&gt;Node11</title>
<path fill="none" stroke="midnightblue" d="M169.16,-151.88C155.04,-153.89 139.64,-156.09 125.16,-158.15"/>
<polygon fill="midnightblue" stroke="midnightblue" points="169.78,-155.33 179.19,-150.45 168.8,-148.4 169.78,-155.33"/>
</g>
<!-- Node12 -->
<g id="node12" class="node">
<title>Node12</title>
<g id="a_node12"><a xlink:href="classflow_1_1util_1_1Linked__hash__set.html#ac7fd808e839d422a3f74fbea57fe367e" target="_top" xlink:title="Equivalent to val1.swap(val2).">
<polygon fill="white" stroke="black" points="23,-108.5 23,-134.5 108,-134.5 108,-108.5 23,-108.5"/>
<text text-anchor="start" x="31" y="-124.1" font-family="Helvetica,sans-Serif" font-size="8.00">flow::util::Linked</text>
<text text-anchor="middle" x="65.5" y="-115.1" font-family="Helvetica,sans-Serif" font-size="8.00">_hash_set::swap</text>
</a>
</g>
</g>
<!-- Node10&#45;&gt;Node12 -->
<g id="edge12" class="edge">
<title>Node10&#45;&gt;Node12</title>
<path fill="none" stroke="midnightblue" d="M169.07,-136.77C149.21,-133.81 126.84,-130.48 108.08,-127.69"/>
<polygon fill="midnightblue" stroke="midnightblue" points="168.78,-140.27 179.19,-138.28 169.81,-133.34 168.78,-140.27"/>
</g>
<!-- Node13 -->
<g id="node13" class="node">
<title>Node13</title>
<g id="a_node13"><a xlink:href="classflow_1_1net__flow_1_1Event__set.html#a6e47fc394c09acf4d100a640e090a7aa" target="_top" xlink:title="Efficiently exchanges the current set of sockets we want to know are &quot;ready&quot; by the definiton of the ...">
<polygon fill="white" stroke="black" points="0,-45.5 0,-71.5 131,-71.5 131,-45.5 0,-45.5"/>
<text text-anchor="start" x="8" y="-61.1" font-family="Helvetica,sans-Serif" font-size="8.00">flow::net_flow::Event</text>
<text text-anchor="middle" x="65.5" y="-52.1" font-family="Helvetica,sans-Serif" font-size="8.00">_set::swap_wanted_sockets</text>
</a>
</g>
</g>
<!-- Node10&#45;&gt;Node13 -->
<g id="edge13" class="edge">
<title>Node10&#45;&gt;Node13</title>
<path fill="none" stroke="midnightblue" d="M188.46,-126.39C158.96,-109.97 116.2,-86.16 89.93,-71.54"/>
<polygon fill="midnightblue" stroke="midnightblue" points="187.09,-129.63 197.53,-131.44 190.5,-123.52 187.09,-129.63"/>
</g>
<!-- Node11&#45;&gt;Node11 -->
<g id="edge11" class="edge">
<title>Node11&#45;&gt;Node11</title>
<path fill="none" stroke="midnightblue" d="M93.58,-189.94C90.46,-194.64 81.1,-198 65.5,-198 39.91,-198 31.11,-188.96 39.11,-179.77"/>
<polygon fill="midnightblue" stroke="midnightblue" points="96.98,-189.06 91.89,-179.77 90.07,-190.21 96.98,-189.06"/>
</g>
<!-- Node13&#45;&gt;Node13 -->
<g id="edge14" class="edge">
<title>Node13&#45;&gt;Node13</title>
<path fill="none" stroke="midnightblue" d="M93.58,-81.94C90.46,-86.64 81.1,-90 65.5,-90 39.91,-90 31.11,-80.96 39.11,-71.77"/>
<polygon fill="midnightblue" stroke="midnightblue" points="96.98,-81.06 91.89,-71.77 90.07,-82.21 96.98,-81.06"/>
</g>
<!-- Node15 -->
<g id="node15" class="node">
<title>Node15</title>
<g id="a_node15"><a xlink:href="classflow_1_1util_1_1Basic__blob.html#a0b2f88c8e8ca1cbd618d0cafff0cf663" target="_top" xlink:title="Move constructor, constructing a blob exactly internally equal to pre&#45;call moved_src,...">
<polygon fill="white" stroke="black" points="15,-0.5 15,-26.5 116,-26.5 116,-0.5 15,-0.5"/>
<text text-anchor="start" x="23" y="-16.1" font-family="Helvetica,sans-Serif" font-size="8.00">flow::util::Basic_blob</text>
<text text-anchor="middle" x="65.5" y="-7.1" font-family="Helvetica,sans-Serif" font-size="8.00">::Basic_blob</text>
</a>
</g>
</g>
<!-- Node14&#45;&gt;Node15 -->
<g id="edge16" class="edge">
<title>Node14&#45;&gt;Node15</title>
<path fill="none" stroke="midnightblue" d="M161.14,-33.1C146.26,-30.02 130.47,-26.75 116.14,-23.78"/>
<polygon fill="midnightblue" stroke="midnightblue" points="160.76,-36.6 171.26,-35.2 162.18,-29.74 160.76,-36.6"/>
</g>
</g>
</svg>
