<?xml version="1.0" encoding="UTF-8" standalone="no"?>
<!DOCTYPE svg PUBLIC "-//W3C//DTD SVG 1.1//EN"
 "http://www.w3.org/Graphics/SVG/1.1/DTD/svg11.dtd">
<!-- Generated by graphviz version 2.43.0 (0)
 -->
<!-- Title: flow::net_flow::Ack_packet::Individual_ack Pages: 1 -->
<svg width="489pt" height="176pt"
 viewBox="0.00 0.00 489.00 176.00" xmlns="http://www.w3.org/2000/svg" xmlns:xlink="http://www.w3.org/1999/xlink">
<g id="graph0" class="graph" transform="scale(1 1) rotate(0) translate(4 172)">
<title>flow::net_flow::Ack_packet::Individual_ack</title>
<polygon fill="white" stroke="transparent" points="-4,4 -4,-172 485,-172 485,4 -4,4"/>
<!-- Node1 -->
<g id="node1" class="node">
<title>Node1</title>
<g id="a_node1"><a xlink:title="Specifies the incoming (post&#45;deserialization) acknowledgment of a single received Data_packet.">
<polygon fill="#bfbfbf" stroke="black" points="369,-50 369,-76 481,-76 481,-50 369,-50"/>
<text text-anchor="start" x="377" y="-65.6" font-family="Helvetica,sans-Serif" font-size="8.00">flow::net_flow::Ack</text>
<text text-anchor="middle" x="425" y="-56.6" font-family="Helvetica,sans-Serif" font-size="8.00">_packet::Individual_ack</text>
</a>
</g>
</g>
<!-- Node2 -->
<g id="node2" class="node">
<title>Node2</title>
<g id="a_node2"><a xlink:href="classflow_1_1net__flow_1_1Sequence__number.html" target="_top" xlink:title="An internal net_flow sequence number identifying a piece of data.">
<polygon fill="white" stroke="black" points="162,-109 162,-135 282,-135 282,-109 162,-109"/>
<text text-anchor="start" x="170" y="-124.6" font-family="Helvetica,sans-Serif" font-size="8.00">flow::net_flow::Sequence</text>
<text text-anchor="middle" x="222" y="-115.6" font-family="Helvetica,sans-Serif" font-size="8.00">_number</text>
</a>
</g>
</g>
<!-- Node2&#45;&gt;Node1 -->
<g id="edge1" class="edge">
<title>Node2&#45;&gt;Node1</title>
<path fill="none" stroke="#9a32cd" stroke-dasharray="5,2" d="M282.71,-106.35C304.29,-100.51 328.81,-93.68 351,-87 362.24,-83.62 374.38,-79.72 385.47,-76.07"/>
<polygon fill="#9a32cd" stroke="#9a32cd" points="281.76,-102.98 273.01,-108.95 283.58,-109.74 281.76,-102.98"/>
<text text-anchor="middle" x="325.5" y="-103.6" font-family="Helvetica,sans-Serif" font-size="8.00"> m_seq_num</text>
</g>
<!-- Node3 -->
<g id="node3" class="node">
<title>Node3</title>
<g id="a_node3"><a xlink:title=" ">
<polygon fill="white" stroke="#bfbfbf" points="0,-149.5 0,-166.5 50,-166.5 50,-149.5 0,-149.5"/>
<text text-anchor="middle" x="25" y="-156.1" font-family="Helvetica,sans-Serif" font-size="8.00">uint64_t</text>
</a>
</g>
</g>
<!-- Node3&#45;&gt;Node2 -->
<g id="edge2" class="edge">
<title>Node3&#45;&gt;Node2</title>
<path fill="none" stroke="#9a32cd" stroke-dasharray="5,2" d="M60.42,-151.65C88.48,-146.47 128.75,-139.03 161.95,-132.9"/>
<polygon fill="#9a32cd" stroke="#9a32cd" points="59.5,-148.26 50.3,-153.51 60.77,-155.14 59.5,-148.26"/>
<text text-anchor="middle" x="106" y="-161.6" font-family="Helvetica,sans-Serif" font-size="8.00"> m_num</text>
<text text-anchor="middle" x="106" y="-152.6" font-family="Helvetica,sans-Serif" font-size="8.00">m_zero_point_num</text>
</g>
<!-- Node4 -->
<g id="node4" class="node">
<title>Node4</title>
<g id="a_node4"><a xlink:title=" ">
<polygon fill="white" stroke="#bfbfbf" points="7.5,-113.5 7.5,-130.5 42.5,-130.5 42.5,-113.5 7.5,-113.5"/>
<text text-anchor="middle" x="25" y="-120.1" font-family="Helvetica,sans-Serif" font-size="8.00">char</text>
</a>
</g>
</g>
<!-- Node4&#45;&gt;Node2 -->
<g id="edge3" class="edge">
<title>Node4&#45;&gt;Node2</title>
<path fill="none" stroke="#9a32cd" stroke-dasharray="5,2" d="M52.83,-122C80.83,-122 125.63,-122 161.95,-122"/>
<polygon fill="#9a32cd" stroke="#9a32cd" points="52.63,-118.5 42.63,-122 52.63,-125.5 52.63,-118.5"/>
<text text-anchor="middle" x="106" y="-124.6" font-family="Helvetica,sans-Serif" font-size="8.00"> m_num_line_id</text>
</g>
<!-- Node5 -->
<g id="node5" class="node">
<title>Node5</title>
<g id="a_node5"><a xlink:title=" ">
<polygon fill="white" stroke="#bfbfbf" points="3,-77.5 3,-94.5 47,-94.5 47,-77.5 3,-77.5"/>
<text text-anchor="middle" x="25" y="-84.1" font-family="Helvetica,sans-Serif" font-size="8.00">int64_t</text>
</a>
</g>
</g>
<!-- Node5&#45;&gt;Node2 -->
<g id="edge4" class="edge">
<title>Node5&#45;&gt;Node2</title>
<path fill="none" stroke="#9a32cd" stroke-dasharray="5,2" d="M57.27,-91.77C85.32,-96.95 127.24,-104.69 161.65,-111.04"/>
<polygon fill="#9a32cd" stroke="#9a32cd" points="57.71,-88.29 47.24,-89.92 56.44,-95.18 57.71,-88.29"/>
<text text-anchor="middle" x="106" y="-109.6" font-family="Helvetica,sans-Serif" font-size="8.00"> m_multiple_size</text>
</g>
<!-- Node6 -->
<g id="node6" class="node">
<title>Node6</title>
<g id="a_node6"><a xlink:title=" ">
<polygon fill="white" stroke="#bfbfbf" points="174,-72.5 174,-89.5 270,-89.5 270,-72.5 174,-72.5"/>
<text text-anchor="middle" x="222" y="-79.1" font-family="Helvetica,sans-Serif" font-size="8.00">const Fine_duration</text>
</a>
</g>
</g>
<!-- Node6&#45;&gt;Node1 -->
<g id="edge5" class="edge">
<title>Node6&#45;&gt;Node1</title>
<path fill="none" stroke="#9a32cd" stroke-dasharray="5,2" d="M280.13,-75.88C308,-73.39 341.39,-70.4 368.98,-67.93"/>
<polygon fill="#9a32cd" stroke="#9a32cd" points="279.77,-72.4 270.13,-76.78 280.4,-79.37 279.77,-72.4"/>
<text text-anchor="middle" x="325.5" y="-76.6" font-family="Helvetica,sans-Serif" font-size="8.00"> m_delay</text>
</g>
<!-- Node7 -->
<g id="node7" class="node">
<title>Node7</title>
<g id="a_node7"><a xlink:title=" ">
<polygon fill="white" stroke="#bfbfbf" points="176,-36.5 176,-53.5 268,-53.5 268,-36.5 176,-36.5"/>
<text text-anchor="middle" x="222" y="-43.1" font-family="Helvetica,sans-Serif" font-size="8.00">const unsigned int</text>
</a>
</g>
</g>
<!-- Node7&#45;&gt;Node1 -->
<g id="edge6" class="edge">
<title>Node7&#45;&gt;Node1</title>
<path fill="none" stroke="#9a32cd" stroke-dasharray="5,2" d="M278.18,-49.94C306.33,-52.46 340.48,-55.52 368.65,-58.04"/>
<polygon fill="#9a32cd" stroke="#9a32cd" points="278.38,-46.45 268.11,-49.04 277.76,-53.42 278.38,-46.45"/>
<text text-anchor="middle" x="325.5" y="-59.6" font-family="Helvetica,sans-Serif" font-size="8.00"> m_rexmit_id</text>
</g>
<!-- Node8 -->
<g id="node8" class="node">
<title>Node8</title>
<g id="a_node8"><a xlink:href="structflow_1_1util_1_1Noncopyable.html" target="_top" xlink:title="Useful as a no&#45;unique&#45;address private member to make a type noncopyable while keeping that type an ag...">
<polygon fill="white" stroke="black" points="166,-0.5 166,-17.5 278,-17.5 278,-0.5 166,-0.5"/>
<text text-anchor="middle" x="222" y="-7.1" font-family="Helvetica,sans-Serif" font-size="8.00">flow::util::Noncopyable</text>
</a>
</g>
</g>
<!-- Node8&#45;&gt;Node1 -->
<g id="edge7" class="edge">
<title>Node8&#45;&gt;Node1</title>
<path fill="none" stroke="#9a32cd" stroke-dasharray="5,2" d="M271.22,-19.86C295.29,-25.49 324.79,-32.71 351,-40 361.88,-43.03 373.58,-46.58 384.36,-49.98"/>
<polygon fill="#9a32cd" stroke="#9a32cd" points="271.79,-16.41 261.26,-17.55 270.21,-23.22 271.79,-16.41"/>
<text text-anchor="middle" x="325.5" y="-42.6" font-family="Helvetica,sans-Serif" font-size="8.00"> m_nc</text>
</g>
</g>
</svg>
