<?xml version="1.0" encoding="UTF-8" standalone="no"?>
<!DOCTYPE svg PUBLIC "-//W3C//DTD SVG 1.1//EN"
 "http://www.w3.org/Graphics/SVG/1.1/DTD/svg11.dtd">
<!-- Generated by graphviz version 2.43.0 (0)
 -->
<!-- Title: flow::net_flow::Peer_socket_receive_stats Pages: 1 -->
<svg width="431pt" height="323pt"
 viewBox="0.00 0.00 430.50 323.00" xmlns="http://www.w3.org/2000/svg" xmlns:xlink="http://www.w3.org/1999/xlink">
<g id="graph0" class="graph" transform="scale(1 1) rotate(0) translate(4 319)">
<title>flow::net_flow::Peer_socket_receive_stats</title>
<polygon fill="white" stroke="transparent" points="-4,4 -4,-319 426.5,-319 426.5,4 -4,4"/>
<!-- Node1 -->
<g id="node1" class="node">
<title>Node1</title>
<g id="a_node1"><a xlink:title="A data store that keeps stats about the incoming direction of a Peer_socket connection to another Flo...">
<polygon fill="#bfbfbf" stroke="black" points="84,-0.5 84,-26.5 189,-26.5 189,-0.5 84,-0.5"/>
<text text-anchor="start" x="92" y="-16.1" font-family="Helvetica,sans-Serif" font-size="8.00">flow::net_flow::Peer</text>
<text text-anchor="middle" x="136.5" y="-7.1" font-family="Helvetica,sans-Serif" font-size="8.00">_socket_receive_stats</text>
</a>
</g>
</g>
<!-- Node2 -->
<g id="node2" class="node">
<title>Node2</title>
<g id="a_node2"><a xlink:title=" ">
<polygon fill="white" stroke="#bfbfbf" points="0,-167 0,-184 59,-184 59,-167 0,-167"/>
<text text-anchor="middle" x="29.5" y="-173.6" font-family="Helvetica,sans-Serif" font-size="8.00">time_point</text>
</a>
</g>
</g>
<!-- Node2&#45;&gt;Node1 -->
<g id="edge1" class="edge">
<title>Node2&#45;&gt;Node1</title>
<path fill="none" stroke="#9a32cd" stroke-dasharray="5,2" d="M23.97,-156.83C16.67,-129.73 7.47,-77.63 32.5,-45 44.64,-29.17 64.56,-21.23 83.73,-17.34"/>
<polygon fill="#9a32cd" stroke="#9a32cd" points="20.71,-158.16 26.87,-166.78 27.43,-156.2 20.71,-158.16"/>
<text text-anchor="middle" x="57" y="-61.1" font-family="Helvetica,sans-Serif" font-size="8.00"> m_init_time</text>
</g>
<!-- Node3 -->
<g id="node3" class="node">
<title>Node3</title>
<g id="a_node3"><a xlink:title=" ">
<polygon fill="white" stroke="#bfbfbf" points="116.5,-297.5 116.5,-314.5 166.5,-314.5 166.5,-297.5 116.5,-297.5"/>
<text text-anchor="middle" x="141.5" y="-304.1" font-family="Helvetica,sans-Serif" font-size="8.00">uint64_t</text>
</a>
</g>
</g>
<!-- Node3&#45;&gt;Node1 -->
<g id="edge2" class="edge">
<title>Node3&#45;&gt;Node1</title>
<path fill="none" stroke="#9a32cd" stroke-dasharray="5,2" d="M127.29,-289.5C119.18,-279.58 109.8,-265.98 105.5,-252 85.51,-187 93.61,-165.95 105.5,-99 110.26,-72.23 122.87,-42.81 130.46,-26.72"/>
<polygon fill="#9a32cd" stroke="#9a32cd" points="124.74,-291.91 133.92,-297.19 130.04,-287.34 124.74,-291.91"/>
<text text-anchor="middle" x="154" y="-245.6" font-family="Helvetica,sans-Serif" font-size="8.00"> m_delayed_acks_count</text>
<text text-anchor="middle" x="154" y="-236.6" font-family="Helvetica,sans-Serif" font-size="8.00">m_error_data_count</text>
<text text-anchor="middle" x="154" y="-227.6" font-family="Helvetica,sans-Serif" font-size="8.00">m_error_data_size</text>
<text text-anchor="start" x="105.5" y="-218.6" font-family="Helvetica,sans-Serif" font-size="8.00">m_good_data_accepted</text>
<text text-anchor="middle" x="154" y="-209.6" font-family="Helvetica,sans-Serif" font-size="8.00">_count</text>
<text text-anchor="start" x="105.5" y="-200.6" font-family="Helvetica,sans-Serif" font-size="8.00">m_good_data_accepted</text>
<text text-anchor="middle" x="154" y="-191.6" font-family="Helvetica,sans-Serif" font-size="8.00">_size</text>
<text text-anchor="middle" x="154" y="-182.6" font-family="Helvetica,sans-Serif" font-size="8.00">m_good_data_count</text>
<text text-anchor="start" x="105.5" y="-173.6" font-family="Helvetica,sans-Serif" font-size="8.00">m_good_data_delivered</text>
<text text-anchor="middle" x="154" y="-164.6" font-family="Helvetica,sans-Serif" font-size="8.00">_count</text>
<text text-anchor="start" x="105.5" y="-155.6" font-family="Helvetica,sans-Serif" font-size="8.00">m_good_data_delivered</text>
<text text-anchor="middle" x="154" y="-146.6" font-family="Helvetica,sans-Serif" font-size="8.00">_size</text>
<text text-anchor="start" x="105.5" y="-137.6" font-family="Helvetica,sans-Serif" font-size="8.00">m_good_data_dropped</text>
<text text-anchor="middle" x="154" y="-128.6" font-family="Helvetica,sans-Serif" font-size="8.00">_buf_overflow_count</text>
<text text-anchor="start" x="105.5" y="-119.6" font-family="Helvetica,sans-Serif" font-size="8.00">m_good_data_dropped</text>
<text text-anchor="middle" x="154" y="-110.6" font-family="Helvetica,sans-Serif" font-size="8.00">_buf_overflow_size</text>
<text text-anchor="middle" x="154" y="-101.6" font-family="Helvetica,sans-Serif" font-size="8.00">...</text>
</g>
<!-- Node5 -->
<g id="node5" class="node">
<title>Node5</title>
<g id="a_node5"><a xlink:title=" ">
<polygon fill="white" stroke="black" points="211,-162.5 211,-188.5 310,-188.5 310,-162.5 211,-162.5"/>
<text text-anchor="start" x="219" y="-178.1" font-family="Helvetica,sans-Serif" font-size="8.00">std::map&lt; std::type</text>
<text text-anchor="middle" x="260.5" y="-169.1" font-family="Helvetica,sans-Serif" font-size="8.00">_index, uint64_t &gt;</text>
</a>
</g>
</g>
<!-- Node3&#45;&gt;Node5 -->
<g id="edge6" class="edge">
<title>Node3&#45;&gt;Node5</title>
<path fill="none" stroke="#9a32cd" stroke-dasharray="5,2" d="M157.32,-290.56C168.54,-280.12 183.8,-265.54 196.5,-252 216.72,-230.45 238.66,-203.77 250.88,-188.59"/>
<polygon fill="#9a32cd" stroke="#9a32cd" points="154.93,-288 149.95,-297.35 159.68,-293.14 154.93,-288"/>
<text text-anchor="middle" x="197" y="-272.6" font-family="Helvetica,sans-Serif" font-size="8.00"> elements</text>
</g>
<!-- Node4 -->
<g id="node4" class="node">
<title>Node4</title>
<g id="a_node4"><a xlink:title=" ">
<polygon fill="white" stroke="#bfbfbf" points="328.5,-167 328.5,-184 368.5,-184 368.5,-167 328.5,-167"/>
<text text-anchor="middle" x="348.5" y="-173.6" font-family="Helvetica,sans-Serif" font-size="8.00">size_t</text>
</a>
</g>
</g>
<!-- Node4&#45;&gt;Node1 -->
<g id="edge3" class="edge">
<title>Node4&#45;&gt;Node1</title>
<path fill="none" stroke="#9a32cd" stroke-dasharray="5,2" d="M346.08,-156.6C341.18,-127.93 327.23,-72.16 290.5,-45 274.61,-33.25 227.32,-25.03 189.29,-20.1"/>
<polygon fill="#9a32cd" stroke="#9a32cd" points="342.66,-157.41 347.63,-166.77 349.58,-156.35 342.66,-157.41"/>
<text text-anchor="start" x="319.5" y="-70.1" font-family="Helvetica,sans-Serif" font-size="8.00"> m_current_pending_acks</text>
<text text-anchor="middle" x="371" y="-61.1" font-family="Helvetica,sans-Serif" font-size="8.00">_count</text>
<text text-anchor="middle" x="371" y="-52.1" font-family="Helvetica,sans-Serif" font-size="8.00">m_max_buf_data_size</text>
</g>
<!-- Node5&#45;&gt;Node1 -->
<g id="edge4" class="edge">
<title>Node5&#45;&gt;Node1</title>
<path fill="none" stroke="#9a32cd" stroke-dasharray="5,2" d="M244.83,-154.29C218.73,-120.61 167.13,-54.02 145.93,-26.67"/>
<polygon fill="#9a32cd" stroke="#9a32cd" points="242.29,-156.71 251.18,-162.47 247.82,-152.43 242.29,-156.71"/>
<text text-anchor="start" x="186.5" y="-74.6" font-family="Helvetica,sans-Serif" font-size="8.00"> m_low_lvl_packet_count</text>
<text text-anchor="middle" x="236.5" y="-65.6" font-family="Helvetica,sans-Serif" font-size="8.00">_by_type</text>
<text text-anchor="start" x="186.5" y="-56.6" font-family="Helvetica,sans-Serif" font-size="8.00">m_low_lvl_packet_size</text>
<text text-anchor="middle" x="236.5" y="-47.6" font-family="Helvetica,sans-Serif" font-size="8.00">_by_type</text>
</g>
<!-- Node6 -->
<g id="node6" class="node">
<title>Node6</title>
<g id="a_node6"><a xlink:title=" ">
<polygon fill="white" stroke="#bfbfbf" points="230.5,-297.5 230.5,-314.5 290.5,-314.5 290.5,-297.5 230.5,-297.5"/>
<text text-anchor="middle" x="260.5" y="-304.1" font-family="Helvetica,sans-Serif" font-size="8.00">type_index</text>
</a>
</g>
</g>
<!-- Node6&#45;&gt;Node5 -->
<g id="edge5" class="edge">
<title>Node6&#45;&gt;Node5</title>
<path fill="none" stroke="#9a32cd" stroke-dasharray="5,2" d="M260.5,-287.22C260.5,-260.67 260.5,-211.38 260.5,-188.61"/>
<polygon fill="#9a32cd" stroke="#9a32cd" points="257,-287.35 260.5,-297.35 264,-287.35 257,-287.35"/>
<text text-anchor="middle" x="271.5" y="-272.6" font-family="Helvetica,sans-Serif" font-size="8.00"> keys</text>
</g>
</g>
</svg>
