<?xml version="1.0" encoding="UTF-8" standalone="no"?>
<!DOCTYPE svg PUBLIC "-//W3C//DTD SVG 1.1//EN"
 "http://www.w3.org/Graphics/SVG/1.1/DTD/svg11.dtd">
<!-- Generated by graphviz version 2.43.0 (0)
 -->
<!-- Title: flow::net_flow::Low_lvl_packet::type_to_ostream Pages: 1 -->
<svg width="237pt" height="44pt"
 viewBox="0.00 0.00 237.00 44.00" xmlns="http://www.w3.org/2000/svg" xmlns:xlink="http://www.w3.org/1999/xlink">
<g id="graph0" class="graph" transform="scale(1 1) rotate(0) translate(4 40)">
<title>flow::net_flow::Low_lvl_packet::type_to_ostream</title>
<polygon fill="white" stroke="transparent" points="-4,4 -4,-40 233,-40 233,4 -4,4"/>
<!-- Node1 -->
<g id="node1" class="node">
<title>Node1</title>
<g id="a_node1"><a xlink:title="Writes a brief representation of typeid(*this) – i.e., the packet type (ACK, RST, etc....">
<polygon fill="#bfbfbf" stroke="black" points="0,-0.5 0,-35.5 97,-35.5 97,-0.5 0,-0.5"/>
<text text-anchor="start" x="8" y="-25.1" font-family="Helvetica,sans-Serif" font-size="8.00">flow::net_flow::Low</text>
<text text-anchor="start" x="8" y="-16.1" font-family="Helvetica,sans-Serif" font-size="8.00">_lvl_packet::type_to</text>
<text text-anchor="middle" x="48.5" y="-7.1" font-family="Helvetica,sans-Serif" font-size="8.00">_ostream</text>
</a>
</g>
</g>
<!-- Node2 -->
<g id="node2" class="node">
<title>Node2</title>
<g id="a_node2"><a xlink:href="structflow_1_1net__flow_1_1Low__lvl__packet.html#a37c9c6b04502d73defb803c1efabdf63" target="_top" xlink:title="Returns a brief (a few characters) string description of the given packet type given as type_index(ty...">
<polygon fill="white" stroke="black" points="133,-0.5 133,-35.5 229,-35.5 229,-0.5 133,-0.5"/>
<text text-anchor="start" x="141" y="-25.1" font-family="Helvetica,sans-Serif" font-size="8.00">flow::net_flow::Low</text>
<text text-anchor="start" x="141" y="-16.1" font-family="Helvetica,sans-Serif" font-size="8.00">_lvl_packet::type_id</text>
<text text-anchor="middle" x="181" y="-7.1" font-family="Helvetica,sans-Serif" font-size="8.00">_to_str</text>
</a>
</g>
</g>
<!-- Node1&#45;&gt;Node2 -->
<g id="edge1" class="edge">
<title>Node1&#45;&gt;Node2</title>
<path fill="none" stroke="midnightblue" d="M97.35,-18C105.52,-18 114.09,-18 122.48,-18"/>
<polygon fill="midnightblue" stroke="midnightblue" points="122.59,-21.5 132.59,-18 122.59,-14.5 122.59,-21.5"/>
</g>
</g>
</svg>
