<?xml version="1.0" encoding="UTF-8" standalone="no"?>
<!DOCTYPE svg PUBLIC "-//W3C//DTD SVG 1.1//EN"
 "http://www.w3.org/Graphics/SVG/1.1/DTD/svg11.dtd">
<!-- Generated by graphviz version 2.43.0 (0)
 -->
<!-- Title: flow::net_flow::Ack_packet::Individual_ack_rexmit_on Pages: 1 -->
<svg width="173pt" height="197pt"
 viewBox="0.00 0.00 173.00 197.00" xmlns="http://www.w3.org/2000/svg" xmlns:xlink="http://www.w3.org/1999/xlink">
<g id="graph0" class="graph" transform="scale(1 1) rotate(0) translate(4 193)">
<title>flow::net_flow::Ack_packet::Individual_ack_rexmit_on</title>
<polygon fill="white" stroke="transparent" points="-4,4 -4,-193 169,-193 169,4 -4,4"/>
<!-- Node1 -->
<g id="node1" class="node">
<title>Node1</title>
<g id="a_node1"><a xlink:title="Equivalent of Individual_ack_rexmit_off but for sockets with retransmission enabled.">
<polygon fill="#bfbfbf" stroke="black" points="48,-0.5 48,-35.5 142,-35.5 142,-0.5 48,-0.5"/>
<text text-anchor="start" x="56" y="-25.1" font-family="Helvetica,sans-Serif" font-size="8.00">flow::net_flow::Ack</text>
<text text-anchor="start" x="56" y="-16.1" font-family="Helvetica,sans-Serif" font-size="8.00">_packet::Individual</text>
<text text-anchor="middle" x="95" y="-7.1" font-family="Helvetica,sans-Serif" font-size="8.00">_ack_rexmit_on</text>
</a>
</g>
</g>
<!-- Node2 -->
<g id="node2" class="node">
<title>Node2</title>
<g id="a_node2"><a xlink:href="structflow_1_1net__flow_1_1Ack__packet_1_1Individual__ack__rexmit__off.html" target="_top" xlink:title="Specifies the outgoing (pre&#45;serialization) acknowledgment of a single received Data_packet,...">
<polygon fill="white" stroke="black" points="0,-81.5 0,-116.5 94,-116.5 94,-81.5 0,-81.5"/>
<text text-anchor="start" x="8" y="-106.1" font-family="Helvetica,sans-Serif" font-size="8.00">flow::net_flow::Ack</text>
<text text-anchor="start" x="8" y="-97.1" font-family="Helvetica,sans-Serif" font-size="8.00">_packet::Individual</text>
<text text-anchor="middle" x="47" y="-88.1" font-family="Helvetica,sans-Serif" font-size="8.00">_ack_rexmit_off</text>
</a>
</g>
</g>
<!-- Node2&#45;&gt;Node1 -->
<g id="edge1" class="edge">
<title>Node2&#45;&gt;Node1</title>
<path fill="none" stroke="#9a32cd" stroke-dasharray="5,2" d="M48.97,-71C50.19,-65.14 52.08,-59.15 55,-54 58.91,-47.1 64.71,-40.88 70.69,-35.67"/>
<polygon fill="#9a32cd" stroke="#9a32cd" points="45.46,-70.82 47.44,-81.23 52.38,-71.86 45.46,-70.82"/>
<text text-anchor="middle" x="82" y="-56.6" font-family="Helvetica,sans-Serif" font-size="8.00"> m_basic_ack</text>
</g>
<!-- Node3 -->
<g id="node3" class="node">
<title>Node3</title>
<g id="a_node3"><a xlink:title=" ">
<polygon fill="white" stroke="#bfbfbf" points="22,-171.5 22,-188.5 72,-188.5 72,-171.5 22,-171.5"/>
<text text-anchor="middle" x="47" y="-178.1" font-family="Helvetica,sans-Serif" font-size="8.00">uint64_t</text>
</a>
</g>
</g>
<!-- Node3&#45;&gt;Node2 -->
<g id="edge2" class="edge">
<title>Node3&#45;&gt;Node2</title>
<path fill="none" stroke="#9a32cd" stroke-dasharray="5,2" d="M47,-161.2C47,-147.89 47,-129.81 47,-116.76"/>
<polygon fill="#9a32cd" stroke="#9a32cd" points="43.5,-161.43 47,-171.43 50.5,-161.43 43.5,-161.43"/>
<text text-anchor="middle" x="80.5" y="-146.6" font-family="Helvetica,sans-Serif" font-size="8.00"> m_delay</text>
<text text-anchor="middle" x="80.5" y="-137.6" font-family="Helvetica,sans-Serif" font-size="8.00">m_seq_num_raw</text>
</g>
<!-- Node4 -->
<g id="node4" class="node">
<title>Node4</title>
<g id="a_node4"><a xlink:title=" ">
<polygon fill="white" stroke="#bfbfbf" points="112,-90.5 112,-107.5 156,-107.5 156,-90.5 112,-90.5"/>
<text text-anchor="middle" x="134" y="-97.1" font-family="Helvetica,sans-Serif" font-size="8.00">uint8_t</text>
</a>
</g>
</g>
<!-- Node4&#45;&gt;Node1 -->
<g id="edge3" class="edge">
<title>Node4&#45;&gt;Node1</title>
<path fill="none" stroke="#9a32cd" stroke-dasharray="5,2" d="M125.8,-81.4C119.18,-67.99 109.91,-49.21 103.27,-35.76"/>
<polygon fill="#9a32cd" stroke="#9a32cd" points="122.7,-83.01 130.26,-90.43 128.97,-79.91 122.7,-83.01"/>
<text text-anchor="middle" x="140" y="-56.6" font-family="Helvetica,sans-Serif" font-size="8.00"> m_rexmit_id</text>
</g>
</g>
</svg>
