<?xml version="1.0" encoding="UTF-8" standalone="no"?>
<!DOCTYPE svg PUBLIC "-//W3C//DTD SVG 1.1//EN"
 "http://www.w3.org/Graphics/SVG/1.1/DTD/svg11.dtd">
<!-- Generated by graphviz version 2.43.0 (0)
 -->
<!-- Title: flow::net_flow::Low_lvl_packet::Packet_type_info Pages: 1 -->
<svg width="176pt" height="171pt"
 viewBox="0.00 0.00 176.00 171.00" xmlns="http://www.w3.org/2000/svg" xmlns:xlink="http://www.w3.org/1999/xlink">
<g id="graph0" class="graph" transform="scale(1 1) rotate(0) translate(4 167)">
<title>flow::net_flow::Low_lvl_packet::Packet_type_info</title>
<polygon fill="white" stroke="transparent" points="-4,4 -4,-167 172,-167 172,4 -4,4"/>
<!-- Node1 -->
<g id="node1" class="node">
<title>Node1</title>
<g id="a_node1"><a xlink:title="A simple, unmodifiable data store that contains the properties unique to each packet type a/k/a concr...">
<polygon fill="#bfbfbf" stroke="black" points="32,-0.5 32,-35.5 127,-35.5 127,-0.5 32,-0.5"/>
<text text-anchor="start" x="40" y="-25.1" font-family="Helvetica,sans-Serif" font-size="8.00">flow::net_flow::Low</text>
<text text-anchor="start" x="40" y="-16.1" font-family="Helvetica,sans-Serif" font-size="8.00">_lvl_packet::Packet</text>
<text text-anchor="middle" x="79.5" y="-7.1" font-family="Helvetica,sans-Serif" font-size="8.00">_type_info</text>
</a>
</g>
</g>
<!-- Node2 -->
<g id="node2" class="node">
<title>Node2</title>
<g id="a_node2"><a xlink:title=" ">
<polygon fill="white" stroke="#bfbfbf" points="0,-81.5 0,-98.5 75,-98.5 75,-81.5 0,-81.5"/>
<text text-anchor="middle" x="37.5" y="-88.1" font-family="Helvetica,sans-Serif" font-size="8.00">unsigned char</text>
</a>
</g>
</g>
<!-- Node2&#45;&gt;Node1 -->
<g id="edge1" class="edge">
<title>Node2&#45;&gt;Node1</title>
<path fill="none" stroke="#9a32cd" stroke-dasharray="5,2" d="M35.23,-71.29C35.21,-65.54 35.97,-59.28 38.5,-54 41.89,-46.91 47.47,-40.7 53.44,-35.56"/>
<polygon fill="#9a32cd" stroke="#9a32cd" points="31.75,-71.65 36,-81.35 38.73,-71.11 31.75,-71.65"/>
<text text-anchor="middle" x="69.5" y="-56.6" font-family="Helvetica,sans-Serif" font-size="8.00"> m_raw_type_id</text>
</g>
<!-- Node3 -->
<g id="node3" class="node">
<title>Node3</title>
<g id="a_node3"><a xlink:title=" ">
<polygon fill="white" stroke="black" points="93,-81.5 93,-98.5 152,-98.5 152,-81.5 93,-81.5"/>
<text text-anchor="middle" x="122.5" y="-88.1" font-family="Helvetica,sans-Serif" font-size="8.00">std::string</text>
</a>
</g>
</g>
<!-- Node3&#45;&gt;Node1 -->
<g id="edge2" class="edge">
<title>Node3&#45;&gt;Node1</title>
<path fill="none" stroke="#9a32cd" stroke-dasharray="5,2" d="M112.38,-72.53C105.53,-61.38 96.52,-46.71 89.66,-35.55"/>
<polygon fill="#9a32cd" stroke="#9a32cd" points="109.52,-74.55 117.73,-81.24 115.48,-70.89 109.52,-74.55"/>
<text text-anchor="middle" x="134.5" y="-56.6" font-family="Helvetica,sans-Serif" font-size="8.00"> m_type_id_str</text>
</g>
<!-- Node4 -->
<g id="node4" class="node">
<title>Node4</title>
<g id="a_node4"><a xlink:title=" ">
<polygon fill="white" stroke="black" points="77,-136.5 77,-162.5 168,-162.5 168,-136.5 77,-136.5"/>
<text text-anchor="start" x="85" y="-152.1" font-family="Helvetica,sans-Serif" font-size="8.00">std::basic_string&lt;</text>
<text text-anchor="middle" x="122.5" y="-143.1" font-family="Helvetica,sans-Serif" font-size="8.00"> Char &gt;</text>
</a>
</g>
</g>
<!-- Node4&#45;&gt;Node3 -->
<g id="edge3" class="edge">
<title>Node4&#45;&gt;Node3</title>
<path fill="none" stroke="midnightblue" d="M122.5,-126.08C122.5,-116.43 122.5,-105.78 122.5,-98.77"/>
<polygon fill="midnightblue" stroke="midnightblue" points="119,-126.31 122.5,-136.31 126,-126.31 119,-126.31"/>
</g>
</g>
</svg>
