<?xml version="1.0" encoding="UTF-8" standalone="no"?>
<!DOCTYPE svg PUBLIC "-//W3C//DTD SVG 1.1//EN"
 "http://www.w3.org/Graphics/SVG/1.1/DTD/svg11.dtd">
<!-- Generated by graphviz version 2.43.0 (0)
 -->
<!-- Title: flow::net_flow::Syn_packet Pages: 1 -->
<svg width="1319pt" height="557pt"
 viewBox="0.00 0.00 1319.00 557.00" xmlns="http://www.w3.org/2000/svg" xmlns:xlink="http://www.w3.org/1999/xlink">
<g id="graph0" class="graph" transform="scale(1 1) rotate(0) translate(4 553)">
<title>flow::net_flow::Syn_packet</title>
<polygon fill="white" stroke="transparent" points="-4,4 -4,-553 1315,-553 1315,4 -4,4"/>
<!-- Node1 -->
<g id="node1" class="node">
<title>Node1</title>
<g id="a_node1"><a xlink:title="Internal net_flow struct that encapsulates the Flow&#45;protocol low&#45;level SYN packet.">
<polygon fill="#bfbfbf" stroke="black" points="1217,-52 1217,-78 1311,-78 1311,-52 1217,-52"/>
<text text-anchor="start" x="1225" y="-67.6" font-family="Helvetica,sans-Serif" font-size="8.00">flow::net_flow::Syn</text>
<text text-anchor="middle" x="1264" y="-58.6" font-family="Helvetica,sans-Serif" font-size="8.00">_packet</text>
</a>
</g>
</g>
<!-- Node2 -->
<g id="node2" class="node">
<title>Node2</title>
<g id="a_node2"><a xlink:href="structflow_1_1net__flow_1_1Low__lvl__packet.html" target="_top" xlink:title="Internal net_flow struct that encapsulates the Flow&#45;protocol low&#45;level packet structure and serves as...">
<polygon fill="white" stroke="black" points="977,-285 977,-311 1072,-311 1072,-285 977,-285"/>
<text text-anchor="start" x="985" y="-300.6" font-family="Helvetica,sans-Serif" font-size="8.00">flow::net_flow::Low</text>
<text text-anchor="middle" x="1024.5" y="-291.6" font-family="Helvetica,sans-Serif" font-size="8.00">_lvl_packet</text>
</a>
</g>
</g>
<!-- Node2&#45;&gt;Node1 -->
<g id="edge1" class="edge">
<title>Node2&#45;&gt;Node1</title>
<path fill="none" stroke="midnightblue" d="M1046.25,-277.64C1093.94,-230.85 1210.29,-116.71 1249.7,-78.05"/>
<polygon fill="midnightblue" stroke="midnightblue" points="1043.64,-275.3 1038.95,-284.81 1048.54,-280.3 1043.64,-275.3"/>
</g>
<!-- Node3 -->
<g id="node3" class="node">
<title>Node3</title>
<g id="a_node3"><a xlink:href="classflow_1_1util_1_1Null__interface.html" target="_top" xlink:title="An empty interface, consisting of nothing but a default virtual destructor, intended as a boiler&#45;plat...">
<polygon fill="white" stroke="black" points="165,-458.5 165,-475.5 279,-475.5 279,-458.5 165,-458.5"/>
<text text-anchor="middle" x="222" y="-465.1" font-family="Helvetica,sans-Serif" font-size="8.00">flow::util::Null_interface</text>
</a>
</g>
</g>
<!-- Node3&#45;&gt;Node2 -->
<g id="edge2" class="edge">
<title>Node3&#45;&gt;Node2</title>
<path fill="none" stroke="midnightblue" d="M289.4,-470.21C399.69,-474.38 627.31,-478.03 817,-449 876.15,-439.95 898.49,-449.03 947,-414 984.55,-386.88 1008.81,-335.19 1018.59,-311.04"/>
<polygon fill="midnightblue" stroke="midnightblue" points="289.23,-466.7 279.1,-469.81 288.95,-473.69 289.23,-466.7"/>
</g>
<!-- Node6 -->
<g id="node6" class="node">
<title>Node6</title>
<g id="a_node6"><a xlink:href="classflow_1_1log_1_1Logger.html" target="_top" xlink:title="Interface that the user should implement, passing the implementing Logger into logging classes (Flow&#39;...">
<polygon fill="white" stroke="black" points="442.5,-405.5 442.5,-422.5 528.5,-422.5 528.5,-405.5 442.5,-405.5"/>
<text text-anchor="middle" x="485.5" y="-412.1" font-family="Helvetica,sans-Serif" font-size="8.00">flow::log::Logger</text>
</a>
</g>
</g>
<!-- Node3&#45;&gt;Node6 -->
<g id="edge6" class="edge">
<title>Node3&#45;&gt;Node6</title>
<path fill="none" stroke="midnightblue" d="M282.36,-456.73C320.38,-449.94 370.72,-440.56 415,-431 426.78,-428.46 439.61,-425.4 451,-422.59"/>
<polygon fill="midnightblue" stroke="midnightblue" points="281.71,-453.29 272.48,-458.49 282.93,-460.19 281.71,-453.29"/>
</g>
<!-- Node4 -->
<g id="node4" class="node">
<title>Node4</title>
<g id="a_node4"><a xlink:href="classflow_1_1util_1_1Shared__ptr__alias__holder.html" target="_top" xlink:title=" ">
<polygon fill="white" stroke="black" points="663,-368.5 663,-403.5 817,-403.5 817,-368.5 663,-368.5"/>
<text text-anchor="start" x="671" y="-393.1" font-family="Helvetica,sans-Serif" font-size="8.00">flow::util::Shared</text>
<text text-anchor="start" x="671" y="-384.1" font-family="Helvetica,sans-Serif" font-size="8.00">_ptr_alias_holder&lt; boost</text>
<text text-anchor="middle" x="740" y="-375.1" font-family="Helvetica,sans-Serif" font-size="8.00">::shared_ptr&lt; Low_lvl_packet &gt; &gt;</text>
</a>
</g>
</g>
<!-- Node4&#45;&gt;Node2 -->
<g id="edge3" class="edge">
<title>Node4&#45;&gt;Node2</title>
<path fill="none" stroke="midnightblue" d="M827.21,-381.8C865.09,-377.65 909.4,-369.59 947,-354 971.48,-343.85 995.43,-324.32 1009.83,-311.22"/>
<polygon fill="midnightblue" stroke="midnightblue" points="826.81,-378.32 817.22,-382.82 827.52,-385.29 826.81,-378.32"/>
</g>
<!-- Node5 -->
<g id="node5" class="node">
<title>Node5</title>
<g id="a_node5"><a xlink:href="classflow_1_1log_1_1Log__context.html" target="_top" xlink:title="Convenience class that simply stores a Logger and/or Component passed into a constructor; and returns...">
<polygon fill="white" stroke="black" points="686.5,-422.5 686.5,-439.5 793.5,-439.5 793.5,-422.5 686.5,-422.5"/>
<text text-anchor="middle" x="740" y="-429.1" font-family="Helvetica,sans-Serif" font-size="8.00">flow::log::Log_context</text>
</a>
</g>
</g>
<!-- Node5&#45;&gt;Node2 -->
<g id="edge4" class="edge">
<title>Node5&#45;&gt;Node2</title>
<path fill="none" stroke="midnightblue" d="M803.73,-425.85C846.53,-420.08 903.18,-407.86 947,-382 977.58,-363.96 1002.98,-329.76 1015.36,-311.04"/>
<polygon fill="midnightblue" stroke="midnightblue" points="803.2,-422.39 793.72,-427.12 804.08,-429.33 803.2,-422.39"/>
</g>
<!-- Node6&#45;&gt;Node5 -->
<g id="edge5" class="edge">
<title>Node6&#45;&gt;Node5</title>
<path fill="none" stroke="#9a32cd" stroke-dasharray="5,2" d="M538.77,-412.2C569.71,-411.67 609.66,-411.9 645,-415 662.32,-416.52 681.24,-419.48 697.54,-422.45"/>
<polygon fill="#9a32cd" stroke="#9a32cd" points="538.56,-408.71 528.64,-412.41 538.7,-415.71 538.56,-408.71"/>
<text text-anchor="middle" x="600.5" y="-417.6" font-family="Helvetica,sans-Serif" font-size="8.00"> m_logger</text>
</g>
<!-- Node7 -->
<g id="node7" class="node">
<title>Node7</title>
<g id="a_node7"><a xlink:href="classflow_1_1util_1_1Unique__id__holder.html" target="_top" xlink:title="Each object of this class stores (at construction) and returns (on demand) a numeric ID unique from a...">
<polygon fill="white" stroke="red" points="178.5,-412 178.5,-438 265.5,-438 265.5,-412 178.5,-412"/>
<text text-anchor="start" x="186.5" y="-427.6" font-family="Helvetica,sans-Serif" font-size="8.00">flow::util::Unique</text>
<text text-anchor="middle" x="222" y="-418.6" font-family="Helvetica,sans-Serif" font-size="8.00">_id_holder</text>
</a>
</g>
</g>
<!-- Node7&#45;&gt;Node6 -->
<g id="edge7" class="edge">
<title>Node7&#45;&gt;Node6</title>
<path fill="none" stroke="midnightblue" d="M275.7,-422.78C324.78,-420.72 397,-417.68 442.36,-415.77"/>
<polygon fill="midnightblue" stroke="midnightblue" points="275.44,-419.29 265.6,-423.21 275.73,-426.28 275.44,-419.29"/>
</g>
<!-- Node8 -->
<g id="node8" class="node">
<title>Node8</title>
<g id="a_node8"><a xlink:title=" ">
<polygon fill="white" stroke="#bfbfbf" points="0,-233.5 0,-250.5 50,-250.5 50,-233.5 0,-233.5"/>
<text text-anchor="middle" x="25" y="-240.1" font-family="Helvetica,sans-Serif" font-size="8.00">uint64_t</text>
</a>
</g>
</g>
<!-- Node8&#45;&gt;Node7 -->
<g id="edge8" class="edge">
<title>Node8&#45;&gt;Node7</title>
<path fill="none" stroke="#9a32cd" stroke-dasharray="5,2" d="M36.44,-259.51C56.71,-292.13 104.51,-362.55 162,-403 167.01,-406.52 172.65,-409.56 178.4,-412.15"/>
<polygon fill="#9a32cd" stroke="#9a32cd" points="39.24,-257.39 31.05,-250.68 33.27,-261.04 39.24,-257.39"/>
<text text-anchor="middle" x="106" y="-391.6" font-family="Helvetica,sans-Serif" font-size="8.00"> m_id</text>
</g>
<!-- Node22 -->
<g id="node21" class="node">
<title>Node22</title>
<g id="a_node21"><a xlink:href="classflow_1_1net__flow_1_1Sequence__number.html" target="_top" xlink:title="An internal net_flow sequence number identifying a piece of data.">
<polygon fill="white" stroke="black" points="162,-157 162,-183 282,-183 282,-157 162,-157"/>
<text text-anchor="start" x="170" y="-172.6" font-family="Helvetica,sans-Serif" font-size="8.00">flow::net_flow::Sequence</text>
<text text-anchor="middle" x="222" y="-163.6" font-family="Helvetica,sans-Serif" font-size="8.00">_number</text>
</a>
</g>
</g>
<!-- Node8&#45;&gt;Node22 -->
<g id="edge25" class="edge">
<title>Node8&#45;&gt;Node22</title>
<path fill="none" stroke="#9a32cd" stroke-dasharray="5,2" d="M58.92,-229.85C94.09,-216.86 149.64,-196.35 185.7,-183.03"/>
<polygon fill="#9a32cd" stroke="#9a32cd" points="57.3,-226.71 49.13,-233.46 59.73,-233.28 57.3,-226.71"/>
<text text-anchor="middle" x="106" y="-238.6" font-family="Helvetica,sans-Serif" font-size="8.00"> m_num</text>
<text text-anchor="middle" x="106" y="-229.6" font-family="Helvetica,sans-Serif" font-size="8.00">m_zero_point_num</text>
</g>
<!-- Node10 -->
<g id="node9" class="node">
<title>Node10</title>
<g id="a_node9"><a xlink:title=" ">
<polygon fill="white" stroke="#bfbfbf" points="172.5,-329.5 172.5,-346.5 271.5,-346.5 271.5,-329.5 172.5,-329.5"/>
<text text-anchor="middle" x="222" y="-336.1" font-family="Helvetica,sans-Serif" font-size="8.00">boost::noncopyable</text>
</a>
</g>
</g>
<!-- Node10&#45;&gt;Node2 -->
<g id="edge14" class="edge">
<title>Node10&#45;&gt;Node2</title>
<path fill="none" stroke="#8b1a1a" d="M281.76,-336.98C388.44,-334.95 621.04,-329.75 817,-320 874.84,-317.12 889.49,-317.86 947,-311 956.63,-309.85 966.9,-308.32 976.68,-306.71"/>
<polygon fill="#8b1a1a" stroke="#8b1a1a" points="281.47,-333.48 271.53,-337.17 281.6,-340.48 281.47,-333.48"/>
</g>
<!-- Node10&#45;&gt;Node6 -->
<g id="edge9" class="edge">
<title>Node10&#45;&gt;Node6</title>
<path fill="none" stroke="#8b1a1a" d="M278.27,-348.6C317.02,-356.67 369.77,-368.95 415,-384 433.21,-390.06 453.25,-398.97 467.12,-405.5"/>
<polygon fill="#8b1a1a" stroke="#8b1a1a" points="278.73,-345.12 268.23,-346.54 277.32,-351.98 278.73,-345.12"/>
</g>
<!-- Node20 -->
<g id="node19" class="node">
<title>Node20</title>
<g id="a_node19"><a xlink:href="structflow_1_1net__flow_1_1Low__lvl__packet_1_1Aux__raw__data.html" target="_top" xlink:title="Helper data store type for storing binary data needed by serialize_to_raw_data(), when certains bits ...">
<polygon fill="white" stroke="black" points="678.5,-285 678.5,-311 801.5,-311 801.5,-285 678.5,-285"/>
<text text-anchor="start" x="686.5" y="-300.6" font-family="Helvetica,sans-Serif" font-size="8.00">flow::net_flow::Low</text>
<text text-anchor="middle" x="740" y="-291.6" font-family="Helvetica,sans-Serif" font-size="8.00">_lvl_packet::Aux_raw_data</text>
</a>
</g>
</g>
<!-- Node10&#45;&gt;Node20 -->
<g id="edge21" class="edge">
<title>Node10&#45;&gt;Node20</title>
<path fill="none" stroke="#8b1a1a" d="M274.88,-327.69C283.25,-326.28 291.85,-324.98 300,-324 434.55,-307.84 593.57,-301.59 678.44,-299.28"/>
<polygon fill="#8b1a1a" stroke="#8b1a1a" points="274.07,-324.27 264.82,-329.45 275.28,-331.17 274.07,-324.27"/>
</g>
<!-- Node11 -->
<g id="node10" class="node">
<title>Node11</title>
<g id="a_node10"><a xlink:title=" ">
<polygon fill="white" stroke="#bfbfbf" points="175,-367 175,-393 269,-393 269,-367 175,-367"/>
<text text-anchor="start" x="183" y="-382.6" font-family="Helvetica,sans-Serif" font-size="8.00">thread_specific_ptr</text>
<text text-anchor="middle" x="222" y="-373.6" font-family="Helvetica,sans-Serif" font-size="8.00">&lt; std::string &gt;</text>
</a>
</g>
</g>
<!-- Node11&#45;&gt;Node6 -->
<g id="edge10" class="edge">
<title>Node11&#45;&gt;Node6</title>
<path fill="none" stroke="#9a32cd" stroke-dasharray="5,2" d="M279.65,-386.22C317.92,-390.56 369.56,-396.68 415,-403 423.83,-404.23 433.28,-405.65 442.27,-407.06"/>
<polygon fill="#9a32cd" stroke="#9a32cd" points="279.56,-382.69 269.23,-385.04 278.77,-389.64 279.56,-382.69"/>
<text text-anchor="middle" x="357.5" y="-405.6" font-family="Helvetica,sans-Serif" font-size="8.00"> s_this_thread_nickname_ptr</text>
</g>
<!-- Node12 -->
<g id="node11" class="node">
<title>Node12</title>
<g id="a_node11"><a xlink:href="classflow_1_1log_1_1Component.html" target="_top" xlink:title="A light&#45;weight class, each object storing a component payload encoding an enum value from enum type o...">
<polygon fill="white" stroke="black" points="433,-498.5 433,-515.5 538,-515.5 538,-498.5 433,-498.5"/>
<text text-anchor="middle" x="485.5" y="-505.1" font-family="Helvetica,sans-Serif" font-size="8.00">flow::log::Component</text>
</a>
</g>
</g>
<!-- Node12&#45;&gt;Node5 -->
<g id="edge11" class="edge">
<title>Node12&#45;&gt;Node5</title>
<path fill="none" stroke="#9a32cd" stroke-dasharray="5,2" d="M524.65,-495.52C575.71,-480.15 665.11,-453.24 710.63,-439.54"/>
<polygon fill="#9a32cd" stroke="#9a32cd" points="523.54,-492.2 514.97,-498.43 525.56,-498.9 523.54,-492.2"/>
<text text-anchor="middle" x="600.5" y="-486.6" font-family="Helvetica,sans-Serif" font-size="8.00"> m_component</text>
</g>
<!-- Node13 -->
<g id="node12" class="node">
<title>Node13</title>
<g id="a_node12"><a xlink:title=" ">
<polygon fill="white" stroke="#bfbfbf" points="179.5,-495.5 179.5,-512.5 264.5,-512.5 264.5,-495.5 179.5,-495.5"/>
<text text-anchor="middle" x="222" y="-502.1" font-family="Helvetica,sans-Serif" font-size="8.00">type_info const *</text>
</a>
</g>
</g>
<!-- Node13&#45;&gt;Node12 -->
<g id="edge12" class="edge">
<title>Node13&#45;&gt;Node12</title>
<path fill="none" stroke="#9a32cd" stroke-dasharray="5,2" d="M274.73,-504.59C320.44,-505.12 386.79,-505.88 432.57,-506.4"/>
<polygon fill="#9a32cd" stroke="#9a32cd" points="274.76,-501.09 264.72,-504.48 274.68,-508.09 274.76,-501.09"/>
<text text-anchor="middle" x="357.5" y="-508.6" font-family="Helvetica,sans-Serif" font-size="8.00"> m_payload_type_or_null</text>
</g>
<!-- Node14 -->
<g id="node13" class="node">
<title>Node14</title>
<g id="a_node13"><a xlink:title=" ">
<polygon fill="white" stroke="#bfbfbf" points="188,-531.5 188,-548.5 256,-548.5 256,-531.5 188,-531.5"/>
<text text-anchor="middle" x="222" y="-538.1" font-family="Helvetica,sans-Serif" font-size="8.00">unsigned int</text>
</a>
</g>
</g>
<!-- Node14&#45;&gt;Node12 -->
<g id="edge13" class="edge">
<title>Node14&#45;&gt;Node12</title>
<path fill="none" stroke="#9a32cd" stroke-dasharray="5,2" d="M266.45,-535.56C305.41,-531.45 364.1,-524.94 415,-518 420.81,-517.21 426.88,-516.33 432.92,-515.42"/>
<polygon fill="#9a32cd" stroke="#9a32cd" points="265.59,-532.13 256.01,-536.65 266.32,-539.09 265.59,-532.13"/>
<text text-anchor="start" x="311" y="-542.6" font-family="Helvetica,sans-Serif" font-size="8.00"> m_payload_enum_raw</text>
<text text-anchor="middle" x="357.5" y="-533.6" font-family="Helvetica,sans-Serif" font-size="8.00">_value</text>
</g>
<!-- Node15 -->
<g id="node14" class="node">
<title>Node15</title>
<g id="a_node14"><a xlink:href="classbool.html" target="_top" xlink:title=" ">
<polygon fill="white" stroke="#bfbfbf" points="722.5,-248.5 722.5,-265.5 757.5,-265.5 757.5,-248.5 722.5,-248.5"/>
<text text-anchor="middle" x="740" y="-255.1" font-family="Helvetica,sans-Serif" font-size="8.00">bool</text>
</a>
</g>
</g>
<!-- Node15&#45;&gt;Node2 -->
<g id="edge15" class="edge">
<title>Node15&#45;&gt;Node2</title>
<path fill="none" stroke="#9a32cd" stroke-dasharray="5,2" d="M767.66,-260.34C806.97,-265.32 882.75,-275.18 947,-285 956.59,-286.47 966.83,-288.14 976.61,-289.78"/>
<polygon fill="#9a32cd" stroke="#9a32cd" points="767.94,-256.84 757.58,-259.06 767.07,-263.79 767.94,-256.84"/>
<text text-anchor="middle" x="891" y="-287.6" font-family="Helvetica,sans-Serif" font-size="8.00"> m_opt_rexmit_on</text>
</g>
<!-- Node16 -->
<g id="node15" class="node">
<title>Node16</title>
<g id="a_node15"><a xlink:title=" ">
<polygon fill="white" stroke="#bfbfbf" points="460.5,-229.5 460.5,-246.5 510.5,-246.5 510.5,-229.5 460.5,-229.5"/>
<text text-anchor="middle" x="485.5" y="-236.1" font-family="Helvetica,sans-Serif" font-size="8.00">uint16_t</text>
</a>
</g>
</g>
<!-- Node16&#45;&gt;Node2 -->
<g id="edge16" class="edge">
<title>Node16&#45;&gt;Node2</title>
<path fill="none" stroke="#9a32cd" stroke-dasharray="5,2" d="M520.87,-231.36C581.25,-220.78 710.1,-203.02 817,-221 885.11,-232.45 959.83,-266.04 997.98,-284.85"/>
<polygon fill="#9a32cd" stroke="#9a32cd" points="519.98,-227.96 510.76,-233.18 521.22,-234.85 519.98,-227.96"/>
<text text-anchor="middle" x="740" y="-232.6" font-family="Helvetica,sans-Serif" font-size="8.00"> m_dst_port</text>
<text text-anchor="middle" x="740" y="-223.6" font-family="Helvetica,sans-Serif" font-size="8.00">m_src_port</text>
</g>
<!-- Node16&#45;&gt;Node20 -->
<g id="edge23" class="edge">
<title>Node16&#45;&gt;Node20</title>
<path fill="none" stroke="#9a32cd" stroke-dasharray="5,2" d="M520.53,-246.39C531.81,-249.15 544.44,-252.23 556,-255 598.53,-265.2 646.67,-276.5 682.9,-284.96"/>
<polygon fill="#9a32cd" stroke="#9a32cd" points="521.16,-242.94 510.61,-243.95 519.49,-249.74 521.16,-242.94"/>
<text text-anchor="middle" x="600.5" y="-278.6" font-family="Helvetica,sans-Serif" font-size="8.00"> m_reserved2</text>
</g>
<!-- Node17 -->
<g id="node16" class="node">
<title>Node17</title>
<g id="a_node16"><a xlink:title=" ">
<polygon fill="white" stroke="#bfbfbf" points="685.5,-158.5 685.5,-175.5 794.5,-175.5 794.5,-158.5 685.5,-158.5"/>
<text text-anchor="middle" x="740" y="-165.1" font-family="Helvetica,sans-Serif" font-size="8.00">anonymous:m_packed</text>
</a>
</g>
</g>
<!-- Node17&#45;&gt;Node2 -->
<g id="edge17" class="edge">
<title>Node17&#45;&gt;Node2</title>
<path fill="none" stroke="#9a32cd" stroke-dasharray="5,2" d="M804.75,-160.65C847.77,-159.38 904.26,-163.81 947,-189 985.04,-211.42 1008.9,-261.06 1018.57,-284.82"/>
<polygon fill="#9a32cd" stroke="#9a32cd" points="804.53,-157.15 794.68,-161.06 804.82,-164.15 804.53,-157.15"/>
<text text-anchor="middle" x="891" y="-191.6" font-family="Helvetica,sans-Serif" font-size="8.00"> m_packed</text>
</g>
<!-- Node18 -->
<g id="node17" class="node">
<title>Node18</title>
<g id="a_node17"><a xlink:href="classflow_1_1Function.html" target="_top" xlink:title=" ">
<polygon fill="white" stroke="#bfbfbf" points="671,-113 671,-139 809,-139 809,-113 671,-113"/>
<text text-anchor="start" x="679" y="-128.6" font-family="Helvetica,sans-Serif" font-size="8.00">flow::Function&lt; std</text>
<text text-anchor="middle" x="740" y="-119.6" font-family="Helvetica,sans-Serif" font-size="8.00">::ostream &amp;(std::ostream &amp;)&gt;</text>
</a>
</g>
</g>
<!-- Node18&#45;&gt;Node2 -->
<g id="edge18" class="edge">
<title>Node18&#45;&gt;Node2</title>
<path fill="none" stroke="#9a32cd" stroke-dasharray="5,2" d="M802.85,-111.32C846.66,-104.54 904.88,-103.24 947,-131 1001.32,-166.8 1017.65,-251.59 1022.04,-284.56"/>
<polygon fill="#9a32cd" stroke="#9a32cd" points="802.17,-107.88 792.89,-112.99 803.33,-114.79 802.17,-107.88"/>
<text text-anchor="middle" x="891" y="-151.6" font-family="Helvetica,sans-Serif" font-size="8.00"> m_concise_ostream_manip</text>
<text text-anchor="middle" x="891" y="-142.6" font-family="Helvetica,sans-Serif" font-size="8.00">m_type_ostream_manip</text>
<text text-anchor="middle" x="891" y="-133.6" font-family="Helvetica,sans-Serif" font-size="8.00">m_verbose_ostream_manip</text>
</g>
<!-- Node19 -->
<g id="node18" class="node">
<title>Node19</title>
<g id="a_node18"><a xlink:title=" ">
<polygon fill="white" stroke="#bfbfbf" points="681.5,-499 681.5,-543 798.5,-543 798.5,-499 681.5,-499"/>
<text text-anchor="start" x="689.5" y="-532.6" font-family="Helvetica,sans-Serif" font-size="8.00">unordered_map&lt; std</text>
<text text-anchor="start" x="689.5" y="-523.6" font-family="Helvetica,sans-Serif" font-size="8.00">::type_index, flow::</text>
<text text-anchor="start" x="689.5" y="-514.6" font-family="Helvetica,sans-Serif" font-size="8.00">net_flow::Low_lvl_packet</text>
<text text-anchor="middle" x="740" y="-505.6" font-family="Helvetica,sans-Serif" font-size="8.00">::Packet_type_info &gt;</text>
</a>
</g>
</g>
<!-- Node19&#45;&gt;Node2 -->
<g id="edge19" class="edge">
<title>Node19&#45;&gt;Node2</title>
<path fill="none" stroke="#9a32cd" stroke-dasharray="5,2" d="M808.65,-524.7C852.5,-523.59 908.44,-515.13 947,-484 1002.97,-438.82 1018.4,-345.91 1022.29,-311.34"/>
<polygon fill="#9a32cd" stroke="#9a32cd" points="808.58,-521.2 798.63,-524.84 808.68,-528.2 808.58,-521.2"/>
<text text-anchor="start" x="845.5" y="-533.6" font-family="Helvetica,sans-Serif" font-size="8.00"> S_NATIVE_TYPE_ID_TO</text>
<text text-anchor="middle" x="891" y="-524.6" font-family="Helvetica,sans-Serif" font-size="8.00">_PACKET_TYPE_INFO</text>
</g>
<!-- Node20&#45;&gt;Node2 -->
<g id="edge20" class="edge">
<title>Node20&#45;&gt;Node2</title>
<path fill="none" stroke="#9a32cd" stroke-dasharray="5,2" d="M811.7,-298C863.39,-298 932.03,-298 976.96,-298"/>
<polygon fill="#9a32cd" stroke="#9a32cd" points="811.6,-294.5 801.6,-298 811.6,-301.5 811.6,-294.5"/>
<text text-anchor="middle" x="891" y="-300.6" font-family="Helvetica,sans-Serif" font-size="8.00"> m_aux_raw_data</text>
</g>
<!-- Node21 -->
<g id="node20" class="node">
<title>Node21</title>
<g id="a_node20"><a xlink:title=" ">
<polygon fill="white" stroke="#bfbfbf" points="448,-121.5 448,-138.5 523,-138.5 523,-121.5 448,-121.5"/>
<text text-anchor="middle" x="485.5" y="-128.1" font-family="Helvetica,sans-Serif" font-size="8.00">unsigned char</text>
</a>
</g>
</g>
<!-- Node21&#45;&gt;Node1 -->
<g id="edge29" class="edge">
<title>Node21&#45;&gt;Node1</title>
<path fill="none" stroke="#9a32cd" stroke-dasharray="5,2" d="M533.29,-121.69C568.78,-115.66 618.82,-107.77 663,-103 868.99,-80.77 1116.27,-70.17 1216.96,-66.52"/>
<polygon fill="#9a32cd" stroke="#9a32cd" points="532.49,-118.27 523.22,-123.41 533.67,-125.17 532.49,-118.27"/>
<text text-anchor="middle" x="891" y="-90.6" font-family="Helvetica,sans-Serif" font-size="8.00"> S_RAW_TYPE_ID</text>
</g>
<!-- Node21&#45;&gt;Node20 -->
<g id="edge22" class="edge">
<title>Node21&#45;&gt;Node20</title>
<path fill="none" stroke="#9a32cd" stroke-dasharray="5,2" d="M510.99,-143.82C544.21,-163.41 604.08,-201.83 645,-246 655.31,-257.13 650.97,-265.76 663,-275 668.14,-278.94 673.95,-282.22 680.02,-284.93"/>
<polygon fill="#9a32cd" stroke="#9a32cd" points="512.38,-140.58 501.98,-138.58 508.86,-146.63 512.38,-140.58"/>
<text text-anchor="middle" x="600.5" y="-248.6" font-family="Helvetica,sans-Serif" font-size="8.00"> m_opt_rexmit_on_raw</text>
</g>
<!-- Node22&#45;&gt;Node1 -->
<g id="edge24" class="edge">
<title>Node22&#45;&gt;Node1</title>
<path fill="none" stroke="#9a32cd" stroke-dasharray="5,2" d="M245.96,-150.47C289.46,-115.55 388.17,-46 484.5,-46 484.5,-46 484.5,-46 1025.5,-46 1092.1,-46 1168.86,-53.51 1216.67,-59.09"/>
<polygon fill="#9a32cd" stroke="#9a32cd" points="243.55,-147.93 238.02,-156.96 247.97,-153.35 243.55,-147.93"/>
<text text-anchor="middle" x="740" y="-48.6" font-family="Helvetica,sans-Serif" font-size="8.00"> m_init_seq_num</text>
</g>
<!-- Node23 -->
<g id="node22" class="node">
<title>Node23</title>
<g id="a_node22"><a xlink:title=" ">
<polygon fill="white" stroke="#bfbfbf" points="7.5,-143.5 7.5,-160.5 42.5,-160.5 42.5,-143.5 7.5,-143.5"/>
<text text-anchor="middle" x="25" y="-150.1" font-family="Helvetica,sans-Serif" font-size="8.00">char</text>
</a>
</g>
</g>
<!-- Node23&#45;&gt;Node22 -->
<g id="edge26" class="edge">
<title>Node23&#45;&gt;Node22</title>
<path fill="none" stroke="#9a32cd" stroke-dasharray="5,2" d="M52.96,-152.19C76.92,-152.58 112.88,-153.73 144,-157 149.8,-157.61 155.82,-158.38 161.83,-159.24"/>
<polygon fill="#9a32cd" stroke="#9a32cd" points="52.9,-148.69 42.85,-152.05 52.81,-155.68 52.9,-148.69"/>
<text text-anchor="middle" x="106" y="-159.6" font-family="Helvetica,sans-Serif" font-size="8.00"> m_num_line_id</text>
</g>
<!-- Node24 -->
<g id="node23" class="node">
<title>Node24</title>
<g id="a_node23"><a xlink:title=" ">
<polygon fill="white" stroke="#bfbfbf" points="3,-179.5 3,-196.5 47,-196.5 47,-179.5 3,-179.5"/>
<text text-anchor="middle" x="25" y="-186.1" font-family="Helvetica,sans-Serif" font-size="8.00">int64_t</text>
</a>
</g>
</g>
<!-- Node24&#45;&gt;Node22 -->
<g id="edge27" class="edge">
<title>Node24&#45;&gt;Node22</title>
<path fill="none" stroke="#9a32cd" stroke-dasharray="5,2" d="M57.27,-185.11C85.32,-182.52 127.24,-178.65 161.65,-175.48"/>
<polygon fill="#9a32cd" stroke="#9a32cd" points="56.88,-181.63 47.24,-186.04 57.52,-188.61 56.88,-181.63"/>
<text text-anchor="middle" x="106" y="-187.6" font-family="Helvetica,sans-Serif" font-size="8.00"> m_multiple_size</text>
</g>
<!-- Node25 -->
<g id="node24" class="node">
<title>Node25</title>
<g id="a_node24"><a xlink:title=" ">
<polygon fill="white" stroke="#bfbfbf" points="965,-0.5 965,-17.5 1084,-17.5 1084,-0.5 965,-0.5"/>
<text text-anchor="middle" x="1024.5" y="-7.1" font-family="Helvetica,sans-Serif" font-size="8.00">Blob_with_log_context&lt;&gt;</text>
</a>
</g>
</g>
<!-- Node25&#45;&gt;Node1 -->
<g id="edge28" class="edge">
<title>Node25&#45;&gt;Node1</title>
<path fill="none" stroke="#9a32cd" stroke-dasharray="5,2" d="M1094.33,-6.76C1126.84,-7.65 1165.73,-11.58 1199,-23 1217.35,-29.3 1235.59,-42.07 1247.87,-51.89"/>
<polygon fill="#9a32cd" stroke="#9a32cd" points="1094.07,-3.26 1084.01,-6.57 1093.94,-10.26 1094.07,-3.26"/>
<text text-anchor="middle" x="1150.5" y="-25.6" font-family="Helvetica,sans-Serif" font-size="8.00"> m_serialized_metadata</text>
</g>
</g>
</svg>
