<?xml version="1.0" encoding="UTF-8" standalone="no"?>
<!DOCTYPE svg PUBLIC "-//W3C//DTD SVG 1.1//EN"
 "http://www.w3.org/Graphics/SVG/1.1/DTD/svg11.dtd">
<!-- Generated by graphviz version 2.43.0 (0)
 -->
<!-- Title: flow::net_flow::Node::Socket_id Pages: 1 -->
<svg width="246pt" height="170pt"
 viewBox="0.00 0.00 245.50 170.00" xmlns="http://www.w3.org/2000/svg" xmlns:xlink="http://www.w3.org/1999/xlink">
<g id="graph0" class="graph" transform="scale(1 1) rotate(0) translate(4 166)">
<title>flow::net_flow::Node::Socket_id</title>
<polygon fill="white" stroke="transparent" points="-4,4 -4,-166 241.5,-166 241.5,4 -4,4"/>
<!-- Node1 -->
<g id="node1" class="node">
<title>Node1</title>
<g id="a_node1"><a xlink:title="The data nugget uniquely identifying a peer&#45;to&#45;peer connection from a remote endpoint to a port in th...">
<polygon fill="#bfbfbf" stroke="black" points="86,-0.5 86,-26.5 187,-26.5 187,-0.5 86,-0.5"/>
<text text-anchor="start" x="94" y="-16.1" font-family="Helvetica,sans-Serif" font-size="8.00">flow::net_flow::Node</text>
<text text-anchor="middle" x="136.5" y="-7.1" font-family="Helvetica,sans-Serif" font-size="8.00">::Socket_id</text>
</a>
</g>
</g>
<!-- Node2 -->
<g id="node2" class="node">
<title>Node2</title>
<g id="a_node2"><a xlink:href="structflow_1_1net__flow_1_1Remote__endpoint.html" target="_top" xlink:title="Represents the remote endpoint of a Flow&#45;protocol connection; identifies the UDP endpoint of the remo...">
<polygon fill="white" stroke="black" points="32.5,-72.5 32.5,-98.5 142.5,-98.5 142.5,-72.5 32.5,-72.5"/>
<text text-anchor="start" x="40.5" y="-88.1" font-family="Helvetica,sans-Serif" font-size="8.00">flow::net_flow::Remote</text>
<text text-anchor="middle" x="87.5" y="-79.1" font-family="Helvetica,sans-Serif" font-size="8.00">_endpoint</text>
</a>
</g>
</g>
<!-- Node2&#45;&gt;Node1 -->
<g id="edge1" class="edge">
<title>Node2&#45;&gt;Node1</title>
<path fill="none" stroke="#9a32cd" stroke-dasharray="5,2" d="M84.39,-62.22C84.52,-56.31 85.59,-50.15 88.5,-45 92.88,-37.27 100.11,-31.2 107.65,-26.59"/>
<polygon fill="#9a32cd" stroke="#9a32cd" points="80.9,-62.53 84.97,-72.31 87.89,-62.13 80.9,-62.53"/>
<text text-anchor="middle" x="130.5" y="-47.6" font-family="Helvetica,sans-Serif" font-size="8.00"> m_remote_endpoint</text>
</g>
<!-- Node3 -->
<g id="node3" class="node">
<title>Node3</title>
<g id="a_node3"><a xlink:title=" ">
<polygon fill="white" stroke="#bfbfbf" points="0,-144.5 0,-161.5 53,-161.5 53,-144.5 0,-144.5"/>
<text text-anchor="middle" x="26.5" y="-151.1" font-family="Helvetica,sans-Serif" font-size="8.00">endpoint</text>
</a>
</g>
</g>
<!-- Node3&#45;&gt;Node2 -->
<g id="edge2" class="edge">
<title>Node3&#45;&gt;Node2</title>
<path fill="none" stroke="#9a32cd" stroke-dasharray="5,2" d="M23.53,-134.12C23.43,-128.28 24.33,-122.01 27.5,-117 32.56,-109 40.43,-103.01 48.82,-98.56"/>
<polygon fill="#9a32cd" stroke="#9a32cd" points="20.08,-134.82 24.62,-144.39 27.04,-134.08 20.08,-134.82"/>
<text text-anchor="middle" x="62.5" y="-119.6" font-family="Helvetica,sans-Serif" font-size="8.00"> m_udp_endpoint</text>
</g>
<!-- Node4 -->
<g id="node4" class="node">
<title>Node4</title>
<g id="a_node4"><a xlink:title=" ">
<polygon fill="white" stroke="#bfbfbf" points="127.5,-144.5 127.5,-161.5 177.5,-161.5 177.5,-144.5 127.5,-144.5"/>
<text text-anchor="middle" x="152.5" y="-151.1" font-family="Helvetica,sans-Serif" font-size="8.00">uint16_t</text>
</a>
</g>
</g>
<!-- Node4&#45;&gt;Node1 -->
<g id="edge4" class="edge">
<title>Node4&#45;&gt;Node1</title>
<path fill="none" stroke="#9a32cd" stroke-dasharray="5,2" d="M167.2,-136.17C169.37,-133.01 171.29,-129.56 172.5,-126 184.09,-91.92 187.64,-77.66 172.5,-45 169.12,-37.72 163.06,-31.54 156.86,-26.69"/>
<polygon fill="#9a32cd" stroke="#9a32cd" points="164.3,-134.2 160.74,-144.18 169.74,-138.59 164.3,-134.2"/>
<text text-anchor="middle" x="210.5" y="-83.6" font-family="Helvetica,sans-Serif" font-size="8.00"> m_local_port</text>
</g>
<!-- Node4&#45;&gt;Node2 -->
<g id="edge3" class="edge">
<title>Node4&#45;&gt;Node2</title>
<path fill="none" stroke="#9a32cd" stroke-dasharray="5,2" d="M134.12,-138.08C129.52,-134.32 124.7,-130.15 120.5,-126 111.85,-117.47 103.08,-106.85 96.75,-98.78"/>
<polygon fill="#9a32cd" stroke="#9a32cd" points="131.97,-140.83 141.98,-144.28 136.3,-135.34 131.97,-140.83"/>
<text text-anchor="middle" x="146.5" y="-119.6" font-family="Helvetica,sans-Serif" font-size="8.00"> m_flow_port</text>
</g>
</g>
</svg>
