<?xml version="1.0" encoding="UTF-8" standalone="no"?>
<!DOCTYPE svg PUBLIC "-//W3C//DTD SVG 1.1//EN"
 "http://www.w3.org/Graphics/SVG/1.1/DTD/svg11.dtd">
<!-- Generated by graphviz version 2.43.0 (0)
 -->
<!-- Title: flow::net_flow::Ack_packet Pages: 1 -->
<svg width="1292pt" height="673pt"
 viewBox="0.00 0.00 1292.00 673.00" xmlns="http://www.w3.org/2000/svg" xmlns:xlink="http://www.w3.org/1999/xlink">
<g id="graph0" class="graph" transform="scale(1 1) rotate(0) translate(4 669)">
<title>flow::net_flow::Ack_packet</title>
<polygon fill="white" stroke="transparent" points="-4,4 -4,-669 1288,-669 1288,4 -4,4"/>
<!-- Node1 -->
<g id="node1" class="node">
<title>Node1</title>
<g id="a_node1"><a xlink:title="Internal net_flow struct that encapsulates the Flow&#45;protocol low&#45;level ACK packet.">
<polygon fill="#bfbfbf" stroke="black" points="1191,-154 1191,-180 1284,-180 1284,-154 1191,-154"/>
<text text-anchor="start" x="1199" y="-169.6" font-family="Helvetica,sans-Serif" font-size="8.00">flow::net_flow::Ack</text>
<text text-anchor="middle" x="1237.5" y="-160.6" font-family="Helvetica,sans-Serif" font-size="8.00">_packet</text>
</a>
</g>
</g>
<!-- Node2 -->
<g id="node2" class="node">
<title>Node2</title>
<g id="a_node2"><a xlink:href="structflow_1_1net__flow_1_1Low__lvl__packet.html" target="_top" xlink:title="Internal net_flow struct that encapsulates the Flow&#45;protocol low&#45;level packet structure and serves as...">
<polygon fill="white" stroke="black" points="950.5,-328 950.5,-354 1045.5,-354 1045.5,-328 950.5,-328"/>
<text text-anchor="start" x="958.5" y="-343.6" font-family="Helvetica,sans-Serif" font-size="8.00">flow::net_flow::Low</text>
<text text-anchor="middle" x="998" y="-334.6" font-family="Helvetica,sans-Serif" font-size="8.00">_lvl_packet</text>
</a>
</g>
</g>
<!-- Node2&#45;&gt;Node1 -->
<g id="edge1" class="edge">
<title>Node2&#45;&gt;Node1</title>
<path fill="none" stroke="midnightblue" d="M1024.97,-321.97C1073.48,-286.43 1176.72,-210.8 1218.44,-180.23"/>
<polygon fill="midnightblue" stroke="midnightblue" points="1022.85,-319.19 1016.85,-327.92 1026.99,-324.84 1022.85,-319.19"/>
</g>
<!-- Node3 -->
<g id="node3" class="node">
<title>Node3</title>
<g id="a_node3"><a xlink:href="classflow_1_1util_1_1Null__interface.html" target="_top" xlink:title="An empty interface, consisting of nothing but a default virtual destructor, intended as a boiler&#45;plat...">
<polygon fill="white" stroke="black" points="108,-316.5 108,-333.5 222,-333.5 222,-316.5 108,-316.5"/>
<text text-anchor="middle" x="165" y="-323.1" font-family="Helvetica,sans-Serif" font-size="8.00">flow::util::Null_interface</text>
</a>
</g>
</g>
<!-- Node3&#45;&gt;Node2 -->
<g id="edge2" class="edge">
<title>Node3&#45;&gt;Node2</title>
<path fill="none" stroke="midnightblue" d="M232.49,-326.28C395.29,-329.41 810.75,-337.41 950.4,-340.1"/>
<polygon fill="midnightblue" stroke="midnightblue" points="232.2,-322.77 222.14,-326.08 232.07,-329.77 232.2,-322.77"/>
</g>
<!-- Node6 -->
<g id="node6" class="node">
<title>Node6</title>
<g id="a_node6"><a xlink:href="classflow_1_1log_1_1Logger.html" target="_top" xlink:title="Interface that the user should implement, passing the implementing Logger into logging classes (Flow&#39;...">
<polygon fill="white" stroke="black" points="382.5,-270.5 382.5,-287.5 468.5,-287.5 468.5,-270.5 382.5,-270.5"/>
<text text-anchor="middle" x="425.5" y="-277.1" font-family="Helvetica,sans-Serif" font-size="8.00">flow::log::Logger</text>
</a>
</g>
</g>
<!-- Node3&#45;&gt;Node6 -->
<g id="edge6" class="edge">
<title>Node3&#45;&gt;Node6</title>
<path fill="none" stroke="midnightblue" d="M223.97,-314.69C272.03,-306.13 339.22,-294.18 382.3,-286.51"/>
<polygon fill="midnightblue" stroke="midnightblue" points="223.25,-311.26 214.02,-316.46 224.47,-318.15 223.25,-311.26"/>
</g>
<!-- Node4 -->
<g id="node4" class="node">
<title>Node4</title>
<g id="a_node4"><a xlink:href="classflow_1_1util_1_1Shared__ptr__alias__holder.html" target="_top" xlink:title=" ">
<polygon fill="white" stroke="black" points="606.5,-453.5 606.5,-488.5 760.5,-488.5 760.5,-453.5 606.5,-453.5"/>
<text text-anchor="start" x="614.5" y="-478.1" font-family="Helvetica,sans-Serif" font-size="8.00">flow::util::Shared</text>
<text text-anchor="start" x="614.5" y="-469.1" font-family="Helvetica,sans-Serif" font-size="8.00">_ptr_alias_holder&lt; boost</text>
<text text-anchor="middle" x="683.5" y="-460.1" font-family="Helvetica,sans-Serif" font-size="8.00">::shared_ptr&lt; Low_lvl_packet &gt; &gt;</text>
</a>
</g>
</g>
<!-- Node4&#45;&gt;Node2 -->
<g id="edge3" class="edge">
<title>Node4&#45;&gt;Node2</title>
<path fill="none" stroke="midnightblue" d="M770.66,-469.11C815.68,-464.97 870.34,-454.81 914,-431 948.15,-412.38 975.89,-374.39 988.93,-354.24"/>
<polygon fill="midnightblue" stroke="midnightblue" points="770.29,-465.63 760.62,-469.95 770.87,-472.6 770.29,-465.63"/>
</g>
<!-- Node5 -->
<g id="node5" class="node">
<title>Node5</title>
<g id="a_node5"><a xlink:href="classflow_1_1log_1_1Log__context.html" target="_top" xlink:title="Convenience class that simply stores a Logger and/or Component passed into a constructor; and returns...">
<polygon fill="white" stroke="black" points="630,-177.5 630,-194.5 737,-194.5 737,-177.5 630,-177.5"/>
<text text-anchor="middle" x="683.5" y="-184.1" font-family="Helvetica,sans-Serif" font-size="8.00">flow::log::Log_context</text>
</a>
</g>
</g>
<!-- Node5&#45;&gt;Node2 -->
<g id="edge4" class="edge">
<title>Node5&#45;&gt;Node2</title>
<path fill="none" stroke="midnightblue" d="M747.56,-178.42C796.54,-175.7 864.26,-179.15 914,-210 919.86,-213.64 969.56,-295.45 989.13,-327.91"/>
<polygon fill="midnightblue" stroke="midnightblue" points="747.16,-174.94 737.41,-179.08 747.62,-181.92 747.16,-174.94"/>
</g>
<!-- Node6&#45;&gt;Node5 -->
<g id="edge5" class="edge">
<title>Node6&#45;&gt;Node5</title>
<path fill="none" stroke="#9a32cd" stroke-dasharray="5,2" d="M453.48,-266.07C487.66,-250.06 548.67,-222.75 603,-205 615.28,-200.99 628.87,-197.43 641.29,-194.51"/>
<polygon fill="#9a32cd" stroke="#9a32cd" points="451.73,-263.02 444.17,-270.45 454.71,-269.35 451.73,-263.02"/>
<text text-anchor="middle" x="540.5" y="-248.6" font-family="Helvetica,sans-Serif" font-size="8.00"> m_logger</text>
</g>
<!-- Node7 -->
<g id="node7" class="node">
<title>Node7</title>
<g id="a_node7"><a xlink:href="classflow_1_1util_1_1Unique__id__holder.html" target="_top" xlink:title="Each object of this class stores (at construction) and returns (on demand) a numeric ID unique from a...">
<polygon fill="white" stroke="red" points="121.5,-266 121.5,-292 208.5,-292 208.5,-266 121.5,-266"/>
<text text-anchor="start" x="129.5" y="-281.6" font-family="Helvetica,sans-Serif" font-size="8.00">flow::util::Unique</text>
<text text-anchor="middle" x="165" y="-272.6" font-family="Helvetica,sans-Serif" font-size="8.00">_id_holder</text>
</a>
</g>
</g>
<!-- Node7&#45;&gt;Node6 -->
<g id="edge7" class="edge">
<title>Node7&#45;&gt;Node6</title>
<path fill="none" stroke="midnightblue" d="M218.93,-279C267.19,-279 337.57,-279 382.18,-279"/>
<polygon fill="midnightblue" stroke="midnightblue" points="218.69,-275.5 208.69,-279 218.69,-282.5 218.69,-275.5"/>
</g>
<!-- Node8 -->
<g id="node8" class="node">
<title>Node8</title>
<g id="a_node8"><a xlink:title=" ">
<polygon fill="white" stroke="#bfbfbf" points="0,-111.5 0,-128.5 50,-128.5 50,-111.5 0,-111.5"/>
<text text-anchor="middle" x="25" y="-118.1" font-family="Helvetica,sans-Serif" font-size="8.00">uint64_t</text>
</a>
</g>
</g>
<!-- Node8&#45;&gt;Node7 -->
<g id="edge8" class="edge">
<title>Node8&#45;&gt;Node7</title>
<path fill="none" stroke="#9a32cd" stroke-dasharray="5,2" d="M32.5,-138.38C43.63,-167.41 68.99,-223.95 108,-257 112.06,-260.44 116.73,-263.39 121.6,-265.9"/>
<polygon fill="#9a32cd" stroke="#9a32cd" points="35.67,-136.88 28.93,-128.71 29.11,-139.31 35.67,-136.88"/>
<text text-anchor="middle" x="79" y="-240.6" font-family="Helvetica,sans-Serif" font-size="8.00"> m_id</text>
</g>
<!-- Node26 -->
<g id="node25" class="node">
<title>Node26</title>
<g id="a_node25"><a xlink:href="structflow_1_1net__flow_1_1Ack__packet_1_1Individual__ack__rexmit__off.html" target="_top" xlink:title="Specifies the outgoing (pre&#45;serialization) acknowledgment of a single received Data_packet,...">
<polygon fill="white" stroke="black" points="378.5,-85.5 378.5,-120.5 472.5,-120.5 472.5,-85.5 378.5,-85.5"/>
<text text-anchor="start" x="386.5" y="-110.1" font-family="Helvetica,sans-Serif" font-size="8.00">flow::net_flow::Ack</text>
<text text-anchor="start" x="386.5" y="-101.1" font-family="Helvetica,sans-Serif" font-size="8.00">_packet::Individual</text>
<text text-anchor="middle" x="425.5" y="-92.1" font-family="Helvetica,sans-Serif" font-size="8.00">_ack_rexmit_off</text>
</a>
</g>
</g>
<!-- Node8&#45;&gt;Node26 -->
<g id="edge30" class="edge">
<title>Node8&#45;&gt;Node26</title>
<path fill="none" stroke="#9a32cd" stroke-dasharray="5,2" d="M60.2,-117.74C74.91,-116.81 92.3,-115.78 108,-115 204.11,-110.25 316.72,-106.39 378.36,-104.42"/>
<polygon fill="#9a32cd" stroke="#9a32cd" points="59.79,-114.26 50.03,-118.39 60.23,-121.24 59.79,-114.26"/>
<text text-anchor="middle" x="165" y="-126.6" font-family="Helvetica,sans-Serif" font-size="8.00"> m_delay</text>
<text text-anchor="middle" x="165" y="-117.6" font-family="Helvetica,sans-Serif" font-size="8.00">m_seq_num_raw</text>
</g>
<!-- Node10 -->
<g id="node9" class="node">
<title>Node10</title>
<g id="a_node9"><a xlink:title=" ">
<polygon fill="white" stroke="#bfbfbf" points="115.5,-370.5 115.5,-387.5 214.5,-387.5 214.5,-370.5 115.5,-370.5"/>
<text text-anchor="middle" x="165" y="-377.1" font-family="Helvetica,sans-Serif" font-size="8.00">boost::noncopyable</text>
</a>
</g>
</g>
<!-- Node10&#45;&gt;Node2 -->
<g id="edge14" class="edge">
<title>Node10&#45;&gt;Node2</title>
<path fill="none" stroke="#8b1a1a" d="M224.9,-378.79C351.32,-377.91 658.01,-373.53 914,-352 925.73,-351.01 938.35,-349.55 950.12,-348.01"/>
<polygon fill="#8b1a1a" stroke="#8b1a1a" points="224.64,-375.29 214.67,-378.85 224.69,-382.29 224.64,-375.29"/>
</g>
<!-- Node10&#45;&gt;Node6 -->
<g id="edge9" class="edge">
<title>Node10&#45;&gt;Node6</title>
<path fill="none" stroke="#8b1a1a" d="M206.57,-367.63C245.34,-356.26 305.11,-337.42 355,-316 374.72,-307.53 396.39,-295.54 410.21,-287.52"/>
<polygon fill="#8b1a1a" stroke="#8b1a1a" points="205.32,-364.34 196.7,-370.49 207.28,-371.06 205.32,-364.34"/>
</g>
<!-- Node20 -->
<g id="node19" class="node">
<title>Node20</title>
<g id="a_node19"><a xlink:href="structflow_1_1net__flow_1_1Low__lvl__packet_1_1Aux__raw__data.html" target="_top" xlink:title="Helper data store type for storing binary data needed by serialize_to_raw_data(), when certains bits ...">
<polygon fill="white" stroke="black" points="622,-408 622,-434 745,-434 745,-408 622,-408"/>
<text text-anchor="start" x="630" y="-423.6" font-family="Helvetica,sans-Serif" font-size="8.00">flow::net_flow::Low</text>
<text text-anchor="middle" x="683.5" y="-414.6" font-family="Helvetica,sans-Serif" font-size="8.00">_lvl_packet::Aux_raw_data</text>
</a>
</g>
</g>
<!-- Node10&#45;&gt;Node20 -->
<g id="edge21" class="edge">
<title>Node10&#45;&gt;Node20</title>
<path fill="none" stroke="#8b1a1a" d="M216.12,-389.35C224.08,-390.74 232.25,-392.03 240,-393 375.76,-410.07 536.32,-416.93 621.8,-419.54"/>
<polygon fill="#8b1a1a" stroke="#8b1a1a" points="216.65,-385.89 206.18,-387.54 215.39,-392.77 216.65,-385.89"/>
</g>
<!-- Node11 -->
<g id="node10" class="node">
<title>Node11</title>
<g id="a_node10"><a xlink:title=" ">
<polygon fill="white" stroke="#bfbfbf" points="118,-221 118,-247 212,-247 212,-221 118,-221"/>
<text text-anchor="start" x="126" y="-236.6" font-family="Helvetica,sans-Serif" font-size="8.00">thread_specific_ptr</text>
<text text-anchor="middle" x="165" y="-227.6" font-family="Helvetica,sans-Serif" font-size="8.00">&lt; std::string &gt;</text>
</a>
</g>
</g>
<!-- Node11&#45;&gt;Node6 -->
<g id="edge10" class="edge">
<title>Node11&#45;&gt;Node6</title>
<path fill="none" stroke="#9a32cd" stroke-dasharray="5,2" d="M222.5,-243.3C260.08,-249.56 310.53,-258.08 355,-266 363.82,-267.57 373.26,-269.3 382.26,-270.98"/>
<polygon fill="#9a32cd" stroke="#9a32cd" points="222.69,-239.79 212.25,-241.6 221.55,-246.69 222.69,-239.79"/>
<text text-anchor="middle" x="297.5" y="-268.6" font-family="Helvetica,sans-Serif" font-size="8.00"> s_this_thread_nickname_ptr</text>
</g>
<!-- Node12 -->
<g id="node11" class="node">
<title>Node12</title>
<g id="a_node11"><a xlink:href="classflow_1_1log_1_1Component.html" target="_top" xlink:title="A light&#45;weight class, each object storing a component payload encoding an enum value from enum type o...">
<polygon fill="white" stroke="black" points="373,-177.5 373,-194.5 478,-194.5 478,-177.5 373,-177.5"/>
<text text-anchor="middle" x="425.5" y="-184.1" font-family="Helvetica,sans-Serif" font-size="8.00">flow::log::Component</text>
</a>
</g>
</g>
<!-- Node12&#45;&gt;Node5 -->
<g id="edge11" class="edge">
<title>Node12&#45;&gt;Node5</title>
<path fill="none" stroke="#9a32cd" stroke-dasharray="5,2" d="M488.43,-186C531.69,-186 588.83,-186 629.89,-186"/>
<polygon fill="#9a32cd" stroke="#9a32cd" points="488.31,-182.5 478.31,-186 488.31,-189.5 488.31,-182.5"/>
<text text-anchor="middle" x="540.5" y="-188.6" font-family="Helvetica,sans-Serif" font-size="8.00"> m_component</text>
</g>
<!-- Node13 -->
<g id="node12" class="node">
<title>Node13</title>
<g id="a_node12"><a xlink:title=" ">
<polygon fill="white" stroke="#bfbfbf" points="122.5,-183.5 122.5,-200.5 207.5,-200.5 207.5,-183.5 122.5,-183.5"/>
<text text-anchor="middle" x="165" y="-190.1" font-family="Helvetica,sans-Serif" font-size="8.00">type_info const *</text>
</a>
</g>
</g>
<!-- Node13&#45;&gt;Node12 -->
<g id="edge12" class="edge">
<title>Node13&#45;&gt;Node12</title>
<path fill="none" stroke="#9a32cd" stroke-dasharray="5,2" d="M217.68,-190.8C262.74,-189.75 327.76,-188.25 372.82,-187.2"/>
<polygon fill="#9a32cd" stroke="#9a32cd" points="217.45,-187.3 207.53,-191.04 217.61,-194.3 217.45,-187.3"/>
<text text-anchor="middle" x="297.5" y="-192.6" font-family="Helvetica,sans-Serif" font-size="8.00"> m_payload_type_or_null</text>
</g>
<!-- Node14 -->
<g id="node13" class="node">
<title>Node14</title>
<g id="a_node13"><a xlink:title=" ">
<polygon fill="white" stroke="#bfbfbf" points="131,-142.5 131,-159.5 199,-159.5 199,-142.5 131,-142.5"/>
<text text-anchor="middle" x="165" y="-149.1" font-family="Helvetica,sans-Serif" font-size="8.00">unsigned int</text>
</a>
</g>
</g>
<!-- Node14&#45;&gt;Node12 -->
<g id="edge13" class="edge">
<title>Node14&#45;&gt;Node12</title>
<path fill="none" stroke="#9a32cd" stroke-dasharray="5,2" d="M209.4,-151.52C247.93,-152.61 305.62,-155.83 355,-165 370.61,-167.9 387.7,-173.03 401.02,-177.5"/>
<polygon fill="#9a32cd" stroke="#9a32cd" points="209.14,-148.01 199.06,-151.26 208.97,-155.01 209.14,-148.01"/>
<text text-anchor="start" x="251" y="-176.6" font-family="Helvetica,sans-Serif" font-size="8.00"> m_payload_enum_raw</text>
<text text-anchor="middle" x="297.5" y="-167.6" font-family="Helvetica,sans-Serif" font-size="8.00">_value</text>
</g>
<!-- Node15 -->
<g id="node14" class="node">
<title>Node15</title>
<g id="a_node14"><a xlink:href="classbool.html" target="_top" xlink:title=" ">
<polygon fill="white" stroke="#bfbfbf" points="666,-295.5 666,-312.5 701,-312.5 701,-295.5 666,-295.5"/>
<text text-anchor="middle" x="683.5" y="-302.1" font-family="Helvetica,sans-Serif" font-size="8.00">bool</text>
</a>
</g>
</g>
<!-- Node15&#45;&gt;Node2 -->
<g id="edge15" class="edge">
<title>Node15&#45;&gt;Node2</title>
<path fill="none" stroke="#9a32cd" stroke-dasharray="5,2" d="M711.25,-303.82C754.27,-303.95 841.38,-305.86 914,-318 928.01,-320.34 943.05,-324.11 956.43,-327.93"/>
<polygon fill="#9a32cd" stroke="#9a32cd" points="711.05,-300.32 701.05,-303.83 711.05,-307.32 711.05,-300.32"/>
<text text-anchor="middle" x="848" y="-320.6" font-family="Helvetica,sans-Serif" font-size="8.00"> m_opt_rexmit_on</text>
</g>
<!-- Node16 -->
<g id="node15" class="node">
<title>Node16</title>
<g id="a_node15"><a xlink:title=" ">
<polygon fill="white" stroke="#bfbfbf" points="400.5,-516.5 400.5,-533.5 450.5,-533.5 450.5,-516.5 400.5,-516.5"/>
<text text-anchor="middle" x="425.5" y="-523.1" font-family="Helvetica,sans-Serif" font-size="8.00">uint16_t</text>
</a>
</g>
</g>
<!-- Node16&#45;&gt;Node1 -->
<g id="edge25" class="edge">
<title>Node16&#45;&gt;Node1</title>
<path fill="none" stroke="#9a32cd" stroke-dasharray="5,2" d="M446.44,-539.37C477.88,-561.04 541.71,-601.13 603,-616 737.39,-648.61 792.46,-671.99 914,-606 1101,-504.47 1208.41,-242.29 1231.68,-180.29"/>
<polygon fill="#9a32cd" stroke="#9a32cd" points="448.31,-536.41 438.11,-533.53 444.3,-542.14 448.31,-536.41"/>
<text text-anchor="start" x="802.5" y="-658.6" font-family="Helvetica,sans-Serif" font-size="8.00"> m_rcv_acked_packets</text>
<text text-anchor="middle" x="848" y="-649.6" font-family="Helvetica,sans-Serif" font-size="8.00">_rexmit_out_size</text>
</g>
<!-- Node16&#45;&gt;Node2 -->
<g id="edge16" class="edge">
<title>Node16&#45;&gt;Node2</title>
<path fill="none" stroke="#9a32cd" stroke-dasharray="5,2" d="M460.78,-524.63C559.15,-522.94 840.1,-513.7 914,-463 954.98,-434.88 981.52,-379.32 991.96,-354.05"/>
<polygon fill="#9a32cd" stroke="#9a32cd" points="460.71,-521.13 450.77,-524.78 460.82,-528.12 460.71,-521.13"/>
<text text-anchor="middle" x="683.5" y="-530.6" font-family="Helvetica,sans-Serif" font-size="8.00"> m_dst_port</text>
<text text-anchor="middle" x="683.5" y="-521.6" font-family="Helvetica,sans-Serif" font-size="8.00">m_src_port</text>
</g>
<!-- Node16&#45;&gt;Node20 -->
<g id="edge23" class="edge">
<title>Node16&#45;&gt;Node20</title>
<path fill="none" stroke="#9a32cd" stroke-dasharray="5,2" d="M460.21,-513.02C493.02,-500.79 543.8,-480.34 585,-457 593.59,-452.14 594.13,-448.32 603,-444 610.88,-440.16 619.52,-436.84 628.1,-434.02"/>
<polygon fill="#9a32cd" stroke="#9a32cd" points="458.82,-509.8 450.64,-516.54 461.23,-516.37 458.82,-509.8"/>
<text text-anchor="middle" x="540.5" y="-500.6" font-family="Helvetica,sans-Serif" font-size="8.00"> m_reserved2</text>
</g>
<!-- Node17 -->
<g id="node16" class="node">
<title>Node17</title>
<g id="a_node16"><a xlink:title=" ">
<polygon fill="white" stroke="#bfbfbf" points="629,-259.5 629,-276.5 738,-276.5 738,-259.5 629,-259.5"/>
<text text-anchor="middle" x="683.5" y="-266.1" font-family="Helvetica,sans-Serif" font-size="8.00">anonymous:m_packed</text>
</a>
</g>
</g>
<!-- Node17&#45;&gt;Node2 -->
<g id="edge17" class="edge">
<title>Node17&#45;&gt;Node2</title>
<path fill="none" stroke="#9a32cd" stroke-dasharray="5,2" d="M748.29,-267.43C795.21,-268.73 859.95,-274.16 914,-292 938.63,-300.13 963.86,-316.38 979.94,-327.93"/>
<polygon fill="#9a32cd" stroke="#9a32cd" points="748.33,-263.93 738.26,-267.21 748.18,-270.93 748.33,-263.93"/>
<text text-anchor="middle" x="848" y="-294.6" font-family="Helvetica,sans-Serif" font-size="8.00"> m_packed</text>
</g>
<!-- Node18 -->
<g id="node17" class="node">
<title>Node18</title>
<g id="a_node17"><a xlink:href="classflow_1_1Function.html" target="_top" xlink:title=" ">
<polygon fill="white" stroke="#bfbfbf" points="614.5,-214 614.5,-240 752.5,-240 752.5,-214 614.5,-214"/>
<text text-anchor="start" x="622.5" y="-229.6" font-family="Helvetica,sans-Serif" font-size="8.00">flow::Function&lt; std</text>
<text text-anchor="middle" x="683.5" y="-220.6" font-family="Helvetica,sans-Serif" font-size="8.00">::ostream &amp;(std::ostream &amp;)&gt;</text>
</a>
</g>
</g>
<!-- Node18&#45;&gt;Node2 -->
<g id="edge18" class="edge">
<title>Node18&#45;&gt;Node2</title>
<path fill="none" stroke="#9a32cd" stroke-dasharray="5,2" d="M762.75,-215.31C809.13,-212.03 867.7,-214.47 914,-238 952.9,-257.77 979.78,-304.93 991.05,-327.93"/>
<polygon fill="#9a32cd" stroke="#9a32cd" points="762.44,-211.83 752.75,-216.12 763,-218.8 762.44,-211.83"/>
<text text-anchor="middle" x="848" y="-258.6" font-family="Helvetica,sans-Serif" font-size="8.00"> m_concise_ostream_manip</text>
<text text-anchor="middle" x="848" y="-249.6" font-family="Helvetica,sans-Serif" font-size="8.00">m_type_ostream_manip</text>
<text text-anchor="middle" x="848" y="-240.6" font-family="Helvetica,sans-Serif" font-size="8.00">m_verbose_ostream_manip</text>
</g>
<!-- Node19 -->
<g id="node18" class="node">
<title>Node19</title>
<g id="a_node18"><a xlink:title=" ">
<polygon fill="white" stroke="#bfbfbf" points="625,-562 625,-606 742,-606 742,-562 625,-562"/>
<text text-anchor="start" x="633" y="-595.6" font-family="Helvetica,sans-Serif" font-size="8.00">unordered_map&lt; std</text>
<text text-anchor="start" x="633" y="-586.6" font-family="Helvetica,sans-Serif" font-size="8.00">::type_index, flow::</text>
<text text-anchor="start" x="633" y="-577.6" font-family="Helvetica,sans-Serif" font-size="8.00">net_flow::Low_lvl_packet</text>
<text text-anchor="middle" x="683.5" y="-568.6" font-family="Helvetica,sans-Serif" font-size="8.00">::Packet_type_info &gt;</text>
</a>
</g>
</g>
<!-- Node19&#45;&gt;Node2 -->
<g id="edge19" class="edge">
<title>Node19&#45;&gt;Node2</title>
<path fill="none" stroke="#9a32cd" stroke-dasharray="5,2" d="M752.23,-586.89C802.09,-585.5 868.8,-575.83 914,-539 974.1,-490.03 991.33,-389.92 995.68,-354.11"/>
<polygon fill="#9a32cd" stroke="#9a32cd" points="752.11,-583.39 742.18,-587.07 752.24,-590.39 752.11,-583.39"/>
<text text-anchor="start" x="802.5" y="-595.6" font-family="Helvetica,sans-Serif" font-size="8.00"> S_NATIVE_TYPE_ID_TO</text>
<text text-anchor="middle" x="848" y="-586.6" font-family="Helvetica,sans-Serif" font-size="8.00">_PACKET_TYPE_INFO</text>
</g>
<!-- Node20&#45;&gt;Node2 -->
<g id="edge20" class="edge">
<title>Node20&#45;&gt;Node2</title>
<path fill="none" stroke="#9a32cd" stroke-dasharray="5,2" d="M755.34,-420.29C801.65,-417.92 862.82,-411.13 914,-393 939.32,-384.03 965,-366.32 980.96,-354.08"/>
<polygon fill="#9a32cd" stroke="#9a32cd" points="754.93,-416.81 745.09,-420.76 755.24,-423.8 754.93,-416.81"/>
<text text-anchor="middle" x="848" y="-420.6" font-family="Helvetica,sans-Serif" font-size="8.00"> m_aux_raw_data</text>
</g>
<!-- Node21 -->
<g id="node20" class="node">
<title>Node21</title>
<g id="a_node20"><a xlink:title=" ">
<polygon fill="white" stroke="#bfbfbf" points="388,-445.5 388,-462.5 463,-462.5 463,-445.5 388,-445.5"/>
<text text-anchor="middle" x="425.5" y="-452.1" font-family="Helvetica,sans-Serif" font-size="8.00">unsigned char</text>
</a>
</g>
</g>
<!-- Node21&#45;&gt;Node20 -->
<g id="edge22" class="edge">
<title>Node21&#45;&gt;Node20</title>
<path fill="none" stroke="#9a32cd" stroke-dasharray="5,2" d="M473.33,-447.96C515.01,-442.59 576.22,-434.7 621.67,-428.84"/>
<polygon fill="#9a32cd" stroke="#9a32cd" points="472.65,-444.52 463.18,-449.27 473.54,-451.46 472.65,-444.52"/>
<text text-anchor="middle" x="540.5" y="-446.6" font-family="Helvetica,sans-Serif" font-size="8.00"> m_opt_rexmit_on_raw</text>
</g>
<!-- Node22 -->
<g id="node21" class="node">
<title>Node22</title>
<g id="a_node21"><a xlink:title=" ">
<polygon fill="white" stroke="#bfbfbf" points="970,-208.5 970,-225.5 1026,-225.5 1026,-208.5 970,-208.5"/>
<text text-anchor="middle" x="998" y="-215.1" font-family="Helvetica,sans-Serif" font-size="8.00">rcv_wnd_t</text>
</a>
</g>
</g>
<!-- Node22&#45;&gt;Node1 -->
<g id="edge24" class="edge">
<title>Node22&#45;&gt;Node1</title>
<path fill="none" stroke="#9a32cd" stroke-dasharray="5,2" d="M1036.29,-209.15C1078.12,-200.34 1145.98,-186.06 1190.93,-176.59"/>
<polygon fill="#9a32cd" stroke="#9a32cd" points="1035.31,-205.78 1026.24,-211.26 1036.75,-212.63 1035.31,-205.78"/>
<text text-anchor="middle" x="1127.5" y="-201.6" font-family="Helvetica,sans-Serif" font-size="8.00"> m_rcv_wnd</text>
</g>
<!-- Node23 -->
<g id="node22" class="node">
<title>Node23</title>
<g id="a_node22"><a xlink:title=" ">
<polygon fill="white" stroke="black" points="947,-145 947,-189 1049,-189 1049,-145 947,-145"/>
<text text-anchor="start" x="955" y="-178.6" font-family="Helvetica,sans-Serif" font-size="8.00">std::vector&lt; boost</text>
<text text-anchor="start" x="955" y="-169.6" font-family="Helvetica,sans-Serif" font-size="8.00">::shared_ptr&lt; flow::</text>
<text text-anchor="start" x="955" y="-160.6" font-family="Helvetica,sans-Serif" font-size="8.00">net_flow::Ack_packet</text>
<text text-anchor="middle" x="998" y="-151.6" font-family="Helvetica,sans-Serif" font-size="8.00">::Individual_ack &gt; &gt;</text>
</a>
</g>
</g>
<!-- Node23&#45;&gt;Node1 -->
<g id="edge26" class="edge">
<title>Node23&#45;&gt;Node1</title>
<path fill="none" stroke="#9a32cd" stroke-dasharray="5,2" d="M1059.2,-167C1100.15,-167 1153.48,-167 1190.91,-167"/>
<polygon fill="#9a32cd" stroke="#9a32cd" points="1059.08,-163.5 1049.08,-167 1059.08,-170.5 1059.08,-163.5"/>
<text text-anchor="middle" x="1127.5" y="-169.6" font-family="Helvetica,sans-Serif" font-size="8.00"> m_rcv_acked_packets</text>
</g>
<!-- Node24 -->
<g id="node23" class="node">
<title>Node24</title>
<g id="a_node23"><a xlink:title=" ">
<polygon fill="white" stroke="#bfbfbf" points="603,-132 603,-158 764,-158 764,-132 603,-132"/>
<text text-anchor="start" x="611" y="-147.6" font-family="Helvetica,sans-Serif" font-size="8.00">shared_ptr&lt; flow::net</text>
<text text-anchor="middle" x="683.5" y="-138.6" font-family="Helvetica,sans-Serif" font-size="8.00">_flow::Ack_packet::Individual_ack &gt;</text>
</a>
</g>
</g>
<!-- Node24&#45;&gt;Node23 -->
<g id="edge27" class="edge">
<title>Node24&#45;&gt;Node23</title>
<path fill="none" stroke="#9a32cd" stroke-dasharray="5,2" d="M774.45,-151.33C830.47,-155.28 900.45,-160.2 946.82,-163.47"/>
<polygon fill="#9a32cd" stroke="#9a32cd" points="774.39,-147.82 764.17,-150.61 773.9,-154.8 774.39,-147.82"/>
<text text-anchor="middle" x="848" y="-163.6" font-family="Helvetica,sans-Serif" font-size="8.00"> elements</text>
</g>
<!-- Node25 -->
<g id="node24" class="node">
<title>Node25</title>
<g id="a_node24"><a xlink:title=" ">
<polygon fill="white" stroke="black" points="782,-86.5 782,-121.5 914,-121.5 914,-86.5 782,-86.5"/>
<text text-anchor="start" x="790" y="-111.1" font-family="Helvetica,sans-Serif" font-size="8.00">std::vector&lt; flow::</text>
<text text-anchor="start" x="790" y="-102.1" font-family="Helvetica,sans-Serif" font-size="8.00">net_flow::Ack_packet</text>
<text text-anchor="middle" x="848" y="-93.1" font-family="Helvetica,sans-Serif" font-size="8.00">::Individual_ack_rexmit_off &gt;</text>
</a>
</g>
</g>
<!-- Node25&#45;&gt;Node1 -->
<g id="edge28" class="edge">
<title>Node25&#45;&gt;Node1</title>
<path fill="none" stroke="#9a32cd" stroke-dasharray="5,2" d="M924.37,-105.01C965.82,-106.54 1018.03,-110.07 1064,-118 1111.55,-126.21 1164.76,-142.44 1199.34,-153.97"/>
<polygon fill="#9a32cd" stroke="#9a32cd" points="924.45,-101.51 914.34,-104.67 924.22,-108.51 924.45,-101.51"/>
<text text-anchor="start" x="952.5" y="-129.6" font-family="Helvetica,sans-Serif" font-size="8.00"> m_rcv_acked_packets</text>
<text text-anchor="middle" x="998" y="-120.6" font-family="Helvetica,sans-Serif" font-size="8.00">_rexmit_off_out</text>
</g>
<!-- Node26&#45;&gt;Node25 -->
<g id="edge29" class="edge">
<title>Node26&#45;&gt;Node25</title>
<path fill="none" stroke="#9a32cd" stroke-dasharray="5,2" d="M482.77,-103.13C560.34,-103.32 699.81,-103.65 781.82,-103.85"/>
<polygon fill="#9a32cd" stroke="#9a32cd" points="482.71,-99.63 472.7,-103.11 482.7,-106.63 482.71,-99.63"/>
<text text-anchor="middle" x="540.5" y="-106.6" font-family="Helvetica,sans-Serif" font-size="8.00"> elements</text>
</g>
<!-- Node28 -->
<g id="node27" class="node">
<title>Node28</title>
<g id="a_node27"><a xlink:href="structflow_1_1net__flow_1_1Ack__packet_1_1Individual__ack__rexmit__on.html" target="_top" xlink:title="Equivalent of Individual_ack_rexmit_off but for sockets with retransmission enabled.">
<polygon fill="white" stroke="black" points="636.5,-36.5 636.5,-71.5 730.5,-71.5 730.5,-36.5 636.5,-36.5"/>
<text text-anchor="start" x="644.5" y="-61.1" font-family="Helvetica,sans-Serif" font-size="8.00">flow::net_flow::Ack</text>
<text text-anchor="start" x="644.5" y="-52.1" font-family="Helvetica,sans-Serif" font-size="8.00">_packet::Individual</text>
<text text-anchor="middle" x="683.5" y="-43.1" font-family="Helvetica,sans-Serif" font-size="8.00">_ack_rexmit_on</text>
</a>
</g>
</g>
<!-- Node26&#45;&gt;Node28 -->
<g id="edge33" class="edge">
<title>Node26&#45;&gt;Node28</title>
<path fill="none" stroke="#9a32cd" stroke-dasharray="5,2" d="M469.18,-81.38C477.87,-77.72 487.09,-74.35 496,-72 542.71,-59.68 597.98,-55.6 636.17,-54.34"/>
<polygon fill="#9a32cd" stroke="#9a32cd" points="467.73,-78.2 459.99,-85.44 470.55,-84.6 467.73,-78.2"/>
<text text-anchor="middle" x="540.5" y="-74.6" font-family="Helvetica,sans-Serif" font-size="8.00"> m_basic_ack</text>
</g>
<!-- Node27 -->
<g id="node26" class="node">
<title>Node27</title>
<g id="a_node26"><a xlink:title=" ">
<polygon fill="white" stroke="black" points="932,-36.5 932,-71.5 1064,-71.5 1064,-36.5 932,-36.5"/>
<text text-anchor="start" x="940" y="-61.1" font-family="Helvetica,sans-Serif" font-size="8.00">std::vector&lt; flow::</text>
<text text-anchor="start" x="940" y="-52.1" font-family="Helvetica,sans-Serif" font-size="8.00">net_flow::Ack_packet</text>
<text text-anchor="middle" x="998" y="-43.1" font-family="Helvetica,sans-Serif" font-size="8.00">::Individual_ack_rexmit_on &gt;</text>
</a>
</g>
</g>
<!-- Node27&#45;&gt;Node1 -->
<g id="edge31" class="edge">
<title>Node27&#45;&gt;Node1</title>
<path fill="none" stroke="#9a32cd" stroke-dasharray="5,2" d="M1074.62,-50.31C1106.93,-51.96 1143.84,-58.38 1173,-76 1203.34,-94.34 1222.87,-133.32 1231.46,-153.81"/>
<polygon fill="#9a32cd" stroke="#9a32cd" points="1074.42,-46.8 1064.3,-49.94 1074.17,-53.8 1074.42,-46.8"/>
<text text-anchor="start" x="1082" y="-87.6" font-family="Helvetica,sans-Serif" font-size="8.00"> m_rcv_acked_packets</text>
<text text-anchor="middle" x="1127.5" y="-78.6" font-family="Helvetica,sans-Serif" font-size="8.00">_rexmit_on_out</text>
</g>
<!-- Node28&#45;&gt;Node27 -->
<g id="edge32" class="edge">
<title>Node28&#45;&gt;Node27</title>
<path fill="none" stroke="#9a32cd" stroke-dasharray="5,2" d="M740.65,-54C794.38,-54 875.4,-54 931.93,-54"/>
<polygon fill="#9a32cd" stroke="#9a32cd" points="740.61,-50.5 730.61,-54 740.61,-57.5 740.61,-50.5"/>
<text text-anchor="middle" x="848" y="-56.6" font-family="Helvetica,sans-Serif" font-size="8.00"> elements</text>
</g>
<!-- Node29 -->
<g id="node28" class="node">
<title>Node29</title>
<g id="a_node28"><a xlink:title=" ">
<polygon fill="white" stroke="#bfbfbf" points="403.5,-30.5 403.5,-47.5 447.5,-47.5 447.5,-30.5 403.5,-30.5"/>
<text text-anchor="middle" x="425.5" y="-37.1" font-family="Helvetica,sans-Serif" font-size="8.00">uint8_t</text>
</a>
</g>
</g>
<!-- Node29&#45;&gt;Node28 -->
<g id="edge34" class="edge">
<title>Node29&#45;&gt;Node28</title>
<path fill="none" stroke="#9a32cd" stroke-dasharray="5,2" d="M457.64,-37.95C489.63,-37.16 540.87,-36.71 585,-40 601.71,-41.25 619.92,-43.59 636.02,-46.01"/>
<polygon fill="#9a32cd" stroke="#9a32cd" points="457.46,-34.45 447.56,-38.22 457.65,-41.45 457.46,-34.45"/>
<text text-anchor="middle" x="540.5" y="-42.6" font-family="Helvetica,sans-Serif" font-size="8.00"> m_rexmit_id</text>
</g>
<!-- Node30 -->
<g id="node29" class="node">
<title>Node30</title>
<g id="a_node29"><a xlink:title=" ">
<polygon fill="white" stroke="#bfbfbf" points="951,-0.5 951,-17.5 1045,-17.5 1045,-0.5 951,-0.5"/>
<text text-anchor="middle" x="998" y="-7.1" font-family="Helvetica,sans-Serif" font-size="8.00">static const uint8_t</text>
</a>
</g>
</g>
<!-- Node30&#45;&gt;Node1 -->
<g id="edge35" class="edge">
<title>Node30&#45;&gt;Node1</title>
<path fill="none" stroke="#9a32cd" stroke-dasharray="5,2" d="M1055.29,-5.75C1092.1,-6.46 1139.41,-13.03 1173,-38 1212.26,-67.19 1228.63,-127.3 1234.14,-153.87"/>
<polygon fill="#9a32cd" stroke="#9a32cd" points="1055.23,-2.25 1045.21,-5.7 1055.19,-9.25 1055.23,-2.25"/>
<text text-anchor="middle" x="1127.5" y="-40.6" font-family="Helvetica,sans-Serif" font-size="8.00"> S_RAW_TYPE_ID</text>
</g>
</g>
</svg>
