<?xml version="1.0" encoding="UTF-8" standalone="no"?>
<!DOCTYPE svg PUBLIC "-//W3C//DTD SVG 1.1//EN"
 "http://www.w3.org/Graphics/SVG/1.1/DTD/svg11.dtd">
<!-- Generated by graphviz version 2.43.0 (0)
 -->
<!-- Title: flow::net_flow::Peer_socket_info::output Pages: 1 -->
<svg width="266pt" height="35pt"
 viewBox="0.00 0.00 266.00 35.00" xmlns="http://www.w3.org/2000/svg" xmlns:xlink="http://www.w3.org/1999/xlink">
<g id="graph0" class="graph" transform="scale(1 1) rotate(0) translate(4 31)">
<title>flow::net_flow::Peer_socket_info::output</title>
<polygon fill="white" stroke="transparent" points="-4,4 -4,-31 262,-31 262,4 -4,4"/>
<!-- Node1 -->
<g id="node1" class="node">
<title>Node1</title>
<g id="a_node1"><a xlink:title="Outputs the current stats, across multiple lines but not ending with a newline, into the given output...">
<polygon fill="#bfbfbf" stroke="black" points="158,-0.5 158,-26.5 258,-26.5 258,-0.5 158,-0.5"/>
<text text-anchor="start" x="166" y="-16.1" font-family="Helvetica,sans-Serif" font-size="8.00">flow::net_flow::Peer</text>
<text text-anchor="middle" x="208" y="-7.1" font-family="Helvetica,sans-Serif" font-size="8.00">_socket_info::output</text>
</a>
</g>
</g>
<!-- Node2 -->
<g id="node2" class="node">
<title>Node2</title>
<g id="a_node2"><a xlink:href="structflow_1_1net__flow_1_1Peer__socket__info.html#a13391099a7662dbbef0a2ea171d1e7e9" target="_top" xlink:title="Prints string representation of the stats in the given stats object to the standard ostream and retur...">
<polygon fill="white" stroke="black" points="0,-0.5 0,-26.5 122,-26.5 122,-0.5 0,-0.5"/>
<text text-anchor="start" x="8" y="-16.1" font-family="Helvetica,sans-Serif" font-size="8.00">flow::net_flow::Peer</text>
<text text-anchor="middle" x="61" y="-7.1" font-family="Helvetica,sans-Serif" font-size="8.00">_socket_info::operator&lt;&lt;</text>
</a>
</g>
</g>
<!-- Node1&#45;&gt;Node2 -->
<g id="edge1" class="edge">
<title>Node1&#45;&gt;Node2</title>
<path fill="none" stroke="midnightblue" d="M147.75,-13.5C139.29,-13.5 130.58,-13.5 122.1,-13.5"/>
<polygon fill="midnightblue" stroke="midnightblue" points="147.91,-17 157.91,-13.5 147.91,-10 147.91,-17"/>
</g>
</g>
</svg>
