<?xml version="1.0" encoding="UTF-8" standalone="no"?>
<!DOCTYPE svg PUBLIC "-//W3C//DTD SVG 1.1//EN"
 "http://www.w3.org/Graphics/SVG/1.1/DTD/svg11.dtd">
<!-- Generated by graphviz version 2.43.0 (0)
 -->
<!-- Title: flow::net_flow::Ack_packet::Individual_ack Pages: 1 -->
<svg width="416pt" height="179pt"
 viewBox="0.00 0.00 416.00 179.00" xmlns="http://www.w3.org/2000/svg" xmlns:xlink="http://www.w3.org/1999/xlink">
<g id="graph0" class="graph" transform="scale(1 1) rotate(0) translate(4 175)">
<title>flow::net_flow::Ack_packet::Individual_ack</title>
<polygon fill="white" stroke="transparent" points="-4,4 -4,-175 412,-175 412,4 -4,4"/>
<!-- Node1 -->
<g id="node1" class="node">
<title>Node1</title>
<g id="a_node1"><a xlink:title="Specifies the incoming (post&#45;deserialization) acknowledgment of a single received Data_packet.">
<polygon fill="#bfbfbf" stroke="black" points="194,-0.5 194,-26.5 306,-26.5 306,-0.5 194,-0.5"/>
<text text-anchor="start" x="202" y="-16.1" font-family="Helvetica,sans-Serif" font-size="8.00">flow::net_flow::Ack</text>
<text text-anchor="middle" x="250" y="-7.1" font-family="Helvetica,sans-Serif" font-size="8.00">_packet::Individual_ack</text>
</a>
</g>
</g>
<!-- Node2 -->
<g id="node2" class="node">
<title>Node2</title>
<g id="a_node2"><a xlink:href="classflow_1_1net__flow_1_1Sequence__number.html" target="_top" xlink:title="An internal net_flow sequence number identifying a piece of data.">
<polygon fill="white" stroke="black" points="64,-72.5 64,-98.5 184,-98.5 184,-72.5 64,-72.5"/>
<text text-anchor="start" x="72" y="-88.1" font-family="Helvetica,sans-Serif" font-size="8.00">flow::net_flow::Sequence</text>
<text text-anchor="middle" x="124" y="-79.1" font-family="Helvetica,sans-Serif" font-size="8.00">_number</text>
</a>
</g>
</g>
<!-- Node2&#45;&gt;Node1 -->
<g id="edge1" class="edge">
<title>Node2&#45;&gt;Node1</title>
<path fill="none" stroke="#9a32cd" stroke-dasharray="5,2" d="M154.83,-67.34C167.3,-60.4 181.83,-52.31 195,-45 205.98,-38.9 218.19,-32.13 228.31,-26.52"/>
<polygon fill="#9a32cd" stroke="#9a32cd" points="152.78,-64.47 145.75,-72.39 156.19,-70.59 152.78,-64.47"/>
<text text-anchor="middle" x="220.5" y="-47.6" font-family="Helvetica,sans-Serif" font-size="8.00"> m_seq_num</text>
</g>
<!-- Node3 -->
<g id="node3" class="node">
<title>Node3</title>
<g id="a_node3"><a xlink:title=" ">
<polygon fill="white" stroke="#bfbfbf" points="0,-153.5 0,-170.5 50,-170.5 50,-153.5 0,-153.5"/>
<text text-anchor="middle" x="25" y="-160.1" font-family="Helvetica,sans-Serif" font-size="8.00">uint64_t</text>
</a>
</g>
</g>
<!-- Node3&#45;&gt;Node2 -->
<g id="edge2" class="edge">
<title>Node3&#45;&gt;Node2</title>
<path fill="none" stroke="#9a32cd" stroke-dasharray="5,2" d="M29.02,-143.6C31.88,-134.63 36.57,-124.12 44,-117 52.37,-108.98 63.07,-103.02 73.9,-98.6"/>
<polygon fill="#9a32cd" stroke="#9a32cd" points="25.59,-142.87 26.38,-153.43 32.35,-144.68 25.59,-142.87"/>
<text text-anchor="middle" x="82" y="-128.6" font-family="Helvetica,sans-Serif" font-size="8.00"> m_num</text>
<text text-anchor="middle" x="82" y="-119.6" font-family="Helvetica,sans-Serif" font-size="8.00">m_zero_point_num</text>
</g>
<!-- Node4 -->
<g id="node4" class="node">
<title>Node4</title>
<g id="a_node4"><a xlink:title=" ">
<polygon fill="white" stroke="#bfbfbf" points="106.5,-153.5 106.5,-170.5 141.5,-170.5 141.5,-153.5 106.5,-153.5"/>
<text text-anchor="middle" x="124" y="-160.1" font-family="Helvetica,sans-Serif" font-size="8.00">char</text>
</a>
</g>
</g>
<!-- Node4&#45;&gt;Node2 -->
<g id="edge3" class="edge">
<title>Node4&#45;&gt;Node2</title>
<path fill="none" stroke="#9a32cd" stroke-dasharray="5,2" d="M124,-143.16C124,-129.42 124,-110.77 124,-98.69"/>
<polygon fill="#9a32cd" stroke="#9a32cd" points="120.5,-143.31 124,-153.31 127.5,-143.31 120.5,-143.31"/>
<text text-anchor="middle" x="155" y="-124.1" font-family="Helvetica,sans-Serif" font-size="8.00"> m_num_line_id</text>
</g>
<!-- Node5 -->
<g id="node5" class="node">
<title>Node5</title>
<g id="a_node5"><a xlink:title=" ">
<polygon fill="white" stroke="#bfbfbf" points="187,-153.5 187,-170.5 231,-170.5 231,-153.5 187,-153.5"/>
<text text-anchor="middle" x="209" y="-160.1" font-family="Helvetica,sans-Serif" font-size="8.00">int64_t</text>
</a>
</g>
</g>
<!-- Node5&#45;&gt;Node2 -->
<g id="edge4" class="edge">
<title>Node5&#45;&gt;Node2</title>
<path fill="none" stroke="#9a32cd" stroke-dasharray="5,2" d="M203.35,-143.53C199.78,-134.7 194.43,-124.34 187,-117 179.22,-109.32 169.12,-103.27 159.3,-98.65"/>
<polygon fill="#9a32cd" stroke="#9a32cd" points="200.15,-145 206.82,-153.23 206.74,-142.64 200.15,-145"/>
<text text-anchor="middle" x="233.5" y="-124.1" font-family="Helvetica,sans-Serif" font-size="8.00"> m_multiple_size</text>
</g>
<!-- Node6 -->
<g id="node6" class="node">
<title>Node6</title>
<g id="a_node6"><a xlink:title=" ">
<polygon fill="white" stroke="#bfbfbf" points="202,-77 202,-94 298,-94 298,-77 202,-77"/>
<text text-anchor="middle" x="250" y="-83.6" font-family="Helvetica,sans-Serif" font-size="8.00">const Fine_duration</text>
</a>
</g>
</g>
<!-- Node6&#45;&gt;Node1 -->
<g id="edge5" class="edge">
<title>Node6&#45;&gt;Node1</title>
<path fill="none" stroke="#9a32cd" stroke-dasharray="5,2" d="M250,-66.55C250,-53.98 250,-37.51 250,-26.5"/>
<polygon fill="#9a32cd" stroke="#9a32cd" points="246.5,-66.74 250,-76.74 253.5,-66.74 246.5,-66.74"/>
<text text-anchor="middle" x="268.5" y="-47.6" font-family="Helvetica,sans-Serif" font-size="8.00"> m_delay</text>
</g>
<!-- Node7 -->
<g id="node7" class="node">
<title>Node7</title>
<g id="a_node7"><a xlink:title=" ">
<polygon fill="white" stroke="#bfbfbf" points="316,-77 316,-94 408,-94 408,-77 316,-77"/>
<text text-anchor="middle" x="362" y="-83.6" font-family="Helvetica,sans-Serif" font-size="8.00">const unsigned int</text>
</a>
</g>
</g>
<!-- Node7&#45;&gt;Node1 -->
<g id="edge6" class="edge">
<title>Node7&#45;&gt;Node1</title>
<path fill="none" stroke="#9a32cd" stroke-dasharray="5,2" d="M340.93,-71.33C320.31,-58.44 289.16,-38.98 269.2,-26.5"/>
<polygon fill="#9a32cd" stroke="#9a32cd" points="339.25,-74.41 349.59,-76.74 342.96,-68.47 339.25,-74.41"/>
<text text-anchor="middle" x="337" y="-47.6" font-family="Helvetica,sans-Serif" font-size="8.00"> m_rexmit_id</text>
</g>
</g>
</svg>
