<?xml version="1.0" encoding="UTF-8" standalone="no"?>
<!DOCTYPE svg PUBLIC "-//W3C//DTD SVG 1.1//EN"
 "http://www.w3.org/Graphics/SVG/1.1/DTD/svg11.dtd">
<!-- Generated by graphviz version 2.43.0 (0)
 -->
<!-- Title: flow::net_flow::Low_lvl_packet Pages: 1 -->
<svg width="427pt" height="260pt"
 viewBox="0.00 0.00 427.00 260.00" xmlns="http://www.w3.org/2000/svg" xmlns:xlink="http://www.w3.org/1999/xlink">
<g id="graph0" class="graph" transform="scale(1 1) rotate(0) translate(4 256)">
<title>flow::net_flow::Low_lvl_packet</title>
<polygon fill="white" stroke="transparent" points="-4,4 -4,-256 423,-256 423,4 -4,4"/>
<!-- Node1 -->
<g id="node1" class="node">
<title>Node1</title>
<g id="a_node1"><a xlink:title="Internal net_flow struct that encapsulates the Flow&#45;protocol low&#45;level packet structure and serves as...">
<polygon fill="#bfbfbf" stroke="black" points="190,-112.5 190,-138.5 285,-138.5 285,-112.5 190,-112.5"/>
<text text-anchor="start" x="198" y="-128.1" font-family="Helvetica,sans-Serif" font-size="8.00">flow::net_flow::Low</text>
<text text-anchor="middle" x="237.5" y="-119.1" font-family="Helvetica,sans-Serif" font-size="8.00">_lvl_packet</text>
</a>
</g>
</g>
<!-- Node6 -->
<g id="node6" class="node">
<title>Node6</title>
<g id="a_node6"><a xlink:href="structflow_1_1net__flow_1_1Ack__packet.html" target="_top" xlink:title="Internal net_flow struct that encapsulates the Flow&#45;protocol low&#45;level ACK packet.">
<polygon fill="white" stroke="black" points="323.5,-225.5 323.5,-251.5 416.5,-251.5 416.5,-225.5 323.5,-225.5"/>
<text text-anchor="start" x="331.5" y="-241.1" font-family="Helvetica,sans-Serif" font-size="8.00">flow::net_flow::Ack</text>
<text text-anchor="middle" x="370" y="-232.1" font-family="Helvetica,sans-Serif" font-size="8.00">_packet</text>
</a>
</g>
</g>
<!-- Node1&#45;&gt;Node6 -->
<g id="edge5" class="edge">
<title>Node1&#45;&gt;Node6</title>
<path fill="none" stroke="midnightblue" d="M253.91,-147.01C269.14,-167.05 294.02,-196.75 321,-216.5 325.51,-219.8 330.6,-222.78 335.73,-225.4"/>
<polygon fill="midnightblue" stroke="midnightblue" points="256.59,-144.74 247.81,-138.8 250.97,-148.91 256.59,-144.74"/>
</g>
<!-- Node7 -->
<g id="node7" class="node">
<title>Node7</title>
<g id="a_node7"><a xlink:href="structflow_1_1net__flow_1_1Data__packet.html" target="_top" xlink:title="Internal net_flow struct that encapsulates the Flow&#45;protocol low&#45;level DATA packet.">
<polygon fill="white" stroke="black" points="321,-180.5 321,-206.5 419,-206.5 419,-180.5 321,-180.5"/>
<text text-anchor="start" x="329" y="-196.1" font-family="Helvetica,sans-Serif" font-size="8.00">flow::net_flow::Data</text>
<text text-anchor="middle" x="370" y="-187.1" font-family="Helvetica,sans-Serif" font-size="8.00">_packet</text>
</a>
</g>
</g>
<!-- Node1&#45;&gt;Node7 -->
<g id="edge6" class="edge">
<title>Node1&#45;&gt;Node7</title>
<path fill="none" stroke="midnightblue" d="M270.01,-143.84C285.26,-152.51 303.92,-162.84 321,-171.5 326.97,-174.53 333.44,-177.61 339.63,-180.49"/>
<polygon fill="midnightblue" stroke="midnightblue" points="271.42,-140.61 261,-138.68 267.94,-146.68 271.42,-140.61"/>
</g>
<!-- Node8 -->
<g id="node8" class="node">
<title>Node8</title>
<g id="a_node8"><a xlink:href="structflow_1_1net__flow_1_1Rst__packet.html" target="_top" xlink:title="Internal net_flow struct that encapsulates the Flow&#45;protocol low&#45;level RST packet.">
<polygon fill="white" stroke="black" points="324,-135.5 324,-161.5 416,-161.5 416,-135.5 324,-135.5"/>
<text text-anchor="start" x="332" y="-151.1" font-family="Helvetica,sans-Serif" font-size="8.00">flow::net_flow::Rst</text>
<text text-anchor="middle" x="370" y="-142.1" font-family="Helvetica,sans-Serif" font-size="8.00">_packet</text>
</a>
</g>
</g>
<!-- Node1&#45;&gt;Node8 -->
<g id="edge7" class="edge">
<title>Node1&#45;&gt;Node8</title>
<path fill="none" stroke="midnightblue" d="M295.14,-135.48C304.75,-137.18 314.62,-138.92 323.89,-140.55"/>
<polygon fill="midnightblue" stroke="midnightblue" points="295.7,-132.03 285.24,-133.74 294.49,-138.92 295.7,-132.03"/>
</g>
<!-- Node9 -->
<g id="node9" class="node">
<title>Node9</title>
<g id="a_node9"><a xlink:href="structflow_1_1net__flow_1_1Syn__ack__ack__packet.html" target="_top" xlink:title="Internal net_flow struct that encapsulates the Flow&#45;protocol low&#45;level SYN_ACK_ACK packet.">
<polygon fill="white" stroke="black" points="323,-90.5 323,-116.5 417,-116.5 417,-90.5 323,-90.5"/>
<text text-anchor="start" x="331" y="-106.1" font-family="Helvetica,sans-Serif" font-size="8.00">flow::net_flow::Syn</text>
<text text-anchor="middle" x="370" y="-97.1" font-family="Helvetica,sans-Serif" font-size="8.00">_ack_ack_packet</text>
</a>
</g>
</g>
<!-- Node1&#45;&gt;Node9 -->
<g id="edge8" class="edge">
<title>Node1&#45;&gt;Node9</title>
<path fill="none" stroke="midnightblue" d="M295.37,-115.91C304.46,-114.38 313.77,-112.81 322.58,-111.33"/>
<polygon fill="midnightblue" stroke="midnightblue" points="294.52,-112.51 285.24,-117.62 295.69,-119.41 294.52,-112.51"/>
</g>
<!-- Node10 -->
<g id="node10" class="node">
<title>Node10</title>
<g id="a_node10"><a xlink:href="structflow_1_1net__flow_1_1Syn__ack__packet.html" target="_top" xlink:title="Internal net_flow struct that encapsulates the Flow&#45;protocol low&#45;level SYN_ACK packet.">
<polygon fill="white" stroke="black" points="323,-45.5 323,-71.5 417,-71.5 417,-45.5 323,-45.5"/>
<text text-anchor="start" x="331" y="-61.1" font-family="Helvetica,sans-Serif" font-size="8.00">flow::net_flow::Syn</text>
<text text-anchor="middle" x="370" y="-52.1" font-family="Helvetica,sans-Serif" font-size="8.00">_ack_packet</text>
</a>
</g>
</g>
<!-- Node1&#45;&gt;Node10 -->
<g id="edge9" class="edge">
<title>Node1&#45;&gt;Node10</title>
<path fill="none" stroke="midnightblue" d="M271.47,-107.5C286.5,-99.4 304.57,-89.81 321,-81.5 327.51,-78.2 334.58,-74.75 341.23,-71.55"/>
<polygon fill="midnightblue" stroke="midnightblue" points="269.67,-104.49 262.54,-112.32 273,-110.65 269.67,-104.49"/>
</g>
<!-- Node11 -->
<g id="node11" class="node">
<title>Node11</title>
<g id="a_node11"><a xlink:href="structflow_1_1net__flow_1_1Syn__packet.html" target="_top" xlink:title="Internal net_flow struct that encapsulates the Flow&#45;protocol low&#45;level SYN packet.">
<polygon fill="white" stroke="black" points="323,-0.5 323,-26.5 417,-26.5 417,-0.5 323,-0.5"/>
<text text-anchor="start" x="331" y="-16.1" font-family="Helvetica,sans-Serif" font-size="8.00">flow::net_flow::Syn</text>
<text text-anchor="middle" x="370" y="-7.1" font-family="Helvetica,sans-Serif" font-size="8.00">_packet</text>
</a>
</g>
</g>
<!-- Node1&#45;&gt;Node11 -->
<g id="edge10" class="edge">
<title>Node1&#45;&gt;Node11</title>
<path fill="none" stroke="midnightblue" d="M253.96,-104.24C269.23,-84.42 294.13,-55.06 321,-35.5 325.52,-32.21 330.61,-29.24 335.75,-26.62"/>
<polygon fill="midnightblue" stroke="midnightblue" points="251.07,-102.26 247.84,-112.35 256.66,-106.48 251.07,-102.26"/>
</g>
<!-- Node2 -->
<g id="node2" class="node">
<title>Node2</title>
<g id="a_node2"><a xlink:href="classflow_1_1util_1_1Null__interface.html" target="_top" xlink:title="An empty interface, consisting of nothing but a default virtual destructor, intended as a boiler&#45;plat...">
<polygon fill="white" stroke="black" points="20,-185 20,-202 134,-202 134,-185 20,-185"/>
<text text-anchor="middle" x="77" y="-191.6" font-family="Helvetica,sans-Serif" font-size="8.00">flow::util::Null_interface</text>
</a>
</g>
</g>
<!-- Node2&#45;&gt;Node1 -->
<g id="edge1" class="edge">
<title>Node2&#45;&gt;Node1</title>
<path fill="none" stroke="midnightblue" d="M134.36,-182.25C141.08,-180.3 147.76,-178.06 154,-175.5 177.71,-165.79 202.55,-149.83 218.7,-138.55"/>
<polygon fill="midnightblue" stroke="midnightblue" points="133.28,-178.92 124.54,-184.91 135.11,-185.67 133.28,-178.92"/>
</g>
<!-- Node3 -->
<g id="node3" class="node">
<title>Node3</title>
<g id="a_node3"><a xlink:href="classflow_1_1util_1_1Shared__ptr__alias__holder.html" target="_top" xlink:title=" ">
<polygon fill="white" stroke="black" points="0,-131 0,-166 154,-166 154,-131 0,-131"/>
<text text-anchor="start" x="8" y="-155.6" font-family="Helvetica,sans-Serif" font-size="8.00">flow::util::Shared</text>
<text text-anchor="start" x="8" y="-146.6" font-family="Helvetica,sans-Serif" font-size="8.00">_ptr_alias_holder&lt; boost</text>
<text text-anchor="middle" x="77" y="-137.6" font-family="Helvetica,sans-Serif" font-size="8.00">::shared_ptr&lt; Low_lvl_packet &gt; &gt;</text>
</a>
</g>
</g>
<!-- Node3&#45;&gt;Node1 -->
<g id="edge2" class="edge">
<title>Node3&#45;&gt;Node1</title>
<path fill="none" stroke="midnightblue" d="M164.04,-136.02C172.9,-134.73 181.66,-133.46 189.85,-132.27"/>
<polygon fill="midnightblue" stroke="midnightblue" points="163.39,-132.57 154,-137.47 164.4,-139.5 163.39,-132.57"/>
</g>
<!-- Node4 -->
<g id="node4" class="node">
<title>Node4</title>
<g id="a_node4"><a xlink:href="classflow_1_1log_1_1Log__context.html" target="_top" xlink:title="Convenience class that simply stores a Logger and/or Component passed into a constructor; and returns...">
<polygon fill="white" stroke="black" points="23.5,-95 23.5,-112 130.5,-112 130.5,-95 23.5,-95"/>
<text text-anchor="middle" x="77" y="-101.6" font-family="Helvetica,sans-Serif" font-size="8.00">flow::log::Log_context</text>
</a>
</g>
</g>
<!-- Node4&#45;&gt;Node1 -->
<g id="edge3" class="edge">
<title>Node4&#45;&gt;Node1</title>
<path fill="none" stroke="midnightblue" d="M140.8,-112.22C157.14,-114.49 174.46,-116.89 189.81,-119.02"/>
<polygon fill="midnightblue" stroke="midnightblue" points="141.16,-108.73 130.78,-110.83 140.2,-115.67 141.16,-108.73"/>
</g>
<!-- Node5 -->
<g id="node5" class="node">
<title>Node5</title>
<g id="a_node5"><a xlink:title=" ">
<polygon fill="white" stroke="#bfbfbf" points="27.5,-59 27.5,-76 126.5,-76 126.5,-59 27.5,-59"/>
<text text-anchor="middle" x="77" y="-65.6" font-family="Helvetica,sans-Serif" font-size="8.00">boost::noncopyable</text>
</a>
</g>
</g>
<!-- Node5&#45;&gt;Node1 -->
<g id="edge4" class="edge">
<title>Node5&#45;&gt;Node1</title>
<path fill="none" stroke="#8b1a1a" d="M131.19,-78.53C138.92,-80.58 146.72,-82.91 154,-85.5 174.54,-92.81 196.73,-103.76 212.91,-112.35"/>
<polygon fill="#8b1a1a" stroke="#8b1a1a" points="132.04,-75.13 121.48,-76.07 130.32,-81.92 132.04,-75.13"/>
</g>
</g>
</svg>
