<?xml version="1.0" encoding="UTF-8" standalone="no"?>
<!DOCTYPE svg PUBLIC "-//W3C//DTD SVG 1.1//EN"
 "http://www.w3.org/Graphics/SVG/1.1/DTD/svg11.dtd">
<!-- Generated by graphviz version 2.43.0 (0)
 -->
<!-- Title: flow::net_flow::Ack_packet Pages: 1 -->
<svg width="1184pt" height="798pt"
 viewBox="0.00 0.00 1184.00 797.90" xmlns="http://www.w3.org/2000/svg" xmlns:xlink="http://www.w3.org/1999/xlink">
<g id="graph0" class="graph" transform="scale(1 1) rotate(0) translate(4 793.9)">
<title>flow::net_flow::Ack_packet</title>
<polygon fill="white" stroke="transparent" points="-4,4 -4,-793.9 1180,-793.9 1180,4 -4,4"/>
<!-- Node1 -->
<g id="node1" class="node">
<title>Node1</title>
<g id="a_node1"><a xlink:title="Internal net_flow struct that encapsulates the Flow&#45;protocol low&#45;level ACK packet.">
<polygon fill="#bfbfbf" stroke="black" points="1083,-154 1083,-180 1176,-180 1176,-154 1083,-154"/>
<text text-anchor="start" x="1091" y="-169.6" font-family="Helvetica,sans-Serif" font-size="8.00">flow::net_flow::Ack</text>
<text text-anchor="middle" x="1129.5" y="-160.6" font-family="Helvetica,sans-Serif" font-size="8.00">_packet</text>
</a>
</g>
</g>
<!-- Node2 -->
<g id="node2" class="node">
<title>Node2</title>
<g id="a_node2"><a xlink:href="structflow_1_1net__flow_1_1Low__lvl__packet.html" target="_top" xlink:title="Internal net_flow struct that encapsulates the Flow&#45;protocol low&#45;level packet structure and serves as...">
<polygon fill="white" stroke="black" points="842.5,-477 842.5,-503 937.5,-503 937.5,-477 842.5,-477"/>
<text text-anchor="start" x="850.5" y="-492.6" font-family="Helvetica,sans-Serif" font-size="8.00">flow::net_flow::Low</text>
<text text-anchor="middle" x="890" y="-483.6" font-family="Helvetica,sans-Serif" font-size="8.00">_lvl_packet</text>
</a>
</g>
</g>
<!-- Node2&#45;&gt;Node1 -->
<g id="edge1" class="edge">
<title>Node2&#45;&gt;Node1</title>
<path fill="none" stroke="midnightblue" d="M908.76,-468.88C941.12,-430.05 1011.3,-344.33 1065,-268 1086.57,-237.34 1109.38,-199.54 1120.9,-180.03"/>
<polygon fill="midnightblue" stroke="midnightblue" points="905.82,-466.94 902.09,-476.85 911.19,-471.43 905.82,-466.94"/>
</g>
<!-- Node3 -->
<g id="node3" class="node">
<title>Node3</title>
<g id="a_node3"><a xlink:href="classflow_1_1util_1_1Null__interface.html" target="_top" xlink:title="An empty interface, consisting of nothing but a default virtual destructor, intended as a boiler&#45;plat...">
<polygon fill="white" stroke="black" points="0,-767.5 0,-784.5 114,-784.5 114,-767.5 0,-767.5"/>
<text text-anchor="middle" x="57" y="-774.1" font-family="Helvetica,sans-Serif" font-size="8.00">flow::util::Null_interface</text>
</a>
</g>
</g>
<!-- Node3&#45;&gt;Node2 -->
<g id="edge2" class="edge">
<title>Node3&#45;&gt;Node2</title>
<path fill="none" stroke="midnightblue" d="M124.32,-783.61C265.36,-796.09 599.08,-805.51 806,-647 855.2,-609.31 878.31,-534.02 885.97,-503.41"/>
<polygon fill="midnightblue" stroke="midnightblue" points="124.38,-780.1 114.1,-782.67 123.73,-787.07 124.38,-780.1"/>
</g>
<!-- Node6 -->
<g id="node6" class="node">
<title>Node6</title>
<g id="a_node6"><a xlink:href="classflow_1_1log_1_1Logger.html" target="_top" xlink:title="Interface that the user should implement, passing the implementing Logger into logging classes (Flow&#39;...">
<polygon fill="white" stroke="black" points="274.5,-694.5 274.5,-711.5 360.5,-711.5 360.5,-694.5 274.5,-694.5"/>
<text text-anchor="middle" x="317.5" y="-701.1" font-family="Helvetica,sans-Serif" font-size="8.00">flow::log::Logger</text>
</a>
</g>
</g>
<!-- Node3&#45;&gt;Node6 -->
<g id="edge6" class="edge">
<title>Node3&#45;&gt;Node6</title>
<path fill="none" stroke="midnightblue" d="M114.26,-765.46C152.2,-757.74 203.14,-746.15 247,-732 264.79,-726.26 284.39,-717.88 298.23,-711.61"/>
<polygon fill="midnightblue" stroke="midnightblue" points="113.53,-762.04 104.41,-767.44 114.91,-768.9 113.53,-762.04"/>
</g>
<!-- Node4 -->
<g id="node4" class="node">
<title>Node4</title>
<g id="a_node4"><a xlink:href="classflow_1_1util_1_1Shared__ptr__alias__holder.html" target="_top" xlink:title=" ">
<polygon fill="white" stroke="black" points="498.5,-636.5 498.5,-671.5 652.5,-671.5 652.5,-636.5 498.5,-636.5"/>
<text text-anchor="start" x="506.5" y="-661.1" font-family="Helvetica,sans-Serif" font-size="8.00">flow::util::Shared</text>
<text text-anchor="start" x="506.5" y="-652.1" font-family="Helvetica,sans-Serif" font-size="8.00">_ptr_alias_holder&lt; boost</text>
<text text-anchor="middle" x="575.5" y="-643.1" font-family="Helvetica,sans-Serif" font-size="8.00">::shared_ptr&lt; Low_lvl_packet &gt; &gt;</text>
</a>
</g>
</g>
<!-- Node4&#45;&gt;Node2 -->
<g id="edge3" class="edge">
<title>Node4&#45;&gt;Node2</title>
<path fill="none" stroke="midnightblue" d="M662.71,-654.9C708.49,-651.64 763.84,-641.42 806,-614 848.34,-586.45 874.34,-528.93 884.32,-503.07"/>
<polygon fill="midnightblue" stroke="midnightblue" points="662.27,-651.42 652.5,-655.53 662.7,-658.41 662.27,-651.42"/>
</g>
<!-- Node5 -->
<g id="node5" class="node">
<title>Node5</title>
<g id="a_node5"><a xlink:href="classflow_1_1log_1_1Log__context.html" target="_top" xlink:title="Convenience class that simply stores a Logger and/or Component passed into a constructor; and returns...">
<polygon fill="white" stroke="black" points="522,-600.5 522,-617.5 629,-617.5 629,-600.5 522,-600.5"/>
<text text-anchor="middle" x="575.5" y="-607.1" font-family="Helvetica,sans-Serif" font-size="8.00">flow::log::Log_context</text>
</a>
</g>
</g>
<!-- Node5&#45;&gt;Node2 -->
<g id="edge4" class="edge">
<title>Node5&#45;&gt;Node2</title>
<path fill="none" stroke="midnightblue" d="M639.29,-614.86C687.53,-616.59 754.41,-612.79 806,-586 842.57,-567.02 870,-524.54 882.13,-503.03"/>
<polygon fill="midnightblue" stroke="midnightblue" points="639.43,-611.36 629.29,-614.42 639.12,-618.36 639.43,-611.36"/>
</g>
<!-- Node6&#45;&gt;Node5 -->
<g id="edge5" class="edge">
<title>Node6&#45;&gt;Node5</title>
<path fill="none" stroke="#9a32cd" stroke-dasharray="5,2" d="M344.86,-689.83C378.86,-673.27 440.14,-644.85 495,-627 506.17,-623.37 518.45,-620.2 529.95,-617.57"/>
<polygon fill="#9a32cd" stroke="#9a32cd" points="343.06,-686.81 335.63,-694.36 346.14,-693.1 343.06,-686.81"/>
<text text-anchor="middle" x="432.5" y="-671.6" font-family="Helvetica,sans-Serif" font-size="8.00"> m_logger</text>
</g>
<!-- Node7 -->
<g id="node7" class="node">
<title>Node7</title>
<g id="a_node7"><a xlink:href="classflow_1_1util_1_1Unique__id__holder.html" target="_top" xlink:title="Each object of this class stores (at construction) and returns (on demand) a numeric ID unique from a...">
<polygon fill="white" stroke="red" points="13.5,-721 13.5,-747 100.5,-747 100.5,-721 13.5,-721"/>
<text text-anchor="start" x="21.5" y="-736.6" font-family="Helvetica,sans-Serif" font-size="8.00">flow::util::Unique</text>
<text text-anchor="middle" x="57" y="-727.6" font-family="Helvetica,sans-Serif" font-size="8.00">_id_holder</text>
</a>
</g>
</g>
<!-- Node7&#45;&gt;Node6 -->
<g id="edge7" class="edge">
<title>Node7&#45;&gt;Node6</title>
<path fill="none" stroke="midnightblue" d="M110.63,-727.69C158.9,-721.9 229.47,-713.44 274.18,-708.08"/>
<polygon fill="midnightblue" stroke="midnightblue" points="110.2,-724.22 100.69,-728.88 111.03,-731.17 110.2,-724.22"/>
</g>
<!-- Node10 -->
<g id="node8" class="node">
<title>Node10</title>
<g id="a_node8"><a xlink:title=" ">
<polygon fill="white" stroke="#bfbfbf" points="7.5,-560.5 7.5,-577.5 106.5,-577.5 106.5,-560.5 7.5,-560.5"/>
<text text-anchor="middle" x="57" y="-567.1" font-family="Helvetica,sans-Serif" font-size="8.00">boost::noncopyable</text>
</a>
</g>
</g>
<!-- Node10&#45;&gt;Node2 -->
<g id="edge13" class="edge">
<title>Node10&#45;&gt;Node2</title>
<path fill="none" stroke="#8b1a1a" d="M116.81,-569.23C224.11,-569.25 458.78,-567.44 656,-553 722.97,-548.1 742.02,-555.36 806,-535 829.27,-527.59 853.57,-513.56 869.82,-503.13"/>
<polygon fill="#8b1a1a" stroke="#8b1a1a" points="116.52,-565.73 106.52,-569.22 116.52,-572.73 116.52,-565.73"/>
</g>
<!-- Node10&#45;&gt;Node6 -->
<g id="edge8" class="edge">
<title>Node10&#45;&gt;Node6</title>
<path fill="none" stroke="#8b1a1a" d="M109.35,-582.89C111.01,-584.15 112.56,-585.51 114,-587 134.51,-608.27 111.11,-630.1 132,-651 142.5,-661.5 228.06,-682.64 278.9,-694.48"/>
<polygon fill="#8b1a1a" stroke="#8b1a1a" points="110.8,-579.68 100.43,-577.52 107.19,-585.68 110.8,-579.68"/>
</g>
<!-- Node20 -->
<g id="node18" class="node">
<title>Node20</title>
<g id="a_node18"><a xlink:href="structflow_1_1net__flow_1_1Low__lvl__packet_1_1Aux__raw__data.html" target="_top" xlink:title="Helper data store type for storing binary data needed by serialize_to_raw_data(), when certains bits ...">
<polygon fill="white" stroke="black" points="514,-283 514,-309 637,-309 637,-283 514,-283"/>
<text text-anchor="start" x="522" y="-298.6" font-family="Helvetica,sans-Serif" font-size="8.00">flow::net_flow::Low</text>
<text text-anchor="middle" x="575.5" y="-289.6" font-family="Helvetica,sans-Serif" font-size="8.00">_lvl_packet::Aux_raw_data</text>
</a>
</g>
</g>
<!-- Node10&#45;&gt;Node20 -->
<g id="edge20" class="edge">
<title>Node10&#45;&gt;Node20</title>
<path fill="none" stroke="#8b1a1a" d="M82.33,-555.46C146.95,-519.42 328.16,-417.9 477,-330 485.07,-325.23 486.42,-322.78 495,-319 503.55,-315.23 512.88,-311.9 522.04,-309.02"/>
<polygon fill="#8b1a1a" stroke="#8b1a1a" points="80.35,-552.56 73.32,-560.48 83.75,-558.67 80.35,-552.56"/>
</g>
<!-- Node11 -->
<g id="node9" class="node">
<title>Node11</title>
<g id="a_node9"><a xlink:title=" ">
<polygon fill="white" stroke="#bfbfbf" points="10,-676 10,-702 104,-702 104,-676 10,-676"/>
<text text-anchor="start" x="18" y="-691.6" font-family="Helvetica,sans-Serif" font-size="8.00">thread_specific_ptr</text>
<text text-anchor="middle" x="57" y="-682.6" font-family="Helvetica,sans-Serif" font-size="8.00">&lt; std::string &gt;</text>
</a>
</g>
</g>
<!-- Node11&#45;&gt;Node6 -->
<g id="edge9" class="edge">
<title>Node11&#45;&gt;Node6</title>
<path fill="none" stroke="#9a32cd" stroke-dasharray="5,2" d="M114.46,-692.06C162.54,-694.66 230.57,-698.35 274.11,-700.7"/>
<polygon fill="#9a32cd" stroke="#9a32cd" points="114.39,-688.55 104.21,-691.5 114.01,-695.54 114.39,-688.55"/>
<text text-anchor="middle" x="189.5" y="-700.6" font-family="Helvetica,sans-Serif" font-size="8.00"> s_this_thread_nickname_ptr</text>
</g>
<!-- Node12 -->
<g id="node10" class="node">
<title>Node12</title>
<g id="a_node10"><a xlink:href="classflow_1_1log_1_1Component.html" target="_top" xlink:title="A light&#45;weight class, each object storing a component payload encoding an enum value from enum type o...">
<polygon fill="white" stroke="black" points="265,-600.5 265,-617.5 370,-617.5 370,-600.5 265,-600.5"/>
<text text-anchor="middle" x="317.5" y="-607.1" font-family="Helvetica,sans-Serif" font-size="8.00">flow::log::Component</text>
</a>
</g>
</g>
<!-- Node12&#45;&gt;Node5 -->
<g id="edge10" class="edge">
<title>Node12&#45;&gt;Node5</title>
<path fill="none" stroke="#9a32cd" stroke-dasharray="5,2" d="M380.43,-609C423.69,-609 480.83,-609 521.89,-609"/>
<polygon fill="#9a32cd" stroke="#9a32cd" points="380.31,-605.5 370.31,-609 380.31,-612.5 380.31,-605.5"/>
<text text-anchor="middle" x="432.5" y="-611.6" font-family="Helvetica,sans-Serif" font-size="8.00"> m_component</text>
</g>
<!-- Node13 -->
<g id="node11" class="node">
<title>Node13</title>
<g id="a_node11"><a xlink:title=" ">
<polygon fill="white" stroke="#bfbfbf" points="14.5,-637.5 14.5,-654.5 99.5,-654.5 99.5,-637.5 14.5,-637.5"/>
<text text-anchor="middle" x="57" y="-644.1" font-family="Helvetica,sans-Serif" font-size="8.00">type_info const *</text>
</a>
</g>
</g>
<!-- Node13&#45;&gt;Node12 -->
<g id="edge11" class="edge">
<title>Node13&#45;&gt;Node12</title>
<path fill="none" stroke="#9a32cd" stroke-dasharray="5,2" d="M110.15,-641.3C148.21,-637.53 200.98,-631.63 247,-624 257.84,-622.2 269.54,-619.84 280.2,-617.53"/>
<polygon fill="#9a32cd" stroke="#9a32cd" points="109.44,-637.85 99.83,-642.3 110.12,-644.82 109.44,-637.85"/>
<text text-anchor="middle" x="189.5" y="-640.6" font-family="Helvetica,sans-Serif" font-size="8.00"> m_payload_type_or_null</text>
</g>
<!-- Node14 -->
<g id="node12" class="node">
<title>Node14</title>
<g id="a_node12"><a xlink:title=" ">
<polygon fill="white" stroke="#bfbfbf" points="23,-596.5 23,-613.5 91,-613.5 91,-596.5 23,-596.5"/>
<text text-anchor="middle" x="57" y="-603.1" font-family="Helvetica,sans-Serif" font-size="8.00">unsigned int</text>
</a>
</g>
</g>
<!-- Node14&#45;&gt;Node12 -->
<g id="edge12" class="edge">
<title>Node14&#45;&gt;Node12</title>
<path fill="none" stroke="#9a32cd" stroke-dasharray="5,2" d="M101.4,-604.76C139.71,-604.67 197.08,-604.79 247,-606 252.8,-606.14 258.86,-606.33 264.89,-606.55"/>
<polygon fill="#9a32cd" stroke="#9a32cd" points="101.11,-601.26 91.12,-604.8 101.13,-608.26 101.11,-601.26"/>
<text text-anchor="start" x="143" y="-617.6" font-family="Helvetica,sans-Serif" font-size="8.00"> m_payload_enum_raw</text>
<text text-anchor="middle" x="189.5" y="-608.6" font-family="Helvetica,sans-Serif" font-size="8.00">_value</text>
</g>
<!-- Node15 -->
<g id="node13" class="node">
<title>Node15</title>
<g id="a_node13"><a xlink:href="classbool.html" target="_top" xlink:title=" ">
<polygon fill="white" stroke="#bfbfbf" points="558,-526.5 558,-543.5 593,-543.5 593,-526.5 558,-526.5"/>
<text text-anchor="middle" x="575.5" y="-533.1" font-family="Helvetica,sans-Serif" font-size="8.00">bool</text>
</a>
</g>
</g>
<!-- Node15&#45;&gt;Node2 -->
<g id="edge14" class="edge">
<title>Node15&#45;&gt;Node2</title>
<path fill="none" stroke="#9a32cd" stroke-dasharray="5,2" d="M603.4,-531.66C646.31,-526.26 732.87,-515.1 806,-504 817.7,-502.22 830.31,-500.17 842.08,-498.19"/>
<polygon fill="#9a32cd" stroke="#9a32cd" points="602.72,-528.22 593.23,-532.93 603.59,-535.16 602.72,-528.22"/>
<text text-anchor="middle" x="740" y="-524.6" font-family="Helvetica,sans-Serif" font-size="8.00"> m_opt_rexmit_on</text>
</g>
<!-- Node16 -->
<g id="node14" class="node">
<title>Node16</title>
<g id="a_node14"><a xlink:title=" ">
<polygon fill="white" stroke="#bfbfbf" points="292.5,-318.5 292.5,-335.5 342.5,-335.5 342.5,-318.5 292.5,-318.5"/>
<text text-anchor="middle" x="317.5" y="-325.1" font-family="Helvetica,sans-Serif" font-size="8.00">uint16_t</text>
</a>
</g>
</g>
<!-- Node16&#45;&gt;Node1 -->
<g id="edge24" class="edge">
<title>Node16&#45;&gt;Node1</title>
<path fill="none" stroke="#9a32cd" stroke-dasharray="5,2" d="M352.18,-318.11C358.39,-315.68 364.61,-312.68 370,-309 380.15,-302.07 377.19,-293.85 388,-288 430.18,-265.17 447.31,-279.13 495,-274 699.44,-251.99 752.57,-264.95 956,-235 1004.98,-227.79 1019.64,-231.84 1065,-212 1083.07,-204.1 1101.19,-190.57 1113.41,-180.41"/>
<polygon fill="#9a32cd" stroke="#9a32cd" points="350.84,-314.87 342.54,-321.45 353.14,-321.48 350.84,-314.87"/>
<text text-anchor="start" x="694.5" y="-271.6" font-family="Helvetica,sans-Serif" font-size="8.00"> m_rcv_acked_packets</text>
<text text-anchor="middle" x="740" y="-262.6" font-family="Helvetica,sans-Serif" font-size="8.00">_rexmit_out_size</text>
</g>
<!-- Node16&#45;&gt;Node2 -->
<g id="edge15" class="edge">
<title>Node16&#45;&gt;Node2</title>
<path fill="none" stroke="#9a32cd" stroke-dasharray="5,2" d="M333.09,-343.31C361.05,-373.29 425.62,-436.53 495,-463 613.51,-508.22 766.49,-502.18 842.24,-495.36"/>
<polygon fill="#9a32cd" stroke="#9a32cd" points="335.53,-340.8 326.2,-335.79 330.37,-345.53 335.53,-340.8"/>
<text text-anchor="middle" x="575.5" y="-507.6" font-family="Helvetica,sans-Serif" font-size="8.00"> m_dst_port</text>
<text text-anchor="middle" x="575.5" y="-498.6" font-family="Helvetica,sans-Serif" font-size="8.00">m_src_port</text>
</g>
<!-- Node16&#45;&gt;Node20 -->
<g id="edge22" class="edge">
<title>Node16&#45;&gt;Node20</title>
<path fill="none" stroke="#9a32cd" stroke-dasharray="5,2" d="M352.63,-322.87C393.7,-317.89 463.42,-309.45 513.76,-303.36"/>
<polygon fill="#9a32cd" stroke="#9a32cd" points="352.09,-319.41 342.58,-324.08 352.93,-326.36 352.09,-319.41"/>
<text text-anchor="middle" x="432.5" y="-319.6" font-family="Helvetica,sans-Serif" font-size="8.00"> m_reserved2</text>
</g>
<!-- Node17 -->
<g id="node15" class="node">
<title>Node17</title>
<g id="a_node15"><a xlink:title=" ">
<polygon fill="white" stroke="#bfbfbf" points="521,-436.5 521,-453.5 630,-453.5 630,-436.5 521,-436.5"/>
<text text-anchor="middle" x="575.5" y="-443.1" font-family="Helvetica,sans-Serif" font-size="8.00">anonymous:m_packed</text>
</a>
</g>
</g>
<!-- Node17&#45;&gt;Node2 -->
<g id="edge16" class="edge">
<title>Node17&#45;&gt;Node2</title>
<path fill="none" stroke="#9a32cd" stroke-dasharray="5,2" d="M640.38,-448.12C686.66,-451.11 750.56,-456.74 806,-467 819.67,-469.53 834.37,-473.26 847.53,-476.98"/>
<polygon fill="#9a32cd" stroke="#9a32cd" points="640.39,-444.62 630.2,-447.49 639.96,-451.6 640.39,-444.62"/>
<text text-anchor="middle" x="740" y="-469.6" font-family="Helvetica,sans-Serif" font-size="8.00"> m_packed</text>
</g>
<!-- Node18 -->
<g id="node16" class="node">
<title>Node18</title>
<g id="a_node16"><a xlink:href="classflow_1_1Function.html" target="_top" xlink:title=" ">
<polygon fill="white" stroke="#bfbfbf" points="506.5,-391 506.5,-417 644.5,-417 644.5,-391 506.5,-391"/>
<text text-anchor="start" x="514.5" y="-406.6" font-family="Helvetica,sans-Serif" font-size="8.00">flow::Function&lt; std</text>
<text text-anchor="middle" x="575.5" y="-397.6" font-family="Helvetica,sans-Serif" font-size="8.00">::ostream &amp;(std::ostream &amp;)&gt;</text>
</a>
</g>
</g>
<!-- Node18&#45;&gt;Node2 -->
<g id="edge17" class="edge">
<title>Node18&#45;&gt;Node2</title>
<path fill="none" stroke="#9a32cd" stroke-dasharray="5,2" d="M654.69,-397.08C700.39,-395.93 758.29,-399.59 806,-419 836.74,-431.51 864.24,-460.09 878.56,-476.93"/>
<polygon fill="#9a32cd" stroke="#9a32cd" points="654.41,-393.59 644.53,-397.42 654.65,-400.58 654.41,-393.59"/>
<text text-anchor="middle" x="740" y="-439.6" font-family="Helvetica,sans-Serif" font-size="8.00"> m_concise_ostream_manip</text>
<text text-anchor="middle" x="740" y="-430.6" font-family="Helvetica,sans-Serif" font-size="8.00">m_type_ostream_manip</text>
<text text-anchor="middle" x="740" y="-421.6" font-family="Helvetica,sans-Serif" font-size="8.00">m_verbose_ostream_manip</text>
</g>
<!-- Node19 -->
<g id="node17" class="node">
<title>Node19</title>
<g id="a_node17"><a xlink:title=" ">
<polygon fill="white" stroke="#bfbfbf" points="517,-328 517,-372 634,-372 634,-328 517,-328"/>
<text text-anchor="start" x="525" y="-361.6" font-family="Helvetica,sans-Serif" font-size="8.00">unordered_map&lt; std</text>
<text text-anchor="start" x="525" y="-352.6" font-family="Helvetica,sans-Serif" font-size="8.00">::type_index, flow::</text>
<text text-anchor="start" x="525" y="-343.6" font-family="Helvetica,sans-Serif" font-size="8.00">net_flow::Low_lvl_packet</text>
<text text-anchor="middle" x="575.5" y="-334.6" font-family="Helvetica,sans-Serif" font-size="8.00">::Packet_type_info &gt;</text>
</a>
</g>
</g>
<!-- Node19&#45;&gt;Node2 -->
<g id="edge18" class="edge">
<title>Node19&#45;&gt;Node2</title>
<path fill="none" stroke="#9a32cd" stroke-dasharray="5,2" d="M644.3,-342.98C692.54,-341.2 757.19,-345.6 806,-374 847.31,-398.04 873.51,-451.76 883.9,-476.75"/>
<polygon fill="#9a32cd" stroke="#9a32cd" points="644.09,-339.49 634.27,-343.45 644.42,-346.48 644.09,-339.49"/>
<text text-anchor="start" x="694.5" y="-385.6" font-family="Helvetica,sans-Serif" font-size="8.00"> S_NATIVE_TYPE_ID_TO</text>
<text text-anchor="middle" x="740" y="-376.6" font-family="Helvetica,sans-Serif" font-size="8.00">_PACKET_TYPE_INFO</text>
</g>
<!-- Node20&#45;&gt;Node2 -->
<g id="edge19" class="edge">
<title>Node20&#45;&gt;Node2</title>
<path fill="none" stroke="#9a32cd" stroke-dasharray="5,2" d="M647.33,-290.05C696.15,-289.55 760.24,-296.41 806,-329 858,-366.03 879.72,-445.57 886.49,-476.92"/>
<polygon fill="#9a32cd" stroke="#9a32cd" points="647.08,-286.55 637.16,-290.26 647.23,-293.55 647.08,-286.55"/>
<text text-anchor="middle" x="740" y="-331.6" font-family="Helvetica,sans-Serif" font-size="8.00"> m_aux_raw_data</text>
</g>
<!-- Node21 -->
<g id="node19" class="node">
<title>Node21</title>
<g id="a_node19"><a xlink:title=" ">
<polygon fill="white" stroke="#bfbfbf" points="280,-282.5 280,-299.5 355,-299.5 355,-282.5 280,-282.5"/>
<text text-anchor="middle" x="317.5" y="-289.1" font-family="Helvetica,sans-Serif" font-size="8.00">unsigned char</text>
</a>
</g>
</g>
<!-- Node21&#45;&gt;Node20 -->
<g id="edge21" class="edge">
<title>Node21&#45;&gt;Node20</title>
<path fill="none" stroke="#9a32cd" stroke-dasharray="5,2" d="M365.27,-291.87C396.83,-292.45 439.42,-293.26 477,-294 488.93,-294.24 501.69,-294.49 513.91,-294.74"/>
<polygon fill="#9a32cd" stroke="#9a32cd" points="365.08,-288.36 355.01,-291.67 364.95,-295.36 365.08,-288.36"/>
<text text-anchor="middle" x="432.5" y="-296.6" font-family="Helvetica,sans-Serif" font-size="8.00"> m_opt_rexmit_on_raw</text>
</g>
<!-- Node22 -->
<g id="node20" class="node">
<title>Node22</title>
<g id="a_node20"><a xlink:title=" ">
<polygon fill="white" stroke="#bfbfbf" points="862,-208.5 862,-225.5 918,-225.5 918,-208.5 862,-208.5"/>
<text text-anchor="middle" x="890" y="-215.1" font-family="Helvetica,sans-Serif" font-size="8.00">rcv_wnd_t</text>
</a>
</g>
</g>
<!-- Node22&#45;&gt;Node1 -->
<g id="edge23" class="edge">
<title>Node22&#45;&gt;Node1</title>
<path fill="none" stroke="#9a32cd" stroke-dasharray="5,2" d="M928.29,-209.15C970.12,-200.34 1037.98,-186.06 1082.93,-176.59"/>
<polygon fill="#9a32cd" stroke="#9a32cd" points="927.31,-205.78 918.24,-211.26 928.75,-212.63 927.31,-205.78"/>
<text text-anchor="middle" x="1019.5" y="-201.6" font-family="Helvetica,sans-Serif" font-size="8.00"> m_rcv_wnd</text>
</g>
<!-- Node23 -->
<g id="node21" class="node">
<title>Node23</title>
<g id="a_node21"><a xlink:title=" ">
<polygon fill="white" stroke="black" points="839,-145 839,-189 941,-189 941,-145 839,-145"/>
<text text-anchor="start" x="847" y="-178.6" font-family="Helvetica,sans-Serif" font-size="8.00">std::vector&lt; boost</text>
<text text-anchor="start" x="847" y="-169.6" font-family="Helvetica,sans-Serif" font-size="8.00">::shared_ptr&lt; flow::</text>
<text text-anchor="start" x="847" y="-160.6" font-family="Helvetica,sans-Serif" font-size="8.00">net_flow::Ack_packet</text>
<text text-anchor="middle" x="890" y="-151.6" font-family="Helvetica,sans-Serif" font-size="8.00">::Individual_ack &gt; &gt;</text>
</a>
</g>
</g>
<!-- Node23&#45;&gt;Node1 -->
<g id="edge25" class="edge">
<title>Node23&#45;&gt;Node1</title>
<path fill="none" stroke="#9a32cd" stroke-dasharray="5,2" d="M951.2,-167C992.15,-167 1045.48,-167 1082.91,-167"/>
<polygon fill="#9a32cd" stroke="#9a32cd" points="951.08,-163.5 941.08,-167 951.08,-170.5 951.08,-163.5"/>
<text text-anchor="middle" x="1019.5" y="-169.6" font-family="Helvetica,sans-Serif" font-size="8.00"> m_rcv_acked_packets</text>
</g>
<!-- Node24 -->
<g id="node22" class="node">
<title>Node24</title>
<g id="a_node22"><a xlink:title=" ">
<polygon fill="white" stroke="#bfbfbf" points="495,-154 495,-180 656,-180 656,-154 495,-154"/>
<text text-anchor="start" x="503" y="-169.6" font-family="Helvetica,sans-Serif" font-size="8.00">shared_ptr&lt; flow::net</text>
<text text-anchor="middle" x="575.5" y="-160.6" font-family="Helvetica,sans-Serif" font-size="8.00">_flow::Ack_packet::Individual_ack &gt;</text>
</a>
</g>
</g>
<!-- Node24&#45;&gt;Node23 -->
<g id="edge26" class="edge">
<title>Node24&#45;&gt;Node23</title>
<path fill="none" stroke="#9a32cd" stroke-dasharray="5,2" d="M666.45,-167C722.47,-167 792.45,-167 838.82,-167"/>
<polygon fill="#9a32cd" stroke="#9a32cd" points="666.17,-163.5 656.17,-167 666.17,-170.5 666.17,-163.5"/>
<text text-anchor="middle" x="740" y="-169.6" font-family="Helvetica,sans-Serif" font-size="8.00"> elements</text>
</g>
<!-- Node25 -->
<g id="node23" class="node">
<title>Node25</title>
<g id="a_node23"><a xlink:title=" ">
<polygon fill="white" stroke="black" points="674,-90.5 674,-125.5 806,-125.5 806,-90.5 674,-90.5"/>
<text text-anchor="start" x="682" y="-115.1" font-family="Helvetica,sans-Serif" font-size="8.00">std::vector&lt; flow::</text>
<text text-anchor="start" x="682" y="-106.1" font-family="Helvetica,sans-Serif" font-size="8.00">net_flow::Ack_packet</text>
<text text-anchor="middle" x="740" y="-97.1" font-family="Helvetica,sans-Serif" font-size="8.00">::Individual_ack_rexmit_off &gt;</text>
</a>
</g>
</g>
<!-- Node25&#45;&gt;Node1 -->
<g id="edge27" class="edge">
<title>Node25&#45;&gt;Node1</title>
<path fill="none" stroke="#9a32cd" stroke-dasharray="5,2" d="M816.35,-107.28C857.8,-107.93 910,-110.5 956,-118 1003.93,-125.82 1057.5,-142.3 1092.04,-153.99"/>
<polygon fill="#9a32cd" stroke="#9a32cd" points="816.37,-103.78 806.32,-107.15 816.28,-110.78 816.37,-103.78"/>
<text text-anchor="start" x="844.5" y="-129.6" font-family="Helvetica,sans-Serif" font-size="8.00"> m_rcv_acked_packets</text>
<text text-anchor="middle" x="890" y="-120.6" font-family="Helvetica,sans-Serif" font-size="8.00">_rexmit_off_out</text>
</g>
<!-- Node26 -->
<g id="node24" class="node">
<title>Node26</title>
<g id="a_node24"><a xlink:href="structflow_1_1net__flow_1_1Ack__packet_1_1Individual__ack__rexmit__off.html" target="_top" xlink:title="Specifies the outgoing (pre&#45;serialization) acknowledgment of a single received Data_packet,...">
<polygon fill="white" stroke="black" points="270.5,-81.5 270.5,-116.5 364.5,-116.5 364.5,-81.5 270.5,-81.5"/>
<text text-anchor="start" x="278.5" y="-106.1" font-family="Helvetica,sans-Serif" font-size="8.00">flow::net_flow::Ack</text>
<text text-anchor="start" x="278.5" y="-97.1" font-family="Helvetica,sans-Serif" font-size="8.00">_packet::Individual</text>
<text text-anchor="middle" x="317.5" y="-88.1" font-family="Helvetica,sans-Serif" font-size="8.00">_ack_rexmit_off</text>
</a>
</g>
</g>
<!-- Node26&#45;&gt;Node25 -->
<g id="edge28" class="edge">
<title>Node26&#45;&gt;Node25</title>
<path fill="none" stroke="#9a32cd" stroke-dasharray="5,2" d="M374.77,-100.2C452.34,-101.86 591.81,-104.85 673.82,-106.61"/>
<polygon fill="#9a32cd" stroke="#9a32cd" points="374.78,-96.7 364.7,-99.99 374.63,-103.7 374.78,-96.7"/>
<text text-anchor="middle" x="432.5" y="-104.6" font-family="Helvetica,sans-Serif" font-size="8.00"> elements</text>
</g>
<!-- Node30 -->
<g id="node28" class="node">
<title>Node30</title>
<g id="a_node28"><a xlink:href="structflow_1_1net__flow_1_1Ack__packet_1_1Individual__ack__rexmit__on.html" target="_top" xlink:title="Equivalent of Individual_ack_rexmit_off but for sockets with retransmission enabled.">
<polygon fill="white" stroke="black" points="528.5,-36.5 528.5,-71.5 622.5,-71.5 622.5,-36.5 528.5,-36.5"/>
<text text-anchor="start" x="536.5" y="-61.1" font-family="Helvetica,sans-Serif" font-size="8.00">flow::net_flow::Ack</text>
<text text-anchor="start" x="536.5" y="-52.1" font-family="Helvetica,sans-Serif" font-size="8.00">_packet::Individual</text>
<text text-anchor="middle" x="575.5" y="-43.1" font-family="Helvetica,sans-Serif" font-size="8.00">_ack_rexmit_on</text>
</a>
</g>
</g>
<!-- Node26&#45;&gt;Node30 -->
<g id="edge33" class="edge">
<title>Node26&#45;&gt;Node30</title>
<path fill="none" stroke="#9a32cd" stroke-dasharray="5,2" d="M374.46,-80.32C379.01,-79.09 383.57,-77.97 388,-77 435.18,-66.72 490.14,-60.64 528.12,-57.34"/>
<polygon fill="#9a32cd" stroke="#9a32cd" points="373.21,-77.03 364.54,-83.13 375.11,-83.77 373.21,-77.03"/>
<text text-anchor="middle" x="432.5" y="-79.6" font-family="Helvetica,sans-Serif" font-size="8.00"> m_basic_ack</text>
</g>
<!-- Node27 -->
<g id="node25" class="node">
<title>Node27</title>
<g id="a_node25"><a xlink:title=" ">
<polygon fill="white" stroke="#bfbfbf" points="27,-108.5 27,-125.5 87,-125.5 87,-108.5 27,-108.5"/>
<text text-anchor="middle" x="57" y="-115.1" font-family="Helvetica,sans-Serif" font-size="8.00">seq_num_t</text>
</a>
</g>
</g>
<!-- Node27&#45;&gt;Node26 -->
<g id="edge29" class="edge">
<title>Node27&#45;&gt;Node26</title>
<path fill="none" stroke="#9a32cd" stroke-dasharray="5,2" d="M97.41,-114.26C143.81,-111.03 220.77,-105.67 270.03,-102.24"/>
<polygon fill="#9a32cd" stroke="#9a32cd" points="96.88,-110.78 87.15,-114.97 97.37,-117.77 96.88,-110.78"/>
<text text-anchor="middle" x="189.5" y="-113.6" font-family="Helvetica,sans-Serif" font-size="8.00"> m_seq_num_raw</text>
</g>
<!-- Node28 -->
<g id="node26" class="node">
<title>Node28</title>
<g id="a_node26"><a xlink:title=" ">
<polygon fill="white" stroke="#bfbfbf" points="12.5,-72.5 12.5,-89.5 101.5,-89.5 101.5,-72.5 12.5,-72.5"/>
<text text-anchor="middle" x="57" y="-79.1" font-family="Helvetica,sans-Serif" font-size="8.00">const ack_delay_t</text>
</a>
</g>
</g>
<!-- Node28&#45;&gt;Node26 -->
<g id="edge30" class="edge">
<title>Node28&#45;&gt;Node26</title>
<path fill="none" stroke="#9a32cd" stroke-dasharray="5,2" d="M111.88,-82.97C149.72,-84.56 201.51,-87.18 247,-91 254.5,-91.63 262.45,-92.42 270.18,-93.27"/>
<polygon fill="#9a32cd" stroke="#9a32cd" points="111.73,-79.46 101.59,-82.54 111.44,-86.45 111.73,-79.46"/>
<text text-anchor="middle" x="189.5" y="-93.6" font-family="Helvetica,sans-Serif" font-size="8.00"> m_delay</text>
</g>
<!-- Node29 -->
<g id="node27" class="node">
<title>Node29</title>
<g id="a_node27"><a xlink:title=" ">
<polygon fill="white" stroke="black" points="824,-36.5 824,-71.5 956,-71.5 956,-36.5 824,-36.5"/>
<text text-anchor="start" x="832" y="-61.1" font-family="Helvetica,sans-Serif" font-size="8.00">std::vector&lt; flow::</text>
<text text-anchor="start" x="832" y="-52.1" font-family="Helvetica,sans-Serif" font-size="8.00">net_flow::Ack_packet</text>
<text text-anchor="middle" x="890" y="-43.1" font-family="Helvetica,sans-Serif" font-size="8.00">::Individual_ack_rexmit_on &gt;</text>
</a>
</g>
</g>
<!-- Node29&#45;&gt;Node1 -->
<g id="edge31" class="edge">
<title>Node29&#45;&gt;Node1</title>
<path fill="none" stroke="#9a32cd" stroke-dasharray="5,2" d="M966.62,-50.31C998.93,-51.96 1035.84,-58.38 1065,-76 1095.34,-94.34 1114.87,-133.32 1123.46,-153.81"/>
<polygon fill="#9a32cd" stroke="#9a32cd" points="966.42,-46.8 956.3,-49.94 966.17,-53.8 966.42,-46.8"/>
<text text-anchor="start" x="974" y="-87.6" font-family="Helvetica,sans-Serif" font-size="8.00"> m_rcv_acked_packets</text>
<text text-anchor="middle" x="1019.5" y="-78.6" font-family="Helvetica,sans-Serif" font-size="8.00">_rexmit_on_out</text>
</g>
<!-- Node30&#45;&gt;Node29 -->
<g id="edge32" class="edge">
<title>Node30&#45;&gt;Node29</title>
<path fill="none" stroke="#9a32cd" stroke-dasharray="5,2" d="M632.65,-54C686.38,-54 767.4,-54 823.93,-54"/>
<polygon fill="#9a32cd" stroke="#9a32cd" points="632.61,-50.5 622.61,-54 632.61,-57.5 632.61,-50.5"/>
<text text-anchor="middle" x="740" y="-56.6" font-family="Helvetica,sans-Serif" font-size="8.00"> elements</text>
</g>
<!-- Node31 -->
<g id="node29" class="node">
<title>Node31</title>
<g id="a_node29"><a xlink:title=" ">
<polygon fill="white" stroke="#bfbfbf" points="295.5,-35.5 295.5,-52.5 339.5,-52.5 339.5,-35.5 295.5,-35.5"/>
<text text-anchor="middle" x="317.5" y="-42.1" font-family="Helvetica,sans-Serif" font-size="8.00">uint8_t</text>
</a>
</g>
</g>
<!-- Node31&#45;&gt;Node30 -->
<g id="edge34" class="edge">
<title>Node31&#45;&gt;Node30</title>
<path fill="none" stroke="#9a32cd" stroke-dasharray="5,2" d="M349.61,-43.41C381.58,-42.99 432.8,-42.82 477,-45 493.81,-45.83 512.2,-47.36 528.43,-48.93"/>
<polygon fill="#9a32cd" stroke="#9a32cd" points="349.49,-39.91 339.54,-43.56 349.59,-46.91 349.49,-39.91"/>
<text text-anchor="middle" x="432.5" y="-47.6" font-family="Helvetica,sans-Serif" font-size="8.00"> m_rexmit_id</text>
</g>
<!-- Node32 -->
<g id="node30" class="node">
<title>Node32</title>
<g id="a_node30"><a xlink:title=" ">
<polygon fill="white" stroke="#bfbfbf" points="843,-0.5 843,-17.5 937,-17.5 937,-0.5 843,-0.5"/>
<text text-anchor="middle" x="890" y="-7.1" font-family="Helvetica,sans-Serif" font-size="8.00">static const uint8_t</text>
</a>
</g>
</g>
<!-- Node32&#45;&gt;Node1 -->
<g id="edge35" class="edge">
<title>Node32&#45;&gt;Node1</title>
<path fill="none" stroke="#9a32cd" stroke-dasharray="5,2" d="M947.29,-5.35C984.1,-5.8 1031.41,-12.1 1065,-37 1104.55,-66.32 1120.76,-126.95 1126.19,-153.76"/>
<polygon fill="#9a32cd" stroke="#9a32cd" points="947.2,-1.85 937.21,-5.36 947.21,-8.85 947.2,-1.85"/>
<text text-anchor="middle" x="1019.5" y="-39.6" font-family="Helvetica,sans-Serif" font-size="8.00"> S_RAW_TYPE_ID</text>
</g>
</g>
</svg>
