<?xml version="1.0" encoding="UTF-8" standalone="no"?>
<!DOCTYPE svg PUBLIC "-//W3C//DTD SVG 1.1//EN"
 "http://www.w3.org/Graphics/SVG/1.1/DTD/svg11.dtd">
<!-- Generated by graphviz version 2.43.0 (0)
 -->
<!-- Title: flow::perf::Checkpointing_timer::Checkpoint Pages: 1 -->
<svg width="644pt" height="90pt"
 viewBox="0.00 0.00 644.00 89.50" xmlns="http://www.w3.org/2000/svg" xmlns:xlink="http://www.w3.org/1999/xlink">
<g id="graph0" class="graph" transform="scale(1 1) rotate(0) translate(4 85.5)">
<title>flow::perf::Checkpointing_timer::Checkpoint</title>
<polygon fill="white" stroke="transparent" points="-4,4 -4,-85.5 640,-85.5 640,4 -4,4"/>
<!-- Node1 -->
<g id="node1" class="node">
<title>Node1</title>
<g id="a_node1"><a xlink:title="The entirety of the information recorded with each Checkpointing_timer::checkpoint() call; it contain...">
<polygon fill="#bfbfbf" stroke="black" points="517,-32 517,-58 636,-58 636,-32 517,-32"/>
<text text-anchor="start" x="525" y="-47.6" font-family="Helvetica,sans-Serif" font-size="8.00">flow::perf::Checkpointing</text>
<text text-anchor="middle" x="576.5" y="-38.6" font-family="Helvetica,sans-Serif" font-size="8.00">_timer::Checkpoint</text>
</a>
</g>
</g>
<!-- Node2 -->
<g id="node2" class="node">
<title>Node2</title>
<g id="a_node2"><a xlink:title=" ">
<polygon fill="white" stroke="black" points="340,-57.5 340,-74.5 399,-74.5 399,-57.5 340,-57.5"/>
<text text-anchor="middle" x="369.5" y="-64.1" font-family="Helvetica,sans-Serif" font-size="8.00">std::string</text>
</a>
</g>
</g>
<!-- Node2&#45;&gt;Node1 -->
<g id="edge1" class="edge">
<title>Node2&#45;&gt;Node1</title>
<path fill="none" stroke="#9a32cd" stroke-dasharray="5,2" d="M409.2,-62.04C439.57,-58.92 482.36,-54.54 516.93,-51"/>
<polygon fill="#9a32cd" stroke="#9a32cd" points="408.6,-58.58 399,-63.08 409.31,-65.54 408.6,-58.58"/>
<text text-anchor="middle" x="471.5" y="-59.6" font-family="Helvetica,sans-Serif" font-size="8.00"> m_name</text>
</g>
<!-- Node3 -->
<g id="node3" class="node">
<title>Node3</title>
<g id="a_node3"><a xlink:title=" ">
<polygon fill="white" stroke="black" points="137,-55 137,-81 228,-81 228,-55 137,-55"/>
<text text-anchor="start" x="145" y="-70.6" font-family="Helvetica,sans-Serif" font-size="8.00">std::basic_string&lt;</text>
<text text-anchor="middle" x="182.5" y="-61.6" font-family="Helvetica,sans-Serif" font-size="8.00"> Char &gt;</text>
</a>
</g>
</g>
<!-- Node3&#45;&gt;Node2 -->
<g id="edge2" class="edge">
<title>Node3&#45;&gt;Node2</title>
<path fill="none" stroke="midnightblue" d="M238.36,-67.41C271.72,-67.05 312.96,-66.6 339.96,-66.31"/>
<polygon fill="midnightblue" stroke="midnightblue" points="238.24,-63.91 228.28,-67.52 238.32,-70.91 238.24,-63.91"/>
</g>
<!-- Node4 -->
<g id="node4" class="node">
<title>Node4</title>
<g id="a_node4"><a xlink:href="structflow_1_1perf_1_1Duration__set.html" target="_top" xlink:title="Convenience wrapper around an array&lt;Duration, N&gt;, which stores a duration for each of the N possible ...">
<polygon fill="white" stroke="black" points="313,-18.5 313,-35.5 426,-35.5 426,-18.5 313,-18.5"/>
<text text-anchor="middle" x="369.5" y="-25.1" font-family="Helvetica,sans-Serif" font-size="8.00">flow::perf::Duration_set</text>
</a>
</g>
</g>
<!-- Node4&#45;&gt;Node1 -->
<g id="edge3" class="edge">
<title>Node4&#45;&gt;Node1</title>
<path fill="none" stroke="#9a32cd" stroke-dasharray="5,2" d="M436.31,-27.15C456.47,-27.71 478.68,-28.84 499,-31 504.77,-31.61 510.77,-32.42 516.74,-33.33"/>
<polygon fill="#9a32cd" stroke="#9a32cd" points="436.36,-23.65 426.28,-26.92 436.2,-30.65 436.36,-23.65"/>
<text text-anchor="middle" x="471.5" y="-33.6" font-family="Helvetica,sans-Serif" font-size="8.00"> m_since_last</text>
</g>
<!-- Node5 -->
<g id="node5" class="node">
<title>Node5</title>
<g id="a_node5"><a xlink:title=" ">
<polygon fill="white" stroke="black" points="129,-0.5 129,-35.5 236,-35.5 236,-0.5 129,-0.5"/>
<text text-anchor="start" x="137" y="-25.1" font-family="Helvetica,sans-Serif" font-size="8.00">std::array&lt; Duration,</text>
<text text-anchor="start" x="137" y="-16.1" font-family="Helvetica,sans-Serif" font-size="8.00"> std::size_t(Clock_type</text>
<text text-anchor="middle" x="182.5" y="-7.1" font-family="Helvetica,sans-Serif" font-size="8.00">::S_END_SENTINEL)&gt;</text>
</a>
</g>
</g>
<!-- Node5&#45;&gt;Node4 -->
<g id="edge4" class="edge">
<title>Node5&#45;&gt;Node4</title>
<path fill="none" stroke="#9a32cd" stroke-dasharray="5,2" d="M246.11,-21.05C267.77,-22.1 291.88,-23.27 312.94,-24.3"/>
<polygon fill="#9a32cd" stroke="#9a32cd" points="246.18,-17.55 236.02,-20.55 245.84,-24.54 246.18,-17.55"/>
<text text-anchor="middle" x="274.5" y="-26.6" font-family="Helvetica,sans-Serif" font-size="8.00"> m_values</text>
</g>
<!-- Node6 -->
<g id="node6" class="node">
<title>Node6</title>
<g id="a_node6"><a xlink:title=" ">
<polygon fill="white" stroke="#bfbfbf" points="0,-9.5 0,-26.5 52,-26.5 52,-9.5 0,-9.5"/>
<text text-anchor="middle" x="26" y="-16.1" font-family="Helvetica,sans-Serif" font-size="8.00">Duration</text>
</a>
</g>
</g>
<!-- Node6&#45;&gt;Node5 -->
<g id="edge5" class="edge">
<title>Node6&#45;&gt;Node5</title>
<path fill="none" stroke="#9a32cd" stroke-dasharray="5,2" d="M62.23,-18C81.91,-18 106.83,-18 128.8,-18"/>
<polygon fill="#9a32cd" stroke="#9a32cd" points="62.17,-14.5 52.17,-18 62.17,-21.5 62.17,-14.5"/>
<text text-anchor="middle" x="90.5" y="-20.6" font-family="Helvetica,sans-Serif" font-size="8.00"> elements</text>
</g>
</g>
</svg>
