<?xml version="1.0" encoding="UTF-8" standalone="no"?>
<!DOCTYPE svg PUBLIC "-//W3C//DTD SVG 1.1//EN"
 "http://www.w3.org/Graphics/SVG/1.1/DTD/svg11.dtd">
<!-- Generated by graphviz version 2.43.0 (0)
 -->
<!-- Title: flow::net_flow::Low_lvl_packet::Aux_raw_data Pages: 1 -->
<svg width="296pt" height="98pt"
 viewBox="0.00 0.00 295.50 98.00" xmlns="http://www.w3.org/2000/svg" xmlns:xlink="http://www.w3.org/1999/xlink">
<g id="graph0" class="graph" transform="scale(1 1) rotate(0) translate(4 94)">
<title>flow::net_flow::Low_lvl_packet::Aux_raw_data</title>
<polygon fill="white" stroke="transparent" points="-4,4 -4,-94 291.5,-94 291.5,4 -4,4"/>
<!-- Node1 -->
<g id="node1" class="node">
<title>Node1</title>
<g id="a_node1"><a xlink:title="Helper data store type for storing binary data needed by serialize_to_raw_data(), when certains bits ...">
<polygon fill="#bfbfbf" stroke="black" points="73,-0.5 73,-26.5 196,-26.5 196,-0.5 73,-0.5"/>
<text text-anchor="start" x="81" y="-16.1" font-family="Helvetica,sans-Serif" font-size="8.00">flow::net_flow::Low</text>
<text text-anchor="middle" x="134.5" y="-7.1" font-family="Helvetica,sans-Serif" font-size="8.00">_lvl_packet::Aux_raw_data</text>
</a>
</g>
</g>
<!-- Node2 -->
<g id="node2" class="node">
<title>Node2</title>
<g id="a_node2"><a xlink:title=" ">
<polygon fill="white" stroke="#bfbfbf" points="0,-72.5 0,-89.5 99,-89.5 99,-72.5 0,-72.5"/>
<text text-anchor="middle" x="49.5" y="-79.1" font-family="Helvetica,sans-Serif" font-size="8.00">boost::noncopyable</text>
</a>
</g>
</g>
<!-- Node2&#45;&gt;Node1 -->
<g id="edge1" class="edge">
<title>Node2&#45;&gt;Node1</title>
<path fill="none" stroke="#8b1a1a" d="M67.37,-66.23C82.59,-54.5 104.26,-37.8 118.82,-26.58"/>
<polygon fill="#8b1a1a" stroke="#8b1a1a" points="65.04,-63.61 59.25,-72.49 69.31,-69.15 65.04,-63.61"/>
</g>
<!-- Node3 -->
<g id="node3" class="node">
<title>Node3</title>
<g id="a_node3"><a xlink:title=" ">
<polygon fill="white" stroke="#bfbfbf" points="117,-72.5 117,-89.5 152,-89.5 152,-72.5 117,-72.5"/>
<text text-anchor="middle" x="134.5" y="-79.1" font-family="Helvetica,sans-Serif" font-size="8.00">char</text>
</a>
</g>
</g>
<!-- Node3&#45;&gt;Node1 -->
<g id="edge2" class="edge">
<title>Node3&#45;&gt;Node1</title>
<path fill="none" stroke="#9a32cd" stroke-dasharray="5,2" d="M134.5,-62.18C134.5,-50.97 134.5,-36.8 134.5,-26.82"/>
<polygon fill="#9a32cd" stroke="#9a32cd" points="131,-62.49 134.5,-72.49 138,-62.49 131,-62.49"/>
<text text-anchor="middle" x="179" y="-47.6" font-family="Helvetica,sans-Serif" font-size="8.00"> m_opt_rexmit_on_raw</text>
</g>
<!-- Node4 -->
<g id="node4" class="node">
<title>Node4</title>
<g id="a_node4"><a xlink:title=" ">
<polygon fill="white" stroke="#bfbfbf" points="221.5,-72.5 221.5,-89.5 271.5,-89.5 271.5,-72.5 221.5,-72.5"/>
<text text-anchor="middle" x="246.5" y="-79.1" font-family="Helvetica,sans-Serif" font-size="8.00">uint16_t</text>
</a>
</g>
</g>
<!-- Node4&#45;&gt;Node1 -->
<g id="edge3" class="edge">
<title>Node4&#45;&gt;Node1</title>
<path fill="none" stroke="#9a32cd" stroke-dasharray="5,2" d="M238.87,-62.94C235.3,-56.56 230.49,-49.73 224.5,-45 214.4,-37.03 202.1,-31.08 189.88,-26.67"/>
<polygon fill="#9a32cd" stroke="#9a32cd" points="235.9,-64.82 243.47,-72.22 242.17,-61.71 235.9,-64.82"/>
<text text-anchor="middle" x="260" y="-47.6" font-family="Helvetica,sans-Serif" font-size="8.00"> m_reserved2</text>
</g>
</g>
</svg>
