<?xml version="1.0" encoding="UTF-8" standalone="no"?>
<!DOCTYPE svg PUBLIC "-//W3C//DTD SVG 1.1//EN"
 "http://www.w3.org/Graphics/SVG/1.1/DTD/svg11.dtd">
<!-- Generated by graphviz version 2.43.0 (0)
 -->
<!-- Title: flow::net_flow::Low_lvl_packet::Packet_type_info Pages: 1 -->
<svg width="173pt" height="171pt"
 viewBox="0.00 0.00 173.00 171.00" xmlns="http://www.w3.org/2000/svg" xmlns:xlink="http://www.w3.org/1999/xlink">
<g id="graph0" class="graph" transform="scale(1 1) rotate(0) translate(4 167)">
<title>flow::net_flow::Low_lvl_packet::Packet_type_info</title>
<polygon fill="white" stroke="transparent" points="-4,4 -4,-167 169,-167 169,4 -4,4"/>
<!-- Node1 -->
<g id="node1" class="node">
<title>Node1</title>
<g id="a_node1"><a xlink:title="A simple, unmodifiable data store that contains the properties unique to each packet type a/k/a concr...">
<polygon fill="#bfbfbf" stroke="black" points="29,-0.5 29,-35.5 124,-35.5 124,-0.5 29,-0.5"/>
<text text-anchor="start" x="37" y="-25.1" font-family="Helvetica,sans-Serif" font-size="8.00">flow::net_flow::Low</text>
<text text-anchor="start" x="37" y="-16.1" font-family="Helvetica,sans-Serif" font-size="8.00">_lvl_packet::Packet</text>
<text text-anchor="middle" x="76.5" y="-7.1" font-family="Helvetica,sans-Serif" font-size="8.00">_type_info</text>
</a>
</g>
</g>
<!-- Node2 -->
<g id="node2" class="node">
<title>Node2</title>
<g id="a_node2"><a xlink:title=" ">
<polygon fill="white" stroke="#bfbfbf" points="0,-81.5 0,-98.5 69,-98.5 69,-81.5 0,-81.5"/>
<text text-anchor="middle" x="34.5" y="-88.1" font-family="Helvetica,sans-Serif" font-size="8.00">const uint8_t</text>
</a>
</g>
</g>
<!-- Node2&#45;&gt;Node1 -->
<g id="edge1" class="edge">
<title>Node2&#45;&gt;Node1</title>
<path fill="none" stroke="#9a32cd" stroke-dasharray="5,2" d="M32.23,-71.29C32.21,-65.54 32.97,-59.28 35.5,-54 38.89,-46.91 44.47,-40.7 50.44,-35.56"/>
<polygon fill="#9a32cd" stroke="#9a32cd" points="28.75,-71.65 33,-81.35 35.73,-71.11 28.75,-71.65"/>
<text text-anchor="middle" x="66.5" y="-56.6" font-family="Helvetica,sans-Serif" font-size="8.00"> m_raw_type_id</text>
</g>
<!-- Node3 -->
<g id="node3" class="node">
<title>Node3</title>
<g id="a_node3"><a xlink:title=" ">
<polygon fill="white" stroke="black" points="90,-81.5 90,-98.5 149,-98.5 149,-81.5 90,-81.5"/>
<text text-anchor="middle" x="119.5" y="-88.1" font-family="Helvetica,sans-Serif" font-size="8.00">std::string</text>
</a>
</g>
</g>
<!-- Node3&#45;&gt;Node1 -->
<g id="edge2" class="edge">
<title>Node3&#45;&gt;Node1</title>
<path fill="none" stroke="#9a32cd" stroke-dasharray="5,2" d="M109.38,-72.53C102.53,-61.38 93.52,-46.71 86.66,-35.55"/>
<polygon fill="#9a32cd" stroke="#9a32cd" points="106.52,-74.55 114.73,-81.24 112.48,-70.89 106.52,-74.55"/>
<text text-anchor="middle" x="131.5" y="-56.6" font-family="Helvetica,sans-Serif" font-size="8.00"> m_type_id_str</text>
</g>
<!-- Node4 -->
<g id="node4" class="node">
<title>Node4</title>
<g id="a_node4"><a xlink:title=" ">
<polygon fill="white" stroke="black" points="74,-136.5 74,-162.5 165,-162.5 165,-136.5 74,-136.5"/>
<text text-anchor="start" x="82" y="-152.1" font-family="Helvetica,sans-Serif" font-size="8.00">std::basic_string&lt;</text>
<text text-anchor="middle" x="119.5" y="-143.1" font-family="Helvetica,sans-Serif" font-size="8.00"> Char &gt;</text>
</a>
</g>
</g>
<!-- Node4&#45;&gt;Node3 -->
<g id="edge3" class="edge">
<title>Node4&#45;&gt;Node3</title>
<path fill="none" stroke="midnightblue" d="M119.5,-126.08C119.5,-116.43 119.5,-105.78 119.5,-98.77"/>
<polygon fill="midnightblue" stroke="midnightblue" points="116,-126.31 119.5,-136.31 123,-126.31 116,-126.31"/>
</g>
</g>
</svg>
