<?xml version="1.0" encoding="UTF-8" standalone="no"?>
<!DOCTYPE svg PUBLIC "-//W3C//DTD SVG 1.1//EN"
 "http://www.w3.org/Graphics/SVG/1.1/DTD/svg11.dtd">
<!-- Generated by graphviz version 2.43.0 (0)
 -->
<!-- Title: flow::net_flow::Low_lvl_packet::serialize_common_header_to_raw_data Pages: 1 -->
<svg width="282pt" height="44pt"
 viewBox="0.00 0.00 282.00 44.00" xmlns="http://www.w3.org/2000/svg" xmlns:xlink="http://www.w3.org/1999/xlink">
<g id="graph0" class="graph" transform="scale(1 1) rotate(0) translate(4 40)">
<title>flow::net_flow::Low_lvl_packet::serialize_common_header_to_raw_data</title>
<polygon fill="white" stroke="transparent" points="-4,4 -4,-40 278,-40 278,4 -4,4"/>
<!-- Node1 -->
<g id="node1" class="node">
<title>Node1</title>
<g id="a_node1"><a xlink:title="Helper for serialize_to_raw_data() implementations in sub&#45;types that encodes the header common to all...">
<polygon fill="#bfbfbf" stroke="black" points="0,-0.5 0,-35.5 142,-35.5 142,-0.5 0,-0.5"/>
<text text-anchor="start" x="8" y="-25.1" font-family="Helvetica,sans-Serif" font-size="8.00">flow::net_flow::Low</text>
<text text-anchor="start" x="8" y="-16.1" font-family="Helvetica,sans-Serif" font-size="8.00">_lvl_packet::serialize</text>
<text text-anchor="middle" x="71" y="-7.1" font-family="Helvetica,sans-Serif" font-size="8.00">_common_header_to_raw_data</text>
</a>
</g>
</g>
<!-- Node2 -->
<g id="node2" class="node">
<title>Node2</title>
<g id="a_node2"><a xlink:href="structflow_1_1net__flow_1_1Low__lvl__packet.html#a6b3de1eb7a337002440ecd1ab0ad058f" target="_top" xlink:title="Helper that looks up the Packet_type_info::m_raw_type_id value for the given typeid(p),...">
<polygon fill="white" stroke="black" points="178,-0.5 178,-35.5 274,-35.5 274,-0.5 178,-0.5"/>
<text text-anchor="start" x="186" y="-25.1" font-family="Helvetica,sans-Serif" font-size="8.00">flow::net_flow::Low</text>
<text text-anchor="start" x="186" y="-16.1" font-family="Helvetica,sans-Serif" font-size="8.00">_lvl_packet::type_id</text>
<text text-anchor="middle" x="226" y="-7.1" font-family="Helvetica,sans-Serif" font-size="8.00">_native_to_raw</text>
</a>
</g>
</g>
<!-- Node1&#45;&gt;Node2 -->
<g id="edge1" class="edge">
<title>Node1&#45;&gt;Node2</title>
<path fill="none" stroke="midnightblue" d="M142.23,-18C150.83,-18 159.54,-18 167.91,-18"/>
<polygon fill="midnightblue" stroke="midnightblue" points="167.93,-21.5 177.93,-18 167.93,-14.5 167.93,-21.5"/>
</g>
</g>
</svg>
