<?xml version="1.0" encoding="UTF-8" standalone="no"?>
<!DOCTYPE svg PUBLIC "-//W3C//DTD SVG 1.1//EN"
 "http://www.w3.org/Graphics/SVG/1.1/DTD/svg11.dtd">
<!-- Generated by graphviz version 2.43.0 (0)
 -->
<!-- Title: flow::net_flow::Peer_socket_receive_stats::operator&lt;&lt; Pages: 1 -->
<svg width="658pt" height="98pt"
 viewBox="0.00 0.00 658.00 98.00" xmlns="http://www.w3.org/2000/svg" xmlns:xlink="http://www.w3.org/1999/xlink">
<g id="graph0" class="graph" transform="scale(1 1) rotate(0) translate(4 94)">
<title>flow::net_flow::Peer_socket_receive_stats::operator&lt;&lt;</title>
<polygon fill="white" stroke="transparent" points="-4,4 -4,-94 654,-94 654,4 -4,4"/>
<!-- Node1 -->
<g id="node1" class="node">
<title>Node1</title>
<g id="a_node1"><a xlink:title="Prints string representation of the stats in the given stats object to the standard ostream and retur...">
<polygon fill="#bfbfbf" stroke="black" points="0,-27.5 0,-62.5 105,-62.5 105,-27.5 0,-27.5"/>
<text text-anchor="start" x="8" y="-52.1" font-family="Helvetica,sans-Serif" font-size="8.00">flow::net_flow::Peer</text>
<text text-anchor="start" x="8" y="-43.1" font-family="Helvetica,sans-Serif" font-size="8.00">_socket_receive_stats</text>
<text text-anchor="middle" x="52.5" y="-34.1" font-family="Helvetica,sans-Serif" font-size="8.00">::operator&lt;&lt;</text>
</a>
</g>
</g>
<!-- Node2 -->
<g id="node2" class="node">
<title>Node2</title>
<g id="a_node2"><a xlink:href="structflow_1_1net__flow_1_1Peer__socket__receive__stats.html#a19d651860486de148e6e46466a5048e0" target="_top" xlink:title="Outputs the current stats, across multiple lines but not ending with a newline, into the given output...">
<polygon fill="white" stroke="black" points="141,-27.5 141,-62.5 246,-62.5 246,-27.5 141,-27.5"/>
<text text-anchor="start" x="149" y="-52.1" font-family="Helvetica,sans-Serif" font-size="8.00">flow::net_flow::Peer</text>
<text text-anchor="start" x="149" y="-43.1" font-family="Helvetica,sans-Serif" font-size="8.00">_socket_receive_stats</text>
<text text-anchor="middle" x="193.5" y="-34.1" font-family="Helvetica,sans-Serif" font-size="8.00">::output</text>
</a>
</g>
</g>
<!-- Node1&#45;&gt;Node2 -->
<g id="edge1" class="edge">
<title>Node1&#45;&gt;Node2</title>
<path fill="none" stroke="midnightblue" d="M105.26,-45C113.49,-45 122.08,-45 130.51,-45"/>
<polygon fill="midnightblue" stroke="midnightblue" points="130.7,-48.5 140.7,-45 130.7,-41.5 130.7,-48.5"/>
</g>
<!-- Node3 -->
<g id="node3" class="node">
<title>Node3</title>
<g id="a_node3"><a xlink:href="structflow_1_1net__flow_1_1Peer__socket__info.html#a116259f40c07caafe63017dddb9a837c" target="_top" xlink:title="Helper for various output() methods that outputs a one&#45;line representation of a sorted map,...">
<polygon fill="white" stroke="black" points="282,-27.5 282,-62.5 382,-62.5 382,-27.5 282,-27.5"/>
<text text-anchor="start" x="290" y="-52.1" font-family="Helvetica,sans-Serif" font-size="8.00">flow::net_flow::Peer</text>
<text text-anchor="start" x="290" y="-43.1" font-family="Helvetica,sans-Serif" font-size="8.00">_socket_info::output</text>
<text text-anchor="middle" x="332" y="-34.1" font-family="Helvetica,sans-Serif" font-size="8.00">_map_of_pkt_counts</text>
</a>
</g>
</g>
<!-- Node2&#45;&gt;Node3 -->
<g id="edge2" class="edge">
<title>Node2&#45;&gt;Node3</title>
<path fill="none" stroke="midnightblue" d="M246.1,-45C254.37,-45 262.98,-45 271.42,-45"/>
<polygon fill="midnightblue" stroke="midnightblue" points="271.58,-48.5 281.58,-45 271.58,-41.5 271.58,-48.5"/>
</g>
<!-- Node4 -->
<g id="node4" class="node">
<title>Node4</title>
<g id="a_node4"><a xlink:href="structflow_1_1net__flow_1_1Peer__socket__info.html#ad7f9a5c76ba47a6c55f539bb685b5223" target="_top" xlink:title="Helper for output_map_of_pkt_counts() that outputs a raw packet type ID index, namely type_index(type...">
<polygon fill="white" stroke="black" points="418,-54.5 418,-89.5 518,-89.5 518,-54.5 418,-54.5"/>
<text text-anchor="start" x="426" y="-79.1" font-family="Helvetica,sans-Serif" font-size="8.00">flow::net_flow::Peer</text>
<text text-anchor="start" x="426" y="-70.1" font-family="Helvetica,sans-Serif" font-size="8.00">_socket_info::output</text>
<text text-anchor="middle" x="468" y="-61.1" font-family="Helvetica,sans-Serif" font-size="8.00">_pkt_count_key</text>
</a>
</g>
</g>
<!-- Node3&#45;&gt;Node4 -->
<g id="edge3" class="edge">
<title>Node3&#45;&gt;Node4</title>
<path fill="none" stroke="midnightblue" d="M382.14,-54.9C390.51,-56.59 399.29,-58.36 407.89,-60.09"/>
<polygon fill="midnightblue" stroke="midnightblue" points="407.38,-63.56 417.87,-62.1 408.76,-56.69 407.38,-63.56"/>
</g>
<!-- Node6 -->
<g id="node6" class="node">
<title>Node6</title>
<g id="a_node6"><a xlink:href="structflow_1_1net__flow_1_1Peer__socket__info.html#acb82e68bb8681201e735bf2fe1a2e620" target="_top" xlink:title="Helper for output_map_of_pkt_counts() that outputs a count or size.">
<polygon fill="white" stroke="black" points="418,-0.5 418,-35.5 518,-35.5 518,-0.5 418,-0.5"/>
<text text-anchor="start" x="426" y="-25.1" font-family="Helvetica,sans-Serif" font-size="8.00">flow::net_flow::Peer</text>
<text text-anchor="start" x="426" y="-16.1" font-family="Helvetica,sans-Serif" font-size="8.00">_socket_info::output</text>
<text text-anchor="middle" x="468" y="-7.1" font-family="Helvetica,sans-Serif" font-size="8.00">_pkt_count_value</text>
</a>
</g>
</g>
<!-- Node3&#45;&gt;Node6 -->
<g id="edge5" class="edge">
<title>Node3&#45;&gt;Node6</title>
<path fill="none" stroke="midnightblue" d="M382.14,-35.1C390.51,-33.41 399.29,-31.64 407.89,-29.91"/>
<polygon fill="midnightblue" stroke="midnightblue" points="408.76,-33.31 417.87,-27.9 407.38,-26.44 408.76,-33.31"/>
</g>
<!-- Node5 -->
<g id="node5" class="node">
<title>Node5</title>
<g id="a_node5"><a xlink:href="structflow_1_1net__flow_1_1Low__lvl__packet.html#a37c9c6b04502d73defb803c1efabdf63" target="_top" xlink:title="Returns a brief (a few characters) string description of the given packet type given as type_index(ty...">
<polygon fill="white" stroke="black" points="554,-54.5 554,-89.5 650,-89.5 650,-54.5 554,-54.5"/>
<text text-anchor="start" x="562" y="-79.1" font-family="Helvetica,sans-Serif" font-size="8.00">flow::net_flow::Low</text>
<text text-anchor="start" x="562" y="-70.1" font-family="Helvetica,sans-Serif" font-size="8.00">_lvl_packet::type_id</text>
<text text-anchor="middle" x="602" y="-61.1" font-family="Helvetica,sans-Serif" font-size="8.00">_to_str</text>
</a>
</g>
</g>
<!-- Node4&#45;&gt;Node5 -->
<g id="edge4" class="edge">
<title>Node4&#45;&gt;Node5</title>
<path fill="none" stroke="midnightblue" d="M518.15,-72C526.49,-72 535.21,-72 543.74,-72"/>
<polygon fill="midnightblue" stroke="midnightblue" points="544,-75.5 554,-72 544,-68.5 544,-75.5"/>
</g>
</g>
</svg>
