<?xml version="1.0" encoding="UTF-8" standalone="no"?>
<!DOCTYPE svg PUBLIC "-//W3C//DTD SVG 1.1//EN"
 "http://www.w3.org/Graphics/SVG/1.1/DTD/svg11.dtd">
<!-- Generated by graphviz version 2.43.0 (0)
 -->
<!-- Title: flow::net_flow::Node_options::add_config_option Pages: 1 -->
<svg width="254pt" height="44pt"
 viewBox="0.00 0.00 254.00 44.00" xmlns="http://www.w3.org/2000/svg" xmlns:xlink="http://www.w3.org/1999/xlink">
<g id="graph0" class="graph" transform="scale(1 1) rotate(0) translate(4 40)">
<title>flow::net_flow::Node_options::add_config_option</title>
<polygon fill="white" stroke="transparent" points="-4,4 -4,-40 250,-40 250,4 -4,4"/>
<!-- Node1 -->
<g id="node1" class="node">
<title>Node1</title>
<g id="a_node1"><a xlink:title="A helper that adds a single option to a given Options_description, for use either in printing out the...">
<polygon fill="#bfbfbf" stroke="black" points="0,-0.5 0,-35.5 102,-35.5 102,-0.5 0,-0.5"/>
<text text-anchor="start" x="8" y="-25.1" font-family="Helvetica,sans-Serif" font-size="8.00">flow::net_flow::Node</text>
<text text-anchor="start" x="8" y="-16.1" font-family="Helvetica,sans-Serif" font-size="8.00">_options::add_config</text>
<text text-anchor="middle" x="51" y="-7.1" font-family="Helvetica,sans-Serif" font-size="8.00">_option</text>
</a>
</g>
</g>
<!-- Node2 -->
<g id="node2" class="node">
<title>Node2</title>
<g id="a_node2"><a xlink:href="structflow_1_1net__flow_1_1Node__options.html#aacfe6175ac39447c107413853e578459" target="_top" xlink:title="Helper that, for a given option m_blah, takes something like &quot;m_blah_blah&quot; and returns the similar mo...">
<polygon fill="white" stroke="black" points="138,-5 138,-31 246,-31 246,-5 138,-5"/>
<text text-anchor="start" x="146" y="-20.6" font-family="Helvetica,sans-Serif" font-size="8.00">flow::net_flow::Node</text>
<text text-anchor="middle" x="192" y="-11.6" font-family="Helvetica,sans-Serif" font-size="8.00">_options::opt_id_to_str</text>
</a>
</g>
</g>
<!-- Node1&#45;&gt;Node2 -->
<g id="edge1" class="edge">
<title>Node1&#45;&gt;Node2</title>
<path fill="none" stroke="midnightblue" d="M102.18,-18C110.36,-18 118.93,-18 127.39,-18"/>
<polygon fill="midnightblue" stroke="midnightblue" points="127.61,-21.5 137.61,-18 127.61,-14.5 127.61,-21.5"/>
</g>
</g>
</svg>
