<?xml version="1.0" encoding="UTF-8" standalone="no"?>
<!DOCTYPE svg PUBLIC "-//W3C//DTD SVG 1.1//EN"
 "http://www.w3.org/Graphics/SVG/1.1/DTD/svg11.dtd">
<!-- Generated by graphviz version 2.43.0 (0)
 -->
<!-- Title: flow::cfg::Null_value_set Pages: 1 -->
<svg width="125pt" height="107pt"
 viewBox="0.00 0.00 125.00 107.00" xmlns="http://www.w3.org/2000/svg" xmlns:xlink="http://www.w3.org/1999/xlink">
<g id="graph0" class="graph" transform="scale(1 1) rotate(0) translate(4 103)">
<title>flow::cfg::Null_value_set</title>
<polygon fill="white" stroke="transparent" points="-4,4 -4,-103 121,-103 121,4 -4,4"/>
<!-- Node1 -->
<g id="node1" class="node">
<title>Node1</title>
<g id="a_node1"><a xlink:title="Empty struct suitable as a *_value_set template arg for Config_manager, when a slot requires a Value_...">
<polygon fill="#bfbfbf" stroke="black" points="0.5,-0.5 0.5,-17.5 116.5,-17.5 116.5,-0.5 0.5,-0.5"/>
<text text-anchor="middle" x="58.5" y="-7.1" font-family="Helvetica,sans-Serif" font-size="8.00">flow::cfg::Null_value_set</text>
</a>
</g>
</g>
<!-- Node2 -->
<g id="node2" class="node">
<title>Node2</title>
<g id="a_node2"><a xlink:href="classflow_1_1util_1_1Shared__ptr__alias__holder.html" target="_top" xlink:title=" ">
<polygon fill="white" stroke="black" points="0,-54.5 0,-98.5 117,-98.5 117,-54.5 0,-54.5"/>
<text text-anchor="start" x="8" y="-88.1" font-family="Helvetica,sans-Serif" font-size="8.00">flow::util::Shared</text>
<text text-anchor="start" x="8" y="-79.1" font-family="Helvetica,sans-Serif" font-size="8.00">_ptr_alias_holder&lt; boost</text>
<text text-anchor="start" x="8" y="-70.1" font-family="Helvetica,sans-Serif" font-size="8.00">::shared_ptr&lt; Null_value</text>
<text text-anchor="middle" x="58.5" y="-61.1" font-family="Helvetica,sans-Serif" font-size="8.00">_set &gt; &gt;</text>
</a>
</g>
</g>
<!-- Node2&#45;&gt;Node1 -->
<g id="edge1" class="edge">
<title>Node2&#45;&gt;Node1</title>
<path fill="none" stroke="midnightblue" d="M58.5,-44.32C58.5,-34.43 58.5,-24.34 58.5,-17.68"/>
<polygon fill="midnightblue" stroke="midnightblue" points="55,-44.41 58.5,-54.41 62,-44.41 55,-44.41"/>
</g>
</g>
</svg>
