<?xml version="1.0" encoding="UTF-8" standalone="no"?>
<!DOCTYPE svg PUBLIC "-//W3C//DTD SVG 1.1//EN"
 "http://www.w3.org/Graphics/SVG/1.1/DTD/svg11.dtd">
<!-- Generated by graphviz version 2.43.0 (0)
 -->
<!-- Title: flow::net_flow::Low_lvl_packet::to_ostream Pages: 1 -->
<svg width="275pt" height="225pt"
 viewBox="0.00 0.00 275.00 225.00" xmlns="http://www.w3.org/2000/svg" xmlns:xlink="http://www.w3.org/1999/xlink">
<g id="graph0" class="graph" transform="scale(1 1) rotate(0) translate(4 221)">
<title>flow::net_flow::Low_lvl_packet::to_ostream</title>
<polygon fill="white" stroke="transparent" points="-4,4 -4,-221 271,-221 271,4 -4,4"/>
<!-- Node1 -->
<g id="node1" class="node">
<title>Node1</title>
<g id="a_node1"><a xlink:title="Writes a multi&#45;line representation of *this to an output stream.">
<polygon fill="#bfbfbf" stroke="black" points="154,-95.5 154,-121.5 267,-121.5 267,-95.5 154,-95.5"/>
<text text-anchor="start" x="162" y="-111.1" font-family="Helvetica,sans-Serif" font-size="8.00">flow::net_flow::Low</text>
<text text-anchor="middle" x="210.5" y="-102.1" font-family="Helvetica,sans-Serif" font-size="8.00">_lvl_packet::to_ostream</text>
</a>
</g>
</g>
<!-- Node2 -->
<g id="node2" class="node">
<title>Node2</title>
<g id="a_node2"><a xlink:href="structflow_1_1net__flow_1_1Syn__packet.html#a11ded0bc8596fb4adc815c5322e7ad26" target="_top" xlink:title="Implements Low_lvl_packet API.">
<polygon fill="white" stroke="black" points="9,-190.5 9,-216.5 109,-216.5 109,-190.5 9,-190.5"/>
<text text-anchor="start" x="17" y="-206.1" font-family="Helvetica,sans-Serif" font-size="8.00">flow::net_flow::Syn</text>
<text text-anchor="middle" x="59" y="-197.1" font-family="Helvetica,sans-Serif" font-size="8.00">_packet::to_ostream</text>
</a>
</g>
</g>
<!-- Node1&#45;&gt;Node2 -->
<g id="edge1" class="edge">
<title>Node1&#45;&gt;Node2</title>
<path fill="none" stroke="midnightblue" d="M188.44,-128.47C170.73,-144.45 144.18,-166.58 118,-181.5 112.2,-184.81 105.81,-187.8 99.45,-190.44"/>
<polygon fill="midnightblue" stroke="midnightblue" points="190.92,-130.95 195.92,-121.61 186.19,-125.79 190.92,-130.95"/>
</g>
<!-- Node3 -->
<g id="node3" class="node">
<title>Node3</title>
<g id="a_node3"><a xlink:href="structflow_1_1net__flow_1_1Syn__ack__packet.html#a9c98a61096d86196c073a232e432d03b" target="_top" xlink:title="Implements Low_lvl_packet API.">
<polygon fill="white" stroke="black" points="0,-145.5 0,-171.5 118,-171.5 118,-145.5 0,-145.5"/>
<text text-anchor="start" x="8" y="-161.1" font-family="Helvetica,sans-Serif" font-size="8.00">flow::net_flow::Syn</text>
<text text-anchor="middle" x="59" y="-152.1" font-family="Helvetica,sans-Serif" font-size="8.00">_ack_packet::to_ostream</text>
</a>
</g>
</g>
<!-- Node1&#45;&gt;Node3 -->
<g id="edge2" class="edge">
<title>Node1&#45;&gt;Node3</title>
<path fill="none" stroke="midnightblue" d="M161.01,-124.72C140.92,-131.44 117.92,-139.13 98.95,-145.47"/>
<polygon fill="midnightblue" stroke="midnightblue" points="162.24,-128 170.61,-121.51 160.02,-121.36 162.24,-128"/>
</g>
<!-- Node4 -->
<g id="node4" class="node">
<title>Node4</title>
<g id="a_node4"><a xlink:href="structflow_1_1net__flow_1_1Syn__ack__ack__packet.html#a0f2665713bcedc20db1365412630ff6f" target="_top" xlink:title="Implements Low_lvl_packet API.">
<polygon fill="white" stroke="black" points="10,-91 10,-126 108,-126 108,-91 10,-91"/>
<text text-anchor="start" x="18" y="-115.6" font-family="Helvetica,sans-Serif" font-size="8.00">flow::net_flow::Syn</text>
<text text-anchor="start" x="18" y="-106.6" font-family="Helvetica,sans-Serif" font-size="8.00">_ack_ack_packet::to</text>
<text text-anchor="middle" x="59" y="-97.6" font-family="Helvetica,sans-Serif" font-size="8.00">_ostream</text>
</a>
</g>
</g>
<!-- Node1&#45;&gt;Node4 -->
<g id="edge3" class="edge">
<title>Node1&#45;&gt;Node4</title>
<path fill="none" stroke="midnightblue" d="M143.54,-108.5C131.7,-108.5 119.57,-108.5 108.34,-108.5"/>
<polygon fill="midnightblue" stroke="midnightblue" points="143.83,-112 153.83,-108.5 143.83,-105 143.83,-112"/>
</g>
<!-- Node5 -->
<g id="node5" class="node">
<title>Node5</title>
<g id="a_node5"><a xlink:href="structflow_1_1net__flow_1_1Data__packet.html#a0bfa19b23164c8189c05d3c2417cf23b" target="_top" xlink:title="Implements Low_lvl_packet API.">
<polygon fill="white" stroke="black" points="9,-45.5 9,-71.5 109,-71.5 109,-45.5 9,-45.5"/>
<text text-anchor="start" x="17" y="-61.1" font-family="Helvetica,sans-Serif" font-size="8.00">flow::net_flow::Data</text>
<text text-anchor="middle" x="59" y="-52.1" font-family="Helvetica,sans-Serif" font-size="8.00">_packet::to_ostream</text>
</a>
</g>
</g>
<!-- Node1&#45;&gt;Node5 -->
<g id="edge4" class="edge">
<title>Node1&#45;&gt;Node5</title>
<path fill="none" stroke="midnightblue" d="M161.01,-92.28C140.92,-85.56 117.92,-77.87 98.95,-71.53"/>
<polygon fill="midnightblue" stroke="midnightblue" points="160.02,-95.64 170.61,-95.49 162.24,-89 160.02,-95.64"/>
</g>
<!-- Node6 -->
<g id="node6" class="node">
<title>Node6</title>
<g id="a_node6"><a xlink:href="structflow_1_1net__flow_1_1Ack__packet.html#a49659e0e672d324ad17e2f4240604b49" target="_top" xlink:title="Implements Low_lvl_packet API.">
<polygon fill="white" stroke="black" points="9,-0.5 9,-26.5 109,-26.5 109,-0.5 9,-0.5"/>
<text text-anchor="start" x="17" y="-16.1" font-family="Helvetica,sans-Serif" font-size="8.00">flow::net_flow::Ack</text>
<text text-anchor="middle" x="59" y="-7.1" font-family="Helvetica,sans-Serif" font-size="8.00">_packet::to_ostream</text>
</a>
</g>
</g>
<!-- Node1&#45;&gt;Node6 -->
<g id="edge5" class="edge">
<title>Node1&#45;&gt;Node6</title>
<path fill="none" stroke="midnightblue" d="M188.02,-88.65C170.25,-72.98 143.83,-51.36 118,-36.5 111.62,-32.83 104.53,-29.48 97.57,-26.55"/>
<polygon fill="midnightblue" stroke="midnightblue" points="185.76,-91.32 195.54,-95.38 190.43,-86.11 185.76,-91.32"/>
</g>
</g>
</svg>
