<?xml version="1.0" encoding="UTF-8" standalone="no"?>
<!DOCTYPE svg PUBLIC "-//W3C//DTD SVG 1.1//EN"
 "http://www.w3.org/Graphics/SVG/1.1/DTD/svg11.dtd">
<!-- Generated by graphviz version 2.43.0 (0)
 -->
<!-- Title: flow::cfg::Final_validator_func::null Pages: 1 -->
<svg width="255pt" height="35pt"
 viewBox="0.00 0.00 255.00 35.00" xmlns="http://www.w3.org/2000/svg" xmlns:xlink="http://www.w3.org/1999/xlink">
<g id="graph0" class="graph" transform="scale(1 1) rotate(0) translate(4 31)">
<title>flow::cfg::Final_validator_func::null</title>
<polygon fill="white" stroke="transparent" points="-4,4 -4,-31 251,-31 251,4 -4,4"/>
<!-- Node1 -->
<g id="node1" class="node">
<title>Node1</title>
<g id="a_node1"><a xlink:title="Returns a final&#45;validator function that simply always returns Final_validator_outcome::S_ACCEPT.">
<polygon fill="#bfbfbf" stroke="black" points="131,-0.5 131,-26.5 247,-26.5 247,-0.5 131,-0.5"/>
<text text-anchor="start" x="139" y="-16.1" font-family="Helvetica,sans-Serif" font-size="8.00">flow::cfg::Final_validator</text>
<text text-anchor="middle" x="189" y="-7.1" font-family="Helvetica,sans-Serif" font-size="8.00">_func::null</text>
</a>
</g>
</g>
<!-- Node2 -->
<g id="node2" class="node">
<title>Node2</title>
<g id="a_node2"><a xlink:href="namespaceflow_1_1cfg.html#af1a4e0a153ec8216ead76450e900e386" target="_top" xlink:title="Returns a value usable as final_validator_func arg to Config_manager::apply_static() and others – for...">
<polygon fill="white" stroke="black" points="0,-0.5 0,-26.5 95,-26.5 95,-0.5 0,-0.5"/>
<text text-anchor="start" x="8" y="-16.1" font-family="Helvetica,sans-Serif" font-size="8.00">flow::cfg::null_final</text>
<text text-anchor="middle" x="47.5" y="-7.1" font-family="Helvetica,sans-Serif" font-size="8.00">_validator_func</text>
</a>
</g>
</g>
<!-- Node1&#45;&gt;Node2 -->
<g id="edge1" class="edge">
<title>Node1&#45;&gt;Node2</title>
<path fill="none" stroke="midnightblue" d="M120.74,-13.5C112.07,-13.5 103.35,-13.5 95.12,-13.5"/>
<polygon fill="midnightblue" stroke="midnightblue" points="120.86,-17 130.86,-13.5 120.86,-10 120.86,-17"/>
</g>
</g>
</svg>
