<?xml version="1.0" encoding="UTF-8" standalone="no"?>
<!DOCTYPE svg PUBLIC "-//W3C//DTD SVG 1.1//EN"
 "http://www.w3.org/Graphics/SVG/1.1/DTD/svg11.dtd">
<!-- Generated by graphviz version 2.43.0 (0)
 -->
<!-- Title: flow::net_flow::Peer_socket_info::output Pages: 1 -->
<svg width="240pt" height="35pt"
 viewBox="0.00 0.00 240.00 35.00" xmlns="http://www.w3.org/2000/svg" xmlns:xlink="http://www.w3.org/1999/xlink">
<g id="graph0" class="graph" transform="scale(1 1) rotate(0) translate(4 31)">
<title>flow::net_flow::Peer_socket_info::output</title>
<polygon fill="white" stroke="transparent" points="-4,4 -4,-31 236,-31 236,4 -4,4"/>
<!-- Node1 -->
<g id="node1" class="node">
<title>Node1</title>
<g id="a_node1"><a xlink:title="Outputs the current stats, across multiple lines but not ending with a newline, into the given output...">
<polygon fill="#bfbfbf" stroke="black" points="0,-0.5 0,-26.5 100,-26.5 100,-0.5 0,-0.5"/>
<text text-anchor="start" x="8" y="-16.1" font-family="Helvetica,sans-Serif" font-size="8.00">flow::net_flow::Peer</text>
<text text-anchor="middle" x="50" y="-7.1" font-family="Helvetica,sans-Serif" font-size="8.00">_socket_info::output</text>
</a>
</g>
</g>
<!-- Node2 -->
<g id="node2" class="node">
<title>Node2</title>
<g id="a_node2"><a xlink:href="namespaceflow_1_1util.html#ab10bc9e8bef148f875aa743fe0852743" target="_top" xlink:title="Returns true if and only if the given value is within the given range, inclusive.">
<polygon fill="white" stroke="black" points="136,-0.5 136,-26.5 232,-26.5 232,-0.5 136,-0.5"/>
<text text-anchor="start" x="144" y="-16.1" font-family="Helvetica,sans-Serif" font-size="8.00">flow::util::in_closed</text>
<text text-anchor="middle" x="184" y="-7.1" font-family="Helvetica,sans-Serif" font-size="8.00">_range</text>
</a>
</g>
</g>
<!-- Node1&#45;&gt;Node2 -->
<g id="edge1" class="edge">
<title>Node1&#45;&gt;Node2</title>
<path fill="none" stroke="midnightblue" d="M100.15,-13.5C108.49,-13.5 117.21,-13.5 125.74,-13.5"/>
<polygon fill="midnightblue" stroke="midnightblue" points="126,-17 136,-13.5 126,-10 126,-17"/>
</g>
</g>
</svg>
