<?xml version="1.0" encoding="UTF-8" standalone="no"?>
<!DOCTYPE svg PUBLIC "-//W3C//DTD SVG 1.1//EN"
 "http://www.w3.org/Graphics/SVG/1.1/DTD/svg11.dtd">
<!-- Generated by graphviz version 2.43.0 (0)
 -->
<!-- Title: flow::net_flow::Peer_socket_options::setup_config_parsing Pages: 1 -->
<svg width="427pt" height="44pt"
 viewBox="0.00 0.00 427.00 44.00" xmlns="http://www.w3.org/2000/svg" xmlns:xlink="http://www.w3.org/1999/xlink">
<g id="graph0" class="graph" transform="scale(1 1) rotate(0) translate(4 40)">
<title>flow::net_flow::Peer_socket_options::setup_config_parsing</title>
<polygon fill="white" stroke="transparent" points="-4,4 -4,-40 423,-40 423,4 -4,4"/>
<!-- Node1 -->
<g id="node1" class="node">
<title>Node1</title>
<g id="a_node1"><a xlink:title="Analogous to Node_options::setup_config_parsing().">
<polygon fill="#bfbfbf" stroke="black" points="0,-0.5 0,-35.5 111,-35.5 111,-0.5 0,-0.5"/>
<text text-anchor="start" x="8" y="-25.1" font-family="Helvetica,sans-Serif" font-size="8.00">flow::net_flow::Peer</text>
<text text-anchor="start" x="8" y="-16.1" font-family="Helvetica,sans-Serif" font-size="8.00">_socket_options::setup</text>
<text text-anchor="middle" x="55.5" y="-7.1" font-family="Helvetica,sans-Serif" font-size="8.00">_config_parsing</text>
</a>
</g>
</g>
<!-- Node2 -->
<g id="node2" class="node">
<title>Node2</title>
<g id="a_node2"><a xlink:href="structflow_1_1net__flow_1_1Peer__socket__options.html#ad0015d953f3079a326ba6dce5d0bff89" target="_top" xlink:title="Analogous to Node_options::setup_config_parsing_helper().">
<polygon fill="white" stroke="black" points="147,-0.5 147,-35.5 258,-35.5 258,-0.5 147,-0.5"/>
<text text-anchor="start" x="155" y="-25.1" font-family="Helvetica,sans-Serif" font-size="8.00">flow::net_flow::Peer</text>
<text text-anchor="start" x="155" y="-16.1" font-family="Helvetica,sans-Serif" font-size="8.00">_socket_options::setup</text>
<text text-anchor="middle" x="202.5" y="-7.1" font-family="Helvetica,sans-Serif" font-size="8.00">_config_parsing_helper</text>
</a>
</g>
</g>
<!-- Node1&#45;&gt;Node2 -->
<g id="edge1" class="edge">
<title>Node1&#45;&gt;Node2</title>
<path fill="none" stroke="midnightblue" d="M111.32,-18C119.53,-18 128.06,-18 136.46,-18"/>
<polygon fill="midnightblue" stroke="midnightblue" points="136.6,-21.5 146.6,-18 136.6,-14.5 136.6,-21.5"/>
</g>
<!-- Node3 -->
<g id="node3" class="node">
<title>Node3</title>
<g id="a_node3"><a xlink:href="classflow_1_1net__flow_1_1Congestion__control__selector.html#aca9ae5272088f3ef8fb81f40cc85224c" target="_top" xlink:title="Returns a list of strings, called IDs, each of which textually represents a distinct Congestion_contr...">
<polygon fill="white" stroke="black" points="294,-5 294,-31 419,-31 419,-5 294,-5"/>
<text text-anchor="start" x="302" y="-20.6" font-family="Helvetica,sans-Serif" font-size="8.00">flow::net_flow::Congestion</text>
<text text-anchor="middle" x="356.5" y="-11.6" font-family="Helvetica,sans-Serif" font-size="8.00">_control_selector::get_ids</text>
</a>
</g>
</g>
<!-- Node2&#45;&gt;Node3 -->
<g id="edge2" class="edge">
<title>Node2&#45;&gt;Node3</title>
<path fill="none" stroke="midnightblue" d="M258.38,-18C266.54,-18 275.05,-18 283.5,-18"/>
<polygon fill="midnightblue" stroke="midnightblue" points="283.74,-21.5 293.74,-18 283.74,-14.5 283.74,-21.5"/>
</g>
</g>
</svg>
