<?xml version="1.0" encoding="UTF-8" standalone="no"?>
<!DOCTYPE svg PUBLIC "-//W3C//DTD SVG 1.1//EN"
 "http://www.w3.org/Graphics/SVG/1.1/DTD/svg11.dtd">
<!-- Generated by graphviz version 2.43.0 (0)
 -->
<!-- Title: flow::net_flow::Peer_socket::Received_packet Pages: 1 -->
<svg width="290pt" height="90pt"
 viewBox="0.00 0.00 290.00 89.50" xmlns="http://www.w3.org/2000/svg" xmlns:xlink="http://www.w3.org/1999/xlink">
<g id="graph0" class="graph" transform="scale(1 1) rotate(0) translate(4 85.5)">
<title>flow::net_flow::Peer_socket::Received_packet</title>
<polygon fill="white" stroke="transparent" points="-4,4 -4,-85.5 286,-85.5 286,4 -4,4"/>
<!-- Node1 -->
<g id="node1" class="node">
<title>Node1</title>
<g id="a_node1"><a xlink:title="Metadata (and data, if retransmission is on) for a packet that has been received (and,...">
<polygon fill="#bfbfbf" stroke="black" points="160,-21 160,-47 282,-47 282,-21 160,-21"/>
<text text-anchor="start" x="168" y="-36.6" font-family="Helvetica,sans-Serif" font-size="8.00">flow::net_flow::Peer</text>
<text text-anchor="middle" x="221" y="-27.6" font-family="Helvetica,sans-Serif" font-size="8.00">_socket::Received_packet</text>
</a>
</g>
</g>
<!-- Node2 -->
<g id="node2" class="node">
<title>Node2</title>
<g id="a_node2"><a xlink:href="classflow_1_1util_1_1Shared__ptr__alias__holder.html" target="_top" xlink:title=" ">
<polygon fill="white" stroke="black" points="0,-37 0,-81 124,-81 124,-37 0,-37"/>
<text text-anchor="start" x="8" y="-70.6" font-family="Helvetica,sans-Serif" font-size="8.00">flow::util::Shared</text>
<text text-anchor="start" x="8" y="-61.6" font-family="Helvetica,sans-Serif" font-size="8.00">_ptr_alias_holder&lt; boost</text>
<text text-anchor="start" x="8" y="-52.6" font-family="Helvetica,sans-Serif" font-size="8.00">::shared_ptr&lt; Peer_socket</text>
<text text-anchor="middle" x="62" y="-43.6" font-family="Helvetica,sans-Serif" font-size="8.00">::Received_packet &gt; &gt;</text>
</a>
</g>
</g>
<!-- Node2&#45;&gt;Node1 -->
<g id="edge1" class="edge">
<title>Node2&#45;&gt;Node1</title>
<path fill="none" stroke="midnightblue" d="M134.13,-47.67C142.71,-46.31 151.4,-44.92 159.79,-43.59"/>
<polygon fill="midnightblue" stroke="midnightblue" points="133.48,-44.23 124.15,-49.26 134.58,-51.15 133.48,-44.23"/>
</g>
<!-- Node3 -->
<g id="node3" class="node">
<title>Node3</title>
<g id="a_node3"><a xlink:title=" ">
<polygon fill="white" stroke="#bfbfbf" points="12.5,-0.5 12.5,-17.5 111.5,-17.5 111.5,-0.5 12.5,-0.5"/>
<text text-anchor="middle" x="62" y="-7.1" font-family="Helvetica,sans-Serif" font-size="8.00">boost::noncopyable</text>
</a>
</g>
</g>
<!-- Node3&#45;&gt;Node1 -->
<g id="edge2" class="edge">
<title>Node3&#45;&gt;Node1</title>
<path fill="none" stroke="#8b1a1a" d="M122.02,-18.4C134.4,-20.37 147.46,-22.45 159.88,-24.43"/>
<polygon fill="#8b1a1a" stroke="#8b1a1a" points="122.24,-14.89 111.82,-16.77 121.14,-21.8 122.24,-14.89"/>
</g>
</g>
</svg>
