<?xml version="1.0" encoding="UTF-8" standalone="no"?>
<!DOCTYPE svg PUBLIC "-//W3C//DTD SVG 1.1//EN"
 "http://www.w3.org/Graphics/SVG/1.1/DTD/svg11.dtd">
<!-- Generated by graphviz version 2.43.0 (0)
 -->
<!-- Title: flow::net_flow::Syn_ack_packet Pages: 1 -->
<svg width="1271pt" height="648pt"
 viewBox="0.00 0.00 1271.00 648.00" xmlns="http://www.w3.org/2000/svg" xmlns:xlink="http://www.w3.org/1999/xlink">
<g id="graph0" class="graph" transform="scale(1 1) rotate(0) translate(4 644)">
<title>flow::net_flow::Syn_ack_packet</title>
<polygon fill="white" stroke="transparent" points="-4,4 -4,-644 1267,-644 1267,4 -4,4"/>
<!-- Node1 -->
<g id="node1" class="node">
<title>Node1</title>
<g id="a_node1"><a xlink:title="Internal net_flow struct that encapsulates the Flow&#45;protocol low&#45;level SYN_ACK packet.">
<polygon fill="#bfbfbf" stroke="black" points="1169,-88 1169,-114 1263,-114 1263,-88 1169,-88"/>
<text text-anchor="start" x="1177" y="-103.6" font-family="Helvetica,sans-Serif" font-size="8.00">flow::net_flow::Syn</text>
<text text-anchor="middle" x="1216" y="-94.6" font-family="Helvetica,sans-Serif" font-size="8.00">_ack_packet</text>
</a>
</g>
</g>
<!-- Node2 -->
<g id="node2" class="node">
<title>Node2</title>
<g id="a_node2"><a xlink:href="structflow_1_1net__flow_1_1Low__lvl__packet.html" target="_top" xlink:title="Internal net_flow struct that encapsulates the Flow&#45;protocol low&#45;level packet structure and serves as...">
<polygon fill="white" stroke="black" points="965,-322 965,-348 1060,-348 1060,-322 965,-322"/>
<text text-anchor="start" x="973" y="-337.6" font-family="Helvetica,sans-Serif" font-size="8.00">flow::net_flow::Low</text>
<text text-anchor="middle" x="1012.5" y="-328.6" font-family="Helvetica,sans-Serif" font-size="8.00">_lvl_packet</text>
</a>
</g>
</g>
<!-- Node2&#45;&gt;Node1 -->
<g id="edge1" class="edge">
<title>Node2&#45;&gt;Node1</title>
<path fill="none" stroke="midnightblue" d="M1032.37,-314.32C1059.15,-284.85 1109.53,-228.9 1151,-180 1170.41,-157.11 1192.26,-129.79 1204.75,-114.01"/>
<polygon fill="midnightblue" stroke="midnightblue" points="1029.62,-312.15 1025.47,-321.91 1034.79,-316.86 1029.62,-312.15"/>
</g>
<!-- Node3 -->
<g id="node3" class="node">
<title>Node3</title>
<g id="a_node3"><a xlink:href="classflow_1_1util_1_1Null__interface.html" target="_top" xlink:title="An empty interface, consisting of nothing but a default virtual destructor, intended as a boiler&#45;plat...">
<polygon fill="white" stroke="black" points="165,-438.5 165,-455.5 279,-455.5 279,-438.5 165,-438.5"/>
<text text-anchor="middle" x="222" y="-445.1" font-family="Helvetica,sans-Serif" font-size="8.00">flow::util::Null_interface</text>
</a>
</g>
</g>
<!-- Node3&#45;&gt;Node2 -->
<g id="edge2" class="edge">
<title>Node3&#45;&gt;Node2</title>
<path fill="none" stroke="midnightblue" d="M272.01,-459.41C275.51,-461.05 278.88,-462.91 282,-465 292.49,-472.03 288.58,-481.59 300,-487 346.19,-508.89 363.95,-489.47 415,-487 594.3,-478.32 641.5,-485.69 817,-448 876.64,-435.19 895.74,-437.06 947,-404 970.43,-388.89 991.18,-363.42 1002.49,-348.01"/>
<polygon fill="midnightblue" stroke="midnightblue" points="273.14,-456.08 262.56,-455.52 270.48,-462.56 273.14,-456.08"/>
</g>
<!-- Node6 -->
<g id="node6" class="node">
<title>Node6</title>
<g id="a_node6"><a xlink:href="classflow_1_1log_1_1Logger.html" target="_top" xlink:title="Interface that the user should implement, passing the implementing Logger into logging classes (Flow&#39;...">
<polygon fill="white" stroke="black" points="442.5,-369.5 442.5,-386.5 528.5,-386.5 528.5,-369.5 442.5,-369.5"/>
<text text-anchor="middle" x="485.5" y="-376.1" font-family="Helvetica,sans-Serif" font-size="8.00">flow::log::Logger</text>
</a>
</g>
</g>
<!-- Node3&#45;&gt;Node6 -->
<g id="edge6" class="edge">
<title>Node3&#45;&gt;Node6</title>
<path fill="none" stroke="midnightblue" d="M289.44,-444.84C327.18,-441.94 374.77,-435.43 415,-421 426.82,-416.76 455.52,-397.83 472.11,-386.55"/>
<polygon fill="midnightblue" stroke="midnightblue" points="288.81,-441.37 279.08,-445.56 289.3,-448.36 288.81,-441.37"/>
</g>
<!-- Node4 -->
<g id="node4" class="node">
<title>Node4</title>
<g id="a_node4"><a xlink:href="classflow_1_1util_1_1Shared__ptr__alias__holder.html" target="_top" xlink:title=" ">
<polygon fill="white" stroke="black" points="663,-367.5 663,-402.5 817,-402.5 817,-367.5 663,-367.5"/>
<text text-anchor="start" x="671" y="-392.1" font-family="Helvetica,sans-Serif" font-size="8.00">flow::util::Shared</text>
<text text-anchor="start" x="671" y="-383.1" font-family="Helvetica,sans-Serif" font-size="8.00">_ptr_alias_holder&lt; boost</text>
<text text-anchor="middle" x="740" y="-374.1" font-family="Helvetica,sans-Serif" font-size="8.00">::shared_ptr&lt; Low_lvl_packet &gt; &gt;</text>
</a>
</g>
</g>
<!-- Node4&#45;&gt;Node2 -->
<g id="edge3" class="edge">
<title>Node4&#45;&gt;Node2</title>
<path fill="none" stroke="midnightblue" d="M827.59,-369.87C864.43,-363.32 907.85,-355.46 947,-348 952.72,-346.91 958.73,-345.74 964.67,-344.56"/>
<polygon fill="midnightblue" stroke="midnightblue" points="826.61,-366.49 817.38,-371.68 827.84,-373.38 826.61,-366.49"/>
</g>
<!-- Node5 -->
<g id="node5" class="node">
<title>Node5</title>
<g id="a_node5"><a xlink:href="classflow_1_1log_1_1Log__context.html" target="_top" xlink:title="Convenience class that simply stores a Logger and/or Component passed into a constructor; and returns...">
<polygon fill="white" stroke="black" points="686.5,-421.5 686.5,-438.5 793.5,-438.5 793.5,-421.5 686.5,-421.5"/>
<text text-anchor="middle" x="740" y="-428.1" font-family="Helvetica,sans-Serif" font-size="8.00">flow::log::Log_context</text>
</a>
</g>
</g>
<!-- Node5&#45;&gt;Node2 -->
<g id="edge4" class="edge">
<title>Node5&#45;&gt;Node2</title>
<path fill="none" stroke="midnightblue" d="M793.82,-419.28C836.25,-409.69 896.83,-393.78 947,-372 962.51,-365.26 979.04,-355.73 991.48,-348.03"/>
<polygon fill="midnightblue" stroke="midnightblue" points="792.98,-415.88 783.97,-421.46 794.5,-422.71 792.98,-415.88"/>
</g>
<!-- Node6&#45;&gt;Node5 -->
<g id="edge5" class="edge">
<title>Node6&#45;&gt;Node5</title>
<path fill="none" stroke="#9a32cd" stroke-dasharray="5,2" d="M537.91,-388.59C585.02,-398.29 653.89,-412.47 697.56,-421.47"/>
<polygon fill="#9a32cd" stroke="#9a32cd" points="538.41,-385.12 527.91,-386.53 537,-391.97 538.41,-385.12"/>
<text text-anchor="middle" x="600.5" y="-412.6" font-family="Helvetica,sans-Serif" font-size="8.00"> m_logger</text>
</g>
<!-- Node7 -->
<g id="node7" class="node">
<title>Node7</title>
<g id="a_node7"><a xlink:href="classflow_1_1util_1_1Unique__id__holder.html" target="_top" xlink:title="Each object of this class stores (at construction) and returns (on demand) a numeric ID unique from a...">
<polygon fill="white" stroke="red" points="178.5,-357 178.5,-383 265.5,-383 265.5,-357 178.5,-357"/>
<text text-anchor="start" x="186.5" y="-372.6" font-family="Helvetica,sans-Serif" font-size="8.00">flow::util::Unique</text>
<text text-anchor="middle" x="222" y="-363.6" font-family="Helvetica,sans-Serif" font-size="8.00">_id_holder</text>
</a>
</g>
</g>
<!-- Node7&#45;&gt;Node6 -->
<g id="edge7" class="edge">
<title>Node7&#45;&gt;Node6</title>
<path fill="none" stroke="midnightblue" d="M275.7,-371.61C324.78,-373.11 397,-375.32 442.36,-376.71"/>
<polygon fill="midnightblue" stroke="midnightblue" points="275.7,-368.11 265.6,-371.3 275.48,-375.11 275.7,-368.11"/>
</g>
<!-- Node8 -->
<g id="node8" class="node">
<title>Node8</title>
<g id="a_node8"><a xlink:title=" ">
<polygon fill="white" stroke="#bfbfbf" points="0,-214.5 0,-231.5 50,-231.5 50,-214.5 0,-214.5"/>
<text text-anchor="middle" x="25" y="-221.1" font-family="Helvetica,sans-Serif" font-size="8.00">uint64_t</text>
</a>
</g>
</g>
<!-- Node8&#45;&gt;Node7 -->
<g id="edge8" class="edge">
<title>Node8&#45;&gt;Node7</title>
<path fill="none" stroke="#9a32cd" stroke-dasharray="5,2" d="M40.22,-239.7C63.35,-265.97 111.65,-317.12 162,-348 167.5,-351.37 173.6,-354.36 179.73,-356.96"/>
<polygon fill="#9a32cd" stroke="#9a32cd" points="42.57,-237.07 33.37,-231.81 37.28,-241.66 42.57,-237.07"/>
<text text-anchor="middle" x="106" y="-336.6" font-family="Helvetica,sans-Serif" font-size="8.00"> m_id</text>
</g>
<!-- Node22 -->
<g id="node21" class="node">
<title>Node22</title>
<g id="a_node21"><a xlink:href="classflow_1_1net__flow_1_1Sequence__number.html" target="_top" xlink:title="An internal net_flow sequence number identifying a piece of data.">
<polygon fill="white" stroke="black" points="162,-138 162,-164 282,-164 282,-138 162,-138"/>
<text text-anchor="start" x="170" y="-153.6" font-family="Helvetica,sans-Serif" font-size="8.00">flow::net_flow::Sequence</text>
<text text-anchor="middle" x="222" y="-144.6" font-family="Helvetica,sans-Serif" font-size="8.00">_number</text>
</a>
</g>
</g>
<!-- Node8&#45;&gt;Node22 -->
<g id="edge25" class="edge">
<title>Node8&#45;&gt;Node22</title>
<path fill="none" stroke="#9a32cd" stroke-dasharray="5,2" d="M58.92,-210.85C94.09,-197.86 149.64,-177.35 185.7,-164.03"/>
<polygon fill="#9a32cd" stroke="#9a32cd" points="57.3,-207.71 49.13,-214.46 59.73,-214.28 57.3,-207.71"/>
<text text-anchor="middle" x="106" y="-218.6" font-family="Helvetica,sans-Serif" font-size="8.00"> m_num</text>
<text text-anchor="middle" x="106" y="-209.6" font-family="Helvetica,sans-Serif" font-size="8.00">m_zero_point_num</text>
</g>
<!-- Node10 -->
<g id="node9" class="node">
<title>Node10</title>
<g id="a_node9"><a xlink:title=" ">
<polygon fill="white" stroke="#bfbfbf" points="172.5,-275.5 172.5,-292.5 271.5,-292.5 271.5,-275.5 172.5,-275.5"/>
<text text-anchor="middle" x="222" y="-282.1" font-family="Helvetica,sans-Serif" font-size="8.00">boost::noncopyable</text>
</a>
</g>
</g>
<!-- Node10&#45;&gt;Node2 -->
<g id="edge14" class="edge">
<title>Node10&#45;&gt;Node2</title>
<path fill="none" stroke="#8b1a1a" d="M257.72,-272.42C298.96,-259.33 370.09,-238.82 433,-231 546.5,-216.9 846.9,-201.67 947,-257 974.37,-272.13 994.86,-303.93 1004.81,-321.9"/>
<polygon fill="#8b1a1a" stroke="#8b1a1a" points="256.6,-269.1 248.15,-275.49 258.74,-275.77 256.6,-269.1"/>
</g>
<!-- Node10&#45;&gt;Node6 -->
<g id="edge9" class="edge">
<title>Node10&#45;&gt;Node6</title>
<path fill="none" stroke="#8b1a1a" d="M260.07,-295.49C272.7,-299.3 286.93,-303.46 300,-307 350.77,-320.75 367.23,-312.97 415,-335 423.96,-339.13 424.73,-342.62 433,-348 444.8,-355.67 458.6,-363.66 468.94,-369.46"/>
<polygon fill="#8b1a1a" stroke="#8b1a1a" points="260.93,-292.1 250.34,-292.54 258.89,-298.79 260.93,-292.1"/>
</g>
<!-- Node20 -->
<g id="node19" class="node">
<title>Node20</title>
<g id="a_node19"><a xlink:href="structflow_1_1net__flow_1_1Low__lvl__packet_1_1Aux__raw__data.html" target="_top" xlink:title="Helper data store type for storing binary data needed by serialize_to_raw_data(), when certains bits ...">
<polygon fill="white" stroke="black" points="678.5,-322 678.5,-348 801.5,-348 801.5,-322 678.5,-322"/>
<text text-anchor="start" x="686.5" y="-337.6" font-family="Helvetica,sans-Serif" font-size="8.00">flow::net_flow::Low</text>
<text text-anchor="middle" x="740" y="-328.6" font-family="Helvetica,sans-Serif" font-size="8.00">_lvl_packet::Aux_raw_data</text>
</a>
</g>
</g>
<!-- Node10&#45;&gt;Node20 -->
<g id="edge21" class="edge">
<title>Node10&#45;&gt;Node20</title>
<path fill="none" stroke="#8b1a1a" d="M281.8,-292.18C323.87,-297.88 381.86,-305.43 433,-311 487.56,-316.95 501.29,-317.61 556,-322 596.8,-325.27 642.75,-328.54 678.4,-330.97"/>
<polygon fill="#8b1a1a" stroke="#8b1a1a" points="282.11,-288.69 271.73,-290.81 281.17,-295.63 282.11,-288.69"/>
</g>
<!-- Node11 -->
<g id="node10" class="node">
<title>Node11</title>
<g id="a_node10"><a xlink:title=" ">
<polygon fill="white" stroke="#bfbfbf" points="175,-312 175,-338 269,-338 269,-312 175,-312"/>
<text text-anchor="start" x="183" y="-327.6" font-family="Helvetica,sans-Serif" font-size="8.00">thread_specific_ptr</text>
<text text-anchor="middle" x="222" y="-318.6" font-family="Helvetica,sans-Serif" font-size="8.00">&lt; std::string &gt;</text>
</a>
</g>
</g>
<!-- Node11&#45;&gt;Node6 -->
<g id="edge10" class="edge">
<title>Node11&#45;&gt;Node6</title>
<path fill="none" stroke="#9a32cd" stroke-dasharray="5,2" d="M278.98,-333.52C317.42,-339.72 369.52,-348.78 415,-359 428.42,-362.02 443.14,-365.95 455.57,-369.45"/>
<polygon fill="#9a32cd" stroke="#9a32cd" points="279.44,-330.05 269.01,-331.93 278.34,-336.97 279.44,-330.05"/>
<text text-anchor="middle" x="357.5" y="-361.6" font-family="Helvetica,sans-Serif" font-size="8.00"> s_this_thread_nickname_ptr</text>
</g>
<!-- Node12 -->
<g id="node11" class="node">
<title>Node12</title>
<g id="a_node11"><a xlink:href="classflow_1_1log_1_1Component.html" target="_top" xlink:title="A light&#45;weight class, each object storing a component payload encoding an enum value from enum type o...">
<polygon fill="white" stroke="black" points="433,-421.5 433,-438.5 538,-438.5 538,-421.5 433,-421.5"/>
<text text-anchor="middle" x="485.5" y="-428.1" font-family="Helvetica,sans-Serif" font-size="8.00">flow::log::Component</text>
</a>
</g>
</g>
<!-- Node12&#45;&gt;Node5 -->
<g id="edge11" class="edge">
<title>Node12&#45;&gt;Node5</title>
<path fill="none" stroke="#9a32cd" stroke-dasharray="5,2" d="M548.4,-430C590.76,-430 646.3,-430 686.49,-430"/>
<polygon fill="#9a32cd" stroke="#9a32cd" points="548.21,-426.5 538.21,-430 548.21,-433.5 548.21,-426.5"/>
<text text-anchor="middle" x="600.5" y="-432.6" font-family="Helvetica,sans-Serif" font-size="8.00"> m_component</text>
</g>
<!-- Node13 -->
<g id="node12" class="node">
<title>Node13</title>
<g id="a_node12"><a xlink:title=" ">
<polygon fill="white" stroke="#bfbfbf" points="179.5,-402.5 179.5,-419.5 264.5,-419.5 264.5,-402.5 179.5,-402.5"/>
<text text-anchor="middle" x="222" y="-409.1" font-family="Helvetica,sans-Serif" font-size="8.00">type_info const *</text>
</a>
</g>
</g>
<!-- Node13&#45;&gt;Node12 -->
<g id="edge12" class="edge">
<title>Node13&#45;&gt;Node12</title>
<path fill="none" stroke="#9a32cd" stroke-dasharray="5,2" d="M274.73,-414.76C320.44,-418.08 386.79,-422.9 432.57,-426.23"/>
<polygon fill="#9a32cd" stroke="#9a32cd" points="274.95,-411.27 264.72,-414.03 274.44,-418.25 274.95,-411.27"/>
<text text-anchor="middle" x="357.5" y="-426.6" font-family="Helvetica,sans-Serif" font-size="8.00"> m_payload_type_or_null</text>
</g>
<!-- Node14 -->
<g id="node13" class="node">
<title>Node14</title>
<g id="a_node13"><a xlink:title=" ">
<polygon fill="white" stroke="#bfbfbf" points="188,-474.5 188,-491.5 256,-491.5 256,-474.5 188,-474.5"/>
<text text-anchor="middle" x="222" y="-481.1" font-family="Helvetica,sans-Serif" font-size="8.00">unsigned int</text>
</a>
</g>
</g>
<!-- Node14&#45;&gt;Node12 -->
<g id="edge13" class="edge">
<title>Node14&#45;&gt;Node12</title>
<path fill="none" stroke="#9a32cd" stroke-dasharray="5,2" d="M265.98,-475.17C304.95,-467.97 363.93,-456.8 415,-446 425.9,-443.7 437.73,-441.03 448.48,-438.55"/>
<polygon fill="#9a32cd" stroke="#9a32cd" points="265.23,-471.75 256.03,-477.01 266.5,-478.64 265.23,-471.75"/>
<text text-anchor="start" x="311" y="-479.6" font-family="Helvetica,sans-Serif" font-size="8.00"> m_payload_enum_raw</text>
<text text-anchor="middle" x="357.5" y="-470.6" font-family="Helvetica,sans-Serif" font-size="8.00">_value</text>
</g>
<!-- Node15 -->
<g id="node14" class="node">
<title>Node15</title>
<g id="a_node14"><a xlink:href="classbool.html" target="_top" xlink:title=" ">
<polygon fill="white" stroke="#bfbfbf" points="722.5,-285.5 722.5,-302.5 757.5,-302.5 757.5,-285.5 722.5,-285.5"/>
<text text-anchor="middle" x="740" y="-292.1" font-family="Helvetica,sans-Serif" font-size="8.00">bool</text>
</a>
</g>
</g>
<!-- Node15&#45;&gt;Node2 -->
<g id="edge15" class="edge">
<title>Node15&#45;&gt;Node2</title>
<path fill="none" stroke="#9a32cd" stroke-dasharray="5,2" d="M767.7,-297.08C807.06,-301.74 882.91,-311.2 947,-322 952.74,-322.97 958.76,-324.07 964.71,-325.21"/>
<polygon fill="#9a32cd" stroke="#9a32cd" points="767.95,-293.58 757.61,-295.89 767.13,-300.53 767.95,-293.58"/>
<text text-anchor="middle" x="891" y="-324.6" font-family="Helvetica,sans-Serif" font-size="8.00"> m_opt_rexmit_on</text>
</g>
<!-- Node16 -->
<g id="node15" class="node">
<title>Node16</title>
<g id="a_node15"><a xlink:title=" ">
<polygon fill="white" stroke="#bfbfbf" points="460.5,-240.5 460.5,-257.5 510.5,-257.5 510.5,-240.5 460.5,-240.5"/>
<text text-anchor="middle" x="485.5" y="-247.1" font-family="Helvetica,sans-Serif" font-size="8.00">uint16_t</text>
</a>
</g>
</g>
<!-- Node16&#45;&gt;Node2 -->
<g id="edge16" class="edge">
<title>Node16&#45;&gt;Node2</title>
<path fill="none" stroke="#9a32cd" stroke-dasharray="5,2" d="M520.92,-246.66C581.37,-243.29 710.33,-239.32 817,-258 876.94,-268.5 891,-277.17 947,-301 961.33,-307.1 976.78,-315.18 988.96,-321.94"/>
<polygon fill="#9a32cd" stroke="#9a32cd" points="520.57,-243.18 510.79,-247.26 520.98,-250.17 520.57,-243.18"/>
<text text-anchor="middle" x="740" y="-269.6" font-family="Helvetica,sans-Serif" font-size="8.00"> m_dst_port</text>
<text text-anchor="middle" x="740" y="-260.6" font-family="Helvetica,sans-Serif" font-size="8.00">m_src_port</text>
</g>
<!-- Node16&#45;&gt;Node20 -->
<g id="edge23" class="edge">
<title>Node16&#45;&gt;Node20</title>
<path fill="none" stroke="#9a32cd" stroke-dasharray="5,2" d="M520.6,-254.31C560.86,-261.08 624.9,-273.51 645,-287 656.37,-294.63 651.86,-304.04 663,-312 668.5,-315.93 674.67,-319.19 681.07,-321.91"/>
<polygon fill="#9a32cd" stroke="#9a32cd" points="521.11,-250.85 510.67,-252.68 519.97,-257.76 521.11,-250.85"/>
<text text-anchor="middle" x="600.5" y="-289.6" font-family="Helvetica,sans-Serif" font-size="8.00"> m_reserved2</text>
</g>
<!-- Node17 -->
<g id="node16" class="node">
<title>Node17</title>
<g id="a_node16"><a xlink:title=" ">
<polygon fill="white" stroke="#bfbfbf" points="685.5,-157.5 685.5,-174.5 794.5,-174.5 794.5,-157.5 685.5,-157.5"/>
<text text-anchor="middle" x="740" y="-164.1" font-family="Helvetica,sans-Serif" font-size="8.00">anonymous:m_packed</text>
</a>
</g>
</g>
<!-- Node17&#45;&gt;Node1 -->
<g id="edge30" class="edge">
<title>Node17&#45;&gt;Node1</title>
<path fill="none" stroke="#9a32cd" stroke-dasharray="5,2" d="M804.74,-168.74C886.56,-170.52 1032.12,-167.79 1151,-134 1166.51,-129.59 1182.64,-121.25 1194.83,-114.05"/>
<polygon fill="#9a32cd" stroke="#9a32cd" points="804.69,-165.24 794.6,-168.49 804.51,-172.23 804.69,-165.24"/>
<text text-anchor="middle" x="1012.5" y="-166.6" font-family="Helvetica,sans-Serif" font-size="8.00"> m_packed</text>
</g>
<!-- Node17&#45;&gt;Node2 -->
<g id="edge17" class="edge">
<title>Node17&#45;&gt;Node2</title>
<path fill="none" stroke="#9a32cd" stroke-dasharray="5,2" d="M804.77,-173.52C860.97,-180.64 935.64,-191.47 947,-200 987.91,-230.74 1004.05,-294.11 1009.32,-321.69"/>
<polygon fill="#9a32cd" stroke="#9a32cd" points="804.86,-170.01 794.51,-172.24 804,-176.95 804.86,-170.01"/>
<text text-anchor="middle" x="891" y="-202.6" font-family="Helvetica,sans-Serif" font-size="8.00"> m_packed</text>
</g>
<!-- Node18 -->
<g id="node17" class="node">
<title>Node18</title>
<g id="a_node17"><a xlink:href="classflow_1_1Function.html" target="_top" xlink:title=" ">
<polygon fill="white" stroke="#bfbfbf" points="671,-593 671,-619 809,-619 809,-593 671,-593"/>
<text text-anchor="start" x="679" y="-608.6" font-family="Helvetica,sans-Serif" font-size="8.00">flow::Function&lt; std</text>
<text text-anchor="middle" x="740" y="-599.6" font-family="Helvetica,sans-Serif" font-size="8.00">::ostream &amp;(std::ostream &amp;)&gt;</text>
</a>
</g>
</g>
<!-- Node18&#45;&gt;Node2 -->
<g id="edge18" class="edge">
<title>Node18&#45;&gt;Node2</title>
<path fill="none" stroke="#9a32cd" stroke-dasharray="5,2" d="M819.25,-614.06C861.87,-614.11 912.75,-606.46 947,-576 982.03,-544.84 1003.94,-394.02 1009.87,-348.22"/>
<polygon fill="#9a32cd" stroke="#9a32cd" points="819.22,-610.56 809.17,-613.91 819.12,-617.56 819.22,-610.56"/>
<text text-anchor="middle" x="891" y="-633.6" font-family="Helvetica,sans-Serif" font-size="8.00"> m_concise_ostream_manip</text>
<text text-anchor="middle" x="891" y="-624.6" font-family="Helvetica,sans-Serif" font-size="8.00">m_type_ostream_manip</text>
<text text-anchor="middle" x="891" y="-615.6" font-family="Helvetica,sans-Serif" font-size="8.00">m_verbose_ostream_manip</text>
</g>
<!-- Node19 -->
<g id="node18" class="node">
<title>Node19</title>
<g id="a_node18"><a xlink:title=" ">
<polygon fill="white" stroke="#bfbfbf" points="681.5,-530 681.5,-574 798.5,-574 798.5,-530 681.5,-530"/>
<text text-anchor="start" x="689.5" y="-563.6" font-family="Helvetica,sans-Serif" font-size="8.00">unordered_map&lt; std</text>
<text text-anchor="start" x="689.5" y="-554.6" font-family="Helvetica,sans-Serif" font-size="8.00">::type_index, flow::</text>
<text text-anchor="start" x="689.5" y="-545.6" font-family="Helvetica,sans-Serif" font-size="8.00">net_flow::Low_lvl_packet</text>
<text text-anchor="middle" x="740" y="-536.6" font-family="Helvetica,sans-Serif" font-size="8.00">::Packet_type_info &gt;</text>
</a>
</g>
</g>
<!-- Node19&#45;&gt;Node2 -->
<g id="edge19" class="edge">
<title>Node19&#45;&gt;Node2</title>
<path fill="none" stroke="#9a32cd" stroke-dasharray="5,2" d="M808.67,-556.29C852.8,-555.47 909.04,-547.12 947,-515 998.95,-471.04 1009.06,-382.06 1011.03,-348.35"/>
<polygon fill="#9a32cd" stroke="#9a32cd" points="808.57,-552.79 798.6,-556.35 808.62,-559.79 808.57,-552.79"/>
<text text-anchor="start" x="845.5" y="-565.6" font-family="Helvetica,sans-Serif" font-size="8.00"> S_NATIVE_TYPE_ID_TO</text>
<text text-anchor="middle" x="891" y="-556.6" font-family="Helvetica,sans-Serif" font-size="8.00">_PACKET_TYPE_INFO</text>
</g>
<!-- Node20&#45;&gt;Node2 -->
<g id="edge20" class="edge">
<title>Node20&#45;&gt;Node2</title>
<path fill="none" stroke="#9a32cd" stroke-dasharray="5,2" d="M811.78,-335C860.1,-335 922.74,-335 964.87,-335"/>
<polygon fill="#9a32cd" stroke="#9a32cd" points="811.71,-331.5 801.71,-335 811.71,-338.5 811.71,-331.5"/>
<text text-anchor="middle" x="891" y="-337.6" font-family="Helvetica,sans-Serif" font-size="8.00"> m_aux_raw_data</text>
</g>
<!-- Node21 -->
<g id="node20" class="node">
<title>Node21</title>
<g id="a_node20"><a xlink:title=" ">
<polygon fill="white" stroke="#bfbfbf" points="448,-284.5 448,-301.5 523,-301.5 523,-284.5 448,-284.5"/>
<text text-anchor="middle" x="485.5" y="-291.1" font-family="Helvetica,sans-Serif" font-size="8.00">unsigned char</text>
</a>
</g>
</g>
<!-- Node21&#45;&gt;Node1 -->
<g id="edge31" class="edge">
<title>Node21&#45;&gt;Node1</title>
<path fill="none" stroke="#9a32cd" stroke-dasharray="5,2" d="M515.97,-279.99C523.41,-276.2 531.21,-271.79 538,-267 600.69,-222.8 593.05,-179.48 663,-148 752.9,-107.54 1052.79,-101.74 1168.71,-101.04"/>
<polygon fill="#9a32cd" stroke="#9a32cd" points="514.31,-276.9 506.84,-284.42 517.37,-283.2 514.31,-276.9"/>
<text text-anchor="middle" x="891" y="-117.6" font-family="Helvetica,sans-Serif" font-size="8.00"> S_RAW_TYPE_ID</text>
</g>
<!-- Node21&#45;&gt;Node20 -->
<g id="edge22" class="edge">
<title>Node21&#45;&gt;Node20</title>
<path fill="none" stroke="#9a32cd" stroke-dasharray="5,2" d="M533.47,-297.63C565.11,-301.06 607.72,-306.3 645,-313 658.86,-315.49 673.74,-318.71 687.49,-321.92"/>
<polygon fill="#9a32cd" stroke="#9a32cd" points="533.49,-294.11 523.18,-296.53 532.75,-301.07 533.49,-294.11"/>
<text text-anchor="middle" x="600.5" y="-315.6" font-family="Helvetica,sans-Serif" font-size="8.00"> m_opt_rexmit_on_raw</text>
</g>
<!-- Node22&#45;&gt;Node1 -->
<g id="edge24" class="edge">
<title>Node22&#45;&gt;Node1</title>
<path fill="none" stroke="#9a32cd" stroke-dasharray="5,2" d="M262.05,-133.93C312.44,-113.5 403.29,-82 484.5,-82 484.5,-82 484.5,-82 1013.5,-82 1066.91,-82 1127.93,-88.7 1168.7,-94.14"/>
<polygon fill="#9a32cd" stroke="#9a32cd" points="260.44,-130.81 252.53,-137.86 263.11,-137.28 260.44,-130.81"/>
<text text-anchor="middle" x="740" y="-84.6" font-family="Helvetica,sans-Serif" font-size="8.00"> m_init_seq_num</text>
</g>
<!-- Node23 -->
<g id="node22" class="node">
<title>Node23</title>
<g id="a_node22"><a xlink:title=" ">
<polygon fill="white" stroke="#bfbfbf" points="7.5,-124.5 7.5,-141.5 42.5,-141.5 42.5,-124.5 7.5,-124.5"/>
<text text-anchor="middle" x="25" y="-131.1" font-family="Helvetica,sans-Serif" font-size="8.00">char</text>
</a>
</g>
</g>
<!-- Node23&#45;&gt;Node22 -->
<g id="edge26" class="edge">
<title>Node23&#45;&gt;Node22</title>
<path fill="none" stroke="#9a32cd" stroke-dasharray="5,2" d="M52.96,-133.19C76.92,-133.58 112.88,-134.73 144,-138 149.8,-138.61 155.82,-139.38 161.83,-140.24"/>
<polygon fill="#9a32cd" stroke="#9a32cd" points="52.9,-129.69 42.85,-133.05 52.81,-136.68 52.9,-129.69"/>
<text text-anchor="middle" x="106" y="-140.6" font-family="Helvetica,sans-Serif" font-size="8.00"> m_num_line_id</text>
</g>
<!-- Node24 -->
<g id="node23" class="node">
<title>Node24</title>
<g id="a_node23"><a xlink:title=" ">
<polygon fill="white" stroke="#bfbfbf" points="3,-160.5 3,-177.5 47,-177.5 47,-160.5 3,-160.5"/>
<text text-anchor="middle" x="25" y="-167.1" font-family="Helvetica,sans-Serif" font-size="8.00">int64_t</text>
</a>
</g>
</g>
<!-- Node24&#45;&gt;Node22 -->
<g id="edge27" class="edge">
<title>Node24&#45;&gt;Node22</title>
<path fill="none" stroke="#9a32cd" stroke-dasharray="5,2" d="M57.27,-166.11C85.32,-163.52 127.24,-159.65 161.65,-156.48"/>
<polygon fill="#9a32cd" stroke="#9a32cd" points="56.88,-162.63 47.24,-167.04 57.52,-169.61 56.88,-162.63"/>
<text text-anchor="middle" x="106" y="-167.6" font-family="Helvetica,sans-Serif" font-size="8.00"> m_multiple_size</text>
</g>
<!-- Node25 -->
<g id="node24" class="node">
<title>Node25</title>
<g id="a_node24"><a xlink:title=" ">
<polygon fill="white" stroke="#bfbfbf" points="971,-36.5 971,-53.5 1054,-53.5 1054,-36.5 971,-36.5"/>
<text text-anchor="middle" x="1012.5" y="-43.1" font-family="Helvetica,sans-Serif" font-size="8.00">security_token_t</text>
</a>
</g>
</g>
<!-- Node25&#45;&gt;Node1 -->
<g id="edge28" class="edge">
<title>Node25&#45;&gt;Node1</title>
<path fill="none" stroke="#9a32cd" stroke-dasharray="5,2" d="M1064.23,-44.43C1090.75,-45.55 1123.35,-49.19 1151,-59 1169.29,-65.49 1187.53,-78.24 1199.83,-88"/>
<polygon fill="#9a32cd" stroke="#9a32cd" points="1064.12,-40.93 1054.02,-44.11 1063.9,-47.93 1064.12,-40.93"/>
<text text-anchor="middle" x="1114.5" y="-61.6" font-family="Helvetica,sans-Serif" font-size="8.00"> m_security_token</text>
</g>
<!-- Node26 -->
<g id="node25" class="node">
<title>Node26</title>
<g id="a_node25"><a xlink:title=" ">
<polygon fill="white" stroke="#bfbfbf" points="984.5,-0.5 984.5,-17.5 1040.5,-17.5 1040.5,-0.5 984.5,-0.5"/>
<text text-anchor="middle" x="1012.5" y="-7.1" font-family="Helvetica,sans-Serif" font-size="8.00">rcv_wnd_t</text>
</a>
</g>
</g>
<!-- Node26&#45;&gt;Node1 -->
<g id="edge29" class="edge">
<title>Node26&#45;&gt;Node1</title>
<path fill="none" stroke="#9a32cd" stroke-dasharray="5,2" d="M1050.84,-8.81C1079.76,-10.14 1119.98,-15.28 1151,-32 1175.74,-45.33 1196.13,-71.9 1206.84,-87.9"/>
<polygon fill="#9a32cd" stroke="#9a32cd" points="1050.85,-5.31 1040.74,-8.48 1050.62,-12.31 1050.85,-5.31"/>
<text text-anchor="middle" x="1114.5" y="-34.6" font-family="Helvetica,sans-Serif" font-size="8.00"> m_rcv_wnd</text>
</g>
</g>
</svg>
