<?xml version="1.0" encoding="UTF-8" standalone="no"?>
<!DOCTYPE svg PUBLIC "-//W3C//DTD SVG 1.1//EN"
 "http://www.w3.org/Graphics/SVG/1.1/DTD/svg11.dtd">
<!-- Generated by graphviz version 2.43.0 (0)
 -->
<!-- Title: flow::net_flow::Ack_packet::Individual_ack_rexmit_off Pages: 1 -->
<svg width="122pt" height="116pt"
 viewBox="0.00 0.00 122.00 116.00" xmlns="http://www.w3.org/2000/svg" xmlns:xlink="http://www.w3.org/1999/xlink">
<g id="graph0" class="graph" transform="scale(1 1) rotate(0) translate(4 112)">
<title>flow::net_flow::Ack_packet::Individual_ack_rexmit_off</title>
<polygon fill="white" stroke="transparent" points="-4,4 -4,-112 118,-112 118,4 -4,4"/>
<!-- Node1 -->
<g id="node1" class="node">
<title>Node1</title>
<g id="a_node1"><a xlink:title="Specifies the outgoing (pre&#45;serialization) acknowledgment of a single received Data_packet,...">
<polygon fill="#bfbfbf" stroke="black" points="0,-0.5 0,-35.5 94,-35.5 94,-0.5 0,-0.5"/>
<text text-anchor="start" x="8" y="-25.1" font-family="Helvetica,sans-Serif" font-size="8.00">flow::net_flow::Ack</text>
<text text-anchor="start" x="8" y="-16.1" font-family="Helvetica,sans-Serif" font-size="8.00">_packet::Individual</text>
<text text-anchor="middle" x="47" y="-7.1" font-family="Helvetica,sans-Serif" font-size="8.00">_ack_rexmit_off</text>
</a>
</g>
</g>
<!-- Node2 -->
<g id="node2" class="node">
<title>Node2</title>
<g id="a_node2"><a xlink:title=" ">
<polygon fill="white" stroke="#bfbfbf" points="22,-90.5 22,-107.5 72,-107.5 72,-90.5 22,-90.5"/>
<text text-anchor="middle" x="47" y="-97.1" font-family="Helvetica,sans-Serif" font-size="8.00">uint64_t</text>
</a>
</g>
</g>
<!-- Node2&#45;&gt;Node1 -->
<g id="edge1" class="edge">
<title>Node2&#45;&gt;Node1</title>
<path fill="none" stroke="#9a32cd" stroke-dasharray="5,2" d="M47,-80.2C47,-66.89 47,-48.81 47,-35.76"/>
<polygon fill="#9a32cd" stroke="#9a32cd" points="43.5,-80.43 47,-90.43 50.5,-80.43 43.5,-80.43"/>
<text text-anchor="middle" x="80.5" y="-65.6" font-family="Helvetica,sans-Serif" font-size="8.00"> m_delay</text>
<text text-anchor="middle" x="80.5" y="-56.6" font-family="Helvetica,sans-Serif" font-size="8.00">m_seq_num_raw</text>
</g>
</g>
</svg>
