<?xml version="1.0" encoding="UTF-8" standalone="no"?>
<!DOCTYPE svg PUBLIC "-//W3C//DTD SVG 1.1//EN"
 "http://www.w3.org/Graphics/SVG/1.1/DTD/svg11.dtd">
<!-- Generated by graphviz version 2.43.0 (0)
 -->
<!-- Title: flow::net_flow::Ack_packet::Individual_ack_rexmit_on Pages: 1 -->
<svg width="203pt" height="188pt"
 viewBox="0.00 0.00 203.00 188.00" xmlns="http://www.w3.org/2000/svg" xmlns:xlink="http://www.w3.org/1999/xlink">
<g id="graph0" class="graph" transform="scale(1 1) rotate(0) translate(4 184)">
<title>flow::net_flow::Ack_packet::Individual_ack_rexmit_on</title>
<polygon fill="white" stroke="transparent" points="-4,4 -4,-184 199,-184 199,4 -4,4"/>
<!-- Node1 -->
<g id="node1" class="node">
<title>Node1</title>
<g id="a_node1"><a xlink:title="Equivalent of Individual_ack_rexmit_off but for sockets with retransmission enabled.">
<polygon fill="#bfbfbf" stroke="black" points="72,-0.5 72,-35.5 166,-35.5 166,-0.5 72,-0.5"/>
<text text-anchor="start" x="80" y="-25.1" font-family="Helvetica,sans-Serif" font-size="8.00">flow::net_flow::Ack</text>
<text text-anchor="start" x="80" y="-16.1" font-family="Helvetica,sans-Serif" font-size="8.00">_packet::Individual</text>
<text text-anchor="middle" x="119" y="-7.1" font-family="Helvetica,sans-Serif" font-size="8.00">_ack_rexmit_on</text>
</a>
</g>
</g>
<!-- Node2 -->
<g id="node2" class="node">
<title>Node2</title>
<g id="a_node2"><a xlink:href="structflow_1_1net__flow_1_1Ack__packet_1_1Individual__ack__rexmit__off.html" target="_top" xlink:title="Specifies the outgoing (pre&#45;serialization) acknowledgment of a single received Data_packet,...">
<polygon fill="white" stroke="black" points="29,-81.5 29,-116.5 123,-116.5 123,-81.5 29,-81.5"/>
<text text-anchor="start" x="37" y="-106.1" font-family="Helvetica,sans-Serif" font-size="8.00">flow::net_flow::Ack</text>
<text text-anchor="start" x="37" y="-97.1" font-family="Helvetica,sans-Serif" font-size="8.00">_packet::Individual</text>
<text text-anchor="middle" x="76" y="-88.1" font-family="Helvetica,sans-Serif" font-size="8.00">_ack_rexmit_off</text>
</a>
</g>
</g>
<!-- Node2&#45;&gt;Node1 -->
<g id="edge1" class="edge">
<title>Node2&#45;&gt;Node1</title>
<path fill="none" stroke="#9a32cd" stroke-dasharray="5,2" d="M80.33,-71.65C81.93,-65.63 84.09,-59.42 87,-54 90.51,-47.47 95.5,-41.21 100.51,-35.83"/>
<polygon fill="#9a32cd" stroke="#9a32cd" points="76.92,-70.89 78.15,-81.41 83.75,-72.42 76.92,-70.89"/>
<text text-anchor="middle" x="114" y="-56.6" font-family="Helvetica,sans-Serif" font-size="8.00"> m_basic_ack</text>
</g>
<!-- Node3 -->
<g id="node3" class="node">
<title>Node3</title>
<g id="a_node3"><a xlink:title=" ">
<polygon fill="white" stroke="#bfbfbf" points="0,-162.5 0,-179.5 60,-179.5 60,-162.5 0,-162.5"/>
<text text-anchor="middle" x="30" y="-169.1" font-family="Helvetica,sans-Serif" font-size="8.00">seq_num_t</text>
</a>
</g>
</g>
<!-- Node3&#45;&gt;Node2 -->
<g id="edge2" class="edge">
<title>Node3&#45;&gt;Node2</title>
<path fill="none" stroke="#9a32cd" stroke-dasharray="5,2" d="M27.59,-152.22C27.56,-146.46 28.35,-140.22 31,-135 34.58,-127.94 40.32,-121.87 46.51,-116.87"/>
<polygon fill="#9a32cd" stroke="#9a32cd" points="24.11,-152.63 28.42,-162.31 31.09,-152.05 24.11,-152.63"/>
<text text-anchor="middle" x="66" y="-137.6" font-family="Helvetica,sans-Serif" font-size="8.00"> m_seq_num_raw</text>
</g>
<!-- Node4 -->
<g id="node4" class="node">
<title>Node4</title>
<g id="a_node4"><a xlink:title=" ">
<polygon fill="white" stroke="#bfbfbf" points="78.5,-162.5 78.5,-179.5 167.5,-179.5 167.5,-162.5 78.5,-162.5"/>
<text text-anchor="middle" x="123" y="-169.1" font-family="Helvetica,sans-Serif" font-size="8.00">const ack_delay_t</text>
</a>
</g>
</g>
<!-- Node4&#45;&gt;Node2 -->
<g id="edge3" class="edge">
<title>Node4&#45;&gt;Node2</title>
<path fill="none" stroke="#9a32cd" stroke-dasharray="5,2" d="M112.89,-153.48C109.22,-147.6 104.99,-140.96 101,-135 96.92,-128.92 92.31,-122.37 88.16,-116.59"/>
<polygon fill="#9a32cd" stroke="#9a32cd" points="110.17,-155.74 118.41,-162.41 116.13,-152.06 110.17,-155.74"/>
<text text-anchor="middle" x="124.5" y="-137.6" font-family="Helvetica,sans-Serif" font-size="8.00"> m_delay</text>
</g>
<!-- Node5 -->
<g id="node5" class="node">
<title>Node5</title>
<g id="a_node5"><a xlink:title=" ">
<polygon fill="white" stroke="#bfbfbf" points="141,-90.5 141,-107.5 185,-107.5 185,-90.5 141,-90.5"/>
<text text-anchor="middle" x="163" y="-97.1" font-family="Helvetica,sans-Serif" font-size="8.00">uint8_t</text>
</a>
</g>
</g>
<!-- Node5&#45;&gt;Node1 -->
<g id="edge4" class="edge">
<title>Node5&#45;&gt;Node1</title>
<path fill="none" stroke="#9a32cd" stroke-dasharray="5,2" d="M155.17,-81.39C151.12,-73.06 146,-62.89 141,-54 137.55,-47.87 133.52,-41.3 129.86,-35.53"/>
<polygon fill="#9a32cd" stroke="#9a32cd" points="152.01,-82.9 159.48,-90.41 158.33,-79.88 152.01,-82.9"/>
<text text-anchor="middle" x="170" y="-56.6" font-family="Helvetica,sans-Serif" font-size="8.00"> m_rexmit_id</text>
</g>
</g>
</svg>
