<?xml version="1.0" encoding="UTF-8" standalone="no"?>
<!DOCTYPE svg PUBLIC "-//W3C//DTD SVG 1.1//EN"
 "http://www.w3.org/Graphics/SVG/1.1/DTD/svg11.dtd">
<!-- Generated by graphviz version 2.43.0 (0)
 -->
<!-- Title: flow::net_flow::Peer_socket_options Pages: 1 -->
<svg width="651pt" height="233pt"
 viewBox="0.00 0.00 651.00 233.00" xmlns="http://www.w3.org/2000/svg" xmlns:xlink="http://www.w3.org/1999/xlink">
<g id="graph0" class="graph" transform="scale(1 1) rotate(0) translate(4 229)">
<title>flow::net_flow::Peer_socket_options</title>
<polygon fill="white" stroke="transparent" points="-4,4 -4,-229 647,-229 647,4 -4,4"/>
<!-- Node1 -->
<g id="node1" class="node">
<title>Node1</title>
<g id="a_node1"><a xlink:title="A set of low&#45;level options affecting a single Peer_socket.">
<polygon fill="#bfbfbf" stroke="black" points="222.5,-0.5 222.5,-26.5 319.5,-26.5 319.5,-0.5 222.5,-0.5"/>
<text text-anchor="start" x="230.5" y="-16.1" font-family="Helvetica,sans-Serif" font-size="8.00">flow::net_flow::Peer</text>
<text text-anchor="middle" x="271" y="-7.1" font-family="Helvetica,sans-Serif" font-size="8.00">_socket_options</text>
</a>
</g>
</g>
<!-- Node2 -->
<g id="node2" class="node">
<title>Node2</title>
<g id="a_node2"><a xlink:title=" ">
<polygon fill="white" stroke="#bfbfbf" points="0,-203 0,-220 40,-220 40,-203 0,-203"/>
<text text-anchor="middle" x="20" y="-209.6" font-family="Helvetica,sans-Serif" font-size="8.00">size_t</text>
</a>
</g>
</g>
<!-- Node2&#45;&gt;Node1 -->
<g id="edge1" class="edge">
<title>Node2&#45;&gt;Node1</title>
<path fill="none" stroke="#9a32cd" stroke-dasharray="5,2" d="M14.89,-193.27C6.14,-159.79 -7.31,-85.68 31,-45 56.3,-18.13 159.98,-13.78 222.49,-13.69"/>
<polygon fill="#9a32cd" stroke="#9a32cd" points="11.54,-194.27 17.6,-202.96 18.28,-192.38 11.54,-194.27"/>
<text text-anchor="start" x="31" y="-160.1" font-family="Helvetica,sans-Serif" font-size="8.00"> m_st_cong_ctl_cong</text>
<text text-anchor="start" x="31" y="-151.1" font-family="Helvetica,sans-Serif" font-size="8.00">_wnd_on_drop_timeout</text>
<text text-anchor="middle" x="82" y="-142.1" font-family="Helvetica,sans-Serif" font-size="8.00">_blocks</text>
<text text-anchor="start" x="31" y="-133.1" font-family="Helvetica,sans-Serif" font-size="8.00">m_st_cong_ctl_init</text>
<text text-anchor="middle" x="82" y="-124.1" font-family="Helvetica,sans-Serif" font-size="8.00">_cong_wnd_blocks</text>
<text text-anchor="start" x="31" y="-115.1" font-family="Helvetica,sans-Serif" font-size="8.00">m_st_cong_ctl_max_cong</text>
<text text-anchor="middle" x="82" y="-106.1" font-family="Helvetica,sans-Serif" font-size="8.00">_wnd_blocks</text>
<text text-anchor="middle" x="82" y="-97.1" font-family="Helvetica,sans-Serif" font-size="8.00">m_st_max_block_size</text>
<text text-anchor="start" x="31" y="-88.1" font-family="Helvetica,sans-Serif" font-size="8.00">m_st_max_full_blocks</text>
<text text-anchor="middle" x="82" y="-79.1" font-family="Helvetica,sans-Serif" font-size="8.00">_before_ack_send</text>
<text text-anchor="middle" x="82" y="-70.1" font-family="Helvetica,sans-Serif" font-size="8.00">m_st_rcv_buf_max_size</text>
<text text-anchor="middle" x="82" y="-61.1" font-family="Helvetica,sans-Serif" font-size="8.00">m_st_snd_buf_max_size</text>
</g>
<!-- Node3 -->
<g id="node3" class="node">
<title>Node3</title>
<g id="a_node3"><a xlink:title=" ">
<polygon fill="white" stroke="#bfbfbf" points="109.5,-203 109.5,-220 180.5,-220 180.5,-203 109.5,-203"/>
<text text-anchor="middle" x="145" y="-209.6" font-family="Helvetica,sans-Serif" font-size="8.00">Fine_duration</text>
</a>
</g>
</g>
<!-- Node3&#45;&gt;Node1 -->
<g id="edge2" class="edge">
<title>Node3&#45;&gt;Node1</title>
<path fill="none" stroke="#9a32cd" stroke-dasharray="5,2" d="M141.26,-192.75C135.37,-159.51 128.01,-87.41 164,-45 178.37,-28.06 201.43,-20.19 222.46,-16.65"/>
<polygon fill="#9a32cd" stroke="#9a32cd" points="137.87,-193.62 143.21,-202.77 144.74,-192.29 137.87,-193.62"/>
<text text-anchor="start" x="164" y="-173.6" font-family="Helvetica,sans-Serif" font-size="8.00"> m_dyn_drop_timeout</text>
<text text-anchor="middle" x="215.5" y="-164.6" font-family="Helvetica,sans-Serif" font-size="8.00">_ceiling</text>
<text text-anchor="start" x="164" y="-155.6" font-family="Helvetica,sans-Serif" font-size="8.00">m_dyn_rcv_wnd_recovery</text>
<text text-anchor="middle" x="215.5" y="-146.6" font-family="Helvetica,sans-Serif" font-size="8.00">_max_period</text>
<text text-anchor="start" x="164" y="-137.6" font-family="Helvetica,sans-Serif" font-size="8.00">m_dyn_rcv_wnd_recovery</text>
<text text-anchor="middle" x="215.5" y="-128.6" font-family="Helvetica,sans-Serif" font-size="8.00">_timer_period</text>
<text text-anchor="start" x="164" y="-119.6" font-family="Helvetica,sans-Serif" font-size="8.00">m_st_connect_retransmit</text>
<text text-anchor="middle" x="215.5" y="-110.6" font-family="Helvetica,sans-Serif" font-size="8.00">_period</text>
<text text-anchor="start" x="164" y="-101.6" font-family="Helvetica,sans-Serif" font-size="8.00">m_st_connect_retransmit</text>
<text text-anchor="middle" x="215.5" y="-92.6" font-family="Helvetica,sans-Serif" font-size="8.00">_timeout</text>
<text text-anchor="start" x="164" y="-83.6" font-family="Helvetica,sans-Serif" font-size="8.00">m_st_delayed_ack_timer</text>
<text text-anchor="middle" x="215.5" y="-74.6" font-family="Helvetica,sans-Serif" font-size="8.00">_period</text>
<text text-anchor="middle" x="215.5" y="-65.6" font-family="Helvetica,sans-Serif" font-size="8.00">m_st_init_drop_timeout</text>
<text text-anchor="start" x="164" y="-56.6" font-family="Helvetica,sans-Serif" font-size="8.00">m_st_snd_bandwidth_est</text>
<text text-anchor="middle" x="215.5" y="-47.6" font-family="Helvetica,sans-Serif" font-size="8.00">_sample_period_floor</text>
</g>
<!-- Node4 -->
<g id="node4" class="node">
<title>Node4</title>
<g id="a_node4"><a xlink:href="classbool.html" target="_top" xlink:title=" ">
<polygon fill="white" stroke="#bfbfbf" points="253.5,-203 253.5,-220 288.5,-220 288.5,-203 253.5,-203"/>
<text text-anchor="middle" x="271" y="-209.6" font-family="Helvetica,sans-Serif" font-size="8.00">bool</text>
</a>
</g>
</g>
<!-- Node4&#45;&gt;Node1 -->
<g id="edge3" class="edge">
<title>Node4&#45;&gt;Node1</title>
<path fill="none" stroke="#9a32cd" stroke-dasharray="5,2" d="M271,-192.34C271,-152.8 271,-59.8 271,-26.57"/>
<polygon fill="#9a32cd" stroke="#9a32cd" points="267.5,-192.57 271,-202.57 274.5,-192.57 267.5,-192.57"/>
<text text-anchor="start" x="271" y="-164.6" font-family="Helvetica,sans-Serif" font-size="8.00"> m_st_drop_all_on_drop</text>
<text text-anchor="middle" x="318" y="-155.6" font-family="Helvetica,sans-Serif" font-size="8.00">_timeout</text>
<text text-anchor="start" x="271" y="-146.6" font-family="Helvetica,sans-Serif" font-size="8.00">m_st_drop_packet</text>
<text text-anchor="start" x="271" y="-137.6" font-family="Helvetica,sans-Serif" font-size="8.00">_exactly_after_drop</text>
<text text-anchor="middle" x="318" y="-128.6" font-family="Helvetica,sans-Serif" font-size="8.00">_timeout</text>
<text text-anchor="start" x="271" y="-119.6" font-family="Helvetica,sans-Serif" font-size="8.00">m_st_out_of_order</text>
<text text-anchor="start" x="271" y="-110.6" font-family="Helvetica,sans-Serif" font-size="8.00">_ack_restarts_drop</text>
<text text-anchor="middle" x="318" y="-101.6" font-family="Helvetica,sans-Serif" font-size="8.00">_timer</text>
<text text-anchor="start" x="271" y="-92.6" font-family="Helvetica,sans-Serif" font-size="8.00">m_st_rcv_flow_control</text>
<text text-anchor="middle" x="318" y="-83.6" font-family="Helvetica,sans-Serif" font-size="8.00">_on</text>
<text text-anchor="middle" x="318" y="-74.6" font-family="Helvetica,sans-Serif" font-size="8.00">m_st_rexmit_on</text>
<text text-anchor="start" x="271" y="-65.6" font-family="Helvetica,sans-Serif" font-size="8.00">m_st_snd_pacing</text>
<text text-anchor="middle" x="318" y="-56.6" font-family="Helvetica,sans-Serif" font-size="8.00">_enabled</text>
</g>
<!-- Node5 -->
<g id="node5" class="node">
<title>Node5</title>
<g id="a_node5"><a xlink:title=" ">
<polygon fill="white" stroke="#bfbfbf" points="354,-203 354,-220 422,-220 422,-203 354,-203"/>
<text text-anchor="middle" x="388" y="-209.6" font-family="Helvetica,sans-Serif" font-size="8.00">unsigned int</text>
</a>
</g>
</g>
<!-- Node5&#45;&gt;Node1 -->
<g id="edge4" class="edge">
<title>Node5&#45;&gt;Node1</title>
<path fill="none" stroke="#9a32cd" stroke-dasharray="5,2" d="M387.96,-192.53C387.51,-154.39 384.45,-67.07 366,-45 354.56,-31.31 336.95,-23.7 319.98,-19.49"/>
<polygon fill="#9a32cd" stroke="#9a32cd" points="384.46,-192.68 388.03,-202.65 391.46,-192.63 384.46,-192.68"/>
<text text-anchor="start" x="387" y="-169.1" font-family="Helvetica,sans-Serif" font-size="8.00"> m_dyn_drop_timeout</text>
<text text-anchor="middle" x="450.5" y="-160.1" font-family="Helvetica,sans-Serif" font-size="8.00">_backoff_factor</text>
<text text-anchor="start" x="387" y="-151.1" font-family="Helvetica,sans-Serif" font-size="8.00">m_st_cong_ctl_classic</text>
<text text-anchor="middle" x="450.5" y="-142.1" font-family="Helvetica,sans-Serif" font-size="8.00">_wnd_decay_percent</text>
<text text-anchor="start" x="387" y="-133.1" font-family="Helvetica,sans-Serif" font-size="8.00">m_st_cong_ctl_cong_avoidance</text>
<text text-anchor="middle" x="450.5" y="-124.1" font-family="Helvetica,sans-Serif" font-size="8.00">_increment_blocks</text>
<text text-anchor="start" x="387" y="-115.1" font-family="Helvetica,sans-Serif" font-size="8.00">m_st_max_rexmissions_per</text>
<text text-anchor="middle" x="450.5" y="-106.1" font-family="Helvetica,sans-Serif" font-size="8.00">_packet</text>
<text text-anchor="start" x="387" y="-97.1" font-family="Helvetica,sans-Serif" font-size="8.00">m_st_rcv_buf_max_size</text>
<text text-anchor="middle" x="450.5" y="-88.1" font-family="Helvetica,sans-Serif" font-size="8.00">_slack_percent</text>
<text text-anchor="start" x="387" y="-79.1" font-family="Helvetica,sans-Serif" font-size="8.00">m_st_rcv_buf_max_size</text>
<text text-anchor="middle" x="450.5" y="-70.1" font-family="Helvetica,sans-Serif" font-size="8.00">_to_advertise_percent</text>
<text text-anchor="start" x="387" y="-61.1" font-family="Helvetica,sans-Serif" font-size="8.00">m_st_rcv_max_packets_after</text>
<text text-anchor="middle" x="450.5" y="-52.1" font-family="Helvetica,sans-Serif" font-size="8.00">_unrecvd_packet_ratio_percent</text>
</g>
<!-- Node6 -->
<g id="node6" class="node">
<title>Node6</title>
<g id="a_node6"><a xlink:title=" ">
<polygon fill="white" stroke="#bfbfbf" points="490.5,-198.5 490.5,-224.5 585.5,-224.5 585.5,-198.5 490.5,-198.5"/>
<text text-anchor="start" x="498.5" y="-214.1" font-family="Helvetica,sans-Serif" font-size="8.00">Congestion_control</text>
<text text-anchor="middle" x="538" y="-205.1" font-family="Helvetica,sans-Serif" font-size="8.00">_strategy_choice</text>
</a>
</g>
</g>
<!-- Node6&#45;&gt;Node1 -->
<g id="edge5" class="edge">
<title>Node6&#45;&gt;Node1</title>
<path fill="none" stroke="#9a32cd" stroke-dasharray="5,2" d="M542.57,-188.53C548.56,-152.96 554.24,-82.92 516,-45 489.18,-18.4 383.16,-13.97 319.71,-13.79"/>
<polygon fill="#9a32cd" stroke="#9a32cd" points="539.13,-187.92 540.75,-198.39 546.01,-189.2 539.13,-187.92"/>
<text text-anchor="middle" x="594.5" y="-110.6" font-family="Helvetica,sans-Serif" font-size="8.00"> m_st_cong_ctl_strategy</text>
</g>
</g>
</svg>
