<?xml version="1.0" encoding="UTF-8" standalone="no"?>
<!DOCTYPE svg PUBLIC "-//W3C//DTD SVG 1.1//EN"
 "http://www.w3.org/Graphics/SVG/1.1/DTD/svg11.dtd">
<!-- Generated by graphviz version 2.43.0 (0)
 -->
<!-- Title: flow::net_flow::Rst_packet Pages: 1 -->
<svg width="1029pt" height="537pt"
 viewBox="0.00 0.00 1029.00 536.96" xmlns="http://www.w3.org/2000/svg" xmlns:xlink="http://www.w3.org/1999/xlink">
<g id="graph0" class="graph" transform="scale(1 1) rotate(0) translate(4 532.96)">
<title>flow::net_flow::Rst_packet</title>
<polygon fill="white" stroke="transparent" points="-4,4 -4,-532.96 1025,-532.96 1025,4 -4,4"/>
<!-- Node1 -->
<g id="node1" class="node">
<title>Node1</title>
<g id="a_node1"><a xlink:title="Internal net_flow struct that encapsulates the Flow&#45;protocol low&#45;level RST packet.">
<polygon fill="#bfbfbf" stroke="black" points="929,-42 929,-68 1021,-68 1021,-42 929,-42"/>
<text text-anchor="start" x="937" y="-57.6" font-family="Helvetica,sans-Serif" font-size="8.00">flow::net_flow::Rst</text>
<text text-anchor="middle" x="975" y="-48.6" font-family="Helvetica,sans-Serif" font-size="8.00">_packet</text>
</a>
</g>
</g>
<!-- Node2 -->
<g id="node2" class="node">
<title>Node2</title>
<g id="a_node2"><a xlink:href="structflow_1_1net__flow_1_1Low__lvl__packet.html" target="_top" xlink:title="Internal net_flow struct that encapsulates the Flow&#45;protocol low&#45;level packet structure and serves as...">
<polygon fill="white" stroke="black" points="797,-213 797,-239 892,-239 892,-213 797,-213"/>
<text text-anchor="start" x="805" y="-228.6" font-family="Helvetica,sans-Serif" font-size="8.00">flow::net_flow::Low</text>
<text text-anchor="middle" x="844.5" y="-219.6" font-family="Helvetica,sans-Serif" font-size="8.00">_lvl_packet</text>
</a>
</g>
</g>
<!-- Node2&#45;&gt;Node1 -->
<g id="edge1" class="edge">
<title>Node2&#45;&gt;Node1</title>
<path fill="none" stroke="midnightblue" d="M861.6,-204.57C888.48,-168.81 941.72,-97.95 963.92,-68.41"/>
<polygon fill="midnightblue" stroke="midnightblue" points="858.58,-202.77 855.37,-212.87 864.18,-206.97 858.58,-202.77"/>
</g>
<!-- Node3 -->
<g id="node3" class="node">
<title>Node3</title>
<g id="a_node3"><a xlink:href="classflow_1_1util_1_1Null__interface.html" target="_top" xlink:title="An empty interface, consisting of nothing but a default virtual destructor, intended as a boiler&#45;plat...">
<polygon fill="white" stroke="black" points="0,-503.5 0,-520.5 114,-520.5 114,-503.5 0,-503.5"/>
<text text-anchor="middle" x="57" y="-510.1" font-family="Helvetica,sans-Serif" font-size="8.00">flow::util::Null_interface</text>
</a>
</g>
</g>
<!-- Node3&#45;&gt;Node2 -->
<g id="edge2" class="edge">
<title>Node3&#45;&gt;Node2</title>
<path fill="none" stroke="midnightblue" d="M124.52,-520.81C264.08,-535.35 590.1,-548.14 779,-383 823.59,-344.02 837.92,-269.46 842.02,-239.23"/>
<polygon fill="midnightblue" stroke="midnightblue" points="124.72,-517.31 114.4,-519.71 123.97,-524.27 124.72,-517.31"/>
</g>
<!-- Node6 -->
<g id="node6" class="node">
<title>Node6</title>
<g id="a_node6"><a xlink:href="classflow_1_1log_1_1Logger.html" target="_top" xlink:title="Interface that the user should implement, passing the implementing Logger into logging classes (Flow&#39;...">
<polygon fill="white" stroke="black" points="274.5,-430.5 274.5,-447.5 360.5,-447.5 360.5,-430.5 274.5,-430.5"/>
<text text-anchor="middle" x="317.5" y="-437.1" font-family="Helvetica,sans-Serif" font-size="8.00">flow::log::Logger</text>
</a>
</g>
</g>
<!-- Node3&#45;&gt;Node6 -->
<g id="edge6" class="edge">
<title>Node3&#45;&gt;Node6</title>
<path fill="none" stroke="midnightblue" d="M114.26,-501.46C152.2,-493.74 203.14,-482.15 247,-468 264.79,-462.26 284.39,-453.88 298.23,-447.61"/>
<polygon fill="midnightblue" stroke="midnightblue" points="113.53,-498.04 104.41,-503.44 114.91,-504.9 113.53,-498.04"/>
</g>
<!-- Node4 -->
<g id="node4" class="node">
<title>Node4</title>
<g id="a_node4"><a xlink:href="classflow_1_1util_1_1Shared__ptr__alias__holder.html" target="_top" xlink:title=" ">
<polygon fill="white" stroke="black" points="495,-372.5 495,-407.5 649,-407.5 649,-372.5 495,-372.5"/>
<text text-anchor="start" x="503" y="-397.1" font-family="Helvetica,sans-Serif" font-size="8.00">flow::util::Shared</text>
<text text-anchor="start" x="503" y="-388.1" font-family="Helvetica,sans-Serif" font-size="8.00">_ptr_alias_holder&lt; boost</text>
<text text-anchor="middle" x="572" y="-379.1" font-family="Helvetica,sans-Serif" font-size="8.00">::shared_ptr&lt; Low_lvl_packet &gt; &gt;</text>
</a>
</g>
</g>
<!-- Node4&#45;&gt;Node2 -->
<g id="edge3" class="edge">
<title>Node4&#45;&gt;Node2</title>
<path fill="none" stroke="midnightblue" d="M659.43,-389.95C699.18,-385.98 744.96,-375.42 779,-350 816.72,-321.83 834.31,-265.14 840.62,-239.34"/>
<polygon fill="midnightblue" stroke="midnightblue" points="659.12,-386.46 649.46,-390.82 659.73,-393.43 659.12,-386.46"/>
</g>
<!-- Node5 -->
<g id="node5" class="node">
<title>Node5</title>
<g id="a_node5"><a xlink:href="classflow_1_1log_1_1Log__context.html" target="_top" xlink:title="Convenience class that simply stores a Logger and/or Component passed into a constructor; and returns...">
<polygon fill="white" stroke="black" points="518.5,-336.5 518.5,-353.5 625.5,-353.5 625.5,-336.5 518.5,-336.5"/>
<text text-anchor="middle" x="572" y="-343.1" font-family="Helvetica,sans-Serif" font-size="8.00">flow::log::Log_context</text>
</a>
</g>
</g>
<!-- Node5&#45;&gt;Node2 -->
<g id="edge4" class="edge">
<title>Node5&#45;&gt;Node2</title>
<path fill="none" stroke="midnightblue" d="M635.65,-351.22C678.9,-352.51 736.13,-348 779,-322 810.93,-302.63 830.51,-260.73 838.83,-239.26"/>
<polygon fill="midnightblue" stroke="midnightblue" points="635.66,-347.72 625.53,-350.81 635.38,-354.72 635.66,-347.72"/>
</g>
<!-- Node6&#45;&gt;Node5 -->
<g id="edge5" class="edge">
<title>Node6&#45;&gt;Node5</title>
<path fill="none" stroke="#9a32cd" stroke-dasharray="5,2" d="M344.89,-425.91C378.91,-409.44 440.23,-381.13 495,-363 505.94,-359.38 518,-356.18 529.22,-353.52"/>
<polygon fill="#9a32cd" stroke="#9a32cd" points="343.1,-422.89 335.65,-430.42 346.17,-429.18 343.1,-422.89"/>
<text text-anchor="middle" x="432.5" y="-407.6" font-family="Helvetica,sans-Serif" font-size="8.00"> m_logger</text>
</g>
<!-- Node7 -->
<g id="node7" class="node">
<title>Node7</title>
<g id="a_node7"><a xlink:href="classflow_1_1util_1_1Unique__id__holder.html" target="_top" xlink:title="Each object of this class stores (at construction) and returns (on demand) a numeric ID unique from a...">
<polygon fill="white" stroke="red" points="13.5,-457 13.5,-483 100.5,-483 100.5,-457 13.5,-457"/>
<text text-anchor="start" x="21.5" y="-472.6" font-family="Helvetica,sans-Serif" font-size="8.00">flow::util::Unique</text>
<text text-anchor="middle" x="57" y="-463.6" font-family="Helvetica,sans-Serif" font-size="8.00">_id_holder</text>
</a>
</g>
</g>
<!-- Node7&#45;&gt;Node6 -->
<g id="edge7" class="edge">
<title>Node7&#45;&gt;Node6</title>
<path fill="none" stroke="midnightblue" d="M110.63,-463.69C158.9,-457.9 229.47,-449.44 274.18,-444.08"/>
<polygon fill="midnightblue" stroke="midnightblue" points="110.2,-460.22 100.69,-464.88 111.03,-467.17 110.2,-460.22"/>
</g>
<!-- Node10 -->
<g id="node8" class="node">
<title>Node10</title>
<g id="a_node8"><a xlink:title=" ">
<polygon fill="white" stroke="#bfbfbf" points="7.5,-296.5 7.5,-313.5 106.5,-313.5 106.5,-296.5 7.5,-296.5"/>
<text text-anchor="middle" x="57" y="-303.1" font-family="Helvetica,sans-Serif" font-size="8.00">boost::noncopyable</text>
</a>
</g>
</g>
<!-- Node10&#45;&gt;Node2 -->
<g id="edge13" class="edge">
<title>Node10&#45;&gt;Node2</title>
<path fill="none" stroke="#8b1a1a" d="M116.96,-305.56C223.42,-306.08 454.72,-305.03 649,-289 707.13,-284.2 724.69,-292.28 779,-271 797.82,-263.63 816.43,-249.74 828.79,-239.33"/>
<polygon fill="#8b1a1a" stroke="#8b1a1a" points="116.77,-302.06 106.75,-305.5 116.73,-309.06 116.77,-302.06"/>
</g>
<!-- Node10&#45;&gt;Node6 -->
<g id="edge8" class="edge">
<title>Node10&#45;&gt;Node6</title>
<path fill="none" stroke="#8b1a1a" d="M109.35,-318.89C111.01,-320.15 112.56,-321.51 114,-323 134.51,-344.27 111.11,-366.1 132,-387 142.5,-397.5 228.06,-418.64 278.9,-430.48"/>
<polygon fill="#8b1a1a" stroke="#8b1a1a" points="110.8,-315.68 100.43,-313.52 107.19,-321.68 110.8,-315.68"/>
</g>
<!-- Node20 -->
<g id="node18" class="node">
<title>Node20</title>
<g id="a_node18"><a xlink:href="structflow_1_1net__flow_1_1Low__lvl__packet_1_1Aux__raw__data.html" target="_top" xlink:title="Helper data store type for storing binary data needed by serialize_to_raw_data(), when certains bits ...">
<polygon fill="white" stroke="black" points="510.5,-19 510.5,-45 633.5,-45 633.5,-19 510.5,-19"/>
<text text-anchor="start" x="518.5" y="-34.6" font-family="Helvetica,sans-Serif" font-size="8.00">flow::net_flow::Low</text>
<text text-anchor="middle" x="572" y="-25.6" font-family="Helvetica,sans-Serif" font-size="8.00">_lvl_packet::Aux_raw_data</text>
</a>
</g>
</g>
<!-- Node10&#45;&gt;Node20 -->
<g id="edge20" class="edge">
<title>Node10&#45;&gt;Node20</title>
<path fill="none" stroke="#8b1a1a" d="M78.15,-290.22C128.47,-253.76 264.47,-158.01 388,-96 431.92,-73.95 485.26,-56.24 523,-45.08"/>
<polygon fill="#8b1a1a" stroke="#8b1a1a" points="75.8,-287.6 69.77,-296.31 79.92,-293.26 75.8,-287.6"/>
</g>
<!-- Node11 -->
<g id="node9" class="node">
<title>Node11</title>
<g id="a_node9"><a xlink:title=" ">
<polygon fill="white" stroke="#bfbfbf" points="10,-412 10,-438 104,-438 104,-412 10,-412"/>
<text text-anchor="start" x="18" y="-427.6" font-family="Helvetica,sans-Serif" font-size="8.00">thread_specific_ptr</text>
<text text-anchor="middle" x="57" y="-418.6" font-family="Helvetica,sans-Serif" font-size="8.00">&lt; std::string &gt;</text>
</a>
</g>
</g>
<!-- Node11&#45;&gt;Node6 -->
<g id="edge9" class="edge">
<title>Node11&#45;&gt;Node6</title>
<path fill="none" stroke="#9a32cd" stroke-dasharray="5,2" d="M114.46,-428.06C162.54,-430.66 230.57,-434.35 274.11,-436.7"/>
<polygon fill="#9a32cd" stroke="#9a32cd" points="114.39,-424.55 104.21,-427.5 114.01,-431.54 114.39,-424.55"/>
<text text-anchor="middle" x="189.5" y="-436.6" font-family="Helvetica,sans-Serif" font-size="8.00"> s_this_thread_nickname_ptr</text>
</g>
<!-- Node12 -->
<g id="node10" class="node">
<title>Node12</title>
<g id="a_node10"><a xlink:href="classflow_1_1log_1_1Component.html" target="_top" xlink:title="A light&#45;weight class, each object storing a component payload encoding an enum value from enum type o...">
<polygon fill="white" stroke="black" points="265,-336.5 265,-353.5 370,-353.5 370,-336.5 265,-336.5"/>
<text text-anchor="middle" x="317.5" y="-343.1" font-family="Helvetica,sans-Serif" font-size="8.00">flow::log::Component</text>
</a>
</g>
</g>
<!-- Node12&#45;&gt;Node5 -->
<g id="edge10" class="edge">
<title>Node12&#45;&gt;Node5</title>
<path fill="none" stroke="#9a32cd" stroke-dasharray="5,2" d="M380.4,-345C422.76,-345 478.3,-345 518.49,-345"/>
<polygon fill="#9a32cd" stroke="#9a32cd" points="380.21,-341.5 370.21,-345 380.21,-348.5 380.21,-341.5"/>
<text text-anchor="middle" x="432.5" y="-347.6" font-family="Helvetica,sans-Serif" font-size="8.00"> m_component</text>
</g>
<!-- Node13 -->
<g id="node11" class="node">
<title>Node13</title>
<g id="a_node11"><a xlink:title=" ">
<polygon fill="white" stroke="#bfbfbf" points="14.5,-373.5 14.5,-390.5 99.5,-390.5 99.5,-373.5 14.5,-373.5"/>
<text text-anchor="middle" x="57" y="-380.1" font-family="Helvetica,sans-Serif" font-size="8.00">type_info const *</text>
</a>
</g>
</g>
<!-- Node13&#45;&gt;Node12 -->
<g id="edge11" class="edge">
<title>Node13&#45;&gt;Node12</title>
<path fill="none" stroke="#9a32cd" stroke-dasharray="5,2" d="M110.15,-377.3C148.21,-373.53 200.98,-367.63 247,-360 257.84,-358.2 269.54,-355.84 280.2,-353.53"/>
<polygon fill="#9a32cd" stroke="#9a32cd" points="109.44,-373.85 99.83,-378.3 110.12,-380.82 109.44,-373.85"/>
<text text-anchor="middle" x="189.5" y="-376.6" font-family="Helvetica,sans-Serif" font-size="8.00"> m_payload_type_or_null</text>
</g>
<!-- Node14 -->
<g id="node12" class="node">
<title>Node14</title>
<g id="a_node12"><a xlink:title=" ">
<polygon fill="white" stroke="#bfbfbf" points="23,-332.5 23,-349.5 91,-349.5 91,-332.5 23,-332.5"/>
<text text-anchor="middle" x="57" y="-339.1" font-family="Helvetica,sans-Serif" font-size="8.00">unsigned int</text>
</a>
</g>
</g>
<!-- Node14&#45;&gt;Node12 -->
<g id="edge12" class="edge">
<title>Node14&#45;&gt;Node12</title>
<path fill="none" stroke="#9a32cd" stroke-dasharray="5,2" d="M101.4,-340.76C139.71,-340.67 197.08,-340.79 247,-342 252.8,-342.14 258.86,-342.33 264.89,-342.55"/>
<polygon fill="#9a32cd" stroke="#9a32cd" points="101.11,-337.26 91.12,-340.8 101.13,-344.26 101.11,-337.26"/>
<text text-anchor="start" x="143" y="-353.6" font-family="Helvetica,sans-Serif" font-size="8.00"> m_payload_enum_raw</text>
<text text-anchor="middle" x="189.5" y="-344.6" font-family="Helvetica,sans-Serif" font-size="8.00">_value</text>
</g>
<!-- Node15 -->
<g id="node13" class="node">
<title>Node15</title>
<g id="a_node13"><a xlink:href="classbool.html" target="_top" xlink:title=" ">
<polygon fill="white" stroke="#bfbfbf" points="554.5,-262.5 554.5,-279.5 589.5,-279.5 589.5,-262.5 554.5,-262.5"/>
<text text-anchor="middle" x="572" y="-269.1" font-family="Helvetica,sans-Serif" font-size="8.00">bool</text>
</a>
</g>
</g>
<!-- Node15&#45;&gt;Node2 -->
<g id="edge14" class="edge">
<title>Node15&#45;&gt;Node2</title>
<path fill="none" stroke="#9a32cd" stroke-dasharray="5,2" d="M599.71,-267.54C639.08,-262.31 714.95,-251.76 779,-240 784.75,-238.94 790.77,-237.75 796.72,-236.52"/>
<polygon fill="#9a32cd" stroke="#9a32cd" points="599.07,-264.09 589.62,-268.87 599.99,-271.03 599.07,-264.09"/>
<text text-anchor="middle" x="723" y="-260.6" font-family="Helvetica,sans-Serif" font-size="8.00"> m_opt_rexmit_on</text>
</g>
<!-- Node16 -->
<g id="node14" class="node">
<title>Node16</title>
<g id="a_node14"><a xlink:title=" ">
<polygon fill="white" stroke="#bfbfbf" points="292.5,-205.5 292.5,-222.5 342.5,-222.5 342.5,-205.5 292.5,-205.5"/>
<text text-anchor="middle" x="317.5" y="-212.1" font-family="Helvetica,sans-Serif" font-size="8.00">uint16_t</text>
</a>
</g>
</g>
<!-- Node16&#45;&gt;Node2 -->
<g id="edge15" class="edge">
<title>Node16&#45;&gt;Node2</title>
<path fill="none" stroke="#9a32cd" stroke-dasharray="5,2" d="M352.86,-214.79C444.17,-216.87 693.02,-222.56 796.93,-224.94"/>
<polygon fill="#9a32cd" stroke="#9a32cd" points="352.85,-211.28 342.77,-214.55 352.69,-218.28 352.85,-211.28"/>
<text text-anchor="middle" x="572" y="-232.6" font-family="Helvetica,sans-Serif" font-size="8.00"> m_dst_port</text>
<text text-anchor="middle" x="572" y="-223.6" font-family="Helvetica,sans-Serif" font-size="8.00">m_src_port</text>
</g>
<!-- Node16&#45;&gt;Node20 -->
<g id="edge22" class="edge">
<title>Node16&#45;&gt;Node20</title>
<path fill="none" stroke="#9a32cd" stroke-dasharray="5,2" d="M344,-200.61C378.3,-181.48 439.31,-143.35 477,-96 489.39,-80.43 480.11,-68.2 495,-55 499.54,-50.98 504.76,-47.65 510.3,-44.92"/>
<polygon fill="#9a32cd" stroke="#9a32cd" points="342.17,-197.62 335.08,-205.49 345.53,-203.76 342.17,-197.62"/>
<text text-anchor="middle" x="432.5" y="-174.6" font-family="Helvetica,sans-Serif" font-size="8.00"> m_reserved2</text>
</g>
<!-- Node17 -->
<g id="node15" class="node">
<title>Node17</title>
<g id="a_node15"><a xlink:title=" ">
<polygon fill="white" stroke="#bfbfbf" points="517.5,-172.5 517.5,-189.5 626.5,-189.5 626.5,-172.5 517.5,-172.5"/>
<text text-anchor="middle" x="572" y="-179.1" font-family="Helvetica,sans-Serif" font-size="8.00">anonymous:m_packed</text>
</a>
</g>
</g>
<!-- Node17&#45;&gt;Node2 -->
<g id="edge16" class="edge">
<title>Node17&#45;&gt;Node2</title>
<path fill="none" stroke="#9a32cd" stroke-dasharray="5,2" d="M637.05,-183.94C678.04,-186.77 732.13,-192.3 779,-203 789.78,-205.46 801.24,-209.17 811.46,-212.89"/>
<polygon fill="#9a32cd" stroke="#9a32cd" points="637.13,-180.44 626.92,-183.27 636.67,-187.42 637.13,-180.44"/>
<text text-anchor="middle" x="723" y="-205.6" font-family="Helvetica,sans-Serif" font-size="8.00"> m_packed</text>
</g>
<!-- Node18 -->
<g id="node16" class="node">
<title>Node18</title>
<g id="a_node16"><a xlink:href="classflow_1_1Function.html" target="_top" xlink:title=" ">
<polygon fill="white" stroke="#bfbfbf" points="503,-127 503,-153 641,-153 641,-127 503,-127"/>
<text text-anchor="start" x="511" y="-142.6" font-family="Helvetica,sans-Serif" font-size="8.00">flow::Function&lt; std</text>
<text text-anchor="middle" x="572" y="-133.6" font-family="Helvetica,sans-Serif" font-size="8.00">::ostream &amp;(std::ostream &amp;)&gt;</text>
</a>
</g>
</g>
<!-- Node18&#45;&gt;Node2 -->
<g id="edge17" class="edge">
<title>Node18&#45;&gt;Node2</title>
<path fill="none" stroke="#9a32cd" stroke-dasharray="5,2" d="M651.47,-132.28C691.49,-131.59 739.85,-135.94 779,-155 805.05,-167.68 825.49,-195.92 835.91,-212.72"/>
<polygon fill="#9a32cd" stroke="#9a32cd" points="651.12,-128.79 641.22,-132.57 651.31,-135.78 651.12,-128.79"/>
<text text-anchor="middle" x="723" y="-175.6" font-family="Helvetica,sans-Serif" font-size="8.00"> m_concise_ostream_manip</text>
<text text-anchor="middle" x="723" y="-166.6" font-family="Helvetica,sans-Serif" font-size="8.00">m_type_ostream_manip</text>
<text text-anchor="middle" x="723" y="-157.6" font-family="Helvetica,sans-Serif" font-size="8.00">m_verbose_ostream_manip</text>
</g>
<!-- Node19 -->
<g id="node17" class="node">
<title>Node19</title>
<g id="a_node17"><a xlink:title=" ">
<polygon fill="white" stroke="#bfbfbf" points="513.5,-64 513.5,-108 630.5,-108 630.5,-64 513.5,-64"/>
<text text-anchor="start" x="521.5" y="-97.6" font-family="Helvetica,sans-Serif" font-size="8.00">unordered_map&lt; std</text>
<text text-anchor="start" x="521.5" y="-88.6" font-family="Helvetica,sans-Serif" font-size="8.00">::type_index, flow::</text>
<text text-anchor="start" x="521.5" y="-79.6" font-family="Helvetica,sans-Serif" font-size="8.00">net_flow::Low_lvl_packet</text>
<text text-anchor="middle" x="572" y="-70.6" font-family="Helvetica,sans-Serif" font-size="8.00">::Packet_type_info &gt;</text>
</a>
</g>
</g>
<!-- Node19&#45;&gt;Node2 -->
<g id="edge18" class="edge">
<title>Node19&#45;&gt;Node2</title>
<path fill="none" stroke="#9a32cd" stroke-dasharray="5,2" d="M640.77,-78.89C683.77,-77.8 738.69,-83.03 779,-110 815.96,-134.73 833.85,-188.1 840.42,-212.88"/>
<polygon fill="#9a32cd" stroke="#9a32cd" points="640.53,-75.4 630.67,-79.27 640.8,-82.4 640.53,-75.4"/>
<text text-anchor="start" x="677.5" y="-121.6" font-family="Helvetica,sans-Serif" font-size="8.00"> S_NATIVE_TYPE_ID_TO</text>
<text text-anchor="middle" x="723" y="-112.6" font-family="Helvetica,sans-Serif" font-size="8.00">_PACKET_TYPE_INFO</text>
</g>
<!-- Node20&#45;&gt;Node2 -->
<g id="edge19" class="edge">
<title>Node20&#45;&gt;Node2</title>
<path fill="none" stroke="#9a32cd" stroke-dasharray="5,2" d="M644.06,-27.13C687.37,-27.87 741.42,-35.89 779,-66 826.21,-103.83 839.08,-181.58 842.4,-212.7"/>
<polygon fill="#9a32cd" stroke="#9a32cd" points="643.88,-23.63 633.87,-27.08 643.85,-30.63 643.88,-23.63"/>
<text text-anchor="middle" x="723" y="-68.6" font-family="Helvetica,sans-Serif" font-size="8.00"> m_aux_raw_data</text>
</g>
<!-- Node21 -->
<g id="node19" class="node">
<title>Node21</title>
<g id="a_node19"><a xlink:title=" ">
<polygon fill="white" stroke="#bfbfbf" points="280,-0.5 280,-17.5 355,-17.5 355,-0.5 280,-0.5"/>
<text text-anchor="middle" x="317.5" y="-7.1" font-family="Helvetica,sans-Serif" font-size="8.00">unsigned char</text>
</a>
</g>
</g>
<!-- Node21&#45;&gt;Node1 -->
<g id="edge23" class="edge">
<title>Node21&#45;&gt;Node1</title>
<path fill="none" stroke="#9a32cd" stroke-dasharray="5,2" d="M365.28,-6.32C448.76,-2.3 628.75,2.97 779,-16 830.89,-22.55 889.66,-35.01 928.99,-44.09"/>
<polygon fill="#9a32cd" stroke="#9a32cd" points="364.92,-2.84 355.11,-6.83 365.27,-9.83 364.92,-2.84"/>
<text text-anchor="middle" x="723" y="-18.6" font-family="Helvetica,sans-Serif" font-size="8.00"> S_RAW_TYPE_ID</text>
</g>
<!-- Node21&#45;&gt;Node20 -->
<g id="edge21" class="edge">
<title>Node21&#45;&gt;Node20</title>
<path fill="none" stroke="#9a32cd" stroke-dasharray="5,2" d="M365.18,-13.25C406.06,-16.98 465.72,-22.41 510.3,-26.47"/>
<polygon fill="#9a32cd" stroke="#9a32cd" points="365.49,-9.77 355.22,-12.34 364.86,-16.74 365.49,-9.77"/>
<text text-anchor="middle" x="432.5" y="-26.6" font-family="Helvetica,sans-Serif" font-size="8.00"> m_opt_rexmit_on_raw</text>
</g>
</g>
</svg>
