<?xml version="1.0" encoding="UTF-8" standalone="no"?>
<!DOCTYPE svg PUBLIC "-//W3C//DTD SVG 1.1//EN"
 "http://www.w3.org/Graphics/SVG/1.1/DTD/svg11.dtd">
<!-- Generated by graphviz version 2.43.0 (0)
 -->
<!-- Title: flow::net_flow::Node_options::opt_id_to_str Pages: 1 -->
<svg width="264pt" height="90pt"
 viewBox="0.00 0.00 264.00 89.50" xmlns="http://www.w3.org/2000/svg" xmlns:xlink="http://www.w3.org/1999/xlink">
<g id="graph0" class="graph" transform="scale(1 1) rotate(0) translate(4 85.5)">
<title>flow::net_flow::Node_options::opt_id_to_str</title>
<polygon fill="white" stroke="transparent" points="-4,4 -4,-85.5 260,-85.5 260,4 -4,4"/>
<!-- Node1 -->
<g id="node1" class="node">
<title>Node1</title>
<g id="a_node1"><a xlink:title="Helper that, for a given option m_blah, takes something like &quot;m_blah_blah&quot; and returns the similar mo...">
<polygon fill="#bfbfbf" stroke="black" points="148,-25.5 148,-51.5 256,-51.5 256,-25.5 148,-25.5"/>
<text text-anchor="start" x="156" y="-41.1" font-family="Helvetica,sans-Serif" font-size="8.00">flow::net_flow::Node</text>
<text text-anchor="middle" x="202" y="-32.1" font-family="Helvetica,sans-Serif" font-size="8.00">_options::opt_id_to_str</text>
</a>
</g>
</g>
<!-- Node2 -->
<g id="node2" class="node">
<title>Node2</title>
<g id="a_node2"><a xlink:href="structflow_1_1net__flow_1_1Node__options.html#aa27ce9852b67581b0171b716289bea60" target="_top" xlink:title="A helper that adds a single option to a given Options_description, for use either in printing out the...">
<polygon fill="white" stroke="black" points="5,-46 5,-81 107,-81 107,-46 5,-46"/>
<text text-anchor="start" x="13" y="-70.6" font-family="Helvetica,sans-Serif" font-size="8.00">flow::net_flow::Node</text>
<text text-anchor="start" x="13" y="-61.6" font-family="Helvetica,sans-Serif" font-size="8.00">_options::add_config</text>
<text text-anchor="middle" x="56" y="-52.6" font-family="Helvetica,sans-Serif" font-size="8.00">_option</text>
</a>
</g>
</g>
<!-- Node1&#45;&gt;Node2 -->
<g id="edge1" class="edge">
<title>Node1&#45;&gt;Node2</title>
<path fill="none" stroke="midnightblue" d="M137.67,-49.49C127.45,-51.27 116.98,-53.09 107.13,-54.8"/>
<polygon fill="midnightblue" stroke="midnightblue" points="138.53,-52.9 147.79,-47.74 137.34,-46 138.53,-52.9"/>
</g>
<!-- Node3 -->
<g id="node3" class="node">
<title>Node3</title>
<g id="a_node3"><a xlink:href="classflow_1_1net__flow_1_1Node.html#a8aa99dc4800a49b7b958b585717eb50b" target="_top" xlink:title="Helper that compares new_val to old_val and, if they are not equal, logs and returns an error; used t...">
<polygon fill="white" stroke="black" points="0,-0.5 0,-26.5 112,-26.5 112,-0.5 0,-0.5"/>
<text text-anchor="start" x="8" y="-16.1" font-family="Helvetica,sans-Serif" font-size="8.00">flow::net_flow::Node</text>
<text text-anchor="middle" x="56" y="-7.1" font-family="Helvetica,sans-Serif" font-size="8.00">::validate_static_option</text>
</a>
</g>
</g>
<!-- Node1&#45;&gt;Node3 -->
<g id="edge2" class="edge">
<title>Node1&#45;&gt;Node3</title>
<path fill="none" stroke="midnightblue" d="M137.92,-27.55C129.42,-26.07 120.76,-24.57 112.4,-23.12"/>
<polygon fill="midnightblue" stroke="midnightblue" points="137.34,-31 147.79,-29.26 138.53,-24.1 137.34,-31"/>
</g>
</g>
</svg>
