<?xml version="1.0" encoding="UTF-8" standalone="no"?>
<!DOCTYPE svg PUBLIC "-//W3C//DTD SVG 1.1//EN"
 "http://www.w3.org/Graphics/SVG/1.1/DTD/svg11.dtd">
<!-- Generated by graphviz version 2.43.0 (0)
 -->
<!-- Title: flow::net_flow::Node_options::setup_config_parsing Pages: 1 -->
<svg width="572pt" height="44pt"
 viewBox="0.00 0.00 572.00 44.00" xmlns="http://www.w3.org/2000/svg" xmlns:xlink="http://www.w3.org/1999/xlink">
<g id="graph0" class="graph" transform="scale(1 1) rotate(0) translate(4 40)">
<title>flow::net_flow::Node_options::setup_config_parsing</title>
<polygon fill="white" stroke="transparent" points="-4,4 -4,-40 568,-40 568,4 -4,4"/>
<!-- Node1 -->
<g id="node1" class="node">
<title>Node1</title>
<g id="a_node1"><a xlink:title="Modifies a boost.program_options options description object to enable subsequent parsing of a command...">
<polygon fill="#bfbfbf" stroke="black" points="0,-0.5 0,-35.5 110,-35.5 110,-0.5 0,-0.5"/>
<text text-anchor="start" x="8" y="-25.1" font-family="Helvetica,sans-Serif" font-size="8.00">flow::net_flow::Node</text>
<text text-anchor="start" x="8" y="-16.1" font-family="Helvetica,sans-Serif" font-size="8.00">_options::setup_config</text>
<text text-anchor="middle" x="55" y="-7.1" font-family="Helvetica,sans-Serif" font-size="8.00">_parsing</text>
</a>
</g>
</g>
<!-- Node2 -->
<g id="node2" class="node">
<title>Node2</title>
<g id="a_node2"><a xlink:href="structflow_1_1net__flow_1_1Node__options.html#a07d18f7e934d079835f5367fbf7d6d1b" target="_top" xlink:title="Loads the full set of boost.program_options config options into the given Options_description,...">
<polygon fill="white" stroke="black" points="146,-0.5 146,-35.5 256,-35.5 256,-0.5 146,-0.5"/>
<text text-anchor="start" x="154" y="-25.1" font-family="Helvetica,sans-Serif" font-size="8.00">flow::net_flow::Node</text>
<text text-anchor="start" x="154" y="-16.1" font-family="Helvetica,sans-Serif" font-size="8.00">_options::setup_config</text>
<text text-anchor="middle" x="201" y="-7.1" font-family="Helvetica,sans-Serif" font-size="8.00">_parsing_helper</text>
</a>
</g>
</g>
<!-- Node1&#45;&gt;Node2 -->
<g id="edge1" class="edge">
<title>Node1&#45;&gt;Node2</title>
<path fill="none" stroke="midnightblue" d="M110.03,-18C118.31,-18 126.94,-18 135.42,-18"/>
<polygon fill="midnightblue" stroke="midnightblue" points="135.67,-21.5 145.67,-18 135.67,-14.5 135.67,-21.5"/>
</g>
<!-- Node3 -->
<g id="node3" class="node">
<title>Node3</title>
<g id="a_node3"><a xlink:href="structflow_1_1net__flow_1_1Peer__socket__options.html#ad0015d953f3079a326ba6dce5d0bff89" target="_top" xlink:title="Analogous to Node_options::setup_config_parsing_helper().">
<polygon fill="white" stroke="black" points="292,-0.5 292,-35.5 403,-35.5 403,-0.5 292,-0.5"/>
<text text-anchor="start" x="300" y="-25.1" font-family="Helvetica,sans-Serif" font-size="8.00">flow::net_flow::Peer</text>
<text text-anchor="start" x="300" y="-16.1" font-family="Helvetica,sans-Serif" font-size="8.00">_socket_options::setup</text>
<text text-anchor="middle" x="347.5" y="-7.1" font-family="Helvetica,sans-Serif" font-size="8.00">_config_parsing_helper</text>
</a>
</g>
</g>
<!-- Node2&#45;&gt;Node3 -->
<g id="edge2" class="edge">
<title>Node2&#45;&gt;Node3</title>
<path fill="none" stroke="midnightblue" d="M256.22,-18C264.62,-18 273.37,-18 281.98,-18"/>
<polygon fill="midnightblue" stroke="midnightblue" points="281.98,-21.5 291.98,-18 281.98,-14.5 281.98,-21.5"/>
</g>
<!-- Node4 -->
<g id="node4" class="node">
<title>Node4</title>
<g id="a_node4"><a xlink:href="classflow_1_1net__flow_1_1Congestion__control__selector.html#aca9ae5272088f3ef8fb81f40cc85224c" target="_top" xlink:title="Returns a list of strings, called IDs, each of which textually represents a distinct Congestion_contr...">
<polygon fill="white" stroke="black" points="439,-5 439,-31 564,-31 564,-5 439,-5"/>
<text text-anchor="start" x="447" y="-20.6" font-family="Helvetica,sans-Serif" font-size="8.00">flow::net_flow::Congestion</text>
<text text-anchor="middle" x="501.5" y="-11.6" font-family="Helvetica,sans-Serif" font-size="8.00">_control_selector::get_ids</text>
</a>
</g>
</g>
<!-- Node3&#45;&gt;Node4 -->
<g id="edge3" class="edge">
<title>Node3&#45;&gt;Node4</title>
<path fill="none" stroke="midnightblue" d="M403.38,-18C411.54,-18 420.05,-18 428.5,-18"/>
<polygon fill="midnightblue" stroke="midnightblue" points="428.74,-21.5 438.74,-18 428.74,-14.5 428.74,-21.5"/>
</g>
</g>
</svg>
