<?xml version="1.0" encoding="UTF-8" standalone="no"?>
<!DOCTYPE svg PUBLIC "-//W3C//DTD SVG 1.1//EN"
 "http://www.w3.org/Graphics/SVG/1.1/DTD/svg11.dtd">
<!-- Generated by graphviz version 2.43.0 (0)
 -->
<!-- Title: flow::net_flow::Peer_socket_receive_stats Pages: 1 -->
<svg width="113pt" height="107pt"
 viewBox="0.00 0.00 113.00 107.00" xmlns="http://www.w3.org/2000/svg" xmlns:xlink="http://www.w3.org/1999/xlink">
<g id="graph0" class="graph" transform="scale(1 1) rotate(0) translate(4 103)">
<title>flow::net_flow::Peer_socket_receive_stats</title>
<polygon fill="white" stroke="transparent" points="-4,4 -4,-103 109,-103 109,4 -4,4"/>
<!-- Node1 -->
<g id="node1" class="node">
<title>Node1</title>
<g id="a_node1"><a xlink:title="A data store that keeps stats about the incoming direction of a Peer_socket connection to another Flo...">
<polygon fill="#bfbfbf" stroke="black" points="0,-72.5 0,-98.5 105,-98.5 105,-72.5 0,-72.5"/>
<text text-anchor="start" x="8" y="-88.1" font-family="Helvetica,sans-Serif" font-size="8.00">flow::net_flow::Peer</text>
<text text-anchor="middle" x="52.5" y="-79.1" font-family="Helvetica,sans-Serif" font-size="8.00">_socket_receive_stats</text>
</a>
</g>
</g>
<!-- Node2 -->
<g id="node2" class="node">
<title>Node2</title>
<g id="a_node2"><a xlink:href="classflow_1_1net__flow_1_1Peer__socket__receive__stats__accumulator.html" target="_top" xlink:title="A class that keeps a Peer_socket_receive_stats data store, includes methods to conveniently accumulat...">
<polygon fill="white" stroke="black" points="0,-0.5 0,-35.5 105,-35.5 105,-0.5 0,-0.5"/>
<text text-anchor="start" x="8" y="-25.1" font-family="Helvetica,sans-Serif" font-size="8.00">flow::net_flow::Peer</text>
<text text-anchor="start" x="8" y="-16.1" font-family="Helvetica,sans-Serif" font-size="8.00">_socket_receive_stats</text>
<text text-anchor="middle" x="52.5" y="-7.1" font-family="Helvetica,sans-Serif" font-size="8.00">_accumulator</text>
</a>
</g>
</g>
<!-- Node1&#45;&gt;Node2 -->
<g id="edge1" class="edge">
<title>Node1&#45;&gt;Node2</title>
<path fill="none" stroke="#8b1a1a" d="M52.5,-62.25C52.5,-53.53 52.5,-43.71 52.5,-35.62"/>
<polygon fill="#8b1a1a" stroke="#8b1a1a" points="49,-62.49 52.5,-72.49 56,-62.49 49,-62.49"/>
</g>
</g>
</svg>
