<?xml version="1.0" encoding="UTF-8" standalone="no"?>
<!DOCTYPE svg PUBLIC "-//W3C//DTD SVG 1.1//EN"
 "http://www.w3.org/Graphics/SVG/1.1/DTD/svg11.dtd">
<!-- Generated by graphviz version 2.43.0 (0)
 -->
<!-- Title: flow::cfg::Option_set&lt; Value_set &gt;::Declare_options_func_args Pages: 1 -->
<svg width="1161pt" height="783pt"
 viewBox="0.00 0.00 1161.00 782.78" xmlns="http://www.w3.org/2000/svg" xmlns:xlink="http://www.w3.org/1999/xlink">
<g id="graph0" class="graph" transform="scale(1 1) rotate(0) translate(4 778.78)">
<title>flow::cfg::Option_set&lt; Value_set &gt;::Declare_options_func_args</title>
<polygon fill="white" stroke="transparent" points="-4,4 -4,-778.78 1157,-778.78 1157,4 -4,4"/>
<!-- Node1 -->
<g id="node1" class="node">
<title>Node1</title>
<g id="a_node1"><a xlink:title="Internal&#45;use structure to use with Declare_options_func callback.">
<polygon fill="#bfbfbf" stroke="black" points="1042,-209.28 1042,-244.28 1153,-244.28 1153,-209.28 1042,-209.28"/>
<text text-anchor="start" x="1050" y="-233.88" font-family="Helvetica,sans-Serif" font-size="8.00">flow::cfg::Option_set</text>
<text text-anchor="start" x="1050" y="-224.88" font-family="Helvetica,sans-Serif" font-size="8.00">&lt; Value_set &gt;::Declare</text>
<text text-anchor="middle" x="1097.5" y="-215.88" font-family="Helvetica,sans-Serif" font-size="8.00">_options_func_args</text>
</a>
</g>
</g>
<!-- Node2 -->
<g id="node2" class="node">
<title>Node2</title>
<g id="a_node2"><a xlink:title=" ">
<polygon fill="white" stroke="#bfbfbf" points="763.5,-558.78 763.5,-584.78 867.5,-584.78 867.5,-558.78 763.5,-558.78"/>
<text text-anchor="start" x="771.5" y="-574.38" font-family="Helvetica,sans-Serif" font-size="8.00">Declare_options_func</text>
<text text-anchor="middle" x="815.5" y="-565.38" font-family="Helvetica,sans-Serif" font-size="8.00">_call_type</text>
</a>
</g>
</g>
<!-- Node2&#45;&gt;Node1 -->
<g id="edge1" class="edge">
<title>Node2&#45;&gt;Node1</title>
<path fill="none" stroke="#9a32cd" stroke-dasharray="5,2" d="M877.57,-563.28C924.2,-553.6 986.6,-533.21 1024,-490.78 1088.9,-417.15 1096.27,-290.53 1096.7,-244.32"/>
<polygon fill="#9a32cd" stroke="#9a32cd" points="876.72,-559.88 867.58,-565.24 878.07,-566.75 876.72,-559.88"/>
<text text-anchor="middle" x="962" y="-559.38" font-family="Helvetica,sans-Serif" font-size="8.00"> m_call_type</text>
</g>
<!-- Node3 -->
<g id="node3" class="node">
<title>Node3</title>
<g id="a_node3"><a xlink:href="classflow_1_1cfg_1_1Option__set.html" target="_top" xlink:title="The core config&#45;parsing facility, which builds parsing/comparison/output capabilities on top of a giv...">
<polygon fill="white" stroke="black" points="765,-513.78 765,-539.78 866,-539.78 866,-513.78 765,-513.78"/>
<text text-anchor="start" x="773" y="-529.38" font-family="Helvetica,sans-Serif" font-size="8.00">flow::cfg::Option_set</text>
<text text-anchor="middle" x="815.5" y="-520.38" font-family="Helvetica,sans-Serif" font-size="8.00">&lt; Value_set &gt;</text>
</a>
</g>
</g>
<!-- Node3&#45;&gt;Node1 -->
<g id="edge2" class="edge">
<title>Node3&#45;&gt;Node1</title>
<path fill="none" stroke="#9a32cd" stroke-dasharray="5,2" d="M851.35,-508.77C896.21,-484.12 974.29,-436.1 1024,-376.78 1058.74,-335.33 1081.41,-274.4 1091.11,-244.56"/>
<polygon fill="#9a32cd" stroke="#9a32cd" points="849.43,-505.83 842.3,-513.67 852.76,-511.98 849.43,-505.83"/>
<text text-anchor="middle" x="962" y="-480.38" font-family="Helvetica,sans-Serif" font-size="8.00"> m_option_set</text>
</g>
<!-- Node4 -->
<g id="node4" class="node">
<title>Node4</title>
<g id="a_node4"><a xlink:href="classflow_1_1cfg_1_1Option__set__base.html" target="_top" xlink:title="Un&#45;templated base for Option_set.">
<polygon fill="white" stroke="black" points="467,-691.28 467,-708.28 592,-708.28 592,-691.28 467,-691.28"/>
<text text-anchor="middle" x="529.5" y="-697.88" font-family="Helvetica,sans-Serif" font-size="8.00">flow::cfg::Option_set_base</text>
</a>
</g>
</g>
<!-- Node4&#45;&gt;Node3 -->
<g id="edge3" class="edge">
<title>Node4&#45;&gt;Node3</title>
<path fill="none" stroke="midnightblue" d="M594.22,-709.04C638.56,-711.64 695.82,-706.69 731,-671.78 769.91,-633.17 714.12,-592.06 749,-549.78 753.3,-544.57 758.85,-540.55 764.9,-537.43"/>
<polygon fill="midnightblue" stroke="midnightblue" points="594.34,-705.54 584.11,-708.3 593.83,-712.52 594.34,-705.54"/>
</g>
<!-- Node5 -->
<g id="node5" class="node">
<title>Node5</title>
<g id="a_node5"><a xlink:href="classflow_1_1log_1_1Log__context.html" target="_top" xlink:title="Convenience class that simply stores a Logger and/or Component passed into a constructor; and returns...">
<polygon fill="white" stroke="black" points="476,-655.28 476,-672.28 583,-672.28 583,-655.28 476,-655.28"/>
<text text-anchor="middle" x="529.5" y="-661.88" font-family="Helvetica,sans-Serif" font-size="8.00">flow::log::Log_context</text>
</a>
</g>
</g>
<!-- Node5&#45;&gt;Node3 -->
<g id="edge4" class="edge">
<title>Node5&#45;&gt;Node3</title>
<path fill="none" stroke="midnightblue" d="M585.02,-673.51C629.92,-678.19 692.29,-676.48 731,-640.78 761.31,-612.83 722,-580.93 749,-549.78 753.34,-544.77 758.84,-540.85 764.8,-537.79"/>
<polygon fill="midnightblue" stroke="midnightblue" points="585.21,-670.01 574.87,-672.32 584.39,-676.96 585.21,-670.01"/>
</g>
<!-- Node6 -->
<g id="node6" class="node">
<title>Node6</title>
<g id="a_node6"><a xlink:href="classflow_1_1log_1_1Logger.html" target="_top" xlink:title="Interface that the user should implement, passing the implementing Logger into logging classes (Flow&#39;...">
<polygon fill="white" stroke="black" points="274.5,-676.28 274.5,-693.28 360.5,-693.28 360.5,-676.28 274.5,-676.28"/>
<text text-anchor="middle" x="317.5" y="-682.88" font-family="Helvetica,sans-Serif" font-size="8.00">flow::log::Logger</text>
</a>
</g>
</g>
<!-- Node6&#45;&gt;Node5 -->
<g id="edge5" class="edge">
<title>Node6&#45;&gt;Node5</title>
<path fill="none" stroke="#9a32cd" stroke-dasharray="5,2" d="M370.82,-679.55C402.88,-676.34 443.78,-672.25 475.89,-669.04"/>
<polygon fill="#9a32cd" stroke="#9a32cd" points="370.35,-676.08 360.74,-680.56 371.04,-683.04 370.35,-676.08"/>
<text text-anchor="middle" x="418.5" y="-679.38" font-family="Helvetica,sans-Serif" font-size="8.00"> m_logger</text>
</g>
<!-- Node7 -->
<g id="node7" class="node">
<title>Node7</title>
<g id="a_node7"><a xlink:href="classflow_1_1util_1_1Null__interface.html" target="_top" xlink:title="An empty interface, consisting of nothing but a default virtual destructor, intended as a boiler&#45;plat...">
<polygon fill="white" stroke="black" points="0,-757.28 0,-774.28 114,-774.28 114,-757.28 0,-757.28"/>
<text text-anchor="middle" x="57" y="-763.88" font-family="Helvetica,sans-Serif" font-size="8.00">flow::util::Null_interface</text>
</a>
</g>
</g>
<!-- Node7&#45;&gt;Node6 -->
<g id="edge6" class="edge">
<title>Node7&#45;&gt;Node6</title>
<path fill="none" stroke="midnightblue" d="M111.42,-755.13C149.73,-746.79 202.27,-733.91 247,-717.78 266.1,-710.9 287.02,-700.55 300.87,-693.29"/>
<polygon fill="midnightblue" stroke="midnightblue" points="110.55,-751.73 101.5,-757.25 112.01,-758.58 110.55,-751.73"/>
</g>
<!-- Node8 -->
<g id="node8" class="node">
<title>Node8</title>
<g id="a_node8"><a xlink:href="classflow_1_1util_1_1Unique__id__holder.html" target="_top" xlink:title="Each object of this class stores (at construction) and returns (on demand) a numeric ID unique from a...">
<polygon fill="white" stroke="red" points="13.5,-711.78 13.5,-737.78 100.5,-737.78 100.5,-711.78 13.5,-711.78"/>
<text text-anchor="start" x="21.5" y="-727.38" font-family="Helvetica,sans-Serif" font-size="8.00">flow::util::Unique</text>
<text text-anchor="middle" x="57" y="-718.38" font-family="Helvetica,sans-Serif" font-size="8.00">_id_holder</text>
</a>
</g>
</g>
<!-- Node8&#45;&gt;Node6 -->
<g id="edge7" class="edge">
<title>Node8&#45;&gt;Node6</title>
<path fill="none" stroke="midnightblue" d="M111.08,-716.7C148.97,-710.92 201.13,-702.93 247,-695.78 255.81,-694.41 265.25,-692.92 274.24,-691.5"/>
<polygon fill="midnightblue" stroke="midnightblue" points="110.15,-713.31 100.79,-718.27 111.21,-720.23 110.15,-713.31"/>
</g>
<!-- Node11 -->
<g id="node9" class="node">
<title>Node11</title>
<g id="a_node9"><a xlink:title=" ">
<polygon fill="white" stroke="#bfbfbf" points="7.5,-622.28 7.5,-639.28 106.5,-639.28 106.5,-622.28 7.5,-622.28"/>
<text text-anchor="middle" x="57" y="-628.88" font-family="Helvetica,sans-Serif" font-size="8.00">boost::noncopyable</text>
</a>
</g>
</g>
<!-- Node11&#45;&gt;Node3 -->
<g id="edge13" class="edge">
<title>Node11&#45;&gt;Node3</title>
<path fill="none" stroke="#8b1a1a" d="M117.09,-632.6C261.66,-636.01 628.86,-638.11 731,-575.78 743,-568.46 737.82,-558.3 749,-549.78 754.08,-545.91 759.86,-542.65 765.84,-539.93"/>
<polygon fill="#8b1a1a" stroke="#8b1a1a" points="116.74,-629.09 106.66,-632.34 116.57,-636.09 116.74,-629.09"/>
</g>
<!-- Node11&#45;&gt;Node6 -->
<g id="edge8" class="edge">
<title>Node11&#45;&gt;Node6</title>
<path fill="none" stroke="#8b1a1a" d="M109,-641.44C157.86,-651.64 230.62,-666.84 275.73,-676.26"/>
<polygon fill="#8b1a1a" stroke="#8b1a1a" points="109.46,-637.96 98.96,-639.34 108.03,-644.81 109.46,-637.96"/>
</g>
<!-- Node12 -->
<g id="node10" class="node">
<title>Node12</title>
<g id="a_node10"><a xlink:title=" ">
<polygon fill="white" stroke="#bfbfbf" points="10,-666.78 10,-692.78 104,-692.78 104,-666.78 10,-666.78"/>
<text text-anchor="start" x="18" y="-682.38" font-family="Helvetica,sans-Serif" font-size="8.00">thread_specific_ptr</text>
<text text-anchor="middle" x="57" y="-673.38" font-family="Helvetica,sans-Serif" font-size="8.00">&lt; std::string &gt;</text>
</a>
</g>
</g>
<!-- Node12&#45;&gt;Node6 -->
<g id="edge9" class="edge">
<title>Node12&#45;&gt;Node6</title>
<path fill="none" stroke="#9a32cd" stroke-dasharray="5,2" d="M114.46,-680.87C162.54,-681.8 230.57,-683.12 274.11,-683.96"/>
<polygon fill="#9a32cd" stroke="#9a32cd" points="114.28,-677.37 104.21,-680.67 114.15,-684.37 114.28,-677.37"/>
<text text-anchor="middle" x="189.5" y="-685.38" font-family="Helvetica,sans-Serif" font-size="8.00"> s_this_thread_nickname_ptr</text>
</g>
<!-- Node13 -->
<g id="node11" class="node">
<title>Node13</title>
<g id="a_node11"><a xlink:href="classflow_1_1log_1_1Component.html" target="_top" xlink:title="A light&#45;weight class, each object storing a component payload encoding an enum value from enum type o...">
<polygon fill="white" stroke="black" points="265,-581.28 265,-598.28 370,-598.28 370,-581.28 265,-581.28"/>
<text text-anchor="middle" x="317.5" y="-587.88" font-family="Helvetica,sans-Serif" font-size="8.00">flow::log::Component</text>
</a>
</g>
</g>
<!-- Node13&#45;&gt;Node5 -->
<g id="edge10" class="edge">
<title>Node13&#45;&gt;Node5</title>
<path fill="none" stroke="#9a32cd" stroke-dasharray="5,2" d="M352.64,-601.81C395.17,-616.8 466.79,-642.04 504.16,-655.2"/>
<polygon fill="#9a32cd" stroke="#9a32cd" points="353.6,-598.44 343,-598.41 351.27,-605.04 353.6,-598.44"/>
<text text-anchor="middle" x="418.5" y="-637.38" font-family="Helvetica,sans-Serif" font-size="8.00"> m_component</text>
</g>
<!-- Node14 -->
<g id="node12" class="node">
<title>Node14</title>
<g id="a_node12"><a xlink:title=" ">
<polygon fill="white" stroke="#bfbfbf" points="14.5,-586.28 14.5,-603.28 99.5,-603.28 99.5,-586.28 14.5,-586.28"/>
<text text-anchor="middle" x="57" y="-592.88" font-family="Helvetica,sans-Serif" font-size="8.00">type_info const *</text>
</a>
</g>
</g>
<!-- Node14&#45;&gt;Node13 -->
<g id="edge11" class="edge">
<title>Node14&#45;&gt;Node13</title>
<path fill="none" stroke="#9a32cd" stroke-dasharray="5,2" d="M109.68,-593.78C154.74,-592.91 219.76,-591.65 264.82,-590.78"/>
<polygon fill="#9a32cd" stroke="#9a32cd" points="109.46,-590.28 99.53,-593.98 109.6,-597.28 109.46,-590.28"/>
<text text-anchor="middle" x="189.5" y="-595.38" font-family="Helvetica,sans-Serif" font-size="8.00"> m_payload_type_or_null</text>
</g>
<!-- Node15 -->
<g id="node13" class="node">
<title>Node15</title>
<g id="a_node13"><a xlink:title=" ">
<polygon fill="white" stroke="#bfbfbf" points="23,-545.28 23,-562.28 91,-562.28 91,-545.28 23,-545.28"/>
<text text-anchor="middle" x="57" y="-551.88" font-family="Helvetica,sans-Serif" font-size="8.00">unsigned int</text>
</a>
</g>
</g>
<!-- Node15&#45;&gt;Node13 -->
<g id="edge12" class="edge">
<title>Node15&#45;&gt;Node13</title>
<path fill="none" stroke="#9a32cd" stroke-dasharray="5,2" d="M101.4,-554.59C139.93,-555.93 197.62,-559.47 247,-568.78 262.48,-571.7 279.42,-576.77 292.69,-581.2"/>
<polygon fill="#9a32cd" stroke="#9a32cd" points="101.16,-551.08 91.06,-554.27 100.95,-558.08 101.16,-551.08"/>
<text text-anchor="start" x="143" y="-580.38" font-family="Helvetica,sans-Serif" font-size="8.00"> m_payload_enum_raw</text>
<text text-anchor="middle" x="189.5" y="-571.38" font-family="Helvetica,sans-Serif" font-size="8.00">_value</text>
</g>
<!-- Node16 -->
<g id="node14" class="node">
<title>Node16</title>
<g id="a_node14"><a xlink:title=" ">
<polygon fill="white" stroke="black" points="288,-467.28 288,-484.28 347,-484.28 347,-467.28 288,-467.28"/>
<text text-anchor="middle" x="317.5" y="-473.88" font-family="Helvetica,sans-Serif" font-size="8.00">std::string</text>
</a>
</g>
</g>
<!-- Node16&#45;&gt;Node3 -->
<g id="edge14" class="edge">
<title>Node16&#45;&gt;Node3</title>
<path fill="none" stroke="#9a32cd" stroke-dasharray="5,2" d="M336.81,-490.93C363.47,-511.91 415.44,-548.79 467,-562.78 478.67,-565.95 730.8,-560.84 731,-560.78 740.01,-558.18 740.53,-553.8 749,-549.78 756.62,-546.16 764.97,-542.8 773.08,-539.83"/>
<polygon fill="#9a32cd" stroke="#9a32cd" points="338.76,-488.01 328.77,-484.48 334.38,-493.47 338.76,-488.01"/>
<text text-anchor="middle" x="529.5" y="-566.38" font-family="Helvetica,sans-Serif" font-size="8.00"> m_nickname</text>
</g>
<!-- Node22 -->
<g id="node20" class="node">
<title>Node22</title>
<g id="a_node20"><a xlink:title=" ">
<polygon fill="white" stroke="black" points="476,-390.78 476,-416.78 583,-416.78 583,-390.78 476,-390.78"/>
<text text-anchor="start" x="484" y="-406.38" font-family="Helvetica,sans-Serif" font-size="8.00">std::map&lt; std::string,</text>
<text text-anchor="middle" x="529.5" y="-397.38" font-family="Helvetica,sans-Serif" font-size="8.00"> boost::any &gt;</text>
</a>
</g>
</g>
<!-- Node16&#45;&gt;Node22 -->
<g id="edge21" class="edge">
<title>Node16&#45;&gt;Node22</title>
<path fill="none" stroke="#9a32cd" stroke-dasharray="5,2" d="M352.98,-463.96C390.8,-450.99 451.32,-430.24 490.48,-416.81"/>
<polygon fill="#9a32cd" stroke="#9a32cd" points="351.74,-460.68 343.41,-467.24 354.01,-467.31 351.74,-460.68"/>
<text text-anchor="middle" x="418.5" y="-452.38" font-family="Helvetica,sans-Serif" font-size="8.00"> keys</text>
</g>
<!-- Node17 -->
<g id="node15" class="node">
<title>Node17</title>
<g id="a_node15"><a xlink:title=" ">
<polygon fill="white" stroke="black" points="11.5,-462.78 11.5,-488.78 102.5,-488.78 102.5,-462.78 11.5,-462.78"/>
<text text-anchor="start" x="19.5" y="-478.38" font-family="Helvetica,sans-Serif" font-size="8.00">std::basic_string&lt;</text>
<text text-anchor="middle" x="57" y="-469.38" font-family="Helvetica,sans-Serif" font-size="8.00"> Char &gt;</text>
</a>
</g>
</g>
<!-- Node17&#45;&gt;Node16 -->
<g id="edge15" class="edge">
<title>Node17&#45;&gt;Node16</title>
<path fill="none" stroke="midnightblue" d="M112.75,-475.78C166.31,-475.78 245.79,-475.78 287.9,-475.78"/>
<polygon fill="midnightblue" stroke="midnightblue" points="112.73,-472.28 102.73,-475.78 112.73,-479.28 112.73,-472.28"/>
</g>
<!-- Node18 -->
<g id="node16" class="node">
<title>Node18</title>
<g id="a_node16"><a xlink:href="classbool.html" target="_top" xlink:title=" ">
<polygon fill="white" stroke="#bfbfbf" points="512,-536.28 512,-553.28 547,-553.28 547,-536.28 512,-536.28"/>
<text text-anchor="middle" x="529.5" y="-542.88" font-family="Helvetica,sans-Serif" font-size="8.00">bool</text>
</a>
</g>
</g>
<!-- Node18&#45;&gt;Node3 -->
<g id="edge16" class="edge">
<title>Node18&#45;&gt;Node3</title>
<path fill="none" stroke="#9a32cd" stroke-dasharray="5,2" d="M557.56,-543.07C605.18,-540.05 704.62,-533.75 764.87,-529.93"/>
<polygon fill="#9a32cd" stroke="#9a32cd" points="557.17,-539.58 547.41,-543.71 557.62,-546.57 557.17,-539.58"/>
<text text-anchor="middle" x="670.5" y="-550.38" font-family="Helvetica,sans-Serif" font-size="8.00"> m_null</text>
<text text-anchor="middle" x="670.5" y="-541.38" font-family="Helvetica,sans-Serif" font-size="8.00">m_parsing</text>
</g>
<!-- Node19 -->
<g id="node17" class="node">
<title>Node19</title>
<g id="a_node17"><a xlink:title=" ">
<polygon fill="white" stroke="#bfbfbf" points="480.5,-490.78 480.5,-516.78 578.5,-516.78 578.5,-490.78 480.5,-490.78"/>
<text text-anchor="start" x="488.5" y="-506.38" font-family="Helvetica,sans-Serif" font-size="8.00">unordered_set&lt; std</text>
<text text-anchor="middle" x="529.5" y="-497.38" font-family="Helvetica,sans-Serif" font-size="8.00">::string &gt;</text>
</a>
</g>
</g>
<!-- Node19&#45;&gt;Node3 -->
<g id="edge17" class="edge">
<title>Node19&#45;&gt;Node3</title>
<path fill="none" stroke="#9a32cd" stroke-dasharray="5,2" d="M588.84,-507.82C628.86,-510.68 683.17,-514.7 731,-518.78 741.88,-519.71 753.56,-520.78 764.62,-521.83"/>
<polygon fill="#9a32cd" stroke="#9a32cd" points="588.96,-504.32 578.73,-507.11 588.46,-511.31 588.96,-504.32"/>
<text text-anchor="middle" x="670.5" y="-521.38" font-family="Helvetica,sans-Serif" font-size="8.00"> m_opt_names</text>
</g>
<!-- Node20 -->
<g id="node18" class="node">
<title>Node20</title>
<g id="a_node18"><a xlink:href="classflow_1_1Function.html" target="_top" xlink:title=" ">
<polygon fill="white" stroke="#bfbfbf" points="474.5,-436.28 474.5,-471.28 584.5,-471.28 584.5,-436.28 474.5,-436.28"/>
<text text-anchor="start" x="482.5" y="-460.88" font-family="Helvetica,sans-Serif" font-size="8.00">flow::Function&lt; void</text>
<text text-anchor="start" x="482.5" y="-451.88" font-family="Helvetica,sans-Serif" font-size="8.00">(const Declare_options</text>
<text text-anchor="middle" x="529.5" y="-442.88" font-family="Helvetica,sans-Serif" font-size="8.00">_func_args &amp;args)&gt;</text>
</a>
</g>
</g>
<!-- Node20&#45;&gt;Node3 -->
<g id="edge18" class="edge">
<title>Node20&#45;&gt;Node3</title>
<path fill="none" stroke="#9a32cd" stroke-dasharray="5,2" d="M594.71,-464.71C634.35,-472.08 686.05,-482.81 731,-495.78 748.38,-500.8 767.32,-507.7 782.76,-513.72"/>
<polygon fill="#9a32cd" stroke="#9a32cd" points="595.11,-461.22 584.65,-462.86 593.85,-468.11 595.11,-461.22"/>
<text text-anchor="middle" x="670.5" y="-498.38" font-family="Helvetica,sans-Serif" font-size="8.00"> m_declare_opts_func</text>
</g>
<!-- Node21 -->
<g id="node19" class="node">
<title>Node21</title>
<g id="a_node19"><a xlink:title=" ">
<polygon fill="white" stroke="#bfbfbf" points="501.5,-354.28 501.5,-371.28 557.5,-371.28 557.5,-354.28 501.5,-354.28"/>
<text text-anchor="middle" x="529.5" y="-360.88" font-family="Helvetica,sans-Serif" font-size="8.00">Value_set</text>
</a>
</g>
</g>
<!-- Node21&#45;&gt;Node1 -->
<g id="edge24" class="edge">
<title>Node21&#45;&gt;Node1</title>
<path fill="none" stroke="#9a32cd" stroke-dasharray="5,2" d="M567.63,-364.24C668.64,-367.59 946.04,-372.48 1024,-328.78 1057.55,-309.98 1079.36,-268.42 1089.63,-244.56"/>
<polygon fill="#9a32cd" stroke="#9a32cd" points="567.7,-360.74 557.59,-363.89 567.46,-367.74 567.7,-360.74"/>
<text text-anchor="middle" x="815.5" y="-421.38" font-family="Helvetica,sans-Serif" font-size="8.00"> m_values_candidate</text>
<text text-anchor="middle" x="815.5" y="-412.38" font-family="Helvetica,sans-Serif" font-size="8.00">m_values_current</text>
<text text-anchor="middle" x="815.5" y="-403.38" font-family="Helvetica,sans-Serif" font-size="8.00">m_values_default</text>
<text text-anchor="start" x="771.5" y="-394.38" font-family="Helvetica,sans-Serif" font-size="8.00">m_values_default_no</text>
<text text-anchor="middle" x="815.5" y="-385.38" font-family="Helvetica,sans-Serif" font-size="8.00">_acc</text>
<text text-anchor="middle" x="815.5" y="-376.38" font-family="Helvetica,sans-Serif" font-size="8.00">m_values_to_load</text>
<text text-anchor="middle" x="815.5" y="-367.38" font-family="Helvetica,sans-Serif" font-size="8.00">m_values_to_validate</text>
</g>
<!-- Node21&#45;&gt;Node3 -->
<g id="edge19" class="edge">
<title>Node21&#45;&gt;Node3</title>
<path fill="none" stroke="#9a32cd" stroke-dasharray="5,2" d="M567.9,-367.93C625.01,-375.85 727.73,-390.38 731,-392.78 745.74,-403.6 739.86,-413.94 749,-429.78 766.98,-460.93 791.41,-495.38 804.77,-513.67"/>
<polygon fill="#9a32cd" stroke="#9a32cd" points="568.19,-364.44 557.81,-366.53 567.23,-371.37 568.19,-364.44"/>
<text text-anchor="middle" x="670.5" y="-413.38" font-family="Helvetica,sans-Serif" font-size="8.00"> m_values</text>
<text text-anchor="middle" x="670.5" y="-404.38" font-family="Helvetica,sans-Serif" font-size="8.00">m_values_candidate</text>
<text text-anchor="middle" x="670.5" y="-395.38" font-family="Helvetica,sans-Serif" font-size="8.00">m_values_default</text>
</g>
<!-- Node22&#45;&gt;Node3 -->
<g id="edge20" class="edge">
<title>Node22&#45;&gt;Node3</title>
<path fill="none" stroke="#9a32cd" stroke-dasharray="5,2" d="M592.24,-419.31C650.57,-434 729.4,-453.95 731,-454.78 760.2,-469.99 787.85,-497.27 802.86,-513.53"/>
<polygon fill="#9a32cd" stroke="#9a32cd" points="592.9,-415.87 582.35,-416.82 591.19,-422.65 592.9,-415.87"/>
<text text-anchor="middle" x="670.5" y="-457.38" font-family="Helvetica,sans-Serif" font-size="8.00"> m_iterable_values_candidate</text>
</g>
<!-- Node23 -->
<g id="node21" class="node">
<title>Node23</title>
<g id="a_node21"><a xlink:title=" ">
<polygon fill="white" stroke="#bfbfbf" points="301.5,-395.28 301.5,-412.28 333.5,-412.28 333.5,-395.28 301.5,-395.28"/>
<text text-anchor="middle" x="317.5" y="-401.88" font-family="Helvetica,sans-Serif" font-size="8.00">any</text>
</a>
</g>
</g>
<!-- Node23&#45;&gt;Node22 -->
<g id="edge22" class="edge">
<title>Node23&#45;&gt;Node22</title>
<path fill="none" stroke="#9a32cd" stroke-dasharray="5,2" d="M343.62,-403.78C376.15,-403.78 433.68,-403.78 475.95,-403.78"/>
<polygon fill="#9a32cd" stroke="#9a32cd" points="343.6,-400.28 333.6,-403.78 343.6,-407.28 343.6,-400.28"/>
<text text-anchor="middle" x="418.5" y="-406.38" font-family="Helvetica,sans-Serif" font-size="8.00"> elements</text>
</g>
<!-- Node24 -->
<g id="node22" class="node">
<title>Node24</title>
<g id="a_node22"><a xlink:title=" ">
<polygon fill="white" stroke="#bfbfbf" points="501.5,-727.28 501.5,-744.28 557.5,-744.28 557.5,-727.28 501.5,-727.28"/>
<text text-anchor="middle" x="529.5" y="-733.88" font-family="Helvetica,sans-Serif" font-size="8.00">Opt_table</text>
</a>
</g>
</g>
<!-- Node24&#45;&gt;Node3 -->
<g id="edge23" class="edge">
<title>Node24&#45;&gt;Node3</title>
<path fill="none" stroke="#9a32cd" stroke-dasharray="5,2" d="M567.83,-741.87C613.28,-746.95 689.13,-747.45 731,-703.78 778.7,-654.04 705.95,-603.59 749,-549.78 753.22,-544.51 758.72,-540.45 764.75,-537.31"/>
<polygon fill="#9a32cd" stroke="#9a32cd" points="568.15,-738.39 557.8,-740.62 567.29,-745.33 568.15,-738.39"/>
<text text-anchor="middle" x="670.5" y="-755.38" font-family="Helvetica,sans-Serif" font-size="8.00"> m_opts_for_help</text>
<text text-anchor="middle" x="670.5" y="-746.38" font-family="Helvetica,sans-Serif" font-size="8.00">m_opts_for_parsing</text>
</g>
<!-- Node25 -->
<g id="node23" class="node">
<title>Node25</title>
<g id="a_node23"><a xlink:title=" ">
<polygon fill="white" stroke="#bfbfbf" points="754,-299.78 754,-325.78 877,-325.78 877,-299.78 754,-299.78"/>
<text text-anchor="start" x="762" y="-315.38" font-family="Helvetica,sans-Serif" font-size="8.00">anonymous:m_fill_parsing</text>
<text text-anchor="middle" x="815.5" y="-306.38" font-family="Helvetica,sans-Serif" font-size="8.00">_role_opt_table_args</text>
</a>
</g>
</g>
<!-- Node25&#45;&gt;Node1 -->
<g id="edge25" class="edge">
<title>Node25&#45;&gt;Node1</title>
<path fill="none" stroke="#9a32cd" stroke-dasharray="5,2" d="M887.29,-309.24C928.46,-305.22 980.62,-296.73 1024,-278.78 1043.75,-270.61 1063.28,-256.14 1077.08,-244.53"/>
<polygon fill="#9a32cd" stroke="#9a32cd" points="886.71,-305.77 877.07,-310.16 887.35,-312.74 886.71,-305.77"/>
<text text-anchor="start" x="923" y="-318.38" font-family="Helvetica,sans-Serif" font-size="8.00"> m_fill_parsing_role</text>
<text text-anchor="middle" x="962" y="-309.38" font-family="Helvetica,sans-Serif" font-size="8.00">_opt_table_args</text>
</g>
<!-- Node26 -->
<g id="node24" class="node">
<title>Node26</title>
<g id="a_node24"><a xlink:title=" ">
<polygon fill="white" stroke="#bfbfbf" points="754.5,-254.78 754.5,-280.78 876.5,-280.78 876.5,-254.78 754.5,-254.78"/>
<text text-anchor="start" x="762.5" y="-270.38" font-family="Helvetica,sans-Serif" font-size="8.00">anonymous:m_fill_output</text>
<text text-anchor="middle" x="815.5" y="-261.38" font-family="Helvetica,sans-Serif" font-size="8.00">_help_role_opt_table_args</text>
</a>
</g>
</g>
<!-- Node26&#45;&gt;Node1 -->
<g id="edge26" class="edge">
<title>Node26&#45;&gt;Node1</title>
<path fill="none" stroke="#9a32cd" stroke-dasharray="5,2" d="M886.52,-259.1C926.79,-253.91 978.31,-246.96 1024,-239.78 1029.81,-238.87 1035.87,-237.86 1041.91,-236.83"/>
<polygon fill="#9a32cd" stroke="#9a32cd" points="886,-255.64 876.53,-260.38 886.89,-262.58 886,-255.64"/>
<text text-anchor="start" x="920" y="-268.38" font-family="Helvetica,sans-Serif" font-size="8.00"> m_fill_output_help</text>
<text text-anchor="middle" x="962" y="-259.38" font-family="Helvetica,sans-Serif" font-size="8.00">_role_opt_table_args</text>
</g>
<!-- Node27 -->
<g id="node25" class="node">
<title>Node27</title>
<g id="a_node25"><a xlink:title=" ">
<polygon fill="white" stroke="#bfbfbf" points="764,-218.28 764,-235.28 867,-235.28 867,-218.28 764,-218.28"/>
<text text-anchor="middle" x="815.5" y="-224.88" font-family="Helvetica,sans-Serif" font-size="8.00">options_description *</text>
</a>
</g>
</g>
<!-- Node27&#45;&gt;Node1 -->
<g id="edge27" class="edge">
<title>Node27&#45;&gt;Node1</title>
<path fill="none" stroke="#9a32cd" stroke-dasharray="5,2" d="M877.35,-226.78C926.35,-226.78 994.6,-226.78 1041.87,-226.78"/>
<polygon fill="#9a32cd" stroke="#9a32cd" points="877.21,-223.28 867.21,-226.78 877.21,-230.28 877.21,-223.28"/>
<text text-anchor="middle" x="962" y="-229.38" font-family="Helvetica,sans-Serif" font-size="8.00"> m_target_opts</text>
</g>
<!-- Node28 -->
<g id="node26" class="node">
<title>Node28</title>
<g id="a_node26"><a xlink:title=" ">
<polygon fill="white" stroke="#bfbfbf" points="749,-172.78 749,-198.78 882,-198.78 882,-172.78 749,-172.78"/>
<text text-anchor="start" x="757" y="-188.38" font-family="Helvetica,sans-Serif" font-size="8.00">anonymous:m_fill_output</text>
<text text-anchor="middle" x="815.5" y="-179.38" font-family="Helvetica,sans-Serif" font-size="8.00">_current_role_opt_table_args</text>
</a>
</g>
</g>
<!-- Node28&#45;&gt;Node1 -->
<g id="edge28" class="edge">
<title>Node28&#45;&gt;Node1</title>
<path fill="none" stroke="#9a32cd" stroke-dasharray="5,2" d="M892.49,-189.03C931.99,-191.65 980.89,-196.36 1024,-204.78 1030.2,-205.99 1036.62,-207.52 1042.96,-209.21"/>
<polygon fill="#9a32cd" stroke="#9a32cd" points="892.6,-185.53 882.4,-188.39 892.16,-192.51 892.6,-185.53"/>
<text text-anchor="start" x="918" y="-216.38" font-family="Helvetica,sans-Serif" font-size="8.00"> m_fill_output_current</text>
<text text-anchor="middle" x="962" y="-207.38" font-family="Helvetica,sans-Serif" font-size="8.00">_role_opt_table_args</text>
</g>
<!-- Node29 -->
<g id="node27" class="node">
<title>Node29</title>
<g id="a_node27"><a xlink:title=" ">
<polygon fill="white" stroke="#bfbfbf" points="758,-127.78 758,-153.78 873,-153.78 873,-127.78 758,-127.78"/>
<text text-anchor="start" x="766" y="-143.38" font-family="Helvetica,sans-Serif" font-size="8.00">anonymous:m_compare</text>
<text text-anchor="middle" x="815.5" y="-134.38" font-family="Helvetica,sans-Serif" font-size="8.00">_parsed_vals_args</text>
</a>
</g>
</g>
<!-- Node29&#45;&gt;Node1 -->
<g id="edge29" class="edge">
<title>Node29&#45;&gt;Node1</title>
<path fill="none" stroke="#9a32cd" stroke-dasharray="5,2" d="M883.46,-144.5C925.16,-148.64 979.21,-157.36 1024,-175.78 1043.5,-183.8 1062.89,-197.84 1076.71,-209.16"/>
<polygon fill="#9a32cd" stroke="#9a32cd" points="883.69,-141.01 873.41,-143.57 883.04,-147.98 883.69,-141.01"/>
<text text-anchor="middle" x="962" y="-178.38" font-family="Helvetica,sans-Serif" font-size="8.00"> m_compare_parsed_vals_args</text>
</g>
<!-- Node30 -->
<g id="node28" class="node">
<title>Node30</title>
<g id="a_node28"><a xlink:title=" ">
<polygon fill="white" stroke="#bfbfbf" points="759,-82.78 759,-108.78 872,-108.78 872,-82.78 759,-82.78"/>
<text text-anchor="start" x="767" y="-98.38" font-family="Helvetica,sans-Serif" font-size="8.00">anonymous:m_load_val</text>
<text text-anchor="middle" x="815.5" y="-89.38" font-family="Helvetica,sans-Serif" font-size="8.00">_as_if_parsed_args</text>
</a>
</g>
</g>
<!-- Node30&#45;&gt;Node1 -->
<g id="edge30" class="edge">
<title>Node30&#45;&gt;Node1</title>
<path fill="none" stroke="#9a32cd" stroke-dasharray="5,2" d="M882.4,-95.53C925.47,-98.13 981.42,-106.96 1024,-132.78 1054.31,-151.16 1076.62,-187.28 1088,-209"/>
<polygon fill="#9a32cd" stroke="#9a32cd" points="882.47,-92.03 872.3,-95.02 882.11,-99.02 882.47,-92.03"/>
<text text-anchor="middle" x="962" y="-135.38" font-family="Helvetica,sans-Serif" font-size="8.00"> m_load_val_as_if_parsed_args</text>
</g>
<!-- Node31 -->
<g id="node29" class="node">
<title>Node31</title>
<g id="a_node29"><a xlink:title=" ">
<polygon fill="white" stroke="#bfbfbf" points="759.5,-37.78 759.5,-63.78 871.5,-63.78 871.5,-37.78 759.5,-37.78"/>
<text text-anchor="start" x="767.5" y="-53.38" font-family="Helvetica,sans-Serif" font-size="8.00">anonymous:m_validate</text>
<text text-anchor="middle" x="815.5" y="-44.38" font-family="Helvetica,sans-Serif" font-size="8.00">_stored_vals_args</text>
</a>
</g>
</g>
<!-- Node31&#45;&gt;Node1 -->
<g id="edge31" class="edge">
<title>Node31&#45;&gt;Node1</title>
<path fill="none" stroke="#9a32cd" stroke-dasharray="5,2" d="M881.96,-46.46C926,-46.84 983.25,-54.09 1024,-83.78 1066.52,-114.76 1085.77,-177.94 1092.94,-208.89"/>
<polygon fill="#9a32cd" stroke="#9a32cd" points="881.91,-42.96 871.92,-46.48 881.93,-49.96 881.91,-42.96"/>
<text text-anchor="middle" x="962" y="-86.38" font-family="Helvetica,sans-Serif" font-size="8.00"> m_validate_stored_vals_args</text>
</g>
<!-- Node32 -->
<g id="node30" class="node">
<title>Node32</title>
<g id="a_node30"><a xlink:title=" ">
<polygon fill="white" stroke="#bfbfbf" points="767,-1.28 767,-18.28 864,-18.28 864,-1.28 767,-1.28"/>
<text text-anchor="middle" x="815.5" y="-7.88" font-family="Helvetica,sans-Serif" font-size="8.00">anonymous:m_args</text>
</a>
</g>
</g>
<!-- Node32&#45;&gt;Node1 -->
<g id="edge32" class="edge">
<title>Node32&#45;&gt;Node1</title>
<path fill="none" stroke="#9a32cd" stroke-dasharray="5,2" d="M874.15,-1.3C919.51,2.1 981.89,-0.88 1024,-33.78 1080.27,-77.75 1092.87,-170.4 1095.69,-209.15"/>
<polygon fill="#9a32cd" stroke="#9a32cd" points="873.82,2.18 864.16,-2.17 874.43,-4.79 873.82,2.18"/>
<text text-anchor="middle" x="962" y="-36.38" font-family="Helvetica,sans-Serif" font-size="8.00"> m_args</text>
</g>
</g>
</svg>
