<?xml version="1.0" encoding="UTF-8" standalone="no"?>
<!DOCTYPE svg PUBLIC "-//W3C//DTD SVG 1.1//EN"
 "http://www.w3.org/Graphics/SVG/1.1/DTD/svg11.dtd">
<!-- Generated by graphviz version 2.43.0 (0)
 -->
<!-- Title: flow::net_flow::Syn_packet Pages: 1 -->
<svg width="1259pt" height="604pt"
 viewBox="0.00 0.00 1259.00 604.29" xmlns="http://www.w3.org/2000/svg" xmlns:xlink="http://www.w3.org/1999/xlink">
<g id="graph0" class="graph" transform="scale(1 1) rotate(0) translate(4 600.29)">
<title>flow::net_flow::Syn_packet</title>
<polygon fill="white" stroke="transparent" points="-4,4 -4,-600.29 1255,-600.29 1255,4 -4,4"/>
<!-- Node1 -->
<g id="node1" class="node">
<title>Node1</title>
<g id="a_node1"><a xlink:title="Internal net_flow struct that encapsulates the Flow&#45;protocol low&#45;level SYN packet.">
<polygon fill="#bfbfbf" stroke="black" points="1157,-54 1157,-80 1251,-80 1251,-54 1157,-54"/>
<text text-anchor="start" x="1165" y="-69.6" font-family="Helvetica,sans-Serif" font-size="8.00">flow::net_flow::Syn</text>
<text text-anchor="middle" x="1204" y="-60.6" font-family="Helvetica,sans-Serif" font-size="8.00">_packet</text>
</a>
</g>
</g>
<!-- Node2 -->
<g id="node2" class="node">
<title>Node2</title>
<g id="a_node2"><a xlink:href="structflow_1_1net__flow_1_1Low__lvl__packet.html" target="_top" xlink:title="Internal net_flow struct that encapsulates the Flow&#45;protocol low&#45;level packet structure and serves as...">
<polygon fill="white" stroke="black" points="917,-307 917,-333 1012,-333 1012,-307 917,-307"/>
<text text-anchor="start" x="925" y="-322.6" font-family="Helvetica,sans-Serif" font-size="8.00">flow::net_flow::Low</text>
<text text-anchor="middle" x="964.5" y="-313.6" font-family="Helvetica,sans-Serif" font-size="8.00">_lvl_packet</text>
</a>
</g>
</g>
<!-- Node2&#45;&gt;Node1 -->
<g id="edge1" class="edge">
<title>Node2&#45;&gt;Node1</title>
<path fill="none" stroke="midnightblue" d="M984.86,-299.38C1032.03,-249.12 1151.9,-121.43 1190.69,-80.12"/>
<polygon fill="midnightblue" stroke="midnightblue" points="982.23,-297.07 977.93,-306.75 987.33,-301.86 982.23,-297.07"/>
</g>
<!-- Node3 -->
<g id="node3" class="node">
<title>Node3</title>
<g id="a_node3"><a xlink:href="classflow_1_1util_1_1Null__interface.html" target="_top" xlink:title="An empty interface, consisting of nothing but a default virtual destructor, intended as a boiler&#45;plat...">
<polygon fill="white" stroke="black" points="108,-552.5 108,-569.5 222,-569.5 222,-552.5 108,-552.5"/>
<text text-anchor="middle" x="165" y="-559.1" font-family="Helvetica,sans-Serif" font-size="8.00">flow::util::Null_interface</text>
</a>
</g>
</g>
<!-- Node3&#45;&gt;Node2 -->
<g id="edge2" class="edge">
<title>Node3&#45;&gt;Node2</title>
<path fill="none" stroke="midnightblue" d="M214.97,-571.46C342.1,-595.55 686.65,-641 887,-476 933.8,-437.46 954.27,-363.27 960.9,-333.17"/>
<polygon fill="midnightblue" stroke="midnightblue" points="215.61,-568.01 205.13,-569.55 214.28,-574.89 215.61,-568.01"/>
</g>
<!-- Node6 -->
<g id="node6" class="node">
<title>Node6</title>
<g id="a_node6"><a xlink:href="classflow_1_1log_1_1Logger.html" target="_top" xlink:title="Interface that the user should implement, passing the implementing Logger into logging classes (Flow&#39;...">
<polygon fill="white" stroke="black" points="382.5,-466.5 382.5,-483.5 468.5,-483.5 468.5,-466.5 382.5,-466.5"/>
<text text-anchor="middle" x="425.5" y="-473.1" font-family="Helvetica,sans-Serif" font-size="8.00">flow::log::Logger</text>
</a>
</g>
</g>
<!-- Node3&#45;&gt;Node6 -->
<g id="edge6" class="edge">
<title>Node3&#45;&gt;Node6</title>
<path fill="none" stroke="midnightblue" d="M212.05,-550.05C259.2,-538.61 329.11,-520.99 355,-511 374.9,-503.32 396.53,-491.52 410.29,-483.54"/>
<polygon fill="midnightblue" stroke="midnightblue" points="210.97,-546.71 202.07,-552.46 212.61,-553.51 210.97,-546.71"/>
</g>
<!-- Node4 -->
<g id="node4" class="node">
<title>Node4</title>
<g id="a_node4"><a xlink:href="classflow_1_1util_1_1Shared__ptr__alias__holder.html" target="_top" xlink:title=" ">
<polygon fill="white" stroke="black" points="603,-466.5 603,-501.5 757,-501.5 757,-466.5 603,-466.5"/>
<text text-anchor="start" x="611" y="-491.1" font-family="Helvetica,sans-Serif" font-size="8.00">flow::util::Shared</text>
<text text-anchor="start" x="611" y="-482.1" font-family="Helvetica,sans-Serif" font-size="8.00">_ptr_alias_holder&lt; boost</text>
<text text-anchor="middle" x="680" y="-473.1" font-family="Helvetica,sans-Serif" font-size="8.00">::shared_ptr&lt; Low_lvl_packet &gt; &gt;</text>
</a>
</g>
</g>
<!-- Node4&#45;&gt;Node2 -->
<g id="edge3" class="edge">
<title>Node4&#45;&gt;Node2</title>
<path fill="none" stroke="midnightblue" d="M767.33,-482.21C806.73,-477.73 852.25,-467.05 887,-443 927.11,-415.24 950.36,-358.92 959.27,-333.26"/>
<polygon fill="midnightblue" stroke="midnightblue" points="766.78,-478.75 757.19,-483.25 767.49,-485.72 766.78,-478.75"/>
</g>
<!-- Node5 -->
<g id="node5" class="node">
<title>Node5</title>
<g id="a_node5"><a xlink:href="classflow_1_1log_1_1Log__context.html" target="_top" xlink:title="Convenience class that simply stores a Logger and/or Component passed into a constructor; and returns...">
<polygon fill="white" stroke="black" points="626.5,-430.5 626.5,-447.5 733.5,-447.5 733.5,-430.5 626.5,-430.5"/>
<text text-anchor="middle" x="680" y="-437.1" font-family="Helvetica,sans-Serif" font-size="8.00">flow::log::Log_context</text>
</a>
</g>
</g>
<!-- Node5&#45;&gt;Node2 -->
<g id="edge4" class="edge">
<title>Node5&#45;&gt;Node2</title>
<path fill="none" stroke="midnightblue" d="M743.87,-444.14C786.73,-444.84 843.4,-440.08 887,-416 921.7,-396.84 946.36,-354.84 957.25,-333.31"/>
<polygon fill="midnightblue" stroke="midnightblue" points="743.93,-440.64 733.84,-443.87 743.74,-447.64 743.93,-440.64"/>
</g>
<!-- Node6&#45;&gt;Node5 -->
<g id="edge5" class="edge">
<title>Node6&#45;&gt;Node5</title>
<path fill="none" stroke="#9a32cd" stroke-dasharray="5,2" d="M478.77,-467.55C521.88,-461.4 582.77,-452.72 626.06,-446.55"/>
<polygon fill="#9a32cd" stroke="#9a32cd" points="478.17,-464.1 468.76,-468.97 479.16,-471.03 478.17,-464.1"/>
<text text-anchor="middle" x="540.5" y="-466.6" font-family="Helvetica,sans-Serif" font-size="8.00"> m_logger</text>
</g>
<!-- Node7 -->
<g id="node7" class="node">
<title>Node7</title>
<g id="a_node7"><a xlink:href="classflow_1_1util_1_1Unique__id__holder.html" target="_top" xlink:title="Each object of this class stores (at construction) and returns (on demand) a numeric ID unique from a...">
<polygon fill="white" stroke="red" points="121.5,-507 121.5,-533 208.5,-533 208.5,-507 121.5,-507"/>
<text text-anchor="start" x="129.5" y="-522.6" font-family="Helvetica,sans-Serif" font-size="8.00">flow::util::Unique</text>
<text text-anchor="middle" x="165" y="-513.6" font-family="Helvetica,sans-Serif" font-size="8.00">_id_holder</text>
</a>
</g>
</g>
<!-- Node7&#45;&gt;Node6 -->
<g id="edge7" class="edge">
<title>Node7&#45;&gt;Node6</title>
<path fill="none" stroke="midnightblue" d="M218.63,-510.84C266.9,-502.44 337.47,-490.15 382.18,-482.37"/>
<polygon fill="midnightblue" stroke="midnightblue" points="217.94,-507.41 208.69,-512.57 219.14,-514.3 217.94,-507.41"/>
</g>
<!-- Node8 -->
<g id="node8" class="node">
<title>Node8</title>
<g id="a_node8"><a xlink:title=" ">
<polygon fill="white" stroke="#bfbfbf" points="0,-88.5 0,-105.5 50,-105.5 50,-88.5 0,-88.5"/>
<text text-anchor="middle" x="25" y="-95.1" font-family="Helvetica,sans-Serif" font-size="8.00">uint64_t</text>
</a>
</g>
</g>
<!-- Node8&#45;&gt;Node7 -->
<g id="edge8" class="edge">
<title>Node8&#45;&gt;Node7</title>
<path fill="none" stroke="#9a32cd" stroke-dasharray="5,2" d="M27.48,-115.69C33.45,-186.65 57.86,-438.36 108,-498 111.7,-502.4 116.39,-505.92 121.48,-508.74"/>
<polygon fill="#9a32cd" stroke="#9a32cd" points="30.96,-115.27 26.66,-105.59 23.98,-115.84 30.96,-115.27"/>
<text text-anchor="middle" x="79" y="-464.6" font-family="Helvetica,sans-Serif" font-size="8.00"> m_id</text>
</g>
<!-- Node22 -->
<g id="node21" class="node">
<title>Node22</title>
<g id="a_node21"><a xlink:href="classflow_1_1net__flow_1_1Sequence__number.html" target="_top" xlink:title="An internal net_flow sequence number identifying a piece of data.">
<polygon fill="white" stroke="black" points="620,-68 620,-94 740,-94 740,-68 620,-68"/>
<text text-anchor="start" x="628" y="-83.6" font-family="Helvetica,sans-Serif" font-size="8.00">flow::net_flow::Sequence</text>
<text text-anchor="middle" x="680" y="-74.6" font-family="Helvetica,sans-Serif" font-size="8.00">_number</text>
</a>
</g>
</g>
<!-- Node8&#45;&gt;Node22 -->
<g id="edge25" class="edge">
<title>Node8&#45;&gt;Node22</title>
<path fill="none" stroke="#9a32cd" stroke-dasharray="5,2" d="M60.08,-96.16C165.35,-93.59 486.27,-85.72 619.77,-82.45"/>
<polygon fill="#9a32cd" stroke="#9a32cd" points="59.93,-92.67 50.02,-96.41 60.1,-99.67 59.93,-92.67"/>
<text text-anchor="middle" x="297.5" y="-102.6" font-family="Helvetica,sans-Serif" font-size="8.00"> m_num</text>
<text text-anchor="middle" x="297.5" y="-93.6" font-family="Helvetica,sans-Serif" font-size="8.00">m_zero_point_num</text>
</g>
<!-- Node10 -->
<g id="node9" class="node">
<title>Node10</title>
<g id="a_node9"><a xlink:title=" ">
<polygon fill="white" stroke="#bfbfbf" points="115.5,-333.5 115.5,-350.5 214.5,-350.5 214.5,-333.5 115.5,-333.5"/>
<text text-anchor="middle" x="165" y="-340.1" font-family="Helvetica,sans-Serif" font-size="8.00">boost::noncopyable</text>
</a>
</g>
</g>
<!-- Node10&#45;&gt;Node2 -->
<g id="edge14" class="edge">
<title>Node10&#45;&gt;Node2</title>
<path fill="none" stroke="#8b1a1a" d="M224.79,-345.83C262.11,-348.39 311.42,-352.02 355,-356 533.33,-372.31 578.4,-395.98 757,-383 815.24,-378.77 831.83,-383.12 887,-364 908.28,-356.63 930.35,-343.21 945.28,-333.13"/>
<polygon fill="#8b1a1a" stroke="#8b1a1a" points="224.81,-342.32 214.59,-345.14 224.33,-349.31 224.81,-342.32"/>
</g>
<!-- Node10&#45;&gt;Node6 -->
<g id="edge9" class="edge">
<title>Node10&#45;&gt;Node6</title>
<path fill="none" stroke="#8b1a1a" d="M224.96,-352.08C273.28,-361.47 336.58,-376.75 355,-395 375.38,-415.2 353.26,-436.17 373,-457 376.71,-460.92 381.33,-463.98 386.25,-466.38"/>
<polygon fill="#8b1a1a" stroke="#8b1a1a" points="225.37,-348.59 214.9,-350.16 224.07,-355.47 225.37,-348.59"/>
</g>
<!-- Node20 -->
<g id="node19" class="node">
<title>Node20</title>
<g id="a_node19"><a xlink:href="structflow_1_1net__flow_1_1Low__lvl__packet_1_1Aux__raw__data.html" target="_top" xlink:title="Helper data store type for storing binary data needed by serialize_to_raw_data(), when certains bits ...">
<polygon fill="white" stroke="black" points="618.5,-113 618.5,-139 741.5,-139 741.5,-113 618.5,-113"/>
<text text-anchor="start" x="626.5" y="-128.6" font-family="Helvetica,sans-Serif" font-size="8.00">flow::net_flow::Low</text>
<text text-anchor="middle" x="680" y="-119.6" font-family="Helvetica,sans-Serif" font-size="8.00">_lvl_packet::Aux_raw_data</text>
</a>
</g>
</g>
<!-- Node10&#45;&gt;Node20 -->
<g id="edge21" class="edge">
<title>Node10&#45;&gt;Node20</title>
<path fill="none" stroke="#8b1a1a" d="M192.15,-328.9C259.18,-295.67 443.11,-206.64 603,-149 612.6,-145.54 623,-142.16 632.93,-139.1"/>
<polygon fill="#8b1a1a" stroke="#8b1a1a" points="190.52,-325.8 183.13,-333.39 193.64,-332.07 190.52,-325.8"/>
</g>
<!-- Node11 -->
<g id="node10" class="node">
<title>Node11</title>
<g id="a_node10"><a xlink:title=" ">
<polygon fill="white" stroke="#bfbfbf" points="118,-462 118,-488 212,-488 212,-462 118,-462"/>
<text text-anchor="start" x="126" y="-477.6" font-family="Helvetica,sans-Serif" font-size="8.00">thread_specific_ptr</text>
<text text-anchor="middle" x="165" y="-468.6" font-family="Helvetica,sans-Serif" font-size="8.00">&lt; std::string &gt;</text>
</a>
</g>
</g>
<!-- Node11&#45;&gt;Node6 -->
<g id="edge10" class="edge">
<title>Node11&#45;&gt;Node6</title>
<path fill="none" stroke="#9a32cd" stroke-dasharray="5,2" d="M222.46,-475C270.54,-475 338.57,-475 382.11,-475"/>
<polygon fill="#9a32cd" stroke="#9a32cd" points="222.21,-471.5 212.21,-475 222.21,-478.5 222.21,-471.5"/>
<text text-anchor="middle" x="297.5" y="-477.6" font-family="Helvetica,sans-Serif" font-size="8.00"> s_this_thread_nickname_ptr</text>
</g>
<!-- Node12 -->
<g id="node11" class="node">
<title>Node12</title>
<g id="a_node11"><a xlink:href="classflow_1_1log_1_1Component.html" target="_top" xlink:title="A light&#45;weight class, each object storing a component payload encoding an enum value from enum type o...">
<polygon fill="white" stroke="black" points="373,-430.5 373,-447.5 478,-447.5 478,-430.5 373,-430.5"/>
<text text-anchor="middle" x="425.5" y="-437.1" font-family="Helvetica,sans-Serif" font-size="8.00">flow::log::Component</text>
</a>
</g>
</g>
<!-- Node12&#45;&gt;Node5 -->
<g id="edge11" class="edge">
<title>Node12&#45;&gt;Node5</title>
<path fill="none" stroke="#9a32cd" stroke-dasharray="5,2" d="M488.4,-439C530.76,-439 586.3,-439 626.49,-439"/>
<polygon fill="#9a32cd" stroke="#9a32cd" points="488.21,-435.5 478.21,-439 488.21,-442.5 488.21,-435.5"/>
<text text-anchor="middle" x="540.5" y="-441.6" font-family="Helvetica,sans-Serif" font-size="8.00"> m_component</text>
</g>
<!-- Node13 -->
<g id="node12" class="node">
<title>Node13</title>
<g id="a_node12"><a xlink:title=" ">
<polygon fill="white" stroke="#bfbfbf" points="122.5,-425.5 122.5,-442.5 207.5,-442.5 207.5,-425.5 122.5,-425.5"/>
<text text-anchor="middle" x="165" y="-432.1" font-family="Helvetica,sans-Serif" font-size="8.00">type_info const *</text>
</a>
</g>
</g>
<!-- Node13&#45;&gt;Node12 -->
<g id="edge12" class="edge">
<title>Node13&#45;&gt;Node12</title>
<path fill="none" stroke="#9a32cd" stroke-dasharray="5,2" d="M217.68,-435C262.74,-435.87 327.76,-437.13 372.82,-438"/>
<polygon fill="#9a32cd" stroke="#9a32cd" points="217.6,-431.5 207.53,-434.8 217.46,-438.5 217.6,-431.5"/>
<text text-anchor="middle" x="297.5" y="-439.6" font-family="Helvetica,sans-Serif" font-size="8.00"> m_payload_type_or_null</text>
</g>
<!-- Node14 -->
<g id="node13" class="node">
<title>Node14</title>
<g id="a_node13"><a xlink:title=" ">
<polygon fill="white" stroke="#bfbfbf" points="131,-389.5 131,-406.5 199,-406.5 199,-389.5 131,-389.5"/>
<text text-anchor="middle" x="165" y="-396.1" font-family="Helvetica,sans-Serif" font-size="8.00">unsigned int</text>
</a>
</g>
</g>
<!-- Node14&#45;&gt;Node12 -->
<g id="edge13" class="edge">
<title>Node14&#45;&gt;Node12</title>
<path fill="none" stroke="#9a32cd" stroke-dasharray="5,2" d="M209.56,-398.03C248.2,-398.87 305.95,-402.1 355,-413 372.86,-416.97 392.29,-424.53 406.05,-430.48"/>
<polygon fill="#9a32cd" stroke="#9a32cd" points="209.25,-394.53 199.19,-397.86 209.13,-401.53 209.25,-394.53"/>
<text text-anchor="start" x="251" y="-424.6" font-family="Helvetica,sans-Serif" font-size="8.00"> m_payload_enum_raw</text>
<text text-anchor="middle" x="297.5" y="-415.6" font-family="Helvetica,sans-Serif" font-size="8.00">_value</text>
</g>
<!-- Node15 -->
<g id="node14" class="node">
<title>Node15</title>
<g id="a_node14"><a xlink:href="classbool.html" target="_top" xlink:title=" ">
<polygon fill="white" stroke="#bfbfbf" points="662.5,-356.5 662.5,-373.5 697.5,-373.5 697.5,-356.5 662.5,-356.5"/>
<text text-anchor="middle" x="680" y="-363.1" font-family="Helvetica,sans-Serif" font-size="8.00">bool</text>
</a>
</g>
</g>
<!-- Node15&#45;&gt;Node2 -->
<g id="edge15" class="edge">
<title>Node15&#45;&gt;Node2</title>
<path fill="none" stroke="#9a32cd" stroke-dasharray="5,2" d="M707.66,-361.26C746.97,-355.69 822.76,-344.71 887,-334 896.59,-332.4 906.84,-330.59 916.61,-328.82"/>
<polygon fill="#9a32cd" stroke="#9a32cd" points="707,-357.82 697.58,-362.69 707.97,-364.75 707,-357.82"/>
<text text-anchor="middle" x="831" y="-353.6" font-family="Helvetica,sans-Serif" font-size="8.00"> m_opt_rexmit_on</text>
</g>
<!-- Node16 -->
<g id="node15" class="node">
<title>Node16</title>
<g id="a_node15"><a xlink:title=" ">
<polygon fill="white" stroke="#bfbfbf" points="400.5,-258.5 400.5,-275.5 450.5,-275.5 450.5,-258.5 400.5,-258.5"/>
<text text-anchor="middle" x="425.5" y="-265.1" font-family="Helvetica,sans-Serif" font-size="8.00">uint16_t</text>
</a>
</g>
</g>
<!-- Node16&#45;&gt;Node2 -->
<g id="edge16" class="edge">
<title>Node16&#45;&gt;Node2</title>
<path fill="none" stroke="#9a32cd" stroke-dasharray="5,2" d="M461,-272.82C496.51,-278.64 553.48,-287.49 603,-293 715.28,-305.5 847.89,-313.77 916.73,-317.58"/>
<polygon fill="#9a32cd" stroke="#9a32cd" points="461.13,-269.3 450.7,-271.12 459.99,-276.2 461.13,-269.3"/>
<text text-anchor="middle" x="680" y="-318.6" font-family="Helvetica,sans-Serif" font-size="8.00"> m_dst_port</text>
<text text-anchor="middle" x="680" y="-309.6" font-family="Helvetica,sans-Serif" font-size="8.00">m_src_port</text>
</g>
<!-- Node16&#45;&gt;Node20 -->
<g id="edge23" class="edge">
<title>Node16&#45;&gt;Node20</title>
<path fill="none" stroke="#9a32cd" stroke-dasharray="5,2" d="M460.64,-259.26C496.08,-249.59 551,-229.78 585,-194 599.84,-178.38 587.12,-163.56 603,-149 607.47,-144.9 612.65,-141.53 618.16,-138.76"/>
<polygon fill="#9a32cd" stroke="#9a32cd" points="459.55,-255.92 450.75,-261.83 461.31,-262.7 459.55,-255.92"/>
<text text-anchor="middle" x="540.5" y="-249.6" font-family="Helvetica,sans-Serif" font-size="8.00"> m_reserved2</text>
</g>
<!-- Node17 -->
<g id="node16" class="node">
<title>Node17</title>
<g id="a_node16"><a xlink:title=" ">
<polygon fill="white" stroke="#bfbfbf" points="625.5,-266.5 625.5,-283.5 734.5,-283.5 734.5,-266.5 625.5,-266.5"/>
<text text-anchor="middle" x="680" y="-273.1" font-family="Helvetica,sans-Serif" font-size="8.00">anonymous:m_packed</text>
</a>
</g>
</g>
<!-- Node17&#45;&gt;Node2 -->
<g id="edge17" class="edge">
<title>Node17&#45;&gt;Node2</title>
<path fill="none" stroke="#9a32cd" stroke-dasharray="5,2" d="M744.88,-278.75C785.8,-281.91 839.87,-287.48 887,-297 899.51,-299.53 912.9,-303.21 924.94,-306.89"/>
<polygon fill="#9a32cd" stroke="#9a32cd" points="745,-275.25 734.77,-278 744.48,-282.23 745,-275.25"/>
<text text-anchor="middle" x="831" y="-299.6" font-family="Helvetica,sans-Serif" font-size="8.00"> m_packed</text>
</g>
<!-- Node18 -->
<g id="node17" class="node">
<title>Node18</title>
<g id="a_node17"><a xlink:href="classflow_1_1Function.html" target="_top" xlink:title=" ">
<polygon fill="white" stroke="#bfbfbf" points="611,-221 611,-247 749,-247 749,-221 611,-221"/>
<text text-anchor="start" x="619" y="-236.6" font-family="Helvetica,sans-Serif" font-size="8.00">flow::Function&lt; std</text>
<text text-anchor="middle" x="680" y="-227.6" font-family="Helvetica,sans-Serif" font-size="8.00">::ostream &amp;(std::ostream &amp;)&gt;</text>
</a>
</g>
</g>
<!-- Node18&#45;&gt;Node2 -->
<g id="edge18" class="edge">
<title>Node18&#45;&gt;Node2</title>
<path fill="none" stroke="#9a32cd" stroke-dasharray="5,2" d="M759.25,-228.25C799.01,-228.21 847.19,-232.73 887,-250 915.74,-262.47 940.75,-290.32 953.83,-306.89"/>
<polygon fill="#9a32cd" stroke="#9a32cd" points="759.03,-224.75 749.07,-228.35 759.11,-231.75 759.03,-224.75"/>
<text text-anchor="middle" x="831" y="-270.6" font-family="Helvetica,sans-Serif" font-size="8.00"> m_concise_ostream_manip</text>
<text text-anchor="middle" x="831" y="-261.6" font-family="Helvetica,sans-Serif" font-size="8.00">m_type_ostream_manip</text>
<text text-anchor="middle" x="831" y="-252.6" font-family="Helvetica,sans-Serif" font-size="8.00">m_verbose_ostream_manip</text>
</g>
<!-- Node19 -->
<g id="node18" class="node">
<title>Node19</title>
<g id="a_node18"><a xlink:title=" ">
<polygon fill="white" stroke="#bfbfbf" points="621.5,-158 621.5,-202 738.5,-202 738.5,-158 621.5,-158"/>
<text text-anchor="start" x="629.5" y="-191.6" font-family="Helvetica,sans-Serif" font-size="8.00">unordered_map&lt; std</text>
<text text-anchor="start" x="629.5" y="-182.6" font-family="Helvetica,sans-Serif" font-size="8.00">::type_index, flow::</text>
<text text-anchor="start" x="629.5" y="-173.6" font-family="Helvetica,sans-Serif" font-size="8.00">net_flow::Low_lvl_packet</text>
<text text-anchor="middle" x="680" y="-164.6" font-family="Helvetica,sans-Serif" font-size="8.00">::Packet_type_info &gt;</text>
</a>
</g>
</g>
<!-- Node19&#45;&gt;Node2 -->
<g id="edge19" class="edge">
<title>Node19&#45;&gt;Node2</title>
<path fill="none" stroke="#9a32cd" stroke-dasharray="5,2" d="M748.52,-174.81C791.18,-174.69 845.81,-180.6 887,-206 925.95,-230.02 949.51,-282.14 958.85,-306.69"/>
<polygon fill="#9a32cd" stroke="#9a32cd" points="748.46,-171.31 738.51,-174.95 748.56,-178.31 748.46,-171.31"/>
<text text-anchor="start" x="785.5" y="-217.6" font-family="Helvetica,sans-Serif" font-size="8.00"> S_NATIVE_TYPE_ID_TO</text>
<text text-anchor="middle" x="831" y="-208.6" font-family="Helvetica,sans-Serif" font-size="8.00">_PACKET_TYPE_INFO</text>
</g>
<!-- Node20&#45;&gt;Node2 -->
<g id="edge20" class="edge">
<title>Node20&#45;&gt;Node2</title>
<path fill="none" stroke="#9a32cd" stroke-dasharray="5,2" d="M751.87,-122.82C794.86,-124.41 848.63,-133.05 887,-162 936.14,-199.08 955.36,-276.02 961.28,-306.83"/>
<polygon fill="#9a32cd" stroke="#9a32cd" points="751.84,-119.32 741.75,-122.57 751.66,-126.32 751.84,-119.32"/>
<text text-anchor="middle" x="831" y="-164.6" font-family="Helvetica,sans-Serif" font-size="8.00"> m_aux_raw_data</text>
</g>
<!-- Node21 -->
<g id="node20" class="node">
<title>Node21</title>
<g id="a_node20"><a xlink:title=" ">
<polygon fill="white" stroke="#bfbfbf" points="408,-127.5 408,-144.5 443,-144.5 443,-127.5 408,-127.5"/>
<text text-anchor="middle" x="425.5" y="-134.1" font-family="Helvetica,sans-Serif" font-size="8.00">char</text>
</a>
</g>
</g>
<!-- Node21&#45;&gt;Node20 -->
<g id="edge22" class="edge">
<title>Node21&#45;&gt;Node20</title>
<path fill="none" stroke="#9a32cd" stroke-dasharray="5,2" d="M453.09,-134.95C492.05,-133.4 565.73,-130.49 618.35,-128.4"/>
<polygon fill="#9a32cd" stroke="#9a32cd" points="452.92,-131.45 443.07,-135.34 453.2,-138.45 452.92,-131.45"/>
<text text-anchor="middle" x="540.5" y="-135.6" font-family="Helvetica,sans-Serif" font-size="8.00"> m_opt_rexmit_on_raw</text>
</g>
<!-- Node21&#45;&gt;Node22 -->
<g id="edge26" class="edge">
<title>Node21&#45;&gt;Node22</title>
<path fill="none" stroke="#9a32cd" stroke-dasharray="5,2" d="M452.89,-127.79C465.81,-123.93 481.64,-119.43 496,-116 537.06,-106.19 583.81,-97.28 619.78,-90.91"/>
<polygon fill="#9a32cd" stroke="#9a32cd" points="451.79,-124.47 443.24,-130.72 453.82,-131.17 451.79,-124.47"/>
<text text-anchor="middle" x="540.5" y="-118.6" font-family="Helvetica,sans-Serif" font-size="8.00"> m_num_line_id</text>
</g>
<!-- Node22&#45;&gt;Node1 -->
<g id="edge24" class="edge">
<title>Node22&#45;&gt;Node1</title>
<path fill="none" stroke="#9a32cd" stroke-dasharray="5,2" d="M750.4,-81.43C840.17,-81.6 1001.38,-80.64 1139,-73 1144.79,-72.68 1150.88,-72.24 1156.89,-71.74"/>
<polygon fill="#9a32cd" stroke="#9a32cd" points="750.35,-77.93 740.34,-81.4 750.33,-84.93 750.35,-77.93"/>
<text text-anchor="middle" x="964.5" y="-82.6" font-family="Helvetica,sans-Serif" font-size="8.00"> m_init_seq_num</text>
</g>
<!-- Node23 -->
<g id="node22" class="node">
<title>Node23</title>
<g id="a_node22"><a xlink:title=" ">
<polygon fill="white" stroke="#bfbfbf" points="403.5,-35.5 403.5,-52.5 447.5,-52.5 447.5,-35.5 403.5,-35.5"/>
<text text-anchor="middle" x="425.5" y="-42.1" font-family="Helvetica,sans-Serif" font-size="8.00">int64_t</text>
</a>
</g>
</g>
<!-- Node23&#45;&gt;Node22 -->
<g id="edge27" class="edge">
<title>Node23&#45;&gt;Node22</title>
<path fill="none" stroke="#9a32cd" stroke-dasharray="5,2" d="M457.76,-45.36C489.86,-47.08 541.17,-50.75 585,-58 600.25,-60.52 616.68,-64.2 631.47,-67.88"/>
<polygon fill="#9a32cd" stroke="#9a32cd" points="457.82,-41.86 447.65,-44.85 457.46,-48.85 457.82,-41.86"/>
<text text-anchor="middle" x="540.5" y="-60.6" font-family="Helvetica,sans-Serif" font-size="8.00"> m_multiple_size</text>
</g>
<!-- Node24 -->
<g id="node23" class="node">
<title>Node24</title>
<g id="a_node23"><a xlink:title=" ">
<polygon fill="white" stroke="#bfbfbf" points="905,-36.5 905,-53.5 1024,-53.5 1024,-36.5 905,-36.5"/>
<text text-anchor="middle" x="964.5" y="-43.1" font-family="Helvetica,sans-Serif" font-size="8.00">Blob_with_log_context&lt;&gt;</text>
</a>
</g>
</g>
<!-- Node24&#45;&gt;Node1 -->
<g id="edge28" class="edge">
<title>Node24&#45;&gt;Node1</title>
<path fill="none" stroke="#9a32cd" stroke-dasharray="5,2" d="M1034.28,-51.37C1073.66,-55.02 1122.03,-59.5 1156.86,-62.73"/>
<polygon fill="#9a32cd" stroke="#9a32cd" points="1034.49,-47.88 1024.21,-50.44 1033.84,-54.85 1034.49,-47.88"/>
<text text-anchor="middle" x="1090.5" y="-62.6" font-family="Helvetica,sans-Serif" font-size="8.00"> m_serialized_metadata</text>
</g>
<!-- Node25 -->
<g id="node24" class="node">
<title>Node25</title>
<g id="a_node24"><a xlink:title=" ">
<polygon fill="white" stroke="#bfbfbf" points="917.5,-0.5 917.5,-17.5 1011.5,-17.5 1011.5,-0.5 917.5,-0.5"/>
<text text-anchor="middle" x="964.5" y="-7.1" font-family="Helvetica,sans-Serif" font-size="8.00">static const uint8_t</text>
</a>
</g>
</g>
<!-- Node25&#45;&gt;Node1 -->
<g id="edge29" class="edge">
<title>Node25&#45;&gt;Node1</title>
<path fill="none" stroke="#9a32cd" stroke-dasharray="5,2" d="M1022.16,-15.29C1056.45,-19.95 1100.79,-27.52 1139,-39 1151.89,-42.87 1165.64,-48.65 1177.07,-53.95"/>
<polygon fill="#9a32cd" stroke="#9a32cd" points="1022.23,-11.77 1011.86,-13.93 1021.32,-18.71 1022.23,-11.77"/>
<text text-anchor="middle" x="1090.5" y="-41.6" font-family="Helvetica,sans-Serif" font-size="8.00"> S_RAW_TYPE_ID</text>
</g>
</g>
</svg>
