<?xml version="1.0" encoding="UTF-8" standalone="no"?>
<!DOCTYPE svg PUBLIC "-//W3C//DTD SVG 1.1//EN"
 "http://www.w3.org/Graphics/SVG/1.1/DTD/svg11.dtd">
<!-- Generated by graphviz version 2.43.0 (0)
 -->
<!-- Title: flow::net_flow::Low_lvl_packet::serialize_to_raw_data Pages: 1 -->
<svg width="251pt" height="44pt"
 viewBox="0.00 0.00 251.00 44.00" xmlns="http://www.w3.org/2000/svg" xmlns:xlink="http://www.w3.org/1999/xlink">
<g id="graph0" class="graph" transform="scale(1 1) rotate(0) translate(4 40)">
<title>flow::net_flow::Low_lvl_packet::serialize_to_raw_data</title>
<polygon fill="white" stroke="transparent" points="-4,4 -4,-40 247,-40 247,4 -4,4"/>
<!-- Node1 -->
<g id="node1" class="node">
<title>Node1</title>
<g id="a_node1"><a xlink:title="Serializes the current logical packet data from *this into the given Const_buffer_sequence,...">
<polygon fill="#bfbfbf" stroke="black" points="142,-0.5 142,-35.5 243,-35.5 243,-0.5 142,-0.5"/>
<text text-anchor="start" x="150" y="-25.1" font-family="Helvetica,sans-Serif" font-size="8.00">flow::net_flow::Low</text>
<text text-anchor="start" x="150" y="-16.1" font-family="Helvetica,sans-Serif" font-size="8.00">_lvl_packet::serialize</text>
<text text-anchor="middle" x="192.5" y="-7.1" font-family="Helvetica,sans-Serif" font-size="8.00">_to_raw_data</text>
</a>
</g>
</g>
<!-- Node2 -->
<g id="node2" class="node">
<title>Node2</title>
<g id="a_node2"><a xlink:href="structflow_1_1net__flow_1_1Low__lvl__packet.html#a5856c405aa18f4f54a35515786befea8" target="_top" xlink:title="Identical to serialize_to_raw_data() but adds log&#45;level&#45;appropriate logging after the operation.">
<polygon fill="white" stroke="black" points="0,-0.5 0,-35.5 106,-35.5 106,-0.5 0,-0.5"/>
<text text-anchor="start" x="8" y="-25.1" font-family="Helvetica,sans-Serif" font-size="8.00">flow::net_flow::Low</text>
<text text-anchor="start" x="8" y="-16.1" font-family="Helvetica,sans-Serif" font-size="8.00">_lvl_packet::serialize</text>
<text text-anchor="middle" x="53" y="-7.1" font-family="Helvetica,sans-Serif" font-size="8.00">_to_raw_data_and_log</text>
</a>
</g>
</g>
<!-- Node1&#45;&gt;Node2 -->
<g id="edge1" class="edge">
<title>Node1&#45;&gt;Node2</title>
<path fill="none" stroke="midnightblue" d="M131.69,-18C123.25,-18 114.63,-18 106.35,-18"/>
<polygon fill="midnightblue" stroke="midnightblue" points="131.86,-21.5 141.86,-18 131.86,-14.5 131.86,-21.5"/>
</g>
</g>
</svg>
