<?xml version="1.0" encoding="UTF-8" standalone="no"?>
<!DOCTYPE svg PUBLIC "-//W3C//DTD SVG 1.1//EN"
 "http://www.w3.org/Graphics/SVG/1.1/DTD/svg11.dtd">
<!-- Generated by graphviz version 2.43.0 (0)
 -->
<!-- Title: flow::net_flow::Peer_socket_options::setup_config_parsing_helper Pages: 1 -->
<svg width="412pt" height="98pt"
 viewBox="0.00 0.00 412.00 98.00" xmlns="http://www.w3.org/2000/svg" xmlns:xlink="http://www.w3.org/1999/xlink">
<g id="graph0" class="graph" transform="scale(1 1) rotate(0) translate(4 94)">
<title>flow::net_flow::Peer_socket_options::setup_config_parsing_helper</title>
<polygon fill="white" stroke="transparent" points="-4,4 -4,-94 408,-94 408,4 -4,4"/>
<!-- Node1 -->
<g id="node1" class="node">
<title>Node1</title>
<g id="a_node1"><a xlink:title="Analogous to Node_options::setup_config_parsing_helper().">
<polygon fill="#bfbfbf" stroke="black" points="293,-27.5 293,-62.5 404,-62.5 404,-27.5 293,-27.5"/>
<text text-anchor="start" x="301" y="-52.1" font-family="Helvetica,sans-Serif" font-size="8.00">flow::net_flow::Peer</text>
<text text-anchor="start" x="301" y="-43.1" font-family="Helvetica,sans-Serif" font-size="8.00">_socket_options::setup</text>
<text text-anchor="middle" x="348.5" y="-34.1" font-family="Helvetica,sans-Serif" font-size="8.00">_config_parsing_helper</text>
</a>
</g>
</g>
<!-- Node2 -->
<g id="node2" class="node">
<title>Node2</title>
<g id="a_node2"><a xlink:href="structflow_1_1net__flow_1_1Peer__socket__options.html#aa6d94acf3c746c8f59c91ffa824ef8bd" target="_top" xlink:title="Analogous to Node_options::setup_config_parsing().">
<polygon fill="white" stroke="black" points="146,-54.5 146,-89.5 257,-89.5 257,-54.5 146,-54.5"/>
<text text-anchor="start" x="154" y="-79.1" font-family="Helvetica,sans-Serif" font-size="8.00">flow::net_flow::Peer</text>
<text text-anchor="start" x="154" y="-70.1" font-family="Helvetica,sans-Serif" font-size="8.00">_socket_options::setup</text>
<text text-anchor="middle" x="201.5" y="-61.1" font-family="Helvetica,sans-Serif" font-size="8.00">_config_parsing</text>
</a>
</g>
</g>
<!-- Node1&#45;&gt;Node2 -->
<g id="edge1" class="edge">
<title>Node1&#45;&gt;Node2</title>
<path fill="none" stroke="midnightblue" d="M282.81,-57.04C274.33,-58.62 265.7,-60.23 257.4,-61.78"/>
<polygon fill="midnightblue" stroke="midnightblue" points="283.49,-60.48 292.68,-55.21 282.21,-53.6 283.49,-60.48"/>
</g>
<!-- Node3 -->
<g id="node3" class="node">
<title>Node3</title>
<g id="a_node3"><a xlink:href="structflow_1_1net__flow_1_1Node__options.html#a07d18f7e934d079835f5367fbf7d6d1b" target="_top" xlink:title="Loads the full set of boost.program_options config options into the given Options_description,...">
<polygon fill="white" stroke="black" points="146.5,-0.5 146.5,-35.5 256.5,-35.5 256.5,-0.5 146.5,-0.5"/>
<text text-anchor="start" x="154.5" y="-25.1" font-family="Helvetica,sans-Serif" font-size="8.00">flow::net_flow::Node</text>
<text text-anchor="start" x="154.5" y="-16.1" font-family="Helvetica,sans-Serif" font-size="8.00">_options::setup_config</text>
<text text-anchor="middle" x="201.5" y="-7.1" font-family="Helvetica,sans-Serif" font-size="8.00">_parsing_helper</text>
</a>
</g>
</g>
<!-- Node1&#45;&gt;Node3 -->
<g id="edge2" class="edge">
<title>Node1&#45;&gt;Node3</title>
<path fill="none" stroke="midnightblue" d="M282.68,-32.93C274.07,-31.33 265.32,-29.7 256.91,-28.13"/>
<polygon fill="midnightblue" stroke="midnightblue" points="282.21,-36.4 292.68,-34.79 283.49,-29.52 282.21,-36.4"/>
</g>
<!-- Node4 -->
<g id="node4" class="node">
<title>Node4</title>
<g id="a_node4"><a xlink:href="structflow_1_1net__flow_1_1Node__options.html#a5819e60ed58aafb496e39962c89215f1" target="_top" xlink:title="Modifies a boost.program_options options description object to enable subsequent parsing of a command...">
<polygon fill="white" stroke="black" points="0,-0.5 0,-35.5 110,-35.5 110,-0.5 0,-0.5"/>
<text text-anchor="start" x="8" y="-25.1" font-family="Helvetica,sans-Serif" font-size="8.00">flow::net_flow::Node</text>
<text text-anchor="start" x="8" y="-16.1" font-family="Helvetica,sans-Serif" font-size="8.00">_options::setup_config</text>
<text text-anchor="middle" x="55" y="-7.1" font-family="Helvetica,sans-Serif" font-size="8.00">_parsing</text>
</a>
</g>
</g>
<!-- Node3&#45;&gt;Node4 -->
<g id="edge3" class="edge">
<title>Node3&#45;&gt;Node4</title>
<path fill="none" stroke="midnightblue" d="M136.15,-18C127.43,-18 118.55,-18 110.04,-18"/>
<polygon fill="midnightblue" stroke="midnightblue" points="136.28,-21.5 146.28,-18 136.28,-14.5 136.28,-21.5"/>
</g>
</g>
</svg>
