<?xml version="1.0" encoding="UTF-8" standalone="no"?>
<!DOCTYPE svg PUBLIC "-//W3C//DTD SVG 1.1//EN"
 "http://www.w3.org/Graphics/SVG/1.1/DTD/svg11.dtd">
<!-- Generated by graphviz version 2.43.0 (0)
 -->
<!-- Title: flow::net_flow::Syn_ack_ack_packet::to_ostream Pages: 1 -->
<svg width="255pt" height="44pt"
 viewBox="0.00 0.00 255.00 44.00" xmlns="http://www.w3.org/2000/svg" xmlns:xlink="http://www.w3.org/1999/xlink">
<g id="graph0" class="graph" transform="scale(1 1) rotate(0) translate(4 40)">
<title>flow::net_flow::Syn_ack_ack_packet::to_ostream</title>
<polygon fill="white" stroke="transparent" points="-4,4 -4,-40 251,-40 251,4 -4,4"/>
<!-- Node1 -->
<g id="node1" class="node">
<title>Node1</title>
<g id="a_node1"><a xlink:title="Implements Low_lvl_packet API.">
<polygon fill="#bfbfbf" stroke="black" points="0,-0.5 0,-35.5 98,-35.5 98,-0.5 0,-0.5"/>
<text text-anchor="start" x="8" y="-25.1" font-family="Helvetica,sans-Serif" font-size="8.00">flow::net_flow::Syn</text>
<text text-anchor="start" x="8" y="-16.1" font-family="Helvetica,sans-Serif" font-size="8.00">_ack_ack_packet::to</text>
<text text-anchor="middle" x="49" y="-7.1" font-family="Helvetica,sans-Serif" font-size="8.00">_ostream</text>
</a>
</g>
</g>
<!-- Node2 -->
<g id="node2" class="node">
<title>Node2</title>
<g id="a_node2"><a xlink:href="structflow_1_1net__flow_1_1Low__lvl__packet.html#a47e9143f0b9dd4ae9d8c5ace666d5539" target="_top" xlink:title="Writes a multi&#45;line representation of *this to an output stream.">
<polygon fill="white" stroke="black" points="134,-5 134,-31 247,-31 247,-5 134,-5"/>
<text text-anchor="start" x="142" y="-20.6" font-family="Helvetica,sans-Serif" font-size="8.00">flow::net_flow::Low</text>
<text text-anchor="middle" x="190.5" y="-11.6" font-family="Helvetica,sans-Serif" font-size="8.00">_lvl_packet::to_ostream</text>
</a>
</g>
</g>
<!-- Node1&#45;&gt;Node2 -->
<g id="edge1" class="edge">
<title>Node1&#45;&gt;Node2</title>
<path fill="none" stroke="midnightblue" d="M98.01,-18C106.28,-18 115,-18 123.65,-18"/>
<polygon fill="midnightblue" stroke="midnightblue" points="123.72,-21.5 133.72,-18 123.72,-14.5 123.72,-21.5"/>
</g>
</g>
</svg>
