<?xml version="1.0" encoding="UTF-8" standalone="no"?>
<!DOCTYPE svg PUBLIC "-//W3C//DTD SVG 1.1//EN"
 "http://www.w3.org/Graphics/SVG/1.1/DTD/svg11.dtd">
<!-- Generated by graphviz version 2.43.0 (0)
 -->
<!-- Title: flow::net_flow::Low_lvl_packet::type_to_ostream Pages: 1 -->
<svg width="237pt" height="44pt"
 viewBox="0.00 0.00 237.00 44.00" xmlns="http://www.w3.org/2000/svg" xmlns:xlink="http://www.w3.org/1999/xlink">
<g id="graph0" class="graph" transform="scale(1 1) rotate(0) translate(4 40)">
<title>flow::net_flow::Low_lvl_packet::type_to_ostream</title>
<polygon fill="white" stroke="transparent" points="-4,4 -4,-40 233,-40 233,4 -4,4"/>
<!-- Node1 -->
<g id="node1" class="node">
<title>Node1</title>
<g id="a_node1"><a xlink:title="Writes a brief representation of typeid(*this) – i.e., the packet type (ACK, RST, etc....">
<polygon fill="#bfbfbf" stroke="black" points="132,-0.5 132,-35.5 229,-35.5 229,-0.5 132,-0.5"/>
<text text-anchor="start" x="140" y="-25.1" font-family="Helvetica,sans-Serif" font-size="8.00">flow::net_flow::Low</text>
<text text-anchor="start" x="140" y="-16.1" font-family="Helvetica,sans-Serif" font-size="8.00">_lvl_packet::type_to</text>
<text text-anchor="middle" x="180.5" y="-7.1" font-family="Helvetica,sans-Serif" font-size="8.00">_ostream</text>
</a>
</g>
</g>
<!-- Node2 -->
<g id="node2" class="node">
<title>Node2</title>
<g id="a_node2"><a xlink:href="structflow_1_1net__flow_1_1Low__lvl__packet.html#a4a0585d1abae63af891161f1719bc582" target="_top" xlink:title="Constructs packet with uninitialized (essentially random) values.">
<polygon fill="white" stroke="black" points="0,-0.5 0,-35.5 96,-35.5 96,-0.5 0,-0.5"/>
<text text-anchor="start" x="8" y="-25.1" font-family="Helvetica,sans-Serif" font-size="8.00">flow::net_flow::Low</text>
<text text-anchor="start" x="8" y="-16.1" font-family="Helvetica,sans-Serif" font-size="8.00">_lvl_packet::Low_lvl</text>
<text text-anchor="middle" x="48" y="-7.1" font-family="Helvetica,sans-Serif" font-size="8.00">_packet</text>
</a>
</g>
</g>
<!-- Node1&#45;&gt;Node2 -->
<g id="edge1" class="edge">
<title>Node1&#45;&gt;Node2</title>
<path fill="none" stroke="midnightblue" d="M121.52,-18C113.13,-18 104.57,-18 96.41,-18"/>
<polygon fill="midnightblue" stroke="midnightblue" points="121.65,-21.5 131.65,-18 121.65,-14.5 121.65,-21.5"/>
</g>
</g>
</svg>
