<?xml version="1.0" encoding="UTF-8" standalone="no"?>
<!DOCTYPE svg PUBLIC "-//W3C//DTD SVG 1.1//EN"
 "http://www.w3.org/Graphics/SVG/1.1/DTD/svg11.dtd">
<!-- Generated by graphviz version 2.43.0 (0)
 -->
<!-- Title: flow::net_flow::Rst_packet Pages: 1 -->
<svg width="421pt" height="152pt"
 viewBox="0.00 0.00 421.00 152.00" xmlns="http://www.w3.org/2000/svg" xmlns:xlink="http://www.w3.org/1999/xlink">
<g id="graph0" class="graph" transform="scale(1 1) rotate(0) translate(4 148)">
<title>flow::net_flow::Rst_packet</title>
<polygon fill="white" stroke="transparent" points="-4,4 -4,-148 417,-148 417,4 -4,4"/>
<!-- Node1 -->
<g id="node1" class="node">
<title>Node1</title>
<g id="a_node1"><a xlink:title="Internal net_flow struct that encapsulates the Flow&#45;protocol low&#45;level RST packet.">
<polygon fill="#bfbfbf" stroke="black" points="321,-54 321,-80 413,-80 413,-54 321,-54"/>
<text text-anchor="start" x="329" y="-69.6" font-family="Helvetica,sans-Serif" font-size="8.00">flow::net_flow::Rst</text>
<text text-anchor="middle" x="367" y="-60.6" font-family="Helvetica,sans-Serif" font-size="8.00">_packet</text>
</a>
</g>
</g>
<!-- Node2 -->
<g id="node2" class="node">
<title>Node2</title>
<g id="a_node2"><a xlink:href="structflow_1_1net__flow_1_1Low__lvl__packet.html" target="_top" xlink:title="Internal net_flow struct that encapsulates the Flow&#45;protocol low&#45;level packet structure and serves as...">
<polygon fill="white" stroke="black" points="190,-54 190,-80 285,-80 285,-54 190,-54"/>
<text text-anchor="start" x="198" y="-69.6" font-family="Helvetica,sans-Serif" font-size="8.00">flow::net_flow::Low</text>
<text text-anchor="middle" x="237.5" y="-60.6" font-family="Helvetica,sans-Serif" font-size="8.00">_lvl_packet</text>
</a>
</g>
</g>
<!-- Node2&#45;&gt;Node1 -->
<g id="edge1" class="edge">
<title>Node2&#45;&gt;Node1</title>
<path fill="none" stroke="midnightblue" d="M295.52,-67C304.04,-67 312.73,-67 320.95,-67"/>
<polygon fill="midnightblue" stroke="midnightblue" points="295.25,-63.5 285.25,-67 295.25,-70.5 295.25,-63.5"/>
</g>
<!-- Node3 -->
<g id="node3" class="node">
<title>Node3</title>
<g id="a_node3"><a xlink:href="classflow_1_1util_1_1Null__interface.html" target="_top" xlink:title="An empty interface, consisting of nothing but a default virtual destructor, intended as a boiler&#45;plat...">
<polygon fill="white" stroke="black" points="20,-126.5 20,-143.5 134,-143.5 134,-126.5 20,-126.5"/>
<text text-anchor="middle" x="77" y="-133.1" font-family="Helvetica,sans-Serif" font-size="8.00">flow::util::Null_interface</text>
</a>
</g>
</g>
<!-- Node3&#45;&gt;Node2 -->
<g id="edge2" class="edge">
<title>Node3&#45;&gt;Node2</title>
<path fill="none" stroke="midnightblue" d="M134.36,-123.75C141.08,-121.8 147.76,-119.56 154,-117 177.71,-107.29 202.55,-91.33 218.7,-80.05"/>
<polygon fill="midnightblue" stroke="midnightblue" points="133.28,-120.42 124.54,-126.41 135.11,-127.17 133.28,-120.42"/>
</g>
<!-- Node4 -->
<g id="node4" class="node">
<title>Node4</title>
<g id="a_node4"><a xlink:href="classflow_1_1util_1_1Shared__ptr__alias__holder.html" target="_top" xlink:title=" ">
<polygon fill="white" stroke="black" points="0,-72.5 0,-107.5 154,-107.5 154,-72.5 0,-72.5"/>
<text text-anchor="start" x="8" y="-97.1" font-family="Helvetica,sans-Serif" font-size="8.00">flow::util::Shared</text>
<text text-anchor="start" x="8" y="-88.1" font-family="Helvetica,sans-Serif" font-size="8.00">_ptr_alias_holder&lt; boost</text>
<text text-anchor="middle" x="77" y="-79.1" font-family="Helvetica,sans-Serif" font-size="8.00">::shared_ptr&lt; Low_lvl_packet &gt; &gt;</text>
</a>
</g>
</g>
<!-- Node4&#45;&gt;Node2 -->
<g id="edge3" class="edge">
<title>Node4&#45;&gt;Node2</title>
<path fill="none" stroke="midnightblue" d="M164.04,-77.52C172.9,-76.23 181.66,-74.96 189.85,-73.77"/>
<polygon fill="midnightblue" stroke="midnightblue" points="163.39,-74.07 154,-78.97 164.4,-81 163.39,-74.07"/>
</g>
<!-- Node5 -->
<g id="node5" class="node">
<title>Node5</title>
<g id="a_node5"><a xlink:href="classflow_1_1log_1_1Log__context.html" target="_top" xlink:title="Convenience class that simply stores a Logger and/or Component passed into a constructor; and returns...">
<polygon fill="white" stroke="black" points="23.5,-36.5 23.5,-53.5 130.5,-53.5 130.5,-36.5 23.5,-36.5"/>
<text text-anchor="middle" x="77" y="-43.1" font-family="Helvetica,sans-Serif" font-size="8.00">flow::log::Log_context</text>
</a>
</g>
</g>
<!-- Node5&#45;&gt;Node2 -->
<g id="edge4" class="edge">
<title>Node5&#45;&gt;Node2</title>
<path fill="none" stroke="midnightblue" d="M140.8,-53.72C157.14,-55.99 174.46,-58.39 189.81,-60.52"/>
<polygon fill="midnightblue" stroke="midnightblue" points="141.16,-50.23 130.78,-52.33 140.2,-57.17 141.16,-50.23"/>
</g>
<!-- Node6 -->
<g id="node6" class="node">
<title>Node6</title>
<g id="a_node6"><a xlink:title=" ">
<polygon fill="white" stroke="#bfbfbf" points="27.5,-0.5 27.5,-17.5 126.5,-17.5 126.5,-0.5 27.5,-0.5"/>
<text text-anchor="middle" x="77" y="-7.1" font-family="Helvetica,sans-Serif" font-size="8.00">boost::noncopyable</text>
</a>
</g>
</g>
<!-- Node6&#45;&gt;Node2 -->
<g id="edge5" class="edge">
<title>Node6&#45;&gt;Node2</title>
<path fill="none" stroke="#8b1a1a" d="M131.19,-20.03C138.92,-22.08 146.72,-24.41 154,-27 174.54,-34.31 196.73,-45.26 212.91,-53.85"/>
<polygon fill="#8b1a1a" stroke="#8b1a1a" points="132.04,-16.63 121.48,-17.57 130.32,-23.42 132.04,-16.63"/>
</g>
</g>
</svg>
