<?xml version="1.0" encoding="UTF-8" standalone="no"?>
<!DOCTYPE svg PUBLIC "-//W3C//DTD SVG 1.1//EN"
 "http://www.w3.org/Graphics/SVG/1.1/DTD/svg11.dtd">
<!-- Generated by graphviz version 2.43.0 (0)
 -->
<!-- Title: flow::log::Async_file_logger::Throttling_cfg Pages: 1 -->
<svg width="146pt" height="107pt"
 viewBox="0.00 0.00 145.50 107.00" xmlns="http://www.w3.org/2000/svg" xmlns:xlink="http://www.w3.org/1999/xlink">
<g id="graph0" class="graph" transform="scale(1 1) rotate(0) translate(4 103)">
<title>flow::log::Async_file_logger::Throttling_cfg</title>
<polygon fill="white" stroke="transparent" points="-4,4 -4,-103 141.5,-103 141.5,4 -4,4"/>
<!-- Node1 -->
<g id="node1" class="node">
<title>Node1</title>
<g id="a_node1"><a xlink:title="Controls behavior of the throttling algorithm as described in Async_file_logger doc header Throttling...">
<polygon fill="#bfbfbf" stroke="black" points="0,-0.5 0,-26.5 109,-26.5 109,-0.5 0,-0.5"/>
<text text-anchor="start" x="8" y="-16.1" font-family="Helvetica,sans-Serif" font-size="8.00">flow::log::Async_file</text>
<text text-anchor="middle" x="54.5" y="-7.1" font-family="Helvetica,sans-Serif" font-size="8.00">_logger::Throttling_cfg</text>
</a>
</g>
</g>
<!-- Node2 -->
<g id="node2" class="node">
<title>Node2</title>
<g id="a_node2"><a xlink:title=" ">
<polygon fill="white" stroke="#bfbfbf" points="29.5,-81.5 29.5,-98.5 79.5,-98.5 79.5,-81.5 29.5,-81.5"/>
<text text-anchor="middle" x="54.5" y="-88.1" font-family="Helvetica,sans-Serif" font-size="8.00">uint64_t</text>
</a>
</g>
</g>
<!-- Node2&#45;&gt;Node1 -->
<g id="edge1" class="edge">
<title>Node2&#45;&gt;Node1</title>
<path fill="none" stroke="#9a32cd" stroke-dasharray="5,2" d="M54.5,-71.16C54.5,-57.42 54.5,-38.77 54.5,-26.69"/>
<polygon fill="#9a32cd" stroke="#9a32cd" points="51,-71.31 54.5,-81.31 58,-71.31 51,-71.31"/>
<text text-anchor="middle" x="96" y="-56.6" font-family="Helvetica,sans-Serif" font-size="8.00"> S_HI_LIMIT_DEFAULT</text>
<text text-anchor="middle" x="96" y="-47.6" font-family="Helvetica,sans-Serif" font-size="8.00">m_hi_limit</text>
</g>
</g>
</svg>
