<?xml version="1.0" encoding="UTF-8" standalone="no"?>
<!DOCTYPE svg PUBLIC "-//W3C//DTD SVG 1.1//EN"
 "http://www.w3.org/Graphics/SVG/1.1/DTD/svg11.dtd">
<!-- Generated by graphviz version 2.43.0 (0)
 -->
<!-- Title: flow::async::Timed_single_thread_task_loop Pages: 1 -->
<svg width="248pt" height="152pt"
 viewBox="0.00 0.00 247.50 152.00" xmlns="http://www.w3.org/2000/svg" xmlns:xlink="http://www.w3.org/1999/xlink">
<g id="graph0" class="graph" transform="scale(1 1) rotate(0) translate(4 148)">
<title>flow::async::Timed_single_thread_task_loop</title>
<polygon fill="white" stroke="transparent" points="-4,4 -4,-148 243.5,-148 243.5,4 -4,4"/>
<!-- Node1 -->
<g id="node1" class="node">
<title>Node1</title>
<g id="a_node1"><a xlink:title="Identical to Single_thread_task_loop, but all tasks posted through it are automatically timed,...">
<polygon fill="#bfbfbf" stroke="black" points="58,-0.5 58,-26.5 177,-26.5 177,-0.5 58,-0.5"/>
<text text-anchor="start" x="66" y="-16.1" font-family="Helvetica,sans-Serif" font-size="8.00">flow::async::Timed</text>
<text text-anchor="middle" x="117.5" y="-7.1" font-family="Helvetica,sans-Serif" font-size="8.00">_single_thread_task_loop</text>
</a>
</g>
</g>
<!-- Node2 -->
<g id="node2" class="node">
<title>Node2</title>
<g id="a_node2"><a xlink:href="classflow_1_1async_1_1Single__thread__task__loop.html" target="_top" xlink:title="A Concurrent_task_loop&#45;related adapter&#45;style class that represents a single&#45;thread task loop; essenti...">
<polygon fill="white" stroke="black" points="70,-63.5 70,-89.5 165,-89.5 165,-63.5 70,-63.5"/>
<text text-anchor="start" x="78" y="-79.1" font-family="Helvetica,sans-Serif" font-size="8.00">flow::async::Single</text>
<text text-anchor="middle" x="117.5" y="-70.1" font-family="Helvetica,sans-Serif" font-size="8.00">_thread_task_loop</text>
</a>
</g>
</g>
<!-- Node2&#45;&gt;Node1 -->
<g id="edge1" class="edge">
<title>Node2&#45;&gt;Node1</title>
<path fill="none" stroke="midnightblue" d="M117.5,-53.19C117.5,-44.18 117.5,-34.12 117.5,-26.53"/>
<polygon fill="midnightblue" stroke="midnightblue" points="114,-53.45 117.5,-63.45 121,-53.45 114,-53.45"/>
</g>
<!-- Node3 -->
<g id="node3" class="node">
<title>Node3</title>
<g id="a_node3"><a xlink:href="classflow_1_1log_1_1Log__context.html" target="_top" xlink:title="Convenience class that simply stores a Logger and/or Component passed into a constructor; and returns...">
<polygon fill="white" stroke="black" points="0,-126.5 0,-143.5 107,-143.5 107,-126.5 0,-126.5"/>
<text text-anchor="middle" x="53.5" y="-133.1" font-family="Helvetica,sans-Serif" font-size="8.00">flow::log::Log_context</text>
</a>
</g>
</g>
<!-- Node3&#45;&gt;Node2 -->
<g id="edge2" class="edge">
<title>Node3&#45;&gt;Node2</title>
<path fill="none" stroke="midnightblue" d="M69.76,-119.65C80.22,-110.41 93.67,-98.54 103.63,-89.75"/>
<polygon fill="midnightblue" stroke="midnightblue" points="67.31,-117.14 62.13,-126.38 71.94,-122.39 67.31,-117.14"/>
</g>
<!-- Node4 -->
<g id="node4" class="node">
<title>Node4</title>
<g id="a_node4"><a xlink:href="classflow_1_1util_1_1Null__interface.html" target="_top" xlink:title="An empty interface, consisting of nothing but a default virtual destructor, intended as a boiler&#45;plat...">
<polygon fill="white" stroke="black" points="125.5,-126.5 125.5,-143.5 239.5,-143.5 239.5,-126.5 125.5,-126.5"/>
<text text-anchor="middle" x="182.5" y="-133.1" font-family="Helvetica,sans-Serif" font-size="8.00">flow::util::Null_interface</text>
</a>
</g>
</g>
<!-- Node4&#45;&gt;Node2 -->
<g id="edge3" class="edge">
<title>Node4&#45;&gt;Node2</title>
<path fill="none" stroke="midnightblue" d="M165.99,-119.65C155.36,-110.41 141.7,-98.54 131.59,-89.75"/>
<polygon fill="midnightblue" stroke="midnightblue" points="163.89,-122.46 173.73,-126.38 168.48,-117.18 163.89,-122.46"/>
</g>
</g>
</svg>
