<?xml version="1.0" encoding="UTF-8" standalone="no"?>
<!DOCTYPE svg PUBLIC "-//W3C//DTD SVG 1.1//EN"
 "http://www.w3.org/Graphics/SVG/1.1/DTD/svg11.dtd">
<!-- Generated by graphviz version 2.43.0 (0)
 -->
<!-- Title: flow::util::Blob_with_log_context&lt; SHARING &gt; Pages: 1 -->
<svg width="275pt" height="80pt"
 viewBox="0.00 0.00 275.00 80.00" xmlns="http://www.w3.org/2000/svg" xmlns:xlink="http://www.w3.org/1999/xlink">
<g id="graph0" class="graph" transform="scale(1 1) rotate(0) translate(4 76)">
<title>flow::util::Blob_with_log_context&lt; SHARING &gt;</title>
<polygon fill="white" stroke="transparent" points="-4,4 -4,-76 271,-76 271,4 -4,4"/>
<!-- Node1 -->
<g id="node1" class="node">
<title>Node1</title>
<g id="a_node1"><a xlink:title="Basic_blob that works in regular heap (and is itself placed in heap or stack) and memorizes a log::Lo...">
<polygon fill="#bfbfbf" stroke="black" points="146,-27 146,-53 267,-53 267,-27 146,-27"/>
<text text-anchor="start" x="154" y="-42.6" font-family="Helvetica,sans-Serif" font-size="8.00">flow::util::Blob_with</text>
<text text-anchor="middle" x="206.5" y="-33.6" font-family="Helvetica,sans-Serif" font-size="8.00">_log_context&lt; SHARING &gt;</text>
</a>
</g>
</g>
<!-- Node2 -->
<g id="node2" class="node">
<title>Node2</title>
<g id="a_node2"><a xlink:href="classflow_1_1log_1_1Log__context.html" target="_top" xlink:title="Convenience class that simply stores a Logger and/or Component passed into a constructor; and returns...">
<polygon fill="white" stroke="black" points="1.5,-54.5 1.5,-71.5 108.5,-71.5 108.5,-54.5 1.5,-54.5"/>
<text text-anchor="middle" x="55" y="-61.1" font-family="Helvetica,sans-Serif" font-size="8.00">flow::log::Log_context</text>
</a>
</g>
</g>
<!-- Node2&#45;&gt;Node1 -->
<g id="edge1" class="edge">
<title>Node2&#45;&gt;Node1</title>
<path fill="none" stroke="midnightblue" d="M118.73,-53.35C127.72,-51.97 136.95,-50.55 145.87,-49.17"/>
<polygon fill="midnightblue" stroke="midnightblue" points="118.06,-49.91 108.71,-54.89 119.12,-56.83 118.06,-49.91"/>
</g>
<!-- Node3 -->
<g id="node3" class="node">
<title>Node3</title>
<g id="a_node3"><a xlink:href="classflow_1_1util_1_1Basic__blob.html" target="_top" xlink:title=" ">
<polygon fill="white" stroke="black" points="0,-0.5 0,-35.5 110,-35.5 110,-0.5 0,-0.5"/>
<text text-anchor="start" x="8" y="-25.1" font-family="Helvetica,sans-Serif" font-size="8.00">flow::util::Basic_blob</text>
<text text-anchor="start" x="8" y="-16.1" font-family="Helvetica,sans-Serif" font-size="8.00">&lt; std::allocator&lt; uint8</text>
<text text-anchor="middle" x="55" y="-7.1" font-family="Helvetica,sans-Serif" font-size="8.00">_t &gt;, SHARING &gt;</text>
</a>
</g>
</g>
<!-- Node3&#45;&gt;Node1 -->
<g id="edge2" class="edge">
<title>Node3&#45;&gt;Node1</title>
<path fill="none" stroke="midnightblue" d="M120.53,-27.5C128.94,-28.73 137.52,-30 145.84,-31.22"/>
<polygon fill="midnightblue" stroke="midnightblue" points="120.8,-24 110.4,-26 119.78,-30.92 120.8,-24"/>
</g>
</g>
</svg>
