<?xml version="1.0" encoding="UTF-8" standalone="no"?>
<!DOCTYPE svg PUBLIC "-//W3C//DTD SVG 1.1//EN"
 "http://www.w3.org/Graphics/SVG/1.1/DTD/svg11.dtd">
<!-- Generated by graphviz version 2.43.0 (0)
 -->
<!-- Title: flow::cfg::Option_set&lt; Value_set &gt; Pages: 1 -->
<svg width="258pt" height="89pt"
 viewBox="0.00 0.00 258.00 89.00" xmlns="http://www.w3.org/2000/svg" xmlns:xlink="http://www.w3.org/1999/xlink">
<g id="graph0" class="graph" transform="scale(1 1) rotate(0) translate(4 85)">
<title>flow::cfg::Option_set&lt; Value_set &gt;</title>
<polygon fill="white" stroke="transparent" points="-4,4 -4,-85 254,-85 254,4 -4,4"/>
<!-- Node1 -->
<g id="node1" class="node">
<title>Node1</title>
<g id="a_node1"><a xlink:title="The core config&#45;parsing facility, which builds parsing/comparison/output capabilities on top of a giv...">
<polygon fill="#bfbfbf" stroke="black" points="79,-0.5 79,-26.5 180,-26.5 180,-0.5 79,-0.5"/>
<text text-anchor="start" x="87" y="-16.1" font-family="Helvetica,sans-Serif" font-size="8.00">flow::cfg::Option_set</text>
<text text-anchor="middle" x="129.5" y="-7.1" font-family="Helvetica,sans-Serif" font-size="8.00">&lt; Value_set &gt;</text>
</a>
</g>
</g>
<!-- Node2 -->
<g id="node2" class="node">
<title>Node2</title>
<g id="a_node2"><a xlink:href="classflow_1_1cfg_1_1Option__set__base.html" target="_top" xlink:title="Un&#45;templated base for Option_set.">
<polygon fill="white" stroke="black" points="0,-63.5 0,-80.5 125,-80.5 125,-63.5 0,-63.5"/>
<text text-anchor="middle" x="62.5" y="-70.1" font-family="Helvetica,sans-Serif" font-size="8.00">flow::cfg::Option_set_base</text>
</a>
</g>
</g>
<!-- Node2&#45;&gt;Node1 -->
<g id="edge1" class="edge">
<title>Node2&#45;&gt;Node1</title>
<path fill="none" stroke="midnightblue" d="M79.25,-56.88C90.33,-47.53 104.7,-35.42 115.23,-26.53"/>
<polygon fill="midnightblue" stroke="midnightblue" points="76.92,-54.26 71.54,-63.38 81.44,-59.61 76.92,-54.26"/>
</g>
<!-- Node3 -->
<g id="node3" class="node">
<title>Node3</title>
<g id="a_node3"><a xlink:href="classflow_1_1log_1_1Log__context.html" target="_top" xlink:title="Convenience class that simply stores a Logger and/or Component passed into a constructor; and returns...">
<polygon fill="white" stroke="black" points="143,-63.5 143,-80.5 250,-80.5 250,-63.5 143,-63.5"/>
<text text-anchor="middle" x="196.5" y="-70.1" font-family="Helvetica,sans-Serif" font-size="8.00">flow::log::Log_context</text>
</a>
</g>
</g>
<!-- Node3&#45;&gt;Node1 -->
<g id="edge2" class="edge">
<title>Node3&#45;&gt;Node1</title>
<path fill="none" stroke="midnightblue" d="M179.75,-56.88C168.67,-47.53 154.3,-35.42 143.77,-26.53"/>
<polygon fill="midnightblue" stroke="midnightblue" points="177.56,-59.61 187.46,-63.38 182.08,-54.26 177.56,-59.61"/>
</g>
</g>
</svg>
