<?xml version="1.0" encoding="UTF-8" standalone="no"?>
<!DOCTYPE svg PUBLIC "-//W3C//DTD SVG 1.1//EN"
 "http://www.w3.org/Graphics/SVG/1.1/DTD/svg11.dtd">
<!-- Generated by graphviz version 2.43.0 (0)
 -->
<!-- Title: flow::log::Buffer_logger Pages: 1 -->
<svg width="228pt" height="143pt"
 viewBox="0.00 0.00 227.50 143.00" xmlns="http://www.w3.org/2000/svg" xmlns:xlink="http://www.w3.org/1999/xlink">
<g id="graph0" class="graph" transform="scale(1 1) rotate(0) translate(4 139)">
<title>flow::log::Buffer_logger</title>
<polygon fill="white" stroke="transparent" points="-4,4 -4,-139 223.5,-139 223.5,4 -4,4"/>
<!-- Node1 -->
<g id="node1" class="node">
<title>Node1</title>
<g id="a_node1"><a xlink:title="An implementation of Logger that logs messages to an internal std::string buffer and provides read&#45;on...">
<polygon fill="#bfbfbf" stroke="black" points="60,-0.5 60,-17.5 172,-17.5 172,-0.5 60,-0.5"/>
<text text-anchor="middle" x="116" y="-7.1" font-family="Helvetica,sans-Serif" font-size="8.00">flow::log::Buffer_logger</text>
</a>
</g>
</g>
<!-- Node2 -->
<g id="node2" class="node">
<title>Node2</title>
<g id="a_node2"><a xlink:href="classflow_1_1log_1_1Logger.html" target="_top" xlink:title="Interface that the user should implement, passing the implementing Logger into logging classes (Flow&#39;...">
<polygon fill="white" stroke="black" points="73,-54.5 73,-71.5 159,-71.5 159,-54.5 73,-54.5"/>
<text text-anchor="middle" x="116" y="-61.1" font-family="Helvetica,sans-Serif" font-size="8.00">flow::log::Logger</text>
</a>
</g>
</g>
<!-- Node2&#45;&gt;Node1 -->
<g id="edge1" class="edge">
<title>Node2&#45;&gt;Node1</title>
<path fill="none" stroke="midnightblue" d="M116,-44.06C116,-35.06 116,-24.63 116,-17.7"/>
<polygon fill="midnightblue" stroke="midnightblue" points="112.5,-44.33 116,-54.33 119.5,-44.33 112.5,-44.33"/>
</g>
<!-- Node3 -->
<g id="node3" class="node">
<title>Node3</title>
<g id="a_node3"><a xlink:href="classflow_1_1util_1_1Null__interface.html" target="_top" xlink:title="An empty interface, consisting of nothing but a default virtual destructor, intended as a boiler&#45;plat...">
<polygon fill="white" stroke="black" points="0,-113 0,-130 114,-130 114,-113 0,-113"/>
<text text-anchor="middle" x="57" y="-119.6" font-family="Helvetica,sans-Serif" font-size="8.00">flow::util::Null_interface</text>
</a>
</g>
</g>
<!-- Node3&#45;&gt;Node2 -->
<g id="edge2" class="edge">
<title>Node3&#45;&gt;Node2</title>
<path fill="none" stroke="midnightblue" d="M72.69,-105.47C84.01,-94.64 98.83,-80.45 107.87,-71.79"/>
<polygon fill="midnightblue" stroke="midnightblue" points="70.01,-103.2 65.2,-112.64 74.85,-108.26 70.01,-103.2"/>
</g>
<!-- Node4 -->
<g id="node4" class="node">
<title>Node4</title>
<g id="a_node4"><a xlink:href="classflow_1_1util_1_1Unique__id__holder.html" target="_top" xlink:title="Each object of this class stores (at construction) and returns (on demand) a numeric ID unique from a...">
<polygon fill="white" stroke="black" points="132.5,-108.5 132.5,-134.5 219.5,-134.5 219.5,-108.5 132.5,-108.5"/>
<text text-anchor="start" x="140.5" y="-124.1" font-family="Helvetica,sans-Serif" font-size="8.00">flow::util::Unique</text>
<text text-anchor="middle" x="176" y="-115.1" font-family="Helvetica,sans-Serif" font-size="8.00">_id_holder</text>
</a>
</g>
</g>
<!-- Node4&#45;&gt;Node2 -->
<g id="edge3" class="edge">
<title>Node4&#45;&gt;Node2</title>
<path fill="none" stroke="midnightblue" d="M155.52,-101.22C144.71,-91.03 132.05,-79.11 124.03,-71.56"/>
<polygon fill="midnightblue" stroke="midnightblue" points="153.3,-103.93 162.98,-108.24 158.1,-98.84 153.3,-103.93"/>
</g>
</g>
</svg>
