<?xml version="1.0" encoding="UTF-8" standalone="no"?>
<!DOCTYPE svg PUBLIC "-//W3C//DTD SVG 1.1//EN"
 "http://www.w3.org/Graphics/SVG/1.1/DTD/svg11.dtd">
<!-- Generated by graphviz version 2.43.0 (0)
 -->
<!-- Title: flow::async::Timed_concurrent_task_loop Pages: 1 -->
<svg width="570pt" height="53pt"
 viewBox="0.00 0.00 570.00 53.00" xmlns="http://www.w3.org/2000/svg" xmlns:xlink="http://www.w3.org/1999/xlink">
<g id="graph0" class="graph" transform="scale(1 1) rotate(0) translate(4 49)">
<title>flow::async::Timed_concurrent_task_loop</title>
<polygon fill="white" stroke="transparent" points="-4,4 -4,-49 566,-49 566,4 -4,4"/>
<!-- Node1 -->
<g id="node1" class="node">
<title>Node1</title>
<g id="a_node1"><a xlink:title="Decorates a general – potentially multi&#45;threaded – Concurrent_task_loop of any kind but with timing c...">
<polygon fill="#bfbfbf" stroke="black" points="455,-9.5 455,-35.5 562,-35.5 562,-9.5 455,-9.5"/>
<text text-anchor="start" x="463" y="-25.1" font-family="Helvetica,sans-Serif" font-size="8.00">flow::async::Timed</text>
<text text-anchor="middle" x="508.5" y="-16.1" font-family="Helvetica,sans-Serif" font-size="8.00">_concurrent_task_loop</text>
</a>
</g>
</g>
<!-- Node2 -->
<g id="node2" class="node">
<title>Node2</title>
<g id="a_node2"><a xlink:href="classflow_1_1async_1_1Timed__concurrent__task__loop__impl.html" target="_top" xlink:title=" ">
<polygon fill="white" stroke="black" points="300,-0.5 300,-44.5 419,-44.5 419,-0.5 300,-0.5"/>
<text text-anchor="start" x="308" y="-34.1" font-family="Helvetica,sans-Serif" font-size="8.00">flow::async::Timed</text>
<text text-anchor="start" x="308" y="-25.1" font-family="Helvetica,sans-Serif" font-size="8.00">_concurrent_task_loop</text>
<text text-anchor="start" x="308" y="-16.1" font-family="Helvetica,sans-Serif" font-size="8.00">_impl&lt; std::atomic&lt; perf</text>
<text text-anchor="middle" x="359.5" y="-7.1" font-family="Helvetica,sans-Serif" font-size="8.00">::duration_rep_t &gt; &gt;</text>
</a>
</g>
</g>
<!-- Node2&#45;&gt;Node1 -->
<g id="edge1" class="edge">
<title>Node2&#45;&gt;Node1</title>
<path fill="none" stroke="midnightblue" d="M429.12,-22.5C437.78,-22.5 446.53,-22.5 454.89,-22.5"/>
<polygon fill="midnightblue" stroke="midnightblue" points="429.02,-19 419.02,-22.5 429.02,-26 429.02,-19"/>
</g>
<!-- Node3 -->
<g id="node3" class="node">
<title>Node3</title>
<g id="a_node3"><a xlink:href="classflow_1_1async_1_1Concurrent__task__loop.html" target="_top" xlink:title="The core flow::async interface, providing an optionally multi&#45;threaded thread pool onto which runnabl...">
<polygon fill="white" stroke="black" points="150,-9.5 150,-35.5 264,-35.5 264,-9.5 150,-9.5"/>
<text text-anchor="start" x="158" y="-25.1" font-family="Helvetica,sans-Serif" font-size="8.00">flow::async::Concurrent</text>
<text text-anchor="middle" x="207" y="-16.1" font-family="Helvetica,sans-Serif" font-size="8.00">_task_loop</text>
</a>
</g>
</g>
<!-- Node3&#45;&gt;Node2 -->
<g id="edge2" class="edge">
<title>Node3&#45;&gt;Node2</title>
<path fill="none" stroke="midnightblue" d="M274.04,-22.5C282.65,-22.5 291.42,-22.5 299.9,-22.5"/>
<polygon fill="midnightblue" stroke="midnightblue" points="274.04,-19 264.04,-22.5 274.04,-26 274.04,-19"/>
</g>
<!-- Node4 -->
<g id="node4" class="node">
<title>Node4</title>
<g id="a_node4"><a xlink:href="classflow_1_1util_1_1Null__interface.html" target="_top" xlink:title="An empty interface, consisting of nothing but a default virtual destructor, intended as a boiler&#45;plat...">
<polygon fill="white" stroke="black" points="0,-14 0,-31 114,-31 114,-14 0,-14"/>
<text text-anchor="middle" x="57" y="-20.6" font-family="Helvetica,sans-Serif" font-size="8.00">flow::util::Null_interface</text>
</a>
</g>
</g>
<!-- Node4&#45;&gt;Node3 -->
<g id="edge3" class="edge">
<title>Node4&#45;&gt;Node3</title>
<path fill="none" stroke="midnightblue" d="M124.56,-22.5C132.98,-22.5 141.54,-22.5 149.78,-22.5"/>
<polygon fill="midnightblue" stroke="midnightblue" points="124.37,-19 114.37,-22.5 124.37,-26 124.37,-19"/>
</g>
</g>
</svg>
