<?xml version="1.0" encoding="UTF-8" standalone="no"?>
<!DOCTYPE svg PUBLIC "-//W3C//DTD SVG 1.1//EN"
 "http://www.w3.org/Graphics/SVG/1.1/DTD/svg11.dtd">
<!-- Generated by graphviz version 2.43.0 (0)
 -->
<!-- Title: flow::util::Thread_local_state_registry&lt; Thread_local_state_t &gt; Pages: 1 -->
<svg width="129pt" height="152pt"
 viewBox="0.00 0.00 129.00 152.00" xmlns="http://www.w3.org/2000/svg" xmlns:xlink="http://www.w3.org/1999/xlink">
<g id="graph0" class="graph" transform="scale(1 1) rotate(0) translate(4 148)">
<title>flow::util::Thread_local_state_registry&lt; Thread_local_state_t &gt;</title>
<polygon fill="white" stroke="transparent" points="-4,4 -4,-148 125,-148 125,4 -4,4"/>
<!-- Node1 -->
<g id="node1" class="node">
<title>Node1</title>
<g id="a_node1"><a xlink:title="Similar to boost::thread_specific_ptr&lt;T&gt; but with built&#45;in lazy&#45;init semantics; and more importantly ...">
<polygon fill="#bfbfbf" stroke="black" points="1,-0.5 1,-35.5 120,-35.5 120,-0.5 1,-0.5"/>
<text text-anchor="start" x="9" y="-25.1" font-family="Helvetica,sans-Serif" font-size="8.00">flow::util::Thread</text>
<text text-anchor="start" x="9" y="-16.1" font-family="Helvetica,sans-Serif" font-size="8.00">_local_state_registry</text>
<text text-anchor="middle" x="60.5" y="-7.1" font-family="Helvetica,sans-Serif" font-size="8.00">&lt; Thread_local_state_t &gt;</text>
</a>
</g>
</g>
<!-- Node2 -->
<g id="node2" class="node">
<title>Node2</title>
<g id="a_node2"><a xlink:href="classflow_1_1log_1_1Log__context__mt.html" target="_top" xlink:title="Identical to Log_context but is safe w/r/t to set_logger(), assignment, and swap() done concurrently ...">
<polygon fill="white" stroke="black" points="0,-72.5 0,-89.5 121,-89.5 121,-72.5 0,-72.5"/>
<text text-anchor="middle" x="60.5" y="-79.1" font-family="Helvetica,sans-Serif" font-size="8.00">flow::log::Log_context_mt</text>
</a>
</g>
</g>
<!-- Node2&#45;&gt;Node1 -->
<g id="edge1" class="edge">
<title>Node2&#45;&gt;Node1</title>
<path fill="none" stroke="midnightblue" d="M60.5,-62.11C60.5,-53.74 60.5,-43.83 60.5,-35.62"/>
<polygon fill="midnightblue" stroke="midnightblue" points="57,-62.27 60.5,-72.27 64,-62.27 57,-62.27"/>
</g>
<!-- Node3 -->
<g id="node3" class="node">
<title>Node3</title>
<g id="a_node3"><a xlink:href="classflow_1_1log_1_1Log__context.html" target="_top" xlink:title="Convenience class that simply stores a Logger and/or Component passed into a constructor; and returns...">
<polygon fill="white" stroke="black" points="7,-126.5 7,-143.5 114,-143.5 114,-126.5 7,-126.5"/>
<text text-anchor="middle" x="60.5" y="-133.1" font-family="Helvetica,sans-Serif" font-size="8.00">flow::log::Log_context</text>
</a>
</g>
</g>
<!-- Node3&#45;&gt;Node2 -->
<g id="edge2" class="edge">
<title>Node3&#45;&gt;Node2</title>
<path fill="none" stroke="#8b1a1a" d="M60.5,-116.06C60.5,-107.06 60.5,-96.63 60.5,-89.7"/>
<polygon fill="#8b1a1a" stroke="#8b1a1a" points="57,-116.33 60.5,-126.33 64,-116.33 57,-116.33"/>
</g>
</g>
</svg>
