<?xml version="1.0" encoding="UTF-8" standalone="no"?>
<!DOCTYPE svg PUBLIC "-//W3C//DTD SVG 1.1//EN"
 "http://www.w3.org/Graphics/SVG/1.1/DTD/svg11.dtd">
<!-- Generated by graphviz version 2.43.0 (0)
 -->
<!-- Title: flow::async::Single_thread_task_loop Pages: 1 -->
<svg width="248pt" height="89pt"
 viewBox="0.00 0.00 247.50 89.00" xmlns="http://www.w3.org/2000/svg" xmlns:xlink="http://www.w3.org/1999/xlink">
<g id="graph0" class="graph" transform="scale(1 1) rotate(0) translate(4 85)">
<title>flow::async::Single_thread_task_loop</title>
<polygon fill="white" stroke="transparent" points="-4,4 -4,-85 243.5,-85 243.5,4 -4,4"/>
<!-- Node1 -->
<g id="node1" class="node">
<title>Node1</title>
<g id="a_node1"><a xlink:title="A Concurrent_task_loop&#45;related adapter&#45;style class that represents a single&#45;thread task loop; essenti...">
<polygon fill="#bfbfbf" stroke="black" points="70,-0.5 70,-26.5 165,-26.5 165,-0.5 70,-0.5"/>
<text text-anchor="start" x="78" y="-16.1" font-family="Helvetica,sans-Serif" font-size="8.00">flow::async::Single</text>
<text text-anchor="middle" x="117.5" y="-7.1" font-family="Helvetica,sans-Serif" font-size="8.00">_thread_task_loop</text>
</a>
</g>
</g>
<!-- Node2 -->
<g id="node2" class="node">
<title>Node2</title>
<g id="a_node2"><a xlink:href="classflow_1_1log_1_1Log__context.html" target="_top" xlink:title="Convenience class that simply stores a Logger and/or Component passed into a constructor; and returns...">
<polygon fill="white" stroke="black" points="0,-63.5 0,-80.5 107,-80.5 107,-63.5 0,-63.5"/>
<text text-anchor="middle" x="53.5" y="-70.1" font-family="Helvetica,sans-Serif" font-size="8.00">flow::log::Log_context</text>
</a>
</g>
</g>
<!-- Node2&#45;&gt;Node1 -->
<g id="edge1" class="edge">
<title>Node2&#45;&gt;Node1</title>
<path fill="none" stroke="midnightblue" d="M69.76,-56.65C80.22,-47.41 93.67,-35.54 103.63,-26.75"/>
<polygon fill="midnightblue" stroke="midnightblue" points="67.31,-54.14 62.13,-63.38 71.94,-59.39 67.31,-54.14"/>
</g>
<!-- Node3 -->
<g id="node3" class="node">
<title>Node3</title>
<g id="a_node3"><a xlink:href="classflow_1_1util_1_1Null__interface.html" target="_top" xlink:title="An empty interface, consisting of nothing but a default virtual destructor, intended as a boiler&#45;plat...">
<polygon fill="white" stroke="black" points="125.5,-63.5 125.5,-80.5 239.5,-80.5 239.5,-63.5 125.5,-63.5"/>
<text text-anchor="middle" x="182.5" y="-70.1" font-family="Helvetica,sans-Serif" font-size="8.00">flow::util::Null_interface</text>
</a>
</g>
</g>
<!-- Node3&#45;&gt;Node1 -->
<g id="edge2" class="edge">
<title>Node3&#45;&gt;Node1</title>
<path fill="none" stroke="midnightblue" d="M165.99,-56.65C155.36,-47.41 141.7,-35.54 131.59,-26.75"/>
<polygon fill="midnightblue" stroke="midnightblue" points="163.89,-59.46 173.73,-63.38 168.48,-54.18 163.89,-59.46"/>
</g>
</g>
</svg>
