<?xml version="1.0" encoding="UTF-8" standalone="no"?>
<!DOCTYPE svg PUBLIC "-//W3C//DTD SVG 1.1//EN"
 "http://www.w3.org/Graphics/SVG/1.1/DTD/svg11.dtd">
<!-- Generated by graphviz version 2.43.0 (0)
 -->
<!-- Title: flow::net_flow::Node Pages: 1 -->
<svg width="248pt" height="143pt"
 viewBox="0.00 0.00 247.50 143.00" xmlns="http://www.w3.org/2000/svg" xmlns:xlink="http://www.w3.org/1999/xlink">
<g id="graph0" class="graph" transform="scale(1 1) rotate(0) translate(4 139)">
<title>flow::net_flow::Node</title>
<polygon fill="white" stroke="transparent" points="-4,4 -4,-139 243.5,-139 243.5,4 -4,4"/>
<!-- Node1 -->
<g id="node1" class="node">
<title>Node1</title>
<g id="a_node1"><a xlink:title="An object of this class is a single Flow&#45;protocol networking node, in the sense that: (1) it has a di...">
<polygon fill="#bfbfbf" stroke="black" points="70.5,-63.5 70.5,-80.5 171.5,-80.5 171.5,-63.5 70.5,-63.5"/>
<text text-anchor="middle" x="121" y="-70.1" font-family="Helvetica,sans-Serif" font-size="8.00">flow::net_flow::Node</text>
</a>
</g>
</g>
<!-- Node4 -->
<g id="node4" class="node">
<title>Node4</title>
<g id="a_node4"><a xlink:href="classflow_1_1net__flow_1_1asio_1_1Node.html" target="_top" xlink:title="A subclass of net_flow::Node that adds the ability to easily and directly use net_flow sockets in gen...">
<polygon fill="white" stroke="black" points="73,-0.5 73,-26.5 169,-26.5 169,-0.5 73,-0.5"/>
<text text-anchor="start" x="81" y="-16.1" font-family="Helvetica,sans-Serif" font-size="8.00">flow::net_flow::asio</text>
<text text-anchor="middle" x="121" y="-7.1" font-family="Helvetica,sans-Serif" font-size="8.00">::Node</text>
</a>
</g>
</g>
<!-- Node1&#45;&gt;Node4 -->
<g id="edge3" class="edge">
<title>Node1&#45;&gt;Node4</title>
<path fill="none" stroke="midnightblue" d="M121,-53C121,-44.4 121,-34.32 121,-26.64"/>
<polygon fill="midnightblue" stroke="midnightblue" points="117.5,-53.14 121,-63.14 124.5,-53.14 117.5,-53.14"/>
</g>
<!-- Node2 -->
<g id="node2" class="node">
<title>Node2</title>
<g id="a_node2"><a xlink:href="classflow_1_1util_1_1Null__interface.html" target="_top" xlink:title="An empty interface, consisting of nothing but a default virtual destructor, intended as a boiler&#45;plat...">
<polygon fill="white" stroke="black" points="0,-117.5 0,-134.5 114,-134.5 114,-117.5 0,-117.5"/>
<text text-anchor="middle" x="57" y="-124.1" font-family="Helvetica,sans-Serif" font-size="8.00">flow::util::Null_interface</text>
</a>
</g>
</g>
<!-- Node2&#45;&gt;Node1 -->
<g id="edge1" class="edge">
<title>Node2&#45;&gt;Node1</title>
<path fill="none" stroke="midnightblue" d="M74.41,-110.86C86.36,-101.15 101.77,-88.63 111.52,-80.7"/>
<polygon fill="midnightblue" stroke="midnightblue" points="72,-108.3 66.44,-117.33 76.41,-113.74 72,-108.3"/>
</g>
<!-- Node3 -->
<g id="node3" class="node">
<title>Node3</title>
<g id="a_node3"><a xlink:href="classflow_1_1log_1_1Log__context.html" target="_top" xlink:title="Convenience class that simply stores a Logger and/or Component passed into a constructor; and returns...">
<polygon fill="white" stroke="black" points="132.5,-117.5 132.5,-134.5 239.5,-134.5 239.5,-117.5 132.5,-117.5"/>
<text text-anchor="middle" x="186" y="-124.1" font-family="Helvetica,sans-Serif" font-size="8.00">flow::log::Log_context</text>
</a>
</g>
</g>
<!-- Node3&#45;&gt;Node1 -->
<g id="edge2" class="edge">
<title>Node3&#45;&gt;Node1</title>
<path fill="none" stroke="midnightblue" d="M168.32,-110.86C156.18,-101.15 140.53,-88.63 130.63,-80.7"/>
<polygon fill="midnightblue" stroke="midnightblue" points="166.41,-113.81 176.41,-117.33 170.79,-108.35 166.41,-113.81"/>
</g>
</g>
</svg>
