<?xml version="1.0" encoding="UTF-8" standalone="no"?>
<!DOCTYPE svg PUBLIC "-//W3C//DTD SVG 1.1//EN"
 "http://www.w3.org/Graphics/SVG/1.1/DTD/svg11.dtd">
<!-- Generated by graphviz version 2.43.0 (0)
 -->
<!-- Title: flow::async::Segregated_thread_task_loop Pages: 1 -->
<svg width="248pt" height="152pt"
 viewBox="0.00 0.00 247.50 152.00" xmlns="http://www.w3.org/2000/svg" xmlns:xlink="http://www.w3.org/1999/xlink">
<g id="graph0" class="graph" transform="scale(1 1) rotate(0) translate(4 148)">
<title>flow::async::Segregated_thread_task_loop</title>
<polygon fill="white" stroke="transparent" points="-4,4 -4,-148 243.5,-148 243.5,4 -4,4"/>
<!-- Node1 -->
<g id="node1" class="node">
<title>Node1</title>
<g id="a_node1"><a xlink:title="Concrete Concurrent_task_loop that uses the legacy pin&#45;Tasks&#45;within&#45;1&#45;Op&#45;to&#45;1&#45;thread method of achiev...">
<polygon fill="#bfbfbf" stroke="black" points="62.5,-0.5 62.5,-26.5 179.5,-26.5 179.5,-0.5 62.5,-0.5"/>
<text text-anchor="start" x="70.5" y="-16.1" font-family="Helvetica,sans-Serif" font-size="8.00">flow::async::Segregated</text>
<text text-anchor="middle" x="121" y="-7.1" font-family="Helvetica,sans-Serif" font-size="8.00">_thread_task_loop</text>
</a>
</g>
</g>
<!-- Node2 -->
<g id="node2" class="node">
<title>Node2</title>
<g id="a_node2"><a xlink:href="classflow_1_1async_1_1Concurrent__task__loop.html" target="_top" xlink:title="The core flow::async interface, providing an optionally multi&#45;threaded thread pool onto which runnabl...">
<polygon fill="white" stroke="black" points="0,-63.5 0,-89.5 114,-89.5 114,-63.5 0,-63.5"/>
<text text-anchor="start" x="8" y="-79.1" font-family="Helvetica,sans-Serif" font-size="8.00">flow::async::Concurrent</text>
<text text-anchor="middle" x="57" y="-70.1" font-family="Helvetica,sans-Serif" font-size="8.00">_task_loop</text>
</a>
</g>
</g>
<!-- Node2&#45;&gt;Node1 -->
<g id="edge1" class="edge">
<title>Node2&#45;&gt;Node1</title>
<path fill="none" stroke="midnightblue" d="M77.03,-56.41C87.28,-46.64 99.45,-35.04 108.38,-26.53"/>
<polygon fill="midnightblue" stroke="midnightblue" points="74.47,-54.02 69.64,-63.45 79.3,-59.08 74.47,-54.02"/>
</g>
<!-- Node3 -->
<g id="node3" class="node">
<title>Node3</title>
<g id="a_node3"><a xlink:href="classflow_1_1util_1_1Null__interface.html" target="_top" xlink:title="An empty interface, consisting of nothing but a default virtual destructor, intended as a boiler&#45;plat...">
<polygon fill="white" stroke="black" points="0,-126.5 0,-143.5 114,-143.5 114,-126.5 0,-126.5"/>
<text text-anchor="middle" x="57" y="-133.1" font-family="Helvetica,sans-Serif" font-size="8.00">flow::util::Null_interface</text>
</a>
</g>
</g>
<!-- Node3&#45;&gt;Node2 -->
<g id="edge2" class="edge">
<title>Node3&#45;&gt;Node2</title>
<path fill="none" stroke="midnightblue" d="M57,-116C57,-107.4 57,-97.32 57,-89.64"/>
<polygon fill="midnightblue" stroke="midnightblue" points="53.5,-116.14 57,-126.14 60.5,-116.14 53.5,-116.14"/>
</g>
<!-- Node4 -->
<g id="node4" class="node">
<title>Node4</title>
<g id="a_node4"><a xlink:href="classflow_1_1log_1_1Log__context.html" target="_top" xlink:title="Convenience class that simply stores a Logger and/or Component passed into a constructor; and returns...">
<polygon fill="white" stroke="black" points="132.5,-68 132.5,-85 239.5,-85 239.5,-68 132.5,-68"/>
<text text-anchor="middle" x="186" y="-74.6" font-family="Helvetica,sans-Serif" font-size="8.00">flow::log::Log_context</text>
</a>
</g>
</g>
<!-- Node4&#45;&gt;Node1 -->
<g id="edge3" class="edge">
<title>Node4&#45;&gt;Node1</title>
<path fill="none" stroke="midnightblue" d="M170.4,-60.86C159.23,-50.37 144.36,-36.42 133.86,-26.57"/>
<polygon fill="midnightblue" stroke="midnightblue" points="168.08,-63.48 177.77,-67.77 172.87,-58.38 168.08,-63.48"/>
</g>
</g>
</svg>
