<?xml version="1.0" encoding="UTF-8" standalone="no"?>
<!DOCTYPE svg PUBLIC "-//W3C//DTD SVG 1.1//EN"
 "http://www.w3.org/Graphics/SVG/1.1/DTD/svg11.dtd">
<!-- Generated by graphviz version 2.43.0 (0)
 -->
<!-- Title: flow::log::Async_file_logger Pages: 1 -->
<svg width="293pt" height="152pt"
 viewBox="0.00 0.00 292.50 152.00" xmlns="http://www.w3.org/2000/svg" xmlns:xlink="http://www.w3.org/1999/xlink">
<g id="graph0" class="graph" transform="scale(1 1) rotate(0) translate(4 148)">
<title>flow::log::Async_file_logger</title>
<polygon fill="white" stroke="transparent" points="-4,4 -4,-148 288.5,-148 288.5,4 -4,4"/>
<!-- Node1 -->
<g id="node1" class="node">
<title>Node1</title>
<g id="a_node1"><a xlink:title="An implementation of Logger that logs messages to a given file&#45;system path but never blocks any loggi...">
<polygon fill="#bfbfbf" stroke="black" points="124,-0.5 124,-26.5 222,-26.5 222,-0.5 124,-0.5"/>
<text text-anchor="start" x="132" y="-16.1" font-family="Helvetica,sans-Serif" font-size="8.00">flow::log::Async_file</text>
<text text-anchor="middle" x="173" y="-7.1" font-family="Helvetica,sans-Serif" font-size="8.00">_logger</text>
</a>
</g>
</g>
<!-- Node2 -->
<g id="node2" class="node">
<title>Node2</title>
<g id="a_node2"><a xlink:href="classflow_1_1log_1_1Logger.html" target="_top" xlink:title="Interface that the user should implement, passing the implementing Logger into logging classes (Flow&#39;...">
<polygon fill="white" stroke="black" points="73,-63.5 73,-80.5 159,-80.5 159,-63.5 73,-63.5"/>
<text text-anchor="middle" x="116" y="-70.1" font-family="Helvetica,sans-Serif" font-size="8.00">flow::log::Logger</text>
</a>
</g>
</g>
<!-- Node2&#45;&gt;Node1 -->
<g id="edge1" class="edge">
<title>Node2&#45;&gt;Node1</title>
<path fill="none" stroke="midnightblue" d="M131.29,-55.84C140.53,-46.69 152.13,-35.19 160.75,-26.64"/>
<polygon fill="midnightblue" stroke="midnightblue" points="128.56,-53.62 123.93,-63.14 133.49,-58.59 128.56,-53.62"/>
</g>
<!-- Node3 -->
<g id="node3" class="node">
<title>Node3</title>
<g id="a_node3"><a xlink:href="classflow_1_1util_1_1Null__interface.html" target="_top" xlink:title="An empty interface, consisting of nothing but a default virtual destructor, intended as a boiler&#45;plat...">
<polygon fill="white" stroke="black" points="0,-122 0,-139 114,-139 114,-122 0,-122"/>
<text text-anchor="middle" x="57" y="-128.6" font-family="Helvetica,sans-Serif" font-size="8.00">flow::util::Null_interface</text>
</a>
</g>
</g>
<!-- Node3&#45;&gt;Node2 -->
<g id="edge2" class="edge">
<title>Node3&#45;&gt;Node2</title>
<path fill="none" stroke="midnightblue" d="M72.69,-114.47C84.01,-103.64 98.83,-89.45 107.87,-80.79"/>
<polygon fill="midnightblue" stroke="midnightblue" points="70.01,-112.2 65.2,-121.64 74.85,-117.26 70.01,-112.2"/>
</g>
<!-- Node4 -->
<g id="node4" class="node">
<title>Node4</title>
<g id="a_node4"><a xlink:href="classflow_1_1util_1_1Unique__id__holder.html" target="_top" xlink:title="Each object of this class stores (at construction) and returns (on demand) a numeric ID unique from a...">
<polygon fill="white" stroke="black" points="132.5,-117.5 132.5,-143.5 219.5,-143.5 219.5,-117.5 132.5,-117.5"/>
<text text-anchor="start" x="140.5" y="-133.1" font-family="Helvetica,sans-Serif" font-size="8.00">flow::util::Unique</text>
<text text-anchor="middle" x="176" y="-124.1" font-family="Helvetica,sans-Serif" font-size="8.00">_id_holder</text>
</a>
</g>
</g>
<!-- Node4&#45;&gt;Node2 -->
<g id="edge3" class="edge">
<title>Node4&#45;&gt;Node2</title>
<path fill="none" stroke="midnightblue" d="M155.52,-110.22C144.71,-100.03 132.05,-88.11 124.03,-80.56"/>
<polygon fill="midnightblue" stroke="midnightblue" points="153.3,-112.93 162.98,-117.24 158.1,-107.84 153.3,-112.93"/>
</g>
<!-- Node5 -->
<g id="node5" class="node">
<title>Node5</title>
<g id="a_node5"><a xlink:href="classflow_1_1log_1_1Log__context.html" target="_top" xlink:title="Convenience class that simply stores a Logger and/or Component passed into a constructor; and returns...">
<polygon fill="white" stroke="black" points="177.5,-63.5 177.5,-80.5 284.5,-80.5 284.5,-63.5 177.5,-63.5"/>
<text text-anchor="middle" x="231" y="-70.1" font-family="Helvetica,sans-Serif" font-size="8.00">flow::log::Log_context</text>
</a>
</g>
</g>
<!-- Node5&#45;&gt;Node1 -->
<g id="edge4" class="edge">
<title>Node5&#45;&gt;Node1</title>
<path fill="none" stroke="darkgreen" d="M215.72,-56.12C206.28,-46.92 194.32,-35.27 185.46,-26.64"/>
<polygon fill="darkgreen" stroke="darkgreen" points="213.33,-58.67 222.94,-63.14 218.21,-53.66 213.33,-58.67"/>
</g>
</g>
</svg>
