<?xml version="1.0" encoding="UTF-8" standalone="no"?>
<!DOCTYPE svg PUBLIC "-//W3C//DTD SVG 1.1//EN"
 "http://www.w3.org/Graphics/SVG/1.1/DTD/svg11.dtd">
<!-- Generated by graphviz version 2.43.0 (0)
 -->
<!-- Title: log Pages: 1 -->
<svg width="186pt" height="132pt"
 viewBox="0.00 0.00 186.00 132.00" xmlns="http://www.w3.org/2000/svg" xmlns:xlink="http://www.w3.org/1999/xlink">
<g id="graph0" class="graph" transform="scale(1 1) rotate(0) translate(4 128)">
<title>log</title>
<polygon fill="white" stroke="transparent" points="-4,4 -4,-128 182,-128 182,4 -4,4"/>
<g id="clust1" class="cluster">
<title>clusterdir_9381a7bbd03577d6d8720c7f35c94ffa</title>
<g id="a_clust1"><a xlink:href="dir_9381a7bbd03577d6d8720c7f35c94ffa.html" target="_top">
<polygon fill="#edf0f7" stroke="#404040" stroke-width="2" points="8,-64 8,-116 150,-116 150,-64 8,-64"/>
</a>
</g>
</g>
<!-- dir_9381a7bbd03577d6d8720c7f35c94ffa -->
<g id="node1" class="node">
<title>dir_9381a7bbd03577d6d8720c7f35c94ffa</title>
<text text-anchor="middle" x="115" y="-88.1" font-family="Helvetica,sans-Serif" font-size="8.00">log</text>
</g>
<!-- dir_23ec12649285f9fabf3a6b7380226c28 -->
<g id="node3" class="node">
<title>dir_23ec12649285f9fabf3a6b7380226c28</title>
<g id="a_node3"><a xlink:href="dir_23ec12649285f9fabf3a6b7380226c28.html" target="_top" xlink:title="util">
<polygon fill="none" stroke="#404040" points="106,-36 52,-36 52,0 106,0 106,-36"/>
<text text-anchor="middle" x="79" y="-16.1" font-family="Helvetica,sans-Serif" font-size="8.00">util</text>
</a>
</g>
</g>
<!-- dir_9381a7bbd03577d6d8720c7f35c94ffa&#45;&gt;dir_23ec12649285f9fabf3a6b7380226c28 -->
<g id="edge1" class="edge">
<title>dir_9381a7bbd03577d6d8720c7f35c94ffa&#45;&gt;dir_23ec12649285f9fabf3a6b7380226c28</title>
<path fill="none" stroke="black" d="M106.1,-71.7C102,-63.73 97.05,-54.1 92.51,-45.26"/>
<polygon fill="black" stroke="black" points="95.48,-43.4 87.8,-36.1 89.26,-46.6 95.48,-43.4"/>
<g id="a_edge1&#45;headlabel"><a xlink:href="dir_000005_000009.html" target="_top" xlink:title="6">
<text text-anchor="middle" x="99.65" y="-43.39" font-family="Helvetica,sans-Serif" font-size="8.00">6</text>
</a>
</g>
</g>
<!-- dir_ddc98e6e1a9e0f6adcacab8ac7c1f855 -->
<g id="node4" class="node">
<title>dir_ddc98e6e1a9e0f6adcacab8ac7c1f855</title>
<g id="a_node4"><a xlink:href="dir_ddc98e6e1a9e0f6adcacab8ac7c1f855.html" target="_top" xlink:title="async">
<polygon fill="none" stroke="#404040" points="178,-36 124,-36 124,0 178,0 178,-36"/>
<text text-anchor="middle" x="151" y="-16.1" font-family="Helvetica,sans-Serif" font-size="8.00">async</text>
</a>
</g>
</g>
<!-- dir_9381a7bbd03577d6d8720c7f35c94ffa&#45;&gt;dir_ddc98e6e1a9e0f6adcacab8ac7c1f855 -->
<g id="edge2" class="edge">
<title>dir_9381a7bbd03577d6d8720c7f35c94ffa&#45;&gt;dir_ddc98e6e1a9e0f6adcacab8ac7c1f855</title>
<path fill="none" stroke="black" d="M123.9,-71.7C128,-63.73 132.95,-54.1 137.49,-45.26"/>
<polygon fill="black" stroke="black" points="140.74,-46.6 142.2,-36.1 134.52,-43.4 140.74,-46.6"/>
<g id="a_edge2&#45;headlabel"><a xlink:href="dir_000005_000001.html" target="_top" xlink:title="1">
<text text-anchor="middle" x="141.62" y="-49.19" font-family="Helvetica,sans-Serif" font-size="8.00">1</text>
</a>
</g>
</g>
<!-- dir_bf37cf39814650876b4aa4513810c0b4 -->
<g id="node2" class="node">
<title>dir_bf37cf39814650876b4aa4513810c0b4</title>
<g id="a_node2"><a xlink:href="dir_bf37cf39814650876b4aa4513810c0b4.html" target="_top" xlink:title="macros">
<polygon fill="#a2b4d6" stroke="#404040" points="70,-108 16,-108 16,-72 70,-72 70,-108"/>
<text text-anchor="middle" x="43" y="-88.1" font-family="Helvetica,sans-Serif" font-size="8.00">macros</text>
</a>
</g>
</g>
</g>
</svg>
