<?xml version="1.0" encoding="UTF-8" standalone="no"?>
<!DOCTYPE svg PUBLIC "-//W3C//DTD SVG 1.1//EN"
 "http://www.w3.org/Graphics/SVG/1.1/DTD/svg11.dtd">
<!-- Generated by graphviz version 2.43.0 (0)
 -->
<!-- Title: Graphical Class Hierarchy Pages: 1 -->
<svg width="640pt" height="912pt"
 viewBox="0.00 0.00 640.00 912.00" xmlns="http://www.w3.org/2000/svg" xmlns:xlink="http://www.w3.org/1999/xlink">
<g id="graph0" class="graph" transform="scale(1 1) rotate(0) translate(4 908)">
<title>Graphical Class Hierarchy</title>
<polygon fill="white" stroke="transparent" points="-4,4 -4,-908 636,-908 636,4 -4,4"/>
<!-- Node0 -->
<g id="node1" class="node">
<title>Node0</title>
<g id="a_node1"><a xlink:href="classflow_1_1util_1_1Basic__blob.html" target="_top" xlink:title=" ">
<polygon fill="white" stroke="black" points="20,-868.5 20,-903.5 130,-903.5 130,-868.5 20,-868.5"/>
<text text-anchor="start" x="28" y="-893.1" font-family="Helvetica,sans-Serif" font-size="8.00">flow::util::Basic_blob</text>
<text text-anchor="start" x="28" y="-884.1" font-family="Helvetica,sans-Serif" font-size="8.00">&lt; std::allocator&lt; uint8</text>
<text text-anchor="middle" x="75" y="-875.1" font-family="Helvetica,sans-Serif" font-size="8.00">_t &gt;, SHARING &gt;</text>
</a>
</g>
</g>
<!-- Node1 -->
<g id="node2" class="node">
<title>Node1</title>
<g id="a_node2"><a xlink:href="classflow_1_1util_1_1Blob__with__log__context.html" target="_top" xlink:title="Basic_blob that works in regular heap (and is itself placed in heap or stack) and memorizes a log::Lo...">
<polygon fill="white" stroke="black" points="194,-873 194,-899 315,-899 315,-873 194,-873"/>
<text text-anchor="start" x="202" y="-888.6" font-family="Helvetica,sans-Serif" font-size="8.00">flow::util::Blob_with</text>
<text text-anchor="middle" x="254.5" y="-879.6" font-family="Helvetica,sans-Serif" font-size="8.00">_log_context&lt; SHARING &gt;</text>
</a>
</g>
</g>
<!-- Node0&#45;&gt;Node1 -->
<g id="edge1" class="edge">
<title>Node0&#45;&gt;Node1</title>
<path fill="none" stroke="midnightblue" d="M140.31,-886C157.75,-886 176.56,-886 193.74,-886"/>
<polygon fill="midnightblue" stroke="midnightblue" points="140.22,-882.5 130.22,-886 140.22,-889.5 140.22,-882.5"/>
</g>
<!-- Node2 -->
<g id="node3" class="node">
<title>Node2</title>
<g id="a_node3"><a xlink:href="classflow_1_1log_1_1Log__context.html" target="_top" xlink:title="Convenience class that simply stores a Logger and/or Component passed into a constructor; and returns...">
<polygon fill="white" stroke="black" points="21.5,-537.5 21.5,-554.5 128.5,-554.5 128.5,-537.5 21.5,-537.5"/>
<text text-anchor="middle" x="75" y="-544.1" font-family="Helvetica,sans-Serif" font-size="8.00">flow::log::Log_context</text>
</a>
</g>
</g>
<!-- Node2&#45;&gt;Node1 -->
<g id="edge25" class="edge">
<title>Node2&#45;&gt;Node1</title>
<path fill="none" stroke="midnightblue" d="M76.9,-564.72C80.51,-618.99 98.44,-778 186,-864 189.52,-867.45 193.58,-870.37 197.94,-872.82"/>
<polygon fill="midnightblue" stroke="midnightblue" points="80.38,-564.32 76.31,-554.54 73.39,-564.72 80.38,-564.32"/>
</g>
<!-- Node3 -->
<g id="node4" class="node">
<title>Node3</title>
<g id="a_node4"><a xlink:href="classflow_1_1cfg_1_1Config__manager.html" target="_top" xlink:title=" ">
<polygon fill="white" stroke="black" points="186,-611 186,-637 323,-637 323,-611 186,-611"/>
<text text-anchor="start" x="194" y="-626.6" font-family="Helvetica,sans-Serif" font-size="8.00">flow::cfg::Config_manager</text>
<text text-anchor="middle" x="254.5" y="-617.6" font-family="Helvetica,sans-Serif" font-size="8.00">&lt; Value_set, Null_value_set &gt;</text>
</a>
</g>
</g>
<!-- Node2&#45;&gt;Node3 -->
<g id="edge2" class="edge">
<title>Node2&#45;&gt;Node3</title>
<path fill="none" stroke="midnightblue" d="M100.32,-559.35C122.32,-571.14 155.8,-588.37 186,-601 194.34,-604.49 203.41,-607.85 212.12,-610.89"/>
<polygon fill="midnightblue" stroke="midnightblue" points="101.82,-556.18 91.36,-554.51 98.49,-562.34 101.82,-556.18"/>
</g>
<!-- Node5 -->
<g id="node6" class="node">
<title>Node5</title>
<g id="a_node6"><a xlink:href="classflow_1_1async_1_1Cross__thread__task__loop.html" target="_top" xlink:title="Concrete Concurrent_task_loop that is able to efficiently schedule Tasks within a given Op to execute...">
<polygon fill="white" stroke="black" points="378,-533 378,-559 470,-559 470,-533 378,-533"/>
<text text-anchor="start" x="386" y="-548.6" font-family="Helvetica,sans-Serif" font-size="8.00">flow::async::Cross</text>
<text text-anchor="middle" x="424" y="-539.6" font-family="Helvetica,sans-Serif" font-size="8.00">_thread_task_loop</text>
</a>
</g>
</g>
<!-- Node2&#45;&gt;Node5 -->
<g id="edge4" class="edge">
<title>Node2&#45;&gt;Node5</title>
<path fill="none" stroke="midnightblue" d="M139,-546C207.98,-546 316.87,-546 377.83,-546"/>
<polygon fill="midnightblue" stroke="midnightblue" points="138.7,-542.5 128.7,-546 138.7,-549.5 138.7,-542.5"/>
</g>
<!-- Node28 -->
<g id="node7" class="node">
<title>Node28</title>
<g id="a_node7"><a xlink:href="classflow_1_1async_1_1Op__list.html" target="_top" xlink:title="Simple, immutable vector&#45;like sequence of N opaque async::Op objects, usually corresponding to N work...">
<polygon fill="white" stroke="black" points="206.5,-574.5 206.5,-591.5 302.5,-591.5 302.5,-574.5 206.5,-574.5"/>
<text text-anchor="middle" x="254.5" y="-581.1" font-family="Helvetica,sans-Serif" font-size="8.00">flow::async::Op_list</text>
</a>
</g>
</g>
<!-- Node2&#45;&gt;Node28 -->
<g id="edge5" class="edge">
<title>Node2&#45;&gt;Node28</title>
<path fill="none" stroke="midnightblue" d="M127.25,-556.68C154.35,-562.33 187.17,-569.17 212.56,-574.46"/>
<polygon fill="midnightblue" stroke="midnightblue" points="127.67,-553.2 117.17,-554.58 126.24,-560.05 127.67,-553.2"/>
</g>
<!-- Node10 -->
<g id="node8" class="node">
<title>Node10</title>
<g id="a_node8"><a xlink:href="classflow_1_1async_1_1Segregated__thread__task__loop.html" target="_top" xlink:title="Concrete Concurrent_task_loop that uses the legacy pin&#45;Tasks&#45;within&#45;1&#45;Op&#45;to&#45;1&#45;thread method of achiev...">
<polygon fill="white" stroke="black" points="365.5,-488 365.5,-514 482.5,-514 482.5,-488 365.5,-488"/>
<text text-anchor="start" x="373.5" y="-503.6" font-family="Helvetica,sans-Serif" font-size="8.00">flow::async::Segregated</text>
<text text-anchor="middle" x="424" y="-494.6" font-family="Helvetica,sans-Serif" font-size="8.00">_thread_task_loop</text>
</a>
</g>
</g>
<!-- Node2&#45;&gt;Node10 -->
<g id="edge6" class="edge">
<title>Node2&#45;&gt;Node10</title>
<path fill="none" stroke="midnightblue" d="M138.74,-537.86C203.27,-529.5 302.91,-516.57 365.46,-508.46"/>
<polygon fill="midnightblue" stroke="midnightblue" points="138.17,-534.41 128.7,-539.17 139.07,-541.35 138.17,-534.41"/>
</g>
<!-- Node13 -->
<g id="node9" class="node">
<title>Node13</title>
<g id="a_node9"><a xlink:href="classflow_1_1async_1_1Single__thread__task__loop.html" target="_top" xlink:title="A Concurrent_task_loop&#45;related adapter&#45;style class that represents a single&#45;thread task loop; essenti...">
<polygon fill="white" stroke="black" points="207,-297 207,-323 302,-323 302,-297 207,-297"/>
<text text-anchor="start" x="215" y="-312.6" font-family="Helvetica,sans-Serif" font-size="8.00">flow::async::Single</text>
<text text-anchor="middle" x="254.5" y="-303.6" font-family="Helvetica,sans-Serif" font-size="8.00">_thread_task_loop</text>
</a>
</g>
</g>
<!-- Node2&#45;&gt;Node13 -->
<g id="edge7" class="edge">
<title>Node2&#45;&gt;Node13</title>
<path fill="none" stroke="midnightblue" d="M86.51,-528.49C101.35,-503.47 129.01,-455.88 150,-414 167.65,-378.78 156.92,-359.58 186,-333 191.94,-327.57 199.22,-323.42 206.76,-320.24"/>
<polygon fill="midnightblue" stroke="midnightblue" points="83.43,-526.81 81.31,-537.19 89.44,-530.39 83.43,-526.81"/>
</g>
<!-- Node29 -->
<g id="node11" class="node">
<title>Node29</title>
<g id="a_node11"><a xlink:href="classflow_1_1cfg_1_1Config__manager.html" target="_top" xlink:title="Manages a config setup, intended for a single daemon process, by maintaining 1 or more set(s) of stat...">
<polygon fill="white" stroke="black" points="192,-415 192,-441 317,-441 317,-415 192,-415"/>
<text text-anchor="start" x="200" y="-430.6" font-family="Helvetica,sans-Serif" font-size="8.00">flow::cfg::Config_manager</text>
<text text-anchor="middle" x="254.5" y="-421.6" font-family="Helvetica,sans-Serif" font-size="8.00">&lt; S_d_value_set &gt;</text>
</a>
</g>
</g>
<!-- Node2&#45;&gt;Node29 -->
<g id="edge9" class="edge">
<title>Node2&#45;&gt;Node29</title>
<path fill="none" stroke="midnightblue" d="M91.94,-530.38C112.38,-510.99 149.56,-477.82 186,-456 195.47,-450.33 206.3,-445.28 216.47,-441.08"/>
<polygon fill="midnightblue" stroke="midnightblue" points="89.51,-527.86 84.73,-537.32 94.36,-532.91 89.51,-527.86"/>
</g>
<!-- Node30 -->
<g id="node12" class="node">
<title>Node30</title>
<g id="a_node12"><a xlink:href="classflow_1_1cfg_1_1Option__set.html" target="_top" xlink:title="The core config&#45;parsing facility, which builds parsing/comparison/output capabilities on top of a giv...">
<polygon fill="white" stroke="black" points="204,-828 204,-854 305,-854 305,-828 204,-828"/>
<text text-anchor="start" x="212" y="-843.6" font-family="Helvetica,sans-Serif" font-size="8.00">flow::cfg::Option_set</text>
<text text-anchor="middle" x="254.5" y="-834.6" font-family="Helvetica,sans-Serif" font-size="8.00">&lt; Value_set &gt;</text>
</a>
</g>
</g>
<!-- Node2&#45;&gt;Node30 -->
<g id="edge10" class="edge">
<title>Node2&#45;&gt;Node30</title>
<path fill="none" stroke="midnightblue" d="M78.18,-564.51C84.88,-613.14 109.59,-745.75 186,-818 191.13,-822.85 197.32,-826.68 203.84,-829.7"/>
<polygon fill="midnightblue" stroke="midnightblue" points="81.64,-563.98 76.9,-554.5 74.7,-564.87 81.64,-563.98"/>
</g>
<!-- Node16 -->
<g id="node13" class="node">
<title>Node16</title>
<g id="a_node13"><a xlink:href="classflow_1_1log_1_1Async__file__logger.html" target="_top" xlink:title="An implementation of Logger that logs messages to a given file&#45;system path but never blocks any loggi...">
<polygon fill="white" stroke="black" points="375,-398 375,-424 473,-424 473,-398 375,-398"/>
<text text-anchor="start" x="383" y="-413.6" font-family="Helvetica,sans-Serif" font-size="8.00">flow::log::Async_file</text>
<text text-anchor="middle" x="424" y="-404.6" font-family="Helvetica,sans-Serif" font-size="8.00">_logger</text>
</a>
</g>
</g>
<!-- Node2&#45;&gt;Node16 -->
<g id="edge11" class="edge">
<title>Node2&#45;&gt;Node16</title>
<path fill="none" stroke="darkgreen" d="M109.23,-533.93C156.95,-516.42 247.43,-482.48 323,-450 339.26,-443.01 342.61,-439.66 359,-433 366.62,-429.9 374.86,-426.85 382.8,-424.06"/>
<polygon fill="darkgreen" stroke="darkgreen" points="107.91,-530.69 99.72,-537.41 110.32,-537.26 107.91,-530.69"/>
</g>
<!-- Node32 -->
<g id="node14" class="node">
<title>Node32</title>
<g id="a_node14"><a xlink:href="classflow_1_1log_1_1Log__context__mt.html" target="_top" xlink:title="Identical to Log_context but is safe w/r/t to set_logger(), assignment, and swap() done concurrently ...">
<polygon fill="white" stroke="black" points="194,-791.5 194,-808.5 315,-808.5 315,-791.5 194,-791.5"/>
<text text-anchor="middle" x="254.5" y="-798.1" font-family="Helvetica,sans-Serif" font-size="8.00">flow::log::Log_context_mt</text>
</a>
</g>
</g>
<!-- Node2&#45;&gt;Node32 -->
<g id="edge12" class="edge">
<title>Node2&#45;&gt;Node32</title>
<path fill="none" stroke="#8b1a1a" d="M79.31,-564.84C88.13,-609.42 116.49,-722.01 186,-781 191.2,-785.41 197.35,-788.8 203.79,-791.41"/>
<polygon fill="#8b1a1a" stroke="#8b1a1a" points="82.71,-564.02 77.43,-554.83 75.83,-565.3 82.71,-564.02"/>
</g>
<!-- Node35 -->
<g id="node17" class="node">
<title>Node35</title>
<g id="a_node17"><a xlink:href="classflow_1_1net__flow_1_1Event__set.html" target="_top" xlink:title="A user&#45;set collection of sockets and desired conditions on those sockets (such as: &quot;socket has data t...">
<polygon fill="white" stroke="black" points="195,-378.5 195,-395.5 314,-395.5 314,-378.5 195,-378.5"/>
<text text-anchor="middle" x="254.5" y="-385.1" font-family="Helvetica,sans-Serif" font-size="8.00">flow::net_flow::Event_set</text>
</a>
</g>
</g>
<!-- Node2&#45;&gt;Node35 -->
<g id="edge15" class="edge">
<title>Node2&#45;&gt;Node35</title>
<path fill="none" stroke="midnightblue" d="M84.89,-528.18C100.87,-498.05 137.36,-437.18 186,-405 191.97,-401.05 198.77,-397.97 205.71,-395.56"/>
<polygon fill="midnightblue" stroke="midnightblue" points="81.58,-526.97 80.11,-537.46 87.8,-530.18 81.58,-526.97"/>
</g>
<!-- Node37 -->
<g id="node18" class="node">
<title>Node37</title>
<g id="a_node18"><a xlink:href="classflow_1_1net__flow_1_1Net__env__simulator.html" target="_top" xlink:title="Objects of this class can be fed to Node to make it internally simulate network conditions like loss,...">
<polygon fill="white" stroke="black" points="208,-746 208,-772 301,-772 301,-746 208,-746"/>
<text text-anchor="start" x="216" y="-761.6" font-family="Helvetica,sans-Serif" font-size="8.00">flow::net_flow::Net</text>
<text text-anchor="middle" x="254.5" y="-752.6" font-family="Helvetica,sans-Serif" font-size="8.00">_env_simulator</text>
</a>
</g>
</g>
<!-- Node2&#45;&gt;Node37 -->
<g id="edge16" class="edge">
<title>Node2&#45;&gt;Node37</title>
<path fill="none" stroke="midnightblue" d="M81.66,-564.27C94.25,-601.89 128.08,-688.46 186,-736 192.41,-741.26 200.09,-745.35 207.94,-748.51"/>
<polygon fill="midnightblue" stroke="midnightblue" points="84.96,-563.08 78.56,-554.64 78.3,-565.23 84.96,-563.08"/>
</g>
<!-- Node20 -->
<g id="node19" class="node">
<title>Node20</title>
<g id="a_node19"><a xlink:href="classflow_1_1net__flow_1_1Node.html" target="_top" xlink:title="An object of this class is a single Flow&#45;protocol networking node, in the sense that: (1) it has a di...">
<polygon fill="white" stroke="black" points="204,-342.5 204,-359.5 305,-359.5 305,-342.5 204,-342.5"/>
<text text-anchor="middle" x="254.5" y="-349.1" font-family="Helvetica,sans-Serif" font-size="8.00">flow::net_flow::Node</text>
</a>
</g>
</g>
<!-- Node2&#45;&gt;Node20 -->
<g id="edge17" class="edge">
<title>Node2&#45;&gt;Node20</title>
<path fill="none" stroke="midnightblue" d="M85.9,-528.48C110.07,-485.96 171.17,-379.99 186,-369 191.36,-365.03 197.53,-361.93 203.92,-359.52"/>
<polygon fill="midnightblue" stroke="midnightblue" points="82.85,-526.76 80.97,-537.19 88.94,-530.21 82.85,-526.76"/>
</g>
<!-- Node22 -->
<g id="node21" class="node">
<title>Node22</title>
<g id="a_node21"><a xlink:href="classflow_1_1net__flow_1_1Peer__socket.html" target="_top" xlink:title="A peer (non&#45;server) socket operating over the Flow network protocol, with optional stream&#45;of&#45;bytes an...">
<polygon fill="white" stroke="black" points="206,-252 206,-278 303,-278 303,-252 206,-252"/>
<text text-anchor="start" x="214" y="-267.6" font-family="Helvetica,sans-Serif" font-size="8.00">flow::net_flow::Peer</text>
<text text-anchor="middle" x="254.5" y="-258.6" font-family="Helvetica,sans-Serif" font-size="8.00">_socket</text>
</a>
</g>
</g>
<!-- Node2&#45;&gt;Node22 -->
<g id="edge19" class="edge">
<title>Node2&#45;&gt;Node22</title>
<path fill="none" stroke="midnightblue" d="M87.34,-528.87C103.19,-504.31 132.03,-457.27 150,-414 172.5,-359.82 145.33,-329.28 186,-287 191.47,-281.31 198.42,-277.1 205.77,-273.97"/>
<polygon fill="midnightblue" stroke="midnightblue" points="84.31,-527.11 81.77,-537.4 90.17,-530.94 84.31,-527.11"/>
</g>
<!-- Node25 -->
<g id="node23" class="node">
<title>Node25</title>
<g id="a_node23"><a xlink:href="classflow_1_1net__flow_1_1Server__socket.html" target="_top" xlink:title="A server socket able to listen on a single Flow port for incoming connections and return peer sockets...">
<polygon fill="white" stroke="black" points="202,-162 202,-188 307,-188 307,-162 202,-162"/>
<text text-anchor="start" x="210" y="-177.6" font-family="Helvetica,sans-Serif" font-size="8.00">flow::net_flow::Server</text>
<text text-anchor="middle" x="254.5" y="-168.6" font-family="Helvetica,sans-Serif" font-size="8.00">_socket</text>
</a>
</g>
</g>
<!-- Node2&#45;&gt;Node25 -->
<g id="edge21" class="edge">
<title>Node2&#45;&gt;Node25</title>
<path fill="none" stroke="midnightblue" d="M88.26,-528.77C104.97,-504.41 134.56,-457.99 150,-414 182.39,-321.76 122.27,-271.14 186,-197 190.34,-191.95 195.85,-188.06 201.85,-185.05"/>
<polygon fill="midnightblue" stroke="midnightblue" points="85.21,-527.03 82.36,-537.24 90.95,-531.04 85.21,-527.03"/>
</g>
<!-- Node38 -->
<g id="node25" class="node">
<title>Node38</title>
<g id="a_node25"><a xlink:href="classflow_1_1perf_1_1Checkpointing__timer.html" target="_top" xlink:title="The central class in the perf Flow module, this efficiently times the user&#39;s operation,...">
<polygon fill="white" stroke="black" points="195,-701 195,-727 314,-727 314,-701 195,-701"/>
<text text-anchor="start" x="203" y="-716.6" font-family="Helvetica,sans-Serif" font-size="8.00">flow::perf::Checkpointing</text>
<text text-anchor="middle" x="254.5" y="-707.6" font-family="Helvetica,sans-Serif" font-size="8.00">_timer</text>
</a>
</g>
</g>
<!-- Node2&#45;&gt;Node38 -->
<g id="edge23" class="edge">
<title>Node2&#45;&gt;Node38</title>
<path fill="none" stroke="midnightblue" d="M84.79,-563.57C100.82,-593.89 137.66,-656.11 186,-691 191.42,-694.91 197.56,-698.2 203.87,-700.95"/>
<polygon fill="midnightblue" stroke="midnightblue" points="87.86,-561.89 80.17,-554.6 81.64,-565.09 87.86,-561.89"/>
</g>
<!-- Node39 -->
<g id="node26" class="node">
<title>Node39</title>
<g id="a_node26"><a xlink:href="classflow_1_1perf_1_1Checkpointing__timer_1_1Aggregator.html" target="_top" xlink:title="This companion/inner class of Checkpointing_timer provides aggregation of results from many Checkpoin...">
<polygon fill="white" stroke="black" points="195,-656 195,-682 314,-682 314,-656 195,-656"/>
<text text-anchor="start" x="203" y="-671.6" font-family="Helvetica,sans-Serif" font-size="8.00">flow::perf::Checkpointing</text>
<text text-anchor="middle" x="254.5" y="-662.6" font-family="Helvetica,sans-Serif" font-size="8.00">_timer::Aggregator</text>
</a>
</g>
</g>
<!-- Node2&#45;&gt;Node39 -->
<g id="edge24" class="edge">
<title>Node2&#45;&gt;Node39</title>
<path fill="none" stroke="midnightblue" d="M90.16,-562.55C109.69,-584.45 146.95,-622.96 186,-646 192.5,-649.84 199.74,-653.15 206.99,-655.98"/>
<polygon fill="midnightblue" stroke="midnightblue" points="92.58,-560 83.35,-554.78 87.31,-564.61 92.58,-560"/>
</g>
<!-- Node4 -->
<g id="node5" class="node">
<title>Node4</title>
<g id="a_node5"><a xlink:href="classflow_1_1cfg_1_1Static__config__manager.html" target="_top" xlink:title="A Config_manager&#45;related adapter&#45;style class that manages a simple config setup involving a single (t...">
<polygon fill="white" stroke="black" points="367,-611 367,-637 481,-637 481,-611 367,-611"/>
<text text-anchor="start" x="375" y="-626.6" font-family="Helvetica,sans-Serif" font-size="8.00">flow::cfg::Static_config</text>
<text text-anchor="middle" x="424" y="-617.6" font-family="Helvetica,sans-Serif" font-size="8.00">_manager&lt; Value_set &gt;</text>
</a>
</g>
</g>
<!-- Node3&#45;&gt;Node4 -->
<g id="edge3" class="edge">
<title>Node3&#45;&gt;Node4</title>
<path fill="none" stroke="#8b1a1a" d="M333.45,-624C344.73,-624 356.16,-624 366.9,-624"/>
<polygon fill="#8b1a1a" stroke="#8b1a1a" points="333.15,-620.5 323.15,-624 333.15,-627.5 333.15,-620.5"/>
</g>
<!-- Node14 -->
<g id="node10" class="node">
<title>Node14</title>
<g id="a_node10"><a xlink:href="classflow_1_1async_1_1Timed__single__thread__task__loop.html" target="_top" xlink:title="Identical to Single_thread_task_loop, but all tasks posted through it are automatically timed,...">
<polygon fill="white" stroke="black" points="364.5,-353 364.5,-379 483.5,-379 483.5,-353 364.5,-353"/>
<text text-anchor="start" x="372.5" y="-368.6" font-family="Helvetica,sans-Serif" font-size="8.00">flow::async::Timed</text>
<text text-anchor="middle" x="424" y="-359.6" font-family="Helvetica,sans-Serif" font-size="8.00">_single_thread_task_loop</text>
</a>
</g>
</g>
<!-- Node13&#45;&gt;Node14 -->
<g id="edge8" class="edge">
<title>Node13&#45;&gt;Node14</title>
<path fill="none" stroke="midnightblue" d="M304.55,-326.4C329.85,-334.86 360.29,-345.03 383.97,-352.95"/>
<polygon fill="midnightblue" stroke="midnightblue" points="305.37,-322.98 294.77,-323.13 303.15,-329.62 305.37,-322.98"/>
</g>
<!-- Node33 -->
<g id="node15" class="node">
<title>Node33</title>
<g id="a_node15"><a xlink:href="classflow_1_1util_1_1Thread__local__state__registry.html" target="_top" xlink:title=" ">
<polygon fill="white" stroke="black" points="365.5,-755.5 365.5,-790.5 482.5,-790.5 482.5,-755.5 365.5,-755.5"/>
<text text-anchor="start" x="373.5" y="-780.1" font-family="Helvetica,sans-Serif" font-size="8.00">flow::util::Thread</text>
<text text-anchor="start" x="373.5" y="-771.1" font-family="Helvetica,sans-Serif" font-size="8.00">_local_state_registry</text>
<text text-anchor="middle" x="424" y="-762.1" font-family="Helvetica,sans-Serif" font-size="8.00">&lt; std::atomic&lt; bool &gt; &gt;</text>
</a>
</g>
</g>
<!-- Node32&#45;&gt;Node33 -->
<g id="edge13" class="edge">
<title>Node32&#45;&gt;Node33</title>
<path fill="none" stroke="midnightblue" d="M318.45,-789.85C333.86,-787.37 350.27,-784.72 365.41,-782.28"/>
<polygon fill="midnightblue" stroke="midnightblue" points="317.81,-786.41 308.5,-791.46 318.93,-793.32 317.81,-786.41"/>
</g>
<!-- Node34 -->
<g id="node16" class="node">
<title>Node34</title>
<g id="a_node16"><a xlink:href="classflow_1_1util_1_1Thread__local__state__registry.html" target="_top" xlink:title="Similar to boost::thread_specific_ptr&lt;T&gt; but with built&#45;in lazy&#45;init semantics; and more importantly ...">
<polygon fill="white" stroke="black" points="364.5,-809.5 364.5,-844.5 483.5,-844.5 483.5,-809.5 364.5,-809.5"/>
<text text-anchor="start" x="372.5" y="-834.1" font-family="Helvetica,sans-Serif" font-size="8.00">flow::util::Thread</text>
<text text-anchor="start" x="372.5" y="-825.1" font-family="Helvetica,sans-Serif" font-size="8.00">_local_state_registry</text>
<text text-anchor="middle" x="424" y="-816.1" font-family="Helvetica,sans-Serif" font-size="8.00">&lt; Thread_local_state_t &gt;</text>
</a>
</g>
</g>
<!-- Node32&#45;&gt;Node34 -->
<g id="edge14" class="edge">
<title>Node32&#45;&gt;Node34</title>
<path fill="none" stroke="midnightblue" d="M318.67,-810.18C333.62,-812.59 349.5,-815.15 364.24,-817.53"/>
<polygon fill="midnightblue" stroke="midnightblue" points="318.93,-806.68 308.5,-808.54 317.81,-813.59 318.93,-806.68"/>
</g>
<!-- Node21 -->
<g id="node20" class="node">
<title>Node21</title>
<g id="a_node20"><a xlink:href="classflow_1_1net__flow_1_1asio_1_1Node.html" target="_top" xlink:title="A subclass of net_flow::Node that adds the ability to easily and directly use net_flow sockets in gen...">
<polygon fill="white" stroke="black" points="376,-443 376,-469 472,-469 472,-443 376,-443"/>
<text text-anchor="start" x="384" y="-458.6" font-family="Helvetica,sans-Serif" font-size="8.00">flow::net_flow::asio</text>
<text text-anchor="middle" x="424" y="-449.6" font-family="Helvetica,sans-Serif" font-size="8.00">::Node</text>
</a>
</g>
</g>
<!-- Node20&#45;&gt;Node21 -->
<g id="edge18" class="edge">
<title>Node20&#45;&gt;Node21</title>
<path fill="none" stroke="midnightblue" d="M314.53,-363.54C317.52,-365.14 320.36,-366.96 323,-369 348.79,-389 334.07,-411.93 359,-433 363.96,-437.19 369.74,-440.64 375.77,-443.48"/>
<polygon fill="midnightblue" stroke="midnightblue" points="315.79,-360.27 305.24,-359.31 312.89,-366.64 315.79,-360.27"/>
</g>
<!-- Node23 -->
<g id="node22" class="node">
<title>Node23</title>
<g id="a_node22"><a xlink:href="classflow_1_1net__flow_1_1asio_1_1Peer__socket.html" target="_top" xlink:title="A net_flow::Peer_socket that adds integration with boost.asio.">
<polygon fill="white" stroke="black" points="376,-308 376,-334 472,-334 472,-308 376,-308"/>
<text text-anchor="start" x="384" y="-323.6" font-family="Helvetica,sans-Serif" font-size="8.00">flow::net_flow::asio</text>
<text text-anchor="middle" x="424" y="-314.6" font-family="Helvetica,sans-Serif" font-size="8.00">::Peer_socket</text>
</a>
</g>
</g>
<!-- Node22&#45;&gt;Node23 -->
<g id="edge20" class="edge">
<title>Node22&#45;&gt;Node23</title>
<path fill="none" stroke="midnightblue" d="M305.64,-281.26C311.49,-283.19 317.38,-285.13 323,-287 343.53,-293.84 366.38,-301.59 385.05,-307.97"/>
<polygon fill="midnightblue" stroke="midnightblue" points="306.45,-277.85 295.86,-278.06 304.28,-284.5 306.45,-277.85"/>
</g>
<!-- Node26 -->
<g id="node24" class="node">
<title>Node26</title>
<g id="a_node24"><a xlink:href="classflow_1_1net__flow_1_1asio_1_1Server__socket.html" target="_top" xlink:title="A net_flow::Server_socket that adds integration with boost.asio.">
<polygon fill="white" stroke="black" points="376,-82 376,-108 472,-108 472,-82 376,-82"/>
<text text-anchor="start" x="384" y="-97.6" font-family="Helvetica,sans-Serif" font-size="8.00">flow::net_flow::asio</text>
<text text-anchor="middle" x="424" y="-88.6" font-family="Helvetica,sans-Serif" font-size="8.00">::Server_socket</text>
</a>
</g>
</g>
<!-- Node25&#45;&gt;Node26 -->
<g id="edge22" class="edge">
<title>Node25&#45;&gt;Node26</title>
<path fill="none" stroke="midnightblue" d="M285.1,-156.53C305.41,-144.33 333.24,-128.53 359,-117 366.18,-113.78 373.99,-110.74 381.61,-108.01"/>
<polygon fill="midnightblue" stroke="midnightblue" points="283.06,-153.67 276.33,-161.86 286.7,-159.66 283.06,-153.67"/>
</g>
<!-- Node12 -->
<g id="node27" class="node">
<title>Node12</title>
<g id="a_node27"><a xlink:href="classflow_1_1util_1_1Null__interface.html" target="_top" xlink:title="An empty interface, consisting of nothing but a default virtual destructor, intended as a boiler&#45;plat...">
<polygon fill="white" stroke="black" points="18,-211.5 18,-228.5 132,-228.5 132,-211.5 18,-211.5"/>
<text text-anchor="middle" x="75" y="-218.1" font-family="Helvetica,sans-Serif" font-size="8.00">flow::util::Null_interface</text>
</a>
</g>
</g>
<!-- Node12&#45;&gt;Node13 -->
<g id="edge33" class="edge">
<title>Node12&#45;&gt;Node13</title>
<path fill="none" stroke="midnightblue" d="M139.96,-232.4C143.47,-234.04 146.84,-235.9 150,-238 172.49,-252.99 164.21,-271.02 186,-287 192.29,-291.61 199.57,-295.35 206.98,-298.36"/>
<polygon fill="midnightblue" stroke="midnightblue" points="141,-229.04 130.41,-228.54 138.37,-235.53 141,-229.04"/>
</g>
<!-- Node12&#45;&gt;Node20 -->
<g id="edge38" class="edge">
<title>Node12&#45;&gt;Node20</title>
<path fill="none" stroke="midnightblue" d="M141.34,-231.82C144.42,-233.61 147.34,-235.66 150,-238 183.58,-267.56 152.95,-301.84 186,-332 191.13,-336.68 197.32,-340.21 203.84,-342.89"/>
<polygon fill="midnightblue" stroke="midnightblue" points="142.78,-228.62 132.25,-227.42 139.73,-234.93 142.78,-228.62"/>
</g>
<!-- Node12&#45;&gt;Node22 -->
<g id="edge39" class="edge">
<title>Node12&#45;&gt;Node22</title>
<path fill="none" stroke="midnightblue" d="M121.73,-231C131.09,-233.28 140.87,-235.7 150,-238 168.28,-242.61 188.33,-247.8 205.88,-252.4"/>
<polygon fill="midnightblue" stroke="midnightblue" points="122.33,-227.54 111.79,-228.58 120.68,-234.34 122.33,-227.54"/>
</g>
<!-- Node12&#45;&gt;Node25 -->
<g id="edge40" class="edge">
<title>Node12&#45;&gt;Node25</title>
<path fill="none" stroke="midnightblue" d="M121.73,-209C131.09,-206.72 140.87,-204.3 150,-202 167.74,-197.53 187.15,-192.5 204.32,-188.01"/>
<polygon fill="midnightblue" stroke="midnightblue" points="120.68,-205.66 111.79,-211.42 122.33,-212.46 120.68,-205.66"/>
</g>
<!-- Node6 -->
<g id="node28" class="node">
<title>Node6</title>
<g id="a_node28"><a xlink:href="classflow_1_1async_1_1Concurrent__task__loop.html" target="_top" xlink:title="The core flow::async interface, providing an optionally multi&#45;threaded thread pool onto which runnabl...">
<polygon fill="white" stroke="black" points="197.5,-207 197.5,-233 311.5,-233 311.5,-207 197.5,-207"/>
<text text-anchor="start" x="205.5" y="-222.6" font-family="Helvetica,sans-Serif" font-size="8.00">flow::async::Concurrent</text>
<text text-anchor="middle" x="254.5" y="-213.6" font-family="Helvetica,sans-Serif" font-size="8.00">_task_loop</text>
</a>
</g>
</g>
<!-- Node12&#45;&gt;Node6 -->
<g id="edge26" class="edge">
<title>Node12&#45;&gt;Node6</title>
<path fill="none" stroke="midnightblue" d="M142.36,-220C160.47,-220 179.92,-220 197.4,-220"/>
<polygon fill="midnightblue" stroke="midnightblue" points="142.16,-216.5 132.16,-220 142.16,-223.5 142.16,-216.5"/>
</g>
<!-- Node15 -->
<g id="node33" class="node">
<title>Node15</title>
<g id="a_node33"><a xlink:href="classflow_1_1log_1_1Logger.html" target="_top" xlink:title="Interface that the user should implement, passing the implementing Logger into logging classes (Flow&#39;...">
<polygon fill="white" stroke="black" points="211.5,-78.5 211.5,-95.5 297.5,-95.5 297.5,-78.5 211.5,-78.5"/>
<text text-anchor="middle" x="254.5" y="-85.1" font-family="Helvetica,sans-Serif" font-size="8.00">flow::log::Logger</text>
</a>
</g>
</g>
<!-- Node12&#45;&gt;Node15 -->
<g id="edge34" class="edge">
<title>Node12&#45;&gt;Node15</title>
<path fill="none" stroke="midnightblue" d="M140.17,-207.55C143.61,-205.92 146.91,-204.08 150,-202 172.71,-186.7 168.06,-172.69 186,-152 204.75,-130.36 229.63,-107.75 243.34,-95.74"/>
<polygon fill="midnightblue" stroke="midnightblue" points="138.76,-204.35 130.83,-211.38 141.41,-210.82 138.76,-204.35"/>
</g>
<!-- Node6&#45;&gt;Node5 -->
<g id="edge30" class="edge">
<title>Node6&#45;&gt;Node5</title>
<path fill="none" stroke="midnightblue" d="M319.78,-238.55C320.92,-239.63 321.99,-240.78 323,-242 403.3,-338.98 280.16,-424.83 359,-523 363.95,-529.17 370.7,-533.68 377.96,-536.99"/>
<polygon fill="midnightblue" stroke="midnightblue" points="321.61,-235.54 311.54,-232.25 317.36,-241.1 321.61,-235.54"/>
</g>
<!-- Node6&#45;&gt;Node10 -->
<g id="edge31" class="edge">
<title>Node6&#45;&gt;Node10</title>
<path fill="none" stroke="midnightblue" d="M319.83,-238.66C320.94,-239.71 322,-240.83 323,-242 391.64,-322.91 291.58,-396.07 359,-478 362.23,-481.92 366.17,-485.17 370.51,-487.87"/>
<polygon fill="midnightblue" stroke="midnightblue" points="321.84,-235.79 311.76,-232.53 317.6,-241.36 321.84,-235.79"/>
</g>
<!-- Node7 -->
<g id="node29" class="node">
<title>Node7</title>
<g id="a_node29"><a xlink:href="classflow_1_1async_1_1Timed__concurrent__task__loop__impl.html" target="_top" xlink:title=" ">
<polygon fill="white" stroke="black" points="364.5,-127 364.5,-171 483.5,-171 483.5,-127 364.5,-127"/>
<text text-anchor="start" x="372.5" y="-160.6" font-family="Helvetica,sans-Serif" font-size="8.00">flow::async::Timed</text>
<text text-anchor="start" x="372.5" y="-151.6" font-family="Helvetica,sans-Serif" font-size="8.00">_concurrent_task_loop</text>
<text text-anchor="start" x="372.5" y="-142.6" font-family="Helvetica,sans-Serif" font-size="8.00">_impl&lt; std::atomic&lt; perf</text>
<text text-anchor="middle" x="424" y="-133.6" font-family="Helvetica,sans-Serif" font-size="8.00">::duration_rep_t &gt; &gt;</text>
</a>
</g>
</g>
<!-- Node6&#45;&gt;Node7 -->
<g id="edge27" class="edge">
<title>Node6&#45;&gt;Node7</title>
<path fill="none" stroke="midnightblue" d="M306.09,-203.5C311.83,-201.41 317.57,-199.22 323,-197 333.87,-192.56 357.09,-181.45 378.43,-171.03"/>
<polygon fill="midnightblue" stroke="midnightblue" points="304.73,-200.26 296.48,-206.91 307.08,-206.86 304.73,-200.26"/>
</g>
<!-- Node9 -->
<g id="node31" class="node">
<title>Node9</title>
<g id="a_node31"><a xlink:href="classflow_1_1async_1_1Timed__concurrent__task__loop__impl.html" target="_top" xlink:title=" ">
<polygon fill="white" stroke="black" points="370.5,-245 370.5,-289 477.5,-289 477.5,-245 370.5,-245"/>
<text text-anchor="start" x="378.5" y="-278.6" font-family="Helvetica,sans-Serif" font-size="8.00">flow::async::Timed</text>
<text text-anchor="start" x="378.5" y="-269.6" font-family="Helvetica,sans-Serif" font-size="8.00">_concurrent_task_loop</text>
<text text-anchor="start" x="378.5" y="-260.6" font-family="Helvetica,sans-Serif" font-size="8.00">_impl&lt; perf::duration</text>
<text text-anchor="middle" x="424" y="-251.6" font-family="Helvetica,sans-Serif" font-size="8.00">_rep_t &gt;</text>
</a>
</g>
</g>
<!-- Node6&#45;&gt;Node9 -->
<g id="edge29" class="edge">
<title>Node6&#45;&gt;Node9</title>
<path fill="none" stroke="midnightblue" d="M311.84,-235.81C330.76,-241.12 351.78,-247.01 370.4,-252.24"/>
<polygon fill="midnightblue" stroke="midnightblue" points="312.73,-232.42 302.16,-233.09 310.84,-239.16 312.73,-232.42"/>
</g>
<!-- Node11 -->
<g id="node32" class="node">
<title>Node11</title>
<g id="a_node32"><a xlink:href="classflow_1_1async_1_1Timed__concurrent__task__loop__impl.html" target="_top" xlink:title="Decorator of a Concurrent_task_loop with same or greater lifetime that accumulates time elapsed in an...">
<polygon fill="white" stroke="black" points="359,-190.5 359,-225.5 489,-225.5 489,-190.5 359,-190.5"/>
<text text-anchor="start" x="367" y="-215.1" font-family="Helvetica,sans-Serif" font-size="8.00">flow::async::Timed</text>
<text text-anchor="start" x="367" y="-206.1" font-family="Helvetica,sans-Serif" font-size="8.00">_concurrent_task_loop</text>
<text text-anchor="middle" x="424" y="-197.1" font-family="Helvetica,sans-Serif" font-size="8.00">_impl&lt; Time_accumulator &gt;</text>
</a>
</g>
</g>
<!-- Node6&#45;&gt;Node11 -->
<g id="edge32" class="edge">
<title>Node6&#45;&gt;Node11</title>
<path fill="none" stroke="midnightblue" d="M321.83,-215.25C334.01,-214.38 346.7,-213.47 358.82,-212.6"/>
<polygon fill="midnightblue" stroke="midnightblue" points="321.47,-211.77 311.74,-215.97 321.97,-218.75 321.47,-211.77"/>
</g>
<!-- Node8 -->
<g id="node30" class="node">
<title>Node8</title>
<g id="a_node30"><a xlink:href="classflow_1_1async_1_1Timed__concurrent__task__loop.html" target="_top" xlink:title="Decorates a general – potentially multi&#45;threaded – Concurrent_task_loop of any kind but with timing c...">
<polygon fill="white" stroke="black" points="525,-136 525,-162 632,-162 632,-136 525,-136"/>
<text text-anchor="start" x="533" y="-151.6" font-family="Helvetica,sans-Serif" font-size="8.00">flow::async::Timed</text>
<text text-anchor="middle" x="578.5" y="-142.6" font-family="Helvetica,sans-Serif" font-size="8.00">_concurrent_task_loop</text>
</a>
</g>
</g>
<!-- Node7&#45;&gt;Node8 -->
<g id="edge28" class="edge">
<title>Node7&#45;&gt;Node8</title>
<path fill="none" stroke="midnightblue" d="M493.52,-149C504.05,-149 514.77,-149 524.87,-149"/>
<polygon fill="midnightblue" stroke="midnightblue" points="493.52,-145.5 483.52,-149 493.52,-152.5 493.52,-145.5"/>
</g>
<!-- Node15&#45;&gt;Node16 -->
<g id="edge35" class="edge">
<title>Node15&#45;&gt;Node16</title>
<path fill="none" stroke="midnightblue" d="M277.11,-101.75C292.51,-113.49 312.31,-131.35 323,-152 371.79,-246.22 291.58,-306.07 359,-388 363.28,-393.2 368.82,-397.22 374.86,-400.33"/>
<polygon fill="midnightblue" stroke="midnightblue" points="278.79,-98.64 268.65,-95.57 274.66,-104.3 278.79,-98.64"/>
</g>
<!-- Node17 -->
<g id="node34" class="node">
<title>Node17</title>
<g id="a_node34"><a xlink:href="classflow_1_1log_1_1Buffer__logger.html" target="_top" xlink:title="An implementation of Logger that logs messages to an internal std::string buffer and provides read&#45;on...">
<polygon fill="white" stroke="black" points="368,-0.5 368,-17.5 480,-17.5 480,-0.5 368,-0.5"/>
<text text-anchor="middle" x="424" y="-7.1" font-family="Helvetica,sans-Serif" font-size="8.00">flow::log::Buffer_logger</text>
</a>
</g>
</g>
<!-- Node15&#45;&gt;Node17 -->
<g id="edge36" class="edge">
<title>Node15&#45;&gt;Node17</title>
<path fill="none" stroke="midnightblue" d="M276.5,-72.7C296.86,-59.37 328.97,-39.69 359,-27 367.72,-23.32 377.42,-20.15 386.58,-17.54"/>
<polygon fill="midnightblue" stroke="midnightblue" points="274.42,-69.89 268.03,-78.34 278.29,-75.72 274.42,-69.89"/>
</g>
<!-- Node18 -->
<g id="node35" class="node">
<title>Node18</title>
<g id="a_node35"><a xlink:href="classflow_1_1log_1_1Simple__ostream__logger.html" target="_top" xlink:title="An implementation of Logger that logs messages to the given ostreams (e.g., cout or an ofstream for a...">
<polygon fill="white" stroke="black" points="362.5,-37 362.5,-63 485.5,-63 485.5,-37 362.5,-37"/>
<text text-anchor="start" x="370.5" y="-52.6" font-family="Helvetica,sans-Serif" font-size="8.00">flow::log::Simple_ostream</text>
<text text-anchor="middle" x="424" y="-43.6" font-family="Helvetica,sans-Serif" font-size="8.00">_logger</text>
</a>
</g>
</g>
<!-- Node15&#45;&gt;Node18 -->
<g id="edge37" class="edge">
<title>Node15&#45;&gt;Node18</title>
<path fill="none" stroke="midnightblue" d="M304.13,-76.26C322.85,-72.12 344.42,-67.36 364,-63.03"/>
<polygon fill="midnightblue" stroke="midnightblue" points="303.36,-72.84 294.35,-78.42 304.87,-79.68 303.36,-72.84"/>
</g>
<!-- Node31 -->
<g id="node36" class="node">
<title>Node31</title>
<g id="a_node36"><a xlink:href="classflow_1_1cfg_1_1Option__set__base.html" target="_top" xlink:title="Un&#45;templated base for Option_set.">
<polygon fill="white" stroke="black" points="12.5,-832.5 12.5,-849.5 137.5,-849.5 137.5,-832.5 12.5,-832.5"/>
<text text-anchor="middle" x="75" y="-839.1" font-family="Helvetica,sans-Serif" font-size="8.00">flow::cfg::Option_set_base</text>
</a>
</g>
</g>
<!-- Node31&#45;&gt;Node30 -->
<g id="edge41" class="edge">
<title>Node31&#45;&gt;Node30</title>
<path fill="none" stroke="midnightblue" d="M147.61,-841C166.45,-841 186.35,-841 203.75,-841"/>
<polygon fill="midnightblue" stroke="midnightblue" points="147.58,-837.5 137.58,-841 147.58,-844.5 147.58,-837.5"/>
</g>
<!-- Node36 -->
<g id="node37" class="node">
<title>Node36</title>
<g id="a_node37"><a xlink:href="classflow_1_1util_1_1Shared__ptr__alias__holder.html" target="_top" xlink:title=" ">
<polygon fill="white" stroke="black" points="8.5,-369.5 8.5,-404.5 141.5,-404.5 141.5,-369.5 8.5,-369.5"/>
<text text-anchor="start" x="16.5" y="-394.1" font-family="Helvetica,sans-Serif" font-size="8.00">flow::util::Shared</text>
<text text-anchor="start" x="16.5" y="-385.1" font-family="Helvetica,sans-Serif" font-size="8.00">_ptr_alias_holder&lt; boost</text>
<text text-anchor="middle" x="75" y="-376.1" font-family="Helvetica,sans-Serif" font-size="8.00">::shared_ptr&lt; Event_set &gt; &gt;</text>
</a>
</g>
</g>
<!-- Node36&#45;&gt;Node35 -->
<g id="edge42" class="edge">
<title>Node36&#45;&gt;Node35</title>
<path fill="none" stroke="midnightblue" d="M151.96,-387C166.34,-387 181.17,-387 194.92,-387"/>
<polygon fill="midnightblue" stroke="midnightblue" points="151.59,-383.5 141.59,-387 151.59,-390.5 151.59,-383.5"/>
</g>
<!-- Node24 -->
<g id="node38" class="node">
<title>Node24</title>
<g id="a_node38"><a xlink:href="classflow_1_1util_1_1Shared__ptr__alias__holder.html" target="_top" xlink:title=" ">
<polygon fill="white" stroke="black" points="4,-247.5 4,-282.5 146,-282.5 146,-247.5 4,-247.5"/>
<text text-anchor="start" x="12" y="-272.1" font-family="Helvetica,sans-Serif" font-size="8.00">flow::util::Shared</text>
<text text-anchor="start" x="12" y="-263.1" font-family="Helvetica,sans-Serif" font-size="8.00">_ptr_alias_holder&lt; boost</text>
<text text-anchor="middle" x="75" y="-254.1" font-family="Helvetica,sans-Serif" font-size="8.00">::shared_ptr&lt; Peer_socket &gt; &gt;</text>
</a>
</g>
</g>
<!-- Node24&#45;&gt;Node22 -->
<g id="edge43" class="edge">
<title>Node24&#45;&gt;Node22</title>
<path fill="none" stroke="midnightblue" d="M156.59,-265C173.47,-265 190.75,-265 205.96,-265"/>
<polygon fill="midnightblue" stroke="midnightblue" points="156.15,-261.5 146.15,-265 156.15,-268.5 156.15,-261.5"/>
</g>
<!-- Node27 -->
<g id="node39" class="node">
<title>Node27</title>
<g id="a_node39"><a xlink:href="classflow_1_1util_1_1Shared__ptr__alias__holder.html" target="_top" xlink:title=" ">
<polygon fill="white" stroke="black" points="0,-157.5 0,-192.5 150,-192.5 150,-157.5 0,-157.5"/>
<text text-anchor="start" x="8" y="-182.1" font-family="Helvetica,sans-Serif" font-size="8.00">flow::util::Shared</text>
<text text-anchor="start" x="8" y="-173.1" font-family="Helvetica,sans-Serif" font-size="8.00">_ptr_alias_holder&lt; boost</text>
<text text-anchor="middle" x="75" y="-164.1" font-family="Helvetica,sans-Serif" font-size="8.00">::shared_ptr&lt; Server_socket &gt; &gt;</text>
</a>
</g>
</g>
<!-- Node27&#45;&gt;Node25 -->
<g id="edge44" class="edge">
<title>Node27&#45;&gt;Node25</title>
<path fill="none" stroke="midnightblue" d="M160.5,-175C174.64,-175 188.93,-175 201.92,-175"/>
<polygon fill="midnightblue" stroke="midnightblue" points="160.25,-171.5 150.25,-175 160.25,-178.5 160.25,-171.5"/>
</g>
<!-- Node19 -->
<g id="node40" class="node">
<title>Node19</title>
<g id="a_node40"><a xlink:href="classflow_1_1util_1_1Unique__id__holder.html" target="_top" xlink:title="Each object of this class stores (at construction) and returns (on demand) a numeric ID unique from a...">
<polygon fill="white" stroke="black" points="31.5,-74 31.5,-100 118.5,-100 118.5,-74 31.5,-74"/>
<text text-anchor="start" x="39.5" y="-89.6" font-family="Helvetica,sans-Serif" font-size="8.00">flow::util::Unique</text>
<text text-anchor="middle" x="75" y="-80.6" font-family="Helvetica,sans-Serif" font-size="8.00">_id_holder</text>
</a>
</g>
</g>
<!-- Node19&#45;&gt;Node15 -->
<g id="edge45" class="edge">
<title>Node19&#45;&gt;Node15</title>
<path fill="none" stroke="midnightblue" d="M128.72,-87C155.1,-87 186.59,-87 211.33,-87"/>
<polygon fill="midnightblue" stroke="midnightblue" points="128.52,-83.5 118.52,-87 128.52,-90.5 128.52,-83.5"/>
</g>
</g>
</svg>
