<?xml version="1.0" encoding="UTF-8" standalone="no"?>
<!DOCTYPE svg PUBLIC "-//W3C//DTD SVG 1.1//EN"
 "http://www.w3.org/Graphics/SVG/1.1/DTD/svg11.dtd">
<!-- Generated by graphviz version 2.43.0 (0)
 -->
<!-- Title: flow::perf::Checkpointing_timer::Checkpoint Pages: 1 -->
<svg width="127pt" height="98pt"
 viewBox="0.00 0.00 127.00 98.00" xmlns="http://www.w3.org/2000/svg" xmlns:xlink="http://www.w3.org/1999/xlink">
<g id="graph0" class="graph" transform="scale(1 1) rotate(0) translate(4 94)">
<title>flow::perf::Checkpointing_timer::Checkpoint</title>
<polygon fill="white" stroke="transparent" points="-4,4 -4,-94 123,-94 123,4 -4,4"/>
<!-- Node1 -->
<g id="node1" class="node">
<title>Node1</title>
<g id="a_node1"><a xlink:title="The entirety of the information recorded with each Checkpointing_timer::checkpoint() call; it contain...">
<polygon fill="#bfbfbf" stroke="black" points="0,-0.5 0,-26.5 119,-26.5 119,-0.5 0,-0.5"/>
<text text-anchor="start" x="8" y="-16.1" font-family="Helvetica,sans-Serif" font-size="8.00">flow::perf::Checkpointing</text>
<text text-anchor="middle" x="59.5" y="-7.1" font-family="Helvetica,sans-Serif" font-size="8.00">_timer::Checkpoint</text>
</a>
</g>
</g>
<!-- Node2 -->
<g id="node2" class="node">
<title>Node2</title>
<g id="a_node2"><a xlink:href="structflow_1_1perf_1_1Duration__set.html" target="_top" xlink:title="Convenience wrapper around an array&lt;Duration, N&gt;, which stores a duration for each of the N possible ...">
<polygon fill="white" stroke="black" points="3,-72.5 3,-89.5 116,-89.5 116,-72.5 3,-72.5"/>
<text text-anchor="middle" x="59.5" y="-79.1" font-family="Helvetica,sans-Serif" font-size="8.00">flow::perf::Duration_set</text>
</a>
</g>
</g>
<!-- Node2&#45;&gt;Node1 -->
<g id="edge1" class="edge">
<title>Node2&#45;&gt;Node1</title>
<path fill="none" stroke="#9a32cd" stroke-dasharray="5,2" d="M59.5,-62.18C59.5,-50.97 59.5,-36.8 59.5,-26.82"/>
<polygon fill="#9a32cd" stroke="#9a32cd" points="56,-62.49 59.5,-72.49 63,-62.49 56,-62.49"/>
<text text-anchor="middle" x="87" y="-47.6" font-family="Helvetica,sans-Serif" font-size="8.00"> m_since_last</text>
</g>
</g>
</svg>
