<?xml version="1.0" encoding="UTF-8" standalone="no"?>
<!DOCTYPE svg PUBLIC "-//W3C//DTD SVG 1.1//EN"
 "http://www.w3.org/Graphics/SVG/1.1/DTD/svg11.dtd">
<!-- Generated by graphviz version 2.43.0 (0)
 -->
<!-- Title: flow::net_flow::Peer_socket_info Pages: 1 -->
<svg width="509pt" height="171pt"
 viewBox="0.00 0.00 509.00 171.00" xmlns="http://www.w3.org/2000/svg" xmlns:xlink="http://www.w3.org/1999/xlink">
<g id="graph0" class="graph" transform="scale(1 1) rotate(0) translate(4 167)">
<title>flow::net_flow::Peer_socket_info</title>
<polygon fill="white" stroke="transparent" points="-4,4 -4,-167 505,-167 505,4 -4,4"/>
<!-- Node1 -->
<g id="node1" class="node">
<title>Node1</title>
<g id="a_node1"><a xlink:title="A data store that keeps stats about the a Peer_socket connection.">
<polygon fill="#bfbfbf" stroke="black" points="404,-70.5 404,-96.5 501,-96.5 501,-70.5 404,-70.5"/>
<text text-anchor="start" x="412" y="-86.1" font-family="Helvetica,sans-Serif" font-size="8.00">flow::net_flow::Peer</text>
<text text-anchor="middle" x="452.5" y="-77.1" font-family="Helvetica,sans-Serif" font-size="8.00">_socket_info</text>
</a>
</g>
</g>
<!-- Node2 -->
<g id="node2" class="node">
<title>Node2</title>
<g id="a_node2"><a xlink:href="structflow_1_1net__flow_1_1Peer__socket__receive__stats.html" target="_top" xlink:title="A data store that keeps stats about the incoming direction of a Peer_socket connection to another Flo...">
<polygon fill="white" stroke="black" points="206,-136.5 206,-162.5 311,-162.5 311,-136.5 206,-136.5"/>
<text text-anchor="start" x="214" y="-152.1" font-family="Helvetica,sans-Serif" font-size="8.00">flow::net_flow::Peer</text>
<text text-anchor="middle" x="258.5" y="-143.1" font-family="Helvetica,sans-Serif" font-size="8.00">_socket_receive_stats</text>
</a>
</g>
</g>
<!-- Node2&#45;&gt;Node1 -->
<g id="edge1" class="edge">
<title>Node2&#45;&gt;Node1</title>
<path fill="none" stroke="#9a32cd" stroke-dasharray="5,2" d="M311.13,-133.42C334.14,-126.09 361.52,-117.13 386,-108.5 396.56,-104.78 407.99,-100.5 418.3,-96.55"/>
<polygon fill="#9a32cd" stroke="#9a32cd" points="310.03,-130.1 301.56,-136.46 312.15,-136.77 310.03,-130.1"/>
<text text-anchor="middle" x="357.5" y="-129.1" font-family="Helvetica,sans-Serif" font-size="8.00"> m_rcv</text>
</g>
<!-- Node3 -->
<g id="node3" class="node">
<title>Node3</title>
<g id="a_node3"><a xlink:href="classflow_1_1net__flow_1_1Peer__socket__send__stats.html" target="_top" xlink:title="A data store that keeps stats about the outgoing direction of a Peer_socket connection to another Flo...">
<polygon fill="white" stroke="black" points="210,-91.5 210,-117.5 307,-117.5 307,-91.5 210,-91.5"/>
<text text-anchor="start" x="218" y="-107.1" font-family="Helvetica,sans-Serif" font-size="8.00">flow::net_flow::Peer</text>
<text text-anchor="middle" x="258.5" y="-98.1" font-family="Helvetica,sans-Serif" font-size="8.00">_socket_send_stats</text>
</a>
</g>
</g>
<!-- Node3&#45;&gt;Node1 -->
<g id="edge2" class="edge">
<title>Node3&#45;&gt;Node1</title>
<path fill="none" stroke="#9a32cd" stroke-dasharray="5,2" d="M317.75,-98.13C345.29,-95.12 377.77,-91.56 403.82,-88.71"/>
<polygon fill="#9a32cd" stroke="#9a32cd" points="317.01,-94.69 307.45,-99.25 317.78,-101.65 317.01,-94.69"/>
<text text-anchor="middle" x="357.5" y="-98.1" font-family="Helvetica,sans-Serif" font-size="8.00"> m_snd</text>
</g>
<!-- Node4 -->
<g id="node4" class="node">
<title>Node4</title>
<g id="a_node4"><a xlink:href="structflow_1_1net__flow_1_1Peer__socket__options.html" target="_top" xlink:title="A set of low&#45;level options affecting a single Peer_socket.">
<polygon fill="white" stroke="black" points="0,-25.5 0,-51.5 97,-51.5 97,-25.5 0,-25.5"/>
<text text-anchor="start" x="8" y="-41.1" font-family="Helvetica,sans-Serif" font-size="8.00">flow::net_flow::Peer</text>
<text text-anchor="middle" x="48.5" y="-32.1" font-family="Helvetica,sans-Serif" font-size="8.00">_socket_options</text>
</a>
</g>
</g>
<!-- Node4&#45;&gt;Node1 -->
<g id="edge3" class="edge">
<title>Node4&#45;&gt;Node1</title>
<path fill="none" stroke="#9a32cd" stroke-dasharray="5,2" d="M107.57,-45C187.48,-53.95 329.86,-69.88 403.87,-78.17"/>
<polygon fill="#9a32cd" stroke="#9a32cd" points="107.52,-41.47 97.19,-43.84 106.74,-48.43 107.52,-41.47"/>
<text text-anchor="middle" x="258.5" y="-70.1" font-family="Helvetica,sans-Serif" font-size="8.00"> m_sock_opts</text>
</g>
<!-- Node5 -->
<g id="node5" class="node">
<title>Node5</title>
<g id="a_node5"><a xlink:href="structflow_1_1net__flow_1_1Node__options.html" target="_top" xlink:title="A set of low&#45;level options affecting a single Flow Node, including Peer_socket objects and other obje...">
<polygon fill="white" stroke="black" points="208,-0.5 208,-26.5 309,-26.5 309,-0.5 208,-0.5"/>
<text text-anchor="start" x="216" y="-16.1" font-family="Helvetica,sans-Serif" font-size="8.00">flow::net_flow::Node</text>
<text text-anchor="middle" x="258.5" y="-7.1" font-family="Helvetica,sans-Serif" font-size="8.00">_options</text>
</a>
</g>
</g>
<!-- Node4&#45;&gt;Node5 -->
<g id="edge5" class="edge">
<title>Node4&#45;&gt;Node5</title>
<path fill="none" stroke="#9a32cd" stroke-dasharray="5,2" d="M107.21,-31.56C138.81,-27.77 177.59,-23.11 207.83,-19.47"/>
<polygon fill="#9a32cd" stroke="#9a32cd" points="106.73,-28.1 97.22,-32.76 107.57,-35.05 106.73,-28.1"/>
<text text-anchor="middle" x="151.5" y="-33.1" font-family="Helvetica,sans-Serif" font-size="8.00"> m_dyn_sock_opts</text>
</g>
<!-- Node5&#45;&gt;Node1 -->
<g id="edge4" class="edge">
<title>Node5&#45;&gt;Node1</title>
<path fill="none" stroke="#9a32cd" stroke-dasharray="5,2" d="M319.17,-21.54C340.76,-25.66 364.98,-31.72 386,-40.5 404.08,-48.05 422.54,-60.71 435.24,-70.34"/>
<polygon fill="#9a32cd" stroke="#9a32cd" points="319.6,-18.06 309.14,-19.73 318.35,-24.95 319.6,-18.06"/>
<text text-anchor="middle" x="357.5" y="-43.1" font-family="Helvetica,sans-Serif" font-size="8.00"> m_node_opts</text>
</g>
</g>
</svg>
