<?xml version="1.0" encoding="UTF-8" standalone="no"?>
<!DOCTYPE svg PUBLIC "-//W3C//DTD SVG 1.1//EN"
 "http://www.w3.org/Graphics/SVG/1.1/DTD/svg11.dtd">
<!-- Generated by graphviz version 2.43.0 (0)
 -->
<!-- Title: flow::net_flow::Node_options Pages: 1 -->
<svg width="132pt" height="107pt"
 viewBox="0.00 0.00 131.50 107.00" xmlns="http://www.w3.org/2000/svg" xmlns:xlink="http://www.w3.org/1999/xlink">
<g id="graph0" class="graph" transform="scale(1 1) rotate(0) translate(4 103)">
<title>flow::net_flow::Node_options</title>
<polygon fill="white" stroke="transparent" points="-4,4 -4,-103 127.5,-103 127.5,4 -4,4"/>
<!-- Node1 -->
<g id="node1" class="node">
<title>Node1</title>
<g id="a_node1"><a xlink:title="A set of low&#45;level options affecting a single Flow Node, including Peer_socket objects and other obje...">
<polygon fill="#bfbfbf" stroke="black" points="0,-0.5 0,-26.5 101,-26.5 101,-0.5 0,-0.5"/>
<text text-anchor="start" x="8" y="-16.1" font-family="Helvetica,sans-Serif" font-size="8.00">flow::net_flow::Node</text>
<text text-anchor="middle" x="50.5" y="-7.1" font-family="Helvetica,sans-Serif" font-size="8.00">_options</text>
</a>
</g>
</g>
<!-- Node2 -->
<g id="node2" class="node">
<title>Node2</title>
<g id="a_node2"><a xlink:href="structflow_1_1net__flow_1_1Peer__socket__options.html" target="_top" xlink:title="A set of low&#45;level options affecting a single Peer_socket.">
<polygon fill="white" stroke="black" points="2,-72.5 2,-98.5 99,-98.5 99,-72.5 2,-72.5"/>
<text text-anchor="start" x="10" y="-88.1" font-family="Helvetica,sans-Serif" font-size="8.00">flow::net_flow::Peer</text>
<text text-anchor="middle" x="50.5" y="-79.1" font-family="Helvetica,sans-Serif" font-size="8.00">_socket_options</text>
</a>
</g>
</g>
<!-- Node2&#45;&gt;Node1 -->
<g id="edge1" class="edge">
<title>Node2&#45;&gt;Node1</title>
<path fill="none" stroke="#9a32cd" stroke-dasharray="5,2" d="M50.5,-62.26C50.5,-50.43 50.5,-36.35 50.5,-26.55"/>
<polygon fill="#9a32cd" stroke="#9a32cd" points="47,-62.31 50.5,-72.31 54,-62.31 47,-62.31"/>
<text text-anchor="middle" x="87" y="-47.6" font-family="Helvetica,sans-Serif" font-size="8.00"> m_dyn_sock_opts</text>
</g>
</g>
</svg>
